<?xml version="1.0" encoding="UTF-8" standalone="no"?>
<!DOCTYPE svg PUBLIC "-//W3C//DTD SVG 1.1//EN"
 "http://www.w3.org/Graphics/SVG/1.1/DTD/svg11.dtd">
<!-- Generated by graphviz version 7.0.6 (20230107.1202)
 -->
<!-- Title: include/proxsuite/linalg/veg/memory/address.hpp Pages: 1 -->
<svg width="887pt" height="357pt"
 viewBox="0.00 0.00 887.47 357.00" xmlns="http://www.w3.org/2000/svg" xmlns:xlink="http://www.w3.org/1999/xlink">
<g id="graph0" class="graph" transform="scale(1 1) rotate(0) translate(4 353)">
<title>include/proxsuite/linalg/veg/memory/address.hpp</title>
<!-- Node1 -->
<g id="node1" class="node">
<title>Node1</title>
<g id="a_node1"><a xlink:title=" ">
<polygon fill="#999999" stroke="#666666" points="693.97,-349 549.97,-349 549.97,-319 693.97,-319 693.97,-349"/>
<text text-anchor="start" x="557.97" y="-337" font-family="Helvetica,sans-Serif" font-size="10.00">include/proxsuite/linalg</text>
<text text-anchor="middle" x="621.97" y="-326" font-family="Helvetica,sans-Serif" font-size="10.00">/veg/memory/address.hpp</text>
</a>
</g>
</g>
<!-- Node2 -->
<g id="node2" class="node">
<title>Node2</title>
<g id="a_node2"><a xlink:href="veg_2type__traits_2core_8hpp.html" target="_top" xlink:title=" ">
<polygon fill="white" stroke="#666666" points="680.47,-283 563.47,-283 563.47,-253 680.47,-253 680.47,-283"/>
<text text-anchor="start" x="571.47" y="-271" font-family="Helvetica,sans-Serif" font-size="10.00">proxsuite/linalg/veg</text>
<text text-anchor="middle" x="621.97" y="-260" font-family="Helvetica,sans-Serif" font-size="10.00">/type_traits/core.hpp</text>
</a>
</g>
</g>
<!-- Node1&#45;&gt;Node2 -->
<g id="edge1" class="edge">
<title>Node1&#45;&gt;Node2</title>
<path fill="none" stroke="#63b8ff" d="M621.97,-318.8C621.97,-311.67 621.97,-302.82 621.97,-294.56"/>
<polygon fill="#63b8ff" stroke="#63b8ff" points="625.47,-294.68 621.97,-284.68 618.47,-294.68 625.47,-294.68"/>
</g>
<!-- Node10 -->
<g id="node10" class="node">
<title>Node10</title>
<g id="a_node10"><a xlink:href="prologue_8hpp.html" target="_top" xlink:title=" ">
<polygon fill="white" stroke="#666666" points="240.97,-85 116.97,-85 116.97,-55 240.97,-55 240.97,-85"/>
<text text-anchor="start" x="124.97" y="-73" font-family="Helvetica,sans-Serif" font-size="10.00">proxsuite/linalg/veg</text>
<text text-anchor="middle" x="178.97" y="-62" font-family="Helvetica,sans-Serif" font-size="10.00">/internal/prologue.hpp</text>
</a>
</g>
</g>
<!-- Node1&#45;&gt;Node10 -->
<g id="edge21" class="edge">
<title>Node1&#45;&gt;Node10</title>
<path fill="none" stroke="#63b8ff" d="M589.11,-318.61C525.93,-290.34 384.15,-223.92 274.97,-151 248.77,-133.5 221.4,-110.11 202.62,-93.14"/>
<polygon fill="#63b8ff" stroke="#63b8ff" points="204.99,-90.57 195.25,-86.4 200.27,-95.73 204.99,-90.57"/>
</g>
<!-- Node12 -->
<g id="node12" class="node">
<title>Node12</title>
<g id="a_node12"><a xlink:href="epilogue_8hpp.html" target="_top" xlink:title=" ">
<polygon fill="white" stroke="#666666" points="879.47,-85 756.47,-85 756.47,-55 879.47,-55 879.47,-85"/>
<text text-anchor="start" x="764.47" y="-73" font-family="Helvetica,sans-Serif" font-size="10.00">proxsuite/linalg/veg</text>
<text text-anchor="middle" x="817.97" y="-62" font-family="Helvetica,sans-Serif" font-size="10.00">/internal/epilogue.hpp</text>
</a>
</g>
</g>
<!-- Node1&#45;&gt;Node12 -->
<g id="edge23" class="edge">
<title>Node1&#45;&gt;Node12</title>
<path fill="none" stroke="#63b8ff" d="M646.16,-318.6C660.06,-309.55 677.23,-296.96 689.97,-283 744.28,-223.52 787.64,-137.58 807,-95.74"/>
<polygon fill="#63b8ff" stroke="#63b8ff" points="810.13,-97.33 811.09,-86.78 803.75,-94.43 810.13,-97.33"/>
</g>
<!-- Node13 -->
<g id="node13" class="node">
<title>Node13</title>
<g id="a_node13"><a xlink:href="std_8hpp.html" target="_top" xlink:title=" ">
<polygon fill="white" stroke="#666666" points="113.47,-151 0.47,-151 0.47,-121 113.47,-121 113.47,-151"/>
<text text-anchor="start" x="8.47" y="-139" font-family="Helvetica,sans-Serif" font-size="10.00">proxsuite/linalg/veg</text>
<text text-anchor="middle" x="56.97" y="-128" font-family="Helvetica,sans-Serif" font-size="10.00">/internal/std.hpp</text>
</a>
</g>
</g>
<!-- Node1&#45;&gt;Node13 -->
<g id="edge18" class="edge">
<title>Node1&#45;&gt;Node13</title>
<path fill="none" stroke="#63b8ff" d="M549.77,-330.89C442.86,-326.73 248.45,-314.92 186.97,-283 132.92,-254.94 90.77,-194.49 70.4,-160.84"/>
<polygon fill="#63b8ff" stroke="#63b8ff" points="73.65,-159.46 65.55,-152.62 67.62,-163.01 73.65,-159.46"/>
</g>
<!-- Node14 -->
<g id="node14" class="node">
<title>Node14</title>
<g id="a_node14"><a xlink:title=" ">
<polygon fill="#e0e0e0" stroke="#999999" points="837.97,-277.5 779.97,-277.5 779.97,-258.5 837.97,-258.5 837.97,-277.5"/>
<text text-anchor="middle" x="808.97" y="-265.5" font-family="Helvetica,sans-Serif" font-size="10.00">memory</text>
</a>
</g>
</g>
<!-- Node1&#45;&gt;Node14 -->
<g id="edge22" class="edge">
<title>Node1&#45;&gt;Node14</title>
<path fill="none" stroke="#63b8ff" d="M663.94,-318.64C696.35,-307.54 740.79,-292.34 771.9,-281.69"/>
<polygon fill="#63b8ff" stroke="#63b8ff" points="772.96,-285.03 781.28,-278.48 770.69,-278.4 772.96,-285.03"/>
</g>
<!-- Node3 -->
<g id="node3" class="node">
<title>Node3</title>
<g id="a_node3"><a xlink:href="typedefs_8hpp.html" target="_top" xlink:title=" ">
<polygon fill="white" stroke="#666666" points="737.97,-85 613.97,-85 613.97,-55 737.97,-55 737.97,-85"/>
<text text-anchor="start" x="621.97" y="-73" font-family="Helvetica,sans-Serif" font-size="10.00">proxsuite/linalg/veg</text>
<text text-anchor="middle" x="675.97" y="-62" font-family="Helvetica,sans-Serif" font-size="10.00">/internal/typedefs.hpp</text>
</a>
</g>
</g>
<!-- Node2&#45;&gt;Node3 -->
<g id="edge2" class="edge">
<title>Node2&#45;&gt;Node3</title>
<path fill="none" stroke="#63b8ff" d="M634.74,-252.78C642.49,-243.32 651.84,-230.24 656.97,-217 672.5,-176.96 675.83,-126.6 676.29,-96.7"/>
<polygon fill="#63b8ff" stroke="#63b8ff" points="679.78,-96.76 676.32,-86.75 672.78,-96.73 679.78,-96.76"/>
</g>
<!-- Node6 -->
<g id="node6" class="node">
<title>Node6</title>
<g id="a_node6"><a xlink:href="integer__seq_8hpp.html" target="_top" xlink:title=" ">
<polygon fill="white" stroke="#666666" points="647.97,-217 509.97,-217 509.97,-187 647.97,-187 647.97,-217"/>
<text text-anchor="start" x="517.97" y="-205" font-family="Helvetica,sans-Serif" font-size="10.00">proxsuite/linalg/veg</text>
<text text-anchor="middle" x="578.97" y="-194" font-family="Helvetica,sans-Serif" font-size="10.00">/internal/integer_seq.hpp</text>
</a>
</g>
</g>
<!-- Node2&#45;&gt;Node6 -->
<g id="edge5" class="edge">
<title>Node2&#45;&gt;Node6</title>
<path fill="none" stroke="#63b8ff" d="M612.43,-252.8C607.25,-245.09 600.72,-235.37 594.8,-226.56"/>
<polygon fill="#63b8ff" stroke="#63b8ff" points="597.81,-224.77 589.33,-218.42 592,-228.67 597.81,-224.77"/>
</g>
<!-- Node2&#45;&gt;Node10 -->
<g id="edge16" class="edge">
<title>Node2&#45;&gt;Node10</title>
<path fill="none" stroke="#63b8ff" d="M583.9,-252.54C529.02,-231.46 424.75,-190.48 337.97,-151 295.46,-131.66 247.72,-107.27 215.75,-90.54"/>
<polygon fill="#63b8ff" stroke="#63b8ff" points="217.77,-87.64 207.29,-86.09 214.51,-93.84 217.77,-87.64"/>
</g>
<!-- Node2&#45;&gt;Node12 -->
<g id="edge17" class="edge">
<title>Node2&#45;&gt;Node12</title>
<path fill="none" stroke="#63b8ff" d="M639.19,-252.61C650.07,-243.08 664.08,-229.99 674.97,-217 707.76,-177.89 701.49,-156.68 737.97,-121 749.84,-109.39 764.86,-99.13 778.67,-90.98"/>
<polygon fill="#63b8ff" stroke="#63b8ff" points="780.16,-94.15 787.13,-86.17 776.71,-88.07 780.16,-94.15"/>
</g>
<!-- Node4 -->
<g id="node4" class="node">
<title>Node4</title>
<g id="a_node4"><a xlink:title=" ">
<polygon fill="#e0e0e0" stroke="#999999" points="321.97,-19 271.97,-19 271.97,0 321.97,0 321.97,-19"/>
<text text-anchor="middle" x="296.97" y="-7" font-family="Helvetica,sans-Serif" font-size="10.00">cstdint</text>
</a>
</g>
</g>
<!-- Node3&#45;&gt;Node4 -->
<g id="edge3" class="edge">
<title>Node3&#45;&gt;Node4</title>
<path fill="none" stroke="#63b8ff" d="M613.67,-56.53C610.73,-56 607.82,-55.49 604.97,-55 507.07,-38.29 390.95,-22.63 333.26,-15.13"/>
<polygon fill="#63b8ff" stroke="#63b8ff" points="334.06,-11.7 323.69,-13.89 333.16,-18.65 334.06,-11.7"/>
</g>
<!-- Node5 -->
<g id="node5" class="node">
<title>Node5</title>
<g id="a_node5"><a xlink:title=" ">
<polygon fill="#e0e0e0" stroke="#999999" points="702.47,-19 649.47,-19 649.47,0 702.47,0 702.47,-19"/>
<text text-anchor="middle" x="675.97" y="-7" font-family="Helvetica,sans-Serif" font-size="10.00">cstddef</text>
</a>
</g>
</g>
<!-- Node3&#45;&gt;Node5 -->
<g id="edge4" class="edge">
<title>Node3&#45;&gt;Node5</title>
<path fill="none" stroke="#63b8ff" d="M675.97,-54.54C675.97,-47.34 675.97,-38.53 675.97,-30.68"/>
<polygon fill="#63b8ff" stroke="#63b8ff" points="679.47,-30.69 675.97,-20.69 672.47,-30.69 679.47,-30.69"/>
</g>
<!-- Node6&#45;&gt;Node3 -->
<g id="edge6" class="edge">
<title>Node6&#45;&gt;Node3</title>
<path fill="none" stroke="#63b8ff" d="M585.46,-186.64C593.33,-170.01 607.58,-142.17 623.97,-121 631.76,-110.94 641.55,-101 650.53,-92.66"/>
<polygon fill="#63b8ff" stroke="#63b8ff" points="652.59,-95.51 657.67,-86.21 647.9,-90.31 652.59,-95.51"/>
</g>
<!-- Node7 -->
<g id="node7" class="node">
<title>Node7</title>
<g id="a_node7"><a xlink:href="macros_8hpp.html" target="_top" xlink:title=" ">
<polygon fill="white" stroke="#666666" points="571.47,-151 454.47,-151 454.47,-121 571.47,-121 571.47,-151"/>
<text text-anchor="start" x="462.47" y="-139" font-family="Helvetica,sans-Serif" font-size="10.00">proxsuite/linalg/veg</text>
<text text-anchor="middle" x="512.97" y="-128" font-family="Helvetica,sans-Serif" font-size="10.00">/internal/macros.hpp</text>
</a>
</g>
</g>
<!-- Node6&#45;&gt;Node7 -->
<g id="edge7" class="edge">
<title>Node6&#45;&gt;Node7</title>
<path fill="none" stroke="#63b8ff" d="M564.32,-186.8C555.95,-178.68 545.26,-168.31 535.81,-159.15"/>
<polygon fill="#63b8ff" stroke="#63b8ff" points="538.28,-156.67 528.66,-152.22 533.41,-161.69 538.28,-156.67"/>
</g>
<!-- Node6&#45;&gt;Node10 -->
<g id="edge14" class="edge">
<title>Node6&#45;&gt;Node10</title>
<path fill="none" stroke="#63b8ff" d="M536.37,-186.63C488.27,-170.46 407.61,-143.51 337.97,-121 304.37,-110.14 266.68,-98.28 236.43,-88.83"/>
<polygon fill="#63b8ff" stroke="#63b8ff" points="237.68,-85.55 227.09,-85.92 235.6,-92.23 237.68,-85.55"/>
</g>
<!-- Node6&#45;&gt;Node12 -->
<g id="edge15" class="edge">
<title>Node6&#45;&gt;Node12</title>
<path fill="none" stroke="#63b8ff" d="M598.4,-186.53C621.75,-169.54 662.47,-141.12 699.97,-121 721.77,-109.3 746.9,-98.33 768.35,-89.66"/>
<polygon fill="#63b8ff" stroke="#63b8ff" points="769.47,-92.98 777.47,-86.03 766.88,-86.48 769.47,-92.98"/>
</g>
<!-- Node7&#45;&gt;Node3 -->
<g id="edge9" class="edge">
<title>Node7&#45;&gt;Node3</title>
<path fill="none" stroke="#63b8ff" d="M549.55,-120.64C572.96,-111.45 603.55,-99.43 628.78,-89.53"/>
<polygon fill="#63b8ff" stroke="#63b8ff" points="629.79,-92.89 637.82,-85.98 627.23,-86.38 629.79,-92.89"/>
</g>
<!-- Node8 -->
<g id="node8" class="node">
<title>Node8</title>
<g id="a_node8"><a xlink:href="hedley_8ext_8hpp.html" target="_top" xlink:title=" ">
<polygon fill="white" stroke="#666666" points="434.47,-85 259.47,-85 259.47,-55 434.47,-55 434.47,-85"/>
<text text-anchor="start" x="267.47" y="-73" font-family="Helvetica,sans-Serif" font-size="10.00">proxsuite/linalg/veg</text>
<text text-anchor="middle" x="346.97" y="-62" font-family="Helvetica,sans-Serif" font-size="10.00">/internal/external/hedley.ext.hpp</text>
</a>
</g>
</g>
<!-- Node7&#45;&gt;Node8 -->
<g id="edge8" class="edge">
<title>Node7&#45;&gt;Node8</title>
<path fill="none" stroke="#63b8ff" d="M475.72,-120.64C451.88,-111.45 420.72,-99.43 395.03,-89.53"/>
<polygon fill="#63b8ff" stroke="#63b8ff" points="396.39,-86.3 385.8,-85.97 393.87,-92.83 396.39,-86.3"/>
</g>
<!-- Node9 -->
<g id="node9" class="node">
<title>Node9</title>
<g id="a_node9"><a xlink:href="preprocessor_8hpp.html" target="_top" xlink:title=" ">
<polygon fill="white" stroke="#666666" points="595.47,-85 452.47,-85 452.47,-55 595.47,-55 595.47,-85"/>
<text text-anchor="start" x="460.47" y="-73" font-family="Helvetica,sans-Serif" font-size="10.00">proxsuite/linalg/veg</text>
<text text-anchor="middle" x="523.97" y="-62" font-family="Helvetica,sans-Serif" font-size="10.00">/internal/preprocessor.hpp</text>
</a>
</g>
</g>
<!-- Node7&#45;&gt;Node9 -->
<g id="edge10" class="edge">
<title>Node7&#45;&gt;Node9</title>
<path fill="none" stroke="#63b8ff" d="M515.41,-120.8C516.65,-113.59 518.19,-104.61 519.63,-96.27"/>
<polygon fill="#63b8ff" stroke="#63b8ff" points="523.04,-97.1 521.28,-86.66 516.14,-95.92 523.04,-97.1"/>
</g>
<!-- Node7&#45;&gt;Node10 -->
<g id="edge11" class="edge">
<title>Node7&#45;&gt;Node10</title>
<path fill="none" stroke="#63b8ff" d="M454.19,-123.94C403.38,-114.36 327.64,-100.01 252.4,-85.46"/>
<polygon fill="#63b8ff" stroke="#63b8ff" points="253.27,-82.07 242.79,-83.6 251.94,-88.94 253.27,-82.07"/>
</g>
<!-- Node11 -->
<g id="node11" class="node">
<title>Node11</title>
<g id="a_node11"><a xlink:title=" ">
<polygon fill="#e0e0e0" stroke="#999999" points="98.47,-79.5 15.47,-79.5 15.47,-60.5 98.47,-60.5 98.47,-79.5"/>
<text text-anchor="middle" x="56.97" y="-67.5" font-family="Helvetica,sans-Serif" font-size="10.00">initializer_list</text>
</a>
</g>
</g>
<!-- Node7&#45;&gt;Node11 -->
<g id="edge12" class="edge">
<title>Node7&#45;&gt;Node11</title>
<path fill="none" stroke="#63b8ff" d="M454.2,-130.44C375.02,-123.68 229.94,-109.14 107.97,-85 104.61,-84.34 101.15,-83.57 97.68,-82.74"/>
<polygon fill="#63b8ff" stroke="#63b8ff" points="98.75,-79.4 88.2,-80.32 97.03,-86.18 98.75,-79.4"/>
</g>
<!-- Node7&#45;&gt;Node12 -->
<g id="edge13" class="edge">
<title>Node7&#45;&gt;Node12</title>
<path fill="none" stroke="#63b8ff" d="M571.78,-122.66C621.23,-112.28 692.14,-97.4 745.17,-86.28"/>
<polygon fill="#63b8ff" stroke="#63b8ff" points="745.65,-89.75 754.72,-84.27 744.22,-82.9 745.65,-89.75"/>
</g>
<!-- Node13&#45;&gt;Node4 -->
<g id="edge19" class="edge">
<title>Node13&#45;&gt;Node4</title>
<path fill="none" stroke="#63b8ff" d="M36.64,-120.58C15.54,-103.89 -12.06,-75.99 5.97,-55 38.39,-17.25 189.87,-11.18 260.52,-10.44"/>
<polygon fill="#63b8ff" stroke="#63b8ff" points="260.44,-13.94 270.42,-10.37 260.39,-6.94 260.44,-13.94"/>
</g>
<!-- Node13&#45;&gt;Node11 -->
<g id="edge20" class="edge">
<title>Node13&#45;&gt;Node11</title>
<path fill="none" stroke="#63b8ff" d="M56.97,-120.8C56.97,-112.09 56.97,-100.81 56.97,-91.18"/>
<polygon fill="#63b8ff" stroke="#63b8ff" points="60.47,-91.36 56.97,-81.36 53.47,-91.36 60.47,-91.36"/>
</g>
</g>
</svg>
