<?xml version="1.0" encoding="UTF-8" standalone="no"?>
<!DOCTYPE svg PUBLIC "-//W3C//DTD SVG 1.1//EN"
 "http://www.w3.org/Graphics/SVG/1.1/DTD/svg11.dtd">
<!-- Generated by graphviz version 6.0.2 (20221126.1951)
 -->
<!-- Title: include/proxsuite/linalg/veg/memory/address.hpp Pages: 1 -->
<svg width="887pt" height="357pt"
 viewBox="0.00 0.00 887.48 357.00" xmlns="http://www.w3.org/2000/svg" xmlns:xlink="http://www.w3.org/1999/xlink">
<g id="graph0" class="graph" transform="scale(1 1) rotate(0) translate(4 353)">
<title>include/proxsuite/linalg/veg/memory/address.hpp</title>
<!-- Node1 -->
<g id="node1" class="node">
<title>Node1</title>
<g id="a_node1"><a xlink:title=" ">
<polygon fill="#999999" stroke="#666666" points="693.98,-349 549.98,-349 549.98,-319 693.98,-319 693.98,-349"/>
<text text-anchor="start" x="557.98" y="-337" font-family="Helvetica,sans-Serif" font-size="10.00">include/proxsuite/linalg</text>
<text text-anchor="middle" x="621.98" y="-326" font-family="Helvetica,sans-Serif" font-size="10.00">/veg/memory/address.hpp</text>
</a>
</g>
</g>
<!-- Node2 -->
<g id="node2" class="node">
<title>Node2</title>
<g id="a_node2"><a xlink:href="veg_2type__traits_2core_8hpp.html" target="_top" xlink:title=" ">
<polygon fill="white" stroke="#666666" points="680.48,-283 563.48,-283 563.48,-253 680.48,-253 680.48,-283"/>
<text text-anchor="start" x="571.48" y="-271" font-family="Helvetica,sans-Serif" font-size="10.00">proxsuite/linalg/veg</text>
<text text-anchor="middle" x="621.98" y="-260" font-family="Helvetica,sans-Serif" font-size="10.00">/type_traits/core.hpp</text>
</a>
</g>
</g>
<!-- Node1&#45;&gt;Node2 -->
<g id="edge1" class="edge">
<title>Node1&#45;&gt;Node2</title>
<path fill="none" stroke="#63b8ff" d="M621.98,-318.8C621.98,-311.34 621.98,-301.99 621.98,-293.41"/>
<polygon fill="#63b8ff" stroke="#63b8ff" points="625.48,-293.16 621.98,-283.16 618.48,-293.16 625.48,-293.16"/>
</g>
<!-- Node10 -->
<g id="node10" class="node">
<title>Node10</title>
<g id="a_node10"><a xlink:href="prologue_8hpp.html" target="_top" xlink:title=" ">
<polygon fill="white" stroke="#666666" points="240.98,-85 116.98,-85 116.98,-55 240.98,-55 240.98,-85"/>
<text text-anchor="start" x="124.98" y="-73" font-family="Helvetica,sans-Serif" font-size="10.00">proxsuite/linalg/veg</text>
<text text-anchor="middle" x="178.98" y="-62" font-family="Helvetica,sans-Serif" font-size="10.00">/internal/prologue.hpp</text>
</a>
</g>
</g>
<!-- Node1&#45;&gt;Node10 -->
<g id="edge21" class="edge">
<title>Node1&#45;&gt;Node10</title>
<path fill="none" stroke="#63b8ff" d="M589.6,-318.83C526.67,-290.68 384.44,-224.11 274.98,-151 248.14,-133.08 220.08,-108.97 201.28,-91.92"/>
<polygon fill="#63b8ff" stroke="#63b8ff" points="203.55,-89.26 193.82,-85.08 198.82,-94.42 203.55,-89.26"/>
</g>
<!-- Node12 -->
<g id="node12" class="node">
<title>Node12</title>
<g id="a_node12"><a xlink:href="epilogue_8hpp.html" target="_top" xlink:title=" ">
<polygon fill="white" stroke="#666666" points="879.48,-85 756.48,-85 756.48,-55 879.48,-55 879.48,-85"/>
<text text-anchor="start" x="764.48" y="-73" font-family="Helvetica,sans-Serif" font-size="10.00">proxsuite/linalg/veg</text>
<text text-anchor="middle" x="817.98" y="-62" font-family="Helvetica,sans-Serif" font-size="10.00">/internal/epilogue.hpp</text>
</a>
</g>
</g>
<!-- Node1&#45;&gt;Node12 -->
<g id="edge23" class="edge">
<title>Node1&#45;&gt;Node12</title>
<path fill="none" stroke="#63b8ff" d="M645.85,-318.81C659.8,-309.74 677.13,-297.07 689.98,-283 744.88,-222.87 788.6,-135.68 807.64,-94.38"/>
<polygon fill="#63b8ff" stroke="#63b8ff" points="810.89,-95.69 811.84,-85.14 804.51,-92.8 810.89,-95.69"/>
</g>
<!-- Node13 -->
<g id="node13" class="node">
<title>Node13</title>
<g id="a_node13"><a xlink:href="std_8hpp.html" target="_top" xlink:title=" ">
<polygon fill="white" stroke="#666666" points="113.48,-151 0.48,-151 0.48,-121 113.48,-121 113.48,-151"/>
<text text-anchor="start" x="8.48" y="-139" font-family="Helvetica,sans-Serif" font-size="10.00">proxsuite/linalg/veg</text>
<text text-anchor="middle" x="56.98" y="-128" font-family="Helvetica,sans-Serif" font-size="10.00">/internal/std.hpp</text>
</a>
</g>
</g>
<!-- Node1&#45;&gt;Node13 -->
<g id="edge18" class="edge">
<title>Node1&#45;&gt;Node13</title>
<path fill="none" stroke="#63b8ff" d="M549.78,-330.89C442.87,-326.73 248.46,-314.92 186.98,-283 132.46,-254.7 90.05,-193.44 69.88,-159.97"/>
<polygon fill="#63b8ff" stroke="#63b8ff" points="72.88,-158.16 64.79,-151.32 66.84,-161.71 72.88,-158.16"/>
</g>
<!-- Node14 -->
<g id="node14" class="node">
<title>Node14</title>
<g id="a_node14"><a xlink:title=" ">
<polygon fill="#e0e0e0" stroke="#999999" points="837.98,-277.5 779.98,-277.5 779.98,-258.5 837.98,-258.5 837.98,-277.5"/>
<text text-anchor="middle" x="808.98" y="-265.5" font-family="Helvetica,sans-Serif" font-size="10.00">memory</text>
</a>
</g>
</g>
<!-- Node1&#45;&gt;Node14 -->
<g id="edge22" class="edge">
<title>Node1&#45;&gt;Node14</title>
<path fill="none" stroke="#63b8ff" d="M663.02,-318.95C696.39,-307.53 742.94,-291.6 774.43,-280.82"/>
<polygon fill="#63b8ff" stroke="#63b8ff" points="775.76,-284.07 784.09,-277.52 773.5,-277.44 775.76,-284.07"/>
</g>
<!-- Node3 -->
<g id="node3" class="node">
<title>Node3</title>
<g id="a_node3"><a xlink:href="typedefs_8hpp.html" target="_top" xlink:title=" ">
<polygon fill="white" stroke="#666666" points="737.98,-85 613.98,-85 613.98,-55 737.98,-55 737.98,-85"/>
<text text-anchor="start" x="621.98" y="-73" font-family="Helvetica,sans-Serif" font-size="10.00">proxsuite/linalg/veg</text>
<text text-anchor="middle" x="675.98" y="-62" font-family="Helvetica,sans-Serif" font-size="10.00">/internal/typedefs.hpp</text>
</a>
</g>
</g>
<!-- Node2&#45;&gt;Node3 -->
<g id="edge2" class="edge">
<title>Node2&#45;&gt;Node3</title>
<path fill="none" stroke="#63b8ff" d="M634.75,-252.78C642.49,-243.32 651.84,-230.24 656.98,-217 672.72,-176.43 675.92,-125.25 676.31,-95.51"/>
<polygon fill="#63b8ff" stroke="#63b8ff" points="679.81,-95.24 676.34,-85.23 672.81,-95.22 679.81,-95.24"/>
</g>
<!-- Node6 -->
<g id="node6" class="node">
<title>Node6</title>
<g id="a_node6"><a xlink:href="integer__seq_8hpp.html" target="_top" xlink:title=" ">
<polygon fill="white" stroke="#666666" points="647.98,-217 509.98,-217 509.98,-187 647.98,-187 647.98,-217"/>
<text text-anchor="start" x="517.98" y="-205" font-family="Helvetica,sans-Serif" font-size="10.00">proxsuite/linalg/veg</text>
<text text-anchor="middle" x="578.98" y="-194" font-family="Helvetica,sans-Serif" font-size="10.00">/internal/integer_seq.hpp</text>
</a>
</g>
</g>
<!-- Node2&#45;&gt;Node6 -->
<g id="edge5" class="edge">
<title>Node2&#45;&gt;Node6</title>
<path fill="none" stroke="#63b8ff" d="M612.43,-252.8C607.09,-244.84 600.3,-234.74 594.24,-225.71"/>
<polygon fill="#63b8ff" stroke="#63b8ff" points="596.98,-223.51 588.49,-217.16 591.17,-227.42 596.98,-223.51"/>
</g>
<!-- Node2&#45;&gt;Node10 -->
<g id="edge16" class="edge">
<title>Node2&#45;&gt;Node10</title>
<path fill="none" stroke="#63b8ff" d="M584.82,-252.9C530.19,-231.92 425.24,-190.7 337.98,-151 294.84,-131.38 246.33,-106.55 214.36,-89.8"/>
<polygon fill="#63b8ff" stroke="#63b8ff" points="215.87,-86.65 205.39,-85.09 212.62,-92.84 215.87,-86.65"/>
</g>
<!-- Node2&#45;&gt;Node12 -->
<g id="edge17" class="edge">
<title>Node2&#45;&gt;Node12</title>
<path fill="none" stroke="#63b8ff" d="M639.2,-252.61C650.08,-243.08 664.09,-229.99 674.98,-217 707.76,-177.89 701.49,-156.68 737.98,-121 750.27,-108.98 765.94,-98.4 780.14,-90.11"/>
<polygon fill="#63b8ff" stroke="#63b8ff" points="782.22,-92.96 789.22,-85.01 778.79,-86.86 782.22,-92.96"/>
</g>
<!-- Node4 -->
<g id="node4" class="node">
<title>Node4</title>
<g id="a_node4"><a xlink:title=" ">
<polygon fill="#e0e0e0" stroke="#999999" points="321.98,-19 271.98,-19 271.98,0 321.98,0 321.98,-19"/>
<text text-anchor="middle" x="296.98" y="-7" font-family="Helvetica,sans-Serif" font-size="10.00">cstdint</text>
</a>
</g>
</g>
<!-- Node3&#45;&gt;Node4 -->
<g id="edge3" class="edge">
<title>Node3&#45;&gt;Node4</title>
<path fill="none" stroke="#63b8ff" d="M613.67,-56.53C610.74,-56 607.83,-55.49 604.98,-55 506.46,-38.18 389.5,-22.43 332.19,-14.99"/>
<polygon fill="#63b8ff" stroke="#63b8ff" points="332.56,-11.51 322.2,-13.7 331.67,-18.45 332.56,-11.51"/>
</g>
<!-- Node5 -->
<g id="node5" class="node">
<title>Node5</title>
<g id="a_node5"><a xlink:title=" ">
<polygon fill="#e0e0e0" stroke="#999999" points="702.48,-19 649.48,-19 649.48,0 702.48,0 702.48,-19"/>
<text text-anchor="middle" x="675.98" y="-7" font-family="Helvetica,sans-Serif" font-size="10.00">cstddef</text>
</a>
</g>
</g>
<!-- Node3&#45;&gt;Node5 -->
<g id="edge4" class="edge">
<title>Node3&#45;&gt;Node5</title>
<path fill="none" stroke="#63b8ff" d="M675.98,-54.84C675.98,-47.21 675.98,-37.7 675.98,-29.45"/>
<polygon fill="#63b8ff" stroke="#63b8ff" points="679.48,-29.27 675.98,-19.27 672.48,-29.27 679.48,-29.27"/>
</g>
<!-- Node6&#45;&gt;Node3 -->
<g id="edge6" class="edge">
<title>Node6&#45;&gt;Node3</title>
<path fill="none" stroke="#63b8ff" d="M585.33,-186.94C593.16,-170.34 607.49,-142.3 623.98,-121 632,-110.63 642.16,-100.38 651.36,-91.89"/>
<polygon fill="#63b8ff" stroke="#63b8ff" points="653.71,-94.49 658.8,-85.2 649.03,-89.28 653.71,-94.49"/>
</g>
<!-- Node7 -->
<g id="node7" class="node">
<title>Node7</title>
<g id="a_node7"><a xlink:href="macros_8hpp.html" target="_top" xlink:title=" ">
<polygon fill="white" stroke="#666666" points="571.48,-151 454.48,-151 454.48,-121 571.48,-121 571.48,-151"/>
<text text-anchor="start" x="462.48" y="-139" font-family="Helvetica,sans-Serif" font-size="10.00">proxsuite/linalg/veg</text>
<text text-anchor="middle" x="512.98" y="-128" font-family="Helvetica,sans-Serif" font-size="10.00">/internal/macros.hpp</text>
</a>
</g>
</g>
<!-- Node6&#45;&gt;Node7 -->
<g id="edge7" class="edge">
<title>Node6&#45;&gt;Node7</title>
<path fill="none" stroke="#63b8ff" d="M564.33,-186.8C555.7,-178.43 544.61,-167.68 534.95,-158.31"/>
<polygon fill="#63b8ff" stroke="#63b8ff" points="537.2,-155.61 527.58,-151.16 532.33,-160.64 537.2,-155.61"/>
</g>
<!-- Node6&#45;&gt;Node10 -->
<g id="edge14" class="edge">
<title>Node6&#45;&gt;Node10</title>
<path fill="none" stroke="#63b8ff" d="M537.25,-186.92C489.25,-170.79 408.03,-143.64 337.98,-121 303.44,-109.84 264.58,-97.61 233.92,-88.04"/>
<polygon fill="#63b8ff" stroke="#63b8ff" points="234.86,-84.67 224.27,-85.03 232.78,-91.35 234.86,-84.67"/>
</g>
<!-- Node6&#45;&gt;Node12 -->
<g id="edge15" class="edge">
<title>Node6&#45;&gt;Node12</title>
<path fill="none" stroke="#63b8ff" d="M598,-186.83C621.27,-169.88 662.25,-141.24 699.98,-121 722.52,-108.9 748.62,-97.59 770.53,-88.79"/>
<polygon fill="#63b8ff" stroke="#63b8ff" points="771.95,-91.99 779.96,-85.05 769.37,-85.48 771.95,-91.99"/>
</g>
<!-- Node7&#45;&gt;Node3 -->
<g id="edge9" class="edge">
<title>Node7&#45;&gt;Node3</title>
<path fill="none" stroke="#63b8ff" d="M548.75,-120.95C572.85,-111.49 604.83,-98.93 630.7,-88.78"/>
<polygon fill="#63b8ff" stroke="#63b8ff" points="632.26,-91.93 640.29,-85.01 629.7,-85.41 632.26,-91.93"/>
</g>
<!-- Node8 -->
<g id="node8" class="node">
<title>Node8</title>
<g id="a_node8"><a xlink:href="hedley_8ext_8hpp.html" target="_top" xlink:title=" ">
<polygon fill="white" stroke="#666666" points="434.48,-85 259.48,-85 259.48,-55 434.48,-55 434.48,-85"/>
<text text-anchor="start" x="267.48" y="-73" font-family="Helvetica,sans-Serif" font-size="10.00">proxsuite/linalg/veg</text>
<text text-anchor="middle" x="346.98" y="-62" font-family="Helvetica,sans-Serif" font-size="10.00">/internal/external/hedley.ext.hpp</text>
</a>
</g>
</g>
<!-- Node7&#45;&gt;Node8 -->
<g id="edge8" class="edge">
<title>Node7&#45;&gt;Node8</title>
<path fill="none" stroke="#63b8ff" d="M476.55,-120.95C451.9,-111.45 419.14,-98.82 392.74,-88.64"/>
<polygon fill="#63b8ff" stroke="#63b8ff" points="393.91,-85.34 383.32,-85.01 391.39,-91.88 393.91,-85.34"/>
</g>
<!-- Node9 -->
<g id="node9" class="node">
<title>Node9</title>
<g id="a_node9"><a xlink:href="preprocessor_8hpp.html" target="_top" xlink:title=" ">
<polygon fill="white" stroke="#666666" points="595.48,-85 452.48,-85 452.48,-55 595.48,-55 595.48,-85"/>
<text text-anchor="start" x="460.48" y="-73" font-family="Helvetica,sans-Serif" font-size="10.00">proxsuite/linalg/veg</text>
<text text-anchor="middle" x="523.98" y="-62" font-family="Helvetica,sans-Serif" font-size="10.00">/internal/preprocessor.hpp</text>
</a>
</g>
</g>
<!-- Node7&#45;&gt;Node9 -->
<g id="edge10" class="edge">
<title>Node7&#45;&gt;Node9</title>
<path fill="none" stroke="#63b8ff" d="M515.42,-120.8C516.71,-113.26 518.34,-103.78 519.83,-95.13"/>
<polygon fill="#63b8ff" stroke="#63b8ff" points="523.3,-95.61 521.54,-85.16 516.4,-94.43 523.3,-95.61"/>
</g>
<!-- Node7&#45;&gt;Node10 -->
<g id="edge11" class="edge">
<title>Node7&#45;&gt;Node10</title>
<path fill="none" stroke="#63b8ff" d="M454.46,-123.99C403.44,-114.37 327.15,-99.92 251.49,-85.29"/>
<polygon fill="#63b8ff" stroke="#63b8ff" points="251.79,-81.78 241.31,-83.32 250.46,-88.65 251.79,-81.78"/>
</g>
<!-- Node11 -->
<g id="node11" class="node">
<title>Node11</title>
<g id="a_node11"><a xlink:title=" ">
<polygon fill="#e0e0e0" stroke="#999999" points="98.48,-79.5 15.48,-79.5 15.48,-60.5 98.48,-60.5 98.48,-79.5"/>
<text text-anchor="middle" x="56.98" y="-67.5" font-family="Helvetica,sans-Serif" font-size="10.00">initializer_list</text>
</a>
</g>
</g>
<!-- Node7&#45;&gt;Node11 -->
<g id="edge12" class="edge">
<title>Node7&#45;&gt;Node11</title>
<path fill="none" stroke="#63b8ff" d="M454.2,-130.44C375.02,-123.68 229.95,-109.14 107.98,-85 103.77,-84.17 99.4,-83.17 95.07,-82.1"/>
<polygon fill="#63b8ff" stroke="#63b8ff" points="95.69,-78.65 85.13,-79.51 93.92,-85.42 95.69,-78.65"/>
</g>
<!-- Node7&#45;&gt;Node12 -->
<g id="edge13" class="edge">
<title>Node7&#45;&gt;Node12</title>
<path fill="none" stroke="#63b8ff" d="M571.78,-122.66C621.63,-112.2 693.28,-97.17 746.44,-86.01"/>
<polygon fill="#63b8ff" stroke="#63b8ff" points="747.41,-89.38 756.47,-83.91 745.97,-82.53 747.41,-89.38"/>
</g>
<!-- Node13&#45;&gt;Node4 -->
<g id="edge19" class="edge">
<title>Node13&#45;&gt;Node4</title>
<path fill="none" stroke="#63b8ff" d="M37.03,-120.88C15.88,-104.22 -12.16,-76.12 5.98,-55 38.6,-17.01 191.76,-11.11 261.83,-10.43"/>
<polygon fill="#63b8ff" stroke="#63b8ff" points="261.96,-13.93 271.94,-10.36 261.91,-6.93 261.96,-13.93"/>
</g>
<!-- Node13&#45;&gt;Node11 -->
<g id="edge20" class="edge">
<title>Node13&#45;&gt;Node11</title>
<path fill="none" stroke="#63b8ff" d="M56.98,-120.8C56.98,-111.7 56.98,-99.79 56.98,-89.9"/>
<polygon fill="#63b8ff" stroke="#63b8ff" points="60.48,-89.84 56.98,-79.84 53.48,-89.84 60.48,-89.84"/>
</g>
</g>
</svg>
