<?xml version="1.0" encoding="UTF-8" standalone="no"?>
<!DOCTYPE svg PUBLIC "-//W3C//DTD SVG 1.1//EN"
 "http://www.w3.org/Graphics/SVG/1.1/DTD/svg11.dtd">
<!-- Generated by graphviz version 5.0.1 (20220821.0811)
 -->
<!-- Title: include/proxsuite/linalg/veg/memory/address.hpp Pages: 1 -->
<svg width="888pt" height="363pt"
 viewBox="0.00 0.00 887.59 363.00" xmlns="http://www.w3.org/2000/svg" xmlns:xlink="http://www.w3.org/1999/xlink">
<g id="graph0" class="graph" transform="scale(1 1) rotate(0) translate(4 359)">
<title>include/proxsuite/linalg/veg/memory/address.hpp</title>
<!-- Node1 -->
<g id="node1" class="node">
<title>Node1</title>
<g id="a_node1"><a xlink:title=" ">
<polygon fill="#bfbfbf" stroke="black" points="550.09,-324.5 550.09,-354.5 694.09,-354.5 694.09,-324.5 550.09,-324.5"/>
<text text-anchor="start" x="558.09" y="-342.5" font-family="Helvetica,sans-Serif" font-size="10.00">include/proxsuite/linalg</text>
<text text-anchor="middle" x="622.09" y="-331.5" font-family="Helvetica,sans-Serif" font-size="10.00">/veg/memory/address.hpp</text>
</a>
</g>
</g>
<!-- Node2 -->
<g id="node2" class="node">
<title>Node2</title>
<g id="a_node2"><a xlink:href="veg_2type__traits_2core_8hpp.html" target="_top" xlink:title=" ">
<polygon fill="none" stroke="black" points="563.59,-257.5 563.59,-287.5 680.59,-287.5 680.59,-257.5 563.59,-257.5"/>
<text text-anchor="start" x="571.59" y="-275.5" font-family="Helvetica,sans-Serif" font-size="10.00">proxsuite/linalg/veg</text>
<text text-anchor="middle" x="622.09" y="-264.5" font-family="Helvetica,sans-Serif" font-size="10.00">/type_traits/core.hpp</text>
</a>
</g>
</g>
<!-- Node1&#45;&gt;Node2 -->
<g id="edge1" class="edge">
<title>Node1&#45;&gt;Node2</title>
<path fill="none" stroke="midnightblue" d="M622.09,-324.4C622.09,-316.64 622.09,-306.81 622.09,-297.86"/>
<polygon fill="midnightblue" stroke="midnightblue" points="625.59,-297.58 622.09,-287.58 618.59,-297.58 625.59,-297.58"/>
</g>
<!-- Node10 -->
<g id="node10" class="node">
<title>Node10</title>
<g id="a_node10"><a xlink:href="prologue_8hpp.html" target="_top" xlink:title=" ">
<polygon fill="none" stroke="black" points="117.09,-56.5 117.09,-86.5 241.09,-86.5 241.09,-56.5 117.09,-56.5"/>
<text text-anchor="start" x="125.09" y="-74.5" font-family="Helvetica,sans-Serif" font-size="10.00">proxsuite/linalg/veg</text>
<text text-anchor="middle" x="179.09" y="-63.5" font-family="Helvetica,sans-Serif" font-size="10.00">/internal/prologue.hpp</text>
</a>
</g>
</g>
<!-- Node1&#45;&gt;Node10 -->
<g id="edge21" class="edge">
<title>Node1&#45;&gt;Node10</title>
<path fill="none" stroke="midnightblue" d="M589.14,-324.42C525.14,-296.37 380.7,-229.71 271.09,-154 245.05,-136.02 218.31,-111.52 200.42,-94.09"/>
<polygon fill="midnightblue" stroke="midnightblue" points="202.43,-91.16 192.85,-86.63 197.51,-96.14 202.43,-91.16"/>
</g>
<!-- Node12 -->
<g id="node12" class="node">
<title>Node12</title>
<g id="a_node12"><a xlink:href="epilogue_8hpp.html" target="_top" xlink:title=" ">
<polygon fill="none" stroke="black" points="756.59,-56.5 756.59,-86.5 879.59,-86.5 879.59,-56.5 756.59,-56.5"/>
<text text-anchor="start" x="764.59" y="-74.5" font-family="Helvetica,sans-Serif" font-size="10.00">proxsuite/linalg/veg</text>
<text text-anchor="middle" x="818.09" y="-63.5" font-family="Helvetica,sans-Serif" font-size="10.00">/internal/epilogue.hpp</text>
</a>
</g>
</g>
<!-- Node1&#45;&gt;Node12 -->
<g id="edge23" class="edge">
<title>Node1&#45;&gt;Node12</title>
<path fill="none" stroke="midnightblue" d="M645.66,-324.37C659.68,-315.19 677.19,-302.3 690.09,-288 745.43,-226.66 789.08,-137.78 807.95,-95.95"/>
<polygon fill="midnightblue" stroke="midnightblue" points="811.24,-97.16 812.1,-86.6 804.84,-94.31 811.24,-97.16"/>
</g>
<!-- Node13 -->
<g id="node13" class="node">
<title>Node13</title>
<g id="a_node13"><a xlink:href="std_8hpp.html" target="_top" xlink:title=" ">
<polygon fill="none" stroke="black" points="0.59,-123.5 0.59,-153.5 113.59,-153.5 113.59,-123.5 0.59,-123.5"/>
<text text-anchor="start" x="8.59" y="-141.5" font-family="Helvetica,sans-Serif" font-size="10.00">proxsuite/linalg/veg</text>
<text text-anchor="middle" x="57.09" y="-130.5" font-family="Helvetica,sans-Serif" font-size="10.00">/internal/std.hpp</text>
</a>
</g>
</g>
<!-- Node1&#45;&gt;Node13 -->
<g id="edge18" class="edge">
<title>Node1&#45;&gt;Node13</title>
<path fill="none" stroke="midnightblue" d="M549.85,-336.36C442.9,-332.16 248.42,-320.22 187.09,-288 131.91,-259.02 89.51,-196.25 69.59,-162.34"/>
<polygon fill="midnightblue" stroke="midnightblue" points="72.59,-160.53 64.58,-153.59 66.51,-164.01 72.59,-160.53"/>
</g>
<!-- Node14 -->
<g id="node14" class="node">
<title>Node14</title>
<g id="a_node14"><a xlink:title=" ">
<polygon fill="none" stroke="#bfbfbf" points="780.09,-263 780.09,-282 838.09,-282 838.09,-263 780.09,-263"/>
<text text-anchor="middle" x="809.09" y="-270" font-family="Helvetica,sans-Serif" font-size="10.00">memory</text>
</a>
</g>
</g>
<!-- Node1&#45;&gt;Node14 -->
<g id="edge22" class="edge">
<title>Node1&#45;&gt;Node14</title>
<path fill="none" stroke="midnightblue" d="M662.67,-324.4C696.2,-312.74 743.29,-296.37 774.92,-285.38"/>
<polygon fill="midnightblue" stroke="midnightblue" points="776.32,-288.6 784.62,-282.01 774.02,-281.98 776.32,-288.6"/>
</g>
<!-- Node3 -->
<g id="node3" class="node">
<title>Node3</title>
<g id="a_node3"><a xlink:href="typedefs_8hpp.html" target="_top" xlink:title=" ">
<polygon fill="none" stroke="black" points="614.09,-56.5 614.09,-86.5 738.09,-86.5 738.09,-56.5 614.09,-56.5"/>
<text text-anchor="start" x="622.09" y="-74.5" font-family="Helvetica,sans-Serif" font-size="10.00">proxsuite/linalg/veg</text>
<text text-anchor="middle" x="676.09" y="-63.5" font-family="Helvetica,sans-Serif" font-size="10.00">/internal/typedefs.hpp</text>
</a>
</g>
</g>
<!-- Node2&#45;&gt;Node3 -->
<g id="edge2" class="edge">
<title>Node2&#45;&gt;Node3</title>
<path fill="none" stroke="midnightblue" d="M634.87,-257.12C642.62,-247.55 651.96,-234.34 657.09,-221 673.11,-179.29 676.18,-126.64 676.47,-96.55"/>
<polygon fill="midnightblue" stroke="midnightblue" points="679.97,-96.55 676.47,-86.55 672.97,-96.55 679.97,-96.55"/>
</g>
<!-- Node6 -->
<g id="node6" class="node">
<title>Node6</title>
<g id="a_node6"><a xlink:href="integer__seq_8hpp.html" target="_top" xlink:title=" ">
<polygon fill="none" stroke="black" points="510.09,-190.5 510.09,-220.5 648.09,-220.5 648.09,-190.5 510.09,-190.5"/>
<text text-anchor="start" x="518.09" y="-208.5" font-family="Helvetica,sans-Serif" font-size="10.00">proxsuite/linalg/veg</text>
<text text-anchor="middle" x="579.09" y="-197.5" font-family="Helvetica,sans-Serif" font-size="10.00">/internal/integer_seq.hpp</text>
</a>
</g>
</g>
<!-- Node2&#45;&gt;Node6 -->
<g id="edge5" class="edge">
<title>Node2&#45;&gt;Node6</title>
<path fill="none" stroke="midnightblue" d="M612.76,-257.4C607.29,-249.13 600.26,-238.51 594.04,-229.1"/>
<polygon fill="midnightblue" stroke="midnightblue" points="596.84,-226.99 588.4,-220.58 591,-230.85 596.84,-226.99"/>
</g>
<!-- Node2&#45;&gt;Node10 -->
<g id="edge16" class="edge">
<title>Node2&#45;&gt;Node10</title>
<path fill="none" stroke="midnightblue" d="M585.37,-257.41C530.84,-236.25 425.51,-194.41 338.09,-154 294.65,-133.92 245.83,-108.45 213.88,-91.37"/>
<polygon fill="midnightblue" stroke="midnightblue" points="215.4,-88.21 204.93,-86.57 212.09,-94.38 215.4,-88.21"/>
</g>
<!-- Node2&#45;&gt;Node12 -->
<g id="edge17" class="edge">
<title>Node2&#45;&gt;Node12</title>
<path fill="none" stroke="midnightblue" d="M638.85,-257.4C649.81,-247.75 664.08,-234.33 675.09,-221 708.07,-181.08 701.33,-159.46 738.09,-123 750.33,-110.86 765.99,-100.18 780.2,-91.81"/>
<polygon fill="midnightblue" stroke="midnightblue" points="782.32,-94.63 789.28,-86.65 778.86,-88.54 782.32,-94.63"/>
</g>
<!-- Node4 -->
<g id="node4" class="node">
<title>Node4</title>
<g id="a_node4"><a xlink:title=" ">
<polygon fill="none" stroke="#bfbfbf" points="272.09,-0.5 272.09,-19.5 322.09,-19.5 322.09,-0.5 272.09,-0.5"/>
<text text-anchor="middle" x="297.09" y="-7.5" font-family="Helvetica,sans-Serif" font-size="10.00">cstdint</text>
</a>
</g>
</g>
<!-- Node3&#45;&gt;Node4 -->
<g id="edge3" class="edge">
<title>Node3&#45;&gt;Node4</title>
<path fill="none" stroke="midnightblue" d="M613.79,-57.57C610.85,-57.03 607.94,-56.5 605.09,-56 506.62,-38.77 389.64,-22.94 332.31,-15.49"/>
<polygon fill="midnightblue" stroke="midnightblue" points="332.68,-12.01 322.32,-14.2 331.79,-18.95 332.68,-12.01"/>
</g>
<!-- Node5 -->
<g id="node5" class="node">
<title>Node5</title>
<g id="a_node5"><a xlink:title=" ">
<polygon fill="none" stroke="#bfbfbf" points="649.59,-0.5 649.59,-19.5 702.59,-19.5 702.59,-0.5 649.59,-0.5"/>
<text text-anchor="middle" x="676.09" y="-7.5" font-family="Helvetica,sans-Serif" font-size="10.00">cstddef</text>
</a>
</g>
</g>
<!-- Node3&#45;&gt;Node5 -->
<g id="edge4" class="edge">
<title>Node3&#45;&gt;Node5</title>
<path fill="none" stroke="midnightblue" d="M676.09,-56.4C676.09,-48.47 676.09,-38.46 676.09,-29.86"/>
<polygon fill="midnightblue" stroke="midnightblue" points="679.59,-29.66 676.09,-19.66 672.59,-29.66 679.59,-29.66"/>
</g>
<!-- Node6&#45;&gt;Node3 -->
<g id="edge6" class="edge">
<title>Node6&#45;&gt;Node3</title>
<path fill="none" stroke="midnightblue" d="M585.27,-190.48C593.04,-173.61 607.41,-144.84 624.09,-123 632.09,-112.53 642.24,-102.18 651.45,-93.6"/>
<polygon fill="midnightblue" stroke="midnightblue" points="653.84,-96.16 658.89,-86.85 649.13,-90.97 653.84,-96.16"/>
</g>
<!-- Node7 -->
<g id="node7" class="node">
<title>Node7</title>
<g id="a_node7"><a xlink:href="macros_8hpp.html" target="_top" xlink:title=" ">
<polygon fill="none" stroke="black" points="454.59,-123.5 454.59,-153.5 571.59,-153.5 571.59,-123.5 454.59,-123.5"/>
<text text-anchor="start" x="462.59" y="-141.5" font-family="Helvetica,sans-Serif" font-size="10.00">proxsuite/linalg/veg</text>
<text text-anchor="middle" x="513.09" y="-130.5" font-family="Helvetica,sans-Serif" font-size="10.00">/internal/macros.hpp</text>
</a>
</g>
</g>
<!-- Node6&#45;&gt;Node7 -->
<g id="edge7" class="edge">
<title>Node6&#45;&gt;Node7</title>
<path fill="none" stroke="midnightblue" d="M564.77,-190.4C555.95,-181.71 544.47,-170.4 534.57,-160.66"/>
<polygon fill="midnightblue" stroke="midnightblue" points="536.96,-158.1 527.38,-153.58 532.05,-163.09 536.96,-158.1"/>
</g>
<!-- Node6&#45;&gt;Node10 -->
<g id="edge14" class="edge">
<title>Node6&#45;&gt;Node10</title>
<path fill="none" stroke="midnightblue" d="M538.23,-190.42C490.35,-173.99 408.6,-146.12 338.09,-123 303.45,-111.64 264.43,-99.24 233.72,-89.57"/>
<polygon fill="midnightblue" stroke="midnightblue" points="234.64,-86.2 224.05,-86.54 232.54,-92.87 234.64,-86.2"/>
</g>
<!-- Node6&#45;&gt;Node12 -->
<g id="edge15" class="edge">
<title>Node6&#45;&gt;Node12</title>
<path fill="none" stroke="midnightblue" d="M597.67,-190.36C620.84,-173.12 662.05,-143.71 700.09,-123 722.68,-110.7 748.88,-99.23 770.85,-90.33"/>
<polygon fill="midnightblue" stroke="midnightblue" points="772.31,-93.52 780.3,-86.56 769.72,-87.02 772.31,-93.52"/>
</g>
<!-- Node7&#45;&gt;Node3 -->
<g id="edge9" class="edge">
<title>Node7&#45;&gt;Node3</title>
<path fill="none" stroke="midnightblue" d="M548.46,-123.4C572.81,-113.69 605.35,-100.71 631.48,-90.29"/>
<polygon fill="midnightblue" stroke="midnightblue" points="632.8,-93.53 640.79,-86.58 630.2,-87.03 632.8,-93.53"/>
</g>
<!-- Node8 -->
<g id="node8" class="node">
<title>Node8</title>
<g id="a_node8"><a xlink:href="hedley_8ext_8hpp.html" target="_top" xlink:title=" ">
<polygon fill="none" stroke="black" points="259.59,-56.5 259.59,-86.5 434.59,-86.5 434.59,-56.5 259.59,-56.5"/>
<text text-anchor="start" x="267.59" y="-74.5" font-family="Helvetica,sans-Serif" font-size="10.00">proxsuite/linalg/veg</text>
<text text-anchor="middle" x="347.09" y="-63.5" font-family="Helvetica,sans-Serif" font-size="10.00">/internal/external/hedley.ext.hpp</text>
</a>
</g>
</g>
<!-- Node7&#45;&gt;Node8 -->
<g id="edge8" class="edge">
<title>Node7&#45;&gt;Node8</title>
<path fill="none" stroke="midnightblue" d="M477.07,-123.4C452.27,-113.69 419.13,-100.71 392.52,-90.29"/>
<polygon fill="midnightblue" stroke="midnightblue" points="393.63,-86.96 383.04,-86.58 391.07,-93.48 393.63,-86.96"/>
</g>
<!-- Node9 -->
<g id="node9" class="node">
<title>Node9</title>
<g id="a_node9"><a xlink:href="preprocessor_8hpp.html" target="_top" xlink:title=" ">
<polygon fill="none" stroke="black" points="452.59,-56.5 452.59,-86.5 595.59,-86.5 595.59,-56.5 452.59,-56.5"/>
<text text-anchor="start" x="460.59" y="-74.5" font-family="Helvetica,sans-Serif" font-size="10.00">proxsuite/linalg/veg</text>
<text text-anchor="middle" x="524.09" y="-63.5" font-family="Helvetica,sans-Serif" font-size="10.00">/internal/preprocessor.hpp</text>
</a>
</g>
</g>
<!-- Node7&#45;&gt;Node9 -->
<g id="edge10" class="edge">
<title>Node7&#45;&gt;Node9</title>
<path fill="none" stroke="midnightblue" d="M515.48,-123.4C516.8,-115.56 518.49,-105.6 520.02,-96.57"/>
<polygon fill="midnightblue" stroke="midnightblue" points="523.49,-97.02 521.71,-86.58 516.59,-95.85 523.49,-97.02"/>
</g>
<!-- Node7&#45;&gt;Node10 -->
<g id="edge11" class="edge">
<title>Node7&#45;&gt;Node10</title>
<path fill="none" stroke="midnightblue" d="M454.55,-126.46C403.52,-116.8 327.23,-102.23 251.6,-87.29"/>
<polygon fill="midnightblue" stroke="midnightblue" points="251.91,-83.78 241.42,-85.27 250.55,-90.65 251.91,-83.78"/>
</g>
<!-- Node11 -->
<g id="node11" class="node">
<title>Node11</title>
<g id="a_node11"><a xlink:title=" ">
<polygon fill="none" stroke="#bfbfbf" points="15.59,-62 15.59,-81 98.59,-81 98.59,-62 15.59,-62"/>
<text text-anchor="middle" x="57.09" y="-69" font-family="Helvetica,sans-Serif" font-size="10.00">initializer_list</text>
</a>
</g>
</g>
<!-- Node7&#45;&gt;Node11 -->
<g id="edge12" class="edge">
<title>Node7&#45;&gt;Node11</title>
<path fill="none" stroke="midnightblue" d="M454.28,-133.01C375.07,-126.31 229.95,-111.77 108.09,-87 103.55,-86.08 98.83,-84.96 94.17,-83.75"/>
<polygon fill="midnightblue" stroke="midnightblue" points="94.73,-80.28 84.16,-81.03 92.89,-87.03 94.73,-80.28"/>
</g>
<!-- Node7&#45;&gt;Node12 -->
<g id="edge13" class="edge">
<title>Node7&#45;&gt;Node12</title>
<path fill="none" stroke="midnightblue" d="M571.9,-124.97C621.74,-114.34 693.39,-99.08 746.55,-87.75"/>
<polygon fill="midnightblue" stroke="midnightblue" points="747.54,-91.11 756.59,-85.61 746.08,-84.27 747.54,-91.11"/>
</g>
<!-- Node13&#45;&gt;Node4 -->
<g id="edge19" class="edge">
<title>Node13&#45;&gt;Node4</title>
<path fill="none" stroke="midnightblue" d="M37.44,-123.38C16.17,-106.41 -12.38,-77.54 6.09,-56 38.69,-17.98 191.86,-11.8 261.94,-10.99"/>
<polygon fill="midnightblue" stroke="midnightblue" points="262.08,-14.49 272.05,-10.9 262.02,-7.49 262.08,-14.49"/>
</g>
<!-- Node13&#45;&gt;Node11 -->
<g id="edge20" class="edge">
<title>Node13&#45;&gt;Node11</title>
<path fill="none" stroke="midnightblue" d="M57.09,-123.4C57.09,-114.06 57.09,-101.71 57.09,-91.52"/>
<polygon fill="midnightblue" stroke="midnightblue" points="60.59,-91.19 57.09,-81.19 53.59,-91.19 60.59,-91.19"/>
</g>
</g>
</svg>
