<?xml version="1.0" encoding="UTF-8" standalone="no"?>
<!DOCTYPE svg PUBLIC "-//W3C//DTD SVG 1.1//EN"
 "http://www.w3.org/Graphics/SVG/1.1/DTD/svg11.dtd">
<!-- Generated by graphviz version 12.0.0 (20240803.0821)
 -->
<!-- Title: include/proxsuite/linalg/veg/memory/address.hpp Pages: 1 -->
<svg width="945pt" height="376pt"
 viewBox="0.00 0.00 944.66 376.25" xmlns="http://www.w3.org/2000/svg" xmlns:xlink="http://www.w3.org/1999/xlink">
<g id="graph0" class="graph" transform="scale(1 1) rotate(0) translate(4 372.25)">
<title>include/proxsuite/linalg/veg/memory/address.hpp</title>
<!-- Node1 -->
<g id="Node000001" class="node">
<title>Node1</title>
<g id="a_Node000001"><a xlink:title=" ">
<polygon fill="#999999" stroke="#666666" points="726.16,-368.25 582.66,-368.25 582.66,-334.75 726.16,-334.75 726.16,-368.25"/>
<text text-anchor="start" x="590.66" y="-354.75" font-family="Helvetica,sans-Serif" font-size="10.00">include/proxsuite/linalg</text>
<text text-anchor="middle" x="654.41" y="-342" font-family="Helvetica,sans-Serif" font-size="10.00">/veg/memory/address.hpp</text>
</a>
</g>
</g>
<!-- Node2 -->
<g id="Node000002" class="node">
<title>Node2</title>
<g id="a_Node000002"><a xlink:href="veg_2type__traits_2core_8hpp.html" target="_top" xlink:title=" ">
<polygon fill="white" stroke="#666666" points="712.66,-298.75 596.16,-298.75 596.16,-265.25 712.66,-265.25 712.66,-298.75"/>
<text text-anchor="start" x="604.16" y="-285.25" font-family="Helvetica,sans-Serif" font-size="10.00">proxsuite/linalg/veg</text>
<text text-anchor="middle" x="654.41" y="-272.5" font-family="Helvetica,sans-Serif" font-size="10.00">/type_traits/core.hpp</text>
</a>
</g>
</g>
<!-- Node1&#45;&gt;Node2 -->
<g id="edge1_Node000001_Node000002" class="edge">
<title>Node1&#45;&gt;Node2</title>
<g id="a_edge1_Node000001_Node000002"><a xlink:title=" ">
<path fill="none" stroke="#63b8ff" d="M654.41,-334.5C654.41,-327.27 654.41,-318.53 654.41,-310.31"/>
<polygon fill="#63b8ff" stroke="#63b8ff" points="657.91,-310.4 654.41,-300.4 650.91,-310.4 657.91,-310.4"/>
</a>
</g>
</g>
<!-- Node10 -->
<g id="Node000010" class="node">
<title>Node10</title>
<g id="a_Node000010"><a xlink:href="prologue_8hpp.html" target="_top" xlink:title=" ">
<polygon fill="white" stroke="#666666" points="239.04,-90.25 115.79,-90.25 115.79,-56.75 239.04,-56.75 239.04,-90.25"/>
<text text-anchor="start" x="123.79" y="-76.75" font-family="Helvetica,sans-Serif" font-size="10.00">proxsuite/linalg/veg</text>
<text text-anchor="middle" x="177.41" y="-64" font-family="Helvetica,sans-Serif" font-size="10.00">/internal/prologue.hpp</text>
</a>
</g>
</g>
<!-- Node1&#45;&gt;Node10 -->
<g id="edge22_Node000001_Node000010" class="edge">
<title>Node1&#45;&gt;Node10</title>
<g id="a_edge22_Node000001_Node000010"><a xlink:title=" ">
<path fill="none" stroke="#63b8ff" d="M604.59,-334.25C525.07,-306.76 366.86,-245.55 253.41,-159.75 230.79,-142.64 209.72,-118.03 195.53,-99.64"/>
<polygon fill="#63b8ff" stroke="#63b8ff" points="198.49,-97.76 189.67,-91.88 192.9,-101.97 198.49,-97.76"/>
</a>
</g>
</g>
<!-- Node13 -->
<g id="Node000013" class="node">
<title>Node13</title>
<g id="a_Node000013"><a xlink:href="epilogue_8hpp.html" target="_top" xlink:title=" ">
<polygon fill="white" stroke="#666666" points="936.66,-90.25 814.16,-90.25 814.16,-56.75 936.66,-56.75 936.66,-90.25"/>
<text text-anchor="start" x="822.16" y="-76.75" font-family="Helvetica,sans-Serif" font-size="10.00">proxsuite/linalg/veg</text>
<text text-anchor="middle" x="875.41" y="-64" font-family="Helvetica,sans-Serif" font-size="10.00">/internal/epilogue.hpp</text>
</a>
</g>
</g>
<!-- Node1&#45;&gt;Node13 -->
<g id="edge24_Node000001_Node000013" class="edge">
<title>Node1&#45;&gt;Node13</title>
<g id="a_edge24_Node000001_Node000013"><a xlink:title=" ">
<path fill="none" stroke="#63b8ff" d="M678.85,-334.43C692.26,-324.95 708.69,-312.21 721.41,-298.75 782.12,-234.55 836.34,-144.43 861.14,-100.55"/>
<polygon fill="#63b8ff" stroke="#63b8ff" points="864.09,-102.44 865.92,-92 857.98,-99.02 864.09,-102.44"/>
</a>
</g>
</g>
<!-- Node14 -->
<g id="Node000014" class="node">
<title>Node14</title>
<g id="a_Node000014"><a xlink:href="std_8hpp.html" target="_top" xlink:title=" ">
<polygon fill="white" stroke="#666666" points="112.79,-159.75 0.04,-159.75 0.04,-126.25 112.79,-126.25 112.79,-159.75"/>
<text text-anchor="start" x="8.04" y="-146.25" font-family="Helvetica,sans-Serif" font-size="10.00">proxsuite/linalg/veg</text>
<text text-anchor="middle" x="56.41" y="-133.5" font-family="Helvetica,sans-Serif" font-size="10.00">/internal/std.hpp</text>
</a>
</g>
</g>
<!-- Node1&#45;&gt;Node14 -->
<g id="edge19_Node000001_Node000014" class="edge">
<title>Node1&#45;&gt;Node14</title>
<g id="a_edge19_Node000001_Node000014"><a xlink:title=" ">
<path fill="none" stroke="#63b8ff" d="M582.51,-348.28C472.03,-343.88 266.48,-331.46 201.41,-298.75 142.48,-269.12 95.02,-205.17 71.83,-169.45"/>
<polygon fill="#63b8ff" stroke="#63b8ff" points="75.07,-168.02 66.76,-161.45 69.16,-171.77 75.07,-168.02"/>
</a>
</g>
</g>
<!-- Node15 -->
<g id="Node000015" class="node">
<title>Node15</title>
<g id="a_Node000015"><a xlink:title=" ">
<polygon fill="#e0e0e0" stroke="#999999" points="870.04,-292.38 812.79,-292.38 812.79,-271.62 870.04,-271.62 870.04,-292.38"/>
<text text-anchor="middle" x="841.41" y="-278.88" font-family="Helvetica,sans-Serif" font-size="10.00">memory</text>
</a>
</g>
</g>
<!-- Node1&#45;&gt;Node15 -->
<g id="edge23_Node000001_Node000015" class="edge">
<title>Node1&#45;&gt;Node15</title>
<g id="a_edge23_Node000001_Node000015"><a xlink:title=" ">
<path fill="none" stroke="#63b8ff" d="M699.84,-334.26C728.19,-324.09 765.45,-310.71 798.41,-298.75 800.21,-298.1 802.05,-297.43 803.91,-296.75"/>
<polygon fill="#63b8ff" stroke="#63b8ff" points="804.97,-300.09 813.16,-293.37 802.57,-293.52 804.97,-300.09"/>
</a>
</g>
</g>
<!-- Node3 -->
<g id="Node000003" class="node">
<title>Node3</title>
<g id="a_Node000003"><a xlink:href="typedefs_8hpp.html" target="_top" xlink:title=" ">
<polygon fill="white" stroke="#666666" points="796.04,-90.25 672.79,-90.25 672.79,-56.75 796.04,-56.75 796.04,-90.25"/>
<text text-anchor="start" x="680.79" y="-76.75" font-family="Helvetica,sans-Serif" font-size="10.00">proxsuite/linalg/veg</text>
<text text-anchor="middle" x="734.41" y="-64" font-family="Helvetica,sans-Serif" font-size="10.00">/internal/typedefs.hpp</text>
</a>
</g>
</g>
<!-- Node2&#45;&gt;Node3 -->
<g id="edge2_Node000002_Node000003" class="edge">
<title>Node2&#45;&gt;Node3</title>
<g id="a_edge2_Node000002_Node000003"><a xlink:title=" ">
<path fill="none" stroke="#63b8ff" d="M667.15,-265.01C674.49,-255.16 683.42,-242.01 689.41,-229.25 709.44,-186.58 722.6,-133.05 729.25,-101.43"/>
<polygon fill="#63b8ff" stroke="#63b8ff" points="732.62,-102.44 731.18,-91.94 725.76,-101.04 732.62,-102.44"/>
</a>
</g>
</g>
<!-- Node6 -->
<g id="Node000006" class="node">
<title>Node6</title>
<g id="a_Node000006"><a xlink:href="integer__seq_8hpp.html" target="_top" xlink:title=" ">
<polygon fill="white" stroke="#666666" points="680.16,-229.25 542.66,-229.25 542.66,-195.75 680.16,-195.75 680.16,-229.25"/>
<text text-anchor="start" x="550.66" y="-215.75" font-family="Helvetica,sans-Serif" font-size="10.00">proxsuite/linalg/veg</text>
<text text-anchor="middle" x="611.41" y="-203" font-family="Helvetica,sans-Serif" font-size="10.00">/internal/integer_seq.hpp</text>
</a>
</g>
</g>
<!-- Node2&#45;&gt;Node6 -->
<g id="edge5_Node000002_Node000006" class="edge">
<title>Node2&#45;&gt;Node6</title>
<g id="a_edge5_Node000002_Node000006"><a xlink:title=" ">
<path fill="none" stroke="#63b8ff" d="M644.22,-265C639.24,-257.19 633.13,-247.59 627.54,-238.81"/>
<polygon fill="#63b8ff" stroke="#63b8ff" points="630.67,-237.21 622.34,-230.66 624.76,-240.97 630.67,-237.21"/>
</a>
</g>
</g>
<!-- Node2&#45;&gt;Node10 -->
<g id="edge17_Node000002_Node000010" class="edge">
<title>Node2&#45;&gt;Node10</title>
<g id="a_edge17_Node000002_Node000010"><a xlink:title=" ">
<path fill="none" stroke="#63b8ff" d="M598.75,-264.77C530.78,-244.09 413.05,-205.5 317.41,-159.75 278.83,-141.3 237.3,-115.13 209.58,-96.67"/>
<polygon fill="#63b8ff" stroke="#63b8ff" points="211.89,-94 201.64,-91.33 207.98,-99.81 211.89,-94"/>
</a>
</g>
</g>
<!-- Node2&#45;&gt;Node13 -->
<g id="edge18_Node000002_Node000013" class="edge">
<title>Node2&#45;&gt;Node13</title>
<g id="a_edge18_Node000002_Node000013"><a xlink:title=" ">
<path fill="none" stroke="#63b8ff" d="M674.04,-264.95C685.17,-255.29 698.92,-242.35 709.41,-229.25 742.67,-187.72 731.38,-162.4 770.41,-126.25 784.12,-113.56 801.52,-103.31 818.2,-95.38"/>
<polygon fill="#63b8ff" stroke="#63b8ff" points="819.4,-98.68 827.07,-91.37 816.51,-92.3 819.4,-98.68"/>
</a>
</g>
</g>
<!-- Node4 -->
<g id="Node000004" class="node">
<title>Node4</title>
<g id="a_Node000004"><a xlink:title=" ">
<polygon fill="#e0e0e0" stroke="#999999" points="350.91,-20.75 301.91,-20.75 301.91,0 350.91,0 350.91,-20.75"/>
<text text-anchor="middle" x="326.41" y="-7.25" font-family="Helvetica,sans-Serif" font-size="10.00">cstdint</text>
</a>
</g>
</g>
<!-- Node3&#45;&gt;Node4 -->
<g id="edge3_Node000003_Node000004" class="edge">
<title>Node3&#45;&gt;Node4</title>
<g id="a_edge3_Node000003_Node000004"><a xlink:title=" ">
<path fill="none" stroke="#63b8ff" d="M672.52,-58.45C669.44,-57.85 666.4,-57.28 663.41,-56.75 554.43,-37.36 424.31,-22.03 362.48,-15.22"/>
<polygon fill="#63b8ff" stroke="#63b8ff" points="362.87,-11.74 352.55,-14.13 362.11,-18.7 362.87,-11.74"/>
</a>
</g>
</g>
<!-- Node5 -->
<g id="Node000005" class="node">
<title>Node5</title>
<g id="a_Node000005"><a xlink:title=" ">
<polygon fill="#e0e0e0" stroke="#999999" points="760.41,-20.75 708.41,-20.75 708.41,0 760.41,0 760.41,-20.75"/>
<text text-anchor="middle" x="734.41" y="-7.25" font-family="Helvetica,sans-Serif" font-size="10.00">cstddef</text>
</a>
</g>
</g>
<!-- Node3&#45;&gt;Node5 -->
<g id="edge4_Node000003_Node000005" class="edge">
<title>Node3&#45;&gt;Node5</title>
<g id="a_edge4_Node000003_Node000005"><a xlink:title=" ">
<path fill="none" stroke="#63b8ff" d="M734.41,-56.44C734.41,-49.1 734.41,-40.32 734.41,-32.46"/>
<polygon fill="#63b8ff" stroke="#63b8ff" points="737.91,-32.73 734.41,-22.73 730.91,-32.73 737.91,-32.73"/>
</a>
</g>
</g>
<!-- Node6&#45;&gt;Node3 -->
<g id="edge6_Node000006_Node000003" class="edge">
<title>Node6&#45;&gt;Node3</title>
<g id="a_edge6_Node000006_Node000003"><a xlink:title=" ">
<path fill="none" stroke="#63b8ff" d="M615.88,-195.49C621.65,-177.09 633.18,-146.79 651.41,-126.25 662.03,-114.29 676.06,-104.13 689.56,-96.06"/>
<polygon fill="#63b8ff" stroke="#63b8ff" points="690.96,-99.29 697.93,-91.31 687.5,-93.21 690.96,-99.29"/>
</a>
</g>
</g>
<!-- Node7 -->
<g id="Node000007" class="node">
<title>Node7</title>
<g id="a_Node000007"><a xlink:href="macros_8hpp.html" target="_top" xlink:title=" ">
<polygon fill="white" stroke="#666666" points="523.66,-159.75 407.16,-159.75 407.16,-126.25 523.66,-126.25 523.66,-159.75"/>
<text text-anchor="start" x="415.16" y="-146.25" font-family="Helvetica,sans-Serif" font-size="10.00">proxsuite/linalg/veg</text>
<text text-anchor="middle" x="465.41" y="-133.5" font-family="Helvetica,sans-Serif" font-size="10.00">/internal/macros.hpp</text>
</a>
</g>
</g>
<!-- Node6&#45;&gt;Node7 -->
<g id="edge7_Node000006_Node000007" class="edge">
<title>Node6&#45;&gt;Node7</title>
<g id="a_edge7_Node000006_Node000007"><a xlink:title=" ">
<path fill="none" stroke="#63b8ff" d="M576.44,-195.33C556.74,-186.22 531.91,-174.74 510.73,-164.95"/>
<polygon fill="#63b8ff" stroke="#63b8ff" points="512.27,-161.81 501.72,-160.79 509.33,-168.16 512.27,-161.81"/>
</a>
</g>
</g>
<!-- Node6&#45;&gt;Node10 -->
<g id="edge15_Node000006_Node000010" class="edge">
<title>Node6&#45;&gt;Node10</title>
<g id="a_edge15_Node000006_Node000010"><a xlink:title=" ">
<path fill="none" stroke="#63b8ff" d="M542.56,-197.59C500.47,-188.4 445.81,-175.21 398.41,-159.75 361.38,-147.67 353.69,-140.45 317.41,-126.25 289.86,-115.46 259.03,-104 233.33,-94.62"/>
<polygon fill="#63b8ff" stroke="#63b8ff" points="234.67,-91.38 224.08,-91.25 232.28,-97.96 234.67,-91.38"/>
</a>
</g>
</g>
<!-- Node6&#45;&gt;Node13 -->
<g id="edge16_Node000006_Node000013" class="edge">
<title>Node6&#45;&gt;Node13</title>
<g id="a_edge16_Node000006_Node000013"><a xlink:title=" ">
<path fill="none" stroke="#63b8ff" d="M630.91,-195.28C653.98,-176.68 694.13,-146.2 732.41,-126.25 756.58,-113.65 784.51,-102.8 809.23,-94.33"/>
<polygon fill="#63b8ff" stroke="#63b8ff" points="810.17,-97.71 818.54,-91.22 807.95,-91.07 810.17,-97.71"/>
</a>
</g>
</g>
<!-- Node7&#45;&gt;Node3 -->
<g id="edge9_Node000007_Node000003" class="edge">
<title>Node7&#45;&gt;Node3</title>
<g id="a_edge9_Node000007_Node000003"><a xlink:title=" ">
<path fill="none" stroke="#63b8ff" d="M524.11,-127.27C564.5,-117.14 618.43,-103.6 661.56,-92.78"/>
<polygon fill="#63b8ff" stroke="#63b8ff" points="662.25,-96.22 671.1,-90.39 660.54,-89.43 662.25,-96.22"/>
</a>
</g>
</g>
<!-- Node8 -->
<g id="Node000008" class="node">
<title>Node8</title>
<g id="a_Node000008"><a xlink:href="hedley_8ext_8hpp.html" target="_top" xlink:title=" ">
<polygon fill="white" stroke="#666666" points="654.54,-90.25 480.29,-90.25 480.29,-56.75 654.54,-56.75 654.54,-90.25"/>
<text text-anchor="start" x="488.29" y="-76.75" font-family="Helvetica,sans-Serif" font-size="10.00">proxsuite/linalg/veg</text>
<text text-anchor="middle" x="567.41" y="-64" font-family="Helvetica,sans-Serif" font-size="10.00">/internal/external/hedley.ext.hpp</text>
</a>
</g>
</g>
<!-- Node7&#45;&gt;Node8 -->
<g id="edge8_Node000007_Node000008" class="edge">
<title>Node7&#45;&gt;Node8</title>
<g id="a_edge8_Node000007_Node000008"><a xlink:title=" ">
<path fill="none" stroke="#63b8ff" d="M489.84,-125.83C502.97,-117.15 519.34,-106.31 533.66,-96.84"/>
<polygon fill="#63b8ff" stroke="#63b8ff" points="535.51,-99.81 541.92,-91.37 531.65,-93.97 535.51,-99.81"/>
</a>
</g>
</g>
<!-- Node9 -->
<g id="Node000009" class="node">
<title>Node9</title>
<g id="a_Node000009"><a xlink:href="preprocessor_8hpp.html" target="_top" xlink:title=" ">
<polygon fill="white" stroke="#666666" points="399.79,-90.25 257.04,-90.25 257.04,-56.75 399.79,-56.75 399.79,-90.25"/>
<text text-anchor="start" x="265.04" y="-76.75" font-family="Helvetica,sans-Serif" font-size="10.00">proxsuite/linalg/veg</text>
<text text-anchor="middle" x="328.41" y="-64" font-family="Helvetica,sans-Serif" font-size="10.00">/internal/preprocessor.hpp</text>
</a>
</g>
</g>
<!-- Node7&#45;&gt;Node9 -->
<g id="edge10_Node000007_Node000009" class="edge">
<title>Node7&#45;&gt;Node9</title>
<g id="a_edge10_Node000007_Node000009"><a xlink:title=" ">
<path fill="none" stroke="#63b8ff" d="M432.6,-125.83C414.21,-116.77 391.07,-105.37 371.27,-95.61"/>
<polygon fill="#63b8ff" stroke="#63b8ff" points="372.83,-92.49 362.32,-91.2 369.74,-98.76 372.83,-92.49"/>
</a>
</g>
</g>
<!-- Node7&#45;&gt;Node10 -->
<g id="edge11_Node000007_Node000010" class="edge">
<title>Node7&#45;&gt;Node10</title>
<g id="a_edge11_Node000007_Node000010"><a xlink:title=" ">
<path fill="none" stroke="#63b8ff" d="M406.78,-128.26C361.62,-117.67 298.92,-102.98 250.49,-91.63"/>
<polygon fill="#63b8ff" stroke="#63b8ff" points="251.45,-88.26 240.92,-89.38 249.86,-95.07 251.45,-88.26"/>
</a>
</g>
</g>
<!-- Node11 -->
<g id="Node000011" class="node">
<title>Node11</title>
<g id="a_Node000011"><a xlink:title=" ">
<polygon fill="#e0e0e0" stroke="#999999" points="97.41,-83.88 15.41,-83.88 15.41,-63.12 97.41,-63.12 97.41,-83.88"/>
<text text-anchor="middle" x="56.41" y="-70.38" font-family="Helvetica,sans-Serif" font-size="10.00">initializer_list</text>
</a>
</g>
</g>
<!-- Node7&#45;&gt;Node11 -->
<g id="edge12_Node000007_Node000011" class="edge">
<title>Node7&#45;&gt;Node11</title>
<g id="a_edge12_Node000007_Node000011"><a xlink:title=" ">
<path fill="none" stroke="#63b8ff" d="M406.74,-136.49C335.21,-129.1 210.94,-114.08 106.41,-90.25 102.86,-89.44 99.2,-88.5 95.55,-87.49"/>
<polygon fill="#63b8ff" stroke="#63b8ff" points="96.78,-84.2 86.2,-84.73 94.8,-90.92 96.78,-84.2"/>
</a>
</g>
</g>
<!-- Node12 -->
<g id="Node000012" class="node">
<title>Node12</title>
<g id="a_Node000012"><a xlink:title=" ">
<polygon fill="#e0e0e0" stroke="#999999" points="462.66,-83.88 418.16,-83.88 418.16,-63.12 462.66,-63.12 462.66,-83.88"/>
<text text-anchor="middle" x="440.41" y="-70.38" font-family="Helvetica,sans-Serif" font-size="10.00">utility</text>
</a>
</g>
</g>
<!-- Node7&#45;&gt;Node12 -->
<g id="edge13_Node000007_Node000012" class="edge">
<title>Node7&#45;&gt;Node12</title>
<g id="a_edge13_Node000007_Node000012"><a xlink:title=" ">
<path fill="none" stroke="#63b8ff" d="M459.49,-126C456.04,-116.7 451.67,-104.88 447.97,-94.91"/>
<polygon fill="#63b8ff" stroke="#63b8ff" points="451.33,-93.9 444.58,-85.74 444.77,-96.33 451.33,-93.9"/>
</a>
</g>
</g>
<!-- Node7&#45;&gt;Node13 -->
<g id="edge14_Node000007_Node000013" class="edge">
<title>Node7&#45;&gt;Node13</title>
<g id="a_edge14_Node000007_Node000013"><a xlink:title=" ">
<path fill="none" stroke="#63b8ff" d="M523.98,-134.36C589.52,-125.53 699.09,-109.91 802.7,-90.69"/>
<polygon fill="#63b8ff" stroke="#63b8ff" points="803.33,-94.13 812.52,-88.85 802.04,-87.25 803.33,-94.13"/>
</a>
</g>
</g>
<!-- Node14&#45;&gt;Node4 -->
<g id="edge20_Node000014_Node000004" class="edge">
<title>Node14&#45;&gt;Node4</title>
<g id="a_edge20_Node000014_Node000004"><a xlink:title=" ">
<path fill="none" stroke="#63b8ff" d="M35.29,-125.77C14.31,-107.72 -12.26,-78.26 6.41,-56.75 42.9,-14.72 215.01,-10.58 290.63,-10.85"/>
<polygon fill="#63b8ff" stroke="#63b8ff" points="290.37,-14.35 300.39,-10.91 290.41,-7.35 290.37,-14.35"/>
</a>
</g>
</g>
<!-- Node14&#45;&gt;Node11 -->
<g id="edge21_Node000014_Node000011" class="edge">
<title>Node14&#45;&gt;Node11</title>
<g id="a_edge21_Node000014_Node000011"><a xlink:title=" ">
<path fill="none" stroke="#63b8ff" d="M56.41,-126C56.41,-116.9 56.41,-105.39 56.41,-95.57"/>
<polygon fill="#63b8ff" stroke="#63b8ff" points="59.91,-95.84 56.41,-85.84 52.91,-95.84 59.91,-95.84"/>
</a>
</g>
</g>
</g>
</svg>
