<?xml version="1.0" encoding="UTF-8" standalone="no"?>
<!DOCTYPE svg PUBLIC "-//W3C//DTD SVG 1.1//EN"
 "http://www.w3.org/Graphics/SVG/1.1/DTD/svg11.dtd">
<!-- Generated by graphviz version 8.1.0 (20230707.2238)
 -->
<!-- Title: include/proxsuite/linalg/veg/internal/assert_impl.hpp Pages: 1 -->
<svg width="1340pt" height="585pt"
 viewBox="0.00 0.00 1340.38 584.75" xmlns="http://www.w3.org/2000/svg" xmlns:xlink="http://www.w3.org/1999/xlink">
<g id="graph0" class="graph" transform="scale(1 1) rotate(0) translate(4 580.75)">
<title>include/proxsuite/linalg/veg/internal/assert_impl.hpp</title>
<!-- Node1 -->
<g id="Node000001" class="node">
<title>Node1</title>
<g id="a_Node000001"><a xlink:title=" ">
<polygon fill="#999999" stroke="#666666" points="651.25,-576.75 492.75,-576.75 492.75,-543.25 651.25,-543.25 651.25,-576.75"/>
<text text-anchor="start" x="500.75" y="-563.25" font-family="Helvetica,sans-Serif" font-size="10.00">include/proxsuite/linalg</text>
<text text-anchor="middle" x="572" y="-550.5" font-family="Helvetica,sans-Serif" font-size="10.00">/veg/internal/assert_impl.hpp</text>
</a>
</g>
</g>
<!-- Node2 -->
<g id="Node000002" class="node">
<title>Node2</title>
<g id="a_Node000002"><a xlink:href="typedefs_8hpp.html" target="_top" xlink:title=" ">
<polygon fill="white" stroke="#666666" points="267.62,-90.25 144.38,-90.25 144.38,-56.75 267.62,-56.75 267.62,-90.25"/>
<text text-anchor="start" x="152.38" y="-76.75" font-family="Helvetica,sans-Serif" font-size="10.00">proxsuite/linalg/veg</text>
<text text-anchor="middle" x="206" y="-64" font-family="Helvetica,sans-Serif" font-size="10.00">/internal/typedefs.hpp</text>
</a>
</g>
</g>
<!-- Node1&#45;&gt;Node2 -->
<g id="edge1_Node000001_Node000002" class="edge">
<title>Node1&#45;&gt;Node2</title>
<g id="a_edge1_Node000001_Node000002"><a xlink:title=" ">
<path fill="none" stroke="#63b8ff" d="M492.46,-557.32C372.16,-553.66 150.48,-542.26 80,-507.25 33.46,-484.14 0,-473.96 0,-422 0,-422 0,-422 0,-211.5 0,-167.35 16.58,-153.91 51,-126.25 74.63,-107.26 105.54,-95.11 133.53,-87.39"/>
<polygon fill="#63b8ff" stroke="#63b8ff" points="134.29,-90.55 143.09,-84.65 132.53,-83.78 134.29,-90.55"/>
</a>
</g>
</g>
<!-- Node5 -->
<g id="Node000005" class="node">
<title>Node5</title>
<g id="a_Node000005"><a xlink:href="defer_8hpp.html" target="_top" xlink:title=" ">
<polygon fill="white" stroke="#666666" points="399.38,-507.25 286.62,-507.25 286.62,-473.75 399.38,-473.75 399.38,-507.25"/>
<text text-anchor="start" x="294.62" y="-493.75" font-family="Helvetica,sans-Serif" font-size="10.00">proxsuite/linalg/veg</text>
<text text-anchor="middle" x="343" y="-481" font-family="Helvetica,sans-Serif" font-size="10.00">/util/defer.hpp</text>
</a>
</g>
</g>
<!-- Node1&#45;&gt;Node5 -->
<g id="edge4_Node000001_Node000005" class="edge">
<title>Node1&#45;&gt;Node5</title>
<g id="a_edge4_Node000001_Node000005"><a xlink:title=" ">
<path fill="none" stroke="#63b8ff" d="M517.15,-542.83C484.41,-533.18 442.65,-520.87 408.23,-510.73"/>
<polygon fill="#63b8ff" stroke="#63b8ff" points="409.38,-507.12 398.8,-507.65 407.4,-513.84 409.38,-507.12"/>
</a>
</g>
</g>
<!-- Node12 -->
<g id="Node000012" class="node">
<title>Node12</title>
<g id="a_Node000012"><a xlink:href="prologue_8hpp.html" target="_top" xlink:title=" ">
<polygon fill="white" stroke="#666666" points="408.62,-90.25 285.38,-90.25 285.38,-56.75 408.62,-56.75 408.62,-90.25"/>
<text text-anchor="start" x="293.38" y="-76.75" font-family="Helvetica,sans-Serif" font-size="10.00">proxsuite/linalg/veg</text>
<text text-anchor="middle" x="347" y="-64" font-family="Helvetica,sans-Serif" font-size="10.00">/internal/prologue.hpp</text>
</a>
</g>
</g>
<!-- Node1&#45;&gt;Node12 -->
<g id="edge63_Node000001_Node000012" class="edge">
<title>Node1&#45;&gt;Node12</title>
<g id="a_edge63_Node000001_Node000012"><a xlink:title=" ">
<path fill="none" stroke="#63b8ff" d="M492.34,-555.07C343.48,-545.53 38,-514.66 38,-422 38,-422 38,-422 38,-211.5 38,-165.92 57.09,-151.55 95,-126.25 160.78,-82.36 193.58,-105.22 274.53,-90.59"/>
<polygon fill="#63b8ff" stroke="#63b8ff" points="275.04,-93.86 284.18,-88.5 273.7,-86.99 275.04,-93.86"/>
</a>
</g>
</g>
<!-- Node14 -->
<g id="Node000014" class="node">
<title>Node14</title>
<g id="a_Node000014"><a xlink:href="epilogue_8hpp.html" target="_top" xlink:title=" ">
<polygon fill="white" stroke="#666666" points="917.25,-90.25 794.75,-90.25 794.75,-56.75 917.25,-56.75 917.25,-90.25"/>
<text text-anchor="start" x="802.75" y="-76.75" font-family="Helvetica,sans-Serif" font-size="10.00">proxsuite/linalg/veg</text>
<text text-anchor="middle" x="856" y="-64" font-family="Helvetica,sans-Serif" font-size="10.00">/internal/epilogue.hpp</text>
</a>
</g>
</g>
<!-- Node1&#45;&gt;Node14 -->
<g id="edge65_Node000001_Node000014" class="edge">
<title>Node1&#45;&gt;Node14</title>
<g id="a_edge65_Node000001_Node000014"><a xlink:title=" ">
<path fill="none" stroke="#63b8ff" d="M651.47,-557.94C818.77,-553.54 1192,-531.48 1192,-422 1192,-422 1192,-422 1192,-211.5 1192,-172.68 1201.31,-152.81 1173,-126.25 1135.27,-90.86 994.01,-98.86 943,-90.25 938.06,-89.42 932.96,-88.54 927.83,-87.64"/>
<polygon fill="#63b8ff" stroke="#63b8ff" points="928.74,-84.07 918.28,-85.78 927.52,-90.97 928.74,-84.07"/>
</a>
</g>
</g>
<!-- Node18 -->
<g id="Node000018" class="node">
<title>Node18</title>
<g id="a_Node000018"><a xlink:href="internal_2dbg_8hpp.html" target="_top" xlink:title=" ">
<polygon fill="white" stroke="#666666" points="842.38,-507.25 729.62,-507.25 729.62,-473.75 842.38,-473.75 842.38,-507.25"/>
<text text-anchor="start" x="737.62" y="-493.75" font-family="Helvetica,sans-Serif" font-size="10.00">proxsuite/linalg/veg</text>
<text text-anchor="middle" x="786" y="-481" font-family="Helvetica,sans-Serif" font-size="10.00">/internal/dbg.hpp</text>
</a>
</g>
</g>
<!-- Node1&#45;&gt;Node18 -->
<g id="edge32_Node000001_Node000018" class="edge">
<title>Node1&#45;&gt;Node18</title>
<g id="a_edge32_Node000001_Node000018"><a xlink:title=" ">
<path fill="none" stroke="#63b8ff" d="M623.26,-542.83C653.72,-533.22 692.54,-520.98 724.63,-510.86"/>
<polygon fill="#63b8ff" stroke="#63b8ff" points="725.31,-514 733.79,-507.65 723.2,-507.32 725.31,-514"/>
</a>
</g>
</g>
<!-- Node29 -->
<g id="Node000029" class="node">
<title>Node29</title>
<g id="a_Node000029"><a xlink:title=" ">
<polygon fill="#e0e0e0" stroke="#999999" points="1271.62,-500.88 1220.38,-500.88 1220.38,-480.12 1271.62,-480.12 1271.62,-500.88"/>
<text text-anchor="middle" x="1246" y="-487.38" font-family="Helvetica,sans-Serif" font-size="10.00">cassert</text>
</a>
</g>
</g>
<!-- Node1&#45;&gt;Node29 -->
<g id="edge64_Node000001_Node000029" class="edge">
<title>Node1&#45;&gt;Node29</title>
<g id="a_edge64_Node000001_Node000029"><a xlink:title=" ">
<path fill="none" stroke="#63b8ff" d="M651.72,-559.93C773.02,-559.68 1010.49,-552.67 1206,-507.25 1208.67,-506.63 1211.4,-505.86 1214.12,-505"/>
<polygon fill="#63b8ff" stroke="#63b8ff" points="1215.12,-508.01 1223.36,-501.35 1212.77,-501.41 1215.12,-508.01"/>
</a>
</g>
</g>
<!-- Node3 -->
<g id="Node000003" class="node">
<title>Node3</title>
<g id="a_Node000003"><a xlink:title=" ">
<polygon fill="#e0e0e0" stroke="#999999" points="744.5,-20.75 695.5,-20.75 695.5,0 744.5,0 744.5,-20.75"/>
<text text-anchor="middle" x="720" y="-7.25" font-family="Helvetica,sans-Serif" font-size="10.00">cstdint</text>
</a>
</g>
</g>
<!-- Node2&#45;&gt;Node3 -->
<g id="edge2_Node000002_Node000003" class="edge">
<title>Node2&#45;&gt;Node3</title>
<g id="a_edge2_Node000002_Node000003"><a xlink:title=" ">
<path fill="none" stroke="#63b8ff" d="M267.76,-58.18C270.54,-57.67 273.3,-57.19 276,-56.75 426.94,-32.15 609.05,-18.51 684.55,-13.55"/>
<polygon fill="#63b8ff" stroke="#63b8ff" points="684.56,-17 694.32,-12.86 684.11,-10.01 684.56,-17"/>
</a>
</g>
</g>
<!-- Node4 -->
<g id="Node000004" class="node">
<title>Node4</title>
<g id="a_Node000004"><a xlink:title=" ">
<polygon fill="#e0e0e0" stroke="#999999" points="232,-20.75 180,-20.75 180,0 232,0 232,-20.75"/>
<text text-anchor="middle" x="206" y="-7.25" font-family="Helvetica,sans-Serif" font-size="10.00">cstddef</text>
</a>
</g>
</g>
<!-- Node2&#45;&gt;Node4 -->
<g id="edge3_Node000002_Node000004" class="edge">
<title>Node2&#45;&gt;Node4</title>
<g id="a_edge3_Node000002_Node000004"><a xlink:title=" ">
<path fill="none" stroke="#63b8ff" d="M206,-56.44C206,-49.02 206,-40.11 206,-32.18"/>
<polygon fill="#63b8ff" stroke="#63b8ff" points="209.5,-32.22 206,-22.22 202.5,-32.22 209.5,-32.22"/>
</a>
</g>
</g>
<!-- Node6 -->
<g id="Node000006" class="node">
<title>Node6</title>
<g id="a_Node000006"><a xlink:href="constructible_8hpp.html" target="_top" xlink:title=" ">
<polygon fill="white" stroke="#666666" points="300.25,-368.25 141.75,-368.25 141.75,-334.75 300.25,-334.75 300.25,-368.25"/>
<text text-anchor="start" x="149.75" y="-354.75" font-family="Helvetica,sans-Serif" font-size="10.00">proxsuite/linalg/veg</text>
<text text-anchor="middle" x="221" y="-342" font-family="Helvetica,sans-Serif" font-size="10.00">/type_traits/constructible.hpp</text>
</a>
</g>
</g>
<!-- Node5&#45;&gt;Node6 -->
<g id="edge5_Node000005_Node000006" class="edge">
<title>Node5&#45;&gt;Node6</title>
<g id="a_edge5_Node000005_Node000006"><a xlink:title=" ">
<path fill="none" stroke="#63b8ff" d="M286.42,-476.37C265.43,-468.61 243.48,-456.5 230,-437.75 217.97,-421.02 216.32,-397.44 217.34,-379.33"/>
<polygon fill="#63b8ff" stroke="#63b8ff" points="220.9,-379.87 218.29,-369.6 213.92,-379.25 220.9,-379.87"/>
</a>
</g>
</g>
<!-- Node5&#45;&gt;Node12 -->
<g id="edge30_Node000005_Node000012" class="edge">
<title>Node5&#45;&gt;Node12</title>
<g id="a_edge30_Node000005_Node000012"><a xlink:title=" ">
<path fill="none" stroke="#63b8ff" d="M286.38,-485.24C208,-475.91 76,-446.28 76,-352.5 76,-352.5 76,-352.5 76,-211.5 76,-159.84 110.78,-152.96 155,-126.25 165.6,-119.85 224.68,-104.35 274.54,-91.98"/>
<polygon fill="#63b8ff" stroke="#63b8ff" points="275.15,-95.19 284.01,-89.39 273.47,-88.39 275.15,-95.19"/>
</a>
</g>
</g>
<!-- Node5&#45;&gt;Node14 -->
<g id="edge31_Node000005_Node000014" class="edge">
<title>Node5&#45;&gt;Node14</title>
<g id="a_edge31_Node000005_Node000014"><a xlink:title=" ">
<path fill="none" stroke="#63b8ff" d="M399.71,-484.6C471.49,-477.67 598.59,-462.96 705,-437.75 750.61,-426.94 760.05,-417.54 805,-404.25 866.61,-386.03 905.63,-419.02 945,-368.25 1011.07,-283.04 987.71,-216.03 928,-126.25 920.2,-114.52 908.77,-104.56 897.31,-96.61"/>
<polygon fill="#63b8ff" stroke="#63b8ff" points="899.47,-93.18 889.17,-90.66 895.65,-99.05 899.47,-93.18"/>
</a>
</g>
</g>
<!-- Node17 -->
<g id="Node000017" class="node">
<title>Node17</title>
<g id="a_Node000017"><a xlink:href="invocable_8hpp.html" target="_top" xlink:title=" ">
<polygon fill="white" stroke="#666666" points="414.38,-437.75 271.62,-437.75 271.62,-404.25 414.38,-404.25 414.38,-437.75"/>
<text text-anchor="start" x="279.62" y="-424.25" font-family="Helvetica,sans-Serif" font-size="10.00">proxsuite/linalg/veg</text>
<text text-anchor="middle" x="343" y="-411.5" font-family="Helvetica,sans-Serif" font-size="10.00">/type_traits/invocable.hpp</text>
</a>
</g>
</g>
<!-- Node5&#45;&gt;Node17 -->
<g id="edge25_Node000005_Node000017" class="edge">
<title>Node5&#45;&gt;Node17</title>
<g id="a_edge25_Node000005_Node000017"><a xlink:title=" ">
<path fill="none" stroke="#63b8ff" d="M343,-473.5C343,-466.11 343,-457.12 343,-448.73"/>
<polygon fill="#63b8ff" stroke="#63b8ff" points="346.5,-448.88 343,-438.88 339.5,-448.88 346.5,-448.88"/>
</a>
</g>
</g>
<!-- Node7 -->
<g id="Node000007" class="node">
<title>Node7</title>
<g id="a_Node000007"><a xlink:href="veg_2type__traits_2core_8hpp.html" target="_top" xlink:title=" ">
<polygon fill="white" stroke="#666666" points="474.25,-298.75 357.75,-298.75 357.75,-265.25 474.25,-265.25 474.25,-298.75"/>
<text text-anchor="start" x="365.75" y="-285.25" font-family="Helvetica,sans-Serif" font-size="10.00">proxsuite/linalg/veg</text>
<text text-anchor="middle" x="416" y="-272.5" font-family="Helvetica,sans-Serif" font-size="10.00">/type_traits/core.hpp</text>
</a>
</g>
</g>
<!-- Node6&#45;&gt;Node7 -->
<g id="edge6_Node000006_Node000007" class="edge">
<title>Node6&#45;&gt;Node7</title>
<g id="a_edge6_Node000006_Node000007"><a xlink:title=" ">
<path fill="none" stroke="#63b8ff" d="M267.71,-334.33C295.22,-324.81 330.23,-312.69 359.32,-302.62"/>
<polygon fill="#63b8ff" stroke="#63b8ff" points="360.03,-305.73 368.34,-299.15 357.74,-299.12 360.03,-305.73"/>
</a>
</g>
</g>
<!-- Node6&#45;&gt;Node12 -->
<g id="edge21_Node000006_Node000012" class="edge">
<title>Node6&#45;&gt;Node12</title>
<g id="a_edge21_Node000006_Node000012"><a xlink:title=" ">
<path fill="none" stroke="#63b8ff" d="M198.94,-334.42C188.33,-325.3 176.71,-312.88 171,-298.75 165.42,-284.95 165.58,-279.12 171,-265.25 199.88,-191.35 272.3,-128.87 314.7,-97.06"/>
<polygon fill="#63b8ff" stroke="#63b8ff" points="316.54,-99.31 322.51,-90.56 312.39,-93.67 316.54,-99.31"/>
</a>
</g>
</g>
<!-- Node6&#45;&gt;Node14 -->
<g id="edge24_Node000006_Node000014" class="edge">
<title>Node6&#45;&gt;Node14</title>
<g id="a_edge24_Node000006_Node000014"><a xlink:title=" ">
<path fill="none" stroke="#63b8ff" d="M300.61,-341.91C353.57,-334.48 423.98,-321.27 483,-298.75 596.37,-255.48 614.15,-222.53 718,-159.75 753.14,-138.51 793.02,-113.81 820.84,-96.48"/>
<polygon fill="#63b8ff" stroke="#63b8ff" points="822.51,-98.94 829.15,-90.68 818.81,-93 822.51,-98.94"/>
</a>
</g>
</g>
<!-- Node15 -->
<g id="Node000015" class="node">
<title>Node15</title>
<g id="a_Node000015"><a xlink:title=" ">
<polygon fill="#e0e0e0" stroke="#999999" points="216.12,-292.38 179.88,-292.38 179.88,-271.62 216.12,-271.62 216.12,-292.38"/>
<text text-anchor="middle" x="198" y="-278.88" font-family="Helvetica,sans-Serif" font-size="10.00">new</text>
</a>
</g>
</g>
<!-- Node6&#45;&gt;Node15 -->
<g id="edge22_Node000006_Node000015" class="edge">
<title>Node6&#45;&gt;Node15</title>
<g id="a_edge22_Node000006_Node000015"><a xlink:title=" ">
<path fill="none" stroke="#63b8ff" d="M215.55,-334.5C212.34,-325.1 208.26,-313.12 204.84,-303.09"/>
<polygon fill="#63b8ff" stroke="#63b8ff" points="207.89,-302.16 201.35,-293.82 201.26,-304.42 207.89,-302.16"/>
</a>
</g>
</g>
<!-- Node16 -->
<g id="Node000016" class="node">
<title>Node16</title>
<g id="a_Node000016"><a xlink:title=" ">
<polygon fill="#e0e0e0" stroke="#999999" points="302.25,-292.38 233.75,-292.38 233.75,-271.62 302.25,-271.62 302.25,-292.38"/>
<text text-anchor="middle" x="268" y="-278.88" font-family="Helvetica,sans-Serif" font-size="10.00">type_traits</text>
</a>
</g>
</g>
<!-- Node6&#45;&gt;Node16 -->
<g id="edge23_Node000006_Node000016" class="edge">
<title>Node6&#45;&gt;Node16</title>
<g id="a_edge23_Node000006_Node000016"><a xlink:title=" ">
<path fill="none" stroke="#63b8ff" d="M232.14,-334.5C238.97,-324.69 247.74,-312.09 254.91,-301.8"/>
<polygon fill="#63b8ff" stroke="#63b8ff" points="258.32,-304.03 261.16,-293.82 252.57,-300.03 258.32,-304.03"/>
</a>
</g>
</g>
<!-- Node7&#45;&gt;Node2 -->
<g id="edge7_Node000007_Node000002" class="edge">
<title>Node7&#45;&gt;Node2</title>
<g id="a_edge7_Node000007_Node000002"><a xlink:title=" ">
<path fill="none" stroke="#63b8ff" d="M372.23,-264.83C352.72,-256.22 330.29,-244.29 313,-229.25 269.89,-191.76 235.74,-133.26 218.43,-99.96"/>
<polygon fill="#63b8ff" stroke="#63b8ff" points="221.26,-98.81 213.61,-91.49 215.02,-101.99 221.26,-98.81"/>
</a>
</g>
</g>
<!-- Node8 -->
<g id="Node000008" class="node">
<title>Node8</title>
<g id="a_Node000008"><a xlink:href="integer__seq_8hpp.html" target="_top" xlink:title=" ">
<polygon fill="white" stroke="#666666" points="545.75,-229.25 408.25,-229.25 408.25,-195.75 545.75,-195.75 545.75,-229.25"/>
<text text-anchor="start" x="416.25" y="-215.75" font-family="Helvetica,sans-Serif" font-size="10.00">proxsuite/linalg/veg</text>
<text text-anchor="middle" x="477" y="-203" font-family="Helvetica,sans-Serif" font-size="10.00">/internal/integer_seq.hpp</text>
</a>
</g>
</g>
<!-- Node7&#45;&gt;Node8 -->
<g id="edge8_Node000007_Node000008" class="edge">
<title>Node7&#45;&gt;Node8</title>
<g id="a_edge8_Node000007_Node000008"><a xlink:title=" ">
<path fill="none" stroke="#63b8ff" d="M430.46,-265C437.9,-256.77 447.13,-246.55 455.4,-237.4"/>
<polygon fill="#63b8ff" stroke="#63b8ff" points="457.54,-240.15 461.65,-230.38 452.35,-235.45 457.54,-240.15"/>
</a>
</g>
</g>
<!-- Node7&#45;&gt;Node12 -->
<g id="edge19_Node000007_Node000012" class="edge">
<title>Node7&#45;&gt;Node12</title>
<g id="a_edge19_Node000007_Node000012"><a xlink:title=" ">
<path fill="none" stroke="#63b8ff" d="M369.45,-264.85C353.39,-256.79 337.15,-245.25 328,-229.25 304.94,-188.93 321.33,-133.13 334.65,-100.72"/>
<polygon fill="#63b8ff" stroke="#63b8ff" points="338.23,-102.25 338.98,-91.68 331.8,-99.48 338.23,-102.25"/>
</a>
</g>
</g>
<!-- Node7&#45;&gt;Node14 -->
<g id="edge20_Node000007_Node000014" class="edge">
<title>Node7&#45;&gt;Node14</title>
<g id="a_edge20_Node000007_Node000014"><a xlink:title=" ">
<path fill="none" stroke="#63b8ff" d="M463.84,-264.77C490.91,-255.19 525.2,-242.4 555,-229.25 651.86,-186.5 761.48,-127.27 817.92,-95.93"/>
<polygon fill="#63b8ff" stroke="#63b8ff" points="819.46,-98.52 826.5,-90.6 816.06,-92.41 819.46,-98.52"/>
</a>
</g>
</g>
<!-- Node8&#45;&gt;Node2 -->
<g id="edge9_Node000008_Node000002" class="edge">
<title>Node8&#45;&gt;Node2</title>
<g id="a_edge9_Node000008_Node000002"><a xlink:title=" ">
<path fill="none" stroke="#63b8ff" d="M445.12,-195.38C395.99,-170.54 301.77,-122.92 247.43,-95.44"/>
<polygon fill="#63b8ff" stroke="#63b8ff" points="249.27,-91.95 238.76,-90.56 246.11,-98.19 249.27,-91.95"/>
</a>
</g>
</g>
<!-- Node9 -->
<g id="Node000009" class="node">
<title>Node9</title>
<g id="a_Node000009"><a xlink:href="macros_8hpp.html" target="_top" xlink:title=" ">
<polygon fill="white" stroke="#666666" points="638.25,-159.75 521.75,-159.75 521.75,-126.25 638.25,-126.25 638.25,-159.75"/>
<text text-anchor="start" x="529.75" y="-146.25" font-family="Helvetica,sans-Serif" font-size="10.00">proxsuite/linalg/veg</text>
<text text-anchor="middle" x="580" y="-133.5" font-family="Helvetica,sans-Serif" font-size="10.00">/internal/macros.hpp</text>
</a>
</g>
</g>
<!-- Node8&#45;&gt;Node9 -->
<g id="edge10_Node000008_Node000009" class="edge">
<title>Node8&#45;&gt;Node9</title>
<g id="a_edge10_Node000008_Node000009"><a xlink:title=" ">
<path fill="none" stroke="#63b8ff" d="M501.67,-195.33C515.05,-186.57 531.78,-175.6 546.33,-166.06"/>
<polygon fill="#63b8ff" stroke="#63b8ff" points="548.08,-168.44 554.53,-160.04 544.25,-162.59 548.08,-168.44"/>
</a>
</g>
</g>
<!-- Node8&#45;&gt;Node12 -->
<g id="edge17_Node000008_Node000012" class="edge">
<title>Node8&#45;&gt;Node12</title>
<g id="a_edge17_Node000008_Node000012"><a xlink:title=" ">
<path fill="none" stroke="#63b8ff" d="M461.83,-195.52C439.03,-171.49 395.79,-125.92 369.37,-98.07"/>
<polygon fill="#63b8ff" stroke="#63b8ff" points="372.49,-96.23 363.07,-91.38 367.41,-101.05 372.49,-96.23"/>
</a>
</g>
</g>
<!-- Node8&#45;&gt;Node14 -->
<g id="edge18_Node000008_Node000014" class="edge">
<title>Node8&#45;&gt;Node14</title>
<g id="a_edge18_Node000008_Node000014"><a xlink:title=" ">
<path fill="none" stroke="#63b8ff" d="M546.25,-196.57C578,-188.19 615.51,-176.09 647,-159.75 668.5,-148.59 668.53,-137.48 690,-126.25 719.31,-110.92 753.94,-99.23 783.97,-90.87"/>
<polygon fill="#63b8ff" stroke="#63b8ff" points="784.65,-94.05 793.39,-88.06 782.82,-87.29 784.65,-94.05"/>
</a>
</g>
</g>
<!-- Node9&#45;&gt;Node2 -->
<g id="edge12_Node000009_Node000002" class="edge">
<title>Node9&#45;&gt;Node2</title>
<g id="a_edge12_Node000009_Node000002"><a xlink:title=" ">
<path fill="none" stroke="#63b8ff" d="M521.27,-132.94C462.25,-123.63 368.44,-108.25 278.47,-90.69"/>
<polygon fill="#63b8ff" stroke="#63b8ff" points="279.29,-87.08 268.8,-88.59 277.94,-93.95 279.29,-87.08"/>
</a>
</g>
</g>
<!-- Node10 -->
<g id="Node000010" class="node">
<title>Node10</title>
<g id="a_Node000010"><a xlink:href="hedley_8ext_8hpp.html" target="_top" xlink:title=" ">
<polygon fill="white" stroke="#666666" points="606.12,-90.25 431.88,-90.25 431.88,-56.75 606.12,-56.75 606.12,-90.25"/>
<text text-anchor="start" x="439.88" y="-76.75" font-family="Helvetica,sans-Serif" font-size="10.00">proxsuite/linalg/veg</text>
<text text-anchor="middle" x="519" y="-64" font-family="Helvetica,sans-Serif" font-size="10.00">/internal/external/hedley.ext.hpp</text>
</a>
</g>
</g>
<!-- Node9&#45;&gt;Node10 -->
<g id="edge11_Node000009_Node000010" class="edge">
<title>Node9&#45;&gt;Node10</title>
<g id="a_edge11_Node000009_Node000010"><a xlink:title=" ">
<path fill="none" stroke="#63b8ff" d="M565.54,-126C558.1,-117.77 548.87,-107.55 540.6,-98.4"/>
<polygon fill="#63b8ff" stroke="#63b8ff" points="543.65,-96.45 534.35,-91.38 538.46,-101.15 543.65,-96.45"/>
</a>
</g>
</g>
<!-- Node11 -->
<g id="Node000011" class="node">
<title>Node11</title>
<g id="a_Node000011"><a xlink:href="preprocessor_8hpp.html" target="_top" xlink:title=" ">
<polygon fill="white" stroke="#666666" points="767.38,-90.25 624.62,-90.25 624.62,-56.75 767.38,-56.75 767.38,-90.25"/>
<text text-anchor="start" x="632.62" y="-76.75" font-family="Helvetica,sans-Serif" font-size="10.00">proxsuite/linalg/veg</text>
<text text-anchor="middle" x="696" y="-64" font-family="Helvetica,sans-Serif" font-size="10.00">/internal/preprocessor.hpp</text>
</a>
</g>
</g>
<!-- Node9&#45;&gt;Node11 -->
<g id="edge13_Node000009_Node000011" class="edge">
<title>Node9&#45;&gt;Node11</title>
<g id="a_edge13_Node000009_Node000011"><a xlink:title=" ">
<path fill="none" stroke="#63b8ff" d="M607.78,-125.83C623.14,-116.9 642.41,-105.69 659.02,-96.02"/>
<polygon fill="#63b8ff" stroke="#63b8ff" points="660.56,-98.59 667.44,-90.54 657.04,-92.54 660.56,-98.59"/>
</a>
</g>
</g>
<!-- Node9&#45;&gt;Node12 -->
<g id="edge14_Node000009_Node000012" class="edge">
<title>Node9&#45;&gt;Node12</title>
<g id="a_edge14_Node000009_Node000012"><a xlink:title=" ">
<path fill="none" stroke="#63b8ff" d="M524.19,-125.83C490.74,-116.14 448.02,-103.77 412.92,-93.6"/>
<polygon fill="#63b8ff" stroke="#63b8ff" points="414.34,-90.07 403.76,-90.65 412.39,-96.8 414.34,-90.07"/>
</a>
</g>
</g>
<!-- Node13 -->
<g id="Node000013" class="node">
<title>Node13</title>
<g id="a_Node000013"><a xlink:title=" ">
<polygon fill="#e0e0e0" stroke="#999999" points="1034,-83.88 952,-83.88 952,-63.12 1034,-63.12 1034,-83.88"/>
<text text-anchor="middle" x="993" y="-70.38" font-family="Helvetica,sans-Serif" font-size="10.00">initializer_list</text>
</a>
</g>
</g>
<!-- Node9&#45;&gt;Node13 -->
<g id="edge15_Node000009_Node000013" class="edge">
<title>Node9&#45;&gt;Node13</title>
<g id="a_edge15_Node000009_Node000013"><a xlink:title=" ">
<path fill="none" stroke="#63b8ff" d="M638.71,-134.72C707.75,-125.81 825.64,-109.52 926,-90.25 931.43,-89.21 937.1,-88.03 942.72,-86.79"/>
<polygon fill="#63b8ff" stroke="#63b8ff" points="943.45,-89.99 952.44,-84.37 941.91,-83.16 943.45,-89.99"/>
</a>
</g>
</g>
<!-- Node9&#45;&gt;Node14 -->
<g id="edge16_Node000009_Node000014" class="edge">
<title>Node9&#45;&gt;Node14</title>
<g id="a_edge16_Node000009_Node000014"><a xlink:title=" ">
<path fill="none" stroke="#63b8ff" d="M638.53,-127.68C681.02,-117.3 738.74,-103.18 784.04,-92.1"/>
<polygon fill="#63b8ff" stroke="#63b8ff" points="784.8,-95.27 793.68,-89.5 783.14,-88.47 784.8,-95.27"/>
</a>
</g>
</g>
<!-- Node17&#45;&gt;Node6 -->
<g id="edge27_Node000017_Node000006" class="edge">
<title>Node17&#45;&gt;Node6</title>
<g id="a_edge27_Node000017_Node000006"><a xlink:title=" ">
<path fill="none" stroke="#63b8ff" d="M313.78,-403.83C297.48,-394.82 276.98,-383.48 259.41,-373.75"/>
<polygon fill="#63b8ff" stroke="#63b8ff" points="261.43,-370.31 250.98,-368.54 258.04,-376.44 261.43,-370.31"/>
</a>
</g>
</g>
<!-- Node17&#45;&gt;Node7 -->
<g id="edge26_Node000017_Node000007" class="edge">
<title>Node17&#45;&gt;Node7</title>
<g id="a_edge26_Node000017_Node000007"><a xlink:title=" ">
<path fill="none" stroke="#63b8ff" d="M340.13,-403.85C337.76,-385.87 336.43,-356.47 348,-334.75 354.27,-322.99 364.51,-313.11 375.17,-305.23"/>
<polygon fill="#63b8ff" stroke="#63b8ff" points="376.86,-307.63 383.14,-299.1 372.91,-301.86 376.86,-307.63"/>
</a>
</g>
</g>
<!-- Node17&#45;&gt;Node12 -->
<g id="edge28_Node000017_Node000012" class="edge">
<title>Node17&#45;&gt;Node12</title>
<g id="a_edge28_Node000017_Node000012"><a xlink:title=" ">
<path fill="none" stroke="#63b8ff" d="M271.16,-410.49C218.22,-402.02 152.23,-387.91 133,-368.25 105.86,-340.5 114,-321.82 114,-283 114,-283 114,-283 114,-211.5 114,-170.35 223.35,-121.29 292.22,-94.46"/>
<polygon fill="#63b8ff" stroke="#63b8ff" points="293,-97.53 301.08,-90.67 290.49,-91 293,-97.53"/>
</a>
</g>
</g>
<!-- Node17&#45;&gt;Node14 -->
<g id="edge29_Node000017_Node000014" class="edge">
<title>Node17&#45;&gt;Node14</title>
<g id="a_edge29_Node000017_Node000014"><a xlink:title=" ">
<path fill="none" stroke="#63b8ff" d="M414.83,-413.61C508.98,-404.56 664.39,-387 683,-368.25 759.56,-291.12 649.85,-210.9 718,-126.25 727.22,-114.79 755.99,-103.19 784.88,-93.89"/>
<polygon fill="#63b8ff" stroke="#63b8ff" points="785.58,-97.02 794.08,-90.69 783.49,-90.34 785.58,-97.02"/>
</a>
</g>
</g>
<!-- Node18&#45;&gt;Node6 -->
<g id="edge42_Node000018_Node000006" class="edge">
<title>Node18&#45;&gt;Node6</title>
<g id="a_edge42_Node000018_Node000006"><a xlink:title=" ">
<path fill="none" stroke="#63b8ff" d="M729.17,-486.98C601.61,-480.87 300.69,-463.86 263,-437.75 243.29,-424.1 232.43,-398.48 226.71,-378.88"/>
<polygon fill="#63b8ff" stroke="#63b8ff" points="229.9,-378.23 223.98,-369.45 223.13,-380.01 229.9,-378.23"/>
</a>
</g>
</g>
<!-- Node18&#45;&gt;Node12 -->
<g id="edge59_Node000018_Node000012" class="edge">
<title>Node18&#45;&gt;Node12</title>
<g id="a_edge59_Node000018_Node000012"><a xlink:title=" ">
<path fill="none" stroke="#63b8ff" d="M776.54,-473.56C759.27,-444.86 720.87,-382.98 683,-334.75 657.06,-301.73 589.33,-219.93 555,-195.75 521.46,-172.13 505.49,-180.34 470,-159.75 448.74,-147.42 446.07,-140.44 426,-126.25 411.75,-116.18 395.69,-105.53 381.79,-96.54"/>
<polygon fill="#63b8ff" stroke="#63b8ff" points="383.87,-93.07 373.57,-90.6 380.08,-98.95 383.87,-93.07"/>
</a>
</g>
</g>
<!-- Node18&#45;&gt;Node14 -->
<g id="edge62_Node000018_Node000014" class="edge">
<title>Node18&#45;&gt;Node14</title>
<g id="a_edge62_Node000018_Node000014"><a xlink:title=" ">
<path fill="none" stroke="#63b8ff" d="M842.59,-479.96C908.37,-465.26 1008,-430.17 1008,-352.5 1008,-352.5 1008,-352.5 1008,-211.5 1008,-172.14 1010.26,-155.57 984,-126.25 969.22,-109.76 948.44,-98.43 927.91,-90.68"/>
<polygon fill="#63b8ff" stroke="#63b8ff" points="929.15,-87.06 918.56,-87.06 926.84,-93.66 929.15,-87.06"/>
</a>
</g>
</g>
<!-- Node19 -->
<g id="Node000019" class="node">
<title>Node19</title>
<g id="a_Node000019"><a xlink:href="primitives_8hpp.html" target="_top" xlink:title=" ">
<polygon fill="white" stroke="#666666" points="501.5,-368.25 356.5,-368.25 356.5,-334.75 501.5,-334.75 501.5,-368.25"/>
<text text-anchor="start" x="364.5" y="-354.75" font-family="Helvetica,sans-Serif" font-size="10.00">proxsuite/linalg/veg</text>
<text text-anchor="middle" x="429" y="-342" font-family="Helvetica,sans-Serif" font-size="10.00">/type_traits/primitives.hpp</text>
</a>
</g>
</g>
<!-- Node18&#45;&gt;Node19 -->
<g id="edge33_Node000018_Node000019" class="edge">
<title>Node18&#45;&gt;Node19</title>
<g id="a_edge33_Node000018_Node000019"><a xlink:title=" ">
<path fill="none" stroke="#63b8ff" d="M729.54,-480.24C686.24,-472.05 625.52,-458.19 575,-437.75 533.26,-420.86 489.12,-393.6 460.44,-374.47"/>
<polygon fill="#63b8ff" stroke="#63b8ff" points="462.95,-371.26 452.7,-368.56 459.03,-377.06 462.95,-371.26"/>
</a>
</g>
</g>
<!-- Node20 -->
<g id="Node000020" class="node">
<title>Node20</title>
<g id="a_Node000020"><a xlink:href="terminate_8hpp.html" target="_top" xlink:title=" ">
<polygon fill="white" stroke="#666666" points="1164.25,-159.75 1035.75,-159.75 1035.75,-126.25 1164.25,-126.25 1164.25,-159.75"/>
<text text-anchor="start" x="1043.75" y="-146.25" font-family="Helvetica,sans-Serif" font-size="10.00">proxsuite/linalg/veg</text>
<text text-anchor="middle" x="1100" y="-133.5" font-family="Helvetica,sans-Serif" font-size="10.00">/internal/terminate.hpp</text>
</a>
</g>
</g>
<!-- Node18&#45;&gt;Node20 -->
<g id="edge38_Node000018_Node000020" class="edge">
<title>Node18&#45;&gt;Node20</title>
<g id="a_edge38_Node000018_Node000020"><a xlink:title=" ">
<path fill="none" stroke="#63b8ff" d="M842.75,-487.99C929.21,-482.34 1084,-457.56 1084,-352.5 1084,-352.5 1084,-352.5 1084,-281 1084,-242.45 1090.33,-198.2 1095.03,-170.67"/>
<polygon fill="#63b8ff" stroke="#63b8ff" points="1098.62,-171.42 1096.92,-160.96 1091.73,-170.2 1098.62,-171.42"/>
</a>
</g>
</g>
<!-- Node22 -->
<g id="Node000022" class="node">
<title>Node22</title>
<g id="a_Node000022"><a xlink:href="ref_8hpp.html" target="_top" xlink:title=" ">
<polygon fill="white" stroke="#666666" points="696.38,-437.75 583.62,-437.75 583.62,-404.25 696.38,-404.25 696.38,-437.75"/>
<text text-anchor="start" x="591.62" y="-424.25" font-family="Helvetica,sans-Serif" font-size="10.00">proxsuite/linalg/veg</text>
<text text-anchor="middle" x="640" y="-411.5" font-family="Helvetica,sans-Serif" font-size="10.00">/ref.hpp</text>
</a>
</g>
</g>
<!-- Node18&#45;&gt;Node22 -->
<g id="edge43_Node000018_Node000022" class="edge">
<title>Node18&#45;&gt;Node22</title>
<g id="a_edge43_Node000018_Node000022"><a xlink:title=" ">
<path fill="none" stroke="#63b8ff" d="M751.03,-473.33C731.15,-464.14 706.04,-452.53 684.74,-442.68"/>
<polygon fill="#63b8ff" stroke="#63b8ff" points="686.48,-439.17 675.94,-438.15 683.55,-445.53 686.48,-439.17"/>
</a>
</g>
</g>
<!-- Node27 -->
<g id="Node000027" class="node">
<title>Node27</title>
<g id="a_Node000027"><a xlink:title=" ">
<polygon fill="#e0e0e0" stroke="#999999" points="1161.5,-431.38 1112.5,-431.38 1112.5,-410.62 1161.5,-410.62 1161.5,-431.38"/>
<text text-anchor="middle" x="1137" y="-417.88" font-family="Helvetica,sans-Serif" font-size="10.00">cstring</text>
</a>
</g>
</g>
<!-- Node18&#45;&gt;Node27 -->
<g id="edge60_Node000018_Node000027" class="edge">
<title>Node18&#45;&gt;Node27</title>
<g id="a_edge60_Node000018_Node000027"><a xlink:title=" ">
<path fill="none" stroke="#63b8ff" d="M842.61,-483.89C905.75,-476.77 1010.52,-462.35 1098,-437.75 1100.28,-437.11 1102.62,-436.37 1104.95,-435.58"/>
<polygon fill="#63b8ff" stroke="#63b8ff" points="1105.86,-438.61 1114.02,-431.85 1103.43,-432.05 1105.86,-438.61"/>
</a>
</g>
</g>
<!-- Node28 -->
<g id="Node000028" class="node">
<title>Node28</title>
<g id="a_Node000028"><a xlink:title=" ">
<polygon fill="#e0e0e0" stroke="#999999" points="859.62,-431.38 814.38,-431.38 814.38,-410.62 859.62,-410.62 859.62,-431.38"/>
<text text-anchor="middle" x="837" y="-417.88" font-family="Helvetica,sans-Serif" font-size="10.00">cstdio</text>
</a>
</g>
</g>
<!-- Node18&#45;&gt;Node28 -->
<g id="edge61_Node000018_Node000028" class="edge">
<title>Node18&#45;&gt;Node28</title>
<g id="a_edge61_Node000018_Node000028"><a xlink:title=" ">
<path fill="none" stroke="#63b8ff" d="M798.09,-473.5C805.57,-463.59 815.22,-450.83 823.03,-440.49"/>
<polygon fill="#63b8ff" stroke="#63b8ff" points="826.34,-442.91 829.58,-432.82 820.76,-438.69 826.34,-442.91"/>
</a>
</g>
</g>
<!-- Node19&#45;&gt;Node7 -->
<g id="edge34_Node000019_Node000007" class="edge">
<title>Node19&#45;&gt;Node7</title>
<g id="a_edge34_Node000019_Node000007"><a xlink:title=" ">
<path fill="none" stroke="#63b8ff" d="M425.92,-334.5C424.48,-327.02 422.72,-317.91 421.09,-309.45"/>
<polygon fill="#63b8ff" stroke="#63b8ff" points="424.39,-309.04 419.06,-299.88 417.51,-310.36 424.39,-309.04"/>
</a>
</g>
</g>
<!-- Node19&#45;&gt;Node12 -->
<g id="edge35_Node000019_Node000012" class="edge">
<title>Node19&#45;&gt;Node12</title>
<g id="a_edge35_Node000019_Node000012"><a xlink:title=" ">
<path fill="none" stroke="#63b8ff" d="M396.16,-334.42C380.45,-325.53 362.23,-313.32 349,-298.75 325.61,-273 321.23,-263.05 313,-229.25 309.48,-214.8 308.24,-145.48 314,-126.25 316.81,-116.86 321.87,-107.53 327.19,-99.44"/>
<polygon fill="#63b8ff" stroke="#63b8ff" points="330.53,-101.77 333.44,-91.58 324.81,-97.73 330.53,-101.77"/>
</a>
</g>
</g>
<!-- Node19&#45;&gt;Node14 -->
<g id="edge37_Node000019_Node000014" class="edge">
<title>Node19&#45;&gt;Node14</title>
<g id="a_edge37_Node000019_Node000014"><a xlink:title=" ">
<path fill="none" stroke="#63b8ff" d="M502,-341.12C565.13,-331.99 650.73,-316.87 680,-298.75 721.69,-272.94 804.3,-152.71 839.49,-99.71"/>
<polygon fill="#63b8ff" stroke="#63b8ff" points="842.9,-101.91 845.49,-91.64 837.06,-98.05 842.9,-101.91"/>
</a>
</g>
</g>
<!-- Node19&#45;&gt;Node16 -->
<g id="edge36_Node000019_Node000016" class="edge">
<title>Node19&#45;&gt;Node16</title>
<g id="a_edge36_Node000019_Node000016"><a xlink:title=" ">
<path fill="none" stroke="#63b8ff" d="M390.44,-334.33C363.29,-322.95 327.32,-307.87 301.4,-297"/>
<polygon fill="#63b8ff" stroke="#63b8ff" points="302.88,-293.41 292.31,-292.77 300.17,-299.87 302.88,-293.41"/>
</a>
</g>
</g>
<!-- Node20&#45;&gt;Node12 -->
<g id="edge39_Node000020_Node000012" class="edge">
<title>Node20&#45;&gt;Node12</title>
<g id="a_edge39_Node000020_Node000012"><a xlink:title=" ">
<path fill="none" stroke="#63b8ff" d="M1035.29,-139.81C914.46,-135.12 646.52,-121.82 423,-90.25 421.87,-90.09 420.72,-89.92 419.57,-89.75"/>
<polygon fill="#63b8ff" stroke="#63b8ff" points="420.53,-86.2 410.1,-88.04 419.41,-93.11 420.53,-86.2"/>
</a>
</g>
</g>
<!-- Node20&#45;&gt;Node14 -->
<g id="edge41_Node000020_Node000014" class="edge">
<title>Node20&#45;&gt;Node14</title>
<g id="a_edge41_Node000020_Node000014"><a xlink:title=" ">
<path fill="none" stroke="#63b8ff" d="M1041.56,-125.83C1006.37,-116.1 961.41,-103.66 924.55,-93.46"/>
<polygon fill="#63b8ff" stroke="#63b8ff" points="925.96,-89.95 915.39,-90.65 924.09,-96.69 925.96,-89.95"/>
</a>
</g>
</g>
<!-- Node21 -->
<g id="Node000021" class="node">
<title>Node21</title>
<g id="a_Node000021"><a xlink:title=" ">
<polygon fill="#e0e0e0" stroke="#999999" points="1132,-83.88 1068,-83.88 1068,-63.12 1132,-63.12 1132,-83.88"/>
<text text-anchor="middle" x="1100" y="-70.38" font-family="Helvetica,sans-Serif" font-size="10.00">exception</text>
</a>
</g>
</g>
<!-- Node20&#45;&gt;Node21 -->
<g id="edge40_Node000020_Node000021" class="edge">
<title>Node20&#45;&gt;Node21</title>
<g id="a_edge40_Node000020_Node000021"><a xlink:title=" ">
<path fill="none" stroke="#63b8ff" d="M1100,-126C1100,-116.8 1100,-105.14 1100,-95.24"/>
<polygon fill="#63b8ff" stroke="#63b8ff" points="1103.5,-95.32 1100,-85.32 1096.5,-95.32 1103.5,-95.32"/>
</a>
</g>
</g>
<!-- Node22&#45;&gt;Node6 -->
<g id="edge48_Node000022_Node000006" class="edge">
<title>Node22&#45;&gt;Node6</title>
<g id="a_edge48_Node000022_Node000006"><a xlink:title=" ">
<path fill="none" stroke="#63b8ff" d="M583.49,-410.9C513.62,-399.64 393.83,-380.34 311.19,-367.03"/>
<polygon fill="#63b8ff" stroke="#63b8ff" points="311.98,-363.45 301.55,-365.32 310.86,-370.36 311.98,-363.45"/>
</a>
</g>
</g>
<!-- Node22&#45;&gt;Node12 -->
<g id="edge57_Node000022_Node000012" class="edge">
<title>Node22&#45;&gt;Node12</title>
<g id="a_edge57_Node000022_Node000012"><a xlink:title=" ">
<path fill="none" stroke="#63b8ff" d="M602.74,-403.97C585.11,-395.16 564.56,-383.01 549,-368.25 509.55,-330.83 525.81,-298.76 483,-265.25 443.82,-234.58 411.58,-265.02 377,-229.25 343.85,-194.95 341.93,-135.62 344.09,-101.25"/>
<polygon fill="#63b8ff" stroke="#63b8ff" points="347.63,-101.86 344.93,-91.62 340.65,-101.31 347.63,-101.86"/>
</a>
</g>
</g>
<!-- Node22&#45;&gt;Node14 -->
<g id="edge58_Node000022_Node000014" class="edge">
<title>Node22&#45;&gt;Node14</title>
<g id="a_edge58_Node000022_Node000014"><a xlink:title=" ">
<path fill="none" stroke="#63b8ff" d="M669.1,-403.96C684.17,-394.76 702.25,-382.27 716,-368.25 793.45,-289.25 817.99,-265.03 852,-159.75 858.07,-140.96 858.9,-118.64 858.31,-101.55"/>
<polygon fill="#63b8ff" stroke="#63b8ff" points="861.75,-101.45 857.72,-91.66 854.76,-101.83 861.75,-101.45"/>
</a>
</g>
</g>
<!-- Node23 -->
<g id="Node000023" class="node">
<title>Node23</title>
<g id="a_Node000023"><a xlink:href="tags_8hpp.html" target="_top" xlink:title=" ">
<polygon fill="white" stroke="#666666" points="674.25,-368.25 557.75,-368.25 557.75,-334.75 674.25,-334.75 674.25,-368.25"/>
<text text-anchor="start" x="565.75" y="-354.75" font-family="Helvetica,sans-Serif" font-size="10.00">proxsuite/linalg/veg</text>
<text text-anchor="middle" x="616" y="-342" font-family="Helvetica,sans-Serif" font-size="10.00">/type_traits/tags.hpp</text>
</a>
</g>
</g>
<!-- Node22&#45;&gt;Node23 -->
<g id="edge44_Node000022_Node000023" class="edge">
<title>Node22&#45;&gt;Node23</title>
<g id="a_edge44_Node000022_Node000023"><a xlink:title=" ">
<path fill="none" stroke="#63b8ff" d="M634.31,-404C631.62,-396.44 628.34,-387.21 625.3,-378.66"/>
<polygon fill="#63b8ff" stroke="#63b8ff" points="628.29,-377.63 621.65,-369.38 621.7,-379.98 628.29,-377.63"/>
</a>
</g>
</g>
<!-- Node24 -->
<g id="Node000024" class="node">
<title>Node24</title>
<g id="a_Node000024"><a xlink:href="address_8hpp.html" target="_top" xlink:title=" ">
<polygon fill="white" stroke="#666666" points="936.25,-368.25 813.75,-368.25 813.75,-334.75 936.25,-334.75 936.25,-368.25"/>
<text text-anchor="start" x="821.75" y="-354.75" font-family="Helvetica,sans-Serif" font-size="10.00">proxsuite/linalg/veg</text>
<text text-anchor="middle" x="875" y="-342" font-family="Helvetica,sans-Serif" font-size="10.00">/memory/address.hpp</text>
</a>
</g>
</g>
<!-- Node22&#45;&gt;Node24 -->
<g id="edge49_Node000022_Node000024" class="edge">
<title>Node22&#45;&gt;Node24</title>
<g id="a_edge49_Node000022_Node000024"><a xlink:title=" ">
<path fill="none" stroke="#63b8ff" d="M696.29,-403.83C730.03,-394.14 773.11,-381.77 808.52,-371.6"/>
<polygon fill="#63b8ff" stroke="#63b8ff" points="809.12,-374.78 817.76,-368.65 807.19,-368.05 809.12,-374.78"/>
</a>
</g>
</g>
<!-- Node23&#45;&gt;Node7 -->
<g id="edge45_Node000023_Node000007" class="edge">
<title>Node23&#45;&gt;Node7</title>
<g id="a_edge45_Node000023_Node000007"><a xlink:title=" ">
<path fill="none" stroke="#63b8ff" d="M568.1,-334.33C539.87,-324.81 503.97,-312.69 474.14,-302.62"/>
<polygon fill="#63b8ff" stroke="#63b8ff" points="475.45,-299.03 464.86,-299.15 473.22,-305.67 475.45,-299.03"/>
</a>
</g>
</g>
<!-- Node23&#45;&gt;Node12 -->
<g id="edge46_Node000023_Node000012" class="edge">
<title>Node23&#45;&gt;Node12</title>
<g id="a_edge46_Node000023_Node000012"><a xlink:title=" ">
<path fill="none" stroke="#63b8ff" d="M601.24,-334.42C582.94,-315.39 549.99,-283.92 516,-265.25 468.31,-239.06 437.96,-267.22 399,-229.25 380.53,-211.25 362.03,-140.6 352.89,-101.28"/>
<polygon fill="#63b8ff" stroke="#63b8ff" points="356.1,-100.61 350.46,-91.64 349.27,-102.16 356.1,-100.61"/>
</a>
</g>
</g>
<!-- Node23&#45;&gt;Node14 -->
<g id="edge47_Node000023_Node000014" class="edge">
<title>Node23&#45;&gt;Node14</title>
<g id="a_edge47_Node000023_Node000014"><a xlink:title=" ">
<path fill="none" stroke="#63b8ff" d="M657.04,-334.39C676.63,-325.56 699.73,-313.42 718,-298.75 721.89,-295.62 829.69,-164.18 832,-159.75 841.62,-141.3 847.78,-118.53 851.44,-101.16"/>
<polygon fill="#63b8ff" stroke="#63b8ff" points="855.02,-102.12 853.5,-91.63 848.15,-100.77 855.02,-102.12"/>
</a>
</g>
</g>
<!-- Node24&#45;&gt;Node7 -->
<g id="edge50_Node000024_Node000007" class="edge">
<title>Node24&#45;&gt;Node7</title>
<g id="a_edge50_Node000024_Node000007"><a xlink:title=" ">
<path fill="none" stroke="#63b8ff" d="M813.57,-341.47C728.33,-328.93 574.61,-306.33 485.35,-293.2"/>
<polygon fill="#63b8ff" stroke="#63b8ff" points="485.93,-289.6 475.52,-291.61 484.91,-296.52 485.93,-289.6"/>
</a>
</g>
</g>
<!-- Node24&#45;&gt;Node12 -->
<g id="edge54_Node000024_Node000012" class="edge">
<title>Node24&#45;&gt;Node12</title>
<g id="a_edge54_Node000024_Node000012"><a xlink:title=" ">
<path fill="none" stroke="#63b8ff" d="M847.37,-334.38C797.3,-305.4 687.96,-243.08 593,-195.75 558.1,-178.36 546.39,-179.87 513,-159.75 492.25,-147.25 490.9,-138.5 470,-126.25 449.12,-114.02 424.8,-103.15 403.33,-94.57"/>
<polygon fill="#63b8ff" stroke="#63b8ff" points="404.95,-91.06 394.36,-90.67 402.4,-97.58 404.95,-91.06"/>
</a>
</g>
</g>
<!-- Node24&#45;&gt;Node14 -->
<g id="edge56_Node000024_Node000014" class="edge">
<title>Node24&#45;&gt;Node14</title>
<g id="a_edge56_Node000024_Node000014"><a xlink:title=" ">
<path fill="none" stroke="#63b8ff" d="M891.06,-334.34C899.35,-324.84 908.63,-312.1 913,-298.75 924.65,-263.19 949.18,-220.52 908,-126.25 903.32,-115.55 895.33,-105.87 886.99,-97.86"/>
<polygon fill="#63b8ff" stroke="#63b8ff" points="889.77,-95.77 879.98,-91.71 885.11,-100.99 889.77,-95.77"/>
</a>
</g>
</g>
<!-- Node25 -->
<g id="Node000025" class="node">
<title>Node25</title>
<g id="a_Node000025"><a xlink:href="std_8hpp.html" target="_top" xlink:title=" ">
<polygon fill="white" stroke="#666666" points="1332.38,-159.75 1219.62,-159.75 1219.62,-126.25 1332.38,-126.25 1332.38,-159.75"/>
<text text-anchor="start" x="1227.62" y="-146.25" font-family="Helvetica,sans-Serif" font-size="10.00">proxsuite/linalg/veg</text>
<text text-anchor="middle" x="1276" y="-133.5" font-family="Helvetica,sans-Serif" font-size="10.00">/internal/std.hpp</text>
</a>
</g>
</g>
<!-- Node24&#45;&gt;Node25 -->
<g id="edge51_Node000024_Node000025" class="edge">
<title>Node24&#45;&gt;Node25</title>
<g id="a_edge51_Node000024_Node000025"><a xlink:title=" ">
<path fill="none" stroke="#63b8ff" d="M906.47,-334.3C978.35,-297.28 1154.6,-206.52 1234.92,-165.16"/>
<polygon fill="#63b8ff" stroke="#63b8ff" points="1236.39,-167.82 1243.68,-160.13 1233.19,-161.6 1236.39,-167.82"/>
</a>
</g>
</g>
<!-- Node26 -->
<g id="Node000026" class="node">
<title>Node26</title>
<g id="a_Node000026"><a xlink:title=" ">
<polygon fill="#e0e0e0" stroke="#999999" points="903.62,-292.38 846.38,-292.38 846.38,-271.62 903.62,-271.62 903.62,-292.38"/>
<text text-anchor="middle" x="875" y="-278.88" font-family="Helvetica,sans-Serif" font-size="10.00">memory</text>
</a>
</g>
</g>
<!-- Node24&#45;&gt;Node26 -->
<g id="edge55_Node000024_Node000026" class="edge">
<title>Node24&#45;&gt;Node26</title>
<g id="a_edge55_Node000024_Node000026"><a xlink:title=" ">
<path fill="none" stroke="#63b8ff" d="M875,-334.5C875,-325.3 875,-313.64 875,-303.74"/>
<polygon fill="#63b8ff" stroke="#63b8ff" points="878.5,-303.82 875,-293.82 871.5,-303.82 878.5,-303.82"/>
</a>
</g>
</g>
<!-- Node25&#45;&gt;Node3 -->
<g id="edge52_Node000025_Node000003" class="edge">
<title>Node25&#45;&gt;Node3</title>
<g id="a_edge52_Node000025_Node000003"><a xlink:title=" ">
<path fill="none" stroke="#63b8ff" d="M1256.91,-125.9C1232.02,-105.91 1186.28,-72.53 1141,-56.75 1070.01,-32.01 843.71,-17.84 755.6,-13.14"/>
<polygon fill="#63b8ff" stroke="#63b8ff" points="756,-9.6 745.83,-12.58 755.63,-16.59 756,-9.6"/>
</a>
</g>
</g>
<!-- Node25&#45;&gt;Node13 -->
<g id="edge53_Node000025_Node000013" class="edge">
<title>Node25&#45;&gt;Node13</title>
<g id="a_edge53_Node000025_Node000013"><a xlink:title=" ">
<path fill="none" stroke="#63b8ff" d="M1219.34,-128.49C1175.56,-118.05 1113.44,-103.24 1059,-90.25 1054.36,-89.14 1049.54,-87.99 1044.71,-86.84"/>
<polygon fill="#63b8ff" stroke="#63b8ff" points="1045.73,-83.25 1035.19,-84.33 1044.11,-90.06 1045.73,-83.25"/>
</a>
</g>
</g>
</g>
</svg>
