<?xml version="1.0" encoding="UTF-8" standalone="no"?>
<!DOCTYPE svg PUBLIC "-//W3C//DTD SVG 1.1//EN"
 "http://www.w3.org/Graphics/SVG/1.1/DTD/svg11.dtd">
<!-- Generated by graphviz version 12.0.0 (20240803.0821)
 -->
<!-- Title: include/proxsuite/linalg/veg/internal/assert_impl.hpp Pages: 1 -->
<svg width="1412pt" height="585pt"
 viewBox="0.00 0.00 1411.93 584.75" xmlns="http://www.w3.org/2000/svg" xmlns:xlink="http://www.w3.org/1999/xlink">
<g id="graph0" class="graph" transform="scale(1 1) rotate(0) translate(4 580.75)">
<title>include/proxsuite/linalg/veg/internal/assert_impl.hpp</title>
<!-- Node1 -->
<g id="Node000001" class="node">
<title>Node1</title>
<g id="a_Node000001"><a xlink:title=" ">
<polygon fill="#999999" stroke="#666666" points="933.56,-576.75 775.06,-576.75 775.06,-543.25 933.56,-543.25 933.56,-576.75"/>
<text text-anchor="start" x="783.06" y="-563.25" font-family="Helvetica,sans-Serif" font-size="10.00">include/proxsuite/linalg</text>
<text text-anchor="middle" x="854.31" y="-550.5" font-family="Helvetica,sans-Serif" font-size="10.00">/veg/internal/assert_impl.hpp</text>
</a>
</g>
</g>
<!-- Node2 -->
<g id="Node000002" class="node">
<title>Node2</title>
<g id="a_Node000002"><a xlink:href="typedefs_8hpp.html" target="_top" xlink:title=" ">
<polygon fill="white" stroke="#666666" points="714.93,-90.25 591.68,-90.25 591.68,-56.75 714.93,-56.75 714.93,-90.25"/>
<text text-anchor="start" x="599.68" y="-76.75" font-family="Helvetica,sans-Serif" font-size="10.00">proxsuite/linalg/veg</text>
<text text-anchor="middle" x="653.31" y="-64" font-family="Helvetica,sans-Serif" font-size="10.00">/internal/typedefs.hpp</text>
</a>
</g>
</g>
<!-- Node1&#45;&gt;Node2 -->
<g id="edge1_Node000001_Node000002" class="edge">
<title>Node1&#45;&gt;Node2</title>
<g id="a_edge1_Node000001_Node000002"><a xlink:title=" ">
<path fill="none" stroke="#63b8ff" d="M774.81,-554.36C630.07,-543.72 338.31,-511.21 338.31,-422 338.31,-422 338.31,-422 338.31,-350.5 338.31,-335.91 263.76,-378.81 461.31,-265.25 553.93,-212 620.72,-250.37 677.31,-159.75 688.61,-141.65 680.61,-118.13 670.91,-100.37"/>
<polygon fill="#63b8ff" stroke="#63b8ff" points="674.03,-98.78 665.91,-91.97 668.01,-102.36 674.03,-98.78"/>
</a>
</g>
</g>
<!-- Node5 -->
<g id="Node000005" class="node">
<title>Node5</title>
<g id="a_Node000005"><a xlink:href="defer_8hpp.html" target="_top" xlink:title=" ">
<polygon fill="white" stroke="#666666" points="999.68,-507.25 886.93,-507.25 886.93,-473.75 999.68,-473.75 999.68,-507.25"/>
<text text-anchor="start" x="894.93" y="-493.75" font-family="Helvetica,sans-Serif" font-size="10.00">proxsuite/linalg/veg</text>
<text text-anchor="middle" x="943.31" y="-481" font-family="Helvetica,sans-Serif" font-size="10.00">/util/defer.hpp</text>
</a>
</g>
</g>
<!-- Node1&#45;&gt;Node5 -->
<g id="edge4_Node000001_Node000005" class="edge">
<title>Node1&#45;&gt;Node5</title>
<g id="a_edge4_Node000001_Node000005"><a xlink:title=" ">
<path fill="none" stroke="#63b8ff" d="M875.4,-543C886.62,-534.49 900.62,-523.87 912.99,-514.49"/>
<polygon fill="#63b8ff" stroke="#63b8ff" points="915,-517.36 920.85,-508.53 910.77,-511.78 915,-517.36"/>
</a>
</g>
</g>
<!-- Node12 -->
<g id="Node000012" class="node">
<title>Node12</title>
<g id="a_Node000012"><a xlink:href="prologue_8hpp.html" target="_top" xlink:title=" ">
<polygon fill="white" stroke="#666666" points="1271.93,-90.25 1148.68,-90.25 1148.68,-56.75 1271.93,-56.75 1271.93,-90.25"/>
<text text-anchor="start" x="1156.68" y="-76.75" font-family="Helvetica,sans-Serif" font-size="10.00">proxsuite/linalg/veg</text>
<text text-anchor="middle" x="1210.31" y="-64" font-family="Helvetica,sans-Serif" font-size="10.00">/internal/prologue.hpp</text>
</a>
</g>
</g>
<!-- Node1&#45;&gt;Node12 -->
<g id="edge64_Node000001_Node000012" class="edge">
<title>Node1&#45;&gt;Node12</title>
<g id="a_edge64_Node000001_Node000012"><a xlink:title=" ">
<path fill="none" stroke="#63b8ff" d="M934.04,-552.26C1068.13,-538.71 1324.31,-502.32 1324.31,-422 1324.31,-422 1324.31,-422 1324.31,-211.5 1324.31,-169.65 1311.26,-158.27 1284.31,-126.25 1274.75,-114.89 1262.14,-104.86 1250.04,-96.72"/>
<polygon fill="#63b8ff" stroke="#63b8ff" points="1252.1,-93.88 1241.79,-91.43 1248.32,-99.77 1252.1,-93.88"/>
</a>
</g>
</g>
<!-- Node15 -->
<g id="Node000015" class="node">
<title>Node15</title>
<g id="a_Node000015"><a xlink:href="epilogue_8hpp.html" target="_top" xlink:title=" ">
<polygon fill="white" stroke="#666666" points="399.56,-90.25 277.06,-90.25 277.06,-56.75 399.56,-56.75 399.56,-90.25"/>
<text text-anchor="start" x="285.06" y="-76.75" font-family="Helvetica,sans-Serif" font-size="10.00">proxsuite/linalg/veg</text>
<text text-anchor="middle" x="338.31" y="-64" font-family="Helvetica,sans-Serif" font-size="10.00">/internal/epilogue.hpp</text>
</a>
</g>
</g>
<!-- Node1&#45;&gt;Node15 -->
<g id="edge66_Node000001_Node000015" class="edge">
<title>Node1&#45;&gt;Node15</title>
<g id="a_edge66_Node000001_Node000015"><a xlink:title=" ">
<path fill="none" stroke="#63b8ff" d="M774.92,-554.53C563.41,-541.56 2.31,-499.81 2.31,-422 2.31,-422 2.31,-422 2.31,-211.5 2.31,-172.68 -6.92,-152.9 21.31,-126.25 38.84,-109.7 177.32,-91.9 265.36,-82.08"/>
<polygon fill="#63b8ff" stroke="#63b8ff" points="265.57,-85.58 275.12,-81.01 264.8,-78.62 265.57,-85.58"/>
</a>
</g>
</g>
<!-- Node19 -->
<g id="Node000019" class="node">
<title>Node19</title>
<g id="a_Node000019"><a xlink:href="internal_2dbg_8hpp.html" target="_top" xlink:title=" ">
<polygon fill="white" stroke="#666666" points="822.68,-507.25 709.93,-507.25 709.93,-473.75 822.68,-473.75 822.68,-507.25"/>
<text text-anchor="start" x="717.93" y="-493.75" font-family="Helvetica,sans-Serif" font-size="10.00">proxsuite/linalg/veg</text>
<text text-anchor="middle" x="766.31" y="-481" font-family="Helvetica,sans-Serif" font-size="10.00">/internal/dbg.hpp</text>
</a>
</g>
</g>
<!-- Node1&#45;&gt;Node19 -->
<g id="edge33_Node000001_Node000019" class="edge">
<title>Node1&#45;&gt;Node19</title>
<g id="a_edge33_Node000001_Node000019"><a xlink:title=" ">
<path fill="none" stroke="#63b8ff" d="M833.45,-543C822.35,-534.49 808.51,-523.87 796.28,-514.49"/>
<polygon fill="#63b8ff" stroke="#63b8ff" points="798.58,-511.85 788.52,-508.54 794.32,-517.4 798.58,-511.85"/>
</a>
</g>
</g>
<!-- Node30 -->
<g id="Node000030" class="node">
<title>Node30</title>
<g id="a_Node000030"><a xlink:title=" ">
<polygon fill="#e0e0e0" stroke="#999999" points="1403.93,-500.88 1352.68,-500.88 1352.68,-480.12 1403.93,-480.12 1403.93,-500.88"/>
<text text-anchor="middle" x="1378.31" y="-487.38" font-family="Helvetica,sans-Serif" font-size="10.00">cassert</text>
</a>
</g>
</g>
<!-- Node1&#45;&gt;Node30 -->
<g id="edge65_Node000001_Node000030" class="edge">
<title>Node1&#45;&gt;Node30</title>
<g id="a_edge65_Node000001_Node000030"><a xlink:title=" ">
<path fill="none" stroke="#63b8ff" d="M933.81,-557.02C1030.64,-553.12 1198.59,-541.56 1338.31,-507.25 1340.78,-506.64 1343.3,-505.92 1345.82,-505.12"/>
<polygon fill="#63b8ff" stroke="#63b8ff" points="1346.98,-508.42 1355.22,-501.76 1344.63,-501.83 1346.98,-508.42"/>
</a>
</g>
</g>
<!-- Node3 -->
<g id="Node000003" class="node">
<title>Node3</title>
<g id="a_Node000003"><a xlink:title=" ">
<polygon fill="#e0e0e0" stroke="#999999" points="548.81,-20.75 499.81,-20.75 499.81,0 548.81,0 548.81,-20.75"/>
<text text-anchor="middle" x="524.31" y="-7.25" font-family="Helvetica,sans-Serif" font-size="10.00">cstdint</text>
</a>
</g>
</g>
<!-- Node2&#45;&gt;Node3 -->
<g id="edge2_Node000002_Node000003" class="edge">
<title>Node2&#45;&gt;Node3</title>
<g id="a_edge2_Node000002_Node000003"><a xlink:title=" ">
<path fill="none" stroke="#63b8ff" d="M619.08,-56.28C599.27,-46.89 574.53,-35.17 555.3,-26.06"/>
<polygon fill="#63b8ff" stroke="#63b8ff" points="556.87,-22.93 546.34,-21.81 553.87,-29.26 556.87,-22.93"/>
</a>
</g>
</g>
<!-- Node4 -->
<g id="Node000004" class="node">
<title>Node4</title>
<g id="a_Node000004"><a xlink:title=" ">
<polygon fill="#e0e0e0" stroke="#999999" points="679.31,-20.75 627.31,-20.75 627.31,0 679.31,0 679.31,-20.75"/>
<text text-anchor="middle" x="653.31" y="-7.25" font-family="Helvetica,sans-Serif" font-size="10.00">cstddef</text>
</a>
</g>
</g>
<!-- Node2&#45;&gt;Node4 -->
<g id="edge3_Node000002_Node000004" class="edge">
<title>Node2&#45;&gt;Node4</title>
<g id="a_edge3_Node000002_Node000004"><a xlink:title=" ">
<path fill="none" stroke="#63b8ff" d="M653.31,-56.44C653.31,-49.1 653.31,-40.32 653.31,-32.46"/>
<polygon fill="#63b8ff" stroke="#63b8ff" points="656.81,-32.73 653.31,-22.73 649.81,-32.73 656.81,-32.73"/>
</a>
</g>
</g>
<!-- Node6 -->
<g id="Node000006" class="node">
<title>Node6</title>
<g id="a_Node000006"><a xlink:href="constructible_8hpp.html" target="_top" xlink:title=" ">
<polygon fill="white" stroke="#666666" points="1159.56,-368.25 1001.06,-368.25 1001.06,-334.75 1159.56,-334.75 1159.56,-368.25"/>
<text text-anchor="start" x="1009.06" y="-354.75" font-family="Helvetica,sans-Serif" font-size="10.00">proxsuite/linalg/veg</text>
<text text-anchor="middle" x="1080.31" y="-342" font-family="Helvetica,sans-Serif" font-size="10.00">/type_traits/constructible.hpp</text>
</a>
</g>
</g>
<!-- Node5&#45;&gt;Node6 -->
<g id="edge5_Node000005_Node000006" class="edge">
<title>Node5&#45;&gt;Node6</title>
<g id="a_edge5_Node000005_Node000006"><a xlink:title=" ">
<path fill="none" stroke="#63b8ff" d="M1000.08,-474.46C1020.33,-466.54 1041.72,-454.8 1056.31,-437.75 1070.1,-421.63 1076,-398.13 1078.5,-379.88"/>
<polygon fill="#63b8ff" stroke="#63b8ff" points="1081.97,-380.33 1079.57,-370.01 1075.01,-379.58 1081.97,-380.33"/>
</a>
</g>
</g>
<!-- Node5&#45;&gt;Node12 -->
<g id="edge31_Node000005_Node000012" class="edge">
<title>Node5&#45;&gt;Node12</title>
<g id="a_edge31_Node000005_Node000012"><a xlink:title=" ">
<path fill="none" stroke="#63b8ff" d="M999.98,-487.47C1081.04,-483.4 1224.47,-471.51 1262.31,-437.75 1291.67,-411.54 1286.31,-391.86 1286.31,-352.5 1286.31,-352.5 1286.31,-352.5 1286.31,-211.5 1286.31,-172.14 1282.24,-160.19 1262.31,-126.25 1256.31,-116.04 1247.8,-106.41 1239.41,-98.3"/>
<polygon fill="#63b8ff" stroke="#63b8ff" points="1242,-95.93 1232.26,-91.75 1237.27,-101.09 1242,-95.93"/>
</a>
</g>
</g>
<!-- Node5&#45;&gt;Node15 -->
<g id="edge32_Node000005_Node000015" class="edge">
<title>Node5&#45;&gt;Node15</title>
<g id="a_edge32_Node000005_Node000015"><a xlink:title=" ">
<path fill="none" stroke="#63b8ff" d="M886.63,-481.43C868.92,-478.94 849.3,-476.2 831.31,-473.75 567.03,-437.74 262.31,-549.72 262.31,-283 262.31,-283 262.31,-283 262.31,-211.5 262.31,-167.7 292.37,-124.8 314.68,-99"/>
<polygon fill="#63b8ff" stroke="#63b8ff" points="317.12,-101.52 321.18,-91.74 311.9,-96.86 317.12,-101.52"/>
</a>
</g>
</g>
<!-- Node18 -->
<g id="Node000018" class="node">
<title>Node18</title>
<g id="a_Node000018"><a xlink:href="invocable_8hpp.html" target="_top" xlink:title=" ">
<polygon fill="white" stroke="#666666" points="1014.68,-437.75 871.93,-437.75 871.93,-404.25 1014.68,-404.25 1014.68,-437.75"/>
<text text-anchor="start" x="879.93" y="-424.25" font-family="Helvetica,sans-Serif" font-size="10.00">proxsuite/linalg/veg</text>
<text text-anchor="middle" x="943.31" y="-411.5" font-family="Helvetica,sans-Serif" font-size="10.00">/type_traits/invocable.hpp</text>
</a>
</g>
</g>
<!-- Node5&#45;&gt;Node18 -->
<g id="edge26_Node000005_Node000018" class="edge">
<title>Node5&#45;&gt;Node18</title>
<g id="a_edge26_Node000005_Node000018"><a xlink:title=" ">
<path fill="none" stroke="#63b8ff" d="M943.31,-473.5C943.31,-466.27 943.31,-457.53 943.31,-449.31"/>
<polygon fill="#63b8ff" stroke="#63b8ff" points="946.81,-449.4 943.31,-439.4 939.81,-449.4 946.81,-449.4"/>
</a>
</g>
</g>
<!-- Node7 -->
<g id="Node000007" class="node">
<title>Node7</title>
<g id="a_Node000007"><a xlink:href="veg_2type__traits_2core_8hpp.html" target="_top" xlink:title=" ">
<polygon fill="white" stroke="#666666" points="829.56,-298.75 713.06,-298.75 713.06,-265.25 829.56,-265.25 829.56,-298.75"/>
<text text-anchor="start" x="721.06" y="-285.25" font-family="Helvetica,sans-Serif" font-size="10.00">proxsuite/linalg/veg</text>
<text text-anchor="middle" x="771.31" y="-272.5" font-family="Helvetica,sans-Serif" font-size="10.00">/type_traits/core.hpp</text>
</a>
</g>
</g>
<!-- Node6&#45;&gt;Node7 -->
<g id="edge6_Node000006_Node000007" class="edge">
<title>Node6&#45;&gt;Node7</title>
<g id="a_edge6_Node000006_Node000007"><a xlink:title=" ">
<path fill="none" stroke="#63b8ff" d="M1006.29,-334.33C956.1,-323.37 890.19,-308.97 840.95,-298.21"/>
<polygon fill="#63b8ff" stroke="#63b8ff" points="841.76,-294.81 831.24,-296.09 840.26,-301.65 841.76,-294.81"/>
</a>
</g>
</g>
<!-- Node6&#45;&gt;Node12 -->
<g id="edge22_Node000006_Node000012" class="edge">
<title>Node6&#45;&gt;Node12</title>
<g id="a_edge22_Node000006_Node000012"><a xlink:title=" ">
<path fill="none" stroke="#63b8ff" d="M1112.81,-334.35C1127.2,-325.65 1143.14,-313.63 1153.31,-298.75 1197.87,-233.5 1176.43,-202.72 1196.31,-126.25 1198.41,-118.14 1200.77,-109.33 1202.94,-101.32"/>
<polygon fill="#63b8ff" stroke="#63b8ff" points="1206.29,-102.36 1205.54,-91.79 1199.53,-100.52 1206.29,-102.36"/>
</a>
</g>
</g>
<!-- Node6&#45;&gt;Node15 -->
<g id="edge25_Node000006_Node000015" class="edge">
<title>Node6&#45;&gt;Node15</title>
<g id="a_edge25_Node000006_Node000015"><a xlink:title=" ">
<path fill="none" stroke="#63b8ff" d="M1081.73,-334.34C1082.48,-314.92 1080.42,-282.77 1061.31,-265.25 1016.69,-224.34 850.8,-240.39 791.31,-229.25 726.81,-217.17 562.51,-190.06 504.31,-159.75 484.34,-149.35 485.46,-138.08 466.31,-126.25 445.9,-113.64 421.88,-102.98 400.2,-94.67"/>
<polygon fill="#63b8ff" stroke="#63b8ff" points="401.45,-91.4 390.85,-91.19 399,-97.96 401.45,-91.4"/>
</a>
</g>
</g>
<!-- Node16 -->
<g id="Node000016" class="node">
<title>Node16</title>
<g id="a_Node000016"><a xlink:title=" ">
<polygon fill="#e0e0e0" stroke="#999999" points="1144.43,-292.38 1108.18,-292.38 1108.18,-271.62 1144.43,-271.62 1144.43,-292.38"/>
<text text-anchor="middle" x="1126.31" y="-278.88" font-family="Helvetica,sans-Serif" font-size="10.00">new</text>
</a>
</g>
</g>
<!-- Node6&#45;&gt;Node16 -->
<g id="edge23_Node000006_Node000016" class="edge">
<title>Node6&#45;&gt;Node16</title>
<g id="a_edge23_Node000006_Node000016"><a xlink:title=" ">
<path fill="none" stroke="#63b8ff" d="M1091.21,-334.5C1097.82,-324.8 1106.31,-312.35 1113.27,-302.12"/>
<polygon fill="#63b8ff" stroke="#63b8ff" points="1116.02,-304.31 1118.76,-294.07 1110.24,-300.37 1116.02,-304.31"/>
</a>
</g>
</g>
<!-- Node17 -->
<g id="Node000017" class="node">
<title>Node17</title>
<g id="a_Node000017"><a xlink:title=" ">
<polygon fill="#e0e0e0" stroke="#999999" points="1052.56,-292.38 984.06,-292.38 984.06,-271.62 1052.56,-271.62 1052.56,-292.38"/>
<text text-anchor="middle" x="1018.31" y="-278.88" font-family="Helvetica,sans-Serif" font-size="10.00">type_traits</text>
</a>
</g>
</g>
<!-- Node6&#45;&gt;Node17 -->
<g id="edge24_Node000006_Node000017" class="edge">
<title>Node6&#45;&gt;Node17</title>
<g id="a_edge24_Node000006_Node000017"><a xlink:title=" ">
<path fill="none" stroke="#63b8ff" d="M1065.61,-334.5C1056.42,-324.49 1044.55,-311.57 1035,-301.17"/>
<polygon fill="#63b8ff" stroke="#63b8ff" points="1037.69,-298.93 1028.35,-293.94 1032.54,-303.67 1037.69,-298.93"/>
</a>
</g>
</g>
<!-- Node7&#45;&gt;Node2 -->
<g id="edge7_Node000007_Node000002" class="edge">
<title>Node7&#45;&gt;Node2</title>
<g id="a_edge7_Node000007_Node000002"><a xlink:title=" ">
<path fill="none" stroke="#63b8ff" d="M767.57,-264.91C760.18,-235.44 741.66,-171.63 710.31,-126.25 703.17,-115.92 693.59,-106.2 684.32,-98.03"/>
<polygon fill="#63b8ff" stroke="#63b8ff" points="686.69,-95.45 676.79,-91.69 682.18,-100.8 686.69,-95.45"/>
</a>
</g>
</g>
<!-- Node8 -->
<g id="Node000008" class="node">
<title>Node8</title>
<g id="a_Node000008"><a xlink:href="integer__seq_8hpp.html" target="_top" xlink:title=" ">
<polygon fill="white" stroke="#666666" points="938.06,-229.25 800.56,-229.25 800.56,-195.75 938.06,-195.75 938.06,-229.25"/>
<text text-anchor="start" x="808.56" y="-215.75" font-family="Helvetica,sans-Serif" font-size="10.00">proxsuite/linalg/veg</text>
<text text-anchor="middle" x="869.31" y="-203" font-family="Helvetica,sans-Serif" font-size="10.00">/internal/integer_seq.hpp</text>
</a>
</g>
</g>
<!-- Node7&#45;&gt;Node8 -->
<g id="edge8_Node000007_Node000008" class="edge">
<title>Node7&#45;&gt;Node8</title>
<g id="a_edge8_Node000007_Node000008"><a xlink:title=" ">
<path fill="none" stroke="#63b8ff" d="M794.53,-265C807.13,-256.32 822.91,-245.46 836.72,-235.94"/>
<polygon fill="#63b8ff" stroke="#63b8ff" points="838.41,-239.03 844.66,-230.47 834.44,-233.26 838.41,-239.03"/>
</a>
</g>
</g>
<!-- Node7&#45;&gt;Node12 -->
<g id="edge20_Node000007_Node000012" class="edge">
<title>Node7&#45;&gt;Node12</title>
<g id="a_edge20_Node000007_Node000012"><a xlink:title=" ">
<path fill="none" stroke="#63b8ff" d="M829.81,-269.6C889.67,-257.54 975.66,-238.93 988.31,-229.25 1029.68,-197.57 1004.04,-159.32 1044.31,-126.25 1059.12,-114.09 1100.07,-101.26 1137.59,-91.42"/>
<polygon fill="#63b8ff" stroke="#63b8ff" points="1138.29,-94.85 1147.11,-88.97 1136.55,-88.07 1138.29,-94.85"/>
</a>
</g>
</g>
<!-- Node7&#45;&gt;Node15 -->
<g id="edge21_Node000007_Node000015" class="edge">
<title>Node7&#45;&gt;Node15</title>
<g id="a_edge21_Node000007_Node000015"><a xlink:title=" ">
<path fill="none" stroke="#63b8ff" d="M732.02,-264.79C690.39,-247.62 622.73,-219.73 564.31,-195.75 525.21,-179.7 513.41,-179.97 476.31,-159.75 453.46,-147.3 450.27,-140.19 428.31,-126.25 412.08,-115.95 393.75,-105.25 377.89,-96.27"/>
<polygon fill="#63b8ff" stroke="#63b8ff" points="379.63,-93.23 369.19,-91.38 376.2,-99.33 379.63,-93.23"/>
</a>
</g>
</g>
<!-- Node8&#45;&gt;Node2 -->
<g id="edge9_Node000008_Node000002" class="edge">
<title>Node8&#45;&gt;Node2</title>
<g id="a_edge9_Node000008_Node000002"><a xlink:title=" ">
<path fill="none" stroke="#63b8ff" d="M844.04,-195.43C828.61,-185.45 808.59,-172.19 791.31,-159.75 771.64,-145.6 768.57,-139.53 748.31,-126.25 731.79,-115.42 712.81,-104.75 696.18,-95.95"/>
<polygon fill="#63b8ff" stroke="#63b8ff" points="697.99,-92.95 687.51,-91.42 694.75,-99.15 697.99,-92.95"/>
</a>
</g>
</g>
<!-- Node9 -->
<g id="Node000009" class="node">
<title>Node9</title>
<g id="a_Node000009"><a xlink:href="macros_8hpp.html" target="_top" xlink:title=" ">
<polygon fill="white" stroke="#666666" points="916.56,-159.75 800.06,-159.75 800.06,-126.25 916.56,-126.25 916.56,-159.75"/>
<text text-anchor="start" x="808.06" y="-146.25" font-family="Helvetica,sans-Serif" font-size="10.00">proxsuite/linalg/veg</text>
<text text-anchor="middle" x="858.31" y="-133.5" font-family="Helvetica,sans-Serif" font-size="10.00">/internal/macros.hpp</text>
</a>
</g>
</g>
<!-- Node8&#45;&gt;Node9 -->
<g id="edge10_Node000008_Node000009" class="edge">
<title>Node8&#45;&gt;Node9</title>
<g id="a_edge10_Node000008_Node000009"><a xlink:title=" ">
<path fill="none" stroke="#63b8ff" d="M866.7,-195.5C865.51,-188.19 864.06,-179.32 862.71,-171.02"/>
<polygon fill="#63b8ff" stroke="#63b8ff" points="866.2,-170.68 861.14,-161.38 859.29,-171.81 866.2,-170.68"/>
</a>
</g>
</g>
<!-- Node8&#45;&gt;Node12 -->
<g id="edge18_Node000008_Node000012" class="edge">
<title>Node8&#45;&gt;Node12</title>
<g id="a_edge18_Node000008_Node000012"><a xlink:title=" ">
<path fill="none" stroke="#63b8ff" d="M887.02,-195.4C912.92,-171.98 959.06,-130.82 968.31,-126.25 1034.8,-93.37 1061.02,-105.43 1137.26,-90.57"/>
<polygon fill="#63b8ff" stroke="#63b8ff" points="1137.79,-94.03 1146.88,-88.59 1136.38,-87.17 1137.79,-94.03"/>
</a>
</g>
</g>
<!-- Node8&#45;&gt;Node15 -->
<g id="edge19_Node000008_Node000015" class="edge">
<title>Node8&#45;&gt;Node15</title>
<g id="a_edge19_Node000008_Node000015"><a xlink:title=" ">
<path fill="none" stroke="#63b8ff" d="M800.5,-198.23C795.7,-197.37 790.93,-196.54 786.31,-195.75 680.41,-177.73 646.01,-202.14 547.31,-159.75 525.05,-150.19 525.77,-137.48 504.31,-126.25 475.12,-110.98 440.67,-99.33 410.73,-90.98"/>
<polygon fill="#63b8ff" stroke="#63b8ff" points="411.95,-87.69 401.38,-88.45 410.12,-94.44 411.95,-87.69"/>
</a>
</g>
</g>
<!-- Node9&#45;&gt;Node2 -->
<g id="edge12_Node000009_Node000002" class="edge">
<title>Node9&#45;&gt;Node2</title>
<g id="a_edge12_Node000009_Node000002"><a xlink:title=" ">
<path fill="none" stroke="#63b8ff" d="M809.2,-125.83C780.4,-116.35 743.8,-104.3 713.3,-94.25"/>
<polygon fill="#63b8ff" stroke="#63b8ff" points="714.39,-90.93 703.8,-91.13 712.2,-97.58 714.39,-90.93"/>
</a>
</g>
</g>
<!-- Node10 -->
<g id="Node000010" class="node">
<title>Node10</title>
<g id="a_Node000010"><a xlink:href="hedley_8ext_8hpp.html" target="_top" xlink:title=" ">
<polygon fill="white" stroke="#666666" points="1130.43,-90.25 956.18,-90.25 956.18,-56.75 1130.43,-56.75 1130.43,-90.25"/>
<text text-anchor="start" x="964.18" y="-76.75" font-family="Helvetica,sans-Serif" font-size="10.00">proxsuite/linalg/veg</text>
<text text-anchor="middle" x="1043.31" y="-64" font-family="Helvetica,sans-Serif" font-size="10.00">/internal/external/hedley.ext.hpp</text>
</a>
</g>
</g>
<!-- Node9&#45;&gt;Node10 -->
<g id="edge11_Node000009_Node000010" class="edge">
<title>Node9&#45;&gt;Node10</title>
<g id="a_edge11_Node000009_Node000010"><a xlink:title=" ">
<path fill="none" stroke="#63b8ff" d="M902.62,-125.83C928.38,-116.43 961.06,-104.51 988.44,-94.52"/>
<polygon fill="#63b8ff" stroke="#63b8ff" points="989.42,-97.89 997.61,-91.17 987.02,-91.31 989.42,-97.89"/>
</a>
</g>
</g>
<!-- Node11 -->
<g id="Node000011" class="node">
<title>Node11</title>
<g id="a_Node000011"><a xlink:href="preprocessor_8hpp.html" target="_top" xlink:title=" ">
<polygon fill="white" stroke="#666666" points="875.68,-90.25 732.93,-90.25 732.93,-56.75 875.68,-56.75 875.68,-90.25"/>
<text text-anchor="start" x="740.93" y="-76.75" font-family="Helvetica,sans-Serif" font-size="10.00">proxsuite/linalg/veg</text>
<text text-anchor="middle" x="804.31" y="-64" font-family="Helvetica,sans-Serif" font-size="10.00">/internal/preprocessor.hpp</text>
</a>
</g>
</g>
<!-- Node9&#45;&gt;Node11 -->
<g id="edge13_Node000009_Node000011" class="edge">
<title>Node9&#45;&gt;Node11</title>
<g id="a_edge13_Node000009_Node000011"><a xlink:title=" ">
<path fill="none" stroke="#63b8ff" d="M845.51,-126C839.12,-118.02 831.25,-108.18 824.1,-99.25"/>
<polygon fill="#63b8ff" stroke="#63b8ff" points="826.94,-97.19 817.96,-91.56 821.47,-101.56 826.94,-97.19"/>
</a>
</g>
</g>
<!-- Node9&#45;&gt;Node12 -->
<g id="edge14_Node000009_Node000012" class="edge">
<title>Node9&#45;&gt;Node12</title>
<g id="a_edge14_Node000009_Node000012"><a xlink:title=" ">
<path fill="none" stroke="#63b8ff" d="M916.81,-128.97C921.37,-128.03 925.91,-127.11 930.31,-126.25 1019.29,-108.86 1044.9,-108.47 1137.11,-90.62"/>
<polygon fill="#63b8ff" stroke="#63b8ff" points="1137.76,-94.06 1146.9,-88.71 1136.42,-87.19 1137.76,-94.06"/>
</a>
</g>
</g>
<!-- Node13 -->
<g id="Node000013" class="node">
<title>Node13</title>
<g id="a_Node000013"><a xlink:title=" ">
<polygon fill="#e0e0e0" stroke="#999999" points="573.31,-83.88 491.31,-83.88 491.31,-63.12 573.31,-63.12 573.31,-83.88"/>
<text text-anchor="middle" x="532.31" y="-70.38" font-family="Helvetica,sans-Serif" font-size="10.00">initializer_list</text>
</a>
</g>
</g>
<!-- Node9&#45;&gt;Node13 -->
<g id="edge15_Node000009_Node000013" class="edge">
<title>Node9&#45;&gt;Node13</title>
<g id="a_edge15_Node000009_Node000013"><a xlink:title=" ">
<path fill="none" stroke="#63b8ff" d="M799.71,-133.11C743.54,-124.09 656.56,-108.83 582.31,-90.25 579.01,-89.43 575.62,-88.51 572.22,-87.54"/>
<polygon fill="#63b8ff" stroke="#63b8ff" points="573.52,-84.27 562.94,-84.77 571.52,-90.98 573.52,-84.27"/>
</a>
</g>
</g>
<!-- Node14 -->
<g id="Node000014" class="node">
<title>Node14</title>
<g id="a_Node000014"><a xlink:title=" ">
<polygon fill="#e0e0e0" stroke="#999999" points="938.56,-83.88 894.06,-83.88 894.06,-63.12 938.56,-63.12 938.56,-83.88"/>
<text text-anchor="middle" x="916.31" y="-70.38" font-family="Helvetica,sans-Serif" font-size="10.00">utility</text>
</a>
</g>
</g>
<!-- Node9&#45;&gt;Node14 -->
<g id="edge16_Node000009_Node000014" class="edge">
<title>Node9&#45;&gt;Node14</title>
<g id="a_edge16_Node000009_Node000014"><a xlink:title=" ">
<path fill="none" stroke="#63b8ff" d="M872.05,-126C880.57,-116.09 891.53,-103.33 900.42,-92.99"/>
<polygon fill="#63b8ff" stroke="#63b8ff" points="903.02,-95.34 906.88,-85.47 897.71,-90.77 903.02,-95.34"/>
</a>
</g>
</g>
<!-- Node9&#45;&gt;Node15 -->
<g id="edge17_Node000009_Node000015" class="edge">
<title>Node9&#45;&gt;Node15</title>
<g id="a_edge17_Node000009_Node000015"><a xlink:title=" ">
<path fill="none" stroke="#63b8ff" d="M799.67,-134.39C704.17,-121.99 515.3,-97.48 411.28,-83.97"/>
<polygon fill="#63b8ff" stroke="#63b8ff" points="411.82,-80.51 401.45,-82.7 410.92,-87.45 411.82,-80.51"/>
</a>
</g>
</g>
<!-- Node18&#45;&gt;Node6 -->
<g id="edge28_Node000018_Node000006" class="edge">
<title>Node18&#45;&gt;Node6</title>
<g id="a_edge28_Node000018_Node000006"><a xlink:title=" ">
<path fill="none" stroke="#63b8ff" d="M976.12,-403.83C994.51,-394.77 1017.65,-383.37 1037.45,-373.61"/>
<polygon fill="#63b8ff" stroke="#63b8ff" points="1038.98,-376.76 1046.4,-369.2 1035.88,-370.49 1038.98,-376.76"/>
</a>
</g>
</g>
<!-- Node18&#45;&gt;Node7 -->
<g id="edge27_Node000018_Node000007" class="edge">
<title>Node18&#45;&gt;Node7</title>
<g id="a_edge27_Node000018_Node000007"><a xlink:title=" ">
<path fill="none" stroke="#63b8ff" d="M892.5,-403.84C871.43,-395.47 847.68,-383.72 829.31,-368.25 809.96,-351.96 794.3,-327.69 784.16,-309.21"/>
<polygon fill="#63b8ff" stroke="#63b8ff" points="787.29,-307.65 779.54,-300.43 781.1,-310.91 787.29,-307.65"/>
</a>
</g>
</g>
<!-- Node18&#45;&gt;Node12 -->
<g id="edge29_Node000018_Node000012" class="edge">
<title>Node18&#45;&gt;Node12</title>
<g id="a_edge29_Node000018_Node000012"><a xlink:title=" ">
<path fill="none" stroke="#63b8ff" d="M1015.01,-419.03C1062.94,-414.94 1124.93,-402.58 1168.31,-368.25 1201.43,-342.04 1210.31,-325.24 1210.31,-283 1210.31,-283 1210.31,-283 1210.31,-211.5 1210.31,-173.55 1210.31,-129.68 1210.31,-102.02"/>
<polygon fill="#63b8ff" stroke="#63b8ff" points="1213.81,-102.04 1210.31,-92.04 1206.81,-102.04 1213.81,-102.04"/>
</a>
</g>
</g>
<!-- Node18&#45;&gt;Node15 -->
<g id="edge30_Node000018_Node000015" class="edge">
<title>Node18&#45;&gt;Node15</title>
<g id="a_edge30_Node000018_Node000015"><a xlink:title=" ">
<path fill="none" stroke="#63b8ff" d="M871.83,-405.62C868.95,-405.14 866.1,-404.68 863.31,-404.25 721.42,-382.37 671.78,-430.27 542.31,-368.25 487.49,-341.99 392.05,-214.33 365.31,-159.75 356.15,-141.06 349.18,-118.57 344.62,-101.38"/>
<polygon fill="#63b8ff" stroke="#63b8ff" points="348.06,-100.74 342.22,-91.9 341.28,-102.46 348.06,-100.74"/>
</a>
</g>
</g>
<!-- Node19&#45;&gt;Node6 -->
<g id="edge43_Node000019_Node000006" class="edge">
<title>Node19&#45;&gt;Node6</title>
<g id="a_edge43_Node000019_Node000006"><a xlink:title=" ">
<path fill="none" stroke="#63b8ff" d="M823.15,-480.41C893.72,-468.77 1006.83,-448.78 1023.31,-437.75 1044.68,-423.44 1060.08,-398.14 1069.44,-378.8"/>
<polygon fill="#63b8ff" stroke="#63b8ff" points="1072.54,-380.44 1073.51,-369.89 1066.18,-377.53 1072.54,-380.44"/>
</a>
</g>
</g>
<!-- Node19&#45;&gt;Node12 -->
<g id="edge60_Node000019_Node000012" class="edge">
<title>Node19&#45;&gt;Node12</title>
<g id="a_edge60_Node000019_Node000012"><a xlink:title=" ">
<path fill="none" stroke="#63b8ff" d="M822.91,-480.85C893.61,-469.77 1010.36,-450.48 1052.31,-437.75 1143.21,-410.16 1248.31,-447.49 1248.31,-352.5 1248.31,-352.5 1248.31,-352.5 1248.31,-211.5 1248.31,-171.98 1233.44,-128.3 1222.3,-101.12"/>
<polygon fill="#63b8ff" stroke="#63b8ff" points="1225.54,-99.78 1218.41,-91.94 1219.09,-102.51 1225.54,-99.78"/>
</a>
</g>
</g>
<!-- Node19&#45;&gt;Node15 -->
<g id="edge63_Node000019_Node000015" class="edge">
<title>Node19&#45;&gt;Node15</title>
<g id="a_edge63_Node000019_Node000015"><a xlink:title=" ">
<path fill="none" stroke="#63b8ff" d="M709.64,-488.1C563.69,-482.95 186.31,-459.33 186.31,-352.5 186.31,-352.5 186.31,-352.5 186.31,-211.5 186.31,-169.06 198.94,-155.9 229.31,-126.25 242.65,-113.22 259.89,-103 276.71,-95.2"/>
<polygon fill="#63b8ff" stroke="#63b8ff" points="277.95,-98.48 285.7,-91.26 275.14,-92.07 277.95,-98.48"/>
</a>
</g>
</g>
<!-- Node20 -->
<g id="Node000020" class="node">
<title>Node20</title>
<g id="a_Node000020"><a xlink:href="primitives_8hpp.html" target="_top" xlink:title=" ">
<polygon fill="white" stroke="#666666" points="982.81,-368.25 837.81,-368.25 837.81,-334.75 982.81,-334.75 982.81,-368.25"/>
<text text-anchor="start" x="845.81" y="-354.75" font-family="Helvetica,sans-Serif" font-size="10.00">proxsuite/linalg/veg</text>
<text text-anchor="middle" x="910.31" y="-342" font-family="Helvetica,sans-Serif" font-size="10.00">/type_traits/primitives.hpp</text>
</a>
</g>
</g>
<!-- Node19&#45;&gt;Node20 -->
<g id="edge34_Node000019_Node000020" class="edge">
<title>Node19&#45;&gt;Node20</title>
<g id="a_edge34_Node000019_Node000020"><a xlink:title=" ">
<path fill="none" stroke="#63b8ff" d="M751.35,-473.44C736.3,-455.27 717.41,-425.46 733.31,-404.25 739.59,-395.87 785.73,-382.52 829.32,-371.49"/>
<polygon fill="#63b8ff" stroke="#63b8ff" points="830,-374.93 838.85,-369.1 828.3,-368.13 830,-374.93"/>
</a>
</g>
</g>
<!-- Node21 -->
<g id="Node000021" class="node">
<title>Node21</title>
<g id="a_Node000021"><a xlink:href="terminate_8hpp.html" target="_top" xlink:title=" ">
<polygon fill="white" stroke="#666666" points="158.56,-159.75 30.06,-159.75 30.06,-126.25 158.56,-126.25 158.56,-159.75"/>
<text text-anchor="start" x="38.06" y="-146.25" font-family="Helvetica,sans-Serif" font-size="10.00">proxsuite/linalg/veg</text>
<text text-anchor="middle" x="94.31" y="-133.5" font-family="Helvetica,sans-Serif" font-size="10.00">/internal/terminate.hpp</text>
</a>
</g>
</g>
<!-- Node19&#45;&gt;Node21 -->
<g id="edge39_Node000019_Node000021" class="edge">
<title>Node19&#45;&gt;Node21</title>
<g id="a_edge39_Node000019_Node000021"><a xlink:title=" ">
<path fill="none" stroke="#63b8ff" d="M709.56,-487.48C569.83,-482.09 217.19,-465.85 172.31,-437.75 134.88,-414.32 121.31,-396.65 121.31,-352.5 121.31,-352.5 121.31,-352.5 121.31,-281 121.31,-242.18 110.74,-198.33 102.83,-170.92"/>
<polygon fill="#63b8ff" stroke="#63b8ff" points="106.29,-170.27 100.07,-161.69 99.58,-172.28 106.29,-170.27"/>
</a>
</g>
</g>
<!-- Node23 -->
<g id="Node000023" class="node">
<title>Node23</title>
<g id="a_Node000023"><a xlink:href="ref_8hpp.html" target="_top" xlink:title=" ">
<polygon fill="white" stroke="#666666" points="679.68,-437.75 566.93,-437.75 566.93,-404.25 679.68,-404.25 679.68,-437.75"/>
<text text-anchor="start" x="574.93" y="-424.25" font-family="Helvetica,sans-Serif" font-size="10.00">proxsuite/linalg/veg</text>
<text text-anchor="middle" x="623.31" y="-411.5" font-family="Helvetica,sans-Serif" font-size="10.00">/ref.hpp</text>
</a>
</g>
</g>
<!-- Node19&#45;&gt;Node23 -->
<g id="edge44_Node000019_Node000023" class="edge">
<title>Node19&#45;&gt;Node23</title>
<g id="a_edge44_Node000019_Node000023"><a xlink:title=" ">
<path fill="none" stroke="#63b8ff" d="M732.05,-473.33C712.69,-464.19 688.26,-452.66 667.47,-442.84"/>
<polygon fill="#63b8ff" stroke="#63b8ff" points="669.19,-439.79 658.65,-438.68 666.2,-446.12 669.19,-439.79"/>
</a>
</g>
</g>
<!-- Node28 -->
<g id="Node000028" class="node">
<title>Node28</title>
<g id="a_Node000028"><a xlink:title=" ">
<polygon fill="#e0e0e0" stroke="#999999" points="790.81,-431.38 741.81,-431.38 741.81,-410.62 790.81,-410.62 790.81,-431.38"/>
<text text-anchor="middle" x="766.31" y="-417.88" font-family="Helvetica,sans-Serif" font-size="10.00">cstring</text>
</a>
</g>
</g>
<!-- Node19&#45;&gt;Node28 -->
<g id="edge61_Node000019_Node000028" class="edge">
<title>Node19&#45;&gt;Node28</title>
<g id="a_edge61_Node000019_Node000028"><a xlink:title=" ">
<path fill="none" stroke="#63b8ff" d="M766.31,-473.5C766.31,-464.4 766.31,-452.89 766.31,-443.07"/>
<polygon fill="#63b8ff" stroke="#63b8ff" points="769.81,-443.34 766.31,-433.34 762.81,-443.34 769.81,-443.34"/>
</a>
</g>
</g>
<!-- Node29 -->
<g id="Node000029" class="node">
<title>Node29</title>
<g id="a_Node000029"><a xlink:title=" ">
<polygon fill="#e0e0e0" stroke="#999999" points="853.93,-431.38 808.68,-431.38 808.68,-410.62 853.93,-410.62 853.93,-431.38"/>
<text text-anchor="middle" x="831.31" y="-417.88" font-family="Helvetica,sans-Serif" font-size="10.00">cstdio</text>
</a>
</g>
</g>
<!-- Node19&#45;&gt;Node29 -->
<g id="edge62_Node000019_Node000029" class="edge">
<title>Node19&#45;&gt;Node29</title>
<g id="a_edge62_Node000019_Node000029"><a xlink:title=" ">
<path fill="none" stroke="#63b8ff" d="M781.71,-473.5C791.45,-463.39 804.05,-450.31 814.11,-439.86"/>
<polygon fill="#63b8ff" stroke="#63b8ff" points="816.38,-442.54 820.8,-432.91 811.34,-437.69 816.38,-442.54"/>
</a>
</g>
</g>
<!-- Node20&#45;&gt;Node7 -->
<g id="edge35_Node000020_Node000007" class="edge">
<title>Node20&#45;&gt;Node7</title>
<g id="a_edge35_Node000020_Node000007"><a xlink:title=" ">
<path fill="none" stroke="#63b8ff" d="M877.01,-334.33C858.27,-325.23 834.66,-313.77 814.51,-303.98"/>
<polygon fill="#63b8ff" stroke="#63b8ff" points="816.21,-300.92 805.69,-299.7 813.16,-307.21 816.21,-300.92"/>
</a>
</g>
</g>
<!-- Node20&#45;&gt;Node12 -->
<g id="edge36_Node000020_Node000012" class="edge">
<title>Node20&#45;&gt;Node12</title>
<g id="a_edge36_Node000020_Node000012"><a xlink:title=" ">
<path fill="none" stroke="#63b8ff" d="M918.3,-334.4C928.74,-315.05 948.86,-282.96 975.31,-265.25 1026.91,-230.7 1060.09,-265.78 1110.31,-229.25 1134.06,-211.97 1175.2,-139.84 1196.56,-100.45"/>
<polygon fill="#63b8ff" stroke="#63b8ff" points="1199.53,-102.3 1201.18,-91.84 1193.37,-98.99 1199.53,-102.3"/>
</a>
</g>
</g>
<!-- Node20&#45;&gt;Node15 -->
<g id="edge38_Node000020_Node000015" class="edge">
<title>Node20&#45;&gt;Node15</title>
<g id="a_edge38_Node000020_Node000015"><a xlink:title=" ">
<path fill="none" stroke="#63b8ff" d="M837.66,-336.25C797.68,-327.42 747.55,-314.7 704.31,-298.75 575.45,-251.21 540.46,-239.03 428.31,-159.75 424.69,-157.2 388.6,-122.76 363.24,-98.45"/>
<polygon fill="#63b8ff" stroke="#63b8ff" points="365.84,-96.09 356.2,-91.7 360.99,-101.15 365.84,-96.09"/>
</a>
</g>
</g>
<!-- Node20&#45;&gt;Node17 -->
<g id="edge37_Node000020_Node000017" class="edge">
<title>Node20&#45;&gt;Node17</title>
<g id="a_edge37_Node000020_Node000017"><a xlink:title=" ">
<path fill="none" stroke="#63b8ff" d="M936.18,-334.33C953.49,-323.51 976.17,-309.34 993.31,-298.63"/>
<polygon fill="#63b8ff" stroke="#63b8ff" points="994.76,-301.84 1001.39,-293.57 991.05,-295.91 994.76,-301.84"/>
</a>
</g>
</g>
<!-- Node21&#45;&gt;Node12 -->
<g id="edge40_Node000021_Node000012" class="edge">
<title>Node21&#45;&gt;Node12</title>
<g id="a_edge40_Node000021_Node000012"><a xlink:title=" ">
<path fill="none" stroke="#63b8ff" d="M158.69,-139.45C364.8,-131.18 1002.32,-104.94 1137.32,-90.21"/>
<polygon fill="#63b8ff" stroke="#63b8ff" points="1137.45,-93.72 1146.96,-89.05 1136.61,-86.77 1137.45,-93.72"/>
</a>
</g>
</g>
<!-- Node21&#45;&gt;Node15 -->
<g id="edge42_Node000021_Node000015" class="edge">
<title>Node21&#45;&gt;Node15</title>
<g id="a_edge42_Node000021_Node000015"><a xlink:title=" ">
<path fill="none" stroke="#63b8ff" d="M152.75,-125.83C187.78,-116.14 232.51,-103.77 269.28,-93.6"/>
<polygon fill="#63b8ff" stroke="#63b8ff" points="269.75,-97.1 278.46,-91.06 267.89,-90.35 269.75,-97.1"/>
</a>
</g>
</g>
<!-- Node22 -->
<g id="Node000022" class="node">
<title>Node22</title>
<g id="a_Node000022"><a xlink:title=" ">
<polygon fill="#e0e0e0" stroke="#999999" points="126.31,-83.88 62.31,-83.88 62.31,-63.12 126.31,-63.12 126.31,-83.88"/>
<text text-anchor="middle" x="94.31" y="-70.38" font-family="Helvetica,sans-Serif" font-size="10.00">exception</text>
</a>
</g>
</g>
<!-- Node21&#45;&gt;Node22 -->
<g id="edge41_Node000021_Node000022" class="edge">
<title>Node21&#45;&gt;Node22</title>
<g id="a_edge41_Node000021_Node000022"><a xlink:title=" ">
<path fill="none" stroke="#63b8ff" d="M94.31,-126C94.31,-116.9 94.31,-105.39 94.31,-95.57"/>
<polygon fill="#63b8ff" stroke="#63b8ff" points="97.81,-95.84 94.31,-85.84 90.81,-95.84 97.81,-95.84"/>
</a>
</g>
</g>
<!-- Node23&#45;&gt;Node6 -->
<g id="edge49_Node000023_Node000006" class="edge">
<title>Node23&#45;&gt;Node6</title>
<g id="a_edge49_Node000023_Node000006"><a xlink:title=" ">
<path fill="none" stroke="#63b8ff" d="M680.11,-411.82C697.21,-409.37 716.02,-406.69 733.31,-404.25 844.79,-388.52 875.62,-386.6 989.43,-368.68"/>
<polygon fill="#63b8ff" stroke="#63b8ff" points="989.88,-372.15 999.21,-367.13 988.79,-365.23 989.88,-372.15"/>
</a>
</g>
</g>
<!-- Node23&#45;&gt;Node12 -->
<g id="edge58_Node000023_Node000012" class="edge">
<title>Node23&#45;&gt;Node12</title>
<g id="a_edge58_Node000023_Node000012"><a xlink:title=" ">
<path fill="none" stroke="#63b8ff" d="M662.76,-403.77C714.78,-381.93 808.67,-340.9 885.31,-298.75 909.39,-285.5 912.6,-277.31 937.31,-265.25 980.88,-243.97 998.65,-254.07 1040.31,-229.25 1072.18,-210.26 1147.44,-137.22 1186.24,-98.66"/>
<polygon fill="#63b8ff" stroke="#63b8ff" points="1188.7,-101.15 1193.31,-91.61 1183.76,-96.19 1188.7,-101.15"/>
</a>
</g>
</g>
<!-- Node23&#45;&gt;Node15 -->
<g id="edge59_Node000023_Node000015" class="edge">
<title>Node23&#45;&gt;Node15</title>
<g id="a_edge59_Node000023_Node000015"><a xlink:title=" ">
<path fill="none" stroke="#63b8ff" d="M566.66,-414.75C498.67,-407.48 389.74,-392.43 357.31,-368.25 262.73,-297.74 189.24,-228.36 248.31,-126.25 255.71,-113.44 267.62,-103.53 280.39,-95.97"/>
<polygon fill="#63b8ff" stroke="#63b8ff" points="281.79,-99.19 288.92,-91.36 278.46,-93.03 281.79,-99.19"/>
</a>
</g>
</g>
<!-- Node24 -->
<g id="Node000024" class="node">
<title>Node24</title>
<g id="a_Node000024"><a xlink:href="tags_8hpp.html" target="_top" xlink:title=" ">
<polygon fill="white" stroke="#666666" points="482.56,-368.25 366.06,-368.25 366.06,-334.75 482.56,-334.75 482.56,-368.25"/>
<text text-anchor="start" x="374.06" y="-354.75" font-family="Helvetica,sans-Serif" font-size="10.00">proxsuite/linalg/veg</text>
<text text-anchor="middle" x="424.31" y="-342" font-family="Helvetica,sans-Serif" font-size="10.00">/type_traits/tags.hpp</text>
</a>
</g>
</g>
<!-- Node23&#45;&gt;Node24 -->
<g id="edge45_Node000023_Node000024" class="edge">
<title>Node23&#45;&gt;Node24</title>
<g id="a_edge45_Node000023_Node000024"><a xlink:title=" ">
<path fill="none" stroke="#63b8ff" d="M575.64,-403.83C547.68,-394.35 512.15,-382.3 482.54,-372.25"/>
<polygon fill="#63b8ff" stroke="#63b8ff" points="483.96,-369.04 473.36,-369.14 481.71,-375.67 483.96,-369.04"/>
</a>
</g>
</g>
<!-- Node25 -->
<g id="Node000025" class="node">
<title>Node25</title>
<g id="a_Node000025"><a xlink:href="address_8hpp.html" target="_top" xlink:title=" ">
<polygon fill="white" stroke="#666666" points="673.56,-368.25 551.06,-368.25 551.06,-334.75 673.56,-334.75 673.56,-368.25"/>
<text text-anchor="start" x="559.06" y="-354.75" font-family="Helvetica,sans-Serif" font-size="10.00">proxsuite/linalg/veg</text>
<text text-anchor="middle" x="612.31" y="-342" font-family="Helvetica,sans-Serif" font-size="10.00">/memory/address.hpp</text>
</a>
</g>
</g>
<!-- Node23&#45;&gt;Node25 -->
<g id="edge50_Node000023_Node000025" class="edge">
<title>Node23&#45;&gt;Node25</title>
<g id="a_edge50_Node000023_Node000025"><a xlink:title=" ">
<path fill="none" stroke="#63b8ff" d="M620.7,-404C619.51,-396.69 618.06,-387.82 616.71,-379.52"/>
<polygon fill="#63b8ff" stroke="#63b8ff" points="620.2,-379.18 615.14,-369.88 613.29,-380.31 620.2,-379.18"/>
</a>
</g>
</g>
<!-- Node24&#45;&gt;Node7 -->
<g id="edge46_Node000024_Node000007" class="edge">
<title>Node24&#45;&gt;Node7</title>
<g id="a_edge46_Node000024_Node000007"><a xlink:title=" ">
<path fill="none" stroke="#63b8ff" d="M482.78,-339.13C543.09,-327.39 637.15,-309.1 701.37,-296.61"/>
<polygon fill="#63b8ff" stroke="#63b8ff" points="701.96,-300.05 711.11,-294.71 700.63,-293.18 701.96,-300.05"/>
</a>
</g>
</g>
<!-- Node24&#45;&gt;Node12 -->
<g id="edge47_Node000024_Node000012" class="edge">
<title>Node24&#45;&gt;Node12</title>
<g id="a_edge47_Node000024_Node000012"><a xlink:title=" ">
<path fill="none" stroke="#63b8ff" d="M435.07,-334.57C449.68,-314.43 477.84,-280.55 511.31,-265.25 688.14,-184.41 779.36,-327.23 947.31,-229.25 995.11,-201.36 972.19,-158.32 1017.31,-126.25 1027.46,-119.03 1087.04,-103.61 1137.34,-91.47"/>
<polygon fill="#63b8ff" stroke="#63b8ff" points="1137.86,-94.94 1146.77,-89.21 1136.23,-88.14 1137.86,-94.94"/>
</a>
</g>
</g>
<!-- Node24&#45;&gt;Node15 -->
<g id="edge48_Node000024_Node000015" class="edge">
<title>Node24&#45;&gt;Node15</title>
<g id="a_edge48_Node000024_Node000015"><a xlink:title=" ">
<path fill="none" stroke="#63b8ff" d="M398.42,-334.41C385.83,-325.36 371.48,-313.02 362.31,-298.75 319.87,-232.7 313.97,-204.07 324.31,-126.25 325.39,-118.07 327.41,-109.34 329.58,-101.44"/>
<polygon fill="#63b8ff" stroke="#63b8ff" points="332.87,-102.62 332.35,-92.04 326.16,-100.64 332.87,-102.62"/>
</a>
</g>
</g>
<!-- Node25&#45;&gt;Node7 -->
<g id="edge51_Node000025_Node000007" class="edge">
<title>Node25&#45;&gt;Node7</title>
<g id="a_edge51_Node000025_Node000007"><a xlink:title=" ">
<path fill="none" stroke="#63b8ff" d="M650.39,-334.33C672.14,-325.1 699.63,-313.43 722.9,-303.55"/>
<polygon fill="#63b8ff" stroke="#63b8ff" points="724.03,-306.87 731.86,-299.74 721.29,-300.43 724.03,-306.87"/>
</a>
</g>
</g>
<!-- Node25&#45;&gt;Node12 -->
<g id="edge55_Node000025_Node000012" class="edge">
<title>Node25&#45;&gt;Node12</title>
<g id="a_edge55_Node000025_Node000012"><a xlink:title=" ">
<path fill="none" stroke="#63b8ff" d="M673.9,-340.61C720.01,-332.2 784.19,-318.35 838.31,-298.75 869.24,-287.55 873.94,-277.89 904.31,-265.25 951.41,-245.65 972.68,-260.12 1013.31,-229.25 1057.18,-195.91 1039.54,-161 1082.31,-126.25 1098.86,-112.8 1119.38,-102.44 1139.1,-94.66"/>
<polygon fill="#63b8ff" stroke="#63b8ff" points="1140.08,-98.03 1148.21,-91.24 1137.62,-91.48 1140.08,-98.03"/>
</a>
</g>
</g>
<!-- Node25&#45;&gt;Node15 -->
<g id="edge57_Node000025_Node000015" class="edge">
<title>Node25&#45;&gt;Node15</title>
<g id="a_edge57_Node000025_Node000015"><a xlink:title=" ">
<path fill="none" stroke="#63b8ff" d="M571.59,-334.43C552.17,-325.61 529.31,-313.46 511.31,-298.75 439.4,-239.98 379.44,-145.88 352.93,-100.56"/>
<polygon fill="#63b8ff" stroke="#63b8ff" points="355.99,-98.87 347.96,-91.95 349.93,-102.36 355.99,-98.87"/>
</a>
</g>
</g>
<!-- Node26 -->
<g id="Node000026" class="node">
<title>Node26</title>
<g id="a_Node000026"><a xlink:href="std_8hpp.html" target="_top" xlink:title=" ">
<polygon fill="white" stroke="#666666" points="668.68,-159.75 555.93,-159.75 555.93,-126.25 668.68,-126.25 668.68,-159.75"/>
<text text-anchor="start" x="563.93" y="-146.25" font-family="Helvetica,sans-Serif" font-size="10.00">proxsuite/linalg/veg</text>
<text text-anchor="middle" x="612.31" y="-133.5" font-family="Helvetica,sans-Serif" font-size="10.00">/internal/std.hpp</text>
</a>
</g>
</g>
<!-- Node25&#45;&gt;Node26 -->
<g id="edge52_Node000025_Node000026" class="edge">
<title>Node25&#45;&gt;Node26</title>
<g id="a_edge52_Node000025_Node000026"><a xlink:title=" ">
<path fill="none" stroke="#63b8ff" d="M612.31,-334.3C612.31,-299.09 612.31,-215.26 612.31,-171.56"/>
<polygon fill="#63b8ff" stroke="#63b8ff" points="615.81,-171.64 612.31,-161.64 608.81,-171.64 615.81,-171.64"/>
</a>
</g>
</g>
<!-- Node27 -->
<g id="Node000027" class="node">
<title>Node27</title>
<g id="a_Node000027"><a xlink:title=" ">
<polygon fill="#e0e0e0" stroke="#999999" points="577.93,-292.38 520.68,-292.38 520.68,-271.62 577.93,-271.62 577.93,-292.38"/>
<text text-anchor="middle" x="549.31" y="-278.88" font-family="Helvetica,sans-Serif" font-size="10.00">memory</text>
</a>
</g>
</g>
<!-- Node25&#45;&gt;Node27 -->
<g id="edge56_Node000025_Node000027" class="edge">
<title>Node25&#45;&gt;Node27</title>
<g id="a_edge56_Node000025_Node000027"><a xlink:title=" ">
<path fill="none" stroke="#63b8ff" d="M597.38,-334.5C588.03,-324.49 575.97,-311.57 566.27,-301.17"/>
<polygon fill="#63b8ff" stroke="#63b8ff" points="568.89,-298.85 559.51,-293.93 563.77,-303.63 568.89,-298.85"/>
</a>
</g>
</g>
<!-- Node26&#45;&gt;Node3 -->
<g id="edge53_Node000026_Node000003" class="edge">
<title>Node26&#45;&gt;Node3</title>
<g id="a_edge53_Node000026_Node000003"><a xlink:title=" ">
<path fill="none" stroke="#63b8ff" d="M555.63,-126.34C524.81,-116.56 491.2,-103.37 482.31,-90.25 473.95,-77.93 476.88,-70.61 482.31,-56.75 486.5,-46.03 494.55,-36.33 502.49,-28.68"/>
<polygon fill="#63b8ff" stroke="#63b8ff" points="504.6,-31.49 509.74,-22.23 499.94,-26.26 504.6,-31.49"/>
</a>
</g>
</g>
<!-- Node26&#45;&gt;Node13 -->
<g id="edge54_Node000026_Node000013" class="edge">
<title>Node26&#45;&gt;Node13</title>
<g id="a_edge54_Node000026_Node000013"><a xlink:title=" ">
<path fill="none" stroke="#63b8ff" d="M593.35,-126C581.12,-115.69 565.23,-102.28 552.73,-91.73"/>
<polygon fill="#63b8ff" stroke="#63b8ff" points="555,-89.07 545.1,-85.3 550.49,-94.42 555,-89.07"/>
</a>
</g>
</g>
</g>
</svg>
