<?xml version="1.0" encoding="UTF-8" standalone="no"?>
<!DOCTYPE svg PUBLIC "-//W3C//DTD SVG 1.1//EN"
 "http://www.w3.org/Graphics/SVG/1.1/DTD/svg11.dtd">
<!-- Generated by graphviz version 7.0.6 (20230107.1202)
 -->
<!-- Title: include/proxsuite/linalg/veg/internal/assert_impl.hpp Pages: 1 -->
<svg width="1346pt" height="555pt"
 viewBox="0.00 0.00 1345.50 555.00" xmlns="http://www.w3.org/2000/svg" xmlns:xlink="http://www.w3.org/1999/xlink">
<g id="graph0" class="graph" transform="scale(1 1) rotate(0) translate(4 551)">
<title>include/proxsuite/linalg/veg/internal/assert_impl.hpp</title>
<!-- Node1 -->
<g id="node1" class="node">
<title>Node1</title>
<g id="a_node1"><a xlink:title=" ">
<polygon fill="#999999" stroke="#666666" points="652.5,-547 493.5,-547 493.5,-517 652.5,-517 652.5,-547"/>
<text text-anchor="start" x="501.5" y="-535" font-family="Helvetica,sans-Serif" font-size="10.00">include/proxsuite/linalg</text>
<text text-anchor="middle" x="573" y="-524" font-family="Helvetica,sans-Serif" font-size="10.00">/veg/internal/assert_impl.hpp</text>
</a>
</g>
</g>
<!-- Node2 -->
<g id="node2" class="node">
<title>Node2</title>
<g id="a_node2"><a xlink:href="typedefs_8hpp.html" target="_top" xlink:title=" ">
<polygon fill="white" stroke="#666666" points="267,-85 143,-85 143,-55 267,-55 267,-85"/>
<text text-anchor="start" x="151" y="-73" font-family="Helvetica,sans-Serif" font-size="10.00">proxsuite/linalg/veg</text>
<text text-anchor="middle" x="205" y="-62" font-family="Helvetica,sans-Serif" font-size="10.00">/internal/typedefs.hpp</text>
</a>
</g>
</g>
<!-- Node1&#45;&gt;Node2 -->
<g id="edge1" class="edge">
<title>Node1&#45;&gt;Node2</title>
<path fill="none" stroke="#63b8ff" d="M493.24,-530.06C370.7,-527.44 142.76,-517.64 71,-481 28.66,-459.38 0,-448.54 0,-401 0,-401 0,-401 0,-201 0,-136.63 72.98,-102.79 131.85,-85.97"/>
<polygon fill="#63b8ff" stroke="#63b8ff" points="132.47,-89.43 141.2,-83.42 130.63,-82.68 132.47,-89.43"/>
</g>
<!-- Node5 -->
<g id="node5" class="node">
<title>Node5</title>
<g id="a_node5"><a xlink:href="defer_8hpp.html" target="_top" xlink:title=" ">
<polygon fill="white" stroke="#666666" points="401.5,-481 288.5,-481 288.5,-451 401.5,-451 401.5,-481"/>
<text text-anchor="start" x="296.5" y="-469" font-family="Helvetica,sans-Serif" font-size="10.00">proxsuite/linalg/veg</text>
<text text-anchor="middle" x="345" y="-458" font-family="Helvetica,sans-Serif" font-size="10.00">/util/defer.hpp</text>
</a>
</g>
</g>
<!-- Node1&#45;&gt;Node5 -->
<g id="edge4" class="edge">
<title>Node1&#45;&gt;Node5</title>
<path fill="none" stroke="#63b8ff" d="M521.55,-516.56C487.63,-507.04 443,-494.51 407.1,-484.43"/>
<polygon fill="#63b8ff" stroke="#63b8ff" points="408.3,-481.13 397.72,-481.8 406.4,-487.87 408.3,-481.13"/>
</g>
<!-- Node12 -->
<g id="node12" class="node">
<title>Node12</title>
<g id="a_node12"><a xlink:href="prologue_8hpp.html" target="_top" xlink:title=" ">
<polygon fill="white" stroke="#666666" points="409,-85 285,-85 285,-55 409,-55 409,-85"/>
<text text-anchor="start" x="293" y="-73" font-family="Helvetica,sans-Serif" font-size="10.00">proxsuite/linalg/veg</text>
<text text-anchor="middle" x="347" y="-62" font-family="Helvetica,sans-Serif" font-size="10.00">/internal/prologue.hpp</text>
</a>
</g>
</g>
<!-- Node1&#45;&gt;Node12 -->
<g id="edge63" class="edge">
<title>Node1&#45;&gt;Node12</title>
<path fill="none" stroke="#63b8ff" d="M493.19,-528.09C344.05,-520.46 38,-493.54 38,-401 38,-401 38,-401 38,-201 38,-156.56 60.41,-144.71 98,-121 98.95,-120.4 200.68,-100.09 273.79,-85.54"/>
<polygon fill="#63b8ff" stroke="#63b8ff" points="274.2,-89.03 283.33,-83.64 272.84,-82.16 274.2,-89.03"/>
</g>
<!-- Node14 -->
<g id="node14" class="node">
<title>Node14</title>
<g id="a_node14"><a xlink:href="epilogue_8hpp.html" target="_top" xlink:title=" ">
<polygon fill="white" stroke="#666666" points="919.5,-85 796.5,-85 796.5,-55 919.5,-55 919.5,-85"/>
<text text-anchor="start" x="804.5" y="-73" font-family="Helvetica,sans-Serif" font-size="10.00">proxsuite/linalg/veg</text>
<text text-anchor="middle" x="858" y="-62" font-family="Helvetica,sans-Serif" font-size="10.00">/internal/epilogue.hpp</text>
</a>
</g>
</g>
<!-- Node1&#45;&gt;Node14 -->
<g id="edge65" class="edge">
<title>Node1&#45;&gt;Node14</title>
<path fill="none" stroke="#63b8ff" d="M652.85,-530.87C820.96,-528.44 1196,-510.73 1196,-401 1196,-401 1196,-401 1196,-201 1196,-164.46 1203.84,-145.8 1177,-121 1138.68,-85.6 996.53,-93.14 945,-85 940.41,-84.27 935.68,-83.52 930.92,-82.77"/>
<polygon fill="#63b8ff" stroke="#63b8ff" points="931.7,-79.35 921.27,-81.22 930.6,-86.26 931.7,-79.35"/>
</g>
<!-- Node18 -->
<g id="node18" class="node">
<title>Node18</title>
<g id="a_node18"><a xlink:href="internal_2dbg_8hpp.html" target="_top" xlink:title=" ">
<polygon fill="white" stroke="#666666" points="843.5,-481 730.5,-481 730.5,-451 843.5,-451 843.5,-481"/>
<text text-anchor="start" x="738.5" y="-469" font-family="Helvetica,sans-Serif" font-size="10.00">proxsuite/linalg/veg</text>
<text text-anchor="middle" x="787" y="-458" font-family="Helvetica,sans-Serif" font-size="10.00">/internal/dbg.hpp</text>
</a>
</g>
</g>
<!-- Node1&#45;&gt;Node18 -->
<g id="edge32" class="edge">
<title>Node1&#45;&gt;Node18</title>
<path fill="none" stroke="#63b8ff" d="M621.29,-516.56C653,-507.08 694.66,-494.62 728.27,-484.56"/>
<polygon fill="#63b8ff" stroke="#63b8ff" points="728.86,-488.04 737.43,-481.82 726.85,-481.34 728.86,-488.04"/>
</g>
<!-- Node29 -->
<g id="node29" class="node">
<title>Node29</title>
<g id="a_node29"><a xlink:title=" ">
<polygon fill="#e0e0e0" stroke="#999999" points="1276,-475.5 1224,-475.5 1224,-456.5 1276,-456.5 1276,-475.5"/>
<text text-anchor="middle" x="1250" y="-463.5" font-family="Helvetica,sans-Serif" font-size="10.00">cassert</text>
</a>
</g>
</g>
<!-- Node1&#45;&gt;Node29 -->
<g id="edge64" class="edge">
<title>Node1&#45;&gt;Node29</title>
<path fill="none" stroke="#63b8ff" d="M652.88,-531.3C774.48,-530.3 1012.71,-522.54 1210,-481 1212.31,-480.51 1214.66,-479.93 1217.02,-479.28"/>
<polygon fill="#63b8ff" stroke="#63b8ff" points="1217.92,-482.67 1226.42,-476.34 1215.83,-475.99 1217.92,-482.67"/>
</g>
<!-- Node3 -->
<g id="node3" class="node">
<title>Node3</title>
<g id="a_node3"><a xlink:title=" ">
<polygon fill="#e0e0e0" stroke="#999999" points="747,-19 697,-19 697,0 747,0 747,-19"/>
<text text-anchor="middle" x="722" y="-7" font-family="Helvetica,sans-Serif" font-size="10.00">cstdint</text>
</a>
</g>
</g>
<!-- Node2&#45;&gt;Node3 -->
<g id="edge2" class="edge">
<title>Node2&#45;&gt;Node3</title>
<path fill="none" stroke="#63b8ff" d="M267.28,-56.37C270.22,-55.88 273.14,-55.42 276,-55 427.25,-32.59 609.06,-18.37 685.42,-12.96"/>
<polygon fill="#63b8ff" stroke="#63b8ff" points="685.51,-16.47 695.24,-12.28 685.02,-9.48 685.51,-16.47"/>
</g>
<!-- Node4 -->
<g id="node4" class="node">
<title>Node4</title>
<g id="a_node4"><a xlink:title=" ">
<polygon fill="#e0e0e0" stroke="#999999" points="231.5,-19 178.5,-19 178.5,0 231.5,0 231.5,-19"/>
<text text-anchor="middle" x="205" y="-7" font-family="Helvetica,sans-Serif" font-size="10.00">cstddef</text>
</a>
</g>
</g>
<!-- Node2&#45;&gt;Node4 -->
<g id="edge3" class="edge">
<title>Node2&#45;&gt;Node4</title>
<path fill="none" stroke="#63b8ff" d="M205,-54.54C205,-47.34 205,-38.53 205,-30.68"/>
<polygon fill="#63b8ff" stroke="#63b8ff" points="208.5,-30.69 205,-20.69 201.5,-30.69 208.5,-30.69"/>
</g>
<!-- Node6 -->
<g id="node6" class="node">
<title>Node6</title>
<g id="a_node6"><a xlink:href="constructible_8hpp.html" target="_top" xlink:title=" ">
<polygon fill="white" stroke="#666666" points="301.5,-349 142.5,-349 142.5,-319 301.5,-319 301.5,-349"/>
<text text-anchor="start" x="150.5" y="-337" font-family="Helvetica,sans-Serif" font-size="10.00">proxsuite/linalg/veg</text>
<text text-anchor="middle" x="222" y="-326" font-family="Helvetica,sans-Serif" font-size="10.00">/type_traits/constructible.hpp</text>
</a>
</g>
</g>
<!-- Node5&#45;&gt;Node6 -->
<g id="edge5" class="edge">
<title>Node5&#45;&gt;Node6</title>
<path fill="none" stroke="#63b8ff" d="M288.03,-452.83C266.88,-445.41 244.71,-433.62 231,-415 219.6,-399.51 217.85,-377.56 218.68,-360.57"/>
<polygon fill="#63b8ff" stroke="#63b8ff" points="222.15,-361 219.5,-350.75 215.18,-360.42 222.15,-361"/>
</g>
<!-- Node5&#45;&gt;Node12 -->
<g id="edge30" class="edge">
<title>Node5&#45;&gt;Node12</title>
<path fill="none" stroke="#63b8ff" d="M288.28,-462.15C209.36,-454.78 76,-428.49 76,-335 76,-335 76,-335 76,-201 76,-151.03 111.72,-145.97 155,-121 175.33,-109.27 228.41,-95.86 273.63,-85.89"/>
<polygon fill="#63b8ff" stroke="#63b8ff" points="274.12,-89.36 283.15,-83.81 272.63,-82.52 274.12,-89.36"/>
</g>
<!-- Node5&#45;&gt;Node14 -->
<g id="edge31" class="edge">
<title>Node5&#45;&gt;Node14</title>
<path fill="none" stroke="#63b8ff" d="M401.92,-459.93C473.64,-452.9 600.41,-438.36 707,-415 751.91,-405.16 761.71,-397.32 806,-385 868.73,-367.55 908.02,-400.38 948,-349 1010.45,-268.75 986.81,-204.65 929,-121 920.83,-109.18 908.9,-99.23 897.15,-91.4"/>
<polygon fill="#63b8ff" stroke="#63b8ff" points="899.02,-88.44 888.68,-86.12 895.32,-94.38 899.02,-88.44"/>
</g>
<!-- Node17 -->
<g id="node17" class="node">
<title>Node17</title>
<g id="a_node17"><a xlink:href="invocable_8hpp.html" target="_top" xlink:title=" ">
<polygon fill="white" stroke="#666666" points="416.5,-415 273.5,-415 273.5,-385 416.5,-385 416.5,-415"/>
<text text-anchor="start" x="281.5" y="-403" font-family="Helvetica,sans-Serif" font-size="10.00">proxsuite/linalg/veg</text>
<text text-anchor="middle" x="345" y="-392" font-family="Helvetica,sans-Serif" font-size="10.00">/type_traits/invocable.hpp</text>
</a>
</g>
</g>
<!-- Node5&#45;&gt;Node17 -->
<g id="edge25" class="edge">
<title>Node5&#45;&gt;Node17</title>
<path fill="none" stroke="#63b8ff" d="M345,-450.8C345,-443.67 345,-434.82 345,-426.56"/>
<polygon fill="#63b8ff" stroke="#63b8ff" points="348.5,-426.68 345,-416.68 341.5,-426.68 348.5,-426.68"/>
</g>
<!-- Node7 -->
<g id="node7" class="node">
<title>Node7</title>
<g id="a_node7"><a xlink:href="veg_2type__traits_2core_8hpp.html" target="_top" xlink:title=" ">
<polygon fill="white" stroke="#666666" points="478.5,-283 361.5,-283 361.5,-253 478.5,-253 478.5,-283"/>
<text text-anchor="start" x="369.5" y="-271" font-family="Helvetica,sans-Serif" font-size="10.00">proxsuite/linalg/veg</text>
<text text-anchor="middle" x="420" y="-260" font-family="Helvetica,sans-Serif" font-size="10.00">/type_traits/core.hpp</text>
</a>
</g>
</g>
<!-- Node6&#45;&gt;Node7 -->
<g id="edge6" class="edge">
<title>Node6&#45;&gt;Node7</title>
<path fill="none" stroke="#63b8ff" d="M266.44,-318.64C295.5,-309.24 333.7,-296.9 364.72,-286.87"/>
<polygon fill="#63b8ff" stroke="#63b8ff" points="365.49,-290.3 373.93,-283.89 363.34,-283.64 365.49,-290.3"/>
</g>
<!-- Node6&#45;&gt;Node12 -->
<g id="edge21" class="edge">
<title>Node6&#45;&gt;Node12</title>
<path fill="none" stroke="#63b8ff" d="M201.25,-318.68C190.32,-309.82 177.97,-297.4 172,-283 166.9,-270.68 167.02,-265.37 172,-253 200.94,-181.14 273.33,-121.76 315.38,-91.87"/>
<polygon fill="#63b8ff" stroke="#63b8ff" points="317.18,-94.89 323.38,-86.3 313.17,-89.15 317.18,-94.89"/>
</g>
<!-- Node6&#45;&gt;Node14 -->
<g id="edge24" class="edge">
<title>Node6&#45;&gt;Node14</title>
<path fill="none" stroke="#63b8ff" d="M301.82,-325C355.63,-317.93 427.56,-305.17 488,-283 599.38,-242.15 617.13,-210.08 720,-151 755.5,-130.61 796.03,-107.09 823.93,-90.85"/>
<polygon fill="#63b8ff" stroke="#63b8ff" points="825.41,-94.04 832.3,-85.98 821.89,-87.99 825.41,-94.04"/>
</g>
<!-- Node15 -->
<g id="node15" class="node">
<title>Node15</title>
<g id="a_node15"><a xlink:title=" ">
<polygon fill="#e0e0e0" stroke="#999999" points="217.5,-277.5 180.5,-277.5 180.5,-258.5 217.5,-258.5 217.5,-277.5"/>
<text text-anchor="middle" x="199" y="-265.5" font-family="Helvetica,sans-Serif" font-size="10.00">new</text>
</a>
</g>
</g>
<!-- Node6&#45;&gt;Node15 -->
<g id="edge22" class="edge">
<title>Node6&#45;&gt;Node15</title>
<path fill="none" stroke="#63b8ff" d="M216.9,-318.8C213.7,-309.89 209.53,-298.3 206.02,-288.54"/>
<polygon fill="#63b8ff" stroke="#63b8ff" points="209.37,-287.5 202.69,-279.27 202.78,-289.86 209.37,-287.5"/>
</g>
<!-- Node16 -->
<g id="node16" class="node">
<title>Node16</title>
<g id="a_node16"><a xlink:title=" ">
<polygon fill="#e0e0e0" stroke="#999999" points="304.5,-277.5 235.5,-277.5 235.5,-258.5 304.5,-258.5 304.5,-277.5"/>
<text text-anchor="middle" x="270" y="-265.5" font-family="Helvetica,sans-Serif" font-size="10.00">type_traits</text>
</a>
</g>
</g>
<!-- Node6&#45;&gt;Node16 -->
<g id="edge23" class="edge">
<title>Node6&#45;&gt;Node16</title>
<path fill="none" stroke="#63b8ff" d="M232.65,-318.8C239.7,-309.41 248.99,-297.02 256.54,-286.95"/>
<polygon fill="#63b8ff" stroke="#63b8ff" points="259.26,-289.16 262.46,-279.06 253.66,-284.96 259.26,-289.16"/>
</g>
<!-- Node7&#45;&gt;Node2 -->
<g id="edge7" class="edge">
<title>Node7&#45;&gt;Node2</title>
<path fill="none" stroke="#63b8ff" d="M377.53,-252.53C356.97,-244.2 332.75,-232.32 314,-217 271.09,-181.93 235.86,-126.48 217.9,-94.97"/>
<polygon fill="#63b8ff" stroke="#63b8ff" points="221.15,-93.62 213.22,-86.59 215.04,-97.03 221.15,-93.62"/>
</g>
<!-- Node8 -->
<g id="node8" class="node">
<title>Node8</title>
<g id="a_node8"><a xlink:href="integer__seq_8hpp.html" target="_top" xlink:title=" ">
<polygon fill="white" stroke="#666666" points="546,-217 408,-217 408,-187 546,-187 546,-217"/>
<text text-anchor="start" x="416" y="-205" font-family="Helvetica,sans-Serif" font-size="10.00">proxsuite/linalg/veg</text>
<text text-anchor="middle" x="477" y="-194" font-family="Helvetica,sans-Serif" font-size="10.00">/internal/integer_seq.hpp</text>
</a>
</g>
</g>
<!-- Node7&#45;&gt;Node8 -->
<g id="edge8" class="edge">
<title>Node7&#45;&gt;Node8</title>
<path fill="none" stroke="#63b8ff" d="M432.65,-252.8C439.73,-244.84 448.73,-234.74 456.77,-225.71"/>
<polygon fill="#63b8ff" stroke="#63b8ff" points="459.34,-228.09 463.38,-218.29 454.11,-223.43 459.34,-228.09"/>
</g>
<!-- Node7&#45;&gt;Node12 -->
<g id="edge19" class="edge">
<title>Node7&#45;&gt;Node12</title>
<path fill="none" stroke="#63b8ff" d="M372.4,-252.68C355.31,-244.98 337.85,-233.56 328,-217 305.54,-179.24 321.81,-126.36 334.92,-95.69"/>
<polygon fill="#63b8ff" stroke="#63b8ff" points="337.99,-97.4 338.91,-86.85 331.61,-94.53 337.99,-97.4"/>
</g>
<!-- Node7&#45;&gt;Node14 -->
<g id="edge20" class="edge">
<title>Node7&#45;&gt;Node14</title>
<path fill="none" stroke="#63b8ff" d="M462.06,-252.58C488.9,-243.09 524.29,-230.05 555,-217 652.39,-175.61 763.73,-119.66 820.47,-90.5"/>
<polygon fill="#63b8ff" stroke="#63b8ff" points="821.78,-93.76 829.07,-86.07 818.58,-87.54 821.78,-93.76"/>
</g>
<!-- Node8&#45;&gt;Node2 -->
<g id="edge9" class="edge">
<title>Node8&#45;&gt;Node2</title>
<path fill="none" stroke="#63b8ff" d="M446.85,-186.59C397.73,-163.12 300.41,-116.6 245.37,-90.3"/>
<polygon fill="#63b8ff" stroke="#63b8ff" points="247.18,-87.28 236.65,-86.13 244.16,-93.6 247.18,-87.28"/>
</g>
<!-- Node9 -->
<g id="node9" class="node">
<title>Node9</title>
<g id="a_node9"><a xlink:href="macros_8hpp.html" target="_top" xlink:title=" ">
<polygon fill="white" stroke="#666666" points="639.5,-151 522.5,-151 522.5,-121 639.5,-121 639.5,-151"/>
<text text-anchor="start" x="530.5" y="-139" font-family="Helvetica,sans-Serif" font-size="10.00">proxsuite/linalg/veg</text>
<text text-anchor="middle" x="581" y="-128" font-family="Helvetica,sans-Serif" font-size="10.00">/internal/macros.hpp</text>
</a>
</g>
</g>
<!-- Node8&#45;&gt;Node9 -->
<g id="edge10" class="edge">
<title>Node8&#45;&gt;Node9</title>
<path fill="none" stroke="#63b8ff" d="M500.34,-186.64C514.39,-177.99 532.5,-166.85 548,-157.31"/>
<polygon fill="#63b8ff" stroke="#63b8ff" points="549.77,-160.33 556.45,-152.11 546.1,-154.37 549.77,-160.33"/>
</g>
<!-- Node8&#45;&gt;Node12 -->
<g id="edge17" class="edge">
<title>Node8&#45;&gt;Node12</title>
<path fill="none" stroke="#63b8ff" d="M462.59,-186.59C440.04,-164.04 396.24,-120.24 369.5,-93.5"/>
<polygon fill="#63b8ff" stroke="#63b8ff" points="372.09,-91.14 362.54,-86.54 367.14,-96.09 372.09,-91.14"/>
</g>
<!-- Node8&#45;&gt;Node14 -->
<g id="edge18" class="edge">
<title>Node8&#45;&gt;Node14</title>
<path fill="none" stroke="#63b8ff" d="M545.44,-186.56C577.76,-178.39 616.32,-166.63 649,-151 670.02,-140.95 671.03,-131.15 692,-121 721.44,-106.75 755.79,-95.59 785.58,-87.46"/>
<polygon fill="#63b8ff" stroke="#63b8ff" points="786.11,-90.94 794.87,-84.99 784.31,-84.18 786.11,-90.94"/>
</g>
<!-- Node9&#45;&gt;Node2 -->
<g id="edge12" class="edge">
<title>Node9&#45;&gt;Node2</title>
<path fill="none" stroke="#63b8ff" d="M522.15,-125.93C463.11,-116.7 369.3,-101.68 278.64,-85.44"/>
<polygon fill="#63b8ff" stroke="#63b8ff" points="279.27,-82 268.81,-83.67 278.03,-88.89 279.27,-82"/>
</g>
<!-- Node10 -->
<g id="node10" class="node">
<title>Node10</title>
<g id="a_node10"><a xlink:href="hedley_8ext_8hpp.html" target="_top" xlink:title=" ">
<polygon fill="white" stroke="#666666" points="607.5,-85 432.5,-85 432.5,-55 607.5,-55 607.5,-85"/>
<text text-anchor="start" x="440.5" y="-73" font-family="Helvetica,sans-Serif" font-size="10.00">proxsuite/linalg/veg</text>
<text text-anchor="middle" x="520" y="-62" font-family="Helvetica,sans-Serif" font-size="10.00">/internal/external/hedley.ext.hpp</text>
</a>
</g>
</g>
<!-- Node9&#45;&gt;Node10 -->
<g id="edge11" class="edge">
<title>Node9&#45;&gt;Node10</title>
<path fill="none" stroke="#63b8ff" d="M567.46,-120.8C559.8,-112.76 550.05,-102.53 541.38,-93.43"/>
<polygon fill="#63b8ff" stroke="#63b8ff" points="543.98,-91.08 534.54,-86.26 538.91,-95.91 543.98,-91.08"/>
</g>
<!-- Node11 -->
<g id="node11" class="node">
<title>Node11</title>
<g id="a_node11"><a xlink:href="preprocessor_8hpp.html" target="_top" xlink:title=" ">
<polygon fill="white" stroke="#666666" points="768.5,-85 625.5,-85 625.5,-55 768.5,-55 768.5,-85"/>
<text text-anchor="start" x="633.5" y="-73" font-family="Helvetica,sans-Serif" font-size="10.00">proxsuite/linalg/veg</text>
<text text-anchor="middle" x="697" y="-62" font-family="Helvetica,sans-Serif" font-size="10.00">/internal/preprocessor.hpp</text>
</a>
</g>
</g>
<!-- Node9&#45;&gt;Node11 -->
<g id="edge13" class="edge">
<title>Node9&#45;&gt;Node11</title>
<path fill="none" stroke="#63b8ff" d="M607.03,-120.64C623,-111.83 643.67,-100.42 661.18,-90.77"/>
<polygon fill="#63b8ff" stroke="#63b8ff" points="662.66,-93.94 669.73,-86.05 659.28,-87.81 662.66,-93.94"/>
</g>
<!-- Node9&#45;&gt;Node12 -->
<g id="edge14" class="edge">
<title>Node9&#45;&gt;Node12</title>
<path fill="none" stroke="#63b8ff" d="M528.19,-120.56C493.23,-110.99 447.18,-98.4 410.26,-88.3"/>
<polygon fill="#63b8ff" stroke="#63b8ff" points="411.64,-85.05 401.07,-85.79 409.8,-91.8 411.64,-85.05"/>
</g>
<!-- Node13 -->
<g id="node13" class="node">
<title>Node13</title>
<g id="a_node13"><a xlink:title=" ">
<polygon fill="#e0e0e0" stroke="#999999" points="1036.5,-79.5 953.5,-79.5 953.5,-60.5 1036.5,-60.5 1036.5,-79.5"/>
<text text-anchor="middle" x="995" y="-67.5" font-family="Helvetica,sans-Serif" font-size="10.00">initializer_list</text>
</a>
</g>
</g>
<!-- Node9&#45;&gt;Node13 -->
<g id="edge15" class="edge">
<title>Node9&#45;&gt;Node13</title>
<path fill="none" stroke="#63b8ff" d="M639.99,-127.74C709.37,-118.91 827.89,-102.97 929,-85 933.87,-84.14 938.92,-83.17 943.97,-82.17"/>
<polygon fill="#63b8ff" stroke="#63b8ff" points="944.36,-85.67 953.46,-80.24 942.97,-78.81 944.36,-85.67"/>
</g>
<!-- Node9&#45;&gt;Node14 -->
<g id="edge16" class="edge">
<title>Node9&#45;&gt;Node14</title>
<path fill="none" stroke="#63b8ff" d="M639.74,-121.43C682.29,-111.6 740.07,-98.25 785.49,-87.75"/>
<polygon fill="#63b8ff" stroke="#63b8ff" points="786.03,-91.22 794.99,-85.56 784.45,-84.4 786.03,-91.22"/>
</g>
<!-- Node17&#45;&gt;Node6 -->
<g id="edge27" class="edge">
<title>Node17&#45;&gt;Node6</title>
<path fill="none" stroke="#63b8ff" d="M317.4,-384.64C300.3,-375.74 278.13,-364.21 259.47,-354.49"/>
<polygon fill="#63b8ff" stroke="#63b8ff" points="261.34,-351.52 250.85,-350.01 258.11,-357.73 261.34,-351.52"/>
</g>
<!-- Node17&#45;&gt;Node7 -->
<g id="edge26" class="edge">
<title>Node17&#45;&gt;Node7</title>
<path fill="none" stroke="#63b8ff" d="M342.14,-384.69C339.55,-367.86 337.66,-339.58 349,-319 355.71,-306.83 366.79,-296.94 378.23,-289.27"/>
<polygon fill="#63b8ff" stroke="#63b8ff" points="379.87,-292.36 386.54,-284.14 376.2,-286.41 379.87,-292.36"/>
</g>
<!-- Node17&#45;&gt;Node12 -->
<g id="edge28" class="edge">
<title>Node17&#45;&gt;Node12</title>
<path fill="none" stroke="#63b8ff" d="M273.13,-390.21C219.65,-382.21 152.67,-368.64 133,-349 107.14,-323.18 114,-305.54 114,-269 114,-269 114,-269 114,-201 114,-160.27 223.93,-114.16 292.77,-89.28"/>
<polygon fill="#63b8ff" stroke="#63b8ff" points="293.78,-92.63 302.02,-85.98 291.43,-86.04 293.78,-92.63"/>
</g>
<!-- Node17&#45;&gt;Node14 -->
<g id="edge29" class="edge">
<title>Node17&#45;&gt;Node14</title>
<path fill="none" stroke="#63b8ff" d="M416.84,-393.06C511.49,-384.55 668.21,-367.82 687,-349 759.35,-276.55 655.34,-200.39 720,-121 729.53,-109.3 759.79,-97.72 789.55,-88.66"/>
<polygon fill="#63b8ff" stroke="#63b8ff" points="790.4,-92.05 799,-85.86 788.42,-85.34 790.4,-92.05"/>
</g>
<!-- Node18&#45;&gt;Node6 -->
<g id="edge42" class="edge">
<title>Node18&#45;&gt;Node6</title>
<path fill="none" stroke="#63b8ff" d="M730.35,-462.57C603.17,-456.7 303.1,-440.32 265,-415 246.06,-402.41 234.81,-378.61 228.6,-360.23"/>
<polygon fill="#63b8ff" stroke="#63b8ff" points="231.99,-359.36 225.73,-350.82 225.3,-361.41 231.99,-359.36"/>
</g>
<!-- Node18&#45;&gt;Node12 -->
<g id="edge59" class="edge">
<title>Node18&#45;&gt;Node12</title>
<path fill="none" stroke="#63b8ff" d="M778.44,-450.7C762.09,-423.82 724.68,-364.38 687,-319 660.5,-287.08 589.4,-210.18 555,-187 520.98,-164.07 506.01,-170.65 470,-151 449.22,-139.66 445.78,-134 426,-121 410.9,-111.08 394,-100.33 379.71,-91.35"/>
<polygon fill="#63b8ff" stroke="#63b8ff" points="381.91,-88.6 371.58,-86.26 378.19,-94.53 381.91,-88.6"/>
</g>
<!-- Node18&#45;&gt;Node14 -->
<g id="edge62" class="edge">
<title>Node18&#45;&gt;Node14</title>
<path fill="none" stroke="#63b8ff" d="M843.85,-456.98C909.92,-444.08 1010,-411.86 1010,-335 1010,-335 1010,-335 1010,-201 1010,-163.88 1011.17,-148.29 986,-121 971.26,-105.02 950.8,-94.08 930.55,-86.62"/>
<polygon fill="#63b8ff" stroke="#63b8ff" points="931.72,-83.32 921.13,-83.41 929.46,-89.94 931.72,-83.32"/>
</g>
<!-- Node19 -->
<g id="node19" class="node">
<title>Node19</title>
<g id="a_node19"><a xlink:href="primitives_8hpp.html" target="_top" xlink:title=" ">
<polygon fill="white" stroke="#666666" points="504,-349 358,-349 358,-319 504,-319 504,-349"/>
<text text-anchor="start" x="366" y="-337" font-family="Helvetica,sans-Serif" font-size="10.00">proxsuite/linalg/veg</text>
<text text-anchor="middle" x="431" y="-326" font-family="Helvetica,sans-Serif" font-size="10.00">/type_traits/primitives.hpp</text>
</a>
</g>
</g>
<!-- Node18&#45;&gt;Node19 -->
<g id="edge33" class="edge">
<title>Node18&#45;&gt;Node19</title>
<path fill="none" stroke="#63b8ff" d="M730.22,-455.87C687.01,-447.9 626.57,-434.52 576,-415 534.73,-399.07 490.69,-373.39 462.12,-355.44"/>
<polygon fill="#63b8ff" stroke="#63b8ff" points="464.28,-352.66 453.97,-350.25 460.52,-358.57 464.28,-352.66"/>
</g>
<!-- Node20 -->
<g id="node20" class="node">
<title>Node20</title>
<g id="a_node20"><a xlink:href="terminate_8hpp.html" target="_top" xlink:title=" ">
<polygon fill="white" stroke="#666666" points="1167.5,-151 1038.5,-151 1038.5,-121 1167.5,-121 1167.5,-151"/>
<text text-anchor="start" x="1046.5" y="-139" font-family="Helvetica,sans-Serif" font-size="10.00">proxsuite/linalg/veg</text>
<text text-anchor="middle" x="1103" y="-128" font-family="Helvetica,sans-Serif" font-size="10.00">/internal/terminate.hpp</text>
</a>
</g>
</g>
<!-- Node18&#45;&gt;Node20 -->
<g id="edge38" class="edge">
<title>Node18&#45;&gt;Node20</title>
<path fill="none" stroke="#63b8ff" d="M843.94,-464.68C930.7,-460.86 1086,-439.43 1086,-335 1086,-335 1086,-335 1086,-267 1086,-230.45 1092.69,-188.61 1097.67,-162.49"/>
<polygon fill="#63b8ff" stroke="#63b8ff" points="1101.08,-163.32 1099.59,-152.83 1094.21,-161.96 1101.08,-163.32"/>
</g>
<!-- Node22 -->
<g id="node22" class="node">
<title>Node22</title>
<g id="a_node22"><a xlink:href="ref_8hpp.html" target="_top" xlink:title=" ">
<polygon fill="white" stroke="#666666" points="697.5,-415 584.5,-415 584.5,-385 697.5,-385 697.5,-415"/>
<text text-anchor="start" x="592.5" y="-403" font-family="Helvetica,sans-Serif" font-size="10.00">proxsuite/linalg/veg</text>
<text text-anchor="middle" x="641" y="-392" font-family="Helvetica,sans-Serif" font-size="10.00">/ref.hpp</text>
</a>
</g>
</g>
<!-- Node18&#45;&gt;Node22 -->
<g id="edge43" class="edge">
<title>Node18&#45;&gt;Node22</title>
<path fill="none" stroke="#63b8ff" d="M754.23,-450.64C733.55,-441.57 706.6,-429.75 684.18,-419.93"/>
<polygon fill="#63b8ff" stroke="#63b8ff" points="685.86,-416.84 675.29,-416.03 683.05,-423.25 685.86,-416.84"/>
</g>
<!-- Node27 -->
<g id="node27" class="node">
<title>Node27</title>
<g id="a_node27"><a xlink:title=" ">
<polygon fill="#e0e0e0" stroke="#999999" points="1164,-409.5 1114,-409.5 1114,-390.5 1164,-390.5 1164,-409.5"/>
<text text-anchor="middle" x="1139" y="-397.5" font-family="Helvetica,sans-Serif" font-size="10.00">cstring</text>
</a>
</g>
</g>
<!-- Node18&#45;&gt;Node27 -->
<g id="edge60" class="edge">
<title>Node18&#45;&gt;Node27</title>
<path fill="none" stroke="#63b8ff" d="M843.91,-459.14C907.14,-451.88 1011.93,-437.63 1100,-415 1101.87,-414.52 1103.77,-413.99 1105.69,-413.42"/>
<polygon fill="#63b8ff" stroke="#63b8ff" points="1106.68,-416.77 1115.1,-410.34 1104.51,-410.12 1106.68,-416.77"/>
</g>
<!-- Node28 -->
<g id="node28" class="node">
<title>Node28</title>
<g id="a_node28"><a xlink:title=" ">
<polygon fill="#e0e0e0" stroke="#999999" points="861,-409.5 815,-409.5 815,-390.5 861,-390.5 861,-409.5"/>
<text text-anchor="middle" x="838" y="-397.5" font-family="Helvetica,sans-Serif" font-size="10.00">cstdio</text>
</a>
</g>
</g>
<!-- Node18&#45;&gt;Node28 -->
<g id="edge61" class="edge">
<title>Node18&#45;&gt;Node28</title>
<path fill="none" stroke="#63b8ff" d="M798.32,-450.8C805.88,-441.31 815.88,-428.76 823.95,-418.63"/>
<polygon fill="#63b8ff" stroke="#63b8ff" points="826.51,-421.03 830.01,-411.03 821.04,-416.67 826.51,-421.03"/>
</g>
<!-- Node19&#45;&gt;Node7 -->
<g id="edge34" class="edge">
<title>Node19&#45;&gt;Node7</title>
<path fill="none" stroke="#63b8ff" d="M428.56,-318.8C427.32,-311.59 425.78,-302.61 424.34,-294.27"/>
<polygon fill="#63b8ff" stroke="#63b8ff" points="427.83,-293.92 422.69,-284.66 420.94,-295.1 427.83,-293.92"/>
</g>
<!-- Node19&#45;&gt;Node12 -->
<g id="edge35" class="edge">
<title>Node19&#45;&gt;Node12</title>
<path fill="none" stroke="#63b8ff" d="M401.97,-318.7C386.18,-309.93 367.07,-297.59 353,-283 329.35,-258.47 322.98,-249.87 314,-217 302.75,-175.84 301.73,-161.86 314,-121 316.85,-111.51 322.15,-102.16 327.68,-94.16"/>
<polygon fill="#63b8ff" stroke="#63b8ff" points="330.32,-96.47 333.49,-86.36 324.7,-92.29 330.32,-96.47"/>
</g>
<!-- Node19&#45;&gt;Node14 -->
<g id="edge37" class="edge">
<title>Node19&#45;&gt;Node14</title>
<path fill="none" stroke="#63b8ff" d="M504.48,-323.89C567.47,-315.09 652.56,-300.54 682,-283 722.75,-258.72 806,-144.81 841.44,-94.73"/>
<polygon fill="#63b8ff" stroke="#63b8ff" points="844.28,-96.76 847.18,-86.57 838.56,-92.73 844.28,-96.76"/>
</g>
<!-- Node19&#45;&gt;Node16 -->
<g id="edge36" class="edge">
<title>Node19&#45;&gt;Node16</title>
<path fill="none" stroke="#63b8ff" d="M394.87,-318.64C367.33,-307.69 329.71,-292.73 302.98,-282.11"/>
<polygon fill="#63b8ff" stroke="#63b8ff" points="304.6,-278.99 294.01,-278.54 302.01,-285.49 304.6,-278.99"/>
</g>
<!-- Node20&#45;&gt;Node12 -->
<g id="edge39" class="edge">
<title>Node20&#45;&gt;Node12</title>
<path fill="none" stroke="#63b8ff" d="M1038.17,-132.52C917.1,-127.39 648.54,-113.6 424,-85 422.79,-84.85 421.56,-84.68 420.33,-84.52"/>
<polygon fill="#63b8ff" stroke="#63b8ff" points="421.01,-81.08 410.61,-83.1 420,-88.01 421.01,-81.08"/>
</g>
<!-- Node20&#45;&gt;Node14 -->
<g id="edge41" class="edge">
<title>Node20&#45;&gt;Node14</title>
<path fill="none" stroke="#63b8ff" d="M1047.71,-120.56C1010.95,-110.95 962.48,-98.29 923.74,-88.17"/>
<polygon fill="#63b8ff" stroke="#63b8ff" points="925.11,-84.91 914.55,-85.77 923.34,-91.69 925.11,-84.91"/>
</g>
<!-- Node21 -->
<g id="node21" class="node">
<title>Node21</title>
<g id="a_node21"><a xlink:title=" ">
<polygon fill="#e0e0e0" stroke="#999999" points="1135.5,-79.5 1070.5,-79.5 1070.5,-60.5 1135.5,-60.5 1135.5,-79.5"/>
<text text-anchor="middle" x="1103" y="-67.5" font-family="Helvetica,sans-Serif" font-size="10.00">exception</text>
</a>
</g>
</g>
<!-- Node20&#45;&gt;Node21 -->
<g id="edge40" class="edge">
<title>Node20&#45;&gt;Node21</title>
<path fill="none" stroke="#63b8ff" d="M1103,-120.8C1103,-112.09 1103,-100.81 1103,-91.18"/>
<polygon fill="#63b8ff" stroke="#63b8ff" points="1106.5,-91.36 1103,-81.36 1099.5,-91.36 1106.5,-91.36"/>
</g>
<!-- Node22&#45;&gt;Node6 -->
<g id="edge48" class="edge">
<title>Node22&#45;&gt;Node6</title>
<path fill="none" stroke="#63b8ff" d="M584.06,-390.3C514.39,-379.66 395.56,-361.51 313.13,-348.92"/>
<polygon fill="#63b8ff" stroke="#63b8ff" points="313.66,-345.46 303.24,-347.41 312.6,-352.38 313.66,-345.46"/>
</g>
<!-- Node22&#45;&gt;Node12 -->
<g id="edge57" class="edge">
<title>Node22&#45;&gt;Node12</title>
<path fill="none" stroke="#63b8ff" d="M606.84,-384.53C589.16,-375.94 567.99,-363.82 552,-349 514.39,-314.15 528.88,-283.96 488,-253 446.66,-221.69 413.57,-253.77 377,-217 345.29,-185.11 342.81,-129.23 344.48,-96.63"/>
<polygon fill="#63b8ff" stroke="#63b8ff" points="347.96,-97.11 345.17,-86.88 340.98,-96.61 347.96,-97.11"/>
</g>
<!-- Node22&#45;&gt;Node14 -->
<g id="edge58" class="edge">
<title>Node22&#45;&gt;Node14</title>
<path fill="none" stroke="#63b8ff" d="M669.69,-384.64C685.64,-375.77 705.2,-363.35 720,-349 796.28,-275.03 820.33,-251.78 854,-151 859.86,-133.45 860.71,-112.53 860.18,-96.48"/>
<polygon fill="#63b8ff" stroke="#63b8ff" points="863.69,-96.6 859.64,-86.81 856.7,-96.99 863.69,-96.6"/>
</g>
<!-- Node23 -->
<g id="node23" class="node">
<title>Node23</title>
<g id="a_node23"><a xlink:href="tags_8hpp.html" target="_top" xlink:title=" ">
<polygon fill="white" stroke="#666666" points="677.5,-349 560.5,-349 560.5,-319 677.5,-319 677.5,-349"/>
<text text-anchor="start" x="568.5" y="-337" font-family="Helvetica,sans-Serif" font-size="10.00">proxsuite/linalg/veg</text>
<text text-anchor="middle" x="619" y="-326" font-family="Helvetica,sans-Serif" font-size="10.00">/type_traits/tags.hpp</text>
</a>
</g>
</g>
<!-- Node22&#45;&gt;Node23 -->
<g id="edge44" class="edge">
<title>Node22&#45;&gt;Node23</title>
<path fill="none" stroke="#63b8ff" d="M636.12,-384.8C633.61,-377.5 630.48,-368.41 627.59,-359.99"/>
<polygon fill="#63b8ff" stroke="#63b8ff" points="630.92,-358.91 624.36,-350.6 624.3,-361.19 630.92,-358.91"/>
</g>
<!-- Node24 -->
<g id="node24" class="node">
<title>Node24</title>
<g id="a_node24"><a xlink:href="address_8hpp.html" target="_top" xlink:title=" ">
<polygon fill="white" stroke="#666666" points="938.5,-349 815.5,-349 815.5,-319 938.5,-319 938.5,-349"/>
<text text-anchor="start" x="823.5" y="-337" font-family="Helvetica,sans-Serif" font-size="10.00">proxsuite/linalg/veg</text>
<text text-anchor="middle" x="877" y="-326" font-family="Helvetica,sans-Serif" font-size="10.00">/memory/address.hpp</text>
</a>
</g>
</g>
<!-- Node22&#45;&gt;Node24 -->
<g id="edge49" class="edge">
<title>Node22&#45;&gt;Node24</title>
<path fill="none" stroke="#63b8ff" d="M694.26,-384.56C729.52,-374.99 775.96,-362.4 813.2,-352.3"/>
<polygon fill="#63b8ff" stroke="#63b8ff" points="813.74,-355.78 822.48,-349.79 811.91,-349.03 813.74,-355.78"/>
</g>
<!-- Node23&#45;&gt;Node7 -->
<g id="edge45" class="edge">
<title>Node23&#45;&gt;Node7</title>
<path fill="none" stroke="#63b8ff" d="M574.34,-318.64C545.13,-309.24 506.74,-296.9 475.56,-286.87"/>
<polygon fill="#63b8ff" stroke="#63b8ff" points="476.89,-283.62 466.3,-283.89 474.74,-290.28 476.89,-283.62"/>
</g>
<!-- Node23&#45;&gt;Node12 -->
<g id="edge46" class="edge">
<title>Node23&#45;&gt;Node12</title>
<path fill="none" stroke="#63b8ff" d="M605.06,-318.51C587.16,-300.69 554.41,-270.64 521,-253 471.01,-226.6 440.06,-255.86 399,-217 381.19,-200.15 362.38,-133.28 353.02,-96.16"/>
<polygon fill="#63b8ff" stroke="#63b8ff" points="356.49,-95.59 350.69,-86.72 349.69,-97.27 356.49,-95.59"/>
</g>
<!-- Node23&#45;&gt;Node14 -->
<g id="edge47" class="edge">
<title>Node23&#45;&gt;Node14</title>
<path fill="none" stroke="#63b8ff" d="M656.57,-318.68C676.52,-310.05 700.82,-297.86 720,-283 727.66,-277.07 829.34,-159.49 834,-151 843.43,-133.81 849.59,-112.47 853.31,-96.15"/>
<polygon fill="#63b8ff" stroke="#63b8ff" points="856.65,-97.28 855.28,-86.77 849.8,-95.84 856.65,-97.28"/>
</g>
<!-- Node24&#45;&gt;Node7 -->
<g id="edge50" class="edge">
<title>Node24&#45;&gt;Node7</title>
<path fill="none" stroke="#63b8ff" d="M815.37,-324.37C730.76,-312.52 579.03,-291.27 490.16,-278.83"/>
<polygon fill="#63b8ff" stroke="#63b8ff" points="490.74,-275.37 480.35,-277.45 489.77,-282.3 490.74,-275.37"/>
</g>
<!-- Node24&#45;&gt;Node12 -->
<g id="edge54" class="edge">
<title>Node24&#45;&gt;Node12</title>
<path fill="none" stroke="#63b8ff" d="M850.44,-318.57C800.75,-291.74 690.16,-232.73 595,-187 559.49,-169.94 548.41,-170.17 514,-151 493.32,-139.48 490.86,-132.19 470,-121 447.57,-108.97 421.6,-98.01 399.32,-89.45"/>
<polygon fill="#63b8ff" stroke="#63b8ff" points="400.72,-86.23 390.13,-85.97 398.25,-92.78 400.72,-86.23"/>
</g>
<!-- Node24&#45;&gt;Node14 -->
<g id="edge56" class="edge">
<title>Node24&#45;&gt;Node14</title>
<path fill="none" stroke="#63b8ff" d="M891.88,-318.77C900.45,-309.51 910.41,-296.64 915,-283 926.41,-249.12 953.09,-217.11 910,-121 905.16,-110.2 896.81,-100.56 888.19,-92.7"/>
<polygon fill="#63b8ff" stroke="#63b8ff" points="890.67,-90.2 880.77,-86.42 886.15,-95.55 890.67,-90.2"/>
</g>
<!-- Node25 -->
<g id="node25" class="node">
<title>Node25</title>
<g id="a_node25"><a xlink:href="std_8hpp.html" target="_top" xlink:title=" ">
<polygon fill="white" stroke="#666666" points="1337.5,-151 1224.5,-151 1224.5,-121 1337.5,-121 1337.5,-151"/>
<text text-anchor="start" x="1232.5" y="-139" font-family="Helvetica,sans-Serif" font-size="10.00">proxsuite/linalg/veg</text>
<text text-anchor="middle" x="1281" y="-128" font-family="Helvetica,sans-Serif" font-size="10.00">/internal/std.hpp</text>
</a>
</g>
</g>
<!-- Node24&#45;&gt;Node25 -->
<g id="edge51" class="edge">
<title>Node24&#45;&gt;Node25</title>
<path fill="none" stroke="#63b8ff" d="M906.71,-318.59C978.21,-283.9 1159.95,-195.73 1240.97,-156.42"/>
<polygon fill="#63b8ff" stroke="#63b8ff" points="1242.42,-159.61 1249.89,-152.09 1239.36,-153.31 1242.42,-159.61"/>
</g>
<!-- Node26 -->
<g id="node26" class="node">
<title>Node26</title>
<g id="a_node26"><a xlink:title=" ">
<polygon fill="#e0e0e0" stroke="#999999" points="906,-277.5 848,-277.5 848,-258.5 906,-258.5 906,-277.5"/>
<text text-anchor="middle" x="877" y="-265.5" font-family="Helvetica,sans-Serif" font-size="10.00">memory</text>
</a>
</g>
</g>
<!-- Node24&#45;&gt;Node26 -->
<g id="edge55" class="edge">
<title>Node24&#45;&gt;Node26</title>
<path fill="none" stroke="#63b8ff" d="M877,-318.8C877,-310.09 877,-298.81 877,-289.18"/>
<polygon fill="#63b8ff" stroke="#63b8ff" points="880.5,-289.36 877,-279.36 873.5,-289.36 880.5,-289.36"/>
</g>
<!-- Node25&#45;&gt;Node3 -->
<g id="edge52" class="edge">
<title>Node25&#45;&gt;Node3</title>
<path fill="none" stroke="#63b8ff" d="M1262.44,-120.55C1237.37,-101.88 1190.53,-70 1145,-55 1073.59,-31.47 848.13,-17.22 758.89,-12.37"/>
<polygon fill="#63b8ff" stroke="#63b8ff" points="759.16,-8.88 748.98,-11.84 758.78,-15.87 759.16,-8.88"/>
</g>
<!-- Node25&#45;&gt;Node13 -->
<g id="edge53" class="edge">
<title>Node25&#45;&gt;Node13</title>
<path fill="none" stroke="#63b8ff" d="M1224.15,-122.28C1172.32,-110.68 1096.4,-93.69 1046.35,-82.49"/>
<polygon fill="#63b8ff" stroke="#63b8ff" points="1047.15,-79.08 1036.63,-80.32 1045.63,-85.92 1047.15,-79.08"/>
</g>
</g>
</svg>
