<?xml version="1.0" encoding="UTF-8" standalone="no"?>
<!DOCTYPE svg PUBLIC "-//W3C//DTD SVG 1.1//EN"
 "http://www.w3.org/Graphics/SVG/1.1/DTD/svg11.dtd">
<!-- Generated by graphviz version 5.0.1 (20220821.0811)
 -->
<!-- Title: include/proxsuite/linalg/veg/util/assert.hpp Pages: 1 -->
<svg width="1403pt" height="621pt"
 viewBox="0.00 0.00 1402.50 621.00" xmlns="http://www.w3.org/2000/svg" xmlns:xlink="http://www.w3.org/1999/xlink">
<g id="graph0" class="graph" transform="scale(1 1) rotate(0) translate(4 617)">
<title>include/proxsuite/linalg/veg/util/assert.hpp</title>
<!-- Node1 -->
<g id="node1" class="node">
<title>Node1</title>
<g id="a_node1"><a xlink:title=" ">
<polygon fill="#999999" stroke="#666666" points="705.5,-613 574.5,-613 574.5,-583 705.5,-583 705.5,-613"/>
<text text-anchor="start" x="582.5" y="-601" font-family="Helvetica,sans-Serif" font-size="10.00">include/proxsuite/linalg</text>
<text text-anchor="middle" x="640" y="-590" font-family="Helvetica,sans-Serif" font-size="10.00">/veg/util/assert.hpp</text>
</a>
</g>
</g>
<!-- Node2 -->
<g id="node2" class="node">
<title>Node2</title>
<g id="a_node2"><a xlink:href="assert__impl_8hpp.html" target="_top" xlink:title=" ">
<polygon fill="white" stroke="#666666" points="709,-547 571,-547 571,-517 709,-517 709,-547"/>
<text text-anchor="start" x="579" y="-535" font-family="Helvetica,sans-Serif" font-size="10.00">proxsuite/linalg/veg</text>
<text text-anchor="middle" x="640" y="-524" font-family="Helvetica,sans-Serif" font-size="10.00">/internal/assert_impl.hpp</text>
</a>
</g>
</g>
<!-- Node1&#45;&gt;Node2 -->
<g id="edge1" class="edge">
<title>Node1&#45;&gt;Node2</title>
<path fill="none" stroke="#63b8ff" d="M640,-582.8C640,-575.34 640,-565.99 640,-557.41"/>
<polygon fill="#63b8ff" stroke="#63b8ff" points="643.5,-557.16 640,-547.16 636.5,-557.16 643.5,-557.16"/>
</g>
<!-- Node3 -->
<g id="node3" class="node">
<title>Node3</title>
<g id="a_node3"><a xlink:href="typedefs_8hpp.html" target="_top" xlink:title=" ">
<polygon fill="white" stroke="#666666" points="468,-85 344,-85 344,-55 468,-55 468,-85"/>
<text text-anchor="start" x="352" y="-73" font-family="Helvetica,sans-Serif" font-size="10.00">proxsuite/linalg/veg</text>
<text text-anchor="middle" x="406" y="-62" font-family="Helvetica,sans-Serif" font-size="10.00">/internal/typedefs.hpp</text>
</a>
</g>
</g>
<!-- Node2&#45;&gt;Node3 -->
<g id="edge2" class="edge">
<title>Node2&#45;&gt;Node3</title>
<path fill="none" stroke="#63b8ff" d="M570.71,-526.73C507.72,-521.2 412.98,-508.74 335,-481 279.48,-461.25 249.53,-466 220,-415 150.01,-294.14 312.59,-145.41 379.18,-91.62"/>
<polygon fill="#63b8ff" stroke="#63b8ff" points="381.53,-94.22 387.17,-85.25 377.17,-88.75 381.53,-94.22"/>
</g>
<!-- Node6 -->
<g id="node6" class="node">
<title>Node6</title>
<g id="a_node6"><a xlink:href="defer_8hpp.html" target="_top" xlink:title=" ">
<polygon fill="white" stroke="#666666" points="457.5,-481 344.5,-481 344.5,-451 457.5,-451 457.5,-481"/>
<text text-anchor="start" x="352.5" y="-469" font-family="Helvetica,sans-Serif" font-size="10.00">proxsuite/linalg/veg</text>
<text text-anchor="middle" x="401" y="-458" font-family="Helvetica,sans-Serif" font-size="10.00">/util/defer.hpp</text>
</a>
</g>
</g>
<!-- Node2&#45;&gt;Node6 -->
<g id="edge5" class="edge">
<title>Node2&#45;&gt;Node6</title>
<path fill="none" stroke="#63b8ff" d="M587.55,-516.95C550.97,-507.16 502,-494.05 463.41,-483.71"/>
<polygon fill="#63b8ff" stroke="#63b8ff" points="463.89,-480.22 453.33,-481.01 462.08,-486.98 463.89,-480.22"/>
</g>
<!-- Node13 -->
<g id="node13" class="node">
<title>Node13</title>
<g id="a_node13"><a xlink:href="prologue_8hpp.html" target="_top" xlink:title=" ">
<polygon fill="white" stroke="#666666" points="965,-85 841,-85 841,-55 965,-55 965,-85"/>
<text text-anchor="start" x="849" y="-73" font-family="Helvetica,sans-Serif" font-size="10.00">proxsuite/linalg/veg</text>
<text text-anchor="middle" x="903" y="-62" font-family="Helvetica,sans-Serif" font-size="10.00">/internal/prologue.hpp</text>
</a>
</g>
</g>
<!-- Node2&#45;&gt;Node13 -->
<g id="edge63" class="edge">
<title>Node2&#45;&gt;Node13</title>
<path fill="none" stroke="#63b8ff" d="M709.13,-530.77C869.44,-528.38 1253,-511.15 1253,-401 1253,-401 1253,-401 1253,-201 1253,-164.46 1260.89,-145.74 1234,-121 1231.62,-118.81 1071.75,-95.38 975.09,-81.38"/>
<polygon fill="#63b8ff" stroke="#63b8ff" points="975.47,-77.9 965.07,-79.94 974.47,-84.83 975.47,-77.9"/>
</g>
<!-- Node15 -->
<g id="node15" class="node">
<title>Node15</title>
<g id="a_node15"><a xlink:href="epilogue_8hpp.html" target="_top" xlink:title=" ">
<polygon fill="white" stroke="#666666" points="289.5,-85 166.5,-85 166.5,-55 289.5,-55 289.5,-85"/>
<text text-anchor="start" x="174.5" y="-73" font-family="Helvetica,sans-Serif" font-size="10.00">proxsuite/linalg/veg</text>
<text text-anchor="middle" x="228" y="-62" font-family="Helvetica,sans-Serif" font-size="10.00">/internal/epilogue.hpp</text>
</a>
</g>
</g>
<!-- Node2&#45;&gt;Node15 -->
<g id="edge65" class="edge">
<title>Node2&#45;&gt;Node15</title>
<path fill="none" stroke="#63b8ff" d="M570.9,-531.4C405.41,-530.5 0,-516.51 0,-401 0,-401 0,-401 0,-201 0,-161.44 8.44,-146.11 39,-121 71.86,-94 117.83,-81.45 156.21,-75.68"/>
<polygon fill="#63b8ff" stroke="#63b8ff" points="156.87,-79.12 166.3,-74.28 155.91,-72.18 156.87,-79.12"/>
</g>
<!-- Node18 -->
<g id="node18" class="node">
<title>Node18</title>
<g id="a_node18"><a xlink:href="internal_2dbg_8hpp.html" target="_top" xlink:title=" ">
<polygon fill="white" stroke="#666666" points="878.5,-481 765.5,-481 765.5,-451 878.5,-451 878.5,-481"/>
<text text-anchor="start" x="773.5" y="-469" font-family="Helvetica,sans-Serif" font-size="10.00">proxsuite/linalg/veg</text>
<text text-anchor="middle" x="822" y="-458" font-family="Helvetica,sans-Serif" font-size="10.00">/internal/dbg.hpp</text>
</a>
</g>
</g>
<!-- Node2&#45;&gt;Node18 -->
<g id="edge32" class="edge">
<title>Node2&#45;&gt;Node18</title>
<path fill="none" stroke="#63b8ff" d="M679.94,-516.95C707.2,-507.37 743.51,-494.6 772.59,-484.37"/>
<polygon fill="#63b8ff" stroke="#63b8ff" points="773.88,-487.63 782.15,-481.01 771.56,-481.03 773.88,-487.63"/>
</g>
<!-- Node29 -->
<g id="node29" class="node">
<title>Node29</title>
<g id="a_node29"><a xlink:title=" ">
<polygon fill="#e0e0e0" stroke="#999999" points="1333,-475.5 1281,-475.5 1281,-456.5 1333,-456.5 1333,-475.5"/>
<text text-anchor="middle" x="1307" y="-463.5" font-family="Helvetica,sans-Serif" font-size="10.00">cassert</text>
</a>
</g>
</g>
<!-- Node2&#45;&gt;Node29 -->
<g id="edge64" class="edge">
<title>Node2&#45;&gt;Node29</title>
<path fill="none" stroke="#63b8ff" d="M709.02,-531.25C825.39,-530.4 1067.47,-523.14 1267,-481 1270,-480.37 1273.08,-479.57 1276.14,-478.68"/>
<polygon fill="#63b8ff" stroke="#63b8ff" points="1277.26,-481.99 1285.7,-475.59 1275.11,-475.33 1277.26,-481.99"/>
</g>
<!-- Node4 -->
<g id="node4" class="node">
<title>Node4</title>
<g id="a_node4"><a xlink:title=" ">
<polygon fill="#e0e0e0" stroke="#999999" points="902,-19 852,-19 852,0 902,0 902,-19"/>
<text text-anchor="middle" x="877" y="-7" font-family="Helvetica,sans-Serif" font-size="10.00">cstdint</text>
</a>
</g>
</g>
<!-- Node3&#45;&gt;Node4 -->
<g id="edge3" class="edge">
<title>Node3&#45;&gt;Node4</title>
<path fill="none" stroke="#63b8ff" d="M468.29,-56.41C471.23,-55.91 474.14,-55.44 477,-55 611,-34.37 771.67,-19.45 841.6,-13.43"/>
<polygon fill="#63b8ff" stroke="#63b8ff" points="841.96,-16.91 851.63,-12.58 841.37,-9.94 841.96,-16.91"/>
</g>
<!-- Node5 -->
<g id="node5" class="node">
<title>Node5</title>
<g id="a_node5"><a xlink:title=" ">
<polygon fill="#e0e0e0" stroke="#999999" points="432.5,-19 379.5,-19 379.5,0 432.5,0 432.5,-19"/>
<text text-anchor="middle" x="406" y="-7" font-family="Helvetica,sans-Serif" font-size="10.00">cstddef</text>
</a>
</g>
</g>
<!-- Node3&#45;&gt;Node5 -->
<g id="edge4" class="edge">
<title>Node3&#45;&gt;Node5</title>
<path fill="none" stroke="#63b8ff" d="M406,-54.84C406,-47.21 406,-37.7 406,-29.45"/>
<polygon fill="#63b8ff" stroke="#63b8ff" points="409.5,-29.27 406,-19.27 402.5,-29.27 409.5,-29.27"/>
</g>
<!-- Node7 -->
<g id="node7" class="node">
<title>Node7</title>
<g id="a_node7"><a xlink:href="constructible_8hpp.html" target="_top" xlink:title=" ">
<polygon fill="white" stroke="#666666" points="601.5,-349 442.5,-349 442.5,-319 601.5,-319 601.5,-349"/>
<text text-anchor="start" x="450.5" y="-337" font-family="Helvetica,sans-Serif" font-size="10.00">proxsuite/linalg/veg</text>
<text text-anchor="middle" x="522" y="-326" font-family="Helvetica,sans-Serif" font-size="10.00">/type_traits/constructible.hpp</text>
</a>
</g>
</g>
<!-- Node6&#45;&gt;Node7 -->
<g id="edge6" class="edge">
<title>Node6&#45;&gt;Node7</title>
<path fill="none" stroke="#63b8ff" d="M414.18,-450.84C435.36,-428.08 477.13,-383.21 502,-356.49"/>
<polygon fill="#63b8ff" stroke="#63b8ff" points="504.59,-358.85 508.84,-349.14 499.46,-354.08 504.59,-358.85"/>
</g>
<!-- Node6&#45;&gt;Node13 -->
<g id="edge30" class="edge">
<title>Node6&#45;&gt;Node13</title>
<path fill="none" stroke="#63b8ff" d="M399.62,-450.72C397.65,-421.7 397.6,-355.51 433,-319 478.62,-271.95 517.59,-312.72 576,-283 594.56,-273.55 593.75,-263.04 612,-253 657.81,-227.8 678.05,-241.96 724,-217 740.96,-207.79 833.64,-129.86 878.57,-91.78"/>
<polygon fill="#63b8ff" stroke="#63b8ff" points="881.01,-94.3 886.37,-85.16 876.48,-88.96 881.01,-94.3"/>
</g>
<!-- Node6&#45;&gt;Node15 -->
<g id="edge31" class="edge">
<title>Node6&#45;&gt;Node15</title>
<path fill="none" stroke="#63b8ff" d="M344.28,-456.74C242.19,-440.26 38,-399.26 38,-335 38,-335 38,-335 38,-201 38,-163.88 35.77,-147.26 62,-121 86.87,-96.11 123.64,-83.52 156.26,-77.19"/>
<polygon fill="#63b8ff" stroke="#63b8ff" points="157,-80.62 166.23,-75.43 155.77,-73.73 157,-80.62"/>
</g>
<!-- Node17 -->
<g id="node17" class="node">
<title>Node17</title>
<g id="a_node17"><a xlink:href="invocable_8hpp.html" target="_top" xlink:title=" ">
<polygon fill="white" stroke="#666666" points="372.5,-415 229.5,-415 229.5,-385 372.5,-385 372.5,-415"/>
<text text-anchor="start" x="237.5" y="-403" font-family="Helvetica,sans-Serif" font-size="10.00">proxsuite/linalg/veg</text>
<text text-anchor="middle" x="301" y="-392" font-family="Helvetica,sans-Serif" font-size="10.00">/type_traits/invocable.hpp</text>
</a>
</g>
</g>
<!-- Node6&#45;&gt;Node17 -->
<g id="edge25" class="edge">
<title>Node6&#45;&gt;Node17</title>
<path fill="none" stroke="#63b8ff" d="M378.81,-450.8C364.95,-441.93 346.93,-430.39 331.71,-420.66"/>
<polygon fill="#63b8ff" stroke="#63b8ff" points="333.44,-417.61 323.13,-415.16 329.67,-423.5 333.44,-417.61"/>
</g>
<!-- Node8 -->
<g id="node8" class="node">
<title>Node8</title>
<g id="a_node8"><a xlink:href="veg_2type__traits_2core_8hpp.html" target="_top" xlink:title=" ">
<polygon fill="white" stroke="#666666" points="531.5,-283 414.5,-283 414.5,-253 531.5,-253 531.5,-283"/>
<text text-anchor="start" x="422.5" y="-271" font-family="Helvetica,sans-Serif" font-size="10.00">proxsuite/linalg/veg</text>
<text text-anchor="middle" x="473" y="-260" font-family="Helvetica,sans-Serif" font-size="10.00">/type_traits/core.hpp</text>
</a>
</g>
</g>
<!-- Node7&#45;&gt;Node8 -->
<g id="edge7" class="edge">
<title>Node7&#45;&gt;Node8</title>
<path fill="none" stroke="#63b8ff" d="M511.13,-318.8C504.91,-310.68 496.98,-300.31 489.96,-291.15"/>
<polygon fill="#63b8ff" stroke="#63b8ff" points="492.7,-288.98 483.84,-283.16 487.14,-293.23 492.7,-288.98"/>
</g>
<!-- Node7&#45;&gt;Node13 -->
<g id="edge22" class="edge">
<title>Node7&#45;&gt;Node13</title>
<path fill="none" stroke="#63b8ff" d="M549.19,-318.83C567.27,-309.18 591.38,-295.87 612,-283 631.77,-270.66 633.81,-262.71 655,-253 713.8,-226.06 742.41,-253.21 796,-217 808.35,-208.65 861.2,-132.44 887.71,-93.57"/>
<polygon fill="#63b8ff" stroke="#63b8ff" points="890.81,-95.24 893.54,-85 885.02,-91.3 890.81,-95.24"/>
</g>
<!-- Node7&#45;&gt;Node15 -->
<g id="edge24" class="edge">
<title>Node7&#45;&gt;Node15</title>
<path fill="none" stroke="#63b8ff" d="M442.42,-320.35C365.37,-307.79 259.15,-289.49 252,-283 197.23,-233.31 203.94,-194.27 214,-121 215.19,-112.33 217.49,-103.05 219.89,-94.87"/>
<polygon fill="#63b8ff" stroke="#63b8ff" points="223.26,-95.81 222.9,-85.22 216.58,-93.72 223.26,-95.81"/>
</g>
<!-- Node16 -->
<g id="node16" class="node">
<title>Node16</title>
<g id="a_node16"><a xlink:title=" ">
<polygon fill="#e0e0e0" stroke="#999999" points="733.5,-277.5 664.5,-277.5 664.5,-258.5 733.5,-258.5 733.5,-277.5"/>
<text text-anchor="middle" x="699" y="-265.5" font-family="Helvetica,sans-Serif" font-size="10.00">type_traits</text>
</a>
</g>
</g>
<!-- Node7&#45;&gt;Node16 -->
<g id="edge23" class="edge">
<title>Node7&#45;&gt;Node16</title>
<path fill="none" stroke="#63b8ff" d="M560.84,-318.95C592.29,-307.58 636.12,-291.74 665.91,-280.96"/>
<polygon fill="#63b8ff" stroke="#63b8ff" points="667.23,-284.21 675.44,-277.52 664.85,-277.63 667.23,-284.21"/>
</g>
<!-- Node8&#45;&gt;Node3 -->
<g id="edge8" class="edge">
<title>Node8&#45;&gt;Node3</title>
<path fill="none" stroke="#63b8ff" d="M468.18,-252.9C456.81,-219.65 428.22,-136 414.12,-94.75"/>
<polygon fill="#63b8ff" stroke="#63b8ff" points="417.41,-93.56 410.86,-85.23 410.79,-95.83 417.41,-93.56"/>
</g>
<!-- Node9 -->
<g id="node9" class="node">
<title>Node9</title>
<g id="a_node9"><a xlink:href="integer__seq_8hpp.html" target="_top" xlink:title=" ">
<polygon fill="white" stroke="#666666" points="660,-217 522,-217 522,-187 660,-187 660,-217"/>
<text text-anchor="start" x="530" y="-205" font-family="Helvetica,sans-Serif" font-size="10.00">proxsuite/linalg/veg</text>
<text text-anchor="middle" x="591" y="-194" font-family="Helvetica,sans-Serif" font-size="10.00">/internal/integer_seq.hpp</text>
</a>
</g>
</g>
<!-- Node8&#45;&gt;Node9 -->
<g id="edge9" class="edge">
<title>Node8&#45;&gt;Node9</title>
<path fill="none" stroke="#63b8ff" d="M498.9,-252.95C515.73,-243.83 537.87,-231.82 556.23,-221.86"/>
<polygon fill="#63b8ff" stroke="#63b8ff" points="558.04,-224.86 565.16,-217.01 554.71,-218.7 558.04,-224.86"/>
</g>
<!-- Node8&#45;&gt;Node13 -->
<g id="edge20" class="edge">
<title>Node8&#45;&gt;Node13</title>
<path fill="none" stroke="#63b8ff" d="M531.73,-254.32C585.28,-242.39 657.73,-225.17 669,-217 709.93,-187.33 689.54,-151.31 730,-121 746.35,-108.75 791.11,-95.97 831.01,-86.4"/>
<polygon fill="#63b8ff" stroke="#63b8ff" points="831.83,-89.8 840.76,-84.1 830.22,-82.99 831.83,-89.8"/>
</g>
<!-- Node8&#45;&gt;Node15 -->
<g id="edge21" class="edge">
<title>Node8&#45;&gt;Node15</title>
<path fill="none" stroke="#63b8ff" d="M455.38,-252.9C412.75,-218.8 303.89,-131.71 253.86,-91.69"/>
<polygon fill="#63b8ff" stroke="#63b8ff" points="255.78,-88.75 245.79,-85.23 251.41,-94.21 255.78,-88.75"/>
</g>
<!-- Node9&#45;&gt;Node3 -->
<g id="edge10" class="edge">
<title>Node9&#45;&gt;Node3</title>
<path fill="none" stroke="#63b8ff" d="M568.19,-186.98C552.49,-177.19 531.24,-163.64 513,-151 484.89,-131.52 453.67,-107.95 432.25,-91.45"/>
<polygon fill="#63b8ff" stroke="#63b8ff" points="434.32,-88.63 424.26,-85.28 430.04,-94.17 434.32,-88.63"/>
</g>
<!-- Node10 -->
<g id="node10" class="node">
<title>Node10</title>
<g id="a_node10"><a xlink:href="macros_8hpp.html" target="_top" xlink:title=" ">
<polygon fill="white" stroke="#666666" points="639.5,-151 522.5,-151 522.5,-121 639.5,-121 639.5,-151"/>
<text text-anchor="start" x="530.5" y="-139" font-family="Helvetica,sans-Serif" font-size="10.00">proxsuite/linalg/veg</text>
<text text-anchor="middle" x="581" y="-128" font-family="Helvetica,sans-Serif" font-size="10.00">/internal/macros.hpp</text>
</a>
</g>
</g>
<!-- Node9&#45;&gt;Node10 -->
<g id="edge11" class="edge">
<title>Node9&#45;&gt;Node10</title>
<path fill="none" stroke="#63b8ff" d="M588.78,-186.8C587.6,-179.26 586.12,-169.78 584.77,-161.13"/>
<polygon fill="#63b8ff" stroke="#63b8ff" points="588.22,-160.5 583.21,-151.16 581.3,-161.58 588.22,-160.5"/>
</g>
<!-- Node9&#45;&gt;Node13 -->
<g id="edge18" class="edge">
<title>Node9&#45;&gt;Node13</title>
<path fill="none" stroke="#63b8ff" d="M607.24,-186.7C630.84,-166.16 673.78,-129.83 692,-121 704.7,-114.84 774.96,-98.74 830.96,-86.45"/>
<polygon fill="#63b8ff" stroke="#63b8ff" points="831.86,-89.84 840.88,-84.28 830.36,-83 831.86,-89.84"/>
</g>
<!-- Node9&#45;&gt;Node15 -->
<g id="edge19" class="edge">
<title>Node9&#45;&gt;Node15</title>
<path fill="none" stroke="#63b8ff" d="M557.51,-186.96C510,-167.11 425.33,-132.05 394,-121 359.68,-108.89 320.75,-97.07 289.22,-87.96"/>
<polygon fill="#63b8ff" stroke="#63b8ff" points="289.83,-84.5 279.25,-85.1 287.9,-91.22 289.83,-84.5"/>
</g>
<!-- Node10&#45;&gt;Node3 -->
<g id="edge13" class="edge">
<title>Node10&#45;&gt;Node3</title>
<path fill="none" stroke="#63b8ff" d="M542.6,-120.95C516.49,-111.41 481.78,-98.71 453.87,-88.51"/>
<polygon fill="#63b8ff" stroke="#63b8ff" points="454.91,-85.16 444.31,-85.01 452.5,-91.73 454.91,-85.16"/>
</g>
<!-- Node11 -->
<g id="node11" class="node">
<title>Node11</title>
<g id="a_node11"><a xlink:href="hedley_8ext_8hpp.html" target="_top" xlink:title=" ">
<polygon fill="white" stroke="#666666" points="661.5,-85 486.5,-85 486.5,-55 661.5,-55 661.5,-85"/>
<text text-anchor="start" x="494.5" y="-73" font-family="Helvetica,sans-Serif" font-size="10.00">proxsuite/linalg/veg</text>
<text text-anchor="middle" x="574" y="-62" font-family="Helvetica,sans-Serif" font-size="10.00">/internal/external/hedley.ext.hpp</text>
</a>
</g>
</g>
<!-- Node10&#45;&gt;Node11 -->
<g id="edge12" class="edge">
<title>Node10&#45;&gt;Node11</title>
<path fill="none" stroke="#63b8ff" d="M579.45,-120.8C578.62,-113.26 577.59,-103.78 576.64,-95.13"/>
<polygon fill="#63b8ff" stroke="#63b8ff" points="580.12,-94.72 575.55,-85.16 573.16,-95.49 580.12,-94.72"/>
</g>
<!-- Node12 -->
<g id="node12" class="node">
<title>Node12</title>
<g id="a_node12"><a xlink:href="preprocessor_8hpp.html" target="_top" xlink:title=" ">
<polygon fill="white" stroke="#666666" points="822.5,-85 679.5,-85 679.5,-55 822.5,-55 822.5,-85"/>
<text text-anchor="start" x="687.5" y="-73" font-family="Helvetica,sans-Serif" font-size="10.00">proxsuite/linalg/veg</text>
<text text-anchor="middle" x="751" y="-62" font-family="Helvetica,sans-Serif" font-size="10.00">/internal/preprocessor.hpp</text>
</a>
</g>
</g>
<!-- Node10&#45;&gt;Node12 -->
<g id="edge14" class="edge">
<title>Node10&#45;&gt;Node12</title>
<path fill="none" stroke="#63b8ff" d="M618.31,-120.95C643.55,-111.45 677.09,-98.82 704.14,-88.64"/>
<polygon fill="#63b8ff" stroke="#63b8ff" points="705.65,-91.81 713.78,-85.01 703.19,-85.26 705.65,-91.81"/>
</g>
<!-- Node10&#45;&gt;Node13 -->
<g id="edge15" class="edge">
<title>Node10&#45;&gt;Node13</title>
<path fill="none" stroke="#63b8ff" d="M639.69,-123.34C693.42,-112.66 773.11,-96.82 830.74,-85.36"/>
<polygon fill="#63b8ff" stroke="#63b8ff" points="831.75,-88.73 840.87,-83.35 830.38,-81.86 831.75,-88.73"/>
</g>
<!-- Node14 -->
<g id="node14" class="node">
<title>Node14</title>
<g id="a_node14"><a xlink:title=" ">
<polygon fill="#e0e0e0" stroke="#999999" points="1095.5,-79.5 1012.5,-79.5 1012.5,-60.5 1095.5,-60.5 1095.5,-79.5"/>
<text text-anchor="middle" x="1054" y="-67.5" font-family="Helvetica,sans-Serif" font-size="10.00">initializer_list</text>
</a>
</g>
</g>
<!-- Node10&#45;&gt;Node14 -->
<g id="edge16" class="edge">
<title>Node10&#45;&gt;Node14</title>
<path fill="none" stroke="#63b8ff" d="M639.71,-128.4C716.64,-119.55 855.67,-102.87 974,-85 983.11,-83.62 992.79,-82.04 1002.14,-80.44"/>
<polygon fill="#63b8ff" stroke="#63b8ff" points="1002.87,-83.86 1012.13,-78.71 1001.67,-76.97 1002.87,-83.86"/>
</g>
<!-- Node10&#45;&gt;Node15 -->
<g id="edge17" class="edge">
<title>Node10&#45;&gt;Node15</title>
<path fill="none" stroke="#63b8ff" d="M522.31,-124.36C461.15,-113.27 365.25,-95.88 299.65,-83.99"/>
<polygon fill="#63b8ff" stroke="#63b8ff" points="300.26,-80.54 289.8,-82.2 299.01,-87.43 300.26,-80.54"/>
</g>
<!-- Node17&#45;&gt;Node7 -->
<g id="edge27" class="edge">
<title>Node17&#45;&gt;Node7</title>
<path fill="none" stroke="#63b8ff" d="M349.5,-384.95C383.18,-375.2 428.22,-362.16 463.84,-351.84"/>
<polygon fill="#63b8ff" stroke="#63b8ff" points="464.98,-355.16 473.61,-349.01 463.03,-348.43 464.98,-355.16"/>
</g>
<!-- Node17&#45;&gt;Node8 -->
<g id="edge26" class="edge">
<title>Node17&#45;&gt;Node8</title>
<path fill="none" stroke="#63b8ff" d="M301.44,-384.91C302.74,-367.23 307.57,-337.04 325,-319 345.9,-297.37 376.48,-285.09 404.42,-278.13"/>
<polygon fill="#63b8ff" stroke="#63b8ff" points="405.21,-281.54 414.17,-275.88 403.64,-274.72 405.21,-281.54"/>
</g>
<!-- Node17&#45;&gt;Node13 -->
<g id="edge28" class="edge">
<title>Node17&#45;&gt;Node13</title>
<path fill="none" stroke="#63b8ff" d="M307.85,-384.92C317.5,-366.66 336.88,-335.23 363,-319 431.18,-276.63 466.05,-314.23 540,-283 561.8,-273.79 562.74,-263.4 584,-253 630.97,-230.04 653.42,-247.34 696,-217 739.43,-186.05 725.25,-152.89 768,-121 787.28,-106.61 811.15,-95.98 833.43,-88.3"/>
<polygon fill="#63b8ff" stroke="#63b8ff" points="834.79,-91.54 843.19,-85.09 832.6,-84.89 834.79,-91.54"/>
</g>
<!-- Node17&#45;&gt;Node15 -->
<g id="edge29" class="edge">
<title>Node17&#45;&gt;Node15</title>
<path fill="none" stroke="#63b8ff" d="M243.11,-384.96C188.19,-367.77 114,-332.76 114,-269 114,-269 114,-269 114,-201 114,-163.88 114.73,-149.92 138,-121 148.76,-107.62 164.12,-97.24 179.11,-89.5"/>
<polygon fill="#63b8ff" stroke="#63b8ff" points="180.89,-92.53 188.35,-85.01 177.83,-86.23 180.89,-92.53"/>
</g>
<!-- Node18&#45;&gt;Node7 -->
<g id="edge42" class="edge">
<title>Node18&#45;&gt;Node7</title>
<path fill="none" stroke="#63b8ff" d="M789.61,-450.96C734.96,-427.28 624.49,-379.41 563.98,-353.19"/>
<polygon fill="#63b8ff" stroke="#63b8ff" points="565.28,-349.94 554.71,-349.17 562.49,-356.36 565.28,-349.94"/>
</g>
<!-- Node18&#45;&gt;Node13 -->
<g id="edge59" class="edge">
<title>Node18&#45;&gt;Node13</title>
<path fill="none" stroke="#63b8ff" d="M878.7,-463.73C962.34,-458.52 1109,-435.1 1109,-335 1109,-335 1109,-335 1109,-267 1109,-178.44 1007.83,-117.75 947.29,-89.35"/>
<polygon fill="#63b8ff" stroke="#63b8ff" points="948.49,-86.06 937.95,-85.08 945.58,-92.42 948.49,-86.06"/>
</g>
<!-- Node18&#45;&gt;Node15 -->
<g id="edge62" class="edge">
<title>Node18&#45;&gt;Node15</title>
<path fill="none" stroke="#63b8ff" d="M765.32,-462.05C625.22,-454.51 270.28,-433.8 220,-415 134.63,-383.08 76,-360.14 76,-269 76,-269 76,-269 76,-201 76,-161.25 87.28,-148.49 116,-121 130.67,-106.96 149.96,-96.44 168.38,-88.77"/>
<polygon fill="#63b8ff" stroke="#63b8ff" points="169.89,-91.93 177.91,-85.01 167.32,-85.42 169.89,-91.93"/>
</g>
<!-- Node19 -->
<g id="node19" class="node">
<title>Node19</title>
<g id="a_node19"><a xlink:href="primitives_8hpp.html" target="_top" xlink:title=" ">
<polygon fill="white" stroke="#666666" points="901,-349 755,-349 755,-319 901,-319 901,-349"/>
<text text-anchor="start" x="763" y="-337" font-family="Helvetica,sans-Serif" font-size="10.00">proxsuite/linalg/veg</text>
<text text-anchor="middle" x="828" y="-326" font-family="Helvetica,sans-Serif" font-size="10.00">/type_traits/primitives.hpp</text>
</a>
</g>
</g>
<!-- Node18&#45;&gt;Node19 -->
<g id="edge33" class="edge">
<title>Node18&#45;&gt;Node19</title>
<path fill="none" stroke="#63b8ff" d="M809.77,-450.79C802.46,-441.33 793.88,-428.25 790,-415 786.26,-402.2 785.74,-397.64 790,-385 793.45,-374.77 799.91,-364.98 806.54,-356.81"/>
<polygon fill="#63b8ff" stroke="#63b8ff" points="809.21,-359.07 813.12,-349.23 803.92,-354.48 809.21,-359.07"/>
</g>
<!-- Node20 -->
<g id="node20" class="node">
<title>Node20</title>
<g id="a_node20"><a xlink:href="terminate_8hpp.html" target="_top" xlink:title=" ">
<polygon fill="white" stroke="#666666" points="1224.5,-151 1095.5,-151 1095.5,-121 1224.5,-121 1224.5,-151"/>
<text text-anchor="start" x="1103.5" y="-139" font-family="Helvetica,sans-Serif" font-size="10.00">proxsuite/linalg/veg</text>
<text text-anchor="middle" x="1160" y="-128" font-family="Helvetica,sans-Serif" font-size="10.00">/internal/terminate.hpp</text>
</a>
</g>
</g>
<!-- Node18&#45;&gt;Node20 -->
<g id="edge38" class="edge">
<title>Node18&#45;&gt;Node20</title>
<path fill="none" stroke="#63b8ff" d="M878.62,-462.6C955.55,-458.19 1087.57,-446.2 1123,-415 1150.86,-390.47 1147,-372.12 1147,-335 1147,-335 1147,-335 1147,-267 1147,-230.09 1152.25,-187.57 1156.08,-161.49"/>
<polygon fill="#63b8ff" stroke="#63b8ff" points="1159.58,-161.79 1157.62,-151.38 1152.65,-160.74 1159.58,-161.79"/>
</g>
<!-- Node22 -->
<g id="node22" class="node">
<title>Node22</title>
<g id="a_node22"><a xlink:href="ref_8hpp.html" target="_top" xlink:title=" ">
<polygon fill="white" stroke="#666666" points="976.5,-415 863.5,-415 863.5,-385 976.5,-385 976.5,-415"/>
<text text-anchor="start" x="871.5" y="-403" font-family="Helvetica,sans-Serif" font-size="10.00">proxsuite/linalg/veg</text>
<text text-anchor="middle" x="920" y="-392" font-family="Helvetica,sans-Serif" font-size="10.00">/ref.hpp</text>
</a>
</g>
</g>
<!-- Node18&#45;&gt;Node22 -->
<g id="edge43" class="edge">
<title>Node18&#45;&gt;Node22</title>
<path fill="none" stroke="#63b8ff" d="M843.75,-450.8C857.33,-441.93 874.99,-430.39 889.9,-420.66"/>
<polygon fill="#63b8ff" stroke="#63b8ff" points="891.85,-423.56 898.31,-415.16 888.02,-417.7 891.85,-423.56"/>
</g>
<!-- Node27 -->
<g id="node27" class="node">
<title>Node27</title>
<g id="a_node27"><a xlink:title=" ">
<polygon fill="#e0e0e0" stroke="#999999" points="1225,-409.5 1175,-409.5 1175,-390.5 1225,-390.5 1225,-409.5"/>
<text text-anchor="middle" x="1200" y="-397.5" font-family="Helvetica,sans-Serif" font-size="10.00">cstring</text>
</a>
</g>
</g>
<!-- Node18&#45;&gt;Node27 -->
<g id="edge60" class="edge">
<title>Node18&#45;&gt;Node27</title>
<path fill="none" stroke="#63b8ff" d="M878.75,-460.1C946.63,-453.44 1063.33,-439.48 1161,-415 1163.5,-414.37 1166.07,-413.65 1168.64,-412.86"/>
<polygon fill="#63b8ff" stroke="#63b8ff" points="1169.99,-416.1 1178.37,-409.62 1167.78,-409.46 1169.99,-416.1"/>
</g>
<!-- Node28 -->
<g id="node28" class="node">
<title>Node28</title>
<g id="a_node28"><a xlink:title=" ">
<polygon fill="#e0e0e0" stroke="#999999" points="845,-409.5 799,-409.5 799,-390.5 845,-390.5 845,-409.5"/>
<text text-anchor="middle" x="822" y="-397.5" font-family="Helvetica,sans-Serif" font-size="10.00">cstdio</text>
</a>
</g>
</g>
<!-- Node18&#45;&gt;Node28 -->
<g id="edge61" class="edge">
<title>Node18&#45;&gt;Node28</title>
<path fill="none" stroke="#63b8ff" d="M822,-450.8C822,-441.7 822,-429.79 822,-419.9"/>
<polygon fill="#63b8ff" stroke="#63b8ff" points="825.5,-419.84 822,-409.84 818.5,-419.84 825.5,-419.84"/>
</g>
<!-- Node19&#45;&gt;Node8 -->
<g id="edge34" class="edge">
<title>Node19&#45;&gt;Node8</title>
<path fill="none" stroke="#63b8ff" d="M754.87,-319.82C692.29,-308.53 602.86,-292.41 541.61,-281.37"/>
<polygon fill="#63b8ff" stroke="#63b8ff" points="542.12,-277.9 531.66,-279.57 540.88,-284.79 542.12,-277.9"/>
</g>
<!-- Node19&#45;&gt;Node13 -->
<g id="edge35" class="edge">
<title>Node19&#45;&gt;Node13</title>
<path fill="none" stroke="#63b8ff" d="M837.85,-318.71C844.13,-309.02 852.01,-295.7 857,-283 882.63,-217.8 895.3,-135.42 900.31,-95.25"/>
<polygon fill="#63b8ff" stroke="#63b8ff" points="903.82,-95.44 901.53,-85.09 896.86,-94.61 903.82,-95.44"/>
</g>
<!-- Node19&#45;&gt;Node15 -->
<g id="edge37" class="edge">
<title>Node19&#45;&gt;Node15</title>
<path fill="none" stroke="#63b8ff" d="M817.26,-318.73C802.5,-300.26 774.09,-268.61 742,-253 649.35,-207.95 610.43,-250.5 513,-217 455.81,-197.34 444.34,-184.51 394,-151 376.09,-139.08 374.67,-131.7 356,-121 333.18,-107.92 306.27,-96.84 283.03,-88.45"/>
<polygon fill="#63b8ff" stroke="#63b8ff" points="283.92,-85.05 273.32,-85.02 281.59,-91.65 283.92,-85.05"/>
</g>
<!-- Node19&#45;&gt;Node16 -->
<g id="edge36" class="edge">
<title>Node19&#45;&gt;Node16</title>
<path fill="none" stroke="#63b8ff" d="M799.69,-318.95C777.57,-307.98 747.04,-292.83 725.42,-282.11"/>
<polygon fill="#63b8ff" stroke="#63b8ff" points="726.68,-278.83 716.17,-277.52 723.57,-285.1 726.68,-278.83"/>
</g>
<!-- Node20&#45;&gt;Node13 -->
<g id="edge39" class="edge">
<title>Node20&#45;&gt;Node13</title>
<path fill="none" stroke="#63b8ff" d="M1103.6,-120.95C1063.93,-111.08 1010.71,-97.82 969.05,-87.45"/>
<polygon fill="#63b8ff" stroke="#63b8ff" points="969.82,-84.03 959.27,-85.01 968.13,-90.83 969.82,-84.03"/>
</g>
<!-- Node20&#45;&gt;Node15 -->
<g id="edge41" class="edge">
<title>Node20&#45;&gt;Node15</title>
<path fill="none" stroke="#63b8ff" d="M1095.43,-132.62C956.25,-127.14 617.65,-112.02 335,-85 323.6,-83.91 311.55,-82.54 299.81,-81.09"/>
<polygon fill="#63b8ff" stroke="#63b8ff" points="299.95,-77.58 289.59,-79.8 299.07,-84.53 299.95,-77.58"/>
</g>
<!-- Node21 -->
<g id="node21" class="node">
<title>Node21</title>
<g id="a_node21"><a xlink:title=" ">
<polygon fill="#e0e0e0" stroke="#999999" points="1192.5,-79.5 1127.5,-79.5 1127.5,-60.5 1192.5,-60.5 1192.5,-79.5"/>
<text text-anchor="middle" x="1160" y="-67.5" font-family="Helvetica,sans-Serif" font-size="10.00">exception</text>
</a>
</g>
</g>
<!-- Node20&#45;&gt;Node21 -->
<g id="edge40" class="edge">
<title>Node20&#45;&gt;Node21</title>
<path fill="none" stroke="#63b8ff" d="M1160,-120.8C1160,-111.7 1160,-99.79 1160,-89.9"/>
<polygon fill="#63b8ff" stroke="#63b8ff" points="1163.5,-89.84 1160,-79.84 1156.5,-89.84 1163.5,-89.84"/>
</g>
<!-- Node22&#45;&gt;Node7 -->
<g id="edge48" class="edge">
<title>Node22&#45;&gt;Node7</title>
<path fill="none" stroke="#63b8ff" d="M863.16,-386.71C860.07,-386.11 857,-385.54 854,-385 749.27,-366.19 720.05,-365.63 611.65,-349.24"/>
<polygon fill="#63b8ff" stroke="#63b8ff" points="612.03,-345.75 601.62,-347.71 610.98,-352.67 612.03,-345.75"/>
</g>
<!-- Node22&#45;&gt;Node13 -->
<g id="edge57" class="edge">
<title>Node22&#45;&gt;Node13</title>
<path fill="none" stroke="#63b8ff" d="M976.67,-392.46C1004.24,-386.11 1035.01,-373.6 1052,-349 1059.58,-338.03 1055.44,-331.88 1052,-319 1027.18,-226.16 956.24,-133.57 921.98,-92.72"/>
<polygon fill="#63b8ff" stroke="#63b8ff" points="924.58,-90.38 915.44,-85.02 919.25,-94.91 924.58,-90.38"/>
</g>
<!-- Node22&#45;&gt;Node15 -->
<g id="edge58" class="edge">
<title>Node22&#45;&gt;Node15</title>
<path fill="none" stroke="#63b8ff" d="M863.2,-386.49C860.09,-385.95 857.01,-385.45 854,-385 713.49,-364.17 322.22,-384.65 223,-283 172.46,-231.23 191.1,-191.58 207,-121 209,-112.12 212.49,-102.81 216.05,-94.67"/>
<polygon fill="#63b8ff" stroke="#63b8ff" points="219.3,-95.97 220.34,-85.43 212.95,-93.02 219.3,-95.97"/>
</g>
<!-- Node23 -->
<g id="node23" class="node">
<title>Node23</title>
<g id="a_node23"><a xlink:href="tags_8hpp.html" target="_top" xlink:title=" ">
<polygon fill="white" stroke="#666666" points="736.5,-349 619.5,-349 619.5,-319 736.5,-319 736.5,-349"/>
<text text-anchor="start" x="627.5" y="-337" font-family="Helvetica,sans-Serif" font-size="10.00">proxsuite/linalg/veg</text>
<text text-anchor="middle" x="678" y="-326" font-family="Helvetica,sans-Serif" font-size="10.00">/type_traits/tags.hpp</text>
</a>
</g>
</g>
<!-- Node22&#45;&gt;Node23 -->
<g id="edge44" class="edge">
<title>Node22&#45;&gt;Node23</title>
<path fill="none" stroke="#63b8ff" d="M866.89,-384.95C829.7,-375.12 779.84,-361.93 740.69,-351.58"/>
<polygon fill="#63b8ff" stroke="#63b8ff" points="741.55,-348.19 730.98,-349.01 739.76,-354.95 741.55,-348.19"/>
</g>
<!-- Node24 -->
<g id="node24" class="node">
<title>Node24</title>
<g id="a_node24"><a xlink:href="address_8hpp.html" target="_top" xlink:title=" ">
<polygon fill="white" stroke="#666666" points="1042.5,-349 919.5,-349 919.5,-319 1042.5,-319 1042.5,-349"/>
<text text-anchor="start" x="927.5" y="-337" font-family="Helvetica,sans-Serif" font-size="10.00">proxsuite/linalg/veg</text>
<text text-anchor="middle" x="981" y="-326" font-family="Helvetica,sans-Serif" font-size="10.00">/memory/address.hpp</text>
</a>
</g>
</g>
<!-- Node22&#45;&gt;Node24 -->
<g id="edge49" class="edge">
<title>Node22&#45;&gt;Node24</title>
<path fill="none" stroke="#63b8ff" d="M933.54,-384.8C941.44,-376.51 951.56,-365.89 960.42,-356.59"/>
<polygon fill="#63b8ff" stroke="#63b8ff" points="963.13,-358.82 967.5,-349.16 958.07,-353.99 963.13,-358.82"/>
</g>
<!-- Node23&#45;&gt;Node8 -->
<g id="edge45" class="edge">
<title>Node23&#45;&gt;Node8</title>
<path fill="none" stroke="#63b8ff" d="M633.01,-318.95C602.04,-309.28 560.7,-296.38 527.8,-286.11"/>
<polygon fill="#63b8ff" stroke="#63b8ff" points="528.47,-282.65 517.88,-283.01 526.39,-289.33 528.47,-282.65"/>
</g>
<!-- Node23&#45;&gt;Node13 -->
<g id="edge46" class="edge">
<title>Node23&#45;&gt;Node13</title>
<path fill="none" stroke="#63b8ff" d="M704.31,-318.9C738.09,-299.69 796.78,-262.42 834,-217 864.84,-179.37 885.57,-125.66 895.73,-94.97"/>
<polygon fill="#63b8ff" stroke="#63b8ff" points="899.16,-95.73 898.88,-85.14 892.5,-93.59 899.16,-95.73"/>
</g>
<!-- Node23&#45;&gt;Node15 -->
<g id="edge47" class="edge">
<title>Node23&#45;&gt;Node15</title>
<path fill="none" stroke="#63b8ff" d="M619.42,-320.83C616.23,-320.2 613.08,-319.59 610,-319 519.13,-301.67 485.45,-328.65 405,-283 324,-237.04 264.01,-138.77 239.79,-94.03"/>
<polygon fill="#63b8ff" stroke="#63b8ff" points="242.82,-92.28 235.04,-85.09 236.64,-95.57 242.82,-92.28"/>
</g>
<!-- Node24&#45;&gt;Node8 -->
<g id="edge50" class="edge">
<title>Node24&#45;&gt;Node8</title>
<path fill="none" stroke="#63b8ff" d="M919.48,-320.55C916.28,-320 913.1,-319.48 910,-319 780.39,-298.84 627.97,-283.22 541.7,-275.13"/>
<polygon fill="#63b8ff" stroke="#63b8ff" points="541.8,-271.62 531.52,-274.18 541.15,-278.59 541.8,-271.62"/>
</g>
<!-- Node24&#45;&gt;Node13 -->
<g id="edge54" class="edge">
<title>Node24&#45;&gt;Node13</title>
<path fill="none" stroke="#63b8ff" d="M965.01,-318.81C955.63,-309.56 944.4,-296.69 938,-283 930.13,-266.16 913.3,-147.02 906.23,-95.1"/>
<polygon fill="#63b8ff" stroke="#63b8ff" points="909.69,-94.54 904.88,-85.1 902.75,-95.48 909.69,-94.54"/>
</g>
<!-- Node24&#45;&gt;Node15 -->
<g id="edge56" class="edge">
<title>Node24&#45;&gt;Node15</title>
<path fill="none" stroke="#63b8ff" d="M945.11,-318.89C898.83,-301.18 815.54,-270.95 742,-253 569.62,-210.91 504.86,-247.58 356,-151 339.65,-140.39 339.9,-132.27 324,-121 307.18,-109.08 287.15,-98.2 269.75,-89.65"/>
<polygon fill="#63b8ff" stroke="#63b8ff" points="270.92,-86.33 260.39,-85.15 267.89,-92.63 270.92,-86.33"/>
</g>
<!-- Node25 -->
<g id="node25" class="node">
<title>Node25</title>
<g id="a_node25"><a xlink:href="std_8hpp.html" target="_top" xlink:title=" ">
<polygon fill="white" stroke="#666666" points="1394.5,-151 1281.5,-151 1281.5,-121 1394.5,-121 1394.5,-151"/>
<text text-anchor="start" x="1289.5" y="-139" font-family="Helvetica,sans-Serif" font-size="10.00">proxsuite/linalg/veg</text>
<text text-anchor="middle" x="1338" y="-128" font-family="Helvetica,sans-Serif" font-size="10.00">/internal/std.hpp</text>
</a>
</g>
</g>
<!-- Node24&#45;&gt;Node25 -->
<g id="edge51" class="edge">
<title>Node24&#45;&gt;Node25</title>
<path fill="none" stroke="#63b8ff" d="M1006.67,-318.9C1069.56,-284.38 1231.37,-195.54 1302.99,-156.22"/>
<polygon fill="#63b8ff" stroke="#63b8ff" points="1305,-159.11 1312.08,-151.23 1301.63,-152.98 1305,-159.11"/>
</g>
<!-- Node26 -->
<g id="node26" class="node">
<title>Node26</title>
<g id="a_node26"><a xlink:title=" ">
<polygon fill="#e0e0e0" stroke="#999999" points="1005,-277.5 947,-277.5 947,-258.5 1005,-258.5 1005,-277.5"/>
<text text-anchor="middle" x="976" y="-265.5" font-family="Helvetica,sans-Serif" font-size="10.00">memory</text>
</a>
</g>
</g>
<!-- Node24&#45;&gt;Node26 -->
<g id="edge55" class="edge">
<title>Node24&#45;&gt;Node26</title>
<path fill="none" stroke="#63b8ff" d="M979.89,-318.8C979.18,-309.7 978.25,-297.79 977.48,-287.9"/>
<polygon fill="#63b8ff" stroke="#63b8ff" points="980.96,-287.54 976.69,-277.84 973.98,-288.09 980.96,-287.54"/>
</g>
<!-- Node25&#45;&gt;Node4 -->
<g id="edge52" class="edge">
<title>Node25&#45;&gt;Node4</title>
<path fill="none" stroke="#63b8ff" d="M1319.37,-120.76C1294.21,-102.33 1247.29,-70.71 1202,-55 1100.99,-19.96 973.36,-12.38 912.46,-10.83"/>
<polygon fill="#63b8ff" stroke="#63b8ff" points="912.31,-7.33 902.24,-10.61 912.16,-14.33 912.31,-7.33"/>
</g>
<!-- Node25&#45;&gt;Node14 -->
<g id="edge53" class="edge">
<title>Node25&#45;&gt;Node14</title>
<path fill="none" stroke="#63b8ff" d="M1281.21,-122.2C1228.66,-110.36 1151.41,-92.95 1101.9,-81.79"/>
<polygon fill="#63b8ff" stroke="#63b8ff" points="1102.61,-78.37 1092.08,-79.58 1101.07,-85.19 1102.61,-78.37"/>
</g>
</g>
</svg>
