<?xml version="1.0" encoding="UTF-8" standalone="no"?>
<!DOCTYPE svg PUBLIC "-//W3C//DTD SVG 1.1//EN"
 "http://www.w3.org/Graphics/SVG/1.1/DTD/svg11.dtd">
<!-- Generated by graphviz version 6.0.1 (20220911.2005)
 -->
<!-- Title: include/proxsuite/linalg/veg/util/assert.hpp Pages: 1 -->
<svg width="1346pt" height="621pt"
 viewBox="0.00 0.00 1345.50 621.00" xmlns="http://www.w3.org/2000/svg" xmlns:xlink="http://www.w3.org/1999/xlink">
<g id="graph0" class="graph" transform="scale(1 1) rotate(0) translate(4 617)">
<title>include/proxsuite/linalg/veg/util/assert.hpp</title>
<!-- Node1 -->
<g id="node1" class="node">
<title>Node1</title>
<g id="a_node1"><a xlink:title=" ">
<polygon fill="#999999" stroke="#666666" points="637.5,-613 506.5,-613 506.5,-583 637.5,-583 637.5,-613"/>
<text text-anchor="start" x="514.5" y="-601" font-family="Helvetica,sans-Serif" font-size="10.00">include/proxsuite/linalg</text>
<text text-anchor="middle" x="572" y="-590" font-family="Helvetica,sans-Serif" font-size="10.00">/veg/util/assert.hpp</text>
</a>
</g>
</g>
<!-- Node2 -->
<g id="node2" class="node">
<title>Node2</title>
<g id="a_node2"><a xlink:href="assert__impl_8hpp.html" target="_top" xlink:title=" ">
<polygon fill="white" stroke="#666666" points="641,-547 503,-547 503,-517 641,-517 641,-547"/>
<text text-anchor="start" x="511" y="-535" font-family="Helvetica,sans-Serif" font-size="10.00">proxsuite/linalg/veg</text>
<text text-anchor="middle" x="572" y="-524" font-family="Helvetica,sans-Serif" font-size="10.00">/internal/assert_impl.hpp</text>
</a>
</g>
</g>
<!-- Node1&#45;&gt;Node2 -->
<g id="edge1" class="edge">
<title>Node1&#45;&gt;Node2</title>
<path fill="none" stroke="#63b8ff" d="M572,-582.8C572,-575.34 572,-565.99 572,-557.41"/>
<polygon fill="#63b8ff" stroke="#63b8ff" points="575.5,-557.16 572,-547.16 568.5,-557.16 575.5,-557.16"/>
</g>
<!-- Node3 -->
<g id="node3" class="node">
<title>Node3</title>
<g id="a_node3"><a xlink:href="typedefs_8hpp.html" target="_top" xlink:title=" ">
<polygon fill="white" stroke="#666666" points="267,-85 143,-85 143,-55 267,-55 267,-85"/>
<text text-anchor="start" x="151" y="-73" font-family="Helvetica,sans-Serif" font-size="10.00">proxsuite/linalg/veg</text>
<text text-anchor="middle" x="205" y="-62" font-family="Helvetica,sans-Serif" font-size="10.00">/internal/typedefs.hpp</text>
</a>
</g>
</g>
<!-- Node2&#45;&gt;Node3 -->
<g id="edge2" class="edge">
<title>Node2&#45;&gt;Node3</title>
<path fill="none" stroke="#63b8ff" d="M502.6,-530.25C383.21,-527.94 144.66,-518.62 71,-481 28.66,-459.38 0,-448.54 0,-401 0,-401 0,-401 0,-201 0,-136.13 74.12,-102.27 133.22,-85.58"/>
<polygon fill="#63b8ff" stroke="#63b8ff" points="134.2,-88.94 142.94,-82.95 132.37,-82.19 134.2,-88.94"/>
</g>
<!-- Node6 -->
<g id="node6" class="node">
<title>Node6</title>
<g id="a_node6"><a xlink:href="defer_8hpp.html" target="_top" xlink:title=" ">
<polygon fill="white" stroke="#666666" points="399.5,-481 286.5,-481 286.5,-451 399.5,-451 399.5,-481"/>
<text text-anchor="start" x="294.5" y="-469" font-family="Helvetica,sans-Serif" font-size="10.00">proxsuite/linalg/veg</text>
<text text-anchor="middle" x="343" y="-458" font-family="Helvetica,sans-Serif" font-size="10.00">/util/defer.hpp</text>
</a>
</g>
</g>
<!-- Node2&#45;&gt;Node6 -->
<g id="edge5" class="edge">
<title>Node2&#45;&gt;Node6</title>
<path fill="none" stroke="#63b8ff" d="M521.74,-516.95C486.7,-507.16 439.77,-494.05 402.8,-483.71"/>
<polygon fill="#63b8ff" stroke="#63b8ff" points="403.71,-480.33 393.14,-481.01 401.83,-487.07 403.71,-480.33"/>
</g>
<!-- Node13 -->
<g id="node13" class="node">
<title>Node13</title>
<g id="a_node13"><a xlink:href="prologue_8hpp.html" target="_top" xlink:title=" ">
<polygon fill="white" stroke="#666666" points="409,-85 285,-85 285,-55 409,-55 409,-85"/>
<text text-anchor="start" x="293" y="-73" font-family="Helvetica,sans-Serif" font-size="10.00">proxsuite/linalg/veg</text>
<text text-anchor="middle" x="347" y="-62" font-family="Helvetica,sans-Serif" font-size="10.00">/internal/prologue.hpp</text>
</a>
</g>
</g>
<!-- Node2&#45;&gt;Node13 -->
<g id="edge64" class="edge">
<title>Node2&#45;&gt;Node13</title>
<path fill="none" stroke="#63b8ff" d="M502.74,-528.58C358.25,-521.64 38,-495.58 38,-401 38,-401 38,-401 38,-201 38,-156.56 60.41,-144.71 98,-121 98.96,-120.4 201.51,-99.92 274.69,-85.36"/>
<polygon fill="#63b8ff" stroke="#63b8ff" points="275.69,-88.73 284.81,-83.35 274.32,-81.87 275.69,-88.73"/>
</g>
<!-- Node15 -->
<g id="node15" class="node">
<title>Node15</title>
<g id="a_node15"><a xlink:href="epilogue_8hpp.html" target="_top" xlink:title=" ">
<polygon fill="white" stroke="#666666" points="919.5,-85 796.5,-85 796.5,-55 919.5,-55 919.5,-85"/>
<text text-anchor="start" x="804.5" y="-73" font-family="Helvetica,sans-Serif" font-size="10.00">proxsuite/linalg/veg</text>
<text text-anchor="middle" x="858" y="-62" font-family="Helvetica,sans-Serif" font-size="10.00">/internal/epilogue.hpp</text>
</a>
</g>
</g>
<!-- Node2&#45;&gt;Node15 -->
<g id="edge66" class="edge">
<title>Node2&#45;&gt;Node15</title>
<path fill="none" stroke="#63b8ff" d="M641.16,-531.03C803.63,-529.25 1196,-513.32 1196,-401 1196,-401 1196,-401 1196,-201 1196,-164.46 1203.84,-145.8 1177,-121 1138.68,-85.6 996.53,-93.14 945,-85 940.03,-84.21 934.9,-83.4 929.73,-82.58"/>
<polygon fill="#63b8ff" stroke="#63b8ff" points="930.21,-79.11 919.78,-80.99 929.1,-86.02 930.21,-79.11"/>
</g>
<!-- Node19 -->
<g id="node19" class="node">
<title>Node19</title>
<g id="a_node19"><a xlink:href="internal_2dbg_8hpp.html" target="_top" xlink:title=" ">
<polygon fill="white" stroke="#666666" points="843.5,-481 730.5,-481 730.5,-451 843.5,-451 843.5,-481"/>
<text text-anchor="start" x="738.5" y="-469" font-family="Helvetica,sans-Serif" font-size="10.00">proxsuite/linalg/veg</text>
<text text-anchor="middle" x="787" y="-458" font-family="Helvetica,sans-Serif" font-size="10.00">/internal/dbg.hpp</text>
</a>
</g>
</g>
<!-- Node2&#45;&gt;Node19 -->
<g id="edge33" class="edge">
<title>Node2&#45;&gt;Node19</title>
<path fill="none" stroke="#63b8ff" d="M619.18,-516.95C651.81,-507.24 695.4,-494.27 729.97,-483.98"/>
<polygon fill="#63b8ff" stroke="#63b8ff" points="731.34,-487.22 739.93,-481.01 729.34,-480.51 731.34,-487.22"/>
</g>
<!-- Node30 -->
<g id="node30" class="node">
<title>Node30</title>
<g id="a_node30"><a xlink:title=" ">
<polygon fill="#e0e0e0" stroke="#999999" points="1276,-475.5 1224,-475.5 1224,-456.5 1276,-456.5 1276,-475.5"/>
<text text-anchor="middle" x="1250" y="-463.5" font-family="Helvetica,sans-Serif" font-size="10.00">cassert</text>
</a>
</g>
</g>
<!-- Node2&#45;&gt;Node30 -->
<g id="edge65" class="edge">
<title>Node2&#45;&gt;Node30</title>
<path fill="none" stroke="#63b8ff" d="M641.28,-531.39C759.32,-530.76 1006.42,-523.85 1210,-481 1213,-480.37 1216.08,-479.57 1219.14,-478.68"/>
<polygon fill="#63b8ff" stroke="#63b8ff" points="1220.26,-482 1228.7,-475.6 1218.11,-475.34 1220.26,-482"/>
</g>
<!-- Node4 -->
<g id="node4" class="node">
<title>Node4</title>
<g id="a_node4"><a xlink:title=" ">
<polygon fill="#e0e0e0" stroke="#999999" points="747,-19 697,-19 697,0 747,0 747,-19"/>
<text text-anchor="middle" x="722" y="-7" font-family="Helvetica,sans-Serif" font-size="10.00">cstdint</text>
</a>
</g>
</g>
<!-- Node3&#45;&gt;Node4 -->
<g id="edge3" class="edge">
<title>Node3&#45;&gt;Node4</title>
<path fill="none" stroke="#63b8ff" d="M267.28,-56.37C270.22,-55.88 273.14,-55.42 276,-55 427.87,-32.5 610.56,-18.25 686.36,-12.9"/>
<polygon fill="#63b8ff" stroke="#63b8ff" points="687.02,-16.36 696.75,-12.17 686.53,-9.38 687.02,-16.36"/>
</g>
<!-- Node5 -->
<g id="node5" class="node">
<title>Node5</title>
<g id="a_node5"><a xlink:title=" ">
<polygon fill="#e0e0e0" stroke="#999999" points="231.5,-19 178.5,-19 178.5,0 231.5,0 231.5,-19"/>
<text text-anchor="middle" x="205" y="-7" font-family="Helvetica,sans-Serif" font-size="10.00">cstddef</text>
</a>
</g>
</g>
<!-- Node3&#45;&gt;Node5 -->
<g id="edge4" class="edge">
<title>Node3&#45;&gt;Node5</title>
<path fill="none" stroke="#63b8ff" d="M205,-54.84C205,-47.21 205,-37.7 205,-29.45"/>
<polygon fill="#63b8ff" stroke="#63b8ff" points="208.5,-29.27 205,-19.27 201.5,-29.27 208.5,-29.27"/>
</g>
<!-- Node7 -->
<g id="node7" class="node">
<title>Node7</title>
<g id="a_node7"><a xlink:href="constructible_8hpp.html" target="_top" xlink:title=" ">
<polygon fill="white" stroke="#666666" points="300.5,-349 141.5,-349 141.5,-319 300.5,-319 300.5,-349"/>
<text text-anchor="start" x="149.5" y="-337" font-family="Helvetica,sans-Serif" font-size="10.00">proxsuite/linalg/veg</text>
<text text-anchor="middle" x="221" y="-326" font-family="Helvetica,sans-Serif" font-size="10.00">/type_traits/constructible.hpp</text>
</a>
</g>
</g>
<!-- Node6&#45;&gt;Node7 -->
<g id="edge6" class="edge">
<title>Node6&#45;&gt;Node7</title>
<path fill="none" stroke="#63b8ff" d="M286.21,-453.02C264.95,-445.62 242.66,-433.79 229,-415 217.49,-399.16 216.19,-376.66 217.37,-359.56"/>
<polygon fill="#63b8ff" stroke="#63b8ff" points="220.89,-359.52 218.42,-349.22 213.93,-358.81 220.89,-359.52"/>
</g>
<!-- Node6&#45;&gt;Node13 -->
<g id="edge31" class="edge">
<title>Node6&#45;&gt;Node13</title>
<path fill="none" stroke="#63b8ff" d="M286.38,-461.97C208,-454.37 76,-427.8 76,-335 76,-335 76,-335 76,-201 76,-151.03 111.72,-145.97 155,-121 175.5,-109.17 229.31,-95.64 274.77,-85.63"/>
<polygon fill="#63b8ff" stroke="#63b8ff" points="275.6,-89.04 284.63,-83.49 274.11,-82.2 275.6,-89.04"/>
</g>
<!-- Node6&#45;&gt;Node15 -->
<g id="edge32" class="edge">
<title>Node6&#45;&gt;Node15</title>
<path fill="none" stroke="#63b8ff" d="M399.75,-459.93C471.6,-452.87 598.93,-438.29 706,-415 751.34,-405.14 761.28,-397.37 806,-385 868.75,-367.64 908.02,-400.38 948,-349 1010.45,-268.75 986.81,-204.65 929,-121 920.52,-108.72 907.98,-98.47 895.79,-90.5"/>
<polygon fill="#63b8ff" stroke="#63b8ff" points="897.39,-87.38 887.04,-85.11 893.72,-93.34 897.39,-87.38"/>
</g>
<!-- Node18 -->
<g id="node18" class="node">
<title>Node18</title>
<g id="a_node18"><a xlink:href="invocable_8hpp.html" target="_top" xlink:title=" ">
<polygon fill="white" stroke="#666666" points="414.5,-415 271.5,-415 271.5,-385 414.5,-385 414.5,-415"/>
<text text-anchor="start" x="279.5" y="-403" font-family="Helvetica,sans-Serif" font-size="10.00">proxsuite/linalg/veg</text>
<text text-anchor="middle" x="343" y="-392" font-family="Helvetica,sans-Serif" font-size="10.00">/type_traits/invocable.hpp</text>
</a>
</g>
</g>
<!-- Node6&#45;&gt;Node18 -->
<g id="edge26" class="edge">
<title>Node6&#45;&gt;Node18</title>
<path fill="none" stroke="#63b8ff" d="M343,-450.8C343,-443.34 343,-433.99 343,-425.41"/>
<polygon fill="#63b8ff" stroke="#63b8ff" points="346.5,-425.16 343,-415.16 339.5,-425.16 346.5,-425.16"/>
</g>
<!-- Node8 -->
<g id="node8" class="node">
<title>Node8</title>
<g id="a_node8"><a xlink:href="veg_2type__traits_2core_8hpp.html" target="_top" xlink:title=" ">
<polygon fill="white" stroke="#666666" points="478.5,-283 361.5,-283 361.5,-253 478.5,-253 478.5,-283"/>
<text text-anchor="start" x="369.5" y="-271" font-family="Helvetica,sans-Serif" font-size="10.00">proxsuite/linalg/veg</text>
<text text-anchor="middle" x="420" y="-260" font-family="Helvetica,sans-Serif" font-size="10.00">/type_traits/core.hpp</text>
</a>
</g>
</g>
<!-- Node7&#45;&gt;Node8 -->
<g id="edge7" class="edge">
<title>Node7&#45;&gt;Node8</title>
<path fill="none" stroke="#63b8ff" d="M264.67,-318.95C294.74,-309.28 334.87,-296.38 366.8,-286.11"/>
<polygon fill="#63b8ff" stroke="#63b8ff" points="367.98,-289.41 376.43,-283.01 365.84,-282.74 367.98,-289.41"/>
</g>
<!-- Node7&#45;&gt;Node13 -->
<g id="edge22" class="edge">
<title>Node7&#45;&gt;Node13</title>
<path fill="none" stroke="#63b8ff" d="M200.91,-318.8C190.13,-309.9 177.88,-297.4 172,-283 166.96,-270.66 167.02,-265.37 172,-253 201.28,-180.31 275.01,-120.38 316.83,-90.85"/>
<polygon fill="#63b8ff" stroke="#63b8ff" points="319.02,-93.59 325.24,-85.01 315.03,-87.83 319.02,-93.59"/>
</g>
<!-- Node7&#45;&gt;Node15 -->
<g id="edge25" class="edge">
<title>Node7&#45;&gt;Node15</title>
<path fill="none" stroke="#63b8ff" d="M300.53,-325.12C354.61,-318.08 427.11,-305.31 488,-283 599.39,-242.19 617.13,-210.08 720,-151 755.81,-130.43 796.74,-106.68 824.66,-90.43"/>
<polygon fill="#63b8ff" stroke="#63b8ff" points="826.72,-93.28 833.6,-85.22 823.2,-87.23 826.72,-93.28"/>
</g>
<!-- Node16 -->
<g id="node16" class="node">
<title>Node16</title>
<g id="a_node16"><a xlink:title=" ">
<polygon fill="#e0e0e0" stroke="#999999" points="217.5,-277.5 180.5,-277.5 180.5,-258.5 217.5,-258.5 217.5,-277.5"/>
<text text-anchor="middle" x="199" y="-265.5" font-family="Helvetica,sans-Serif" font-size="10.00">new</text>
</a>
</g>
</g>
<!-- Node7&#45;&gt;Node16 -->
<g id="edge23" class="edge">
<title>Node7&#45;&gt;Node16</title>
<path fill="none" stroke="#63b8ff" d="M216.12,-318.8C212.96,-309.6 208.81,-297.53 205.39,-287.58"/>
<polygon fill="#63b8ff" stroke="#63b8ff" points="208.6,-286.16 202.04,-277.84 201.98,-288.44 208.6,-286.16"/>
</g>
<!-- Node17 -->
<g id="node17" class="node">
<title>Node17</title>
<g id="a_node17"><a xlink:title=" ">
<polygon fill="#e0e0e0" stroke="#999999" points="304.5,-277.5 235.5,-277.5 235.5,-258.5 304.5,-258.5 304.5,-277.5"/>
<text text-anchor="middle" x="270" y="-265.5" font-family="Helvetica,sans-Serif" font-size="10.00">type_traits</text>
</a>
</g>
</g>
<!-- Node7&#45;&gt;Node17 -->
<g id="edge24" class="edge">
<title>Node7&#45;&gt;Node17</title>
<path fill="none" stroke="#63b8ff" d="M231.87,-318.8C239.29,-309.11 249.14,-296.24 256.98,-286.01"/>
<polygon fill="#63b8ff" stroke="#63b8ff" points="259.93,-287.91 263.23,-277.84 254.37,-283.66 259.93,-287.91"/>
</g>
<!-- Node8&#45;&gt;Node3 -->
<g id="edge8" class="edge">
<title>Node8&#45;&gt;Node3</title>
<path fill="none" stroke="#63b8ff" d="M378.56,-252.95C357.79,-244.6 333.06,-232.58 314,-217 270.71,-181.63 235.25,-125.52 217.43,-94.16"/>
<polygon fill="#63b8ff" stroke="#63b8ff" points="220.41,-92.3 212.48,-85.27 214.29,-95.71 220.41,-92.3"/>
</g>
<!-- Node9 -->
<g id="node9" class="node">
<title>Node9</title>
<g id="a_node9"><a xlink:href="integer__seq_8hpp.html" target="_top" xlink:title=" ">
<polygon fill="white" stroke="#666666" points="546,-217 408,-217 408,-187 546,-187 546,-217"/>
<text text-anchor="start" x="416" y="-205" font-family="Helvetica,sans-Serif" font-size="10.00">proxsuite/linalg/veg</text>
<text text-anchor="middle" x="477" y="-194" font-family="Helvetica,sans-Serif" font-size="10.00">/internal/integer_seq.hpp</text>
</a>
</g>
</g>
<!-- Node8&#45;&gt;Node9 -->
<g id="edge9" class="edge">
<title>Node8&#45;&gt;Node9</title>
<path fill="none" stroke="#63b8ff" d="M432.65,-252.8C439.96,-244.59 449.3,-234.1 457.52,-224.87"/>
<polygon fill="#63b8ff" stroke="#63b8ff" points="460.35,-226.96 464.39,-217.16 455.12,-222.3 460.35,-226.96"/>
</g>
<!-- Node8&#45;&gt;Node13 -->
<g id="edge20" class="edge">
<title>Node8&#45;&gt;Node13</title>
<path fill="none" stroke="#63b8ff" d="M372.88,-252.89C355.65,-245.2 337.94,-233.72 328,-217 305.23,-178.71 322.27,-124.88 335.47,-94.42"/>
<polygon fill="#63b8ff" stroke="#63b8ff" points="338.78,-95.59 339.74,-85.04 332.41,-92.7 338.78,-95.59"/>
</g>
<!-- Node8&#45;&gt;Node15 -->
<g id="edge21" class="edge">
<title>Node8&#45;&gt;Node15</title>
<path fill="none" stroke="#63b8ff" d="M460.86,-253C487.84,-243.48 523.83,-230.25 555,-217 653.05,-175.33 765.24,-118.9 821.61,-89.91"/>
<polygon fill="#63b8ff" stroke="#63b8ff" points="823.54,-92.86 830.83,-85.17 820.33,-86.64 823.54,-92.86"/>
</g>
<!-- Node9&#45;&gt;Node3 -->
<g id="edge10" class="edge">
<title>Node9&#45;&gt;Node3</title>
<path fill="none" stroke="#63b8ff" d="M447.63,-186.96C398.29,-163.38 298.75,-115.81 243.74,-89.51"/>
<polygon fill="#63b8ff" stroke="#63b8ff" points="245.19,-86.33 234.66,-85.17 242.17,-92.64 245.19,-86.33"/>
</g>
<!-- Node10 -->
<g id="node10" class="node">
<title>Node10</title>
<g id="a_node10"><a xlink:href="macros_8hpp.html" target="_top" xlink:title=" ">
<polygon fill="white" stroke="#666666" points="639.5,-151 522.5,-151 522.5,-121 639.5,-121 639.5,-151"/>
<text text-anchor="start" x="530.5" y="-139" font-family="Helvetica,sans-Serif" font-size="10.00">proxsuite/linalg/veg</text>
<text text-anchor="middle" x="581" y="-128" font-family="Helvetica,sans-Serif" font-size="10.00">/internal/macros.hpp</text>
</a>
</g>
</g>
<!-- Node9&#45;&gt;Node10 -->
<g id="edge11" class="edge">
<title>Node9&#45;&gt;Node10</title>
<path fill="none" stroke="#63b8ff" d="M499.82,-186.95C514.45,-177.95 533.64,-166.14 549.69,-156.27"/>
<polygon fill="#63b8ff" stroke="#63b8ff" points="551.55,-159.23 558.23,-151.01 547.88,-153.27 551.55,-159.23"/>
</g>
<!-- Node9&#45;&gt;Node13 -->
<g id="edge18" class="edge">
<title>Node9&#45;&gt;Node13</title>
<path fill="none" stroke="#63b8ff" d="M462.84,-186.84C440.08,-164.08 395.21,-119.21 368.49,-92.49"/>
<polygon fill="#63b8ff" stroke="#63b8ff" points="370.69,-89.74 361.14,-85.14 365.74,-94.69 370.69,-89.74"/>
</g>
<!-- Node9&#45;&gt;Node15 -->
<g id="edge19" class="edge">
<title>Node9&#45;&gt;Node15</title>
<path fill="none" stroke="#63b8ff" d="M543.78,-186.98C576.43,-178.79 615.75,-166.9 649,-151 670.02,-140.95 671.03,-131.15 692,-121 721.69,-106.62 756.39,-95.39 786.37,-87.25"/>
<polygon fill="#63b8ff" stroke="#63b8ff" points="787.57,-90.55 796.33,-84.6 785.77,-83.79 787.57,-90.55"/>
</g>
<!-- Node10&#45;&gt;Node3 -->
<g id="edge13" class="edge">
<title>Node10&#45;&gt;Node3</title>
<path fill="none" stroke="#63b8ff" d="M522.43,-125.97C463.12,-116.7 368.49,-101.55 277.27,-85.2"/>
<polygon fill="#63b8ff" stroke="#63b8ff" points="277.78,-81.73 267.32,-83.41 276.54,-88.62 277.78,-81.73"/>
</g>
<!-- Node11 -->
<g id="node11" class="node">
<title>Node11</title>
<g id="a_node11"><a xlink:href="hedley_8ext_8hpp.html" target="_top" xlink:title=" ">
<polygon fill="white" stroke="#666666" points="607.5,-85 432.5,-85 432.5,-55 607.5,-55 607.5,-85"/>
<text text-anchor="start" x="440.5" y="-73" font-family="Helvetica,sans-Serif" font-size="10.00">proxsuite/linalg/veg</text>
<text text-anchor="middle" x="520" y="-62" font-family="Helvetica,sans-Serif" font-size="10.00">/internal/external/hedley.ext.hpp</text>
</a>
</g>
</g>
<!-- Node10&#45;&gt;Node11 -->
<g id="edge12" class="edge">
<title>Node10&#45;&gt;Node11</title>
<path fill="none" stroke="#63b8ff" d="M567.46,-120.8C559.56,-112.51 549.44,-101.89 540.58,-92.59"/>
<polygon fill="#63b8ff" stroke="#63b8ff" points="542.93,-89.99 533.5,-85.16 537.87,-94.82 542.93,-89.99"/>
</g>
<!-- Node12 -->
<g id="node12" class="node">
<title>Node12</title>
<g id="a_node12"><a xlink:href="preprocessor_8hpp.html" target="_top" xlink:title=" ">
<polygon fill="white" stroke="#666666" points="768.5,-85 625.5,-85 625.5,-55 768.5,-55 768.5,-85"/>
<text text-anchor="start" x="633.5" y="-73" font-family="Helvetica,sans-Serif" font-size="10.00">proxsuite/linalg/veg</text>
<text text-anchor="middle" x="697" y="-62" font-family="Helvetica,sans-Serif" font-size="10.00">/internal/preprocessor.hpp</text>
</a>
</g>
</g>
<!-- Node10&#45;&gt;Node12 -->
<g id="edge14" class="edge">
<title>Node10&#45;&gt;Node12</title>
<path fill="none" stroke="#63b8ff" d="M606.46,-120.95C622.93,-111.87 644.57,-99.93 662.57,-90"/>
<polygon fill="#63b8ff" stroke="#63b8ff" points="664.54,-92.91 671.6,-85.01 661.16,-86.78 664.54,-92.91"/>
</g>
<!-- Node10&#45;&gt;Node13 -->
<g id="edge15" class="edge">
<title>Node10&#45;&gt;Node13</title>
<path fill="none" stroke="#63b8ff" d="M529.65,-120.95C493.83,-111.16 445.88,-98.05 408.1,-87.71"/>
<polygon fill="#63b8ff" stroke="#63b8ff" points="408.8,-84.27 398.23,-85.01 406.95,-91.03 408.8,-84.27"/>
</g>
<!-- Node14 -->
<g id="node14" class="node">
<title>Node14</title>
<g id="a_node14"><a xlink:title=" ">
<polygon fill="#e0e0e0" stroke="#999999" points="1036.5,-79.5 953.5,-79.5 953.5,-60.5 1036.5,-60.5 1036.5,-79.5"/>
<text text-anchor="middle" x="995" y="-67.5" font-family="Helvetica,sans-Serif" font-size="10.00">initializer_list</text>
</a>
</g>
</g>
<!-- Node10&#45;&gt;Node14 -->
<g id="edge16" class="edge">
<title>Node10&#45;&gt;Node14</title>
<path fill="none" stroke="#63b8ff" d="M639.68,-127.78C709.01,-118.96 827.74,-102.99 929,-85 934.84,-83.96 940.94,-82.79 946.99,-81.57"/>
<polygon fill="#63b8ff" stroke="#63b8ff" points="947.95,-84.95 957.04,-79.5 946.54,-78.09 947.95,-84.95"/>
</g>
<!-- Node10&#45;&gt;Node15 -->
<g id="edge17" class="edge">
<title>Node10&#45;&gt;Node15</title>
<path fill="none" stroke="#63b8ff" d="M639.74,-121.43C682.8,-111.48 741.45,-97.93 787.11,-87.38"/>
<polygon fill="#63b8ff" stroke="#63b8ff" points="787.99,-90.77 796.94,-85.11 786.41,-83.95 787.99,-90.77"/>
</g>
<!-- Node18&#45;&gt;Node7 -->
<g id="edge28" class="edge">
<title>Node18&#45;&gt;Node7</title>
<path fill="none" stroke="#63b8ff" d="M316.23,-384.95C298.75,-375.78 275.72,-363.71 256.69,-353.72"/>
<polygon fill="#63b8ff" stroke="#63b8ff" points="258.19,-350.56 247.71,-349.01 254.94,-356.76 258.19,-350.56"/>
</g>
<!-- Node18&#45;&gt;Node8 -->
<g id="edge27" class="edge">
<title>Node18&#45;&gt;Node8</title>
<path fill="none" stroke="#63b8ff" d="M340.14,-384.97C337.48,-368.14 335.46,-339.63 347,-319 354.12,-306.27 366,-296.11 378.13,-288.35"/>
<polygon fill="#63b8ff" stroke="#63b8ff" points="380.13,-291.24 386.95,-283.13 376.56,-285.22 380.13,-291.24"/>
</g>
<!-- Node18&#45;&gt;Node13 -->
<g id="edge29" class="edge">
<title>Node18&#45;&gt;Node13</title>
<path fill="none" stroke="#63b8ff" d="M271.26,-390.04C218.37,-381.99 152.41,-368.42 133,-349 107.17,-323.15 114,-305.54 114,-269 114,-269 114,-269 114,-201 114,-159.89 226.04,-113.28 294.73,-88.57"/>
<polygon fill="#63b8ff" stroke="#63b8ff" points="296.28,-91.73 304.54,-85.09 293.94,-85.14 296.28,-91.73"/>
</g>
<!-- Node18&#45;&gt;Node15 -->
<g id="edge30" class="edge">
<title>Node18&#45;&gt;Node15</title>
<path fill="none" stroke="#63b8ff" d="M414.82,-393.04C509.44,-384.5 666.13,-367.73 685,-349 757.75,-276.77 654.92,-200.21 720,-121 729.85,-109.01 761.58,-97.11 792.12,-87.93"/>
<polygon fill="#63b8ff" stroke="#63b8ff" points="793.36,-91.21 801.97,-85.04 791.39,-84.49 793.36,-91.21"/>
</g>
<!-- Node19&#45;&gt;Node7 -->
<g id="edge43" class="edge">
<title>Node19&#45;&gt;Node7</title>
<path fill="none" stroke="#63b8ff" d="M730.11,-462.61C602.41,-456.82 301.13,-440.6 263,-415 243.75,-402.08 232.73,-377.41 226.85,-358.86"/>
<polygon fill="#63b8ff" stroke="#63b8ff" points="230.15,-357.69 224.03,-349.05 223.43,-359.62 230.15,-357.69"/>
</g>
<!-- Node19&#45;&gt;Node13 -->
<g id="edge60" class="edge">
<title>Node19&#45;&gt;Node13</title>
<path fill="none" stroke="#63b8ff" d="M778.18,-450.75C761.36,-423.95 722.96,-364.64 685,-319 658.67,-287.35 589.05,-210.14 555,-187 521.07,-163.94 506.01,-170.65 470,-151 449.22,-139.66 445.78,-134 426,-121 410.39,-110.74 392.84,-99.6 378.26,-90.44"/>
<polygon fill="#63b8ff" stroke="#63b8ff" points="379.94,-87.36 369.61,-85.02 376.22,-93.3 379.94,-87.36"/>
</g>
<!-- Node19&#45;&gt;Node15 -->
<g id="edge63" class="edge">
<title>Node19&#45;&gt;Node15</title>
<path fill="none" stroke="#63b8ff" d="M843.56,-457.04C909.63,-444.17 1010,-411.97 1010,-335 1010,-335 1010,-335 1010,-201 1010,-163.88 1011.17,-148.29 986,-121 970.99,-104.72 950.04,-93.68 929.43,-86.21"/>
<polygon fill="#63b8ff" stroke="#63b8ff" points="930.29,-82.8 919.69,-82.92 928.05,-89.43 930.29,-82.8"/>
</g>
<!-- Node20 -->
<g id="node20" class="node">
<title>Node20</title>
<g id="a_node20"><a xlink:href="primitives_8hpp.html" target="_top" xlink:title=" ">
<polygon fill="white" stroke="#666666" points="502,-349 356,-349 356,-319 502,-319 502,-349"/>
<text text-anchor="start" x="364" y="-337" font-family="Helvetica,sans-Serif" font-size="10.00">proxsuite/linalg/veg</text>
<text text-anchor="middle" x="429" y="-326" font-family="Helvetica,sans-Serif" font-size="10.00">/type_traits/primitives.hpp</text>
</a>
</g>
</g>
<!-- Node19&#45;&gt;Node20 -->
<g id="edge34" class="edge">
<title>Node19&#45;&gt;Node20</title>
<path fill="none" stroke="#63b8ff" d="M730.42,-455.95C686.98,-447.98 626.02,-434.58 575,-415 532.88,-398.83 487.84,-372.64 459.1,-354.65"/>
<polygon fill="#63b8ff" stroke="#63b8ff" points="460.69,-351.52 450.37,-349.13 456.95,-357.43 460.69,-351.52"/>
</g>
<!-- Node21 -->
<g id="node21" class="node">
<title>Node21</title>
<g id="a_node21"><a xlink:href="terminate_8hpp.html" target="_top" xlink:title=" ">
<polygon fill="white" stroke="#666666" points="1167.5,-151 1038.5,-151 1038.5,-121 1167.5,-121 1167.5,-151"/>
<text text-anchor="start" x="1046.5" y="-139" font-family="Helvetica,sans-Serif" font-size="10.00">proxsuite/linalg/veg</text>
<text text-anchor="middle" x="1103" y="-128" font-family="Helvetica,sans-Serif" font-size="10.00">/internal/terminate.hpp</text>
</a>
</g>
</g>
<!-- Node19&#45;&gt;Node21 -->
<g id="edge39" class="edge">
<title>Node19&#45;&gt;Node21</title>
<path fill="none" stroke="#63b8ff" d="M843.59,-464.7C930.27,-460.92 1086,-439.58 1086,-335 1086,-335 1086,-335 1086,-267 1086,-229.96 1092.87,-187.47 1097.88,-161.43"/>
<polygon fill="#63b8ff" stroke="#63b8ff" points="1101.36,-161.84 1099.88,-151.35 1094.5,-160.47 1101.36,-161.84"/>
</g>
<!-- Node23 -->
<g id="node23" class="node">
<title>Node23</title>
<g id="a_node23"><a xlink:href="ref_8hpp.html" target="_top" xlink:title=" ">
<polygon fill="white" stroke="#666666" points="696.5,-415 583.5,-415 583.5,-385 696.5,-385 696.5,-415"/>
<text text-anchor="start" x="591.5" y="-403" font-family="Helvetica,sans-Serif" font-size="10.00">proxsuite/linalg/veg</text>
<text text-anchor="middle" x="640" y="-392" font-family="Helvetica,sans-Serif" font-size="10.00">/ref.hpp</text>
</a>
</g>
</g>
<!-- Node19&#45;&gt;Node23 -->
<g id="edge44" class="edge">
<title>Node19&#45;&gt;Node23</title>
<path fill="none" stroke="#63b8ff" d="M754.74,-450.95C733.2,-441.58 704.67,-429.16 681.45,-419.05"/>
<polygon fill="#63b8ff" stroke="#63b8ff" points="682.75,-415.8 672.18,-415.01 679.96,-422.21 682.75,-415.8"/>
</g>
<!-- Node28 -->
<g id="node28" class="node">
<title>Node28</title>
<g id="a_node28"><a xlink:title=" ">
<polygon fill="#e0e0e0" stroke="#999999" points="1164,-409.5 1114,-409.5 1114,-390.5 1164,-390.5 1164,-409.5"/>
<text text-anchor="middle" x="1139" y="-397.5" font-family="Helvetica,sans-Serif" font-size="10.00">cstring</text>
</a>
</g>
</g>
<!-- Node19&#45;&gt;Node28 -->
<g id="edge61" class="edge">
<title>Node19&#45;&gt;Node28</title>
<path fill="none" stroke="#63b8ff" d="M843.62,-459.17C906.82,-451.92 1011.79,-437.67 1100,-415 1102.5,-414.36 1105.06,-413.62 1107.63,-412.83"/>
<polygon fill="#63b8ff" stroke="#63b8ff" points="1108.98,-416.06 1117.36,-409.58 1106.77,-409.43 1108.98,-416.06"/>
</g>
<!-- Node29 -->
<g id="node29" class="node">
<title>Node29</title>
<g id="a_node29"><a xlink:title=" ">
<polygon fill="#e0e0e0" stroke="#999999" points="861,-409.5 815,-409.5 815,-390.5 861,-390.5 861,-409.5"/>
<text text-anchor="middle" x="838" y="-397.5" font-family="Helvetica,sans-Serif" font-size="10.00">cstdio</text>
</a>
</g>
</g>
<!-- Node19&#45;&gt;Node29 -->
<g id="edge62" class="edge">
<title>Node19&#45;&gt;Node29</title>
<path fill="none" stroke="#63b8ff" d="M798.32,-450.8C806.11,-441.01 816.5,-427.98 824.69,-417.7"/>
<polygon fill="#63b8ff" stroke="#63b8ff" points="827.46,-419.85 830.95,-409.84 821.98,-415.48 827.46,-419.85"/>
</g>
<!-- Node20&#45;&gt;Node8 -->
<g id="edge35" class="edge">
<title>Node20&#45;&gt;Node8</title>
<path fill="none" stroke="#63b8ff" d="M427,-318.8C425.94,-311.26 424.61,-301.78 423.39,-293.13"/>
<polygon fill="#63b8ff" stroke="#63b8ff" points="426.85,-292.58 421.99,-283.16 419.92,-293.55 426.85,-292.58"/>
</g>
<!-- Node20&#45;&gt;Node13 -->
<g id="edge36" class="edge">
<title>Node20&#45;&gt;Node13</title>
<path fill="none" stroke="#63b8ff" d="M401.46,-318.98C385.95,-310.14 366.95,-297.64 353,-283 329.5,-258.33 322.98,-249.87 314,-217 302.75,-175.84 301.73,-161.86 314,-121 316.94,-111.2 322.5,-101.54 328.23,-93.37"/>
<polygon fill="#63b8ff" stroke="#63b8ff" points="331.19,-95.25 334.39,-85.15 325.59,-91.05 331.19,-95.25"/>
</g>
<!-- Node20&#45;&gt;Node15 -->
<g id="edge38" class="edge">
<title>Node20&#45;&gt;Node15</title>
<path fill="none" stroke="#63b8ff" d="M502.14,-324.08C565.72,-315.32 652.18,-300.74 682,-283 723.12,-258.54 807.45,-142.85 842.35,-93.45"/>
<polygon fill="#63b8ff" stroke="#63b8ff" points="845.38,-95.23 848.27,-85.03 839.65,-91.2 845.38,-95.23"/>
</g>
<!-- Node20&#45;&gt;Node17 -->
<g id="edge37" class="edge">
<title>Node20&#45;&gt;Node17</title>
<path fill="none" stroke="#63b8ff" d="M394.11,-318.95C366.22,-307.73 327.51,-292.15 300.77,-281.39"/>
<polygon fill="#63b8ff" stroke="#63b8ff" points="301.74,-278 291.16,-277.52 299.13,-284.5 301.74,-278"/>
</g>
<!-- Node21&#45;&gt;Node13 -->
<g id="edge40" class="edge">
<title>Node21&#45;&gt;Node13</title>
<path fill="none" stroke="#63b8ff" d="M1038.17,-132.52C917.1,-127.39 648.54,-113.6 424,-85 422.48,-84.81 420.95,-84.6 419.41,-84.39"/>
<polygon fill="#63b8ff" stroke="#63b8ff" points="419.51,-80.87 409.11,-82.88 418.49,-87.79 419.51,-80.87"/>
</g>
<!-- Node21&#45;&gt;Node15 -->
<g id="edge42" class="edge">
<title>Node21&#45;&gt;Node15</title>
<path fill="none" stroke="#63b8ff" d="M1049.23,-120.95C1011.58,-111.12 961.11,-97.93 921.47,-87.58"/>
<polygon fill="#63b8ff" stroke="#63b8ff" points="922.2,-84.15 911.64,-85.01 920.43,-90.93 922.2,-84.15"/>
</g>
<!-- Node22 -->
<g id="node22" class="node">
<title>Node22</title>
<g id="a_node22"><a xlink:title=" ">
<polygon fill="#e0e0e0" stroke="#999999" points="1135.5,-79.5 1070.5,-79.5 1070.5,-60.5 1135.5,-60.5 1135.5,-79.5"/>
<text text-anchor="middle" x="1103" y="-67.5" font-family="Helvetica,sans-Serif" font-size="10.00">exception</text>
</a>
</g>
</g>
<!-- Node21&#45;&gt;Node22 -->
<g id="edge41" class="edge">
<title>Node21&#45;&gt;Node22</title>
<path fill="none" stroke="#63b8ff" d="M1103,-120.8C1103,-111.7 1103,-99.79 1103,-89.9"/>
<polygon fill="#63b8ff" stroke="#63b8ff" points="1106.5,-89.84 1103,-79.84 1099.5,-89.84 1106.5,-89.84"/>
</g>
<!-- Node23&#45;&gt;Node7 -->
<g id="edge49" class="edge">
<title>Node23&#45;&gt;Node7</title>
<path fill="none" stroke="#63b8ff" d="M583.49,-390.37C513.41,-379.66 393.1,-361.29 310.44,-348.66"/>
<polygon fill="#63b8ff" stroke="#63b8ff" points="310.96,-345.2 300.55,-347.15 309.9,-352.12 310.96,-345.2"/>
</g>
<!-- Node23&#45;&gt;Node13 -->
<g id="edge58" class="edge">
<title>Node23&#45;&gt;Node13</title>
<path fill="none" stroke="#63b8ff" d="M605.8,-384.91C587.81,-376.35 566.18,-364.14 550,-349 512.91,-314.3 528.26,-283.96 488,-253 446.89,-221.39 413.57,-253.77 377,-217 344.87,-184.69 342.75,-127.75 344.55,-95.35"/>
<polygon fill="#63b8ff" stroke="#63b8ff" points="348.04,-95.6 345.28,-85.37 341.06,-95.09 348.04,-95.6"/>
</g>
<!-- Node23&#45;&gt;Node15 -->
<g id="edge59" class="edge">
<title>Node23&#45;&gt;Node15</title>
<path fill="none" stroke="#63b8ff" d="M667.54,-384.95C683.41,-376.02 703.1,-363.44 718,-349 794.68,-274.72 819.82,-252.14 854,-151 860.08,-133.02 860.81,-111.47 860.17,-95.27"/>
<polygon fill="#63b8ff" stroke="#63b8ff" points="863.65,-94.79 859.56,-85.01 856.66,-95.21 863.65,-94.79"/>
</g>
<!-- Node24 -->
<g id="node24" class="node">
<title>Node24</title>
<g id="a_node24"><a xlink:href="tags_8hpp.html" target="_top" xlink:title=" ">
<polygon fill="white" stroke="#666666" points="675.5,-349 558.5,-349 558.5,-319 675.5,-319 675.5,-349"/>
<text text-anchor="start" x="566.5" y="-337" font-family="Helvetica,sans-Serif" font-size="10.00">proxsuite/linalg/veg</text>
<text text-anchor="middle" x="617" y="-326" font-family="Helvetica,sans-Serif" font-size="10.00">/type_traits/tags.hpp</text>
</a>
</g>
</g>
<!-- Node23&#45;&gt;Node24 -->
<g id="edge45" class="edge">
<title>Node23&#45;&gt;Node24</title>
<path fill="none" stroke="#63b8ff" d="M634.9,-384.8C632.16,-377.17 628.71,-367.57 625.57,-358.84"/>
<polygon fill="#63b8ff" stroke="#63b8ff" points="628.77,-357.39 622.09,-349.16 622.18,-359.76 628.77,-357.39"/>
</g>
<!-- Node25 -->
<g id="node25" class="node">
<title>Node25</title>
<g id="a_node25"><a xlink:href="address_8hpp.html" target="_top" xlink:title=" ">
<polygon fill="white" stroke="#666666" points="938.5,-349 815.5,-349 815.5,-319 938.5,-319 938.5,-349"/>
<text text-anchor="start" x="823.5" y="-337" font-family="Helvetica,sans-Serif" font-size="10.00">proxsuite/linalg/veg</text>
<text text-anchor="middle" x="877" y="-326" font-family="Helvetica,sans-Serif" font-size="10.00">/memory/address.hpp</text>
</a>
</g>
</g>
<!-- Node23&#45;&gt;Node25 -->
<g id="edge50" class="edge">
<title>Node23&#45;&gt;Node25</title>
<path fill="none" stroke="#63b8ff" d="M692.01,-384.95C728.28,-375.16 776.85,-362.05 815.11,-351.71"/>
<polygon fill="#63b8ff" stroke="#63b8ff" points="816.37,-355 825.11,-349.01 814.54,-348.24 816.37,-355"/>
</g>
<!-- Node24&#45;&gt;Node8 -->
<g id="edge46" class="edge">
<title>Node24&#45;&gt;Node8</title>
<path fill="none" stroke="#63b8ff" d="M573.77,-318.95C544,-309.28 504.28,-296.38 472.66,-286.11"/>
<polygon fill="#63b8ff" stroke="#63b8ff" points="473.72,-282.77 463.13,-283.01 471.56,-289.43 473.72,-282.77"/>
</g>
<!-- Node24&#45;&gt;Node13 -->
<g id="edge47" class="edge">
<title>Node24&#45;&gt;Node13</title>
<path fill="none" stroke="#63b8ff" d="M603.71,-318.8C586.31,-301.01 554.1,-270.69 521,-253 471.14,-226.35 440.06,-255.86 399,-217 381.03,-200 362.05,-132.12 352.78,-95.2"/>
<polygon fill="#63b8ff" stroke="#63b8ff" points="356.12,-94.13 350.33,-85.25 349.32,-95.8 356.12,-94.13"/>
</g>
<!-- Node24&#45;&gt;Node15 -->
<g id="edge48" class="edge">
<title>Node24&#45;&gt;Node15</title>
<path fill="none" stroke="#63b8ff" d="M655.32,-318.81C675.68,-310.22 700.46,-298.02 720,-283 727.68,-277.1 829.34,-159.49 834,-151 843.61,-133.48 849.83,-111.64 853.52,-95.21"/>
<polygon fill="#63b8ff" stroke="#63b8ff" points="856.98,-95.79 855.6,-85.29 850.13,-94.36 856.98,-95.79"/>
</g>
<!-- Node25&#45;&gt;Node8 -->
<g id="edge51" class="edge">
<title>Node25&#45;&gt;Node8</title>
<path fill="none" stroke="#63b8ff" d="M815.37,-324.37C730.33,-312.46 577.48,-291.05 488.81,-278.64"/>
<polygon fill="#63b8ff" stroke="#63b8ff" points="489.24,-275.16 478.85,-277.24 488.27,-282.09 489.24,-275.16"/>
</g>
<!-- Node25&#45;&gt;Node13 -->
<g id="edge55" class="edge">
<title>Node25&#45;&gt;Node13</title>
<path fill="none" stroke="#63b8ff" d="M851.21,-318.99C801.91,-292.36 690.65,-232.97 595,-187 559.49,-169.94 548.41,-170.17 514,-151 493.32,-139.48 490.86,-132.19 470,-121 446.8,-108.56 419.83,-97.27 397.06,-88.58"/>
<polygon fill="#63b8ff" stroke="#63b8ff" points="398.18,-85.26 387.59,-85.02 395.71,-91.81 398.18,-85.26"/>
</g>
<!-- Node25&#45;&gt;Node15 -->
<g id="edge57" class="edge">
<title>Node25&#45;&gt;Node15</title>
<path fill="none" stroke="#63b8ff" d="M891.88,-318.77C900.45,-309.51 910.41,-296.64 915,-283 926.41,-249.12 953.09,-217.11 910,-121 904.93,-109.69 896,-99.65 886.96,-91.58"/>
<polygon fill="#63b8ff" stroke="#63b8ff" points="889.01,-88.73 879.08,-85.03 884.53,-94.12 889.01,-88.73"/>
</g>
<!-- Node26 -->
<g id="node26" class="node">
<title>Node26</title>
<g id="a_node26"><a xlink:href="std_8hpp.html" target="_top" xlink:title=" ">
<polygon fill="white" stroke="#666666" points="1337.5,-151 1224.5,-151 1224.5,-121 1337.5,-121 1337.5,-151"/>
<text text-anchor="start" x="1232.5" y="-139" font-family="Helvetica,sans-Serif" font-size="10.00">proxsuite/linalg/veg</text>
<text text-anchor="middle" x="1281" y="-128" font-family="Helvetica,sans-Serif" font-size="10.00">/internal/std.hpp</text>
</a>
</g>
</g>
<!-- Node25&#45;&gt;Node26 -->
<g id="edge52" class="edge">
<title>Node25&#45;&gt;Node26</title>
<path fill="none" stroke="#63b8ff" d="M906.05,-318.9C977.6,-284.2 1162.28,-194.6 1242.67,-155.6"/>
<polygon fill="#63b8ff" stroke="#63b8ff" points="1244.47,-158.61 1251.94,-151.1 1241.41,-152.32 1244.47,-158.61"/>
</g>
<!-- Node27 -->
<g id="node27" class="node">
<title>Node27</title>
<g id="a_node27"><a xlink:title=" ">
<polygon fill="#e0e0e0" stroke="#999999" points="906,-277.5 848,-277.5 848,-258.5 906,-258.5 906,-277.5"/>
<text text-anchor="middle" x="877" y="-265.5" font-family="Helvetica,sans-Serif" font-size="10.00">memory</text>
</a>
</g>
</g>
<!-- Node25&#45;&gt;Node27 -->
<g id="edge56" class="edge">
<title>Node25&#45;&gt;Node27</title>
<path fill="none" stroke="#63b8ff" d="M877,-318.8C877,-309.7 877,-297.79 877,-287.9"/>
<polygon fill="#63b8ff" stroke="#63b8ff" points="880.5,-287.84 877,-277.84 873.5,-287.84 880.5,-287.84"/>
</g>
<!-- Node26&#45;&gt;Node4 -->
<g id="edge53" class="edge">
<title>Node26&#45;&gt;Node4</title>
<path fill="none" stroke="#63b8ff" d="M1262.87,-120.87C1237.9,-102.24 1190.79,-70.09 1145,-55 1073.14,-31.32 845.29,-17.04 757.22,-12.28"/>
<polygon fill="#63b8ff" stroke="#63b8ff" points="757.36,-8.78 747.19,-11.75 756.99,-15.77 757.36,-8.78"/>
</g>
<!-- Node26&#45;&gt;Node14 -->
<g id="edge54" class="edge">
<title>Node26&#45;&gt;Node14</title>
<path fill="none" stroke="#63b8ff" d="M1224.5,-122.36C1171.5,-110.5 1093.1,-92.95 1043.04,-81.75"/>
<polygon fill="#63b8ff" stroke="#63b8ff" points="1043.64,-78.3 1033.12,-79.53 1042.11,-85.13 1043.64,-78.3"/>
</g>
</g>
</svg>
