<?xml version="1.0" encoding="UTF-8" standalone="no"?>
<!DOCTYPE svg PUBLIC "-//W3C//DTD SVG 1.1//EN"
 "http://www.w3.org/Graphics/SVG/1.1/DTD/svg11.dtd">
<!-- Generated by graphviz version 8.1.0 (20230707.2238)
 -->
<!-- Title: tl::optional&lt; T &gt; Pages: 1 -->
<svg width="1151pt" height="182pt"
 viewBox="0.00 0.00 1150.50 182.25" xmlns="http://www.w3.org/2000/svg" xmlns:xlink="http://www.w3.org/1999/xlink">
<g id="graph0" class="graph" transform="scale(1 1) rotate(0) translate(4 178.25)">
<title>tl::optional&lt; T &gt;</title>
<!-- Node1 -->
<g id="Node000001" class="node">
<title>Node1</title>
<g id="a_Node000001"><a xlink:title=" ">
<polygon fill="#999999" stroke="#666666" points="1142.5,-97.5 1045.5,-97.5 1045.5,-76.75 1142.5,-76.75 1142.5,-97.5"/>
<text text-anchor="middle" x="1094" y="-84" font-family="Helvetica,sans-Serif" font-size="10.00">tl::optional&lt; T &gt;</text>
</a>
</g>
</g>
<!-- Node2 -->
<g id="Node000002" class="node">
<title>Node2</title>
<g id="a_Node000002"><a xlink:href="structtl_1_1detail_1_1optional__move__assign__base.html" target="_top" xlink:title=" ">
<polygon fill="white" stroke="#666666" points="993.75,-174.25 859.25,-174.25 859.25,-128 993.75,-128 993.75,-174.25"/>
<text text-anchor="start" x="867.25" y="-160.75" font-family="Helvetica,sans-Serif" font-size="10.00">tl::detail::optional</text>
<text text-anchor="start" x="867.25" y="-148" font-family="Helvetica,sans-Serif" font-size="10.00">_move_assign_base&lt; T,</text>
<text text-anchor="middle" x="926.5" y="-135.25" font-family="Helvetica,sans-Serif" font-size="10.00"> bool &gt;</text>
</a>
</g>
</g>
<!-- Node2&#45;&gt;Node1 -->
<g id="edge1_Node000001_Node000002" class="edge">
<title>Node2&#45;&gt;Node1</title>
<g id="a_edge1_Node000001_Node000002"><a xlink:title=" ">
<path fill="none" stroke="#8b1a1a" d="M998.21,-123.78C1021.84,-114.64 1046.81,-104.99 1065.19,-97.88"/>
<polygon fill="#8b1a1a" stroke="#8b1a1a" points="997.25,-120.79 989.19,-127.66 999.78,-127.31 997.25,-120.79"/>
</a>
</g>
</g>
<!-- Node3 -->
<g id="Node000003" class="node">
<title>Node3</title>
<g id="a_Node000003"><a xlink:href="structtl_1_1detail_1_1optional__copy__assign__base.html" target="_top" xlink:title=" ">
<polygon fill="white" stroke="#666666" points="807.5,-174.25 677.5,-174.25 677.5,-128 807.5,-128 807.5,-174.25"/>
<text text-anchor="start" x="685.5" y="-160.75" font-family="Helvetica,sans-Serif" font-size="10.00">tl::detail::optional</text>
<text text-anchor="start" x="685.5" y="-148" font-family="Helvetica,sans-Serif" font-size="10.00">_copy_assign_base&lt; T,</text>
<text text-anchor="middle" x="742.5" y="-135.25" font-family="Helvetica,sans-Serif" font-size="10.00"> bool &gt;</text>
</a>
</g>
</g>
<!-- Node3&#45;&gt;Node2 -->
<g id="edge2_Node000002_Node000003" class="edge">
<title>Node3&#45;&gt;Node2</title>
<g id="a_edge2_Node000002_Node000003"><a xlink:title=" ">
<path fill="none" stroke="#63b8ff" d="M818.55,-151.12C831.97,-151.12 845.86,-151.12 859.01,-151.12"/>
<polygon fill="#63b8ff" stroke="#63b8ff" points="818.92,-147.63 808.92,-151.12 818.92,-154.63 818.92,-147.63"/>
</a>
</g>
</g>
<!-- Node4 -->
<g id="Node000004" class="node">
<title>Node4</title>
<g id="a_Node000004"><a xlink:href="structtl_1_1detail_1_1optional__move__base.html" target="_top" xlink:title=" ">
<polygon fill="white" stroke="#666666" points="641.5,-167.88 508.5,-167.88 508.5,-134.38 641.5,-134.38 641.5,-167.88"/>
<text text-anchor="start" x="516.5" y="-154.38" font-family="Helvetica,sans-Serif" font-size="10.00">tl::detail::optional</text>
<text text-anchor="middle" x="575" y="-141.62" font-family="Helvetica,sans-Serif" font-size="10.00">_move_base&lt; T, bool &gt;</text>
</a>
</g>
</g>
<!-- Node4&#45;&gt;Node3 -->
<g id="edge3_Node000003_Node000004" class="edge">
<title>Node4&#45;&gt;Node3</title>
<g id="a_edge3_Node000003_Node000004"><a xlink:title=" ">
<path fill="none" stroke="#63b8ff" d="M652.62,-151.12C660.84,-151.12 669.14,-151.12 677.19,-151.12"/>
<polygon fill="#63b8ff" stroke="#63b8ff" points="652.89,-147.63 642.89,-151.12 652.89,-154.63 652.89,-147.63"/>
</a>
</g>
</g>
<!-- Node5 -->
<g id="Node000005" class="node">
<title>Node5</title>
<g id="a_Node000005"><a xlink:href="structtl_1_1detail_1_1optional__copy__base.html" target="_top" xlink:title=" ">
<polygon fill="white" stroke="#666666" points="472.5,-167.88 344,-167.88 344,-134.38 472.5,-134.38 472.5,-167.88"/>
<text text-anchor="start" x="352" y="-154.38" font-family="Helvetica,sans-Serif" font-size="10.00">tl::detail::optional</text>
<text text-anchor="middle" x="408.25" y="-141.62" font-family="Helvetica,sans-Serif" font-size="10.00">_copy_base&lt; T, bool &gt;</text>
</a>
</g>
</g>
<!-- Node5&#45;&gt;Node4 -->
<g id="edge4_Node000004_Node000005" class="edge">
<title>Node5&#45;&gt;Node4</title>
<g id="a_edge4_Node000004_Node000005"><a xlink:title=" ">
<path fill="none" stroke="#63b8ff" d="M483.85,-151.12C491.91,-151.12 500.07,-151.12 508.02,-151.12"/>
<polygon fill="#63b8ff" stroke="#63b8ff" points="483.95,-147.63 473.95,-151.12 483.95,-154.63 483.95,-147.63"/>
</a>
</g>
</g>
<!-- Node6 -->
<g id="Node000006" class="node">
<title>Node6</title>
<g id="a_Node000006"><a xlink:href="structtl_1_1detail_1_1optional__operations__base.html" target="_top" xlink:title=" ">
<polygon fill="white" stroke="#666666" points="308,-167.88 178,-167.88 178,-134.38 308,-134.38 308,-167.88"/>
<text text-anchor="start" x="186" y="-154.38" font-family="Helvetica,sans-Serif" font-size="10.00">tl::detail::optional</text>
<text text-anchor="middle" x="243" y="-141.62" font-family="Helvetica,sans-Serif" font-size="10.00">_operations_base&lt; T &gt;</text>
</a>
</g>
</g>
<!-- Node6&#45;&gt;Node5 -->
<g id="edge5_Node000005_Node000006" class="edge">
<title>Node6&#45;&gt;Node5</title>
<g id="a_edge5_Node000005_Node000006"><a xlink:title=" ">
<path fill="none" stroke="#63b8ff" d="M318.86,-151.12C327.14,-151.12 335.52,-151.12 343.65,-151.12"/>
<polygon fill="#63b8ff" stroke="#63b8ff" points="319.05,-147.63 309.05,-151.12 319.05,-154.63 319.05,-147.63"/>
</a>
</g>
</g>
<!-- Node7 -->
<g id="Node000007" class="node">
<title>Node7</title>
<g id="a_Node000007"><a xlink:href="structtl_1_1detail_1_1optional__storage__base.html" target="_top" xlink:title=" ">
<polygon fill="white" stroke="#666666" points="142,-167.88 0,-167.88 0,-134.38 142,-134.38 142,-167.88"/>
<text text-anchor="start" x="8" y="-154.38" font-family="Helvetica,sans-Serif" font-size="10.00">tl::detail::optional</text>
<text text-anchor="middle" x="71" y="-141.62" font-family="Helvetica,sans-Serif" font-size="10.00">_storage_base&lt; T, bool &gt;</text>
</a>
</g>
</g>
<!-- Node7&#45;&gt;Node6 -->
<g id="edge6_Node000006_Node000007" class="edge">
<title>Node7&#45;&gt;Node6</title>
<g id="a_edge6_Node000006_Node000007"><a xlink:title=" ">
<path fill="none" stroke="#63b8ff" d="M152.99,-151.12C161.3,-151.12 169.67,-151.12 177.76,-151.12"/>
<polygon fill="#63b8ff" stroke="#63b8ff" points="153.13,-147.63 143.13,-151.12 153.13,-154.63 153.13,-147.63"/>
</a>
</g>
</g>
<!-- Node8 -->
<g id="Node000008" class="node">
<title>Node8</title>
<g id="a_Node000008"><a xlink:href="structtl_1_1detail_1_1optional__delete__ctor__base.html" target="_top" xlink:title=" ">
<polygon fill="white" stroke="#666666" points="1003.5,-110.25 849.5,-110.25 849.5,-64 1003.5,-64 1003.5,-110.25"/>
<text text-anchor="start" x="857.5" y="-96.75" font-family="Helvetica,sans-Serif" font-size="10.00">tl::detail::optional</text>
<text text-anchor="start" x="857.5" y="-84" font-family="Helvetica,sans-Serif" font-size="10.00">_delete_ctor_base&lt; T,</text>
<text text-anchor="middle" x="926.5" y="-71.25" font-family="Helvetica,sans-Serif" font-size="10.00"> EnableCopy, EnableMove &gt;</text>
</a>
</g>
</g>
<!-- Node8&#45;&gt;Node1 -->
<g id="edge7_Node000001_Node000008" class="edge">
<title>Node8&#45;&gt;Node1</title>
<g id="a_edge7_Node000001_Node000008"><a xlink:title=" ">
<path fill="none" stroke="#8b1a1a" d="M1014.85,-87.12C1025.29,-87.12 1035.64,-87.12 1045.23,-87.12"/>
<polygon fill="#8b1a1a" stroke="#8b1a1a" points="1014.95,-83.63 1004.95,-87.12 1014.95,-90.63 1014.95,-83.63"/>
</a>
</g>
</g>
<!-- Node9 -->
<g id="Node000009" class="node">
<title>Node9</title>
<g id="a_Node000009"><a xlink:href="structtl_1_1detail_1_1optional__delete__assign__base.html" target="_top" xlink:title=" ">
<polygon fill="white" stroke="#666666" points="1009.5,-46.25 843.5,-46.25 843.5,0 1009.5,0 1009.5,-46.25"/>
<text text-anchor="start" x="851.5" y="-32.75" font-family="Helvetica,sans-Serif" font-size="10.00">tl::detail::optional</text>
<text text-anchor="start" x="851.5" y="-20" font-family="Helvetica,sans-Serif" font-size="10.00">_delete_assign_base&lt;</text>
<text text-anchor="middle" x="926.5" y="-7.25" font-family="Helvetica,sans-Serif" font-size="10.00"> T, EnableCopy, EnableMove &gt;</text>
</a>
</g>
</g>
<!-- Node9&#45;&gt;Node1 -->
<g id="edge8_Node000001_Node000009" class="edge">
<title>Node9&#45;&gt;Node1</title>
<g id="a_edge8_Node000001_Node000009"><a xlink:title=" ">
<path fill="none" stroke="#8b1a1a" d="M998.21,-50.47C1021.84,-59.61 1046.81,-69.26 1065.19,-76.37"/>
<polygon fill="#8b1a1a" stroke="#8b1a1a" points="999.78,-46.94 989.19,-46.59 997.25,-53.46 999.78,-46.94"/>
</a>
</g>
</g>
</g>
</svg>
