<?xml version="1.0" encoding="UTF-8" standalone="no"?>
<!DOCTYPE svg PUBLIC "-//W3C//DTD SVG 1.1//EN"
 "http://www.w3.org/Graphics/SVG/1.1/DTD/svg11.dtd">
<!-- Generated by graphviz version 7.1.0 (20230122.1345)
 -->
<!-- Title: tl::optional&lt; T &gt; Pages: 1 -->
<svg width="1386pt" height="191pt"
 viewBox="0.00 0.00 1386.00 191.00" xmlns="http://www.w3.org/2000/svg" xmlns:xlink="http://www.w3.org/1999/xlink">
<g id="graph0" class="graph" transform="scale(1 1) rotate(0) translate(4 187)">
<title>tl::optional&lt; T &gt;</title>
<!-- Node1 -->
<g id="node1" class="node">
<title>Node1</title>
<g id="a_node1"><a xlink:title=" ">
<polygon fill="#999999" stroke="#666666" points="1378,-89 1280,-89 1280,-70 1378,-70 1378,-89"/>
<text text-anchor="middle" x="1329" y="-77" font-family="Helvetica,sans-Serif" font-size="10.00">tl::optional&lt; T &gt;</text>
</a>
</g>
</g>
<!-- Node2 -->
<g id="node2" class="node">
<title>Node2</title>
<g id="a_node2"><a xlink:href="structtl_1_1detail_1_1optional__move__assign__base.html" target="_top" xlink:title=" ">
<polygon fill="white" stroke="#666666" points="1227,-159 1092,-159 1092,-118 1227,-118 1227,-159"/>
<text text-anchor="start" x="1100" y="-147" font-family="Helvetica,sans-Serif" font-size="10.00">tl::detail::optional</text>
<text text-anchor="start" x="1100" y="-136" font-family="Helvetica,sans-Serif" font-size="10.00">_move_assign_base&lt; T,</text>
<text text-anchor="middle" x="1159.5" y="-125" font-family="Helvetica,sans-Serif" font-size="10.00"> bool &gt;</text>
</a>
</g>
</g>
<!-- Node2&#45;&gt;Node1 -->
<g id="edge1" class="edge">
<title>Node2&#45;&gt;Node1</title>
<path fill="none" stroke="#8b1a1a" d="M1230.66,-113.79C1254.89,-105.25 1280.69,-96.16 1299.63,-89.49"/>
<polygon fill="#8b1a1a" stroke="#8b1a1a" points="1229.72,-110.41 1221.45,-117.03 1232.05,-117.01 1229.72,-110.41"/>
</g>
<!-- Node3 -->
<g id="node3" class="node">
<title>Node3</title>
<g id="a_node3"><a xlink:href="structtl_1_1detail_1_1optional__copy__assign__base.html" target="_top" xlink:title=" ">
<polygon fill="white" stroke="#666666" points="1039,-159 908,-159 908,-118 1039,-118 1039,-159"/>
<text text-anchor="start" x="916" y="-147" font-family="Helvetica,sans-Serif" font-size="10.00">tl::detail::optional</text>
<text text-anchor="start" x="916" y="-136" font-family="Helvetica,sans-Serif" font-size="10.00">_copy_assign_base&lt; T,</text>
<text text-anchor="middle" x="973.5" y="-125" font-family="Helvetica,sans-Serif" font-size="10.00"> bool &gt;</text>
</a>
</g>
</g>
<!-- Node3&#45;&gt;Node2 -->
<g id="edge2" class="edge">
<title>Node3&#45;&gt;Node2</title>
<path fill="none" stroke="#63b8ff" d="M1050.67,-138.5C1064.3,-138.5 1078.39,-138.5 1091.73,-138.5"/>
<polygon fill="#63b8ff" stroke="#63b8ff" points="1050.89,-135 1040.89,-138.5 1050.89,-142 1050.89,-135"/>
</g>
<!-- Node4 -->
<g id="node4" class="node">
<title>Node4</title>
<g id="a_node4"><a xlink:href="structtl_1_1detail_1_1optional__move__base.html" target="_top" xlink:title=" ">
<polygon fill="white" stroke="#666666" points="871,-153.5 737,-153.5 737,-123.5 871,-123.5 871,-153.5"/>
<text text-anchor="start" x="745" y="-141.5" font-family="Helvetica,sans-Serif" font-size="10.00">tl::detail::optional</text>
<text text-anchor="middle" x="804" y="-130.5" font-family="Helvetica,sans-Serif" font-size="10.00">_move_base&lt; T, bool &gt;</text>
</a>
</g>
</g>
<!-- Node4&#45;&gt;Node3 -->
<g id="edge3" class="edge">
<title>Node4&#45;&gt;Node3</title>
<path fill="none" stroke="#63b8ff" d="M882.55,-138.5C890.93,-138.5 899.39,-138.5 907.6,-138.5"/>
<polygon fill="#63b8ff" stroke="#63b8ff" points="882.71,-135 872.71,-138.5 882.71,-142 882.71,-135"/>
</g>
<!-- Node5 -->
<g id="node5" class="node">
<title>Node5</title>
<g id="a_node5"><a xlink:href="structtl_1_1detail_1_1optional__copy__base.html" target="_top" xlink:title=" ">
<polygon fill="white" stroke="#666666" points="700,-153.5 571,-153.5 571,-123.5 700,-123.5 700,-153.5"/>
<text text-anchor="start" x="579" y="-141.5" font-family="Helvetica,sans-Serif" font-size="10.00">tl::detail::optional</text>
<text text-anchor="middle" x="635.5" y="-130.5" font-family="Helvetica,sans-Serif" font-size="10.00">_copy_base&lt; T, bool &gt;</text>
</a>
</g>
</g>
<!-- Node5&#45;&gt;Node4 -->
<g id="edge4" class="edge">
<title>Node5&#45;&gt;Node4</title>
<path fill="none" stroke="#63b8ff" d="M711.9,-138.5C720.11,-138.5 728.42,-138.5 736.51,-138.5"/>
<polygon fill="#63b8ff" stroke="#63b8ff" points="711.91,-135 701.91,-138.5 711.91,-142 711.91,-135"/>
</g>
<!-- Node6 -->
<g id="node6" class="node">
<title>Node6</title>
<g id="a_node6"><a xlink:href="structtl_1_1detail_1_1optional__operations__base.html" target="_top" xlink:title=" ">
<polygon fill="white" stroke="#666666" points="534,-153.5 403,-153.5 403,-123.5 534,-123.5 534,-153.5"/>
<text text-anchor="start" x="411" y="-141.5" font-family="Helvetica,sans-Serif" font-size="10.00">tl::detail::optional</text>
<text text-anchor="middle" x="468.5" y="-130.5" font-family="Helvetica,sans-Serif" font-size="10.00">_operations_base&lt; T &gt;</text>
</a>
</g>
</g>
<!-- Node6&#45;&gt;Node5 -->
<g id="edge5" class="edge">
<title>Node6&#45;&gt;Node5</title>
<path fill="none" stroke="#63b8ff" d="M545.62,-138.5C554.03,-138.5 562.52,-138.5 570.76,-138.5"/>
<polygon fill="#63b8ff" stroke="#63b8ff" points="545.75,-135 535.75,-138.5 545.75,-142 545.75,-135"/>
</g>
<!-- Node7 -->
<g id="node7" class="node">
<title>Node7</title>
<g id="a_node7"><a xlink:href="structtl_1_1detail_1_1optional__storage__base.html" target="_top" xlink:title=" ">
<polygon fill="white" stroke="#666666" points="366,-153.5 223,-153.5 223,-123.5 366,-123.5 366,-153.5"/>
<text text-anchor="start" x="231" y="-141.5" font-family="Helvetica,sans-Serif" font-size="10.00">tl::detail::optional</text>
<text text-anchor="middle" x="294.5" y="-130.5" font-family="Helvetica,sans-Serif" font-size="10.00">_storage_base&lt; T, bool &gt;</text>
</a>
</g>
</g>
<!-- Node7&#45;&gt;Node6 -->
<g id="edge6" class="edge">
<title>Node7&#45;&gt;Node6</title>
<path fill="none" stroke="#63b8ff" d="M377.73,-138.5C386.05,-138.5 394.41,-138.5 402.5,-138.5"/>
<polygon fill="#63b8ff" stroke="#63b8ff" points="377.97,-135 367.97,-138.5 377.97,-142 377.97,-135"/>
</g>
<!-- Node8 -->
<g id="node8" class="node">
<title>Node8</title>
<g id="a_node8"><a xlink:href="structtl_1_1detail_1_1optional__storage__base_1_1dummy.html" target="_top" xlink:title=" ">
<polygon fill="white" stroke="#666666" points="131,-183 0,-183 0,-142 131,-142 131,-183"/>
<text text-anchor="start" x="8" y="-171" font-family="Helvetica,sans-Serif" font-size="10.00">tl::detail::optional</text>
<text text-anchor="start" x="8" y="-160" font-family="Helvetica,sans-Serif" font-size="10.00">_storage_base&lt; T, bool</text>
<text text-anchor="middle" x="65.5" y="-149" font-family="Helvetica,sans-Serif" font-size="10.00"> &gt;::dummy</text>
</a>
</g>
</g>
<!-- Node8&#45;&gt;Node7 -->
<g id="edge7" class="edge">
<title>Node8&#45;&gt;Node7</title>
<path fill="none" stroke="#9a32cd" stroke-dasharray="5,2" d="M142.53,-154.46C168.42,-151.72 197.24,-148.68 222.7,-145.99"/>
<polygon fill="#9a32cd" stroke="#9a32cd" points="142.33,-150.96 132.75,-155.5 143.06,-157.92 142.33,-150.96"/>
<text text-anchor="middle" x="177" y="-155.5" font-family="Helvetica,sans-Serif" font-size="10.00"> m_dummy</text>
</g>
<!-- Node9 -->
<g id="node9" class="node">
<title>Node9</title>
<g id="a_node9"><a xlink:title=" ">
<polygon fill="white" stroke="#666666" points="80,-124 51,-124 51,-105 80,-105 80,-124"/>
<text text-anchor="middle" x="65.5" y="-112" font-family="Helvetica,sans-Serif" font-size="10.00">T</text>
</a>
</g>
</g>
<!-- Node9&#45;&gt;Node7 -->
<g id="edge8" class="edge">
<title>Node9&#45;&gt;Node7</title>
<path fill="none" stroke="#9a32cd" stroke-dasharray="5,2" d="M91.52,-117.15C122.89,-120.46 177.99,-126.29 222.73,-131.02"/>
<polygon fill="#9a32cd" stroke="#9a32cd" points="92.18,-113.7 81.86,-116.12 91.44,-120.66 92.18,-113.7"/>
<text text-anchor="middle" x="177" y="-132.5" font-family="Helvetica,sans-Serif" font-size="10.00"> m_value</text>
</g>
<!-- Node10 -->
<g id="node10" class="node">
<title>Node10</title>
<g id="a_node10"><a xlink:href="structtl_1_1detail_1_1optional__delete__ctor__base.html" target="_top" xlink:title=" ">
<polygon fill="white" stroke="#666666" points="1237,-100 1082,-100 1082,-59 1237,-59 1237,-100"/>
<text text-anchor="start" x="1090" y="-88" font-family="Helvetica,sans-Serif" font-size="10.00">tl::detail::optional</text>
<text text-anchor="start" x="1090" y="-77" font-family="Helvetica,sans-Serif" font-size="10.00">_delete_ctor_base&lt; T,</text>
<text text-anchor="middle" x="1159.5" y="-66" font-family="Helvetica,sans-Serif" font-size="10.00"> EnableCopy, EnableMove &gt;</text>
</a>
</g>
</g>
<!-- Node10&#45;&gt;Node1 -->
<g id="edge9" class="edge">
<title>Node10&#45;&gt;Node1</title>
<path fill="none" stroke="#8b1a1a" d="M1248.59,-79.5C1259.33,-79.5 1269.98,-79.5 1279.82,-79.5"/>
<polygon fill="#8b1a1a" stroke="#8b1a1a" points="1248.9,-76 1238.9,-79.5 1248.9,-83 1248.9,-76"/>
</g>
<!-- Node11 -->
<g id="node11" class="node">
<title>Node11</title>
<g id="a_node11"><a xlink:href="structtl_1_1detail_1_1optional__delete__assign__base.html" target="_top" xlink:title=" ">
<polygon fill="white" stroke="#666666" points="1243,-41 1076,-41 1076,0 1243,0 1243,-41"/>
<text text-anchor="start" x="1084" y="-29" font-family="Helvetica,sans-Serif" font-size="10.00">tl::detail::optional</text>
<text text-anchor="start" x="1084" y="-18" font-family="Helvetica,sans-Serif" font-size="10.00">_delete_assign_base&lt;</text>
<text text-anchor="middle" x="1159.5" y="-7" font-family="Helvetica,sans-Serif" font-size="10.00"> T, EnableCopy, EnableMove &gt;</text>
</a>
</g>
</g>
<!-- Node11&#45;&gt;Node1 -->
<g id="edge10" class="edge">
<title>Node11&#45;&gt;Node1</title>
<path fill="none" stroke="#8b1a1a" d="M1230.52,-45.11C1234.74,-46.59 1238.93,-48.07 1243,-49.5 1262.04,-56.21 1283.48,-63.77 1300.06,-69.63"/>
<polygon fill="#8b1a1a" stroke="#8b1a1a" points="1232.01,-41.92 1221.41,-41.9 1229.69,-48.52 1232.01,-41.92"/>
</g>
</g>
</svg>
