<?xml version="1.0" encoding="UTF-8" standalone="no"?>
<!DOCTYPE svg PUBLIC "-//W3C//DTD SVG 1.1//EN"
 "http://www.w3.org/Graphics/SVG/1.1/DTD/svg11.dtd">
<!-- Generated by graphviz version 12.0.0 (20240803.0821)
 -->
<!-- Title: tl::optional&lt; T &gt; Pages: 1 -->
<svg width="1379pt" height="208pt"
 viewBox="0.00 0.00 1378.75 208.25" xmlns="http://www.w3.org/2000/svg" xmlns:xlink="http://www.w3.org/1999/xlink">
<g id="graph0" class="graph" transform="scale(1 1) rotate(0) translate(4 204.25)">
<title>tl::optional&lt; T &gt;</title>
<!-- Node1 -->
<g id="Node000001" class="node">
<title>Node1</title>
<g id="a_Node000001"><a xlink:title=" ">
<polygon fill="#999999" stroke="#666666" points="1370.75,-97.5 1273.75,-97.5 1273.75,-76.75 1370.75,-76.75 1370.75,-97.5"/>
<text text-anchor="middle" x="1322.25" y="-84" font-family="Helvetica,sans-Serif" font-size="10.00">tl::optional&lt; T &gt;</text>
</a>
</g>
</g>
<!-- Node2 -->
<g id="Node000002" class="node">
<title>Node2</title>
<g id="a_Node000002"><a xlink:href="structtl_1_1detail_1_1optional__move__assign__base.html" target="_top" xlink:title=" ">
<polygon fill="white" stroke="#666666" points="1221,-174.25 1086.5,-174.25 1086.5,-128 1221,-128 1221,-174.25"/>
<text text-anchor="start" x="1094.5" y="-160.75" font-family="Helvetica,sans-Serif" font-size="10.00">tl::detail::optional</text>
<text text-anchor="start" x="1094.5" y="-148" font-family="Helvetica,sans-Serif" font-size="10.00">_move_assign_base&lt; T,</text>
<text text-anchor="middle" x="1153.75" y="-135.25" font-family="Helvetica,sans-Serif" font-size="10.00"> bool &gt;</text>
</a>
</g>
</g>
<!-- Node2&#45;&gt;Node1 -->
<g id="edge1_Node000001_Node000002" class="edge">
<title>Node2&#45;&gt;Node1</title>
<g id="a_edge1_Node000001_Node000002"><a xlink:title=" ">
<path fill="none" stroke="#8b1a1a" d="M1226.52,-123.54C1250.11,-114.47 1274.94,-104.92 1293.27,-97.88"/>
<polygon fill="#8b1a1a" stroke="#8b1a1a" points="1225.29,-120.26 1217.22,-127.11 1227.81,-126.79 1225.29,-120.26"/>
</a>
</g>
</g>
<!-- Node3 -->
<g id="Node000003" class="node">
<title>Node3</title>
<g id="a_Node000003"><a xlink:href="structtl_1_1detail_1_1optional__copy__assign__base.html" target="_top" xlink:title=" ">
<polygon fill="white" stroke="#666666" points="1033.75,-174.25 903.75,-174.25 903.75,-128 1033.75,-128 1033.75,-174.25"/>
<text text-anchor="start" x="911.75" y="-160.75" font-family="Helvetica,sans-Serif" font-size="10.00">tl::detail::optional</text>
<text text-anchor="start" x="911.75" y="-148" font-family="Helvetica,sans-Serif" font-size="10.00">_copy_assign_base&lt; T,</text>
<text text-anchor="middle" x="968.75" y="-135.25" font-family="Helvetica,sans-Serif" font-size="10.00"> bool &gt;</text>
</a>
</g>
</g>
<!-- Node3&#45;&gt;Node2 -->
<g id="edge2_Node000002_Node000003" class="edge">
<title>Node3&#45;&gt;Node2</title>
<g id="a_edge2_Node000002_Node000003"><a xlink:title=" ">
<path fill="none" stroke="#63b8ff" d="M1045.26,-151.12C1058.83,-151.12 1072.87,-151.12 1086.16,-151.12"/>
<polygon fill="#63b8ff" stroke="#63b8ff" points="1045.53,-147.63 1035.53,-151.13 1045.53,-154.63 1045.53,-147.63"/>
</a>
</g>
</g>
<!-- Node4 -->
<g id="Node000004" class="node">
<title>Node4</title>
<g id="a_Node000004"><a xlink:href="structtl_1_1detail_1_1optional__move__base.html" target="_top" xlink:title=" ">
<polygon fill="white" stroke="#666666" points="866.75,-167.88 733.75,-167.88 733.75,-134.38 866.75,-134.38 866.75,-167.88"/>
<text text-anchor="start" x="741.75" y="-154.38" font-family="Helvetica,sans-Serif" font-size="10.00">tl::detail::optional</text>
<text text-anchor="middle" x="800.25" y="-141.62" font-family="Helvetica,sans-Serif" font-size="10.00">_move_base&lt; T, bool &gt;</text>
</a>
</g>
</g>
<!-- Node4&#45;&gt;Node3 -->
<g id="edge3_Node000003_Node000004" class="edge">
<title>Node4&#45;&gt;Node3</title>
<g id="a_edge3_Node000003_Node000004"><a xlink:title=" ">
<path fill="none" stroke="#63b8ff" d="M878.42,-151.12C886.82,-151.12 895.29,-151.12 903.51,-151.12"/>
<polygon fill="#63b8ff" stroke="#63b8ff" points="878.57,-147.63 868.57,-151.13 878.57,-154.63 878.57,-147.63"/>
</a>
</g>
</g>
<!-- Node5 -->
<g id="Node000005" class="node">
<title>Node5</title>
<g id="a_Node000005"><a xlink:href="structtl_1_1detail_1_1optional__copy__base.html" target="_top" xlink:title=" ">
<polygon fill="white" stroke="#666666" points="696.75,-167.88 568.25,-167.88 568.25,-134.38 696.75,-134.38 696.75,-167.88"/>
<text text-anchor="start" x="576.25" y="-154.38" font-family="Helvetica,sans-Serif" font-size="10.00">tl::detail::optional</text>
<text text-anchor="middle" x="632.5" y="-141.62" font-family="Helvetica,sans-Serif" font-size="10.00">_copy_base&lt; T, bool &gt;</text>
</a>
</g>
</g>
<!-- Node5&#45;&gt;Node4 -->
<g id="edge4_Node000004_Node000005" class="edge">
<title>Node5&#45;&gt;Node4</title>
<g id="a_edge4_Node000004_Node000005"><a xlink:title=" ">
<path fill="none" stroke="#63b8ff" d="M708.37,-151.12C716.7,-151.12 725.13,-151.12 733.34,-151.12"/>
<polygon fill="#63b8ff" stroke="#63b8ff" points="708.62,-147.63 698.62,-151.13 708.62,-154.63 708.62,-147.63"/>
</a>
</g>
</g>
<!-- Node6 -->
<g id="Node000006" class="node">
<title>Node6</title>
<g id="a_Node000006"><a xlink:href="structtl_1_1detail_1_1optional__operations__base.html" target="_top" xlink:title=" ">
<polygon fill="white" stroke="#666666" points="531.25,-167.88 401.25,-167.88 401.25,-134.38 531.25,-134.38 531.25,-167.88"/>
<text text-anchor="start" x="409.25" y="-154.38" font-family="Helvetica,sans-Serif" font-size="10.00">tl::detail::optional</text>
<text text-anchor="middle" x="466.25" y="-141.62" font-family="Helvetica,sans-Serif" font-size="10.00">_operations_base&lt; T &gt;</text>
</a>
</g>
</g>
<!-- Node6&#45;&gt;Node5 -->
<g id="edge5_Node000005_Node000006" class="edge">
<title>Node6&#45;&gt;Node5</title>
<g id="a_edge5_Node000005_Node000006"><a xlink:title=" ">
<path fill="none" stroke="#63b8ff" d="M542.94,-151.12C551.24,-151.12 559.64,-151.12 567.78,-151.12"/>
<polygon fill="#63b8ff" stroke="#63b8ff" points="543.21,-147.63 533.21,-151.13 543.21,-154.63 543.21,-147.63"/>
</a>
</g>
</g>
<!-- Node7 -->
<g id="Node000007" class="node">
<title>Node7</title>
<g id="a_Node000007"><a xlink:href="structtl_1_1detail_1_1optional__storage__base.html" target="_top" xlink:title=" ">
<polygon fill="white" stroke="#666666" points="364.25,-167.88 222.25,-167.88 222.25,-134.38 364.25,-134.38 364.25,-167.88"/>
<text text-anchor="start" x="230.25" y="-154.38" font-family="Helvetica,sans-Serif" font-size="10.00">tl::detail::optional</text>
<text text-anchor="middle" x="293.25" y="-141.62" font-family="Helvetica,sans-Serif" font-size="10.00">_storage_base&lt; T, bool &gt;</text>
</a>
</g>
</g>
<!-- Node7&#45;&gt;Node6 -->
<g id="edge6_Node000006_Node000007" class="edge">
<title>Node7&#45;&gt;Node6</title>
<g id="a_edge6_Node000006_Node000007"><a xlink:title=" ">
<path fill="none" stroke="#63b8ff" d="M375.72,-151.12C384.14,-151.12 392.61,-151.12 400.81,-151.12"/>
<polygon fill="#63b8ff" stroke="#63b8ff" points="375.81,-147.63 365.81,-151.13 375.81,-154.63 375.81,-147.63"/>
</a>
</g>
</g>
<!-- Node8 -->
<g id="Node000008" class="node">
<title>Node8</title>
<g id="a_Node000008"><a xlink:href="structtl_1_1detail_1_1optional__storage__base_1_1dummy.html" target="_top" xlink:title=" ">
<polygon fill="white" stroke="#666666" points="130.75,-200.25 0,-200.25 0,-154 130.75,-154 130.75,-200.25"/>
<text text-anchor="start" x="8" y="-186.75" font-family="Helvetica,sans-Serif" font-size="10.00">tl::detail::optional</text>
<text text-anchor="start" x="8" y="-174" font-family="Helvetica,sans-Serif" font-size="10.00">_storage_base&lt; T, bool</text>
<text text-anchor="middle" x="65.38" y="-161.25" font-family="Helvetica,sans-Serif" font-size="10.00"> &gt;::dummy</text>
</a>
</g>
</g>
<!-- Node8&#45;&gt;Node7 -->
<g id="edge7_Node000007_Node000008" class="edge">
<title>Node8&#45;&gt;Node7</title>
<g id="a_edge7_Node000007_Node000008"><a xlink:title=" ">
<path fill="none" stroke="#9a32cd" stroke-dasharray="5,2" d="M142.32,-168.38C168.07,-165.42 196.7,-162.12 221.98,-159.21"/>
<polygon fill="#9a32cd" stroke="#9a32cd" points="142.14,-164.88 132.61,-169.5 142.94,-171.83 142.14,-164.88"/>
</a>
</g>
<text text-anchor="middle" x="176.5" y="-170.38" font-family="Helvetica,sans-Serif" font-size="10.00" fill="grey"> m_dummy</text>
</g>
<!-- Node9 -->
<g id="Node000009" class="node">
<title>Node9</title>
<g id="a_Node000009"><a xlink:title=" ">
<polygon fill="white" stroke="#666666" points="79.78,-135.5 50.98,-135.5 50.98,-114.75 79.78,-114.75 79.78,-135.5"/>
<text text-anchor="middle" x="65.38" y="-122" font-family="Helvetica,sans-Serif" font-size="10.00">T</text>
</a>
</g>
</g>
<!-- Node9&#45;&gt;Node7 -->
<g id="edge8_Node000007_Node000009" class="edge">
<title>Node9&#45;&gt;Node7</title>
<g id="a_edge8_Node000007_Node000009"><a xlink:title=" ">
<path fill="none" stroke="#9a32cd" stroke-dasharray="5,2" d="M91.27,-127.99C122.49,-131.58 177.32,-137.9 221.83,-143.02"/>
<polygon fill="#9a32cd" stroke="#9a32cd" points="92,-124.55 81.67,-126.89 91.2,-131.51 92,-124.55"/>
</a>
</g>
<text text-anchor="middle" x="176.5" y="-144.38" font-family="Helvetica,sans-Serif" font-size="10.00" fill="grey"> m_value</text>
</g>
<!-- Node10 -->
<g id="Node000010" class="node">
<title>Node10</title>
<g id="a_Node000010"><a xlink:href="structtl_1_1detail_1_1optional__delete__ctor__base.html" target="_top" xlink:title=" ">
<polygon fill="white" stroke="#666666" points="1230.75,-110.25 1076.75,-110.25 1076.75,-64 1230.75,-64 1230.75,-110.25"/>
<text text-anchor="start" x="1084.75" y="-96.75" font-family="Helvetica,sans-Serif" font-size="10.00">tl::detail::optional</text>
<text text-anchor="start" x="1084.75" y="-84" font-family="Helvetica,sans-Serif" font-size="10.00">_delete_ctor_base&lt; T,</text>
<text text-anchor="middle" x="1153.75" y="-71.25" font-family="Helvetica,sans-Serif" font-size="10.00"> EnableCopy, EnableMove &gt;</text>
</a>
</g>
</g>
<!-- Node10&#45;&gt;Node1 -->
<g id="edge9_Node000001_Node000010" class="edge">
<title>Node10&#45;&gt;Node1</title>
<g id="a_edge9_Node000001_Node000010"><a xlink:title=" ">
<path fill="none" stroke="#8b1a1a" d="M1242.65,-87.12C1253.21,-87.12 1263.68,-87.12 1273.36,-87.12"/>
<polygon fill="#8b1a1a" stroke="#8b1a1a" points="1242.69,-83.63 1232.69,-87.13 1242.69,-90.63 1242.69,-83.63"/>
</a>
</g>
</g>
<!-- Node11 -->
<g id="Node000011" class="node">
<title>Node11</title>
<g id="a_Node000011"><a xlink:href="structtl_1_1detail_1_1optional__delete__assign__base.html" target="_top" xlink:title=" ">
<polygon fill="white" stroke="#666666" points="1236.75,-46.25 1070.75,-46.25 1070.75,0 1236.75,0 1236.75,-46.25"/>
<text text-anchor="start" x="1078.75" y="-32.75" font-family="Helvetica,sans-Serif" font-size="10.00">tl::detail::optional</text>
<text text-anchor="start" x="1078.75" y="-20" font-family="Helvetica,sans-Serif" font-size="10.00">_delete_assign_base&lt;</text>
<text text-anchor="middle" x="1153.75" y="-7.25" font-family="Helvetica,sans-Serif" font-size="10.00"> T, EnableCopy, EnableMove &gt;</text>
</a>
</g>
</g>
<!-- Node11&#45;&gt;Node1 -->
<g id="edge10_Node000001_Node000011" class="edge">
<title>Node11&#45;&gt;Node1</title>
<g id="a_edge10_Node000001_Node000011"><a xlink:title=" ">
<path fill="none" stroke="#8b1a1a" d="M1226.52,-50.71C1250.11,-59.78 1274.94,-69.33 1293.27,-76.37"/>
<polygon fill="#8b1a1a" stroke="#8b1a1a" points="1227.81,-47.46 1217.22,-47.14 1225.29,-53.99 1227.81,-47.46"/>
</a>
</g>
</g>
</g>
</svg>
