<?xml version="1.0" encoding="UTF-8" standalone="no"?>
<!DOCTYPE svg PUBLIC "-//W3C//DTD SVG 1.1//EN"
 "http://www.w3.org/Graphics/SVG/1.1/DTD/svg11.dtd">
<!-- Generated by graphviz version 5.0.1 (20220821.0811)
 -->
<!-- Title: include/proxsuite/linalg/veg/internal/collection_algo.hpp Pages: 1 -->
<svg width="1454pt" height="709pt"
 viewBox="0.00 0.00 1454.00 709.00" xmlns="http://www.w3.org/2000/svg" xmlns:xlink="http://www.w3.org/1999/xlink">
<g id="graph0" class="graph" transform="scale(1 1) rotate(0) translate(4 705)">
<title>include/proxsuite/linalg/veg/internal/collection_algo.hpp</title>
<!-- Node1 -->
<g id="node1" class="node">
<title>Node1</title>
<g id="a_node1"><a xlink:title=" ">
<polygon fill="#bfbfbf" stroke="black" points="497.5,-659.5 497.5,-700.5 628.5,-700.5 628.5,-659.5 497.5,-659.5"/>
<text text-anchor="start" x="505.5" y="-688.5" font-family="Helvetica,sans-Serif" font-size="10.00">include/proxsuite/linalg</text>
<text text-anchor="start" x="505.5" y="-677.5" font-family="Helvetica,sans-Serif" font-size="10.00">/veg/internal/collection</text>
<text text-anchor="middle" x="563" y="-666.5" font-family="Helvetica,sans-Serif" font-size="10.00">_algo.hpp</text>
</a>
</g>
</g>
<!-- Node2 -->
<g id="node2" class="node">
<title>Node2</title>
<g id="a_node2"><a xlink:href="memory_2alloc_8hpp.html" target="_top" xlink:title=" ">
<polygon fill="none" stroke="black" points="1025.5,-592.5 1025.5,-622.5 1138.5,-622.5 1138.5,-592.5 1025.5,-592.5"/>
<text text-anchor="start" x="1033.5" y="-610.5" font-family="Helvetica,sans-Serif" font-size="10.00">proxsuite/linalg/veg</text>
<text text-anchor="middle" x="1082" y="-599.5" font-family="Helvetica,sans-Serif" font-size="10.00">/memory/alloc.hpp</text>
</a>
</g>
</g>
<!-- Node1&#45;&gt;Node2 -->
<g id="edge1" class="edge">
<title>Node1&#45;&gt;Node2</title>
<path fill="none" stroke="midnightblue" d="M628.73,-670.07C728.02,-656.58 915.23,-631.15 1015.16,-617.58"/>
<polygon fill="midnightblue" stroke="midnightblue" points="1015.7,-621.04 1025.14,-616.22 1014.76,-614.1 1015.7,-621.04"/>
</g>
<!-- Node13 -->
<g id="node13" class="node">
<title>Node13</title>
<g id="a_node13"><a xlink:href="prologue_8hpp.html" target="_top" xlink:title=" ">
<polygon fill="none" stroke="black" points="773,-56.5 773,-86.5 897,-86.5 897,-56.5 773,-56.5"/>
<text text-anchor="start" x="781" y="-74.5" font-family="Helvetica,sans-Serif" font-size="10.00">proxsuite/linalg/veg</text>
<text text-anchor="middle" x="835" y="-63.5" font-family="Helvetica,sans-Serif" font-size="10.00">/internal/prologue.hpp</text>
</a>
</g>
</g>
<!-- Node1&#45;&gt;Node13 -->
<g id="edge80" class="edge">
<title>Node1&#45;&gt;Node13</title>
<path fill="none" stroke="midnightblue" d="M628.65,-675.7C833.28,-664.54 1446,-624.21 1446,-541.5 1446,-541.5 1446,-541.5 1446,-338.5 1446,-206.31 1363.11,-173.64 1241,-123 1105.65,-66.87 1056.1,-108.15 907.23,-87.05"/>
<polygon fill="midnightblue" stroke="midnightblue" points="907.68,-83.58 897.28,-85.57 906.65,-90.5 907.68,-83.58"/>
</g>
<!-- Node15 -->
<g id="node15" class="node">
<title>Node15</title>
<g id="a_node15"><a xlink:href="epilogue_8hpp.html" target="_top" xlink:title=" ">
<polygon fill="none" stroke="black" points="317.5,-56.5 317.5,-86.5 440.5,-86.5 440.5,-56.5 317.5,-56.5"/>
<text text-anchor="start" x="325.5" y="-74.5" font-family="Helvetica,sans-Serif" font-size="10.00">proxsuite/linalg/veg</text>
<text text-anchor="middle" x="379" y="-63.5" font-family="Helvetica,sans-Serif" font-size="10.00">/internal/epilogue.hpp</text>
</a>
</g>
</g>
<!-- Node1&#45;&gt;Node15 -->
<g id="edge81" class="edge">
<title>Node1&#45;&gt;Node15</title>
<path fill="none" stroke="midnightblue" d="M497.31,-676.74C348.8,-669.85 0,-642.87 0,-541.5 0,-541.5 0,-541.5 0,-204.5 0,-162.24 13.9,-146.54 49,-123 90.11,-95.43 223.27,-82.17 307.34,-76.4"/>
<polygon fill="midnightblue" stroke="midnightblue" points="307.6,-79.89 317.34,-75.73 307.13,-72.9 307.6,-79.89"/>
</g>
<!-- Node30 -->
<g id="node30" class="node">
<title>Node30</title>
<g id="a_node30"><a xlink:href="defer_8hpp.html" target="_top" xlink:title=" ">
<polygon fill="none" stroke="black" points="465.5,-458.5 465.5,-488.5 578.5,-488.5 578.5,-458.5 465.5,-458.5"/>
<text text-anchor="start" x="473.5" y="-476.5" font-family="Helvetica,sans-Serif" font-size="10.00">proxsuite/linalg/veg</text>
<text text-anchor="middle" x="522" y="-465.5" font-family="Helvetica,sans-Serif" font-size="10.00">/util/defer.hpp</text>
</a>
</g>
</g>
<!-- Node1&#45;&gt;Node30 -->
<g id="edge75" class="edge">
<title>Node1&#45;&gt;Node30</title>
<path fill="none" stroke="midnightblue" d="M559.07,-659.39C551.53,-621.77 535.04,-539.55 526.84,-498.63"/>
<polygon fill="midnightblue" stroke="midnightblue" points="530.25,-497.83 524.85,-488.71 523.38,-499.2 530.25,-497.83"/>
</g>
<!-- Node3 -->
<g id="node3" class="node">
<title>Node3</title>
<g id="a_node3"><a xlink:href="ref_8hpp.html" target="_top" xlink:title=" ">
<polygon fill="none" stroke="black" points="789.5,-391.5 789.5,-421.5 902.5,-421.5 902.5,-391.5 789.5,-391.5"/>
<text text-anchor="start" x="797.5" y="-409.5" font-family="Helvetica,sans-Serif" font-size="10.00">proxsuite/linalg/veg</text>
<text text-anchor="middle" x="846" y="-398.5" font-family="Helvetica,sans-Serif" font-size="10.00">/ref.hpp</text>
</a>
</g>
</g>
<!-- Node2&#45;&gt;Node3 -->
<g id="edge2" class="edge">
<title>Node2&#45;&gt;Node3</title>
<path fill="none" stroke="midnightblue" d="M1025.29,-605.9C948.41,-601.53 814.87,-580.42 764,-489 757.3,-476.96 757.28,-470.03 764,-458 771.62,-444.35 784.62,-433.93 798.05,-426.21"/>
<polygon fill="midnightblue" stroke="midnightblue" points="799.69,-429.3 806.88,-421.52 796.41,-423.12 799.69,-429.3"/>
</g>
<!-- Node6 -->
<g id="node6" class="node">
<title>Node6</title>
<g id="a_node6"><a xlink:href="typedefs_8hpp.html" target="_top" xlink:title=" ">
<polygon fill="none" stroke="black" points="1270,-56.5 1270,-86.5 1394,-86.5 1394,-56.5 1270,-56.5"/>
<text text-anchor="start" x="1278" y="-74.5" font-family="Helvetica,sans-Serif" font-size="10.00">proxsuite/linalg/veg</text>
<text text-anchor="middle" x="1332" y="-63.5" font-family="Helvetica,sans-Serif" font-size="10.00">/internal/typedefs.hpp</text>
</a>
</g>
</g>
<!-- Node2&#45;&gt;Node6 -->
<g id="edge44" class="edge">
<title>Node2&#45;&gt;Node6</title>
<path fill="none" stroke="midnightblue" d="M1138.56,-605C1222.43,-599.42 1370,-575.29 1370,-474.5 1370,-474.5 1370,-474.5 1370,-271.5 1370,-207.47 1350.79,-133.89 1339.68,-96.7"/>
<polygon fill="midnightblue" stroke="midnightblue" points="1342.93,-95.34 1336.66,-86.8 1336.23,-97.39 1342.93,-95.34"/>
</g>
<!-- Node8 -->
<g id="node8" class="node">
<title>Node8</title>
<g id="a_node8"><a xlink:title=" ">
<polygon fill="none" stroke="#bfbfbf" points="1362.5,-0.5 1362.5,-19.5 1415.5,-19.5 1415.5,-0.5 1362.5,-0.5"/>
<text text-anchor="middle" x="1389" y="-7.5" font-family="Helvetica,sans-Serif" font-size="10.00">cstddef</text>
</a>
</g>
</g>
<!-- Node2&#45;&gt;Node8 -->
<g id="edge70" class="edge">
<title>Node2&#45;&gt;Node8</title>
<path fill="none" stroke="midnightblue" d="M1138.79,-598.5C1213.71,-587.57 1338.22,-567.97 1356,-556 1391.64,-532 1408,-517.47 1408,-474.5 1408,-474.5 1408,-474.5 1408,-338.5 1408,-212.92 1422.96,-179.98 1403,-56 1401.55,-47.01 1398.72,-37.34 1395.98,-29.27"/>
<polygon fill="midnightblue" stroke="midnightblue" points="1399.24,-28 1392.55,-19.79 1392.66,-30.38 1399.24,-28"/>
</g>
<!-- Node10 -->
<g id="node10" class="node">
<title>Node10</title>
<g id="a_node10"><a xlink:href="macros_8hpp.html" target="_top" xlink:title=" ">
<polygon fill="none" stroke="black" points="1072.5,-123.5 1072.5,-153.5 1189.5,-153.5 1189.5,-123.5 1072.5,-123.5"/>
<text text-anchor="start" x="1080.5" y="-141.5" font-family="Helvetica,sans-Serif" font-size="10.00">proxsuite/linalg/veg</text>
<text text-anchor="middle" x="1131" y="-130.5" font-family="Helvetica,sans-Serif" font-size="10.00">/internal/macros.hpp</text>
</a>
</g>
</g>
<!-- Node2&#45;&gt;Node10 -->
<g id="edge45" class="edge">
<title>Node2&#45;&gt;Node10</title>
<path fill="none" stroke="midnightblue" d="M1138.63,-593.97C1162.89,-586.29 1190.16,-574.3 1210,-556 1239.66,-528.64 1250,-514.85 1250,-474.5 1250,-474.5 1250,-474.5 1250,-271.5 1250,-221.01 1201.38,-181.14 1166.3,-158.93"/>
<polygon fill="midnightblue" stroke="midnightblue" points="1168.06,-155.91 1157.71,-153.67 1164.41,-161.88 1168.06,-155.91"/>
</g>
<!-- Node2&#45;&gt;Node13 -->
<g id="edge73" class="edge">
<title>Node2&#45;&gt;Node13</title>
<path fill="none" stroke="midnightblue" d="M1138.59,-600.72C1210.67,-589.87 1326,-559.27 1326,-474.5 1326,-474.5 1326,-474.5 1326,-271.5 1326,-184.37 1274.84,-164.09 1198,-123 1085.5,-62.85 1037.41,-105.88 907.22,-87.04"/>
<polygon fill="midnightblue" stroke="midnightblue" points="907.7,-83.58 897.29,-85.51 906.64,-90.49 907.7,-83.58"/>
</g>
<!-- Node2&#45;&gt;Node15 -->
<g id="edge74" class="edge">
<title>Node2&#45;&gt;Node15</title>
<path fill="none" stroke="midnightblue" d="M1025.41,-606.06C839.3,-603.66 249.15,-588.22 92,-489 55.26,-465.8 38,-450.95 38,-407.5 38,-407.5 38,-407.5 38,-204.5 38,-161.77 53.54,-146.85 89,-123 123.78,-99.61 233.06,-85.46 307.08,-78.31"/>
<polygon fill="midnightblue" stroke="midnightblue" points="307.65,-81.77 317.28,-77.35 306.99,-74.81 307.65,-81.77"/>
</g>
<!-- Node16 -->
<g id="node16" class="node">
<title>Node16</title>
<g id="a_node16"><a xlink:href="constructible_8hpp.html" target="_top" xlink:title=" ">
<polygon fill="none" stroke="black" points="732.5,-324.5 732.5,-354.5 891.5,-354.5 891.5,-324.5 732.5,-324.5"/>
<text text-anchor="start" x="740.5" y="-342.5" font-family="Helvetica,sans-Serif" font-size="10.00">proxsuite/linalg/veg</text>
<text text-anchor="middle" x="812" y="-331.5" font-family="Helvetica,sans-Serif" font-size="10.00">/type_traits/constructible.hpp</text>
</a>
</g>
</g>
<!-- Node2&#45;&gt;Node16 -->
<g id="edge38" class="edge">
<title>Node2&#45;&gt;Node16</title>
<path fill="none" stroke="midnightblue" d="M1072.51,-592.43C1040.31,-544.72 937.18,-391.96 936,-391 918.23,-376.6 895.79,-365.8 874.9,-357.97"/>
<polygon fill="midnightblue" stroke="midnightblue" points="876.03,-354.66 865.44,-354.58 873.67,-361.25 876.03,-354.66"/>
</g>
<!-- Node21 -->
<g id="node21" class="node">
<title>Node21</title>
<g id="a_node21"><a xlink:href="assignable_8hpp.html" target="_top" xlink:title=" ">
<polygon fill="none" stroke="black" points="909.5,-324.5 909.5,-354.5 1058.5,-354.5 1058.5,-324.5 909.5,-324.5"/>
<text text-anchor="start" x="917.5" y="-342.5" font-family="Helvetica,sans-Serif" font-size="10.00">proxsuite/linalg/veg</text>
<text text-anchor="middle" x="984" y="-331.5" font-family="Helvetica,sans-Serif" font-size="10.00">/type_traits/assignable.hpp</text>
</a>
</g>
</g>
<!-- Node2&#45;&gt;Node21 -->
<g id="edge39" class="edge">
<title>Node2&#45;&gt;Node21</title>
<path fill="none" stroke="midnightblue" d="M1138.66,-594.12C1159.05,-586.63 1179.98,-574.75 1192,-556 1200.86,-542.18 1201.03,-479.07 1188,-458 1156.02,-406.29 1092.33,-375.01 1044.57,-357.86"/>
<polygon fill="midnightblue" stroke="midnightblue" points="1045.54,-354.49 1034.95,-354.52 1043.24,-361.11 1045.54,-354.49"/>
</g>
<!-- Node22 -->
<g id="node22" class="node">
<title>Node22</title>
<g id="a_node22"><a xlink:href="placement_8hpp.html" target="_top" xlink:title=" ">
<polygon fill="none" stroke="black" points="310.5,-458.5 310.5,-488.5 447.5,-488.5 447.5,-458.5 310.5,-458.5"/>
<text text-anchor="start" x="318.5" y="-476.5" font-family="Helvetica,sans-Serif" font-size="10.00">proxsuite/linalg/veg</text>
<text text-anchor="middle" x="379" y="-465.5" font-family="Helvetica,sans-Serif" font-size="10.00">/memory/placement.hpp</text>
</a>
</g>
</g>
<!-- Node2&#45;&gt;Node22 -->
<g id="edge46" class="edge">
<title>Node2&#45;&gt;Node22</title>
<path fill="none" stroke="midnightblue" d="M1025.34,-601.03C950.79,-593.36 815.89,-577.86 702,-556 608.46,-538.05 501.6,-509.46 437.26,-491.36"/>
<polygon fill="midnightblue" stroke="midnightblue" points="437.89,-487.9 427.31,-488.54 435.98,-494.63 437.89,-487.9"/>
</g>
<!-- Node26 -->
<g id="node26" class="node">
<title>Node26</title>
<g id="a_node26"><a xlink:href="type__traits_2alloc_8hpp.html" target="_top" xlink:title=" ">
<polygon fill="none" stroke="black" points="881.5,-525.5 881.5,-555.5 1000.5,-555.5 1000.5,-525.5 881.5,-525.5"/>
<text text-anchor="start" x="889.5" y="-543.5" font-family="Helvetica,sans-Serif" font-size="10.00">proxsuite/linalg/veg</text>
<text text-anchor="middle" x="941" y="-532.5" font-family="Helvetica,sans-Serif" font-size="10.00">/type_traits/alloc.hpp</text>
</a>
</g>
</g>
<!-- Node2&#45;&gt;Node26 -->
<g id="edge59" class="edge">
<title>Node2&#45;&gt;Node26</title>
<path fill="none" stroke="midnightblue" d="M1051.41,-592.4C1030.71,-582.86 1003.18,-570.16 980.78,-559.84"/>
<polygon fill="midnightblue" stroke="midnightblue" points="982.08,-556.58 971.54,-555.58 979.15,-562.94 982.08,-556.58"/>
</g>
<!-- Node28 -->
<g id="node28" class="node">
<title>Node28</title>
<g id="a_node28"><a xlink:title=" ">
<polygon fill="none" stroke="#bfbfbf" points="1057.5,-531 1057.5,-550 1106.5,-550 1106.5,-531 1057.5,-531"/>
<text text-anchor="middle" x="1082" y="-538" font-family="Helvetica,sans-Serif" font-size="10.00">cstdlib</text>
</a>
</g>
</g>
<!-- Node2&#45;&gt;Node28 -->
<g id="edge71" class="edge">
<title>Node2&#45;&gt;Node28</title>
<path fill="none" stroke="midnightblue" d="M1082,-592.4C1082,-583.06 1082,-570.71 1082,-560.52"/>
<polygon fill="midnightblue" stroke="midnightblue" points="1085.5,-560.19 1082,-550.19 1078.5,-560.19 1085.5,-560.19"/>
</g>
<!-- Node29 -->
<g id="node29" class="node">
<title>Node29</title>
<g id="a_node29"><a xlink:title=" ">
<polygon fill="none" stroke="#bfbfbf" points="1124.5,-531 1124.5,-550 1183.5,-550 1183.5,-531 1124.5,-531"/>
<text text-anchor="middle" x="1154" y="-538" font-family="Helvetica,sans-Serif" font-size="10.00">malloc.h</text>
</a>
</g>
</g>
<!-- Node2&#45;&gt;Node29 -->
<g id="edge72" class="edge">
<title>Node2&#45;&gt;Node29</title>
<path fill="none" stroke="midnightblue" d="M1097.62,-592.4C1109.18,-581.96 1124.92,-567.75 1136.83,-557"/>
<polygon fill="midnightblue" stroke="midnightblue" points="1139.29,-559.49 1144.37,-550.19 1134.6,-554.3 1139.29,-559.49"/>
</g>
<!-- Node4 -->
<g id="node4" class="node">
<title>Node4</title>
<g id="a_node4"><a xlink:href="tags_8hpp.html" target="_top" xlink:title=" ">
<polygon fill="none" stroke="black" points="559.5,-324.5 559.5,-354.5 676.5,-354.5 676.5,-324.5 559.5,-324.5"/>
<text text-anchor="start" x="567.5" y="-342.5" font-family="Helvetica,sans-Serif" font-size="10.00">proxsuite/linalg/veg</text>
<text text-anchor="middle" x="618" y="-331.5" font-family="Helvetica,sans-Serif" font-size="10.00">/type_traits/tags.hpp</text>
</a>
</g>
</g>
<!-- Node3&#45;&gt;Node4 -->
<g id="edge3" class="edge">
<title>Node3&#45;&gt;Node4</title>
<path fill="none" stroke="midnightblue" d="M796.81,-391.48C761.72,-381.47 714.36,-367.97 677.2,-357.38"/>
<polygon fill="midnightblue" stroke="midnightblue" points="678.07,-353.99 667.5,-354.61 676.15,-360.72 678.07,-353.99"/>
</g>
<!-- Node3&#45;&gt;Node13 -->
<g id="edge36" class="edge">
<title>Node3&#45;&gt;Node13</title>
<path fill="none" stroke="midnightblue" d="M902.52,-400.49C961.06,-393.99 1046.79,-380.35 1067,-355 1098.19,-315.89 1024.36,-264.38 1016,-257 992.11,-235.91 977.64,-242.37 954,-221 914.1,-184.93 917.38,-164.36 883,-123 874.75,-113.07 865.03,-102.64 856.51,-93.86"/>
<polygon fill="midnightblue" stroke="midnightblue" points="858.9,-91.3 849.39,-86.62 853.9,-96.2 858.9,-91.3"/>
</g>
<!-- Node3&#45;&gt;Node15 -->
<g id="edge37" class="edge">
<title>Node3&#45;&gt;Node15</title>
<path fill="none" stroke="midnightblue" d="M789.16,-392.78C786.07,-392.16 783,-391.56 780,-391 678.31,-371.89 637.26,-410.6 550,-355 452.34,-292.77 402.34,-152.88 385.58,-96.61"/>
<polygon fill="midnightblue" stroke="midnightblue" points="388.89,-95.46 382.75,-86.82 382.17,-97.4 388.89,-95.46"/>
</g>
<!-- Node3&#45;&gt;Node16 -->
<g id="edge23" class="edge">
<title>Node3&#45;&gt;Node16</title>
<path fill="none" stroke="midnightblue" d="M838.62,-391.4C834.39,-383.3 828.97,-372.94 824.13,-363.69"/>
<polygon fill="midnightblue" stroke="midnightblue" points="827.1,-361.82 819.36,-354.58 820.9,-365.06 827.1,-361.82"/>
</g>
<!-- Node18 -->
<g id="node18" class="node">
<title>Node18</title>
<g id="a_node18"><a xlink:href="address_8hpp.html" target="_top" xlink:title=" ">
<polygon fill="none" stroke="black" points="265.5,-324.5 265.5,-354.5 388.5,-354.5 388.5,-324.5 265.5,-324.5"/>
<text text-anchor="start" x="273.5" y="-342.5" font-family="Helvetica,sans-Serif" font-size="10.00">proxsuite/linalg/veg</text>
<text text-anchor="middle" x="327" y="-331.5" font-family="Helvetica,sans-Serif" font-size="10.00">/memory/address.hpp</text>
</a>
</g>
</g>
<!-- Node3&#45;&gt;Node18 -->
<g id="edge28" class="edge">
<title>Node3&#45;&gt;Node18</title>
<path fill="none" stroke="midnightblue" d="M789.19,-392.62C786.09,-392.04 783.01,-391.5 780,-391 646.18,-368.9 488.49,-353.76 398.88,-346.16"/>
<polygon fill="midnightblue" stroke="midnightblue" points="399.09,-342.67 388.83,-345.32 398.5,-349.64 399.09,-342.67"/>
</g>
<!-- Node5 -->
<g id="node5" class="node">
<title>Node5</title>
<g id="a_node5"><a xlink:href="veg_2type__traits_2core_8hpp.html" target="_top" xlink:title=" ">
<polygon fill="none" stroke="black" points="712.5,-257.5 712.5,-287.5 829.5,-287.5 829.5,-257.5 712.5,-257.5"/>
<text text-anchor="start" x="720.5" y="-275.5" font-family="Helvetica,sans-Serif" font-size="10.00">proxsuite/linalg/veg</text>
<text text-anchor="middle" x="771" y="-264.5" font-family="Helvetica,sans-Serif" font-size="10.00">/type_traits/core.hpp</text>
</a>
</g>
</g>
<!-- Node4&#45;&gt;Node5 -->
<g id="edge4" class="edge">
<title>Node4&#45;&gt;Node5</title>
<path fill="none" stroke="midnightblue" d="M651.2,-324.4C673.85,-314.77 704.07,-301.94 728.48,-291.56"/>
<polygon fill="midnightblue" stroke="midnightblue" points="730.03,-294.71 737.87,-287.58 727.29,-288.27 730.03,-294.71"/>
</g>
<!-- Node4&#45;&gt;Node13 -->
<g id="edge21" class="edge">
<title>Node4&#45;&gt;Node13</title>
<path fill="none" stroke="midnightblue" d="M629.81,-324.39C638.25,-314.28 649.86,-300.33 660,-288 717.75,-217.73 785.46,-133.95 817.06,-94.77"/>
<polygon fill="midnightblue" stroke="midnightblue" points="820.04,-96.65 823.59,-86.67 814.59,-92.25 820.04,-96.65"/>
</g>
<!-- Node4&#45;&gt;Node15 -->
<g id="edge22" class="edge">
<title>Node4&#45;&gt;Node15</title>
<path fill="none" stroke="midnightblue" d="M609.02,-324.26C585.72,-287.98 520.26,-190.24 450,-123 438.19,-111.7 423.7,-100.94 410.9,-92.28"/>
<polygon fill="midnightblue" stroke="midnightblue" points="412.63,-89.23 402.36,-86.64 408.77,-95.07 412.63,-89.23"/>
</g>
<!-- Node5&#45;&gt;Node6 -->
<g id="edge5" class="edge">
<title>Node5&#45;&gt;Node6</title>
<path fill="none" stroke="midnightblue" d="M829.59,-263.47C845.01,-261.36 861.63,-259.09 877,-257 995.21,-240.92 1032.41,-265.76 1143,-221 1214.26,-192.16 1280.84,-127.92 1312.57,-94.17"/>
<polygon fill="midnightblue" stroke="midnightblue" points="1315.28,-96.39 1319.51,-86.67 1310.15,-91.63 1315.28,-96.39"/>
</g>
<!-- Node9 -->
<g id="node9" class="node">
<title>Node9</title>
<g id="a_node9"><a xlink:href="integer__seq_8hpp.html" target="_top" xlink:title=" ">
<polygon fill="none" stroke="black" points="996,-190.5 996,-220.5 1134,-220.5 1134,-190.5 996,-190.5"/>
<text text-anchor="start" x="1004" y="-208.5" font-family="Helvetica,sans-Serif" font-size="10.00">proxsuite/linalg/veg</text>
<text text-anchor="middle" x="1065" y="-197.5" font-family="Helvetica,sans-Serif" font-size="10.00">/internal/integer_seq.hpp</text>
</a>
</g>
</g>
<!-- Node5&#45;&gt;Node9 -->
<g id="edge8" class="edge">
<title>Node5&#45;&gt;Node9</title>
<path fill="none" stroke="midnightblue" d="M829.79,-258.5C876.37,-248.2 941.7,-233.76 991.69,-222.71"/>
<polygon fill="midnightblue" stroke="midnightblue" points="992.47,-226.12 1001.48,-220.54 990.96,-219.29 992.47,-226.12"/>
</g>
<!-- Node5&#45;&gt;Node13 -->
<g id="edge19" class="edge">
<title>Node5&#45;&gt;Node13</title>
<path fill="none" stroke="midnightblue" d="M775.6,-257.19C786.49,-223.34 813.91,-138.08 827.34,-96.31"/>
<polygon fill="midnightblue" stroke="midnightblue" points="830.71,-97.27 830.44,-86.68 824.05,-95.13 830.71,-97.27"/>
</g>
<!-- Node5&#45;&gt;Node15 -->
<g id="edge20" class="edge">
<title>Node5&#45;&gt;Node15</title>
<path fill="none" stroke="midnightblue" d="M745.84,-257.37C716.34,-240.89 665.89,-212.97 622,-190 563,-159.13 547.99,-151.89 488,-123 465.35,-112.09 439.86,-100.26 419.23,-90.79"/>
<polygon fill="midnightblue" stroke="midnightblue" points="420.67,-87.6 410.12,-86.62 417.76,-93.97 420.67,-87.6"/>
</g>
<!-- Node7 -->
<g id="node7" class="node">
<title>Node7</title>
<g id="a_node7"><a xlink:title=" ">
<polygon fill="none" stroke="#bfbfbf" points="765,-0.5 765,-19.5 815,-19.5 815,-0.5 765,-0.5"/>
<text text-anchor="middle" x="790" y="-7.5" font-family="Helvetica,sans-Serif" font-size="10.00">cstdint</text>
</a>
</g>
</g>
<!-- Node6&#45;&gt;Node7 -->
<g id="edge6" class="edge">
<title>Node6&#45;&gt;Node7</title>
<path fill="none" stroke="midnightblue" d="M1269.63,-57.53C1266.38,-56.98 1263.15,-56.47 1260,-56 1098.53,-32.08 903.88,-18.14 825.37,-13.13"/>
<polygon fill="midnightblue" stroke="midnightblue" points="825.28,-9.62 815.08,-12.49 824.84,-16.61 825.28,-9.62"/>
</g>
<!-- Node6&#45;&gt;Node8 -->
<g id="edge7" class="edge">
<title>Node6&#45;&gt;Node8</title>
<path fill="none" stroke="midnightblue" d="M1345.51,-56.4C1353.96,-47.58 1364.88,-36.18 1373.66,-27.02"/>
<polygon fill="midnightblue" stroke="midnightblue" points="1376.32,-29.3 1380.71,-19.66 1371.26,-24.46 1376.32,-29.3"/>
</g>
<!-- Node9&#45;&gt;Node6 -->
<g id="edge9" class="edge">
<title>Node9&#45;&gt;Node6</title>
<path fill="none" stroke="midnightblue" d="M1110.25,-190.48C1136.57,-181.56 1169.97,-168.89 1198,-154 1219.13,-142.78 1221.76,-135.76 1242,-123 1259.52,-111.95 1279.57,-100.59 1296.29,-91.44"/>
<polygon fill="midnightblue" stroke="midnightblue" points="1298.08,-94.45 1305.2,-86.6 1294.74,-88.3 1298.08,-94.45"/>
</g>
<!-- Node9&#45;&gt;Node10 -->
<g id="edge10" class="edge">
<title>Node9&#45;&gt;Node10</title>
<path fill="none" stroke="midnightblue" d="M1079.32,-190.4C1088.14,-181.71 1099.62,-170.4 1109.52,-160.66"/>
<polygon fill="midnightblue" stroke="midnightblue" points="1112.04,-163.09 1116.71,-153.58 1107.13,-158.1 1112.04,-163.09"/>
</g>
<!-- Node9&#45;&gt;Node13 -->
<g id="edge17" class="edge">
<title>Node9&#45;&gt;Node13</title>
<path fill="none" stroke="midnightblue" d="M1061.01,-190.44C1055.1,-172.15 1042.23,-140.48 1020,-123 1010.6,-115.61 953.53,-100.62 905.23,-88.88"/>
<polygon fill="midnightblue" stroke="midnightblue" points="905.94,-85.45 895.39,-86.51 904.29,-92.26 905.94,-85.45"/>
</g>
<!-- Node9&#45;&gt;Node15 -->
<g id="edge18" class="edge">
<title>Node9&#45;&gt;Node15</title>
<path fill="none" stroke="midnightblue" d="M995.77,-191.18C865.13,-166.04 583.52,-111.85 450.88,-86.33"/>
<polygon fill="midnightblue" stroke="midnightblue" points="451.3,-82.85 440.82,-84.4 449.98,-89.72 451.3,-82.85"/>
</g>
<!-- Node10&#45;&gt;Node6 -->
<g id="edge12" class="edge">
<title>Node10&#45;&gt;Node6</title>
<path fill="none" stroke="midnightblue" d="M1174.61,-123.4C1205.17,-113.52 1246.18,-100.25 1278.68,-89.74"/>
<polygon fill="midnightblue" stroke="midnightblue" points="1280.03,-92.98 1288.47,-86.58 1277.88,-86.32 1280.03,-92.98"/>
</g>
<!-- Node11 -->
<g id="node11" class="node">
<title>Node11</title>
<g id="a_node11"><a xlink:href="hedley_8ext_8hpp.html" target="_top" xlink:title=" ">
<polygon fill="none" stroke="black" points="915.5,-56.5 915.5,-86.5 1090.5,-86.5 1090.5,-56.5 915.5,-56.5"/>
<text text-anchor="start" x="923.5" y="-74.5" font-family="Helvetica,sans-Serif" font-size="10.00">proxsuite/linalg/veg</text>
<text text-anchor="middle" x="1003" y="-63.5" font-family="Helvetica,sans-Serif" font-size="10.00">/internal/external/hedley.ext.hpp</text>
</a>
</g>
</g>
<!-- Node10&#45;&gt;Node11 -->
<g id="edge11" class="edge">
<title>Node10&#45;&gt;Node11</title>
<path fill="none" stroke="midnightblue" d="M1103.23,-123.4C1084.61,-113.94 1059.89,-101.39 1039.66,-91.12"/>
<polygon fill="midnightblue" stroke="midnightblue" points="1041.22,-87.98 1030.72,-86.58 1038.05,-94.23 1041.22,-87.98"/>
</g>
<!-- Node12 -->
<g id="node12" class="node">
<title>Node12</title>
<g id="a_node12"><a xlink:href="preprocessor_8hpp.html" target="_top" xlink:title=" ">
<polygon fill="none" stroke="black" points="1108.5,-56.5 1108.5,-86.5 1251.5,-86.5 1251.5,-56.5 1108.5,-56.5"/>
<text text-anchor="start" x="1116.5" y="-74.5" font-family="Helvetica,sans-Serif" font-size="10.00">proxsuite/linalg/veg</text>
<text text-anchor="middle" x="1180" y="-63.5" font-family="Helvetica,sans-Serif" font-size="10.00">/internal/preprocessor.hpp</text>
</a>
</g>
</g>
<!-- Node10&#45;&gt;Node12 -->
<g id="edge13" class="edge">
<title>Node10&#45;&gt;Node12</title>
<path fill="none" stroke="midnightblue" d="M1141.63,-123.4C1147.92,-115.05 1156.04,-104.29 1163.18,-94.81"/>
<polygon fill="midnightblue" stroke="midnightblue" points="1166.16,-96.67 1169.39,-86.58 1160.57,-92.45 1166.16,-96.67"/>
</g>
<!-- Node10&#45;&gt;Node13 -->
<g id="edge14" class="edge">
<title>Node10&#45;&gt;Node13</title>
<path fill="none" stroke="midnightblue" d="M1072.17,-124.58C1024.67,-114.15 957.64,-99.43 906.95,-88.3"/>
<polygon fill="midnightblue" stroke="midnightblue" points="907.56,-84.85 897.04,-86.12 906.06,-91.69 907.56,-84.85"/>
</g>
<!-- Node14 -->
<g id="node14" class="node">
<title>Node14</title>
<g id="a_node14"><a xlink:title=" ">
<polygon fill="none" stroke="#bfbfbf" points="555.5,-62 555.5,-81 638.5,-81 638.5,-62 555.5,-62"/>
<text text-anchor="middle" x="597" y="-69" font-family="Helvetica,sans-Serif" font-size="10.00">initializer_list</text>
</a>
</g>
</g>
<!-- Node10&#45;&gt;Node14 -->
<g id="edge15" class="edge">
<title>Node10&#45;&gt;Node14</title>
<path fill="none" stroke="midnightblue" d="M1072.26,-129.7C1055.39,-127.5 1036.97,-125.12 1020,-123 886.38,-106.3 728.85,-87.81 649.02,-78.52"/>
<polygon fill="midnightblue" stroke="midnightblue" points="649.08,-75.01 638.75,-77.33 648.28,-81.96 649.08,-75.01"/>
</g>
<!-- Node10&#45;&gt;Node15 -->
<g id="edge16" class="edge">
<title>Node10&#45;&gt;Node15</title>
<path fill="none" stroke="midnightblue" d="M1072.31,-129.23C1055.44,-127.02 1037.01,-124.76 1020,-123 809.84,-101.31 756.58,-104.14 546,-87 514.86,-84.47 480.48,-81.51 451.04,-78.93"/>
<polygon fill="midnightblue" stroke="midnightblue" points="451.12,-75.42 440.85,-78.03 450.5,-82.39 451.12,-75.42"/>
</g>
<!-- Node16&#45;&gt;Node5 -->
<g id="edge24" class="edge">
<title>Node16&#45;&gt;Node5</title>
<path fill="none" stroke="midnightblue" d="M803.1,-324.4C797.89,-316.13 791.19,-305.51 785.26,-296.1"/>
<polygon fill="midnightblue" stroke="midnightblue" points="788.17,-294.17 779.88,-287.58 782.25,-297.9 788.17,-294.17"/>
</g>
<!-- Node16&#45;&gt;Node13 -->
<g id="edge25" class="edge">
<title>Node16&#45;&gt;Node13</title>
<path fill="none" stroke="midnightblue" d="M821.7,-324.21C827.7,-314.47 834.84,-301.03 838,-288 854.43,-220.21 845.34,-136.88 839.19,-96.59"/>
<polygon fill="midnightblue" stroke="midnightblue" points="842.63,-95.95 837.59,-86.64 835.72,-97.06 842.63,-95.95"/>
</g>
<!-- Node16&#45;&gt;Node15 -->
<g id="edge27" class="edge">
<title>Node16&#45;&gt;Node15</title>
<path fill="none" stroke="midnightblue" d="M772.61,-324.44C702.76,-298.25 554.72,-237.07 450,-154 428.47,-136.92 408.33,-112.7 395.04,-95.11"/>
<polygon fill="midnightblue" stroke="midnightblue" points="397.51,-92.55 388.75,-86.59 391.87,-96.71 397.51,-92.55"/>
</g>
<!-- Node17 -->
<g id="node17" class="node">
<title>Node17</title>
<g id="a_node17"><a xlink:title=" ">
<polygon fill="none" stroke="#bfbfbf" points="886.5,-263 886.5,-282 955.5,-282 955.5,-263 886.5,-263"/>
<text text-anchor="middle" x="921" y="-270" font-family="Helvetica,sans-Serif" font-size="10.00">type_traits</text>
</a>
</g>
</g>
<!-- Node16&#45;&gt;Node17 -->
<g id="edge26" class="edge">
<title>Node16&#45;&gt;Node17</title>
<path fill="none" stroke="midnightblue" d="M835.65,-324.4C854.18,-313.34 879.81,-298.06 898.14,-287.13"/>
<polygon fill="midnightblue" stroke="midnightblue" points="899.94,-290.13 906.73,-282.01 896.35,-284.12 899.94,-290.13"/>
</g>
<!-- Node18&#45;&gt;Node5 -->
<g id="edge29" class="edge">
<title>Node18&#45;&gt;Node5</title>
<path fill="none" stroke="midnightblue" d="M388.74,-329.46C471.14,-317.4 616.61,-296.1 702.36,-283.55"/>
<polygon fill="midnightblue" stroke="midnightblue" points="702.87,-287.01 712.26,-282.1 701.86,-280.08 702.87,-287.01"/>
</g>
<!-- Node18&#45;&gt;Node13 -->
<g id="edge33" class="edge">
<title>Node18&#45;&gt;Node13</title>
<path fill="none" stroke="midnightblue" d="M350.23,-324.48C364.95,-315.07 383.97,-301.88 399,-288 440.5,-249.65 435.88,-225.31 480,-190 563.19,-123.42 685.64,-93.92 762.8,-81.31"/>
<polygon fill="midnightblue" stroke="midnightblue" points="763.58,-84.73 772.91,-79.72 762.49,-77.82 763.58,-84.73"/>
</g>
<!-- Node18&#45;&gt;Node15 -->
<g id="edge35" class="edge">
<title>Node18&#45;&gt;Node15</title>
<path fill="none" stroke="midnightblue" d="M324.41,-324.25C321.87,-307.89 318.92,-280.3 323,-257 325.93,-240.24 330.74,-237.18 336,-221 350.18,-177.35 364.61,-125.76 372.62,-96.31"/>
<polygon fill="midnightblue" stroke="midnightblue" points="376.03,-97.08 375.27,-86.51 369.28,-95.25 376.03,-97.08"/>
</g>
<!-- Node19 -->
<g id="node19" class="node">
<title>Node19</title>
<g id="a_node19"><a xlink:href="std_8hpp.html" target="_top" xlink:title=" ">
<polygon fill="none" stroke="black" points="142.5,-190.5 142.5,-220.5 255.5,-220.5 255.5,-190.5 142.5,-190.5"/>
<text text-anchor="start" x="150.5" y="-208.5" font-family="Helvetica,sans-Serif" font-size="10.00">proxsuite/linalg/veg</text>
<text text-anchor="middle" x="199" y="-197.5" font-family="Helvetica,sans-Serif" font-size="10.00">/internal/std.hpp</text>
</a>
</g>
</g>
<!-- Node18&#45;&gt;Node19 -->
<g id="edge30" class="edge">
<title>Node18&#45;&gt;Node19</title>
<path fill="none" stroke="midnightblue" d="M313.3,-324.37C290.88,-301.25 246.2,-255.18 219.83,-227.99"/>
<polygon fill="midnightblue" stroke="midnightblue" points="222.07,-225.27 212.6,-220.52 217.05,-230.14 222.07,-225.27"/>
</g>
<!-- Node20 -->
<g id="node20" class="node">
<title>Node20</title>
<g id="a_node20"><a xlink:title=" ">
<polygon fill="none" stroke="#bfbfbf" points="332,-263 332,-282 390,-282 390,-263 332,-263"/>
<text text-anchor="middle" x="361" y="-270" font-family="Helvetica,sans-Serif" font-size="10.00">memory</text>
</a>
</g>
</g>
<!-- Node18&#45;&gt;Node20 -->
<g id="edge34" class="edge">
<title>Node18&#45;&gt;Node20</title>
<path fill="none" stroke="midnightblue" d="M334.38,-324.4C339.47,-314.66 346.28,-301.65 351.73,-291.21"/>
<polygon fill="midnightblue" stroke="midnightblue" points="354.92,-292.68 356.45,-282.19 348.72,-289.43 354.92,-292.68"/>
</g>
<!-- Node19&#45;&gt;Node7 -->
<g id="edge31" class="edge">
<title>Node19&#45;&gt;Node7</title>
<path fill="none" stroke="midnightblue" d="M204.57,-190.36C217.48,-159.7 252.62,-87.37 308,-56 384.3,-12.78 656.48,-10.12 754.5,-10.61"/>
<polygon fill="midnightblue" stroke="midnightblue" points="754.75,-14.12 764.77,-10.68 754.79,-7.12 754.75,-14.12"/>
</g>
<!-- Node19&#45;&gt;Node14 -->
<g id="edge32" class="edge">
<title>Node19&#45;&gt;Node14</title>
<path fill="none" stroke="midnightblue" d="M241.22,-190.5C319.94,-164.39 487.8,-108.72 561.29,-84.34"/>
<polygon fill="midnightblue" stroke="midnightblue" points="562.63,-87.59 571.02,-81.12 560.42,-80.94 562.63,-87.59"/>
</g>
<!-- Node21&#45;&gt;Node5 -->
<g id="edge40" class="edge">
<title>Node21&#45;&gt;Node5</title>
<path fill="none" stroke="midnightblue" d="M938.04,-324.48C905.54,-314.56 861.77,-301.2 827.19,-290.65"/>
<polygon fill="midnightblue" stroke="midnightblue" points="827.83,-287.18 817.24,-287.61 825.78,-293.88 827.83,-287.18"/>
</g>
<!-- Node21&#45;&gt;Node13 -->
<g id="edge41" class="edge">
<title>Node21&#45;&gt;Node13</title>
<path fill="none" stroke="midnightblue" d="M992.05,-324.31C1000.67,-307.01 1011.42,-277.55 998,-257 976.24,-223.68 945.32,-247.91 916,-221 905.78,-211.62 866.51,-135.16 846.64,-95.77"/>
<polygon fill="midnightblue" stroke="midnightblue" points="849.66,-93.98 842.04,-86.62 843.41,-97.13 849.66,-93.98"/>
</g>
<!-- Node21&#45;&gt;Node15 -->
<g id="edge43" class="edge">
<title>Node21&#45;&gt;Node15</title>
<path fill="none" stroke="midnightblue" d="M984.49,-324.46C984.34,-306.5 981.33,-275.5 964,-257 927.47,-218.01 588.71,-126.77 444.02,-89.16"/>
<polygon fill="midnightblue" stroke="midnightblue" points="444.5,-85.67 433.94,-86.55 442.75,-92.44 444.5,-85.67"/>
</g>
<!-- Node21&#45;&gt;Node17 -->
<g id="edge42" class="edge">
<title>Node21&#45;&gt;Node17</title>
<path fill="none" stroke="midnightblue" d="M970.33,-324.4C960.41,-314.16 946.97,-300.3 936.63,-289.62"/>
<polygon fill="midnightblue" stroke="midnightblue" points="938.9,-286.94 929.43,-282.19 933.87,-291.81 938.9,-286.94"/>
</g>
<!-- Node22&#45;&gt;Node13 -->
<g id="edge55" class="edge">
<title>Node22&#45;&gt;Node13</title>
<path fill="none" stroke="midnightblue" d="M385.2,-458.47C409.84,-404.51 506.6,-209.15 652,-123 685.68,-103.04 727.5,-90.74 762.66,-83.27"/>
<polygon fill="midnightblue" stroke="midnightblue" points="763.76,-86.62 772.86,-81.2 762.36,-79.76 763.76,-86.62"/>
</g>
<!-- Node22&#45;&gt;Node15 -->
<g id="edge58" class="edge">
<title>Node22&#45;&gt;Node15</title>
<path fill="none" stroke="midnightblue" d="M310.41,-467.53C231.89,-457.68 114,-428.26 114,-340.5 114,-340.5 114,-340.5 114,-204.5 114,-118.05 228.4,-88.22 306.87,-77.92"/>
<polygon fill="midnightblue" stroke="midnightblue" points="307.71,-81.35 317.2,-76.65 306.85,-74.4 307.71,-81.35"/>
</g>
<!-- Node22&#45;&gt;Node16 -->
<g id="edge47" class="edge">
<title>Node22&#45;&gt;Node16</title>
<path fill="none" stroke="midnightblue" d="M447.78,-459.4C522.15,-445.16 630.76,-424.14 635,-422 653.26,-412.79 651.45,-401.5 669,-391 692.73,-376.79 721.07,-365.74 746.23,-357.65"/>
<polygon fill="midnightblue" stroke="midnightblue" points="747.56,-360.9 756.07,-354.58 745.48,-354.22 747.56,-360.9"/>
</g>
<!-- Node22&#45;&gt;Node18 -->
<g id="edge54" class="edge">
<title>Node22&#45;&gt;Node18</title>
<path fill="none" stroke="midnightblue" d="M344.31,-458.34C329.04,-450.15 312.63,-438.21 304,-422 294.15,-403.49 302.41,-380.32 311.66,-363.42"/>
<polygon fill="midnightblue" stroke="midnightblue" points="314.71,-365.13 316.79,-354.74 308.69,-361.57 314.71,-365.13"/>
</g>
<!-- Node22&#45;&gt;Node19 -->
<g id="edge48" class="edge">
<title>Node22&#45;&gt;Node19</title>
<path fill="none" stroke="midnightblue" d="M330.16,-458.43C282.84,-441.98 213.47,-409.78 180,-355 157.27,-317.8 166.76,-299.6 176,-257 178.03,-247.66 181.94,-237.98 185.96,-229.62"/>
<polygon fill="midnightblue" stroke="midnightblue" points="189.18,-231.01 190.64,-220.52 182.96,-227.81 189.18,-231.01"/>
</g>
<!-- Node23 -->
<g id="node23" class="node">
<title>Node23</title>
<g id="a_node23"><a xlink:href="invocable_8hpp.html" target="_top" xlink:title=" ">
<polygon fill="none" stroke="black" points="483.5,-391.5 483.5,-421.5 626.5,-421.5 626.5,-391.5 483.5,-391.5"/>
<text text-anchor="start" x="491.5" y="-409.5" font-family="Helvetica,sans-Serif" font-size="10.00">proxsuite/linalg/veg</text>
<text text-anchor="middle" x="555" y="-398.5" font-family="Helvetica,sans-Serif" font-size="10.00">/type_traits/invocable.hpp</text>
</a>
</g>
</g>
<!-- Node22&#45;&gt;Node23 -->
<g id="edge49" class="edge">
<title>Node22&#45;&gt;Node23</title>
<path fill="none" stroke="midnightblue" d="M417.19,-458.4C443.6,-448.64 478.93,-435.59 507.2,-425.15"/>
<polygon fill="midnightblue" stroke="midnightblue" points="508.72,-428.32 516.89,-421.58 506.29,-421.76 508.72,-428.32"/>
</g>
<!-- Node24 -->
<g id="node24" class="node">
<title>Node24</title>
<g id="a_node24"><a xlink:title=" ">
<polygon fill="none" stroke="#bfbfbf" points="313.5,-397 313.5,-416 350.5,-416 350.5,-397 313.5,-397"/>
<text text-anchor="middle" x="332" y="-404" font-family="Helvetica,sans-Serif" font-size="10.00">new</text>
</a>
</g>
</g>
<!-- Node22&#45;&gt;Node24 -->
<g id="edge56" class="edge">
<title>Node22&#45;&gt;Node24</title>
<path fill="none" stroke="midnightblue" d="M368.8,-458.4C361.62,-448.46 351.96,-435.11 344.34,-424.57"/>
<polygon fill="midnightblue" stroke="midnightblue" points="346.98,-422.25 338.29,-416.19 341.31,-426.35 346.98,-422.25"/>
</g>
<!-- Node25 -->
<g id="node25" class="node">
<title>Node25</title>
<g id="a_node25"><a xlink:title=" ">
<polygon fill="none" stroke="#bfbfbf" points="721,-397 721,-416 771,-416 771,-397 721,-397"/>
<text text-anchor="middle" x="746" y="-404" font-family="Helvetica,sans-Serif" font-size="10.00">cstring</text>
</a>
</g>
</g>
<!-- Node22&#45;&gt;Node25 -->
<g id="edge57" class="edge">
<title>Node22&#45;&gt;Node25</title>
<path fill="none" stroke="midnightblue" d="M447.84,-459.47C450.59,-458.97 453.32,-458.48 456,-458 550.51,-441.12 574.49,-438.88 669,-422 682.63,-419.56 697.6,-416.77 710.68,-414.29"/>
<polygon fill="midnightblue" stroke="midnightblue" points="711.54,-417.69 720.71,-412.39 710.23,-410.82 711.54,-417.69"/>
</g>
<!-- Node23&#45;&gt;Node5 -->
<g id="edge50" class="edge">
<title>Node23&#45;&gt;Node5</title>
<path fill="none" stroke="midnightblue" d="M604.05,-391.47C629.35,-383.01 660.04,-370.8 685,-355 699.01,-346.13 729.47,-316.11 750.12,-295.1"/>
<polygon fill="midnightblue" stroke="midnightblue" points="752.74,-297.42 757.23,-287.82 747.74,-292.53 752.74,-297.42"/>
</g>
<!-- Node23&#45;&gt;Node13 -->
<g id="edge52" class="edge">
<title>Node23&#45;&gt;Node13</title>
<path fill="none" stroke="midnightblue" d="M550.35,-391.27C545.68,-374.45 540.44,-345.97 550,-324 599.84,-209.53 731.68,-126.89 797.09,-91.56"/>
<polygon fill="midnightblue" stroke="midnightblue" points="799.05,-94.47 806.24,-86.69 795.77,-88.29 799.05,-94.47"/>
</g>
<!-- Node23&#45;&gt;Node15 -->
<g id="edge53" class="edge">
<title>Node23&#45;&gt;Node15</title>
<path fill="none" stroke="midnightblue" d="M483.41,-395.76C397.31,-383.7 263.35,-363.69 256,-355 212.32,-303.33 173.86,-482.27 353,-123 357.48,-114.02 362.5,-104.21 366.93,-95.64"/>
<polygon fill="midnightblue" stroke="midnightblue" points="370.12,-97.09 371.62,-86.6 363.91,-93.86 370.12,-97.09"/>
</g>
<!-- Node23&#45;&gt;Node16 -->
<g id="edge51" class="edge">
<title>Node23&#45;&gt;Node16</title>
<path fill="none" stroke="midnightblue" d="M610.45,-391.48C650.34,-381.39 704.29,-367.74 746.34,-357.11"/>
<polygon fill="midnightblue" stroke="midnightblue" points="747.37,-360.46 756.21,-354.61 745.65,-353.67 747.37,-360.46"/>
</g>
<!-- Node26&#45;&gt;Node3 -->
<g id="edge61" class="edge">
<title>Node26&#45;&gt;Node3</title>
<path fill="none" stroke="midnightblue" d="M881.16,-538.52C843.59,-534.41 797.72,-522.24 773,-489 764.78,-477.94 766.6,-470.2 773,-458 779.79,-445.04 791.59,-434.75 803.74,-426.92"/>
<polygon fill="midnightblue" stroke="midnightblue" points="805.79,-429.78 812.59,-421.66 802.21,-423.77 805.79,-429.78"/>
</g>
<!-- Node26&#45;&gt;Node6 -->
<g id="edge64" class="edge">
<title>Node26&#45;&gt;Node6</title>
<path fill="none" stroke="midnightblue" d="M1000.64,-529.78C1033.67,-522.39 1074.33,-509.81 1106,-489 1251.5,-393.37 1310.89,-171.21 1327.1,-97.07"/>
<polygon fill="midnightblue" stroke="midnightblue" points="1330.61,-97.37 1329.26,-86.87 1323.77,-95.92 1330.61,-97.37"/>
</g>
<!-- Node26&#45;&gt;Node10 -->
<g id="edge65" class="edge">
<title>Node26&#45;&gt;Node10</title>
<path fill="none" stroke="midnightblue" d="M1000.81,-526.13C1025.48,-518.38 1053.11,-506.57 1074,-489 1132.71,-439.61 1162,-417.22 1162,-340.5 1162,-340.5 1162,-340.5 1162,-271.5 1162,-232.64 1149.11,-189.01 1139.95,-162.92"/>
<polygon fill="midnightblue" stroke="midnightblue" points="1143.24,-161.71 1136.54,-153.51 1136.66,-164.1 1143.24,-161.71"/>
</g>
<!-- Node26&#45;&gt;Node13 -->
<g id="edge67" class="edge">
<title>Node26&#45;&gt;Node13</title>
<path fill="none" stroke="midnightblue" d="M964.29,-525.37C978.12,-516.19 995.37,-503.3 1008,-489 1061.56,-428.33 1105.2,-402.36 1085,-324 1076.51,-291.06 1071.71,-281.39 1048,-257 1026.06,-234.42 1010.82,-241.59 987,-221 944.67,-184.42 948.98,-161.08 908,-123 895.8,-111.66 880.89,-100.9 867.74,-92.24"/>
<polygon fill="midnightblue" stroke="midnightblue" points="869.27,-89.07 858.96,-86.61 865.49,-94.96 869.27,-89.07"/>
</g>
<!-- Node26&#45;&gt;Node15 -->
<g id="edge69" class="edge">
<title>Node26&#45;&gt;Node15</title>
<path fill="none" stroke="midnightblue" d="M881.11,-540.1C766.91,-540.07 510.7,-534.38 301,-489 197.05,-466.5 76,-513.86 76,-407.5 76,-407.5 76,-407.5 76,-204.5 76,-104.08 217.6,-79.27 307.2,-73.62"/>
<polygon fill="midnightblue" stroke="midnightblue" points="307.53,-77.11 317.32,-73.05 307.14,-70.12 307.53,-77.11"/>
</g>
<!-- Node26&#45;&gt;Node16 -->
<g id="edge62" class="edge">
<title>Node26&#45;&gt;Node16</title>
<path fill="none" stroke="midnightblue" d="M942.76,-525.47C944.41,-509.08 945.97,-481.25 941,-458 934.18,-426.09 933.48,-414.65 911,-391 897.88,-377.19 880.15,-366.53 863.33,-358.63"/>
<polygon fill="midnightblue" stroke="midnightblue" points="864.67,-355.4 854.11,-354.53 861.82,-361.79 864.67,-355.4"/>
</g>
<!-- Node26&#45;&gt;Node21 -->
<g id="edge63" class="edge">
<title>Node26&#45;&gt;Node21</title>
<path fill="none" stroke="midnightblue" d="M960.84,-525.33C971.68,-516.31 984.08,-503.6 990,-489 1006.66,-447.9 998.24,-395.04 990.91,-364.75"/>
<polygon fill="midnightblue" stroke="midnightblue" points="994.2,-363.48 988.31,-354.67 987.42,-365.23 994.2,-363.48"/>
</g>
<!-- Node26&#45;&gt;Node22 -->
<g id="edge66" class="edge">
<title>Node26&#45;&gt;Node22</title>
<path fill="none" stroke="midnightblue" d="M881.45,-534.89C791.65,-527.59 616.06,-511.94 457.72,-489.19"/>
<polygon fill="midnightblue" stroke="midnightblue" points="458.2,-485.72 447.8,-487.75 457.19,-492.65 458.2,-485.72"/>
</g>
<!-- Node26&#45;&gt;Node25 -->
<g id="edge68" class="edge">
<title>Node26&#45;&gt;Node25</title>
<path fill="none" stroke="midnightblue" d="M941.06,-525.28C940.33,-507.12 936.27,-475.91 918,-458 872.74,-413.63 839.98,-442.49 780,-422 778.13,-421.36 776.22,-420.67 774.31,-419.94"/>
<polygon fill="midnightblue" stroke="midnightblue" points="775.45,-416.63 764.87,-416.13 772.83,-423.12 775.45,-416.63"/>
</g>
<!-- Node27 -->
<g id="node27" class="node">
<title>Node27</title>
<g id="a_node27"><a xlink:href="has__asan_8hpp.html" target="_top" xlink:title=" ">
<polygon fill="none" stroke="black" points="782.5,-458.5 782.5,-488.5 909.5,-488.5 909.5,-458.5 782.5,-458.5"/>
<text text-anchor="start" x="790.5" y="-476.5" font-family="Helvetica,sans-Serif" font-size="10.00">proxsuite/linalg/veg</text>
<text text-anchor="middle" x="846" y="-465.5" font-family="Helvetica,sans-Serif" font-size="10.00">/internal/has_asan.hpp</text>
</a>
</g>
</g>
<!-- Node26&#45;&gt;Node27 -->
<g id="edge60" class="edge">
<title>Node26&#45;&gt;Node27</title>
<path fill="none" stroke="midnightblue" d="M920.39,-525.4C907.07,-516.28 889.54,-504.29 874.84,-494.24"/>
<polygon fill="midnightblue" stroke="midnightblue" points="876.8,-491.33 866.57,-488.58 872.85,-497.11 876.8,-491.33"/>
</g>
<!-- Node30&#45;&gt;Node13 -->
<g id="edge78" class="edge">
<title>Node30&#45;&gt;Node13</title>
<path fill="none" stroke="midnightblue" d="M502.8,-458.45C492.12,-449.4 479.83,-436.6 474,-422 468.89,-409.21 469.92,-404.16 474,-391 506.79,-285.3 544.13,-269.62 621,-190 652.28,-157.6 658.3,-146.02 697,-123 720.52,-109.01 748.55,-97.88 773.19,-89.66"/>
<polygon fill="midnightblue" stroke="midnightblue" points="774.38,-92.96 782.81,-86.55 772.22,-86.3 774.38,-92.96"/>
</g>
<!-- Node30&#45;&gt;Node15 -->
<g id="edge79" class="edge">
<title>Node30&#45;&gt;Node15</title>
<path fill="none" stroke="midnightblue" d="M497.89,-458.36C466.72,-440.56 410.32,-410.03 359,-391 297.55,-368.21 256.29,-406.69 216,-355 190.05,-321.7 222.28,-279.02 335,-123 342.19,-113.04 350.95,-102.7 358.74,-93.99"/>
<polygon fill="midnightblue" stroke="midnightblue" points="361.41,-96.25 365.56,-86.51 356.24,-91.54 361.41,-96.25"/>
</g>
<!-- Node30&#45;&gt;Node16 -->
<g id="edge76" class="edge">
<title>Node30&#45;&gt;Node16</title>
<path fill="none" stroke="midnightblue" d="M574.9,-458.44C603.58,-449.81 639.17,-437.45 669,-422 689.92,-411.17 691.87,-403.24 712,-391 731.19,-379.33 753.42,-367.92 772.04,-358.9"/>
<polygon fill="midnightblue" stroke="midnightblue" points="773.63,-362.02 781.14,-354.54 770.6,-355.7 773.63,-362.02"/>
</g>
<!-- Node30&#45;&gt;Node23 -->
<g id="edge77" class="edge">
<title>Node30&#45;&gt;Node23</title>
<path fill="none" stroke="midnightblue" d="M529.16,-458.4C533.27,-450.3 538.53,-439.94 543.23,-430.69"/>
<polygon fill="midnightblue" stroke="midnightblue" points="546.45,-432.08 547.85,-421.58 540.21,-428.91 546.45,-432.08"/>
</g>
</g>
</svg>
