<?xml version="1.0" encoding="UTF-8" standalone="no"?>
<!DOCTYPE svg PUBLIC "-//W3C//DTD SVG 1.1//EN"
 "http://www.w3.org/Graphics/SVG/1.1/DTD/svg11.dtd">
<!-- Generated by graphviz version 6.0.1 (20220911.2005)
 -->
<!-- Title: include/proxsuite/linalg/veg/internal/collection_algo.hpp Pages: 1 -->
<svg width="1432pt" height="698pt"
 viewBox="0.00 0.00 1432.00 698.00" xmlns="http://www.w3.org/2000/svg" xmlns:xlink="http://www.w3.org/1999/xlink">
<g id="graph0" class="graph" transform="scale(1 1) rotate(0) translate(4 694)">
<title>include/proxsuite/linalg/veg/internal/collection_algo.hpp</title>
<!-- Node1 -->
<g id="node1" class="node">
<title>Node1</title>
<g id="a_node1"><a xlink:title=" ">
<polygon fill="#999999" stroke="#666666" points="613.5,-690 482.5,-690 482.5,-649 613.5,-649 613.5,-690"/>
<text text-anchor="start" x="490.5" y="-678" font-family="Helvetica,sans-Serif" font-size="10.00">include/proxsuite/linalg</text>
<text text-anchor="start" x="490.5" y="-667" font-family="Helvetica,sans-Serif" font-size="10.00">/veg/internal/collection</text>
<text text-anchor="middle" x="548" y="-656" font-family="Helvetica,sans-Serif" font-size="10.00">_algo.hpp</text>
</a>
</g>
</g>
<!-- Node2 -->
<g id="node2" class="node">
<title>Node2</title>
<g id="a_node2"><a xlink:href="memory_2alloc_8hpp.html" target="_top" xlink:title=" ">
<polygon fill="white" stroke="#666666" points="870.5,-613 757.5,-613 757.5,-583 870.5,-583 870.5,-613"/>
<text text-anchor="start" x="765.5" y="-601" font-family="Helvetica,sans-Serif" font-size="10.00">proxsuite/linalg/veg</text>
<text text-anchor="middle" x="814" y="-590" font-family="Helvetica,sans-Serif" font-size="10.00">/memory/alloc.hpp</text>
</a>
</g>
</g>
<!-- Node1&#45;&gt;Node2 -->
<g id="edge1" class="edge">
<title>Node1&#45;&gt;Node2</title>
<path fill="none" stroke="#63b8ff" d="M613.75,-651.32C655.48,-640.42 709.2,-626.38 750.49,-615.59"/>
<polygon fill="#63b8ff" stroke="#63b8ff" points="751.38,-618.98 760.17,-613.06 749.61,-612.21 751.38,-618.98"/>
</g>
<!-- Node13 -->
<g id="node13" class="node">
<title>Node13</title>
<g id="a_node13"><a xlink:href="prologue_8hpp.html" target="_top" xlink:title=" ">
<polygon fill="white" stroke="#666666" points="1148,-85 1024,-85 1024,-55 1148,-55 1148,-85"/>
<text text-anchor="start" x="1032" y="-73" font-family="Helvetica,sans-Serif" font-size="10.00">proxsuite/linalg/veg</text>
<text text-anchor="middle" x="1086" y="-62" font-family="Helvetica,sans-Serif" font-size="10.00">/internal/prologue.hpp</text>
</a>
</g>
</g>
<!-- Node1&#45;&gt;Node13 -->
<g id="edge81" class="edge">
<title>Node1&#45;&gt;Node13</title>
<path fill="none" stroke="#63b8ff" d="M613.76,-664.79C811.31,-652.77 1386,-611.11 1386,-533 1386,-533 1386,-533 1386,-201 1386,-102.07 1246.96,-77.59 1158.19,-72.04"/>
<polygon fill="#63b8ff" stroke="#63b8ff" points="1158.34,-68.54 1148.16,-71.48 1157.95,-75.53 1158.34,-68.54"/>
</g>
<!-- Node15 -->
<g id="node15" class="node">
<title>Node15</title>
<g id="a_node15"><a xlink:href="epilogue_8hpp.html" target="_top" xlink:title=" ">
<polygon fill="white" stroke="#666666" points="346.5,-85 223.5,-85 223.5,-55 346.5,-55 346.5,-85"/>
<text text-anchor="start" x="231.5" y="-73" font-family="Helvetica,sans-Serif" font-size="10.00">proxsuite/linalg/veg</text>
<text text-anchor="middle" x="285" y="-62" font-family="Helvetica,sans-Serif" font-size="10.00">/internal/epilogue.hpp</text>
</a>
</g>
</g>
<!-- Node1&#45;&gt;Node15 -->
<g id="edge82" class="edge">
<title>Node1&#45;&gt;Node15</title>
<path fill="none" stroke="#63b8ff" d="M482.44,-666.04C336.99,-658.79 0,-631.37 0,-533 0,-533 0,-533 0,-201 0,-107.46 128.67,-80.93 213.09,-73.59"/>
<polygon fill="#63b8ff" stroke="#63b8ff" points="213.47,-77.07 223.16,-72.79 212.91,-70.09 213.47,-77.07"/>
</g>
<!-- Node30 -->
<g id="node30" class="node">
<title>Node30</title>
<g id="a_node30"><a xlink:href="defer_8hpp.html" target="_top" xlink:title=" ">
<polygon fill="white" stroke="#666666" points="293.5,-481 180.5,-481 180.5,-451 293.5,-451 293.5,-481"/>
<text text-anchor="start" x="188.5" y="-469" font-family="Helvetica,sans-Serif" font-size="10.00">proxsuite/linalg/veg</text>
<text text-anchor="middle" x="237" y="-458" font-family="Helvetica,sans-Serif" font-size="10.00">/util/defer.hpp</text>
</a>
</g>
</g>
<!-- Node1&#45;&gt;Node30 -->
<g id="edge76" class="edge">
<title>Node1&#45;&gt;Node30</title>
<path fill="none" stroke="#63b8ff" d="M496.07,-648.92C445.15,-628.23 366.81,-592.34 308,-547 286.58,-530.49 266.56,-506.88 253.27,-489.59"/>
<polygon fill="#63b8ff" stroke="#63b8ff" points="255.77,-487.08 246.97,-481.19 250.17,-491.29 255.77,-487.08"/>
</g>
<!-- Node3 -->
<g id="node3" class="node">
<title>Node3</title>
<g id="a_node3"><a xlink:href="ref_8hpp.html" target="_top" xlink:title=" ">
<polygon fill="white" stroke="#666666" points="993.5,-415 880.5,-415 880.5,-385 993.5,-385 993.5,-415"/>
<text text-anchor="start" x="888.5" y="-403" font-family="Helvetica,sans-Serif" font-size="10.00">proxsuite/linalg/veg</text>
<text text-anchor="middle" x="937" y="-392" font-family="Helvetica,sans-Serif" font-size="10.00">/ref.hpp</text>
</a>
</g>
</g>
<!-- Node2&#45;&gt;Node3 -->
<g id="edge2" class="edge">
<title>Node2&#45;&gt;Node3</title>
<path fill="none" stroke="#63b8ff" d="M822.85,-582.9C843.89,-549.37 897.1,-464.57 922.75,-423.71"/>
<polygon fill="#63b8ff" stroke="#63b8ff" points="925.72,-425.56 928.07,-415.23 919.79,-421.84 925.72,-425.56"/>
</g>
<!-- Node6 -->
<g id="node6" class="node">
<title>Node6</title>
<g id="a_node6"><a xlink:href="typedefs_8hpp.html" target="_top" xlink:title=" ">
<polygon fill="white" stroke="#666666" points="1006,-85 882,-85 882,-55 1006,-55 1006,-85"/>
<text text-anchor="start" x="890" y="-73" font-family="Helvetica,sans-Serif" font-size="10.00">proxsuite/linalg/veg</text>
<text text-anchor="middle" x="944" y="-62" font-family="Helvetica,sans-Serif" font-size="10.00">/internal/typedefs.hpp</text>
</a>
</g>
</g>
<!-- Node2&#45;&gt;Node6 -->
<g id="edge45" class="edge">
<title>Node2&#45;&gt;Node6</title>
<path fill="none" stroke="#63b8ff" d="M870.78,-595.08C989.04,-590.49 1253.08,-576.96 1280,-547 1424.51,-386.15 1217.62,-251.23 1045,-121 1028.24,-108.36 1007.79,-97.53 989.68,-89.21"/>
<polygon fill="#63b8ff" stroke="#63b8ff" points="991.02,-85.98 980.46,-85.1 988.16,-92.37 991.02,-85.98"/>
</g>
<!-- Node8 -->
<g id="node8" class="node">
<title>Node8</title>
<g id="a_node8"><a xlink:title=" ">
<polygon fill="#e0e0e0" stroke="#999999" points="1010.5,-19 957.5,-19 957.5,0 1010.5,0 1010.5,-19"/>
<text text-anchor="middle" x="984" y="-7" font-family="Helvetica,sans-Serif" font-size="10.00">cstddef</text>
</a>
</g>
</g>
<!-- Node2&#45;&gt;Node8 -->
<g id="edge71" class="edge">
<title>Node2&#45;&gt;Node8</title>
<path fill="none" stroke="#63b8ff" d="M870.52,-596.61C983.17,-594.96 1231.17,-586.78 1305,-547 1378.7,-507.29 1424,-484.71 1424,-401 1424,-401 1424,-401 1424,-135 1424,-51.44 1126.45,-21.12 1020.73,-12.98"/>
<polygon fill="#63b8ff" stroke="#63b8ff" points="1020.77,-9.47 1010.53,-12.22 1020.24,-16.45 1020.77,-9.47"/>
</g>
<!-- Node10 -->
<g id="node10" class="node">
<title>Node10</title>
<g id="a_node10"><a xlink:href="macros_8hpp.html" target="_top" xlink:title=" ">
<polygon fill="white" stroke="#666666" points="673.5,-151 556.5,-151 556.5,-121 673.5,-121 673.5,-151"/>
<text text-anchor="start" x="564.5" y="-139" font-family="Helvetica,sans-Serif" font-size="10.00">proxsuite/linalg/veg</text>
<text text-anchor="middle" x="615" y="-128" font-family="Helvetica,sans-Serif" font-size="10.00">/internal/macros.hpp</text>
</a>
</g>
</g>
<!-- Node2&#45;&gt;Node10 -->
<g id="edge46" class="edge">
<title>Node2&#45;&gt;Node10</title>
<path fill="none" stroke="#63b8ff" d="M757.31,-592.46C590.66,-578.35 114,-532.28 114,-467 114,-467 114,-467 114,-399 114,-276.26 179.64,-238.63 291,-187 373.15,-148.92 478.31,-138.86 546.17,-136.7"/>
<polygon fill="#63b8ff" stroke="#63b8ff" points="546.41,-140.19 556.32,-136.43 546.23,-133.2 546.41,-140.19"/>
</g>
<!-- Node2&#45;&gt;Node13 -->
<g id="edge74" class="edge">
<title>Node2&#45;&gt;Node13</title>
<path fill="none" stroke="#63b8ff" d="M870.64,-589.45C1008.07,-567.64 1348,-491.22 1348,-269 1348,-269 1348,-269 1348,-201 1348,-115.96 1235.86,-86.55 1158.31,-76.38"/>
<polygon fill="#63b8ff" stroke="#63b8ff" points="1158.44,-72.87 1148.09,-75.12 1157.59,-79.81 1158.44,-72.87"/>
</g>
<!-- Node2&#45;&gt;Node15 -->
<g id="edge75" class="edge">
<title>Node2&#45;&gt;Node15</title>
<path fill="none" stroke="#63b8ff" d="M757.18,-594.8C627.7,-589.37 314.07,-573.81 212,-547 129.68,-525.37 38,-552.12 38,-467 38,-467 38,-467 38,-201 38,-159.54 52.7,-145.7 86,-121 122.66,-93.8 172.48,-81.31 213.1,-75.61"/>
<polygon fill="#63b8ff" stroke="#63b8ff" points="213.75,-79.05 223.21,-74.3 212.85,-72.11 213.75,-79.05"/>
</g>
<!-- Node16 -->
<g id="node16" class="node">
<title>Node16</title>
<g id="a_node16"><a xlink:href="constructible_8hpp.html" target="_top" xlink:title=" ">
<polygon fill="white" stroke="#666666" points="458.5,-349 299.5,-349 299.5,-319 458.5,-319 458.5,-349"/>
<text text-anchor="start" x="307.5" y="-337" font-family="Helvetica,sans-Serif" font-size="10.00">proxsuite/linalg/veg</text>
<text text-anchor="middle" x="379" y="-326" font-family="Helvetica,sans-Serif" font-size="10.00">/type_traits/constructible.hpp</text>
</a>
</g>
</g>
<!-- Node2&#45;&gt;Node16 -->
<g id="edge39" class="edge">
<title>Node2&#45;&gt;Node16</title>
<path fill="none" stroke="#63b8ff" d="M757.46,-590.75C644.48,-577.09 396.69,-540.94 339,-481 309,-449.84 305.32,-424.48 323,-385 328.2,-373.38 337.58,-363.35 347.2,-355.39"/>
<polygon fill="#63b8ff" stroke="#63b8ff" points="349.46,-358.07 355.25,-349.2 345.19,-352.52 349.46,-358.07"/>
</g>
<!-- Node22 -->
<g id="node22" class="node">
<title>Node22</title>
<g id="a_node22"><a xlink:href="assignable_8hpp.html" target="_top" xlink:title=" ">
<polygon fill="white" stroke="#666666" points="738.5,-349 589.5,-349 589.5,-319 738.5,-319 738.5,-349"/>
<text text-anchor="start" x="597.5" y="-337" font-family="Helvetica,sans-Serif" font-size="10.00">proxsuite/linalg/veg</text>
<text text-anchor="middle" x="664" y="-326" font-family="Helvetica,sans-Serif" font-size="10.00">/type_traits/assignable.hpp</text>
</a>
</g>
</g>
<!-- Node2&#45;&gt;Node22 -->
<g id="edge40" class="edge">
<title>Node2&#45;&gt;Node22</title>
<path fill="none" stroke="#63b8ff" d="M810.85,-582.87C802.32,-546.92 776.01,-450.19 727,-385 718.37,-373.53 706.52,-363.21 695.42,-354.96"/>
<polygon fill="#63b8ff" stroke="#63b8ff" points="697.32,-352.02 687.14,-349.08 693.26,-357.72 697.32,-352.02"/>
</g>
<!-- Node23 -->
<g id="node23" class="node">
<title>Node23</title>
<g id="a_node23"><a xlink:href="placement_8hpp.html" target="_top" xlink:title=" ">
<polygon fill="white" stroke="#666666" points="709.5,-481 572.5,-481 572.5,-451 709.5,-451 709.5,-481"/>
<text text-anchor="start" x="580.5" y="-469" font-family="Helvetica,sans-Serif" font-size="10.00">proxsuite/linalg/veg</text>
<text text-anchor="middle" x="641" y="-458" font-family="Helvetica,sans-Serif" font-size="10.00">/memory/placement.hpp</text>
</a>
</g>
</g>
<!-- Node2&#45;&gt;Node23 -->
<g id="edge47" class="edge">
<title>Node2&#45;&gt;Node23</title>
<path fill="none" stroke="#63b8ff" d="M795.48,-582.74C774.56,-566.67 739.46,-539.8 709,-517 695.75,-507.08 680.96,-496.18 668.56,-487.1"/>
<polygon fill="#63b8ff" stroke="#63b8ff" points="670.55,-484.22 660.41,-481.14 666.41,-489.87 670.55,-484.22"/>
</g>
<!-- Node26 -->
<g id="node26" class="node">
<title>Node26</title>
<g id="a_node26"><a xlink:href="type__traits_2alloc_8hpp.html" target="_top" xlink:title=" ">
<polygon fill="white" stroke="#666666" points="700.5,-547 581.5,-547 581.5,-517 700.5,-517 700.5,-547"/>
<text text-anchor="start" x="589.5" y="-535" font-family="Helvetica,sans-Serif" font-size="10.00">proxsuite/linalg/veg</text>
<text text-anchor="middle" x="641" y="-524" font-family="Helvetica,sans-Serif" font-size="10.00">/type_traits/alloc.hpp</text>
</a>
</g>
</g>
<!-- Node2&#45;&gt;Node26 -->
<g id="edge60" class="edge">
<title>Node2&#45;&gt;Node26</title>
<path fill="none" stroke="#63b8ff" d="M776.03,-582.95C750.23,-573.41 715.91,-560.71 688.33,-550.51"/>
<polygon fill="#63b8ff" stroke="#63b8ff" points="689.47,-547.2 678.88,-547.01 687.04,-553.76 689.47,-547.2"/>
</g>
<!-- Node28 -->
<g id="node28" class="node">
<title>Node28</title>
<g id="a_node28"><a xlink:title=" ">
<polygon fill="#e0e0e0" stroke="#999999" points="1194.5,-541.5 1145.5,-541.5 1145.5,-522.5 1194.5,-522.5 1194.5,-541.5"/>
<text text-anchor="middle" x="1170" y="-529.5" font-family="Helvetica,sans-Serif" font-size="10.00">cstdlib</text>
</a>
</g>
</g>
<!-- Node2&#45;&gt;Node28 -->
<g id="edge72" class="edge">
<title>Node2&#45;&gt;Node28</title>
<path fill="none" stroke="#63b8ff" d="M870.77,-591.31C934.71,-584.15 1041.4,-569.93 1131,-547 1133.5,-546.36 1136.07,-545.62 1138.63,-544.83"/>
<polygon fill="#63b8ff" stroke="#63b8ff" points="1139.98,-548.07 1148.36,-541.58 1137.77,-541.43 1139.98,-548.07"/>
</g>
<!-- Node29 -->
<g id="node29" class="node">
<title>Node29</title>
<g id="a_node29"><a xlink:title=" ">
<polygon fill="#e0e0e0" stroke="#999999" points="1271.5,-541.5 1212.5,-541.5 1212.5,-522.5 1271.5,-522.5 1271.5,-541.5"/>
<text text-anchor="middle" x="1242" y="-529.5" font-family="Helvetica,sans-Serif" font-size="10.00">malloc.h</text>
</a>
</g>
</g>
<!-- Node2&#45;&gt;Node29 -->
<g id="edge73" class="edge">
<title>Node2&#45;&gt;Node29</title>
<path fill="none" stroke="#63b8ff" d="M870.74,-593.57C947.11,-588.09 1086.82,-574.97 1203,-547 1205.66,-546.36 1208.39,-545.6 1211.12,-544.77"/>
<polygon fill="#63b8ff" stroke="#63b8ff" points="1212.41,-548.03 1220.8,-541.55 1210.2,-541.39 1212.41,-548.03"/>
</g>
<!-- Node4 -->
<g id="node4" class="node">
<title>Node4</title>
<g id="a_node4"><a xlink:href="tags_8hpp.html" target="_top" xlink:title=" ">
<polygon fill="white" stroke="#666666" points="911.5,-349 794.5,-349 794.5,-319 911.5,-319 911.5,-349"/>
<text text-anchor="start" x="802.5" y="-337" font-family="Helvetica,sans-Serif" font-size="10.00">proxsuite/linalg/veg</text>
<text text-anchor="middle" x="853" y="-326" font-family="Helvetica,sans-Serif" font-size="10.00">/type_traits/tags.hpp</text>
</a>
</g>
</g>
<!-- Node3&#45;&gt;Node4 -->
<g id="edge3" class="edge">
<title>Node3&#45;&gt;Node4</title>
<path fill="none" stroke="#63b8ff" d="M918.36,-384.8C907.05,-376.18 892.42,-365.04 879.88,-355.48"/>
<polygon fill="#63b8ff" stroke="#63b8ff" points="881.67,-352.44 871.59,-349.16 877.42,-358.01 881.67,-352.44"/>
</g>
<!-- Node3&#45;&gt;Node13 -->
<g id="edge37" class="edge">
<title>Node3&#45;&gt;Node13</title>
<path fill="none" stroke="#63b8ff" d="M993.73,-397.7C1030.35,-393.55 1075.56,-381.54 1100,-349 1157.81,-272.02 1117.17,-146.5 1096.29,-94.6"/>
<polygon fill="#63b8ff" stroke="#63b8ff" points="1099.48,-93.14 1092.42,-85.24 1093.01,-95.82 1099.48,-93.14"/>
</g>
<!-- Node3&#45;&gt;Node15 -->
<g id="edge38" class="edge">
<title>Node3&#45;&gt;Node15</title>
<path fill="none" stroke="#63b8ff" d="M880.2,-385.43C850.78,-377.15 814.85,-365.04 785,-349 766.05,-338.82 766.22,-328.67 747,-319 692.3,-291.47 671.56,-303.9 614,-283 584.09,-272.14 578.7,-264.41 549,-253 498.61,-233.65 479.31,-244.74 433,-217 429.26,-214.76 346.94,-132.81 306.72,-92.69"/>
<polygon fill="#63b8ff" stroke="#63b8ff" points="308.83,-89.85 299.28,-85.26 303.88,-94.8 308.83,-89.85"/>
</g>
<!-- Node3&#45;&gt;Node16 -->
<g id="edge23" class="edge">
<title>Node3&#45;&gt;Node16</title>
<path fill="none" stroke="#63b8ff" d="M880.43,-392.51C783.6,-381.41 585.36,-358.67 469.25,-345.35"/>
<polygon fill="#63b8ff" stroke="#63b8ff" points="469.3,-341.83 458.97,-344.17 468.5,-348.79 469.3,-341.83"/>
</g>
<!-- Node19 -->
<g id="node19" class="node">
<title>Node19</title>
<g id="a_node19"><a xlink:href="address_8hpp.html" target="_top" xlink:title=" ">
<polygon fill="white" stroke="#666666" points="1091.5,-349 968.5,-349 968.5,-319 1091.5,-319 1091.5,-349"/>
<text text-anchor="start" x="976.5" y="-337" font-family="Helvetica,sans-Serif" font-size="10.00">proxsuite/linalg/veg</text>
<text text-anchor="middle" x="1030" y="-326" font-family="Helvetica,sans-Serif" font-size="10.00">/memory/address.hpp</text>
</a>
</g>
</g>
<!-- Node3&#45;&gt;Node19 -->
<g id="edge29" class="edge">
<title>Node3&#45;&gt;Node19</title>
<path fill="none" stroke="#63b8ff" d="M957.64,-384.8C970.4,-376.01 986.98,-364.61 1001.04,-354.93"/>
<polygon fill="#63b8ff" stroke="#63b8ff" points="1003.16,-357.72 1009.42,-349.16 999.2,-351.95 1003.16,-357.72"/>
</g>
<!-- Node5 -->
<g id="node5" class="node">
<title>Node5</title>
<g id="a_node5"><a xlink:href="veg_2type__traits_2core_8hpp.html" target="_top" xlink:title=" ">
<polygon fill="white" stroke="#666666" points="783.5,-283 666.5,-283 666.5,-253 783.5,-253 783.5,-283"/>
<text text-anchor="start" x="674.5" y="-271" font-family="Helvetica,sans-Serif" font-size="10.00">proxsuite/linalg/veg</text>
<text text-anchor="middle" x="725" y="-260" font-family="Helvetica,sans-Serif" font-size="10.00">/type_traits/core.hpp</text>
</a>
</g>
</g>
<!-- Node4&#45;&gt;Node5 -->
<g id="edge4" class="edge">
<title>Node4&#45;&gt;Node5</title>
<path fill="none" stroke="#63b8ff" d="M824.91,-318.95C806.49,-309.74 782.19,-297.6 762.17,-287.59"/>
<polygon fill="#63b8ff" stroke="#63b8ff" points="763.53,-284.35 753.02,-283.01 760.4,-290.61 763.53,-284.35"/>
</g>
<!-- Node4&#45;&gt;Node13 -->
<g id="edge21" class="edge">
<title>Node4&#45;&gt;Node13</title>
<path fill="none" stroke="#63b8ff" d="M873.04,-318.79C900.39,-298.63 949.69,-259.41 982,-217 1010.91,-179.05 1001.02,-158.89 1030,-121 1038.16,-110.32 1048.84,-100.13 1058.67,-91.77"/>
<polygon fill="#63b8ff" stroke="#63b8ff" points="1061.16,-94.26 1066.67,-85.21 1056.72,-88.85 1061.16,-94.26"/>
</g>
<!-- Node4&#45;&gt;Node15 -->
<g id="edge22" class="edge">
<title>Node4&#45;&gt;Node15</title>
<path fill="none" stroke="#63b8ff" d="M794.25,-320.45C745.81,-309.66 681.27,-294.11 657,-283 635.81,-273.3 635.24,-262.58 614,-253 552.3,-225.16 523,-253.52 466,-217 420.18,-187.64 432.56,-154.91 390,-121 373.53,-107.87 353.05,-97.14 334.56,-89.04"/>
<polygon fill="#63b8ff" stroke="#63b8ff" points="335.67,-85.71 325.1,-85.04 332.95,-92.16 335.67,-85.71"/>
</g>
<!-- Node5&#45;&gt;Node6 -->
<g id="edge5" class="edge">
<title>Node5&#45;&gt;Node6</title>
<path fill="none" stroke="#63b8ff" d="M783.6,-258.36C813.06,-251.43 847.59,-239.04 872,-217 906.83,-185.55 894.74,-162.84 916,-121 920.52,-112.11 925.79,-102.51 930.54,-94.12"/>
<polygon fill="#63b8ff" stroke="#63b8ff" points="933.67,-95.69 935.6,-85.27 927.6,-92.22 933.67,-95.69"/>
</g>
<!-- Node9 -->
<g id="node9" class="node">
<title>Node9</title>
<g id="a_node9"><a xlink:href="integer__seq_8hpp.html" target="_top" xlink:title=" ">
<polygon fill="white" stroke="#666666" points="694,-217 556,-217 556,-187 694,-187 694,-217"/>
<text text-anchor="start" x="564" y="-205" font-family="Helvetica,sans-Serif" font-size="10.00">proxsuite/linalg/veg</text>
<text text-anchor="middle" x="625" y="-194" font-family="Helvetica,sans-Serif" font-size="10.00">/internal/integer_seq.hpp</text>
</a>
</g>
</g>
<!-- Node5&#45;&gt;Node9 -->
<g id="edge8" class="edge">
<title>Node5&#45;&gt;Node9</title>
<path fill="none" stroke="#63b8ff" d="M702.81,-252.8C688.95,-243.93 670.93,-232.39 655.71,-222.66"/>
<polygon fill="#63b8ff" stroke="#63b8ff" points="657.44,-219.61 647.13,-217.16 653.67,-225.5 657.44,-219.61"/>
</g>
<!-- Node5&#45;&gt;Node13 -->
<g id="edge19" class="edge">
<title>Node5&#45;&gt;Node13</title>
<path fill="none" stroke="#63b8ff" d="M783.72,-260.93C819.49,-254.74 864.42,-242.23 897,-217 936.23,-186.62 916,-152.91 954,-121 971.33,-106.45 993.34,-95.88 1014.39,-88.33"/>
<polygon fill="#63b8ff" stroke="#63b8ff" points="1015.64,-91.6 1023.98,-85.07 1013.38,-84.98 1015.64,-91.6"/>
</g>
<!-- Node5&#45;&gt;Node15 -->
<g id="edge20" class="edge">
<title>Node5&#45;&gt;Node15</title>
<path fill="none" stroke="#63b8ff" d="M666.38,-255.23C601.23,-241.99 504.15,-221.7 497,-217 453.1,-188.13 470.08,-152.46 428,-121 407.08,-105.36 380.87,-94.33 356.62,-86.69"/>
<polygon fill="#63b8ff" stroke="#63b8ff" points="357.31,-83.24 346.73,-83.72 355.3,-89.94 357.31,-83.24"/>
</g>
<!-- Node7 -->
<g id="node7" class="node">
<title>Node7</title>
<g id="a_node7"><a xlink:title=" ">
<polygon fill="#e0e0e0" stroke="#999999" points="929,-19 879,-19 879,0 929,0 929,-19"/>
<text text-anchor="middle" x="904" y="-7" font-family="Helvetica,sans-Serif" font-size="10.00">cstdint</text>
</a>
</g>
</g>
<!-- Node6&#45;&gt;Node7 -->
<g id="edge6" class="edge">
<title>Node6&#45;&gt;Node7</title>
<path fill="none" stroke="#63b8ff" d="M934.32,-54.84C928.75,-46.69 921.71,-36.4 915.82,-27.78"/>
<polygon fill="#63b8ff" stroke="#63b8ff" points="918.53,-25.55 909.99,-19.27 912.75,-29.5 918.53,-25.55"/>
</g>
<!-- Node6&#45;&gt;Node8 -->
<g id="edge7" class="edge">
<title>Node6&#45;&gt;Node8</title>
<path fill="none" stroke="#63b8ff" d="M953.68,-54.84C959.25,-46.69 966.29,-36.4 972.18,-27.78"/>
<polygon fill="#63b8ff" stroke="#63b8ff" points="975.25,-29.5 978.01,-19.27 969.47,-25.55 975.25,-29.5"/>
</g>
<!-- Node9&#45;&gt;Node6 -->
<g id="edge9" class="edge">
<title>Node9&#45;&gt;Node6</title>
<path fill="none" stroke="#63b8ff" d="M645.81,-186.79C672.26,-169.25 719.83,-139.5 764,-121 798.58,-106.52 838.63,-94.92 872.16,-86.56"/>
<polygon fill="#63b8ff" stroke="#63b8ff" points="873.01,-89.95 881.89,-84.17 871.34,-83.15 873.01,-89.95"/>
</g>
<!-- Node9&#45;&gt;Node10 -->
<g id="edge10" class="edge">
<title>Node9&#45;&gt;Node10</title>
<path fill="none" stroke="#63b8ff" d="M622.78,-186.8C621.6,-179.26 620.12,-169.78 618.77,-161.13"/>
<polygon fill="#63b8ff" stroke="#63b8ff" points="622.22,-160.5 617.21,-151.16 615.3,-161.58 622.22,-160.5"/>
</g>
<!-- Node9&#45;&gt;Node13 -->
<g id="edge17" class="edge">
<title>Node9&#45;&gt;Node13</title>
<path fill="none" stroke="#63b8ff" d="M663.55,-186.96C688.32,-177.57 720.98,-164.51 749,-151 773.38,-139.25 776.49,-130.06 802,-121 889.47,-89.94 918.63,-101.45 1013.65,-85.17"/>
<polygon fill="#63b8ff" stroke="#63b8ff" points="1014.45,-88.58 1023.68,-83.39 1013.22,-81.69 1014.45,-88.58"/>
</g>
<!-- Node9&#45;&gt;Node15 -->
<g id="edge18" class="edge">
<title>Node9&#45;&gt;Node15</title>
<path fill="none" stroke="#63b8ff" d="M602.32,-186.79C586.67,-176.91 565.45,-163.34 547,-151 527.63,-138.04 525.31,-130.43 504,-121 490.39,-114.97 415.13,-98.35 356.59,-85.92"/>
<polygon fill="#63b8ff" stroke="#63b8ff" points="357.12,-82.45 346.61,-83.8 355.67,-89.3 357.12,-82.45"/>
</g>
<!-- Node10&#45;&gt;Node6 -->
<g id="edge12" class="edge">
<title>Node10&#45;&gt;Node6</title>
<path fill="none" stroke="#63b8ff" d="M673.82,-123.56C729.2,-112.78 812.31,-96.62 871.71,-85.06"/>
<polygon fill="#63b8ff" stroke="#63b8ff" points="872.63,-88.45 881.78,-83.1 871.29,-81.58 872.63,-88.45"/>
</g>
<!-- Node11 -->
<g id="node11" class="node">
<title>Node11</title>
<g id="a_node11"><a xlink:href="hedley_8ext_8hpp.html" target="_top" xlink:title=" ">
<polygon fill="white" stroke="#666666" points="539.5,-85 364.5,-85 364.5,-55 539.5,-55 539.5,-85"/>
<text text-anchor="start" x="372.5" y="-73" font-family="Helvetica,sans-Serif" font-size="10.00">proxsuite/linalg/veg</text>
<text text-anchor="middle" x="452" y="-62" font-family="Helvetica,sans-Serif" font-size="10.00">/internal/external/hedley.ext.hpp</text>
</a>
</g>
</g>
<!-- Node10&#45;&gt;Node11 -->
<g id="edge11" class="edge">
<title>Node10&#45;&gt;Node11</title>
<path fill="none" stroke="#63b8ff" d="M579.23,-120.95C555.13,-111.49 523.15,-98.93 497.27,-88.78"/>
<polygon fill="#63b8ff" stroke="#63b8ff" points="498.27,-85.41 487.69,-85.01 495.72,-91.93 498.27,-85.41"/>
</g>
<!-- Node12 -->
<g id="node12" class="node">
<title>Node12</title>
<g id="a_node12"><a xlink:href="preprocessor_8hpp.html" target="_top" xlink:title=" ">
<polygon fill="white" stroke="#666666" points="700.5,-85 557.5,-85 557.5,-55 700.5,-55 700.5,-85"/>
<text text-anchor="start" x="565.5" y="-73" font-family="Helvetica,sans-Serif" font-size="10.00">proxsuite/linalg/veg</text>
<text text-anchor="middle" x="629" y="-62" font-family="Helvetica,sans-Serif" font-size="10.00">/internal/preprocessor.hpp</text>
</a>
</g>
</g>
<!-- Node10&#45;&gt;Node12 -->
<g id="edge13" class="edge">
<title>Node10&#45;&gt;Node12</title>
<path fill="none" stroke="#63b8ff" d="M618.11,-120.8C619.76,-113.26 621.83,-103.78 623.72,-95.13"/>
<polygon fill="#63b8ff" stroke="#63b8ff" points="627.18,-95.68 625.9,-85.16 620.35,-94.19 627.18,-95.68"/>
</g>
<!-- Node10&#45;&gt;Node13 -->
<g id="edge14" class="edge">
<title>Node10&#45;&gt;Node13</title>
<path fill="none" stroke="#63b8ff" d="M673.81,-128.96C749.98,-120.84 887.07,-105.24 1013.82,-85.12"/>
<polygon fill="#63b8ff" stroke="#63b8ff" points="1014.39,-88.58 1023.71,-83.54 1013.28,-81.66 1014.39,-88.58"/>
</g>
<!-- Node14 -->
<g id="node14" class="node">
<title>Node14</title>
<g id="a_node14"><a xlink:title=" ">
<polygon fill="#e0e0e0" stroke="#999999" points="801.5,-79.5 718.5,-79.5 718.5,-60.5 801.5,-60.5 801.5,-79.5"/>
<text text-anchor="middle" x="760" y="-67.5" font-family="Helvetica,sans-Serif" font-size="10.00">initializer_list</text>
</a>
</g>
</g>
<!-- Node10&#45;&gt;Node14 -->
<g id="edge15" class="edge">
<title>Node10&#45;&gt;Node14</title>
<path fill="none" stroke="#63b8ff" d="M646.82,-120.95C672.03,-109.83 706.93,-94.42 731.29,-83.67"/>
<polygon fill="#63b8ff" stroke="#63b8ff" points="732.97,-86.76 740.7,-79.52 730.14,-80.35 732.97,-86.76"/>
</g>
<!-- Node10&#45;&gt;Node15 -->
<g id="edge16" class="edge">
<title>Node10&#45;&gt;Node15</title>
<path fill="none" stroke="#63b8ff" d="M556.27,-123.73C492.35,-111.46 394.96,-92.75 356.7,-85.32"/>
<polygon fill="#63b8ff" stroke="#63b8ff" points="357.32,-81.87 346.83,-83.39 355.98,-88.74 357.32,-81.87"/>
</g>
<!-- Node16&#45;&gt;Node5 -->
<g id="edge24" class="edge">
<title>Node16&#45;&gt;Node5</title>
<path fill="none" stroke="#63b8ff" d="M454.93,-318.95C514.98,-307.85 598.1,-292.47 656.22,-281.72"/>
<polygon fill="#63b8ff" stroke="#63b8ff" points="657.21,-285.1 666.4,-279.84 655.93,-278.22 657.21,-285.1"/>
</g>
<!-- Node16&#45;&gt;Node13 -->
<g id="edge25" class="edge">
<title>Node16&#45;&gt;Node13</title>
<path fill="none" stroke="#63b8ff" d="M373.95,-318.87C368.61,-301.14 362.98,-270.9 379,-253 427.31,-199.02 635.98,-244.51 703,-217 722.91,-208.83 722.15,-197.37 741,-187 818.59,-144.31 845.02,-149.11 929,-121 962.63,-109.74 1000.51,-97.66 1030.64,-88.2"/>
<polygon fill="#63b8ff" stroke="#63b8ff" points="1032.05,-91.42 1040.54,-85.09 1029.95,-84.74 1032.05,-91.42"/>
</g>
<!-- Node16&#45;&gt;Node15 -->
<g id="edge28" class="edge">
<title>Node16&#45;&gt;Node15</title>
<path fill="none" stroke="#63b8ff" d="M363.3,-318.7C342.25,-298.43 305.72,-259.09 290,-217 274.89,-176.55 277.67,-125.33 281.22,-95.55"/>
<polygon fill="#63b8ff" stroke="#63b8ff" points="284.74,-95.63 282.59,-85.26 277.8,-94.71 284.74,-95.63"/>
</g>
<!-- Node17 -->
<g id="node17" class="node">
<title>Node17</title>
<g id="a_node17"><a xlink:title=" ">
<polygon fill="#e0e0e0" stroke="#999999" points="293.5,-277.5 256.5,-277.5 256.5,-258.5 293.5,-258.5 293.5,-277.5"/>
<text text-anchor="middle" x="275" y="-265.5" font-family="Helvetica,sans-Serif" font-size="10.00">new</text>
</a>
</g>
</g>
<!-- Node16&#45;&gt;Node17 -->
<g id="edge26" class="edge">
<title>Node16&#45;&gt;Node17</title>
<path fill="none" stroke="#63b8ff" d="M356.18,-318.95C338.82,-308.27 315.06,-293.65 297.73,-282.98"/>
<polygon fill="#63b8ff" stroke="#63b8ff" points="299.19,-279.78 288.84,-277.52 295.52,-285.74 299.19,-279.78"/>
</g>
<!-- Node18 -->
<g id="node18" class="node">
<title>Node18</title>
<g id="a_node18"><a xlink:title=" ">
<polygon fill="#e0e0e0" stroke="#999999" points="457.5,-277.5 388.5,-277.5 388.5,-258.5 457.5,-258.5 457.5,-277.5"/>
<text text-anchor="middle" x="423" y="-265.5" font-family="Helvetica,sans-Serif" font-size="10.00">type_traits</text>
</a>
</g>
</g>
<!-- Node16&#45;&gt;Node18 -->
<g id="edge27" class="edge">
<title>Node16&#45;&gt;Node18</title>
<path fill="none" stroke="#63b8ff" d="M388.77,-318.8C395.36,-309.21 404.09,-296.5 411.09,-286.32"/>
<polygon fill="#63b8ff" stroke="#63b8ff" points="414.14,-288.07 416.92,-277.84 408.37,-284.1 414.14,-288.07"/>
</g>
<!-- Node19&#45;&gt;Node5 -->
<g id="edge30" class="edge">
<title>Node19&#45;&gt;Node5</title>
<path fill="none" stroke="#63b8ff" d="M968.28,-320.05C917.59,-309.41 845.85,-294.36 793.41,-283.36"/>
<polygon fill="#63b8ff" stroke="#63b8ff" points="794.03,-279.91 783.53,-281.28 792.59,-286.76 794.03,-279.91"/>
</g>
<!-- Node19&#45;&gt;Node13 -->
<g id="edge34" class="edge">
<title>Node19&#45;&gt;Node13</title>
<path fill="none" stroke="#63b8ff" d="M1025.63,-318.86C1021.33,-302.43 1016.52,-274.79 1025,-253 1032.87,-232.77 1048.25,-236.39 1058,-217 1077.92,-177.36 1083.71,-125.13 1085.37,-95.09"/>
<polygon fill="#63b8ff" stroke="#63b8ff" points="1088.87,-95.23 1085.81,-85.09 1081.87,-94.92 1088.87,-95.23"/>
</g>
<!-- Node19&#45;&gt;Node15 -->
<g id="edge36" class="edge">
<title>Node19&#45;&gt;Node15</title>
<path fill="none" stroke="#63b8ff" d="M991.04,-318.96C934.02,-298.58 830.47,-262.21 792,-253 684.97,-227.36 644.81,-267.46 547,-217 494.48,-189.91 505.49,-151.71 455,-121 437.73,-110.5 393.42,-97.61 354.37,-87.55"/>
<polygon fill="#63b8ff" stroke="#63b8ff" points="355.13,-84.13 344.57,-85.05 353.4,-90.91 355.13,-84.13"/>
</g>
<!-- Node20 -->
<g id="node20" class="node">
<title>Node20</title>
<g id="a_node20"><a xlink:href="std_8hpp.html" target="_top" xlink:title=" ">
<polygon fill="white" stroke="#666666" points="863.5,-217 750.5,-217 750.5,-187 863.5,-187 863.5,-217"/>
<text text-anchor="start" x="758.5" y="-205" font-family="Helvetica,sans-Serif" font-size="10.00">proxsuite/linalg/veg</text>
<text text-anchor="middle" x="807" y="-194" font-family="Helvetica,sans-Serif" font-size="10.00">/internal/std.hpp</text>
</a>
</g>
</g>
<!-- Node19&#45;&gt;Node20 -->
<g id="edge31" class="edge">
<title>Node19&#45;&gt;Node20</title>
<path fill="none" stroke="#63b8ff" d="M1005.71,-318.84C965.58,-295.45 885.38,-248.69 840.1,-222.29"/>
<polygon fill="#63b8ff" stroke="#63b8ff" points="841.66,-219.15 831.26,-217.14 838.14,-225.2 841.66,-219.15"/>
</g>
<!-- Node21 -->
<g id="node21" class="node">
<title>Node21</title>
<g id="a_node21"><a xlink:title=" ">
<polygon fill="#e0e0e0" stroke="#999999" points="1092,-277.5 1034,-277.5 1034,-258.5 1092,-258.5 1092,-277.5"/>
<text text-anchor="middle" x="1063" y="-265.5" font-family="Helvetica,sans-Serif" font-size="10.00">memory</text>
</a>
</g>
</g>
<!-- Node19&#45;&gt;Node21 -->
<g id="edge35" class="edge">
<title>Node19&#45;&gt;Node21</title>
<path fill="none" stroke="#63b8ff" d="M1037.32,-318.8C1042.17,-309.41 1048.55,-297.02 1053.75,-286.95"/>
<polygon fill="#63b8ff" stroke="#63b8ff" points="1056.97,-288.34 1058.44,-277.84 1050.75,-285.13 1056.97,-288.34"/>
</g>
<!-- Node20&#45;&gt;Node7 -->
<g id="edge32" class="edge">
<title>Node20&#45;&gt;Node7</title>
<path fill="none" stroke="#63b8ff" d="M812.37,-186.9C822.69,-160.35 846.62,-101.44 873,-55 878.41,-45.48 885.29,-35.43 891.2,-27.3"/>
<polygon fill="#63b8ff" stroke="#63b8ff" points="894.17,-29.17 897.33,-19.05 888.56,-24.99 894.17,-29.17"/>
</g>
<!-- Node20&#45;&gt;Node14 -->
<g id="edge33" class="edge">
<title>Node20&#45;&gt;Node14</title>
<path fill="none" stroke="#63b8ff" d="M801.88,-186.84C793.31,-163.13 776.06,-115.41 766.59,-89.23"/>
<polygon fill="#63b8ff" stroke="#63b8ff" points="769.85,-87.96 763.16,-79.75 763.27,-90.34 769.85,-87.96"/>
</g>
<!-- Node22&#45;&gt;Node5 -->
<g id="edge41" class="edge">
<title>Node22&#45;&gt;Node5</title>
<path fill="none" stroke="#63b8ff" d="M677.54,-318.8C685.44,-310.51 695.56,-299.89 704.42,-290.59"/>
<polygon fill="#63b8ff" stroke="#63b8ff" points="707.13,-292.82 711.5,-283.16 702.07,-287.99 707.13,-292.82"/>
</g>
<!-- Node22&#45;&gt;Node13 -->
<g id="edge42" class="edge">
<title>Node22&#45;&gt;Node13</title>
<path fill="none" stroke="#63b8ff" d="M702.76,-318.95C728.35,-309.4 762.48,-296.17 792,-283 851.54,-256.44 871.24,-256.64 923,-217 968.48,-182.17 965.49,-158.26 1009,-121 1022.11,-109.77 1037.91,-99.1 1051.77,-90.52"/>
<polygon fill="#63b8ff" stroke="#63b8ff" points="1053.81,-93.37 1060.55,-85.2 1050.19,-87.39 1053.81,-93.37"/>
</g>
<!-- Node22&#45;&gt;Node15 -->
<g id="edge44" class="edge">
<title>Node22&#45;&gt;Node15</title>
<path fill="none" stroke="#63b8ff" d="M639.1,-318.98C607.52,-301.65 551.03,-272.1 500,-253 442.25,-231.38 414.4,-255.22 366,-217 327.92,-186.93 337.73,-163.33 314,-121 309.08,-112.22 303.56,-102.65 298.68,-94.25"/>
<polygon fill="#63b8ff" stroke="#63b8ff" points="301.56,-92.24 293.49,-85.38 295.51,-95.78 301.56,-92.24"/>
</g>
<!-- Node22&#45;&gt;Node18 -->
<g id="edge43" class="edge">
<title>Node22&#45;&gt;Node18</title>
<path fill="none" stroke="#63b8ff" d="M611.11,-318.95C567.17,-307.29 505.5,-290.91 464.91,-280.13"/>
<polygon fill="#63b8ff" stroke="#63b8ff" points="465.64,-276.7 455.07,-277.52 463.84,-283.47 465.64,-276.7"/>
</g>
<!-- Node23&#45;&gt;Node13 -->
<g id="edge56" class="edge">
<title>Node23&#45;&gt;Node13</title>
<path fill="none" stroke="#63b8ff" d="M709.67,-465.6C828.32,-465.42 1065.58,-459.31 1134,-415 1251.63,-338.82 1331.21,-233.77 1248,-121 1227.33,-92.99 1191.19,-80.19 1158.27,-74.52"/>
<polygon fill="#63b8ff" stroke="#63b8ff" points="1158.6,-71.03 1148.18,-72.98 1157.54,-77.95 1158.6,-71.03"/>
</g>
<!-- Node23&#45;&gt;Node15 -->
<g id="edge59" class="edge">
<title>Node23&#45;&gt;Node15</title>
<path fill="none" stroke="#63b8ff" d="M572.33,-452.32C521.47,-442.21 457,-427.71 433,-415 415.48,-405.73 417.34,-394.61 400,-385 348.31,-356.36 315.58,-388.91 272,-349 200.04,-283.11 249.69,-148.2 273.88,-94.15"/>
<polygon fill="#63b8ff" stroke="#63b8ff" points="277.07,-95.58 278.06,-85.03 270.71,-92.66 277.07,-95.58"/>
</g>
<!-- Node23&#45;&gt;Node16 -->
<g id="edge48" class="edge">
<title>Node23&#45;&gt;Node16</title>
<path fill="none" stroke="#63b8ff" d="M598.13,-450.96C572.98,-442.03 540.94,-429.44 514,-415 493.46,-403.99 490.82,-397.25 471,-385 453.25,-374.03 432.93,-362.85 415.91,-353.85"/>
<polygon fill="#63b8ff" stroke="#63b8ff" points="417.31,-350.64 406.83,-349.09 414.06,-356.84 417.31,-350.64"/>
</g>
<!-- Node23&#45;&gt;Node17 -->
<g id="edge57" class="edge">
<title>Node23&#45;&gt;Node17</title>
<path fill="none" stroke="#63b8ff" d="M572.11,-451.1C540.25,-443.09 502.56,-431.32 471,-415 451.89,-405.12 452.31,-394.5 433,-385 374.2,-356.05 334.9,-396.74 290,-349 274.68,-332.71 272.57,-305.99 273.19,-287.96"/>
<polygon fill="#63b8ff" stroke="#63b8ff" points="276.69,-288 273.86,-277.79 269.71,-287.54 276.69,-288"/>
</g>
<!-- Node23&#45;&gt;Node19 -->
<g id="edge55" class="edge">
<title>Node23&#45;&gt;Node19</title>
<path fill="none" stroke="#63b8ff" d="M680.35,-450.91C726.06,-434.64 803.77,-407.26 871,-385 905.21,-373.68 943.76,-361.54 974.33,-352.06"/>
<polygon fill="#63b8ff" stroke="#63b8ff" points="975.44,-355.38 983.96,-349.08 973.37,-348.69 975.44,-355.38"/>
</g>
<!-- Node23&#45;&gt;Node20 -->
<g id="edge49" class="edge">
<title>Node23&#45;&gt;Node20</title>
<path fill="none" stroke="#63b8ff" d="M655.13,-450.83C670.03,-434.13 689.49,-405.99 675,-385 649.35,-347.84 605.65,-386.16 580,-349 572.42,-338.03 574.43,-331.11 580,-319 598.83,-278.05 617.78,-275.21 657,-253 682.85,-238.36 713.65,-227.17 740.59,-219.12"/>
<polygon fill="#63b8ff" stroke="#63b8ff" points="741.7,-222.44 750.33,-216.29 739.75,-215.72 741.7,-222.44"/>
</g>
<!-- Node24 -->
<g id="node24" class="node">
<title>Node24</title>
<g id="a_node24"><a xlink:href="invocable_8hpp.html" target="_top" xlink:title=" ">
<polygon fill="white" stroke="#666666" points="666.5,-415 523.5,-415 523.5,-385 666.5,-385 666.5,-415"/>
<text text-anchor="start" x="531.5" y="-403" font-family="Helvetica,sans-Serif" font-size="10.00">proxsuite/linalg/veg</text>
<text text-anchor="middle" x="595" y="-392" font-family="Helvetica,sans-Serif" font-size="10.00">/type_traits/invocable.hpp</text>
</a>
</g>
</g>
<!-- Node23&#45;&gt;Node24 -->
<g id="edge50" class="edge">
<title>Node23&#45;&gt;Node24</title>
<path fill="none" stroke="#63b8ff" d="M630.79,-450.8C625.01,-442.76 617.66,-432.53 611.12,-423.43"/>
<polygon fill="#63b8ff" stroke="#63b8ff" points="613.86,-421.24 605.18,-415.16 608.17,-425.33 613.86,-421.24"/>
</g>
<!-- Node25 -->
<g id="node25" class="node">
<title>Node25</title>
<g id="a_node25"><a xlink:title=" ">
<polygon fill="#e0e0e0" stroke="#999999" points="391,-409.5 341,-409.5 341,-390.5 391,-390.5 391,-409.5"/>
<text text-anchor="middle" x="366" y="-397.5" font-family="Helvetica,sans-Serif" font-size="10.00">cstring</text>
</a>
</g>
</g>
<!-- Node23&#45;&gt;Node25 -->
<g id="edge58" class="edge">
<title>Node23&#45;&gt;Node25</title>
<path fill="none" stroke="#63b8ff" d="M572.5,-453.04C525.07,-444.13 460.7,-430.82 405,-415 402.58,-414.31 400.09,-413.55 397.6,-412.75"/>
<polygon fill="#63b8ff" stroke="#63b8ff" points="398.7,-409.43 388.1,-409.52 396.45,-416.05 398.7,-409.43"/>
</g>
<!-- Node24&#45;&gt;Node5 -->
<g id="edge51" class="edge">
<title>Node24&#45;&gt;Node5</title>
<path fill="none" stroke="#63b8ff" d="M586.5,-384.91C577.38,-367.76 565.97,-338.68 580,-319 597.49,-294.47 627.85,-281.85 656.28,-275.41"/>
<polygon fill="#63b8ff" stroke="#63b8ff" points="657.14,-278.81 666.24,-273.38 655.74,-271.95 657.14,-278.81"/>
</g>
<!-- Node24&#45;&gt;Node13 -->
<g id="edge53" class="edge">
<title>Node24&#45;&gt;Node13</title>
<path fill="none" stroke="#63b8ff" d="M666.61,-394.81C749.33,-388.8 879.3,-375.42 920,-349 1015.04,-287.32 1063.33,-150.43 1079.57,-95"/>
<polygon fill="#63b8ff" stroke="#63b8ff" points="1083.03,-95.62 1082.39,-85.05 1076.29,-93.71 1083.03,-95.62"/>
</g>
<!-- Node24&#45;&gt;Node15 -->
<g id="edge54" class="edge">
<title>Node24&#45;&gt;Node15</title>
<path fill="none" stroke="#63b8ff" d="M586.6,-384.95C568.42,-355.76 522.47,-288.37 466,-253 415.56,-221.4 380.54,-257.59 337,-217 302.34,-184.69 290.76,-127.75 286.91,-95.35"/>
<polygon fill="#63b8ff" stroke="#63b8ff" points="290.39,-94.96 285.87,-85.37 283.42,-95.68 290.39,-94.96"/>
</g>
<!-- Node24&#45;&gt;Node16 -->
<g id="edge52" class="edge">
<title>Node24&#45;&gt;Node16</title>
<path fill="none" stroke="#63b8ff" d="M547.6,-384.95C514.82,-375.24 471.03,-362.27 436.29,-351.98"/>
<polygon fill="#63b8ff" stroke="#63b8ff" points="436.87,-348.5 426.29,-349.01 434.89,-355.21 436.87,-348.5"/>
</g>
<!-- Node26&#45;&gt;Node3 -->
<g id="edge62" class="edge">
<title>Node26&#45;&gt;Node3</title>
<path fill="none" stroke="#63b8ff" d="M672.96,-516.96C726.77,-493.33 835.43,-445.61 895.21,-419.35"/>
<polygon fill="#63b8ff" stroke="#63b8ff" points="896.98,-422.4 904.73,-415.17 894.16,-415.99 896.98,-422.4"/>
</g>
<!-- Node26&#45;&gt;Node6 -->
<g id="edge65" class="edge">
<title>Node26&#45;&gt;Node6</title>
<path fill="none" stroke="#63b8ff" d="M700.73,-524.26C785.28,-512.61 942.42,-483.06 1058,-415 1093.48,-394.11 1107.39,-387.1 1123,-349 1166.15,-243.7 1035.12,-134.77 973.8,-90.98"/>
<polygon fill="#63b8ff" stroke="#63b8ff" points="975.49,-87.89 965.29,-85 971.46,-93.62 975.49,-87.89"/>
</g>
<!-- Node26&#45;&gt;Node10 -->
<g id="edge66" class="edge">
<title>Node26&#45;&gt;Node10</title>
<path fill="none" stroke="#63b8ff" d="M581.46,-529.03C461.11,-524.43 197.99,-511.01 171,-481 144.38,-451.4 111.88,-380.1 247,-253 329.82,-175.09 464.6,-149.5 546.02,-141.1"/>
<polygon fill="#63b8ff" stroke="#63b8ff" points="546.55,-144.56 556.17,-140.11 545.88,-137.6 546.55,-144.56"/>
</g>
<!-- Node26&#45;&gt;Node13 -->
<g id="edge68" class="edge">
<title>Node26&#45;&gt;Node13</title>
<path fill="none" stroke="#63b8ff" d="M700.81,-527.47C802.17,-519.45 1011.97,-493.91 1169,-415 1249.6,-374.49 1310,-359.21 1310,-269 1310,-269 1310,-269 1310,-201 1310,-161.44 1301.49,-146.2 1271,-121 1239.47,-94.95 1195.56,-82.38 1158.43,-76.37"/>
<polygon fill="#63b8ff" stroke="#63b8ff" points="1158.56,-72.85 1148.15,-74.84 1157.52,-79.77 1158.56,-72.85"/>
</g>
<!-- Node26&#45;&gt;Node15 -->
<g id="edge70" class="edge">
<title>Node26&#45;&gt;Node15</title>
<path fill="none" stroke="#63b8ff" d="M581.49,-530.21C467.58,-527.85 223.39,-518.43 149,-481 106,-459.36 76,-449.13 76,-401 76,-401 76,-401 76,-201 76,-160.63 87.74,-146.54 119,-121 145.6,-99.26 181.49,-86.97 213.08,-80.02"/>
<polygon fill="#63b8ff" stroke="#63b8ff" points="214.08,-83.39 223.18,-77.95 212.68,-76.53 214.08,-83.39"/>
</g>
<!-- Node26&#45;&gt;Node16 -->
<g id="edge63" class="edge">
<title>Node26&#45;&gt;Node16</title>
<path fill="none" stroke="#63b8ff" d="M581.31,-524.82C514.65,-517.01 411.79,-502.03 379,-481 339.01,-455.35 314.5,-429.17 332,-385 336.3,-374.15 344.2,-364.27 352.3,-356.22"/>
<polygon fill="#63b8ff" stroke="#63b8ff" points="354.75,-358.73 359.71,-349.37 350,-353.59 354.75,-358.73"/>
</g>
<!-- Node26&#45;&gt;Node22 -->
<g id="edge64" class="edge">
<title>Node26&#45;&gt;Node22</title>
<path fill="none" stroke="#63b8ff" d="M677.38,-516.86C692.83,-508.83 709.25,-497.11 718,-481 727.36,-463.76 715.98,-400.06 709,-385 704.21,-374.67 696.54,-364.96 688.88,-356.89"/>
<polygon fill="#63b8ff" stroke="#63b8ff" points="690.9,-353.96 681.33,-349.4 685.97,-358.93 690.9,-353.96"/>
</g>
<!-- Node26&#45;&gt;Node23 -->
<g id="edge67" class="edge">
<title>Node26&#45;&gt;Node23</title>
<path fill="none" stroke="#63b8ff" d="M641,-516.8C641,-509.34 641,-499.99 641,-491.41"/>
<polygon fill="#63b8ff" stroke="#63b8ff" points="644.5,-491.16 641,-481.16 637.5,-491.16 644.5,-491.16"/>
</g>
<!-- Node26&#45;&gt;Node25 -->
<g id="edge69" class="edge">
<title>Node26&#45;&gt;Node25</title>
<path fill="none" stroke="#63b8ff" d="M617.79,-516.85C602.1,-507.1 581.03,-493.68 563,-481 545.11,-468.42 543.45,-461 524,-451 474.85,-425.74 457.46,-432.34 405,-415 403.1,-414.37 401.16,-413.72 399.2,-413.05"/>
<polygon fill="#63b8ff" stroke="#63b8ff" points="400.04,-409.63 389.44,-409.63 397.73,-416.24 400.04,-409.63"/>
</g>
<!-- Node27 -->
<g id="node27" class="node">
<title>Node27</title>
<g id="a_node27"><a xlink:href="has__asan_8hpp.html" target="_top" xlink:title=" ">
<polygon fill="white" stroke="#666666" points="515.5,-481 388.5,-481 388.5,-451 515.5,-451 515.5,-481"/>
<text text-anchor="start" x="396.5" y="-469" font-family="Helvetica,sans-Serif" font-size="10.00">proxsuite/linalg/veg</text>
<text text-anchor="middle" x="452" y="-458" font-family="Helvetica,sans-Serif" font-size="10.00">/internal/has_asan.hpp</text>
</a>
</g>
</g>
<!-- Node26&#45;&gt;Node27 -->
<g id="edge61" class="edge">
<title>Node26&#45;&gt;Node27</title>
<path fill="none" stroke="#63b8ff" d="M599.52,-516.95C571.09,-507.33 533.18,-494.49 502.92,-484.24"/>
<polygon fill="#63b8ff" stroke="#63b8ff" points="503.97,-480.9 493.38,-481.01 501.73,-487.53 503.97,-480.9"/>
</g>
<!-- Node30&#45;&gt;Node13 -->
<g id="edge79" class="edge">
<title>Node30&#45;&gt;Node13</title>
<path fill="none" stroke="#63b8ff" d="M293.61,-458.89C319.61,-456.22 350.85,-453.2 379,-451 517.25,-440.19 868.67,-453.13 1002,-415 1060.9,-398.16 1084.35,-396.52 1123,-349 1142.34,-325.22 1138.51,-313.32 1143,-283 1153.62,-211.34 1156.52,-186.23 1125,-121 1120.19,-111.04 1113.14,-101.19 1106.36,-92.91"/>
<polygon fill="#63b8ff" stroke="#63b8ff" points="1108.92,-90.51 1099.76,-85.19 1103.6,-95.07 1108.92,-90.51"/>
</g>
<!-- Node30&#45;&gt;Node15 -->
<g id="edge80" class="edge">
<title>Node30&#45;&gt;Node15</title>
<path fill="none" stroke="#63b8ff" d="M225.06,-450.77C184.63,-400.79 59.66,-230.39 138,-121 155.34,-96.79 185.09,-84.16 213.31,-77.63"/>
<polygon fill="#63b8ff" stroke="#63b8ff" points="214.13,-81.03 223.2,-75.57 212.7,-74.18 214.13,-81.03"/>
</g>
<!-- Node30&#45;&gt;Node16 -->
<g id="edge77" class="edge">
<title>Node30&#45;&gt;Node16</title>
<path fill="none" stroke="#63b8ff" d="M237.68,-450.81C239.24,-433.3 244.35,-403.57 261,-385 273.96,-370.54 291.8,-360.13 309.69,-352.68"/>
<polygon fill="#63b8ff" stroke="#63b8ff" points="310.97,-355.94 319.02,-349.05 308.43,-349.42 310.97,-355.94"/>
</g>
<!-- Node30&#45;&gt;Node24 -->
<g id="edge78" class="edge">
<title>Node30&#45;&gt;Node24</title>
<path fill="none" stroke="#63b8ff" d="M293.73,-454.86C352.89,-444.28 446.2,-427.6 513.3,-415.61"/>
<polygon fill="#63b8ff" stroke="#63b8ff" points="514.19,-419 523.42,-413.8 512.96,-412.11 514.19,-419"/>
</g>
</g>
</svg>
