<?xml version="1.0" encoding="UTF-8" standalone="no"?>
<!DOCTYPE svg PUBLIC "-//W3C//DTD SVG 1.1//EN"
 "http://www.w3.org/Graphics/SVG/1.1/DTD/svg11.dtd">
<!-- Generated by graphviz version 6.0.2 (20221126.1951)
 -->
<!-- Title: include/proxsuite/linalg/veg/internal/collection_algo.hpp Pages: 1 -->
<svg width="1511pt" height="698pt"
 viewBox="0.00 0.00 1511.00 698.00" xmlns="http://www.w3.org/2000/svg" xmlns:xlink="http://www.w3.org/1999/xlink">
<g id="graph0" class="graph" transform="scale(1 1) rotate(0) translate(4 694)">
<title>include/proxsuite/linalg/veg/internal/collection_algo.hpp</title>
<!-- Node1 -->
<g id="node1" class="node">
<title>Node1</title>
<g id="a_node1"><a xlink:title=" ">
<polygon fill="#999999" stroke="#666666" points="1081.5,-690 950.5,-690 950.5,-649 1081.5,-649 1081.5,-690"/>
<text text-anchor="start" x="958.5" y="-678" font-family="Helvetica,sans-Serif" font-size="10.00">include/proxsuite/linalg</text>
<text text-anchor="start" x="958.5" y="-667" font-family="Helvetica,sans-Serif" font-size="10.00">/veg/internal/collection</text>
<text text-anchor="middle" x="1016" y="-656" font-family="Helvetica,sans-Serif" font-size="10.00">_algo.hpp</text>
</a>
</g>
</g>
<!-- Node2 -->
<g id="node2" class="node">
<title>Node2</title>
<g id="a_node2"><a xlink:href="memory_2alloc_8hpp.html" target="_top" xlink:title=" ">
<polygon fill="white" stroke="#666666" points="1128.5,-613 1015.5,-613 1015.5,-583 1128.5,-583 1128.5,-613"/>
<text text-anchor="start" x="1023.5" y="-601" font-family="Helvetica,sans-Serif" font-size="10.00">proxsuite/linalg/veg</text>
<text text-anchor="middle" x="1072" y="-590" font-family="Helvetica,sans-Serif" font-size="10.00">/memory/alloc.hpp</text>
</a>
</g>
</g>
<!-- Node1&#45;&gt;Node2 -->
<g id="edge1" class="edge">
<title>Node1&#45;&gt;Node2</title>
<path fill="none" stroke="#63b8ff" d="M1031.9,-648.77C1038.86,-640.13 1047.05,-629.96 1054.21,-621.08"/>
<polygon fill="#63b8ff" stroke="#63b8ff" points="1057.14,-623.02 1060.69,-613.04 1051.69,-618.63 1057.14,-623.02"/>
</g>
<!-- Node15 -->
<g id="node15" class="node">
<title>Node15</title>
<g id="a_node15"><a xlink:href="prologue_8hpp.html" target="_top" xlink:title=" ">
<polygon fill="white" stroke="#666666" points="954,-85 830,-85 830,-55 954,-55 954,-85"/>
<text text-anchor="start" x="838" y="-73" font-family="Helvetica,sans-Serif" font-size="10.00">proxsuite/linalg/veg</text>
<text text-anchor="middle" x="892" y="-62" font-family="Helvetica,sans-Serif" font-size="10.00">/internal/prologue.hpp</text>
</a>
</g>
</g>
<!-- Node1&#45;&gt;Node15 -->
<g id="edge83" class="edge">
<title>Node1&#45;&gt;Node15</title>
<path fill="none" stroke="#63b8ff" d="M1081.58,-660.67C1197.62,-644.97 1427,-604.84 1427,-533 1427,-533 1427,-533 1427,-201 1427,-74.6 1084.64,-99.13 964.54,-84.96"/>
<polygon fill="#63b8ff" stroke="#63b8ff" points="964.67,-81.45 954.29,-83.57 963.73,-88.39 964.67,-81.45"/>
</g>
<!-- Node17 -->
<g id="node17" class="node">
<title>Node17</title>
<g id="a_node17"><a xlink:href="epilogue_8hpp.html" target="_top" xlink:title=" ">
<polygon fill="white" stroke="#666666" points="440.5,-85 317.5,-85 317.5,-55 440.5,-55 440.5,-85"/>
<text text-anchor="start" x="325.5" y="-73" font-family="Helvetica,sans-Serif" font-size="10.00">proxsuite/linalg/veg</text>
<text text-anchor="middle" x="379" y="-62" font-family="Helvetica,sans-Serif" font-size="10.00">/internal/epilogue.hpp</text>
</a>
</g>
</g>
<!-- Node1&#45;&gt;Node17 -->
<g id="edge84" class="edge">
<title>Node1&#45;&gt;Node17</title>
<path fill="none" stroke="#63b8ff" d="M950.12,-666.67C724.98,-659.56 0,-629.2 0,-533 0,-533 0,-533 0,-201 0,-149.44 37.91,-144.09 84,-121 154.5,-85.68 245.12,-74.67 307.2,-71.55"/>
<polygon fill="#63b8ff" stroke="#63b8ff" points="307.47,-75.04 317.3,-71.1 307.15,-68.05 307.47,-75.04"/>
</g>
<!-- Node32 -->
<g id="node32" class="node">
<title>Node32</title>
<g id="a_node32"><a xlink:href="defer_8hpp.html" target="_top" xlink:title=" ">
<polygon fill="white" stroke="#666666" points="973.5,-481 860.5,-481 860.5,-451 973.5,-451 973.5,-481"/>
<text text-anchor="start" x="868.5" y="-469" font-family="Helvetica,sans-Serif" font-size="10.00">proxsuite/linalg/veg</text>
<text text-anchor="middle" x="917" y="-458" font-family="Helvetica,sans-Serif" font-size="10.00">/util/defer.hpp</text>
</a>
</g>
</g>
<!-- Node1&#45;&gt;Node32 -->
<g id="edge78" class="edge">
<title>Node1&#45;&gt;Node32</title>
<path fill="none" stroke="#63b8ff" d="M1006.33,-648.81C987.94,-611.39 948.04,-530.19 928.4,-490.2"/>
<polygon fill="#63b8ff" stroke="#63b8ff" points="931.53,-488.63 923.97,-481.2 925.24,-491.71 931.53,-488.63"/>
</g>
<!-- Node3 -->
<g id="node3" class="node">
<title>Node3</title>
<g id="a_node3"><a xlink:href="fwd_8hpp.html" target="_top" xlink:title=" ">
<polygon fill="white" stroke="#666666" points="1361,-541.5 1257,-541.5 1257,-522.5 1361,-522.5 1361,-541.5"/>
<text text-anchor="middle" x="1309" y="-529.5" font-family="Helvetica,sans-Serif" font-size="10.00">proxsuite/fwd.hpp</text>
</a>
</g>
</g>
<!-- Node2&#45;&gt;Node3 -->
<g id="edge2" class="edge">
<title>Node2&#45;&gt;Node3</title>
<path fill="none" stroke="#63b8ff" d="M1124.01,-582.95C1167.22,-571.29 1227.87,-554.91 1267.78,-544.13"/>
<polygon fill="#63b8ff" stroke="#63b8ff" points="1268.72,-547.5 1277.46,-541.52 1266.89,-540.75 1268.72,-547.5"/>
</g>
<!-- Node5 -->
<g id="node5" class="node">
<title>Node5</title>
<g id="a_node5"><a xlink:href="ref_8hpp.html" target="_top" xlink:title=" ">
<polygon fill="white" stroke="#666666" points="530.5,-415 417.5,-415 417.5,-385 530.5,-385 530.5,-415"/>
<text text-anchor="start" x="425.5" y="-403" font-family="Helvetica,sans-Serif" font-size="10.00">proxsuite/linalg/veg</text>
<text text-anchor="middle" x="474" y="-392" font-family="Helvetica,sans-Serif" font-size="10.00">/ref.hpp</text>
</a>
</g>
</g>
<!-- Node2&#45;&gt;Node5 -->
<g id="edge4" class="edge">
<title>Node2&#45;&gt;Node5</title>
<path fill="none" stroke="#63b8ff" d="M1015.5,-597.74C858.15,-598.39 421.38,-590.18 344,-481 322.11,-450.11 365.14,-428.78 407.45,-415.96"/>
<polygon fill="#63b8ff" stroke="#63b8ff" points="408.66,-419.26 417.29,-413.12 406.71,-412.53 408.66,-419.26"/>
</g>
<!-- Node8 -->
<g id="node8" class="node">
<title>Node8</title>
<g id="a_node8"><a xlink:href="typedefs_8hpp.html" target="_top" xlink:title=" ">
<polygon fill="white" stroke="#666666" points="1451,-85 1327,-85 1327,-55 1451,-55 1451,-85"/>
<text text-anchor="start" x="1335" y="-73" font-family="Helvetica,sans-Serif" font-size="10.00">proxsuite/linalg/veg</text>
<text text-anchor="middle" x="1389" y="-62" font-family="Helvetica,sans-Serif" font-size="10.00">/internal/typedefs.hpp</text>
</a>
</g>
</g>
<!-- Node2&#45;&gt;Node8 -->
<g id="edge47" class="edge">
<title>Node2&#45;&gt;Node8</title>
<path fill="none" stroke="#63b8ff" d="M1128.74,-592.67C1208.11,-585.86 1347.54,-570.89 1392,-547 1434.4,-524.22 1465,-515.13 1465,-467 1465,-467 1465,-467 1465,-201 1465,-163.88 1460.35,-152.68 1441,-121 1434.39,-110.17 1424.86,-100.08 1415.77,-91.84"/>
<polygon fill="#63b8ff" stroke="#63b8ff" points="1417.83,-88.99 1407.97,-85.11 1413.25,-94.29 1417.83,-88.99"/>
</g>
<!-- Node10 -->
<g id="node10" class="node">
<title>Node10</title>
<g id="a_node10"><a xlink:title=" ">
<polygon fill="#e0e0e0" stroke="#999999" points="1472.5,-19 1419.5,-19 1419.5,0 1472.5,0 1472.5,-19"/>
<text text-anchor="middle" x="1446" y="-7" font-family="Helvetica,sans-Serif" font-size="10.00">cstddef</text>
</a>
</g>
</g>
<!-- Node2&#45;&gt;Node10 -->
<g id="edge73" class="edge">
<title>Node2&#45;&gt;Node10</title>
<path fill="none" stroke="#63b8ff" d="M1128.55,-593.91C1216.34,-588.32 1380.68,-574.47 1432,-547 1473.91,-524.57 1503,-514.54 1503,-467 1503,-467 1503,-467 1503,-135 1503,-93.24 1476.16,-50.16 1459.31,-27.24"/>
<polygon fill="#63b8ff" stroke="#63b8ff" points="1462.06,-25.07 1453.22,-19.23 1456.49,-29.31 1462.06,-25.07"/>
</g>
<!-- Node12 -->
<g id="node12" class="node">
<title>Node12</title>
<g id="a_node12"><a xlink:href="macros_8hpp.html" target="_top" xlink:title=" ">
<polygon fill="white" stroke="#666666" points="1264.5,-151 1147.5,-151 1147.5,-121 1264.5,-121 1264.5,-151"/>
<text text-anchor="start" x="1155.5" y="-139" font-family="Helvetica,sans-Serif" font-size="10.00">proxsuite/linalg/veg</text>
<text text-anchor="middle" x="1206" y="-128" font-family="Helvetica,sans-Serif" font-size="10.00">/internal/macros.hpp</text>
</a>
</g>
</g>
<!-- Node2&#45;&gt;Node12 -->
<g id="edge48" class="edge">
<title>Node2&#45;&gt;Node12</title>
<path fill="none" stroke="#63b8ff" d="M1128.76,-595.87C1206.43,-592.98 1339.71,-582.79 1370,-547 1415.68,-493.02 1394.44,-362.8 1272,-187 1263.75,-175.16 1251.82,-164.91 1240.36,-156.83"/>
<polygon fill="#63b8ff" stroke="#63b8ff" points="1242.02,-153.73 1231.77,-151.09 1238.14,-159.55 1242.02,-153.73"/>
</g>
<!-- Node2&#45;&gt;Node15 -->
<g id="edge76" class="edge">
<title>Node2&#45;&gt;Node15</title>
<path fill="none" stroke="#63b8ff" d="M1128.66,-591.49C1157.77,-585.46 1190.86,-572.93 1209,-547 1226.45,-522.05 1235.67,-527.55 1188,-385 1155.15,-286.75 1133.87,-264.39 1065,-187 1037.63,-156.24 1033.67,-144.7 1000,-121 981.78,-108.17 959.74,-97.28 940.34,-88.97"/>
<polygon fill="#63b8ff" stroke="#63b8ff" points="941.63,-85.71 931.05,-85.1 938.93,-92.18 941.63,-85.71"/>
</g>
<!-- Node2&#45;&gt;Node17 -->
<g id="edge77" class="edge">
<title>Node2&#45;&gt;Node17</title>
<path fill="none" stroke="#63b8ff" d="M1015.3,-595.89C799.03,-590.91 38,-566.34 38,-467 38,-467 38,-467 38,-201 38,-143.88 207.16,-102.73 307.2,-83.39"/>
<polygon fill="#63b8ff" stroke="#63b8ff" points="308.08,-86.79 317.25,-81.48 306.77,-79.91 308.08,-86.79"/>
</g>
<!-- Node18 -->
<g id="node18" class="node">
<title>Node18</title>
<g id="a_node18"><a xlink:href="constructible_8hpp.html" target="_top" xlink:title=" ">
<polygon fill="white" stroke="#666666" points="809.5,-349 650.5,-349 650.5,-319 809.5,-319 809.5,-349"/>
<text text-anchor="start" x="658.5" y="-337" font-family="Helvetica,sans-Serif" font-size="10.00">proxsuite/linalg/veg</text>
<text text-anchor="middle" x="730" y="-326" font-family="Helvetica,sans-Serif" font-size="10.00">/type_traits/constructible.hpp</text>
</a>
</g>
</g>
<!-- Node2&#45;&gt;Node18 -->
<g id="edge41" class="edge">
<title>Node2&#45;&gt;Node18</title>
<path fill="none" stroke="#63b8ff" d="M1035.95,-582.94C990.13,-564.03 909.92,-527.35 851,-481 820.31,-456.85 817.98,-445.02 793,-415 777.07,-395.85 759.59,-373.55 747.09,-357.36"/>
<polygon fill="#63b8ff" stroke="#63b8ff" points="749.57,-354.85 740.7,-349.06 744.03,-359.12 749.57,-354.85"/>
</g>
<!-- Node24 -->
<g id="node24" class="node">
<title>Node24</title>
<g id="a_node24"><a xlink:href="assignable_8hpp.html" target="_top" xlink:title=" ">
<polygon fill="white" stroke="#666666" points="1089.5,-349 940.5,-349 940.5,-319 1089.5,-319 1089.5,-349"/>
<text text-anchor="start" x="948.5" y="-337" font-family="Helvetica,sans-Serif" font-size="10.00">proxsuite/linalg/veg</text>
<text text-anchor="middle" x="1015" y="-326" font-family="Helvetica,sans-Serif" font-size="10.00">/type_traits/assignable.hpp</text>
</a>
</g>
</g>
<!-- Node2&#45;&gt;Node24 -->
<g id="edge42" class="edge">
<title>Node2&#45;&gt;Node24</title>
<path fill="none" stroke="#63b8ff" d="M1069.66,-582.75C1063.94,-548.47 1048.32,-458.74 1030,-385 1027.88,-376.47 1025.21,-367.22 1022.72,-359.02"/>
<polygon fill="#63b8ff" stroke="#63b8ff" points="1026.02,-357.85 1019.7,-349.34 1019.33,-359.93 1026.02,-357.85"/>
</g>
<!-- Node25 -->
<g id="node25" class="node">
<title>Node25</title>
<g id="a_node25"><a xlink:href="placement_8hpp.html" target="_top" xlink:title=" ">
<polygon fill="white" stroke="#666666" points="490.5,-481 353.5,-481 353.5,-451 490.5,-451 490.5,-481"/>
<text text-anchor="start" x="361.5" y="-469" font-family="Helvetica,sans-Serif" font-size="10.00">proxsuite/linalg/veg</text>
<text text-anchor="middle" x="422" y="-458" font-family="Helvetica,sans-Serif" font-size="10.00">/memory/placement.hpp</text>
</a>
</g>
</g>
<!-- Node2&#45;&gt;Node25 -->
<g id="edge49" class="edge">
<title>Node2&#45;&gt;Node25</title>
<path fill="none" stroke="#63b8ff" d="M1015.46,-595.29C930.29,-591.68 764.52,-580.6 628,-547 567.64,-532.15 501.18,-504.05 460.51,-485.43"/>
<polygon fill="#63b8ff" stroke="#63b8ff" points="461.78,-482.16 451.24,-481.14 458.85,-488.51 461.78,-482.16"/>
</g>
<!-- Node28 -->
<g id="node28" class="node">
<title>Node28</title>
<g id="a_node28"><a xlink:href="type__traits_2alloc_8hpp.html" target="_top" xlink:title=" ">
<polygon fill="white" stroke="#666666" points="756.5,-547 637.5,-547 637.5,-517 756.5,-517 756.5,-547"/>
<text text-anchor="start" x="645.5" y="-535" font-family="Helvetica,sans-Serif" font-size="10.00">proxsuite/linalg/veg</text>
<text text-anchor="middle" x="697" y="-524" font-family="Helvetica,sans-Serif" font-size="10.00">/type_traits/alloc.hpp</text>
</a>
</g>
</g>
<!-- Node2&#45;&gt;Node28 -->
<g id="edge62" class="edge">
<title>Node2&#45;&gt;Node28</title>
<path fill="none" stroke="#63b8ff" d="M1015.35,-587.98C954.8,-578.24 856.02,-562.1 771,-547 769.55,-546.74 768.09,-546.48 766.61,-546.22"/>
<polygon fill="#63b8ff" stroke="#63b8ff" points="767.22,-542.77 756.75,-544.42 765.97,-549.66 767.22,-542.77"/>
</g>
<!-- Node30 -->
<g id="node30" class="node">
<title>Node30</title>
<g id="a_node30"><a xlink:title=" ">
<polygon fill="#e0e0e0" stroke="#999999" points="1123.5,-541.5 1074.5,-541.5 1074.5,-522.5 1123.5,-522.5 1123.5,-541.5"/>
<text text-anchor="middle" x="1099" y="-529.5" font-family="Helvetica,sans-Serif" font-size="10.00">cstdlib</text>
</a>
</g>
</g>
<!-- Node2&#45;&gt;Node30 -->
<g id="edge74" class="edge">
<title>Node2&#45;&gt;Node30</title>
<path fill="none" stroke="#63b8ff" d="M1077.99,-582.8C1081.91,-573.5 1087.07,-561.27 1091.3,-551.26"/>
<polygon fill="#63b8ff" stroke="#63b8ff" points="1094.61,-552.42 1095.27,-541.84 1088.16,-549.7 1094.61,-552.42"/>
</g>
<!-- Node31 -->
<g id="node31" class="node">
<title>Node31</title>
<g id="a_node31"><a xlink:title=" ">
<polygon fill="#e0e0e0" stroke="#999999" points="1200.5,-541.5 1141.5,-541.5 1141.5,-522.5 1200.5,-522.5 1200.5,-541.5"/>
<text text-anchor="middle" x="1171" y="-529.5" font-family="Helvetica,sans-Serif" font-size="10.00">malloc.h</text>
</a>
</g>
</g>
<!-- Node2&#45;&gt;Node31 -->
<g id="edge75" class="edge">
<title>Node2&#45;&gt;Node31</title>
<path fill="none" stroke="#63b8ff" d="M1093.97,-582.8C1110.41,-572.17 1132.79,-557.7 1149.19,-547.1"/>
<polygon fill="#63b8ff" stroke="#63b8ff" points="1151.11,-550.03 1157.61,-541.66 1147.31,-544.15 1151.11,-550.03"/>
</g>
<!-- Node4 -->
<g id="node4" class="node">
<title>Node4</title>
<g id="a_node4"><a xlink:title=" ">
<polygon fill="#e0e0e0" stroke="#999999" points="1343.5,-475.5 1274.5,-475.5 1274.5,-456.5 1343.5,-456.5 1343.5,-475.5"/>
<text text-anchor="middle" x="1309" y="-463.5" font-family="Helvetica,sans-Serif" font-size="10.00">Eigen/Core</text>
</a>
</g>
</g>
<!-- Node3&#45;&gt;Node4 -->
<g id="edge3" class="edge">
<title>Node3&#45;&gt;Node4</title>
<path fill="none" stroke="#63b8ff" d="M1309,-522.37C1309,-513.16 1309,-498.29 1309,-486.27"/>
<polygon fill="#63b8ff" stroke="#63b8ff" points="1312.5,-485.91 1309,-475.91 1305.5,-485.91 1312.5,-485.91"/>
</g>
<!-- Node6 -->
<g id="node6" class="node">
<title>Node6</title>
<g id="a_node6"><a xlink:href="tags_8hpp.html" target="_top" xlink:title=" ">
<polygon fill="white" stroke="#666666" points="594.5,-349 477.5,-349 477.5,-319 594.5,-319 594.5,-349"/>
<text text-anchor="start" x="485.5" y="-337" font-family="Helvetica,sans-Serif" font-size="10.00">proxsuite/linalg/veg</text>
<text text-anchor="middle" x="536" y="-326" font-family="Helvetica,sans-Serif" font-size="10.00">/type_traits/tags.hpp</text>
</a>
</g>
</g>
<!-- Node5&#45;&gt;Node6 -->
<g id="edge5" class="edge">
<title>Node5&#45;&gt;Node6</title>
<path fill="none" stroke="#63b8ff" d="M487.76,-384.8C495.79,-376.51 506.07,-365.89 515.09,-356.59"/>
<polygon fill="#63b8ff" stroke="#63b8ff" points="517.83,-358.78 522.28,-349.16 512.81,-353.91 517.83,-358.78"/>
</g>
<!-- Node5&#45;&gt;Node15 -->
<g id="edge39" class="edge">
<title>Node5&#45;&gt;Node15</title>
<path fill="none" stroke="#63b8ff" d="M468.65,-384.81C463.27,-368.08 457.2,-339.91 468,-319 504.49,-248.36 694.94,-156.67 766,-121 790.4,-108.75 818.56,-97.34 842.07,-88.51"/>
<polygon fill="#63b8ff" stroke="#63b8ff" points="843.33,-91.78 851.49,-85.02 840.9,-85.21 843.33,-91.78"/>
</g>
<!-- Node5&#45;&gt;Node17 -->
<g id="edge40" class="edge">
<title>Node5&#45;&gt;Node17</title>
<path fill="none" stroke="#63b8ff" d="M417.48,-394.95C349.76,-388.98 241.7,-375.53 212,-349 166.19,-308.07 180.22,-277.74 171,-217 169,-203.82 164.25,-198.5 171,-187 201.43,-135.19 264.33,-104.82 313.04,-88.25"/>
<polygon fill="#63b8ff" stroke="#63b8ff" points="314.17,-91.56 322.57,-85.12 311.98,-84.91 314.17,-91.56"/>
</g>
<!-- Node5&#45;&gt;Node18 -->
<g id="edge25" class="edge">
<title>Node5&#45;&gt;Node18</title>
<path fill="none" stroke="#63b8ff" d="M530.18,-384.95C569.7,-375.08 622.71,-361.82 664.21,-351.45"/>
<polygon fill="#63b8ff" stroke="#63b8ff" points="665.1,-354.83 673.95,-349.01 663.4,-348.04 665.1,-354.83"/>
</g>
<!-- Node21 -->
<g id="node21" class="node">
<title>Node21</title>
<g id="a_node21"><a xlink:href="address_8hpp.html" target="_top" xlink:title=" ">
<polygon fill="white" stroke="#666666" points="344.5,-349 221.5,-349 221.5,-319 344.5,-319 344.5,-349"/>
<text text-anchor="start" x="229.5" y="-337" font-family="Helvetica,sans-Serif" font-size="10.00">proxsuite/linalg/veg</text>
<text text-anchor="middle" x="283" y="-326" font-family="Helvetica,sans-Serif" font-size="10.00">/memory/address.hpp</text>
</a>
</g>
</g>
<!-- Node5&#45;&gt;Node21 -->
<g id="edge31" class="edge">
<title>Node5&#45;&gt;Node21</title>
<path fill="none" stroke="#63b8ff" d="M432.08,-384.95C403.35,-375.33 365.04,-362.49 334.46,-352.24"/>
<polygon fill="#63b8ff" stroke="#63b8ff" points="335.41,-348.87 324.82,-349.01 333.19,-355.51 335.41,-348.87"/>
</g>
<!-- Node7 -->
<g id="node7" class="node">
<title>Node7</title>
<g id="a_node7"><a xlink:href="veg_2type__traits_2core_8hpp.html" target="_top" xlink:title=" ">
<polygon fill="white" stroke="#666666" points="925.5,-283 808.5,-283 808.5,-253 925.5,-253 925.5,-283"/>
<text text-anchor="start" x="816.5" y="-271" font-family="Helvetica,sans-Serif" font-size="10.00">proxsuite/linalg/veg</text>
<text text-anchor="middle" x="867" y="-260" font-family="Helvetica,sans-Serif" font-size="10.00">/type_traits/core.hpp</text>
</a>
</g>
</g>
<!-- Node6&#45;&gt;Node7 -->
<g id="edge6" class="edge">
<title>Node6&#45;&gt;Node7</title>
<path fill="none" stroke="#63b8ff" d="M594.79,-321.63C651.78,-310.61 738.19,-293.91 798.32,-282.28"/>
<polygon fill="#63b8ff" stroke="#63b8ff" points="799.32,-285.65 808.47,-280.32 797.99,-278.78 799.32,-285.65"/>
</g>
<!-- Node6&#45;&gt;Node15 -->
<g id="edge23" class="edge">
<title>Node6&#45;&gt;Node15</title>
<path fill="none" stroke="#63b8ff" d="M543.05,-318.74C552.17,-301.43 569.48,-272.17 591,-253 616.53,-230.25 629.38,-234.09 659,-217 733.46,-174.03 818.47,-119.27 862.33,-90.56"/>
<polygon fill="#63b8ff" stroke="#63b8ff" points="864.35,-93.43 870.8,-85.02 860.51,-87.57 864.35,-93.43"/>
</g>
<!-- Node6&#45;&gt;Node17 -->
<g id="edge24" class="edge">
<title>Node6&#45;&gt;Node17</title>
<path fill="none" stroke="#63b8ff" d="M526.3,-318.93C511.51,-297.32 482.65,-254.51 460,-217 434.29,-174.42 406.65,-123.32 391.22,-94.26"/>
<polygon fill="#63b8ff" stroke="#63b8ff" points="394.25,-92.49 386.48,-85.29 388.06,-95.77 394.25,-92.49"/>
</g>
<!-- Node7&#45;&gt;Node8 -->
<g id="edge7" class="edge">
<title>Node7&#45;&gt;Node8</title>
<path fill="none" stroke="#63b8ff" d="M925.77,-254.39C928.55,-253.9 931.3,-253.43 934,-253 1076.19,-230.25 1127.72,-282.43 1256,-217 1311.28,-188.8 1354.87,-127.5 1375.67,-94"/>
<polygon fill="#63b8ff" stroke="#63b8ff" points="1378.73,-95.7 1380.93,-85.34 1372.75,-92.07 1378.73,-95.7"/>
</g>
<!-- Node11 -->
<g id="node11" class="node">
<title>Node11</title>
<g id="a_node11"><a xlink:href="integer__seq_8hpp.html" target="_top" xlink:title=" ">
<polygon fill="white" stroke="#666666" points="1247,-217 1109,-217 1109,-187 1247,-187 1247,-217"/>
<text text-anchor="start" x="1117" y="-205" font-family="Helvetica,sans-Serif" font-size="10.00">proxsuite/linalg/veg</text>
<text text-anchor="middle" x="1178" y="-194" font-family="Helvetica,sans-Serif" font-size="10.00">/internal/integer_seq.hpp</text>
</a>
</g>
</g>
<!-- Node7&#45;&gt;Node11 -->
<g id="edge10" class="edge">
<title>Node7&#45;&gt;Node11</title>
<path fill="none" stroke="#63b8ff" d="M925.82,-254.7C928.59,-254.12 931.32,-253.55 934,-253 989.15,-241.59 1051.33,-228.85 1099.12,-219.08"/>
<polygon fill="#63b8ff" stroke="#63b8ff" points="1100,-222.48 1109.1,-217.05 1098.6,-215.62 1100,-222.48"/>
</g>
<!-- Node7&#45;&gt;Node15 -->
<g id="edge21" class="edge">
<title>Node7&#45;&gt;Node15</title>
<path fill="none" stroke="#63b8ff" d="M868.8,-252.9C873.02,-219.79 883.62,-136.7 888.9,-95.27"/>
<polygon fill="#63b8ff" stroke="#63b8ff" points="892.39,-95.59 890.18,-85.23 885.45,-94.71 892.39,-95.59"/>
</g>
<!-- Node7&#45;&gt;Node17 -->
<g id="edge22" class="edge">
<title>Node7&#45;&gt;Node17</title>
<path fill="none" stroke="#63b8ff" d="M836.29,-252.91C776.93,-225.89 642.05,-165.5 526,-121 495.38,-109.26 460.66,-97.38 432.66,-88.16"/>
<polygon fill="#63b8ff" stroke="#63b8ff" points="433.65,-84.8 423.05,-85.01 431.47,-91.45 433.65,-84.8"/>
</g>
<!-- Node9 -->
<g id="node9" class="node">
<title>Node9</title>
<g id="a_node9"><a xlink:title=" ">
<polygon fill="#e0e0e0" stroke="#999999" points="818,-19 768,-19 768,0 818,0 818,-19"/>
<text text-anchor="middle" x="793" y="-7" font-family="Helvetica,sans-Serif" font-size="10.00">cstdint</text>
</a>
</g>
</g>
<!-- Node8&#45;&gt;Node9 -->
<g id="edge8" class="edge">
<title>Node8&#45;&gt;Node9</title>
<path fill="none" stroke="#63b8ff" d="M1326.63,-56.45C1323.38,-55.93 1320.15,-55.44 1317,-55 1134.03,-29.52 912.93,-16.52 828.29,-12.19"/>
<polygon fill="#63b8ff" stroke="#63b8ff" points="828.36,-8.69 818.19,-11.68 828.01,-15.68 828.36,-8.69"/>
</g>
<!-- Node8&#45;&gt;Node10 -->
<g id="edge9" class="edge">
<title>Node8&#45;&gt;Node10</title>
<path fill="none" stroke="#63b8ff" d="M1402.8,-54.84C1411.07,-46.35 1421.62,-35.52 1430.23,-26.69"/>
<polygon fill="#63b8ff" stroke="#63b8ff" points="1432.99,-28.87 1437.46,-19.27 1427.97,-23.99 1432.99,-28.87"/>
</g>
<!-- Node11&#45;&gt;Node8 -->
<g id="edge11" class="edge">
<title>Node11&#45;&gt;Node8</title>
<path fill="none" stroke="#63b8ff" d="M1206.76,-186.99C1225.86,-177.41 1251.31,-164.12 1273,-151 1277.47,-148.3 1327.58,-113.61 1360.46,-90.81"/>
<polygon fill="#63b8ff" stroke="#63b8ff" points="1362.59,-93.59 1368.82,-85.01 1358.6,-87.84 1362.59,-93.59"/>
</g>
<!-- Node11&#45;&gt;Node12 -->
<g id="edge12" class="edge">
<title>Node11&#45;&gt;Node12</title>
<path fill="none" stroke="#63b8ff" d="M1184.21,-186.8C1187.59,-179.09 1191.84,-169.37 1195.69,-160.56"/>
<polygon fill="#63b8ff" stroke="#63b8ff" points="1199,-161.73 1199.8,-151.16 1192.59,-158.92 1199,-161.73"/>
</g>
<!-- Node11&#45;&gt;Node15 -->
<g id="edge19" class="edge">
<title>Node11&#45;&gt;Node15</title>
<path fill="none" stroke="#63b8ff" d="M1167.29,-186.81C1152.88,-168.74 1125.49,-137.82 1095,-121 1083.28,-114.53 1017.62,-98.91 964.1,-86.83"/>
<polygon fill="#63b8ff" stroke="#63b8ff" points="964.79,-83.4 954.26,-84.62 963.25,-90.23 964.79,-83.4"/>
</g>
<!-- Node11&#45;&gt;Node17 -->
<g id="edge20" class="edge">
<title>Node11&#45;&gt;Node17</title>
<path fill="none" stroke="#63b8ff" d="M1108.82,-188.48C1018.55,-172.28 855.64,-143.45 716,-121 624.63,-106.31 519.06,-90.9 450.78,-81.14"/>
<polygon fill="#63b8ff" stroke="#63b8ff" points="450.96,-77.63 440.56,-79.68 449.97,-84.56 450.96,-77.63"/>
</g>
<!-- Node12&#45;&gt;Node8 -->
<g id="edge14" class="edge">
<title>Node12&#45;&gt;Node8</title>
<path fill="none" stroke="#63b8ff" d="M1246.16,-120.95C1273.57,-111.37 1310.08,-98.6 1339.32,-88.37"/>
<polygon fill="#63b8ff" stroke="#63b8ff" points="1340.65,-91.62 1348.93,-85.01 1338.34,-85.01 1340.65,-91.62"/>
</g>
<!-- Node13 -->
<g id="node13" class="node">
<title>Node13</title>
<g id="a_node13"><a xlink:href="hedley_8ext_8hpp.html" target="_top" xlink:title=" ">
<polygon fill="white" stroke="#666666" points="1147.5,-85 972.5,-85 972.5,-55 1147.5,-55 1147.5,-85"/>
<text text-anchor="start" x="980.5" y="-73" font-family="Helvetica,sans-Serif" font-size="10.00">proxsuite/linalg/veg</text>
<text text-anchor="middle" x="1060" y="-62" font-family="Helvetica,sans-Serif" font-size="10.00">/internal/external/hedley.ext.hpp</text>
</a>
</g>
</g>
<!-- Node12&#45;&gt;Node13 -->
<g id="edge13" class="edge">
<title>Node12&#45;&gt;Node13</title>
<path fill="none" stroke="#63b8ff" d="M1173.96,-120.95C1152.56,-111.58 1124.23,-99.16 1101.17,-89.05"/>
<polygon fill="#63b8ff" stroke="#63b8ff" points="1102.53,-85.82 1091.97,-85.01 1099.72,-92.23 1102.53,-85.82"/>
</g>
<!-- Node14 -->
<g id="node14" class="node">
<title>Node14</title>
<g id="a_node14"><a xlink:href="preprocessor_8hpp.html" target="_top" xlink:title=" ">
<polygon fill="white" stroke="#666666" points="1308.5,-85 1165.5,-85 1165.5,-55 1308.5,-55 1308.5,-85"/>
<text text-anchor="start" x="1173.5" y="-73" font-family="Helvetica,sans-Serif" font-size="10.00">proxsuite/linalg/veg</text>
<text text-anchor="middle" x="1237" y="-62" font-family="Helvetica,sans-Serif" font-size="10.00">/internal/preprocessor.hpp</text>
</a>
</g>
</g>
<!-- Node12&#45;&gt;Node14 -->
<g id="edge15" class="edge">
<title>Node12&#45;&gt;Node14</title>
<path fill="none" stroke="#63b8ff" d="M1212.88,-120.8C1216.65,-113.01 1221.42,-103.16 1225.73,-94.28"/>
<polygon fill="#63b8ff" stroke="#63b8ff" points="1228.93,-95.69 1230.14,-85.16 1222.63,-92.64 1228.93,-95.69"/>
</g>
<!-- Node12&#45;&gt;Node15 -->
<g id="edge16" class="edge">
<title>Node12&#45;&gt;Node15</title>
<path fill="none" stroke="#63b8ff" d="M1147.31,-123.04C1095.5,-112.48 1019.81,-97.05 964.29,-85.73"/>
<polygon fill="#63b8ff" stroke="#63b8ff" points="964.66,-82.24 954.17,-83.67 963.27,-89.1 964.66,-82.24"/>
</g>
<!-- Node16 -->
<g id="node16" class="node">
<title>Node16</title>
<g id="a_node16"><a xlink:title=" ">
<polygon fill="#e0e0e0" stroke="#999999" points="685.5,-79.5 602.5,-79.5 602.5,-60.5 685.5,-60.5 685.5,-79.5"/>
<text text-anchor="middle" x="644" y="-67.5" font-family="Helvetica,sans-Serif" font-size="10.00">initializer_list</text>
</a>
</g>
</g>
<!-- Node12&#45;&gt;Node16 -->
<g id="edge17" class="edge">
<title>Node12&#45;&gt;Node16</title>
<path fill="none" stroke="#63b8ff" d="M1147.45,-128.33C1037.26,-115.78 800.74,-88.85 695.88,-76.91"/>
<polygon fill="#63b8ff" stroke="#63b8ff" points="696.19,-73.42 685.85,-75.77 695.39,-80.38 696.19,-73.42"/>
</g>
<!-- Node12&#45;&gt;Node17 -->
<g id="edge18" class="edge">
<title>Node12&#45;&gt;Node17</title>
<path fill="none" stroke="#63b8ff" d="M1147.19,-130.45C999.23,-119 611.92,-89.03 450.86,-76.56"/>
<polygon fill="#63b8ff" stroke="#63b8ff" points="450.82,-73.05 440.58,-75.77 450.28,-80.03 450.82,-73.05"/>
</g>
<!-- Node18&#45;&gt;Node7 -->
<g id="edge26" class="edge">
<title>Node18&#45;&gt;Node7</title>
<path fill="none" stroke="#63b8ff" d="M760.07,-318.95C779.96,-309.66 806.26,-297.38 827.79,-287.32"/>
<polygon fill="#63b8ff" stroke="#63b8ff" points="829.43,-290.42 837,-283.01 826.46,-284.07 829.43,-290.42"/>
</g>
<!-- Node18&#45;&gt;Node15 -->
<g id="edge27" class="edge">
<title>Node18&#45;&gt;Node15</title>
<path fill="none" stroke="#63b8ff" d="M735.27,-318.86C748.94,-283.28 788.15,-188.09 840,-121 848.02,-110.63 858.17,-100.38 867.38,-91.88"/>
<polygon fill="#63b8ff" stroke="#63b8ff" points="869.72,-94.48 874.82,-85.2 865.04,-89.28 869.72,-94.48"/>
</g>
<!-- Node18&#45;&gt;Node17 -->
<g id="edge30" class="edge">
<title>Node18&#45;&gt;Node17</title>
<path fill="none" stroke="#63b8ff" d="M719.13,-318.8C704.51,-300.72 676.76,-269.79 646,-253 586.59,-220.56 554.13,-254.84 498,-217 454.43,-187.63 463.02,-161.04 429,-121 420.64,-111.16 410.71,-100.96 401.91,-92.37"/>
<polygon fill="#63b8ff" stroke="#63b8ff" points="404.17,-89.68 394.53,-85.27 399.31,-94.73 404.17,-89.68"/>
</g>
<!-- Node19 -->
<g id="node19" class="node">
<title>Node19</title>
<g id="a_node19"><a xlink:title=" ">
<polygon fill="#e0e0e0" stroke="#999999" points="637.5,-277.5 600.5,-277.5 600.5,-258.5 637.5,-258.5 637.5,-277.5"/>
<text text-anchor="middle" x="619" y="-265.5" font-family="Helvetica,sans-Serif" font-size="10.00">new</text>
</a>
</g>
</g>
<!-- Node18&#45;&gt;Node19 -->
<g id="edge28" class="edge">
<title>Node18&#45;&gt;Node19</title>
<path fill="none" stroke="#63b8ff" d="M705.64,-318.95C686.86,-308.13 661.05,-293.24 642.49,-282.54"/>
<polygon fill="#63b8ff" stroke="#63b8ff" points="644.18,-279.48 633.77,-277.52 640.69,-285.54 644.18,-279.48"/>
</g>
<!-- Node20 -->
<g id="node20" class="node">
<title>Node20</title>
<g id="a_node20"><a xlink:title=" ">
<polygon fill="#e0e0e0" stroke="#999999" points="1012.5,-277.5 943.5,-277.5 943.5,-258.5 1012.5,-258.5 1012.5,-277.5"/>
<text text-anchor="middle" x="978" y="-265.5" font-family="Helvetica,sans-Serif" font-size="10.00">type_traits</text>
</a>
</g>
</g>
<!-- Node18&#45;&gt;Node20 -->
<g id="edge29" class="edge">
<title>Node18&#45;&gt;Node20</title>
<path fill="none" stroke="#63b8ff" d="M791.88,-318.98C832.47,-309.51 886.61,-296.33 934,-283 936.75,-282.23 939.59,-281.4 942.43,-280.54"/>
<polygon fill="#63b8ff" stroke="#63b8ff" points="943.5,-283.87 952.03,-277.58 941.44,-277.19 943.5,-283.87"/>
</g>
<!-- Node21&#45;&gt;Node7 -->
<g id="edge32" class="edge">
<title>Node21&#45;&gt;Node7</title>
<path fill="none" stroke="#63b8ff" d="M344.67,-326.24C454.53,-314.2 683.33,-289.13 798.15,-276.54"/>
<polygon fill="#63b8ff" stroke="#63b8ff" points="798.67,-280.01 808.23,-275.44 797.91,-273.05 798.67,-280.01"/>
</g>
<!-- Node21&#45;&gt;Node15 -->
<g id="edge36" class="edge">
<title>Node21&#45;&gt;Node15</title>
<path fill="none" stroke="#63b8ff" d="M299.49,-318.89C345.48,-280.34 480.46,-172.71 612,-121 679.52,-94.46 761.77,-81.91 819.6,-76.04"/>
<polygon fill="#63b8ff" stroke="#63b8ff" points="820.13,-79.5 829.74,-75.05 819.45,-72.54 820.13,-79.5"/>
</g>
<!-- Node21&#45;&gt;Node17 -->
<g id="edge38" class="edge">
<title>Node21&#45;&gt;Node17</title>
<path fill="none" stroke="#63b8ff" d="M268.59,-318.83C253.91,-302.6 234.9,-275.37 247,-253 260.89,-227.3 282.95,-239.15 302,-217 332.61,-181.42 323.23,-162.04 346,-121 351.17,-111.69 357.48,-101.82 363.2,-93.34"/>
<polygon fill="#63b8ff" stroke="#63b8ff" points="366.1,-95.3 368.87,-85.08 360.32,-91.34 366.1,-95.3"/>
</g>
<!-- Node22 -->
<g id="node22" class="node">
<title>Node22</title>
<g id="a_node22"><a xlink:href="std_8hpp.html" target="_top" xlink:title=" ">
<polygon fill="white" stroke="#666666" points="293.5,-217 180.5,-217 180.5,-187 293.5,-187 293.5,-217"/>
<text text-anchor="start" x="188.5" y="-205" font-family="Helvetica,sans-Serif" font-size="10.00">proxsuite/linalg/veg</text>
<text text-anchor="middle" x="237" y="-194" font-family="Helvetica,sans-Serif" font-size="10.00">/internal/std.hpp</text>
</a>
</g>
</g>
<!-- Node21&#45;&gt;Node22 -->
<g id="edge33" class="edge">
<title>Node21&#45;&gt;Node22</title>
<path fill="none" stroke="#63b8ff" d="M298.83,-318.87C314.97,-302.67 335.93,-275.48 323,-253 315.23,-239.49 302.25,-229.29 288.7,-221.75"/>
<polygon fill="#63b8ff" stroke="#63b8ff" points="290.26,-218.62 279.77,-217.17 287.07,-224.85 290.26,-218.62"/>
</g>
<!-- Node23 -->
<g id="node23" class="node">
<title>Node23</title>
<g id="a_node23"><a xlink:title=" ">
<polygon fill="#e0e0e0" stroke="#999999" points="314,-277.5 256,-277.5 256,-258.5 314,-258.5 314,-277.5"/>
<text text-anchor="middle" x="285" y="-265.5" font-family="Helvetica,sans-Serif" font-size="10.00">memory</text>
</a>
</g>
</g>
<!-- Node21&#45;&gt;Node23 -->
<g id="edge37" class="edge">
<title>Node21&#45;&gt;Node23</title>
<path fill="none" stroke="#63b8ff" d="M283.44,-318.8C283.73,-309.7 284.1,-297.79 284.41,-287.9"/>
<polygon fill="#63b8ff" stroke="#63b8ff" points="287.91,-287.95 284.72,-277.84 280.91,-287.73 287.91,-287.95"/>
</g>
<!-- Node22&#45;&gt;Node9 -->
<g id="edge34" class="edge">
<title>Node22&#45;&gt;Node9</title>
<path fill="none" stroke="#63b8ff" d="M239.21,-186.8C244.73,-156.72 262.09,-86.73 308,-55 344.82,-29.55 652.49,-15.76 757.81,-11.75"/>
<polygon fill="#63b8ff" stroke="#63b8ff" points="758.06,-15.24 767.92,-11.37 757.8,-8.25 758.06,-15.24"/>
</g>
<!-- Node22&#45;&gt;Node16 -->
<g id="edge35" class="edge">
<title>Node22&#45;&gt;Node16</title>
<path fill="none" stroke="#63b8ff" d="M280.94,-186.96C361.73,-161.16 532.41,-106.64 607.38,-82.7"/>
<polygon fill="#63b8ff" stroke="#63b8ff" points="608.84,-85.9 617.3,-79.53 606.71,-79.24 608.84,-85.9"/>
</g>
<!-- Node24&#45;&gt;Node7 -->
<g id="edge43" class="edge">
<title>Node24&#45;&gt;Node7</title>
<path fill="none" stroke="#63b8ff" d="M982.52,-318.95C960.83,-309.58 932.11,-297.16 908.73,-287.05"/>
<polygon fill="#63b8ff" stroke="#63b8ff" points="909.97,-283.77 899.4,-283.01 907.19,-290.19 909.97,-283.77"/>
</g>
<!-- Node24&#45;&gt;Node15 -->
<g id="edge44" class="edge">
<title>Node24&#45;&gt;Node15</title>
<path fill="none" stroke="#63b8ff" d="M1030.89,-318.83C1047.08,-302.61 1068.09,-275.38 1055,-253 1038.52,-224.83 1015.02,-239.09 991,-217 951.34,-180.52 919.43,-125.21 903.35,-94.19"/>
<polygon fill="#63b8ff" stroke="#63b8ff" points="906.35,-92.36 898.7,-85.03 900.11,-95.53 906.35,-92.36"/>
</g>
<!-- Node24&#45;&gt;Node17 -->
<g id="edge46" class="edge">
<title>Node24&#45;&gt;Node17</title>
<path fill="none" stroke="#63b8ff" d="M1021.25,-318.71C1027.78,-301.37 1035.23,-272.09 1021,-253 990.3,-211.82 627.53,-134.59 578,-121 534.96,-109.19 486.37,-96.96 447.99,-87.55"/>
<polygon fill="#63b8ff" stroke="#63b8ff" points="448.5,-84.07 437.95,-85.1 446.83,-90.87 448.5,-84.07"/>
</g>
<!-- Node24&#45;&gt;Node20 -->
<g id="edge45" class="edge">
<title>Node24&#45;&gt;Node20</title>
<path fill="none" stroke="#63b8ff" d="M1006.79,-318.8C1001.3,-309.31 994.05,-296.76 988.19,-286.63"/>
<polygon fill="#63b8ff" stroke="#63b8ff" points="991.15,-284.75 983.11,-277.84 985.09,-288.25 991.15,-284.75"/>
</g>
<!-- Node25&#45;&gt;Node15 -->
<g id="edge58" class="edge">
<title>Node25&#45;&gt;Node15</title>
<path fill="none" stroke="#63b8ff" d="M415.67,-450.9C409.3,-434.74 401.3,-407.57 408,-385 427.94,-317.88 445.88,-303.86 494,-253 570.03,-172.65 602.29,-162.06 705,-121 741.94,-106.23 784.7,-94.43 820,-86.01"/>
<polygon fill="#63b8ff" stroke="#63b8ff" points="820.81,-89.42 829.74,-83.73 819.21,-82.6 820.81,-89.42"/>
</g>
<!-- Node25&#45;&gt;Node17 -->
<g id="edge61" class="edge">
<title>Node25&#45;&gt;Node17</title>
<path fill="none" stroke="#63b8ff" d="M353.19,-456.08C317.33,-449.06 273.98,-436.67 240,-415 160.52,-364.32 168.98,-311.13 164,-217 161.6,-171.65 163.6,-149.45 199,-121 229.62,-96.39 271.55,-83.87 307.24,-77.52"/>
<polygon fill="#63b8ff" stroke="#63b8ff" points="307.83,-80.97 317.13,-75.88 306.69,-74.06 307.83,-80.97"/>
</g>
<!-- Node25&#45;&gt;Node18 -->
<g id="edge50" class="edge">
<title>Node25&#45;&gt;Node18</title>
<path fill="none" stroke="#63b8ff" d="M476.97,-450.96C506.29,-442.45 542.51,-430.28 573,-415 593.83,-404.56 595.68,-396.4 616,-385 637.58,-372.9 662.65,-361.62 683.78,-352.85"/>
<polygon fill="#63b8ff" stroke="#63b8ff" points="685.25,-356.03 693.18,-349 682.6,-349.55 685.25,-356.03"/>
</g>
<!-- Node25&#45;&gt;Node19 -->
<g id="edge59" class="edge">
<title>Node25&#45;&gt;Node19</title>
<path fill="none" stroke="#63b8ff" d="M466.08,-450.9C488.95,-442.44 516.7,-430.33 539,-415 547.42,-409.21 598.25,-358.04 603,-349 613.06,-329.85 616.81,-305.07 618.2,-288.2"/>
<polygon fill="#63b8ff" stroke="#63b8ff" points="621.71,-288.14 618.83,-277.95 614.72,-287.71 621.71,-288.14"/>
</g>
<!-- Node25&#45;&gt;Node21 -->
<g id="edge57" class="edge">
<title>Node25&#45;&gt;Node21</title>
<path fill="none" stroke="#63b8ff" d="M406.86,-450.84C382.42,-427.98 334.14,-382.82 305.61,-356.14"/>
<polygon fill="#63b8ff" stroke="#63b8ff" points="307.82,-353.42 298.12,-349.14 303.03,-358.53 307.82,-353.42"/>
</g>
<!-- Node25&#45;&gt;Node22 -->
<g id="edge51" class="edge">
<title>Node25&#45;&gt;Node22</title>
<path fill="none" stroke="#63b8ff" d="M364.56,-450.89C314.42,-435.2 244.7,-404.42 212,-349 189.24,-310.43 209.02,-256.77 223.99,-226.4"/>
<polygon fill="#63b8ff" stroke="#63b8ff" points="227.15,-227.9 228.62,-217.41 220.93,-224.7 227.15,-227.9"/>
</g>
<!-- Node26 -->
<g id="node26" class="node">
<title>Node26</title>
<g id="a_node26"><a xlink:href="invocable_8hpp.html" target="_top" xlink:title=" ">
<polygon fill="white" stroke="#666666" points="988.5,-415 845.5,-415 845.5,-385 988.5,-385 988.5,-415"/>
<text text-anchor="start" x="853.5" y="-403" font-family="Helvetica,sans-Serif" font-size="10.00">proxsuite/linalg/veg</text>
<text text-anchor="middle" x="917" y="-392" font-family="Helvetica,sans-Serif" font-size="10.00">/type_traits/invocable.hpp</text>
</a>
</g>
</g>
<!-- Node25&#45;&gt;Node26 -->
<g id="edge52" class="edge">
<title>Node25&#45;&gt;Node26</title>
<path fill="none" stroke="#63b8ff" d="M490.57,-456.13C580.81,-444.47 739.22,-423.99 835.49,-411.54"/>
<polygon fill="#63b8ff" stroke="#63b8ff" points="836,-415 845.47,-410.25 835.1,-408.06 836,-415"/>
</g>
<!-- Node27 -->
<g id="node27" class="node">
<title>Node27</title>
<g id="a_node27"><a xlink:title=" ">
<polygon fill="#e0e0e0" stroke="#999999" points="675,-409.5 625,-409.5 625,-390.5 675,-390.5 675,-409.5"/>
<text text-anchor="middle" x="650" y="-397.5" font-family="Helvetica,sans-Serif" font-size="10.00">cstring</text>
</a>
</g>
</g>
<!-- Node25&#45;&gt;Node27 -->
<g id="edge60" class="edge">
<title>Node25&#45;&gt;Node27</title>
<path fill="none" stroke="#63b8ff" d="M480.27,-450.96C517.82,-441.58 567.57,-428.51 611,-415 613.12,-414.34 615.3,-413.64 617.49,-412.91"/>
<polygon fill="#63b8ff" stroke="#63b8ff" points="618.7,-416.19 627.01,-409.62 616.42,-409.57 618.7,-416.19"/>
</g>
<!-- Node26&#45;&gt;Node7 -->
<g id="edge53" class="edge">
<title>Node26&#45;&gt;Node7</title>
<path fill="none" stroke="#63b8ff" d="M912.37,-384.72C907.07,-368.62 897.96,-341.72 889,-319 885.55,-310.25 881.47,-300.77 877.77,-292.45"/>
<polygon fill="#63b8ff" stroke="#63b8ff" points="880.95,-291 873.65,-283.32 874.57,-293.87 880.95,-291"/>
</g>
<!-- Node26&#45;&gt;Node15 -->
<g id="edge55" class="edge">
<title>Node26&#45;&gt;Node15</title>
<path fill="none" stroke="#63b8ff" d="M907.29,-384.99C895.25,-368.2 873.54,-339.71 851,-319 830.3,-299.98 812.05,-307.9 799,-283 780.59,-247.87 845.83,-140.92 876.69,-93.76"/>
<polygon fill="#63b8ff" stroke="#63b8ff" points="879.78,-95.43 882.37,-85.16 873.94,-91.57 879.78,-95.43"/>
</g>
<!-- Node26&#45;&gt;Node17 -->
<g id="edge56" class="edge">
<title>Node26&#45;&gt;Node17</title>
<path fill="none" stroke="#63b8ff" d="M897.3,-384.79C883.99,-375.02 866.15,-361.58 851,-349 835.75,-336.34 834.06,-330.61 818,-319 780.85,-292.14 510.52,-143.16 413.52,-89.92"/>
<polygon fill="#63b8ff" stroke="#63b8ff" points="415.14,-86.82 404.69,-85.08 411.78,-92.95 415.14,-86.82"/>
</g>
<!-- Node26&#45;&gt;Node18 -->
<g id="edge54" class="edge">
<title>Node26&#45;&gt;Node18</title>
<path fill="none" stroke="#63b8ff" d="M875.96,-384.95C847.95,-375.37 810.65,-362.6 780.77,-352.37"/>
<polygon fill="#63b8ff" stroke="#63b8ff" points="781.54,-348.94 770.94,-349.01 779.27,-355.56 781.54,-348.94"/>
</g>
<!-- Node28&#45;&gt;Node5 -->
<g id="edge64" class="edge">
<title>Node28&#45;&gt;Node5</title>
<path fill="none" stroke="#63b8ff" d="M637.39,-521C605.84,-513.64 567.61,-501.27 538,-481 516.38,-466.2 498.45,-441.94 487.12,-424.01"/>
<polygon fill="#63b8ff" stroke="#63b8ff" points="490,-422.01 481.81,-415.29 484.02,-425.65 490,-422.01"/>
</g>
<!-- Node28&#45;&gt;Node8 -->
<g id="edge67" class="edge">
<title>Node28&#45;&gt;Node8</title>
<path fill="none" stroke="#63b8ff" d="M756.8,-529.82C861.36,-526.83 1072.35,-516.48 1136,-481 1291.29,-394.45 1363.12,-168.99 1383.03,-94.95"/>
<polygon fill="#63b8ff" stroke="#63b8ff" points="1386.45,-95.72 1385.59,-85.16 1379.67,-93.94 1386.45,-95.72"/>
</g>
<!-- Node28&#45;&gt;Node12 -->
<g id="edge68" class="edge">
<title>Node28&#45;&gt;Node12</title>
<path fill="none" stroke="#63b8ff" d="M756.55,-530.22C856.11,-527.86 1050.96,-518.45 1107,-481 1163.01,-443.57 1238.88,-282.15 1256,-217 1259.39,-204.1 1261.1,-199.32 1256,-187 1251.35,-175.77 1242.82,-165.75 1234.1,-157.68"/>
<polygon fill="#63b8ff" stroke="#63b8ff" points="1236.35,-155 1226.49,-151.11 1231.77,-160.29 1236.35,-155"/>
</g>
<!-- Node28&#45;&gt;Node15 -->
<g id="edge70" class="edge">
<title>Node28&#45;&gt;Node15</title>
<path fill="none" stroke="#63b8ff" d="M756.53,-526.4C834.05,-519.56 964.56,-504.88 1006,-481 1071.68,-443.16 1088.52,-420.39 1114,-349 1128.62,-308.04 1116.58,-290.76 1095,-253 1084.98,-235.46 985.56,-133.88 970,-121 956.48,-109.81 940.32,-99.08 926.22,-90.44"/>
<polygon fill="#63b8ff" stroke="#63b8ff" points="927.68,-87.24 917.3,-85.09 924.07,-93.24 927.68,-87.24"/>
</g>
<!-- Node28&#45;&gt;Node17 -->
<g id="edge72" class="edge">
<title>Node28&#45;&gt;Node17</title>
<path fill="none" stroke="#63b8ff" d="M637.46,-531.07C482.02,-529.64 76,-515 76,-401 76,-401 76,-401 76,-333 76,-224.07 112.81,-187.62 199,-121 229.95,-97.08 271.68,-84.6 307.17,-78.09"/>
<polygon fill="#63b8ff" stroke="#63b8ff" points="308.21,-81.46 317.48,-76.33 307.04,-74.56 308.21,-81.46"/>
</g>
<!-- Node28&#45;&gt;Node18 -->
<g id="edge65" class="edge">
<title>Node28&#45;&gt;Node18</title>
<path fill="none" stroke="#63b8ff" d="M699.37,-516.9C704.95,-483.79 718.94,-400.7 725.91,-359.27"/>
<polygon fill="#63b8ff" stroke="#63b8ff" points="729.39,-359.67 727.6,-349.23 722.49,-358.51 729.39,-359.67"/>
</g>
<!-- Node28&#45;&gt;Node24 -->
<g id="edge66" class="edge">
<title>Node28&#45;&gt;Node24</title>
<path fill="none" stroke="#63b8ff" d="M756.56,-528.15C830.4,-523.36 950.38,-511.08 982,-481 1015.32,-449.3 1018.34,-391.64 1017.03,-359.08"/>
<polygon fill="#63b8ff" stroke="#63b8ff" points="1020.53,-358.85 1016.46,-349.07 1013.54,-359.25 1020.53,-358.85"/>
</g>
<!-- Node28&#45;&gt;Node25 -->
<g id="edge69" class="edge">
<title>Node28&#45;&gt;Node25</title>
<path fill="none" stroke="#63b8ff" d="M637.33,-517.11C594.74,-507.2 537.3,-493.83 492.45,-483.4"/>
<polygon fill="#63b8ff" stroke="#63b8ff" points="493.04,-479.94 482.5,-481.08 491.45,-486.76 493.04,-479.94"/>
</g>
<!-- Node28&#45;&gt;Node27 -->
<g id="edge71" class="edge">
<title>Node28&#45;&gt;Node27</title>
<path fill="none" stroke="#63b8ff" d="M696.28,-516.94C695.04,-500.59 691.75,-473.01 683,-451 678.23,-438.99 670.31,-426.85 663.43,-417.55"/>
<polygon fill="#63b8ff" stroke="#63b8ff" points="666.16,-415.37 657.28,-409.59 660.62,-419.64 666.16,-415.37"/>
</g>
<!-- Node29 -->
<g id="node29" class="node">
<title>Node29</title>
<g id="a_node29"><a xlink:href="has__asan_8hpp.html" target="_top" xlink:title=" ">
<polygon fill="white" stroke="#666666" points="674.5,-481 547.5,-481 547.5,-451 674.5,-451 674.5,-481"/>
<text text-anchor="start" x="555.5" y="-469" font-family="Helvetica,sans-Serif" font-size="10.00">proxsuite/linalg/veg</text>
<text text-anchor="middle" x="611" y="-458" font-family="Helvetica,sans-Serif" font-size="10.00">/internal/has_asan.hpp</text>
</a>
</g>
</g>
<!-- Node28&#45;&gt;Node29 -->
<g id="edge63" class="edge">
<title>Node28&#45;&gt;Node29</title>
<path fill="none" stroke="#63b8ff" d="M677.91,-516.8C666.22,-508.1 651.07,-496.82 638.15,-487.2"/>
<polygon fill="#63b8ff" stroke="#63b8ff" points="640.14,-484.33 630.03,-481.16 635.97,-489.94 640.14,-484.33"/>
</g>
<!-- Node32&#45;&gt;Node15 -->
<g id="edge81" class="edge">
<title>Node32&#45;&gt;Node15</title>
<path fill="none" stroke="#63b8ff" d="M939.84,-450.9C955.88,-440.95 977.82,-427.26 997,-415 1042.18,-386.12 1072.48,-396.16 1098,-349 1104.35,-337.27 1100.49,-332.1 1098,-319 1092.12,-288.03 1090.43,-278.58 1072,-253 1057.43,-232.78 1046.97,-234.28 1029,-217 987.49,-177.09 981.7,-162.7 942,-121 932.97,-111.51 922.77,-101.24 913.96,-92.49"/>
<polygon fill="#63b8ff" stroke="#63b8ff" points="916.2,-89.79 906.63,-85.26 911.29,-94.77 916.2,-89.79"/>
</g>
<!-- Node32&#45;&gt;Node17 -->
<g id="edge82" class="edge">
<title>Node32&#45;&gt;Node17</title>
<path fill="none" stroke="#63b8ff" d="M882.02,-450.95C836.92,-433.31 755.73,-403.16 684,-385 589.65,-361.12 541.85,-412.39 468,-349 391.02,-282.91 380.01,-150.17 378.87,-95.44"/>
<polygon fill="#63b8ff" stroke="#63b8ff" points="382.37,-95.25 378.76,-85.29 375.37,-95.33 382.37,-95.25"/>
</g>
<!-- Node32&#45;&gt;Node18 -->
<g id="edge79" class="edge">
<title>Node32&#45;&gt;Node18</title>
<path fill="none" stroke="#63b8ff" d="M892.88,-450.92C876.57,-441.2 854.69,-427.78 836,-415 807.77,-395.7 776.68,-371.91 755.51,-355.31"/>
<polygon fill="#63b8ff" stroke="#63b8ff" points="757.65,-352.55 747.63,-349.11 753.32,-358.05 757.65,-352.55"/>
</g>
<!-- Node32&#45;&gt;Node26 -->
<g id="edge80" class="edge">
<title>Node32&#45;&gt;Node26</title>
<path fill="none" stroke="#63b8ff" d="M917,-450.8C917,-443.34 917,-433.99 917,-425.41"/>
<polygon fill="#63b8ff" stroke="#63b8ff" points="920.5,-425.16 917,-415.16 913.5,-425.16 920.5,-425.16"/>
</g>
</g>
</svg>
