<?xml version="1.0" encoding="UTF-8" standalone="no"?>
<!DOCTYPE svg PUBLIC "-//W3C//DTD SVG 1.1//EN"
 "http://www.w3.org/Graphics/SVG/1.1/DTD/svg11.dtd">
<!-- Generated by graphviz version 7.0.6 (20230107.1202)
 -->
<!-- Title: include/proxsuite/linalg/veg/type_traits/constructible.hpp Pages: 1 -->
<svg width="968pt" height="357pt"
 viewBox="0.00 0.00 967.50 357.00" xmlns="http://www.w3.org/2000/svg" xmlns:xlink="http://www.w3.org/1999/xlink">
<g id="graph0" class="graph" transform="scale(1 1) rotate(0) translate(4 353)">
<title>include/proxsuite/linalg/veg/type_traits/constructible.hpp</title>
<!-- Node1 -->
<g id="node1" class="node">
<title>Node1</title>
<g id="a_node1"><a xlink:title=" ">
<polygon fill="#999999" stroke="#666666" points="897,-349 717,-349 717,-319 897,-319 897,-349"/>
<text text-anchor="start" x="725" y="-337" font-family="Helvetica,sans-Serif" font-size="10.00">include/proxsuite/linalg</text>
<text text-anchor="middle" x="807" y="-326" font-family="Helvetica,sans-Serif" font-size="10.00">/veg/type_traits/constructible.hpp</text>
</a>
</g>
</g>
<!-- Node2 -->
<g id="node2" class="node">
<title>Node2</title>
<g id="a_node2"><a xlink:href="veg_2type__traits_2core_8hpp.html" target="_top" xlink:title=" ">
<polygon fill="white" stroke="#666666" points="713.5,-283 596.5,-283 596.5,-253 713.5,-253 713.5,-283"/>
<text text-anchor="start" x="604.5" y="-271" font-family="Helvetica,sans-Serif" font-size="10.00">proxsuite/linalg/veg</text>
<text text-anchor="middle" x="655" y="-260" font-family="Helvetica,sans-Serif" font-size="10.00">/type_traits/core.hpp</text>
</a>
</g>
</g>
<!-- Node1&#45;&gt;Node2 -->
<g id="edge1" class="edge">
<title>Node1&#45;&gt;Node2</title>
<path fill="none" stroke="#63b8ff" d="M772.89,-318.64C751.26,-309.53 723.04,-297.65 699.63,-287.79"/>
<polygon fill="#63b8ff" stroke="#63b8ff" points="701.23,-284.67 690.66,-284.01 698.51,-291.12 701.23,-284.67"/>
</g>
<!-- Node10 -->
<g id="node10" class="node">
<title>Node10</title>
<g id="a_node10"><a xlink:href="prologue_8hpp.html" target="_top" xlink:title=" ">
<polygon fill="white" stroke="#666666" points="722,-85 598,-85 598,-55 722,-55 722,-85"/>
<text text-anchor="start" x="606" y="-73" font-family="Helvetica,sans-Serif" font-size="10.00">proxsuite/linalg/veg</text>
<text text-anchor="middle" x="660" y="-62" font-family="Helvetica,sans-Serif" font-size="10.00">/internal/prologue.hpp</text>
</a>
</g>
</g>
<!-- Node1&#45;&gt;Node10 -->
<g id="edge18" class="edge">
<title>Node1&#45;&gt;Node10</title>
<path fill="none" stroke="#63b8ff" d="M798.89,-318.54C774.84,-275.69 703.77,-149.01 673.69,-95.4"/>
<polygon fill="#63b8ff" stroke="#63b8ff" points="676.77,-93.74 668.83,-86.73 670.67,-97.17 676.77,-93.74"/>
</g>
<!-- Node12 -->
<g id="node12" class="node">
<title>Node12</title>
<g id="a_node12"><a xlink:href="epilogue_8hpp.html" target="_top" xlink:title=" ">
<polygon fill="white" stroke="#666666" points="863.5,-85 740.5,-85 740.5,-55 863.5,-55 863.5,-85"/>
<text text-anchor="start" x="748.5" y="-73" font-family="Helvetica,sans-Serif" font-size="10.00">proxsuite/linalg/veg</text>
<text text-anchor="middle" x="802" y="-62" font-family="Helvetica,sans-Serif" font-size="10.00">/internal/epilogue.hpp</text>
</a>
</g>
</g>
<!-- Node1&#45;&gt;Node12 -->
<g id="edge21" class="edge">
<title>Node1&#45;&gt;Node12</title>
<path fill="none" stroke="#63b8ff" d="M806.72,-318.54C805.91,-276.04 803.53,-151.12 802.49,-96.76"/>
<polygon fill="#63b8ff" stroke="#63b8ff" points="805.99,-96.86 802.3,-86.93 799,-96.99 805.99,-96.86"/>
</g>
<!-- Node13 -->
<g id="node13" class="node">
<title>Node13</title>
<g id="a_node13"><a xlink:title=" ">
<polygon fill="#e0e0e0" stroke="#999999" points="872.5,-277.5 835.5,-277.5 835.5,-258.5 872.5,-258.5 872.5,-277.5"/>
<text text-anchor="middle" x="854" y="-265.5" font-family="Helvetica,sans-Serif" font-size="10.00">new</text>
</a>
</g>
</g>
<!-- Node1&#45;&gt;Node13 -->
<g id="edge19" class="edge">
<title>Node1&#45;&gt;Node13</title>
<path fill="none" stroke="#63b8ff" d="M817.43,-318.8C824.33,-309.41 833.43,-297.02 840.82,-286.95"/>
<polygon fill="#63b8ff" stroke="#63b8ff" points="843.51,-289.2 846.61,-279.06 837.87,-285.05 843.51,-289.2"/>
</g>
<!-- Node14 -->
<g id="node14" class="node">
<title>Node14</title>
<g id="a_node14"><a xlink:title=" ">
<polygon fill="#e0e0e0" stroke="#999999" points="959.5,-277.5 890.5,-277.5 890.5,-258.5 959.5,-258.5 959.5,-277.5"/>
<text text-anchor="middle" x="925" y="-265.5" font-family="Helvetica,sans-Serif" font-size="10.00">type_traits</text>
</a>
</g>
</g>
<!-- Node1&#45;&gt;Node14 -->
<g id="edge20" class="edge">
<title>Node1&#45;&gt;Node14</title>
<path fill="none" stroke="#63b8ff" d="M833.48,-318.64C852.86,-308.13 879.04,-293.92 898.44,-283.4"/>
<polygon fill="#63b8ff" stroke="#63b8ff" points="899.98,-286.55 907.1,-278.71 896.64,-280.4 899.98,-286.55"/>
</g>
<!-- Node3 -->
<g id="node3" class="node">
<title>Node3</title>
<g id="a_node3"><a xlink:href="typedefs_8hpp.html" target="_top" xlink:title=" ">
<polygon fill="white" stroke="#666666" points="124,-85 0,-85 0,-55 124,-55 124,-85"/>
<text text-anchor="start" x="8" y="-73" font-family="Helvetica,sans-Serif" font-size="10.00">proxsuite/linalg/veg</text>
<text text-anchor="middle" x="62" y="-62" font-family="Helvetica,sans-Serif" font-size="10.00">/internal/typedefs.hpp</text>
</a>
</g>
</g>
<!-- Node2&#45;&gt;Node3 -->
<g id="edge2" class="edge">
<title>Node2&#45;&gt;Node3</title>
<path fill="none" stroke="#63b8ff" d="M603.63,-252.55C568.73,-242.68 521.53,-229.22 480,-217 382.88,-188.43 357.53,-184.5 262,-151 207.69,-131.96 146.4,-106.9 106.15,-89.94"/>
<polygon fill="#63b8ff" stroke="#63b8ff" points="107.6,-86.75 97.03,-86.08 104.87,-93.2 107.6,-86.75"/>
</g>
<!-- Node6 -->
<g id="node6" class="node">
<title>Node6</title>
<g id="a_node6"><a xlink:href="integer__seq_8hpp.html" target="_top" xlink:title=" ">
<polygon fill="white" stroke="#666666" points="627,-217 489,-217 489,-187 627,-187 627,-217"/>
<text text-anchor="start" x="497" y="-205" font-family="Helvetica,sans-Serif" font-size="10.00">proxsuite/linalg/veg</text>
<text text-anchor="middle" x="558" y="-194" font-family="Helvetica,sans-Serif" font-size="10.00">/internal/integer_seq.hpp</text>
</a>
</g>
</g>
<!-- Node2&#45;&gt;Node6 -->
<g id="edge5" class="edge">
<title>Node2&#45;&gt;Node6</title>
<path fill="none" stroke="#63b8ff" d="M633.47,-252.8C620.5,-244.24 603.76,-233.19 589.34,-223.68"/>
<polygon fill="#63b8ff" stroke="#63b8ff" points="591.34,-220.8 581.07,-218.22 587.49,-226.65 591.34,-220.8"/>
</g>
<!-- Node2&#45;&gt;Node10 -->
<g id="edge16" class="edge">
<title>Node2&#45;&gt;Node10</title>
<path fill="none" stroke="#63b8ff" d="M655.37,-252.59C656.21,-219.67 658.28,-138.59 659.34,-96.81"/>
<polygon fill="#63b8ff" stroke="#63b8ff" points="662.84,-97.03 659.59,-86.95 655.84,-96.85 662.84,-97.03"/>
</g>
<!-- Node2&#45;&gt;Node12 -->
<g id="edge17" class="edge">
<title>Node2&#45;&gt;Node12</title>
<path fill="none" stroke="#63b8ff" d="M665.81,-252.59C690.98,-219.03 753.68,-135.43 784.43,-94.43"/>
<polygon fill="#63b8ff" stroke="#63b8ff" points="787.07,-96.74 790.27,-86.64 781.47,-92.54 787.07,-96.74"/>
</g>
<!-- Node4 -->
<g id="node4" class="node">
<title>Node4</title>
<g id="a_node4"><a xlink:title=" ">
<polygon fill="#e0e0e0" stroke="#999999" points="52,-19 2,-19 2,0 52,0 52,-19"/>
<text text-anchor="middle" x="27" y="-7" font-family="Helvetica,sans-Serif" font-size="10.00">cstdint</text>
</a>
</g>
</g>
<!-- Node3&#45;&gt;Node4 -->
<g id="edge3" class="edge">
<title>Node3&#45;&gt;Node4</title>
<path fill="none" stroke="#63b8ff" d="M53.35,-54.54C48.73,-46.82 43,-37.24 38.06,-28.99"/>
<polygon fill="#63b8ff" stroke="#63b8ff" points="41.11,-27.26 32.97,-20.47 35.1,-30.85 41.11,-27.26"/>
</g>
<!-- Node5 -->
<g id="node5" class="node">
<title>Node5</title>
<g id="a_node5"><a xlink:title=" ">
<polygon fill="#e0e0e0" stroke="#999999" points="123.5,-19 70.5,-19 70.5,0 123.5,0 123.5,-19"/>
<text text-anchor="middle" x="97" y="-7" font-family="Helvetica,sans-Serif" font-size="10.00">cstddef</text>
</a>
</g>
</g>
<!-- Node3&#45;&gt;Node5 -->
<g id="edge4" class="edge">
<title>Node3&#45;&gt;Node5</title>
<path fill="none" stroke="#63b8ff" d="M70.65,-54.54C75.27,-46.82 81,-37.24 85.94,-28.99"/>
<polygon fill="#63b8ff" stroke="#63b8ff" points="88.9,-30.85 91.03,-20.47 82.89,-27.26 88.9,-30.85"/>
</g>
<!-- Node6&#45;&gt;Node3 -->
<g id="edge6" class="edge">
<title>Node6&#45;&gt;Node3</title>
<path fill="none" stroke="#63b8ff" d="M503.02,-186.59C411.22,-162.53 227.07,-114.26 128.26,-88.37"/>
<polygon fill="#63b8ff" stroke="#63b8ff" points="129.25,-85.01 118.69,-85.86 127.47,-91.78 129.25,-85.01"/>
</g>
<!-- Node7 -->
<g id="node7" class="node">
<title>Node7</title>
<g id="a_node7"><a xlink:href="macros_8hpp.html" target="_top" xlink:title=" ">
<polygon fill="white" stroke="#666666" points="588.5,-151 471.5,-151 471.5,-121 588.5,-121 588.5,-151"/>
<text text-anchor="start" x="479.5" y="-139" font-family="Helvetica,sans-Serif" font-size="10.00">proxsuite/linalg/veg</text>
<text text-anchor="middle" x="530" y="-128" font-family="Helvetica,sans-Serif" font-size="10.00">/internal/macros.hpp</text>
</a>
</g>
</g>
<!-- Node6&#45;&gt;Node7 -->
<g id="edge7" class="edge">
<title>Node6&#45;&gt;Node7</title>
<path fill="none" stroke="#63b8ff" d="M551.79,-186.8C548.56,-179.42 544.52,-170.2 540.81,-161.7"/>
<polygon fill="#63b8ff" stroke="#63b8ff" points="544.02,-160.31 536.8,-152.55 537.61,-163.12 544.02,-160.31"/>
</g>
<!-- Node6&#45;&gt;Node10 -->
<g id="edge14" class="edge">
<title>Node6&#45;&gt;Node10</title>
<path fill="none" stroke="#63b8ff" d="M569.61,-186.61C577.63,-176.64 588.51,-163.05 598,-151 613.08,-131.84 630.03,-109.95 642.39,-93.91"/>
<polygon fill="#63b8ff" stroke="#63b8ff" points="644.84,-96.47 648.17,-86.41 639.29,-92.2 644.84,-96.47"/>
</g>
<!-- Node6&#45;&gt;Node12 -->
<g id="edge15" class="edge">
<title>Node6&#45;&gt;Node12</title>
<path fill="none" stroke="#63b8ff" d="M585.04,-186.59C628.83,-163.26 715.33,-117.18 764.86,-90.79"/>
<polygon fill="#63b8ff" stroke="#63b8ff" points="766.32,-93.98 773.5,-86.19 763.03,-87.8 766.32,-93.98"/>
</g>
<!-- Node7&#45;&gt;Node3 -->
<g id="edge9" class="edge">
<title>Node7&#45;&gt;Node3</title>
<path fill="none" stroke="#63b8ff" d="M471.3,-128.9C395.93,-120.77 260.88,-105.25 135.61,-85.35"/>
<polygon fill="#63b8ff" stroke="#63b8ff" points="136.22,-81.9 125.79,-83.78 135.11,-88.82 136.22,-81.9"/>
</g>
<!-- Node8 -->
<g id="node8" class="node">
<title>Node8</title>
<g id="a_node8"><a xlink:href="hedley_8ext_8hpp.html" target="_top" xlink:title=" ">
<polygon fill="white" stroke="#666666" points="317.5,-85 142.5,-85 142.5,-55 317.5,-55 317.5,-85"/>
<text text-anchor="start" x="150.5" y="-73" font-family="Helvetica,sans-Serif" font-size="10.00">proxsuite/linalg/veg</text>
<text text-anchor="middle" x="230" y="-62" font-family="Helvetica,sans-Serif" font-size="10.00">/internal/external/hedley.ext.hpp</text>
</a>
</g>
</g>
<!-- Node7&#45;&gt;Node8 -->
<g id="edge8" class="edge">
<title>Node7&#45;&gt;Node8</title>
<path fill="none" stroke="#63b8ff" d="M471.09,-122.43C424.75,-112.55 359.74,-98.68 308.9,-87.83"/>
<polygon fill="#63b8ff" stroke="#63b8ff" points="309.94,-84.48 299.43,-85.81 308.48,-91.32 309.94,-84.48"/>
</g>
<!-- Node9 -->
<g id="node9" class="node">
<title>Node9</title>
<g id="a_node9"><a xlink:href="preprocessor_8hpp.html" target="_top" xlink:title=" ">
<polygon fill="white" stroke="#666666" points="478.5,-85 335.5,-85 335.5,-55 478.5,-55 478.5,-85"/>
<text text-anchor="start" x="343.5" y="-73" font-family="Helvetica,sans-Serif" font-size="10.00">proxsuite/linalg/veg</text>
<text text-anchor="middle" x="407" y="-62" font-family="Helvetica,sans-Serif" font-size="10.00">/internal/preprocessor.hpp</text>
</a>
</g>
</g>
<!-- Node7&#45;&gt;Node9 -->
<g id="edge10" class="edge">
<title>Node7&#45;&gt;Node9</title>
<path fill="none" stroke="#63b8ff" d="M502.4,-120.64C485.3,-111.74 463.13,-100.21 444.47,-90.49"/>
<polygon fill="#63b8ff" stroke="#63b8ff" points="446.34,-87.52 435.85,-86.01 443.11,-93.73 446.34,-87.52"/>
</g>
<!-- Node7&#45;&gt;Node10 -->
<g id="edge11" class="edge">
<title>Node7&#45;&gt;Node10</title>
<path fill="none" stroke="#63b8ff" d="M559.17,-120.64C577.32,-111.7 600.89,-100.1 620.68,-90.36"/>
<polygon fill="#63b8ff" stroke="#63b8ff" points="622.14,-93.54 629.56,-85.98 619.05,-87.26 622.14,-93.54"/>
</g>
<!-- Node11 -->
<g id="node11" class="node">
<title>Node11</title>
<g id="a_node11"><a xlink:title=" ">
<polygon fill="#e0e0e0" stroke="#999999" points="579.5,-79.5 496.5,-79.5 496.5,-60.5 579.5,-60.5 579.5,-79.5"/>
<text text-anchor="middle" x="538" y="-67.5" font-family="Helvetica,sans-Serif" font-size="10.00">initializer_list</text>
</a>
</g>
</g>
<!-- Node7&#45;&gt;Node11 -->
<g id="edge12" class="edge">
<title>Node7&#45;&gt;Node11</title>
<path fill="none" stroke="#63b8ff" d="M531.78,-120.8C532.86,-112.09 534.27,-100.81 535.48,-91.18"/>
<polygon fill="#63b8ff" stroke="#63b8ff" points="538.94,-91.7 536.71,-81.35 531.99,-90.83 538.94,-91.7"/>
</g>
<!-- Node7&#45;&gt;Node12 -->
<g id="edge13" class="edge">
<title>Node7&#45;&gt;Node12</title>
<path fill="none" stroke="#63b8ff" d="M588.69,-121.19C630.01,-111.47 685.58,-98.39 729.65,-88.02"/>
<polygon fill="#63b8ff" stroke="#63b8ff" points="730.18,-91.49 739.12,-85.8 728.58,-84.68 730.18,-91.49"/>
</g>
</g>
</svg>
