<?xml version="1.0" encoding="UTF-8" standalone="no"?>
<!DOCTYPE svg PUBLIC "-//W3C//DTD SVG 1.1//EN"
 "http://www.w3.org/Graphics/SVG/1.1/DTD/svg11.dtd">
<!-- Generated by graphviz version 6.0.2 (20221126.1951)
 -->
<!-- Title: include/proxsuite/linalg/veg/util/defer.hpp Pages: 1 -->
<svg width="872pt" height="489pt"
 viewBox="0.00 0.00 871.50 489.00" xmlns="http://www.w3.org/2000/svg" xmlns:xlink="http://www.w3.org/1999/xlink">
<g id="graph0" class="graph" transform="scale(1 1) rotate(0) translate(4 485)">
<title>include/proxsuite/linalg/veg/util/defer.hpp</title>
<!-- Node1 -->
<g id="node1" class="node">
<title>Node1</title>
<g id="a_node1"><a xlink:title=" ">
<polygon fill="#999999" stroke="#666666" points="340.5,-481 209.5,-481 209.5,-451 340.5,-451 340.5,-481"/>
<text text-anchor="start" x="217.5" y="-469" font-family="Helvetica,sans-Serif" font-size="10.00">include/proxsuite/linalg</text>
<text text-anchor="middle" x="275" y="-458" font-family="Helvetica,sans-Serif" font-size="10.00">/veg/util/defer.hpp</text>
</a>
</g>
</g>
<!-- Node2 -->
<g id="node2" class="node">
<title>Node2</title>
<g id="a_node2"><a xlink:href="constructible_8hpp.html" target="_top" xlink:title=" ">
<polygon fill="white" stroke="#666666" points="298.5,-349 139.5,-349 139.5,-319 298.5,-319 298.5,-349"/>
<text text-anchor="start" x="147.5" y="-337" font-family="Helvetica,sans-Serif" font-size="10.00">proxsuite/linalg/veg</text>
<text text-anchor="middle" x="219" y="-326" font-family="Helvetica,sans-Serif" font-size="10.00">/type_traits/constructible.hpp</text>
</a>
</g>
</g>
<!-- Node1&#45;&gt;Node2 -->
<g id="edge1" class="edge">
<title>Node1&#45;&gt;Node2</title>
<path fill="none" stroke="#63b8ff" d="M265.17,-450.6C258.82,-440.86 250.71,-427.53 245,-415 236.71,-396.79 229.85,-375.16 225.26,-358.99"/>
<polygon fill="#63b8ff" stroke="#63b8ff" points="228.6,-357.95 222.58,-349.24 221.85,-359.81 228.6,-357.95"/>
</g>
<!-- Node11 -->
<g id="node11" class="node">
<title>Node11</title>
<g id="a_node11"><a xlink:href="prologue_8hpp.html" target="_top" xlink:title=" ">
<polygon fill="white" stroke="#666666" points="124,-85 0,-85 0,-55 124,-55 124,-85"/>
<text text-anchor="start" x="8" y="-73" font-family="Helvetica,sans-Serif" font-size="10.00">proxsuite/linalg/veg</text>
<text text-anchor="middle" x="62" y="-62" font-family="Helvetica,sans-Serif" font-size="10.00">/internal/prologue.hpp</text>
</a>
</g>
</g>
<!-- Node1&#45;&gt;Node11 -->
<g id="edge28" class="edge">
<title>Node1&#45;&gt;Node11</title>
<path fill="none" stroke="#63b8ff" d="M209.42,-451.56C150.43,-435.18 73,-401.1 73,-335 73,-335 73,-335 73,-201 73,-163.94 68.51,-121.15 65.26,-95.09"/>
<polygon fill="#63b8ff" stroke="#63b8ff" points="68.71,-94.48 63.97,-85.01 61.77,-95.38 68.71,-94.48"/>
</g>
<!-- Node13 -->
<g id="node13" class="node">
<title>Node13</title>
<g id="a_node13"><a xlink:href="epilogue_8hpp.html" target="_top" xlink:title=" ">
<polygon fill="white" stroke="#666666" points="863.5,-85 740.5,-85 740.5,-55 863.5,-55 863.5,-85"/>
<text text-anchor="start" x="748.5" y="-73" font-family="Helvetica,sans-Serif" font-size="10.00">proxsuite/linalg/veg</text>
<text text-anchor="middle" x="802" y="-62" font-family="Helvetica,sans-Serif" font-size="10.00">/internal/epilogue.hpp</text>
</a>
</g>
</g>
<!-- Node1&#45;&gt;Node13 -->
<g id="edge29" class="edge">
<title>Node1&#45;&gt;Node13</title>
<path fill="none" stroke="#63b8ff" d="M340.66,-462.6C482.33,-455.62 804,-429.4 804,-335 804,-335 804,-335 804,-201 804,-164.07 803.18,-121.24 802.59,-95.14"/>
<polygon fill="#63b8ff" stroke="#63b8ff" points="806.09,-94.96 802.36,-85.04 799.09,-95.12 806.09,-94.96"/>
</g>
<!-- Node16 -->
<g id="node16" class="node">
<title>Node16</title>
<g id="a_node16"><a xlink:href="invocable_8hpp.html" target="_top" xlink:title=" ">
<polygon fill="white" stroke="#666666" points="397.5,-415 254.5,-415 254.5,-385 397.5,-385 397.5,-415"/>
<text text-anchor="start" x="262.5" y="-403" font-family="Helvetica,sans-Serif" font-size="10.00">proxsuite/linalg/veg</text>
<text text-anchor="middle" x="326" y="-392" font-family="Helvetica,sans-Serif" font-size="10.00">/type_traits/invocable.hpp</text>
</a>
</g>
</g>
<!-- Node1&#45;&gt;Node16 -->
<g id="edge23" class="edge">
<title>Node1&#45;&gt;Node16</title>
<path fill="none" stroke="#63b8ff" d="M286.32,-450.8C292.79,-442.68 301.05,-432.31 308.35,-423.15"/>
<polygon fill="#63b8ff" stroke="#63b8ff" points="311.22,-425.17 314.71,-415.16 305.74,-420.8 311.22,-425.17"/>
</g>
<!-- Node3 -->
<g id="node3" class="node">
<title>Node3</title>
<g id="a_node3"><a xlink:href="veg_2type__traits_2core_8hpp.html" target="_top" xlink:title=" ">
<polygon fill="white" stroke="#666666" points="516.5,-283 399.5,-283 399.5,-253 516.5,-253 516.5,-283"/>
<text text-anchor="start" x="407.5" y="-271" font-family="Helvetica,sans-Serif" font-size="10.00">proxsuite/linalg/veg</text>
<text text-anchor="middle" x="458" y="-260" font-family="Helvetica,sans-Serif" font-size="10.00">/type_traits/core.hpp</text>
</a>
</g>
</g>
<!-- Node2&#45;&gt;Node3 -->
<g id="edge2" class="edge">
<title>Node2&#45;&gt;Node3</title>
<path fill="none" stroke="#63b8ff" d="M271.45,-318.95C308.03,-309.16 357,-296.05 395.59,-285.71"/>
<polygon fill="#63b8ff" stroke="#63b8ff" points="396.92,-288.98 405.67,-283.01 395.11,-282.22 396.92,-288.98"/>
</g>
<!-- Node2&#45;&gt;Node11 -->
<g id="edge19" class="edge">
<title>Node2&#45;&gt;Node11</title>
<path fill="none" stroke="#63b8ff" d="M188.43,-318.95C172.93,-310.48 154.92,-298.34 143,-283 96.24,-222.86 116.54,-191.22 87,-121 83.27,-112.13 78.67,-102.62 74.45,-94.31"/>
<polygon fill="#63b8ff" stroke="#63b8ff" points="77.44,-92.47 69.73,-85.21 71.22,-95.7 77.44,-92.47"/>
</g>
<!-- Node2&#45;&gt;Node13 -->
<g id="edge22" class="edge">
<title>Node2&#45;&gt;Node13</title>
<path fill="none" stroke="#63b8ff" d="M298.58,-328.69C361.69,-323.24 451.24,-310.9 525,-283 619.14,-247.4 632.23,-216.08 709,-151 732.49,-131.09 759.12,-108.14 777.84,-91.95"/>
<polygon fill="#63b8ff" stroke="#63b8ff" points="780.33,-94.42 785.6,-85.23 775.75,-89.13 780.33,-94.42"/>
</g>
<!-- Node14 -->
<g id="node14" class="node">
<title>Node14</title>
<g id="a_node14"><a xlink:title=" ">
<polygon fill="#e0e0e0" stroke="#999999" points="276.5,-277.5 239.5,-277.5 239.5,-258.5 276.5,-258.5 276.5,-277.5"/>
<text text-anchor="middle" x="258" y="-265.5" font-family="Helvetica,sans-Serif" font-size="10.00">new</text>
</a>
</g>
</g>
<!-- Node2&#45;&gt;Node14 -->
<g id="edge20" class="edge">
<title>Node2&#45;&gt;Node14</title>
<path fill="none" stroke="#63b8ff" d="M227.66,-318.8C233.44,-309.31 241.08,-296.76 247.26,-286.63"/>
<polygon fill="#63b8ff" stroke="#63b8ff" points="250.4,-288.21 252.61,-277.84 244.42,-284.56 250.4,-288.21"/>
</g>
<!-- Node15 -->
<g id="node15" class="node">
<title>Node15</title>
<g id="a_node15"><a xlink:title=" ">
<polygon fill="#e0e0e0" stroke="#999999" points="221.5,-277.5 152.5,-277.5 152.5,-258.5 221.5,-258.5 221.5,-277.5"/>
<text text-anchor="middle" x="187" y="-265.5" font-family="Helvetica,sans-Serif" font-size="10.00">type_traits</text>
</a>
</g>
</g>
<!-- Node2&#45;&gt;Node15 -->
<g id="edge21" class="edge">
<title>Node2&#45;&gt;Node15</title>
<path fill="none" stroke="#63b8ff" d="M211.9,-318.8C207.2,-309.41 201.01,-297.02 195.97,-286.95"/>
<polygon fill="#63b8ff" stroke="#63b8ff" points="199.02,-285.22 191.42,-277.84 192.76,-288.35 199.02,-285.22"/>
</g>
<!-- Node4 -->
<g id="node4" class="node">
<title>Node4</title>
<g id="a_node4"><a xlink:href="typedefs_8hpp.html" target="_top" xlink:title=" ">
<polygon fill="white" stroke="#666666" points="722,-85 598,-85 598,-55 722,-55 722,-85"/>
<text text-anchor="start" x="606" y="-73" font-family="Helvetica,sans-Serif" font-size="10.00">proxsuite/linalg/veg</text>
<text text-anchor="middle" x="660" y="-62" font-family="Helvetica,sans-Serif" font-size="10.00">/internal/typedefs.hpp</text>
</a>
</g>
</g>
<!-- Node3&#45;&gt;Node4 -->
<g id="edge3" class="edge">
<title>Node3&#45;&gt;Node4</title>
<path fill="none" stroke="#63b8ff" d="M503.27,-252.94C524.29,-244.82 548.64,-233 567,-217 606.87,-182.26 635.86,-126.3 650.1,-94.7"/>
<polygon fill="#63b8ff" stroke="#63b8ff" points="653.39,-95.92 654.2,-85.36 646.98,-93.11 653.39,-95.92"/>
</g>
<!-- Node7 -->
<g id="node7" class="node">
<title>Node7</title>
<g id="a_node7"><a xlink:href="integer__seq_8hpp.html" target="_top" xlink:title=" ">
<polygon fill="white" stroke="#666666" points="558,-217 420,-217 420,-187 558,-187 558,-217"/>
<text text-anchor="start" x="428" y="-205" font-family="Helvetica,sans-Serif" font-size="10.00">proxsuite/linalg/veg</text>
<text text-anchor="middle" x="489" y="-194" font-family="Helvetica,sans-Serif" font-size="10.00">/internal/integer_seq.hpp</text>
</a>
</g>
</g>
<!-- Node3&#45;&gt;Node7 -->
<g id="edge6" class="edge">
<title>Node3&#45;&gt;Node7</title>
<path fill="none" stroke="#63b8ff" d="M464.88,-252.8C468.65,-245.01 473.42,-235.16 477.73,-226.28"/>
<polygon fill="#63b8ff" stroke="#63b8ff" points="480.93,-227.69 482.14,-217.16 474.63,-224.64 480.93,-227.69"/>
</g>
<!-- Node3&#45;&gt;Node11 -->
<g id="edge17" class="edge">
<title>Node3&#45;&gt;Node11</title>
<path fill="none" stroke="#63b8ff" d="M443.96,-252.97C434.37,-243.16 421.54,-229.62 411,-217 376.99,-176.26 385.16,-148.88 340,-121 263.26,-73.62 227.31,-100.07 134.4,-85.12"/>
<polygon fill="#63b8ff" stroke="#63b8ff" points="134.77,-81.63 124.32,-83.37 133.58,-88.53 134.77,-81.63"/>
</g>
<!-- Node3&#45;&gt;Node13 -->
<g id="edge18" class="edge">
<title>Node3&#45;&gt;Node13</title>
<path fill="none" stroke="#63b8ff" d="M508.56,-252.94C535.2,-244.46 567.89,-232.32 595,-217 654.16,-183.57 657.83,-159.24 714,-121 730.39,-109.84 749.43,-98.8 765.6,-89.95"/>
<polygon fill="#63b8ff" stroke="#63b8ff" points="767.62,-92.84 774.75,-85 764.29,-86.68 767.62,-92.84"/>
</g>
<!-- Node5 -->
<g id="node5" class="node">
<title>Node5</title>
<g id="a_node5"><a xlink:title=" ">
<polygon fill="#e0e0e0" stroke="#999999" points="650,-19 600,-19 600,0 650,0 650,-19"/>
<text text-anchor="middle" x="625" y="-7" font-family="Helvetica,sans-Serif" font-size="10.00">cstdint</text>
</a>
</g>
</g>
<!-- Node4&#45;&gt;Node5 -->
<g id="edge4" class="edge">
<title>Node4&#45;&gt;Node5</title>
<path fill="none" stroke="#63b8ff" d="M651.53,-54.84C646.71,-46.78 640.63,-36.62 635.5,-28.06"/>
<polygon fill="#63b8ff" stroke="#63b8ff" points="638.38,-26.05 630.24,-19.27 632.38,-29.64 638.38,-26.05"/>
</g>
<!-- Node6 -->
<g id="node6" class="node">
<title>Node6</title>
<g id="a_node6"><a xlink:title=" ">
<polygon fill="#e0e0e0" stroke="#999999" points="721.5,-19 668.5,-19 668.5,0 721.5,0 721.5,-19"/>
<text text-anchor="middle" x="695" y="-7" font-family="Helvetica,sans-Serif" font-size="10.00">cstddef</text>
</a>
</g>
</g>
<!-- Node4&#45;&gt;Node6 -->
<g id="edge5" class="edge">
<title>Node4&#45;&gt;Node6</title>
<path fill="none" stroke="#63b8ff" d="M668.47,-54.84C673.29,-46.78 679.37,-36.62 684.5,-28.06"/>
<polygon fill="#63b8ff" stroke="#63b8ff" points="687.62,-29.64 689.76,-19.27 681.62,-26.05 687.62,-29.64"/>
</g>
<!-- Node7&#45;&gt;Node4 -->
<g id="edge7" class="edge">
<title>Node7&#45;&gt;Node4</title>
<path fill="none" stroke="#63b8ff" d="M508.12,-186.85C521.55,-176.88 539.92,-163.18 556,-151 582.49,-130.93 612.57,-107.75 633.54,-91.53"/>
<polygon fill="#63b8ff" stroke="#63b8ff" points="635.89,-94.13 641.65,-85.24 631.6,-88.6 635.89,-94.13"/>
</g>
<!-- Node8 -->
<g id="node8" class="node">
<title>Node8</title>
<g id="a_node8"><a xlink:href="macros_8hpp.html" target="_top" xlink:title=" ">
<polygon fill="white" stroke="#666666" points="547.5,-151 430.5,-151 430.5,-121 547.5,-121 547.5,-151"/>
<text text-anchor="start" x="438.5" y="-139" font-family="Helvetica,sans-Serif" font-size="10.00">proxsuite/linalg/veg</text>
<text text-anchor="middle" x="489" y="-128" font-family="Helvetica,sans-Serif" font-size="10.00">/internal/macros.hpp</text>
</a>
</g>
</g>
<!-- Node7&#45;&gt;Node8 -->
<g id="edge8" class="edge">
<title>Node7&#45;&gt;Node8</title>
<path fill="none" stroke="#63b8ff" d="M489,-186.8C489,-179.34 489,-169.99 489,-161.41"/>
<polygon fill="#63b8ff" stroke="#63b8ff" points="492.5,-161.16 489,-151.16 485.5,-161.16 492.5,-161.16"/>
</g>
<!-- Node7&#45;&gt;Node11 -->
<g id="edge15" class="edge">
<title>Node7&#45;&gt;Node11</title>
<path fill="none" stroke="#63b8ff" d="M469.79,-186.79C439.4,-164.37 383.12,-123.08 378,-121 278.99,-80.86 243.55,-102.3 134.39,-85.13"/>
<polygon fill="#63b8ff" stroke="#63b8ff" points="134.74,-81.64 124.31,-83.46 133.6,-88.54 134.74,-81.64"/>
</g>
<!-- Node7&#45;&gt;Node13 -->
<g id="edge16" class="edge">
<title>Node7&#45;&gt;Node13</title>
<path fill="none" stroke="#63b8ff" d="M521.32,-186.86C558.51,-170.67 621.48,-143.47 676,-121 702.49,-110.08 732.27,-98.24 756.23,-88.83"/>
<polygon fill="#63b8ff" stroke="#63b8ff" points="757.75,-91.99 765.78,-85.08 755.19,-85.47 757.75,-91.99"/>
</g>
<!-- Node8&#45;&gt;Node4 -->
<g id="edge10" class="edge">
<title>Node8&#45;&gt;Node4</title>
<path fill="none" stroke="#63b8ff" d="M526.53,-120.95C551.92,-111.45 585.66,-98.82 612.86,-88.64"/>
<polygon fill="#63b8ff" stroke="#63b8ff" points="614.42,-91.8 622.56,-85.01 611.97,-85.24 614.42,-91.8"/>
</g>
<!-- Node9 -->
<g id="node9" class="node">
<title>Node9</title>
<g id="a_node9"><a xlink:href="hedley_8ext_8hpp.html" target="_top" xlink:title=" ">
<polygon fill="white" stroke="#666666" points="579.5,-85 404.5,-85 404.5,-55 579.5,-55 579.5,-85"/>
<text text-anchor="start" x="412.5" y="-73" font-family="Helvetica,sans-Serif" font-size="10.00">proxsuite/linalg/veg</text>
<text text-anchor="middle" x="492" y="-62" font-family="Helvetica,sans-Serif" font-size="10.00">/internal/external/hedley.ext.hpp</text>
</a>
</g>
</g>
<!-- Node8&#45;&gt;Node9 -->
<g id="edge9" class="edge">
<title>Node8&#45;&gt;Node9</title>
<path fill="none" stroke="#63b8ff" d="M489.67,-120.8C490.02,-113.34 490.45,-103.99 490.86,-95.41"/>
<polygon fill="#63b8ff" stroke="#63b8ff" points="494.36,-95.32 491.34,-85.16 487.37,-94.99 494.36,-95.32"/>
</g>
<!-- Node10 -->
<g id="node10" class="node">
<title>Node10</title>
<g id="a_node10"><a xlink:href="preprocessor_8hpp.html" target="_top" xlink:title=" ">
<polygon fill="white" stroke="#666666" points="285.5,-85 142.5,-85 142.5,-55 285.5,-55 285.5,-85"/>
<text text-anchor="start" x="150.5" y="-73" font-family="Helvetica,sans-Serif" font-size="10.00">proxsuite/linalg/veg</text>
<text text-anchor="middle" x="214" y="-62" font-family="Helvetica,sans-Serif" font-size="10.00">/internal/preprocessor.hpp</text>
</a>
</g>
</g>
<!-- Node8&#45;&gt;Node10 -->
<g id="edge11" class="edge">
<title>Node8&#45;&gt;Node10</title>
<path fill="none" stroke="#63b8ff" d="M430.34,-121.35C387.67,-111.42 329.69,-97.92 284.49,-87.41"/>
<polygon fill="#63b8ff" stroke="#63b8ff" points="285,-83.93 274.47,-85.07 283.42,-90.75 285,-83.93"/>
</g>
<!-- Node8&#45;&gt;Node11 -->
<g id="edge12" class="edge">
<title>Node8&#45;&gt;Node11</title>
<path fill="none" stroke="#63b8ff" d="M430.49,-123.44C425.59,-122.58 420.72,-121.75 416,-121 293.97,-101.56 259.88,-105.08 134.3,-85.14"/>
<polygon fill="#63b8ff" stroke="#63b8ff" points="134.72,-81.66 124.29,-83.53 133.61,-88.57 134.72,-81.66"/>
</g>
<!-- Node12 -->
<g id="node12" class="node">
<title>Node12</title>
<g id="a_node12"><a xlink:title=" ">
<polygon fill="#e0e0e0" stroke="#999999" points="386.5,-79.5 303.5,-79.5 303.5,-60.5 386.5,-60.5 386.5,-79.5"/>
<text text-anchor="middle" x="345" y="-67.5" font-family="Helvetica,sans-Serif" font-size="10.00">initializer_list</text>
</a>
</g>
</g>
<!-- Node8&#45;&gt;Node12 -->
<g id="edge13" class="edge">
<title>Node8&#45;&gt;Node12</title>
<path fill="none" stroke="#63b8ff" d="M457.4,-120.95C432.37,-109.83 397.7,-94.42 373.51,-83.67"/>
<polygon fill="#63b8ff" stroke="#63b8ff" points="374.72,-80.38 364.16,-79.52 371.88,-86.78 374.72,-80.38"/>
</g>
<!-- Node8&#45;&gt;Node13 -->
<g id="edge14" class="edge">
<title>Node8&#45;&gt;Node13</title>
<path fill="none" stroke="#63b8ff" d="M547.51,-123.04C599.23,-112.46 674.84,-97 730.21,-85.68"/>
<polygon fill="#63b8ff" stroke="#63b8ff" points="731.21,-89.05 740.3,-83.62 729.8,-82.19 731.21,-89.05"/>
</g>
<!-- Node16&#45;&gt;Node2 -->
<g id="edge25" class="edge">
<title>Node16&#45;&gt;Node2</title>
<path fill="none" stroke="#63b8ff" d="M302.52,-384.95C287.47,-375.95 267.73,-364.14 251.22,-354.27"/>
<polygon fill="#63b8ff" stroke="#63b8ff" points="252.81,-351.14 242.43,-349.01 249.21,-357.15 252.81,-351.14"/>
</g>
<!-- Node16&#45;&gt;Node3 -->
<g id="edge24" class="edge">
<title>Node16&#45;&gt;Node3</title>
<path fill="none" stroke="#63b8ff" d="M340.38,-384.84C363.49,-362.08 409.05,-317.21 436.18,-290.49"/>
<polygon fill="#63b8ff" stroke="#63b8ff" points="438.97,-292.65 443.64,-283.14 434.06,-287.67 438.97,-292.65"/>
</g>
<!-- Node16&#45;&gt;Node11 -->
<g id="edge26" class="edge">
<title>Node16&#45;&gt;Node11</title>
<path fill="none" stroke="#63b8ff" d="M326,-384.96C326,-361.12 326,-311.2 326,-269 326,-269 326,-269 326,-201 326,-155.99 200.92,-111.35 122.95,-87.89"/>
<polygon fill="#63b8ff" stroke="#63b8ff" points="123.8,-84.5 113.21,-85 121.8,-91.21 123.8,-84.5"/>
</g>
<!-- Node16&#45;&gt;Node13 -->
<g id="edge27" class="edge">
<title>Node16&#45;&gt;Node13</title>
<path fill="none" stroke="#63b8ff" d="M397.67,-392.72C522.35,-379.81 766,-344.87 766,-269 766,-269 766,-269 766,-201 766,-162.55 780.81,-119.94 791.43,-94.33"/>
<polygon fill="#63b8ff" stroke="#63b8ff" points="794.68,-95.64 795.4,-85.07 788.24,-92.89 794.68,-95.64"/>
</g>
</g>
</svg>
