<?xml version="1.0" encoding="UTF-8" standalone="no"?>
<!DOCTYPE svg PUBLIC "-//W3C//DTD SVG 1.1//EN"
 "http://www.w3.org/Graphics/SVG/1.1/DTD/svg11.dtd">
<!-- Generated by graphviz version 6.0.1 (20220911.2005)
 -->
<!-- Title: include/proxsuite/linalg/veg/util/defer.hpp Pages: 1 -->
<svg width="871pt" height="489pt"
 viewBox="0.00 0.00 870.50 489.00" xmlns="http://www.w3.org/2000/svg" xmlns:xlink="http://www.w3.org/1999/xlink">
<g id="graph0" class="graph" transform="scale(1 1) rotate(0) translate(4 485)">
<title>include/proxsuite/linalg/veg/util/defer.hpp</title>
<!-- Node1 -->
<g id="node1" class="node">
<title>Node1</title>
<g id="a_node1"><a xlink:title=" ">
<polygon fill="#999999" stroke="#666666" points="356,-481 225,-481 225,-451 356,-451 356,-481"/>
<text text-anchor="start" x="233" y="-469" font-family="Helvetica,sans-Serif" font-size="10.00">include/proxsuite/linalg</text>
<text text-anchor="middle" x="290.5" y="-458" font-family="Helvetica,sans-Serif" font-size="10.00">/veg/util/defer.hpp</text>
</a>
</g>
</g>
<!-- Node2 -->
<g id="node2" class="node">
<title>Node2</title>
<g id="a_node2"><a xlink:href="constructible_8hpp.html" target="_top" xlink:title=" ">
<polygon fill="white" stroke="#666666" points="314,-349 155,-349 155,-319 314,-319 314,-349"/>
<text text-anchor="start" x="163" y="-337" font-family="Helvetica,sans-Serif" font-size="10.00">proxsuite/linalg/veg</text>
<text text-anchor="middle" x="234.5" y="-326" font-family="Helvetica,sans-Serif" font-size="10.00">/type_traits/constructible.hpp</text>
</a>
</g>
</g>
<!-- Node1&#45;&gt;Node2 -->
<g id="edge1" class="edge">
<title>Node1&#45;&gt;Node2</title>
<path fill="none" stroke="#63b8ff" d="M281.34,-450.96C275.2,-441.16 267.22,-427.61 261.5,-415 253.21,-396.71 246.06,-375.09 241.21,-358.93"/>
<polygon fill="#63b8ff" stroke="#63b8ff" points="244.52,-357.81 238.36,-349.2 237.81,-359.78 244.52,-357.81"/>
</g>
<!-- Node11 -->
<g id="node11" class="node">
<title>Node11</title>
<g id="a_node11"><a xlink:href="prologue_8hpp.html" target="_top" xlink:title=" ">
<polygon fill="white" stroke="#666666" points="862.5,-85 738.5,-85 738.5,-55 862.5,-55 862.5,-85"/>
<text text-anchor="start" x="746.5" y="-73" font-family="Helvetica,sans-Serif" font-size="10.00">proxsuite/linalg/veg</text>
<text text-anchor="middle" x="800.5" y="-62" font-family="Helvetica,sans-Serif" font-size="10.00">/internal/prologue.hpp</text>
</a>
</g>
</g>
<!-- Node1&#45;&gt;Node11 -->
<g id="edge27" class="edge">
<title>Node1&#45;&gt;Node11</title>
<path fill="none" stroke="#63b8ff" d="M356.16,-462.6C497.83,-455.62 819.5,-429.4 819.5,-335 819.5,-335 819.5,-335 819.5,-201 819.5,-163.88 811.82,-121.41 806.23,-95.4"/>
<polygon fill="#63b8ff" stroke="#63b8ff" points="809.57,-94.33 803.98,-85.33 802.74,-95.85 809.57,-94.33"/>
</g>
<!-- Node13 -->
<g id="node13" class="node">
<title>Node13</title>
<g id="a_node13"><a xlink:href="epilogue_8hpp.html" target="_top" xlink:title=" ">
<polygon fill="white" stroke="#666666" points="123,-85 0,-85 0,-55 123,-55 123,-85"/>
<text text-anchor="start" x="8" y="-73" font-family="Helvetica,sans-Serif" font-size="10.00">proxsuite/linalg/veg</text>
<text text-anchor="middle" x="61.5" y="-62" font-family="Helvetica,sans-Serif" font-size="10.00">/internal/epilogue.hpp</text>
</a>
</g>
</g>
<!-- Node1&#45;&gt;Node13 -->
<g id="edge28" class="edge">
<title>Node1&#45;&gt;Node13</title>
<path fill="none" stroke="#63b8ff" d="M226.86,-450.96C169.63,-434.13 94.5,-399.72 94.5,-335 94.5,-335 94.5,-335 94.5,-201 94.5,-162.93 81.04,-120.47 71.32,-94.75"/>
<polygon fill="#63b8ff" stroke="#63b8ff" points="74.45,-93.17 67.55,-85.13 67.94,-95.72 74.45,-93.17"/>
</g>
<!-- Node15 -->
<g id="node15" class="node">
<title>Node15</title>
<g id="a_node15"><a xlink:href="invocable_8hpp.html" target="_top" xlink:title=" ">
<polygon fill="white" stroke="#666666" points="413,-415 270,-415 270,-385 413,-385 413,-415"/>
<text text-anchor="start" x="278" y="-403" font-family="Helvetica,sans-Serif" font-size="10.00">proxsuite/linalg/veg</text>
<text text-anchor="middle" x="341.5" y="-392" font-family="Helvetica,sans-Serif" font-size="10.00">/type_traits/invocable.hpp</text>
</a>
</g>
</g>
<!-- Node1&#45;&gt;Node15 -->
<g id="edge22" class="edge">
<title>Node1&#45;&gt;Node15</title>
<path fill="none" stroke="#63b8ff" d="M301.82,-450.8C308.29,-442.68 316.55,-432.31 323.85,-423.15"/>
<polygon fill="#63b8ff" stroke="#63b8ff" points="326.72,-425.17 330.21,-415.16 321.24,-420.8 326.72,-425.17"/>
</g>
<!-- Node3 -->
<g id="node3" class="node">
<title>Node3</title>
<g id="a_node3"><a xlink:href="veg_2type__traits_2core_8hpp.html" target="_top" xlink:title=" ">
<polygon fill="white" stroke="#666666" points="525,-283 408,-283 408,-253 525,-253 525,-283"/>
<text text-anchor="start" x="416" y="-271" font-family="Helvetica,sans-Serif" font-size="10.00">proxsuite/linalg/veg</text>
<text text-anchor="middle" x="466.5" y="-260" font-family="Helvetica,sans-Serif" font-size="10.00">/type_traits/core.hpp</text>
</a>
</g>
</g>
<!-- Node2&#45;&gt;Node3 -->
<g id="edge2" class="edge">
<title>Node2&#45;&gt;Node3</title>
<path fill="none" stroke="#63b8ff" d="M285.41,-318.95C320.92,-309.16 368.46,-296.05 405.92,-285.71"/>
<polygon fill="#63b8ff" stroke="#63b8ff" points="407,-289.05 415.71,-283.01 405.13,-282.3 407,-289.05"/>
</g>
<!-- Node2&#45;&gt;Node11 -->
<g id="edge19" class="edge">
<title>Node2&#45;&gt;Node11</title>
<path fill="none" stroke="#63b8ff" d="M314.3,-327.95C376,-322.11 462.71,-309.6 534.5,-283 643.71,-242.54 742.53,-138.59 782.14,-93"/>
<polygon fill="#63b8ff" stroke="#63b8ff" points="784.99,-95.06 788.84,-85.19 779.67,-90.5 784.99,-95.06"/>
</g>
<!-- Node2&#45;&gt;Node13 -->
<g id="edge21" class="edge">
<title>Node2&#45;&gt;Node13</title>
<path fill="none" stroke="#63b8ff" d="M233.06,-318.77C230.96,-302.25 226.09,-274.52 215.5,-253 182.69,-186.3 120.12,-123.61 85.69,-92.13"/>
<polygon fill="#63b8ff" stroke="#63b8ff" points="87.76,-89.28 77.99,-85.18 83.07,-94.47 87.76,-89.28"/>
</g>
<!-- Node14 -->
<g id="node14" class="node">
<title>Node14</title>
<g id="a_node14"><a xlink:title=" ">
<polygon fill="#e0e0e0" stroke="#999999" points="206,-277.5 137,-277.5 137,-258.5 206,-258.5 206,-277.5"/>
<text text-anchor="middle" x="171.5" y="-265.5" font-family="Helvetica,sans-Serif" font-size="10.00">type_traits</text>
</a>
</g>
</g>
<!-- Node2&#45;&gt;Node14 -->
<g id="edge20" class="edge">
<title>Node2&#45;&gt;Node14</title>
<path fill="none" stroke="#63b8ff" d="M220.52,-318.8C210.7,-308.82 197.54,-295.46 187.33,-285.09"/>
<polygon fill="#63b8ff" stroke="#63b8ff" points="189.72,-282.52 180.21,-277.84 184.73,-287.43 189.72,-282.52"/>
</g>
<!-- Node4 -->
<g id="node4" class="node">
<title>Node4</title>
<g id="a_node4"><a xlink:href="typedefs_8hpp.html" target="_top" xlink:title=" ">
<polygon fill="white" stroke="#666666" points="720.5,-85 596.5,-85 596.5,-55 720.5,-55 720.5,-85"/>
<text text-anchor="start" x="604.5" y="-73" font-family="Helvetica,sans-Serif" font-size="10.00">proxsuite/linalg/veg</text>
<text text-anchor="middle" x="658.5" y="-62" font-family="Helvetica,sans-Serif" font-size="10.00">/internal/typedefs.hpp</text>
</a>
</g>
</g>
<!-- Node3&#45;&gt;Node4 -->
<g id="edge3" class="edge">
<title>Node3&#45;&gt;Node4</title>
<path fill="none" stroke="#63b8ff" d="M518.83,-253C540.49,-245.17 564.67,-233.57 582.5,-217 619.36,-182.74 641.47,-126.53 651.68,-94.78"/>
<polygon fill="#63b8ff" stroke="#63b8ff" points="655.09,-95.6 654.69,-85.02 648.4,-93.54 655.09,-95.6"/>
</g>
<!-- Node7 -->
<g id="node7" class="node">
<title>Node7</title>
<g id="a_node7"><a xlink:href="integer__seq_8hpp.html" target="_top" xlink:title=" ">
<polygon fill="white" stroke="#666666" points="573.5,-217 435.5,-217 435.5,-187 573.5,-187 573.5,-217"/>
<text text-anchor="start" x="443.5" y="-205" font-family="Helvetica,sans-Serif" font-size="10.00">proxsuite/linalg/veg</text>
<text text-anchor="middle" x="504.5" y="-194" font-family="Helvetica,sans-Serif" font-size="10.00">/internal/integer_seq.hpp</text>
</a>
</g>
</g>
<!-- Node3&#45;&gt;Node7 -->
<g id="edge6" class="edge">
<title>Node3&#45;&gt;Node7</title>
<path fill="none" stroke="#63b8ff" d="M474.93,-252.8C479.61,-244.92 485.53,-234.95 490.85,-225.99"/>
<polygon fill="#63b8ff" stroke="#63b8ff" points="493.99,-227.55 496.09,-217.16 487.98,-223.98 493.99,-227.55"/>
</g>
<!-- Node3&#45;&gt;Node11 -->
<g id="edge17" class="edge">
<title>Node3&#45;&gt;Node11</title>
<path fill="none" stroke="#63b8ff" d="M519.55,-252.92C547.03,-244.49 580.59,-232.42 608.5,-217 668.59,-183.81 674.53,-162.11 729.5,-121 743.04,-110.88 758.34,-100.03 771.26,-91.03"/>
<polygon fill="#63b8ff" stroke="#63b8ff" points="773.55,-93.71 779.77,-85.13 769.56,-87.95 773.55,-93.71"/>
</g>
<!-- Node3&#45;&gt;Node13 -->
<g id="edge18" class="edge">
<title>Node3&#45;&gt;Node13</title>
<path fill="none" stroke="#63b8ff" d="M454.8,-252.67C446.75,-242.74 435.85,-229.16 426.5,-217 394.14,-174.94 400.83,-148.59 355.5,-121 272.05,-70.22 233.19,-100.83 133.18,-85.16"/>
<polygon fill="#63b8ff" stroke="#63b8ff" points="133.76,-81.71 123.31,-83.5 132.59,-88.61 133.76,-81.71"/>
</g>
<!-- Node5 -->
<g id="node5" class="node">
<title>Node5</title>
<g id="a_node5"><a xlink:title=" ">
<polygon fill="#e0e0e0" stroke="#999999" points="648.5,-19 598.5,-19 598.5,0 648.5,0 648.5,-19"/>
<text text-anchor="middle" x="623.5" y="-7" font-family="Helvetica,sans-Serif" font-size="10.00">cstdint</text>
</a>
</g>
</g>
<!-- Node4&#45;&gt;Node5 -->
<g id="edge4" class="edge">
<title>Node4&#45;&gt;Node5</title>
<path fill="none" stroke="#63b8ff" d="M650.03,-54.84C645.21,-46.78 639.13,-36.62 634,-28.06"/>
<polygon fill="#63b8ff" stroke="#63b8ff" points="636.88,-26.05 628.74,-19.27 630.88,-29.64 636.88,-26.05"/>
</g>
<!-- Node6 -->
<g id="node6" class="node">
<title>Node6</title>
<g id="a_node6"><a xlink:title=" ">
<polygon fill="#e0e0e0" stroke="#999999" points="720,-19 667,-19 667,0 720,0 720,-19"/>
<text text-anchor="middle" x="693.5" y="-7" font-family="Helvetica,sans-Serif" font-size="10.00">cstddef</text>
</a>
</g>
</g>
<!-- Node4&#45;&gt;Node6 -->
<g id="edge5" class="edge">
<title>Node4&#45;&gt;Node6</title>
<path fill="none" stroke="#63b8ff" d="M666.97,-54.84C671.79,-46.78 677.87,-36.62 683,-28.06"/>
<polygon fill="#63b8ff" stroke="#63b8ff" points="686.12,-29.64 688.26,-19.27 680.12,-26.05 686.12,-29.64"/>
</g>
<!-- Node7&#45;&gt;Node4 -->
<g id="edge7" class="edge">
<title>Node7&#45;&gt;Node4</title>
<path fill="none" stroke="#63b8ff" d="M524.9,-186.93C538.65,-177.22 557.04,-163.8 572.5,-151 595.38,-132.05 620.07,-108.76 637.1,-92.21"/>
<polygon fill="#63b8ff" stroke="#63b8ff" points="639.65,-94.61 644.35,-85.11 634.76,-89.6 639.65,-94.61"/>
</g>
<!-- Node8 -->
<g id="node8" class="node">
<title>Node8</title>
<g id="a_node8"><a xlink:href="macros_8hpp.html" target="_top" xlink:title=" ">
<polygon fill="white" stroke="#666666" points="563,-151 446,-151 446,-121 563,-121 563,-151"/>
<text text-anchor="start" x="454" y="-139" font-family="Helvetica,sans-Serif" font-size="10.00">proxsuite/linalg/veg</text>
<text text-anchor="middle" x="504.5" y="-128" font-family="Helvetica,sans-Serif" font-size="10.00">/internal/macros.hpp</text>
</a>
</g>
</g>
<!-- Node7&#45;&gt;Node8 -->
<g id="edge8" class="edge">
<title>Node7&#45;&gt;Node8</title>
<path fill="none" stroke="#63b8ff" d="M504.5,-186.8C504.5,-179.34 504.5,-169.99 504.5,-161.41"/>
<polygon fill="#63b8ff" stroke="#63b8ff" points="508,-161.16 504.5,-151.16 501,-161.16 508,-161.16"/>
</g>
<!-- Node7&#45;&gt;Node11 -->
<g id="edge15" class="edge">
<title>Node7&#45;&gt;Node11</title>
<path fill="none" stroke="#63b8ff" d="M536.46,-186.96C590.27,-163.33 698.93,-115.61 758.71,-89.35"/>
<polygon fill="#63b8ff" stroke="#63b8ff" points="760.48,-92.4 768.23,-85.17 757.66,-85.99 760.48,-92.4"/>
</g>
<!-- Node7&#45;&gt;Node13 -->
<g id="edge16" class="edge">
<title>Node7&#45;&gt;Node13</title>
<path fill="none" stroke="#63b8ff" d="M485.29,-186.79C454.9,-164.35 398.63,-123.05 393.5,-121 287.35,-78.54 249.48,-103.1 133.29,-85.19"/>
<polygon fill="#63b8ff" stroke="#63b8ff" points="133.73,-81.71 123.3,-83.57 132.61,-88.62 133.73,-81.71"/>
</g>
<!-- Node8&#45;&gt;Node4 -->
<g id="edge10" class="edge">
<title>Node8&#45;&gt;Node4</title>
<path fill="none" stroke="#63b8ff" d="M538.3,-120.95C560.96,-111.53 591.02,-99.04 615.4,-88.91"/>
<polygon fill="#63b8ff" stroke="#63b8ff" points="616.89,-92.08 624.78,-85.01 614.21,-85.62 616.89,-92.08"/>
</g>
<!-- Node9 -->
<g id="node9" class="node">
<title>Node9</title>
<g id="a_node9"><a xlink:href="hedley_8ext_8hpp.html" target="_top" xlink:title=" ">
<polygon fill="white" stroke="#666666" points="316,-85 141,-85 141,-55 316,-55 316,-85"/>
<text text-anchor="start" x="149" y="-73" font-family="Helvetica,sans-Serif" font-size="10.00">proxsuite/linalg/veg</text>
<text text-anchor="middle" x="228.5" y="-62" font-family="Helvetica,sans-Serif" font-size="10.00">/internal/external/hedley.ext.hpp</text>
</a>
</g>
</g>
<!-- Node8&#45;&gt;Node9 -->
<g id="edge9" class="edge">
<title>Node8&#45;&gt;Node9</title>
<path fill="none" stroke="#63b8ff" d="M445.97,-121.43C403.07,-111.48 344.63,-97.93 299.13,-87.38"/>
<polygon fill="#63b8ff" stroke="#63b8ff" points="299.87,-83.96 289.34,-85.11 298.29,-90.78 299.87,-83.96"/>
</g>
<!-- Node10 -->
<g id="node10" class="node">
<title>Node10</title>
<g id="a_node10"><a xlink:href="preprocessor_8hpp.html" target="_top" xlink:title=" ">
<polygon fill="white" stroke="#666666" points="477,-85 334,-85 334,-55 477,-55 477,-85"/>
<text text-anchor="start" x="342" y="-73" font-family="Helvetica,sans-Serif" font-size="10.00">proxsuite/linalg/veg</text>
<text text-anchor="middle" x="405.5" y="-62" font-family="Helvetica,sans-Serif" font-size="10.00">/internal/preprocessor.hpp</text>
</a>
</g>
</g>
<!-- Node8&#45;&gt;Node10 -->
<g id="edge11" class="edge">
<title>Node8&#45;&gt;Node10</title>
<path fill="none" stroke="#63b8ff" d="M482.53,-120.8C468.81,-111.93 450.97,-100.39 435.9,-90.66"/>
<polygon fill="#63b8ff" stroke="#63b8ff" points="437.71,-87.65 427.41,-85.16 433.91,-93.53 437.71,-87.65"/>
</g>
<!-- Node8&#45;&gt;Node11 -->
<g id="edge12" class="edge">
<title>Node8&#45;&gt;Node11</title>
<path fill="none" stroke="#63b8ff" d="M563.33,-122.28C610.83,-112.01 677.86,-97.52 728.55,-86.56"/>
<polygon fill="#63b8ff" stroke="#63b8ff" points="729.43,-89.95 738.46,-84.41 727.95,-83.11 729.43,-89.95"/>
</g>
<!-- Node12 -->
<g id="node12" class="node">
<title>Node12</title>
<g id="a_node12"><a xlink:title=" ">
<polygon fill="#e0e0e0" stroke="#999999" points="578,-79.5 495,-79.5 495,-60.5 578,-60.5 578,-79.5"/>
<text text-anchor="middle" x="536.5" y="-67.5" font-family="Helvetica,sans-Serif" font-size="10.00">initializer_list</text>
</a>
</g>
</g>
<!-- Node8&#45;&gt;Node12 -->
<g id="edge13" class="edge">
<title>Node8&#45;&gt;Node12</title>
<path fill="none" stroke="#63b8ff" d="M511.6,-120.8C516.3,-111.41 522.49,-99.02 527.53,-88.95"/>
<polygon fill="#63b8ff" stroke="#63b8ff" points="530.74,-90.35 532.08,-79.84 524.48,-87.22 530.74,-90.35"/>
</g>
<!-- Node8&#45;&gt;Node13 -->
<g id="edge14" class="edge">
<title>Node8&#45;&gt;Node13</title>
<path fill="none" stroke="#63b8ff" d="M445.99,-123.41C441.1,-122.55 436.22,-121.73 431.5,-121 302.05,-100.85 265.86,-105.91 133.42,-85.23"/>
<polygon fill="#63b8ff" stroke="#63b8ff" points="133.71,-81.74 123.29,-83.63 132.62,-88.65 133.71,-81.74"/>
</g>
<!-- Node15&#45;&gt;Node2 -->
<g id="edge24" class="edge">
<title>Node15&#45;&gt;Node2</title>
<path fill="none" stroke="#63b8ff" d="M318.02,-384.95C302.97,-375.95 283.23,-364.14 266.72,-354.27"/>
<polygon fill="#63b8ff" stroke="#63b8ff" points="268.31,-351.14 257.93,-349.01 264.71,-357.15 268.31,-351.14"/>
</g>
<!-- Node15&#45;&gt;Node3 -->
<g id="edge23" class="edge">
<title>Node15&#45;&gt;Node3</title>
<path fill="none" stroke="#63b8ff" d="M355.12,-384.84C377,-362.08 420.14,-317.21 445.84,-290.49"/>
<polygon fill="#63b8ff" stroke="#63b8ff" points="448.49,-292.78 452.9,-283.14 443.45,-287.92 448.49,-292.78"/>
</g>
<!-- Node15&#45;&gt;Node11 -->
<g id="edge25" class="edge">
<title>Node15&#45;&gt;Node11</title>
<path fill="none" stroke="#63b8ff" d="M413.17,-392.72C537.85,-379.81 781.5,-344.87 781.5,-269 781.5,-269 781.5,-269 781.5,-201 781.5,-163.88 789.18,-121.41 794.77,-95.4"/>
<polygon fill="#63b8ff" stroke="#63b8ff" points="798.26,-95.85 797.02,-85.33 791.43,-94.33 798.26,-95.85"/>
</g>
<!-- Node15&#45;&gt;Node13 -->
<g id="edge26" class="edge">
<title>Node15&#45;&gt;Node13</title>
<path fill="none" stroke="#63b8ff" d="M341.5,-384.96C341.5,-361.12 341.5,-311.2 341.5,-269 341.5,-269 341.5,-269 341.5,-201 341.5,-154.13 210.82,-110.63 128.01,-87.77"/>
<polygon fill="#63b8ff" stroke="#63b8ff" points="128.73,-84.33 118.16,-85.08 126.89,-91.09 128.73,-84.33"/>
</g>
</g>
</svg>
