<?xml version="1.0" encoding="UTF-8" standalone="no"?>
<!DOCTYPE svg PUBLIC "-//W3C//DTD SVG 1.1//EN"
 "http://www.w3.org/Graphics/SVG/1.1/DTD/svg11.dtd">
<!-- Generated by graphviz version 6.0.1 (20220911.2005)
 -->
<!-- Title: include/proxsuite/linalg/veg/internal/delete_special_members.hpp Pages: 1 -->
<svg width="1759pt" height="786pt"
 viewBox="0.00 0.00 1758.50 786.00" xmlns="http://www.w3.org/2000/svg" xmlns:xlink="http://www.w3.org/1999/xlink">
<g id="graph0" class="graph" transform="scale(1 1) rotate(0) translate(4 782)">
<title>include/proxsuite/linalg/veg/internal/delete_special_members.hpp</title>
<!-- Node1 -->
<g id="node1" class="node">
<title>Node1</title>
<g id="a_node1"><a xlink:title=" ">
<polygon fill="#999999" stroke="#666666" points="1211,-778 1059,-778 1059,-737 1211,-737 1211,-778"/>
<text text-anchor="start" x="1067" y="-766" font-family="Helvetica,sans-Serif" font-size="10.00">include/proxsuite/linalg</text>
<text text-anchor="start" x="1067" y="-755" font-family="Helvetica,sans-Serif" font-size="10.00">/veg/internal/delete_special</text>
<text text-anchor="middle" x="1135" y="-744" font-family="Helvetica,sans-Serif" font-size="10.00">_members.hpp</text>
</a>
</g>
</g>
<!-- Node2 -->
<g id="node2" class="node">
<title>Node2</title>
<g id="a_node2"><a xlink:href="vec_8hpp.html" target="_top" xlink:title=" ">
<polygon fill="white" stroke="#666666" points="1200.5,-701 1069.5,-701 1069.5,-671 1200.5,-671 1200.5,-701"/>
<text text-anchor="start" x="1077.5" y="-689" font-family="Helvetica,sans-Serif" font-size="10.00">include/proxsuite/linalg</text>
<text text-anchor="middle" x="1135" y="-678" font-family="Helvetica,sans-Serif" font-size="10.00">/veg/vec.hpp</text>
</a>
</g>
</g>
<!-- Node1&#45;&gt;Node2 -->
<g id="edge1" class="edge">
<title>Node1&#45;&gt;Node2</title>
<path fill="none" stroke="#63b8ff" d="M1135,-726.66C1135,-717.76 1135,-708.42 1135,-701.04"/>
<polygon fill="#63b8ff" stroke="#63b8ff" points="1131.5,-726.77 1135,-736.77 1138.5,-726.77 1131.5,-726.77"/>
</g>
<!-- Node3 -->
<g id="node3" class="node">
<title>Node3</title>
<g id="a_node3"><a xlink:href="ldlt_8hpp.html" target="_top" xlink:title=" ">
<polygon fill="white" stroke="#666666" points="1502.5,-503 1371.5,-503 1371.5,-473 1502.5,-473 1502.5,-503"/>
<text text-anchor="start" x="1379.5" y="-491" font-family="Helvetica,sans-Serif" font-size="10.00">include/proxsuite/linalg</text>
<text text-anchor="middle" x="1437" y="-480" font-family="Helvetica,sans-Serif" font-size="10.00">/dense/ldlt.hpp</text>
</a>
</g>
</g>
<!-- Node2&#45;&gt;Node3 -->
<g id="edge2" class="edge">
<title>Node2&#45;&gt;Node3</title>
<path fill="none" stroke="#63b8ff" d="M1176.58,-666.08C1190.79,-658.06 1205.88,-647.62 1217,-635 1247.9,-599.92 1224.62,-569.56 1260,-539 1276.91,-524.39 1328.26,-510.8 1371.33,-501.49"/>
<polygon fill="#63b8ff" stroke="#63b8ff" points="1174.58,-663.18 1167.42,-671 1177.89,-669.35 1174.58,-663.18"/>
</g>
<!-- Node7 -->
<g id="node7" class="node">
<title>Node7</title>
<g id="a_node7"><a xlink:href="dense_2workspace_8hpp.html" target="_top" xlink:title=" ">
<polygon fill="white" stroke="#666666" points="1507.5,-437 1370.5,-437 1370.5,-407 1507.5,-407 1507.5,-437"/>
<text text-anchor="start" x="1378.5" y="-425" font-family="Helvetica,sans-Serif" font-size="10.00">include/proxsuite/proxqp</text>
<text text-anchor="middle" x="1439" y="-414" font-family="Helvetica,sans-Serif" font-size="10.00">/dense/workspace.hpp</text>
</a>
</g>
</g>
<!-- Node2&#45;&gt;Node7 -->
<g id="edge13" class="edge">
<title>Node2&#45;&gt;Node7</title>
<path fill="none" stroke="#63b8ff" d="M1210.66,-674.82C1302.65,-657.76 1452.83,-613.58 1511,-503 1517.21,-491.2 1517.18,-484.81 1511,-473 1502.68,-457.09 1486.73,-445.22 1471.95,-437.05"/>
<polygon fill="#63b8ff" stroke="#63b8ff" points="1209.79,-671.42 1200.56,-676.63 1211.02,-678.31 1209.79,-671.42"/>
</g>
<!-- Node10 -->
<g id="node10" class="node">
<title>Node10</title>
<g id="a_node10"><a xlink:href="dynstack__alloc_8hpp.html" target="_top" xlink:title=" ">
<polygon fill="white" stroke="#666666" points="1750.5,-635 1597.5,-635 1597.5,-605 1750.5,-605 1750.5,-635"/>
<text text-anchor="start" x="1605.5" y="-623" font-family="Helvetica,sans-Serif" font-size="10.00">include/proxsuite/linalg</text>
<text text-anchor="middle" x="1674" y="-612" font-family="Helvetica,sans-Serif" font-size="10.00">/veg/util/dynstack_alloc.hpp</text>
</a>
</g>
</g>
<!-- Node2&#45;&gt;Node10 -->
<g id="edge11" class="edge">
<title>Node2&#45;&gt;Node10</title>
<path fill="none" stroke="#63b8ff" d="M1210.79,-677.51C1299.98,-668.47 1452.46,-652.32 1583,-635 1587.6,-634.39 1592.32,-633.74 1597.08,-633.06"/>
<polygon fill="#63b8ff" stroke="#63b8ff" points="1210.37,-674.03 1200.77,-678.52 1211.07,-681 1210.37,-674.03"/>
</g>
<!-- Node11 -->
<g id="node11" class="node">
<title>Node11</title>
<g id="a_node11"><a xlink:href="results_8hpp.html" target="_top" xlink:title=" ">
<polygon fill="white" stroke="#666666" points="1237.5,-437 1100.5,-437 1100.5,-407 1237.5,-407 1237.5,-437"/>
<text text-anchor="start" x="1108.5" y="-425" font-family="Helvetica,sans-Serif" font-size="10.00">include/proxsuite/proxqp</text>
<text text-anchor="middle" x="1169" y="-414" font-family="Helvetica,sans-Serif" font-size="10.00">/results.hpp</text>
</a>
</g>
</g>
<!-- Node2&#45;&gt;Node11 -->
<g id="edge14" class="edge">
<title>Node2&#45;&gt;Node11</title>
<path fill="none" stroke="#63b8ff" d="M1147.68,-662.03C1159.5,-639.22 1176.27,-602.86 1183,-569 1192.48,-521.3 1180.02,-463.5 1173.08,-437.23"/>
<polygon fill="#63b8ff" stroke="#63b8ff" points="1144.56,-660.45 1142.97,-670.93 1150.74,-663.73 1144.56,-660.45"/>
</g>
<!-- Node13 -->
<g id="node13" class="node">
<title>Node13</title>
<g id="a_node13"><a xlink:href="sparse_2solver_8hpp.html" target="_top" xlink:title=" ">
<polygon fill="white" stroke="#666666" points="618.5,-162 481.5,-162 481.5,-132 618.5,-132 618.5,-162"/>
<text text-anchor="start" x="489.5" y="-150" font-family="Helvetica,sans-Serif" font-size="10.00">include/proxsuite/proxqp</text>
<text text-anchor="middle" x="550" y="-139" font-family="Helvetica,sans-Serif" font-size="10.00">/sparse/solver.hpp</text>
</a>
</g>
</g>
<!-- Node2&#45;&gt;Node13 -->
<g id="edge66" class="edge">
<title>Node2&#45;&gt;Node13</title>
<path fill="none" stroke="#63b8ff" d="M1059.03,-683.8C836.89,-679.93 198.6,-666.22 110,-635 52.98,-614.91 0,-615.45 0,-555 0,-555 0,-555 0,-278 0,-180.13 334.02,-155.85 481.45,-149.9"/>
<polygon fill="#63b8ff" stroke="#63b8ff" points="1059.23,-687.3 1069.29,-683.97 1059.35,-680.3 1059.23,-687.3"/>
</g>
<!-- Node16 -->
<g id="node16" class="node">
<title>Node16</title>
<g id="a_node16"><a xlink:href="sparse_2utils_8hpp.html" target="_top" xlink:title=" ">
<polygon fill="white" stroke="#666666" points="473.5,-294 336.5,-294 336.5,-264 473.5,-264 473.5,-294"/>
<text text-anchor="start" x="344.5" y="-282" font-family="Helvetica,sans-Serif" font-size="10.00">include/proxsuite/proxqp</text>
<text text-anchor="middle" x="405" y="-271" font-family="Helvetica,sans-Serif" font-size="10.00">/sparse/utils.hpp</text>
</a>
</g>
</g>
<!-- Node2&#45;&gt;Node16 -->
<g id="edge67" class="edge">
<title>Node2&#45;&gt;Node16</title>
<path fill="none" stroke="#63b8ff" d="M1059.13,-684.64C941.32,-682.79 707.76,-673.99 514,-635 402.12,-612.49 270,-669.12 270,-555 270,-555 270,-555 270,-421 270,-360.34 336,-315.57 375.71,-294.13"/>
<polygon fill="#63b8ff" stroke="#63b8ff" points="1059.43,-688.14 1069.48,-684.79 1059.53,-681.14 1059.43,-688.14"/>
</g>
<!-- Node17 -->
<g id="node17" class="node">
<title>Node17</title>
<g id="a_node17"><a xlink:href="sparse_2workspace_8hpp.html" target="_top" xlink:title=" ">
<polygon fill="white" stroke="#666666" points="570.5,-228 433.5,-228 433.5,-198 570.5,-198 570.5,-228"/>
<text text-anchor="start" x="441.5" y="-216" font-family="Helvetica,sans-Serif" font-size="10.00">include/proxsuite/proxqp</text>
<text text-anchor="middle" x="502" y="-205" font-family="Helvetica,sans-Serif" font-size="10.00">/sparse/workspace.hpp</text>
</a>
</g>
</g>
<!-- Node2&#45;&gt;Node17 -->
<g id="edge69" class="edge">
<title>Node2&#45;&gt;Node17</title>
<path fill="none" stroke="#63b8ff" d="M1059.24,-683.99C811.01,-679.69 38,-658.03 38,-555 38,-555 38,-555 38,-349.5 38,-268.15 304.12,-232.3 433.29,-219.69"/>
<polygon fill="#63b8ff" stroke="#63b8ff" points="1059.2,-687.49 1069.26,-684.16 1059.32,-680.49 1059.2,-687.49"/>
</g>
<!-- Node18 -->
<g id="node18" class="node">
<title>Node18</title>
<g id="a_node18"><a xlink:href="sparse_2views_8hpp.html" target="_top" xlink:title=" ">
<polygon fill="white" stroke="#666666" points="549.5,-365.5 412.5,-365.5 412.5,-335.5 549.5,-335.5 549.5,-365.5"/>
<text text-anchor="start" x="420.5" y="-353.5" font-family="Helvetica,sans-Serif" font-size="10.00">include/proxsuite/proxqp</text>
<text text-anchor="middle" x="481" y="-342.5" font-family="Helvetica,sans-Serif" font-size="10.00">/sparse/views.hpp</text>
</a>
</g>
</g>
<!-- Node2&#45;&gt;Node18 -->
<g id="edge68" class="edge">
<title>Node2&#45;&gt;Node18</title>
<path fill="none" stroke="#63b8ff" d="M1059.12,-679.24C873.77,-664.16 413,-620.12 413,-555 413,-555 413,-555 413,-487 413,-438.31 448.51,-389.23 468.21,-365.75"/>
<polygon fill="#63b8ff" stroke="#63b8ff" points="1059.08,-682.75 1069.33,-680.07 1059.65,-675.77 1059.08,-682.75"/>
</g>
<!-- Node19 -->
<g id="node19" class="node">
<title>Node19</title>
<g id="a_node19"><a xlink:href="sparse_2fwd_8hpp.html" target="_top" xlink:title=" ">
<polygon fill="white" stroke="#666666" points="1058.5,-635 921.5,-635 921.5,-605 1058.5,-605 1058.5,-635"/>
<text text-anchor="start" x="929.5" y="-623" font-family="Helvetica,sans-Serif" font-size="10.00">include/proxsuite/proxqp</text>
<text text-anchor="middle" x="990" y="-612" font-family="Helvetica,sans-Serif" font-size="10.00">/sparse/fwd.hpp</text>
</a>
</g>
</g>
<!-- Node2&#45;&gt;Node19 -->
<g id="edge33" class="edge">
<title>Node2&#45;&gt;Node19</title>
<path fill="none" stroke="#63b8ff" d="M1093.73,-666.78C1070.87,-656.69 1042.88,-644.34 1021.75,-635.01"/>
<polygon fill="#63b8ff" stroke="#63b8ff" points="1092.62,-670.12 1103.18,-670.95 1095.44,-663.71 1092.62,-670.12"/>
</g>
<!-- Node21 -->
<g id="node21" class="node">
<title>Node21</title>
<g id="a_node21"><a xlink:href="sparse_2helpers_8hpp.html" target="_top" xlink:title=" ">
<polygon fill="white" stroke="#666666" points="1406.5,-569 1269.5,-569 1269.5,-539 1406.5,-539 1406.5,-569"/>
<text text-anchor="start" x="1277.5" y="-557" font-family="Helvetica,sans-Serif" font-size="10.00">include/proxsuite/proxqp</text>
<text text-anchor="middle" x="1338" y="-546" font-family="Helvetica,sans-Serif" font-size="10.00">/sparse/helpers.hpp</text>
</a>
</g>
</g>
<!-- Node2&#45;&gt;Node21 -->
<g id="edge65" class="edge">
<title>Node2&#45;&gt;Node21</title>
<path fill="none" stroke="#63b8ff" d="M1189.06,-667.39C1210.49,-659.18 1234.79,-648.26 1255,-635 1283.78,-616.11 1311.35,-586.49 1326.35,-569.09"/>
<polygon fill="#63b8ff" stroke="#63b8ff" points="1187.59,-664.21 1179.44,-670.98 1190.03,-670.77 1187.59,-664.21"/>
</g>
<!-- Node4 -->
<g id="node4" class="node">
<title>Node4</title>
<g id="a_node4"><a xlink:href="dense_2solver_8hpp.html" target="_top" xlink:title=" ">
<polygon fill="white" stroke="#666666" points="1526.5,-294 1389.5,-294 1389.5,-264 1526.5,-264 1526.5,-294"/>
<text text-anchor="start" x="1397.5" y="-282" font-family="Helvetica,sans-Serif" font-size="10.00">include/proxsuite/proxqp</text>
<text text-anchor="middle" x="1458" y="-271" font-family="Helvetica,sans-Serif" font-size="10.00">/dense/solver.hpp</text>
</a>
</g>
</g>
<!-- Node3&#45;&gt;Node4 -->
<g id="edge3" class="edge">
<title>Node3&#45;&gt;Node4</title>
<path fill="none" stroke="#63b8ff" d="M1483.6,-467.99C1496.4,-460.36 1508.75,-450.17 1516,-437 1538.94,-395.34 1535.81,-373.23 1516,-330 1509.08,-314.89 1495.09,-302.62 1482.58,-294.01"/>
<polygon fill="#63b8ff" stroke="#63b8ff" points="1481.79,-464.99 1474.72,-472.88 1485.17,-471.12 1481.79,-464.99"/>
</g>
<!-- Node3&#45;&gt;Node7 -->
<g id="edge6" class="edge">
<title>Node3&#45;&gt;Node7</title>
<path fill="none" stroke="#63b8ff" d="M1437.76,-462.54C1438.03,-453.96 1438.32,-444.61 1438.56,-437.16"/>
<polygon fill="#63b8ff" stroke="#63b8ff" points="1434.26,-462.69 1437.44,-472.8 1441.25,-462.91 1434.26,-462.69"/>
</g>
<!-- Node5 -->
<g id="node5" class="node">
<title>Node5</title>
<g id="a_node5"><a xlink:href="dense_2wrapper_8hpp.html" target="_top" xlink:title=" ">
<polygon fill="white" stroke="#666666" points="1477.5,-228 1340.5,-228 1340.5,-198 1477.5,-198 1477.5,-228"/>
<text text-anchor="start" x="1348.5" y="-216" font-family="Helvetica,sans-Serif" font-size="10.00">include/proxsuite/proxqp</text>
<text text-anchor="middle" x="1409" y="-205" font-family="Helvetica,sans-Serif" font-size="10.00">/dense/wrapper.hpp</text>
</a>
</g>
</g>
<!-- Node4&#45;&gt;Node5 -->
<g id="edge4" class="edge">
<title>Node4&#45;&gt;Node5</title>
<path fill="none" stroke="#63b8ff" d="M1441.01,-255.81C1433.99,-246.64 1426.06,-236.28 1419.84,-228.16"/>
<polygon fill="#63b8ff" stroke="#63b8ff" points="1438.27,-257.98 1447.13,-263.8 1443.83,-253.73 1438.27,-257.98"/>
</g>
<!-- Node6 -->
<g id="node6" class="node">
<title>Node6</title>
<g id="a_node6"><a xlink:href="dense_8hpp.html" target="_top" xlink:title=" ">
<polygon fill="white" stroke="#666666" points="1477.5,-162 1340.5,-162 1340.5,-132 1477.5,-132 1477.5,-162"/>
<text text-anchor="start" x="1348.5" y="-150" font-family="Helvetica,sans-Serif" font-size="10.00">include/proxsuite/proxqp</text>
<text text-anchor="middle" x="1409" y="-139" font-family="Helvetica,sans-Serif" font-size="10.00">/dense/dense.hpp</text>
</a>
</g>
</g>
<!-- Node5&#45;&gt;Node6 -->
<g id="edge5" class="edge">
<title>Node5&#45;&gt;Node6</title>
<path fill="none" stroke="#63b8ff" d="M1409,-187.54C1409,-178.96 1409,-169.61 1409,-162.16"/>
<polygon fill="#63b8ff" stroke="#63b8ff" points="1405.5,-187.8 1409,-197.8 1412.5,-187.8 1405.5,-187.8"/>
</g>
<!-- Node8 -->
<g id="node8" class="node">
<title>Node8</title>
<g id="a_node8"><a xlink:href="linesearch_8hpp.html" target="_top" xlink:title=" ">
<polygon fill="white" stroke="#666666" points="1352.5,-365.5 1215.5,-365.5 1215.5,-335.5 1352.5,-335.5 1352.5,-365.5"/>
<text text-anchor="start" x="1223.5" y="-353.5" font-family="Helvetica,sans-Serif" font-size="10.00">include/proxsuite/proxqp</text>
<text text-anchor="middle" x="1284" y="-342.5" font-family="Helvetica,sans-Serif" font-size="10.00">/dense/linesearch.hpp</text>
</a>
</g>
</g>
<!-- Node7&#45;&gt;Node8 -->
<g id="edge7" class="edge">
<title>Node7&#45;&gt;Node8</title>
<path fill="none" stroke="#63b8ff" d="M1398.42,-402.81C1372.45,-391.16 1339.26,-376.28 1315.32,-365.54"/>
<polygon fill="#63b8ff" stroke="#63b8ff" points="1397.08,-406.04 1407.63,-406.94 1399.94,-399.65 1397.08,-406.04"/>
</g>
<!-- Node9 -->
<g id="node9" class="node">
<title>Node9</title>
<g id="a_node9"><a xlink:href="dense_2utils_8hpp.html" target="_top" xlink:title=" ">
<polygon fill="white" stroke="#666666" points="1197.5,-365.5 1060.5,-365.5 1060.5,-335.5 1197.5,-335.5 1197.5,-365.5"/>
<text text-anchor="start" x="1068.5" y="-353.5" font-family="Helvetica,sans-Serif" font-size="10.00">include/proxsuite/proxqp</text>
<text text-anchor="middle" x="1129" y="-342.5" font-family="Helvetica,sans-Serif" font-size="10.00">/dense/utils.hpp</text>
</a>
</g>
</g>
<!-- Node7&#45;&gt;Node9 -->
<g id="edge9" class="edge">
<title>Node7&#45;&gt;Node9</title>
<path fill="none" stroke="#63b8ff" d="M1360.5,-404.9C1315.24,-395.43 1257.31,-383 1206,-371 1198.75,-369.3 1191.13,-367.46 1183.62,-365.6"/>
<polygon fill="#63b8ff" stroke="#63b8ff" points="1360.04,-408.38 1370.54,-407 1361.47,-401.53 1360.04,-408.38"/>
</g>
<!-- Node8&#45;&gt;Node4 -->
<g id="edge8" class="edge">
<title>Node8&#45;&gt;Node4</title>
<path fill="none" stroke="#63b8ff" d="M1328.79,-331.61C1358.05,-319.92 1395.73,-304.87 1422.84,-294.04"/>
<polygon fill="#63b8ff" stroke="#63b8ff" points="1327.2,-328.48 1319.21,-335.44 1329.8,-334.98 1327.2,-328.48"/>
</g>
<!-- Node9&#45;&gt;Node4 -->
<g id="edge10" class="edge">
<title>Node9&#45;&gt;Node4</title>
<path fill="none" stroke="#63b8ff" d="M1193.25,-332.96C1197.56,-331.94 1201.84,-330.94 1206,-330 1267.78,-316.06 1338.56,-302.2 1389.34,-292.62"/>
<polygon fill="#63b8ff" stroke="#63b8ff" points="1192.08,-329.65 1183.18,-335.4 1193.72,-336.45 1192.08,-329.65"/>
</g>
<!-- Node10&#45;&gt;Node4 -->
<g id="edge12" class="edge">
<title>Node10&#45;&gt;Node4</title>
<path fill="none" stroke="#63b8ff" d="M1664.78,-595.2C1655.64,-569.43 1643,-526.93 1643,-489 1643,-489 1643,-489 1643,-421 1643,-352.75 1562.38,-313.16 1507.58,-294.14"/>
<polygon fill="#63b8ff" stroke="#63b8ff" points="1661.59,-596.65 1668.31,-604.84 1668.16,-594.24 1661.59,-596.65"/>
</g>
<!-- Node11&#45;&gt;Node8 -->
<g id="edge18" class="edge">
<title>Node11&#45;&gt;Node8</title>
<path fill="none" stroke="#63b8ff" d="M1200.9,-401.72C1219.88,-390.25 1243.55,-375.95 1260.76,-365.54"/>
<polygon fill="#63b8ff" stroke="#63b8ff" points="1199.02,-398.77 1192.27,-406.94 1202.64,-404.76 1199.02,-398.77"/>
</g>
<!-- Node11&#45;&gt;Node9 -->
<g id="edge19" class="edge">
<title>Node11&#45;&gt;Node9</title>
<path fill="none" stroke="#63b8ff" d="M1155.8,-398.06C1149.61,-387.32 1142.45,-374.86 1137.08,-365.54"/>
<polygon fill="#63b8ff" stroke="#63b8ff" points="1152.88,-400.01 1160.91,-406.94 1158.95,-396.52 1152.88,-400.01"/>
</g>
<!-- Node12 -->
<g id="node12" class="node">
<title>Node12</title>
<g id="a_node12"><a xlink:href="dense_2helpers_8hpp.html" target="_top" xlink:title=" ">
<polygon fill="white" stroke="#666666" points="1507.5,-365.5 1370.5,-365.5 1370.5,-335.5 1507.5,-335.5 1507.5,-365.5"/>
<text text-anchor="start" x="1378.5" y="-353.5" font-family="Helvetica,sans-Serif" font-size="10.00">include/proxsuite/proxqp</text>
<text text-anchor="middle" x="1439" y="-342.5" font-family="Helvetica,sans-Serif" font-size="10.00">/dense/helpers.hpp</text>
</a>
</g>
</g>
<!-- Node11&#45;&gt;Node12 -->
<g id="edge15" class="edge">
<title>Node11&#45;&gt;Node12</title>
<path fill="none" stroke="#63b8ff" d="M1233.52,-404.39C1279.57,-392.54 1340.82,-376.77 1384.44,-365.54"/>
<polygon fill="#63b8ff" stroke="#63b8ff" points="1232.45,-401.05 1223.64,-406.94 1234.2,-407.83 1232.45,-401.05"/>
</g>
<!-- Node11&#45;&gt;Node13 -->
<g id="edge20" class="edge">
<title>Node11&#45;&gt;Node13</title>
<path fill="none" stroke="#63b8ff" d="M1090.63,-405.18C1065.81,-397.62 1039.31,-386.68 1018,-371 941.8,-314.94 974.82,-247.17 894,-198 849.02,-170.63 705.52,-157.34 618.72,-151.65"/>
<polygon fill="#63b8ff" stroke="#63b8ff" points="1089.84,-408.59 1100.42,-408.02 1091.79,-401.87 1089.84,-408.59"/>
</g>
<!-- Node14 -->
<g id="node14" class="node">
<title>Node14</title>
<g id="a_node14"><a xlink:href="sparse_2wrapper_8hpp.html" target="_top" xlink:title=" ">
<polygon fill="white" stroke="#666666" points="1062.5,-96 925.5,-96 925.5,-66 1062.5,-66 1062.5,-96"/>
<text text-anchor="start" x="933.5" y="-84" font-family="Helvetica,sans-Serif" font-size="10.00">include/proxsuite/proxqp</text>
<text text-anchor="middle" x="994" y="-73" font-family="Helvetica,sans-Serif" font-size="10.00">/sparse/wrapper.hpp</text>
</a>
</g>
</g>
<!-- Node11&#45;&gt;Node14 -->
<g id="edge32" class="edge">
<title>Node11&#45;&gt;Node14</title>
<path fill="none" stroke="#63b8ff" d="M1096.82,-403.16C1079.63,-395.77 1062.86,-385.43 1051,-371 1024.77,-339.08 1032,-321.32 1032,-280 1032,-280 1032,-280 1032,-212 1032,-168.26 1011.94,-119.46 1000.97,-96.03"/>
<polygon fill="#63b8ff" stroke="#63b8ff" points="1095.79,-406.52 1106.38,-406.96 1098.38,-400.01 1095.79,-406.52"/>
</g>
<!-- Node11&#45;&gt;Node16 -->
<g id="edge23" class="edge">
<title>Node11&#45;&gt;Node16</title>
<path fill="none" stroke="#63b8ff" d="M1090.39,-407.63C1037.51,-398.28 966.33,-385 904,-371 833.64,-355.19 817.68,-344.35 747,-330 652.91,-310.9 542.84,-296.14 473.52,-287.76"/>
<polygon fill="#63b8ff" stroke="#63b8ff" points="1089.92,-411.11 1100.38,-409.39 1091.13,-404.21 1089.92,-411.11"/>
</g>
<!-- Node11&#45;&gt;Node17 -->
<g id="edge31" class="edge">
<title>Node11&#45;&gt;Node17</title>
<path fill="none" stroke="#63b8ff" d="M1090.4,-404.54C1055.93,-396.22 1015.36,-384.92 980,-371 886.19,-334.08 875.22,-297.11 780,-264 710.87,-239.96 627.85,-226.96 570.64,-220.29"/>
<polygon fill="#63b8ff" stroke="#63b8ff" points="1089.88,-408.01 1100.42,-406.92 1091.5,-401.2 1089.88,-408.01"/>
</g>
<!-- Node11&#45;&gt;Node18 -->
<g id="edge27" class="edge">
<title>Node11&#45;&gt;Node18</title>
<path fill="none" stroke="#63b8ff" d="M1090.06,-413.7C1065.68,-411.49 1038.74,-409.1 1014,-407 811.87,-389.88 759.2,-403.71 559,-371 550.18,-369.56 540.9,-367.62 531.93,-365.52"/>
<polygon fill="#63b8ff" stroke="#63b8ff" points="1090.07,-417.21 1100.34,-414.63 1090.7,-410.24 1090.07,-417.21"/>
</g>
<!-- Node12&#45;&gt;Node4 -->
<g id="edge16" class="edge">
<title>Node12&#45;&gt;Node4</title>
<path fill="none" stroke="#63b8ff" d="M1445.54,-325.58C1448.41,-315.06 1451.69,-303.08 1454.16,-294.04"/>
<polygon fill="#63b8ff" stroke="#63b8ff" points="1442.11,-324.87 1442.84,-335.44 1448.86,-326.71 1442.11,-324.87"/>
</g>
<!-- Node12&#45;&gt;Node5 -->
<g id="edge17" class="edge">
<title>Node12&#45;&gt;Node5</title>
<path fill="none" stroke="#63b8ff" d="M1408.63,-329.23C1397.43,-319.96 1386.02,-307.92 1380,-294 1370.21,-271.35 1385.53,-244.21 1397.37,-228.07"/>
<polygon fill="#63b8ff" stroke="#63b8ff" points="1406.62,-332.11 1416.67,-335.49 1410.92,-326.58 1406.62,-332.11"/>
</g>
<!-- Node13&#45;&gt;Node14 -->
<g id="edge21" class="edge">
<title>Node13&#45;&gt;Node14</title>
<path fill="none" stroke="#63b8ff" d="M628.91,-134.62C713.14,-122.48 845.24,-103.44 925.32,-91.9"/>
<polygon fill="#63b8ff" stroke="#63b8ff" points="628.29,-131.18 618.89,-136.07 629.28,-138.11 628.29,-131.18"/>
</g>
<!-- Node15 -->
<g id="node15" class="node">
<title>Node15</title>
<g id="a_node15"><a xlink:href="sparse_8hpp.html" target="_top" xlink:title=" ">
<polygon fill="white" stroke="#666666" points="1062.5,-30 925.5,-30 925.5,0 1062.5,0 1062.5,-30"/>
<text text-anchor="start" x="933.5" y="-18" font-family="Helvetica,sans-Serif" font-size="10.00">include/proxsuite/proxqp</text>
<text text-anchor="middle" x="994" y="-7" font-family="Helvetica,sans-Serif" font-size="10.00">/sparse/sparse.hpp</text>
</a>
</g>
</g>
<!-- Node14&#45;&gt;Node15 -->
<g id="edge22" class="edge">
<title>Node14&#45;&gt;Node15</title>
<path fill="none" stroke="#63b8ff" d="M994,-55.54C994,-46.96 994,-37.61 994,-30.16"/>
<polygon fill="#63b8ff" stroke="#63b8ff" points="990.5,-55.8 994,-65.8 997.5,-55.8 990.5,-55.8"/>
</g>
<!-- Node16&#45;&gt;Node13 -->
<g id="edge24" class="edge">
<title>Node16&#45;&gt;Node13</title>
<path fill="none" stroke="#63b8ff" d="M405.05,-253.82C406.32,-236.41 410.7,-213.38 424,-198 438.86,-180.82 460.42,-169.49 481.52,-162.04"/>
<polygon fill="#63b8ff" stroke="#63b8ff" points="401.55,-253.67 404.61,-263.81 408.54,-253.97 401.55,-253.67"/>
</g>
<!-- Node16&#45;&gt;Node17 -->
<g id="edge25" class="edge">
<title>Node16&#45;&gt;Node17</title>
<path fill="none" stroke="#63b8ff" d="M435.27,-258.03C449.95,-248.34 467.23,-236.94 480.53,-228.16"/>
<polygon fill="#63b8ff" stroke="#63b8ff" points="432.95,-255.37 426.53,-263.8 436.8,-261.21 432.95,-255.37"/>
</g>
<!-- Node17&#45;&gt;Node13 -->
<g id="edge26" class="edge">
<title>Node17&#45;&gt;Node13</title>
<path fill="none" stroke="#63b8ff" d="M518.86,-189.53C525.68,-180.43 533.35,-170.19 539.38,-162.16"/>
<polygon fill="#63b8ff" stroke="#63b8ff" points="515.85,-187.7 512.65,-197.8 521.45,-191.9 515.85,-187.7"/>
</g>
<!-- Node18&#45;&gt;Node13 -->
<g id="edge28" class="edge">
<title>Node18&#45;&gt;Node13</title>
<path fill="none" stroke="#63b8ff" d="M505.95,-328.27C529.93,-306.09 564.57,-268.87 579,-228 587.16,-204.88 572.55,-178.1 561.26,-162.14"/>
<polygon fill="#63b8ff" stroke="#63b8ff" points="503.35,-325.9 498.28,-335.2 508.05,-331.1 503.35,-325.9"/>
</g>
<!-- Node18&#45;&gt;Node16 -->
<g id="edge29" class="edge">
<title>Node18&#45;&gt;Node16</title>
<path fill="none" stroke="#63b8ff" d="M458.03,-328.49C445.83,-317.34 431.17,-303.93 420.36,-294.04"/>
<polygon fill="#63b8ff" stroke="#63b8ff" points="455.88,-331.27 465.62,-335.44 460.6,-326.1 455.88,-331.27"/>
</g>
<!-- Node18&#45;&gt;Node17 -->
<g id="edge30" class="edge">
<title>Node18&#45;&gt;Node17</title>
<path fill="none" stroke="#63b8ff" d="M484.74,-325.35C489.13,-297.04 496.26,-251.06 499.82,-228.05"/>
<polygon fill="#63b8ff" stroke="#63b8ff" points="481.28,-324.84 483.21,-335.26 488.2,-325.91 481.28,-324.84"/>
</g>
<!-- Node19&#45;&gt;Node11 -->
<g id="edge34" class="edge">
<title>Node19&#45;&gt;Node11</title>
<path fill="none" stroke="#63b8ff" d="M998.07,-595.34C1004.52,-578.55 1014.68,-556.06 1028,-539 1062.33,-495.03 1116.1,-456.69 1146.36,-437.02"/>
<polygon fill="#63b8ff" stroke="#63b8ff" points="994.7,-594.36 994.54,-604.96 1001.27,-596.78 994.7,-594.36"/>
</g>
<!-- Node19&#45;&gt;Node13 -->
<g id="edge60" class="edge">
<title>Node19&#45;&gt;Node13</title>
<path fill="none" stroke="#63b8ff" d="M964.08,-598.49C937.15,-576.48 894.6,-539.72 863,-503 802.61,-432.83 807.19,-400.34 747,-330 687.81,-260.84 604.14,-191.17 567.89,-162.1"/>
<polygon fill="#63b8ff" stroke="#63b8ff" points="961.93,-601.25 971.91,-604.83 966.34,-595.81 961.93,-601.25"/>
</g>
<!-- Node20 -->
<g id="node20" class="node">
<title>Node20</title>
<g id="a_node20"><a xlink:href="settings_8hpp.html" target="_top" xlink:title=" ">
<polygon fill="white" stroke="#666666" points="1009.5,-503 872.5,-503 872.5,-473 1009.5,-473 1009.5,-503"/>
<text text-anchor="start" x="880.5" y="-491" font-family="Helvetica,sans-Serif" font-size="10.00">include/proxsuite/proxqp</text>
<text text-anchor="middle" x="941" y="-480" font-family="Helvetica,sans-Serif" font-size="10.00">/settings.hpp</text>
</a>
</g>
</g>
<!-- Node19&#45;&gt;Node20 -->
<g id="edge35" class="edge">
<title>Node19&#45;&gt;Node20</title>
<path fill="none" stroke="#63b8ff" d="M981.1,-595.39C970.95,-568.46 954.68,-525.31 946.33,-503.14"/>
<polygon fill="#63b8ff" stroke="#63b8ff" points="977.86,-596.72 984.66,-604.84 984.41,-594.25 977.86,-596.72"/>
</g>
<!-- Node19&#45;&gt;Node21 -->
<g id="edge45" class="edge">
<title>Node19&#45;&gt;Node21</title>
<path fill="none" stroke="#63b8ff" d="M1068.63,-604.54C1129.04,-593.43 1211.64,-578.24 1269.39,-567.62"/>
<polygon fill="#63b8ff" stroke="#63b8ff" points="1067.96,-601.1 1058.75,-606.36 1069.22,-607.99 1067.96,-601.1"/>
</g>
<!-- Node22 -->
<g id="node22" class="node">
<title>Node22</title>
<g id="a_node22"><a xlink:href="sparse_2model_8hpp.html" target="_top" xlink:title=" ">
<polygon fill="white" stroke="#666666" points="578.5,-503 441.5,-503 441.5,-473 578.5,-473 578.5,-503"/>
<text text-anchor="start" x="449.5" y="-491" font-family="Helvetica,sans-Serif" font-size="10.00">include/proxsuite/proxqp</text>
<text text-anchor="middle" x="510" y="-480" font-family="Helvetica,sans-Serif" font-size="10.00">/sparse/model.hpp</text>
</a>
</g>
</g>
<!-- Node19&#45;&gt;Node22 -->
<g id="edge47" class="edge">
<title>Node19&#45;&gt;Node22</title>
<path fill="none" stroke="#63b8ff" d="M911.64,-605.06C864.48,-596.08 803.42,-583.42 750,-569 677.49,-549.43 594.76,-520.31 547.82,-503.13"/>
<polygon fill="#63b8ff" stroke="#63b8ff" points="911.01,-608.51 921.48,-606.92 912.31,-601.63 911.01,-608.51"/>
</g>
<!-- Node25 -->
<g id="node25" class="node">
<title>Node25</title>
<g id="a_node25"><a xlink:href="sparse_2preconditioner_2ruiz_8hpp.html" target="_top" xlink:title=" ">
<polygon fill="white" stroke="#666666" points="203.5,-371 66.5,-371 66.5,-330 203.5,-330 203.5,-371"/>
<text text-anchor="start" x="74.5" y="-359" font-family="Helvetica,sans-Serif" font-size="10.00">include/proxsuite/proxqp</text>
<text text-anchor="start" x="74.5" y="-348" font-family="Helvetica,sans-Serif" font-size="10.00">/sparse/preconditioner</text>
<text text-anchor="middle" x="135" y="-337" font-family="Helvetica,sans-Serif" font-size="10.00">/ruiz.hpp</text>
</a>
</g>
</g>
<!-- Node19&#45;&gt;Node25 -->
<g id="edge57" class="edge">
<title>Node19&#45;&gt;Node25</title>
<path fill="none" stroke="#63b8ff" d="M911.12,-616.43C764.21,-608.36 443.17,-574.96 218,-437 189.78,-419.71 164.41,-390.63 149.35,-371.26"/>
<polygon fill="#63b8ff" stroke="#63b8ff" points="911.23,-619.94 921.4,-616.97 911.59,-612.95 911.23,-619.94"/>
</g>
<!-- Node26 -->
<g id="node26" class="node">
<title>Node26</title>
<g id="a_node26"><a xlink:href="status_8hpp.html" target="_top" xlink:title=" ">
<polygon fill="white" stroke="#666666" points="1174.5,-569 1037.5,-569 1037.5,-539 1174.5,-539 1174.5,-569"/>
<text text-anchor="start" x="1045.5" y="-557" font-family="Helvetica,sans-Serif" font-size="10.00">include/proxsuite/proxqp</text>
<text text-anchor="middle" x="1106" y="-546" font-family="Helvetica,sans-Serif" font-size="10.00">/status.hpp</text>
</a>
</g>
</g>
<!-- Node19&#45;&gt;Node26 -->
<g id="edge61" class="edge">
<title>Node19&#45;&gt;Node26</title>
<path fill="none" stroke="#63b8ff" d="M1024.49,-599.97C1042.5,-590.03 1064.15,-578.09 1080.6,-569.01"/>
<polygon fill="#63b8ff" stroke="#63b8ff" points="1022.52,-597.06 1015.46,-604.95 1025.9,-603.19 1022.52,-597.06"/>
</g>
<!-- Node20&#45;&gt;Node8 -->
<g id="edge37" class="edge">
<title>Node20&#45;&gt;Node8</title>
<path fill="none" stroke="#63b8ff" d="M1019.94,-482.49C1098.3,-476.56 1211.55,-463.6 1246,-437 1268.89,-419.33 1278.32,-384.9 1281.94,-365.55"/>
<polygon fill="#63b8ff" stroke="#63b8ff" points="1019.32,-479.03 1009.61,-483.25 1019.83,-486.01 1019.32,-479.03"/>
</g>
<!-- Node20&#45;&gt;Node9 -->
<g id="edge38" class="edge">
<title>Node20&#45;&gt;Node9</title>
<path fill="none" stroke="#63b8ff" d="M989.5,-468.93C1008.62,-460.66 1030.22,-449.83 1048,-437 1076.86,-416.19 1103.91,-384.17 1118.27,-365.79"/>
<polygon fill="#63b8ff" stroke="#63b8ff" points="987.91,-465.8 980.05,-472.9 990.62,-472.25 987.91,-465.8"/>
</g>
<!-- Node20&#45;&gt;Node11 -->
<g id="edge39" class="edge">
<title>Node20&#45;&gt;Node11</title>
<path fill="none" stroke="#63b8ff" d="M1001.13,-470.12C1037.89,-459.8 1084.36,-446.76 1119.08,-437.01"/>
<polygon fill="#63b8ff" stroke="#63b8ff" points="999.72,-466.88 991.04,-472.95 1001.61,-473.62 999.72,-466.88"/>
</g>
<!-- Node20&#45;&gt;Node12 -->
<g id="edge36" class="edge">
<title>Node20&#45;&gt;Node12</title>
<path fill="none" stroke="#63b8ff" d="M1020.02,-482.66C1088.21,-477.14 1188.59,-464.72 1272,-437 1298.79,-428.09 1302.93,-419.98 1328,-407 1355.74,-392.64 1387.67,-376.74 1410.14,-365.65"/>
<polygon fill="#63b8ff" stroke="#63b8ff" points="1019.48,-479.19 1009.78,-483.46 1020.02,-486.17 1019.48,-479.19"/>
</g>
<!-- Node20&#45;&gt;Node13 -->
<g id="edge40" class="edge">
<title>Node20&#45;&gt;Node13</title>
<path fill="none" stroke="#63b8ff" d="M895.12,-468.13C881.53,-460.4 867.91,-450.13 859,-437 798.45,-347.84 893.65,-274.76 818,-198 790.8,-170.4 688.74,-157.65 618.72,-152.05"/>
<polygon fill="#63b8ff" stroke="#63b8ff" points="893.53,-471.25 904,-472.85 896.81,-465.07 893.53,-471.25"/>
</g>
<!-- Node20&#45;&gt;Node14 -->
<g id="edge44" class="edge">
<title>Node20&#45;&gt;Node14</title>
<path fill="none" stroke="#63b8ff" d="M983.55,-467.66C995.6,-459.94 1007.26,-449.79 1014,-437 1020.22,-425.21 1019.27,-419.25 1014,-407 1004.81,-385.63 987.45,-391.25 976,-371 955.63,-334.95 956,-321.41 956,-280 956,-280 956,-280 956,-212 956,-168.26 976.06,-119.46 987.03,-96.03"/>
<polygon fill="#63b8ff" stroke="#63b8ff" points="981.6,-464.74 974.78,-472.85 985.17,-470.77 981.6,-464.74"/>
</g>
<!-- Node20&#45;&gt;Node16 -->
<g id="edge41" class="edge">
<title>Node20&#45;&gt;Node16</title>
<path fill="none" stroke="#63b8ff" d="M862.09,-482.02C726.55,-471.63 458.67,-442.36 403,-371 385.7,-348.82 393.42,-313.49 399.74,-294.02"/>
<polygon fill="#63b8ff" stroke="#63b8ff" points="862.18,-485.54 872.41,-482.8 862.7,-478.56 862.18,-485.54"/>
</g>
<!-- Node20&#45;&gt;Node17 -->
<g id="edge43" class="edge">
<title>Node20&#45;&gt;Node17</title>
<path fill="none" stroke="#63b8ff" d="M884.48,-469.27C864.72,-461.36 843.2,-450.69 826,-437 779.76,-400.18 792.65,-367.56 747,-330 686.13,-279.91 600.03,-245.71 547.77,-228.05"/>
<polygon fill="#63b8ff" stroke="#63b8ff" points="883.42,-472.61 894.01,-472.92 885.93,-466.07 883.42,-472.61"/>
</g>
<!-- Node20&#45;&gt;Node18 -->
<g id="edge42" class="edge">
<title>Node20&#45;&gt;Node18</title>
<path fill="none" stroke="#63b8ff" d="M883.39,-470.03C791.64,-443 614,-390.68 528.82,-365.59"/>
<polygon fill="#63b8ff" stroke="#63b8ff" points="882.49,-473.41 893.07,-472.88 884.47,-466.7 882.49,-473.41"/>
</g>
<!-- Node21&#45;&gt;Node14 -->
<g id="edge46" class="edge">
<title>Node21&#45;&gt;Node14</title>
<path fill="none" stroke="#63b8ff" d="M1416.71,-545.3C1449.15,-538.59 1485.11,-526.12 1511,-503 1565.39,-454.42 1574,-424.42 1574,-351.5 1574,-351.5 1574,-351.5 1574,-212 1574,-159.14 1534.27,-153.53 1486,-132 1412,-98.99 1179.66,-87.48 1062.7,-83.71"/>
<polygon fill="#63b8ff" stroke="#63b8ff" points="1415.93,-541.89 1406.77,-547.2 1417.25,-548.76 1415.93,-541.89"/>
</g>
<!-- Node22&#45;&gt;Node13 -->
<g id="edge52" class="edge">
<title>Node22&#45;&gt;Node13</title>
<path fill="none" stroke="#63b8ff" d="M431.19,-481.6C348.99,-471.17 232,-440.67 232,-351.5 232,-351.5 232,-351.5 232,-278 232,-224.54 387.91,-182.21 481.39,-161.63"/>
<polygon fill="#63b8ff" stroke="#63b8ff" points="430.94,-485.09 441.28,-482.8 431.77,-478.14 430.94,-485.09"/>
</g>
<!-- Node22&#45;&gt;Node16 -->
<g id="edge53" class="edge">
<title>Node22&#45;&gt;Node16</title>
<path fill="none" stroke="#63b8ff" d="M471.79,-467.9C437.98,-448.63 390.87,-415.39 370,-371 362.25,-354.51 364.52,-347.38 370,-330 374.27,-316.46 383.66,-303.39 391.64,-294.02"/>
<polygon fill="#63b8ff" stroke="#63b8ff" points="470.5,-471.18 480.95,-472.96 473.89,-465.06 470.5,-471.18"/>
</g>
<!-- Node22&#45;&gt;Node17 -->
<g id="edge55" class="edge">
<title>Node22&#45;&gt;Node17</title>
<path fill="none" stroke="#63b8ff" d="M444.79,-469.31C426.01,-461.75 406.65,-451.28 392,-437 333.18,-379.68 277.54,-329.57 327,-264 340.13,-246.59 389.96,-233.42 433.1,-224.98"/>
<polygon fill="#63b8ff" stroke="#63b8ff" points="443.65,-472.62 454.24,-472.9 446.13,-466.08 443.65,-472.62"/>
</g>
<!-- Node22&#45;&gt;Node18 -->
<g id="edge54" class="edge">
<title>Node22&#45;&gt;Node18</title>
<path fill="none" stroke="#63b8ff" d="M504.83,-462.85C498.77,-434.54 488.93,-388.56 484.01,-365.55"/>
<polygon fill="#63b8ff" stroke="#63b8ff" points="501.44,-463.71 506.95,-472.76 508.28,-462.24 501.44,-463.71"/>
</g>
<!-- Node23 -->
<g id="node23" class="node">
<title>Node23</title>
<g id="a_node23"><a xlink:href="dense_2model_8hpp.html" target="_top" xlink:title=" ">
<polygon fill="white" stroke="#666666" points="1005.5,-437 868.5,-437 868.5,-407 1005.5,-407 1005.5,-437"/>
<text text-anchor="start" x="876.5" y="-425" font-family="Helvetica,sans-Serif" font-size="10.00">include/proxsuite/proxqp</text>
<text text-anchor="middle" x="937" y="-414" font-family="Helvetica,sans-Serif" font-size="10.00">/dense/model.hpp</text>
</a>
</g>
</g>
<!-- Node22&#45;&gt;Node23 -->
<g id="edge48" class="edge">
<title>Node22&#45;&gt;Node23</title>
<path fill="none" stroke="#63b8ff" d="M588.64,-475.21C668.78,-463.2 791.84,-444.76 868.21,-433.31"/>
<polygon fill="#63b8ff" stroke="#63b8ff" points="587.98,-471.77 578.6,-476.72 589.01,-478.7 587.98,-471.77"/>
</g>
<!-- Node24 -->
<g id="node24" class="node">
<title>Node24</title>
<g id="a_node24"><a xlink:href="random__qp__problems_8hpp.html" target="_top" xlink:title=" ">
<polygon fill="white" stroke="#666666" points="738,-365.5 568,-365.5 568,-335.5 738,-335.5 738,-365.5"/>
<text text-anchor="start" x="576" y="-353.5" font-family="Helvetica,sans-Serif" font-size="10.00">include/proxsuite/proxqp</text>
<text text-anchor="middle" x="653" y="-342.5" font-family="Helvetica,sans-Serif" font-size="10.00">/utils/random_qp_problems.hpp</text>
</a>
</g>
</g>
<!-- Node22&#45;&gt;Node24 -->
<g id="edge56" class="edge">
<title>Node22&#45;&gt;Node24</title>
<path fill="none" stroke="#63b8ff" d="M532.4,-465.78C561.91,-437.81 613.03,-389.37 638.17,-365.55"/>
<polygon fill="#63b8ff" stroke="#63b8ff" points="529.88,-463.34 525.03,-472.76 534.7,-468.42 529.88,-463.34"/>
</g>
<!-- Node23&#45;&gt;Node8 -->
<g id="edge49" class="edge">
<title>Node23&#45;&gt;Node8</title>
<path fill="none" stroke="#63b8ff" d="M1015.65,-407.69C1069.43,-398.27 1142.23,-384.88 1206,-371 1213.64,-369.34 1221.67,-367.47 1229.55,-365.56"/>
<polygon fill="#63b8ff" stroke="#63b8ff" points="1014.75,-404.29 1005.5,-409.46 1015.95,-411.19 1014.75,-404.29"/>
</g>
<!-- Node23&#45;&gt;Node9 -->
<g id="edge50" class="edge">
<title>Node23&#45;&gt;Node9</title>
<path fill="none" stroke="#63b8ff" d="M985.58,-403.42C1017.99,-391.68 1060.03,-376.47 1090.2,-365.54"/>
<polygon fill="#63b8ff" stroke="#63b8ff" points="984.07,-400.24 975.85,-406.94 986.45,-406.82 984.07,-400.24"/>
</g>
<!-- Node23&#45;&gt;Node24 -->
<g id="edge51" class="edge">
<title>Node23&#45;&gt;Node24</title>
<path fill="none" stroke="#63b8ff" d="M869.75,-404.54C821.24,-392.67 756.46,-376.82 710.39,-365.54"/>
<polygon fill="#63b8ff" stroke="#63b8ff" points="868.98,-407.96 879.53,-406.94 870.65,-401.16 868.98,-407.96"/>
</g>
<!-- Node25&#45;&gt;Node13 -->
<g id="edge58" class="edge">
<title>Node25&#45;&gt;Node13</title>
<path fill="none" stroke="#63b8ff" d="M142.45,-320.26C153.01,-285.17 175.92,-227.38 218,-198 259.4,-169.09 396.82,-156.41 481.34,-151.23"/>
<polygon fill="#63b8ff" stroke="#63b8ff" points="139.06,-319.37 139.67,-329.94 145.79,-321.29 139.06,-319.37"/>
</g>
<!-- Node25&#45;&gt;Node16 -->
<g id="edge59" class="edge">
<title>Node25&#45;&gt;Node16</title>
<path fill="none" stroke="#63b8ff" d="M213.61,-329.27C257.48,-317.97 311.04,-304.19 350.33,-294.07"/>
<polygon fill="#63b8ff" stroke="#63b8ff" points="212.64,-325.9 203.83,-331.78 214.39,-332.68 212.64,-325.9"/>
</g>
<!-- Node26&#45;&gt;Node11 -->
<g id="edge63" class="edge">
<title>Node26&#45;&gt;Node11</title>
<path fill="none" stroke="#63b8ff" d="M1117.27,-529.75C1130.31,-502.84 1151.36,-459.4 1162.15,-437.14"/>
<polygon fill="#63b8ff" stroke="#63b8ff" points="1114.07,-528.31 1112.86,-538.84 1120.37,-531.37 1114.07,-528.31"/>
</g>
<!-- Node26&#45;&gt;Node12 -->
<g id="edge62" class="edge">
<title>Node26&#45;&gt;Node12</title>
<path fill="none" stroke="#63b8ff" d="M1142.04,-534.19C1183.98,-512.01 1255.01,-473.52 1314,-437 1352.23,-413.33 1395.16,-383.14 1419.45,-365.69"/>
<polygon fill="#63b8ff" stroke="#63b8ff" points="1140.26,-531.17 1133.05,-538.93 1143.52,-537.36 1140.26,-531.17"/>
</g>
<!-- Node26&#45;&gt;Node20 -->
<g id="edge64" class="edge">
<title>Node26&#45;&gt;Node20</title>
<path fill="none" stroke="#63b8ff" d="M1060.43,-535.32C1034.16,-525.14 1001.61,-512.51 977.13,-503.01"/>
<polygon fill="#63b8ff" stroke="#63b8ff" points="1059.2,-538.6 1069.79,-538.95 1061.73,-532.08 1059.2,-538.6"/>
</g>
</g>
</svg>
