<?xml version="1.0" encoding="UTF-8" standalone="no"?>
<!DOCTYPE svg PUBLIC "-//W3C//DTD SVG 1.1//EN"
 "http://www.w3.org/Graphics/SVG/1.1/DTD/svg11.dtd">
<!-- Generated by graphviz version 12.0.0 (20240803.0821)
 -->
<!-- Title: include/proxsuite/linalg/veg/internal/delete_special_members.hpp Pages: 1 -->
<svg width="413pt" height="181pt"
 viewBox="0.00 0.00 412.88 180.50" xmlns="http://www.w3.org/2000/svg" xmlns:xlink="http://www.w3.org/1999/xlink">
<g id="graph0" class="graph" transform="scale(1 1) rotate(0) translate(4 176.5)">
<title>include/proxsuite/linalg/veg/internal/delete_special_members.hpp</title>
<!-- Node1 -->
<g id="Node000001" class="node">
<title>Node1</title>
<g id="a_Node000001"><a xlink:title=" ">
<polygon fill="#999999" stroke="#666666" points="278.12,-172.5 127.12,-172.5 127.12,-126.25 278.12,-126.25 278.12,-172.5"/>
<text text-anchor="start" x="135.12" y="-159" font-family="Helvetica,sans-Serif" font-size="10.00">include/proxsuite/linalg</text>
<text text-anchor="start" x="135.12" y="-146.25" font-family="Helvetica,sans-Serif" font-size="10.00">/veg/internal/delete_special</text>
<text text-anchor="middle" x="202.62" y="-133.5" font-family="Helvetica,sans-Serif" font-size="10.00">_members.hpp</text>
</a>
</g>
</g>
<!-- Node2 -->
<g id="Node000002" class="node">
<title>Node2</title>
<g id="a_Node000002"><a xlink:href="prologue_8hpp.html" target="_top" xlink:title=" ">
<polygon fill="white" stroke="#666666" points="123.25,-90.25 0,-90.25 0,-56.75 123.25,-56.75 123.25,-90.25"/>
<text text-anchor="start" x="8" y="-76.75" font-family="Helvetica,sans-Serif" font-size="10.00">proxsuite/linalg/veg</text>
<text text-anchor="middle" x="61.62" y="-64" font-family="Helvetica,sans-Serif" font-size="10.00">/internal/prologue.hpp</text>
</a>
</g>
</g>
<!-- Node1&#45;&gt;Node2 -->
<g id="edge1_Node000001_Node000002" class="edge">
<title>Node1&#45;&gt;Node2</title>
<g id="a_edge1_Node000001_Node000002"><a xlink:title=" ">
<path fill="none" stroke="#63b8ff" d="M159.55,-125.81C141.41,-116.3 120.4,-105.29 102.5,-95.91"/>
<polygon fill="#63b8ff" stroke="#63b8ff" points="104.18,-92.85 93.7,-91.31 100.94,-99.05 104.18,-92.85"/>
</a>
</g>
</g>
<!-- Node3 -->
<g id="Node000003" class="node">
<title>Node3</title>
<g id="a_Node000003"><a xlink:href="typedefs_8hpp.html" target="_top" xlink:title=" ">
<polygon fill="white" stroke="#666666" points="264.25,-90.25 141,-90.25 141,-56.75 264.25,-56.75 264.25,-90.25"/>
<text text-anchor="start" x="149" y="-76.75" font-family="Helvetica,sans-Serif" font-size="10.00">proxsuite/linalg/veg</text>
<text text-anchor="middle" x="202.62" y="-64" font-family="Helvetica,sans-Serif" font-size="10.00">/internal/typedefs.hpp</text>
</a>
</g>
</g>
<!-- Node1&#45;&gt;Node3 -->
<g id="edge2_Node000001_Node000003" class="edge">
<title>Node1&#45;&gt;Node3</title>
<g id="a_edge2_Node000001_Node000003"><a xlink:title=" ">
<path fill="none" stroke="#63b8ff" d="M202.62,-125.81C202.62,-118.26 202.62,-109.76 202.62,-101.88"/>
<polygon fill="#63b8ff" stroke="#63b8ff" points="206.13,-102.12 202.63,-92.12 199.13,-102.12 206.13,-102.12"/>
</a>
</g>
</g>
<!-- Node6 -->
<g id="Node000006" class="node">
<title>Node6</title>
<g id="a_Node000006"><a xlink:href="epilogue_8hpp.html" target="_top" xlink:title=" ">
<polygon fill="white" stroke="#666666" points="404.88,-90.25 282.38,-90.25 282.38,-56.75 404.88,-56.75 404.88,-90.25"/>
<text text-anchor="start" x="290.38" y="-76.75" font-family="Helvetica,sans-Serif" font-size="10.00">proxsuite/linalg/veg</text>
<text text-anchor="middle" x="343.62" y="-64" font-family="Helvetica,sans-Serif" font-size="10.00">/internal/epilogue.hpp</text>
</a>
</g>
</g>
<!-- Node1&#45;&gt;Node6 -->
<g id="edge5_Node000001_Node000006" class="edge">
<title>Node1&#45;&gt;Node6</title>
<g id="a_edge5_Node000001_Node000006"><a xlink:title=" ">
<path fill="none" stroke="#63b8ff" d="M245.7,-125.81C263.84,-116.3 284.85,-105.29 302.75,-95.91"/>
<polygon fill="#63b8ff" stroke="#63b8ff" points="304.31,-99.05 311.55,-91.31 301.07,-92.85 304.31,-99.05"/>
</a>
</g>
</g>
<!-- Node4 -->
<g id="Node000004" class="node">
<title>Node4</title>
<g id="a_Node000004"><a xlink:title=" ">
<polygon fill="#e0e0e0" stroke="#999999" points="192.12,-20.75 143.12,-20.75 143.12,0 192.12,0 192.12,-20.75"/>
<text text-anchor="middle" x="167.62" y="-7.25" font-family="Helvetica,sans-Serif" font-size="10.00">cstdint</text>
</a>
</g>
</g>
<!-- Node3&#45;&gt;Node4 -->
<g id="edge3_Node000003_Node000004" class="edge">
<title>Node3&#45;&gt;Node4</title>
<g id="a_edge3_Node000003_Node000004"><a xlink:title=" ">
<path fill="none" stroke="#63b8ff" d="M193.43,-56.44C188.98,-48.67 183.6,-39.27 178.9,-31.07"/>
<polygon fill="#63b8ff" stroke="#63b8ff" points="182.02,-29.47 174.01,-22.53 175.94,-32.95 182.02,-29.47"/>
</a>
</g>
</g>
<!-- Node5 -->
<g id="Node000005" class="node">
<title>Node5</title>
<g id="a_Node000005"><a xlink:title=" ">
<polygon fill="#e0e0e0" stroke="#999999" points="262.62,-20.75 210.62,-20.75 210.62,0 262.62,0 262.62,-20.75"/>
<text text-anchor="middle" x="236.62" y="-7.25" font-family="Helvetica,sans-Serif" font-size="10.00">cstddef</text>
</a>
</g>
</g>
<!-- Node3&#45;&gt;Node5 -->
<g id="edge4_Node000003_Node000005" class="edge">
<title>Node3&#45;&gt;Node5</title>
<g id="a_edge4_Node000003_Node000005"><a xlink:title=" ">
<path fill="none" stroke="#63b8ff" d="M211.56,-56.44C215.88,-48.67 221.11,-39.27 225.67,-31.07"/>
<polygon fill="#63b8ff" stroke="#63b8ff" points="228.61,-32.98 230.41,-22.54 222.5,-29.58 228.61,-32.98"/>
</a>
</g>
</g>
</g>
</svg>
