<?xml version="1.0" encoding="UTF-8" standalone="no"?>
<!DOCTYPE svg PUBLIC "-//W3C//DTD SVG 1.1//EN"
 "http://www.w3.org/Graphics/SVG/1.1/DTD/svg11.dtd">
<!-- Generated by graphviz version 7.0.6 (20230107.1202)
 -->
<!-- Title: include/proxsuite/proxqp/dense/views.hpp Pages: 1 -->
<svg width="2194pt" height="709pt"
 viewBox="0.00 0.00 2194.00 709.00" xmlns="http://www.w3.org/2000/svg" xmlns:xlink="http://www.w3.org/1999/xlink">
<g id="graph0" class="graph" transform="scale(1 1) rotate(0) translate(4 705)">
<title>include/proxsuite/proxqp/dense/views.hpp</title>
<!-- Node1 -->
<g id="node1" class="node">
<title>Node1</title>
<g id="a_node1"><a xlink:title=" ">
<polygon fill="#999999" stroke="#666666" points="1265.5,-701 1128.5,-701 1128.5,-671 1265.5,-671 1265.5,-701"/>
<text text-anchor="start" x="1136.5" y="-689" font-family="Helvetica,sans-Serif" font-size="10.00">include/proxsuite/proxqp</text>
<text text-anchor="middle" x="1197" y="-678" font-family="Helvetica,sans-Serif" font-size="10.00">/dense/views.hpp</text>
</a>
</g>
</g>
<!-- Node2 -->
<g id="node2" class="node">
<title>Node2</title>
<g id="a_node2"><a xlink:href="linesearch_8hpp.html" target="_top" xlink:title=" ">
<polygon fill="white" stroke="#666666" points="551.5,-365.5 414.5,-365.5 414.5,-335.5 551.5,-335.5 551.5,-365.5"/>
<text text-anchor="start" x="422.5" y="-353.5" font-family="Helvetica,sans-Serif" font-size="10.00">include/proxsuite/proxqp</text>
<text text-anchor="middle" x="483" y="-342.5" font-family="Helvetica,sans-Serif" font-size="10.00">/dense/linesearch.hpp</text>
</a>
</g>
</g>
<!-- Node1&#45;&gt;Node2 -->
<g id="edge1" class="edge">
<title>Node1&#45;&gt;Node2</title>
<path fill="none" stroke="#63b8ff" d="M1117.08,-678.52C932.85,-662.5 494,-617.76 494,-555 494,-555 494,-555 494,-487 494,-442.63 488.07,-390.35 484.92,-365.71"/>
<polygon fill="#63b8ff" stroke="#63b8ff" points="1116.54,-681.98 1126.81,-679.36 1117.14,-675.01 1116.54,-681.98"/>
</g>
<!-- Node3 -->
<g id="node3" class="node">
<title>Node3</title>
<g id="a_node3"><a xlink:href="dense_2solver_8hpp.html" target="_top" xlink:title=" ">
<polygon fill="white" stroke="#666666" points="319.5,-294 182.5,-294 182.5,-264 319.5,-264 319.5,-294"/>
<text text-anchor="start" x="190.5" y="-282" font-family="Helvetica,sans-Serif" font-size="10.00">include/proxsuite/proxqp</text>
<text text-anchor="middle" x="251" y="-271" font-family="Helvetica,sans-Serif" font-size="10.00">/dense/solver.hpp</text>
</a>
</g>
</g>
<!-- Node1&#45;&gt;Node3 -->
<g id="edge14" class="edge">
<title>Node1&#45;&gt;Node3</title>
<path fill="none" stroke="#63b8ff" d="M1116.75,-685.72C913.58,-686.78 383.16,-684.55 215,-635 146.63,-614.85 76,-626.28 76,-555 76,-555 76,-555 76,-421 76,-379.68 67.35,-360.7 95,-330 117.18,-305.38 151.47,-292.81 182.27,-286.43"/>
<polygon fill="#63b8ff" stroke="#63b8ff" points="1116.71,-689.22 1126.69,-685.66 1116.67,-682.22 1116.71,-689.22"/>
</g>
<!-- Node7 -->
<g id="node7" class="node">
<title>Node7</title>
<g id="a_node7"><a xlink:href="dense_2preconditioner_2identity_8hpp.html" target="_top" xlink:title=" ">
<polygon fill="white" stroke="#666666" points="2186,-635 2004,-635 2004,-605 2186,-605 2186,-635"/>
<text text-anchor="start" x="2012" y="-623" font-family="Helvetica,sans-Serif" font-size="10.00">include/proxsuite/proxqp</text>
<text text-anchor="middle" x="2095" y="-612" font-family="Helvetica,sans-Serif" font-size="10.00">/dense/preconditioner/identity.hpp</text>
</a>
</g>
</g>
<!-- Node1&#45;&gt;Node7 -->
<g id="edge6" class="edge">
<title>Node1&#45;&gt;Node7</title>
<path fill="none" stroke="#63b8ff" d="M1277.08,-681.8C1420.34,-675.65 1729.85,-660.51 1990,-635 1994.48,-634.56 1999.07,-634.08 2003.7,-633.56"/>
<polygon fill="#63b8ff" stroke="#63b8ff" points="1277.17,-678.29 1267.32,-682.21 1277.46,-685.28 1277.17,-678.29"/>
</g>
<!-- Node8 -->
<g id="node8" class="node">
<title>Node8</title>
<g id="a_node8"><a xlink:href="dense_2preconditioner_2ruiz_8hpp.html" target="_top" xlink:title=" ">
<polygon fill="white" stroke="#666666" points="306,-437 142,-437 142,-407 306,-407 306,-437"/>
<text text-anchor="start" x="150" y="-425" font-family="Helvetica,sans-Serif" font-size="10.00">include/proxsuite/proxqp</text>
<text text-anchor="middle" x="224" y="-414" font-family="Helvetica,sans-Serif" font-size="10.00">/dense/preconditioner/ruiz.hpp</text>
</a>
</g>
</g>
<!-- Node1&#45;&gt;Node8 -->
<g id="edge7" class="edge">
<title>Node1&#45;&gt;Node8</title>
<path fill="none" stroke="#63b8ff" d="M1116.9,-685.93C973,-686.27 661.67,-680.98 404,-635 303.09,-616.99 244.24,-651.2 183,-569 152.49,-528.04 191.77,-465.32 212.58,-437.34"/>
<polygon fill="#63b8ff" stroke="#63b8ff" points="1116.72,-689.43 1126.71,-685.89 1116.7,-682.43 1116.72,-689.43"/>
</g>
<!-- Node10 -->
<g id="node10" class="node">
<title>Node10</title>
<g id="a_node10"><a xlink:href="dense_2utils_8hpp.html" target="_top" xlink:title=" ">
<polygon fill="white" stroke="#666666" points="396.5,-365.5 259.5,-365.5 259.5,-335.5 396.5,-335.5 396.5,-365.5"/>
<text text-anchor="start" x="267.5" y="-353.5" font-family="Helvetica,sans-Serif" font-size="10.00">include/proxsuite/proxqp</text>
<text text-anchor="middle" x="328" y="-342.5" font-family="Helvetica,sans-Serif" font-size="10.00">/dense/utils.hpp</text>
</a>
</g>
</g>
<!-- Node1&#45;&gt;Node10 -->
<g id="edge15" class="edge">
<title>Node1&#45;&gt;Node10</title>
<path fill="none" stroke="#63b8ff" d="M1116.9,-681.83C975.87,-675.69 688.96,-660.45 592,-635 509.67,-613.39 418,-640.12 418,-555 418,-555 418,-555 418,-487 418,-435.32 372.01,-388.29 345.78,-365.66"/>
<polygon fill="#63b8ff" stroke="#63b8ff" points="1116.38,-685.31 1126.52,-682.25 1116.68,-678.32 1116.38,-685.31"/>
</g>
<!-- Node11 -->
<g id="node11" class="node">
<title>Node11</title>
<g id="a_node11"><a xlink:href="proxqp_2settings_8hpp.html" target="_top" xlink:title=" ">
<polygon fill="white" stroke="#666666" points="1003.5,-503 866.5,-503 866.5,-473 1003.5,-473 1003.5,-503"/>
<text text-anchor="start" x="874.5" y="-491" font-family="Helvetica,sans-Serif" font-size="10.00">include/proxsuite/proxqp</text>
<text text-anchor="middle" x="935" y="-480" font-family="Helvetica,sans-Serif" font-size="10.00">/settings.hpp</text>
</a>
</g>
</g>
<!-- Node1&#45;&gt;Node11 -->
<g id="edge16" class="edge">
<title>Node1&#45;&gt;Node11</title>
<path fill="none" stroke="#63b8ff" d="M1168.78,-663.89C1115.2,-623.81 1000.03,-537.65 954.29,-503.43"/>
<polygon fill="#63b8ff" stroke="#63b8ff" points="1166.42,-666.49 1176.52,-669.68 1170.61,-660.89 1166.42,-666.49"/>
</g>
<!-- Node13 -->
<g id="node13" class="node">
<title>Node13</title>
<g id="a_node13"><a xlink:href="sparse_2solver_8hpp.html" target="_top" xlink:title=" ">
<polygon fill="white" stroke="#666666" points="1482.5,-162 1345.5,-162 1345.5,-132 1482.5,-132 1482.5,-162"/>
<text text-anchor="start" x="1353.5" y="-150" font-family="Helvetica,sans-Serif" font-size="10.00">include/proxsuite/proxqp</text>
<text text-anchor="middle" x="1414" y="-139" font-family="Helvetica,sans-Serif" font-size="10.00">/sparse/solver.hpp</text>
</a>
</g>
</g>
<!-- Node1&#45;&gt;Node13 -->
<g id="edge69" class="edge">
<title>Node1&#45;&gt;Node13</title>
<path fill="none" stroke="#63b8ff" d="M1277.24,-685.15C1390.35,-683.78 1602.49,-675.38 1778,-635 1870.5,-613.72 1976,-649.91 1976,-555 1976,-555 1976,-555 1976,-278 1976,-177.85 1632.98,-154.84 1482.91,-149.56"/>
<polygon fill="#63b8ff" stroke="#63b8ff" points="1277.42,-681.65 1267.46,-685.25 1277.49,-688.65 1277.42,-681.65"/>
</g>
<!-- Node16 -->
<g id="node16" class="node">
<title>Node16</title>
<g id="a_node16"><a xlink:href="sparse_2utils_8hpp.html" target="_top" xlink:title=" ">
<polygon fill="white" stroke="#666666" points="1531.5,-294 1394.5,-294 1394.5,-264 1531.5,-264 1531.5,-294"/>
<text text-anchor="start" x="1402.5" y="-282" font-family="Helvetica,sans-Serif" font-size="10.00">include/proxsuite/proxqp</text>
<text text-anchor="middle" x="1463" y="-271" font-family="Helvetica,sans-Serif" font-size="10.00">/sparse/utils.hpp</text>
</a>
</g>
</g>
<!-- Node1&#45;&gt;Node16 -->
<g id="edge70" class="edge">
<title>Node1&#45;&gt;Node16</title>
<path fill="none" stroke="#63b8ff" d="M1277.07,-681.78C1387.28,-676.37 1579.35,-663.17 1643,-635 1683.6,-617.03 1699.1,-609.18 1718,-569 1766.25,-466.43 1721.98,-394.83 1629,-330 1600.36,-310.03 1563.59,-297.89 1531.94,-290.59"/>
<polygon fill="#63b8ff" stroke="#63b8ff" points="1277.01,-678.28 1267.19,-682.25 1277.35,-685.27 1277.01,-678.28"/>
</g>
<!-- Node17 -->
<g id="node17" class="node">
<title>Node17</title>
<g id="a_node17"><a xlink:href="sparse_2workspace_8hpp.html" target="_top" xlink:title=" ">
<polygon fill="white" stroke="#666666" points="1434.5,-228 1297.5,-228 1297.5,-198 1434.5,-198 1434.5,-228"/>
<text text-anchor="start" x="1305.5" y="-216" font-family="Helvetica,sans-Serif" font-size="10.00">include/proxsuite/proxqp</text>
<text text-anchor="middle" x="1366" y="-205" font-family="Helvetica,sans-Serif" font-size="10.00">/sparse/workspace.hpp</text>
</a>
</g>
</g>
<!-- Node1&#45;&gt;Node17 -->
<g id="edge72" class="edge">
<title>Node1&#45;&gt;Node17</title>
<path fill="none" stroke="#63b8ff" d="M1277.11,-679.27C1468.78,-664.49 1938,-621.52 1938,-555 1938,-555 1938,-555 1938,-421 1938,-373.28 1919.94,-357.59 1881,-330 1744.33,-233.18 1540.34,-215.48 1434.8,-213.28"/>
<polygon fill="#63b8ff" stroke="#63b8ff" points="1276.93,-675.77 1267.22,-680.03 1277.46,-682.75 1276.93,-675.77"/>
</g>
<!-- Node18 -->
<g id="node18" class="node">
<title>Node18</title>
<g id="a_node18"><a xlink:href="sparse_2views_8hpp.html" target="_top" xlink:title=" ">
<polygon fill="white" stroke="#666666" points="1155.5,-365.5 1018.5,-365.5 1018.5,-335.5 1155.5,-335.5 1155.5,-365.5"/>
<text text-anchor="start" x="1026.5" y="-353.5" font-family="Helvetica,sans-Serif" font-size="10.00">include/proxsuite/proxqp</text>
<text text-anchor="middle" x="1087" y="-342.5" font-family="Helvetica,sans-Serif" font-size="10.00">/sparse/views.hpp</text>
</a>
</g>
</g>
<!-- Node1&#45;&gt;Node18 -->
<g id="edge71" class="edge">
<title>Node1&#45;&gt;Node18</title>
<path fill="none" stroke="#63b8ff" d="M1200.76,-659.45C1204.28,-633.28 1209,-591.39 1209,-555 1209,-555 1209,-555 1209,-487 1209,-430.65 1150.02,-387.16 1114.08,-365.88"/>
<polygon fill="#63b8ff" stroke="#63b8ff" points="1197.33,-658.73 1199.41,-669.11 1204.26,-659.69 1197.33,-658.73"/>
</g>
<!-- Node21 -->
<g id="node21" class="node">
<title>Node21</title>
<g id="a_node21"><a xlink:href="proxqp_2sparse_2fwd_8hpp.html" target="_top" xlink:title=" ">
<polygon fill="white" stroke="#666666" points="1036.5,-635 899.5,-635 899.5,-605 1036.5,-605 1036.5,-635"/>
<text text-anchor="start" x="907.5" y="-623" font-family="Helvetica,sans-Serif" font-size="10.00">include/proxsuite/proxqp</text>
<text text-anchor="middle" x="968" y="-612" font-family="Helvetica,sans-Serif" font-size="10.00">/sparse/fwd.hpp</text>
</a>
</g>
</g>
<!-- Node1&#45;&gt;Node21 -->
<g id="edge45" class="edge">
<title>Node1&#45;&gt;Node21</title>
<path fill="none" stroke="#63b8ff" d="M1134.42,-667.51C1098.34,-657.43 1053.52,-644.9 1019.49,-635.39"/>
<polygon fill="#63b8ff" stroke="#63b8ff" points="1133.29,-670.83 1143.86,-670.15 1135.18,-664.09 1133.29,-670.83"/>
</g>
<!-- Node25 -->
<g id="node25" class="node">
<title>Node25</title>
<g id="a_node25"><a xlink:href="random__qp__problems_8hpp.html" target="_top" xlink:title=" ">
<polygon fill="white" stroke="#666666" points="1602,-365.5 1432,-365.5 1432,-335.5 1602,-335.5 1602,-365.5"/>
<text text-anchor="start" x="1440" y="-353.5" font-family="Helvetica,sans-Serif" font-size="10.00">include/proxsuite/proxqp</text>
<text text-anchor="middle" x="1517" y="-342.5" font-family="Helvetica,sans-Serif" font-size="10.00">/utils/random_qp_problems.hpp</text>
</a>
</g>
</g>
<!-- Node1&#45;&gt;Node25 -->
<g id="edge73" class="edge">
<title>Node1&#45;&gt;Node25</title>
<path fill="none" stroke="#63b8ff" d="M1277.24,-681.06C1420.63,-671.81 1706,-642.41 1706,-555 1706,-555 1706,-555 1706,-487 1706,-420.99 1628.91,-384.03 1573.19,-365.93"/>
<polygon fill="#63b8ff" stroke="#63b8ff" points="1277.18,-677.56 1267.42,-681.67 1277.62,-684.54 1277.18,-677.56"/>
</g>
<!-- Node2&#45;&gt;Node3 -->
<g id="edge2" class="edge">
<title>Node2&#45;&gt;Node3</title>
<path fill="none" stroke="#63b8ff" d="M424.07,-331.85C385.44,-320.27 335.57,-305.33 299.29,-294.47"/>
<polygon fill="#63b8ff" stroke="#63b8ff" points="422.61,-335.06 433.2,-334.58 424.62,-328.36 422.61,-335.06"/>
</g>
<!-- Node4 -->
<g id="node4" class="node">
<title>Node4</title>
<g id="a_node4"><a xlink:href="proxqp_2dense_2wrapper_8hpp.html" target="_top" xlink:title=" ">
<polygon fill="white" stroke="#666666" points="222.5,-228 85.5,-228 85.5,-198 222.5,-198 222.5,-228"/>
<text text-anchor="start" x="93.5" y="-216" font-family="Helvetica,sans-Serif" font-size="10.00">include/proxsuite/proxqp</text>
<text text-anchor="middle" x="154" y="-205" font-family="Helvetica,sans-Serif" font-size="10.00">/dense/wrapper.hpp</text>
</a>
</g>
</g>
<!-- Node3&#45;&gt;Node4 -->
<g id="edge3" class="edge">
<title>Node3&#45;&gt;Node4</title>
<path fill="none" stroke="#63b8ff" d="M219.97,-257.52C205.58,-248.03 188.83,-236.98 175.8,-228.39"/>
<polygon fill="#63b8ff" stroke="#63b8ff" points="217.93,-260.38 228.21,-262.96 221.79,-254.53 217.93,-260.38"/>
</g>
<!-- Node5 -->
<g id="node5" class="node">
<title>Node5</title>
<g id="a_node5"><a xlink:href="dense_8hpp.html" target="_top" xlink:title=" ">
<polygon fill="white" stroke="#666666" points="184.5,-162 47.5,-162 47.5,-132 184.5,-132 184.5,-162"/>
<text text-anchor="start" x="55.5" y="-150" font-family="Helvetica,sans-Serif" font-size="10.00">include/proxsuite/proxqp</text>
<text text-anchor="middle" x="116" y="-139" font-family="Helvetica,sans-Serif" font-size="10.00">/dense/dense.hpp</text>
</a>
</g>
</g>
<!-- Node4&#45;&gt;Node5 -->
<g id="edge4" class="edge">
<title>Node4&#45;&gt;Node5</title>
<path fill="none" stroke="#63b8ff" d="M139.82,-188.11C134.63,-179.38 128.93,-169.78 124.41,-162.16"/>
<polygon fill="#63b8ff" stroke="#63b8ff" points="136.68,-189.68 144.79,-196.49 142.7,-186.11 136.68,-189.68"/>
</g>
<!-- Node6 -->
<g id="node6" class="node">
<title>Node6</title>
<g id="a_node6"><a xlink:href="serialization_2wrapper_8hpp.html" target="_top" xlink:title=" ">
<polygon fill="white" stroke="#666666" points="367,-162 203,-162 203,-132 367,-132 367,-162"/>
<text text-anchor="start" x="211" y="-150" font-family="Helvetica,sans-Serif" font-size="10.00">include/proxsuite/serialization</text>
<text text-anchor="middle" x="285" y="-139" font-family="Helvetica,sans-Serif" font-size="10.00">/wrapper.hpp</text>
</a>
</g>
</g>
<!-- Node4&#45;&gt;Node6 -->
<g id="edge5" class="edge">
<title>Node4&#45;&gt;Node6</title>
<path fill="none" stroke="#63b8ff" d="M193.73,-192.59C213.69,-182.84 237.43,-171.24 255.7,-162.31"/>
<polygon fill="#63b8ff" stroke="#63b8ff" points="192.21,-189.44 184.76,-196.97 195.28,-195.73 192.21,-189.44"/>
</g>
<!-- Node8&#45;&gt;Node4 -->
<g id="edge13" class="edge">
<title>Node8&#45;&gt;Node4</title>
<path fill="none" stroke="#63b8ff" d="M133.8,-402.18C118.51,-394.94 104.52,-384.9 95,-371 62.75,-323.91 114.47,-256.9 140.48,-228.07"/>
<polygon fill="#63b8ff" stroke="#63b8ff" points="132.04,-405.24 142.61,-405.96 134.79,-398.8 132.04,-405.24"/>
</g>
<!-- Node9 -->
<g id="node9" class="node">
<title>Node9</title>
<g id="a_node9"><a xlink:href="dense_2helpers_8hpp.html" target="_top" xlink:title=" ">
<polygon fill="white" stroke="#666666" points="241.5,-365.5 104.5,-365.5 104.5,-335.5 241.5,-335.5 241.5,-365.5"/>
<text text-anchor="start" x="112.5" y="-353.5" font-family="Helvetica,sans-Serif" font-size="10.00">include/proxsuite/proxqp</text>
<text text-anchor="middle" x="173" y="-342.5" font-family="Helvetica,sans-Serif" font-size="10.00">/dense/helpers.hpp</text>
</a>
</g>
</g>
<!-- Node8&#45;&gt;Node9 -->
<g id="edge8" class="edge">
<title>Node8&#45;&gt;Node9</title>
<path fill="none" stroke="#63b8ff" d="M206.77,-397.53C199.08,-387.04 190.25,-375.01 183.55,-365.88"/>
<polygon fill="#63b8ff" stroke="#63b8ff" points="203.8,-399.39 212.54,-405.38 209.44,-395.25 203.8,-399.39"/>
</g>
<!-- Node8&#45;&gt;Node10 -->
<g id="edge11" class="edge">
<title>Node8&#45;&gt;Node10</title>
<path fill="none" stroke="#63b8ff" d="M254.87,-400.37C271.48,-389.27 291.56,-375.85 306.48,-365.88"/>
<polygon fill="#63b8ff" stroke="#63b8ff" points="253.18,-397.29 246.81,-405.76 257.07,-403.11 253.18,-397.29"/>
</g>
<!-- Node9&#45;&gt;Node3 -->
<g id="edge9" class="edge">
<title>Node9&#45;&gt;Node3</title>
<path fill="none" stroke="#63b8ff" d="M197.56,-327.62C209.73,-316.77 224.09,-303.98 234.86,-294.38"/>
<polygon fill="#63b8ff" stroke="#63b8ff" points="195.43,-324.83 190.29,-334.09 200.09,-330.05 195.43,-324.83"/>
</g>
<!-- Node9&#45;&gt;Node4 -->
<g id="edge10" class="edge">
<title>Node9&#45;&gt;Node4</title>
<path fill="none" stroke="#63b8ff" d="M169.41,-323.91C165.45,-295.67 159.22,-251.21 156.03,-228.46"/>
<polygon fill="#63b8ff" stroke="#63b8ff" points="165.94,-324.34 170.79,-333.76 172.87,-323.37 165.94,-324.34"/>
</g>
<!-- Node10&#45;&gt;Node3 -->
<g id="edge12" class="edge">
<title>Node10&#45;&gt;Node3</title>
<path fill="none" stroke="#63b8ff" d="M303.76,-327.62C291.74,-316.77 277.56,-303.98 266.93,-294.38"/>
<polygon fill="#63b8ff" stroke="#63b8ff" points="301.15,-329.98 310.92,-334.09 305.84,-324.79 301.15,-329.98"/>
</g>
<!-- Node11&#45;&gt;Node2 -->
<g id="edge18" class="edge">
<title>Node11&#45;&gt;Node2</title>
<path fill="none" stroke="#63b8ff" d="M854.77,-477.75C800.11,-470.11 726.6,-457.18 664,-437 605.95,-418.28 542.43,-385.05 508.22,-365.99"/>
<polygon fill="#63b8ff" stroke="#63b8ff" points="854.25,-481.21 864.64,-479.1 855.2,-474.28 854.25,-481.21"/>
</g>
<!-- Node11&#45;&gt;Node9 -->
<g id="edge17" class="edge">
<title>Node11&#45;&gt;Node9</title>
<path fill="none" stroke="#63b8ff" d="M854.96,-483.46C763.76,-478.2 610.68,-465.67 482,-437 441.67,-428.01 433.63,-418.71 394,-407 389.99,-405.82 294.96,-382.01 230.84,-365.96"/>
<polygon fill="#63b8ff" stroke="#63b8ff" points="854.63,-486.94 864.81,-484.01 855.02,-479.95 854.63,-486.94"/>
</g>
<!-- Node11&#45;&gt;Node10 -->
<g id="edge19" class="edge">
<title>Node11&#45;&gt;Node10</title>
<path fill="none" stroke="#63b8ff" d="M855.14,-479.5C784.33,-471.9 678.42,-458.21 588,-437 506.81,-417.96 414.75,-384.84 364.87,-365.9"/>
<polygon fill="#63b8ff" stroke="#63b8ff" points="854.38,-482.94 864.69,-480.51 855.11,-475.98 854.38,-482.94"/>
</g>
<!-- Node12 -->
<g id="node12" class="node">
<title>Node12</title>
<g id="a_node12"><a xlink:href="proxqp_2results_8hpp.html" target="_top" xlink:title=" ">
<polygon fill="white" stroke="#666666" points="809.5,-437 672.5,-437 672.5,-407 809.5,-407 809.5,-437"/>
<text text-anchor="start" x="680.5" y="-425" font-family="Helvetica,sans-Serif" font-size="10.00">include/proxsuite/proxqp</text>
<text text-anchor="middle" x="741" y="-414" font-family="Helvetica,sans-Serif" font-size="10.00">/results.hpp</text>
</a>
</g>
</g>
<!-- Node11&#45;&gt;Node12 -->
<g id="edge20" class="edge">
<title>Node11&#45;&gt;Node12</title>
<path fill="none" stroke="#63b8ff" d="M880.64,-469.07C850.35,-459.07 813.12,-446.79 784.73,-437.43"/>
<polygon fill="#63b8ff" stroke="#63b8ff" points="879.43,-472.35 890.03,-472.16 881.63,-465.71 879.43,-472.35"/>
</g>
<!-- Node11&#45;&gt;Node13 -->
<g id="edge39" class="edge">
<title>Node11&#45;&gt;Node13</title>
<path fill="none" stroke="#63b8ff" d="M934.91,-461.36C936.05,-427.91 942.53,-369.05 972,-330 1062.35,-210.27 1245.46,-168.88 1345.3,-154.9"/>
<polygon fill="#63b8ff" stroke="#63b8ff" points="931.41,-461.27 934.72,-471.33 938.41,-461.4 931.41,-461.27"/>
</g>
<!-- Node14 -->
<g id="node14" class="node">
<title>Node14</title>
<g id="a_node14"><a xlink:href="proxqp_2sparse_2wrapper_8hpp.html" target="_top" xlink:title=" ">
<polygon fill="white" stroke="#666666" points="739.5,-96 602.5,-96 602.5,-66 739.5,-66 739.5,-96"/>
<text text-anchor="start" x="610.5" y="-84" font-family="Helvetica,sans-Serif" font-size="10.00">include/proxsuite/proxqp</text>
<text text-anchor="middle" x="671" y="-73" font-family="Helvetica,sans-Serif" font-size="10.00">/sparse/wrapper.hpp</text>
</a>
</g>
</g>
<!-- Node11&#45;&gt;Node14 -->
<g id="edge43" class="edge">
<title>Node11&#45;&gt;Node14</title>
<path fill="none" stroke="#63b8ff" d="M919.35,-462.99C870.11,-387.45 719.28,-156.07 680.28,-96.24"/>
<polygon fill="#63b8ff" stroke="#63b8ff" points="916.38,-464.85 924.78,-471.32 922.25,-461.03 916.38,-464.85"/>
</g>
<!-- Node11&#45;&gt;Node16 -->
<g id="edge40" class="edge">
<title>Node11&#45;&gt;Node16</title>
<path fill="none" stroke="#63b8ff" d="M1014.97,-487.93C1128.39,-487.64 1328.4,-480.69 1384,-437 1423.8,-405.72 1398.2,-374.12 1423,-330 1430.3,-317.01 1440.92,-303.92 1449.38,-294.4"/>
<polygon fill="#63b8ff" stroke="#63b8ff" points="1015.11,-484.43 1005.11,-487.94 1015.11,-491.43 1015.11,-484.43"/>
</g>
<!-- Node11&#45;&gt;Node17 -->
<g id="edge42" class="edge">
<title>Node11&#45;&gt;Node17</title>
<path fill="none" stroke="#63b8ff" d="M940.47,-461.46C949.21,-426.78 969.62,-365.1 1010,-330 1092.18,-258.58 1219.23,-230.96 1297.24,-220.4"/>
<polygon fill="#63b8ff" stroke="#63b8ff" points="937.1,-460.51 938.2,-471.04 943.91,-462.12 937.1,-460.51"/>
</g>
<!-- Node11&#45;&gt;Node18 -->
<g id="edge41" class="edge">
<title>Node11&#45;&gt;Node18</title>
<path fill="none" stroke="#63b8ff" d="M1014.83,-478.97C1069.4,-471.64 1134.83,-458.58 1152,-437 1171.62,-412.34 1137.01,-382.98 1111.22,-365.87"/>
<polygon fill="#63b8ff" stroke="#63b8ff" points="1014.7,-475.45 1005.23,-480.21 1015.6,-482.4 1014.7,-475.45"/>
</g>
<!-- Node20 -->
<g id="node20" class="node">
<title>Node20</title>
<g id="a_node20"><a xlink:href="serialization_2settings_8hpp.html" target="_top" xlink:title=" ">
<polygon fill="white" stroke="#666666" points="1143,-437 979,-437 979,-407 1143,-407 1143,-437"/>
<text text-anchor="start" x="987" y="-425" font-family="Helvetica,sans-Serif" font-size="10.00">include/proxsuite/serialization</text>
<text text-anchor="middle" x="1061" y="-414" font-family="Helvetica,sans-Serif" font-size="10.00">/settings.hpp</text>
</a>
</g>
</g>
<!-- Node11&#45;&gt;Node20 -->
<g id="edge44" class="edge">
<title>Node11&#45;&gt;Node20</title>
<path fill="none" stroke="#63b8ff" d="M973.48,-467.45C992.62,-457.73 1015.33,-446.2 1032.82,-437.31"/>
<polygon fill="#63b8ff" stroke="#63b8ff" points="971.96,-464.3 964.63,-471.95 975.13,-470.54 971.96,-464.3"/>
</g>
<!-- Node12&#45;&gt;Node2 -->
<g id="edge22" class="edge">
<title>Node12&#45;&gt;Node2</title>
<path fill="none" stroke="#63b8ff" d="M676.29,-403.57C633.22,-391.97 577.31,-376.9 536.7,-365.97"/>
<polygon fill="#63b8ff" stroke="#63b8ff" points="675.2,-406.9 685.77,-406.12 677.02,-400.14 675.2,-406.9"/>
</g>
<!-- Node12&#45;&gt;Node9 -->
<g id="edge21" class="edge">
<title>Node12&#45;&gt;Node9</title>
<path fill="none" stroke="#63b8ff" d="M660.77,-416.35C563.32,-409.9 394.21,-396.07 251,-371 243.03,-369.6 234.66,-367.84 226.49,-365.94"/>
<polygon fill="#63b8ff" stroke="#63b8ff" points="660.28,-419.83 670.49,-416.99 660.74,-412.84 660.28,-419.83"/>
</g>
<!-- Node12&#45;&gt;Node10 -->
<g id="edge23" class="edge">
<title>Node12&#45;&gt;Node10</title>
<path fill="none" stroke="#63b8ff" d="M660.95,-411.27C592.84,-402.46 492.59,-388.24 406,-371 398.47,-369.5 390.58,-367.75 382.82,-365.91"/>
<polygon fill="#63b8ff" stroke="#63b8ff" points="660.15,-414.69 670.51,-412.5 661.04,-407.75 660.15,-414.69"/>
</g>
<!-- Node12&#45;&gt;Node13 -->
<g id="edge24" class="edge">
<title>Node12&#45;&gt;Node13</title>
<path fill="none" stroke="#63b8ff" d="M760.02,-397.94C766.78,-389.56 774.36,-379.95 781,-371 836.63,-296.07 819.6,-245.39 900,-198 973.67,-154.58 1222.92,-148.11 1345.2,-147.63"/>
<polygon fill="#63b8ff" stroke="#63b8ff" points="757.38,-395.63 753.79,-405.6 762.81,-400.05 757.38,-395.63"/>
</g>
<!-- Node12&#45;&gt;Node14 -->
<g id="edge37" class="edge">
<title>Node12&#45;&gt;Node14</title>
<path fill="none" stroke="#63b8ff" d="M661.25,-408.3C638.24,-400.95 615.05,-389.34 599,-371 571.79,-339.91 580,-321.32 580,-280 580,-280 580,-280 580,-212 580,-162.41 624.99,-118.29 651.7,-96.46"/>
<polygon fill="#63b8ff" stroke="#63b8ff" points="660.1,-411.61 670.68,-411.06 662.07,-404.89 660.1,-411.61"/>
</g>
<!-- Node12&#45;&gt;Node16 -->
<g id="edge27" class="edge">
<title>Node12&#45;&gt;Node16</title>
<path fill="none" stroke="#63b8ff" d="M795.25,-402.88C823.51,-393.41 858.63,-381.62 890,-371 943.38,-352.92 954.99,-342.28 1010,-330 1144.18,-300.05 1304.89,-287.73 1394.31,-282.89"/>
<polygon fill="#63b8ff" stroke="#63b8ff" points="794.19,-399.54 785.81,-406.03 796.41,-406.18 794.19,-399.54"/>
</g>
<!-- Node12&#45;&gt;Node17 -->
<g id="edge36" class="edge">
<title>Node12&#45;&gt;Node17</title>
<path fill="none" stroke="#63b8ff" d="M772.96,-400.24C785.93,-391.52 800.91,-381.08 814,-371 871.67,-326.59 871.36,-293.29 938,-264 1000.75,-236.42 1192.97,-222.7 1297.15,-217.14"/>
<polygon fill="#63b8ff" stroke="#63b8ff" points="771.14,-397.24 764.76,-405.69 775.02,-403.07 771.14,-397.24"/>
</g>
<!-- Node12&#45;&gt;Node18 -->
<g id="edge32" class="edge">
<title>Node12&#45;&gt;Node18</title>
<path fill="none" stroke="#63b8ff" d="M821.03,-406.71C873.23,-397.16 942.8,-384 1004,-371 1011.38,-369.43 1019.12,-367.71 1026.78,-365.97"/>
<polygon fill="#63b8ff" stroke="#63b8ff" points="820.53,-403.24 811.32,-408.48 821.78,-410.13 820.53,-403.24"/>
</g>
<!-- Node19 -->
<g id="node19" class="node">
<title>Node19</title>
<g id="a_node19"><a xlink:href="serialization_2results_8hpp.html" target="_top" xlink:title=" ">
<polygon fill="white" stroke="#666666" points="772,-365.5 608,-365.5 608,-335.5 772,-335.5 772,-365.5"/>
<text text-anchor="start" x="616" y="-353.5" font-family="Helvetica,sans-Serif" font-size="10.00">include/proxsuite/serialization</text>
<text text-anchor="middle" x="690" y="-342.5" font-family="Helvetica,sans-Serif" font-size="10.00">/results.hpp</text>
</a>
</g>
</g>
<!-- Node12&#45;&gt;Node19 -->
<g id="edge38" class="edge">
<title>Node12&#45;&gt;Node19</title>
<path fill="none" stroke="#63b8ff" d="M723.77,-397.53C716.08,-387.04 707.25,-375.01 700.55,-365.88"/>
<polygon fill="#63b8ff" stroke="#63b8ff" points="720.8,-399.39 729.54,-405.38 726.44,-395.25 720.8,-399.39"/>
</g>
<!-- Node13&#45;&gt;Node14 -->
<g id="edge25" class="edge">
<title>Node13&#45;&gt;Node14</title>
<path fill="none" stroke="#63b8ff" d="M1333.97,-139.11C1187.3,-126.47 877.8,-99.81 739.86,-87.93"/>
<polygon fill="#63b8ff" stroke="#63b8ff" points="1333.33,-142.56 1343.59,-139.94 1333.93,-135.59 1333.33,-142.56"/>
</g>
<!-- Node15 -->
<g id="node15" class="node">
<title>Node15</title>
<g id="a_node15"><a xlink:href="sparse_8hpp.html" target="_top" xlink:title=" ">
<polygon fill="white" stroke="#666666" points="739.5,-30 602.5,-30 602.5,0 739.5,0 739.5,-30"/>
<text text-anchor="start" x="610.5" y="-18" font-family="Helvetica,sans-Serif" font-size="10.00">include/proxsuite/proxqp</text>
<text text-anchor="middle" x="671" y="-7" font-family="Helvetica,sans-Serif" font-size="10.00">/sparse/sparse.hpp</text>
</a>
</g>
</g>
<!-- Node14&#45;&gt;Node15 -->
<g id="edge26" class="edge">
<title>Node14&#45;&gt;Node15</title>
<path fill="none" stroke="#63b8ff" d="M671,-54.39C671,-46.13 671,-37.28 671,-30.16"/>
<polygon fill="#63b8ff" stroke="#63b8ff" points="667.5,-54.28 671,-64.28 674.5,-54.28 667.5,-54.28"/>
</g>
<!-- Node16&#45;&gt;Node13 -->
<g id="edge28" class="edge">
<title>Node16&#45;&gt;Node13</title>
<path fill="none" stroke="#63b8ff" d="M1459.02,-252.55C1456.02,-236.51 1451.17,-215.59 1444,-198 1438.81,-185.25 1430.66,-171.94 1424.17,-162.25"/>
<polygon fill="#63b8ff" stroke="#63b8ff" points="1455.54,-252.98 1460.71,-262.23 1462.44,-251.78 1455.54,-252.98"/>
</g>
<!-- Node16&#45;&gt;Node17 -->
<g id="edge29" class="edge">
<title>Node16&#45;&gt;Node17</title>
<path fill="none" stroke="#63b8ff" d="M1425.8,-257.64C1410.63,-248.09 1393.94,-236.95 1381.96,-228.31"/>
<polygon fill="#63b8ff" stroke="#63b8ff" points="1423.86,-260.55 1434.2,-262.84 1427.54,-254.6 1423.86,-260.55"/>
</g>
<!-- Node17&#45;&gt;Node13 -->
<g id="edge30" class="edge">
<title>Node17&#45;&gt;Node13</title>
<path fill="none" stroke="#63b8ff" d="M1383.49,-188.68C1390.15,-179.79 1397.54,-169.95 1403.38,-162.16"/>
<polygon fill="#63b8ff" stroke="#63b8ff" points="1380.76,-186.49 1377.56,-196.59 1386.36,-190.69 1380.76,-186.49"/>
</g>
<!-- Node17&#45;&gt;Node16 -->
<g id="edge31" class="edge">
<title>Node17&#45;&gt;Node16</title>
<path fill="none" stroke="#63b8ff" d="M1403.26,-234.4C1418.48,-243.98 1435.22,-255.16 1447.19,-263.8"/>
<polygon fill="#63b8ff" stroke="#63b8ff" points="1405.18,-231.47 1394.83,-229.18 1401.49,-237.42 1405.18,-231.47"/>
</g>
<!-- Node18&#45;&gt;Node13 -->
<g id="edge33" class="edge">
<title>Node18&#45;&gt;Node13</title>
<path fill="none" stroke="#63b8ff" d="M1111.41,-327.52C1147.87,-295.57 1219.72,-235.97 1289,-198 1315.03,-183.73 1346,-171.32 1370.6,-162.42"/>
<polygon fill="#63b8ff" stroke="#63b8ff" points="1109.23,-324.77 1104.06,-334.01 1113.87,-330.02 1109.23,-324.77"/>
</g>
<!-- Node18&#45;&gt;Node16 -->
<g id="edge34" class="edge">
<title>Node18&#45;&gt;Node16</title>
<path fill="none" stroke="#63b8ff" d="M1153.58,-332.48C1157.44,-331.61 1161.27,-330.78 1165,-330 1243.06,-313.72 1333.48,-299.15 1394.06,-289.99"/>
<polygon fill="#63b8ff" stroke="#63b8ff" points="1153.12,-329 1144.17,-334.67 1154.7,-335.82 1153.12,-329"/>
</g>
<!-- Node18&#45;&gt;Node17 -->
<g id="edge35" class="edge">
<title>Node18&#45;&gt;Node17</title>
<path fill="none" stroke="#63b8ff" d="M1126.95,-330.1C1183.57,-302.6 1285.88,-252.91 1336.29,-228.43"/>
<polygon fill="#63b8ff" stroke="#63b8ff" points="1125.42,-326.95 1117.96,-334.47 1128.48,-333.25 1125.42,-326.95"/>
</g>
<!-- Node21&#45;&gt;Node11 -->
<g id="edge47" class="edge">
<title>Node21&#45;&gt;Node11</title>
<path fill="none" stroke="#63b8ff" d="M961.59,-593.74C954.77,-566.86 944.21,-525.28 938.67,-503.47"/>
<polygon fill="#63b8ff" stroke="#63b8ff" points="958.12,-594.29 963.97,-603.12 964.9,-592.57 958.12,-594.29"/>
</g>
<!-- Node21&#45;&gt;Node12 -->
<g id="edge46" class="edge">
<title>Node21&#45;&gt;Node12</title>
<path fill="none" stroke="#63b8ff" d="M942.68,-597.14C895.89,-556.74 797.1,-471.44 757.72,-437.43"/>
<polygon fill="#63b8ff" stroke="#63b8ff" points="940.31,-599.71 950.16,-603.6 944.88,-594.41 940.31,-599.71"/>
</g>
<!-- Node21&#45;&gt;Node13 -->
<g id="edge64" class="edge">
<title>Node21&#45;&gt;Node13</title>
<path fill="none" stroke="#63b8ff" d="M1048.34,-613.24C1274.47,-594.85 1900,-528.03 1900,-351.5 1900,-351.5 1900,-351.5 1900,-278 1900,-192.68 1616.93,-161.87 1482.86,-152.06"/>
<polygon fill="#63b8ff" stroke="#63b8ff" points="1048.11,-609.75 1038.42,-614.04 1048.67,-616.73 1048.11,-609.75"/>
</g>
<!-- Node22 -->
<g id="node22" class="node">
<title>Node22</title>
<g id="a_node22"><a xlink:href="sparse_2helpers_8hpp.html" target="_top" xlink:title=" ">
<polygon fill="white" stroke="#666666" points="329.5,-569 192.5,-569 192.5,-539 329.5,-539 329.5,-569"/>
<text text-anchor="start" x="200.5" y="-557" font-family="Helvetica,sans-Serif" font-size="10.00">include/proxsuite/proxqp</text>
<text text-anchor="middle" x="261" y="-546" font-family="Helvetica,sans-Serif" font-size="10.00">/sparse/helpers.hpp</text>
</a>
</g>
</g>
<!-- Node21&#45;&gt;Node22 -->
<g id="edge48" class="edge">
<title>Node21&#45;&gt;Node22</title>
<path fill="none" stroke="#63b8ff" d="M887.8,-611.74C747.86,-599.07 461.5,-573.15 329.91,-561.24"/>
<polygon fill="#63b8ff" stroke="#63b8ff" points="887.46,-615.22 897.74,-612.64 888.09,-608.25 887.46,-615.22"/>
</g>
<!-- Node23 -->
<g id="node23" class="node">
<title>Node23</title>
<g id="a_node23"><a xlink:href="proxqp_2sparse_2model_8hpp.html" target="_top" xlink:title=" ">
<polygon fill="white" stroke="#666666" points="1547.5,-503 1410.5,-503 1410.5,-473 1547.5,-473 1547.5,-503"/>
<text text-anchor="start" x="1418.5" y="-491" font-family="Helvetica,sans-Serif" font-size="10.00">include/proxsuite/proxqp</text>
<text text-anchor="middle" x="1479" y="-480" font-family="Helvetica,sans-Serif" font-size="10.00">/sparse/model.hpp</text>
</a>
</g>
</g>
<!-- Node21&#45;&gt;Node23 -->
<g id="edge50" class="edge">
<title>Node21&#45;&gt;Node23</title>
<path fill="none" stroke="#63b8ff" d="M1035.68,-601.78C1137.24,-575.94 1327.26,-527.6 1422.11,-503.47"/>
<polygon fill="#63b8ff" stroke="#63b8ff" points="1034.93,-598.36 1026.11,-604.22 1036.66,-605.14 1034.93,-598.36"/>
</g>
<!-- Node27 -->
<g id="node27" class="node">
<title>Node27</title>
<g id="a_node27"><a xlink:href="sparse_2preconditioner_2ruiz_8hpp.html" target="_top" xlink:title=" ">
<polygon fill="white" stroke="#666666" points="1871.5,-371 1734.5,-371 1734.5,-330 1871.5,-330 1871.5,-371"/>
<text text-anchor="start" x="1742.5" y="-359" font-family="Helvetica,sans-Serif" font-size="10.00">include/proxsuite/proxqp</text>
<text text-anchor="start" x="1742.5" y="-348" font-family="Helvetica,sans-Serif" font-size="10.00">/sparse/preconditioner</text>
<text text-anchor="middle" x="1803" y="-337" font-family="Helvetica,sans-Serif" font-size="10.00">/ruiz.hpp</text>
</a>
</g>
</g>
<!-- Node21&#45;&gt;Node27 -->
<g id="edge61" class="edge">
<title>Node21&#45;&gt;Node27</title>
<path fill="none" stroke="#63b8ff" d="M1048.07,-610.94C1163.31,-597.64 1381.37,-566.04 1557,-503 1645.52,-471.23 1736.34,-404.73 1778.6,-371.41"/>
<polygon fill="#63b8ff" stroke="#63b8ff" points="1047.95,-607.43 1038.41,-612.04 1048.74,-614.39 1047.95,-607.43"/>
</g>
<!-- Node28 -->
<g id="node28" class="node">
<title>Node28</title>
<g id="a_node28"><a xlink:href="status_8hpp.html" target="_top" xlink:title=" ">
<polygon fill="white" stroke="#666666" points="809.5,-569 672.5,-569 672.5,-539 809.5,-539 809.5,-569"/>
<text text-anchor="start" x="680.5" y="-557" font-family="Helvetica,sans-Serif" font-size="10.00">include/proxsuite/proxqp</text>
<text text-anchor="middle" x="741" y="-546" font-family="Helvetica,sans-Serif" font-size="10.00">/status.hpp</text>
</a>
</g>
</g>
<!-- Node21&#45;&gt;Node28 -->
<g id="edge65" class="edge">
<title>Node21&#45;&gt;Node28</title>
<path fill="none" stroke="#63b8ff" d="M905.97,-601.51C870.2,-591.43 825.77,-578.9 792.04,-569.39"/>
<polygon fill="#63b8ff" stroke="#63b8ff" points="904.74,-604.8 915.32,-604.15 906.64,-598.06 904.74,-604.8"/>
</g>
<!-- Node22&#45;&gt;Node14 -->
<g id="edge49" class="edge">
<title>Node22&#45;&gt;Node14</title>
<path fill="none" stroke="#63b8ff" d="M219.64,-533.65C146.04,-496.03 0,-405.56 0,-280 0,-280 0,-280 0,-212 0,-172.64 5.58,-154.33 38,-132 83.62,-100.58 447.83,-87.68 602.22,-83.58"/>
<polygon fill="#63b8ff" stroke="#63b8ff" points="217.66,-536.57 228.16,-537.93 220.79,-530.32 217.66,-536.57"/>
</g>
<!-- Node23&#45;&gt;Node13 -->
<g id="edge56" class="edge">
<title>Node23&#45;&gt;Node13</title>
<path fill="none" stroke="#63b8ff" d="M1545.87,-468.95C1600.24,-449.74 1668,-413.39 1668,-351.5 1668,-351.5 1668,-351.5 1668,-278 1668,-194.53 1557.96,-164.62 1482.74,-153.93"/>
<polygon fill="#63b8ff" stroke="#63b8ff" points="1544.98,-465.56 1536.63,-472.08 1547.22,-472.19 1544.98,-465.56"/>
</g>
<!-- Node23&#45;&gt;Node16 -->
<g id="edge57" class="edge">
<title>Node23&#45;&gt;Node16</title>
<path fill="none" stroke="#63b8ff" d="M1517.28,-467.25C1568.35,-438.24 1648.28,-381.94 1611,-330 1592.81,-304.66 1561.1,-292 1531.68,-285.74"/>
<polygon fill="#63b8ff" stroke="#63b8ff" points="1515.86,-464.03 1508.81,-471.94 1519.25,-470.15 1515.86,-464.03"/>
</g>
<!-- Node23&#45;&gt;Node17 -->
<g id="edge59" class="edge">
<title>Node23&#45;&gt;Node17</title>
<path fill="none" stroke="#63b8ff" d="M1465.4,-462.92C1445.62,-427.07 1408.78,-357.09 1386,-294 1377.93,-271.65 1371.92,-244.65 1368.69,-228.42"/>
<polygon fill="#63b8ff" stroke="#63b8ff" points="1462.3,-464.55 1470.22,-471.59 1468.42,-461.15 1462.3,-464.55"/>
</g>
<!-- Node23&#45;&gt;Node18 -->
<g id="edge58" class="edge">
<title>Node23&#45;&gt;Node18</title>
<path fill="none" stroke="#63b8ff" d="M1459.12,-464.56C1441.34,-446.03 1413.59,-420.62 1384,-407 1294.4,-365.75 1261.6,-390.98 1165,-371 1157.62,-369.47 1149.88,-367.72 1142.27,-365.91"/>
<polygon fill="#63b8ff" stroke="#63b8ff" points="1456.37,-466.75 1465.75,-471.67 1461.49,-461.97 1456.37,-466.75"/>
</g>
<!-- Node24 -->
<g id="node24" class="node">
<title>Node24</title>
<g id="a_node24"><a xlink:href="proxqp_2dense_2model_8hpp.html" target="_top" xlink:title=" ">
<polygon fill="white" stroke="#666666" points="1374.5,-437 1237.5,-437 1237.5,-407 1374.5,-407 1374.5,-437"/>
<text text-anchor="start" x="1245.5" y="-425" font-family="Helvetica,sans-Serif" font-size="10.00">include/proxsuite/proxqp</text>
<text text-anchor="middle" x="1306" y="-414" font-family="Helvetica,sans-Serif" font-size="10.00">/dense/model.hpp</text>
</a>
</g>
</g>
<!-- Node23&#45;&gt;Node24 -->
<g id="edge51" class="edge">
<title>Node23&#45;&gt;Node24</title>
<path fill="none" stroke="#63b8ff" d="M1429.46,-468.67C1402.64,-458.75 1369.98,-446.67 1344.99,-437.43"/>
<polygon fill="#63b8ff" stroke="#63b8ff" points="1428.16,-471.92 1438.76,-472.11 1430.59,-465.36 1428.16,-471.92"/>
</g>
<!-- Node23&#45;&gt;Node25 -->
<g id="edge60" class="edge">
<title>Node23&#45;&gt;Node25</title>
<path fill="none" stroke="#63b8ff" d="M1486.07,-461.79C1493.99,-433.57 1506.54,-388.81 1512.94,-365.96"/>
<polygon fill="#63b8ff" stroke="#63b8ff" points="1482.73,-460.72 1483.4,-471.3 1489.47,-462.61 1482.73,-460.72"/>
</g>
<!-- Node24&#45;&gt;Node2 -->
<g id="edge52" class="edge">
<title>Node24&#45;&gt;Node2</title>
<path fill="none" stroke="#63b8ff" d="M1225.61,-413.3C1201.91,-411.14 1175.92,-408.87 1152,-407 906.45,-387.85 843.65,-399.45 599,-371 583.69,-369.22 567.31,-366.79 551.84,-364.26"/>
<polygon fill="#63b8ff" stroke="#63b8ff" points="1225.25,-416.78 1235.53,-414.21 1225.89,-409.81 1225.25,-416.78"/>
</g>
<!-- Node24&#45;&gt;Node10 -->
<g id="edge53" class="edge">
<title>Node24&#45;&gt;Node10</title>
<path fill="none" stroke="#63b8ff" d="M1225.63,-413.04C1201.93,-410.87 1175.94,-408.66 1152,-407 820.86,-383.97 734.38,-419.49 406,-371 397.44,-369.74 388.45,-367.94 379.74,-365.94"/>
<polygon fill="#63b8ff" stroke="#63b8ff" points="1225.27,-416.53 1235.55,-413.96 1225.91,-409.56 1225.27,-416.53"/>
</g>
<!-- Node24&#45;&gt;Node25 -->
<g id="edge54" class="edge">
<title>Node24&#45;&gt;Node25</title>
<path fill="none" stroke="#63b8ff" d="M1360.5,-403.05C1395.5,-391.52 1440.37,-376.74 1473.08,-365.97"/>
<polygon fill="#63b8ff" stroke="#63b8ff" points="1359.82,-399.59 1351.41,-406.04 1362.01,-406.24 1359.82,-399.59"/>
</g>
<!-- Node26 -->
<g id="node26" class="node">
<title>Node26</title>
<g id="a_node26"><a xlink:href="serialization_2model_8hpp.html" target="_top" xlink:title=" ">
<polygon fill="white" stroke="#666666" points="1338,-365.5 1174,-365.5 1174,-335.5 1338,-335.5 1338,-365.5"/>
<text text-anchor="start" x="1182" y="-353.5" font-family="Helvetica,sans-Serif" font-size="10.00">include/proxsuite/serialization</text>
<text text-anchor="middle" x="1256" y="-342.5" font-family="Helvetica,sans-Serif" font-size="10.00">/model.hpp</text>
</a>
</g>
</g>
<!-- Node24&#45;&gt;Node26 -->
<g id="edge55" class="edge">
<title>Node24&#45;&gt;Node26</title>
<path fill="none" stroke="#63b8ff" d="M1289.11,-397.53C1281.57,-387.04 1272.91,-375.01 1266.35,-365.88"/>
<polygon fill="#63b8ff" stroke="#63b8ff" points="1286.07,-399.3 1294.76,-405.37 1291.76,-395.21 1286.07,-399.3"/>
</g>
<!-- Node27&#45;&gt;Node13 -->
<g id="edge62" class="edge">
<title>Node27&#45;&gt;Node13</title>
<path fill="none" stroke="#63b8ff" d="M1787.79,-319.62C1768.29,-284.54 1731.04,-227.44 1682,-198 1621.23,-161.52 1539.85,-150.61 1482.77,-147.84"/>
<polygon fill="#63b8ff" stroke="#63b8ff" points="1784.71,-321.28 1792.55,-328.41 1790.87,-317.95 1784.71,-321.28"/>
</g>
<!-- Node27&#45;&gt;Node16 -->
<g id="edge63" class="edge">
<title>Node27&#45;&gt;Node16</title>
<path fill="none" stroke="#63b8ff" d="M1723.06,-330.66C1722.03,-330.44 1721.01,-330.22 1720,-330 1656.45,-316.36 1583.7,-302.36 1531.87,-292.65"/>
<polygon fill="#63b8ff" stroke="#63b8ff" points="1722.21,-334.06 1732.73,-332.79 1723.72,-327.22 1722.21,-334.06"/>
</g>
<!-- Node28&#45;&gt;Node9 -->
<g id="edge66" class="edge">
<title>Node28&#45;&gt;Node9</title>
<path fill="none" stroke="#63b8ff" d="M684.98,-535.16C616.15,-513.04 495.96,-473.74 394,-437 376.05,-430.53 268.08,-388.55 209.97,-365.91"/>
<polygon fill="#63b8ff" stroke="#63b8ff" points="683.54,-538.37 694.13,-538.1 685.68,-531.71 683.54,-538.37"/>
</g>
<!-- Node28&#45;&gt;Node11 -->
<g id="edge68" class="edge">
<title>Node28&#45;&gt;Node11</title>
<path fill="none" stroke="#63b8ff" d="M795.36,-535.07C825.65,-525.07 862.88,-512.79 891.27,-503.43"/>
<polygon fill="#63b8ff" stroke="#63b8ff" points="794.37,-531.71 785.97,-538.16 796.57,-538.35 794.37,-531.71"/>
</g>
<!-- Node28&#45;&gt;Node12 -->
<g id="edge67" class="edge">
<title>Node28&#45;&gt;Node12</title>
<path fill="none" stroke="#63b8ff" d="M741,-527.38C741,-500.49 741,-459.18 741,-437.47"/>
<polygon fill="#63b8ff" stroke="#63b8ff" points="737.5,-527.08 741,-537.08 744.5,-527.08 737.5,-527.08"/>
</g>
</g>
</svg>
