<?xml version="1.0" encoding="UTF-8" standalone="no"?>
<!DOCTYPE svg PUBLIC "-//W3C//DTD SVG 1.1//EN"
 "http://www.w3.org/Graphics/SVG/1.1/DTD/svg11.dtd">
<!-- Generated by graphviz version 8.1.0 (20230707.2238)
 -->
<!-- Title: include/proxsuite/proxqp/dense/utils.hpp Pages: 1 -->
<svg width="481pt" height="320pt"
 viewBox="0.00 0.00 480.88 319.50" xmlns="http://www.w3.org/2000/svg" xmlns:xlink="http://www.w3.org/1999/xlink">
<g id="graph0" class="graph" transform="scale(1 1) rotate(0) translate(4 315.5)">
<title>include/proxsuite/proxqp/dense/utils.hpp</title>
<!-- Node1 -->
<g id="Node000001" class="node">
<title>Node1</title>
<g id="a_Node000001"><a xlink:title=" ">
<polygon fill="#999999" stroke="#666666" points="291.75,-311.5 155,-311.5 155,-278 291.75,-278 291.75,-311.5"/>
<text text-anchor="start" x="163" y="-298" font-family="Helvetica,sans-Serif" font-size="10.00">include/proxsuite/proxqp</text>
<text text-anchor="middle" x="223.38" y="-285.25" font-family="Helvetica,sans-Serif" font-size="10.00">/dense/utils.hpp</text>
</a>
</g>
</g>
<!-- Node2 -->
<g id="Node000002" class="node">
<title>Node2</title>
<g id="a_Node000002"><a xlink:href="dense_2solver_8hpp.html" target="_top" xlink:title=" ">
<polygon fill="white" stroke="#666666" points="291.75,-242 155,-242 155,-208.5 291.75,-208.5 291.75,-242"/>
<text text-anchor="start" x="163" y="-228.5" font-family="Helvetica,sans-Serif" font-size="10.00">include/proxsuite/proxqp</text>
<text text-anchor="middle" x="223.38" y="-215.75" font-family="Helvetica,sans-Serif" font-size="10.00">/dense/solver.hpp</text>
</a>
</g>
</g>
<!-- Node1&#45;&gt;Node2 -->
<g id="edge1_Node000001_Node000002" class="edge">
<title>Node1&#45;&gt;Node2</title>
<g id="a_edge1_Node000001_Node000002"><a xlink:title=" ">
<path fill="none" stroke="#63b8ff" d="M223.38,-266.89C223.38,-258.5 223.38,-249.51 223.38,-242.13"/>
<polygon fill="#63b8ff" stroke="#63b8ff" points="219.88,-266.75 223.38,-276.75 226.88,-266.75 219.88,-266.75"/>
</a>
</g>
</g>
<!-- Node3 -->
<g id="Node000003" class="node">
<title>Node3</title>
<g id="a_Node000003"><a xlink:href="proxqp_2dense_2wrapper_8hpp.html" target="_top" xlink:title=" ">
<polygon fill="white" stroke="#666666" points="291.75,-172.5 155,-172.5 155,-139 291.75,-139 291.75,-172.5"/>
<text text-anchor="start" x="163" y="-159" font-family="Helvetica,sans-Serif" font-size="10.00">include/proxsuite/proxqp</text>
<text text-anchor="middle" x="223.38" y="-146.25" font-family="Helvetica,sans-Serif" font-size="10.00">/dense/wrapper.hpp</text>
</a>
</g>
</g>
<!-- Node2&#45;&gt;Node3 -->
<g id="edge2_Node000002_Node000003" class="edge">
<title>Node2&#45;&gt;Node3</title>
<g id="a_edge2_Node000002_Node000003"><a xlink:title=" ">
<path fill="none" stroke="#63b8ff" d="M223.38,-197.39C223.38,-189 223.38,-180.01 223.38,-172.63"/>
<polygon fill="#63b8ff" stroke="#63b8ff" points="219.88,-197.25 223.38,-207.25 226.88,-197.25 219.88,-197.25"/>
</a>
</g>
</g>
<!-- Node4 -->
<g id="Node000004" class="node">
<title>Node4</title>
<g id="a_Node000004"><a xlink:href="compute__ECJ_8hpp.html" target="_top" xlink:title=" ">
<polygon fill="white" stroke="#666666" points="136.75,-103 0,-103 0,-69.5 136.75,-69.5 136.75,-103"/>
<text text-anchor="start" x="8" y="-89.5" font-family="Helvetica,sans-Serif" font-size="10.00">include/proxsuite/proxqp</text>
<text text-anchor="middle" x="68.38" y="-76.75" font-family="Helvetica,sans-Serif" font-size="10.00">/dense/compute_ECJ.hpp</text>
</a>
</g>
</g>
<!-- Node3&#45;&gt;Node4 -->
<g id="edge3_Node000003_Node000004" class="edge">
<title>Node3&#45;&gt;Node4</title>
<g id="a_edge3_Node000003_Node000004"><a xlink:title=" ">
<path fill="none" stroke="#63b8ff" d="M176.45,-134.32C153.7,-124.41 126.76,-112.68 105.47,-103.4"/>
<polygon fill="#63b8ff" stroke="#63b8ff" points="174.68,-137.8 185.25,-138.58 177.48,-131.38 174.68,-137.8"/>
</a>
</g>
</g>
<!-- Node6 -->
<g id="Node000006" class="node">
<title>Node6</title>
<g id="a_Node000006"><a xlink:href="dense_8hpp.html" target="_top" xlink:title=" ">
<polygon fill="white" stroke="#666666" points="291.75,-103 155,-103 155,-69.5 291.75,-69.5 291.75,-103"/>
<text text-anchor="start" x="163" y="-89.5" font-family="Helvetica,sans-Serif" font-size="10.00">include/proxsuite/proxqp</text>
<text text-anchor="middle" x="223.38" y="-76.75" font-family="Helvetica,sans-Serif" font-size="10.00">/dense/dense.hpp</text>
</a>
</g>
</g>
<!-- Node3&#45;&gt;Node6 -->
<g id="edge5_Node000003_Node000006" class="edge">
<title>Node3&#45;&gt;Node6</title>
<g id="a_edge5_Node000003_Node000006"><a xlink:title=" ">
<path fill="none" stroke="#63b8ff" d="M223.38,-127.89C223.38,-119.5 223.38,-110.51 223.38,-103.13"/>
<polygon fill="#63b8ff" stroke="#63b8ff" points="219.88,-127.75 223.38,-137.75 226.88,-127.75 219.88,-127.75"/>
</a>
</g>
</g>
<!-- Node7 -->
<g id="Node000007" class="node">
<title>Node7</title>
<g id="a_Node000007"><a xlink:href="serialization_2wrapper_8hpp.html" target="_top" xlink:title=" ">
<polygon fill="white" stroke="#666666" points="472.88,-103 309.88,-103 309.88,-69.5 472.88,-69.5 472.88,-103"/>
<text text-anchor="start" x="317.88" y="-89.5" font-family="Helvetica,sans-Serif" font-size="10.00">include/proxsuite/serialization</text>
<text text-anchor="middle" x="391.38" y="-76.75" font-family="Helvetica,sans-Serif" font-size="10.00">/wrapper.hpp</text>
</a>
</g>
</g>
<!-- Node3&#45;&gt;Node7 -->
<g id="edge6_Node000003_Node000007" class="edge">
<title>Node3&#45;&gt;Node7</title>
<g id="a_edge6_Node000003_Node000007"><a xlink:title=" ">
<path fill="none" stroke="#63b8ff" d="M273.57,-134.58C298.37,-124.62 327.89,-112.76 351.17,-103.4"/>
<polygon fill="#63b8ff" stroke="#63b8ff" points="272.59,-131.61 264.62,-138.58 275.2,-138.1 272.59,-131.61"/>
</a>
</g>
</g>
<!-- Node5 -->
<g id="Node000005" class="node">
<title>Node5</title>
<g id="a_Node000005"><a xlink:href="qp__solve_8hpp.html" target="_top" xlink:title=" ">
<polygon fill="white" stroke="#666666" points="136.75,-33.5 0,-33.5 0,0 136.75,0 136.75,-33.5"/>
<text text-anchor="start" x="8" y="-20" font-family="Helvetica,sans-Serif" font-size="10.00">include/proxsuite/proxqp</text>
<text text-anchor="middle" x="68.38" y="-7.25" font-family="Helvetica,sans-Serif" font-size="10.00">/parallel/qp_solve.hpp</text>
</a>
</g>
</g>
<!-- Node4&#45;&gt;Node5 -->
<g id="edge4_Node000004_Node000005" class="edge">
<title>Node4&#45;&gt;Node5</title>
<g id="a_edge4_Node000004_Node000005"><a xlink:title=" ">
<path fill="none" stroke="#63b8ff" d="M68.38,-58.39C68.38,-50 68.38,-41.01 68.38,-33.63"/>
<polygon fill="#63b8ff" stroke="#63b8ff" points="64.88,-58.25 68.38,-68.25 71.88,-58.25 64.88,-58.25"/>
</a>
</g>
</g>
</g>
</svg>
