<?xml version="1.0" encoding="UTF-8" standalone="no"?>
<!DOCTYPE svg PUBLIC "-//W3C//DTD SVG 1.1//EN"
 "http://www.w3.org/Graphics/SVG/1.1/DTD/svg11.dtd">
<!-- Generated by graphviz version 6.0.2 (20221126.1951)
 -->
<!-- Title: include/proxsuite/proxqp/dense/preconditioner/identity.hpp Pages: 1 -->
<svg width="1081pt" height="687pt"
 viewBox="0.00 0.00 1081.17 687.00" xmlns="http://www.w3.org/2000/svg" xmlns:xlink="http://www.w3.org/1999/xlink">
<g id="graph0" class="graph" transform="scale(1 1) rotate(0) translate(4 683)">
<title>include/proxsuite/proxqp/dense/preconditioner/identity.hpp</title>
<!-- Node1 -->
<g id="node1" class="node">
<title>Node1</title>
<g id="a_node1"><a xlink:title=" ">
<polygon fill="#999999" stroke="#666666" points="727.67,-679 545.67,-679 545.67,-649 727.67,-649 727.67,-679"/>
<text text-anchor="start" x="553.67" y="-667" font-family="Helvetica,sans-Serif" font-size="10.00">include/proxsuite/proxqp</text>
<text text-anchor="middle" x="636.67" y="-656" font-family="Helvetica,sans-Serif" font-size="10.00">/dense/preconditioner/identity.hpp</text>
</a>
</g>
</g>
<!-- Node2 -->
<g id="node2" class="node">
<title>Node2</title>
<g id="a_node2"><a xlink:href="dense_2views_8hpp.html" target="_top" xlink:title=" ">
<polygon fill="white" stroke="#666666" points="702.17,-613 571.17,-613 571.17,-583 702.17,-583 702.17,-613"/>
<text text-anchor="start" x="579.17" y="-601" font-family="Helvetica,sans-Serif" font-size="10.00">proxsuite/proxqp/dense</text>
<text text-anchor="middle" x="636.67" y="-590" font-family="Helvetica,sans-Serif" font-size="10.00">/views.hpp</text>
</a>
</g>
</g>
<!-- Node1&#45;&gt;Node2 -->
<g id="edge1" class="edge">
<title>Node1&#45;&gt;Node2</title>
<path fill="none" stroke="#63b8ff" d="M636.67,-648.8C636.67,-641.34 636.67,-631.99 636.67,-623.41"/>
<polygon fill="#63b8ff" stroke="#63b8ff" points="640.17,-623.16 636.67,-613.16 633.17,-623.16 640.17,-623.16"/>
</g>
<!-- Node3 -->
<g id="node3" class="node">
<title>Node3</title>
<g id="a_node3"><a xlink:href="veg_2type__traits_2core_8hpp.html" target="_top" xlink:title=" ">
<polygon fill="white" stroke="#666666" points="613.17,-283 496.17,-283 496.17,-253 613.17,-253 613.17,-283"/>
<text text-anchor="start" x="504.17" y="-271" font-family="Helvetica,sans-Serif" font-size="10.00">proxsuite/linalg/veg</text>
<text text-anchor="middle" x="554.67" y="-260" font-family="Helvetica,sans-Serif" font-size="10.00">/type_traits/core.hpp</text>
</a>
</g>
</g>
<!-- Node2&#45;&gt;Node3 -->
<g id="edge2" class="edge">
<title>Node2&#45;&gt;Node3</title>
<path fill="none" stroke="#63b8ff" d="M646.64,-582.95C661.99,-559.9 689.67,-512.09 689.67,-467 689.67,-467 689.67,-467 689.67,-399 689.67,-346.48 635.99,-308.5 596.33,-287.61"/>
<polygon fill="#63b8ff" stroke="#63b8ff" points="597.85,-284.46 587.35,-283.04 594.68,-290.7 597.85,-284.46"/>
</g>
<!-- Node14 -->
<g id="node14" class="node">
<title>Node14</title>
<g id="a_node14"><a xlink:href="util_2dbg_8hpp.html" target="_top" xlink:title=" ">
<polygon fill="white" stroke="#666666" points="533.17,-547 420.17,-547 420.17,-517 533.17,-517 533.17,-547"/>
<text text-anchor="start" x="428.17" y="-535" font-family="Helvetica,sans-Serif" font-size="10.00">proxsuite/linalg/veg</text>
<text text-anchor="middle" x="476.67" y="-524" font-family="Helvetica,sans-Serif" font-size="10.00">/util/dbg.hpp</text>
</a>
</g>
</g>
<!-- Node2&#45;&gt;Node14 -->
<g id="edge19" class="edge">
<title>Node2&#45;&gt;Node14</title>
<path fill="none" stroke="#63b8ff" d="M601.56,-582.95C577.9,-573.49 546.51,-560.93 521.11,-550.78"/>
<polygon fill="#63b8ff" stroke="#63b8ff" points="522.29,-547.48 511.7,-547.01 519.69,-553.98 522.29,-547.48"/>
</g>
<!-- Node17 -->
<g id="node17" class="node">
<title>Node17</title>
<g id="a_node17"><a xlink:title=" ">
<polygon fill="#e0e0e0" stroke="#999999" points="159.17,-277.5 90.17,-277.5 90.17,-258.5 159.17,-258.5 159.17,-277.5"/>
<text text-anchor="middle" x="124.67" y="-265.5" font-family="Helvetica,sans-Serif" font-size="10.00">type_traits</text>
</a>
</g>
</g>
<!-- Node2&#45;&gt;Node17 -->
<g id="edge57" class="edge">
<title>Node2&#45;&gt;Node17</title>
<path fill="none" stroke="#63b8ff" d="M571.15,-594.96C427.11,-588.7 95.67,-563.78 95.67,-467 95.67,-467 95.67,-467 95.67,-399 95.67,-358.31 109.37,-312.14 117.94,-287.24"/>
<polygon fill="#63b8ff" stroke="#63b8ff" points="121.29,-288.27 121.35,-277.68 114.69,-285.92 121.29,-288.27"/>
</g>
<!-- Node27 -->
<g id="node27" class="node">
<title>Node27</title>
<g id="a_node27"><a xlink:title=" ">
<polygon fill="#e0e0e0" stroke="#999999" points="661.67,-409.5 611.67,-409.5 611.67,-390.5 661.67,-390.5 661.67,-409.5"/>
<text text-anchor="middle" x="636.67" y="-397.5" font-family="Helvetica,sans-Serif" font-size="10.00">cstring</text>
</a>
</g>
</g>
<!-- Node2&#45;&gt;Node27 -->
<g id="edge56" class="edge">
<title>Node2&#45;&gt;Node27</title>
<path fill="none" stroke="#63b8ff" d="M636.67,-582.9C636.67,-548.31 636.67,-459.17 636.67,-419.97"/>
<polygon fill="#63b8ff" stroke="#63b8ff" points="640.17,-419.73 636.67,-409.73 633.17,-419.73 640.17,-419.73"/>
</g>
<!-- Node29 -->
<g id="node29" class="node">
<title>Node29</title>
<g id="a_node29"><a xlink:title=" ">
<polygon fill="#e0e0e0" stroke="#999999" points="787.17,-541.5 718.17,-541.5 718.17,-522.5 787.17,-522.5 787.17,-541.5"/>
<text text-anchor="middle" x="752.67" y="-529.5" font-family="Helvetica,sans-Serif" font-size="10.00">Eigen/Core</text>
</a>
</g>
</g>
<!-- Node2&#45;&gt;Node29 -->
<g id="edge58" class="edge">
<title>Node2&#45;&gt;Node29</title>
<path fill="none" stroke="#63b8ff" d="M662.13,-582.95C681.84,-572.08 708.98,-557.11 728.39,-546.4"/>
<polygon fill="#63b8ff" stroke="#63b8ff" points="730.17,-549.41 737.23,-541.52 726.79,-543.28 730.17,-549.41"/>
</g>
<!-- Node4 -->
<g id="node4" class="node">
<title>Node4</title>
<g id="a_node4"><a xlink:href="typedefs_8hpp.html" target="_top" xlink:title=" ">
<polygon fill="white" stroke="#666666" points="424.67,-85 300.67,-85 300.67,-55 424.67,-55 424.67,-85"/>
<text text-anchor="start" x="308.67" y="-73" font-family="Helvetica,sans-Serif" font-size="10.00">proxsuite/linalg/veg</text>
<text text-anchor="middle" x="362.67" y="-62" font-family="Helvetica,sans-Serif" font-size="10.00">/internal/typedefs.hpp</text>
</a>
</g>
</g>
<!-- Node3&#45;&gt;Node4 -->
<g id="edge3" class="edge">
<title>Node3&#45;&gt;Node4</title>
<path fill="none" stroke="#63b8ff" d="M527.82,-252.82C512,-243.76 492.13,-231.08 476.67,-217 434.88,-178.92 396.72,-124.28 376.92,-93.79"/>
<polygon fill="#63b8ff" stroke="#63b8ff" points="379.72,-91.68 371.38,-85.15 373.83,-95.46 379.72,-91.68"/>
</g>
<!-- Node7 -->
<g id="node7" class="node">
<title>Node7</title>
<g id="a_node7"><a xlink:href="integer__seq_8hpp.html" target="_top" xlink:title=" ">
<polygon fill="white" stroke="#666666" points="623.67,-217 485.67,-217 485.67,-187 623.67,-187 623.67,-217"/>
<text text-anchor="start" x="493.67" y="-205" font-family="Helvetica,sans-Serif" font-size="10.00">proxsuite/linalg/veg</text>
<text text-anchor="middle" x="554.67" y="-194" font-family="Helvetica,sans-Serif" font-size="10.00">/internal/integer_seq.hpp</text>
</a>
</g>
</g>
<!-- Node3&#45;&gt;Node7 -->
<g id="edge6" class="edge">
<title>Node3&#45;&gt;Node7</title>
<path fill="none" stroke="#63b8ff" d="M554.67,-252.8C554.67,-245.34 554.67,-235.99 554.67,-227.41"/>
<polygon fill="#63b8ff" stroke="#63b8ff" points="558.17,-227.16 554.67,-217.16 551.17,-227.16 558.17,-227.16"/>
</g>
<!-- Node11 -->
<g id="node11" class="node">
<title>Node11</title>
<g id="a_node11"><a xlink:href="prologue_8hpp.html" target="_top" xlink:title=" ">
<polygon fill="white" stroke="#666666" points="921.67,-85 797.67,-85 797.67,-55 921.67,-55 921.67,-85"/>
<text text-anchor="start" x="805.67" y="-73" font-family="Helvetica,sans-Serif" font-size="10.00">proxsuite/linalg/veg</text>
<text text-anchor="middle" x="859.67" y="-62" font-family="Helvetica,sans-Serif" font-size="10.00">/internal/prologue.hpp</text>
</a>
</g>
</g>
<!-- Node3&#45;&gt;Node11 -->
<g id="edge17" class="edge">
<title>Node3&#45;&gt;Node11</title>
<path fill="none" stroke="#63b8ff" d="M613.48,-254.05C639.76,-246.29 670.05,-234.45 693.67,-217 736.57,-185.31 725.16,-155.69 765.67,-121 780.48,-108.32 799.04,-97.6 815.75,-89.38"/>
<polygon fill="#63b8ff" stroke="#63b8ff" points="817.28,-92.53 824.81,-85.07 814.27,-86.21 817.28,-92.53"/>
</g>
<!-- Node13 -->
<g id="node13" class="node">
<title>Node13</title>
<g id="a_node13"><a xlink:href="epilogue_8hpp.html" target="_top" xlink:title=" ">
<polygon fill="white" stroke="#666666" points="282.17,-85 159.17,-85 159.17,-55 282.17,-55 282.17,-85"/>
<text text-anchor="start" x="167.17" y="-73" font-family="Helvetica,sans-Serif" font-size="10.00">proxsuite/linalg/veg</text>
<text text-anchor="middle" x="220.67" y="-62" font-family="Helvetica,sans-Serif" font-size="10.00">/internal/epilogue.hpp</text>
</a>
</g>
</g>
<!-- Node3&#45;&gt;Node13 -->
<g id="edge18" class="edge">
<title>Node3&#45;&gt;Node13</title>
<path fill="none" stroke="#63b8ff" d="M496.04,-254.36C453.74,-244.44 400.99,-230.14 382.67,-217 340.39,-186.68 354.69,-155.42 315.67,-121 301.17,-108.2 282.81,-97.56 266.11,-89.44"/>
<polygon fill="#63b8ff" stroke="#63b8ff" points="267.57,-86.26 257.03,-85.18 264.6,-92.6 267.57,-86.26"/>
</g>
<!-- Node5 -->
<g id="node5" class="node">
<title>Node5</title>
<g id="a_node5"><a xlink:title=" ">
<polygon fill="#e0e0e0" stroke="#999999" points="766.67,-19 716.67,-19 716.67,0 766.67,0 766.67,-19"/>
<text text-anchor="middle" x="741.67" y="-7" font-family="Helvetica,sans-Serif" font-size="10.00">cstdint</text>
</a>
</g>
</g>
<!-- Node4&#45;&gt;Node5 -->
<g id="edge4" class="edge">
<title>Node4&#45;&gt;Node5</title>
<path fill="none" stroke="#63b8ff" d="M424.98,-56.53C427.91,-56 430.82,-55.49 433.67,-55 532.19,-38.18 649.15,-22.43 706.46,-14.99"/>
<polygon fill="#63b8ff" stroke="#63b8ff" points="706.98,-18.45 716.45,-13.7 706.09,-11.51 706.98,-18.45"/>
</g>
<!-- Node6 -->
<g id="node6" class="node">
<title>Node6</title>
<g id="a_node6"><a xlink:title=" ">
<polygon fill="#e0e0e0" stroke="#999999" points="389.17,-19 336.17,-19 336.17,0 389.17,0 389.17,-19"/>
<text text-anchor="middle" x="362.67" y="-7" font-family="Helvetica,sans-Serif" font-size="10.00">cstddef</text>
</a>
</g>
</g>
<!-- Node4&#45;&gt;Node6 -->
<g id="edge5" class="edge">
<title>Node4&#45;&gt;Node6</title>
<path fill="none" stroke="#63b8ff" d="M362.67,-54.84C362.67,-47.21 362.67,-37.7 362.67,-29.45"/>
<polygon fill="#63b8ff" stroke="#63b8ff" points="366.17,-29.27 362.67,-19.27 359.17,-29.27 366.17,-29.27"/>
</g>
<!-- Node7&#45;&gt;Node4 -->
<g id="edge7" class="edge">
<title>Node7&#45;&gt;Node4</title>
<path fill="none" stroke="#63b8ff" d="M541.88,-186.89C525.8,-169.73 496.75,-140.64 467.67,-121 449.35,-108.63 427.49,-97.69 408.47,-89.23"/>
<polygon fill="#63b8ff" stroke="#63b8ff" points="409.68,-85.93 399.11,-85.15 406.88,-92.35 409.68,-85.93"/>
</g>
<!-- Node8 -->
<g id="node8" class="node">
<title>Node8</title>
<g id="a_node8"><a xlink:href="macros_8hpp.html" target="_top" xlink:title=" ">
<polygon fill="white" stroke="#666666" points="637.17,-151 520.17,-151 520.17,-121 637.17,-121 637.17,-151"/>
<text text-anchor="start" x="528.17" y="-139" font-family="Helvetica,sans-Serif" font-size="10.00">proxsuite/linalg/veg</text>
<text text-anchor="middle" x="578.67" y="-128" font-family="Helvetica,sans-Serif" font-size="10.00">/internal/macros.hpp</text>
</a>
</g>
</g>
<!-- Node7&#45;&gt;Node8 -->
<g id="edge8" class="edge">
<title>Node7&#45;&gt;Node8</title>
<path fill="none" stroke="#63b8ff" d="M560,-186.8C562.89,-179.09 566.53,-169.37 569.84,-160.56"/>
<polygon fill="#63b8ff" stroke="#63b8ff" points="573.13,-161.76 573.36,-151.16 566.57,-159.3 573.13,-161.76"/>
</g>
<!-- Node7&#45;&gt;Node11 -->
<g id="edge15" class="edge">
<title>Node7&#45;&gt;Node11</title>
<path fill="none" stroke="#63b8ff" d="M582.5,-186.91C600.99,-177.3 625.64,-164 646.67,-151 666.5,-138.75 668.67,-131.09 689.67,-121 720.45,-106.22 756.5,-94.86 787.46,-86.73"/>
<polygon fill="#63b8ff" stroke="#63b8ff" points="788.5,-90.08 797.32,-84.2 786.76,-83.29 788.5,-90.08"/>
</g>
<!-- Node7&#45;&gt;Node13 -->
<g id="edge16" class="edge">
<title>Node7&#45;&gt;Node13</title>
<path fill="none" stroke="#63b8ff" d="M529.31,-186.85C497.77,-169.65 441.92,-140.51 391.67,-121 357.96,-107.91 319.38,-96.35 287.41,-87.65"/>
<polygon fill="#63b8ff" stroke="#63b8ff" points="288.27,-84.26 277.71,-85.04 286.46,-91.02 288.27,-84.26"/>
</g>
<!-- Node8&#45;&gt;Node4 -->
<g id="edge10" class="edge">
<title>Node8&#45;&gt;Node4</title>
<path fill="none" stroke="#63b8ff" d="M531.27,-120.95C498.49,-111.24 454.7,-98.27 419.97,-87.98"/>
<polygon fill="#63b8ff" stroke="#63b8ff" points="420.55,-84.5 409.96,-85.01 418.56,-91.21 420.55,-84.5"/>
</g>
<!-- Node9 -->
<g id="node9" class="node">
<title>Node9</title>
<g id="a_node9"><a xlink:href="hedley_8ext_8hpp.html" target="_top" xlink:title=" ">
<polygon fill="white" stroke="#666666" points="779.17,-85 604.17,-85 604.17,-55 779.17,-55 779.17,-85"/>
<text text-anchor="start" x="612.17" y="-73" font-family="Helvetica,sans-Serif" font-size="10.00">proxsuite/linalg/veg</text>
<text text-anchor="middle" x="691.67" y="-62" font-family="Helvetica,sans-Serif" font-size="10.00">/internal/external/hedley.ext.hpp</text>
</a>
</g>
</g>
<!-- Node8&#45;&gt;Node9 -->
<g id="edge9" class="edge">
<title>Node8&#45;&gt;Node9</title>
<path fill="none" stroke="#63b8ff" d="M603.47,-120.95C619.51,-111.87 640.6,-99.93 658.13,-90"/>
<polygon fill="#63b8ff" stroke="#63b8ff" points="659.96,-92.99 666.93,-85.01 656.51,-86.9 659.96,-92.99"/>
</g>
<!-- Node10 -->
<g id="node10" class="node">
<title>Node10</title>
<g id="a_node10"><a xlink:href="preprocessor_8hpp.html" target="_top" xlink:title=" ">
<polygon fill="white" stroke="#666666" points="586.17,-85 443.17,-85 443.17,-55 586.17,-55 586.17,-85"/>
<text text-anchor="start" x="451.17" y="-73" font-family="Helvetica,sans-Serif" font-size="10.00">proxsuite/linalg/veg</text>
<text text-anchor="middle" x="514.67" y="-62" font-family="Helvetica,sans-Serif" font-size="10.00">/internal/preprocessor.hpp</text>
</a>
</g>
</g>
<!-- Node8&#45;&gt;Node10 -->
<g id="edge11" class="edge">
<title>Node8&#45;&gt;Node10</title>
<path fill="none" stroke="#63b8ff" d="M564.47,-120.8C556.1,-112.43 545.35,-101.68 535.98,-92.31"/>
<polygon fill="#63b8ff" stroke="#63b8ff" points="538.38,-89.76 528.84,-85.16 533.43,-94.71 538.38,-89.76"/>
</g>
<!-- Node8&#45;&gt;Node11 -->
<g id="edge12" class="edge">
<title>Node8&#45;&gt;Node11</title>
<path fill="none" stroke="#63b8ff" d="M637.24,-121.66C681.08,-111.67 741.3,-97.96 788.02,-87.32"/>
<polygon fill="#63b8ff" stroke="#63b8ff" points="788.8,-90.73 797.77,-85.1 787.25,-83.91 788.8,-90.73"/>
</g>
<!-- Node12 -->
<g id="node12" class="node">
<title>Node12</title>
<g id="a_node12"><a xlink:title=" ">
<polygon fill="#e0e0e0" stroke="#999999" points="1023.17,-79.5 940.17,-79.5 940.17,-60.5 1023.17,-60.5 1023.17,-79.5"/>
<text text-anchor="middle" x="981.67" y="-67.5" font-family="Helvetica,sans-Serif" font-size="10.00">initializer_list</text>
</a>
</g>
</g>
<!-- Node8&#45;&gt;Node12 -->
<g id="edge13" class="edge">
<title>Node8&#45;&gt;Node12</title>
<path fill="none" stroke="#63b8ff" d="M637.3,-128.98C707.49,-121.23 828.38,-106.22 930.67,-85 934.77,-84.15 939.02,-83.16 943.25,-82.11"/>
<polygon fill="#63b8ff" stroke="#63b8ff" points="944.18,-85.48 952.97,-79.56 942.41,-78.71 944.18,-85.48"/>
</g>
<!-- Node8&#45;&gt;Node13 -->
<g id="edge14" class="edge">
<title>Node8&#45;&gt;Node13</title>
<path fill="none" stroke="#63b8ff" d="M520.06,-125.18C464.17,-115.73 377.35,-100.82 292.08,-85.05"/>
<polygon fill="#63b8ff" stroke="#63b8ff" points="292.7,-81.61 282.23,-83.22 291.42,-88.49 292.7,-81.61"/>
</g>
<!-- Node15 -->
<g id="node15" class="node">
<title>Node15</title>
<g id="a_node15"><a xlink:href="internal_2dbg_8hpp.html" target="_top" xlink:title=" ">
<polygon fill="white" stroke="#666666" points="457.17,-481 344.17,-481 344.17,-451 457.17,-451 457.17,-481"/>
<text text-anchor="start" x="352.17" y="-469" font-family="Helvetica,sans-Serif" font-size="10.00">proxsuite/linalg/veg</text>
<text text-anchor="middle" x="400.67" y="-458" font-family="Helvetica,sans-Serif" font-size="10.00">/internal/dbg.hpp</text>
</a>
</g>
</g>
<!-- Node14&#45;&gt;Node15 -->
<g id="edge20" class="edge">
<title>Node14&#45;&gt;Node15</title>
<path fill="none" stroke="#63b8ff" d="M459.81,-516.8C449.67,-508.26 436.6,-497.25 425.32,-487.75"/>
<polygon fill="#63b8ff" stroke="#63b8ff" points="427.4,-484.93 417.49,-481.16 422.89,-490.28 427.4,-484.93"/>
</g>
<!-- Node15&#45;&gt;Node11 -->
<g id="edge52" class="edge">
<title>Node15&#45;&gt;Node11</title>
<path fill="none" stroke="#63b8ff" d="M457.35,-453.25C489.91,-445.17 530.91,-432.67 564.67,-415 583.74,-405.02 582.84,-393.35 602.67,-385 717.08,-336.8 774.61,-415.14 879.67,-349 915.56,-326.41 931.67,-311.41 931.67,-269 931.67,-269 931.67,-269 931.67,-201 931.67,-158.58 901.97,-117.03 880.72,-92.72"/>
<polygon fill="#63b8ff" stroke="#63b8ff" points="883.2,-90.24 873.9,-85.17 878,-94.93 883.2,-90.24"/>
</g>
<!-- Node15&#45;&gt;Node13 -->
<g id="edge55" class="edge">
<title>Node15&#45;&gt;Node13</title>
<path fill="none" stroke="#63b8ff" d="M344.12,-463.72C282.55,-460.49 182.35,-449.75 103.67,-415 50.97,-391.72 1.67,-392.61 1.67,-335 1.67,-335 1.67,-335 1.67,-201 1.67,-164.46 -5.02,-146.99 20.67,-121 30,-111.56 95.61,-96.29 149.18,-85.1"/>
<polygon fill="#63b8ff" stroke="#63b8ff" points="149.95,-88.51 159.03,-83.06 148.53,-81.66 149.95,-88.51"/>
</g>
<!-- Node16 -->
<g id="node16" class="node">
<title>Node16</title>
<g id="a_node16"><a xlink:href="primitives_8hpp.html" target="_top" xlink:title=" ">
<polygon fill="white" stroke="#666666" points="269.67,-349 123.67,-349 123.67,-319 269.67,-319 269.67,-349"/>
<text text-anchor="start" x="131.67" y="-337" font-family="Helvetica,sans-Serif" font-size="10.00">proxsuite/linalg/veg</text>
<text text-anchor="middle" x="196.67" y="-326" font-family="Helvetica,sans-Serif" font-size="10.00">/type_traits/primitives.hpp</text>
</a>
</g>
</g>
<!-- Node15&#45;&gt;Node16 -->
<g id="edge21" class="edge">
<title>Node15&#45;&gt;Node16</title>
<path fill="none" stroke="#63b8ff" d="M378.45,-450.84C341.89,-427.54 268.98,-381.08 227.47,-354.63"/>
<polygon fill="#63b8ff" stroke="#63b8ff" points="229.18,-351.56 218.86,-349.14 225.42,-357.47 229.18,-351.56"/>
</g>
<!-- Node18 -->
<g id="node18" class="node">
<title>Node18</title>
<g id="a_node18"><a xlink:href="terminate_8hpp.html" target="_top" xlink:title=" ">
<polygon fill="white" stroke="#666666" points="159.17,-151 30.17,-151 30.17,-121 159.17,-121 159.17,-151"/>
<text text-anchor="start" x="38.17" y="-139" font-family="Helvetica,sans-Serif" font-size="10.00">proxsuite/linalg/veg</text>
<text text-anchor="middle" x="94.67" y="-128" font-family="Helvetica,sans-Serif" font-size="10.00">/internal/terminate.hpp</text>
</a>
</g>
</g>
<!-- Node15&#45;&gt;Node18 -->
<g id="edge26" class="edge">
<title>Node15&#45;&gt;Node18</title>
<path fill="none" stroke="#63b8ff" d="M344.03,-455.6C246.61,-437.8 57.67,-395.5 57.67,-335 57.67,-335 57.67,-335 57.67,-267 57.67,-228.47 72.89,-185.88 83.81,-160.3"/>
<polygon fill="#63b8ff" stroke="#63b8ff" points="87.05,-161.62 87.89,-151.05 80.65,-158.79 87.05,-161.62"/>
</g>
<!-- Node20 -->
<g id="node20" class="node">
<title>Node20</title>
<g id="a_node20"><a xlink:href="constructible_8hpp.html" target="_top" xlink:title=" ">
<polygon fill="white" stroke="#666666" points="447.17,-349 288.17,-349 288.17,-319 447.17,-319 447.17,-349"/>
<text text-anchor="start" x="296.17" y="-337" font-family="Helvetica,sans-Serif" font-size="10.00">proxsuite/linalg/veg</text>
<text text-anchor="middle" x="367.67" y="-326" font-family="Helvetica,sans-Serif" font-size="10.00">/type_traits/constructible.hpp</text>
</a>
</g>
</g>
<!-- Node15&#45;&gt;Node20 -->
<g id="edge30" class="edge">
<title>Node15&#45;&gt;Node20</title>
<path fill="none" stroke="#63b8ff" d="M388.49,-450.77C381.21,-441.31 372.63,-428.23 368.67,-415 363.27,-396.94 363.31,-375.55 364.55,-359.44"/>
<polygon fill="#63b8ff" stroke="#63b8ff" points="368.05,-359.52 365.54,-349.23 361.09,-358.84 368.05,-359.52"/>
</g>
<!-- Node22 -->
<g id="node22" class="node">
<title>Node22</title>
<g id="a_node22"><a xlink:href="ref_8hpp.html" target="_top" xlink:title=" ">
<polygon fill="white" stroke="#666666" points="555.17,-415 442.17,-415 442.17,-385 555.17,-385 555.17,-415"/>
<text text-anchor="start" x="450.17" y="-403" font-family="Helvetica,sans-Serif" font-size="10.00">proxsuite/linalg/veg</text>
<text text-anchor="middle" x="498.67" y="-392" font-family="Helvetica,sans-Serif" font-size="10.00">/ref.hpp</text>
</a>
</g>
</g>
<!-- Node15&#45;&gt;Node22 -->
<g id="edge36" class="edge">
<title>Node15&#45;&gt;Node22</title>
<path fill="none" stroke="#63b8ff" d="M422.42,-450.8C436,-441.93 453.67,-430.39 468.58,-420.66"/>
<polygon fill="#63b8ff" stroke="#63b8ff" points="470.52,-423.56 476.98,-415.16 466.7,-417.7 470.52,-423.56"/>
</g>
<!-- Node15&#45;&gt;Node27 -->
<g id="edge53" class="edge">
<title>Node15&#45;&gt;Node27</title>
<path fill="none" stroke="#63b8ff" d="M457.54,-452.1C497.11,-442.75 550.94,-429.28 597.67,-415 599.94,-414.31 602.26,-413.56 604.6,-412.79"/>
<polygon fill="#63b8ff" stroke="#63b8ff" points="605.79,-416.08 614.11,-409.51 603.52,-409.46 605.79,-416.08"/>
</g>
<!-- Node28 -->
<g id="node28" class="node">
<title>Node28</title>
<g id="a_node28"><a xlink:title=" ">
<polygon fill="#e0e0e0" stroke="#999999" points="423.67,-409.5 377.67,-409.5 377.67,-390.5 423.67,-390.5 423.67,-409.5"/>
<text text-anchor="middle" x="400.67" y="-397.5" font-family="Helvetica,sans-Serif" font-size="10.00">cstdio</text>
</a>
</g>
</g>
<!-- Node15&#45;&gt;Node28 -->
<g id="edge54" class="edge">
<title>Node15&#45;&gt;Node28</title>
<path fill="none" stroke="#63b8ff" d="M400.67,-450.8C400.67,-441.7 400.67,-429.79 400.67,-419.9"/>
<polygon fill="#63b8ff" stroke="#63b8ff" points="404.17,-419.84 400.67,-409.84 397.17,-419.84 404.17,-419.84"/>
</g>
<!-- Node16&#45;&gt;Node3 -->
<g id="edge22" class="edge">
<title>Node16&#45;&gt;Node3</title>
<path fill="none" stroke="#63b8ff" d="M269.98,-319.89C333.25,-308.58 423.97,-292.37 485.88,-281.3"/>
<polygon fill="#63b8ff" stroke="#63b8ff" points="486.72,-284.7 495.94,-279.5 485.48,-277.81 486.72,-284.7"/>
</g>
<!-- Node16&#45;&gt;Node11 -->
<g id="edge23" class="edge">
<title>Node16&#45;&gt;Node11</title>
<path fill="none" stroke="#63b8ff" d="M216.35,-318.69C242.91,-300.18 292.36,-268.48 339.67,-253 464.37,-212.21 513.63,-272.15 632.67,-217 689.75,-190.56 683.57,-154.72 736.67,-121 757.61,-107.71 782.67,-96.76 804.69,-88.53"/>
<polygon fill="#63b8ff" stroke="#63b8ff" points="806.04,-91.76 814.24,-85.05 803.65,-85.18 806.04,-91.76"/>
</g>
<!-- Node16&#45;&gt;Node13 -->
<g id="edge25" class="edge">
<title>Node16&#45;&gt;Node13</title>
<path fill="none" stroke="#63b8ff" d="M197.15,-318.81C198.41,-284.64 202.4,-195.14 211.67,-121 212.72,-112.6 214.25,-103.48 215.75,-95.35"/>
<polygon fill="#63b8ff" stroke="#63b8ff" points="219.21,-95.86 217.66,-85.38 212.34,-94.54 219.21,-95.86"/>
</g>
<!-- Node16&#45;&gt;Node17 -->
<g id="edge24" class="edge">
<title>Node16&#45;&gt;Node17</title>
<path fill="none" stroke="#63b8ff" d="M180.69,-318.8C169.36,-308.72 154.14,-295.19 142.43,-284.78"/>
<polygon fill="#63b8ff" stroke="#63b8ff" points="144.42,-281.87 134.62,-277.84 139.77,-287.1 144.42,-281.87"/>
</g>
<!-- Node18&#45;&gt;Node11 -->
<g id="edge27" class="edge">
<title>Node18&#45;&gt;Node11</title>
<path fill="none" stroke="#63b8ff" d="M159.53,-132.98C280.9,-128.63 550.72,-116.22 787.24,-85.08"/>
<polygon fill="#63b8ff" stroke="#63b8ff" points="787.96,-88.52 797.41,-83.73 787.03,-81.58 787.96,-88.52"/>
</g>
<!-- Node18&#45;&gt;Node13 -->
<g id="edge29" class="edge">
<title>Node18&#45;&gt;Node13</title>
<path fill="none" stroke="#63b8ff" d="M122.32,-120.95C140.46,-111.74 164.37,-99.6 184.08,-89.59"/>
<polygon fill="#63b8ff" stroke="#63b8ff" points="185.75,-92.66 193.09,-85.01 182.58,-86.42 185.75,-92.66"/>
</g>
<!-- Node19 -->
<g id="node19" class="node">
<title>Node19</title>
<g id="a_node19"><a xlink:title=" ">
<polygon fill="#e0e0e0" stroke="#999999" points="127.17,-79.5 62.17,-79.5 62.17,-60.5 127.17,-60.5 127.17,-79.5"/>
<text text-anchor="middle" x="94.67" y="-67.5" font-family="Helvetica,sans-Serif" font-size="10.00">exception</text>
</a>
</g>
</g>
<!-- Node18&#45;&gt;Node19 -->
<g id="edge28" class="edge">
<title>Node18&#45;&gt;Node19</title>
<path fill="none" stroke="#63b8ff" d="M94.67,-120.8C94.67,-111.7 94.67,-99.79 94.67,-89.9"/>
<polygon fill="#63b8ff" stroke="#63b8ff" points="98.17,-89.84 94.67,-79.84 91.17,-89.84 98.17,-89.84"/>
</g>
<!-- Node20&#45;&gt;Node3 -->
<g id="edge31" class="edge">
<title>Node20&#45;&gt;Node3</title>
<path fill="none" stroke="#63b8ff" d="M408.71,-318.95C436.72,-309.37 474.02,-296.6 503.9,-286.37"/>
<polygon fill="#63b8ff" stroke="#63b8ff" points="505.4,-289.56 513.73,-283.01 503.14,-282.94 505.4,-289.56"/>
</g>
<!-- Node20&#45;&gt;Node11 -->
<g id="edge32" class="edge">
<title>Node20&#45;&gt;Node11</title>
<path fill="none" stroke="#63b8ff" d="M447.31,-325.65C498.83,-318.91 566.52,-306.29 622.67,-283 723.03,-241.37 809.16,-138.45 843.62,-93.08"/>
<polygon fill="#63b8ff" stroke="#63b8ff" points="846.44,-95.16 849.63,-85.06 840.83,-90.96 846.44,-95.16"/>
</g>
<!-- Node20&#45;&gt;Node13 -->
<g id="edge35" class="edge">
<title>Node20&#45;&gt;Node13</title>
<path fill="none" stroke="#63b8ff" d="M346.88,-318.8C319.93,-299.2 273.55,-261.24 249.67,-217 228.57,-177.91 222.73,-125.49 221.17,-95.27"/>
<polygon fill="#63b8ff" stroke="#63b8ff" points="224.67,-95.05 220.77,-85.2 217.67,-95.33 224.67,-95.05"/>
</g>
<!-- Node20&#45;&gt;Node17 -->
<g id="edge34" class="edge">
<title>Node20&#45;&gt;Node17</title>
<path fill="none" stroke="#63b8ff" d="M314.34,-318.95C270.04,-307.29 207.85,-290.91 166.93,-280.13"/>
<polygon fill="#63b8ff" stroke="#63b8ff" points="167.57,-276.68 157.01,-277.52 165.79,-283.45 167.57,-276.68"/>
</g>
<!-- Node21 -->
<g id="node21" class="node">
<title>Node21</title>
<g id="a_node21"><a xlink:title=" ">
<polygon fill="#e0e0e0" stroke="#999999" points="386.17,-277.5 349.17,-277.5 349.17,-258.5 386.17,-258.5 386.17,-277.5"/>
<text text-anchor="middle" x="367.67" y="-265.5" font-family="Helvetica,sans-Serif" font-size="10.00">new</text>
</a>
</g>
</g>
<!-- Node20&#45;&gt;Node21 -->
<g id="edge33" class="edge">
<title>Node20&#45;&gt;Node21</title>
<path fill="none" stroke="#63b8ff" d="M367.67,-318.8C367.67,-309.7 367.67,-297.79 367.67,-287.9"/>
<polygon fill="#63b8ff" stroke="#63b8ff" points="371.17,-287.84 367.67,-277.84 364.17,-287.84 371.17,-287.84"/>
</g>
<!-- Node22&#45;&gt;Node11 -->
<g id="edge50" class="edge">
<title>Node22&#45;&gt;Node11</title>
<path fill="none" stroke="#63b8ff" d="M555.19,-387.5C560.08,-386.61 564.96,-385.77 569.67,-385 631.81,-374.9 798.8,-384.68 850.67,-349 883.93,-326.12 893.67,-309.37 893.67,-269 893.67,-269 893.67,-269 893.67,-201 893.67,-162.86 879.81,-120.42 869.79,-94.72"/>
<polygon fill="#63b8ff" stroke="#63b8ff" points="872.89,-93.08 865.91,-85.11 866.4,-95.69 872.89,-93.08"/>
</g>
<!-- Node22&#45;&gt;Node13 -->
<g id="edge51" class="edge">
<title>Node22&#45;&gt;Node13</title>
<path fill="none" stroke="#63b8ff" d="M492.38,-384.78C484.77,-368.28 471.06,-340.57 455.67,-319 444.07,-302.74 410.71,-264.91 394.67,-253 365.31,-231.19 348.37,-240.88 320.67,-217 279.73,-181.7 247.83,-125.95 231.88,-94.54"/>
<polygon fill="#63b8ff" stroke="#63b8ff" points="234.85,-92.66 227.27,-85.25 228.58,-95.77 234.85,-92.66"/>
</g>
<!-- Node22&#45;&gt;Node20 -->
<g id="edge41" class="edge">
<title>Node22&#45;&gt;Node20</title>
<path fill="none" stroke="#63b8ff" d="M469.92,-384.95C450.98,-375.7 425.98,-363.49 405.44,-353.45"/>
<polygon fill="#63b8ff" stroke="#63b8ff" points="406.87,-350.26 396.35,-349.01 403.8,-356.55 406.87,-350.26"/>
</g>
<!-- Node23 -->
<g id="node23" class="node">
<title>Node23</title>
<g id="a_node23"><a xlink:href="tags_8hpp.html" target="_top" xlink:title=" ">
<polygon fill="white" stroke="#666666" points="620.17,-349 503.17,-349 503.17,-319 620.17,-319 620.17,-349"/>
<text text-anchor="start" x="511.17" y="-337" font-family="Helvetica,sans-Serif" font-size="10.00">proxsuite/linalg/veg</text>
<text text-anchor="middle" x="561.67" y="-326" font-family="Helvetica,sans-Serif" font-size="10.00">/type_traits/tags.hpp</text>
</a>
</g>
</g>
<!-- Node22&#45;&gt;Node23 -->
<g id="edge37" class="edge">
<title>Node22&#45;&gt;Node23</title>
<path fill="none" stroke="#63b8ff" d="M512.65,-384.8C520.89,-376.43 531.47,-365.68 540.7,-356.31"/>
<polygon fill="#63b8ff" stroke="#63b8ff" points="543.21,-358.75 547.73,-349.16 538.22,-353.84 543.21,-358.75"/>
</g>
<!-- Node24 -->
<g id="node24" class="node">
<title>Node24</title>
<g id="a_node24"><a xlink:href="address_8hpp.html" target="_top" xlink:title=" ">
<polygon fill="white" stroke="#666666" points="841.17,-349 718.17,-349 718.17,-319 841.17,-319 841.17,-349"/>
<text text-anchor="start" x="726.17" y="-337" font-family="Helvetica,sans-Serif" font-size="10.00">proxsuite/linalg/veg</text>
<text text-anchor="middle" x="779.67" y="-326" font-family="Helvetica,sans-Serif" font-size="10.00">/memory/address.hpp</text>
</a>
</g>
</g>
<!-- Node22&#45;&gt;Node24 -->
<g id="edge42" class="edge">
<title>Node22&#45;&gt;Node24</title>
<path fill="none" stroke="#63b8ff" d="M555.2,-386.13C599.19,-376.11 660.52,-362.14 707.97,-351.33"/>
<polygon fill="#63b8ff" stroke="#63b8ff" points="708.9,-354.71 717.87,-349.08 707.34,-347.88 708.9,-354.71"/>
</g>
<!-- Node23&#45;&gt;Node3 -->
<g id="edge38" class="edge">
<title>Node23&#45;&gt;Node3</title>
<path fill="none" stroke="#63b8ff" d="M560.12,-318.8C559.29,-311.26 558.26,-301.78 557.31,-293.13"/>
<polygon fill="#63b8ff" stroke="#63b8ff" points="560.79,-292.72 556.22,-283.16 553.83,-293.49 560.79,-292.72"/>
</g>
<!-- Node23&#45;&gt;Node11 -->
<g id="edge39" class="edge">
<title>Node23&#45;&gt;Node11</title>
<path fill="none" stroke="#63b8ff" d="M614.2,-318.99C666.31,-302.59 745.19,-270.6 793.67,-217 826.22,-181.01 845.06,-126.28 853.75,-95.06"/>
<polygon fill="#63b8ff" stroke="#63b8ff" points="857.22,-95.63 856.41,-85.07 850.46,-93.83 857.22,-95.63"/>
</g>
<!-- Node23&#45;&gt;Node13 -->
<g id="edge40" class="edge">
<title>Node23&#45;&gt;Node13</title>
<path fill="none" stroke="#63b8ff" d="M539.47,-318.72C513.38,-302.15 468.57,-274.38 428.67,-253 395.73,-235.35 381.85,-240.36 352.67,-217 310.4,-183.17 314.85,-160.36 277.67,-121 267.97,-110.73 256.39,-100.29 246.2,-91.62"/>
<polygon fill="#63b8ff" stroke="#63b8ff" points="248.31,-88.82 238.4,-85.08 243.82,-94.18 248.31,-88.82"/>
</g>
<!-- Node24&#45;&gt;Node3 -->
<g id="edge43" class="edge">
<title>Node24&#45;&gt;Node3</title>
<path fill="none" stroke="#63b8ff" d="M730.29,-318.95C696,-309.2 650.15,-296.16 613.89,-285.84"/>
<polygon fill="#63b8ff" stroke="#63b8ff" points="614.51,-282.38 603.93,-283.01 612.59,-289.11 614.51,-282.38"/>
</g>
<!-- Node24&#45;&gt;Node11 -->
<g id="edge47" class="edge">
<title>Node24&#45;&gt;Node11</title>
<path fill="none" stroke="#63b8ff" d="M780.85,-318.95C782.71,-302.35 787.37,-274.31 798.67,-253 808.84,-233.82 821.93,-236.39 831.67,-217 851.59,-177.36 857.39,-125.13 859.04,-95.09"/>
<polygon fill="#63b8ff" stroke="#63b8ff" points="862.54,-95.23 859.48,-85.09 855.55,-94.92 862.54,-95.23"/>
</g>
<!-- Node24&#45;&gt;Node13 -->
<g id="edge49" class="edge">
<title>Node24&#45;&gt;Node13</title>
<path fill="none" stroke="#63b8ff" d="M756.24,-318.9C726.22,-301.34 672.12,-271.42 622.67,-253 560.04,-229.68 537.42,-244.86 476.67,-217 409.75,-186.31 406.11,-156.62 341.67,-121 319.15,-108.55 292.87,-97.33 270.57,-88.69"/>
<polygon fill="#63b8ff" stroke="#63b8ff" points="271.55,-85.31 260.96,-85.02 269.06,-91.86 271.55,-85.31"/>
</g>
<!-- Node25 -->
<g id="node25" class="node">
<title>Node25</title>
<g id="a_node25"><a xlink:href="std_8hpp.html" target="_top" xlink:title=" ">
<polygon fill="white" stroke="#666666" points="1073.17,-151 960.17,-151 960.17,-121 1073.17,-121 1073.17,-151"/>
<text text-anchor="start" x="968.17" y="-139" font-family="Helvetica,sans-Serif" font-size="10.00">proxsuite/linalg/veg</text>
<text text-anchor="middle" x="1016.67" y="-128" font-family="Helvetica,sans-Serif" font-size="10.00">/internal/std.hpp</text>
</a>
</g>
</g>
<!-- Node24&#45;&gt;Node25 -->
<g id="edge44" class="edge">
<title>Node24&#45;&gt;Node25</title>
<path fill="none" stroke="#63b8ff" d="M812.4,-318.92C831.44,-309.98 855.41,-297.39 874.67,-283 924.89,-245.46 973.67,-189.87 998.91,-159.25"/>
<polygon fill="#63b8ff" stroke="#63b8ff" points="1001.78,-161.28 1005.39,-151.32 996.35,-156.85 1001.78,-161.28"/>
</g>
<!-- Node26 -->
<g id="node26" class="node">
<title>Node26</title>
<g id="a_node26"><a xlink:title=" ">
<polygon fill="#e0e0e0" stroke="#999999" points="865.67,-277.5 807.67,-277.5 807.67,-258.5 865.67,-258.5 865.67,-277.5"/>
<text text-anchor="middle" x="836.67" y="-265.5" font-family="Helvetica,sans-Serif" font-size="10.00">memory</text>
</a>
</g>
</g>
<!-- Node24&#45;&gt;Node26 -->
<g id="edge48" class="edge">
<title>Node24&#45;&gt;Node26</title>
<path fill="none" stroke="#63b8ff" d="M792.32,-318.8C801.12,-308.92 812.88,-295.72 822.07,-285.39"/>
<polygon fill="#63b8ff" stroke="#63b8ff" points="824.76,-287.64 828.8,-277.84 819.53,-282.98 824.76,-287.64"/>
</g>
<!-- Node25&#45;&gt;Node5 -->
<g id="edge45" class="edge">
<title>Node25&#45;&gt;Node5</title>
<path fill="none" stroke="#63b8ff" d="M1025.84,-120.78C1035.86,-103.24 1048.54,-73.48 1032.67,-55 1000.05,-17.01 846.89,-11.11 776.82,-10.43"/>
<polygon fill="#63b8ff" stroke="#63b8ff" points="776.74,-6.93 766.71,-10.36 776.69,-13.93 776.74,-6.93"/>
</g>
<!-- Node25&#45;&gt;Node12 -->
<g id="edge46" class="edge">
<title>Node25&#45;&gt;Node12</title>
<path fill="none" stroke="#63b8ff" d="M1008.9,-120.8C1003.72,-111.31 996.85,-98.76 991.31,-88.63"/>
<polygon fill="#63b8ff" stroke="#63b8ff" points="994.38,-86.94 986.51,-79.84 988.24,-90.3 994.38,-86.94"/>
</g>
</g>
</svg>
