<?xml version="1.0" encoding="UTF-8" standalone="no"?>
<!DOCTYPE svg PUBLIC "-//W3C//DTD SVG 1.1//EN"
 "http://www.w3.org/Graphics/SVG/1.1/DTD/svg11.dtd">
<!-- Generated by graphviz version 5.0.1 (20220821.0811)
 -->
<!-- Title: include/proxsuite/proxqp/dense/fwd.hpp Pages: 1 -->
<svg width="657pt" height="368pt"
 viewBox="0.00 0.00 657.17 368.00" xmlns="http://www.w3.org/2000/svg" xmlns:xlink="http://www.w3.org/1999/xlink">
<g id="graph0" class="graph" transform="scale(1 1) rotate(0) translate(4 364)">
<title>include/proxsuite/proxqp/dense/fwd.hpp</title>
<!-- Node1 -->
<g id="node1" class="node">
<title>Node1</title>
<g id="a_node1"><a xlink:title=" ">
<polygon fill="#999999" stroke="#666666" points="260.67,-360 123.67,-360 123.67,-330 260.67,-330 260.67,-360"/>
<text text-anchor="start" x="131.67" y="-348" font-family="Helvetica,sans-Serif" font-size="10.00">include/proxsuite/proxqp</text>
<text text-anchor="middle" x="192.17" y="-337" font-family="Helvetica,sans-Serif" font-size="10.00">/dense/fwd.hpp</text>
</a>
</g>
</g>
<!-- Node2 -->
<g id="node2" class="node">
<title>Node2</title>
<g id="a_node2"><a xlink:href="dense_2helpers_8hpp.html" target="_top" xlink:title=" ">
<polygon fill="white" stroke="#666666" points="150.67,-228 13.67,-228 13.67,-198 150.67,-198 150.67,-228"/>
<text text-anchor="start" x="21.67" y="-216" font-family="Helvetica,sans-Serif" font-size="10.00">include/proxsuite/proxqp</text>
<text text-anchor="middle" x="82.17" y="-205" font-family="Helvetica,sans-Serif" font-size="10.00">/dense/helpers.hpp</text>
</a>
</g>
</g>
<!-- Node1&#45;&gt;Node2 -->
<g id="edge1" class="edge">
<title>Node1&#45;&gt;Node2</title>
<path fill="none" stroke="#63b8ff" d="M191.47,-319.5C189.84,-302.42 185.3,-279.93 173.17,-264 160.83,-247.79 141.65,-236.15 124.08,-228.2"/>
<polygon fill="#63b8ff" stroke="#63b8ff" points="188,-320.08 192.17,-329.82 194.98,-319.61 188,-320.08"/>
</g>
<!-- Node6 -->
<g id="node6" class="node">
<title>Node6</title>
<g id="a_node6"><a xlink:href="dense_2model_8hpp.html" target="_top" xlink:title=" ">
<polygon fill="white" stroke="#666666" points="408.67,-294 271.67,-294 271.67,-264 408.67,-264 408.67,-294"/>
<text text-anchor="start" x="279.67" y="-282" font-family="Helvetica,sans-Serif" font-size="10.00">include/proxsuite/proxqp</text>
<text text-anchor="middle" x="340.17" y="-271" font-family="Helvetica,sans-Serif" font-size="10.00">/dense/model.hpp</text>
</a>
</g>
</g>
<!-- Node1&#45;&gt;Node6 -->
<g id="edge6" class="edge">
<title>Node1&#45;&gt;Node6</title>
<path fill="none" stroke="#63b8ff" d="M233.98,-325.92C257.37,-315.8 286.1,-303.38 307.77,-294.01"/>
<polygon fill="#63b8ff" stroke="#63b8ff" points="232.44,-322.77 224.65,-329.95 235.22,-329.2 232.44,-322.77"/>
</g>
<!-- Node10 -->
<g id="node10" class="node">
<title>Node10</title>
<g id="a_node10"><a xlink:href="dense_2preconditioner_2ruiz_8hpp.html" target="_top" xlink:title=" ">
<polygon fill="white" stroke="#666666" points="164.17,-294 0.17,-294 0.17,-264 164.17,-264 164.17,-294"/>
<text text-anchor="start" x="8.17" y="-282" font-family="Helvetica,sans-Serif" font-size="10.00">include/proxsuite/proxqp</text>
<text text-anchor="middle" x="82.17" y="-271" font-family="Helvetica,sans-Serif" font-size="10.00">/dense/preconditioner/ruiz.hpp</text>
</a>
</g>
</g>
<!-- Node1&#45;&gt;Node10 -->
<g id="edge12" class="edge">
<title>Node1&#45;&gt;Node10</title>
<path fill="none" stroke="#63b8ff" d="M158.99,-324.69C142.01,-314.82 121.72,-303.01 106.25,-294.01"/>
<polygon fill="#63b8ff" stroke="#63b8ff" points="157.63,-327.95 168.03,-329.95 161.15,-321.9 157.63,-327.95"/>
</g>
<!-- Node3 -->
<g id="node3" class="node">
<title>Node3</title>
<g id="a_node3"><a xlink:href="dense_2solver_8hpp.html" target="_top" xlink:title=" ">
<polygon fill="white" stroke="#666666" points="276.67,-162 139.67,-162 139.67,-132 276.67,-132 276.67,-162"/>
<text text-anchor="start" x="147.67" y="-150" font-family="Helvetica,sans-Serif" font-size="10.00">include/proxsuite/proxqp</text>
<text text-anchor="middle" x="208.17" y="-139" font-family="Helvetica,sans-Serif" font-size="10.00">/dense/solver.hpp</text>
</a>
</g>
</g>
<!-- Node2&#45;&gt;Node3 -->
<g id="edge2" class="edge">
<title>Node2&#45;&gt;Node3</title>
<path fill="none" stroke="#63b8ff" d="M118.83,-193.38C138.55,-183.36 162.46,-171.22 180.58,-162.01"/>
<polygon fill="#63b8ff" stroke="#63b8ff" points="117.15,-190.31 109.82,-197.95 120.32,-196.55 117.15,-190.31"/>
</g>
<!-- Node4 -->
<g id="node4" class="node">
<title>Node4</title>
<g id="a_node4"><a xlink:href="dense_2wrapper_8hpp.html" target="_top" xlink:title=" ">
<polygon fill="white" stroke="#666666" points="150.67,-96 13.67,-96 13.67,-66 150.67,-66 150.67,-96"/>
<text text-anchor="start" x="21.67" y="-84" font-family="Helvetica,sans-Serif" font-size="10.00">include/proxsuite/proxqp</text>
<text text-anchor="middle" x="82.17" y="-73" font-family="Helvetica,sans-Serif" font-size="10.00">/dense/wrapper.hpp</text>
</a>
</g>
</g>
<!-- Node2&#45;&gt;Node4 -->
<g id="edge5" class="edge">
<title>Node2&#45;&gt;Node4</title>
<path fill="none" stroke="#63b8ff" d="M82.17,-187.68C82.17,-160.7 82.17,-118.11 82.17,-96.14"/>
<polygon fill="#63b8ff" stroke="#63b8ff" points="78.67,-187.84 82.17,-197.84 85.67,-187.84 78.67,-187.84"/>
</g>
<!-- Node3&#45;&gt;Node4 -->
<g id="edge3" class="edge">
<title>Node3&#45;&gt;Node4</title>
<path fill="none" stroke="#63b8ff" d="M171.51,-127.38C151.79,-117.36 127.88,-105.22 109.76,-96.01"/>
<polygon fill="#63b8ff" stroke="#63b8ff" points="170.02,-130.55 180.52,-131.95 173.19,-124.31 170.02,-130.55"/>
</g>
<!-- Node5 -->
<g id="node5" class="node">
<title>Node5</title>
<g id="a_node5"><a xlink:href="dense_8hpp.html" target="_top" xlink:title=" ">
<polygon fill="white" stroke="#666666" points="150.67,-30 13.67,-30 13.67,0 150.67,0 150.67,-30"/>
<text text-anchor="start" x="21.67" y="-18" font-family="Helvetica,sans-Serif" font-size="10.00">include/proxsuite/proxqp</text>
<text text-anchor="middle" x="82.17" y="-7" font-family="Helvetica,sans-Serif" font-size="10.00">/dense/dense.hpp</text>
</a>
</g>
</g>
<!-- Node4&#45;&gt;Node5 -->
<g id="edge4" class="edge">
<title>Node4&#45;&gt;Node5</title>
<path fill="none" stroke="#63b8ff" d="M82.17,-55.54C82.17,-46.96 82.17,-37.61 82.17,-30.16"/>
<polygon fill="#63b8ff" stroke="#63b8ff" points="78.67,-55.8 82.17,-65.8 85.67,-55.8 78.67,-55.8"/>
</g>
<!-- Node7 -->
<g id="node7" class="node">
<title>Node7</title>
<g id="a_node7"><a xlink:href="linesearch_8hpp.html" target="_top" xlink:title=" ">
<polygon fill="white" stroke="#666666" points="460.67,-228 323.67,-228 323.67,-198 460.67,-198 460.67,-228"/>
<text text-anchor="start" x="331.67" y="-216" font-family="Helvetica,sans-Serif" font-size="10.00">include/proxsuite/proxqp</text>
<text text-anchor="middle" x="392.17" y="-205" font-family="Helvetica,sans-Serif" font-size="10.00">/dense/linesearch.hpp</text>
</a>
</g>
</g>
<!-- Node6&#45;&gt;Node7 -->
<g id="edge7" class="edge">
<title>Node6&#45;&gt;Node7</title>
<path fill="none" stroke="#63b8ff" d="M358.2,-255.81C365.65,-246.64 374.07,-236.28 380.66,-228.16"/>
<polygon fill="#63b8ff" stroke="#63b8ff" points="355.3,-253.83 351.71,-263.8 360.73,-258.24 355.3,-253.83"/>
</g>
<!-- Node8 -->
<g id="node8" class="node">
<title>Node8</title>
<g id="a_node8"><a xlink:href="dense_2utils_8hpp.html" target="_top" xlink:title=" ">
<polygon fill="white" stroke="#666666" points="305.67,-228 168.67,-228 168.67,-198 305.67,-198 305.67,-228"/>
<text text-anchor="start" x="176.67" y="-216" font-family="Helvetica,sans-Serif" font-size="10.00">include/proxsuite/proxqp</text>
<text text-anchor="middle" x="237.17" y="-205" font-family="Helvetica,sans-Serif" font-size="10.00">/dense/utils.hpp</text>
</a>
</g>
</g>
<!-- Node6&#45;&gt;Node8 -->
<g id="edge9" class="edge">
<title>Node6&#45;&gt;Node8</title>
<path fill="none" stroke="#63b8ff" d="M308.66,-258.42C292.85,-248.6 274.07,-236.93 259.72,-228.01"/>
<polygon fill="#63b8ff" stroke="#63b8ff" points="307.23,-261.65 317.57,-263.95 310.92,-255.7 307.23,-261.65"/>
</g>
<!-- Node9 -->
<g id="node9" class="node">
<title>Node9</title>
<g id="a_node9"><a xlink:href="random__qp__problems_8hpp.html" target="_top" xlink:title=" ">
<polygon fill="white" stroke="#666666" points="649.17,-228 479.17,-228 479.17,-198 649.17,-198 649.17,-228"/>
<text text-anchor="start" x="487.17" y="-216" font-family="Helvetica,sans-Serif" font-size="10.00">include/proxsuite/proxqp</text>
<text text-anchor="middle" x="564.17" y="-205" font-family="Helvetica,sans-Serif" font-size="10.00">/utils/random_qp_problems.hpp</text>
</a>
</g>
</g>
<!-- Node6&#45;&gt;Node9 -->
<g id="edge11" class="edge">
<title>Node6&#45;&gt;Node9</title>
<path fill="none" stroke="#63b8ff" d="M399.25,-261.12C435.36,-250.8 481.02,-237.76 515.13,-228.01"/>
<polygon fill="#63b8ff" stroke="#63b8ff" points="397.98,-257.84 389.33,-263.95 399.91,-264.57 397.98,-257.84"/>
</g>
<!-- Node7&#45;&gt;Node3 -->
<g id="edge8" class="edge">
<title>Node7&#45;&gt;Node3</title>
<path fill="none" stroke="#63b8ff" d="M342.12,-194.59C312.7,-184.36 276,-171.59 248.46,-162.01"/>
<polygon fill="#63b8ff" stroke="#63b8ff" points="341.2,-197.98 351.79,-197.95 343.5,-191.36 341.2,-197.98"/>
</g>
<!-- Node8&#45;&gt;Node3 -->
<g id="edge10" class="edge">
<title>Node8&#45;&gt;Node3</title>
<path fill="none" stroke="#63b8ff" d="M226.6,-188.68C222.58,-179.79 218.11,-169.95 214.59,-162.16"/>
<polygon fill="#63b8ff" stroke="#63b8ff" points="223.42,-190.13 230.73,-197.8 229.8,-187.24 223.42,-190.13"/>
</g>
<!-- Node10&#45;&gt;Node2 -->
<g id="edge13" class="edge">
<title>Node10&#45;&gt;Node2</title>
<path fill="none" stroke="#63b8ff" d="M82.17,-253.54C82.17,-244.96 82.17,-235.61 82.17,-228.16"/>
<polygon fill="#63b8ff" stroke="#63b8ff" points="78.67,-253.8 82.17,-263.8 85.67,-253.8 78.67,-253.8"/>
</g>
<!-- Node10&#45;&gt;Node4 -->
<g id="edge15" class="edge">
<title>Node10&#45;&gt;Node4</title>
<path fill="none" stroke="#63b8ff" d="M36.48,-259.07C23.72,-251.41 11.38,-241.19 4.17,-228 -2.23,-216.3 0.28,-210.75 4.17,-198 16.77,-156.68 49.56,-116.74 68.37,-96.24"/>
<polygon fill="#63b8ff" stroke="#63b8ff" points="34.88,-262.19 45.33,-263.98 38.28,-256.07 34.88,-262.19"/>
</g>
<!-- Node10&#45;&gt;Node8 -->
<g id="edge14" class="edge">
<title>Node10&#45;&gt;Node8</title>
<path fill="none" stroke="#63b8ff" d="M125.63,-260.05C150.19,-249.91 180.44,-237.43 203.23,-228.01"/>
<polygon fill="#63b8ff" stroke="#63b8ff" points="124.09,-256.9 116.19,-263.95 126.76,-263.37 124.09,-256.9"/>
</g>
</g>
</svg>
