<?xml version="1.0" encoding="UTF-8" standalone="no"?>
<!DOCTYPE svg PUBLIC "-//W3C//DTD SVG 1.1//EN"
 "http://www.w3.org/Graphics/SVG/1.1/DTD/svg11.dtd">
<!-- Generated by graphviz version 7.0.6 (20230107.1202)
 -->
<!-- Title: include/proxsuite/proxqp/dense/preconditioner/ruiz.hpp Pages: 1 -->
<svg width="370pt" height="302pt"
 viewBox="0.00 0.00 369.50 302.00" xmlns="http://www.w3.org/2000/svg" xmlns:xlink="http://www.w3.org/1999/xlink">
<g id="graph0" class="graph" transform="scale(1 1) rotate(0) translate(4 298)">
<title>include/proxsuite/proxqp/dense/preconditioner/ruiz.hpp</title>
<!-- Node1 -->
<g id="node1" class="node">
<title>Node1</title>
<g id="a_node1"><a xlink:title=" ">
<polygon fill="#999999" stroke="#666666" points="305.5,-294 141.5,-294 141.5,-264 305.5,-264 305.5,-294"/>
<text text-anchor="start" x="149.5" y="-282" font-family="Helvetica,sans-Serif" font-size="10.00">include/proxsuite/proxqp</text>
<text text-anchor="middle" x="223.5" y="-271" font-family="Helvetica,sans-Serif" font-size="10.00">/dense/preconditioner/ruiz.hpp</text>
</a>
</g>
</g>
<!-- Node2 -->
<g id="node2" class="node">
<title>Node2</title>
<g id="a_node2"><a xlink:href="dense_2helpers_8hpp.html" target="_top" xlink:title=" ">
<polygon fill="white" stroke="#666666" points="137,-228 0,-228 0,-198 137,-198 137,-228"/>
<text text-anchor="start" x="8" y="-216" font-family="Helvetica,sans-Serif" font-size="10.00">include/proxsuite/proxqp</text>
<text text-anchor="middle" x="68.5" y="-205" font-family="Helvetica,sans-Serif" font-size="10.00">/dense/helpers.hpp</text>
</a>
</g>
</g>
<!-- Node1&#45;&gt;Node2 -->
<g id="edge1" class="edge">
<title>Node1&#45;&gt;Node2</title>
<path fill="none" stroke="#63b8ff" d="M178.15,-259.27C154.31,-249.43 125.53,-237.55 103.44,-228.43"/>
<polygon fill="#63b8ff" stroke="#63b8ff" points="176.74,-262.48 187.32,-263.06 179.41,-256.01 176.74,-262.48"/>
</g>
<!-- Node4 -->
<g id="node4" class="node">
<title>Node4</title>
<g id="a_node4"><a xlink:href="proxqp_2dense_2wrapper_8hpp.html" target="_top" xlink:title=" ">
<polygon fill="white" stroke="#666666" points="263,-96 126,-96 126,-66 263,-66 263,-96"/>
<text text-anchor="start" x="134" y="-84" font-family="Helvetica,sans-Serif" font-size="10.00">include/proxsuite/proxqp</text>
<text text-anchor="middle" x="194.5" y="-73" font-family="Helvetica,sans-Serif" font-size="10.00">/dense/wrapper.hpp</text>
</a>
</g>
</g>
<!-- Node1&#45;&gt;Node4 -->
<g id="edge9" class="edge">
<title>Node1&#45;&gt;Node4</title>
<path fill="none" stroke="#63b8ff" d="M270.94,-258.01C283.07,-250.47 294.62,-240.58 301.5,-228 307.9,-216.3 304.24,-211.05 301.5,-198 294.91,-166.64 293.32,-156.35 272.5,-132 259.75,-117.08 241.44,-105.03 225.76,-96.5"/>
<polygon fill="#63b8ff" stroke="#63b8ff" points="269.45,-254.83 262.48,-262.81 272.9,-260.91 269.45,-254.83"/>
</g>
<!-- Node7 -->
<g id="node7" class="node">
<title>Node7</title>
<g id="a_node7"><a xlink:href="dense_2utils_8hpp.html" target="_top" xlink:title=" ">
<polygon fill="white" stroke="#666666" points="292,-228 155,-228 155,-198 292,-198 292,-228"/>
<text text-anchor="start" x="163" y="-216" font-family="Helvetica,sans-Serif" font-size="10.00">include/proxsuite/proxqp</text>
<text text-anchor="middle" x="223.5" y="-205" font-family="Helvetica,sans-Serif" font-size="10.00">/dense/utils.hpp</text>
</a>
</g>
</g>
<!-- Node1&#45;&gt;Node7 -->
<g id="edge7" class="edge">
<title>Node1&#45;&gt;Node7</title>
<path fill="none" stroke="#63b8ff" d="M223.5,-252.39C223.5,-244.13 223.5,-235.28 223.5,-228.16"/>
<polygon fill="#63b8ff" stroke="#63b8ff" points="220,-252.28 223.5,-262.28 227,-252.28 220,-252.28"/>
</g>
<!-- Node3 -->
<g id="node3" class="node">
<title>Node3</title>
<g id="a_node3"><a xlink:href="dense_2solver_8hpp.html" target="_top" xlink:title=" ">
<polygon fill="white" stroke="#666666" points="263,-162 126,-162 126,-132 263,-132 263,-162"/>
<text text-anchor="start" x="134" y="-150" font-family="Helvetica,sans-Serif" font-size="10.00">include/proxsuite/proxqp</text>
<text text-anchor="middle" x="194.5" y="-139" font-family="Helvetica,sans-Serif" font-size="10.00">/dense/solver.hpp</text>
</a>
</g>
</g>
<!-- Node2&#45;&gt;Node3 -->
<g id="edge2" class="edge">
<title>Node2&#45;&gt;Node3</title>
<path fill="none" stroke="#63b8ff" d="M106.98,-192.45C126.12,-182.73 148.83,-171.2 166.32,-162.31"/>
<polygon fill="#63b8ff" stroke="#63b8ff" points="105.46,-189.3 98.13,-196.95 108.63,-195.54 105.46,-189.3"/>
</g>
<!-- Node2&#45;&gt;Node4 -->
<g id="edge6" class="edge">
<title>Node2&#45;&gt;Node4</title>
<path fill="none" stroke="#63b8ff" d="M79.87,-187.47C88.53,-170.55 101.65,-148.27 117.5,-132 131.51,-117.61 150.38,-105.28 165.94,-96.46"/>
<polygon fill="#63b8ff" stroke="#63b8ff" points="76.78,-185.82 75.5,-196.34 83.06,-188.91 76.78,-185.82"/>
</g>
<!-- Node3&#45;&gt;Node4 -->
<g id="edge3" class="edge">
<title>Node3&#45;&gt;Node4</title>
<path fill="none" stroke="#63b8ff" d="M194.5,-120.39C194.5,-112.13 194.5,-103.28 194.5,-96.16"/>
<polygon fill="#63b8ff" stroke="#63b8ff" points="191,-120.28 194.5,-130.28 198,-120.28 191,-120.28"/>
</g>
<!-- Node5 -->
<g id="node5" class="node">
<title>Node5</title>
<g id="a_node5"><a xlink:href="dense_8hpp.html" target="_top" xlink:title=" ">
<polygon fill="white" stroke="#666666" points="179,-30 42,-30 42,0 179,0 179,-30"/>
<text text-anchor="start" x="50" y="-18" font-family="Helvetica,sans-Serif" font-size="10.00">include/proxsuite/proxqp</text>
<text text-anchor="middle" x="110.5" y="-7" font-family="Helvetica,sans-Serif" font-size="10.00">/dense/dense.hpp</text>
</a>
</g>
</g>
<!-- Node4&#45;&gt;Node5 -->
<g id="edge4" class="edge">
<title>Node4&#45;&gt;Node5</title>
<path fill="none" stroke="#63b8ff" d="M166.9,-58.97C154.61,-49.61 140.44,-38.81 129.38,-30.39"/>
<polygon fill="#63b8ff" stroke="#63b8ff" points="164.58,-61.6 174.65,-64.88 168.82,-56.03 164.58,-61.6"/>
</g>
<!-- Node6 -->
<g id="node6" class="node">
<title>Node6</title>
<g id="a_node6"><a xlink:href="serialization_2wrapper_8hpp.html" target="_top" xlink:title=" ">
<polygon fill="white" stroke="#666666" points="361.5,-30 197.5,-30 197.5,0 361.5,0 361.5,-30"/>
<text text-anchor="start" x="205.5" y="-18" font-family="Helvetica,sans-Serif" font-size="10.00">include/proxsuite/serialization</text>
<text text-anchor="middle" x="279.5" y="-7" font-family="Helvetica,sans-Serif" font-size="10.00">/wrapper.hpp</text>
</a>
</g>
</g>
<!-- Node4&#45;&gt;Node6 -->
<g id="edge5" class="edge">
<title>Node4&#45;&gt;Node6</title>
<path fill="none" stroke="#63b8ff" d="M222.42,-58.97C234.87,-49.61 249.2,-38.81 260.39,-30.39"/>
<polygon fill="#63b8ff" stroke="#63b8ff" points="220.46,-56.07 214.57,-64.89 224.67,-61.67 220.46,-56.07"/>
</g>
<!-- Node7&#45;&gt;Node3 -->
<g id="edge8" class="edge">
<title>Node7&#45;&gt;Node3</title>
<path fill="none" stroke="#63b8ff" d="M212.42,-187.54C208.53,-178.96 204.29,-169.61 200.92,-162.16"/>
<polygon fill="#63b8ff" stroke="#63b8ff" points="209.12,-188.75 216.44,-196.42 215.5,-185.86 209.12,-188.75"/>
</g>
</g>
</svg>
