<?xml version="1.0" encoding="UTF-8" standalone="no"?>
<!DOCTYPE svg PUBLIC "-//W3C//DTD SVG 1.1//EN"
 "http://www.w3.org/Graphics/SVG/1.1/DTD/svg11.dtd">
<!-- Generated by graphviz version 8.0.4 (20230426.1303)
 -->
<!-- Title: include/proxsuite/proxqp/dense/helpers.hpp Pages: 1 -->
<svg width="326pt" height="250pt"
 viewBox="0.00 0.00 325.88 250.00" xmlns="http://www.w3.org/2000/svg" xmlns:xlink="http://www.w3.org/1999/xlink">
<g id="graph0" class="graph" transform="scale(1 1) rotate(0) translate(4 246)">
<title>include/proxsuite/proxqp/dense/helpers.hpp</title>
<!-- Node1 -->
<g id="node1" class="node">
<title>Node1</title>
<g id="a_node1"><a xlink:title=" ">
<polygon fill="#999999" stroke="#666666" points="220.75,-242 84,-242 84,-208.5 220.75,-208.5 220.75,-242"/>
<text text-anchor="start" x="92" y="-228.5" font-family="Helvetica,sans-Serif" font-size="10.00">include/proxsuite/proxqp</text>
<text text-anchor="middle" x="152.38" y="-215.75" font-family="Helvetica,sans-Serif" font-size="10.00">/dense/helpers.hpp</text>
</a>
</g>
</g>
<!-- Node2 -->
<g id="node2" class="node">
<title>Node2</title>
<g id="a_node2"><a xlink:href="dense_2solver_8hpp.html" target="_top" xlink:title=" ">
<polygon fill="white" stroke="#666666" points="172.75,-172.5 36,-172.5 36,-139 172.75,-139 172.75,-172.5"/>
<text text-anchor="start" x="44" y="-159" font-family="Helvetica,sans-Serif" font-size="10.00">include/proxsuite/proxqp</text>
<text text-anchor="middle" x="104.38" y="-146.25" font-family="Helvetica,sans-Serif" font-size="10.00">/dense/solver.hpp</text>
</a>
</g>
</g>
<!-- Node1&#45;&gt;Node2 -->
<g id="edge1" class="edge">
<title>Node1&#45;&gt;Node2</title>
<path fill="none" stroke="#63b8ff" d="M134.69,-199.38C128.33,-190.44 121.33,-180.6 115.67,-172.63"/>
<polygon fill="#63b8ff" stroke="#63b8ff" points="132.35,-201.13 141,-207.25 138.06,-197.08 132.35,-201.13"/>
</g>
<!-- Node3 -->
<g id="node3" class="node">
<title>Node3</title>
<g id="a_node3"><a xlink:href="proxqp_2dense_2wrapper_8hpp.html" target="_top" xlink:title=" ">
<polygon fill="white" stroke="#666666" points="220.75,-103 84,-103 84,-69.5 220.75,-69.5 220.75,-103"/>
<text text-anchor="start" x="92" y="-89.5" font-family="Helvetica,sans-Serif" font-size="10.00">include/proxsuite/proxqp</text>
<text text-anchor="middle" x="152.38" y="-76.75" font-family="Helvetica,sans-Serif" font-size="10.00">/dense/wrapper.hpp</text>
</a>
</g>
</g>
<!-- Node1&#45;&gt;Node3 -->
<g id="edge5" class="edge">
<title>Node1&#45;&gt;Node3</title>
<path fill="none" stroke="#63b8ff" d="M169.82,-199.15C174.52,-191.01 178.97,-181.71 181.38,-172.5 185.14,-158.09 185.14,-153.41 181.38,-139 177.99,-126.05 170.57,-112.9 164.08,-103.1"/>
<polygon fill="#63b8ff" stroke="#63b8ff" points="166.38,-197.05 164.08,-207.4 172.32,-200.75 166.38,-197.05"/>
</g>
<!-- Node2&#45;&gt;Node3 -->
<g id="edge2" class="edge">
<title>Node2&#45;&gt;Node3</title>
<path fill="none" stroke="#63b8ff" d="M122.06,-129.88C128.42,-120.94 135.42,-111.1 141.08,-103.13"/>
<polygon fill="#63b8ff" stroke="#63b8ff" points="118.69,-127.58 115.75,-137.75 124.4,-131.63 118.69,-127.58"/>
</g>
<!-- Node4 -->
<g id="node4" class="node">
<title>Node4</title>
<g id="a_node4"><a xlink:href="dense_8hpp.html" target="_top" xlink:title=" ">
<polygon fill="white" stroke="#666666" points="136.75,-33.5 0,-33.5 0,0 136.75,0 136.75,-33.5"/>
<text text-anchor="start" x="8" y="-20" font-family="Helvetica,sans-Serif" font-size="10.00">include/proxsuite/proxqp</text>
<text text-anchor="middle" x="68.38" y="-7.25" font-family="Helvetica,sans-Serif" font-size="10.00">/dense/dense.hpp</text>
</a>
</g>
</g>
<!-- Node3&#45;&gt;Node4 -->
<g id="edge3" class="edge">
<title>Node3&#45;&gt;Node4</title>
<path fill="none" stroke="#63b8ff" d="M123.93,-62.39C112.27,-53.02 99.05,-42.4 88.43,-33.87"/>
<polygon fill="#63b8ff" stroke="#63b8ff" points="121.48,-65.72 131.47,-69.25 125.87,-60.26 121.48,-65.72"/>
</g>
<!-- Node5 -->
<g id="node5" class="node">
<title>Node5</title>
<g id="a_node5"><a xlink:href="serialization_2wrapper_8hpp.html" target="_top" xlink:title=" ">
<polygon fill="white" stroke="#666666" points="317.88,-33.5 154.88,-33.5 154.88,0 317.88,0 317.88,-33.5"/>
<text text-anchor="start" x="162.88" y="-20" font-family="Helvetica,sans-Serif" font-size="10.00">include/proxsuite/serialization</text>
<text text-anchor="middle" x="236.38" y="-7.25" font-family="Helvetica,sans-Serif" font-size="10.00">/wrapper.hpp</text>
</a>
</g>
</g>
<!-- Node3&#45;&gt;Node5 -->
<g id="edge4" class="edge">
<title>Node3&#45;&gt;Node5</title>
<path fill="none" stroke="#63b8ff" d="M180.82,-62.39C192.48,-53.02 205.7,-42.4 216.32,-33.87"/>
<polygon fill="#63b8ff" stroke="#63b8ff" points="178.88,-60.26 173.28,-69.25 183.27,-65.72 178.88,-60.26"/>
</g>
</g>
</svg>
