<?xml version="1.0" encoding="UTF-8" standalone="no"?>
<!DOCTYPE svg PUBLIC "-//W3C//DTD SVG 1.1//EN"
 "http://www.w3.org/Graphics/SVG/1.1/DTD/svg11.dtd">
<!-- Generated by graphviz version 8.0.4 (20230426.1303)
 -->
<!-- Title: include/proxsuite/proxqp/dense/workspace.hpp Pages: 1 -->
<svg width="326pt" height="320pt"
 viewBox="0.00 0.00 325.88 319.50" xmlns="http://www.w3.org/2000/svg" xmlns:xlink="http://www.w3.org/1999/xlink">
<g id="graph0" class="graph" transform="scale(1 1) rotate(0) translate(4 315.5)">
<title>include/proxsuite/proxqp/dense/workspace.hpp</title>
<!-- Node1 -->
<g id="node1" class="node">
<title>Node1</title>
<g id="a_node1"><a xlink:title=" ">
<polygon fill="#999999" stroke="#666666" points="220.75,-311.5 84,-311.5 84,-278 220.75,-278 220.75,-311.5"/>
<text text-anchor="start" x="92" y="-298" font-family="Helvetica,sans-Serif" font-size="10.00">include/proxsuite/proxqp</text>
<text text-anchor="middle" x="152.38" y="-285.25" font-family="Helvetica,sans-Serif" font-size="10.00">/dense/workspace.hpp</text>
</a>
</g>
</g>
<!-- Node2 -->
<g id="node2" class="node">
<title>Node2</title>
<g id="a_node2"><a xlink:href="linesearch_8hpp.html" target="_top" xlink:title=" ">
<polygon fill="white" stroke="#666666" points="143.75,-242 7,-242 7,-208.5 143.75,-208.5 143.75,-242"/>
<text text-anchor="start" x="15" y="-228.5" font-family="Helvetica,sans-Serif" font-size="10.00">include/proxsuite/proxqp</text>
<text text-anchor="middle" x="75.38" y="-215.75" font-family="Helvetica,sans-Serif" font-size="10.00">/dense/linesearch.hpp</text>
</a>
</g>
</g>
<!-- Node1&#45;&gt;Node2 -->
<g id="edge1" class="edge">
<title>Node1&#45;&gt;Node2</title>
<path fill="none" stroke="#63b8ff" d="M125.98,-270.61C115.37,-261.31 103.4,-250.81 93.76,-242.37"/>
<polygon fill="#63b8ff" stroke="#63b8ff" points="123.3,-273.79 133.13,-277.75 127.91,-268.53 123.3,-273.79"/>
</g>
<!-- Node7 -->
<g id="node7" class="node">
<title>Node7</title>
<g id="a_node7"><a xlink:href="dense_2utils_8hpp.html" target="_top" xlink:title=" ">
<polygon fill="white" stroke="#666666" points="298.75,-242 162,-242 162,-208.5 298.75,-208.5 298.75,-242"/>
<text text-anchor="start" x="170" y="-228.5" font-family="Helvetica,sans-Serif" font-size="10.00">include/proxsuite/proxqp</text>
<text text-anchor="middle" x="230.38" y="-215.75" font-family="Helvetica,sans-Serif" font-size="10.00">/dense/utils.hpp</text>
</a>
</g>
</g>
<!-- Node1&#45;&gt;Node7 -->
<g id="edge6" class="edge">
<title>Node1&#45;&gt;Node7</title>
<path fill="none" stroke="#63b8ff" d="M179.11,-270.61C189.86,-261.31 201.99,-250.81 211.75,-242.37"/>
<polygon fill="#63b8ff" stroke="#63b8ff" points="177.13,-268.56 171.86,-277.75 181.71,-273.86 177.13,-268.56"/>
</g>
<!-- Node3 -->
<g id="node3" class="node">
<title>Node3</title>
<g id="a_node3"><a xlink:href="dense_2solver_8hpp.html" target="_top" xlink:title=" ">
<polygon fill="white" stroke="#666666" points="220.75,-172.5 84,-172.5 84,-139 220.75,-139 220.75,-172.5"/>
<text text-anchor="start" x="92" y="-159" font-family="Helvetica,sans-Serif" font-size="10.00">include/proxsuite/proxqp</text>
<text text-anchor="middle" x="152.38" y="-146.25" font-family="Helvetica,sans-Serif" font-size="10.00">/dense/solver.hpp</text>
</a>
</g>
</g>
<!-- Node2&#45;&gt;Node3 -->
<g id="edge2" class="edge">
<title>Node2&#45;&gt;Node3</title>
<path fill="none" stroke="#63b8ff" d="M101.77,-201.11C112.38,-191.81 124.35,-181.31 133.99,-172.87"/>
<polygon fill="#63b8ff" stroke="#63b8ff" points="99.84,-199.03 94.62,-208.25 104.45,-204.29 99.84,-199.03"/>
</g>
<!-- Node4 -->
<g id="node4" class="node">
<title>Node4</title>
<g id="a_node4"><a xlink:href="proxqp_2dense_2wrapper_8hpp.html" target="_top" xlink:title=" ">
<polygon fill="white" stroke="#666666" points="220.75,-103 84,-103 84,-69.5 220.75,-69.5 220.75,-103"/>
<text text-anchor="start" x="92" y="-89.5" font-family="Helvetica,sans-Serif" font-size="10.00">include/proxsuite/proxqp</text>
<text text-anchor="middle" x="152.38" y="-76.75" font-family="Helvetica,sans-Serif" font-size="10.00">/dense/wrapper.hpp</text>
</a>
</g>
</g>
<!-- Node3&#45;&gt;Node4 -->
<g id="edge3" class="edge">
<title>Node3&#45;&gt;Node4</title>
<path fill="none" stroke="#63b8ff" d="M152.38,-127.89C152.38,-119.5 152.38,-110.51 152.38,-103.13"/>
<polygon fill="#63b8ff" stroke="#63b8ff" points="148.88,-127.75 152.38,-137.75 155.88,-127.75 148.88,-127.75"/>
</g>
<!-- Node5 -->
<g id="node5" class="node">
<title>Node5</title>
<g id="a_node5"><a xlink:href="dense_8hpp.html" target="_top" xlink:title=" ">
<polygon fill="white" stroke="#666666" points="136.75,-33.5 0,-33.5 0,0 136.75,0 136.75,-33.5"/>
<text text-anchor="start" x="8" y="-20" font-family="Helvetica,sans-Serif" font-size="10.00">include/proxsuite/proxqp</text>
<text text-anchor="middle" x="68.38" y="-7.25" font-family="Helvetica,sans-Serif" font-size="10.00">/dense/dense.hpp</text>
</a>
</g>
</g>
<!-- Node4&#45;&gt;Node5 -->
<g id="edge4" class="edge">
<title>Node4&#45;&gt;Node5</title>
<path fill="none" stroke="#63b8ff" d="M123.93,-62.39C112.27,-53.02 99.05,-42.4 88.43,-33.87"/>
<polygon fill="#63b8ff" stroke="#63b8ff" points="121.48,-65.72 131.47,-69.25 125.87,-60.26 121.48,-65.72"/>
</g>
<!-- Node6 -->
<g id="node6" class="node">
<title>Node6</title>
<g id="a_node6"><a xlink:href="serialization_2wrapper_8hpp.html" target="_top" xlink:title=" ">
<polygon fill="white" stroke="#666666" points="317.88,-33.5 154.88,-33.5 154.88,0 317.88,0 317.88,-33.5"/>
<text text-anchor="start" x="162.88" y="-20" font-family="Helvetica,sans-Serif" font-size="10.00">include/proxsuite/serialization</text>
<text text-anchor="middle" x="236.38" y="-7.25" font-family="Helvetica,sans-Serif" font-size="10.00">/wrapper.hpp</text>
</a>
</g>
</g>
<!-- Node4&#45;&gt;Node6 -->
<g id="edge5" class="edge">
<title>Node4&#45;&gt;Node6</title>
<path fill="none" stroke="#63b8ff" d="M180.82,-62.39C192.48,-53.02 205.7,-42.4 216.32,-33.87"/>
<polygon fill="#63b8ff" stroke="#63b8ff" points="178.88,-60.26 173.28,-69.25 183.27,-65.72 178.88,-60.26"/>
</g>
<!-- Node7&#45;&gt;Node3 -->
<g id="edge7" class="edge">
<title>Node7&#45;&gt;Node3</title>
<path fill="none" stroke="#63b8ff" d="M203.64,-201.11C192.89,-191.81 180.76,-181.31 171,-172.87"/>
<polygon fill="#63b8ff" stroke="#63b8ff" points="201.04,-204.36 210.89,-208.25 205.62,-199.06 201.04,-204.36"/>
</g>
</g>
</svg>
