<?xml version="1.0" encoding="UTF-8" standalone="no"?>
<!DOCTYPE svg PUBLIC "-//W3C//DTD SVG 1.1//EN"
 "http://www.w3.org/Graphics/SVG/1.1/DTD/svg11.dtd">
<!-- Generated by graphviz version 5.0.0 (20220707.2338)
 -->
<!-- Title: include/proxsuite/proxqp/dense/views.hpp Pages: 1 -->
<svg width="1711pt" height="653pt"
 viewBox="0.00 0.00 1710.50 653.00" xmlns="http://www.w3.org/2000/svg" xmlns:xlink="http://www.w3.org/1999/xlink">
<g id="graph0" class="graph" transform="scale(1 1) rotate(0) translate(4 649)">
<title>include/proxsuite/proxqp/dense/views.hpp</title>
<!-- Node1 -->
<g id="node1" class="node">
<title>Node1</title>
<g id="a_node1"><a xlink:title=" ">
<polygon fill="#bfbfbf" stroke="black" points="797,-614.5 797,-644.5 934,-644.5 934,-614.5 797,-614.5"/>
<text text-anchor="start" x="805" y="-632.5" font-family="Helvetica,sans-Serif" font-size="10.00">include/proxsuite/proxqp</text>
<text text-anchor="middle" x="865.5" y="-621.5" font-family="Helvetica,sans-Serif" font-size="10.00">/dense/views.hpp</text>
</a>
</g>
</g>
<!-- Node2 -->
<g id="node2" class="node">
<title>Node2</title>
<g id="a_node2"><a xlink:href="linesearch_8hpp.html" target="_top" xlink:title=" ">
<polygon fill="none" stroke="black" points="657,-341 657,-371 794,-371 794,-341 657,-341"/>
<text text-anchor="start" x="665" y="-359" font-family="Helvetica,sans-Serif" font-size="10.00">include/proxsuite/proxqp</text>
<text text-anchor="middle" x="725.5" y="-348" font-family="Helvetica,sans-Serif" font-size="10.00">/dense/linesearch.hpp</text>
</a>
</g>
</g>
<!-- Node1&#45;&gt;Node2 -->
<g id="edge1" class="edge">
<title>Node1&#45;&gt;Node2</title>
<path fill="none" stroke="midnightblue" d="M786.47,-624.11C675.46,-617.12 484.48,-601.78 463.5,-578 428.12,-537.9 523.75,-524.66 630.5,-444 661.37,-420.68 693.9,-389.14 711.75,-371.15"/>
<polygon fill="midnightblue" stroke="midnightblue" points="786.42,-627.61 796.62,-624.74 786.86,-620.63 786.42,-627.61"/>
</g>
<!-- Node3 -->
<g id="node3" class="node">
<title>Node3</title>
<g id="a_node3"><a xlink:href="dense_2solver_8hpp.html" target="_top" xlink:title=" ">
<polygon fill="none" stroke="black" points="267,-268.5 267,-298.5 404,-298.5 404,-268.5 267,-268.5"/>
<text text-anchor="start" x="275" y="-286.5" font-family="Helvetica,sans-Serif" font-size="10.00">include/proxsuite/proxqp</text>
<text text-anchor="middle" x="335.5" y="-275.5" font-family="Helvetica,sans-Serif" font-size="10.00">/dense/solver.hpp</text>
</a>
</g>
</g>
<!-- Node1&#45;&gt;Node3 -->
<g id="edge13" class="edge">
<title>Node1&#45;&gt;Node3</title>
<path fill="none" stroke="midnightblue" d="M786.89,-613.08C757.31,-605.25 724.16,-593.92 696.5,-578 679.06,-567.96 681.45,-556.09 663.5,-547 472.73,-450.38 336.6,-602.91 193.5,-444 160.97,-407.88 156.1,-374.45 184.5,-335 203.32,-308.87 236.28,-296.06 266.61,-289.86"/>
<polygon fill="midnightblue" stroke="midnightblue" points="786.22,-616.52 796.77,-615.61 787.95,-609.74 786.22,-616.52"/>
</g>
<!-- Node6 -->
<g id="node6" class="node">
<title>Node6</title>
<g id="a_node6"><a xlink:href="dense_2preconditioner_2identity_8hpp.html" target="_top" xlink:title=" ">
<polygon fill="none" stroke="black" points="472.5,-547.5 472.5,-577.5 654.5,-577.5 654.5,-547.5 472.5,-547.5"/>
<text text-anchor="start" x="480.5" y="-565.5" font-family="Helvetica,sans-Serif" font-size="10.00">include/proxsuite/proxqp</text>
<text text-anchor="middle" x="563.5" y="-554.5" font-family="Helvetica,sans-Serif" font-size="10.00">/dense/preconditioner/identity.hpp</text>
</a>
</g>
</g>
<!-- Node1&#45;&gt;Node6 -->
<g id="edge5" class="edge">
<title>Node1&#45;&gt;Node6</title>
<path fill="none" stroke="midnightblue" d="M790.3,-612.32C740.67,-601.63 676.28,-587.77 628.8,-577.55"/>
<polygon fill="midnightblue" stroke="midnightblue" points="789.83,-615.79 800.34,-614.48 791.3,-608.95 789.83,-615.79"/>
</g>
<!-- Node7 -->
<g id="node7" class="node">
<title>Node7</title>
<g id="a_node7"><a xlink:href="dense_2preconditioner_2ruiz_8hpp.html" target="_top" xlink:title=" ">
<polygon fill="none" stroke="black" points="202.5,-413.5 202.5,-443.5 366.5,-443.5 366.5,-413.5 202.5,-413.5"/>
<text text-anchor="start" x="210.5" y="-431.5" font-family="Helvetica,sans-Serif" font-size="10.00">include/proxsuite/proxqp</text>
<text text-anchor="middle" x="284.5" y="-420.5" font-family="Helvetica,sans-Serif" font-size="10.00">/dense/preconditioner/ruiz.hpp</text>
</a>
</g>
</g>
<!-- Node1&#45;&gt;Node7 -->
<g id="edge6" class="edge">
<title>Node1&#45;&gt;Node7</title>
<path fill="none" stroke="midnightblue" d="M814.26,-610.85C791.16,-602.13 763.88,-590.74 740.5,-578 719.49,-566.56 718.08,-557.31 696.5,-547 679.87,-539.05 441.91,-472.95 335.4,-443.53"/>
<polygon fill="midnightblue" stroke="midnightblue" points="813.29,-614.22 823.88,-614.42 815.73,-607.66 813.29,-614.22"/>
</g>
<!-- Node9 -->
<g id="node9" class="node">
<title>Node9</title>
<g id="a_node9"><a xlink:href="dense_2utils_8hpp.html" target="_top" xlink:title=" ">
<polygon fill="none" stroke="black" points="349,-341 349,-371 486,-371 486,-341 349,-341"/>
<text text-anchor="start" x="357" y="-359" font-family="Helvetica,sans-Serif" font-size="10.00">include/proxsuite/proxqp</text>
<text text-anchor="middle" x="417.5" y="-348" font-family="Helvetica,sans-Serif" font-size="10.00">/dense/utils.hpp</text>
</a>
</g>
</g>
<!-- Node1&#45;&gt;Node9 -->
<g id="edge14" class="edge">
<title>Node1&#45;&gt;Node9</title>
<path fill="none" stroke="midnightblue" d="M786.76,-623.97C673.38,-616.7 475.1,-600.87 451.5,-578 393.38,-521.67 407.38,-410.5 414.57,-371.18"/>
<polygon fill="midnightblue" stroke="midnightblue" points="786.58,-627.47 796.78,-624.61 787.02,-620.48 786.58,-627.47"/>
</g>
<!-- Node10 -->
<g id="node10" class="node">
<title>Node10</title>
<g id="a_node10"><a xlink:href="settings_8hpp.html" target="_top" xlink:title=" ">
<polygon fill="none" stroke="black" points="734,-413.5 734,-443.5 871,-443.5 871,-413.5 734,-413.5"/>
<text text-anchor="start" x="742" y="-431.5" font-family="Helvetica,sans-Serif" font-size="10.00">include/proxsuite/proxqp</text>
<text text-anchor="middle" x="802.5" y="-420.5" font-family="Helvetica,sans-Serif" font-size="10.00">/settings.hpp</text>
</a>
</g>
</g>
<!-- Node1&#45;&gt;Node10 -->
<g id="edge15" class="edge">
<title>Node1&#45;&gt;Node10</title>
<path fill="none" stroke="midnightblue" d="M882.35,-606.02C887.64,-597.67 892.8,-587.82 895.5,-578 899.15,-564.71 900.03,-560.01 895.5,-547 880.37,-503.51 841.7,-463.99 819.28,-443.74"/>
<polygon fill="midnightblue" stroke="midnightblue" points="879.37,-604.18 876.67,-614.43 885.17,-608.1 879.37,-604.18"/>
</g>
<!-- Node11 -->
<g id="node11" class="node">
<title>Node11</title>
<g id="a_node11"><a xlink:href="sparse_2solver_8hpp.html" target="_top" xlink:title=" ">
<polygon fill="none" stroke="black" points="1030,-134.5 1030,-164.5 1167,-164.5 1167,-134.5 1030,-134.5"/>
<text text-anchor="start" x="1038" y="-152.5" font-family="Helvetica,sans-Serif" font-size="10.00">include/proxsuite/proxqp</text>
<text text-anchor="middle" x="1098.5" y="-141.5" font-family="Helvetica,sans-Serif" font-size="10.00">/sparse/solver.hpp</text>
</a>
</g>
</g>
<!-- Node1&#45;&gt;Node11 -->
<g id="edge63" class="edge">
<title>Node1&#45;&gt;Node11</title>
<path fill="none" stroke="midnightblue" d="M944.64,-626.85C1100.4,-622.93 1441.34,-610.78 1553.5,-578 1625.95,-556.83 1702.5,-571.98 1702.5,-496.5 1702.5,-496.5 1702.5,-496.5 1702.5,-282.5 1702.5,-173.96 1325.51,-154.53 1167.2,-151.16"/>
<polygon fill="midnightblue" stroke="midnightblue" points="944.12,-623.36 934.21,-627.11 944.29,-630.36 944.12,-623.36"/>
</g>
<!-- Node14 -->
<g id="node14" class="node">
<title>Node14</title>
<g id="a_node14"><a xlink:href="sparse_2utils_8hpp.html" target="_top" xlink:title=" ">
<polygon fill="none" stroke="black" points="1079,-268.5 1079,-298.5 1216,-298.5 1216,-268.5 1079,-268.5"/>
<text text-anchor="start" x="1087" y="-286.5" font-family="Helvetica,sans-Serif" font-size="10.00">include/proxsuite/proxqp</text>
<text text-anchor="middle" x="1147.5" y="-275.5" font-family="Helvetica,sans-Serif" font-size="10.00">/sparse/utils.hpp</text>
</a>
</g>
</g>
<!-- Node1&#45;&gt;Node14 -->
<g id="edge64" class="edge">
<title>Node1&#45;&gt;Node14</title>
<path fill="none" stroke="midnightblue" d="M944.23,-622.31C1131.61,-606.54 1588.5,-561.42 1588.5,-496.5 1588.5,-496.5 1588.5,-496.5 1588.5,-427.5 1588.5,-385.53 1600.39,-363.41 1569.5,-335 1544.01,-311.55 1328.93,-295.34 1216.05,-288.35"/>
<polygon fill="midnightblue" stroke="midnightblue" points="943.84,-618.83 934.17,-623.15 944.43,-625.81 943.84,-618.83"/>
</g>
<!-- Node15 -->
<g id="node15" class="node">
<title>Node15</title>
<g id="a_node15"><a xlink:href="sparse_2workspace_8hpp.html" target="_top" xlink:title=" ">
<polygon fill="none" stroke="black" points="982,-201.5 982,-231.5 1119,-231.5 1119,-201.5 982,-201.5"/>
<text text-anchor="start" x="990" y="-219.5" font-family="Helvetica,sans-Serif" font-size="10.00">include/proxsuite/proxqp</text>
<text text-anchor="middle" x="1050.5" y="-208.5" font-family="Helvetica,sans-Serif" font-size="10.00">/sparse/workspace.hpp</text>
</a>
</g>
</g>
<!-- Node1&#45;&gt;Node15 -->
<g id="edge66" class="edge">
<title>Node1&#45;&gt;Node15</title>
<path fill="none" stroke="midnightblue" d="M944.33,-627.01C1054.58,-623.67 1260.63,-612.88 1432.5,-578 1539.6,-556.26 1664.5,-605.79 1664.5,-496.5 1664.5,-496.5 1664.5,-496.5 1664.5,-427.5 1664.5,-375.67 1637.28,-362.73 1593.5,-335 1443.37,-239.91 1228.07,-220.83 1119.17,-217.61"/>
<polygon fill="midnightblue" stroke="midnightblue" points="944.18,-623.51 934.28,-627.3 944.38,-630.51 944.18,-623.51"/>
</g>
<!-- Node16 -->
<g id="node16" class="node">
<title>Node16</title>
<g id="a_node16"><a xlink:href="sparse_2views_8hpp.html" target="_top" xlink:title=" ">
<polygon fill="none" stroke="black" points="927,-341 927,-371 1064,-371 1064,-341 927,-341"/>
<text text-anchor="start" x="935" y="-359" font-family="Helvetica,sans-Serif" font-size="10.00">include/proxsuite/proxqp</text>
<text text-anchor="middle" x="995.5" y="-348" font-family="Helvetica,sans-Serif" font-size="10.00">/sparse/views.hpp</text>
</a>
</g>
</g>
<!-- Node1&#45;&gt;Node16 -->
<g id="edge65" class="edge">
<title>Node1&#45;&gt;Node16</title>
<path fill="none" stroke="midnightblue" d="M943.9,-617.4C1006.75,-603.92 1091.06,-574.51 1132.5,-511 1169.65,-454.06 1076.19,-396.81 1025.53,-371.08"/>
<polygon fill="midnightblue" stroke="midnightblue" points="943.1,-613.99 934,-619.43 944.5,-620.85 943.1,-613.99"/>
</g>
<!-- Node17 -->
<g id="node17" class="node">
<title>Node17</title>
<g id="a_node17"><a xlink:href="sparse_2fwd_8hpp.html" target="_top" xlink:title=" ">
<polygon fill="none" stroke="black" points="749,-547.5 749,-577.5 886,-577.5 886,-547.5 749,-547.5"/>
<text text-anchor="start" x="757" y="-565.5" font-family="Helvetica,sans-Serif" font-size="10.00">include/proxsuite/proxqp</text>
<text text-anchor="middle" x="817.5" y="-554.5" font-family="Helvetica,sans-Serif" font-size="10.00">/sparse/fwd.hpp</text>
</a>
</g>
</g>
<!-- Node1&#45;&gt;Node17 -->
<g id="edge32" class="edge">
<title>Node1&#45;&gt;Node17</title>
<path fill="none" stroke="midnightblue" d="M849,-606.16C842,-596.68 834.06,-585.92 827.89,-577.58"/>
<polygon fill="midnightblue" stroke="midnightblue" points="846.33,-608.43 855.08,-614.4 851.96,-604.27 846.33,-608.43"/>
</g>
<!-- Node22 -->
<g id="node22" class="node">
<title>Node22</title>
<g id="a_node22"><a xlink:href="random__qp__problems_8hpp.html" target="_top" xlink:title=" ">
<polygon fill="none" stroke="black" points="1234.5,-341 1234.5,-371 1404.5,-371 1404.5,-341 1234.5,-341"/>
<text text-anchor="start" x="1242.5" y="-359" font-family="Helvetica,sans-Serif" font-size="10.00">include/proxsuite/proxqp</text>
<text text-anchor="middle" x="1319.5" y="-348" font-family="Helvetica,sans-Serif" font-size="10.00">/utils/random_qp_problems.hpp</text>
</a>
</g>
</g>
<!-- Node1&#45;&gt;Node22 -->
<g id="edge67" class="edge">
<title>Node1&#45;&gt;Node22</title>
<path fill="none" stroke="midnightblue" d="M944.12,-620.29C989.27,-613.35 1046.06,-600.72 1092.5,-578 1176.43,-536.94 1190.08,-511.68 1254.5,-444 1276.99,-420.37 1298.77,-388.95 1310.52,-371.05"/>
<polygon fill="midnightblue" stroke="midnightblue" points="943.46,-616.85 934.08,-621.77 944.48,-623.78 943.46,-616.85"/>
</g>
<!-- Node2&#45;&gt;Node3 -->
<g id="edge2" class="edge">
<title>Node2&#45;&gt;Node3</title>
<path fill="none" stroke="midnightblue" d="M646.43,-340.71C575.35,-327.86 472.02,-309.18 404.29,-296.94"/>
<polygon fill="midnightblue" stroke="midnightblue" points="646.21,-344.22 656.67,-342.56 647.46,-337.34 646.21,-344.22"/>
</g>
<!-- Node4 -->
<g id="node4" class="node">
<title>Node4</title>
<g id="a_node4"><a xlink:href="dense_2wrapper_8hpp.html" target="_top" xlink:title=" ">
<polygon fill="none" stroke="black" points="170,-201.5 170,-231.5 307,-231.5 307,-201.5 170,-201.5"/>
<text text-anchor="start" x="178" y="-219.5" font-family="Helvetica,sans-Serif" font-size="10.00">include/proxsuite/proxqp</text>
<text text-anchor="middle" x="238.5" y="-208.5" font-family="Helvetica,sans-Serif" font-size="10.00">/dense/wrapper.hpp</text>
</a>
</g>
</g>
<!-- Node3&#45;&gt;Node4 -->
<g id="edge3" class="edge">
<title>Node3&#45;&gt;Node4</title>
<path fill="none" stroke="midnightblue" d="M306,-262.73C290.99,-252.68 273.1,-240.68 259.51,-231.58"/>
<polygon fill="midnightblue" stroke="midnightblue" points="304.2,-265.74 314.45,-268.4 308.09,-259.92 304.2,-265.74"/>
</g>
<!-- Node5 -->
<g id="node5" class="node">
<title>Node5</title>
<g id="a_node5"><a xlink:href="dense_8hpp.html" target="_top" xlink:title=" ">
<polygon fill="none" stroke="black" points="170,-134.5 170,-164.5 307,-164.5 307,-134.5 170,-134.5"/>
<text text-anchor="start" x="178" y="-152.5" font-family="Helvetica,sans-Serif" font-size="10.00">include/proxsuite/proxqp</text>
<text text-anchor="middle" x="238.5" y="-141.5" font-family="Helvetica,sans-Serif" font-size="10.00">/dense/dense.hpp</text>
</a>
</g>
</g>
<!-- Node4&#45;&gt;Node5 -->
<g id="edge4" class="edge">
<title>Node4&#45;&gt;Node5</title>
<path fill="none" stroke="midnightblue" d="M238.5,-191.11C238.5,-182.15 238.5,-172.32 238.5,-164.58"/>
<polygon fill="midnightblue" stroke="midnightblue" points="235,-191.4 238.5,-201.4 242,-191.4 235,-191.4"/>
</g>
<!-- Node7&#45;&gt;Node4 -->
<g id="edge12" class="edge">
<title>Node7&#45;&gt;Node4</title>
<path fill="none" stroke="midnightblue" d="M222.43,-409.15C207.47,-401.65 193.28,-391.27 184.5,-377 154.47,-328.2 202.08,-260.63 226.04,-231.64"/>
<polygon fill="midnightblue" stroke="midnightblue" points="221.26,-412.46 231.81,-413.45 224.18,-406.1 221.26,-412.46"/>
</g>
<!-- Node8 -->
<g id="node8" class="node">
<title>Node8</title>
<g id="a_node8"><a xlink:href="dense_2helpers_8hpp.html" target="_top" xlink:title=" ">
<polygon fill="none" stroke="black" points="194,-341 194,-371 331,-371 331,-341 194,-341"/>
<text text-anchor="start" x="202" y="-359" font-family="Helvetica,sans-Serif" font-size="10.00">include/proxsuite/proxqp</text>
<text text-anchor="middle" x="262.5" y="-348" font-family="Helvetica,sans-Serif" font-size="10.00">/dense/helpers.hpp</text>
</a>
</g>
</g>
<!-- Node7&#45;&gt;Node8 -->
<g id="edge7" class="edge">
<title>Node7&#45;&gt;Node8</title>
<path fill="none" stroke="midnightblue" d="M277.03,-403.56C273.68,-392.82 269.84,-380.51 266.95,-371.25"/>
<polygon fill="midnightblue" stroke="midnightblue" points="273.73,-404.73 280.05,-413.23 280.41,-402.64 273.73,-404.73"/>
</g>
<!-- Node7&#45;&gt;Node9 -->
<g id="edge10" class="edge">
<title>Node7&#45;&gt;Node9</title>
<path fill="none" stroke="midnightblue" d="M319.94,-408.72C342.25,-396.89 370.58,-381.87 390.95,-371.07"/>
<polygon fill="midnightblue" stroke="midnightblue" points="318.29,-405.63 311.09,-413.4 321.57,-411.81 318.29,-405.63"/>
</g>
<!-- Node8&#45;&gt;Node3 -->
<g id="edge8" class="edge">
<title>Node8&#45;&gt;Node3</title>
<path fill="none" stroke="midnightblue" d="M284.57,-333.69C296.28,-322.37 310.37,-308.77 320.75,-298.75"/>
<polygon fill="midnightblue" stroke="midnightblue" points="282.03,-331.27 277.27,-340.73 286.9,-336.3 282.03,-331.27"/>
</g>
<!-- Node8&#45;&gt;Node4 -->
<g id="edge9" class="edge">
<title>Node8&#45;&gt;Node4</title>
<path fill="none" stroke="midnightblue" d="M258.27,-330.79C253.27,-302.11 245.09,-255.28 241,-231.83"/>
<polygon fill="midnightblue" stroke="midnightblue" points="254.85,-331.55 260.02,-340.8 261.75,-330.35 254.85,-331.55"/>
</g>
<!-- Node9&#45;&gt;Node3 -->
<g id="edge11" class="edge">
<title>Node9&#45;&gt;Node3</title>
<path fill="none" stroke="midnightblue" d="M393.03,-333.96C379.7,-322.5 363.57,-308.64 351.79,-298.5"/>
<polygon fill="midnightblue" stroke="midnightblue" points="391.04,-336.87 400.91,-340.73 395.61,-331.56 391.04,-336.87"/>
</g>
<!-- Node10&#45;&gt;Node2 -->
<g id="edge17" class="edge">
<title>Node10&#45;&gt;Node2</title>
<path fill="none" stroke="midnightblue" d="M779.52,-406.46C767.01,-395 751.86,-381.14 740.8,-371"/>
<polygon fill="midnightblue" stroke="midnightblue" points="777.18,-409.06 786.92,-413.23 781.91,-403.9 777.18,-409.06"/>
</g>
<!-- Node10&#45;&gt;Node8 -->
<g id="edge16" class="edge">
<title>Node10&#45;&gt;Node8</title>
<path fill="none" stroke="midnightblue" d="M723.65,-420.25C611.61,-409.71 412,-390.01 340.5,-377 331.56,-375.37 322.13,-373.28 313.04,-371.07"/>
<polygon fill="midnightblue" stroke="midnightblue" points="723.6,-423.76 733.88,-421.21 724.25,-416.79 723.6,-423.76"/>
</g>
<!-- Node10&#45;&gt;Node9 -->
<g id="edge18" class="edge">
<title>Node10&#45;&gt;Node9</title>
<path fill="none" stroke="midnightblue" d="M723.59,-413.05C653.68,-400.25 552.65,-381.75 486.06,-369.55"/>
<polygon fill="midnightblue" stroke="midnightblue" points="723.2,-416.54 733.67,-414.9 724.46,-409.65 723.2,-416.54"/>
</g>
<!-- Node10&#45;&gt;Node11 -->
<g id="edge19" class="edge">
<title>Node10&#45;&gt;Node11</title>
<path fill="none" stroke="midnightblue" d="M817.88,-404.63C856.1,-347.85 952.67,-204.73 957.5,-201 979.63,-183.92 1008.04,-172.28 1033.55,-164.52"/>
<polygon fill="midnightblue" stroke="midnightblue" points="814.75,-403.02 812.07,-413.27 820.55,-406.93 814.75,-403.02"/>
</g>
<!-- Node12 -->
<g id="node12" class="node">
<title>Node12</title>
<g id="a_node12"><a xlink:href="sparse_2wrapper_8hpp.html" target="_top" xlink:title=" ">
<polygon fill="none" stroke="black" points="600,-67.5 600,-97.5 737,-97.5 737,-67.5 600,-67.5"/>
<text text-anchor="start" x="608" y="-85.5" font-family="Helvetica,sans-Serif" font-size="10.00">include/proxsuite/proxqp</text>
<text text-anchor="middle" x="668.5" y="-74.5" font-family="Helvetica,sans-Serif" font-size="10.00">/sparse/wrapper.hpp</text>
</a>
</g>
</g>
<!-- Node10&#45;&gt;Node12 -->
<g id="edge31" class="edge">
<title>Node10&#45;&gt;Node12</title>
<path fill="none" stroke="midnightblue" d="M807.91,-403.59C813.84,-375.31 822.5,-326.73 822.5,-284.5 822.5,-284.5 822.5,-284.5 822.5,-215.5 822.5,-155.28 753.79,-116.62 708.16,-97.58"/>
<polygon fill="midnightblue" stroke="midnightblue" points="804.49,-402.87 805.8,-413.38 811.33,-404.35 804.49,-402.87"/>
</g>
<!-- Node10&#45;&gt;Node14 -->
<g id="edge22" class="edge">
<title>Node10&#45;&gt;Node14</title>
<path fill="none" stroke="midnightblue" d="M881.26,-412.84C961.23,-397.96 1073.37,-377.08 1073.5,-377 1105.42,-357.86 1129.2,-319.54 1140.39,-298.74"/>
<polygon fill="midnightblue" stroke="midnightblue" points="880.38,-409.45 871.19,-414.72 881.66,-416.33 880.38,-409.45"/>
</g>
<!-- Node10&#45;&gt;Node15 -->
<g id="edge30" class="edge">
<title>Node10&#45;&gt;Node15</title>
<path fill="none" stroke="midnightblue" d="M833.19,-407.47C846.26,-398.57 861.45,-387.7 874.5,-377 895.4,-359.86 898.62,-353.32 918.5,-335 959.56,-297.15 1008.95,-253.73 1034.08,-231.79"/>
<polygon fill="midnightblue" stroke="midnightblue" points="830.89,-404.81 824.55,-413.29 834.8,-410.61 830.89,-404.81"/>
</g>
<!-- Node10&#45;&gt;Node16 -->
<g id="edge26" class="edge">
<title>Node10&#45;&gt;Node16</title>
<path fill="none" stroke="midnightblue" d="M850.5,-409.96C883.36,-397.96 926.36,-382.26 956.97,-371.07"/>
<polygon fill="midnightblue" stroke="midnightblue" points="849.28,-406.68 841.09,-413.4 851.69,-413.26 849.28,-406.68"/>
</g>
<!-- Node11&#45;&gt;Node12 -->
<g id="edge20" class="edge">
<title>Node11&#45;&gt;Node12</title>
<path fill="none" stroke="midnightblue" d="M1019.76,-136.6C938.88,-124.37 814.24,-105.53 737.22,-93.89"/>
<polygon fill="midnightblue" stroke="midnightblue" points="1019.48,-140.09 1029.89,-138.13 1020.53,-133.17 1019.48,-140.09"/>
</g>
<!-- Node13 -->
<g id="node13" class="node">
<title>Node13</title>
<g id="a_node13"><a xlink:href="sparse_8hpp.html" target="_top" xlink:title=" ">
<polygon fill="none" stroke="black" points="600,-0.5 600,-30.5 737,-30.5 737,-0.5 600,-0.5"/>
<text text-anchor="start" x="608" y="-18.5" font-family="Helvetica,sans-Serif" font-size="10.00">include/proxsuite/proxqp</text>
<text text-anchor="middle" x="668.5" y="-7.5" font-family="Helvetica,sans-Serif" font-size="10.00">/sparse/sparse.hpp</text>
</a>
</g>
</g>
<!-- Node12&#45;&gt;Node13 -->
<g id="edge21" class="edge">
<title>Node12&#45;&gt;Node13</title>
<path fill="none" stroke="midnightblue" d="M668.5,-57.11C668.5,-48.15 668.5,-38.32 668.5,-30.58"/>
<polygon fill="midnightblue" stroke="midnightblue" points="665,-57.4 668.5,-67.4 672,-57.4 665,-57.4"/>
</g>
<!-- Node14&#45;&gt;Node11 -->
<g id="edge23" class="edge">
<title>Node14&#45;&gt;Node11</title>
<path fill="none" stroke="midnightblue" d="M1143.87,-258.3C1140.91,-241.77 1135.97,-219.58 1128.5,-201 1123.32,-188.13 1115.18,-174.69 1108.68,-164.9"/>
<polygon fill="midnightblue" stroke="midnightblue" points="1140.43,-258.97 1145.54,-268.26 1147.34,-257.82 1140.43,-258.97"/>
</g>
<!-- Node14&#45;&gt;Node15 -->
<g id="edge24" class="edge">
<title>Node14&#45;&gt;Node15</title>
<path fill="none" stroke="midnightblue" d="M1118,-262.73C1102.99,-252.68 1085.1,-240.68 1071.51,-231.58"/>
<polygon fill="midnightblue" stroke="midnightblue" points="1116.2,-265.74 1126.45,-268.4 1120.09,-259.92 1116.2,-265.74"/>
</g>
<!-- Node15&#45;&gt;Node11 -->
<g id="edge25" class="edge">
<title>Node15&#45;&gt;Node11</title>
<path fill="none" stroke="midnightblue" d="M1067,-193.16C1074,-183.68 1081.94,-172.92 1088.11,-164.58"/>
<polygon fill="midnightblue" stroke="midnightblue" points="1064.04,-191.27 1060.92,-201.4 1069.67,-195.43 1064.04,-191.27"/>
</g>
<!-- Node16&#45;&gt;Node11 -->
<g id="edge27" class="edge">
<title>Node16&#45;&gt;Node11</title>
<path fill="none" stroke="midnightblue" d="M983.03,-331.72C967.67,-299.49 946.67,-240.77 973.5,-201 986.46,-181.79 1008.09,-169.89 1029.74,-162.51"/>
<polygon fill="midnightblue" stroke="midnightblue" points="979.97,-333.43 987.56,-340.82 986.24,-330.31 979.97,-333.43"/>
</g>
<!-- Node16&#45;&gt;Node14 -->
<g id="edge28" class="edge">
<title>Node16&#45;&gt;Node14</title>
<path fill="none" stroke="midnightblue" d="M1034.98,-336.69C1060.63,-324.79 1093.56,-309.52 1117.16,-298.57"/>
<polygon fill="midnightblue" stroke="midnightblue" points="1033.49,-333.52 1025.89,-340.9 1036.44,-339.87 1033.49,-333.52"/>
</g>
<!-- Node16&#45;&gt;Node15 -->
<g id="edge29" class="edge">
<title>Node16&#45;&gt;Node15</title>
<path fill="none" stroke="midnightblue" d="M1005.03,-331.16C1016.49,-302.52 1035.35,-255.38 1044.77,-231.83"/>
<polygon fill="midnightblue" stroke="midnightblue" points="1001.64,-330.22 1001.18,-340.8 1008.14,-332.82 1001.64,-330.22"/>
</g>
<!-- Node17&#45;&gt;Node10 -->
<g id="edge42" class="edge">
<title>Node17&#45;&gt;Node10</title>
<path fill="none" stroke="midnightblue" d="M814.76,-537.39C811.64,-509.9 806.64,-465.89 804.09,-443.52"/>
<polygon fill="midnightblue" stroke="midnightblue" points="811.29,-537.83 815.89,-547.37 818.24,-537.04 811.29,-537.83"/>
</g>
<!-- Node17&#45;&gt;Node11 -->
<g id="edge58" class="edge">
<title>Node17&#45;&gt;Node11</title>
<path fill="none" stroke="midnightblue" d="M896.14,-556.87C1099.41,-543.85 1626.5,-503.02 1626.5,-429.5 1626.5,-429.5 1626.5,-429.5 1626.5,-282.5 1626.5,-188.9 1310.25,-161.12 1167.26,-153.34"/>
<polygon fill="midnightblue" stroke="midnightblue" points="895.88,-553.38 886.13,-557.5 896.33,-560.36 895.88,-553.38"/>
</g>
<!-- Node18 -->
<g id="node18" class="node">
<title>Node18</title>
<g id="a_node18"><a xlink:href="results_8hpp.html" target="_top" xlink:title=" ">
<polygon fill="none" stroke="black" points="484,-413.5 484,-443.5 621,-443.5 621,-413.5 484,-413.5"/>
<text text-anchor="start" x="492" y="-431.5" font-family="Helvetica,sans-Serif" font-size="10.00">include/proxsuite/proxqp</text>
<text text-anchor="middle" x="552.5" y="-420.5" font-family="Helvetica,sans-Serif" font-size="10.00">/results.hpp</text>
</a>
</g>
</g>
<!-- Node17&#45;&gt;Node18 -->
<g id="edge33" class="edge">
<title>Node17&#45;&gt;Node18</title>
<path fill="none" stroke="midnightblue" d="M799.83,-539.3C784.03,-520.88 759.29,-495.3 732.5,-480 698.4,-460.52 656.32,-448.17 621.43,-440.57"/>
<polygon fill="midnightblue" stroke="midnightblue" points="797.33,-541.78 806.43,-547.2 802.7,-537.29 797.33,-541.78"/>
</g>
<!-- Node19 -->
<g id="node19" class="node">
<title>Node19</title>
<g id="a_node19"><a xlink:href="sparse_2helpers_8hpp.html" target="_top" xlink:title=" ">
<polygon fill="none" stroke="black" points="0,-268.5 0,-298.5 137,-298.5 137,-268.5 0,-268.5"/>
<text text-anchor="start" x="8" y="-286.5" font-family="Helvetica,sans-Serif" font-size="10.00">include/proxsuite/proxqp</text>
<text text-anchor="middle" x="68.5" y="-275.5" font-family="Helvetica,sans-Serif" font-size="10.00">/sparse/helpers.hpp</text>
</a>
</g>
</g>
<!-- Node17&#45;&gt;Node19 -->
<g id="edge43" class="edge">
<title>Node17&#45;&gt;Node19</title>
<path fill="none" stroke="midnightblue" d="M738.67,-553.63C592.11,-537.88 284.29,-499.18 193.5,-444 133.37,-407.46 90.9,-330.66 75.2,-298.81"/>
<polygon fill="midnightblue" stroke="midnightblue" points="738.63,-557.15 748.94,-554.73 739.37,-550.19 738.63,-557.15"/>
</g>
<!-- Node20 -->
<g id="node20" class="node">
<title>Node20</title>
<g id="a_node20"><a xlink:href="sparse_2model_8hpp.html" target="_top" xlink:title=" ">
<polygon fill="none" stroke="black" points="986,-480.5 986,-510.5 1123,-510.5 1123,-480.5 986,-480.5"/>
<text text-anchor="start" x="994" y="-498.5" font-family="Helvetica,sans-Serif" font-size="10.00">include/proxsuite/proxqp</text>
<text text-anchor="middle" x="1054.5" y="-487.5" font-family="Helvetica,sans-Serif" font-size="10.00">/sparse/model.hpp</text>
</a>
</g>
</g>
<!-- Node17&#45;&gt;Node20 -->
<g id="edge45" class="edge">
<title>Node17&#45;&gt;Node20</title>
<path fill="none" stroke="midnightblue" d="M878.7,-544.71C917.27,-534.14 966.5,-520.63 1003.05,-510.61"/>
<polygon fill="midnightblue" stroke="midnightblue" points="877.35,-541.46 868.63,-547.48 879.2,-548.21 877.35,-541.46"/>
</g>
<!-- Node23 -->
<g id="node23" class="node">
<title>Node23</title>
<g id="a_node23"><a xlink:href="sparse_2preconditioner_2ruiz_8hpp.html" target="_top" xlink:title=" ">
<polygon fill="none" stroke="black" points="1423,-335.5 1423,-376.5 1560,-376.5 1560,-335.5 1423,-335.5"/>
<text text-anchor="start" x="1431" y="-364.5" font-family="Helvetica,sans-Serif" font-size="10.00">include/proxsuite/proxqp</text>
<text text-anchor="start" x="1431" y="-353.5" font-family="Helvetica,sans-Serif" font-size="10.00">/sparse/preconditioner</text>
<text text-anchor="middle" x="1491.5" y="-342.5" font-family="Helvetica,sans-Serif" font-size="10.00">/ruiz.hpp</text>
</a>
</g>
</g>
<!-- Node17&#45;&gt;Node23 -->
<g id="edge55" class="edge">
<title>Node17&#45;&gt;Node23</title>
<path fill="none" stroke="midnightblue" d="M896.25,-554.31C960.69,-547.15 1053.73,-533.83 1132.5,-511 1254.63,-475.6 1390.44,-409.44 1454.38,-376.57"/>
<polygon fill="midnightblue" stroke="midnightblue" points="895.72,-550.85 886.16,-555.41 896.48,-557.81 895.72,-550.85"/>
</g>
<!-- Node24 -->
<g id="node24" class="node">
<title>Node24</title>
<g id="a_node24"><a xlink:href="status_8hpp.html" target="_top" xlink:title=" ">
<polygon fill="none" stroke="black" points="586,-480.5 586,-510.5 723,-510.5 723,-480.5 586,-480.5"/>
<text text-anchor="start" x="594" y="-498.5" font-family="Helvetica,sans-Serif" font-size="10.00">include/proxsuite/proxqp</text>
<text text-anchor="middle" x="654.5" y="-487.5" font-family="Helvetica,sans-Serif" font-size="10.00">/status.hpp</text>
</a>
</g>
</g>
<!-- Node17&#45;&gt;Node24 -->
<g id="edge59" class="edge">
<title>Node17&#45;&gt;Node24</title>
<path fill="none" stroke="midnightblue" d="M772.82,-543.68C746.67,-533.26 714.13,-520.28 689.8,-510.58"/>
<polygon fill="midnightblue" stroke="midnightblue" points="771.55,-546.94 782.13,-547.4 774.14,-540.44 771.55,-546.94"/>
</g>
<!-- Node18&#45;&gt;Node2 -->
<g id="edge35" class="edge">
<title>Node18&#45;&gt;Node2</title>
<path fill="none" stroke="midnightblue" d="M596.67,-409.5C625.97,-397.56 663.87,-382.11 690.97,-371.07"/>
<polygon fill="midnightblue" stroke="midnightblue" points="595.03,-406.39 587.09,-413.4 597.67,-412.87 595.03,-406.39"/>
</g>
<!-- Node18&#45;&gt;Node8 -->
<g id="edge34" class="edge">
<title>Node18&#45;&gt;Node8</title>
<path fill="none" stroke="midnightblue" d="M482.16,-411.06C440.85,-401.33 387.66,-388.66 340.5,-377 332.9,-375.12 324.89,-373.11 317.02,-371.11"/>
<polygon fill="midnightblue" stroke="midnightblue" points="481.59,-414.52 492.12,-413.41 483.19,-407.71 481.59,-414.52"/>
</g>
<!-- Node18&#45;&gt;Node9 -->
<g id="edge36" class="edge">
<title>Node18&#45;&gt;Node9</title>
<path fill="none" stroke="midnightblue" d="M516.53,-408.72C493.88,-396.89 465.13,-381.87 444.45,-371.07"/>
<polygon fill="midnightblue" stroke="midnightblue" points="515.02,-411.88 525.51,-413.4 518.26,-405.67 515.02,-411.88"/>
</g>
<!-- Node18&#45;&gt;Node11 -->
<g id="edge37" class="edge">
<title>Node18&#45;&gt;Node11</title>
<path fill="none" stroke="midnightblue" d="M550.11,-403.1C549.47,-382.69 551.89,-353.94 567.5,-335 683.9,-193.8 914.64,-160.46 1029.79,-152.73"/>
<polygon fill="midnightblue" stroke="midnightblue" points="546.62,-403.41 550.7,-413.19 553.61,-403.01 546.62,-403.41"/>
</g>
<!-- Node18&#45;&gt;Node12 -->
<g id="edge41" class="edge">
<title>Node18&#45;&gt;Node12</title>
<path fill="none" stroke="midnightblue" d="M542.18,-403.89C530.93,-375.94 514.5,-327.74 514.5,-284.5 514.5,-284.5 514.5,-284.5 514.5,-215.5 514.5,-155.28 583.21,-116.62 628.84,-97.58"/>
<polygon fill="midnightblue" stroke="midnightblue" points="538.99,-405.32 546.05,-413.22 545.45,-402.64 538.99,-405.32"/>
</g>
<!-- Node18&#45;&gt;Node14 -->
<g id="edge38" class="edge">
<title>Node18&#45;&gt;Node14</title>
<path fill="none" stroke="midnightblue" d="M574.67,-405.97C602.66,-378.81 647.35,-335.53 648.5,-335 667.73,-326.09 946.49,-301.51 1078.78,-290.26"/>
<polygon fill="midnightblue" stroke="midnightblue" points="572,-403.68 567.26,-413.16 576.88,-408.7 572,-403.68"/>
</g>
<!-- Node18&#45;&gt;Node15 -->
<g id="edge40" class="edge">
<title>Node18&#45;&gt;Node15</title>
<path fill="none" stroke="midnightblue" d="M559.89,-403.69C567.67,-382.57 581.95,-352.43 604.5,-335 716.78,-248.19 887.39,-225.26 981.73,-219.37"/>
<polygon fill="midnightblue" stroke="midnightblue" points="556.55,-402.65 556.59,-413.25 563.17,-404.94 556.55,-402.65"/>
</g>
<!-- Node18&#45;&gt;Node16 -->
<g id="edge39" class="edge">
<title>Node18&#45;&gt;Node16</title>
<path fill="none" stroke="midnightblue" d="M631.24,-414.97C715.27,-401.6 847.07,-380.62 926.97,-367.91"/>
<polygon fill="midnightblue" stroke="midnightblue" points="630.56,-411.53 621.23,-416.56 631.66,-418.45 630.56,-411.53"/>
</g>
<!-- Node19&#45;&gt;Node12 -->
<g id="edge44" class="edge">
<title>Node19&#45;&gt;Node12</title>
<path fill="none" stroke="midnightblue" d="M75.7,-258.84C87.41,-224.8 114.09,-162.94 160.5,-134 232.13,-89.33 478.46,-83.18 599.82,-82.95"/>
<polygon fill="midnightblue" stroke="midnightblue" points="72.34,-257.85 72.54,-268.44 78.99,-260.04 72.34,-257.85"/>
</g>
<!-- Node20&#45;&gt;Node11 -->
<g id="edge50" class="edge">
<title>Node20&#45;&gt;Node11</title>
<path fill="none" stroke="midnightblue" d="M1087.82,-474.77C1100.71,-466.24 1115.08,-455.56 1126.5,-444 1181.33,-388.48 1202.47,-373.56 1225.5,-299 1244.02,-239.04 1169.45,-188.19 1126.66,-164.59"/>
<polygon fill="midnightblue" stroke="midnightblue" points="1085.71,-471.97 1079.18,-480.32 1089.49,-477.86 1085.71,-471.97"/>
</g>
<!-- Node20&#45;&gt;Node14 -->
<g id="edge51" class="edge">
<title>Node20&#45;&gt;Node14</title>
<path fill="none" stroke="midnightblue" d="M1081.5,-473.55C1090.62,-465.24 1100.1,-455.03 1106.5,-444 1134.63,-395.53 1143.72,-327.78 1146.43,-298.69"/>
<polygon fill="midnightblue" stroke="midnightblue" points="1078.93,-471.14 1073.67,-480.34 1083.52,-476.43 1078.93,-471.14"/>
</g>
<!-- Node20&#45;&gt;Node15 -->
<g id="edge53" class="edge">
<title>Node20&#45;&gt;Node15</title>
<path fill="none" stroke="midnightblue" d="M1060.6,-470.51C1067.78,-439.33 1078.17,-383.17 1073.5,-335 1069.85,-297.35 1059.76,-253.84 1054.24,-231.84"/>
<polygon fill="midnightblue" stroke="midnightblue" points="1057.14,-469.9 1058.22,-480.44 1063.95,-471.53 1057.14,-469.9"/>
</g>
<!-- Node20&#45;&gt;Node16 -->
<g id="edge52" class="edge">
<title>Node20&#45;&gt;Node16</title>
<path fill="none" stroke="midnightblue" d="M1051.41,-470.39C1048.68,-453.73 1043.8,-431.35 1035.5,-413 1028.51,-397.54 1016.97,-382 1008.07,-371.23"/>
<polygon fill="midnightblue" stroke="midnightblue" points="1047.97,-471.04 1052.91,-480.41 1054.89,-470 1047.97,-471.04"/>
</g>
<!-- Node21 -->
<g id="node21" class="node">
<title>Node21</title>
<g id="a_node21"><a xlink:href="dense_2model_8hpp.html" target="_top" xlink:title=" ">
<polygon fill="none" stroke="black" points="889,-413.5 889,-443.5 1026,-443.5 1026,-413.5 889,-413.5"/>
<text text-anchor="start" x="897" y="-431.5" font-family="Helvetica,sans-Serif" font-size="10.00">include/proxsuite/proxqp</text>
<text text-anchor="middle" x="957.5" y="-420.5" font-family="Helvetica,sans-Serif" font-size="10.00">/dense/model.hpp</text>
</a>
</g>
</g>
<!-- Node20&#45;&gt;Node21 -->
<g id="edge46" class="edge">
<title>Node20&#45;&gt;Node21</title>
<path fill="none" stroke="midnightblue" d="M1025,-474.73C1009.99,-464.68 992.1,-452.68 978.51,-443.58"/>
<polygon fill="midnightblue" stroke="midnightblue" points="1023.2,-477.74 1033.45,-480.4 1027.09,-471.92 1023.2,-477.74"/>
</g>
<!-- Node20&#45;&gt;Node22 -->
<g id="edge54" class="edge">
<title>Node20&#45;&gt;Node22</title>
<path fill="none" stroke="midnightblue" d="M1133.32,-477.89C1161.87,-470 1193.66,-458.95 1220.5,-444 1255.88,-424.29 1289.66,-390.25 1307.14,-371.11"/>
<polygon fill="midnightblue" stroke="midnightblue" points="1132.13,-474.58 1123.37,-480.55 1133.93,-481.35 1132.13,-474.58"/>
</g>
<!-- Node21&#45;&gt;Node2 -->
<g id="edge47" class="edge">
<title>Node21&#45;&gt;Node2</title>
<path fill="none" stroke="midnightblue" d="M901.6,-410.51C861.92,-398.46 809.28,-382.46 771.92,-371.11"/>
<polygon fill="midnightblue" stroke="midnightblue" points="900.8,-413.93 911.39,-413.49 902.84,-407.23 900.8,-413.93"/>
</g>
<!-- Node21&#45;&gt;Node9 -->
<g id="edge48" class="edge">
<title>Node21&#45;&gt;Node9</title>
<path fill="none" stroke="midnightblue" d="M878.72,-412.78C733.73,-390.65 574.9,-373.09 486.33,-363.9"/>
<polygon fill="midnightblue" stroke="midnightblue" points="878.28,-416.25 888.69,-414.31 879.34,-409.33 878.28,-416.25"/>
</g>
<!-- Node21&#45;&gt;Node22 -->
<g id="edge49" class="edge">
<title>Node21&#45;&gt;Node22</title>
<path fill="none" stroke="midnightblue" d="M1035.89,-412.23C1098.8,-399.98 1186.41,-382.92 1247.55,-371.01"/>
<polygon fill="midnightblue" stroke="midnightblue" points="1035.16,-408.81 1026.02,-414.16 1036.5,-415.68 1035.16,-408.81"/>
</g>
<!-- Node23&#45;&gt;Node11 -->
<g id="edge56" class="edge">
<title>Node23&#45;&gt;Node11</title>
<path fill="none" stroke="midnightblue" d="M1459.09,-329.32C1415.61,-295.9 1334.98,-237.46 1258.5,-201 1225.9,-185.46 1187.34,-173.12 1156.24,-164.54"/>
<polygon fill="midnightblue" stroke="midnightblue" points="1456.97,-332.11 1467.02,-335.46 1461.26,-326.57 1456.97,-332.11"/>
</g>
<!-- Node23&#45;&gt;Node14 -->
<g id="edge57" class="edge">
<title>Node23&#45;&gt;Node14</title>
<path fill="none" stroke="midnightblue" d="M1412.87,-334.92C1340.19,-318.9 1267.63,-305.43 1216.08,-296.29"/>
<polygon fill="midnightblue" stroke="midnightblue" points="1412.13,-338.34 1422.65,-337.09 1413.65,-331.51 1412.13,-338.34"/>
</g>
<!-- Node24&#45;&gt;Node8 -->
<g id="edge60" class="edge">
<title>Node24&#45;&gt;Node8</title>
<path fill="none" stroke="midnightblue" d="M588.53,-477.8C554.49,-468.7 512.46,-456.72 475.5,-444 409.78,-421.39 335,-389.32 293.83,-371.1"/>
<polygon fill="midnightblue" stroke="midnightblue" points="587.8,-481.22 598.36,-480.4 589.6,-474.46 587.8,-481.22"/>
</g>
<!-- Node24&#45;&gt;Node10 -->
<g id="edge62" class="edge">
<title>Node24&#45;&gt;Node10</title>
<path fill="none" stroke="midnightblue" d="M696.01,-476.27C719.58,-465.92 748.64,-453.15 770.45,-443.58"/>
<polygon fill="midnightblue" stroke="midnightblue" points="694.36,-473.17 686.61,-480.4 697.18,-479.58 694.36,-473.17"/>
</g>
<!-- Node24&#45;&gt;Node18 -->
<g id="edge61" class="edge">
<title>Node24&#45;&gt;Node18</title>
<path fill="none" stroke="midnightblue" d="M623.92,-475.02C608.05,-464.9 589.02,-452.77 574.59,-443.58"/>
<polygon fill="midnightblue" stroke="midnightblue" points="622.05,-477.97 632.37,-480.4 625.82,-472.07 622.05,-477.97"/>
</g>
</g>
</svg>
