<?xml version="1.0" encoding="UTF-8" standalone="no"?>
<!DOCTYPE svg PUBLIC "-//W3C//DTD SVG 1.1//EN"
 "http://www.w3.org/Graphics/SVG/1.1/DTD/svg11.dtd">
<!-- Generated by graphviz version 5.0.1 (20220821.0811)
 -->
<!-- Title: include/proxsuite/proxqp/dense/fwd.hpp Pages: 1 -->
<svg width="657pt" height="374pt"
 viewBox="0.00 0.00 657.29 374.00" xmlns="http://www.w3.org/2000/svg" xmlns:xlink="http://www.w3.org/1999/xlink">
<g id="graph0" class="graph" transform="scale(1 1) rotate(0) translate(4 370)">
<title>include/proxsuite/proxqp/dense/fwd.hpp</title>
<!-- Node1 -->
<g id="node1" class="node">
<title>Node1</title>
<g id="a_node1"><a xlink:title=" ">
<polygon fill="#bfbfbf" stroke="black" points="123.79,-335.5 123.79,-365.5 260.79,-365.5 260.79,-335.5 123.79,-335.5"/>
<text text-anchor="start" x="131.79" y="-353.5" font-family="Helvetica,sans-Serif" font-size="10.00">include/proxsuite/proxqp</text>
<text text-anchor="middle" x="192.29" y="-342.5" font-family="Helvetica,sans-Serif" font-size="10.00">/dense/fwd.hpp</text>
</a>
</g>
</g>
<!-- Node2 -->
<g id="node2" class="node">
<title>Node2</title>
<g id="a_node2"><a xlink:href="dense_2helpers_8hpp.html" target="_top" xlink:title=" ">
<polygon fill="none" stroke="black" points="13.79,-201.5 13.79,-231.5 150.79,-231.5 150.79,-201.5 13.79,-201.5"/>
<text text-anchor="start" x="21.79" y="-219.5" font-family="Helvetica,sans-Serif" font-size="10.00">include/proxsuite/proxqp</text>
<text text-anchor="middle" x="82.29" y="-208.5" font-family="Helvetica,sans-Serif" font-size="10.00">/dense/helpers.hpp</text>
</a>
</g>
</g>
<!-- Node1&#45;&gt;Node2 -->
<g id="edge1" class="edge">
<title>Node1&#45;&gt;Node2</title>
<path fill="none" stroke="midnightblue" d="M191.75,-325.37C190.23,-307.88 185.75,-284.52 173.29,-268 160.88,-251.56 141.47,-239.75 123.77,-231.7"/>
<polygon fill="midnightblue" stroke="midnightblue" points="188.26,-325.61 192.35,-335.38 195.24,-325.18 188.26,-325.61"/>
</g>
<!-- Node6 -->
<g id="node6" class="node">
<title>Node6</title>
<g id="a_node6"><a xlink:href="dense_2model_8hpp.html" target="_top" xlink:title=" ">
<polygon fill="none" stroke="black" points="271.79,-268.5 271.79,-298.5 408.79,-298.5 408.79,-268.5 271.79,-268.5"/>
<text text-anchor="start" x="279.79" y="-286.5" font-family="Helvetica,sans-Serif" font-size="10.00">include/proxsuite/proxqp</text>
<text text-anchor="middle" x="340.29" y="-275.5" font-family="Helvetica,sans-Serif" font-size="10.00">/dense/model.hpp</text>
</a>
</g>
</g>
<!-- Node1&#45;&gt;Node6 -->
<g id="edge6" class="edge">
<title>Node1&#45;&gt;Node6</title>
<path fill="none" stroke="midnightblue" d="M233.8,-331.27C257.37,-320.92 286.43,-308.15 308.24,-298.58"/>
<polygon fill="midnightblue" stroke="midnightblue" points="232.15,-328.17 224.4,-335.4 234.96,-334.58 232.15,-328.17"/>
</g>
<!-- Node10 -->
<g id="node10" class="node">
<title>Node10</title>
<g id="a_node10"><a xlink:href="dense_2preconditioner_2ruiz_8hpp.html" target="_top" xlink:title=" ">
<polygon fill="none" stroke="black" points="0.29,-268.5 0.29,-298.5 164.29,-298.5 164.29,-268.5 0.29,-268.5"/>
<text text-anchor="start" x="8.29" y="-286.5" font-family="Helvetica,sans-Serif" font-size="10.00">include/proxsuite/proxqp</text>
<text text-anchor="middle" x="82.29" y="-275.5" font-family="Helvetica,sans-Serif" font-size="10.00">/dense/preconditioner/ruiz.hpp</text>
</a>
</g>
</g>
<!-- Node1&#45;&gt;Node10 -->
<g id="edge12" class="edge">
<title>Node1&#45;&gt;Node10</title>
<path fill="none" stroke="midnightblue" d="M159.79,-330.3C142.57,-320.12 121.81,-307.85 106.11,-298.58"/>
<polygon fill="midnightblue" stroke="midnightblue" points="158.03,-333.32 168.42,-335.4 161.59,-327.3 158.03,-333.32"/>
</g>
<!-- Node3 -->
<g id="node3" class="node">
<title>Node3</title>
<g id="a_node3"><a xlink:href="dense_2solver_8hpp.html" target="_top" xlink:title=" ">
<polygon fill="none" stroke="black" points="139.79,-134.5 139.79,-164.5 276.79,-164.5 276.79,-134.5 139.79,-134.5"/>
<text text-anchor="start" x="147.79" y="-152.5" font-family="Helvetica,sans-Serif" font-size="10.00">include/proxsuite/proxqp</text>
<text text-anchor="middle" x="208.29" y="-141.5" font-family="Helvetica,sans-Serif" font-size="10.00">/dense/solver.hpp</text>
</a>
</g>
</g>
<!-- Node2&#45;&gt;Node3 -->
<g id="edge2" class="edge">
<title>Node2&#45;&gt;Node3</title>
<path fill="none" stroke="midnightblue" d="M118.7,-196.71C138.57,-186.46 162.77,-173.98 181,-164.58"/>
<polygon fill="midnightblue" stroke="midnightblue" points="116.91,-193.7 109.63,-201.4 120.12,-199.92 116.91,-193.7"/>
</g>
<!-- Node4 -->
<g id="node4" class="node">
<title>Node4</title>
<g id="a_node4"><a xlink:href="dense_2wrapper_8hpp.html" target="_top" xlink:title=" ">
<polygon fill="none" stroke="black" points="13.79,-67.5 13.79,-97.5 150.79,-97.5 150.79,-67.5 13.79,-67.5"/>
<text text-anchor="start" x="21.79" y="-85.5" font-family="Helvetica,sans-Serif" font-size="10.00">include/proxsuite/proxqp</text>
<text text-anchor="middle" x="82.29" y="-74.5" font-family="Helvetica,sans-Serif" font-size="10.00">/dense/wrapper.hpp</text>
</a>
</g>
</g>
<!-- Node2&#45;&gt;Node4 -->
<g id="edge5" class="edge">
<title>Node2&#45;&gt;Node4</title>
<path fill="none" stroke="midnightblue" d="M82.29,-191.02C82.29,-163.51 82.29,-119.79 82.29,-97.52"/>
<polygon fill="midnightblue" stroke="midnightblue" points="78.79,-191.37 82.29,-201.37 85.79,-191.37 78.79,-191.37"/>
</g>
<!-- Node3&#45;&gt;Node4 -->
<g id="edge3" class="edge">
<title>Node3&#45;&gt;Node4</title>
<path fill="none" stroke="midnightblue" d="M171.87,-129.71C152,-119.46 127.81,-106.98 109.57,-97.58"/>
<polygon fill="midnightblue" stroke="midnightblue" points="170.45,-132.92 180.95,-134.4 173.66,-126.7 170.45,-132.92"/>
</g>
<!-- Node5 -->
<g id="node5" class="node">
<title>Node5</title>
<g id="a_node5"><a xlink:href="dense_8hpp.html" target="_top" xlink:title=" ">
<polygon fill="none" stroke="black" points="13.79,-0.5 13.79,-30.5 150.79,-30.5 150.79,-0.5 13.79,-0.5"/>
<text text-anchor="start" x="21.79" y="-18.5" font-family="Helvetica,sans-Serif" font-size="10.00">include/proxsuite/proxqp</text>
<text text-anchor="middle" x="82.29" y="-7.5" font-family="Helvetica,sans-Serif" font-size="10.00">/dense/dense.hpp</text>
</a>
</g>
</g>
<!-- Node4&#45;&gt;Node5 -->
<g id="edge4" class="edge">
<title>Node4&#45;&gt;Node5</title>
<path fill="none" stroke="midnightblue" d="M82.29,-57.11C82.29,-48.15 82.29,-38.32 82.29,-30.58"/>
<polygon fill="midnightblue" stroke="midnightblue" points="78.79,-57.4 82.29,-67.4 85.79,-57.4 78.79,-57.4"/>
</g>
<!-- Node7 -->
<g id="node7" class="node">
<title>Node7</title>
<g id="a_node7"><a xlink:href="linesearch_8hpp.html" target="_top" xlink:title=" ">
<polygon fill="none" stroke="black" points="323.79,-201.5 323.79,-231.5 460.79,-231.5 460.79,-201.5 323.79,-201.5"/>
<text text-anchor="start" x="331.79" y="-219.5" font-family="Helvetica,sans-Serif" font-size="10.00">include/proxsuite/proxqp</text>
<text text-anchor="middle" x="392.29" y="-208.5" font-family="Helvetica,sans-Serif" font-size="10.00">/dense/linesearch.hpp</text>
</a>
</g>
</g>
<!-- Node6&#45;&gt;Node7 -->
<g id="edge7" class="edge">
<title>Node6&#45;&gt;Node7</title>
<path fill="none" stroke="midnightblue" d="M357.93,-260.45C365.57,-250.9 374.28,-240 381.02,-231.58"/>
<polygon fill="midnightblue" stroke="midnightblue" points="355.08,-258.4 351.57,-268.4 360.55,-262.77 355.08,-258.4"/>
</g>
<!-- Node8 -->
<g id="node8" class="node">
<title>Node8</title>
<g id="a_node8"><a xlink:href="dense_2utils_8hpp.html" target="_top" xlink:title=" ">
<polygon fill="none" stroke="black" points="168.79,-201.5 168.79,-231.5 305.79,-231.5 305.79,-201.5 168.79,-201.5"/>
<text text-anchor="start" x="176.79" y="-219.5" font-family="Helvetica,sans-Serif" font-size="10.00">include/proxsuite/proxqp</text>
<text text-anchor="middle" x="237.29" y="-208.5" font-family="Helvetica,sans-Serif" font-size="10.00">/dense/utils.hpp</text>
</a>
</g>
</g>
<!-- Node6&#45;&gt;Node8 -->
<g id="edge9" class="edge">
<title>Node6&#45;&gt;Node8</title>
<path fill="none" stroke="midnightblue" d="M309.41,-263.02C293.38,-252.9 274.16,-240.77 259.59,-231.58"/>
<polygon fill="midnightblue" stroke="midnightblue" points="307.61,-266.02 317.94,-268.4 311.35,-260.1 307.61,-266.02"/>
</g>
<!-- Node9 -->
<g id="node9" class="node">
<title>Node9</title>
<g id="a_node9"><a xlink:href="random__qp__problems_8hpp.html" target="_top" xlink:title=" ">
<polygon fill="none" stroke="black" points="479.29,-201.5 479.29,-231.5 649.29,-231.5 649.29,-201.5 479.29,-201.5"/>
<text text-anchor="start" x="487.29" y="-219.5" font-family="Helvetica,sans-Serif" font-size="10.00">include/proxsuite/proxqp</text>
<text text-anchor="middle" x="564.29" y="-208.5" font-family="Helvetica,sans-Serif" font-size="10.00">/utils/random_qp_problems.hpp</text>
</a>
</g>
</g>
<!-- Node6&#45;&gt;Node9 -->
<g id="edge11" class="edge">
<title>Node6&#45;&gt;Node9</title>
<path fill="none" stroke="midnightblue" d="M398.6,-265.58C434.98,-255.02 481.26,-241.59 515.66,-231.61"/>
<polygon fill="midnightblue" stroke="midnightblue" points="397.24,-262.33 388.62,-268.48 399.19,-269.05 397.24,-262.33"/>
</g>
<!-- Node7&#45;&gt;Node3 -->
<g id="edge8" class="edge">
<title>Node7&#45;&gt;Node3</title>
<path fill="none" stroke="midnightblue" d="M342.62,-197.96C312.98,-187.48 275.84,-174.37 248.13,-164.58"/>
<polygon fill="midnightblue" stroke="midnightblue" points="341.77,-201.37 352.36,-201.4 344.1,-194.76 341.77,-201.37"/>
</g>
<!-- Node8&#45;&gt;Node3 -->
<g id="edge10" class="edge">
<title>Node8&#45;&gt;Node3</title>
<path fill="none" stroke="midnightblue" d="M226.8,-191.99C222.7,-182.8 218.14,-172.58 214.57,-164.58"/>
<polygon fill="midnightblue" stroke="midnightblue" points="223.72,-193.69 230.99,-201.4 230.12,-190.84 223.72,-193.69"/>
</g>
<!-- Node10&#45;&gt;Node2 -->
<g id="edge13" class="edge">
<title>Node10&#45;&gt;Node2</title>
<path fill="none" stroke="midnightblue" d="M82.29,-258.11C82.29,-249.15 82.29,-239.32 82.29,-231.58"/>
<polygon fill="midnightblue" stroke="midnightblue" points="78.79,-258.4 82.29,-268.4 85.79,-258.4 78.79,-258.4"/>
</g>
<!-- Node10&#45;&gt;Node4 -->
<g id="edge15" class="edge">
<title>Node10&#45;&gt;Node4</title>
<path fill="none" stroke="midnightblue" d="M36.92,-263.49C24.04,-255.72 11.55,-245.36 4.29,-232 -2.3,-219.9 0.31,-214.19 4.29,-201 16.95,-159.04 50.04,-118.31 68.8,-97.61"/>
<polygon fill="midnightblue" stroke="midnightblue" points="35.4,-266.65 45.84,-268.46 38.81,-260.54 35.4,-266.65"/>
</g>
<!-- Node10&#45;&gt;Node8 -->
<g id="edge14" class="edge">
<title>Node10&#45;&gt;Node8</title>
<path fill="none" stroke="midnightblue" d="M125.43,-264.41C150.18,-254.03 180.78,-241.2 203.72,-231.58"/>
<polygon fill="midnightblue" stroke="midnightblue" points="123.79,-261.3 115.92,-268.4 126.49,-267.76 123.79,-261.3"/>
</g>
</g>
</svg>
