<?xml version="1.0" encoding="UTF-8" standalone="no"?>
<!DOCTYPE svg PUBLIC "-//W3C//DTD SVG 1.1//EN"
 "http://www.w3.org/Graphics/SVG/1.1/DTD/svg11.dtd">
<!-- Generated by graphviz version 8.0.4 (20230426.1303)
 -->
<!-- Title: include/proxsuite/proxqp/dense/views.hpp Pages: 1 -->
<svg width="1076pt" height="654pt"
 viewBox="0.00 0.00 1076.37 654.25" xmlns="http://www.w3.org/2000/svg" xmlns:xlink="http://www.w3.org/1999/xlink">
<g id="graph0" class="graph" transform="scale(1 1) rotate(0) translate(4 650.25)">
<title>include/proxsuite/proxqp/dense/views.hpp</title>
<!-- Node1 -->
<g id="node1" class="node">
<title>Node1</title>
<g id="a_node1"><a xlink:title=" ">
<polygon fill="#999999" stroke="#666666" points="702.37,-646.25 565.62,-646.25 565.62,-612.75 702.37,-612.75 702.37,-646.25"/>
<text text-anchor="start" x="573.62" y="-632.75" font-family="Helvetica,sans-Serif" font-size="10.00">include/proxsuite/proxqp</text>
<text text-anchor="middle" x="633.99" y="-620" font-family="Helvetica,sans-Serif" font-size="10.00">/dense/views.hpp</text>
</a>
</g>
</g>
<!-- Node2 -->
<g id="node2" class="node">
<title>Node2</title>
<g id="a_node2"><a xlink:href="veg_2type__traits_2core_8hpp.html" target="_top" xlink:title=" ">
<polygon fill="white" stroke="#666666" points="611.24,-298.75 494.74,-298.75 494.74,-265.25 611.24,-265.25 611.24,-298.75"/>
<text text-anchor="start" x="502.74" y="-285.25" font-family="Helvetica,sans-Serif" font-size="10.00">proxsuite/linalg/veg</text>
<text text-anchor="middle" x="552.99" y="-272.5" font-family="Helvetica,sans-Serif" font-size="10.00">/type_traits/core.hpp</text>
</a>
</g>
</g>
<!-- Node1&#45;&gt;Node2 -->
<g id="edge1" class="edge">
<title>Node1&#45;&gt;Node2</title>
<path fill="none" stroke="#63b8ff" d="M644.72,-612.41C660.2,-587.58 686.99,-537.91 686.99,-491.5 686.99,-491.5 686.99,-491.5 686.99,-420 686.99,-367.02 635.15,-326.94 595.95,-304.22"/>
<polygon fill="#63b8ff" stroke="#63b8ff" points="598.24,-300.92 587.8,-299.09 594.82,-307.03 598.24,-300.92"/>
</g>
<!-- Node13 -->
<g id="node13" class="node">
<title>Node13</title>
<g id="a_node13"><a xlink:href="util_2dbg_8hpp.html" target="_top" xlink:title=" ">
<polygon fill="white" stroke="#666666" points="531.37,-576.75 418.62,-576.75 418.62,-543.25 531.37,-543.25 531.37,-576.75"/>
<text text-anchor="start" x="426.62" y="-563.25" font-family="Helvetica,sans-Serif" font-size="10.00">proxsuite/linalg/veg</text>
<text text-anchor="middle" x="474.99" y="-550.5" font-family="Helvetica,sans-Serif" font-size="10.00">/util/dbg.hpp</text>
</a>
</g>
</g>
<!-- Node1&#45;&gt;Node13 -->
<g id="edge18" class="edge">
<title>Node1&#45;&gt;Node13</title>
<path fill="none" stroke="#63b8ff" d="M595.91,-612.33C574.06,-603.06 546.42,-591.32 523.08,-581.42"/>
<polygon fill="#63b8ff" stroke="#63b8ff" points="524.61,-577.84 514.04,-577.15 521.88,-584.28 524.61,-577.84"/>
</g>
<!-- Node16 -->
<g id="node16" class="node">
<title>Node16</title>
<g id="a_node16"><a xlink:title=" ">
<polygon fill="#e0e0e0" stroke="#999999" points="158.24,-292.38 89.74,-292.38 89.74,-271.62 158.24,-271.62 158.24,-292.38"/>
<text text-anchor="middle" x="123.99" y="-278.88" font-family="Helvetica,sans-Serif" font-size="10.00">type_traits</text>
</a>
</g>
</g>
<!-- Node1&#45;&gt;Node16 -->
<g id="edge56" class="edge">
<title>Node1&#45;&gt;Node16</title>
<path fill="none" stroke="#63b8ff" d="M565.31,-625.38C420.27,-616.92 95.99,-587.28 95.99,-491.5 95.99,-491.5 95.99,-491.5 95.99,-420 95.99,-377.71 108.96,-329.53 117.24,-303.06"/>
<polygon fill="#63b8ff" stroke="#63b8ff" points="120.81,-304.42 120.56,-293.83 114.15,-302.26 120.81,-304.42"/>
</g>
<!-- Node26 -->
<g id="node26" class="node">
<title>Node26</title>
<g id="a_node26"><a xlink:title=" ">
<polygon fill="#e0e0e0" stroke="#999999" points="658.49,-431.38 609.49,-431.38 609.49,-410.62 658.49,-410.62 658.49,-431.38"/>
<text text-anchor="middle" x="633.99" y="-417.88" font-family="Helvetica,sans-Serif" font-size="10.00">cstring</text>
</a>
</g>
</g>
<!-- Node1&#45;&gt;Node26 -->
<g id="edge55" class="edge">
<title>Node1&#45;&gt;Node26</title>
<path fill="none" stroke="#63b8ff" d="M633.99,-612.3C633.99,-575.07 633.99,-483.51 633.99,-442.47"/>
<polygon fill="#63b8ff" stroke="#63b8ff" points="637.49,-442.48 633.99,-432.48 630.49,-442.48 637.49,-442.48"/>
</g>
<!-- Node28 -->
<g id="node28" class="node">
<title>Node28</title>
<g id="a_node28"><a xlink:title=" ">
<polygon fill="#e0e0e0" stroke="#999999" points="783.24,-570.38 714.74,-570.38 714.74,-549.62 783.24,-549.62 783.24,-570.38"/>
<text text-anchor="middle" x="748.99" y="-556.88" font-family="Helvetica,sans-Serif" font-size="10.00">Eigen/Core</text>
</a>
</g>
</g>
<!-- Node1&#45;&gt;Node28 -->
<g id="edge57" class="edge">
<title>Node1&#45;&gt;Node28</title>
<path fill="none" stroke="#63b8ff" d="M661.54,-612.33C680.15,-601.41 704.57,-587.07 722.88,-576.33"/>
<polygon fill="#63b8ff" stroke="#63b8ff" points="724.49,-578.85 731.34,-570.77 720.95,-572.81 724.49,-578.85"/>
</g>
<!-- Node3 -->
<g id="node3" class="node">
<title>Node3</title>
<g id="a_node3"><a xlink:href="typedefs_8hpp.html" target="_top" xlink:title=" ">
<polygon fill="white" stroke="#666666" points="422.62,-90.25 299.37,-90.25 299.37,-56.75 422.62,-56.75 422.62,-90.25"/>
<text text-anchor="start" x="307.37" y="-76.75" font-family="Helvetica,sans-Serif" font-size="10.00">proxsuite/linalg/veg</text>
<text text-anchor="middle" x="360.99" y="-64" font-family="Helvetica,sans-Serif" font-size="10.00">/internal/typedefs.hpp</text>
</a>
</g>
</g>
<!-- Node2&#45;&gt;Node3 -->
<g id="edge2" class="edge">
<title>Node2&#45;&gt;Node3</title>
<path fill="none" stroke="#63b8ff" d="M523.43,-264.77C508.04,-255.52 489.47,-243.03 474.99,-229.25 432.94,-189.21 395.39,-132.11 375.64,-99.64"/>
<polygon fill="#63b8ff" stroke="#63b8ff" points="378.25,-98.17 370.1,-91.4 372.24,-101.77 378.25,-98.17"/>
</g>
<!-- Node6 -->
<g id="node6" class="node">
<title>Node6</title>
<g id="a_node6"><a xlink:href="integer__seq_8hpp.html" target="_top" xlink:title=" ">
<polygon fill="white" stroke="#666666" points="621.74,-229.25 484.24,-229.25 484.24,-195.75 621.74,-195.75 621.74,-229.25"/>
<text text-anchor="start" x="492.24" y="-215.75" font-family="Helvetica,sans-Serif" font-size="10.00">proxsuite/linalg/veg</text>
<text text-anchor="middle" x="552.99" y="-203" font-family="Helvetica,sans-Serif" font-size="10.00">/internal/integer_seq.hpp</text>
</a>
</g>
</g>
<!-- Node2&#45;&gt;Node6 -->
<g id="edge5" class="edge">
<title>Node2&#45;&gt;Node6</title>
<path fill="none" stroke="#63b8ff" d="M552.99,-265C552.99,-257.61 552.99,-248.62 552.99,-240.23"/>
<polygon fill="#63b8ff" stroke="#63b8ff" points="556.49,-240.38 552.99,-230.38 549.49,-240.38 556.49,-240.38"/>
</g>
<!-- Node10 -->
<g id="node10" class="node">
<title>Node10</title>
<g id="a_node10"><a xlink:href="prologue_8hpp.html" target="_top" xlink:title=" ">
<polygon fill="white" stroke="#666666" points="917.62,-90.25 794.37,-90.25 794.37,-56.75 917.62,-56.75 917.62,-90.25"/>
<text text-anchor="start" x="802.37" y="-76.75" font-family="Helvetica,sans-Serif" font-size="10.00">proxsuite/linalg/veg</text>
<text text-anchor="middle" x="855.99" y="-64" font-family="Helvetica,sans-Serif" font-size="10.00">/internal/prologue.hpp</text>
</a>
</g>
</g>
<!-- Node2&#45;&gt;Node10 -->
<g id="edge16" class="edge">
<title>Node2&#45;&gt;Node10</title>
<path fill="none" stroke="#63b8ff" d="M611.7,-267.57C637.86,-259.54 667.9,-247.28 690.99,-229.25 734.81,-195.03 720.75,-163.55 761.99,-126.25 775.49,-114.04 792.38,-103.61 808.11,-95.38"/>
<polygon fill="#63b8ff" stroke="#63b8ff" points="809.35,-98.17 816.71,-90.55 806.2,-91.92 809.35,-98.17"/>
</g>
<!-- Node12 -->
<g id="node12" class="node">
<title>Node12</title>
<g id="a_node12"><a xlink:href="epilogue_8hpp.html" target="_top" xlink:title=" ">
<polygon fill="white" stroke="#666666" points="281.24,-90.25 158.74,-90.25 158.74,-56.75 281.24,-56.75 281.24,-90.25"/>
<text text-anchor="start" x="166.74" y="-76.75" font-family="Helvetica,sans-Serif" font-size="10.00">proxsuite/linalg/veg</text>
<text text-anchor="middle" x="219.99" y="-64" font-family="Helvetica,sans-Serif" font-size="10.00">/internal/epilogue.hpp</text>
</a>
</g>
</g>
<!-- Node2&#45;&gt;Node12 -->
<g id="edge17" class="edge">
<title>Node2&#45;&gt;Node12</title>
<path fill="none" stroke="#63b8ff" d="M494.66,-268C452.22,-257.71 399.14,-242.86 380.99,-229.25 337.29,-196.5 354,-163.42 313.99,-126.25 300.77,-113.96 284.09,-103.57 268.46,-95.38"/>
<polygon fill="#63b8ff" stroke="#63b8ff" points="270.42,-91.95 259.91,-90.58 267.27,-98.2 270.42,-91.95"/>
</g>
<!-- Node4 -->
<g id="node4" class="node">
<title>Node4</title>
<g id="a_node4"><a xlink:title=" ">
<polygon fill="#e0e0e0" stroke="#999999" points="762.49,-20.75 713.49,-20.75 713.49,0 762.49,0 762.49,-20.75"/>
<text text-anchor="middle" x="737.99" y="-7.25" font-family="Helvetica,sans-Serif" font-size="10.00">cstdint</text>
</a>
</g>
</g>
<!-- Node3&#45;&gt;Node4 -->
<g id="edge3" class="edge">
<title>Node3&#45;&gt;Node4</title>
<path fill="none" stroke="#63b8ff" d="M422.89,-58.5C425.97,-57.89 429.01,-57.3 431.99,-56.75 529.53,-38.72 645.59,-23.09 702.69,-15.78"/>
<polygon fill="#63b8ff" stroke="#63b8ff" points="702.82,-19.16 712.3,-14.43 701.94,-12.22 702.82,-19.16"/>
</g>
<!-- Node5 -->
<g id="node5" class="node">
<title>Node5</title>
<g id="a_node5"><a xlink:title=" ">
<polygon fill="#e0e0e0" stroke="#999999" points="386.99,-20.75 334.99,-20.75 334.99,0 386.99,0 386.99,-20.75"/>
<text text-anchor="middle" x="360.99" y="-7.25" font-family="Helvetica,sans-Serif" font-size="10.00">cstddef</text>
</a>
</g>
</g>
<!-- Node3&#45;&gt;Node5 -->
<g id="edge4" class="edge">
<title>Node3&#45;&gt;Node5</title>
<path fill="none" stroke="#63b8ff" d="M360.99,-56.44C360.99,-49.02 360.99,-40.11 360.99,-32.18"/>
<polygon fill="#63b8ff" stroke="#63b8ff" points="364.49,-32.22 360.99,-22.22 357.49,-32.22 364.49,-32.22"/>
</g>
<!-- Node6&#45;&gt;Node3 -->
<g id="edge6" class="edge">
<title>Node6&#45;&gt;Node3</title>
<path fill="none" stroke="#63b8ff" d="M539.49,-195.49C523.39,-177.09 494.98,-146.79 465.99,-126.25 449.13,-114.3 429.1,-103.68 411.08,-95.22"/>
<polygon fill="#63b8ff" stroke="#63b8ff" points="412.86,-91.73 402.31,-90.74 409.94,-98.09 412.86,-91.73"/>
</g>
<!-- Node7 -->
<g id="node7" class="node">
<title>Node7</title>
<g id="a_node7"><a xlink:href="macros_8hpp.html" target="_top" xlink:title=" ">
<polygon fill="white" stroke="#666666" points="634.24,-159.75 517.74,-159.75 517.74,-126.25 634.24,-126.25 634.24,-159.75"/>
<text text-anchor="start" x="525.74" y="-146.25" font-family="Helvetica,sans-Serif" font-size="10.00">proxsuite/linalg/veg</text>
<text text-anchor="middle" x="575.99" y="-133.5" font-family="Helvetica,sans-Serif" font-size="10.00">/internal/macros.hpp</text>
</a>
</g>
</g>
<!-- Node6&#45;&gt;Node7 -->
<g id="edge7" class="edge">
<title>Node6&#45;&gt;Node7</title>
<path fill="none" stroke="#63b8ff" d="M558.44,-195.5C561.02,-187.94 564.16,-178.71 567.08,-170.16"/>
<polygon fill="#63b8ff" stroke="#63b8ff" points="570.67,-171.48 570.58,-160.88 564.04,-169.22 570.67,-171.48"/>
</g>
<!-- Node6&#45;&gt;Node10 -->
<g id="edge14" class="edge">
<title>Node6&#45;&gt;Node10</title>
<path fill="none" stroke="#63b8ff" d="M583.63,-195.28C601.34,-185.56 623.84,-172.62 642.99,-159.75 663.1,-146.23 664.49,-137.41 685.99,-126.25 703.45,-117.19 745.69,-104.32 783.7,-93.68"/>
<polygon fill="#63b8ff" stroke="#63b8ff" points="784.58,-96.79 793.28,-90.74 782.71,-90.04 784.58,-96.79"/>
</g>
<!-- Node6&#45;&gt;Node12 -->
<g id="edge15" class="edge">
<title>Node6&#45;&gt;Node12</title>
<path fill="none" stroke="#63b8ff" d="M526.05,-195.41C494.32,-176.94 439.64,-146.58 389.99,-126.25 358.44,-113.33 322.45,-101.92 291.73,-93.13"/>
<polygon fill="#63b8ff" stroke="#63b8ff" points="293.11,-89.59 282.53,-90.25 291.21,-96.33 293.11,-89.59"/>
</g>
<!-- Node7&#45;&gt;Node3 -->
<g id="edge9" class="edge">
<title>Node7&#45;&gt;Node3</title>
<path fill="none" stroke="#63b8ff" d="M524.49,-125.83C493.89,-116.22 454.89,-103.98 422.65,-93.86"/>
<polygon fill="#63b8ff" stroke="#63b8ff" points="424.03,-90.31 413.44,-90.65 421.93,-96.99 424.03,-90.31"/>
</g>
<!-- Node8 -->
<g id="node8" class="node">
<title>Node8</title>
<g id="a_node8"><a xlink:href="hedley_8ext_8hpp.html" target="_top" xlink:title=" ">
<polygon fill="white" stroke="#666666" points="776.12,-90.25 601.87,-90.25 601.87,-56.75 776.12,-56.75 776.12,-90.25"/>
<text text-anchor="start" x="609.87" y="-76.75" font-family="Helvetica,sans-Serif" font-size="10.00">proxsuite/linalg/veg</text>
<text text-anchor="middle" x="688.99" y="-64" font-family="Helvetica,sans-Serif" font-size="10.00">/internal/external/hedley.ext.hpp</text>
</a>
</g>
</g>
<!-- Node7&#45;&gt;Node8 -->
<g id="edge8" class="edge">
<title>Node7&#45;&gt;Node8</title>
<path fill="none" stroke="#63b8ff" d="M603.06,-125.83C618.01,-116.9 636.78,-105.69 652.97,-96.02"/>
<polygon fill="#63b8ff" stroke="#63b8ff" points="654.36,-98.67 661.15,-90.54 650.77,-92.66 654.36,-98.67"/>
</g>
<!-- Node9 -->
<g id="node9" class="node">
<title>Node9</title>
<g id="a_node9"><a xlink:href="preprocessor_8hpp.html" target="_top" xlink:title=" ">
<polygon fill="white" stroke="#666666" points="583.37,-90.25 440.62,-90.25 440.62,-56.75 583.37,-56.75 583.37,-90.25"/>
<text text-anchor="start" x="448.62" y="-76.75" font-family="Helvetica,sans-Serif" font-size="10.00">proxsuite/linalg/veg</text>
<text text-anchor="middle" x="511.99" y="-64" font-family="Helvetica,sans-Serif" font-size="10.00">/internal/preprocessor.hpp</text>
</a>
</g>
</g>
<!-- Node7&#45;&gt;Node9 -->
<g id="edge10" class="edge">
<title>Node7&#45;&gt;Node9</title>
<path fill="none" stroke="#63b8ff" d="M560.82,-126C552.93,-117.68 543.13,-107.35 534.39,-98.12"/>
<polygon fill="#63b8ff" stroke="#63b8ff" points="537.47,-96.23 528.05,-91.38 532.39,-101.05 537.47,-96.23"/>
</g>
<!-- Node7&#45;&gt;Node10 -->
<g id="edge11" class="edge">
<title>Node7&#45;&gt;Node10</title>
<path fill="none" stroke="#63b8ff" d="M634.69,-127.85C677.98,-117.41 737.15,-103.15 783.41,-92"/>
<polygon fill="#63b8ff" stroke="#63b8ff" points="784.07,-95.2 792.97,-89.45 782.43,-88.39 784.07,-95.2"/>
</g>
<!-- Node11 -->
<g id="node11" class="node">
<title>Node11</title>
<g id="a_node11"><a xlink:title=" ">
<polygon fill="#e0e0e0" stroke="#999999" points="1017.99,-83.88 935.99,-83.88 935.99,-63.12 1017.99,-63.12 1017.99,-83.88"/>
<text text-anchor="middle" x="976.99" y="-70.38" font-family="Helvetica,sans-Serif" font-size="10.00">initializer_list</text>
</a>
</g>
</g>
<!-- Node7&#45;&gt;Node11 -->
<g id="edge12" class="edge">
<title>Node7&#45;&gt;Node11</title>
<path fill="none" stroke="#63b8ff" d="M634.59,-136.24C704.71,-128.69 825.38,-113.59 926.99,-90.25 930.6,-89.42 934.33,-88.46 938.05,-87.42"/>
<polygon fill="#63b8ff" stroke="#63b8ff" points="938.79,-90.56 947.39,-84.37 936.8,-83.84 938.79,-90.56"/>
</g>
<!-- Node7&#45;&gt;Node12 -->
<g id="edge13" class="edge">
<title>Node7&#45;&gt;Node12</title>
<path fill="none" stroke="#63b8ff" d="M517.24,-132.12C461.7,-122.61 375.78,-107.46 292.14,-90.64"/>
<polygon fill="#63b8ff" stroke="#63b8ff" points="292.91,-87.03 282.42,-88.48 291.53,-93.89 292.91,-87.03"/>
</g>
<!-- Node14 -->
<g id="node14" class="node">
<title>Node14</title>
<g id="a_node14"><a xlink:href="internal_2dbg_8hpp.html" target="_top" xlink:title=" ">
<polygon fill="white" stroke="#666666" points="456.37,-507.25 343.62,-507.25 343.62,-473.75 456.37,-473.75 456.37,-507.25"/>
<text text-anchor="start" x="351.62" y="-493.75" font-family="Helvetica,sans-Serif" font-size="10.00">proxsuite/linalg/veg</text>
<text text-anchor="middle" x="399.99" y="-481" font-family="Helvetica,sans-Serif" font-size="10.00">/internal/dbg.hpp</text>
</a>
</g>
</g>
<!-- Node13&#45;&gt;Node14 -->
<g id="edge19" class="edge">
<title>Node13&#45;&gt;Node14</title>
<path fill="none" stroke="#63b8ff" d="M457.22,-543C447.85,-534.57 436.19,-524.08 425.84,-514.77"/>
<polygon fill="#63b8ff" stroke="#63b8ff" points="428.67,-512.7 418.9,-508.62 423.99,-517.91 428.67,-512.7"/>
</g>
<!-- Node14&#45;&gt;Node10 -->
<g id="edge51" class="edge">
<title>Node14&#45;&gt;Node10</title>
<path fill="none" stroke="#63b8ff" d="M456.62,-477.35C488.81,-469.02 529.13,-456.11 561.99,-437.75 581.94,-426.61 580.13,-413.57 600.99,-404.25 713.55,-354 772.66,-435.45 875.99,-368.25 913.2,-344.05 927.99,-327.38 927.99,-283 927.99,-283 927.99,-283 927.99,-211.5 927.99,-167.81 898.94,-124.34 877.74,-98.45"/>
<polygon fill="#63b8ff" stroke="#63b8ff" points="880.04,-96.74 870.91,-91.36 874.69,-101.26 880.04,-96.74"/>
</g>
<!-- Node14&#45;&gt;Node12 -->
<g id="edge54" class="edge">
<title>Node14&#45;&gt;Node12</title>
<path fill="none" stroke="#63b8ff" d="M343.13,-488.23C281.55,-484.92 181.71,-473.83 103.99,-437.75 50.4,-412.87 1.99,-411.58 1.99,-352.5 1.99,-352.5 1.99,-352.5 1.99,-211.5 1.99,-172.68 -5.97,-154.18 20.99,-126.25 30.13,-116.78 94.74,-101.06 147.89,-89.42"/>
<polygon fill="#63b8ff" stroke="#63b8ff" points="148.32,-92.69 157.35,-87.15 146.84,-85.85 148.32,-92.69"/>
</g>
<!-- Node15 -->
<g id="node15" class="node">
<title>Node15</title>
<g id="a_node15"><a xlink:href="primitives_8hpp.html" target="_top" xlink:title=" ">
<polygon fill="white" stroke="#666666" points="269.49,-368.25 124.49,-368.25 124.49,-334.75 269.49,-334.75 269.49,-368.25"/>
<text text-anchor="start" x="132.49" y="-354.75" font-family="Helvetica,sans-Serif" font-size="10.00">proxsuite/linalg/veg</text>
<text text-anchor="middle" x="196.99" y="-342" font-family="Helvetica,sans-Serif" font-size="10.00">/type_traits/primitives.hpp</text>
</a>
</g>
</g>
<!-- Node14&#45;&gt;Node15 -->
<g id="edge20" class="edge">
<title>Node14&#45;&gt;Node15</title>
<path fill="none" stroke="#63b8ff" d="M376.31,-473.52C340.11,-449.09 270.93,-402.4 229.89,-374.7"/>
<polygon fill="#63b8ff" stroke="#63b8ff" points="232.08,-371.29 221.84,-368.59 228.17,-377.09 232.08,-371.29"/>
</g>
<!-- Node17 -->
<g id="node17" class="node">
<title>Node17</title>
<g id="a_node17"><a xlink:href="terminate_8hpp.html" target="_top" xlink:title=" ">
<polygon fill="white" stroke="#666666" points="158.24,-159.75 29.74,-159.75 29.74,-126.25 158.24,-126.25 158.24,-159.75"/>
<text text-anchor="start" x="37.74" y="-146.25" font-family="Helvetica,sans-Serif" font-size="10.00">proxsuite/linalg/veg</text>
<text text-anchor="middle" x="93.99" y="-133.5" font-family="Helvetica,sans-Serif" font-size="10.00">/internal/terminate.hpp</text>
</a>
</g>
</g>
<!-- Node14&#45;&gt;Node17 -->
<g id="edge25" class="edge">
<title>Node14&#45;&gt;Node17</title>
<path fill="none" stroke="#63b8ff" d="M343.13,-478.92C245.88,-459.18 57.99,-413.18 57.99,-352.5 57.99,-352.5 57.99,-352.5 57.99,-281 57.99,-241.27 72.33,-197.12 82.91,-169.96"/>
<polygon fill="#63b8ff" stroke="#63b8ff" points="86.39,-171.67 86.88,-161.09 79.9,-169.06 86.39,-171.67"/>
</g>
<!-- Node19 -->
<g id="node19" class="node">
<title>Node19</title>
<g id="a_node19"><a xlink:href="constructible_8hpp.html" target="_top" xlink:title=" ">
<polygon fill="white" stroke="#666666" points="446.24,-368.25 287.74,-368.25 287.74,-334.75 446.24,-334.75 446.24,-368.25"/>
<text text-anchor="start" x="295.74" y="-354.75" font-family="Helvetica,sans-Serif" font-size="10.00">proxsuite/linalg/veg</text>
<text text-anchor="middle" x="366.99" y="-342" font-family="Helvetica,sans-Serif" font-size="10.00">/type_traits/constructible.hpp</text>
</a>
</g>
</g>
<!-- Node14&#45;&gt;Node19 -->
<g id="edge29" class="edge">
<title>Node14&#45;&gt;Node19</title>
<path fill="none" stroke="#63b8ff" d="M386.82,-473.36C379.76,-463.67 371.76,-450.73 367.99,-437.75 362.49,-418.81 362.44,-396.49 363.66,-379.44"/>
<polygon fill="#63b8ff" stroke="#63b8ff" points="367.23,-379.86 364.66,-369.59 360.26,-379.22 367.23,-379.86"/>
</g>
<!-- Node21 -->
<g id="node21" class="node">
<title>Node21</title>
<g id="a_node21"><a xlink:href="ref_8hpp.html" target="_top" xlink:title=" ">
<polygon fill="white" stroke="#666666" points="553.37,-437.75 440.62,-437.75 440.62,-404.25 553.37,-404.25 553.37,-437.75"/>
<text text-anchor="start" x="448.62" y="-424.25" font-family="Helvetica,sans-Serif" font-size="10.00">proxsuite/linalg/veg</text>
<text text-anchor="middle" x="496.99" y="-411.5" font-family="Helvetica,sans-Serif" font-size="10.00">/ref.hpp</text>
</a>
</g>
</g>
<!-- Node14&#45;&gt;Node21 -->
<g id="edge35" class="edge">
<title>Node14&#45;&gt;Node21</title>
<path fill="none" stroke="#63b8ff" d="M422.98,-473.5C435.57,-464.74 451.37,-453.75 465.13,-444.17"/>
<polygon fill="#63b8ff" stroke="#63b8ff" points="466.62,-446.7 472.83,-438.12 462.62,-440.95 466.62,-446.7"/>
</g>
<!-- Node14&#45;&gt;Node26 -->
<g id="edge52" class="edge">
<title>Node14&#45;&gt;Node26</title>
<path fill="none" stroke="#63b8ff" d="M456.86,-476.39C496.05,-466.87 549.13,-453.03 594.99,-437.75 596.97,-437.09 598.98,-436.39 601.01,-435.65"/>
<polygon fill="#63b8ff" stroke="#63b8ff" points="601.98,-438.65 610.07,-431.81 599.48,-432.11 601.98,-438.65"/>
</g>
<!-- Node27 -->
<g id="node27" class="node">
<title>Node27</title>
<g id="a_node27"><a xlink:title=" ">
<polygon fill="#e0e0e0" stroke="#999999" points="422.62,-431.38 377.37,-431.38 377.37,-410.62 422.62,-410.62 422.62,-431.38"/>
<text text-anchor="middle" x="399.99" y="-417.88" font-family="Helvetica,sans-Serif" font-size="10.00">cstdio</text>
</a>
</g>
</g>
<!-- Node14&#45;&gt;Node27 -->
<g id="edge53" class="edge">
<title>Node14&#45;&gt;Node27</title>
<path fill="none" stroke="#63b8ff" d="M399.99,-473.5C399.99,-464.3 399.99,-452.64 399.99,-442.74"/>
<polygon fill="#63b8ff" stroke="#63b8ff" points="403.49,-442.82 399.99,-432.82 396.49,-442.82 403.49,-442.82"/>
</g>
<!-- Node15&#45;&gt;Node2 -->
<g id="edge21" class="edge">
<title>Node15&#45;&gt;Node2</title>
<path fill="none" stroke="#63b8ff" d="M269.87,-336.49C272.95,-335.9 276,-335.32 278.99,-334.75 348.65,-321.48 428.3,-306.45 483.71,-296.02"/>
<polygon fill="#63b8ff" stroke="#63b8ff" points="484.27,-299.29 493.45,-294 482.98,-292.41 484.27,-299.29"/>
</g>
<!-- Node15&#45;&gt;Node10 -->
<g id="edge22" class="edge">
<title>Node15&#45;&gt;Node10</title>
<path fill="none" stroke="#63b8ff" d="M217.42,-334.54C244.01,-314.7 292.69,-281.47 339.99,-265.25 463.26,-222.98 514.17,-287 630.99,-229.25 688.46,-200.84 678.9,-162.2 731.99,-126.25 751,-113.38 773.71,-102.76 794.48,-94.56"/>
<polygon fill="#63b8ff" stroke="#63b8ff" points="795.4,-97.57 803.49,-90.73 792.9,-91.03 795.4,-97.57"/>
</g>
<!-- Node15&#45;&gt;Node12 -->
<g id="edge24" class="edge">
<title>Node15&#45;&gt;Node12</title>
<path fill="none" stroke="#63b8ff" d="M197.19,-334.39C197.81,-297.45 200.29,-203.84 209.99,-126.25 211.01,-118.1 212.54,-109.31 214.1,-101.33"/>
<polygon fill="#63b8ff" stroke="#63b8ff" points="217.7,-102.23 216.28,-91.73 210.84,-100.82 217.7,-102.23"/>
</g>
<!-- Node15&#45;&gt;Node16 -->
<g id="edge23" class="edge">
<title>Node15&#45;&gt;Node16</title>
<path fill="none" stroke="#63b8ff" d="M179.69,-334.5C168.54,-324.19 154.04,-310.78 142.63,-300.23"/>
<polygon fill="#63b8ff" stroke="#63b8ff" points="145.33,-298.04 135.61,-293.82 140.58,-303.18 145.33,-298.04"/>
</g>
<!-- Node17&#45;&gt;Node10 -->
<g id="edge26" class="edge">
<title>Node17&#45;&gt;Node10</title>
<path fill="none" stroke="#63b8ff" d="M158.64,-140.25C279.48,-136.31 547.9,-124.39 783.3,-90.36"/>
<polygon fill="#63b8ff" stroke="#63b8ff" points="783.74,-93.68 793.13,-88.77 782.73,-86.76 783.74,-93.68"/>
</g>
<!-- Node17&#45;&gt;Node12 -->
<g id="edge28" class="edge">
<title>Node17&#45;&gt;Node12</title>
<path fill="none" stroke="#63b8ff" d="M124.17,-125.83C141.08,-116.77 162.37,-105.37 180.58,-95.61"/>
<polygon fill="#63b8ff" stroke="#63b8ff" points="181.89,-98.34 189.06,-90.54 178.59,-92.17 181.89,-98.34"/>
</g>
<!-- Node18 -->
<g id="node18" class="node">
<title>Node18</title>
<g id="a_node18"><a xlink:title=" ">
<polygon fill="#e0e0e0" stroke="#999999" points="125.99,-83.88 61.99,-83.88 61.99,-63.12 125.99,-63.12 125.99,-83.88"/>
<text text-anchor="middle" x="93.99" y="-70.38" font-family="Helvetica,sans-Serif" font-size="10.00">exception</text>
</a>
</g>
</g>
<!-- Node17&#45;&gt;Node18 -->
<g id="edge27" class="edge">
<title>Node17&#45;&gt;Node18</title>
<path fill="none" stroke="#63b8ff" d="M93.99,-126C93.99,-116.8 93.99,-105.14 93.99,-95.24"/>
<polygon fill="#63b8ff" stroke="#63b8ff" points="97.49,-95.32 93.99,-85.32 90.49,-95.32 97.49,-95.32"/>
</g>
<!-- Node19&#45;&gt;Node2 -->
<g id="edge30" class="edge">
<title>Node19&#45;&gt;Node2</title>
<path fill="none" stroke="#63b8ff" d="M411.54,-334.33C437.56,-324.89 470.59,-312.9 498.19,-302.89"/>
<polygon fill="#63b8ff" stroke="#63b8ff" points="499.27,-305.85 507.48,-299.15 496.89,-299.27 499.27,-305.85"/>
</g>
<!-- Node19&#45;&gt;Node10 -->
<g id="edge31" class="edge">
<title>Node19&#45;&gt;Node10</title>
<path fill="none" stroke="#63b8ff" d="M446.56,-337.86C508.64,-327.33 589.32,-311.97 619.99,-298.75 720.96,-255.23 804.75,-148.36 839.17,-99.55"/>
<polygon fill="#63b8ff" stroke="#63b8ff" points="842.56,-101.81 845.39,-91.6 836.81,-97.82 842.56,-101.81"/>
</g>
<!-- Node19&#45;&gt;Node12 -->
<g id="edge34" class="edge">
<title>Node19&#45;&gt;Node12</title>
<path fill="none" stroke="#63b8ff" d="M344.49,-334.46C317.01,-313.55 271.31,-274.31 247.99,-229.25 226.65,-188 221.3,-133.24 220.12,-101.14"/>
<polygon fill="#63b8ff" stroke="#63b8ff" points="223.6,-101.31 219.85,-91.41 216.61,-101.49 223.6,-101.31"/>
</g>
<!-- Node19&#45;&gt;Node16 -->
<g id="edge33" class="edge">
<title>Node19&#45;&gt;Node16</title>
<path fill="none" stroke="#63b8ff" d="M308.79,-334.33C265.83,-322.4 208.22,-306.4 168.82,-295.45"/>
<polygon fill="#63b8ff" stroke="#63b8ff" points="170.03,-291.88 159.46,-292.58 168.16,-298.62 170.03,-291.88"/>
</g>
<!-- Node20 -->
<g id="node20" class="node">
<title>Node20</title>
<g id="a_node20"><a xlink:title=" ">
<polygon fill="#e0e0e0" stroke="#999999" points="385.12,-292.38 348.87,-292.38 348.87,-271.62 385.12,-271.62 385.12,-292.38"/>
<text text-anchor="middle" x="366.99" y="-278.88" font-family="Helvetica,sans-Serif" font-size="10.00">new</text>
</a>
</g>
</g>
<!-- Node19&#45;&gt;Node20 -->
<g id="edge32" class="edge">
<title>Node19&#45;&gt;Node20</title>
<path fill="none" stroke="#63b8ff" d="M366.99,-334.5C366.99,-325.3 366.99,-313.64 366.99,-303.74"/>
<polygon fill="#63b8ff" stroke="#63b8ff" points="370.49,-303.82 366.99,-293.82 363.49,-303.82 370.49,-303.82"/>
</g>
<!-- Node21&#45;&gt;Node10 -->
<g id="edge49" class="edge">
<title>Node21&#45;&gt;Node10</title>
<path fill="none" stroke="#63b8ff" d="M553.82,-406.75C558.27,-405.85 562.7,-405.01 566.99,-404.25 628.55,-393.38 794.8,-404.13 845.99,-368.25 880.91,-343.78 889.99,-325.64 889.99,-283 889.99,-283 889.99,-283 889.99,-211.5 889.99,-172.08 876.57,-128.12 866.59,-100.88"/>
<polygon fill="#63b8ff" stroke="#63b8ff" points="869.52,-99.74 862.71,-91.63 862.98,-102.22 869.52,-99.74"/>
</g>
<!-- Node21&#45;&gt;Node12 -->
<g id="edge50" class="edge">
<title>Node21&#45;&gt;Node12</title>
<path fill="none" stroke="#63b8ff" d="M490.58,-403.92C483.19,-386.26 470.12,-357.39 454.99,-334.75 443.57,-317.66 410.46,-277.55 393.99,-265.25 363.4,-242.4 344.59,-254.54 315.99,-229.25 274.74,-192.78 245.19,-134.31 230.51,-100.66"/>
<polygon fill="#63b8ff" stroke="#63b8ff" points="233.39,-99.5 226.27,-91.66 226.95,-102.23 233.39,-99.5"/>
</g>
<!-- Node21&#45;&gt;Node19 -->
<g id="edge40" class="edge">
<title>Node21&#45;&gt;Node19</title>
<path fill="none" stroke="#63b8ff" d="M465.85,-403.83C448.33,-394.73 426.24,-383.27 407.39,-373.48"/>
<polygon fill="#63b8ff" stroke="#63b8ff" points="409.36,-370.04 398.87,-368.54 406.14,-376.25 409.36,-370.04"/>
</g>
<!-- Node22 -->
<g id="node22" class="node">
<title>Node22</title>
<g id="a_node22"><a xlink:href="tags_8hpp.html" target="_top" xlink:title=" ">
<polygon fill="white" stroke="#666666" points="618.24,-368.25 501.74,-368.25 501.74,-334.75 618.24,-334.75 618.24,-368.25"/>
<text text-anchor="start" x="509.74" y="-354.75" font-family="Helvetica,sans-Serif" font-size="10.00">proxsuite/linalg/veg</text>
<text text-anchor="middle" x="559.99" y="-342" font-family="Helvetica,sans-Serif" font-size="10.00">/type_traits/tags.hpp</text>
</a>
</g>
</g>
<!-- Node21&#45;&gt;Node22 -->
<g id="edge36" class="edge">
<title>Node21&#45;&gt;Node22</title>
<path fill="none" stroke="#63b8ff" d="M511.92,-404C519.61,-395.77 529.14,-385.55 537.68,-376.4"/>
<polygon fill="#63b8ff" stroke="#63b8ff" points="539.9,-379.08 544.17,-369.38 534.79,-374.3 539.9,-379.08"/>
</g>
<!-- Node23 -->
<g id="node23" class="node">
<title>Node23</title>
<g id="a_node23"><a xlink:href="address_8hpp.html" target="_top" xlink:title=" ">
<polygon fill="white" stroke="#666666" points="837.24,-368.25 714.74,-368.25 714.74,-334.75 837.24,-334.75 837.24,-368.25"/>
<text text-anchor="start" x="722.74" y="-354.75" font-family="Helvetica,sans-Serif" font-size="10.00">proxsuite/linalg/veg</text>
<text text-anchor="middle" x="775.99" y="-342" font-family="Helvetica,sans-Serif" font-size="10.00">/memory/address.hpp</text>
</a>
</g>
</g>
<!-- Node21&#45;&gt;Node23 -->
<g id="edge41" class="edge">
<title>Node21&#45;&gt;Node23</title>
<path fill="none" stroke="#63b8ff" d="M553.79,-406.26C597.1,-395.78 657.05,-381.28 703.77,-369.97"/>
<polygon fill="#63b8ff" stroke="#63b8ff" points="704.53,-373.15 713.43,-367.39 702.89,-366.34 704.53,-373.15"/>
</g>
<!-- Node22&#45;&gt;Node2 -->
<g id="edge37" class="edge">
<title>Node22&#45;&gt;Node2</title>
<path fill="none" stroke="#63b8ff" d="M558.33,-334.5C557.56,-327.11 556.63,-318.12 555.76,-309.73"/>
<polygon fill="#63b8ff" stroke="#63b8ff" points="559.15,-309.47 554.64,-299.88 552.19,-310.19 559.15,-309.47"/>
</g>
<!-- Node22&#45;&gt;Node10 -->
<g id="edge38" class="edge">
<title>Node22&#45;&gt;Node10</title>
<path fill="none" stroke="#63b8ff" d="M615.28,-334.34C667.14,-316.52 743.48,-283.02 789.99,-229.25 822.96,-191.15 841.46,-134.13 850.03,-100.99"/>
<polygon fill="#63b8ff" stroke="#63b8ff" points="853.56,-102.27 852.56,-91.73 846.77,-100.6 853.56,-102.27"/>
</g>
<!-- Node22&#45;&gt;Node12 -->
<g id="edge39" class="edge">
<title>Node22&#45;&gt;Node12</title>
<path fill="none" stroke="#63b8ff" d="M537.02,-334.45C510.95,-316.55 466.86,-287.22 426.99,-265.25 393.9,-247.02 379.06,-253.37 349.99,-229.25 306.61,-193.26 313.32,-168.48 275.99,-126.25 267.24,-116.35 256.81,-106.31 247.33,-97.74"/>
<polygon fill="#63b8ff" stroke="#63b8ff" points="250.11,-95.64 240.31,-91.63 245.47,-100.88 250.11,-95.64"/>
</g>
<!-- Node23&#45;&gt;Node2 -->
<g id="edge42" class="edge">
<title>Node23&#45;&gt;Node2</title>
<path fill="none" stroke="#63b8ff" d="M722.58,-334.33C690.7,-324.68 650.03,-312.37 616.51,-302.23"/>
<polygon fill="#63b8ff" stroke="#63b8ff" points="617.94,-298.7 607.35,-299.15 615.91,-305.4 617.94,-298.7"/>
</g>
<!-- Node23&#45;&gt;Node10 -->
<g id="edge46" class="edge">
<title>Node23&#45;&gt;Node10</title>
<path fill="none" stroke="#63b8ff" d="M777.1,-334.25C778.87,-316.44 783.42,-287.44 794.99,-265.25 805.03,-246 818.35,-248.69 827.99,-229.25 848.63,-187.64 854.2,-133 855.62,-101.02"/>
<polygon fill="#63b8ff" stroke="#63b8ff" points="859.14,-101.44 855.97,-91.33 852.14,-101.21 859.14,-101.44"/>
</g>
<!-- Node23&#45;&gt;Node12 -->
<g id="edge48" class="edge">
<title>Node23&#45;&gt;Node12</title>
<path fill="none" stroke="#63b8ff" d="M751.29,-334.39C721.32,-315.46 668.73,-284.25 619.99,-265.25 558.13,-241.13 534.85,-257.99 474.99,-229.25 406.95,-196.59 405.13,-164.37 339.99,-126.25 319.46,-114.24 295.62,-103.38 274.62,-94.75"/>
<polygon fill="#63b8ff" stroke="#63b8ff" points="276.15,-91.2 265.57,-90.7 273.54,-97.69 276.15,-91.2"/>
</g>
<!-- Node24 -->
<g id="node24" class="node">
<title>Node24</title>
<g id="a_node24"><a xlink:href="std_8hpp.html" target="_top" xlink:title=" ">
<polygon fill="white" stroke="#666666" points="1068.37,-159.75 955.62,-159.75 955.62,-126.25 1068.37,-126.25 1068.37,-159.75"/>
<text text-anchor="start" x="963.62" y="-146.25" font-family="Helvetica,sans-Serif" font-size="10.00">proxsuite/linalg/veg</text>
<text text-anchor="middle" x="1011.99" y="-133.5" font-family="Helvetica,sans-Serif" font-size="10.00">/internal/std.hpp</text>
</a>
</g>
</g>
<!-- Node23&#45;&gt;Node24 -->
<g id="edge43" class="edge">
<title>Node23&#45;&gt;Node24</title>
<path fill="none" stroke="#63b8ff" d="M812.01,-334.43C830.54,-325.31 852.96,-312.89 870.99,-298.75 921.17,-259.37 968.82,-201.26 993.82,-168.6"/>
<polygon fill="#63b8ff" stroke="#63b8ff" points="997.01,-171.19 1000.25,-161.1 991.43,-166.96 997.01,-171.19"/>
</g>
<!-- Node25 -->
<g id="node25" class="node">
<title>Node25</title>
<g id="a_node25"><a xlink:title=" ">
<polygon fill="#e0e0e0" stroke="#999999" points="861.62,-292.38 804.37,-292.38 804.37,-271.62 861.62,-271.62 861.62,-292.38"/>
<text text-anchor="middle" x="832.99" y="-278.88" font-family="Helvetica,sans-Serif" font-size="10.00">memory</text>
</a>
</g>
</g>
<!-- Node23&#45;&gt;Node25 -->
<g id="edge47" class="edge">
<title>Node23&#45;&gt;Node25</title>
<path fill="none" stroke="#63b8ff" d="M789.5,-334.5C797.95,-324.49 808.87,-311.57 817.65,-301.17"/>
<polygon fill="#63b8ff" stroke="#63b8ff" points="820.92,-303.72 824.7,-293.82 815.57,-299.2 820.92,-303.72"/>
</g>
<!-- Node24&#45;&gt;Node4 -->
<g id="edge44" class="edge">
<title>Node24&#45;&gt;Node4</title>
<path fill="none" stroke="#63b8ff" d="M1021.73,-125.84C1031.67,-107.02 1043.5,-76.05 1026.99,-56.75 994.78,-19.09 843.76,-12.48 773.77,-11.46"/>
<polygon fill="#63b8ff" stroke="#63b8ff" points="773.91,-7.95 763.87,-11.34 773.83,-14.95 773.91,-7.95"/>
</g>
<!-- Node24&#45;&gt;Node11 -->
<g id="edge45" class="edge">
<title>Node24&#45;&gt;Node11</title>
<path fill="none" stroke="#63b8ff" d="M1003.7,-126C998.72,-116.4 992.34,-104.11 987.07,-93.94"/>
<polygon fill="#63b8ff" stroke="#63b8ff" points="989.79,-92.59 982.08,-85.32 983.58,-95.81 989.79,-92.59"/>
</g>
</g>
</svg>
