<?xml version="1.0" encoding="UTF-8" standalone="no"?>
<!DOCTYPE svg PUBLIC "-//W3C//DTD SVG 1.1//EN"
 "http://www.w3.org/Graphics/SVG/1.1/DTD/svg11.dtd">
<!-- Generated by graphviz version 6.0.2 (20221126.1951)
 -->
<!-- Title: include/proxsuite/linalg/dense/core.hpp Pages: 1 -->
<svg width="865pt" height="566pt"
 viewBox="0.00 0.00 864.81 566.00" xmlns="http://www.w3.org/2000/svg" xmlns:xlink="http://www.w3.org/1999/xlink">
<g id="graph0" class="graph" transform="scale(1 1) rotate(0) translate(4 562)">
<title>include/proxsuite/linalg/dense/core.hpp</title>
<!-- Node1 -->
<g id="node1" class="node">
<title>Node1</title>
<g id="a_node1"><a xlink:title=" ">
<polygon fill="#999999" stroke="#666666" points="550.99,-558 419.99,-558 419.99,-528 550.99,-528 550.99,-558"/>
<text text-anchor="start" x="427.99" y="-546" font-family="Helvetica,sans-Serif" font-size="10.00">include/proxsuite/linalg</text>
<text text-anchor="middle" x="485.49" y="-535" font-family="Helvetica,sans-Serif" font-size="10.00">/dense/core.hpp</text>
</a>
</g>
</g>
<!-- Node2 -->
<g id="node2" class="node">
<title>Node2</title>
<g id="a_node2"><a xlink:href="dense_2factorize_8hpp.html" target="_top" xlink:title=" ">
<polygon fill="white" stroke="#666666" points="550.99,-492 419.99,-492 419.99,-462 550.99,-462 550.99,-492"/>
<text text-anchor="start" x="427.99" y="-480" font-family="Helvetica,sans-Serif" font-size="10.00">include/proxsuite/linalg</text>
<text text-anchor="middle" x="485.49" y="-469" font-family="Helvetica,sans-Serif" font-size="10.00">/dense/factorize.hpp</text>
</a>
</g>
</g>
<!-- Node1&#45;&gt;Node2 -->
<g id="edge1" class="edge">
<title>Node1&#45;&gt;Node2</title>
<path fill="none" stroke="#63b8ff" d="M485.49,-517.54C485.49,-508.96 485.49,-499.61 485.49,-492.16"/>
<polygon fill="#63b8ff" stroke="#63b8ff" points="481.99,-517.8 485.49,-527.8 488.99,-517.8 481.99,-517.8"/>
</g>
<!-- Node10 -->
<g id="node10" class="node">
<title>Node10</title>
<g id="a_node10"><a xlink:href="modify_8hpp.html" target="_top" xlink:title=" ">
<polygon fill="white" stroke="#666666" points="456.99,-426 325.99,-426 325.99,-396 456.99,-396 456.99,-426"/>
<text text-anchor="start" x="333.99" y="-414" font-family="Helvetica,sans-Serif" font-size="10.00">include/proxsuite/linalg</text>
<text text-anchor="middle" x="391.49" y="-403" font-family="Helvetica,sans-Serif" font-size="10.00">/dense/modify.hpp</text>
</a>
</g>
</g>
<!-- Node1&#45;&gt;Node10 -->
<g id="edge13" class="edge">
<title>Node1&#45;&gt;Node10</title>
<path fill="none" stroke="#63b8ff" d="M445.18,-522.83C432.38,-514.93 419.28,-504.63 410.49,-492 396.63,-472.08 392.8,-443.34 391.79,-426.28"/>
<polygon fill="#63b8ff" stroke="#63b8ff" points="443.53,-525.92 453.94,-527.92 447.05,-519.87 443.53,-525.92"/>
</g>
<!-- Node11 -->
<g id="node11" class="node">
<title>Node11</title>
<g id="a_node11"><a xlink:href="solve_8hpp.html" target="_top" xlink:title=" ">
<polygon fill="white" stroke="#666666" points="268.99,-426 137.99,-426 137.99,-396 268.99,-396 268.99,-426"/>
<text text-anchor="start" x="145.99" y="-414" font-family="Helvetica,sans-Serif" font-size="10.00">include/proxsuite/linalg</text>
<text text-anchor="middle" x="203.49" y="-403" font-family="Helvetica,sans-Serif" font-size="10.00">/dense/solve.hpp</text>
</a>
</g>
</g>
<!-- Node1&#45;&gt;Node11 -->
<g id="edge14" class="edge">
<title>Node1&#45;&gt;Node11</title>
<path fill="none" stroke="#63b8ff" d="M409.67,-536.65C341.74,-530.29 248.85,-517.2 222.49,-492 204.53,-474.84 202.21,-444.05 202.56,-426.08"/>
<polygon fill="#63b8ff" stroke="#63b8ff" points="409.65,-540.17 419.93,-537.58 410.28,-533.19 409.65,-540.17"/>
</g>
<!-- Node12 -->
<g id="node12" class="node">
<title>Node12</title>
<g id="a_node12"><a xlink:href="dense_2update_8hpp.html" target="_top" xlink:title=" ">
<polygon fill="white" stroke="#666666" points="362.99,-492 231.99,-492 231.99,-462 362.99,-462 362.99,-492"/>
<text text-anchor="start" x="239.99" y="-480" font-family="Helvetica,sans-Serif" font-size="10.00">include/proxsuite/linalg</text>
<text text-anchor="middle" x="297.49" y="-469" font-family="Helvetica,sans-Serif" font-size="10.00">/dense/update.hpp</text>
</a>
</g>
</g>
<!-- Node1&#45;&gt;Node12 -->
<g id="edge16" class="edge">
<title>Node1&#45;&gt;Node12</title>
<path fill="none" stroke="#63b8ff" d="M434.74,-524.72C404.61,-514.47 366.91,-501.63 338.65,-492.01"/>
<polygon fill="#63b8ff" stroke="#63b8ff" points="433.64,-528.05 444.23,-527.95 435.89,-521.42 433.64,-528.05"/>
</g>
<!-- Node13 -->
<g id="node13" class="node">
<title>Node13</title>
<g id="a_node13"><a xlink:href="dense_2preconditioner_2ruiz_8hpp.html" target="_top" xlink:title=" ">
<polygon fill="white" stroke="#666666" points="174.49,-294 10.49,-294 10.49,-264 174.49,-264 174.49,-294"/>
<text text-anchor="start" x="18.49" y="-282" font-family="Helvetica,sans-Serif" font-size="10.00">include/proxsuite/proxqp</text>
<text text-anchor="middle" x="92.49" y="-271" font-family="Helvetica,sans-Serif" font-size="10.00">/dense/preconditioner/ruiz.hpp</text>
</a>
</g>
</g>
<!-- Node1&#45;&gt;Node13 -->
<g id="edge19" class="edge">
<title>Node1&#45;&gt;Node13</title>
<path fill="none" stroke="#63b8ff" d="M409.39,-539.61C350.61,-535.2 268.58,-523.33 203.49,-492 163.48,-472.74 151.52,-463.96 128.49,-426 102.35,-382.93 95.16,-321.82 93.21,-294.35"/>
<polygon fill="#63b8ff" stroke="#63b8ff" points="409.5,-543.13 419.72,-540.33 409.98,-536.14 409.5,-543.13"/>
</g>
<!-- Node15 -->
<g id="node15" class="node">
<title>Node15</title>
<g id="a_node15"><a xlink:href="sparse_2solver_8hpp.html" target="_top" xlink:title=" ">
<polygon fill="white" stroke="#666666" points="792.99,-294 655.99,-294 655.99,-264 792.99,-264 792.99,-294"/>
<text text-anchor="start" x="663.99" y="-282" font-family="Helvetica,sans-Serif" font-size="10.00">include/proxsuite/proxqp</text>
<text text-anchor="middle" x="724.49" y="-271" font-family="Helvetica,sans-Serif" font-size="10.00">/sparse/solver.hpp</text>
</a>
</g>
</g>
<!-- Node1&#45;&gt;Node15 -->
<g id="edge25" class="edge">
<title>Node1&#45;&gt;Node15</title>
<path fill="none" stroke="#63b8ff" d="M561.25,-540.05C621.81,-535.93 707.52,-524.24 775.49,-492 815.91,-472.83 832.93,-466.7 851.49,-426 877.41,-369.15 798.62,-317.84 753.6,-294.03"/>
<polygon fill="#63b8ff" stroke="#63b8ff" points="560.76,-536.57 551,-540.69 561.2,-543.56 560.76,-536.57"/>
</g>
<!-- Node18 -->
<g id="node18" class="node">
<title>Node18</title>
<g id="a_node18"><a xlink:href="sparse_2utils_8hpp.html" target="_top" xlink:title=" ">
<polygon fill="white" stroke="#666666" points="841.99,-426 704.99,-426 704.99,-396 841.99,-396 841.99,-426"/>
<text text-anchor="start" x="712.99" y="-414" font-family="Helvetica,sans-Serif" font-size="10.00">include/proxsuite/proxqp</text>
<text text-anchor="middle" x="773.49" y="-403" font-family="Helvetica,sans-Serif" font-size="10.00">/sparse/utils.hpp</text>
</a>
</g>
</g>
<!-- Node1&#45;&gt;Node18 -->
<g id="edge28" class="edge">
<title>Node1&#45;&gt;Node18</title>
<path fill="none" stroke="#63b8ff" d="M561.33,-537.03C630.94,-530.89 727.27,-517.91 754.49,-492 772.48,-474.88 774.79,-444.07 774.43,-426.09"/>
<polygon fill="#63b8ff" stroke="#63b8ff" points="560.93,-533.55 551.26,-537.88 561.52,-540.52 560.93,-533.55"/>
</g>
<!-- Node19 -->
<g id="node19" class="node">
<title>Node19</title>
<g id="a_node19"><a xlink:href="sparse_2workspace_8hpp.html" target="_top" xlink:title=" ">
<polygon fill="white" stroke="#666666" points="647.99,-360 510.99,-360 510.99,-330 647.99,-330 647.99,-360"/>
<text text-anchor="start" x="518.99" y="-348" font-family="Helvetica,sans-Serif" font-size="10.00">include/proxsuite/proxqp</text>
<text text-anchor="middle" x="579.49" y="-337" font-family="Helvetica,sans-Serif" font-size="10.00">/sparse/workspace.hpp</text>
</a>
</g>
</g>
<!-- Node1&#45;&gt;Node19 -->
<g id="edge36" class="edge">
<title>Node1&#45;&gt;Node19</title>
<path fill="none" stroke="#63b8ff" d="M527.19,-522.94C539.85,-515.13 552.5,-504.85 560.49,-492 586.66,-449.88 584.08,-387.76 581.29,-360.13"/>
<polygon fill="#63b8ff" stroke="#63b8ff" points="525.41,-519.93 518.49,-527.96 528.9,-526 525.41,-519.93"/>
</g>
<!-- Node20 -->
<g id="node20" class="node">
<title>Node20</title>
<g id="a_node20"><a xlink:href="sparse_2views_8hpp.html" target="_top" xlink:title=" ">
<polygon fill="white" stroke="#666666" points="744.99,-492 607.99,-492 607.99,-462 744.99,-462 744.99,-492"/>
<text text-anchor="start" x="615.99" y="-480" font-family="Helvetica,sans-Serif" font-size="10.00">include/proxsuite/proxqp</text>
<text text-anchor="middle" x="676.49" y="-469" font-family="Helvetica,sans-Serif" font-size="10.00">/sparse/views.hpp</text>
</a>
</g>
</g>
<!-- Node1&#45;&gt;Node20 -->
<g id="edge32" class="edge">
<title>Node1&#45;&gt;Node20</title>
<path fill="none" stroke="#63b8ff" d="M537.05,-524.72C567.65,-514.47 605.96,-501.63 634.67,-492.01"/>
<polygon fill="#63b8ff" stroke="#63b8ff" points="535.77,-521.46 527.4,-527.95 538,-528.1 535.77,-521.46"/>
</g>
<!-- Node3 -->
<g id="node3" class="node">
<title>Node3</title>
<g id="a_node3"><a xlink:href="ldlt_8hpp.html" target="_top" xlink:title=" ">
<polygon fill="white" stroke="#666666" points="456.99,-360 325.99,-360 325.99,-330 456.99,-330 456.99,-360"/>
<text text-anchor="start" x="333.99" y="-348" font-family="Helvetica,sans-Serif" font-size="10.00">include/proxsuite/linalg</text>
<text text-anchor="middle" x="391.49" y="-337" font-family="Helvetica,sans-Serif" font-size="10.00">/dense/ldlt.hpp</text>
</a>
</g>
</g>
<!-- Node2&#45;&gt;Node3 -->
<g id="edge2" class="edge">
<title>Node2&#45;&gt;Node3</title>
<path fill="none" stroke="#63b8ff" d="M483.95,-451.52C481.85,-434.63 476.94,-412.35 465.49,-396 454.64,-380.5 437.32,-368.42 422.17,-360.02"/>
<polygon fill="#63b8ff" stroke="#63b8ff" points="480.49,-452.13 484.96,-461.73 487.45,-451.43 480.49,-452.13"/>
</g>
<!-- Node2&#45;&gt;Node10 -->
<g id="edge11" class="edge">
<title>Node2&#45;&gt;Node10</title>
<path fill="none" stroke="#63b8ff" d="M456.15,-456.03C441.93,-446.34 425.18,-434.94 412.29,-426.16"/>
<polygon fill="#63b8ff" stroke="#63b8ff" points="454.39,-459.06 464.63,-461.8 458.33,-453.28 454.39,-459.06"/>
</g>
<!-- Node4 -->
<g id="node4" class="node">
<title>Node4</title>
<g id="a_node4"><a xlink:href="dense_2solver_8hpp.html" target="_top" xlink:title=" ">
<polygon fill="white" stroke="#666666" points="308.99,-162 171.99,-162 171.99,-132 308.99,-132 308.99,-162"/>
<text text-anchor="start" x="179.99" y="-150" font-family="Helvetica,sans-Serif" font-size="10.00">include/proxsuite/proxqp</text>
<text text-anchor="middle" x="240.49" y="-139" font-family="Helvetica,sans-Serif" font-size="10.00">/dense/solver.hpp</text>
</a>
</g>
</g>
<!-- Node3&#45;&gt;Node4 -->
<g id="edge3" class="edge">
<title>Node3&#45;&gt;Node4</title>
<path fill="none" stroke="#63b8ff" d="M435.8,-324.89C448.49,-317.18 460.92,-306.98 468.49,-294 489.99,-257.11 499.31,-231.23 472.49,-198 452.23,-172.92 370.04,-159.81 309.21,-153.42"/>
<polygon fill="#63b8ff" stroke="#63b8ff" points="434.03,-321.87 427.03,-329.83 437.46,-327.97 434.03,-321.87"/>
</g>
<!-- Node7 -->
<g id="node7" class="node">
<title>Node7</title>
<g id="a_node7"><a xlink:href="dense_2workspace_8hpp.html" target="_top" xlink:title=" ">
<polygon fill="white" stroke="#666666" points="459.99,-294 322.99,-294 322.99,-264 459.99,-264 459.99,-294"/>
<text text-anchor="start" x="330.99" y="-282" font-family="Helvetica,sans-Serif" font-size="10.00">include/proxsuite/proxqp</text>
<text text-anchor="middle" x="391.49" y="-271" font-family="Helvetica,sans-Serif" font-size="10.00">/dense/workspace.hpp</text>
</a>
</g>
</g>
<!-- Node3&#45;&gt;Node7 -->
<g id="edge6" class="edge">
<title>Node3&#45;&gt;Node7</title>
<path fill="none" stroke="#63b8ff" d="M391.49,-319.54C391.49,-310.96 391.49,-301.61 391.49,-294.16"/>
<polygon fill="#63b8ff" stroke="#63b8ff" points="387.99,-319.8 391.49,-329.8 394.99,-319.8 387.99,-319.8"/>
</g>
<!-- Node5 -->
<g id="node5" class="node">
<title>Node5</title>
<g id="a_node5"><a xlink:href="dense_2wrapper_8hpp.html" target="_top" xlink:title=" ">
<polygon fill="white" stroke="#666666" points="153.99,-96 16.99,-96 16.99,-66 153.99,-66 153.99,-96"/>
<text text-anchor="start" x="24.99" y="-84" font-family="Helvetica,sans-Serif" font-size="10.00">include/proxsuite/proxqp</text>
<text text-anchor="middle" x="85.49" y="-73" font-family="Helvetica,sans-Serif" font-size="10.00">/dense/wrapper.hpp</text>
</a>
</g>
</g>
<!-- Node4&#45;&gt;Node5 -->
<g id="edge4" class="edge">
<title>Node4&#45;&gt;Node5</title>
<path fill="none" stroke="#63b8ff" d="M197.02,-128.05C172.47,-117.91 142.22,-105.43 119.42,-96.01"/>
<polygon fill="#63b8ff" stroke="#63b8ff" points="195.89,-131.37 206.47,-131.95 198.56,-124.9 195.89,-131.37"/>
</g>
<!-- Node6 -->
<g id="node6" class="node">
<title>Node6</title>
<g id="a_node6"><a xlink:href="dense_8hpp.html" target="_top" xlink:title=" ">
<polygon fill="white" stroke="#666666" points="153.99,-30 16.99,-30 16.99,0 153.99,0 153.99,-30"/>
<text text-anchor="start" x="24.99" y="-18" font-family="Helvetica,sans-Serif" font-size="10.00">include/proxsuite/proxqp</text>
<text text-anchor="middle" x="85.49" y="-7" font-family="Helvetica,sans-Serif" font-size="10.00">/dense/dense.hpp</text>
</a>
</g>
</g>
<!-- Node5&#45;&gt;Node6 -->
<g id="edge5" class="edge">
<title>Node5&#45;&gt;Node6</title>
<path fill="none" stroke="#63b8ff" d="M85.49,-55.54C85.49,-46.96 85.49,-37.61 85.49,-30.16"/>
<polygon fill="#63b8ff" stroke="#63b8ff" points="81.99,-55.8 85.49,-65.8 88.99,-55.8 81.99,-55.8"/>
</g>
<!-- Node8 -->
<g id="node8" class="node">
<title>Node8</title>
<g id="a_node8"><a xlink:href="linesearch_8hpp.html" target="_top" xlink:title=" ">
<polygon fill="white" stroke="#666666" points="463.99,-228 326.99,-228 326.99,-198 463.99,-198 463.99,-228"/>
<text text-anchor="start" x="334.99" y="-216" font-family="Helvetica,sans-Serif" font-size="10.00">include/proxsuite/proxqp</text>
<text text-anchor="middle" x="395.49" y="-205" font-family="Helvetica,sans-Serif" font-size="10.00">/dense/linesearch.hpp</text>
</a>
</g>
</g>
<!-- Node7&#45;&gt;Node8 -->
<g id="edge7" class="edge">
<title>Node7&#45;&gt;Node8</title>
<path fill="none" stroke="#63b8ff" d="M393.02,-253.54C393.55,-244.96 394.14,-235.61 394.6,-228.16"/>
<polygon fill="#63b8ff" stroke="#63b8ff" points="389.51,-253.6 392.38,-263.8 396.49,-254.03 389.51,-253.6"/>
</g>
<!-- Node9 -->
<g id="node9" class="node">
<title>Node9</title>
<g id="a_node9"><a xlink:href="dense_2utils_8hpp.html" target="_top" xlink:title=" ">
<polygon fill="white" stroke="#666666" points="308.99,-228 171.99,-228 171.99,-198 308.99,-198 308.99,-228"/>
<text text-anchor="start" x="179.99" y="-216" font-family="Helvetica,sans-Serif" font-size="10.00">include/proxsuite/proxqp</text>
<text text-anchor="middle" x="240.49" y="-205" font-family="Helvetica,sans-Serif" font-size="10.00">/dense/utils.hpp</text>
</a>
</g>
</g>
<!-- Node7&#45;&gt;Node9 -->
<g id="edge9" class="edge">
<title>Node7&#45;&gt;Node9</title>
<path fill="none" stroke="#63b8ff" d="M348.83,-259.92C324.96,-249.8 295.66,-237.38 273.55,-228.01"/>
<polygon fill="#63b8ff" stroke="#63b8ff" points="347.78,-263.28 358.35,-263.95 350.51,-256.83 347.78,-263.28"/>
</g>
<!-- Node8&#45;&gt;Node4 -->
<g id="edge8" class="edge">
<title>Node8&#45;&gt;Node4</title>
<path fill="none" stroke="#63b8ff" d="M352.02,-194.05C327.47,-183.91 297.22,-171.43 274.42,-162.01"/>
<polygon fill="#63b8ff" stroke="#63b8ff" points="350.89,-197.37 361.47,-197.95 353.56,-190.9 350.89,-197.37"/>
</g>
<!-- Node9&#45;&gt;Node4 -->
<g id="edge10" class="edge">
<title>Node9&#45;&gt;Node4</title>
<path fill="none" stroke="#63b8ff" d="M240.49,-187.54C240.49,-178.96 240.49,-169.61 240.49,-162.16"/>
<polygon fill="#63b8ff" stroke="#63b8ff" points="236.99,-187.8 240.49,-197.8 243.99,-187.8 236.99,-187.8"/>
</g>
<!-- Node10&#45;&gt;Node3 -->
<g id="edge12" class="edge">
<title>Node10&#45;&gt;Node3</title>
<path fill="none" stroke="#63b8ff" d="M391.49,-385.54C391.49,-376.96 391.49,-367.61 391.49,-360.16"/>
<polygon fill="#63b8ff" stroke="#63b8ff" points="387.99,-385.8 391.49,-395.8 394.99,-385.8 387.99,-385.8"/>
</g>
<!-- Node11&#45;&gt;Node3 -->
<g id="edge15" class="edge">
<title>Node11&#45;&gt;Node3</title>
<path fill="none" stroke="#63b8ff" d="M254.24,-392.72C284.36,-382.47 322.06,-369.63 350.33,-360.01"/>
<polygon fill="#63b8ff" stroke="#63b8ff" points="253.08,-389.42 244.74,-395.95 255.34,-396.05 253.08,-389.42"/>
</g>
<!-- Node12&#45;&gt;Node3 -->
<g id="edge17" class="edge">
<title>Node12&#45;&gt;Node3</title>
<path fill="none" stroke="#63b8ff" d="M298.65,-451.51C300.5,-434.62 305.12,-412.34 316.49,-396 327.3,-380.46 344.65,-368.44 359.94,-360.08"/>
<polygon fill="#63b8ff" stroke="#63b8ff" points="295.14,-451.47 297.79,-461.72 302.11,-452.05 295.14,-451.47"/>
</g>
<!-- Node12&#45;&gt;Node10 -->
<g id="edge18" class="edge">
<title>Node12&#45;&gt;Node10</title>
<path fill="none" stroke="#63b8ff" d="M326.82,-456.03C341.05,-446.34 357.8,-434.94 370.68,-426.16"/>
<polygon fill="#63b8ff" stroke="#63b8ff" points="324.65,-453.28 318.35,-461.8 328.58,-459.06 324.65,-453.28"/>
</g>
<!-- Node13&#45;&gt;Node5 -->
<g id="edge24" class="edge">
<title>Node13&#45;&gt;Node5</title>
<path fill="none" stroke="#63b8ff" d="M41.74,-259.33C28.21,-251.76 15.23,-241.53 7.49,-228 -19.76,-180.35 37.07,-122.53 67.68,-96.24"/>
<polygon fill="#63b8ff" stroke="#63b8ff" points="40.16,-262.45 50.65,-263.93 43.37,-256.23 40.16,-262.45"/>
</g>
<!-- Node13&#45;&gt;Node9 -->
<g id="edge23" class="edge">
<title>Node13&#45;&gt;Node9</title>
<path fill="none" stroke="#63b8ff" d="M134.3,-259.92C157.69,-249.8 186.41,-237.38 208.08,-228.01"/>
<polygon fill="#63b8ff" stroke="#63b8ff" points="132.76,-256.77 124.97,-263.95 135.53,-263.2 132.76,-256.77"/>
</g>
<!-- Node14 -->
<g id="node14" class="node">
<title>Node14</title>
<g id="a_node14"><a xlink:href="dense_2helpers_8hpp.html" target="_top" xlink:title=" ">
<polygon fill="white" stroke="#666666" points="153.99,-228 16.99,-228 16.99,-198 153.99,-198 153.99,-228"/>
<text text-anchor="start" x="24.99" y="-216" font-family="Helvetica,sans-Serif" font-size="10.00">include/proxsuite/proxqp</text>
<text text-anchor="middle" x="85.49" y="-205" font-family="Helvetica,sans-Serif" font-size="10.00">/dense/helpers.hpp</text>
</a>
</g>
</g>
<!-- Node13&#45;&gt;Node14 -->
<g id="edge20" class="edge">
<title>Node13&#45;&gt;Node14</title>
<path fill="none" stroke="#63b8ff" d="M89.84,-253.83C88.9,-245.17 87.86,-235.7 87.04,-228.16"/>
<polygon fill="#63b8ff" stroke="#63b8ff" points="86.37,-254.24 90.93,-263.8 93.33,-253.48 86.37,-254.24"/>
</g>
<!-- Node14&#45;&gt;Node4 -->
<g id="edge21" class="edge">
<title>Node14&#45;&gt;Node4</title>
<path fill="none" stroke="#63b8ff" d="M128.95,-194.05C153.51,-183.91 183.75,-171.43 206.55,-162.01"/>
<polygon fill="#63b8ff" stroke="#63b8ff" points="127.41,-190.9 119.5,-197.95 130.08,-197.37 127.41,-190.9"/>
</g>
<!-- Node14&#45;&gt;Node5 -->
<g id="edge22" class="edge">
<title>Node14&#45;&gt;Node5</title>
<path fill="none" stroke="#63b8ff" d="M85.49,-187.68C85.49,-160.7 85.49,-118.11 85.49,-96.14"/>
<polygon fill="#63b8ff" stroke="#63b8ff" points="81.99,-187.84 85.49,-197.84 88.99,-187.84 81.99,-187.84"/>
</g>
<!-- Node16 -->
<g id="node16" class="node">
<title>Node16</title>
<g id="a_node16"><a xlink:href="sparse_2wrapper_8hpp.html" target="_top" xlink:title=" ">
<polygon fill="white" stroke="#666666" points="792.99,-228 655.99,-228 655.99,-198 792.99,-198 792.99,-228"/>
<text text-anchor="start" x="663.99" y="-216" font-family="Helvetica,sans-Serif" font-size="10.00">include/proxsuite/proxqp</text>
<text text-anchor="middle" x="724.49" y="-205" font-family="Helvetica,sans-Serif" font-size="10.00">/sparse/wrapper.hpp</text>
</a>
</g>
</g>
<!-- Node15&#45;&gt;Node16 -->
<g id="edge26" class="edge">
<title>Node15&#45;&gt;Node16</title>
<path fill="none" stroke="#63b8ff" d="M724.49,-253.54C724.49,-244.96 724.49,-235.61 724.49,-228.16"/>
<polygon fill="#63b8ff" stroke="#63b8ff" points="720.99,-253.8 724.49,-263.8 727.99,-253.8 720.99,-253.8"/>
</g>
<!-- Node17 -->
<g id="node17" class="node">
<title>Node17</title>
<g id="a_node17"><a xlink:href="sparse_8hpp.html" target="_top" xlink:title=" ">
<polygon fill="white" stroke="#666666" points="792.99,-162 655.99,-162 655.99,-132 792.99,-132 792.99,-162"/>
<text text-anchor="start" x="663.99" y="-150" font-family="Helvetica,sans-Serif" font-size="10.00">include/proxsuite/proxqp</text>
<text text-anchor="middle" x="724.49" y="-139" font-family="Helvetica,sans-Serif" font-size="10.00">/sparse/sparse.hpp</text>
</a>
</g>
</g>
<!-- Node16&#45;&gt;Node17 -->
<g id="edge27" class="edge">
<title>Node16&#45;&gt;Node17</title>
<path fill="none" stroke="#63b8ff" d="M724.49,-187.54C724.49,-178.96 724.49,-169.61 724.49,-162.16"/>
<polygon fill="#63b8ff" stroke="#63b8ff" points="720.99,-187.8 724.49,-197.8 727.99,-187.8 720.99,-187.8"/>
</g>
<!-- Node18&#45;&gt;Node15 -->
<g id="edge29" class="edge">
<title>Node18&#45;&gt;Node15</title>
<path fill="none" stroke="#63b8ff" d="M764.59,-386.39C754.44,-359.46 738.17,-316.31 729.82,-294.14"/>
<polygon fill="#63b8ff" stroke="#63b8ff" points="761.35,-387.72 768.15,-395.84 767.9,-385.25 761.35,-387.72"/>
</g>
<!-- Node18&#45;&gt;Node19 -->
<g id="edge30" class="edge">
<title>Node18&#45;&gt;Node19</title>
<path fill="none" stroke="#63b8ff" d="M721.12,-392.72C690.03,-382.47 651.13,-369.63 621.96,-360.01"/>
<polygon fill="#63b8ff" stroke="#63b8ff" points="720.32,-396.15 730.91,-395.95 722.51,-389.5 720.32,-396.15"/>
</g>
<!-- Node19&#45;&gt;Node15 -->
<g id="edge31" class="edge">
<title>Node19&#45;&gt;Node15</title>
<path fill="none" stroke="#63b8ff" d="M620.76,-325.78C643.62,-315.69 671.6,-303.34 692.74,-294.01"/>
<polygon fill="#63b8ff" stroke="#63b8ff" points="619.04,-322.71 611.31,-329.95 621.87,-329.12 619.04,-322.71"/>
</g>
<!-- Node20&#45;&gt;Node15 -->
<g id="edge33" class="edge">
<title>Node20&#45;&gt;Node15</title>
<path fill="none" stroke="#63b8ff" d="M682.33,-452.16C692.42,-410.93 712.84,-327.55 721,-294.23"/>
<polygon fill="#63b8ff" stroke="#63b8ff" points="678.92,-451.36 679.94,-461.9 685.72,-453.02 678.92,-451.36"/>
</g>
<!-- Node20&#45;&gt;Node18 -->
<g id="edge34" class="edge">
<title>Node20&#45;&gt;Node18</title>
<path fill="none" stroke="#63b8ff" d="M706.76,-456.03C721.44,-446.34 738.72,-434.94 752.02,-426.16"/>
<polygon fill="#63b8ff" stroke="#63b8ff" points="704.43,-453.37 698.01,-461.8 708.29,-459.21 704.43,-453.37"/>
</g>
<!-- Node20&#45;&gt;Node19 -->
<g id="edge35" class="edge">
<title>Node20&#45;&gt;Node19</title>
<path fill="none" stroke="#63b8ff" d="M659.92,-453.8C639.92,-426.99 606.87,-382.7 590.04,-360.14"/>
<polygon fill="#63b8ff" stroke="#63b8ff" points="657.14,-455.92 665.92,-461.84 662.75,-451.73 657.14,-455.92"/>
</g>
</g>
</svg>
