<?xml version="1.0" encoding="UTF-8" standalone="no"?>
<!DOCTYPE svg PUBLIC "-//W3C//DTD SVG 1.1//EN"
 "http://www.w3.org/Graphics/SVG/1.1/DTD/svg11.dtd">
<!-- Generated by graphviz version 5.0.1 (20220821.0811)
 -->
<!-- Title: include/proxsuite/proxqp/dense/preconditioner/identity.hpp Pages: 1 -->
<svg width="1410pt" height="698pt"
 viewBox="0.00 0.00 1410.00 698.00" xmlns="http://www.w3.org/2000/svg" xmlns:xlink="http://www.w3.org/1999/xlink">
<g id="graph0" class="graph" transform="scale(1 1) rotate(0) translate(4 694)">
<title>include/proxsuite/proxqp/dense/preconditioner/identity.hpp</title>
<!-- Node1 -->
<g id="node1" class="node">
<title>Node1</title>
<g id="a_node1"><a xlink:title=" ">
<polygon fill="#bfbfbf" stroke="black" points="1160.5,-659.5 1160.5,-689.5 1342.5,-689.5 1342.5,-659.5 1160.5,-659.5"/>
<text text-anchor="start" x="1168.5" y="-677.5" font-family="Helvetica,sans-Serif" font-size="10.00">include/proxsuite/proxqp</text>
<text text-anchor="middle" x="1251.5" y="-666.5" font-family="Helvetica,sans-Serif" font-size="10.00">/dense/preconditioner/identity.hpp</text>
</a>
</g>
</g>
<!-- Node2 -->
<g id="node2" class="node">
<title>Node2</title>
<g id="a_node2"><a xlink:href="dense_2views_8hpp.html" target="_top" xlink:title=" ">
<polygon fill="none" stroke="black" points="1186,-592.5 1186,-622.5 1317,-622.5 1317,-592.5 1186,-592.5"/>
<text text-anchor="start" x="1194" y="-610.5" font-family="Helvetica,sans-Serif" font-size="10.00">proxsuite/proxqp/dense</text>
<text text-anchor="middle" x="1251.5" y="-599.5" font-family="Helvetica,sans-Serif" font-size="10.00">/views.hpp</text>
</a>
</g>
</g>
<!-- Node1&#45;&gt;Node2 -->
<g id="edge1" class="edge">
<title>Node1&#45;&gt;Node2</title>
<path fill="none" stroke="midnightblue" d="M1251.5,-659.4C1251.5,-651.64 1251.5,-641.81 1251.5,-632.86"/>
<polygon fill="midnightblue" stroke="midnightblue" points="1255,-632.58 1251.5,-622.58 1248,-632.58 1255,-632.58"/>
</g>
<!-- Node3 -->
<g id="node3" class="node">
<title>Node3</title>
<g id="a_node3"><a xlink:href="veg_2type__traits_2core_8hpp.html" target="_top" xlink:title=" ">
<polygon fill="none" stroke="black" points="747,-257.5 747,-287.5 864,-287.5 864,-257.5 747,-257.5"/>
<text text-anchor="start" x="755" y="-275.5" font-family="Helvetica,sans-Serif" font-size="10.00">proxsuite/linalg/veg</text>
<text text-anchor="middle" x="805.5" y="-264.5" font-family="Helvetica,sans-Serif" font-size="10.00">/type_traits/core.hpp</text>
</a>
</g>
</g>
<!-- Node2&#45;&gt;Node3 -->
<g id="edge2" class="edge">
<title>Node2&#45;&gt;Node3</title>
<path fill="none" stroke="midnightblue" d="M1185.8,-604.13C1042.28,-597.18 713.5,-570.73 713.5,-474.5 713.5,-474.5 713.5,-474.5 713.5,-405.5 713.5,-368.31 711.58,-354.75 732.5,-324 741.16,-311.27 754.19,-300.78 766.85,-292.72"/>
<polygon fill="midnightblue" stroke="midnightblue" points="768.72,-295.68 775.49,-287.54 765.12,-289.68 768.72,-295.68"/>
</g>
<!-- Node14 -->
<g id="node14" class="node">
<title>Node14</title>
<g id="a_node14"><a xlink:href="util_2dbg_8hpp.html" target="_top" xlink:title=" ">
<polygon fill="none" stroke="black" points="1056,-525.5 1056,-555.5 1169,-555.5 1169,-525.5 1056,-525.5"/>
<text text-anchor="start" x="1064" y="-543.5" font-family="Helvetica,sans-Serif" font-size="10.00">proxsuite/linalg/veg</text>
<text text-anchor="middle" x="1112.5" y="-532.5" font-family="Helvetica,sans-Serif" font-size="10.00">/util/dbg.hpp</text>
</a>
</g>
</g>
<!-- Node2&#45;&gt;Node14 -->
<g id="edge19" class="edge">
<title>Node2&#45;&gt;Node14</title>
<path fill="none" stroke="midnightblue" d="M1221.34,-592.4C1200.94,-582.86 1173.8,-570.16 1151.72,-559.84"/>
<polygon fill="midnightblue" stroke="midnightblue" points="1153.14,-556.64 1142.6,-555.58 1150.18,-562.98 1153.14,-556.64"/>
</g>
<!-- Node17 -->
<g id="node17" class="node">
<title>Node17</title>
<g id="a_node17"><a xlink:title=" ">
<polygon fill="none" stroke="#bfbfbf" points="1169,-263 1169,-282 1238,-282 1238,-263 1169,-263"/>
<text text-anchor="middle" x="1203.5" y="-270" font-family="Helvetica,sans-Serif" font-size="10.00">type_traits</text>
</a>
</g>
</g>
<!-- Node2&#45;&gt;Node17 -->
<g id="edge56" class="edge">
<title>Node2&#45;&gt;Node17</title>
<path fill="none" stroke="midnightblue" d="M1261.47,-592.21C1276.82,-568.78 1304.5,-520.19 1304.5,-474.5 1304.5,-474.5 1304.5,-474.5 1304.5,-405.5 1304.5,-353.98 1255.38,-310.12 1225.65,-288.29"/>
<polygon fill="midnightblue" stroke="midnightblue" points="1227.3,-285.18 1217.12,-282.24 1223.25,-290.89 1227.3,-285.18"/>
</g>
<!-- Node26 -->
<g id="node26" class="node">
<title>Node26</title>
<g id="a_node26"><a xlink:title=" ">
<polygon fill="none" stroke="#bfbfbf" points="1226.5,-397 1226.5,-416 1276.5,-416 1276.5,-397 1226.5,-397"/>
<text text-anchor="middle" x="1251.5" y="-404" font-family="Helvetica,sans-Serif" font-size="10.00">cstring</text>
</a>
</g>
</g>
<!-- Node2&#45;&gt;Node26 -->
<g id="edge55" class="edge">
<title>Node2&#45;&gt;Node26</title>
<path fill="none" stroke="midnightblue" d="M1251.5,-592.19C1251.5,-556.99 1251.5,-466.17 1251.5,-426.51"/>
<polygon fill="midnightblue" stroke="midnightblue" points="1255,-426.36 1251.5,-416.36 1248,-426.36 1255,-426.36"/>
</g>
<!-- Node28 -->
<g id="node28" class="node">
<title>Node28</title>
<g id="a_node28"><a xlink:title=" ">
<polygon fill="none" stroke="#bfbfbf" points="1333,-531 1333,-550 1402,-550 1402,-531 1333,-531"/>
<text text-anchor="middle" x="1367.5" y="-538" font-family="Helvetica,sans-Serif" font-size="10.00">Eigen/Core</text>
</a>
</g>
</g>
<!-- Node2&#45;&gt;Node28 -->
<g id="edge57" class="edge">
<title>Node2&#45;&gt;Node28</title>
<path fill="none" stroke="midnightblue" d="M1276.67,-592.4C1296.48,-581.29 1323.92,-565.92 1343.44,-554.98"/>
<polygon fill="midnightblue" stroke="midnightblue" points="1345.31,-557.95 1352.32,-550.01 1341.88,-551.84 1345.31,-557.95"/>
</g>
<!-- Node4 -->
<g id="node4" class="node">
<title>Node4</title>
<g id="a_node4"><a xlink:href="typedefs_8hpp.html" target="_top" xlink:title=" ">
<polygon fill="none" stroke="black" points="116.5,-56.5 116.5,-86.5 240.5,-86.5 240.5,-56.5 116.5,-56.5"/>
<text text-anchor="start" x="124.5" y="-74.5" font-family="Helvetica,sans-Serif" font-size="10.00">proxsuite/linalg/veg</text>
<text text-anchor="middle" x="178.5" y="-63.5" font-family="Helvetica,sans-Serif" font-size="10.00">/internal/typedefs.hpp</text>
</a>
</g>
</g>
<!-- Node3&#45;&gt;Node4 -->
<g id="edge3" class="edge">
<title>Node3&#45;&gt;Node4</title>
<path fill="none" stroke="midnightblue" d="M746.87,-262.87C606.23,-241.75 258.25,-186.78 216.5,-154 198.45,-139.83 188.6,-115.07 183.49,-96.55"/>
<polygon fill="midnightblue" stroke="midnightblue" points="186.86,-95.61 181.05,-86.75 180.07,-97.3 186.86,-95.61"/>
</g>
<!-- Node7 -->
<g id="node7" class="node">
<title>Node7</title>
<g id="a_node7"><a xlink:href="integer__seq_8hpp.html" target="_top" xlink:title=" ">
<polygon fill="none" stroke="black" points="632.5,-190.5 632.5,-220.5 770.5,-220.5 770.5,-190.5 632.5,-190.5"/>
<text text-anchor="start" x="640.5" y="-208.5" font-family="Helvetica,sans-Serif" font-size="10.00">proxsuite/linalg/veg</text>
<text text-anchor="middle" x="701.5" y="-197.5" font-family="Helvetica,sans-Serif" font-size="10.00">/internal/integer_seq.hpp</text>
</a>
</g>
</g>
<!-- Node3&#45;&gt;Node7 -->
<g id="edge6" class="edge">
<title>Node3&#45;&gt;Node7</title>
<path fill="none" stroke="midnightblue" d="M782.93,-257.4C768.21,-248.2 748.81,-236.07 732.63,-225.95"/>
<polygon fill="midnightblue" stroke="midnightblue" points="734.36,-222.91 724.02,-220.58 730.65,-228.84 734.36,-222.91"/>
</g>
<!-- Node11 -->
<g id="node11" class="node">
<title>Node11</title>
<g id="a_node11"><a xlink:href="prologue_8hpp.html" target="_top" xlink:title=" ">
<polygon fill="none" stroke="black" points="696.5,-56.5 696.5,-86.5 820.5,-86.5 820.5,-56.5 696.5,-56.5"/>
<text text-anchor="start" x="704.5" y="-74.5" font-family="Helvetica,sans-Serif" font-size="10.00">proxsuite/linalg/veg</text>
<text text-anchor="middle" x="758.5" y="-63.5" font-family="Helvetica,sans-Serif" font-size="10.00">/internal/prologue.hpp</text>
</a>
</g>
</g>
<!-- Node3&#45;&gt;Node11 -->
<g id="edge17" class="edge">
<title>Node3&#45;&gt;Node11</title>
<path fill="none" stroke="midnightblue" d="M802.12,-257.19C794.14,-223.41 774.07,-138.44 764.19,-96.57"/>
<polygon fill="midnightblue" stroke="midnightblue" points="767.55,-95.61 761.85,-86.68 760.74,-97.22 767.55,-95.61"/>
</g>
<!-- Node13 -->
<g id="node13" class="node">
<title>Node13</title>
<g id="a_node13"><a xlink:href="epilogue_8hpp.html" target="_top" xlink:title=" ">
<polygon fill="none" stroke="black" points="908,-56.5 908,-86.5 1031,-86.5 1031,-56.5 908,-56.5"/>
<text text-anchor="start" x="916" y="-74.5" font-family="Helvetica,sans-Serif" font-size="10.00">proxsuite/linalg/veg</text>
<text text-anchor="middle" x="969.5" y="-63.5" font-family="Helvetica,sans-Serif" font-size="10.00">/internal/epilogue.hpp</text>
</a>
</g>
</g>
<!-- Node3&#45;&gt;Node13 -->
<g id="edge18" class="edge">
<title>Node3&#45;&gt;Node13</title>
<path fill="none" stroke="midnightblue" d="M836.53,-257.46C853.37,-248.73 873.7,-236.26 888.5,-221 924.32,-184.07 949.05,-128.13 961.09,-96.51"/>
<polygon fill="midnightblue" stroke="midnightblue" points="964.5,-97.37 964.69,-86.77 957.94,-94.94 964.5,-97.37"/>
</g>
<!-- Node5 -->
<g id="node5" class="node">
<title>Node5</title>
<g id="a_node5"><a xlink:title=" ">
<polygon fill="none" stroke="#bfbfbf" points="22.5,-0.5 22.5,-19.5 72.5,-19.5 72.5,-0.5 22.5,-0.5"/>
<text text-anchor="middle" x="47.5" y="-7.5" font-family="Helvetica,sans-Serif" font-size="10.00">cstdint</text>
</a>
</g>
</g>
<!-- Node4&#45;&gt;Node5 -->
<g id="edge4" class="edge">
<title>Node4&#45;&gt;Node5</title>
<path fill="none" stroke="midnightblue" d="M147.45,-56.4C125.77,-46.55 97.04,-33.5 75.95,-23.92"/>
<polygon fill="midnightblue" stroke="midnightblue" points="77.11,-20.61 66.56,-19.66 74.22,-26.98 77.11,-20.61"/>
</g>
<!-- Node6 -->
<g id="node6" class="node">
<title>Node6</title>
<g id="a_node6"><a xlink:title=" ">
<polygon fill="none" stroke="#bfbfbf" points="152,-0.5 152,-19.5 205,-19.5 205,-0.5 152,-0.5"/>
<text text-anchor="middle" x="178.5" y="-7.5" font-family="Helvetica,sans-Serif" font-size="10.00">cstddef</text>
</a>
</g>
</g>
<!-- Node4&#45;&gt;Node6 -->
<g id="edge5" class="edge">
<title>Node4&#45;&gt;Node6</title>
<path fill="none" stroke="midnightblue" d="M178.5,-56.4C178.5,-48.47 178.5,-38.46 178.5,-29.86"/>
<polygon fill="midnightblue" stroke="midnightblue" points="182,-29.66 178.5,-19.66 175,-29.66 182,-29.66"/>
</g>
<!-- Node7&#45;&gt;Node4 -->
<g id="edge7" class="edge">
<title>Node7&#45;&gt;Node4</title>
<path fill="none" stroke="midnightblue" d="M632.27,-192.02C627.61,-191.3 622.99,-190.62 618.5,-190 539.07,-179.09 331.9,-188.46 259.5,-154 231.85,-140.84 208.24,-114.16 193.76,-94.91"/>
<polygon fill="midnightblue" stroke="midnightblue" points="196.48,-92.69 187.77,-86.66 190.82,-96.81 196.48,-92.69"/>
</g>
<!-- Node8 -->
<g id="node8" class="node">
<title>Node8</title>
<g id="a_node8"><a xlink:href="macros_8hpp.html" target="_top" xlink:title=" ">
<polygon fill="none" stroke="black" points="269,-123.5 269,-153.5 386,-153.5 386,-123.5 269,-123.5"/>
<text text-anchor="start" x="277" y="-141.5" font-family="Helvetica,sans-Serif" font-size="10.00">proxsuite/linalg/veg</text>
<text text-anchor="middle" x="327.5" y="-130.5" font-family="Helvetica,sans-Serif" font-size="10.00">/internal/macros.hpp</text>
</a>
</g>
</g>
<!-- Node7&#45;&gt;Node8 -->
<g id="edge8" class="edge">
<title>Node7&#45;&gt;Node8</title>
<path fill="none" stroke="midnightblue" d="M632.21,-192.39C627.57,-191.58 622.97,-190.78 618.5,-190 542.33,-176.74 454.94,-161.58 395.97,-151.36"/>
<polygon fill="midnightblue" stroke="midnightblue" points="396.48,-147.9 386.03,-149.64 395.28,-154.79 396.48,-147.9"/>
</g>
<!-- Node7&#45;&gt;Node11 -->
<g id="edge15" class="edge">
<title>Node7&#45;&gt;Node11</title>
<path fill="none" stroke="midnightblue" d="M699.89,-190.21C698.6,-173.33 698.43,-144.78 708.5,-123 713.71,-111.74 722.54,-101.53 731.34,-93.29"/>
<polygon fill="midnightblue" stroke="midnightblue" points="733.78,-95.81 738.98,-86.58 729.16,-90.55 733.78,-95.81"/>
</g>
<!-- Node7&#45;&gt;Node13 -->
<g id="edge16" class="edge">
<title>Node7&#45;&gt;Node13</title>
<path fill="none" stroke="midnightblue" d="M729.93,-190.5C778.47,-166.59 877.36,-117.88 931.68,-91.13"/>
<polygon fill="midnightblue" stroke="midnightblue" points="933.54,-94.11 940.96,-86.56 930.44,-87.84 933.54,-94.11"/>
</g>
<!-- Node8&#45;&gt;Node4 -->
<g id="edge10" class="edge">
<title>Node8&#45;&gt;Node4</title>
<path fill="none" stroke="midnightblue" d="M295.17,-123.4C273.2,-113.81 243.94,-101.05 220.22,-90.7"/>
<polygon fill="midnightblue" stroke="midnightblue" points="221.33,-87.37 210.77,-86.58 218.53,-93.78 221.33,-87.37"/>
</g>
<!-- Node9 -->
<g id="node9" class="node">
<title>Node9</title>
<g id="a_node9"><a xlink:href="hedley_8ext_8hpp.html" target="_top" xlink:title=" ">
<polygon fill="none" stroke="black" points="420,-56.5 420,-86.5 595,-86.5 595,-56.5 420,-56.5"/>
<text text-anchor="start" x="428" y="-74.5" font-family="Helvetica,sans-Serif" font-size="10.00">proxsuite/linalg/veg</text>
<text text-anchor="middle" x="507.5" y="-63.5" font-family="Helvetica,sans-Serif" font-size="10.00">/internal/external/hedley.ext.hpp</text>
</a>
</g>
</g>
<!-- Node8&#45;&gt;Node9 -->
<g id="edge9" class="edge">
<title>Node8&#45;&gt;Node9</title>
<path fill="none" stroke="midnightblue" d="M366.56,-123.4C393.68,-113.6 430.01,-100.48 459,-90.02"/>
<polygon fill="midnightblue" stroke="midnightblue" points="460.3,-93.26 468.52,-86.58 457.92,-86.68 460.3,-93.26"/>
</g>
<!-- Node10 -->
<g id="node10" class="node">
<title>Node10</title>
<g id="a_node10"><a xlink:href="preprocessor_8hpp.html" target="_top" xlink:title=" ">
<polygon fill="none" stroke="black" points="259,-56.5 259,-86.5 402,-86.5 402,-56.5 259,-56.5"/>
<text text-anchor="start" x="267" y="-74.5" font-family="Helvetica,sans-Serif" font-size="10.00">proxsuite/linalg/veg</text>
<text text-anchor="middle" x="330.5" y="-63.5" font-family="Helvetica,sans-Serif" font-size="10.00">/internal/preprocessor.hpp</text>
</a>
</g>
</g>
<!-- Node8&#45;&gt;Node10 -->
<g id="edge11" class="edge">
<title>Node8&#45;&gt;Node10</title>
<path fill="none" stroke="midnightblue" d="M328.15,-123.4C328.51,-115.64 328.96,-105.81 329.38,-96.86"/>
<polygon fill="midnightblue" stroke="midnightblue" points="332.89,-96.73 329.85,-86.58 325.89,-96.4 332.89,-96.73"/>
</g>
<!-- Node8&#45;&gt;Node11 -->
<g id="edge12" class="edge">
<title>Node8&#45;&gt;Node11</title>
<path fill="none" stroke="midnightblue" d="M386,-125.5C390.9,-124.61 395.78,-123.76 400.5,-123 523.75,-103.03 558.32,-107.42 685.94,-87"/>
<polygon fill="midnightblue" stroke="midnightblue" points="686.8,-90.41 696.11,-85.36 685.68,-83.5 686.8,-90.41"/>
</g>
<!-- Node12 -->
<g id="node12" class="node">
<title>Node12</title>
<g id="a_node12"><a xlink:title=" ">
<polygon fill="none" stroke="#bfbfbf" points="15,-62 15,-81 98,-81 98,-62 15,-62"/>
<text text-anchor="middle" x="56.5" y="-69" font-family="Helvetica,sans-Serif" font-size="10.00">initializer_list</text>
</a>
</g>
</g>
<!-- Node8&#45;&gt;Node12 -->
<g id="edge13" class="edge">
<title>Node8&#45;&gt;Node12</title>
<path fill="none" stroke="midnightblue" d="M268.94,-124.92C224.5,-115.16 161.97,-100.98 107.5,-87 103.6,-86 99.54,-84.92 95.5,-83.81"/>
<polygon fill="midnightblue" stroke="midnightblue" points="96.13,-80.35 85.56,-81.04 94.25,-87.1 96.13,-80.35"/>
</g>
<!-- Node8&#45;&gt;Node13 -->
<g id="edge14" class="edge">
<title>Node8&#45;&gt;Node13</title>
<path fill="none" stroke="midnightblue" d="M386.03,-129.01C401.46,-126.91 418.09,-124.75 433.5,-123 609.09,-103.02 653.6,-104.1 829.5,-87 851.65,-84.85 875.76,-82.39 897.63,-80.12"/>
<polygon fill="midnightblue" stroke="midnightblue" points="898.25,-83.57 907.84,-79.06 897.53,-76.61 898.25,-83.57"/>
</g>
<!-- Node15 -->
<g id="node15" class="node">
<title>Node15</title>
<g id="a_node15"><a xlink:href="internal_2dbg_8hpp.html" target="_top" xlink:title=" ">
<polygon fill="none" stroke="black" points="1002,-458.5 1002,-488.5 1115,-488.5 1115,-458.5 1002,-458.5"/>
<text text-anchor="start" x="1010" y="-476.5" font-family="Helvetica,sans-Serif" font-size="10.00">proxsuite/linalg/veg</text>
<text text-anchor="middle" x="1058.5" y="-465.5" font-family="Helvetica,sans-Serif" font-size="10.00">/internal/dbg.hpp</text>
</a>
</g>
</g>
<!-- Node14&#45;&gt;Node15 -->
<g id="edge20" class="edge">
<title>Node14&#45;&gt;Node15</title>
<path fill="none" stroke="midnightblue" d="M1100.78,-525.4C1093.78,-516.96 1084.73,-506.07 1076.79,-496.52"/>
<polygon fill="midnightblue" stroke="midnightblue" points="1079.28,-494.03 1070.19,-488.58 1073.89,-498.51 1079.28,-494.03"/>
</g>
<!-- Node15&#45;&gt;Node11 -->
<g id="edge51" class="edge">
<title>Node15&#45;&gt;Node11</title>
<path fill="none" stroke="midnightblue" d="M1001.91,-472.85C844.77,-472.3 414.5,-459.91 414.5,-340.5 414.5,-340.5 414.5,-340.5 414.5,-204.5 414.5,-167.31 406.07,-148.12 433.5,-123 475.38,-84.64 630.53,-96.61 686.5,-87 686.6,-86.98 686.7,-86.96 686.81,-86.95"/>
<polygon fill="midnightblue" stroke="midnightblue" points="687.26,-90.42 696.49,-85.22 686.03,-83.53 687.26,-90.42"/>
</g>
<!-- Node15&#45;&gt;Node13 -->
<g id="edge54" class="edge">
<title>Node15&#45;&gt;Node13</title>
<path fill="none" stroke="midnightblue" d="M1098.3,-458.47C1141.76,-441.06 1210.14,-407.13 1247.5,-355 1269.17,-324.77 1266.5,-310.69 1266.5,-273.5 1266.5,-273.5 1266.5,-273.5 1266.5,-204.5 1266.5,-106.26 1129.13,-80.59 1041.23,-74.22"/>
<polygon fill="midnightblue" stroke="midnightblue" points="1041.25,-70.72 1031.04,-73.55 1040.79,-77.7 1041.25,-70.72"/>
</g>
<!-- Node16 -->
<g id="node16" class="node">
<title>Node16</title>
<g id="a_node16"><a xlink:href="primitives_8hpp.html" target="_top" xlink:title=" ">
<polygon fill="none" stroke="black" points="915.5,-324.5 915.5,-354.5 1061.5,-354.5 1061.5,-324.5 915.5,-324.5"/>
<text text-anchor="start" x="923.5" y="-342.5" font-family="Helvetica,sans-Serif" font-size="10.00">proxsuite/linalg/veg</text>
<text text-anchor="middle" x="988.5" y="-331.5" font-family="Helvetica,sans-Serif" font-size="10.00">/type_traits/primitives.hpp</text>
</a>
</g>
</g>
<!-- Node15&#45;&gt;Node16 -->
<g id="edge21" class="edge">
<title>Node15&#45;&gt;Node16</title>
<path fill="none" stroke="midnightblue" d="M1057.59,-458.39C1055.98,-441.43 1051.55,-412.56 1039.5,-391 1033.34,-379.98 1024.07,-369.77 1015.11,-361.46"/>
<polygon fill="midnightblue" stroke="midnightblue" points="1017.22,-358.66 1007.41,-354.67 1012.6,-363.91 1017.22,-358.66"/>
</g>
<!-- Node18 -->
<g id="node18" class="node">
<title>Node18</title>
<g id="a_node18"><a xlink:href="terminate_8hpp.html" target="_top" xlink:title=" ">
<polygon fill="none" stroke="black" points="443,-123.5 443,-153.5 572,-153.5 572,-123.5 443,-123.5"/>
<text text-anchor="start" x="451" y="-141.5" font-family="Helvetica,sans-Serif" font-size="10.00">proxsuite/linalg/veg</text>
<text text-anchor="middle" x="507.5" y="-130.5" font-family="Helvetica,sans-Serif" font-size="10.00">/internal/terminate.hpp</text>
</a>
</g>
</g>
<!-- Node15&#45;&gt;Node18 -->
<g id="edge26" class="edge">
<title>Node15&#45;&gt;Node18</title>
<path fill="none" stroke="midnightblue" d="M1001.59,-468.04C878.76,-457.18 594.91,-424.91 533.5,-355 486.04,-300.97 494.89,-207.75 502.47,-163.78"/>
<polygon fill="midnightblue" stroke="midnightblue" points="505.95,-164.19 504.34,-153.72 499.07,-162.92 505.95,-164.19"/>
</g>
<!-- Node20 -->
<g id="node20" class="node">
<title>Node20</title>
<g id="a_node20"><a xlink:href="constructible_8hpp.html" target="_top" xlink:title=" ">
<polygon fill="none" stroke="black" points="1080,-324.5 1080,-354.5 1239,-354.5 1239,-324.5 1080,-324.5"/>
<text text-anchor="start" x="1088" y="-342.5" font-family="Helvetica,sans-Serif" font-size="10.00">proxsuite/linalg/veg</text>
<text text-anchor="middle" x="1159.5" y="-331.5" font-family="Helvetica,sans-Serif" font-size="10.00">/type_traits/constructible.hpp</text>
</a>
</g>
</g>
<!-- Node15&#45;&gt;Node20 -->
<g id="edge30" class="edge">
<title>Node15&#45;&gt;Node20</title>
<path fill="none" stroke="midnightblue" d="M1069.31,-458.37C1086.85,-435.45 1121.65,-389.97 1142.52,-362.69"/>
<polygon fill="midnightblue" stroke="midnightblue" points="1145.47,-364.59 1148.77,-354.52 1139.91,-360.34 1145.47,-364.59"/>
</g>
<!-- Node21 -->
<g id="node21" class="node">
<title>Node21</title>
<g id="a_node21"><a xlink:href="ref_8hpp.html" target="_top" xlink:title=" ">
<polygon fill="none" stroke="black" points="806,-391.5 806,-421.5 919,-421.5 919,-391.5 806,-391.5"/>
<text text-anchor="start" x="814" y="-409.5" font-family="Helvetica,sans-Serif" font-size="10.00">proxsuite/linalg/veg</text>
<text text-anchor="middle" x="862.5" y="-398.5" font-family="Helvetica,sans-Serif" font-size="10.00">/ref.hpp</text>
</a>
</g>
</g>
<!-- Node15&#45;&gt;Node21 -->
<g id="edge35" class="edge">
<title>Node15&#45;&gt;Node21</title>
<path fill="none" stroke="midnightblue" d="M1015.97,-458.4C986.18,-448.52 946.18,-435.25 914.49,-424.74"/>
<polygon fill="midnightblue" stroke="midnightblue" points="915.54,-421.4 904.95,-421.58 913.34,-428.05 915.54,-421.4"/>
</g>
<!-- Node15&#45;&gt;Node26 -->
<g id="edge52" class="edge">
<title>Node15&#45;&gt;Node26</title>
<path fill="none" stroke="midnightblue" d="M1102.8,-458.48C1133.66,-448.59 1175.71,-434.86 1212.5,-422 1214.74,-421.22 1217.06,-420.39 1219.38,-419.56"/>
<polygon fill="midnightblue" stroke="midnightblue" points="1220.68,-422.81 1228.87,-416.08 1218.28,-416.23 1220.68,-422.81"/>
</g>
<!-- Node27 -->
<g id="node27" class="node">
<title>Node27</title>
<g id="a_node27"><a xlink:title=" ">
<polygon fill="none" stroke="#bfbfbf" points="984.5,-397 984.5,-416 1030.5,-416 1030.5,-397 984.5,-397"/>
<text text-anchor="middle" x="1007.5" y="-404" font-family="Helvetica,sans-Serif" font-size="10.00">cstdio</text>
</a>
</g>
</g>
<!-- Node15&#45;&gt;Node27 -->
<g id="edge53" class="edge">
<title>Node15&#45;&gt;Node27</title>
<path fill="none" stroke="midnightblue" d="M1047.43,-458.4C1039.56,-448.36 1028.95,-434.84 1020.65,-424.25"/>
<polygon fill="midnightblue" stroke="midnightblue" points="1023.25,-421.9 1014.32,-416.19 1017.74,-426.22 1023.25,-421.9"/>
</g>
<!-- Node16&#45;&gt;Node3 -->
<g id="edge22" class="edge">
<title>Node16&#45;&gt;Node3</title>
<path fill="none" stroke="midnightblue" d="M948.79,-324.4C921.21,-314.6 884.28,-301.48 854.81,-291.02"/>
<polygon fill="midnightblue" stroke="midnightblue" points="855.73,-287.63 845.13,-287.58 853.38,-294.22 855.73,-287.63"/>
</g>
<!-- Node16&#45;&gt;Node11 -->
<g id="edge23" class="edge">
<title>Node16&#45;&gt;Node11</title>
<path fill="none" stroke="midnightblue" d="M979.46,-324.45C956.06,-288.62 890.56,-191.86 822.5,-123 811.69,-112.06 798.53,-101.32 786.96,-92.57"/>
<polygon fill="midnightblue" stroke="midnightblue" points="788.99,-89.71 778.88,-86.57 784.83,-95.34 788.99,-89.71"/>
</g>
<!-- Node16&#45;&gt;Node13 -->
<g id="edge25" class="edge">
<title>Node16&#45;&gt;Node13</title>
<path fill="none" stroke="midnightblue" d="M1006.92,-324.21C1017.24,-315.07 1029.27,-302.27 1035.5,-288 1045.42,-265.3 1040.51,-123.03 1040.5,-123 1033.86,-110.13 1022.25,-99.82 1010.32,-91.96"/>
<polygon fill="midnightblue" stroke="midnightblue" points="1012.01,-88.88 1001.65,-86.66 1008.36,-94.86 1012.01,-88.88"/>
</g>
<!-- Node16&#45;&gt;Node17 -->
<g id="edge24" class="edge">
<title>Node16&#45;&gt;Node17</title>
<path fill="none" stroke="midnightblue" d="M1034.89,-324.48C1073.93,-312.67 1129.07,-296 1165.53,-284.98"/>
<polygon fill="midnightblue" stroke="midnightblue" points="1166.73,-288.27 1175.29,-282.03 1164.7,-281.57 1166.73,-288.27"/>
</g>
<!-- Node18&#45;&gt;Node11 -->
<g id="edge27" class="edge">
<title>Node18&#45;&gt;Node11</title>
<path fill="none" stroke="midnightblue" d="M561.65,-123.48C600.53,-113.41 653.08,-99.8 694.11,-89.17"/>
<polygon fill="midnightblue" stroke="midnightblue" points="695.21,-92.51 704.01,-86.61 693.45,-85.73 695.21,-92.51"/>
</g>
<!-- Node18&#45;&gt;Node13 -->
<g id="edge29" class="edge">
<title>Node18&#45;&gt;Node13</title>
<path fill="none" stroke="midnightblue" d="M572.23,-128.39C657.95,-116.33 808.67,-95.13 897.77,-82.59"/>
<polygon fill="midnightblue" stroke="midnightblue" points="898.38,-86.04 907.79,-81.18 897.4,-79.11 898.38,-86.04"/>
</g>
<!-- Node19 -->
<g id="node19" class="node">
<title>Node19</title>
<g id="a_node19"><a xlink:title=" ">
<polygon fill="none" stroke="#bfbfbf" points="613,-62 613,-81 678,-81 678,-62 613,-62"/>
<text text-anchor="middle" x="645.5" y="-69" font-family="Helvetica,sans-Serif" font-size="10.00">exception</text>
</a>
</g>
</g>
<!-- Node18&#45;&gt;Node19 -->
<g id="edge28" class="edge">
<title>Node18&#45;&gt;Node19</title>
<path fill="none" stroke="midnightblue" d="M537.44,-123.4C561.44,-112.09 594.84,-96.36 618.13,-85.39"/>
<polygon fill="midnightblue" stroke="midnightblue" points="619.88,-88.43 627.44,-81.01 616.9,-82.1 619.88,-88.43"/>
</g>
<!-- Node20&#45;&gt;Node3 -->
<g id="edge31" class="edge">
<title>Node20&#45;&gt;Node3</title>
<path fill="none" stroke="midnightblue" d="M1083.12,-324.48C1021.06,-313.08 934.29,-297.15 874.35,-286.14"/>
<polygon fill="midnightblue" stroke="midnightblue" points="874.69,-282.65 864.22,-284.28 873.43,-289.53 874.69,-282.65"/>
</g>
<!-- Node20&#45;&gt;Node11 -->
<g id="edge32" class="edge">
<title>Node20&#45;&gt;Node11</title>
<path fill="none" stroke="midnightblue" d="M1140.9,-324.37C1093.71,-288.76 965,-193.21 851.5,-123 833.44,-111.83 812.73,-100.45 795.44,-91.33"/>
<polygon fill="midnightblue" stroke="midnightblue" points="796.71,-88.04 786.23,-86.51 793.47,-94.24 796.71,-88.04"/>
</g>
<!-- Node20&#45;&gt;Node13 -->
<g id="edge34" class="edge">
<title>Node20&#45;&gt;Node13</title>
<path fill="none" stroke="midnightblue" d="M1157.57,-324.16C1153.39,-296.65 1141.8,-235.2 1116.5,-190 1096.83,-154.86 1086.77,-148.37 1055.5,-123 1040.78,-111.05 1022.91,-100.09 1007.29,-91.45"/>
<polygon fill="midnightblue" stroke="midnightblue" points="1008.85,-88.31 998.39,-86.64 1005.52,-94.47 1008.85,-88.31"/>
</g>
<!-- Node20&#45;&gt;Node17 -->
<g id="edge33" class="edge">
<title>Node20&#45;&gt;Node17</title>
<path fill="none" stroke="midnightblue" d="M1169.05,-324.4C1175.77,-314.46 1184.81,-301.11 1191.94,-290.57"/>
<polygon fill="midnightblue" stroke="midnightblue" points="1194.91,-292.44 1197.61,-282.19 1189.11,-288.51 1194.91,-292.44"/>
</g>
<!-- Node21&#45;&gt;Node11 -->
<g id="edge49" class="edge">
<title>Node21&#45;&gt;Node11</title>
<path fill="none" stroke="midnightblue" d="M805.74,-396.72C716.83,-382.91 554.55,-357.41 552.5,-355 525.44,-323.17 513.06,-251.1 642.5,-123 657.12,-108.53 676.58,-97.88 695.37,-90.21"/>
<polygon fill="midnightblue" stroke="midnightblue" points="696.74,-93.43 704.81,-86.56 694.22,-86.9 696.74,-93.43"/>
</g>
<!-- Node21&#45;&gt;Node13 -->
<g id="edge50" class="edge">
<title>Node21&#45;&gt;Node13</title>
<path fill="none" stroke="midnightblue" d="M870.05,-391.33C889.7,-354.36 941.81,-255.41 955.5,-221 966.98,-192.12 971.01,-184.75 975.5,-154 978.28,-134.95 976.43,-113.2 974.07,-96.96"/>
<polygon fill="midnightblue" stroke="midnightblue" points="977.47,-96.01 972.41,-86.7 970.56,-97.13 977.47,-96.01"/>
</g>
<!-- Node21&#45;&gt;Node20 -->
<g id="edge40" class="edge">
<title>Node21&#45;&gt;Node20</title>
<path fill="none" stroke="midnightblue" d="M919.06,-393.12C966.24,-382.8 1033.83,-368 1085.34,-356.73"/>
<polygon fill="midnightblue" stroke="midnightblue" points="1086.39,-360.08 1095.41,-354.53 1084.9,-353.24 1086.39,-360.08"/>
</g>
<!-- Node22 -->
<g id="node22" class="node">
<title>Node22</title>
<g id="a_node22"><a xlink:href="tags_8hpp.html" target="_top" xlink:title=" ">
<polygon fill="none" stroke="black" points="742,-324.5 742,-354.5 859,-354.5 859,-324.5 742,-324.5"/>
<text text-anchor="start" x="750" y="-342.5" font-family="Helvetica,sans-Serif" font-size="10.00">proxsuite/linalg/veg</text>
<text text-anchor="middle" x="800.5" y="-331.5" font-family="Helvetica,sans-Serif" font-size="10.00">/type_traits/tags.hpp</text>
</a>
</g>
</g>
<!-- Node21&#45;&gt;Node22 -->
<g id="edge36" class="edge">
<title>Node21&#45;&gt;Node22</title>
<path fill="none" stroke="midnightblue" d="M849.05,-391.4C840.84,-382.79 830.19,-371.63 820.95,-361.94"/>
<polygon fill="midnightblue" stroke="midnightblue" points="823.36,-359.4 813.93,-354.58 818.3,-364.23 823.36,-359.4"/>
</g>
<!-- Node23 -->
<g id="node23" class="node">
<title>Node23</title>
<g id="a_node23"><a xlink:href="address_8hpp.html" target="_top" xlink:title=" ">
<polygon fill="none" stroke="black" points="562,-324.5 562,-354.5 685,-354.5 685,-324.5 562,-324.5"/>
<text text-anchor="start" x="570" y="-342.5" font-family="Helvetica,sans-Serif" font-size="10.00">proxsuite/linalg/veg</text>
<text text-anchor="middle" x="623.5" y="-331.5" font-family="Helvetica,sans-Serif" font-size="10.00">/memory/address.hpp</text>
</a>
</g>
</g>
<!-- Node21&#45;&gt;Node23 -->
<g id="edge41" class="edge">
<title>Node21&#45;&gt;Node23</title>
<path fill="none" stroke="midnightblue" d="M810.93,-391.48C774,-381.43 724.09,-367.86 685.06,-357.24"/>
<polygon fill="midnightblue" stroke="midnightblue" points="685.95,-353.86 675.38,-354.61 684.12,-360.61 685.95,-353.86"/>
</g>
<!-- Node22&#45;&gt;Node3 -->
<g id="edge37" class="edge">
<title>Node22&#45;&gt;Node3</title>
<path fill="none" stroke="midnightblue" d="M801.58,-324.4C802.19,-316.56 802.95,-306.6 803.65,-297.57"/>
<polygon fill="midnightblue" stroke="midnightblue" points="807.14,-297.82 804.42,-287.58 800.16,-297.28 807.14,-297.82"/>
</g>
<!-- Node22&#45;&gt;Node11 -->
<g id="edge38" class="edge">
<title>Node22&#45;&gt;Node11</title>
<path fill="none" stroke="midnightblue" d="M833.09,-324.44C847.97,-316.16 864.12,-304.12 872.5,-288 878.86,-275.78 876.26,-270.25 872.5,-257 854.09,-192.16 805.69,-127.79 778.24,-94.94"/>
<polygon fill="midnightblue" stroke="midnightblue" points="780.56,-92.26 771.42,-86.9 775.22,-96.79 780.56,-92.26"/>
</g>
<!-- Node22&#45;&gt;Node13 -->
<g id="edge39" class="edge">
<title>Node22&#45;&gt;Node13</title>
<path fill="none" stroke="midnightblue" d="M834.96,-324.46C852.63,-315.93 873.53,-303.66 888.5,-288 934.78,-239.57 937.01,-217.78 957.5,-154 963.47,-135.41 966.49,-113.48 968,-97.05"/>
<polygon fill="midnightblue" stroke="midnightblue" points="971.52,-96.91 968.83,-86.66 964.54,-96.35 971.52,-96.91"/>
</g>
<!-- Node23&#45;&gt;Node3 -->
<g id="edge42" class="edge">
<title>Node23&#45;&gt;Node3</title>
<path fill="none" stroke="midnightblue" d="M662.99,-324.4C690.42,-314.6 727.15,-301.48 756.46,-291.02"/>
<polygon fill="midnightblue" stroke="midnightblue" points="757.85,-294.24 766.09,-287.58 755.49,-287.64 757.85,-294.24"/>
</g>
<!-- Node23&#45;&gt;Node11 -->
<g id="edge46" class="edge">
<title>Node23&#45;&gt;Node11</title>
<path fill="none" stroke="midnightblue" d="M638.38,-324.1C646.95,-314.73 656.91,-301.74 661.5,-288 665.87,-274.93 666.94,-269.66 661.5,-257 652.31,-235.63 632.69,-242.37 623.5,-221 618.06,-208.34 617.91,-202.59 623.5,-190 643.25,-145.48 689.43,-111.42 722.27,-91.71"/>
<polygon fill="midnightblue" stroke="midnightblue" points="724.27,-94.59 731.15,-86.53 720.75,-88.55 724.27,-94.59"/>
</g>
<!-- Node23&#45;&gt;Node13 -->
<g id="edge48" class="edge">
<title>Node23&#45;&gt;Node13</title>
<path fill="none" stroke="midnightblue" d="M642.31,-324.5C671.71,-302.58 730.27,-258.77 779.5,-221 838.54,-175.7 907.19,-121.71 943.65,-92.94"/>
<polygon fill="midnightblue" stroke="midnightblue" points="946.09,-95.47 951.77,-86.53 941.75,-89.98 946.09,-95.47"/>
</g>
<!-- Node24 -->
<g id="node24" class="node">
<title>Node24</title>
<g id="a_node24"><a xlink:href="std_8hpp.html" target="_top" xlink:title=" ">
<polygon fill="none" stroke="black" points="0,-123.5 0,-153.5 113,-153.5 113,-123.5 0,-123.5"/>
<text text-anchor="start" x="8" y="-141.5" font-family="Helvetica,sans-Serif" font-size="10.00">proxsuite/linalg/veg</text>
<text text-anchor="middle" x="56.5" y="-130.5" font-family="Helvetica,sans-Serif" font-size="10.00">/internal/std.hpp</text>
</a>
</g>
</g>
<!-- Node23&#45;&gt;Node24 -->
<g id="edge43" class="edge">
<title>Node23&#45;&gt;Node24</title>
<path fill="none" stroke="midnightblue" d="M583.18,-324.35C481.87,-288.79 216.89,-195.79 106.21,-156.95"/>
<polygon fill="midnightblue" stroke="midnightblue" points="107.21,-153.59 96.62,-153.58 104.89,-160.19 107.21,-153.59"/>
</g>
<!-- Node25 -->
<g id="node25" class="node">
<title>Node25</title>
<g id="a_node25"><a xlink:title=" ">
<polygon fill="none" stroke="#bfbfbf" points="594.5,-263 594.5,-282 652.5,-282 652.5,-263 594.5,-263"/>
<text text-anchor="middle" x="623.5" y="-270" font-family="Helvetica,sans-Serif" font-size="10.00">memory</text>
</a>
</g>
</g>
<!-- Node23&#45;&gt;Node25 -->
<g id="edge47" class="edge">
<title>Node23&#45;&gt;Node25</title>
<path fill="none" stroke="midnightblue" d="M623.5,-324.4C623.5,-315.06 623.5,-302.71 623.5,-292.52"/>
<polygon fill="midnightblue" stroke="midnightblue" points="627,-292.19 623.5,-282.19 620,-292.19 627,-292.19"/>
</g>
<!-- Node24&#45;&gt;Node5 -->
<g id="edge44" class="edge">
<title>Node24&#45;&gt;Node5</title>
<path fill="none" stroke="midnightblue" d="M35.87,-123.5C24.59,-114.54 11.69,-101.84 5.5,-87 0.2,-74.28 0.45,-68.82 5.5,-56 10.01,-44.55 18.97,-34.29 27.45,-26.47"/>
<polygon fill="midnightblue" stroke="midnightblue" points="29.97,-28.93 35.29,-19.76 25.41,-23.61 29.97,-28.93"/>
</g>
<!-- Node24&#45;&gt;Node12 -->
<g id="edge45" class="edge">
<title>Node24&#45;&gt;Node12</title>
<path fill="none" stroke="midnightblue" d="M56.5,-123.4C56.5,-114.06 56.5,-101.71 56.5,-91.52"/>
<polygon fill="midnightblue" stroke="midnightblue" points="60,-91.19 56.5,-81.19 53,-91.19 60,-91.19"/>
</g>
</g>
</svg>
