<?xml version="1.0" encoding="UTF-8" standalone="no"?>
<!DOCTYPE svg PUBLIC "-//W3C//DTD SVG 1.1//EN"
 "http://www.w3.org/Graphics/SVG/1.1/DTD/svg11.dtd">
<!-- Generated by graphviz version 7.0.6 (20230107.1202)
 -->
<!-- Title: include/proxsuite/linalg/dense/update.hpp Pages: 1 -->
<svg width="384pt" height="500pt"
 viewBox="0.00 0.00 384.00 500.00" xmlns="http://www.w3.org/2000/svg" xmlns:xlink="http://www.w3.org/1999/xlink">
<g id="graph0" class="graph" transform="scale(1 1) rotate(0) translate(4 496)">
<title>include/proxsuite/linalg/dense/update.hpp</title>
<!-- Node1 -->
<g id="node1" class="node">
<title>Node1</title>
<g id="a_node1"><a xlink:title=" ">
<polygon fill="#999999" stroke="#666666" points="169,-492 38,-492 38,-462 169,-462 169,-492"/>
<text text-anchor="start" x="46" y="-480" font-family="Helvetica,sans-Serif" font-size="10.00">include/proxsuite/linalg</text>
<text text-anchor="middle" x="103.5" y="-469" font-family="Helvetica,sans-Serif" font-size="10.00">/dense/update.hpp</text>
</a>
</g>
</g>
<!-- Node2 -->
<g id="node2" class="node">
<title>Node2</title>
<g id="a_node2"><a xlink:href="ldlt_8hpp.html" target="_top" xlink:title=" ">
<polygon fill="white" stroke="#666666" points="169,-360 38,-360 38,-330 169,-330 169,-360"/>
<text text-anchor="start" x="46" y="-348" font-family="Helvetica,sans-Serif" font-size="10.00">include/proxsuite/linalg</text>
<text text-anchor="middle" x="103.5" y="-337" font-family="Helvetica,sans-Serif" font-size="10.00">/dense/ldlt.hpp</text>
</a>
</g>
</g>
<!-- Node1&#45;&gt;Node2 -->
<g id="edge1" class="edge">
<title>Node1&#45;&gt;Node2</title>
<path fill="none" stroke="#63b8ff" d="M86.77,-451.93C82.19,-444.03 77.84,-434.97 75.5,-426 72.13,-413.1 72.13,-408.9 75.5,-396 78.87,-383.1 86.38,-370.01 92.78,-360.45"/>
<polygon fill="#63b8ff" stroke="#63b8ff" points="83.71,-453.64 91.97,-460.26 89.64,-449.93 83.71,-453.64"/>
</g>
<!-- Node10 -->
<g id="node10" class="node">
<title>Node10</title>
<g id="a_node10"><a xlink:href="modify_8hpp.html" target="_top" xlink:title=" ">
<polygon fill="white" stroke="#666666" points="216,-426 85,-426 85,-396 216,-396 216,-426"/>
<text text-anchor="start" x="93" y="-414" font-family="Helvetica,sans-Serif" font-size="10.00">include/proxsuite/linalg</text>
<text text-anchor="middle" x="150.5" y="-403" font-family="Helvetica,sans-Serif" font-size="10.00">/dense/modify.hpp</text>
</a>
</g>
</g>
<!-- Node1&#45;&gt;Node10 -->
<g id="edge11" class="edge">
<title>Node1&#45;&gt;Node10</title>
<path fill="none" stroke="#63b8ff" d="M120.63,-452.68C127.15,-443.79 134.38,-433.95 140.1,-426.16"/>
<polygon fill="#63b8ff" stroke="#63b8ff" points="117.92,-450.44 114.83,-460.58 123.57,-454.59 117.92,-450.44"/>
</g>
<!-- Node3 -->
<g id="node3" class="node">
<title>Node3</title>
<g id="a_node3"><a xlink:href="dense_2solver_8hpp.html" target="_top" xlink:title=" ">
<polygon fill="white" stroke="#666666" points="221,-162 84,-162 84,-132 221,-132 221,-162"/>
<text text-anchor="start" x="92" y="-150" font-family="Helvetica,sans-Serif" font-size="10.00">include/proxsuite/proxqp</text>
<text text-anchor="middle" x="152.5" y="-139" font-family="Helvetica,sans-Serif" font-size="10.00">/dense/solver.hpp</text>
</a>
</g>
</g>
<!-- Node2&#45;&gt;Node3 -->
<g id="edge2" class="edge">
<title>Node2&#45;&gt;Node3</title>
<path fill="none" stroke="#63b8ff" d="M86.18,-320.01C81.43,-312.11 76.93,-303.03 74.5,-294 63.42,-252.8 54.03,-235.44 74.5,-198 83.22,-182.05 99.44,-170.44 114.84,-162.45"/>
<polygon fill="#63b8ff" stroke="#63b8ff" points="83.2,-321.85 91.58,-328.33 89.07,-318.04 83.2,-321.85"/>
</g>
<!-- Node7 -->
<g id="node7" class="node">
<title>Node7</title>
<g id="a_node7"><a xlink:href="dense_2workspace_8hpp.html" target="_top" xlink:title=" ">
<polygon fill="white" stroke="#666666" points="221,-294 84,-294 84,-264 221,-264 221,-294"/>
<text text-anchor="start" x="92" y="-282" font-family="Helvetica,sans-Serif" font-size="10.00">include/proxsuite/proxqp</text>
<text text-anchor="middle" x="152.5" y="-271" font-family="Helvetica,sans-Serif" font-size="10.00">/dense/workspace.hpp</text>
</a>
</g>
</g>
<!-- Node2&#45;&gt;Node7 -->
<g id="edge6" class="edge">
<title>Node2&#45;&gt;Node7</title>
<path fill="none" stroke="#63b8ff" d="M121.36,-320.68C128.16,-311.79 135.7,-301.95 141.66,-294.16"/>
<polygon fill="#63b8ff" stroke="#63b8ff" points="118.59,-318.53 115.29,-328.59 124.15,-322.78 118.59,-318.53"/>
</g>
<!-- Node4 -->
<g id="node4" class="node">
<title>Node4</title>
<g id="a_node4"><a xlink:href="proxqp_2dense_2wrapper_8hpp.html" target="_top" xlink:title=" ">
<polygon fill="white" stroke="#666666" points="221,-96 84,-96 84,-66 221,-66 221,-96"/>
<text text-anchor="start" x="92" y="-84" font-family="Helvetica,sans-Serif" font-size="10.00">include/proxsuite/proxqp</text>
<text text-anchor="middle" x="152.5" y="-73" font-family="Helvetica,sans-Serif" font-size="10.00">/dense/wrapper.hpp</text>
</a>
</g>
</g>
<!-- Node3&#45;&gt;Node4 -->
<g id="edge3" class="edge">
<title>Node3&#45;&gt;Node4</title>
<path fill="none" stroke="#63b8ff" d="M152.5,-120.39C152.5,-112.13 152.5,-103.28 152.5,-96.16"/>
<polygon fill="#63b8ff" stroke="#63b8ff" points="149,-120.28 152.5,-130.28 156,-120.28 149,-120.28"/>
</g>
<!-- Node5 -->
<g id="node5" class="node">
<title>Node5</title>
<g id="a_node5"><a xlink:href="dense_8hpp.html" target="_top" xlink:title=" ">
<polygon fill="white" stroke="#666666" points="137,-30 0,-30 0,0 137,0 137,-30"/>
<text text-anchor="start" x="8" y="-18" font-family="Helvetica,sans-Serif" font-size="10.00">include/proxsuite/proxqp</text>
<text text-anchor="middle" x="68.5" y="-7" font-family="Helvetica,sans-Serif" font-size="10.00">/dense/dense.hpp</text>
</a>
</g>
</g>
<!-- Node4&#45;&gt;Node5 -->
<g id="edge4" class="edge">
<title>Node4&#45;&gt;Node5</title>
<path fill="none" stroke="#63b8ff" d="M124.9,-58.97C112.61,-49.61 98.44,-38.81 87.38,-30.39"/>
<polygon fill="#63b8ff" stroke="#63b8ff" points="122.58,-61.6 132.65,-64.88 126.82,-56.03 122.58,-61.6"/>
</g>
<!-- Node6 -->
<g id="node6" class="node">
<title>Node6</title>
<g id="a_node6"><a xlink:href="serialization_2wrapper_8hpp.html" target="_top" xlink:title=" ">
<polygon fill="white" stroke="#666666" points="319.5,-30 155.5,-30 155.5,0 319.5,0 319.5,-30"/>
<text text-anchor="start" x="163.5" y="-18" font-family="Helvetica,sans-Serif" font-size="10.00">include/proxsuite/serialization</text>
<text text-anchor="middle" x="237.5" y="-7" font-family="Helvetica,sans-Serif" font-size="10.00">/wrapper.hpp</text>
</a>
</g>
</g>
<!-- Node4&#45;&gt;Node6 -->
<g id="edge5" class="edge">
<title>Node4&#45;&gt;Node6</title>
<path fill="none" stroke="#63b8ff" d="M180.42,-58.97C192.87,-49.61 207.2,-38.81 218.39,-30.39"/>
<polygon fill="#63b8ff" stroke="#63b8ff" points="178.46,-56.07 172.57,-64.89 182.67,-61.67 178.46,-56.07"/>
</g>
<!-- Node8 -->
<g id="node8" class="node">
<title>Node8</title>
<g id="a_node8"><a xlink:href="linesearch_8hpp.html" target="_top" xlink:title=" ">
<polygon fill="white" stroke="#666666" points="221,-228 84,-228 84,-198 221,-198 221,-228"/>
<text text-anchor="start" x="92" y="-216" font-family="Helvetica,sans-Serif" font-size="10.00">include/proxsuite/proxqp</text>
<text text-anchor="middle" x="152.5" y="-205" font-family="Helvetica,sans-Serif" font-size="10.00">/dense/linesearch.hpp</text>
</a>
</g>
</g>
<!-- Node7&#45;&gt;Node8 -->
<g id="edge7" class="edge">
<title>Node7&#45;&gt;Node8</title>
<path fill="none" stroke="#63b8ff" d="M152.5,-252.39C152.5,-244.13 152.5,-235.28 152.5,-228.16"/>
<polygon fill="#63b8ff" stroke="#63b8ff" points="149,-252.28 152.5,-262.28 156,-252.28 149,-252.28"/>
</g>
<!-- Node9 -->
<g id="node9" class="node">
<title>Node9</title>
<g id="a_node9"><a xlink:href="dense_2utils_8hpp.html" target="_top" xlink:title=" ">
<polygon fill="white" stroke="#666666" points="376,-228 239,-228 239,-198 376,-198 376,-228"/>
<text text-anchor="start" x="247" y="-216" font-family="Helvetica,sans-Serif" font-size="10.00">include/proxsuite/proxqp</text>
<text text-anchor="middle" x="307.5" y="-205" font-family="Helvetica,sans-Serif" font-size="10.00">/dense/utils.hpp</text>
</a>
</g>
</g>
<!-- Node7&#45;&gt;Node9 -->
<g id="edge9" class="edge">
<title>Node7&#45;&gt;Node9</title>
<path fill="none" stroke="#63b8ff" d="M197.85,-259.27C221.69,-249.43 250.47,-237.55 272.56,-228.43"/>
<polygon fill="#63b8ff" stroke="#63b8ff" points="196.59,-256.01 188.68,-263.06 199.26,-262.48 196.59,-256.01"/>
</g>
<!-- Node8&#45;&gt;Node3 -->
<g id="edge8" class="edge">
<title>Node8&#45;&gt;Node3</title>
<path fill="none" stroke="#63b8ff" d="M152.5,-186.39C152.5,-178.13 152.5,-169.28 152.5,-162.16"/>
<polygon fill="#63b8ff" stroke="#63b8ff" points="149,-186.28 152.5,-196.28 156,-186.28 149,-186.28"/>
</g>
<!-- Node9&#45;&gt;Node3 -->
<g id="edge10" class="edge">
<title>Node9&#45;&gt;Node3</title>
<path fill="none" stroke="#63b8ff" d="M262.15,-193.27C238.31,-183.43 209.53,-171.55 187.44,-162.43"/>
<polygon fill="#63b8ff" stroke="#63b8ff" points="260.74,-196.48 271.32,-197.06 263.41,-190.01 260.74,-196.48"/>
</g>
<!-- Node10&#45;&gt;Node2 -->
<g id="edge12" class="edge">
<title>Node10&#45;&gt;Node2</title>
<path fill="none" stroke="#63b8ff" d="M133.37,-386.68C126.85,-377.79 119.62,-367.95 113.9,-360.16"/>
<polygon fill="#63b8ff" stroke="#63b8ff" points="130.43,-388.59 139.17,-394.58 136.08,-384.44 130.43,-388.59"/>
</g>
</g>
</svg>
