<?xml version="1.0" encoding="UTF-8" standalone="no"?>
<!DOCTYPE svg PUBLIC "-//W3C//DTD SVG 1.1//EN"
 "http://www.w3.org/Graphics/SVG/1.1/DTD/svg11.dtd">
<!-- Generated by graphviz version 8.1.0 (20230707.2238)
 -->
<!-- Title: include/proxsuite/linalg/dense/core.hpp Pages: 1 -->
<svg width="1103pt" height="667pt"
 viewBox="0.00 0.00 1103.20 667.00" xmlns="http://www.w3.org/2000/svg" xmlns:xlink="http://www.w3.org/1999/xlink">
<g id="graph0" class="graph" transform="scale(1 1) rotate(0) translate(4 663)">
<title>include/proxsuite/linalg/dense/core.hpp</title>
<!-- Node1 -->
<g id="Node000001" class="node">
<title>Node1</title>
<g id="a_Node000001"><a xlink:title=" ">
<polygon fill="#999999" stroke="#666666" points="737.32,-659 607.32,-659 607.32,-625.5 737.32,-625.5 737.32,-659"/>
<text text-anchor="start" x="615.32" y="-645.5" font-family="Helvetica,sans-Serif" font-size="10.00">include/proxsuite/linalg</text>
<text text-anchor="middle" x="672.32" y="-632.75" font-family="Helvetica,sans-Serif" font-size="10.00">/dense/core.hpp</text>
</a>
</g>
</g>
<!-- Node2 -->
<g id="Node000002" class="node">
<title>Node2</title>
<g id="a_Node000002"><a xlink:href="dense_2factorize_8hpp.html" target="_top" xlink:title=" ">
<polygon fill="white" stroke="#666666" points="737.32,-589.5 607.32,-589.5 607.32,-556 737.32,-556 737.32,-589.5"/>
<text text-anchor="start" x="615.32" y="-576" font-family="Helvetica,sans-Serif" font-size="10.00">include/proxsuite/linalg</text>
<text text-anchor="middle" x="672.32" y="-563.25" font-family="Helvetica,sans-Serif" font-size="10.00">/dense/factorize.hpp</text>
</a>
</g>
</g>
<!-- Node1&#45;&gt;Node2 -->
<g id="edge1_Node000001_Node000002" class="edge">
<title>Node1&#45;&gt;Node2</title>
<g id="a_edge1_Node000001_Node000002"><a xlink:title=" ">
<path fill="none" stroke="#63b8ff" d="M672.32,-614.39C672.32,-606 672.32,-597.01 672.32,-589.63"/>
<polygon fill="#63b8ff" stroke="#63b8ff" points="668.82,-614.25 672.32,-624.25 675.82,-614.25 668.82,-614.25"/>
</a>
</g>
</g>
<!-- Node14 -->
<g id="Node000014" class="node">
<title>Node14</title>
<g id="a_Node000014"><a xlink:href="modify_8hpp.html" target="_top" xlink:title=" ">
<polygon fill="white" stroke="#666666" points="644.32,-520 514.32,-520 514.32,-486.5 644.32,-486.5 644.32,-520"/>
<text text-anchor="start" x="522.32" y="-506.5" font-family="Helvetica,sans-Serif" font-size="10.00">include/proxsuite/linalg</text>
<text text-anchor="middle" x="579.32" y="-493.75" font-family="Helvetica,sans-Serif" font-size="10.00">/dense/modify.hpp</text>
</a>
</g>
</g>
<!-- Node1&#45;&gt;Node14 -->
<g id="edge17_Node000001_Node000014" class="edge">
<title>Node1&#45;&gt;Node14</title>
<g id="a_edge17_Node000001_Node000014"><a xlink:title=" ">
<path fill="none" stroke="#63b8ff" d="M629.86,-619.41C618.07,-611.46 606.31,-601.44 598.32,-589.5 584.23,-568.46 580.44,-538.59 579.51,-520.37"/>
<polygon fill="#63b8ff" stroke="#63b8ff" points="627.51,-622.69 637.83,-625.08 631.25,-616.78 627.51,-622.69"/>
</a>
</g>
</g>
<!-- Node15 -->
<g id="Node000015" class="node">
<title>Node15</title>
<g id="a_Node000015"><a xlink:href="solve_8hpp.html" target="_top" xlink:title=" ">
<polygon fill="white" stroke="#666666" points="458.32,-520 328.32,-520 328.32,-486.5 458.32,-486.5 458.32,-520"/>
<text text-anchor="start" x="336.32" y="-506.5" font-family="Helvetica,sans-Serif" font-size="10.00">include/proxsuite/linalg</text>
<text text-anchor="middle" x="393.32" y="-493.75" font-family="Helvetica,sans-Serif" font-size="10.00">/dense/solve.hpp</text>
</a>
</g>
</g>
<!-- Node1&#45;&gt;Node15 -->
<g id="edge18_Node000001_Node000015" class="edge">
<title>Node1&#45;&gt;Node15</title>
<g id="a_edge18_Node000001_Node000015"><a xlink:title=" ">
<path fill="none" stroke="#63b8ff" d="M596.54,-635.27C529.37,-628.39 438.06,-614.65 412.32,-589.5 393.78,-571.38 391.53,-539.43 392.08,-520.21"/>
<polygon fill="#63b8ff" stroke="#63b8ff" points="595.81,-638.81 606.1,-636.31 596.5,-631.84 595.81,-638.81"/>
</a>
</g>
</g>
<!-- Node16 -->
<g id="Node000016" class="node">
<title>Node16</title>
<g id="a_Node000016"><a xlink:href="dense_2update_8hpp.html" target="_top" xlink:title=" ">
<polygon fill="white" stroke="#666666" points="551.32,-589.5 421.32,-589.5 421.32,-556 551.32,-556 551.32,-589.5"/>
<text text-anchor="start" x="429.32" y="-576" font-family="Helvetica,sans-Serif" font-size="10.00">include/proxsuite/linalg</text>
<text text-anchor="middle" x="486.32" y="-563.25" font-family="Helvetica,sans-Serif" font-size="10.00">/dense/update.hpp</text>
</a>
</g>
</g>
<!-- Node1&#45;&gt;Node16 -->
<g id="edge20_Node000001_Node000016" class="edge">
<title>Node1&#45;&gt;Node16</title>
<g id="a_edge20_Node000001_Node000016"><a xlink:title=" ">
<path fill="none" stroke="#63b8ff" d="M617.48,-621.35C589.87,-611.33 556.84,-599.34 530.83,-589.9"/>
<polygon fill="#63b8ff" stroke="#63b8ff" points="616.18,-624.96 626.77,-625.08 618.56,-618.38 616.18,-624.96"/>
</a>
</g>
</g>
<!-- Node17 -->
<g id="Node000017" class="node">
<title>Node17</title>
<g id="a_Node000017"><a xlink:href="proxqp_2dense_2preconditioner_2ruiz_8hpp.html" target="_top" xlink:title=" ">
<polygon fill="white" stroke="#666666" points="351.2,-381 187.45,-381 187.45,-347.5 351.2,-347.5 351.2,-381"/>
<text text-anchor="start" x="195.45" y="-367.5" font-family="Helvetica,sans-Serif" font-size="10.00">include/proxsuite/proxqp</text>
<text text-anchor="middle" x="269.32" y="-354.75" font-family="Helvetica,sans-Serif" font-size="10.00">/dense/preconditioner/ruiz.hpp</text>
</a>
</g>
</g>
<!-- Node1&#45;&gt;Node17 -->
<g id="edge23_Node000001_Node000017" class="edge">
<title>Node1&#45;&gt;Node17</title>
<g id="a_edge23_Node000001_Node000017"><a xlink:title=" ">
<path fill="none" stroke="#63b8ff" d="M596.32,-638.89C537.76,-634.39 456.26,-622.13 392.32,-589.5 352.42,-569.14 343.16,-557.93 319.32,-520 290.62,-474.35 276.91,-410.67 271.8,-381.28"/>
<polygon fill="#63b8ff" stroke="#63b8ff" points="595.75,-642.43 605.97,-639.65 596.25,-635.45 595.75,-642.43"/>
</a>
</g>
</g>
<!-- Node20 -->
<g id="Node000020" class="node">
<title>Node20</title>
<g id="a_Node000020"><a xlink:href="sparse_2solver_8hpp.html" target="_top" xlink:title=" ">
<polygon fill="white" stroke="#666666" points="1021.7,-381 884.95,-381 884.95,-347.5 1021.7,-347.5 1021.7,-381"/>
<text text-anchor="start" x="892.95" y="-367.5" font-family="Helvetica,sans-Serif" font-size="10.00">include/proxsuite/proxqp</text>
<text text-anchor="middle" x="953.32" y="-354.75" font-family="Helvetica,sans-Serif" font-size="10.00">/sparse/solver.hpp</text>
</a>
</g>
</g>
<!-- Node1&#45;&gt;Node20 -->
<g id="edge30_Node000001_Node000020" class="edge">
<title>Node1&#45;&gt;Node20</title>
<g id="a_edge30_Node000001_Node000020"><a xlink:title=" ">
<path fill="none" stroke="#63b8ff" d="M748.26,-635.17C808.75,-628.62 894.85,-615.41 966.32,-589.5 1024.62,-568.36 1056.25,-573.67 1087.32,-520 1120.17,-463.25 1036.07,-407.92 986.53,-381.44"/>
<polygon fill="#63b8ff" stroke="#63b8ff" points="748.23,-631.76 738.65,-636.29 748.96,-638.73 748.23,-631.76"/>
</a>
</g>
</g>
<!-- Node23 -->
<g id="Node000023" class="node">
<title>Node23</title>
<g id="a_Node000023"><a xlink:href="sparse_2utils_8hpp.html" target="_top" xlink:title=" ">
<polygon fill="white" stroke="#666666" points="1078.7,-520 941.95,-520 941.95,-486.5 1078.7,-486.5 1078.7,-520"/>
<text text-anchor="start" x="949.95" y="-506.5" font-family="Helvetica,sans-Serif" font-size="10.00">include/proxsuite/proxqp</text>
<text text-anchor="middle" x="1010.32" y="-493.75" font-family="Helvetica,sans-Serif" font-size="10.00">/sparse/utils.hpp</text>
</a>
</g>
</g>
<!-- Node1&#45;&gt;Node23 -->
<g id="edge35_Node000001_Node000023" class="edge">
<title>Node1&#45;&gt;Node23</title>
<g id="a_edge35_Node000001_Node000023"><a xlink:title=" ">
<path fill="none" stroke="#63b8ff" d="M748.33,-638.79C802.9,-634.13 876.53,-621.71 933.32,-589.5 963.16,-572.58 987.66,-539.91 1000.53,-520.3"/>
<polygon fill="#63b8ff" stroke="#63b8ff" points="748.38,-635.35 738.68,-639.62 748.92,-642.33 748.38,-635.35"/>
</a>
</g>
</g>
<!-- Node24 -->
<g id="Node000024" class="node">
<title>Node24</title>
<g id="a_Node000024"><a xlink:href="proxqp_2sparse_2workspace_8hpp.html" target="_top" xlink:title=" ">
<polygon fill="white" stroke="#666666" points="987.7,-450.5 850.95,-450.5 850.95,-417 987.7,-417 987.7,-450.5"/>
<text text-anchor="start" x="858.95" y="-437" font-family="Helvetica,sans-Serif" font-size="10.00">include/proxsuite/proxqp</text>
<text text-anchor="middle" x="919.32" y="-424.25" font-family="Helvetica,sans-Serif" font-size="10.00">/sparse/workspace.hpp</text>
</a>
</g>
</g>
<!-- Node1&#45;&gt;Node24 -->
<g id="edge44_Node000001_Node000024" class="edge">
<title>Node1&#45;&gt;Node24</title>
<g id="a_edge44_Node000001_Node000024"><a xlink:title=" ">
<path fill="none" stroke="#63b8ff" d="M748.47,-633.37C806.62,-625.69 880.11,-611.86 900.32,-589.5 935.53,-550.54 928.29,-481.76 922.71,-450.73"/>
<polygon fill="#63b8ff" stroke="#63b8ff" points="748.28,-629.99 738.81,-634.73 749.17,-636.93 748.28,-629.99"/>
</a>
</g>
</g>
<!-- Node25 -->
<g id="Node000025" class="node">
<title>Node25</title>
<g id="a_Node000025"><a xlink:href="sparse_2views_8hpp.html" target="_top" xlink:title=" ">
<polygon fill="white" stroke="#666666" points="891.7,-589.5 754.95,-589.5 754.95,-556 891.7,-556 891.7,-589.5"/>
<text text-anchor="start" x="762.95" y="-576" font-family="Helvetica,sans-Serif" font-size="10.00">include/proxsuite/proxqp</text>
<text text-anchor="middle" x="823.32" y="-563.25" font-family="Helvetica,sans-Serif" font-size="10.00">/sparse/views.hpp</text>
</a>
</g>
</g>
<!-- Node1&#45;&gt;Node25 -->
<g id="edge40_Node000001_Node000025" class="edge">
<title>Node1&#45;&gt;Node25</title>
<g id="a_edge40_Node000001_Node000025"><a xlink:title=" ">
<path fill="none" stroke="#63b8ff" d="M718.33,-620.68C740.43,-610.8 766.54,-599.13 787.19,-589.9"/>
<polygon fill="#63b8ff" stroke="#63b8ff" points="717.19,-617.81 709.49,-625.08 720.05,-624.2 717.19,-617.81"/>
</a>
</g>
</g>
<!-- Node3 -->
<g id="Node000003" class="node">
<title>Node3</title>
<g id="a_Node000003"><a xlink:href="ldlt_8hpp.html" target="_top" xlink:title=" ">
<polygon fill="white" stroke="#666666" points="644.32,-450.5 514.32,-450.5 514.32,-417 644.32,-417 644.32,-450.5"/>
<text text-anchor="start" x="522.32" y="-437" font-family="Helvetica,sans-Serif" font-size="10.00">include/proxsuite/linalg</text>
<text text-anchor="middle" x="579.32" y="-424.25" font-family="Helvetica,sans-Serif" font-size="10.00">/dense/ldlt.hpp</text>
</a>
</g>
</g>
<!-- Node2&#45;&gt;Node3 -->
<g id="edge2_Node000002_Node000003" class="edge">
<title>Node2&#45;&gt;Node3</title>
<g id="a_edge2_Node000002_Node000003"><a xlink:title=" ">
<path fill="none" stroke="#63b8ff" d="M671.31,-544.8C669.51,-526.96 664.88,-503.76 653.32,-486.5 643.29,-471.52 627.34,-459.55 612.81,-450.92"/>
<polygon fill="#63b8ff" stroke="#63b8ff" points="667.89,-544.93 672.14,-554.63 674.87,-544.4 667.89,-544.93"/>
</a>
</g>
</g>
<!-- Node2&#45;&gt;Node14 -->
<g id="edge15_Node000002_Node000014" class="edge">
<title>Node2&#45;&gt;Node14</title>
<g id="a_edge15_Node000002_Node000014"><a xlink:title=" ">
<path fill="none" stroke="#63b8ff" d="M641.58,-549.44C628.49,-539.94 613.51,-529.06 601.52,-520.37"/>
<polygon fill="#63b8ff" stroke="#63b8ff" points="639.13,-552.71 649.28,-555.75 643.24,-547.05 639.13,-552.71"/>
</a>
</g>
</g>
<!-- Node4 -->
<g id="Node000004" class="node">
<title>Node4</title>
<g id="a_Node000004"><a xlink:href="dense_2solver_8hpp.html" target="_top" xlink:title=" ">
<polygon fill="white" stroke="#666666" points="492.7,-242 355.95,-242 355.95,-208.5 492.7,-208.5 492.7,-242"/>
<text text-anchor="start" x="363.95" y="-228.5" font-family="Helvetica,sans-Serif" font-size="10.00">include/proxsuite/proxqp</text>
<text text-anchor="middle" x="424.32" y="-215.75" font-family="Helvetica,sans-Serif" font-size="10.00">/dense/solver.hpp</text>
</a>
</g>
</g>
<!-- Node3&#45;&gt;Node4 -->
<g id="edge3_Node000003_Node000004" class="edge">
<title>Node3&#45;&gt;Node4</title>
<g id="a_edge3_Node000003_Node000004"><a xlink:title=" ">
<path fill="none" stroke="#63b8ff" d="M655.44,-417.53C752.19,-394.93 899.72,-347.55 838.32,-278 835.48,-274.78 610,-247.97 493.04,-234.26"/>
<polygon fill="#63b8ff" stroke="#63b8ff" points="654.75,-414.33 645.79,-419.97 656.32,-421.15 654.75,-414.33"/>
</a>
</g>
</g>
<!-- Node10 -->
<g id="Node000010" class="node">
<title>Node10</title>
<g id="a_Node000010"><a xlink:href="proxqp_2dense_2workspace_8hpp.html" target="_top" xlink:title=" ">
<polygon fill="white" stroke="#666666" points="647.7,-381 510.95,-381 510.95,-347.5 647.7,-347.5 647.7,-381"/>
<text text-anchor="start" x="518.95" y="-367.5" font-family="Helvetica,sans-Serif" font-size="10.00">include/proxsuite/proxqp</text>
<text text-anchor="middle" x="579.32" y="-354.75" font-family="Helvetica,sans-Serif" font-size="10.00">/dense/workspace.hpp</text>
</a>
</g>
</g>
<!-- Node3&#45;&gt;Node10 -->
<g id="edge9_Node000003_Node000010" class="edge">
<title>Node3&#45;&gt;Node10</title>
<g id="a_edge9_Node000003_Node000010"><a xlink:title=" ">
<path fill="none" stroke="#63b8ff" d="M579.32,-405.89C579.32,-397.5 579.32,-388.51 579.32,-381.13"/>
<polygon fill="#63b8ff" stroke="#63b8ff" points="575.82,-405.75 579.32,-415.75 582.82,-405.75 575.82,-405.75"/>
</a>
</g>
</g>
<!-- Node5 -->
<g id="Node000005" class="node">
<title>Node5</title>
<g id="a_Node000005"><a xlink:href="proxqp_2dense_2wrapper_8hpp.html" target="_top" xlink:title=" ">
<polygon fill="white" stroke="#666666" points="461.7,-172.5 324.95,-172.5 324.95,-139 461.7,-139 461.7,-172.5"/>
<text text-anchor="start" x="332.95" y="-159" font-family="Helvetica,sans-Serif" font-size="10.00">include/proxsuite/proxqp</text>
<text text-anchor="middle" x="393.32" y="-146.25" font-family="Helvetica,sans-Serif" font-size="10.00">/dense/wrapper.hpp</text>
</a>
</g>
</g>
<!-- Node4&#45;&gt;Node5 -->
<g id="edge4_Node000004_Node000005" class="edge">
<title>Node4&#45;&gt;Node5</title>
<g id="a_edge4_Node000004_Node000005"><a xlink:title=" ">
<path fill="none" stroke="#63b8ff" d="M412.51,-198.53C408.51,-189.82 404.16,-180.35 400.61,-172.63"/>
<polygon fill="#63b8ff" stroke="#63b8ff" points="409.62,-199.63 416.97,-207.25 415.98,-196.71 409.62,-199.63"/>
</a>
</g>
</g>
<!-- Node6 -->
<g id="Node000006" class="node">
<title>Node6</title>
<g id="a_Node000006"><a xlink:href="compute__ECJ_8hpp.html" target="_top" xlink:title=" ">
<polygon fill="white" stroke="#666666" points="306.7,-103 169.95,-103 169.95,-69.5 306.7,-69.5 306.7,-103"/>
<text text-anchor="start" x="177.95" y="-89.5" font-family="Helvetica,sans-Serif" font-size="10.00">include/proxsuite/proxqp</text>
<text text-anchor="middle" x="238.32" y="-76.75" font-family="Helvetica,sans-Serif" font-size="10.00">/dense/compute_ECJ.hpp</text>
</a>
</g>
</g>
<!-- Node5&#45;&gt;Node6 -->
<g id="edge5_Node000005_Node000006" class="edge">
<title>Node5&#45;&gt;Node6</title>
<g id="a_edge5_Node000005_Node000006"><a xlink:title=" ">
<path fill="none" stroke="#63b8ff" d="M346.4,-134.32C323.65,-124.41 296.7,-112.68 275.41,-103.4"/>
<polygon fill="#63b8ff" stroke="#63b8ff" points="344.63,-137.8 355.19,-138.58 347.42,-131.38 344.63,-137.8"/>
</a>
</g>
</g>
<!-- Node8 -->
<g id="Node000008" class="node">
<title>Node8</title>
<g id="a_Node000008"><a xlink:href="dense_8hpp.html" target="_top" xlink:title=" ">
<polygon fill="white" stroke="#666666" points="461.7,-103 324.95,-103 324.95,-69.5 461.7,-69.5 461.7,-103"/>
<text text-anchor="start" x="332.95" y="-89.5" font-family="Helvetica,sans-Serif" font-size="10.00">include/proxsuite/proxqp</text>
<text text-anchor="middle" x="393.32" y="-76.75" font-family="Helvetica,sans-Serif" font-size="10.00">/dense/dense.hpp</text>
</a>
</g>
</g>
<!-- Node5&#45;&gt;Node8 -->
<g id="edge7_Node000005_Node000008" class="edge">
<title>Node5&#45;&gt;Node8</title>
<g id="a_edge7_Node000005_Node000008"><a xlink:title=" ">
<path fill="none" stroke="#63b8ff" d="M393.32,-127.89C393.32,-119.5 393.32,-110.51 393.32,-103.13"/>
<polygon fill="#63b8ff" stroke="#63b8ff" points="389.82,-127.75 393.32,-137.75 396.82,-127.75 389.82,-127.75"/>
</a>
</g>
</g>
<!-- Node9 -->
<g id="Node000009" class="node">
<title>Node9</title>
<g id="a_Node000009"><a xlink:href="serialization_2wrapper_8hpp.html" target="_top" xlink:title=" ">
<polygon fill="white" stroke="#666666" points="642.82,-103 479.82,-103 479.82,-69.5 642.82,-69.5 642.82,-103"/>
<text text-anchor="start" x="487.82" y="-89.5" font-family="Helvetica,sans-Serif" font-size="10.00">include/proxsuite/serialization</text>
<text text-anchor="middle" x="561.32" y="-76.75" font-family="Helvetica,sans-Serif" font-size="10.00">/wrapper.hpp</text>
</a>
</g>
</g>
<!-- Node5&#45;&gt;Node9 -->
<g id="edge8_Node000005_Node000009" class="edge">
<title>Node5&#45;&gt;Node9</title>
<g id="a_edge8_Node000005_Node000009"><a xlink:title=" ">
<path fill="none" stroke="#63b8ff" d="M443.51,-134.58C468.31,-124.62 497.83,-112.76 521.12,-103.4"/>
<polygon fill="#63b8ff" stroke="#63b8ff" points="442.54,-131.61 434.56,-138.58 445.14,-138.1 442.54,-131.61"/>
</a>
</g>
</g>
<!-- Node7 -->
<g id="Node000007" class="node">
<title>Node7</title>
<g id="a_Node000007"><a xlink:href="qp__solve_8hpp.html" target="_top" xlink:title=" ">
<polygon fill="white" stroke="#666666" points="522.7,-33.5 385.95,-33.5 385.95,0 522.7,0 522.7,-33.5"/>
<text text-anchor="start" x="393.95" y="-20" font-family="Helvetica,sans-Serif" font-size="10.00">include/proxsuite/proxqp</text>
<text text-anchor="middle" x="454.32" y="-7.25" font-family="Helvetica,sans-Serif" font-size="10.00">/parallel/qp_solve.hpp</text>
</a>
</g>
</g>
<!-- Node6&#45;&gt;Node7 -->
<g id="edge6_Node000006_Node000007" class="edge">
<title>Node6&#45;&gt;Node7</title>
<g id="a_edge6_Node000006_Node000007"><a xlink:title=" ">
<path fill="none" stroke="#63b8ff" d="M300.32,-65.88C332.71,-55.75 371.9,-43.51 402.63,-33.9"/>
<polygon fill="#63b8ff" stroke="#63b8ff" points="299.56,-62.76 291.06,-69.08 301.65,-69.44 299.56,-62.76"/>
</a>
</g>
</g>
<!-- Node11 -->
<g id="Node000011" class="node">
<title>Node11</title>
<g id="a_Node000011"><a xlink:href="linesearch_8hpp.html" target="_top" xlink:title=" ">
<polygon fill="white" stroke="#666666" points="647.7,-311.5 510.95,-311.5 510.95,-278 647.7,-278 647.7,-311.5"/>
<text text-anchor="start" x="518.95" y="-298" font-family="Helvetica,sans-Serif" font-size="10.00">include/proxsuite/proxqp</text>
<text text-anchor="middle" x="579.32" y="-285.25" font-family="Helvetica,sans-Serif" font-size="10.00">/dense/linesearch.hpp</text>
</a>
</g>
</g>
<!-- Node10&#45;&gt;Node11 -->
<g id="edge10_Node000010_Node000011" class="edge">
<title>Node10&#45;&gt;Node11</title>
<g id="a_edge10_Node000010_Node000011"><a xlink:title=" ">
<path fill="none" stroke="#63b8ff" d="M579.32,-336.39C579.32,-328 579.32,-319.01 579.32,-311.63"/>
<polygon fill="#63b8ff" stroke="#63b8ff" points="575.82,-336.25 579.32,-346.25 582.82,-336.25 575.82,-336.25"/>
</a>
</g>
</g>
<!-- Node12 -->
<g id="Node000012" class="node">
<title>Node12</title>
<g id="a_Node000012"><a xlink:href="dense_2utils_8hpp.html" target="_top" xlink:title=" ">
<polygon fill="white" stroke="#666666" points="492.7,-311.5 355.95,-311.5 355.95,-278 492.7,-278 492.7,-311.5"/>
<text text-anchor="start" x="363.95" y="-298" font-family="Helvetica,sans-Serif" font-size="10.00">include/proxsuite/proxqp</text>
<text text-anchor="middle" x="424.32" y="-285.25" font-family="Helvetica,sans-Serif" font-size="10.00">/dense/utils.hpp</text>
</a>
</g>
</g>
<!-- Node10&#45;&gt;Node12 -->
<g id="edge12_Node000010_Node000012" class="edge">
<title>Node10&#45;&gt;Node12</title>
<g id="a_edge12_Node000010_Node000012"><a xlink:title=" ">
<path fill="none" stroke="#63b8ff" d="M532.4,-342.82C509.65,-332.91 482.7,-321.18 461.41,-311.9"/>
<polygon fill="#63b8ff" stroke="#63b8ff" points="530.63,-346.3 541.19,-347.08 533.42,-339.88 530.63,-346.3"/>
</a>
</g>
</g>
<!-- Node13 -->
<g id="Node000013" class="node">
<title>Node13</title>
<g id="a_Node000013"><a xlink:href="serialization_2workspace_8hpp.html" target="_top" xlink:title=" ">
<polygon fill="white" stroke="#666666" points="828.82,-311.5 665.82,-311.5 665.82,-278 828.82,-278 828.82,-311.5"/>
<text text-anchor="start" x="673.82" y="-298" font-family="Helvetica,sans-Serif" font-size="10.00">include/proxsuite/serialization</text>
<text text-anchor="middle" x="747.32" y="-285.25" font-family="Helvetica,sans-Serif" font-size="10.00">/workspace.hpp</text>
</a>
</g>
</g>
<!-- Node10&#45;&gt;Node13 -->
<g id="edge14_Node000010_Node000013" class="edge">
<title>Node10&#45;&gt;Node13</title>
<g id="a_edge14_Node000010_Node000013"><a xlink:title=" ">
<path fill="none" stroke="#63b8ff" d="M629.51,-343.08C654.31,-333.12 683.83,-321.26 707.12,-311.9"/>
<polygon fill="#63b8ff" stroke="#63b8ff" points="628.54,-340.11 620.56,-347.08 631.14,-346.6 628.54,-340.11"/>
</a>
</g>
</g>
<!-- Node11&#45;&gt;Node4 -->
<g id="edge11_Node000011_Node000004" class="edge">
<title>Node11&#45;&gt;Node4</title>
<g id="a_edge11_Node000011_Node000004"><a xlink:title=" ">
<path fill="none" stroke="#63b8ff" d="M532.4,-273.32C509.65,-263.41 482.7,-251.68 461.41,-242.4"/>
<polygon fill="#63b8ff" stroke="#63b8ff" points="530.63,-276.8 541.19,-277.58 533.42,-270.38 530.63,-276.8"/>
</a>
</g>
</g>
<!-- Node12&#45;&gt;Node4 -->
<g id="edge13_Node000012_Node000004" class="edge">
<title>Node12&#45;&gt;Node4</title>
<g id="a_edge13_Node000012_Node000004"><a xlink:title=" ">
<path fill="none" stroke="#63b8ff" d="M424.32,-266.89C424.32,-258.5 424.32,-249.51 424.32,-242.13"/>
<polygon fill="#63b8ff" stroke="#63b8ff" points="420.82,-266.75 424.32,-276.75 427.82,-266.75 420.82,-266.75"/>
</a>
</g>
</g>
<!-- Node14&#45;&gt;Node3 -->
<g id="edge16_Node000014_Node000003" class="edge">
<title>Node14&#45;&gt;Node3</title>
<g id="a_edge16_Node000014_Node000003"><a xlink:title=" ">
<path fill="none" stroke="#63b8ff" d="M579.32,-475.39C579.32,-467 579.32,-458.01 579.32,-450.63"/>
<polygon fill="#63b8ff" stroke="#63b8ff" points="575.82,-475.25 579.32,-485.25 582.82,-475.25 575.82,-475.25"/>
</a>
</g>
</g>
<!-- Node15&#45;&gt;Node3 -->
<g id="edge19_Node000015_Node000003" class="edge">
<title>Node15&#45;&gt;Node3</title>
<g id="a_edge19_Node000015_Node000003"><a xlink:title=" ">
<path fill="none" stroke="#63b8ff" d="M448.16,-482.35C475.77,-472.33 508.8,-460.34 534.81,-450.9"/>
<polygon fill="#63b8ff" stroke="#63b8ff" points="447.08,-479.38 438.87,-486.08 449.47,-485.96 447.08,-479.38"/>
</a>
</g>
</g>
<!-- Node16&#45;&gt;Node3 -->
<g id="edge21_Node000016_Node000003" class="edge">
<title>Node16&#45;&gt;Node3</title>
<g id="a_edge21_Node000016_Node000003"><a xlink:title=" ">
<path fill="none" stroke="#63b8ff" d="M487.33,-544.8C489.14,-526.96 493.77,-503.76 505.32,-486.5 515.35,-471.52 531.3,-459.55 545.83,-450.92"/>
<polygon fill="#63b8ff" stroke="#63b8ff" points="483.77,-544.4 486.51,-554.63 490.75,-544.93 483.77,-544.4"/>
</a>
</g>
</g>
<!-- Node16&#45;&gt;Node14 -->
<g id="edge22_Node000016_Node000014" class="edge">
<title>Node16&#45;&gt;Node14</title>
<g id="a_edge22_Node000016_Node000014"><a xlink:title=" ">
<path fill="none" stroke="#63b8ff" d="M517.06,-549.44C530.15,-539.94 545.13,-529.06 557.12,-520.37"/>
<polygon fill="#63b8ff" stroke="#63b8ff" points="515.4,-547.05 509.36,-555.75 519.51,-552.71 515.4,-547.05"/>
</a>
</g>
</g>
<!-- Node17&#45;&gt;Node5 -->
<g id="edge28_Node000017_Node000005" class="edge">
<title>Node17&#45;&gt;Node5</title>
<g id="a_edge28_Node000017_Node000005"><a xlink:title=" ">
<path fill="none" stroke="#63b8ff" d="M176.46,-362.46C84.71,-358.16 -35.75,-340.91 10.32,-278 47.77,-226.86 225.09,-187.22 324.8,-168.53"/>
<polygon fill="#63b8ff" stroke="#63b8ff" points="176.07,-365.99 186.21,-362.91 176.37,-358.99 176.07,-365.99"/>
</a>
</g>
</g>
<!-- Node17&#45;&gt;Node12 -->
<g id="edge27_Node000017_Node000012" class="edge">
<title>Node17&#45;&gt;Node12</title>
<g id="a_edge27_Node000017_Node000012"><a xlink:title=" ">
<path fill="none" stroke="#63b8ff" d="M316.24,-342.82C338.99,-332.91 365.94,-321.18 387.23,-311.9"/>
<polygon fill="#63b8ff" stroke="#63b8ff" points="315.22,-339.88 307.45,-347.08 318.01,-346.3 315.22,-339.88"/>
</a>
</g>
</g>
<!-- Node18 -->
<g id="Node000018" class="node">
<title>Node18</title>
<g id="a_Node000018"><a xlink:href="dense_2helpers_8hpp.html" target="_top" xlink:title=" ">
<polygon fill="white" stroke="#666666" points="337.7,-311.5 200.95,-311.5 200.95,-278 337.7,-278 337.7,-311.5"/>
<text text-anchor="start" x="208.95" y="-298" font-family="Helvetica,sans-Serif" font-size="10.00">include/proxsuite/proxqp</text>
<text text-anchor="middle" x="269.32" y="-285.25" font-family="Helvetica,sans-Serif" font-size="10.00">/dense/helpers.hpp</text>
</a>
</g>
</g>
<!-- Node17&#45;&gt;Node18 -->
<g id="edge24_Node000017_Node000018" class="edge">
<title>Node17&#45;&gt;Node18</title>
<g id="a_edge24_Node000017_Node000018"><a xlink:title=" ">
<path fill="none" stroke="#63b8ff" d="M269.32,-336.39C269.32,-328 269.32,-319.01 269.32,-311.63"/>
<polygon fill="#63b8ff" stroke="#63b8ff" points="265.82,-336.25 269.32,-346.25 272.82,-336.25 265.82,-336.25"/>
</a>
</g>
</g>
<!-- Node19 -->
<g id="Node000019" class="node">
<title>Node19</title>
<g id="a_Node000019"><a xlink:href="serialization_2ruiz_8hpp.html" target="_top" xlink:title=" ">
<polygon fill="white" stroke="#666666" points="182.82,-311.5 19.82,-311.5 19.82,-278 182.82,-278 182.82,-311.5"/>
<text text-anchor="start" x="27.82" y="-298" font-family="Helvetica,sans-Serif" font-size="10.00">include/proxsuite/serialization</text>
<text text-anchor="middle" x="101.32" y="-285.25" font-family="Helvetica,sans-Serif" font-size="10.00">/ruiz.hpp</text>
</a>
</g>
</g>
<!-- Node17&#45;&gt;Node19 -->
<g id="edge29_Node000017_Node000019" class="edge">
<title>Node17&#45;&gt;Node19</title>
<g id="a_edge29_Node000017_Node000019"><a xlink:title=" ">
<path fill="none" stroke="#63b8ff" d="M219.13,-343.08C194.33,-333.12 164.81,-321.26 141.52,-311.9"/>
<polygon fill="#63b8ff" stroke="#63b8ff" points="217.5,-346.6 228.08,-347.08 220.11,-340.11 217.5,-346.6"/>
</a>
</g>
</g>
<!-- Node18&#45;&gt;Node4 -->
<g id="edge25_Node000018_Node000004" class="edge">
<title>Node18&#45;&gt;Node4</title>
<g id="a_edge25_Node000018_Node000004"><a xlink:title=" ">
<path fill="none" stroke="#63b8ff" d="M316.24,-273.32C338.99,-263.41 365.94,-251.68 387.23,-242.4"/>
<polygon fill="#63b8ff" stroke="#63b8ff" points="315.22,-270.38 307.45,-277.58 318.01,-276.8 315.22,-270.38"/>
</a>
</g>
</g>
<!-- Node18&#45;&gt;Node5 -->
<g id="edge26_Node000018_Node000005" class="edge">
<title>Node18&#45;&gt;Node5</title>
<g id="a_edge26_Node000018_Node000005"><a xlink:title=" ">
<path fill="none" stroke="#63b8ff" d="M291.09,-269.7C316.37,-241.77 357.35,-196.49 378.95,-172.63"/>
<polygon fill="#63b8ff" stroke="#63b8ff" points="288.9,-267 284.79,-276.77 294.09,-271.7 288.9,-267"/>
</a>
</g>
</g>
<!-- Node21 -->
<g id="Node000021" class="node">
<title>Node21</title>
<g id="a_Node000021"><a xlink:href="proxqp_2sparse_2wrapper_8hpp.html" target="_top" xlink:title=" ">
<polygon fill="white" stroke="#666666" points="708.7,-242 571.95,-242 571.95,-208.5 708.7,-208.5 708.7,-242"/>
<text text-anchor="start" x="579.95" y="-228.5" font-family="Helvetica,sans-Serif" font-size="10.00">include/proxsuite/proxqp</text>
<text text-anchor="middle" x="640.32" y="-215.75" font-family="Helvetica,sans-Serif" font-size="10.00">/sparse/wrapper.hpp</text>
</a>
</g>
</g>
<!-- Node20&#45;&gt;Node21 -->
<g id="edge31_Node000020_Node000021" class="edge">
<title>Node20&#45;&gt;Node21</title>
<g id="a_edge31_Node000020_Node000021"><a xlink:title=" ">
<path fill="none" stroke="#63b8ff" d="M936.14,-338.68C921.23,-319.24 897.89,-292.96 871.32,-278 821.27,-249.83 757.02,-237 709,-231.15"/>
<polygon fill="#63b8ff" stroke="#63b8ff" points="933.8,-340.4 942.57,-346.33 939.41,-336.22 933.8,-340.4"/>
</a>
</g>
</g>
<!-- Node21&#45;&gt;Node5 -->
<g id="edge32_Node000021_Node000005" class="edge">
<title>Node21&#45;&gt;Node5</title>
<g id="a_edge32_Node000021_Node000005"><a xlink:title=" ">
<path fill="none" stroke="#63b8ff" d="M570.87,-205.27C533.55,-195.07 488.03,-182.63 452.43,-172.9"/>
<polygon fill="#63b8ff" stroke="#63b8ff" points="569.59,-208.82 580.16,-208.08 571.43,-202.07 569.59,-208.82"/>
</a>
</g>
</g>
<!-- Node21&#45;&gt;Node7 -->
<g id="edge33_Node000021_Node000007" class="edge">
<title>Node21&#45;&gt;Node7</title>
<g id="a_edge33_Node000021_Node000007"><a xlink:title=" ">
<path fill="none" stroke="#63b8ff" d="M652.01,-198.3C665.11,-164.87 681,-106.64 652.32,-69.5 636.39,-48.87 573.66,-34.88 523.02,-26.71"/>
<polygon fill="#63b8ff" stroke="#63b8ff" points="648.5,-196.65 647.92,-207.23 654.97,-199.32 648.5,-196.65"/>
</a>
</g>
</g>
<!-- Node22 -->
<g id="Node000022" class="node">
<title>Node22</title>
<g id="a_Node000022"><a xlink:href="sparse_8hpp.html" target="_top" xlink:title=" ">
<polygon fill="white" stroke="#666666" points="643.7,-172.5 506.95,-172.5 506.95,-139 643.7,-139 643.7,-172.5"/>
<text text-anchor="start" x="514.95" y="-159" font-family="Helvetica,sans-Serif" font-size="10.00">include/proxsuite/proxqp</text>
<text text-anchor="middle" x="575.32" y="-146.25" font-family="Helvetica,sans-Serif" font-size="10.00">/sparse/sparse.hpp</text>
</a>
</g>
</g>
<!-- Node21&#45;&gt;Node22 -->
<g id="edge34_Node000021_Node000022" class="edge">
<title>Node21&#45;&gt;Node22</title>
<g id="a_edge34_Node000021_Node000022"><a xlink:title=" ">
<path fill="none" stroke="#63b8ff" d="M617.45,-200.5C608.56,-191.27 598.61,-180.94 590.61,-172.63"/>
<polygon fill="#63b8ff" stroke="#63b8ff" points="614.46,-202.48 623.92,-207.25 619.5,-197.62 614.46,-202.48"/>
</a>
</g>
</g>
<!-- Node23&#45;&gt;Node20 -->
<g id="edge36_Node000023_Node000020" class="edge">
<title>Node23&#45;&gt;Node20</title>
<g id="a_edge36_Node000023_Node000020"><a xlink:title=" ">
<path fill="none" stroke="#63b8ff" d="M1009.54,-475.6C1008.18,-458.24 1004.75,-435.47 996.32,-417 990.21,-403.61 979.7,-390.86 970.6,-381.37"/>
<polygon fill="#63b8ff" stroke="#63b8ff" points="1006.08,-475.35 1010.17,-485.13 1013.06,-474.94 1006.08,-475.35"/>
</a>
</g>
</g>
<!-- Node23&#45;&gt;Node24 -->
<g id="edge37_Node000023_Node000024" class="edge">
<title>Node23&#45;&gt;Node24</title>
<g id="a_edge37_Node000023_Node000024"><a xlink:title=" ">
<path fill="none" stroke="#63b8ff" d="M974,-480.04C960.49,-470.49 945.9,-459.53 935.1,-450.79"/>
<polygon fill="#63b8ff" stroke="#63b8ff" points="971.46,-483.24 981.66,-486.08 975.46,-477.49 971.46,-483.24"/>
</a>
</g>
</g>
<!-- Node24&#45;&gt;Node20 -->
<g id="edge38_Node000024_Node000020" class="edge">
<title>Node24&#45;&gt;Node20</title>
<g id="a_edge38_Node000024_Node000020"><a xlink:title=" ">
<path fill="none" stroke="#63b8ff" d="M932.28,-407.03C936.67,-398.32 941.43,-388.85 945.32,-381.13"/>
<polygon fill="#63b8ff" stroke="#63b8ff" points="928.75,-405.25 927.38,-415.75 935,-408.4 928.75,-405.25"/>
</a>
</g>
</g>
<!-- Node24&#45;&gt;Node23 -->
<g id="edge39_Node000024_Node000023" class="edge">
<title>Node24&#45;&gt;Node23</title>
<g id="a_edge39_Node000024_Node000023"><a xlink:title=" ">
<path fill="none" stroke="#63b8ff" d="M955.59,-456.92C969.13,-466.5 983.77,-477.49 994.6,-486.25"/>
<polygon fill="#63b8ff" stroke="#63b8ff" points="958.11,-453.71 947.9,-450.87 954.11,-459.45 958.11,-453.71"/>
</a>
</g>
</g>
<!-- Node25&#45;&gt;Node20 -->
<g id="edge41_Node000025_Node000020" class="edge">
<title>Node25&#45;&gt;Node20</title>
<g id="a_edge41_Node000025_Node000020"><a xlink:title=" ">
<path fill="none" stroke="#63b8ff" d="M819.32,-545.24C815.79,-512 814.85,-454.81 842.32,-417 854.26,-400.57 872.73,-389.2 891.21,-381.4"/>
<polygon fill="#63b8ff" stroke="#63b8ff" points="815.93,-545.43 820.63,-554.93 822.88,-544.57 815.93,-545.43"/>
</a>
</g>
</g>
<!-- Node25&#45;&gt;Node23 -->
<g id="edge42_Node000025_Node000023" class="edge">
<title>Node25&#45;&gt;Node23</title>
<g id="a_edge42_Node000025_Node000023"><a xlink:title=" ">
<path fill="none" stroke="#63b8ff" d="M878.46,-551.85C906.21,-541.83 939.42,-529.84 965.57,-520.4"/>
<polygon fill="#63b8ff" stroke="#63b8ff" points="877.33,-548.89 869.11,-555.58 879.71,-555.48 877.33,-548.89"/>
</a>
</g>
</g>
<!-- Node25&#45;&gt;Node24 -->
<g id="edge43_Node000025_Node000024" class="edge">
<title>Node25&#45;&gt;Node24</title>
<g id="a_edge43_Node000025_Node000024"><a xlink:title=" ">
<path fill="none" stroke="#63b8ff" d="M840.68,-546.97C860.29,-518.99 891.61,-474.29 908.19,-450.63"/>
<polygon fill="#63b8ff" stroke="#63b8ff" points="837.39,-544.57 834.52,-554.77 843.13,-548.59 837.39,-544.57"/>
</a>
</g>
</g>
</g>
</svg>
