<?xml version="1.0" encoding="UTF-8" standalone="no"?>
<!DOCTYPE svg PUBLIC "-//W3C//DTD SVG 1.1//EN"
 "http://www.w3.org/Graphics/SVG/1.1/DTD/svg11.dtd">
<!-- Generated by graphviz version 5.0.0 (20220707.2338)
 -->
<!-- Title: include/proxsuite/proxqp/dense/preconditioner/ruiz.hpp Pages: 1 -->
<svg width="314pt" height="307pt"
 viewBox="0.00 0.00 313.50 307.00" xmlns="http://www.w3.org/2000/svg" xmlns:xlink="http://www.w3.org/1999/xlink">
<g id="graph0" class="graph" transform="scale(1 1) rotate(0) translate(4 303)">
<title>include/proxsuite/proxqp/dense/preconditioner/ruiz.hpp</title>
<!-- Node1 -->
<g id="node1" class="node">
<title>Node1</title>
<g id="a_node1"><a xlink:title=" ">
<polygon fill="#bfbfbf" stroke="black" points="141.5,-268.5 141.5,-298.5 305.5,-298.5 305.5,-268.5 141.5,-268.5"/>
<text text-anchor="start" x="149.5" y="-286.5" font-family="Helvetica,sans-Serif" font-size="10.00">include/proxsuite/proxqp</text>
<text text-anchor="middle" x="223.5" y="-275.5" font-family="Helvetica,sans-Serif" font-size="10.00">/dense/preconditioner/ruiz.hpp</text>
</a>
</g>
</g>
<!-- Node2 -->
<g id="node2" class="node">
<title>Node2</title>
<g id="a_node2"><a xlink:href="dense_2helpers_8hpp.html" target="_top" xlink:title=" ">
<polygon fill="none" stroke="black" points="0,-201.5 0,-231.5 137,-231.5 137,-201.5 0,-201.5"/>
<text text-anchor="start" x="8" y="-219.5" font-family="Helvetica,sans-Serif" font-size="10.00">include/proxsuite/proxqp</text>
<text text-anchor="middle" x="68.5" y="-208.5" font-family="Helvetica,sans-Serif" font-size="10.00">/dense/helpers.hpp</text>
</a>
</g>
</g>
<!-- Node1&#45;&gt;Node2 -->
<g id="edge1" class="edge">
<title>Node1&#45;&gt;Node2</title>
<path fill="none" stroke="midnightblue" d="M180.35,-264.41C155.61,-254.03 125,-241.2 102.07,-231.58"/>
<polygon fill="midnightblue" stroke="midnightblue" points="179.29,-267.76 189.87,-268.4 182,-261.3 179.29,-267.76"/>
</g>
<!-- Node4 -->
<g id="node4" class="node">
<title>Node4</title>
<g id="a_node4"><a xlink:href="dense_2wrapper_8hpp.html" target="_top" xlink:title=" ">
<polygon fill="none" stroke="black" points="126,-67.5 126,-97.5 263,-97.5 263,-67.5 126,-67.5"/>
<text text-anchor="start" x="134" y="-85.5" font-family="Helvetica,sans-Serif" font-size="10.00">include/proxsuite/proxqp</text>
<text text-anchor="middle" x="194.5" y="-74.5" font-family="Helvetica,sans-Serif" font-size="10.00">/dense/wrapper.hpp</text>
</a>
</g>
</g>
<!-- Node1&#45;&gt;Node4 -->
<g id="edge8" class="edge">
<title>Node1&#45;&gt;Node4</title>
<path fill="none" stroke="midnightblue" d="M268.87,-263.49C281.75,-255.72 294.24,-245.36 301.5,-232 308.08,-219.9 304.29,-214.49 301.5,-201 294.92,-169.23 293.46,-158.77 272.5,-134 259.47,-118.61 240.57,-106.21 224.64,-97.55"/>
<polygon fill="midnightblue" stroke="midnightblue" points="266.98,-260.54 259.95,-268.46 270.39,-266.65 266.98,-260.54"/>
</g>
<!-- Node6 -->
<g id="node6" class="node">
<title>Node6</title>
<g id="a_node6"><a xlink:href="dense_2utils_8hpp.html" target="_top" xlink:title=" ">
<polygon fill="none" stroke="black" points="155,-201.5 155,-231.5 292,-231.5 292,-201.5 155,-201.5"/>
<text text-anchor="start" x="163" y="-219.5" font-family="Helvetica,sans-Serif" font-size="10.00">include/proxsuite/proxqp</text>
<text text-anchor="middle" x="223.5" y="-208.5" font-family="Helvetica,sans-Serif" font-size="10.00">/dense/utils.hpp</text>
</a>
</g>
</g>
<!-- Node1&#45;&gt;Node6 -->
<g id="edge6" class="edge">
<title>Node1&#45;&gt;Node6</title>
<path fill="none" stroke="midnightblue" d="M223.5,-258.11C223.5,-249.15 223.5,-239.32 223.5,-231.58"/>
<polygon fill="midnightblue" stroke="midnightblue" points="220,-258.4 223.5,-268.4 227,-258.4 220,-258.4"/>
</g>
<!-- Node3 -->
<g id="node3" class="node">
<title>Node3</title>
<g id="a_node3"><a xlink:href="dense_2solver_8hpp.html" target="_top" xlink:title=" ">
<polygon fill="none" stroke="black" points="126,-134.5 126,-164.5 263,-164.5 263,-134.5 126,-134.5"/>
<text text-anchor="start" x="134" y="-152.5" font-family="Helvetica,sans-Serif" font-size="10.00">include/proxsuite/proxqp</text>
<text text-anchor="middle" x="194.5" y="-141.5" font-family="Helvetica,sans-Serif" font-size="10.00">/dense/solver.hpp</text>
</a>
</g>
</g>
<!-- Node2&#45;&gt;Node3 -->
<g id="edge2" class="edge">
<title>Node2&#45;&gt;Node3</title>
<path fill="none" stroke="midnightblue" d="M104.92,-196.71C124.79,-186.46 148.98,-173.98 167.21,-164.58"/>
<polygon fill="midnightblue" stroke="midnightblue" points="103.12,-193.7 95.84,-201.4 106.33,-199.92 103.12,-193.7"/>
</g>
<!-- Node2&#45;&gt;Node4 -->
<g id="edge5" class="edge">
<title>Node2&#45;&gt;Node4</title>
<path fill="none" stroke="midnightblue" d="M79.16,-191.81C87.77,-174.44 101.14,-151.01 117.5,-134 131.68,-119.25 150.93,-106.63 166.64,-97.69"/>
<polygon fill="midnightblue" stroke="midnightblue" points="75.8,-190.71 74.65,-201.24 82.12,-193.73 75.8,-190.71"/>
</g>
<!-- Node3&#45;&gt;Node4 -->
<g id="edge3" class="edge">
<title>Node3&#45;&gt;Node4</title>
<path fill="none" stroke="midnightblue" d="M194.5,-124.11C194.5,-115.15 194.5,-105.32 194.5,-97.58"/>
<polygon fill="midnightblue" stroke="midnightblue" points="191,-124.4 194.5,-134.4 198,-124.4 191,-124.4"/>
</g>
<!-- Node5 -->
<g id="node5" class="node">
<title>Node5</title>
<g id="a_node5"><a xlink:href="dense_8hpp.html" target="_top" xlink:title=" ">
<polygon fill="none" stroke="black" points="126,-0.5 126,-30.5 263,-30.5 263,-0.5 126,-0.5"/>
<text text-anchor="start" x="134" y="-18.5" font-family="Helvetica,sans-Serif" font-size="10.00">include/proxsuite/proxqp</text>
<text text-anchor="middle" x="194.5" y="-7.5" font-family="Helvetica,sans-Serif" font-size="10.00">/dense/dense.hpp</text>
</a>
</g>
</g>
<!-- Node4&#45;&gt;Node5 -->
<g id="edge4" class="edge">
<title>Node4&#45;&gt;Node5</title>
<path fill="none" stroke="midnightblue" d="M194.5,-57.11C194.5,-48.15 194.5,-38.32 194.5,-30.58"/>
<polygon fill="midnightblue" stroke="midnightblue" points="191,-57.4 194.5,-67.4 198,-57.4 191,-57.4"/>
</g>
<!-- Node6&#45;&gt;Node3 -->
<g id="edge7" class="edge">
<title>Node6&#45;&gt;Node3</title>
<path fill="none" stroke="midnightblue" d="M213.01,-191.99C208.91,-182.8 204.35,-172.58 200.78,-164.58"/>
<polygon fill="midnightblue" stroke="midnightblue" points="209.94,-193.69 217.21,-201.4 216.33,-190.84 209.94,-193.69"/>
</g>
</g>
</svg>
