<?xml version="1.0" encoding="UTF-8" standalone="no"?>
<!DOCTYPE svg PUBLIC "-//W3C//DTD SVG 1.1//EN"
 "http://www.w3.org/Graphics/SVG/1.1/DTD/svg11.dtd">
<!-- Generated by graphviz version 5.0.1 (20220821.0811)
 -->
<!-- Title: include/proxsuite/linalg/dense/core.hpp Pages: 1 -->
<svg width="865pt" height="575pt"
 viewBox="0.00 0.00 864.93 575.00" xmlns="http://www.w3.org/2000/svg" xmlns:xlink="http://www.w3.org/1999/xlink">
<g id="graph0" class="graph" transform="scale(1 1) rotate(0) translate(4 571)">
<title>include/proxsuite/linalg/dense/core.hpp</title>
<!-- Node1 -->
<g id="node1" class="node">
<title>Node1</title>
<g id="a_node1"><a xlink:title=" ">
<polygon fill="#bfbfbf" stroke="black" points="420.1,-536.5 420.1,-566.5 551.1,-566.5 551.1,-536.5 420.1,-536.5"/>
<text text-anchor="start" x="428.1" y="-554.5" font-family="Helvetica,sans-Serif" font-size="10.00">include/proxsuite/linalg</text>
<text text-anchor="middle" x="485.6" y="-543.5" font-family="Helvetica,sans-Serif" font-size="10.00">/dense/core.hpp</text>
</a>
</g>
</g>
<!-- Node2 -->
<g id="node2" class="node">
<title>Node2</title>
<g id="a_node2"><a xlink:href="dense_2factorize_8hpp.html" target="_top" xlink:title=" ">
<polygon fill="none" stroke="black" points="420.1,-469.5 420.1,-499.5 551.1,-499.5 551.1,-469.5 420.1,-469.5"/>
<text text-anchor="start" x="428.1" y="-487.5" font-family="Helvetica,sans-Serif" font-size="10.00">include/proxsuite/linalg</text>
<text text-anchor="middle" x="485.6" y="-476.5" font-family="Helvetica,sans-Serif" font-size="10.00">/dense/factorize.hpp</text>
</a>
</g>
</g>
<!-- Node1&#45;&gt;Node2 -->
<g id="edge1" class="edge">
<title>Node1&#45;&gt;Node2</title>
<path fill="none" stroke="midnightblue" d="M485.6,-526.11C485.6,-517.15 485.6,-507.32 485.6,-499.58"/>
<polygon fill="midnightblue" stroke="midnightblue" points="482.1,-526.4 485.6,-536.4 489.1,-526.4 482.1,-526.4"/>
</g>
<!-- Node10 -->
<g id="node10" class="node">
<title>Node10</title>
<g id="a_node10"><a xlink:href="modify_8hpp.html" target="_top" xlink:title=" ">
<polygon fill="none" stroke="black" points="326.1,-402.5 326.1,-432.5 457.1,-432.5 457.1,-402.5 326.1,-402.5"/>
<text text-anchor="start" x="334.1" y="-420.5" font-family="Helvetica,sans-Serif" font-size="10.00">include/proxsuite/linalg</text>
<text text-anchor="middle" x="391.6" y="-409.5" font-family="Helvetica,sans-Serif" font-size="10.00">/dense/modify.hpp</text>
</a>
</g>
</g>
<!-- Node1&#45;&gt;Node10 -->
<g id="edge13" class="edge">
<title>Node1&#45;&gt;Node10</title>
<path fill="none" stroke="midnightblue" d="M445.57,-531.28C432.67,-523.27 419.43,-512.81 410.6,-500 396.5,-479.55 392.76,-450.05 391.83,-432.72"/>
<polygon fill="midnightblue" stroke="midnightblue" points="444,-534.42 454.4,-536.44 447.53,-528.37 444,-534.42"/>
</g>
<!-- Node11 -->
<g id="node11" class="node">
<title>Node11</title>
<g id="a_node11"><a xlink:href="solve_8hpp.html" target="_top" xlink:title=" ">
<polygon fill="none" stroke="black" points="138.1,-402.5 138.1,-432.5 269.1,-432.5 269.1,-402.5 138.1,-402.5"/>
<text text-anchor="start" x="146.1" y="-420.5" font-family="Helvetica,sans-Serif" font-size="10.00">include/proxsuite/linalg</text>
<text text-anchor="middle" x="203.6" y="-409.5" font-family="Helvetica,sans-Serif" font-size="10.00">/dense/solve.hpp</text>
</a>
</g>
</g>
<!-- Node1&#45;&gt;Node11 -->
<g id="edge14" class="edge">
<title>Node1&#45;&gt;Node11</title>
<path fill="none" stroke="midnightblue" d="M409.75,-545.03C341.8,-538.55 248.9,-525.29 222.6,-500 204.27,-482.38 202.12,-450.76 202.6,-432.52"/>
<polygon fill="midnightblue" stroke="midnightblue" points="409.73,-548.54 420.01,-545.97 410.37,-541.57 409.73,-548.54"/>
</g>
<!-- Node12 -->
<g id="node12" class="node">
<title>Node12</title>
<g id="a_node12"><a xlink:href="dense_2update_8hpp.html" target="_top" xlink:title=" ">
<polygon fill="none" stroke="black" points="232.1,-469.5 232.1,-499.5 363.1,-499.5 363.1,-469.5 232.1,-469.5"/>
<text text-anchor="start" x="240.1" y="-487.5" font-family="Helvetica,sans-Serif" font-size="10.00">include/proxsuite/linalg</text>
<text text-anchor="middle" x="297.6" y="-476.5" font-family="Helvetica,sans-Serif" font-size="10.00">/dense/update.hpp</text>
</a>
</g>
</g>
<!-- Node1&#45;&gt;Node12 -->
<g id="edge16" class="edge">
<title>Node1&#45;&gt;Node12</title>
<path fill="none" stroke="midnightblue" d="M435.25,-533.09C404.9,-522.6 366.75,-509.41 338.31,-499.58"/>
<polygon fill="midnightblue" stroke="midnightblue" points="434.21,-536.44 444.8,-536.4 436.5,-529.82 434.21,-536.44"/>
</g>
<!-- Node13 -->
<g id="node13" class="node">
<title>Node13</title>
<g id="a_node13"><a xlink:href="dense_2preconditioner_2ruiz_8hpp.html" target="_top" xlink:title=" ">
<polygon fill="none" stroke="black" points="10.6,-268.5 10.6,-298.5 174.6,-298.5 174.6,-268.5 10.6,-268.5"/>
<text text-anchor="start" x="18.6" y="-286.5" font-family="Helvetica,sans-Serif" font-size="10.00">include/proxsuite/proxqp</text>
<text text-anchor="middle" x="92.6" y="-275.5" font-family="Helvetica,sans-Serif" font-size="10.00">/dense/preconditioner/ruiz.hpp</text>
</a>
</g>
</g>
<!-- Node1&#45;&gt;Node13 -->
<g id="edge19" class="edge">
<title>Node1&#45;&gt;Node13</title>
<path fill="none" stroke="midnightblue" d="M409.72,-548.11C350.88,-543.67 268.67,-531.69 203.6,-500 163.41,-480.43 151.57,-471.34 128.6,-433 102.15,-388.85 95.11,-326.34 93.26,-298.64"/>
<polygon fill="midnightblue" stroke="midnightblue" points="409.83,-551.62 420.05,-548.83 410.32,-544.64 409.83,-551.62"/>
</g>
<!-- Node15 -->
<g id="node15" class="node">
<title>Node15</title>
<g id="a_node15"><a xlink:href="sparse_2solver_8hpp.html" target="_top" xlink:title=" ">
<polygon fill="none" stroke="black" points="656.1,-268.5 656.1,-298.5 793.1,-298.5 793.1,-268.5 656.1,-268.5"/>
<text text-anchor="start" x="664.1" y="-286.5" font-family="Helvetica,sans-Serif" font-size="10.00">include/proxsuite/proxqp</text>
<text text-anchor="middle" x="724.6" y="-275.5" font-family="Helvetica,sans-Serif" font-size="10.00">/sparse/solver.hpp</text>
</a>
</g>
</g>
<!-- Node1&#45;&gt;Node15 -->
<g id="edge25" class="edge">
<title>Node1&#45;&gt;Node15</title>
<path fill="none" stroke="midnightblue" d="M561.43,-548.53C622.03,-544.37 707.76,-532.56 775.6,-500 816.19,-480.52 833.07,-474.04 851.6,-433 877.63,-375.34 798.33,-322.88 753.35,-298.64"/>
<polygon fill="midnightblue" stroke="midnightblue" points="560.93,-545.05 551.17,-549.18 561.37,-552.04 560.93,-545.05"/>
</g>
<!-- Node18 -->
<g id="node18" class="node">
<title>Node18</title>
<g id="a_node18"><a xlink:href="sparse_2utils_8hpp.html" target="_top" xlink:title=" ">
<polygon fill="none" stroke="black" points="705.1,-402.5 705.1,-432.5 842.1,-432.5 842.1,-402.5 705.1,-402.5"/>
<text text-anchor="start" x="713.1" y="-420.5" font-family="Helvetica,sans-Serif" font-size="10.00">include/proxsuite/proxqp</text>
<text text-anchor="middle" x="773.6" y="-409.5" font-family="Helvetica,sans-Serif" font-size="10.00">/sparse/utils.hpp</text>
</a>
</g>
</g>
<!-- Node1&#45;&gt;Node18 -->
<g id="edge28" class="edge">
<title>Node1&#45;&gt;Node18</title>
<path fill="none" stroke="midnightblue" d="M561.47,-545.4C631.1,-539.15 727.45,-526 754.6,-500 772.96,-482.42 775.1,-450.79 774.61,-432.53"/>
<polygon fill="midnightblue" stroke="midnightblue" points="561.06,-541.93 551.4,-546.28 561.67,-548.9 561.06,-541.93"/>
</g>
<!-- Node19 -->
<g id="node19" class="node">
<title>Node19</title>
<g id="a_node19"><a xlink:href="sparse_2workspace_8hpp.html" target="_top" xlink:title=" ">
<polygon fill="none" stroke="black" points="511.1,-335.5 511.1,-365.5 648.1,-365.5 648.1,-335.5 511.1,-335.5"/>
<text text-anchor="start" x="519.1" y="-353.5" font-family="Helvetica,sans-Serif" font-size="10.00">include/proxsuite/proxqp</text>
<text text-anchor="middle" x="579.6" y="-342.5" font-family="Helvetica,sans-Serif" font-size="10.00">/sparse/workspace.hpp</text>
</a>
</g>
</g>
<!-- Node1&#45;&gt;Node19 -->
<g id="edge36" class="edge">
<title>Node1&#45;&gt;Node19</title>
<path fill="none" stroke="midnightblue" d="M527.01,-531.38C539.77,-523.46 552.56,-513.03 560.6,-500 587.07,-457.08 584.33,-393.93 581.45,-365.86"/>
<polygon fill="midnightblue" stroke="midnightblue" points="525.13,-528.42 518.24,-536.46 528.64,-534.47 525.13,-528.42"/>
</g>
<!-- Node20 -->
<g id="node20" class="node">
<title>Node20</title>
<g id="a_node20"><a xlink:href="sparse_2views_8hpp.html" target="_top" xlink:title=" ">
<polygon fill="none" stroke="black" points="608.1,-469.5 608.1,-499.5 745.1,-499.5 745.1,-469.5 608.1,-469.5"/>
<text text-anchor="start" x="616.1" y="-487.5" font-family="Helvetica,sans-Serif" font-size="10.00">include/proxsuite/proxqp</text>
<text text-anchor="middle" x="676.6" y="-476.5" font-family="Helvetica,sans-Serif" font-size="10.00">/sparse/views.hpp</text>
</a>
</g>
</g>
<!-- Node1&#45;&gt;Node20 -->
<g id="edge32" class="edge">
<title>Node1&#45;&gt;Node20</title>
<path fill="none" stroke="midnightblue" d="M536.75,-533.09C567.58,-522.6 606.34,-509.41 635.23,-499.58"/>
<polygon fill="midnightblue" stroke="midnightblue" points="535.38,-529.86 527.04,-536.4 537.64,-536.49 535.38,-529.86"/>
</g>
<!-- Node3 -->
<g id="node3" class="node">
<title>Node3</title>
<g id="a_node3"><a xlink:href="ldlt_8hpp.html" target="_top" xlink:title=" ">
<polygon fill="none" stroke="black" points="326.1,-335.5 326.1,-365.5 457.1,-365.5 457.1,-335.5 326.1,-335.5"/>
<text text-anchor="start" x="334.1" y="-353.5" font-family="Helvetica,sans-Serif" font-size="10.00">include/proxsuite/linalg</text>
<text text-anchor="middle" x="391.6" y="-342.5" font-family="Helvetica,sans-Serif" font-size="10.00">/dense/ldlt.hpp</text>
</a>
</g>
</g>
<!-- Node2&#45;&gt;Node3 -->
<g id="edge2" class="edge">
<title>Node2&#45;&gt;Node3</title>
<path fill="none" stroke="midnightblue" d="M484.17,-458.89C482.13,-441.65 477.24,-418.79 465.6,-402 454.78,-386.41 437.47,-374.21 422.31,-365.71"/>
<polygon fill="midnightblue" stroke="midnightblue" points="480.73,-459.65 485.14,-469.28 487.7,-459 480.73,-459.65"/>
</g>
<!-- Node2&#45;&gt;Node10 -->
<g id="edge11" class="edge">
<title>Node2&#45;&gt;Node10</title>
<path fill="none" stroke="midnightblue" d="M456.6,-463.45C442.14,-453.45 425,-441.6 411.95,-432.58"/>
<polygon fill="midnightblue" stroke="midnightblue" points="454.99,-466.59 465.2,-469.4 458.97,-460.83 454.99,-466.59"/>
</g>
<!-- Node4 -->
<g id="node4" class="node">
<title>Node4</title>
<g id="a_node4"><a xlink:href="dense_2solver_8hpp.html" target="_top" xlink:title=" ">
<polygon fill="none" stroke="black" points="172.1,-134.5 172.1,-164.5 309.1,-164.5 309.1,-134.5 172.1,-134.5"/>
<text text-anchor="start" x="180.1" y="-152.5" font-family="Helvetica,sans-Serif" font-size="10.00">include/proxsuite/proxqp</text>
<text text-anchor="middle" x="240.6" y="-141.5" font-family="Helvetica,sans-Serif" font-size="10.00">/dense/solver.hpp</text>
</a>
</g>
</g>
<!-- Node3&#45;&gt;Node4 -->
<g id="edge3" class="edge">
<title>Node3&#45;&gt;Node4</title>
<path fill="none" stroke="midnightblue" d="M435.6,-330.31C448.4,-322.5 460.98,-312.15 468.6,-299 490.45,-261.28 499.95,-234.94 472.6,-201 452.36,-175.88 370.16,-162.6 309.32,-156.07"/>
<polygon fill="midnightblue" stroke="midnightblue" points="433.73,-327.35 426.76,-335.32 437.18,-333.44 433.73,-327.35"/>
</g>
<!-- Node7 -->
<g id="node7" class="node">
<title>Node7</title>
<g id="a_node7"><a xlink:href="dense_2workspace_8hpp.html" target="_top" xlink:title=" ">
<polygon fill="none" stroke="black" points="323.1,-268.5 323.1,-298.5 460.1,-298.5 460.1,-268.5 323.1,-268.5"/>
<text text-anchor="start" x="331.1" y="-286.5" font-family="Helvetica,sans-Serif" font-size="10.00">include/proxsuite/proxqp</text>
<text text-anchor="middle" x="391.6" y="-275.5" font-family="Helvetica,sans-Serif" font-size="10.00">/dense/workspace.hpp</text>
</a>
</g>
</g>
<!-- Node3&#45;&gt;Node7 -->
<g id="edge6" class="edge">
<title>Node3&#45;&gt;Node7</title>
<path fill="none" stroke="midnightblue" d="M391.6,-325.11C391.6,-316.15 391.6,-306.32 391.6,-298.58"/>
<polygon fill="midnightblue" stroke="midnightblue" points="388.1,-325.4 391.6,-335.4 395.1,-325.4 388.1,-325.4"/>
</g>
<!-- Node5 -->
<g id="node5" class="node">
<title>Node5</title>
<g id="a_node5"><a xlink:href="dense_2wrapper_8hpp.html" target="_top" xlink:title=" ">
<polygon fill="none" stroke="black" points="17.1,-67.5 17.1,-97.5 154.1,-97.5 154.1,-67.5 17.1,-67.5"/>
<text text-anchor="start" x="25.1" y="-85.5" font-family="Helvetica,sans-Serif" font-size="10.00">include/proxsuite/proxqp</text>
<text text-anchor="middle" x="85.6" y="-74.5" font-family="Helvetica,sans-Serif" font-size="10.00">/dense/wrapper.hpp</text>
</a>
</g>
</g>
<!-- Node4&#45;&gt;Node5 -->
<g id="edge4" class="edge">
<title>Node4&#45;&gt;Node5</title>
<path fill="none" stroke="midnightblue" d="M197.45,-130.41C172.71,-120.03 142.1,-107.2 119.16,-97.58"/>
<polygon fill="midnightblue" stroke="midnightblue" points="196.39,-133.76 206.97,-134.4 199.1,-127.3 196.39,-133.76"/>
</g>
<!-- Node6 -->
<g id="node6" class="node">
<title>Node6</title>
<g id="a_node6"><a xlink:href="dense_8hpp.html" target="_top" xlink:title=" ">
<polygon fill="none" stroke="black" points="17.1,-0.5 17.1,-30.5 154.1,-30.5 154.1,-0.5 17.1,-0.5"/>
<text text-anchor="start" x="25.1" y="-18.5" font-family="Helvetica,sans-Serif" font-size="10.00">include/proxsuite/proxqp</text>
<text text-anchor="middle" x="85.6" y="-7.5" font-family="Helvetica,sans-Serif" font-size="10.00">/dense/dense.hpp</text>
</a>
</g>
</g>
<!-- Node5&#45;&gt;Node6 -->
<g id="edge5" class="edge">
<title>Node5&#45;&gt;Node6</title>
<path fill="none" stroke="midnightblue" d="M85.6,-57.11C85.6,-48.15 85.6,-38.32 85.6,-30.58"/>
<polygon fill="midnightblue" stroke="midnightblue" points="82.1,-57.4 85.6,-67.4 89.1,-57.4 82.1,-57.4"/>
</g>
<!-- Node8 -->
<g id="node8" class="node">
<title>Node8</title>
<g id="a_node8"><a xlink:href="linesearch_8hpp.html" target="_top" xlink:title=" ">
<polygon fill="none" stroke="black" points="327.1,-201.5 327.1,-231.5 464.1,-231.5 464.1,-201.5 327.1,-201.5"/>
<text text-anchor="start" x="335.1" y="-219.5" font-family="Helvetica,sans-Serif" font-size="10.00">include/proxsuite/proxqp</text>
<text text-anchor="middle" x="395.6" y="-208.5" font-family="Helvetica,sans-Serif" font-size="10.00">/dense/linesearch.hpp</text>
</a>
</g>
</g>
<!-- Node7&#45;&gt;Node8 -->
<g id="edge7" class="edge">
<title>Node7&#45;&gt;Node8</title>
<path fill="none" stroke="midnightblue" d="M393.08,-258.4C393.64,-249.37 394.25,-239.41 394.73,-231.58"/>
<polygon fill="midnightblue" stroke="midnightblue" points="389.59,-258.2 392.47,-268.4 396.57,-258.63 389.59,-258.2"/>
</g>
<!-- Node9 -->
<g id="node9" class="node">
<title>Node9</title>
<g id="a_node9"><a xlink:href="dense_2utils_8hpp.html" target="_top" xlink:title=" ">
<polygon fill="none" stroke="black" points="172.1,-201.5 172.1,-231.5 309.1,-231.5 309.1,-201.5 172.1,-201.5"/>
<text text-anchor="start" x="180.1" y="-219.5" font-family="Helvetica,sans-Serif" font-size="10.00">include/proxsuite/proxqp</text>
<text text-anchor="middle" x="240.6" y="-208.5" font-family="Helvetica,sans-Serif" font-size="10.00">/dense/utils.hpp</text>
</a>
</g>
</g>
<!-- Node7&#45;&gt;Node9 -->
<g id="edge9" class="edge">
<title>Node7&#45;&gt;Node9</title>
<path fill="none" stroke="midnightblue" d="M349.57,-264.41C325.46,-254.03 295.64,-241.2 273.3,-231.58"/>
<polygon fill="midnightblue" stroke="midnightblue" points="348.26,-267.66 358.83,-268.4 351.03,-261.23 348.26,-267.66"/>
</g>
<!-- Node8&#45;&gt;Node4 -->
<g id="edge8" class="edge">
<title>Node8&#45;&gt;Node4</title>
<path fill="none" stroke="midnightblue" d="M352.45,-197.41C327.71,-187.03 297.1,-174.2 274.16,-164.58"/>
<polygon fill="midnightblue" stroke="midnightblue" points="351.39,-200.76 361.97,-201.4 354.1,-194.3 351.39,-200.76"/>
</g>
<!-- Node9&#45;&gt;Node4 -->
<g id="edge10" class="edge">
<title>Node9&#45;&gt;Node4</title>
<path fill="none" stroke="midnightblue" d="M240.6,-191.11C240.6,-182.15 240.6,-172.32 240.6,-164.58"/>
<polygon fill="midnightblue" stroke="midnightblue" points="237.1,-191.4 240.6,-201.4 244.1,-191.4 237.1,-191.4"/>
</g>
<!-- Node10&#45;&gt;Node3 -->
<g id="edge12" class="edge">
<title>Node10&#45;&gt;Node3</title>
<path fill="none" stroke="midnightblue" d="M391.6,-392.11C391.6,-383.15 391.6,-373.32 391.6,-365.58"/>
<polygon fill="midnightblue" stroke="midnightblue" points="388.1,-392.4 391.6,-402.4 395.1,-392.4 388.1,-392.4"/>
</g>
<!-- Node11&#45;&gt;Node3 -->
<g id="edge15" class="edge">
<title>Node11&#45;&gt;Node3</title>
<path fill="none" stroke="midnightblue" d="M253.95,-399.09C284.3,-388.6 322.45,-375.41 350.88,-365.58"/>
<polygon fill="midnightblue" stroke="midnightblue" points="252.7,-395.82 244.39,-402.4 254.99,-402.44 252.7,-395.82"/>
</g>
<!-- Node12&#45;&gt;Node3 -->
<g id="edge17" class="edge">
<title>Node12&#45;&gt;Node3</title>
<path fill="none" stroke="midnightblue" d="M298.64,-458.88C300.43,-441.64 305.03,-418.78 316.6,-402 327.47,-386.23 345.01,-374.03 360.4,-365.56"/>
<polygon fill="midnightblue" stroke="midnightblue" points="295.12,-459.03 297.83,-469.28 302.1,-459.58 295.12,-459.03"/>
</g>
<!-- Node12&#45;&gt;Node10 -->
<g id="edge18" class="edge">
<title>Node12&#45;&gt;Node10</title>
<path fill="none" stroke="midnightblue" d="M326.59,-463.45C341.05,-453.45 358.19,-441.6 371.24,-432.58"/>
<polygon fill="midnightblue" stroke="midnightblue" points="324.23,-460.83 317.99,-469.4 328.21,-466.59 324.23,-460.83"/>
</g>
<!-- Node13&#45;&gt;Node5 -->
<g id="edge24" class="edge">
<title>Node13&#45;&gt;Node5</title>
<path fill="none" stroke="midnightblue" d="M42.2,-263.75C28.55,-256.08 15.4,-245.71 7.6,-232 -20.06,-183.4 37.65,-124.17 68.23,-97.59"/>
<polygon fill="midnightblue" stroke="midnightblue" points="40.71,-266.91 51.2,-268.4 43.92,-260.7 40.71,-266.91"/>
</g>
<!-- Node13&#45;&gt;Node9 -->
<g id="edge23" class="edge">
<title>Node13&#45;&gt;Node9</title>
<path fill="none" stroke="midnightblue" d="M134.11,-264.27C157.68,-253.92 186.74,-241.15 208.55,-231.58"/>
<polygon fill="midnightblue" stroke="midnightblue" points="132.46,-261.17 124.71,-268.4 135.27,-267.58 132.46,-261.17"/>
</g>
<!-- Node14 -->
<g id="node14" class="node">
<title>Node14</title>
<g id="a_node14"><a xlink:href="dense_2helpers_8hpp.html" target="_top" xlink:title=" ">
<polygon fill="none" stroke="black" points="17.1,-201.5 17.1,-231.5 154.1,-231.5 154.1,-201.5 17.1,-201.5"/>
<text text-anchor="start" x="25.1" y="-219.5" font-family="Helvetica,sans-Serif" font-size="10.00">include/proxsuite/proxqp</text>
<text text-anchor="middle" x="85.6" y="-208.5" font-family="Helvetica,sans-Serif" font-size="10.00">/dense/helpers.hpp</text>
</a>
</g>
</g>
<!-- Node13&#45;&gt;Node14 -->
<g id="edge20" class="edge">
<title>Node13&#45;&gt;Node14</title>
<path fill="none" stroke="midnightblue" d="M90,-258.4C89.03,-249.37 87.96,-239.41 87.11,-231.58"/>
<polygon fill="midnightblue" stroke="midnightblue" points="86.53,-258.83 91.08,-268.4 93.49,-258.08 86.53,-258.83"/>
</g>
<!-- Node14&#45;&gt;Node4 -->
<g id="edge21" class="edge">
<title>Node14&#45;&gt;Node4</title>
<path fill="none" stroke="midnightblue" d="M128.74,-197.41C153.49,-187.03 184.09,-174.2 207.03,-164.58"/>
<polygon fill="midnightblue" stroke="midnightblue" points="127.1,-194.3 119.23,-201.4 129.81,-200.76 127.1,-194.3"/>
</g>
<!-- Node14&#45;&gt;Node5 -->
<g id="edge22" class="edge">
<title>Node14&#45;&gt;Node5</title>
<path fill="none" stroke="midnightblue" d="M85.6,-191.02C85.6,-163.51 85.6,-119.79 85.6,-97.52"/>
<polygon fill="midnightblue" stroke="midnightblue" points="82.1,-191.37 85.6,-201.37 89.1,-191.37 82.1,-191.37"/>
</g>
<!-- Node16 -->
<g id="node16" class="node">
<title>Node16</title>
<g id="a_node16"><a xlink:href="sparse_2wrapper_8hpp.html" target="_top" xlink:title=" ">
<polygon fill="none" stroke="black" points="656.1,-201.5 656.1,-231.5 793.1,-231.5 793.1,-201.5 656.1,-201.5"/>
<text text-anchor="start" x="664.1" y="-219.5" font-family="Helvetica,sans-Serif" font-size="10.00">include/proxsuite/proxqp</text>
<text text-anchor="middle" x="724.6" y="-208.5" font-family="Helvetica,sans-Serif" font-size="10.00">/sparse/wrapper.hpp</text>
</a>
</g>
</g>
<!-- Node15&#45;&gt;Node16 -->
<g id="edge26" class="edge">
<title>Node15&#45;&gt;Node16</title>
<path fill="none" stroke="midnightblue" d="M724.6,-258.11C724.6,-249.15 724.6,-239.32 724.6,-231.58"/>
<polygon fill="midnightblue" stroke="midnightblue" points="721.1,-258.4 724.6,-268.4 728.1,-258.4 721.1,-258.4"/>
</g>
<!-- Node17 -->
<g id="node17" class="node">
<title>Node17</title>
<g id="a_node17"><a xlink:href="sparse_8hpp.html" target="_top" xlink:title=" ">
<polygon fill="none" stroke="black" points="656.1,-134.5 656.1,-164.5 793.1,-164.5 793.1,-134.5 656.1,-134.5"/>
<text text-anchor="start" x="664.1" y="-152.5" font-family="Helvetica,sans-Serif" font-size="10.00">include/proxsuite/proxqp</text>
<text text-anchor="middle" x="724.6" y="-141.5" font-family="Helvetica,sans-Serif" font-size="10.00">/sparse/sparse.hpp</text>
</a>
</g>
</g>
<!-- Node16&#45;&gt;Node17 -->
<g id="edge27" class="edge">
<title>Node16&#45;&gt;Node17</title>
<path fill="none" stroke="midnightblue" d="M724.6,-191.11C724.6,-182.15 724.6,-172.32 724.6,-164.58"/>
<polygon fill="midnightblue" stroke="midnightblue" points="721.1,-191.4 724.6,-201.4 728.1,-191.4 721.1,-191.4"/>
</g>
<!-- Node18&#45;&gt;Node15 -->
<g id="edge29" class="edge">
<title>Node18&#45;&gt;Node15</title>
<path fill="none" stroke="midnightblue" d="M764.78,-392.75C754.59,-365.29 738.14,-320.99 729.8,-298.52"/>
<polygon fill="midnightblue" stroke="midnightblue" points="761.59,-394.22 768.35,-402.37 768.16,-391.78 761.59,-394.22"/>
</g>
<!-- Node18&#45;&gt;Node19 -->
<g id="edge30" class="edge">
<title>Node18&#45;&gt;Node19</title>
<path fill="none" stroke="midnightblue" d="M721.64,-399.09C690.32,-388.6 650.95,-375.41 621.61,-365.58"/>
<polygon fill="midnightblue" stroke="midnightblue" points="720.91,-402.54 731.5,-402.4 723.13,-395.9 720.91,-402.54"/>
</g>
<!-- Node19&#45;&gt;Node15 -->
<g id="edge31" class="edge">
<title>Node19&#45;&gt;Node15</title>
<path fill="none" stroke="midnightblue" d="M620.27,-331.27C643.36,-320.92 671.83,-308.15 693.2,-298.58"/>
<polygon fill="midnightblue" stroke="midnightblue" points="618.75,-328.11 611.06,-335.4 621.62,-334.5 618.75,-328.11"/>
</g>
<!-- Node20&#45;&gt;Node15 -->
<g id="edge33" class="edge">
<title>Node20&#45;&gt;Node15</title>
<path fill="none" stroke="midnightblue" d="M682.44,-459.27C692.57,-417.29 713.06,-332.33 721.18,-298.68"/>
<polygon fill="midnightblue" stroke="midnightblue" points="678.99,-458.65 680.05,-469.19 685.8,-460.29 678.99,-458.65"/>
</g>
<!-- Node20&#45;&gt;Node18 -->
<g id="edge34" class="edge">
<title>Node20&#45;&gt;Node18</title>
<path fill="none" stroke="midnightblue" d="M706.1,-463.73C721.11,-453.68 739,-441.68 752.59,-432.58"/>
<polygon fill="midnightblue" stroke="midnightblue" points="704,-460.92 697.65,-469.4 707.9,-466.74 704,-460.92"/>
</g>
<!-- Node20&#45;&gt;Node19 -->
<g id="edge35" class="edge">
<title>Node20&#45;&gt;Node19</title>
<path fill="none" stroke="midnightblue" d="M660.2,-461.19C640.12,-433.86 606.7,-388.38 589.9,-365.52"/>
<polygon fill="midnightblue" stroke="midnightblue" points="657.48,-463.39 666.22,-469.37 663.12,-459.24 657.48,-463.39"/>
</g>
</g>
</svg>
