<?xml version="1.0" encoding="UTF-8" standalone="no"?>
<!DOCTYPE svg PUBLIC "-//W3C//DTD SVG 1.1//EN"
 "http://www.w3.org/Graphics/SVG/1.1/DTD/svg11.dtd">
<!-- Generated by graphviz version 5.0.1 (20220821.0811)
 -->
<!-- Title: include/proxsuite/proxqp/sparse Pages: 1 -->
<svg width="302pt" height="149pt"
 viewBox="0.00 0.00 302.00 149.00" xmlns="http://www.w3.org/2000/svg" xmlns:xlink="http://www.w3.org/1999/xlink">
<g id="graph0" class="graph" transform="scale(1 1) rotate(0) translate(4 145)">
<title>include/proxsuite/proxqp/sparse</title>
<g id="clust1" class="cluster">
<title>clusterdir_01caf7e9e8b3e7ed928385229a2afbb9</title>
<g id="a_clust1"><a xlink:href="dir_01caf7e9e8b3e7ed928385229a2afbb9.html" target="_top" xlink:title="proxqp">
<polygon fill="#edf0f7" stroke="#7f7f7f" stroke-dasharray="5,2" points="8,-8 8,-133 240,-133 240,-8 8,-8"/>
<text text-anchor="middle" x="124" y="-121" font-family="Helvetica,sans-Serif" font-size="10.00">proxqp</text>
</a>
</g>
</g>
<g id="clust2" class="cluster">
<title>clusterdir_1705c7da2126935c41561a728c3333cc</title>
<g id="a_clust2"><a xlink:href="dir_1705c7da2126935c41561a728c3333cc.html" target="_top">
<polygon fill="#edf0f7" stroke="#404040" stroke-width="2" points="16,-16 16,-106 120,-106 120,-16 16,-16"/>
</a>
</g>
</g>
<!-- dir_20facd4f77d2dec2662dab4b835c14f3 -->
<g id="node1" class="node">
<title>dir_20facd4f77d2dec2662dab4b835c14f3</title>
<g id="a_node1"><a xlink:href="dir_20facd4f77d2dec2662dab4b835c14f3.html" target="_top" xlink:title="utils">
<polygon fill="#a2b4d6" stroke="#404040" points="168,-43 130,-43 130,-24 168,-24 168,-43"/>
<text text-anchor="middle" x="149" y="-31" font-family="Helvetica,sans-Serif" font-size="10.00">utils</text>
</a>
</g>
</g>
<!-- dir_35fc67a0d6ba4213a0c30d725ba6d4d5 -->
<g id="node2" class="node">
<title>dir_35fc67a0d6ba4213a0c30d725ba6d4d5</title>
<g id="a_node2"><a xlink:href="dir_35fc67a0d6ba4213a0c30d725ba6d4d5.html" target="_top" xlink:title="dense">
<polygon fill="#a2b4d6" stroke="red" points="232,-43 186,-43 186,-24 232,-24 232,-43"/>
<text text-anchor="middle" x="209" y="-31" font-family="Helvetica,sans-Serif" font-size="10.00">dense</text>
</a>
</g>
</g>
<!-- dir_1705c7da2126935c41561a728c3333cc -->
<g id="node3" class="node">
<title>dir_1705c7da2126935c41561a728c3333cc</title>
<text text-anchor="middle" x="87" y="-86" font-family="Helvetica,sans-Serif" font-size="10.00">sparse</text>
</g>
<!-- dir_1705c7da2126935c41561a728c3333cc&#45;&gt;dir_20facd4f77d2dec2662dab4b835c14f3 -->
<g id="edge1" class="edge">
<title>dir_1705c7da2126935c41561a728c3333cc&#45;&gt;dir_20facd4f77d2dec2662dab4b835c14f3</title>
<path fill="none" stroke="#63b8ff" d="M96.96,-78.98C106.13,-71.15 119.94,-59.34 131.03,-49.86"/>
<polygon fill="#63b8ff" stroke="#63b8ff" points="133.53,-52.33 138.86,-43.17 128.98,-47.01 133.53,-52.33"/>
<g id="a_edge1&#45;headlabel"><a xlink:href="dir_000015_000018.html" target="_top" xlink:title="1">
<text text-anchor="middle" x="132.64" y="-54.32" font-family="Helvetica,sans-Serif" font-size="10.00" fill="#63b8ff">1</text>
</a>
</g>
</g>
<!-- dir_1705c7da2126935c41561a728c3333cc&#45;&gt;dir_35fc67a0d6ba4213a0c30d725ba6d4d5 -->
<g id="edge2" class="edge">
<title>dir_1705c7da2126935c41561a728c3333cc&#45;&gt;dir_35fc67a0d6ba4213a0c30d725ba6d4d5</title>
<path fill="none" stroke="#63b8ff" d="M106.6,-78.98C126.32,-70.42 156.95,-57.11 179.58,-47.28"/>
<polygon fill="#63b8ff" stroke="#63b8ff" points="181.26,-50.37 189.04,-43.17 178.48,-43.94 181.26,-50.37"/>
<g id="a_edge2&#45;headlabel"><a xlink:href="dir_000015_000002.html" target="_top" xlink:title="5">
<text text-anchor="middle" x="179.1" y="-51.9" font-family="Helvetica,sans-Serif" font-size="10.00" fill="#63b8ff">5</text>
</a>
</g>
</g>
<!-- dir_51d06c7a0157f1c31e4268a6474c6a9b -->
<g id="node4" class="node">
<title>dir_51d06c7a0157f1c31e4268a6474c6a9b</title>
<g id="a_node4"><a xlink:href="dir_51d06c7a0157f1c31e4268a6474c6a9b.html" target="_top" xlink:title="preconditioner">
<polygon fill="#a2b4d6" stroke="#404040" points="111.5,-43 24.5,-43 24.5,-24 111.5,-24 111.5,-43"/>
<text text-anchor="middle" x="68" y="-31" font-family="Helvetica,sans-Serif" font-size="10.00">preconditioner</text>
</a>
</g>
</g>
<!-- dir_1705c7da2126935c41561a728c3333cc&#45;&gt;dir_51d06c7a0157f1c31e4268a6474c6a9b -->
<g id="edge3" class="edge">
<title>dir_1705c7da2126935c41561a728c3333cc&#45;&gt;dir_51d06c7a0157f1c31e4268a6474c6a9b</title>
<path fill="none" stroke="#63b8ff" d="M83.86,-78.75C81.32,-71.65 77.64,-61.4 74.47,-52.56"/>
<polygon fill="#63b8ff" stroke="#63b8ff" points="77.75,-51.32 71.08,-43.09 71.16,-53.68 77.75,-51.32"/>
<g id="a_edge3&#45;headlabel"><a xlink:href="dir_000015_000011.html" target="_top" xlink:title="4">
<text text-anchor="middle" x="81.63" y="-51.25" font-family="Helvetica,sans-Serif" font-size="10.00" fill="#63b8ff">4</text>
</a>
</g>
</g>
<!-- dir_689374dfda2501bdd2dd3b1ee53cd298 -->
<g id="node5" class="node">
<title>dir_689374dfda2501bdd2dd3b1ee53cd298</title>
<g id="a_node5"><a xlink:href="dir_689374dfda2501bdd2dd3b1ee53cd298.html" target="_top" xlink:title="linalg">
<polygon fill="#edf0f7" stroke="red" stroke-dasharray="5,2" points="294,-43 250,-43 250,-24 294,-24 294,-43"/>
<text text-anchor="middle" x="272" y="-31" font-family="Helvetica,sans-Serif" font-size="10.00">linalg</text>
</a>
</g>
</g>
<!-- dir_1705c7da2126935c41561a728c3333cc&#45;&gt;dir_689374dfda2501bdd2dd3b1ee53cd298 -->
<g id="edge4" class="edge">
<title>dir_1705c7da2126935c41561a728c3333cc&#45;&gt;dir_689374dfda2501bdd2dd3b1ee53cd298</title>
<path fill="none" stroke="#63b8ff" d="M111.52,-80.7C140.51,-72.63 190.49,-58.62 239.84,-44.2"/>
<polygon fill="#63b8ff" stroke="#63b8ff" points="241.08,-47.48 249.7,-41.31 239.12,-40.76 241.08,-47.48"/>
<g id="a_edge4&#45;headlabel"><a xlink:href="dir_000015_000008.html" target="_top" xlink:title="27">
<text text-anchor="middle" x="238.43" y="-48.72" font-family="Helvetica,sans-Serif" font-size="10.00" fill="#63b8ff">27</text>
</a>
</g>
</g>
</g>
</svg>
