<?xml version="1.0" encoding="UTF-8" standalone="no"?>
<!DOCTYPE svg PUBLIC "-//W3C//DTD SVG 1.1//EN"
 "http://www.w3.org/Graphics/SVG/1.1/DTD/svg11.dtd">
<!-- Generated by graphviz version 7.0.6 (20230107.1202)
 -->
<!-- Title: include/proxsuite/linalg/veg Pages: 1 -->
<svg width="248pt" height="314pt"
 viewBox="0.00 0.00 247.50 314.00" xmlns="http://www.w3.org/2000/svg" xmlns:xlink="http://www.w3.org/1999/xlink">
<g id="graph0" class="graph" transform="scale(1 1) rotate(0) translate(4 310)">
<title>include/proxsuite/linalg/veg</title>
<g id="clust1" class="cluster">
<title>clusterdir_689374dfda2501bdd2dd3b1ee53cd298</title>
<g id="a_clust1"><a xlink:href="dir_689374dfda2501bdd2dd3b1ee53cd298.html" target="_top" xlink:title="linalg">
<polygon fill="#edf0f7" stroke="#7f7f7f" stroke-dasharray="5,2" points="8,-8 8,-298 178,-298 178,-8 8,-8"/>
<text text-anchor="middle" x="93" y="-286" font-family="Helvetica,sans-Serif" font-size="10.00">linalg</text>
</a>
</g>
</g>
<g id="clust2" class="cluster">
<title>clusterdir_7b2996acf61ebbcb38481b72d02f7469</title>
<g id="a_clust2"><a xlink:href="dir_7b2996acf61ebbcb38481b72d02f7469.html" target="_top">
<polygon fill="#edf0f7" stroke="#404040" stroke-width="2" points="16,-16 16,-271 170,-271 170,-16 16,-16"/>
</a>
</g>
</g>
<!-- dir_7b2996acf61ebbcb38481b72d02f7469 -->
<g id="node1" class="node">
<title>dir_7b2996acf61ebbcb38481b72d02f7469</title>
<text text-anchor="middle" x="92" y="-251" font-family="Helvetica,sans-Serif" font-size="10.00">veg</text>
</g>
<!-- dir_e3b8d04263a98fe910c6b8faff630582 -->
<g id="node2" class="node">
<title>dir_e3b8d04263a98fe910c6b8faff630582</title>
<g id="a_node2"><a xlink:href="dir_e3b8d04263a98fe910c6b8faff630582.html" target="_top" xlink:title="internal">
<polygon fill="#a2b4d6" stroke="#404040" points="142,-208 88,-208 88,-189 142,-189 142,-208"/>
<text text-anchor="middle" x="115" y="-196" font-family="Helvetica,sans-Serif" font-size="10.00">internal</text>
</a>
</g>
</g>
<!-- dir_7b2996acf61ebbcb38481b72d02f7469&#45;&gt;dir_e3b8d04263a98fe910c6b8faff630582 -->
<g id="edge4" class="edge">
<title>dir_7b2996acf61ebbcb38481b72d02f7469&#45;&gt;dir_e3b8d04263a98fe910c6b8faff630582</title>
<path fill="none" stroke="#63b8ff" d="M95.59,-244.22C98.55,-237.42 102.84,-227.51 106.65,-218.75"/>
<polygon fill="#63b8ff" stroke="#63b8ff" points="109.83,-220.21 110.6,-209.64 103.41,-217.42 109.83,-220.21"/>
<g id="a_edge4&#45;headlabel"><a xlink:href="dir_000020_000007.html" target="_top" xlink:title="61">
<text text-anchor="middle" x="111.61" y="-220.75" font-family="Helvetica,sans-Serif" font-size="10.00" fill="#63b8ff">61</text>
</a>
</g>
</g>
<!-- dir_57e0abd8154e4ee9dda57f187af62c6f -->
<g id="node3" class="node">
<title>dir_57e0abd8154e4ee9dda57f187af62c6f</title>
<g id="a_node3"><a xlink:href="dir_57e0abd8154e4ee9dda57f187af62c6f.html" target="_top" xlink:title="memory">
<polygon fill="#a2b4d6" stroke="#404040" points="82,-153 24,-153 24,-134 82,-134 82,-153"/>
<text text-anchor="middle" x="53" y="-141" font-family="Helvetica,sans-Serif" font-size="10.00">memory</text>
</a>
</g>
</g>
<!-- dir_7b2996acf61ebbcb38481b72d02f7469&#45;&gt;dir_57e0abd8154e4ee9dda57f187af62c6f -->
<g id="edge1" class="edge">
<title>dir_7b2996acf61ebbcb38481b72d02f7469&#45;&gt;dir_57e0abd8154e4ee9dda57f187af62c6f</title>
<path fill="none" stroke="#63b8ff" d="M85.35,-244.17C78.86,-235.61 69.23,-221.63 64,-208 58.65,-194.06 55.89,-177.39 54.47,-164.63"/>
<polygon fill="#63b8ff" stroke="#63b8ff" points="57.98,-164.57 53.59,-154.92 51.01,-165.2 57.98,-164.57"/>
<g id="a_edge1&#45;headlabel"><a xlink:href="dir_000020_000009.html" target="_top" xlink:title="5">
<text text-anchor="middle" x="60.99" y="-163.88" font-family="Helvetica,sans-Serif" font-size="10.00" fill="#63b8ff">5</text>
</a>
</g>
</g>
<!-- dir_6dc31da515e811a8b65e9a735c969ac6 -->
<g id="node4" class="node">
<title>dir_6dc31da515e811a8b65e9a735c969ac6</title>
<g id="a_node4"><a xlink:href="dir_6dc31da515e811a8b65e9a735c969ac6.html" target="_top" xlink:title="type_traits">
<polygon fill="#a2b4d6" stroke="#404040" points="150.5,-43 81.5,-43 81.5,-24 150.5,-24 150.5,-43"/>
<text text-anchor="middle" x="116" y="-31" font-family="Helvetica,sans-Serif" font-size="10.00">type_traits</text>
</a>
</g>
</g>
<!-- dir_7b2996acf61ebbcb38481b72d02f7469&#45;&gt;dir_6dc31da515e811a8b65e9a735c969ac6 -->
<g id="edge2" class="edge">
<title>dir_7b2996acf61ebbcb38481b72d02f7469&#45;&gt;dir_6dc31da515e811a8b65e9a735c969ac6</title>
<path fill="none" stroke="#63b8ff" d="M109.27,-244.93C123.39,-237.71 142.36,-225.34 151,-208 176.98,-155.86 145.29,-85.8 127.1,-52.95"/>
<polygon fill="#63b8ff" stroke="#63b8ff" points="130.33,-51.55 122.3,-44.63 124.26,-55.04 130.33,-51.55"/>
<g id="a_edge2&#45;headlabel"><a xlink:href="dir_000020_000017.html" target="_top" xlink:title="18">
<text text-anchor="middle" x="133.82" y="-49.43" font-family="Helvetica,sans-Serif" font-size="10.00" fill="#63b8ff">18</text>
</a>
</g>
</g>
<!-- dir_b9777557a16ebd9e4b59a3b409a892fa -->
<g id="node5" class="node">
<title>dir_b9777557a16ebd9e4b59a3b409a892fa</title>
<g id="a_node5"><a xlink:href="dir_b9777557a16ebd9e4b59a3b409a892fa.html" target="_top" xlink:title="util">
<polygon fill="#a2b4d6" stroke="#404040" points="119,-98 87,-98 87,-79 119,-79 119,-98"/>
<text text-anchor="middle" x="103" y="-86" font-family="Helvetica,sans-Serif" font-size="10.00">util</text>
</a>
</g>
</g>
<!-- dir_7b2996acf61ebbcb38481b72d02f7469&#45;&gt;dir_b9777557a16ebd9e4b59a3b409a892fa -->
<g id="edge3" class="edge">
<title>dir_7b2996acf61ebbcb38481b72d02f7469&#45;&gt;dir_b9777557a16ebd9e4b59a3b409a892fa</title>
<path fill="none" stroke="#63b8ff" d="M88.78,-244.13C85.56,-235.3 80.85,-220.91 79,-208 77.8,-199.64 77.65,-197.34 79,-189 81.7,-172.35 86.76,-169.32 91,-153 94.77,-138.5 97.87,-121.86 99.97,-109.25"/>
<polygon fill="#63b8ff" stroke="#63b8ff" points="103.38,-110.13 101.5,-99.7 96.47,-109.03 103.38,-110.13"/>
<g id="a_edge3&#45;headlabel"><a xlink:href="dir_000020_000018.html" target="_top" xlink:title="9">
<text text-anchor="middle" x="105.85" y="-110.13" font-family="Helvetica,sans-Serif" font-size="10.00" fill="#63b8ff">9</text>
</a>
</g>
</g>
<!-- dir_e3b8d04263a98fe910c6b8faff630582&#45;&gt;dir_57e0abd8154e4ee9dda57f187af62c6f -->
<g id="edge6" class="edge">
<title>dir_e3b8d04263a98fe910c6b8faff630582&#45;&gt;dir_57e0abd8154e4ee9dda57f187af62c6f</title>
<path fill="none" stroke="#63b8ff" d="M99.27,-188.51C89.02,-181.08 76.06,-170.32 66.33,-161.31"/>
<polygon fill="#63b8ff" stroke="#63b8ff" points="68.86,-158.89 59.26,-154.41 63.98,-163.9 68.86,-158.89"/>
<g id="a_edge6&#45;headlabel"><a xlink:href="dir_000007_000009.html" target="_top" xlink:title="1">
<text text-anchor="middle" x="72.33" y="-155.81" font-family="Helvetica,sans-Serif" font-size="10.00" fill="#63b8ff">1</text>
</a>
</g>
</g>
<!-- dir_e3b8d04263a98fe910c6b8faff630582&#45;&gt;dir_6dc31da515e811a8b65e9a735c969ac6 -->
<g id="edge7" class="edge">
<title>dir_e3b8d04263a98fe910c6b8faff630582&#45;&gt;dir_6dc31da515e811a8b65e9a735c969ac6</title>
<path fill="none" stroke="#63b8ff" d="M112.68,-188.56C113.55,-168.79 124.41,-119.83 119,-79 117.92,-70.87 115.78,-62.12 114.19,-54.54"/>
<polygon fill="#63b8ff" stroke="#63b8ff" points="117.64,-54 112.54,-44.72 110.74,-55.16 117.64,-54"/>
<g id="a_edge7&#45;headlabel"><a xlink:href="dir_000007_000017.html" target="_top" xlink:title="3">
<text text-anchor="middle" x="120.79" y="-53.08" font-family="Helvetica,sans-Serif" font-size="10.00" fill="#63b8ff">3</text>
</a>
</g>
</g>
<!-- dir_e3b8d04263a98fe910c6b8faff630582&#45;&gt;dir_b9777557a16ebd9e4b59a3b409a892fa -->
<g id="edge8" class="edge">
<title>dir_e3b8d04263a98fe910c6b8faff630582&#45;&gt;dir_b9777557a16ebd9e4b59a3b409a892fa</title>
<path fill="none" stroke="#63b8ff" d="M110.11,-188.66C105.02,-171.57 100.3,-133.61 99.85,-109.92"/>
<polygon fill="#63b8ff" stroke="#63b8ff" points="103.35,-110.04 100.03,-99.97 96.35,-109.91 103.35,-110.04"/>
<g id="a_edge8&#45;headlabel"><a xlink:href="dir_000007_000018.html" target="_top" xlink:title="4">
<text text-anchor="middle" x="106.15" y="-109.67" font-family="Helvetica,sans-Serif" font-size="10.00" fill="#63b8ff">4</text>
</a>
</g>
</g>
<!-- dir_13ac24c11e9edc13673a5341cdfa337c -->
<g id="node6" class="node">
<title>dir_13ac24c11e9edc13673a5341cdfa337c</title>
<g id="a_node6"><a xlink:href="dir_13ac24c11e9edc13673a5341cdfa337c.html" target="_top" xlink:title="helpers">
<polygon fill="#edf0f7" stroke="#7f7f7f" points="239.5,-153 186.5,-153 186.5,-134 239.5,-134 239.5,-153"/>
<text text-anchor="middle" x="213" y="-141" font-family="Helvetica,sans-Serif" font-size="10.00">helpers</text>
</a>
</g>
</g>
<!-- dir_e3b8d04263a98fe910c6b8faff630582&#45;&gt;dir_13ac24c11e9edc13673a5341cdfa337c -->
<g id="edge5" class="edge">
<title>dir_e3b8d04263a98fe910c6b8faff630582&#45;&gt;dir_13ac24c11e9edc13673a5341cdfa337c</title>
<path fill="none" stroke="#63b8ff" d="M131.62,-188.51C146.78,-180.31 169.42,-168.07 186.97,-158.58"/>
<polygon fill="#63b8ff" stroke="#63b8ff" points="188.16,-161.91 195.29,-154.08 184.83,-155.76 188.16,-161.91"/>
<g id="a_edge5&#45;headlabel"><a xlink:href="dir_000007_000005.html" target="_top" xlink:title="1">
<text text-anchor="middle" x="187.68" y="-162.9" font-family="Helvetica,sans-Serif" font-size="10.00" fill="#63b8ff">1</text>
</a>
</g>
</g>
<!-- dir_57e0abd8154e4ee9dda57f187af62c6f&#45;&gt;dir_e3b8d04263a98fe910c6b8faff630582 -->
<g id="edge11" class="edge">
<title>dir_57e0abd8154e4ee9dda57f187af62c6f&#45;&gt;dir_e3b8d04263a98fe910c6b8faff630582</title>
<path fill="none" stroke="#63b8ff" d="M68.67,-153.44C78.96,-160.9 91.99,-171.72 101.76,-180.78"/>
<polygon fill="#63b8ff" stroke="#63b8ff" points="99.24,-183.21 108.85,-187.69 104.13,-178.2 99.24,-183.21"/>
<g id="a_edge11&#45;headlabel"><a xlink:href="dir_000009_000007.html" target="_top" xlink:title="16">
<text text-anchor="middle" x="95.77" y="-181.29" font-family="Helvetica,sans-Serif" font-size="10.00" fill="#63b8ff">16</text>
</a>
</g>
</g>
<!-- dir_57e0abd8154e4ee9dda57f187af62c6f&#45;&gt;dir_6dc31da515e811a8b65e9a735c969ac6 -->
<g id="edge9" class="edge">
<title>dir_57e0abd8154e4ee9dda57f187af62c6f&#45;&gt;dir_6dc31da515e811a8b65e9a735c969ac6</title>
<path fill="none" stroke="#63b8ff" d="M49.53,-133.87C50.12,-121.25 58.02,-97.28 69,-79 75.06,-68.92 83.41,-58.85 91.57,-50.85"/>
<polygon fill="#63b8ff" stroke="#63b8ff" points="93.69,-53.65 98.78,-44.36 89.01,-48.45 93.69,-53.65"/>
<g id="a_edge9&#45;headlabel"><a xlink:href="dir_000009_000017.html" target="_top" xlink:title="8">
<text text-anchor="middle" x="94.05" y="-54.65" font-family="Helvetica,sans-Serif" font-size="10.00" fill="#63b8ff">8</text>
</a>
</g>
</g>
<!-- dir_57e0abd8154e4ee9dda57f187af62c6f&#45;&gt;dir_b9777557a16ebd9e4b59a3b409a892fa -->
<g id="edge10" class="edge">
<title>dir_57e0abd8154e4ee9dda57f187af62c6f&#45;&gt;dir_b9777557a16ebd9e4b59a3b409a892fa</title>
<path fill="none" stroke="#63b8ff" d="M56.09,-133.75C61.53,-126.27 71.49,-115.32 80.95,-106.17"/>
<polygon fill="#63b8ff" stroke="#63b8ff" points="83.25,-108.81 88.24,-99.47 78.51,-103.66 83.25,-108.81"/>
<g id="a_edge10&#45;headlabel"><a xlink:href="dir_000009_000018.html" target="_top" xlink:title="1">
<text text-anchor="middle" x="83.64" y="-109.81" font-family="Helvetica,sans-Serif" font-size="10.00" fill="#63b8ff">1</text>
</a>
</g>
</g>
<!-- dir_6dc31da515e811a8b65e9a735c969ac6&#45;&gt;dir_e3b8d04263a98fe910c6b8faff630582 -->
<g id="edge13" class="edge">
<title>dir_6dc31da515e811a8b65e9a735c969ac6&#45;&gt;dir_e3b8d04263a98fe910c6b8faff630582</title>
<path fill="none" stroke="#63b8ff" d="M125.89,-43.23C131.05,-52.1 135.32,-66.31 137,-79 141.61,-113.77 134.42,-154.43 126.42,-177.95"/>
<polygon fill="#63b8ff" stroke="#63b8ff" points="123.2,-176.57 122.78,-187.16 129.71,-179.14 123.2,-176.57"/>
<g id="a_edge13&#45;headlabel"><a xlink:href="dir_000017_000007.html" target="_top" xlink:title="19">
<text text-anchor="middle" x="121.33" y="-171.09" font-family="Helvetica,sans-Serif" font-size="10.00" fill="#63b8ff">19</text>
</a>
</g>
</g>
<!-- dir_6dc31da515e811a8b65e9a735c969ac6&#45;&gt;dir_57e0abd8154e4ee9dda57f187af62c6f -->
<g id="edge12" class="edge">
<title>dir_6dc31da515e811a8b65e9a735c969ac6&#45;&gt;dir_57e0abd8154e4ee9dda57f187af62c6f</title>
<path fill="none" stroke="#63b8ff" d="M113.83,-43.35C107.49,-51.86 95.16,-65.41 87,-79 78.51,-93.14 71.86,-110.68 66.11,-123.74"/>
<polygon fill="#63b8ff" stroke="#63b8ff" points="63.08,-121.97 61.92,-132.5 69.39,-124.99 63.08,-121.97"/>
<g id="a_edge12&#45;headlabel"><a xlink:href="dir_000017_000009.html" target="_top" xlink:title="1">
<text text-anchor="middle" x="61.41" y="-116.37" font-family="Helvetica,sans-Serif" font-size="10.00" fill="#63b8ff">1</text>
</a>
</g>
</g>
<!-- dir_b9777557a16ebd9e4b59a3b409a892fa&#45;&gt;dir_e3b8d04263a98fe910c6b8faff630582 -->
<g id="edge16" class="edge">
<title>dir_b9777557a16ebd9e4b59a3b409a892fa&#45;&gt;dir_e3b8d04263a98fe910c6b8faff630582</title>
<path fill="none" stroke="#63b8ff" d="M107.93,-98.46C113.01,-115.65 117.72,-153.63 118.16,-177.24"/>
<polygon fill="#63b8ff" stroke="#63b8ff" points="114.66,-177.08 117.96,-187.15 121.66,-177.22 114.66,-177.08"/>
<g id="a_edge16&#45;headlabel"><a xlink:href="dir_000018_000007.html" target="_top" xlink:title="11">
<text text-anchor="middle" x="111.86" y="-172.44" font-family="Helvetica,sans-Serif" font-size="10.00" fill="#63b8ff">11</text>
</a>
</g>
</g>
<!-- dir_b9777557a16ebd9e4b59a3b409a892fa&#45;&gt;dir_57e0abd8154e4ee9dda57f187af62c6f -->
<g id="edge14" class="edge">
<title>dir_b9777557a16ebd9e4b59a3b409a892fa&#45;&gt;dir_57e0abd8154e4ee9dda57f187af62c6f</title>
<path fill="none" stroke="#63b8ff" d="M99.83,-98.36C94.37,-105.82 84.48,-116.72 75.07,-125.81"/>
<polygon fill="#63b8ff" stroke="#63b8ff" points="72.8,-123.14 67.81,-132.48 77.54,-128.29 72.8,-123.14"/>
<g id="a_edge14&#45;headlabel"><a xlink:href="dir_000018_000009.html" target="_top" xlink:title="1">
<text text-anchor="middle" x="72.41" y="-117.14" font-family="Helvetica,sans-Serif" font-size="10.00" fill="#63b8ff">1</text>
</a>
</g>
</g>
<!-- dir_b9777557a16ebd9e4b59a3b409a892fa&#45;&gt;dir_6dc31da515e811a8b65e9a735c969ac6 -->
<g id="edge15" class="edge">
<title>dir_b9777557a16ebd9e4b59a3b409a892fa&#45;&gt;dir_6dc31da515e811a8b65e9a735c969ac6</title>
<path fill="none" stroke="#63b8ff" d="M105.15,-78.75C106.76,-72.19 109.02,-62.95 111.07,-54.6"/>
<polygon fill="#63b8ff" stroke="#63b8ff" points="114.46,-55.46 113.45,-44.91 107.66,-53.79 114.46,-55.46"/>
<g id="a_edge15&#45;headlabel"><a xlink:href="dir_000018_000017.html" target="_top" xlink:title="3">
<text text-anchor="middle" x="116.72" y="-55.66" font-family="Helvetica,sans-Serif" font-size="10.00" fill="#63b8ff">3</text>
</a>
</g>
</g>
</g>
</svg>
