<?xml version="1.0" encoding="UTF-8" standalone="no"?>
<!DOCTYPE svg PUBLIC "-//W3C//DTD SVG 1.1//EN"
 "http://www.w3.org/Graphics/SVG/1.1/DTD/svg11.dtd">
<!-- Generated by graphviz version 6.0.2 (20221126.1951)
 -->
<!-- Title: include/proxsuite/linalg Pages: 1 -->
<svg width="232pt" height="196pt"
 viewBox="0.00 0.00 232.00 196.00" xmlns="http://www.w3.org/2000/svg" xmlns:xlink="http://www.w3.org/1999/xlink">
<g id="graph0" class="graph" transform="scale(1 1) rotate(0) translate(4 192)">
<title>include/proxsuite/linalg</title>
<g id="clust1" class="cluster">
<title>clusterdir_81f38da76c89a9b658f1eca4aa2a54da</title>
<g id="a_clust1"><a xlink:href="dir_81f38da76c89a9b658f1eca4aa2a54da.html" target="_top" xlink:title="proxsuite">
<polygon fill="#edf0f7" stroke="#7f7f7f" stroke-dasharray="5,2" points="8,-8 8,-180 216,-180 216,-8 8,-8"/>
<text text-anchor="middle" x="112" y="-168" font-family="Helvetica,sans-Serif" font-size="10.00">proxsuite</text>
</a>
</g>
</g>
<g id="clust2" class="cluster">
<title>clusterdir_689374dfda2501bdd2dd3b1ee53cd298</title>
<g id="a_clust2"><a xlink:href="dir_689374dfda2501bdd2dd3b1ee53cd298.html" target="_top">
<polygon fill="#edf0f7" stroke="#404040" stroke-width="2" points="16,-63 16,-153 208,-153 208,-63 16,-63"/>
</a>
</g>
</g>
<!-- dir_13ac24c11e9edc13673a5341cdfa337c -->
<g id="node1" class="node">
<title>dir_13ac24c11e9edc13673a5341cdfa337c</title>
<g id="a_node1"><a xlink:href="dir_13ac24c11e9edc13673a5341cdfa337c.html" target="_top" xlink:title="helpers">
<polygon fill="#a2b4d6" stroke="#404040" points="108.5,-35 55.5,-35 55.5,-16 108.5,-16 108.5,-35"/>
<text text-anchor="middle" x="82" y="-23" font-family="Helvetica,sans-Serif" font-size="10.00">helpers</text>
</a>
</g>
</g>
<!-- dir_689374dfda2501bdd2dd3b1ee53cd298 -->
<g id="node2" class="node">
<title>dir_689374dfda2501bdd2dd3b1ee53cd298</title>
<text text-anchor="middle" x="178" y="-133" font-family="Helvetica,sans-Serif" font-size="10.00">linalg</text>
</g>
<!-- dir_c12078e438795040cb536d04a59afb5f -->
<g id="node3" class="node">
<title>dir_c12078e438795040cb536d04a59afb5f</title>
<g id="a_node3"><a xlink:href="dir_c12078e438795040cb536d04a59afb5f.html" target="_top" xlink:title="dense">
<polygon fill="#a2b4d6" stroke="#404040" points="138,-145 92,-145 92,-126 138,-126 138,-145"/>
<text text-anchor="middle" x="115" y="-133" font-family="Helvetica,sans-Serif" font-size="10.00">dense</text>
</a>
</g>
</g>
<!-- dir_7b2996acf61ebbcb38481b72d02f7469 -->
<g id="node5" class="node">
<title>dir_7b2996acf61ebbcb38481b72d02f7469</title>
<g id="a_node5"><a xlink:href="dir_7b2996acf61ebbcb38481b72d02f7469.html" target="_top" xlink:title="veg">
<polygon fill="#a2b4d6" stroke="#404040" points="99.5,-90 64.5,-90 64.5,-71 99.5,-71 99.5,-90"/>
<text text-anchor="middle" x="82" y="-78" font-family="Helvetica,sans-Serif" font-size="10.00">veg</text>
</a>
</g>
</g>
<!-- dir_c12078e438795040cb536d04a59afb5f&#45;&gt;dir_7b2996acf61ebbcb38481b72d02f7469 -->
<g id="edge1" class="edge">
<title>dir_c12078e438795040cb536d04a59afb5f&#45;&gt;dir_7b2996acf61ebbcb38481b72d02f7469</title>
<path fill="none" stroke="#63b8ff" d="M109.55,-125.75C104.99,-118.42 98.33,-107.73 92.71,-98.7"/>
<polygon fill="#63b8ff" stroke="#63b8ff" points="95.6,-96.73 87.35,-90.09 89.66,-100.43 95.6,-96.73"/>
<g id="a_edge1&#45;headlabel"><a xlink:href="dir_000001_000020.html" target="_top" xlink:title="6">
<text text-anchor="middle" x="99.91" y="-95.78" font-family="Helvetica,sans-Serif" font-size="10.00" fill="#63b8ff">6</text>
</a>
</g>
</g>
<!-- dir_ec600cb9ddaf4ec3ed3966da4d017d73 -->
<g id="node4" class="node">
<title>dir_ec600cb9ddaf4ec3ed3966da4d017d73</title>
<g id="a_node4"><a xlink:href="dir_ec600cb9ddaf4ec3ed3966da4d017d73.html" target="_top" xlink:title="sparse">
<polygon fill="#a2b4d6" stroke="#404040" points="73.5,-145 24.5,-145 24.5,-126 73.5,-126 73.5,-145"/>
<text text-anchor="middle" x="49" y="-133" font-family="Helvetica,sans-Serif" font-size="10.00">sparse</text>
</a>
</g>
</g>
<!-- dir_ec600cb9ddaf4ec3ed3966da4d017d73&#45;&gt;dir_7b2996acf61ebbcb38481b72d02f7469 -->
<g id="edge2" class="edge">
<title>dir_ec600cb9ddaf4ec3ed3966da4d017d73&#45;&gt;dir_7b2996acf61ebbcb38481b72d02f7469</title>
<path fill="none" stroke="#63b8ff" d="M54.45,-125.75C59.01,-118.42 65.67,-107.73 71.29,-98.7"/>
<polygon fill="#63b8ff" stroke="#63b8ff" points="74.34,-100.43 76.65,-90.09 68.4,-96.73 74.34,-100.43"/>
<g id="a_edge2&#45;headlabel"><a xlink:href="dir_000015_000020.html" target="_top" xlink:title="3">
<text text-anchor="middle" x="74.85" y="-102.48" font-family="Helvetica,sans-Serif" font-size="10.00" fill="#63b8ff">3</text>
</a>
</g>
</g>
<!-- dir_7b2996acf61ebbcb38481b72d02f7469&#45;&gt;dir_13ac24c11e9edc13673a5341cdfa337c -->
<g id="edge3" class="edge">
<title>dir_7b2996acf61ebbcb38481b72d02f7469&#45;&gt;dir_13ac24c11e9edc13673a5341cdfa337c</title>
<path fill="none" stroke="#63b8ff" d="M82,-70.75C82,-63.8 82,-53.85 82,-45.13"/>
<polygon fill="#63b8ff" stroke="#63b8ff" points="85.5,-45.09 82,-35.09 78.5,-45.09 85.5,-45.09"/>
<g id="a_edge3&#45;headlabel"><a xlink:href="dir_000020_000005.html" target="_top" xlink:title="1">
<text text-anchor="middle" x="88.34" y="-46.18" font-family="Helvetica,sans-Serif" font-size="10.00" fill="#63b8ff">1</text>
</a>
</g>
</g>
</g>
</svg>
