<?xml version="1.0" encoding="UTF-8" standalone="no"?>
<!DOCTYPE svg PUBLIC "-//W3C//DTD SVG 1.1//EN"
 "http://www.w3.org/Graphics/SVG/1.1/DTD/svg11.dtd">
<!-- Generated by graphviz version 5.0.1 (20220821.0811)
 -->
<!-- Title: include/proxsuite/proxqp/sparse Pages: 1 -->
<svg width="336pt" height="183pt"
 viewBox="0.00 0.00 336.00 183.00" xmlns="http://www.w3.org/2000/svg" xmlns:xlink="http://www.w3.org/1999/xlink">
<g id="graph0" class="graph" transform="scale(1 1) rotate(0) translate(4 179)">
<title>include/proxsuite/proxqp/sparse</title>
<g id="clust1" class="cluster">
<title>clusterdir_01caf7e9e8b3e7ed928385229a2afbb9</title>
<g id="a_clust1"><a xlink:href="dir_01caf7e9e8b3e7ed928385229a2afbb9.html" target="_top" xlink:title="proxqp">
<polygon fill="#edf0f7" stroke="#7f7f7f" stroke-dasharray="5,2" points="8,-8 8,-167 264,-167 264,-8 8,-8"/>
<text text-anchor="middle" x="136" y="-155" font-family="Helvetica,sans-Serif" font-size="10.00">proxqp</text>
</a>
</g>
</g>
<g id="clust2" class="cluster">
<title>clusterdir_1705c7da2126935c41561a728c3333cc</title>
<g id="a_clust2"><a xlink:href="dir_1705c7da2126935c41561a728c3333cc.html" target="_top">
<polygon fill="#edf0f7" stroke="#404040" stroke-width="2" points="16,-16 16,-140 120,-140 120,-16 16,-16"/>
</a>
</g>
</g>
<!-- dir_20facd4f77d2dec2662dab4b835c14f3 -->
<g id="node1" class="node">
<title>dir_20facd4f77d2dec2662dab4b835c14f3</title>
<g id="a_node1"><a xlink:href="dir_20facd4f77d2dec2662dab4b835c14f3.html" target="_top" xlink:title="utils">
<polygon fill="#a2b4d6" stroke="#404040" points="184,-60 130,-60 130,-24 184,-24 184,-60"/>
<text text-anchor="middle" x="157" y="-39.5" font-family="Helvetica,sans-Serif" font-size="10.00">utils</text>
</a>
</g>
</g>
<!-- dir_35fc67a0d6ba4213a0c30d725ba6d4d5 -->
<g id="node2" class="node">
<title>dir_35fc67a0d6ba4213a0c30d725ba6d4d5</title>
<g id="a_node2"><a xlink:href="dir_35fc67a0d6ba4213a0c30d725ba6d4d5.html" target="_top" xlink:title="dense">
<polygon fill="#a2b4d6" stroke="red" points="256,-60 202,-60 202,-24 256,-24 256,-60"/>
<text text-anchor="middle" x="229" y="-39.5" font-family="Helvetica,sans-Serif" font-size="10.00">dense</text>
</a>
</g>
</g>
<!-- dir_1705c7da2126935c41561a728c3333cc -->
<g id="node3" class="node">
<title>dir_1705c7da2126935c41561a728c3333cc</title>
<text text-anchor="middle" x="85" y="-111.5" font-family="Helvetica,sans-Serif" font-size="10.00">sparse</text>
</g>
<!-- dir_1705c7da2126935c41561a728c3333cc&#45;&gt;dir_20facd4f77d2dec2662dab4b835c14f3 -->
<g id="edge1" class="edge">
<title>dir_1705c7da2126935c41561a728c3333cc&#45;&gt;dir_20facd4f77d2dec2662dab4b835c14f3</title>
<path fill="none" stroke="black" d="M102.8,-95.7C111.6,-87.14 122.38,-76.66 132,-67.3"/>
<polygon fill="black" stroke="black" points="134.68,-69.58 139.41,-60.1 129.8,-64.57 134.68,-69.58"/>
<g id="a_edge1&#45;headlabel"><a xlink:href="dir_000015_000018.html" target="_top" xlink:title="1">
<text text-anchor="middle" x="134.08" y="-71.63" font-family="Helvetica,sans-Serif" font-size="10.00">1</text>
</a>
</g>
</g>
<!-- dir_1705c7da2126935c41561a728c3333cc&#45;&gt;dir_35fc67a0d6ba4213a0c30d725ba6d4d5 -->
<g id="edge2" class="edge">
<title>dir_1705c7da2126935c41561a728c3333cc&#45;&gt;dir_35fc67a0d6ba4213a0c30d725ba6d4d5</title>
<path fill="none" stroke="black" d="M112.09,-99.83C134.77,-88.81 167.36,-72.97 192.37,-60.81"/>
<polygon fill="black" stroke="black" points="194.08,-63.87 201.55,-56.35 191.02,-57.57 194.08,-63.87"/>
<g id="a_edge2&#45;headlabel"><a xlink:href="dir_000015_000002.html" target="_top" xlink:title="5">
<text text-anchor="middle" x="192.09" y="-65.49" font-family="Helvetica,sans-Serif" font-size="10.00">5</text>
</a>
</g>
</g>
<!-- dir_51d06c7a0157f1c31e4268a6474c6a9b -->
<g id="node4" class="node">
<title>dir_51d06c7a0157f1c31e4268a6474c6a9b</title>
<g id="a_node4"><a xlink:href="dir_51d06c7a0157f1c31e4268a6474c6a9b.html" target="_top" xlink:title="preconditioner">
<polygon fill="#a2b4d6" stroke="#404040" points="111.5,-60 24.5,-60 24.5,-24 111.5,-24 111.5,-60"/>
<text text-anchor="middle" x="68" y="-39.5" font-family="Helvetica,sans-Serif" font-size="10.00">preconditioner</text>
</a>
</g>
</g>
<!-- dir_1705c7da2126935c41561a728c3333cc&#45;&gt;dir_51d06c7a0157f1c31e4268a6474c6a9b -->
<g id="edge3" class="edge">
<title>dir_1705c7da2126935c41561a728c3333cc&#45;&gt;dir_51d06c7a0157f1c31e4268a6474c6a9b</title>
<path fill="none" stroke="black" d="M80.8,-95.7C78.9,-87.9 76.62,-78.51 74.52,-69.83"/>
<polygon fill="black" stroke="black" points="77.92,-69 72.15,-60.1 71.11,-70.65 77.92,-69"/>
<g id="a_edge3&#45;headlabel"><a xlink:href="dir_000015_000011.html" target="_top" xlink:title="4">
<text text-anchor="middle" x="81.52" y="-69.32" font-family="Helvetica,sans-Serif" font-size="10.00">4</text>
</a>
</g>
</g>
<!-- dir_689374dfda2501bdd2dd3b1ee53cd298 -->
<g id="node5" class="node">
<title>dir_689374dfda2501bdd2dd3b1ee53cd298</title>
<g id="a_node5"><a xlink:href="dir_689374dfda2501bdd2dd3b1ee53cd298.html" target="_top" xlink:title="linalg">
<polygon fill="none" stroke="red" stroke-dasharray="5,2" points="328,-60 274,-60 274,-24 328,-24 328,-60"/>
<text text-anchor="middle" x="301" y="-39.5" font-family="Helvetica,sans-Serif" font-size="10.00">linalg</text>
</a>
</g>
</g>
<!-- dir_1705c7da2126935c41561a728c3333cc&#45;&gt;dir_689374dfda2501bdd2dd3b1ee53cd298 -->
<g id="edge4" class="edge">
<title>dir_1705c7da2126935c41561a728c3333cc&#45;&gt;dir_689374dfda2501bdd2dd3b1ee53cd298</title>
<path fill="none" stroke="black" d="M112.22,-106.87C146.54,-98.76 207.37,-83.17 264.34,-61.24"/>
<polygon fill="black" stroke="black" points="265.79,-64.43 273.82,-57.52 263.23,-57.92 265.79,-64.43"/>
<g id="a_edge4&#45;headlabel"><a xlink:href="dir_000015_000008.html" target="_top" xlink:title="27">
<text text-anchor="middle" x="263.48" y="-65.89" font-family="Helvetica,sans-Serif" font-size="10.00">27</text>
</a>
</g>
</g>
</g>
</svg>
