<?xml version="1.0" encoding="UTF-8" standalone="no"?>
<!DOCTYPE svg PUBLIC "-//W3C//DTD SVG 1.1//EN"
 "http://www.w3.org/Graphics/SVG/1.1/DTD/svg11.dtd">
<!-- Generated by graphviz version 6.0.1 (20220911.2005)
 -->
<!-- Title: include/proxsuite/proxqp/dense Pages: 1 -->
<svg width="262pt" height="180pt"
 viewBox="0.00 0.00 261.93 180.00" xmlns="http://www.w3.org/2000/svg" xmlns:xlink="http://www.w3.org/1999/xlink">
<g id="graph0" class="graph" transform="scale(1 1) rotate(0) translate(4 176)">
<title>include/proxsuite/proxqp/dense</title>
<g id="clust1" class="cluster">
<title>clusterdir_01caf7e9e8b3e7ed928385229a2afbb9</title>
<g id="a_clust1"><a xlink:href="dir_01caf7e9e8b3e7ed928385229a2afbb9.html" target="_top" xlink:title="proxqp">
<polygon fill="#edf0f7" stroke="#7f7f7f" stroke-dasharray="5,2" points="8,-39 8,-164 243,-164 243,-39 8,-39"/>
<text text-anchor="middle" x="125.5" y="-152" font-family="Helvetica,sans-Serif" font-size="10.00">proxqp</text>
</a>
</g>
</g>
<g id="clust2" class="cluster">
<title>clusterdir_35fc67a0d6ba4213a0c30d725ba6d4d5</title>
<g id="a_clust2"><a xlink:href="dir_35fc67a0d6ba4213a0c30d725ba6d4d5.html" target="_top">
<polygon fill="#edf0f7" stroke="#404040" stroke-width="2" points="16,-47 16,-137 120,-137 120,-47 16,-47"/>
</a>
</g>
</g>
<!-- dir_1705c7da2126935c41561a728c3333cc -->
<g id="node1" class="node">
<title>dir_1705c7da2126935c41561a728c3333cc</title>
<g id="a_node1"><a xlink:href="dir_1705c7da2126935c41561a728c3333cc.html" target="_top" xlink:title="sparse">
<polygon fill="#a2b4d6" stroke="red" points="178.5,-74 129.5,-74 129.5,-55 178.5,-55 178.5,-74"/>
<text text-anchor="middle" x="154" y="-62" font-family="Helvetica,sans-Serif" font-size="10.00">sparse</text>
</a>
</g>
</g>
<!-- dir_20facd4f77d2dec2662dab4b835c14f3 -->
<g id="node2" class="node">
<title>dir_20facd4f77d2dec2662dab4b835c14f3</title>
<g id="a_node2"><a xlink:href="dir_20facd4f77d2dec2662dab4b835c14f3.html" target="_top" xlink:title="utils">
<polygon fill="#a2b4d6" stroke="#404040" points="235,-74 197,-74 197,-55 235,-55 235,-74"/>
<text text-anchor="middle" x="216" y="-62" font-family="Helvetica,sans-Serif" font-size="10.00">utils</text>
</a>
</g>
</g>
<!-- dir_35fc67a0d6ba4213a0c30d725ba6d4d5 -->
<g id="node3" class="node">
<title>dir_35fc67a0d6ba4213a0c30d725ba6d4d5</title>
<text text-anchor="middle" x="89" y="-117" font-family="Helvetica,sans-Serif" font-size="10.00">dense</text>
</g>
<!-- dir_35fc67a0d6ba4213a0c30d725ba6d4d5&#45;&gt;dir_1705c7da2126935c41561a728c3333cc -->
<g id="edge1" class="edge">
<title>dir_35fc67a0d6ba4213a0c30d725ba6d4d5&#45;&gt;dir_1705c7da2126935c41561a728c3333cc</title>
<path fill="none" stroke="#63b8ff" d="M99.44,-109.98C109.15,-102.07 123.82,-90.11 135.5,-80.58"/>
<polygon fill="#63b8ff" stroke="#63b8ff" points="137.83,-83.2 143.37,-74.17 133.4,-77.78 137.83,-83.2"/>
<g id="a_edge1&#45;headlabel"><a xlink:href="dir_000002_000015.html" target="_top" xlink:title="1">
<text text-anchor="middle" x="136.84" y="-85.17" font-family="Helvetica,sans-Serif" font-size="10.00" fill="#63b8ff">1</text>
</a>
</g>
</g>
<!-- dir_35fc67a0d6ba4213a0c30d725ba6d4d5&#45;&gt;dir_20facd4f77d2dec2662dab4b835c14f3 -->
<g id="edge2" class="edge">
<title>dir_35fc67a0d6ba4213a0c30d725ba6d4d5&#45;&gt;dir_20facd4f77d2dec2662dab4b835c14f3</title>
<path fill="none" stroke="#63b8ff" d="M109.4,-109.98C130.51,-101.18 163.64,-87.35 187.36,-77.45"/>
<polygon fill="#63b8ff" stroke="#63b8ff" points="189.01,-80.56 196.89,-73.47 186.32,-74.1 189.01,-80.56"/>
<g id="a_edge2&#45;headlabel"><a xlink:href="dir_000002_000018.html" target="_top" xlink:title="1">
<text text-anchor="middle" x="186.79" y="-82.06" font-family="Helvetica,sans-Serif" font-size="10.00" fill="#63b8ff">1</text>
</a>
</g>
</g>
<!-- dir_ce52d535f8285e510c0760b58f8aef39 -->
<g id="node4" class="node">
<title>dir_ce52d535f8285e510c0760b58f8aef39</title>
<g id="a_node4"><a xlink:href="dir_ce52d535f8285e510c0760b58f8aef39.html" target="_top" xlink:title="preconditioner">
<polygon fill="#a2b4d6" stroke="#404040" points="111.5,-74 24.5,-74 24.5,-55 111.5,-55 111.5,-74"/>
<text text-anchor="middle" x="68" y="-62" font-family="Helvetica,sans-Serif" font-size="10.00">preconditioner</text>
</a>
</g>
</g>
<!-- dir_35fc67a0d6ba4213a0c30d725ba6d4d5&#45;&gt;dir_ce52d535f8285e510c0760b58f8aef39 -->
<g id="edge4" class="edge">
<title>dir_35fc67a0d6ba4213a0c30d725ba6d4d5&#45;&gt;dir_ce52d535f8285e510c0760b58f8aef39</title>
<path fill="none" stroke="#63b8ff" d="M85.53,-109.75C82.72,-102.65 78.66,-92.4 75.15,-83.56"/>
<polygon fill="#63b8ff" stroke="#63b8ff" points="78.34,-82.1 71.4,-74.09 71.83,-84.68 78.34,-82.1"/>
<g id="a_edge4&#45;headlabel"><a xlink:href="dir_000002_000010.html" target="_top" xlink:title="3">
<text text-anchor="middle" x="82.3" y="-81.89" font-family="Helvetica,sans-Serif" font-size="10.00" fill="#63b8ff">3</text>
</a>
</g>
</g>
<!-- dir_689374dfda2501bdd2dd3b1ee53cd298 -->
<g id="node5" class="node">
<title>dir_689374dfda2501bdd2dd3b1ee53cd298</title>
<g id="a_node5"><a xlink:href="dir_689374dfda2501bdd2dd3b1ee53cd298.html" target="_top" xlink:title="linalg">
<polygon fill="#edf0f7" stroke="red" stroke-dasharray="5,2" points="187,-19 143,-19 143,0 187,0 187,-19"/>
<text text-anchor="middle" x="165" y="-7" font-family="Helvetica,sans-Serif" font-size="10.00">linalg</text>
</a>
</g>
</g>
<!-- dir_35fc67a0d6ba4213a0c30d725ba6d4d5&#45;&gt;dir_689374dfda2501bdd2dd3b1ee53cd298 -->
<g id="edge3" class="edge">
<title>dir_35fc67a0d6ba4213a0c30d725ba6d4d5&#45;&gt;dir_689374dfda2501bdd2dd3b1ee53cd298</title>
<path fill="none" stroke="#63b8ff" d="M112.15,-115.41C151.96,-109.57 230.7,-95.53 247,-74 256.39,-61.6 256.01,-51.68 247,-39 235.76,-23.19 215.08,-16.07 197.31,-12.9"/>
<polygon fill="#63b8ff" stroke="#63b8ff" points="197.67,-9.42 187.27,-11.46 196.67,-16.35 197.67,-9.42"/>
<g id="a_edge3&#45;headlabel"><a xlink:href="dir_000002_000008.html" target="_top" xlink:title="8">
<text text-anchor="middle" x="201.63" y="-4.62" font-family="Helvetica,sans-Serif" font-size="10.00" fill="#63b8ff">8</text>
</a>
</g>
</g>
<!-- dir_ce52d535f8285e510c0760b58f8aef39&#45;&gt;dir_689374dfda2501bdd2dd3b1ee53cd298 -->
<g id="edge5" class="edge">
<title>dir_ce52d535f8285e510c0760b58f8aef39&#45;&gt;dir_689374dfda2501bdd2dd3b1ee53cd298</title>
<path fill="none" stroke="#63b8ff" d="M83.58,-54.98C98.77,-46.69 122.1,-33.94 139.9,-24.22"/>
<polygon fill="#63b8ff" stroke="#63b8ff" points="142.03,-27.04 149.13,-19.17 138.68,-20.89 142.03,-27.04"/>
<g id="a_edge5&#45;headlabel"><a xlink:href="dir_000010_000008.html" target="_top" xlink:title="1">
<text text-anchor="middle" x="140.24" y="-28.75" font-family="Helvetica,sans-Serif" font-size="10.00" fill="#63b8ff">1</text>
</a>
</g>
</g>
</g>
</svg>
