<?xml version="1.0" encoding="UTF-8" standalone="no"?>
<!DOCTYPE svg PUBLIC "-//W3C//DTD SVG 1.1//EN"
 "http://www.w3.org/Graphics/SVG/1.1/DTD/svg11.dtd">
<!-- Generated by graphviz version 7.1.0 (20230122.1345)
 -->
<!-- Title: include/proxsuite Pages: 1 -->
<svg width="214pt" height="259pt"
 viewBox="0.00 0.00 214.00 259.00" xmlns="http://www.w3.org/2000/svg" xmlns:xlink="http://www.w3.org/1999/xlink">
<g id="graph0" class="graph" transform="scale(1 1) rotate(0) translate(4 255)">
<title>include/proxsuite</title>
<g id="clust1" class="cluster">
<title>clusterdir_d44c64559bbebec7f509842c48db8b23</title>
<g id="a_clust1"><a xlink:href="dir_d44c64559bbebec7f509842c48db8b23.html" target="_top" xlink:title="include">
<polygon fill="#edf0f7" stroke="#404040" stroke-dasharray="5,2" points="8,-8 8,-243 198,-243 198,-8 8,-8"/>
<text text-anchor="middle" x="103" y="-231" font-family="Helvetica,sans-Serif" font-size="10.00">include</text>
</a>
</g>
</g>
<g id="clust2" class="cluster">
<title>clusterdir_81f38da76c89a9b658f1eca4aa2a54da</title>
<g id="a_clust2"><a xlink:href="dir_81f38da76c89a9b658f1eca4aa2a54da.html" target="_top">
<polygon fill="#edf0f7" stroke="#404040" stroke-width="2" points="16,-16 16,-216 190,-216 190,-16 16,-16"/>
</a>
</g>
</g>
<!-- dir_81f38da76c89a9b658f1eca4aa2a54da -->
<g id="node1" class="node">
<title>dir_81f38da76c89a9b658f1eca4aa2a54da</title>
<text text-anchor="middle" x="151" y="-196" font-family="Helvetica,sans-Serif" font-size="10.00">proxsuite</text>
</g>
<!-- dir_13ac24c11e9edc13673a5341cdfa337c -->
<g id="node2" class="node">
<title>dir_13ac24c11e9edc13673a5341cdfa337c</title>
<g id="a_node2"><a xlink:href="dir_13ac24c11e9edc13673a5341cdfa337c.html" target="_top" xlink:title="helpers">
<polygon fill="#a2b4d6" stroke="#404040" points="91.5,-43 38.5,-43 38.5,-24 91.5,-24 91.5,-43"/>
<text text-anchor="middle" x="65" y="-31" font-family="Helvetica,sans-Serif" font-size="10.00">helpers</text>
</a>
</g>
</g>
<!-- dir_689374dfda2501bdd2dd3b1ee53cd298 -->
<g id="node3" class="node">
<title>dir_689374dfda2501bdd2dd3b1ee53cd298</title>
<g id="a_node3"><a xlink:href="dir_689374dfda2501bdd2dd3b1ee53cd298.html" target="_top" xlink:title="linalg">
<polygon fill="#a2b4d6" stroke="#404040" points="101,-98 57,-98 57,-79 101,-79 101,-98"/>
<text text-anchor="middle" x="79" y="-86" font-family="Helvetica,sans-Serif" font-size="10.00">linalg</text>
</a>
</g>
</g>
<!-- dir_689374dfda2501bdd2dd3b1ee53cd298&#45;&gt;dir_13ac24c11e9edc13673a5341cdfa337c -->
<g id="edge1" class="edge">
<title>dir_689374dfda2501bdd2dd3b1ee53cd298&#45;&gt;dir_13ac24c11e9edc13673a5341cdfa337c</title>
<path fill="none" stroke="#63b8ff" d="M76.69,-78.75C74.94,-72.11 72.46,-62.73 70.23,-54.31"/>
<polygon fill="#63b8ff" stroke="#63b8ff" points="73.69,-53.68 67.75,-44.91 66.92,-55.47 73.69,-53.68"/>
<g id="a_edge1&#45;headlabel"><a xlink:href="dir_000008_000005.html" target="_top" xlink:title="1">
<text text-anchor="middle" x="76.96" y="-52.47" font-family="Helvetica,sans-Serif" font-size="10.00" fill="#63b8ff">1</text>
</a>
</g>
</g>
<!-- dir_01caf7e9e8b3e7ed928385229a2afbb9 -->
<g id="node4" class="node">
<title>dir_01caf7e9e8b3e7ed928385229a2afbb9</title>
<g id="a_node4"><a xlink:href="dir_01caf7e9e8b3e7ed928385229a2afbb9.html" target="_top" xlink:title="proxqp">
<polygon fill="#a2b4d6" stroke="#404040" points="88,-153 38,-153 38,-134 88,-134 88,-153"/>
<text text-anchor="middle" x="63" y="-141" font-family="Helvetica,sans-Serif" font-size="10.00">proxqp</text>
</a>
</g>
</g>
<!-- dir_01caf7e9e8b3e7ed928385229a2afbb9&#45;&gt;dir_13ac24c11e9edc13673a5341cdfa337c -->
<g id="edge2" class="edge">
<title>dir_01caf7e9e8b3e7ed928385229a2afbb9&#45;&gt;dir_13ac24c11e9edc13673a5341cdfa337c</title>
<path fill="none" stroke="#63b8ff" d="M58.46,-133.52C52.83,-121.27 44.38,-98.61 48,-79 49.57,-70.47 52.71,-61.45 55.87,-53.79"/>
<polygon fill="#63b8ff" stroke="#63b8ff" points="59,-55.36 59.86,-44.8 52.6,-52.52 59,-55.36"/>
<g id="a_edge2&#45;headlabel"><a xlink:href="dir_000012_000005.html" target="_top" xlink:title="7">
<text text-anchor="middle" x="60.75" y="-55.92" font-family="Helvetica,sans-Serif" font-size="10.00" fill="#63b8ff">7</text>
</a>
</g>
</g>
<!-- dir_01caf7e9e8b3e7ed928385229a2afbb9&#45;&gt;dir_689374dfda2501bdd2dd3b1ee53cd298 -->
<g id="edge3" class="edge">
<title>dir_01caf7e9e8b3e7ed928385229a2afbb9&#45;&gt;dir_689374dfda2501bdd2dd3b1ee53cd298</title>
<path fill="none" stroke="#63b8ff" d="M65.64,-133.75C67.64,-127.11 70.48,-117.73 73.02,-109.31"/>
<polygon fill="#63b8ff" stroke="#63b8ff" points="76.32,-110.48 75.86,-99.89 69.62,-108.45 76.32,-110.48"/>
<g id="a_edge3&#45;headlabel"><a xlink:href="dir_000012_000008.html" target="_top" xlink:title="38">
<text text-anchor="middle" x="78.44" y="-110.79" font-family="Helvetica,sans-Serif" font-size="10.00" fill="#63b8ff">38</text>
</a>
</g>
</g>
<!-- dir_039a78e186b18b0c4da9268845c46160 -->
<g id="node5" class="node">
<title>dir_039a78e186b18b0c4da9268845c46160</title>
<g id="a_node5"><a xlink:href="dir_039a78e186b18b0c4da9268845c46160.html" target="_top" xlink:title="serialization">
<polygon fill="#a2b4d6" stroke="#404040" points="101.5,-208 24.5,-208 24.5,-189 101.5,-189 101.5,-208"/>
<text text-anchor="middle" x="63" y="-196" font-family="Helvetica,sans-Serif" font-size="10.00">serialization</text>
</a>
</g>
</g>
<!-- dir_039a78e186b18b0c4da9268845c46160&#45;&gt;dir_01caf7e9e8b3e7ed928385229a2afbb9 -->
<g id="edge4" class="edge">
<title>dir_039a78e186b18b0c4da9268845c46160&#45;&gt;dir_01caf7e9e8b3e7ed928385229a2afbb9</title>
<path fill="none" stroke="#63b8ff" d="M63,-188.75C63,-182.27 63,-173.16 63,-164.9"/>
<polygon fill="#63b8ff" stroke="#63b8ff" points="66.5,-164.96 63,-154.96 59.5,-164.96 66.5,-164.96"/>
<g id="a_edge4&#45;headlabel"><a xlink:href="dir_000014_000012.html" target="_top" xlink:title="4">
<text text-anchor="middle" x="69.34" y="-164.54" font-family="Helvetica,sans-Serif" font-size="10.00" fill="#63b8ff">4</text>
</a>
</g>
</g>
</g>
</svg>
