<?xml version="1.0" encoding="UTF-8" standalone="no"?>
<!DOCTYPE svg PUBLIC "-//W3C//DTD SVG 1.1//EN"
 "http://www.w3.org/Graphics/SVG/1.1/DTD/svg11.dtd">
<!-- Generated by graphviz version 6.0.1 (20220911.2005)
 -->
<!-- Title: include/proxsuite Pages: 1 -->
<svg width="186pt" height="204pt"
 viewBox="0.00 0.00 186.00 204.00" xmlns="http://www.w3.org/2000/svg" xmlns:xlink="http://www.w3.org/1999/xlink">
<g id="graph0" class="graph" transform="scale(1 1) rotate(0) translate(4 200)">
<title>include/proxsuite</title>
<g id="clust1" class="cluster">
<title>clusterdir_d44c64559bbebec7f509842c48db8b23</title>
<g id="a_clust1"><a xlink:href="dir_d44c64559bbebec7f509842c48db8b23.html" target="_top" xlink:title="include">
<polygon fill="#edf0f7" stroke="#404040" stroke-dasharray="5,2" points="8,-8 8,-188 170,-188 170,-8 8,-8"/>
<text text-anchor="middle" x="89" y="-176" font-family="Helvetica,sans-Serif" font-size="10.00">include</text>
</a>
</g>
</g>
<g id="clust2" class="cluster">
<title>clusterdir_81f38da76c89a9b658f1eca4aa2a54da</title>
<g id="a_clust2"><a xlink:href="dir_81f38da76c89a9b658f1eca4aa2a54da.html" target="_top">
<polygon fill="#edf0f7" stroke="#404040" stroke-width="2" points="16,-16 16,-161 162,-161 162,-16 16,-16"/>
</a>
</g>
</g>
<!-- dir_81f38da76c89a9b658f1eca4aa2a54da -->
<g id="node1" class="node">
<title>dir_81f38da76c89a9b658f1eca4aa2a54da</title>
<text text-anchor="middle" x="123" y="-141" font-family="Helvetica,sans-Serif" font-size="10.00">proxsuite</text>
</g>
<!-- dir_13ac24c11e9edc13673a5341cdfa337c -->
<g id="node2" class="node">
<title>dir_13ac24c11e9edc13673a5341cdfa337c</title>
<g id="a_node2"><a xlink:href="dir_13ac24c11e9edc13673a5341cdfa337c.html" target="_top" xlink:title="helpers">
<polygon fill="#a2b4d6" stroke="#404040" points="90.5,-43 37.5,-43 37.5,-24 90.5,-24 90.5,-43"/>
<text text-anchor="middle" x="64" y="-31" font-family="Helvetica,sans-Serif" font-size="10.00">helpers</text>
</a>
</g>
</g>
<!-- dir_689374dfda2501bdd2dd3b1ee53cd298 -->
<g id="node3" class="node">
<title>dir_689374dfda2501bdd2dd3b1ee53cd298</title>
<g id="a_node3"><a xlink:href="dir_689374dfda2501bdd2dd3b1ee53cd298.html" target="_top" xlink:title="linalg">
<polygon fill="#a2b4d6" stroke="#404040" points="100,-98 56,-98 56,-79 100,-79 100,-98"/>
<text text-anchor="middle" x="78" y="-86" font-family="Helvetica,sans-Serif" font-size="10.00">linalg</text>
</a>
</g>
</g>
<!-- dir_689374dfda2501bdd2dd3b1ee53cd298&#45;&gt;dir_13ac24c11e9edc13673a5341cdfa337c -->
<g id="edge1" class="edge">
<title>dir_689374dfda2501bdd2dd3b1ee53cd298&#45;&gt;dir_13ac24c11e9edc13673a5341cdfa337c</title>
<path fill="none" stroke="#63b8ff" d="M75.69,-78.75C73.83,-71.72 71.16,-61.62 68.85,-52.84"/>
<polygon fill="#63b8ff" stroke="#63b8ff" points="72.21,-51.86 66.27,-43.09 65.44,-53.65 72.21,-51.86"/>
<g id="a_edge1&#45;headlabel"><a xlink:href="dir_000008_000005.html" target="_top" xlink:title="1">
<text text-anchor="middle" x="75.87" y="-52.11" font-family="Helvetica,sans-Serif" font-size="10.00" fill="#63b8ff">1</text>
</a>
</g>
</g>
<!-- dir_01caf7e9e8b3e7ed928385229a2afbb9 -->
<g id="node4" class="node">
<title>dir_01caf7e9e8b3e7ed928385229a2afbb9</title>
<g id="a_node4"><a xlink:href="dir_01caf7e9e8b3e7ed928385229a2afbb9.html" target="_top" xlink:title="proxqp">
<polygon fill="#a2b4d6" stroke="#404040" points="74,-153 24,-153 24,-134 74,-134 74,-153"/>
<text text-anchor="middle" x="49" y="-141" font-family="Helvetica,sans-Serif" font-size="10.00">proxqp</text>
</a>
</g>
</g>
<!-- dir_01caf7e9e8b3e7ed928385229a2afbb9&#45;&gt;dir_13ac24c11e9edc13673a5341cdfa337c -->
<g id="edge2" class="edge">
<title>dir_01caf7e9e8b3e7ed928385229a2afbb9&#45;&gt;dir_13ac24c11e9edc13673a5341cdfa337c</title>
<path fill="none" stroke="#63b8ff" d="M47.56,-133.78C45.8,-121.46 43.44,-98.31 47,-79 48.67,-69.95 52.1,-60.36 55.44,-52.41"/>
<polygon fill="#63b8ff" stroke="#63b8ff" points="58.73,-53.65 59.63,-43.09 52.34,-50.78 58.73,-53.65"/>
<g id="a_edge2&#45;headlabel"><a xlink:href="dir_000012_000005.html" target="_top" xlink:title="7">
<text text-anchor="middle" x="59.84" y="-55.59" font-family="Helvetica,sans-Serif" font-size="10.00" fill="#63b8ff">7</text>
</a>
</g>
</g>
<!-- dir_01caf7e9e8b3e7ed928385229a2afbb9&#45;&gt;dir_689374dfda2501bdd2dd3b1ee53cd298 -->
<g id="edge3" class="edge">
<title>dir_01caf7e9e8b3e7ed928385229a2afbb9&#45;&gt;dir_689374dfda2501bdd2dd3b1ee53cd298</title>
<path fill="none" stroke="#63b8ff" d="M53.79,-133.75C57.76,-126.49 63.53,-115.95 68.43,-106.98"/>
<polygon fill="#63b8ff" stroke="#63b8ff" points="71.57,-108.54 73.3,-98.09 65.43,-105.18 71.57,-108.54"/>
<g id="a_edge3&#45;headlabel"><a xlink:href="dir_000012_000008.html" target="_top" xlink:title="38">
<text text-anchor="middle" x="72.34" y="-110.56" font-family="Helvetica,sans-Serif" font-size="10.00" fill="#63b8ff">38</text>
</a>
</g>
</g>
</g>
</svg>
