<?xml version="1.0" encoding="UTF-8" standalone="no"?>
<!DOCTYPE svg PUBLIC "-//W3C//DTD SVG 1.1//EN"
 "http://www.w3.org/Graphics/SVG/1.1/DTD/svg11.dtd">
<!-- Generated by graphviz version 5.0.1 (20220821.0811)
 -->
<!-- Title: include/proxsuite/linalg/veg/memory Pages: 1 -->
<svg width="232pt" height="133pt"
 viewBox="0.00 0.00 232.00 133.00" xmlns="http://www.w3.org/2000/svg" xmlns:xlink="http://www.w3.org/1999/xlink">
<g id="graph0" class="graph" transform="scale(1 1) rotate(0) translate(4 129)">
<title>include/proxsuite/linalg/veg/memory</title>
<g id="clust1" class="cluster">
<title>clusterdir_7b2996acf61ebbcb38481b72d02f7469</title>
<g id="a_clust1"><a xlink:href="dir_7b2996acf61ebbcb38481b72d02f7469.html" target="_top" xlink:title="veg">
<polygon fill="#edf0f7" stroke="#7f7f7f" stroke-dasharray="5,2" points="8,-8 8,-117 216,-117 216,-8 8,-8"/>
<text text-anchor="middle" x="112" y="-105" font-family="Helvetica,sans-Serif" font-size="10.00">veg</text>
</a>
</g>
</g>
<!-- dir_6dc31da515e811a8b65e9a735c969ac6 -->
<g id="node1" class="node">
<title>dir_6dc31da515e811a8b65e9a735c969ac6</title>
<g id="a_node1"><a xlink:href="dir_6dc31da515e811a8b65e9a735c969ac6.html" target="_top" xlink:title="type_traits">
<polygon fill="#a2b4d6" stroke="#404040" points="85.5,-35 16.5,-35 16.5,-16 85.5,-16 85.5,-35"/>
<text text-anchor="middle" x="51" y="-23" font-family="Helvetica,sans-Serif" font-size="10.00">type_traits</text>
</a>
</g>
</g>
<!-- dir_b9777557a16ebd9e4b59a3b409a892fa -->
<g id="node2" class="node">
<title>dir_b9777557a16ebd9e4b59a3b409a892fa</title>
<g id="a_node2"><a xlink:href="dir_b9777557a16ebd9e4b59a3b409a892fa.html" target="_top" xlink:title="util">
<polygon fill="#a2b4d6" stroke="#404040" points="136,-35 104,-35 104,-16 136,-16 136,-35"/>
<text text-anchor="middle" x="120" y="-23" font-family="Helvetica,sans-Serif" font-size="10.00">util</text>
</a>
</g>
</g>
<!-- dir_e3b8d04263a98fe910c6b8faff630582 -->
<g id="node3" class="node">
<title>dir_e3b8d04263a98fe910c6b8faff630582</title>
<g id="a_node3"><a xlink:href="dir_e3b8d04263a98fe910c6b8faff630582.html" target="_top" xlink:title="internal">
<polygon fill="#a2b4d6" stroke="red" points="208,-35 154,-35 154,-16 208,-16 208,-35"/>
<text text-anchor="middle" x="181" y="-23" font-family="Helvetica,sans-Serif" font-size="10.00">internal</text>
</a>
</g>
</g>
<!-- dir_57e0abd8154e4ee9dda57f187af62c6f -->
<g id="node4" class="node">
<title>dir_57e0abd8154e4ee9dda57f187af62c6f</title>
<g id="a_node4"><a xlink:href="dir_57e0abd8154e4ee9dda57f187af62c6f.html" target="_top" xlink:title="memory">
<polygon fill="#edf0f7" stroke="#404040" stroke-width="2" points="149,-90 91,-90 91,-71 149,-71 149,-90"/>
<text text-anchor="middle" x="120" y="-78" font-family="Helvetica,sans-Serif" font-size="10.00">memory</text>
</a>
</g>
</g>
<!-- dir_57e0abd8154e4ee9dda57f187af62c6f&#45;&gt;dir_6dc31da515e811a8b65e9a735c969ac6 -->
<g id="edge1" class="edge">
<title>dir_57e0abd8154e4ee9dda57f187af62c6f&#45;&gt;dir_6dc31da515e811a8b65e9a735c969ac6</title>
<path fill="none" stroke="#63b8ff" d="M108.91,-70.98C98.51,-63 82.74,-50.88 70.28,-41.31"/>
<polygon fill="#63b8ff" stroke="#63b8ff" points="72.35,-38.49 62.29,-35.17 68.09,-44.04 72.35,-38.49"/>
<g id="a_edge1&#45;headlabel"><a xlink:href="dir_000009_000016.html" target="_top" xlink:title="8">
<text text-anchor="middle" x="76.93" y="-35.92" font-family="Helvetica,sans-Serif" font-size="10.00" fill="#63b8ff">8</text>
</a>
</g>
</g>
<!-- dir_57e0abd8154e4ee9dda57f187af62c6f&#45;&gt;dir_b9777557a16ebd9e4b59a3b409a892fa -->
<g id="edge2" class="edge">
<title>dir_57e0abd8154e4ee9dda57f187af62c6f&#45;&gt;dir_b9777557a16ebd9e4b59a3b409a892fa</title>
<path fill="none" stroke="#63b8ff" d="M120,-70.75C120,-63.8 120,-53.85 120,-45.13"/>
<polygon fill="#63b8ff" stroke="#63b8ff" points="123.5,-45.09 120,-35.09 116.5,-45.09 123.5,-45.09"/>
<g id="a_edge2&#45;headlabel"><a xlink:href="dir_000009_000017.html" target="_top" xlink:title="1">
<text text-anchor="middle" x="126.34" y="-46.18" font-family="Helvetica,sans-Serif" font-size="10.00" fill="#63b8ff">1</text>
</a>
</g>
</g>
<!-- dir_57e0abd8154e4ee9dda57f187af62c6f&#45;&gt;dir_e3b8d04263a98fe910c6b8faff630582 -->
<g id="edge3" class="edge">
<title>dir_57e0abd8154e4ee9dda57f187af62c6f&#45;&gt;dir_e3b8d04263a98fe910c6b8faff630582</title>
<path fill="none" stroke="#63b8ff" d="M129.8,-70.98C138.82,-63.15 152.41,-51.34 163.32,-41.86"/>
<polygon fill="#63b8ff" stroke="#63b8ff" points="165.77,-44.37 171.02,-35.17 161.18,-39.09 165.77,-44.37"/>
<g id="a_edge3&#45;headlabel"><a xlink:href="dir_000009_000007.html" target="_top" xlink:title="16">
<text text-anchor="middle" x="164.92" y="-46.37" font-family="Helvetica,sans-Serif" font-size="10.00" fill="#63b8ff">16</text>
</a>
</g>
</g>
</g>
</svg>
