<?xml version="1.0" encoding="UTF-8" standalone="no"?>
<!DOCTYPE svg PUBLIC "-//W3C//DTD SVG 1.1//EN"
 "http://www.w3.org/Graphics/SVG/1.1/DTD/svg11.dtd">
<!-- Generated by graphviz version 7.1.0 (20230122.1345)
 -->
<!-- Title: include/proxsuite/proxqp/dense Pages: 1 -->
<svg width="331pt" height="180pt"
 viewBox="0.00 0.00 331.32 180.00" xmlns="http://www.w3.org/2000/svg" xmlns:xlink="http://www.w3.org/1999/xlink">
<g id="graph0" class="graph" transform="scale(1 1) rotate(0) translate(4 176)">
<title>include/proxsuite/proxqp/dense</title>
<g id="clust1" class="cluster">
<title>clusterdir_01caf7e9e8b3e7ed928385229a2afbb9</title>
<g id="a_clust1"><a xlink:href="dir_01caf7e9e8b3e7ed928385229a2afbb9.html" target="_top" xlink:title="proxqp">
<polygon fill="#edf0f7" stroke="#7f7f7f" stroke-dasharray="5,2" points="8,-39 8,-164 243,-164 243,-39 8,-39"/>
<text text-anchor="middle" x="125.5" y="-152" font-family="Helvetica,sans-Serif" font-size="10.00">proxqp</text>
</a>
</g>
</g>
<g id="clust2" class="cluster">
<title>clusterdir_35fc67a0d6ba4213a0c30d725ba6d4d5</title>
<g id="a_clust2"><a xlink:href="dir_35fc67a0d6ba4213a0c30d725ba6d4d5.html" target="_top">
<polygon fill="#edf0f7" stroke="#404040" stroke-width="2" points="16,-47 16,-137 120,-137 120,-47 16,-47"/>
</a>
</g>
</g>
<!-- dir_1705c7da2126935c41561a728c3333cc -->
<g id="node1" class="node">
<title>dir_1705c7da2126935c41561a728c3333cc</title>
<g id="a_node1"><a xlink:href="dir_1705c7da2126935c41561a728c3333cc.html" target="_top" xlink:title="sparse">
<polygon fill="#a2b4d6" stroke="red" points="178.5,-74 129.5,-74 129.5,-55 178.5,-55 178.5,-74"/>
<text text-anchor="middle" x="154" y="-62" font-family="Helvetica,sans-Serif" font-size="10.00">sparse</text>
</a>
</g>
</g>
<!-- dir_20facd4f77d2dec2662dab4b835c14f3 -->
<g id="node2" class="node">
<title>dir_20facd4f77d2dec2662dab4b835c14f3</title>
<g id="a_node2"><a xlink:href="dir_20facd4f77d2dec2662dab4b835c14f3.html" target="_top" xlink:title="utils">
<polygon fill="#a2b4d6" stroke="#404040" points="235,-74 197,-74 197,-55 235,-55 235,-74"/>
<text text-anchor="middle" x="216" y="-62" font-family="Helvetica,sans-Serif" font-size="10.00">utils</text>
</a>
</g>
</g>
<!-- dir_35fc67a0d6ba4213a0c30d725ba6d4d5 -->
<g id="node3" class="node">
<title>dir_35fc67a0d6ba4213a0c30d725ba6d4d5</title>
<text text-anchor="middle" x="89" y="-117" font-family="Helvetica,sans-Serif" font-size="10.00">dense</text>
</g>
<!-- dir_35fc67a0d6ba4213a0c30d725ba6d4d5&#45;&gt;dir_1705c7da2126935c41561a728c3333cc -->
<g id="edge2" class="edge">
<title>dir_35fc67a0d6ba4213a0c30d725ba6d4d5&#45;&gt;dir_1705c7da2126935c41561a728c3333cc</title>
<path fill="none" stroke="#63b8ff" d="M99.16,-110.22C108.62,-102.5 122.99,-90.78 134.65,-81.28"/>
<polygon fill="#63b8ff" stroke="#63b8ff" points="136.56,-84.24 142.09,-75.21 132.13,-78.82 136.56,-84.24"/>
<g id="a_edge2&#45;headlabel"><a xlink:href="dir_000002_000016.html" target="_top" xlink:title="1">
<text text-anchor="middle" x="136.74" y="-85.26" font-family="Helvetica,sans-Serif" font-size="10.00" fill="#63b8ff">1</text>
</a>
</g>
</g>
<!-- dir_35fc67a0d6ba4213a0c30d725ba6d4d5&#45;&gt;dir_20facd4f77d2dec2662dab4b835c14f3 -->
<g id="edge3" class="edge">
<title>dir_35fc67a0d6ba4213a0c30d725ba6d4d5&#45;&gt;dir_20facd4f77d2dec2662dab4b835c14f3</title>
<path fill="none" stroke="#63b8ff" d="M109.12,-110.1C129.89,-101.43 162.53,-87.82 186.27,-77.91"/>
<polygon fill="#63b8ff" stroke="#63b8ff" points="187.52,-81.18 195.41,-74.09 184.83,-74.72 187.52,-81.18"/>
<g id="a_edge3&#45;headlabel"><a xlink:href="dir_000002_000019.html" target="_top" xlink:title="1">
<text text-anchor="middle" x="186.7" y="-82.1" font-family="Helvetica,sans-Serif" font-size="10.00" fill="#63b8ff">1</text>
</a>
</g>
</g>
<!-- dir_ce52d535f8285e510c0760b58f8aef39 -->
<g id="node4" class="node">
<title>dir_ce52d535f8285e510c0760b58f8aef39</title>
<g id="a_node4"><a xlink:href="dir_ce52d535f8285e510c0760b58f8aef39.html" target="_top" xlink:title="preconditioner">
<polygon fill="#a2b4d6" stroke="#404040" points="111.5,-74 24.5,-74 24.5,-55 111.5,-55 111.5,-74"/>
<text text-anchor="middle" x="68" y="-62" font-family="Helvetica,sans-Serif" font-size="10.00">preconditioner</text>
</a>
</g>
</g>
<!-- dir_35fc67a0d6ba4213a0c30d725ba6d4d5&#45;&gt;dir_ce52d535f8285e510c0760b58f8aef39 -->
<g id="edge5" class="edge">
<title>dir_35fc67a0d6ba4213a0c30d725ba6d4d5&#45;&gt;dir_ce52d535f8285e510c0760b58f8aef39</title>
<path fill="none" stroke="#63b8ff" d="M85.72,-110.22C83.02,-103.42 79.1,-93.51 75.63,-84.75"/>
<polygon fill="#63b8ff" stroke="#63b8ff" points="78.96,-83.67 72.03,-75.66 72.46,-86.25 78.96,-83.67"/>
<g id="a_edge5&#45;headlabel"><a xlink:href="dir_000002_000010.html" target="_top" xlink:title="3">
<text text-anchor="middle" x="82.37" y="-82.06" font-family="Helvetica,sans-Serif" font-size="10.00" fill="#63b8ff">3</text>
</a>
</g>
</g>
<!-- dir_13ac24c11e9edc13673a5341cdfa337c -->
<g id="node5" class="node">
<title>dir_13ac24c11e9edc13673a5341cdfa337c</title>
<g id="a_node5"><a xlink:href="dir_13ac24c11e9edc13673a5341cdfa337c.html" target="_top" xlink:title="helpers">
<polygon fill="#edf0f7" stroke="#7f7f7f" points="306.5,-74 253.5,-74 253.5,-55 306.5,-55 306.5,-74"/>
<text text-anchor="middle" x="280" y="-62" font-family="Helvetica,sans-Serif" font-size="10.00">helpers</text>
</a>
</g>
</g>
<!-- dir_35fc67a0d6ba4213a0c30d725ba6d4d5&#45;&gt;dir_13ac24c11e9edc13673a5341cdfa337c -->
<g id="edge1" class="edge">
<title>dir_35fc67a0d6ba4213a0c30d725ba6d4d5&#45;&gt;dir_13ac24c11e9edc13673a5341cdfa337c</title>
<path fill="none" stroke="#63b8ff" d="M111.66,-112.21C143.86,-103.28 203.25,-86.8 242.19,-75.99"/>
<polygon fill="#63b8ff" stroke="#63b8ff" points="242.92,-79.42 251.62,-73.38 241.04,-72.68 242.92,-79.42"/>
<g id="a_edge1&#45;headlabel"><a xlink:href="dir_000002_000005.html" target="_top" xlink:title="3">
<text text-anchor="middle" x="241.67" y="-80.22" font-family="Helvetica,sans-Serif" font-size="10.00" fill="#63b8ff">3</text>
</a>
</g>
</g>
<!-- dir_689374dfda2501bdd2dd3b1ee53cd298 -->
<g id="node6" class="node">
<title>dir_689374dfda2501bdd2dd3b1ee53cd298</title>
<g id="a_node6"><a xlink:href="dir_689374dfda2501bdd2dd3b1ee53cd298.html" target="_top" xlink:title="linalg">
<polygon fill="#edf0f7" stroke="red" stroke-dasharray="5,2" points="223,-19 179,-19 179,0 223,0 223,-19"/>
<text text-anchor="middle" x="201" y="-7" font-family="Helvetica,sans-Serif" font-size="10.00">linalg</text>
</a>
</g>
</g>
<!-- dir_35fc67a0d6ba4213a0c30d725ba6d4d5&#45;&gt;dir_689374dfda2501bdd2dd3b1ee53cd298 -->
<g id="edge4" class="edge">
<title>dir_35fc67a0d6ba4213a0c30d725ba6d4d5&#45;&gt;dir_689374dfda2501bdd2dd3b1ee53cd298</title>
<path fill="none" stroke="#63b8ff" d="M111.99,-117.56C164.42,-114.87 290.29,-105.24 316,-74 325.88,-61.99 325.59,-51.25 316,-39 306.04,-26.27 264.98,-18.43 234.75,-14.27"/>
<polygon fill="#63b8ff" stroke="#63b8ff" points="235.25,-10.81 224.88,-13 234.35,-17.75 235.25,-10.81"/>
<g id="a_edge4&#45;headlabel"><a xlink:href="dir_000002_000008.html" target="_top" xlink:title="8">
<text text-anchor="middle" x="237.67" y="-5.76" font-family="Helvetica,sans-Serif" font-size="10.00" fill="#63b8ff">8</text>
</a>
</g>
</g>
<!-- dir_ce52d535f8285e510c0760b58f8aef39&#45;&gt;dir_689374dfda2501bdd2dd3b1ee53cd298 -->
<g id="edge6" class="edge">
<title>dir_ce52d535f8285e510c0760b58f8aef39&#45;&gt;dir_689374dfda2501bdd2dd3b1ee53cd298</title>
<path fill="none" stroke="#63b8ff" d="M83.72,-54.73C92.96,-49.76 104.96,-43.64 116,-39 132.74,-31.97 151.88,-25.42 167.75,-20.39"/>
<polygon fill="#63b8ff" stroke="#63b8ff" points="168.7,-23.76 177.21,-17.45 166.62,-17.07 168.7,-23.76"/>
<g id="a_edge6&#45;headlabel"><a xlink:href="dir_000010_000008.html" target="_top" xlink:title="1">
<text text-anchor="middle" x="167.55" y="-24.59" font-family="Helvetica,sans-Serif" font-size="10.00" fill="#63b8ff">1</text>
</a>
</g>
</g>
</g>
</svg>
