<?xml version="1.0" encoding="UTF-8" standalone="no"?>
<!DOCTYPE svg PUBLIC "-//W3C//DTD SVG 1.1//EN"
 "http://www.w3.org/Graphics/SVG/1.1/DTD/svg11.dtd">
<!-- Generated by graphviz version 8.1.0 (20230707.2238)
 -->
<!-- Title: include/proxsuite/proxqp/dense Pages: 1 -->
<svg width="327pt" height="187pt"
 viewBox="0.00 0.00 326.65 187.00" xmlns="http://www.w3.org/2000/svg" xmlns:xlink="http://www.w3.org/1999/xlink">
<g id="graph0" class="graph" transform="scale(1 1) rotate(0) translate(4 183)">
<title>include/proxsuite/proxqp/dense</title>
<g id="clust1" class="cluster">
<title>clusterdir_01caf7e9e8b3e7ed928385229a2afbb9</title>
<g id="a_clust1"><a xlink:href="dir_01caf7e9e8b3e7ed928385229a2afbb9.html" target="_top" xlink:title="proxqp">
<polygon fill="#edf0f7" stroke="#7f7f7f" stroke-dasharray="5,2" points="8,-40.75 8,-171 240,-171 240,-40.75 8,-40.75"/>
<text text-anchor="middle" x="124" y="-157.5" font-family="Helvetica,sans-Serif" font-size="10.00">proxqp</text>
</a>
</g>
</g>
<g id="clust2" class="cluster">
<title>clusterdir_35fc67a0d6ba4213a0c30d725ba6d4d5</title>
<g id="a_clust2"><a xlink:href="dir_35fc67a0d6ba4213a0c30d725ba6d4d5.html" target="_top">
<polygon fill="#edf0f7" stroke="#404040" stroke-width="2" points="16,-48.75 16,-142.25 118,-142.25 118,-48.75 16,-48.75"/>
</a>
</g>
</g>
<!-- dir_1705c7da2126935c41561a728c3333cc -->
<g id="node1" class="node">
<title>dir_1705c7da2126935c41561a728c3333cc</title>
<g id="a_node1"><a xlink:href="dir_1705c7da2126935c41561a728c3333cc.html" target="_top" xlink:title="sparse">
<polygon fill="#a2b4d6" stroke="red" points="176.12,-77.5 127.88,-77.5 127.88,-56.75 176.12,-56.75 176.12,-77.5"/>
<text text-anchor="middle" x="152" y="-64" font-family="Helvetica,sans-Serif" font-size="10.00">sparse</text>
</a>
</g>
</g>
<!-- dir_20facd4f77d2dec2662dab4b835c14f3 -->
<g id="node2" class="node">
<title>dir_20facd4f77d2dec2662dab4b835c14f3</title>
<g id="a_node2"><a xlink:href="dir_20facd4f77d2dec2662dab4b835c14f3.html" target="_top" xlink:title="utils">
<polygon fill="#a2b4d6" stroke="#404040" points="231.5,-77.5 194.5,-77.5 194.5,-56.75 231.5,-56.75 231.5,-77.5"/>
<text text-anchor="middle" x="213" y="-64" font-family="Helvetica,sans-Serif" font-size="10.00">utils</text>
</a>
</g>
</g>
<!-- dir_35fc67a0d6ba4213a0c30d725ba6d4d5 -->
<g id="node3" class="node">
<title>dir_35fc67a0d6ba4213a0c30d725ba6d4d5</title>
<text text-anchor="middle" x="87" y="-120.75" font-family="Helvetica,sans-Serif" font-size="10.00">dense</text>
</g>
<!-- dir_35fc67a0d6ba4213a0c30d725ba6d4d5&#45;&gt;dir_1705c7da2126935c41561a728c3333cc -->
<g id="edge2" class="edge">
<title>dir_35fc67a0d6ba4213a0c30d725ba6d4d5&#45;&gt;dir_1705c7da2126935c41561a728c3333cc</title>
<g id="a_edge2"><a xlink:href="dir_000001_000016.html" target="_top">
<path fill="none" stroke="#63b8ff" d="M98.03,-113.59C107.4,-105.69 121.09,-94.16 132.33,-84.69"/>
<polygon fill="#63b8ff" stroke="#63b8ff" points="134.31,-86.76 139.7,-77.64 129.8,-81.41 134.31,-86.76"/>
</a>
</g>
<g id="a_edge2&#45;headlabel"><a xlink:href="dir_000001_000016.html" target="_top" xlink:title="2">
<text text-anchor="middle" x="134.39" y="-88.12" font-family="Helvetica,sans-Serif" font-size="10.00" fill="#63b8ff">2</text>
</a>
</g>
</g>
<!-- dir_35fc67a0d6ba4213a0c30d725ba6d4d5&#45;&gt;dir_20facd4f77d2dec2662dab4b835c14f3 -->
<g id="edge3" class="edge">
<title>dir_35fc67a0d6ba4213a0c30d725ba6d4d5&#45;&gt;dir_20facd4f77d2dec2662dab4b835c14f3</title>
<g id="a_edge3"><a xlink:href="dir_000001_000019.html" target="_top">
<path fill="none" stroke="#63b8ff" d="M108.37,-113.59C129.32,-104.49 161.37,-90.56 184.48,-80.52"/>
<polygon fill="#63b8ff" stroke="#63b8ff" points="185.62,-83.4 193.4,-76.21 182.83,-76.98 185.62,-83.4"/>
</a>
</g>
<g id="a_edge3&#45;headlabel"><a xlink:href="dir_000001_000019.html" target="_top" xlink:title="1">
<text text-anchor="middle" x="184.46" y="-84.31" font-family="Helvetica,sans-Serif" font-size="10.00" fill="#63b8ff">1</text>
</a>
</g>
</g>
<!-- dir_ce52d535f8285e510c0760b58f8aef39 -->
<g id="node4" class="node">
<title>dir_ce52d535f8285e510c0760b58f8aef39</title>
<g id="a_node4"><a xlink:href="dir_ce52d535f8285e510c0760b58f8aef39.html" target="_top" xlink:title="preconditioner">
<polygon fill="#a2b4d6" stroke="#404040" points="110.25,-77.5 23.75,-77.5 23.75,-56.75 110.25,-56.75 110.25,-77.5"/>
<text text-anchor="middle" x="67" y="-64" font-family="Helvetica,sans-Serif" font-size="10.00">preconditioner</text>
</a>
</g>
</g>
<!-- dir_35fc67a0d6ba4213a0c30d725ba6d4d5&#45;&gt;dir_ce52d535f8285e510c0760b58f8aef39 -->
<g id="edge5" class="edge">
<title>dir_35fc67a0d6ba4213a0c30d725ba6d4d5&#45;&gt;dir_ce52d535f8285e510c0760b58f8aef39</title>
<g id="a_edge5"><a xlink:href="dir_000001_000010.html" target="_top">
<path fill="none" stroke="#63b8ff" d="M83.7,-113.83C81.14,-106.83 77.5,-96.86 74.27,-88.02"/>
<polygon fill="#63b8ff" stroke="#63b8ff" points="77.23,-86.92 70.51,-78.73 70.65,-89.33 77.23,-86.92"/>
</a>
</g>
<g id="a_edge5&#45;headlabel"><a xlink:href="dir_000001_000010.html" target="_top" xlink:title="3">
<text text-anchor="middle" x="81.13" y="-85.2" font-family="Helvetica,sans-Serif" font-size="10.00" fill="#63b8ff">3</text>
</a>
</g>
</g>
<!-- dir_13ac24c11e9edc13673a5341cdfa337c -->
<g id="node5" class="node">
<title>dir_13ac24c11e9edc13673a5341cdfa337c</title>
<g id="a_node5"><a xlink:href="dir_13ac24c11e9edc13673a5341cdfa337c.html" target="_top" xlink:title="helpers">
<polygon fill="#edf0f7" stroke="#7f7f7f" points="302,-77.5 250,-77.5 250,-56.75 302,-56.75 302,-77.5"/>
<text text-anchor="middle" x="276" y="-64" font-family="Helvetica,sans-Serif" font-size="10.00">helpers</text>
</a>
</g>
</g>
<!-- dir_35fc67a0d6ba4213a0c30d725ba6d4d5&#45;&gt;dir_13ac24c11e9edc13673a5341cdfa337c -->
<g id="edge1" class="edge">
<title>dir_35fc67a0d6ba4213a0c30d725ba6d4d5&#45;&gt;dir_13ac24c11e9edc13673a5341cdfa337c</title>
<g id="a_edge1"><a xlink:href="dir_000001_000004.html" target="_top">
<path fill="none" stroke="#63b8ff" d="M109.37,-116.44C137.86,-108.23 188.91,-93.51 239.39,-78.84"/>
<polygon fill="#63b8ff" stroke="#63b8ff" points="240.18,-81.96 248.81,-75.81 238.23,-75.24 240.18,-81.96"/>
</a>
</g>
<g id="a_edge1&#45;headlabel"><a xlink:href="dir_000001_000004.html" target="_top" xlink:title="4">
<text text-anchor="middle" x="238.52" y="-82.57" font-family="Helvetica,sans-Serif" font-size="10.00" fill="#63b8ff">4</text>
</a>
</g>
</g>
<!-- dir_689374dfda2501bdd2dd3b1ee53cd298 -->
<g id="node6" class="node">
<title>dir_689374dfda2501bdd2dd3b1ee53cd298</title>
<g id="a_node6"><a xlink:href="dir_689374dfda2501bdd2dd3b1ee53cd298.html" target="_top" xlink:title="linalg">
<polygon fill="#edf0f7" stroke="red" stroke-dasharray="5,2" points="219.5,-20.75 176.5,-20.75 176.5,0 219.5,0 219.5,-20.75"/>
<text text-anchor="middle" x="198" y="-7.25" font-family="Helvetica,sans-Serif" font-size="10.00">linalg</text>
</a>
</g>
</g>
<!-- dir_35fc67a0d6ba4213a0c30d725ba6d4d5&#45;&gt;dir_689374dfda2501bdd2dd3b1ee53cd298 -->
<g id="edge4" class="edge">
<title>dir_35fc67a0d6ba4213a0c30d725ba6d4d5&#45;&gt;dir_689374dfda2501bdd2dd3b1ee53cd298</title>
<g id="a_edge4"><a xlink:href="dir_000001_000007.html" target="_top">
<path fill="none" stroke="#63b8ff" d="M109.31,-121.81C160.83,-118.84 285.63,-108.52 311,-77.5 321.34,-64.86 320.99,-53.67 311,-40.75 301.16,-28.02 260.08,-19.79 230.29,-15.36"/>
<polygon fill="#63b8ff" stroke="#63b8ff" points="230.9,-11.77 220.51,-13.85 229.93,-18.71 230.9,-11.77"/>
</a>
</g>
<g id="a_edge4&#45;headlabel"><a xlink:href="dir_000001_000007.html" target="_top" xlink:title="9">
<text text-anchor="middle" x="233.85" y="-6.34" font-family="Helvetica,sans-Serif" font-size="10.00" fill="#63b8ff">9</text>
</a>
</g>
</g>
<!-- dir_ce52d535f8285e510c0760b58f8aef39&#45;&gt;dir_689374dfda2501bdd2dd3b1ee53cd298 -->
<g id="edge6" class="edge">
<title>dir_ce52d535f8285e510c0760b58f8aef39&#45;&gt;dir_689374dfda2501bdd2dd3b1ee53cd298</title>
<g id="a_edge6"><a xlink:href="dir_000010_000007.html" target="_top">
<path fill="none" stroke="#63b8ff" d="M83.64,-56.3C92.49,-51.3 103.65,-45.32 114,-40.75 130.77,-33.35 150.03,-26.5 165.88,-21.28"/>
<polygon fill="#63b8ff" stroke="#63b8ff" points="166.79,-24.34 175.23,-17.94 164.64,-17.68 166.79,-24.34"/>
</a>
</g>
<g id="a_edge6&#45;headlabel"><a xlink:href="dir_000010_000007.html" target="_top" xlink:title="1">
<text text-anchor="middle" x="165.24" y="-25.02" font-family="Helvetica,sans-Serif" font-size="10.00" fill="#63b8ff">1</text>
</a>
</g>
</g>
</g>
</svg>
