<?xml version="1.0" encoding="UTF-8" standalone="no"?>
<!DOCTYPE svg PUBLIC "-//W3C//DTD SVG 1.1//EN"
 "http://www.w3.org/Graphics/SVG/1.1/DTD/svg11.dtd">
<!-- Generated by graphviz version 9.0.0 (20231125.0833)
 -->
<!-- Title: include/proxsuite/linalg/veg Pages: 1 -->
<svg width="246pt" height="325pt"
 viewBox="0.00 0.00 246.00 324.50" xmlns="http://www.w3.org/2000/svg" xmlns:xlink="http://www.w3.org/1999/xlink">
<g id="graph0" class="graph" transform="scale(1 1) rotate(0) translate(4 320.5)">
<title>include/proxsuite/linalg/veg</title>
<g id="clust1" class="cluster">
<title>clusterdir_689374dfda2501bdd2dd3b1ee53cd298</title>
<g id="a_clust1"><a xlink:href="dir_689374dfda2501bdd2dd3b1ee53cd298.html" target="_top" xlink:title="linalg">
<polygon fill="#edf0f7" stroke="#7f7f7f" stroke-dasharray="5,2" points="8,-8 8,-308.5 178,-308.5 178,-8 8,-8"/>
<text text-anchor="middle" x="93" y="-295" font-family="Helvetica,sans-Serif" font-size="10.00">linalg</text>
</a>
</g>
</g>
<g id="clust2" class="cluster">
<title>clusterdir_7b2996acf61ebbcb38481b72d02f7469</title>
<g id="a_clust2"><a xlink:href="dir_7b2996acf61ebbcb38481b72d02f7469.html" target="_top">
<polygon fill="#edf0f7" stroke="#404040" stroke-width="2" points="16,-16 16,-279.75 170,-279.75 170,-16 16,-16"/>
</a>
</g>
</g>
<!-- dir_7b2996acf61ebbcb38481b72d02f7469 -->
<g id="node1" class="node">
<title>dir_7b2996acf61ebbcb38481b72d02f7469</title>
<text text-anchor="middle" x="92" y="-258.25" font-family="Helvetica,sans-Serif" font-size="10.00">veg</text>
</g>
<!-- dir_e3b8d04263a98fe910c6b8faff630582 -->
<g id="node2" class="node">
<title>dir_e3b8d04263a98fe910c6b8faff630582</title>
<g id="a_node2"><a xlink:href="dir_e3b8d04263a98fe910c6b8faff630582.html" target="_top" xlink:title="internal">
<polygon fill="#a2b4d6" stroke="#404040" points="141.75,-215 88.25,-215 88.25,-194.25 141.75,-194.25 141.75,-215"/>
<text text-anchor="middle" x="115" y="-201.5" font-family="Helvetica,sans-Serif" font-size="10.00">internal</text>
</a>
</g>
</g>
<!-- dir_7b2996acf61ebbcb38481b72d02f7469&#45;&gt;dir_e3b8d04263a98fe910c6b8faff630582 -->
<g id="edge4" class="edge">
<title>dir_7b2996acf61ebbcb38481b72d02f7469&#45;&gt;dir_e3b8d04263a98fe910c6b8faff630582</title>
<g id="a_edge4"><a xlink:href="dir_000020_000006.html" target="_top">
<path fill="none" stroke="#63b8ff" d="M95.8,-251.33C98.71,-244.41 102.84,-234.58 106.52,-225.82"/>
<polygon fill="#63b8ff" stroke="#63b8ff" points="109.73,-227.2 110.38,-216.63 103.28,-224.49 109.73,-227.2"/>
</a>
</g>
<g id="a_edge4&#45;headlabel"><a xlink:href="dir_000020_000006.html" target="_top" xlink:title="61">
<text text-anchor="middle" x="111.54" y="-227.1" font-family="Helvetica,sans-Serif" font-size="10.00" fill="#63b8ff">61</text>
</a>
</g>
</g>
<!-- dir_57e0abd8154e4ee9dda57f187af62c6f -->
<g id="node3" class="node">
<title>dir_57e0abd8154e4ee9dda57f187af62c6f</title>
<g id="a_node3"><a xlink:href="dir_57e0abd8154e4ee9dda57f187af62c6f.html" target="_top" xlink:title="memory">
<polygon fill="#a2b4d6" stroke="#404040" points="81.62,-158.25 24.37,-158.25 24.37,-137.5 81.62,-137.5 81.62,-158.25"/>
<text text-anchor="middle" x="53" y="-144.75" font-family="Helvetica,sans-Serif" font-size="10.00">memory</text>
</a>
</g>
</g>
<!-- dir_7b2996acf61ebbcb38481b72d02f7469&#45;&gt;dir_57e0abd8154e4ee9dda57f187af62c6f -->
<g id="edge1" class="edge">
<title>dir_7b2996acf61ebbcb38481b72d02f7469&#45;&gt;dir_57e0abd8154e4ee9dda57f187af62c6f</title>
<g id="a_edge1"><a xlink:href="dir_000020_000008.html" target="_top">
<path fill="none" stroke="#63b8ff" d="M84.84,-251.2C78.36,-242.41 69.07,-228.52 64,-215 58.55,-200.47 55.79,-183.13 54.4,-169.85"/>
<polygon fill="#63b8ff" stroke="#63b8ff" points="57.91,-169.77 53.57,-160.1 50.93,-170.36 57.91,-169.77"/>
</a>
</g>
<g id="a_edge1&#45;headlabel"><a xlink:href="dir_000020_000008.html" target="_top" xlink:title="5">
<text text-anchor="middle" x="60.91" y="-168.48" font-family="Helvetica,sans-Serif" font-size="10.00" fill="#63b8ff">5</text>
</a>
</g>
</g>
<!-- dir_6dc31da515e811a8b65e9a735c969ac6 -->
<g id="node4" class="node">
<title>dir_6dc31da515e811a8b65e9a735c969ac6</title>
<g id="a_node4"><a xlink:href="dir_6dc31da515e811a8b65e9a735c969ac6.html" target="_top" xlink:title="type_traits">
<polygon fill="#a2b4d6" stroke="#404040" points="150.25,-44.75 81.75,-44.75 81.75,-24 150.25,-24 150.25,-44.75"/>
<text text-anchor="middle" x="116" y="-31.25" font-family="Helvetica,sans-Serif" font-size="10.00">type_traits</text>
</a>
</g>
</g>
<!-- dir_7b2996acf61ebbcb38481b72d02f7469&#45;&gt;dir_6dc31da515e811a8b65e9a735c969ac6 -->
<g id="edge2" class="edge">
<title>dir_7b2996acf61ebbcb38481b72d02f7469&#45;&gt;dir_6dc31da515e811a8b65e9a735c969ac6</title>
<g id="a_edge2"><a xlink:href="dir_000020_000017.html" target="_top">
<path fill="none" stroke="#63b8ff" d="M108.73,-252.86C122.9,-245.48 142.27,-232.74 151,-215 177.6,-160.99 145.64,-88.52 127.25,-54.51"/>
<polygon fill="#63b8ff" stroke="#63b8ff" points="130.53,-53.21 122.58,-46.21 124.43,-56.64 130.53,-53.21"/>
</a>
</g>
<g id="a_edge2&#45;headlabel"><a xlink:href="dir_000020_000017.html" target="_top" xlink:title="18">
<text text-anchor="middle" x="134.03" y="-50.51" font-family="Helvetica,sans-Serif" font-size="10.00" fill="#63b8ff">18</text>
</a>
</g>
</g>
<!-- dir_b9777557a16ebd9e4b59a3b409a892fa -->
<g id="node5" class="node">
<title>dir_b9777557a16ebd9e4b59a3b409a892fa</title>
<g id="a_node5"><a xlink:href="dir_b9777557a16ebd9e4b59a3b409a892fa.html" target="_top" xlink:title="util">
<polygon fill="#a2b4d6" stroke="#404040" points="118.88,-101.5 87.12,-101.5 87.12,-80.75 118.88,-80.75 118.88,-101.5"/>
<text text-anchor="middle" x="103" y="-88" font-family="Helvetica,sans-Serif" font-size="10.00">util</text>
</a>
</g>
</g>
<!-- dir_7b2996acf61ebbcb38481b72d02f7469&#45;&gt;dir_b9777557a16ebd9e4b59a3b409a892fa -->
<g id="edge3" class="edge">
<title>dir_7b2996acf61ebbcb38481b72d02f7469&#45;&gt;dir_b9777557a16ebd9e4b59a3b409a892fa</title>
<g id="a_edge3"><a xlink:href="dir_000020_000018.html" target="_top">
<path fill="none" stroke="#63b8ff" d="M88.53,-251.15C85.33,-242.1 80.8,-227.82 79,-215 77.72,-205.87 77.52,-203.35 79,-194.25 81.7,-177.6 86.82,-174.59 91,-158.25 94.86,-143.17 97.95,-125.86 100.03,-112.73"/>
<polygon fill="#63b8ff" stroke="#63b8ff" points="103.45,-113.54 101.48,-103.13 96.53,-112.5 103.45,-113.54"/>
</a>
</g>
<g id="a_edge3&#45;headlabel"><a xlink:href="dir_000020_000018.html" target="_top" xlink:title="9">
<text text-anchor="middle" x="105.95" y="-112.9" font-family="Helvetica,sans-Serif" font-size="10.00" fill="#63b8ff">9</text>
</a>
</g>
</g>
<!-- dir_e3b8d04263a98fe910c6b8faff630582&#45;&gt;dir_57e0abd8154e4ee9dda57f187af62c6f -->
<g id="edge6" class="edge">
<title>dir_e3b8d04263a98fe910c6b8faff630582&#45;&gt;dir_57e0abd8154e4ee9dda57f187af62c6f</title>
<g id="a_edge6"><a xlink:href="dir_000006_000008.html" target="_top">
<path fill="none" stroke="#63b8ff" d="M98.6,-193.84C88.59,-186.28 76.19,-175.64 66.71,-166.6"/>
<polygon fill="#63b8ff" stroke="#63b8ff" points="69.3,-164.25 59.76,-159.65 64.35,-169.2 69.3,-164.25"/>
</a>
</g>
<g id="a_edge6&#45;headlabel"><a xlink:href="dir_000006_000008.html" target="_top" xlink:title="1">
<text text-anchor="middle" x="72.78" y="-160.58" font-family="Helvetica,sans-Serif" font-size="10.00" fill="#63b8ff">1</text>
</a>
</g>
</g>
<!-- dir_e3b8d04263a98fe910c6b8faff630582&#45;&gt;dir_6dc31da515e811a8b65e9a735c969ac6 -->
<g id="edge7" class="edge">
<title>dir_e3b8d04263a98fe910c6b8faff630582&#45;&gt;dir_6dc31da515e811a8b65e9a735c969ac6</title>
<g id="a_edge7"><a xlink:href="dir_000006_000017.html" target="_top">
<path fill="none" stroke="#63b8ff" d="M112.71,-194.05C113.7,-173.34 124.48,-122.87 119,-80.75 117.94,-72.58 115.84,-63.78 114.25,-56.12"/>
<polygon fill="#63b8ff" stroke="#63b8ff" points="117.73,-55.73 112.6,-46.46 110.83,-56.9 117.73,-55.73"/>
</a>
</g>
<g id="a_edge7&#45;headlabel"><a xlink:href="dir_000006_000017.html" target="_top" xlink:title="3">
<text text-anchor="middle" x="120.88" y="-54.18" font-family="Helvetica,sans-Serif" font-size="10.00" fill="#63b8ff">3</text>
</a>
</g>
</g>
<!-- dir_e3b8d04263a98fe910c6b8faff630582&#45;&gt;dir_b9777557a16ebd9e4b59a3b409a892fa -->
<g id="edge8" class="edge">
<title>dir_e3b8d04263a98fe910c6b8faff630582&#45;&gt;dir_b9777557a16ebd9e4b59a3b409a892fa</title>
<g id="a_edge8"><a xlink:href="dir_000006_000018.html" target="_top">
<path fill="none" stroke="#63b8ff" d="M110,-194.12C104.97,-176.35 100.32,-137.72 99.85,-113.43"/>
<polygon fill="#63b8ff" stroke="#63b8ff" points="103.35,-113.49 100,-103.44 96.35,-113.39 103.35,-113.49"/>
</a>
</g>
<g id="a_edge8&#45;headlabel"><a xlink:href="dir_000006_000018.html" target="_top" xlink:title="4">
<text text-anchor="middle" x="106.16" y="-112.49" font-family="Helvetica,sans-Serif" font-size="10.00" fill="#63b8ff">4</text>
</a>
</g>
</g>
<!-- dir_13ac24c11e9edc13673a5341cdfa337c -->
<g id="node6" class="node">
<title>dir_13ac24c11e9edc13673a5341cdfa337c</title>
<g id="a_node6"><a xlink:href="dir_13ac24c11e9edc13673a5341cdfa337c.html" target="_top" xlink:title="helpers">
<polygon fill="#edf0f7" stroke="#7f7f7f" points="238,-158.25 186,-158.25 186,-137.5 238,-137.5 238,-158.25"/>
<text text-anchor="middle" x="212" y="-144.75" font-family="Helvetica,sans-Serif" font-size="10.00">helpers</text>
</a>
</g>
</g>
<!-- dir_e3b8d04263a98fe910c6b8faff630582&#45;&gt;dir_13ac24c11e9edc13673a5341cdfa337c -->
<g id="edge5" class="edge">
<title>dir_e3b8d04263a98fe910c6b8faff630582&#45;&gt;dir_13ac24c11e9edc13673a5341cdfa337c</title>
<g id="a_edge5"><a xlink:href="dir_000006_000004.html" target="_top">
<path fill="none" stroke="#63b8ff" d="M132.34,-193.84C146.96,-185.58 168.14,-173.63 184.98,-164.13"/>
<polygon fill="#63b8ff" stroke="#63b8ff" points="186.5,-167.29 193.49,-159.32 183.06,-161.19 186.5,-167.29"/>
</a>
</g>
<g id="a_edge5&#45;headlabel"><a xlink:href="dir_000006_000004.html" target="_top" xlink:title="1">
<text text-anchor="middle" x="186.09" y="-167.66" font-family="Helvetica,sans-Serif" font-size="10.00" fill="#63b8ff">1</text>
</a>
</g>
</g>
<!-- dir_57e0abd8154e4ee9dda57f187af62c6f&#45;&gt;dir_e3b8d04263a98fe910c6b8faff630582 -->
<g id="edge11" class="edge">
<title>dir_57e0abd8154e4ee9dda57f187af62c6f&#45;&gt;dir_e3b8d04263a98fe910c6b8faff630582</title>
<g id="a_edge11"><a xlink:href="dir_000008_000006.html" target="_top">
<path fill="none" stroke="#63b8ff" d="M69.29,-158.58C79.28,-166.11 91.68,-176.75 101.19,-185.8"/>
<polygon fill="#63b8ff" stroke="#63b8ff" points="98.61,-188.18 108.16,-192.77 103.56,-183.22 98.61,-188.18"/>
</a>
</g>
<g id="a_edge11&#45;headlabel"><a xlink:href="dir_000008_000006.html" target="_top" xlink:title="16">
<text text-anchor="middle" x="95.13" y="-185.59" font-family="Helvetica,sans-Serif" font-size="10.00" fill="#63b8ff">16</text>
</a>
</g>
</g>
<!-- dir_57e0abd8154e4ee9dda57f187af62c6f&#45;&gt;dir_6dc31da515e811a8b65e9a735c969ac6 -->
<g id="edge9" class="edge">
<title>dir_57e0abd8154e4ee9dda57f187af62c6f&#45;&gt;dir_6dc31da515e811a8b65e9a735c969ac6</title>
<g id="a_edge9"><a xlink:href="dir_000008_000017.html" target="_top">
<path fill="none" stroke="#63b8ff" d="M49.53,-137C50.37,-123.66 58.09,-99.39 69,-80.75 74.85,-70.74 82.93,-60.75 90.9,-52.69"/>
<polygon fill="#63b8ff" stroke="#63b8ff" points="93.03,-55.49 97.96,-46.11 88.26,-50.37 93.03,-55.49"/>
</a>
</g>
<g id="a_edge9&#45;headlabel"><a xlink:href="dir_000008_000017.html" target="_top" xlink:title="8">
<text text-anchor="middle" x="93.44" y="-55.86" font-family="Helvetica,sans-Serif" font-size="10.00" fill="#63b8ff">8</text>
</a>
</g>
</g>
<!-- dir_57e0abd8154e4ee9dda57f187af62c6f&#45;&gt;dir_b9777557a16ebd9e4b59a3b409a892fa -->
<g id="edge10" class="edge">
<title>dir_57e0abd8154e4ee9dda57f187af62c6f&#45;&gt;dir_b9777557a16ebd9e4b59a3b409a892fa</title>
<g id="a_edge10"><a xlink:href="dir_000008_000018.html" target="_top">
<path fill="none" stroke="#63b8ff" d="M56.62,-137.09C62.12,-129.46 71.64,-118.67 80.73,-109.57"/>
<polygon fill="#63b8ff" stroke="#63b8ff" points="82.93,-112.31 87.74,-102.87 78.09,-107.25 82.93,-112.31"/>
</a>
</g>
<g id="a_edge10&#45;headlabel"><a xlink:href="dir_000008_000018.html" target="_top" xlink:title="1">
<text text-anchor="middle" x="83.38" y="-112.68" font-family="Helvetica,sans-Serif" font-size="10.00" fill="#63b8ff">1</text>
</a>
</g>
</g>
<!-- dir_6dc31da515e811a8b65e9a735c969ac6&#45;&gt;dir_e3b8d04263a98fe910c6b8faff630582 -->
<g id="edge13" class="edge">
<title>dir_6dc31da515e811a8b65e9a735c969ac6&#45;&gt;dir_e3b8d04263a98fe910c6b8faff630582</title>
<g id="a_edge13"><a xlink:href="dir_000017_000006.html" target="_top">
<path fill="none" stroke="#63b8ff" d="M126.28,-44.97C131.26,-54.05 135.36,-68.14 137,-80.75 141.68,-116.78 134.48,-158.93 126.46,-183.32"/>
<polygon fill="#63b8ff" stroke="#63b8ff" points="123.2,-182.04 122.92,-192.63 129.74,-184.53 123.2,-182.04"/>
</a>
</g>
<g id="a_edge13&#45;headlabel"><a xlink:href="dir_000017_000006.html" target="_top" xlink:title="19">
<text text-anchor="middle" x="121.29" y="-175.96" font-family="Helvetica,sans-Serif" font-size="10.00" fill="#63b8ff">19</text>
</a>
</g>
</g>
<!-- dir_6dc31da515e811a8b65e9a735c969ac6&#45;&gt;dir_57e0abd8154e4ee9dda57f187af62c6f -->
<g id="edge12" class="edge">
<title>dir_6dc31da515e811a8b65e9a735c969ac6&#45;&gt;dir_57e0abd8154e4ee9dda57f187af62c6f</title>
<g id="a_edge12"><a xlink:href="dir_000017_000008.html" target="_top">
<path fill="none" stroke="#63b8ff" d="M113.3,-45.08C106.8,-53.8 94.89,-67.27 87,-80.75 78.48,-95.32 71.9,-113.31 66.24,-126.85"/>
<polygon fill="#63b8ff" stroke="#63b8ff" points="63.2,-125.06 62.3,-135.62 69.59,-127.93 63.2,-125.06"/>
</a>
</g>
<g id="a_edge12&#45;headlabel"><a xlink:href="dir_000017_000008.html" target="_top" xlink:title="1">
<text text-anchor="middle" x="61.47" y="-118.88" font-family="Helvetica,sans-Serif" font-size="10.00" fill="#63b8ff">1</text>
</a>
</g>
</g>
<!-- dir_b9777557a16ebd9e4b59a3b409a892fa&#45;&gt;dir_e3b8d04263a98fe910c6b8faff630582 -->
<g id="edge16" class="edge">
<title>dir_b9777557a16ebd9e4b59a3b409a892fa&#45;&gt;dir_e3b8d04263a98fe910c6b8faff630582</title>
<g id="a_edge16"><a xlink:href="dir_000018_000006.html" target="_top">
<path fill="none" stroke="#63b8ff" d="M108.09,-101.93C113.11,-119.92 117.73,-158.59 118.16,-182.72"/>
<polygon fill="#63b8ff" stroke="#63b8ff" points="114.66,-182.55 117.98,-192.61 121.66,-182.67 114.66,-182.55"/>
</a>
</g>
<g id="a_edge16&#45;headlabel"><a xlink:href="dir_000018_000006.html" target="_top" xlink:title="11">
<text text-anchor="middle" x="111.86" y="-177.29" font-family="Helvetica,sans-Serif" font-size="10.00" fill="#63b8ff">11</text>
</a>
</g>
</g>
<!-- dir_b9777557a16ebd9e4b59a3b409a892fa&#45;&gt;dir_57e0abd8154e4ee9dda57f187af62c6f -->
<g id="edge14" class="edge">
<title>dir_b9777557a16ebd9e4b59a3b409a892fa&#45;&gt;dir_57e0abd8154e4ee9dda57f187af62c6f</title>
<g id="a_edge14"><a xlink:href="dir_000018_000008.html" target="_top">
<path fill="none" stroke="#63b8ff" d="M99.44,-101.83C93.97,-109.43 84.47,-120.22 75.37,-129.33"/>
<polygon fill="#63b8ff" stroke="#63b8ff" points="73.16,-126.6 68.35,-136.04 78,-131.66 73.16,-126.6"/>
</a>
</g>
<g id="a_edge14&#45;headlabel"><a xlink:href="dir_000018_000008.html" target="_top" xlink:title="1">
<text text-anchor="middle" x="72.7" y="-119.99" font-family="Helvetica,sans-Serif" font-size="10.00" fill="#63b8ff">1</text>
</a>
</g>
</g>
<!-- dir_b9777557a16ebd9e4b59a3b409a892fa&#45;&gt;dir_6dc31da515e811a8b65e9a735c969ac6 -->
<g id="edge15" class="edge">
<title>dir_b9777557a16ebd9e4b59a3b409a892fa&#45;&gt;dir_6dc31da515e811a8b65e9a735c969ac6</title>
<g id="a_edge15"><a xlink:href="dir_000018_000017.html" target="_top">
<path fill="none" stroke="#63b8ff" d="M105.32,-80.34C106.91,-73.64 109.08,-64.51 111.05,-56.23"/>
<polygon fill="#63b8ff" stroke="#63b8ff" points="114.44,-57.09 113.35,-46.55 107.63,-55.47 114.44,-57.09"/>
</a>
</g>
<g id="a_edge15&#45;headlabel"><a xlink:href="dir_000018_000017.html" target="_top" xlink:title="3">
<text text-anchor="middle" x="116.72" y="-56.64" font-family="Helvetica,sans-Serif" font-size="10.00" fill="#63b8ff">3</text>
</a>
</g>
</g>
</g>
</svg>
