<?xml version="1.0" encoding="UTF-8" standalone="no"?>
<!DOCTYPE svg PUBLIC "-//W3C//DTD SVG 1.1//EN"
 "http://www.w3.org/Graphics/SVG/1.1/DTD/svg11.dtd">
<!-- Generated by graphviz version 7.1.0 (20230122.1345)
 -->
<!-- Title: include/proxsuite/linalg/veg/memory/dynamic_stack.hpp Pages: 1 -->
<svg width="1743pt" height="632pt"
 viewBox="0.00 0.00 1742.65 632.00" xmlns="http://www.w3.org/2000/svg" xmlns:xlink="http://www.w3.org/1999/xlink">
<g id="graph0" class="graph" transform="scale(1 1) rotate(0) translate(4 628)">
<title>include/proxsuite/linalg/veg/memory/dynamic_stack.hpp</title>
<!-- Node1 -->
<g id="node1" class="node">
<title>Node1</title>
<g id="a_node1"><a xlink:title=" ">
<polygon fill="#999999" stroke="#666666" points="541.5,-624 362.5,-624 362.5,-594 541.5,-594 541.5,-624"/>
<text text-anchor="start" x="370.5" y="-612" font-family="Helvetica,sans-Serif" font-size="10.00">include/proxsuite/linalg</text>
<text text-anchor="middle" x="452" y="-601" font-family="Helvetica,sans-Serif" font-size="10.00">/veg/memory/dynamic_stack.hpp</text>
</a>
</g>
</g>
<!-- Node2 -->
<g id="node2" class="node">
<title>Node2</title>
<g id="a_node2"><a xlink:href="dense_2core_8hpp.html" target="_top" xlink:title=" ">
<polygon fill="white" stroke="#666666" points="517.5,-558 386.5,-558 386.5,-528 517.5,-528 517.5,-558"/>
<text text-anchor="start" x="394.5" y="-546" font-family="Helvetica,sans-Serif" font-size="10.00">include/proxsuite/linalg</text>
<text text-anchor="middle" x="452" y="-535" font-family="Helvetica,sans-Serif" font-size="10.00">/dense/core.hpp</text>
</a>
</g>
</g>
<!-- Node1&#45;&gt;Node2 -->
<g id="edge1" class="edge">
<title>Node1&#45;&gt;Node2</title>
<path fill="none" stroke="#63b8ff" d="M452,-582.39C452,-574.13 452,-565.28 452,-558.16"/>
<polygon fill="#63b8ff" stroke="#63b8ff" points="448.5,-582.28 452,-592.28 455.5,-582.28 448.5,-582.28"/>
</g>
<!-- Node3 -->
<g id="node3" class="node">
<title>Node3</title>
<g id="a_node3"><a xlink:href="dense_2factorize_8hpp.html" target="_top" xlink:title=" ">
<polygon fill="white" stroke="#666666" points="246.5,-492 115.5,-492 115.5,-462 246.5,-462 246.5,-492"/>
<text text-anchor="start" x="123.5" y="-480" font-family="Helvetica,sans-Serif" font-size="10.00">include/proxsuite/linalg</text>
<text text-anchor="middle" x="181" y="-469" font-family="Helvetica,sans-Serif" font-size="10.00">/dense/factorize.hpp</text>
</a>
</g>
</g>
<!-- Node1&#45;&gt;Node3 -->
<g id="edge40" class="edge">
<title>Node1&#45;&gt;Node3</title>
<path fill="none" stroke="#63b8ff" d="M411.58,-588.61C356.77,-562.32 260.1,-515.94 211.17,-492.47"/>
<polygon fill="#63b8ff" stroke="#63b8ff" points="410.07,-591.77 420.6,-592.94 413.1,-585.46 410.07,-591.77"/>
</g>
<!-- Node12 -->
<g id="node12" class="node">
<title>Node12</title>
<g id="a_node12"><a xlink:href="modify_8hpp.html" target="_top" xlink:title=" ">
<polygon fill="white" stroke="#666666" points="340.5,-426 209.5,-426 209.5,-396 340.5,-396 340.5,-426"/>
<text text-anchor="start" x="217.5" y="-414" font-family="Helvetica,sans-Serif" font-size="10.00">include/proxsuite/linalg</text>
<text text-anchor="middle" x="275" y="-403" font-family="Helvetica,sans-Serif" font-size="10.00">/dense/modify.hpp</text>
</a>
</g>
</g>
<!-- Node1&#45;&gt;Node12 -->
<g id="edge41" class="edge">
<title>Node1&#45;&gt;Node12</title>
<path fill="none" stroke="#63b8ff" d="M350.78,-604.75C269.6,-596.12 160.52,-569.62 106,-492 76.1,-449.43 149.86,-428.81 209.21,-419.34"/>
<polygon fill="#63b8ff" stroke="#63b8ff" points="350.25,-608.22 360.54,-605.71 350.93,-601.25 350.25,-608.22"/>
</g>
<!-- Node23 -->
<g id="node23" class="node">
<title>Node23</title>
<g id="a_node23"><a xlink:href="sparse_2core_8hpp.html" target="_top" xlink:title=" ">
<polygon fill="white" stroke="#666666" points="1507.5,-558 1376.5,-558 1376.5,-528 1507.5,-528 1507.5,-558"/>
<text text-anchor="start" x="1384.5" y="-546" font-family="Helvetica,sans-Serif" font-size="10.00">include/proxsuite/linalg</text>
<text text-anchor="middle" x="1442" y="-535" font-family="Helvetica,sans-Serif" font-size="10.00">/sparse/core.hpp</text>
</a>
</g>
</g>
<!-- Node1&#45;&gt;Node23 -->
<g id="edge42" class="edge">
<title>Node1&#45;&gt;Node23</title>
<path fill="none" stroke="#63b8ff" d="M552.82,-601.48C755.34,-588.39 1206.69,-559.21 1376.08,-548.26"/>
<polygon fill="#63b8ff" stroke="#63b8ff" points="552.87,-597.97 543.11,-602.11 553.32,-604.96 552.87,-597.97"/>
</g>
<!-- Node31 -->
<g id="node31" class="node">
<title>Node31</title>
<g id="a_node31"><a xlink:href="dynstack__alloc_8hpp.html" target="_top" xlink:title=" ">
<polygon fill="white" stroke="#666666" points="688.5,-558 535.5,-558 535.5,-528 688.5,-528 688.5,-558"/>
<text text-anchor="start" x="543.5" y="-546" font-family="Helvetica,sans-Serif" font-size="10.00">include/proxsuite/linalg</text>
<text text-anchor="middle" x="612" y="-535" font-family="Helvetica,sans-Serif" font-size="10.00">/veg/util/dynstack_alloc.hpp</text>
</a>
</g>
</g>
<!-- Node1&#45;&gt;Node31 -->
<g id="edge73" class="edge">
<title>Node1&#45;&gt;Node31</title>
<path fill="none" stroke="#63b8ff" d="M498.48,-589.41C523.16,-579.54 553.03,-567.59 575.94,-558.43"/>
<polygon fill="#63b8ff" stroke="#63b8ff" points="497.3,-586.11 489.31,-593.08 499.9,-592.61 497.3,-586.11"/>
</g>
<!-- Node2&#45;&gt;Node3 -->
<g id="edge2" class="edge">
<title>Node2&#45;&gt;Node3</title>
<path fill="none" stroke="#63b8ff" d="M379.87,-524.97C336.85,-514.81 282.81,-502.04 241.93,-492.39"/>
<polygon fill="#63b8ff" stroke="#63b8ff" points="378.83,-528.32 389.37,-527.21 380.44,-521.5 378.83,-528.32"/>
</g>
<!-- Node2&#45;&gt;Node12 -->
<g id="edge15" class="edge">
<title>Node2&#45;&gt;Node12</title>
<path fill="none" stroke="#63b8ff" d="M375.27,-533.88C346.17,-527.05 315.01,-514.61 294,-492 277.29,-474.01 274.45,-444.08 274.4,-426.38"/>
<polygon fill="#63b8ff" stroke="#63b8ff" points="374.31,-537.25 384.82,-535.91 375.77,-530.4 374.31,-537.25"/>
</g>
<!-- Node13 -->
<g id="node13" class="node">
<title>Node13</title>
<g id="a_node13"><a xlink:href="solve_8hpp.html" target="_top" xlink:title=" ">
<polygon fill="white" stroke="#666666" points="583.5,-492 452.5,-492 452.5,-462 583.5,-462 583.5,-492"/>
<text text-anchor="start" x="460.5" y="-480" font-family="Helvetica,sans-Serif" font-size="10.00">include/proxsuite/linalg</text>
<text text-anchor="middle" x="518" y="-469" font-family="Helvetica,sans-Serif" font-size="10.00">/dense/solve.hpp</text>
</a>
</g>
</g>
<!-- Node2&#45;&gt;Node13 -->
<g id="edge16" class="edge">
<title>Node2&#45;&gt;Node13</title>
<path fill="none" stroke="#63b8ff" d="M474.89,-519.81C484.34,-510.64 495.03,-500.28 503.39,-492.16"/>
<polygon fill="#63b8ff" stroke="#63b8ff" points="472.48,-517.27 467.73,-526.74 477.35,-522.29 472.48,-517.27"/>
</g>
<!-- Node14 -->
<g id="node14" class="node">
<title>Node14</title>
<g id="a_node14"><a xlink:href="dense_2update_8hpp.html" target="_top" xlink:title=" ">
<polygon fill="white" stroke="#666666" points="434.5,-492 303.5,-492 303.5,-462 434.5,-462 434.5,-492"/>
<text text-anchor="start" x="311.5" y="-480" font-family="Helvetica,sans-Serif" font-size="10.00">include/proxsuite/linalg</text>
<text text-anchor="middle" x="369" y="-469" font-family="Helvetica,sans-Serif" font-size="10.00">/dense/update.hpp</text>
</a>
</g>
</g>
<!-- Node2&#45;&gt;Node14 -->
<g id="edge18" class="edge">
<title>Node2&#45;&gt;Node14</title>
<path fill="none" stroke="#63b8ff" d="M424.73,-520.97C412.58,-511.61 398.58,-500.81 387.66,-492.39"/>
<polygon fill="#63b8ff" stroke="#63b8ff" points="422.32,-523.54 432.38,-526.87 426.6,-517.99 422.32,-523.54"/>
</g>
<!-- Node15 -->
<g id="node15" class="node">
<title>Node15</title>
<g id="a_node15"><a xlink:href="dense_2preconditioner_2ruiz_8hpp.html" target="_top" xlink:title=" ">
<polygon fill="white" stroke="#666666" points="193,-294 29,-294 29,-264 193,-264 193,-294"/>
<text text-anchor="start" x="37" y="-282" font-family="Helvetica,sans-Serif" font-size="10.00">include/proxsuite/proxqp</text>
<text text-anchor="middle" x="111" y="-271" font-family="Helvetica,sans-Serif" font-size="10.00">/dense/preconditioner/ruiz.hpp</text>
</a>
</g>
</g>
<!-- Node2&#45;&gt;Node15 -->
<g id="edge21" class="edge">
<title>Node2&#45;&gt;Node15</title>
<path fill="none" stroke="#63b8ff" d="M374.8,-542.11C283.64,-540.4 140.05,-531.33 106,-492 56.24,-434.53 90.01,-331.83 104.93,-294.27"/>
<polygon fill="#63b8ff" stroke="#63b8ff" points="374.63,-545.61 384.68,-542.27 374.74,-538.61 374.63,-545.61"/>
</g>
<!-- Node17 -->
<g id="node17" class="node">
<title>Node17</title>
<g id="a_node17"><a xlink:href="sparse_2solver_8hpp.html" target="_top" xlink:title=" ">
<polygon fill="white" stroke="#666666" points="1392.5,-162 1255.5,-162 1255.5,-132 1392.5,-132 1392.5,-162"/>
<text text-anchor="start" x="1263.5" y="-150" font-family="Helvetica,sans-Serif" font-size="10.00">include/proxsuite/proxqp</text>
<text text-anchor="middle" x="1324" y="-139" font-family="Helvetica,sans-Serif" font-size="10.00">/sparse/solver.hpp</text>
</a>
</g>
</g>
<!-- Node2&#45;&gt;Node17 -->
<g id="edge27" class="edge">
<title>Node2&#45;&gt;Node17</title>
<path fill="none" stroke="#63b8ff" d="M528.91,-524.31C584.55,-506.43 650,-472.53 650,-412 650,-412 650,-412 650,-278 650,-188.83 747.73,-220.57 834,-198 980.63,-159.63 1159.12,-150.43 1255.05,-148.39"/>
<polygon fill="#63b8ff" stroke="#63b8ff" points="527.91,-520.96 519.38,-527.23 529.96,-527.65 527.91,-520.96"/>
</g>
<!-- Node20 -->
<g id="node20" class="node">
<title>Node20</title>
<g id="a_node20"><a xlink:href="sparse_2utils_8hpp.html" target="_top" xlink:title=" ">
<polygon fill="white" stroke="#666666" points="1527.5,-294 1390.5,-294 1390.5,-264 1527.5,-264 1527.5,-294"/>
<text text-anchor="start" x="1398.5" y="-282" font-family="Helvetica,sans-Serif" font-size="10.00">include/proxsuite/proxqp</text>
<text text-anchor="middle" x="1459" y="-271" font-family="Helvetica,sans-Serif" font-size="10.00">/sparse/utils.hpp</text>
</a>
</g>
</g>
<!-- Node2&#45;&gt;Node20 -->
<g id="edge30" class="edge">
<title>Node2&#45;&gt;Node20</title>
<path fill="none" stroke="#63b8ff" d="M528.97,-527.69C804.15,-480.45 883.76,-507.54 1147,-426 1259.25,-391.23 1383,-323.82 1434.46,-294.36"/>
<polygon fill="#63b8ff" stroke="#63b8ff" points="528.58,-524.21 519.33,-529.37 529.78,-531.11 528.58,-524.21"/>
</g>
<!-- Node21 -->
<g id="node21" class="node">
<title>Node21</title>
<g id="a_node21"><a xlink:href="sparse_2workspace_8hpp.html" target="_top" xlink:title=" ">
<polygon fill="white" stroke="#666666" points="1489.5,-228 1352.5,-228 1352.5,-198 1489.5,-198 1489.5,-228"/>
<text text-anchor="start" x="1360.5" y="-216" font-family="Helvetica,sans-Serif" font-size="10.00">include/proxsuite/proxqp</text>
<text text-anchor="middle" x="1421" y="-205" font-family="Helvetica,sans-Serif" font-size="10.00">/sparse/workspace.hpp</text>
</a>
</g>
</g>
<!-- Node2&#45;&gt;Node21 -->
<g id="edge39" class="edge">
<title>Node2&#45;&gt;Node21</title>
<path fill="none" stroke="#63b8ff" d="M528.8,-526.49C584.62,-514.78 652.35,-499.49 664,-492 701.83,-467.67 726,-456.98 726,-412 726,-412 726,-412 726,-344 726,-300.34 745,-285.5 783,-264 831.59,-236.5 1197.19,-221.36 1352.04,-216.12"/>
<polygon fill="#63b8ff" stroke="#63b8ff" points="528.38,-523 519.3,-528.47 529.8,-529.86 528.38,-523"/>
</g>
<!-- Node22 -->
<g id="node22" class="node">
<title>Node22</title>
<g id="a_node22"><a xlink:href="sparse_2views_8hpp.html" target="_top" xlink:title=" ">
<polygon fill="white" stroke="#666666" points="1603.5,-360 1466.5,-360 1466.5,-330 1603.5,-330 1603.5,-360"/>
<text text-anchor="start" x="1474.5" y="-348" font-family="Helvetica,sans-Serif" font-size="10.00">include/proxsuite/proxqp</text>
<text text-anchor="middle" x="1535" y="-337" font-family="Helvetica,sans-Serif" font-size="10.00">/sparse/views.hpp</text>
</a>
</g>
</g>
<!-- Node2&#45;&gt;Node22 -->
<g id="edge35" class="edge">
<title>Node2&#45;&gt;Node22</title>
<path fill="none" stroke="#63b8ff" d="M529.09,-528.13C666.62,-517.81 1325.79,-531.02 1413,-492 1473,-465.15 1513.44,-391.82 1528.47,-360.5"/>
<polygon fill="#63b8ff" stroke="#63b8ff" points="528.92,-524.63 519.28,-529.03 529.55,-531.6 528.92,-524.63"/>
</g>
<!-- Node4 -->
<g id="node4" class="node">
<title>Node4</title>
<g id="a_node4"><a xlink:href="ldlt_8hpp.html" target="_top" xlink:title=" ">
<polygon fill="white" stroke="#666666" points="382.5,-360 251.5,-360 251.5,-330 382.5,-330 382.5,-360"/>
<text text-anchor="start" x="259.5" y="-348" font-family="Helvetica,sans-Serif" font-size="10.00">include/proxsuite/linalg</text>
<text text-anchor="middle" x="317" y="-337" font-family="Helvetica,sans-Serif" font-size="10.00">/dense/ldlt.hpp</text>
</a>
</g>
</g>
<!-- Node3&#45;&gt;Node4 -->
<g id="edge3" class="edge">
<title>Node3&#45;&gt;Node4</title>
<path fill="none" stroke="#63b8ff" d="M181.31,-450.13C182.8,-433.01 187.34,-411.02 200,-396 214.09,-379.27 234.78,-368.01 254.86,-360.48"/>
<polygon fill="#63b8ff" stroke="#63b8ff" points="177.82,-449.89 180.77,-460.06 184.81,-450.27 177.82,-449.89"/>
</g>
<!-- Node3&#45;&gt;Node12 -->
<g id="edge13" class="edge">
<title>Node3&#45;&gt;Node12</title>
<path fill="none" stroke="#63b8ff" d="M211.07,-455.52C225.02,-446.03 241.25,-434.98 253.87,-426.39"/>
<polygon fill="#63b8ff" stroke="#63b8ff" points="209.41,-452.42 203.11,-460.94 213.35,-458.21 209.41,-452.42"/>
</g>
<!-- Node5 -->
<g id="node5" class="node">
<title>Node5</title>
<g id="a_node5"><a xlink:href="dense_2solver_8hpp.html" target="_top" xlink:title=" ">
<polygon fill="white" stroke="#666666" points="379.5,-162 242.5,-162 242.5,-132 379.5,-132 379.5,-162"/>
<text text-anchor="start" x="250.5" y="-150" font-family="Helvetica,sans-Serif" font-size="10.00">include/proxsuite/proxqp</text>
<text text-anchor="middle" x="311" y="-139" font-family="Helvetica,sans-Serif" font-size="10.00">/dense/solver.hpp</text>
</a>
</g>
</g>
<!-- Node4&#45;&gt;Node5 -->
<g id="edge4" class="edge">
<title>Node4&#45;&gt;Node5</title>
<path fill="none" stroke="#63b8ff" d="M296.26,-320.65C290.49,-312.73 284.99,-303.48 282,-294 269.17,-253.31 270.92,-239.2 282,-198 285.49,-185.01 293.28,-171.92 299.9,-162.4"/>
<polygon fill="#63b8ff" stroke="#63b8ff" points="293.41,-322.68 302.34,-328.37 298.91,-318.35 293.41,-322.68"/>
</g>
<!-- Node9 -->
<g id="node9" class="node">
<title>Node9</title>
<g id="a_node9"><a xlink:href="dense_2workspace_8hpp.html" target="_top" xlink:title=" ">
<polygon fill="white" stroke="#666666" points="428.5,-294 291.5,-294 291.5,-264 428.5,-264 428.5,-294"/>
<text text-anchor="start" x="299.5" y="-282" font-family="Helvetica,sans-Serif" font-size="10.00">include/proxsuite/proxqp</text>
<text text-anchor="middle" x="360" y="-271" font-family="Helvetica,sans-Serif" font-size="10.00">/dense/workspace.hpp</text>
</a>
</g>
</g>
<!-- Node4&#45;&gt;Node9 -->
<g id="edge8" class="edge">
<title>Node4&#45;&gt;Node9</title>
<path fill="none" stroke="#63b8ff" d="M332.86,-320.39C338.78,-311.59 345.31,-301.86 350.48,-294.16"/>
<polygon fill="#63b8ff" stroke="#63b8ff" points="330.06,-318.29 327.39,-328.54 335.87,-322.19 330.06,-318.29"/>
</g>
<!-- Node6 -->
<g id="node6" class="node">
<title>Node6</title>
<g id="a_node6"><a xlink:href="proxqp_2dense_2wrapper_8hpp.html" target="_top" xlink:title=" ">
<polygon fill="white" stroke="#666666" points="234.5,-96 97.5,-96 97.5,-66 234.5,-66 234.5,-96"/>
<text text-anchor="start" x="105.5" y="-84" font-family="Helvetica,sans-Serif" font-size="10.00">include/proxsuite/proxqp</text>
<text text-anchor="middle" x="166" y="-73" font-family="Helvetica,sans-Serif" font-size="10.00">/dense/wrapper.hpp</text>
</a>
</g>
</g>
<!-- Node5&#45;&gt;Node6 -->
<g id="edge5" class="edge">
<title>Node5&#45;&gt;Node6</title>
<path fill="none" stroke="#63b8ff" d="M267.97,-127.01C245.78,-117.22 219.16,-105.46 198.68,-96.43"/>
<polygon fill="#63b8ff" stroke="#63b8ff" points="266.51,-130.19 277.07,-131.03 269.34,-123.79 266.51,-130.19"/>
</g>
<!-- Node7 -->
<g id="node7" class="node">
<title>Node7</title>
<g id="a_node7"><a xlink:href="dense_8hpp.html" target="_top" xlink:title=" ">
<polygon fill="white" stroke="#666666" points="319.5,-30 182.5,-30 182.5,0 319.5,0 319.5,-30"/>
<text text-anchor="start" x="190.5" y="-18" font-family="Helvetica,sans-Serif" font-size="10.00">include/proxsuite/proxqp</text>
<text text-anchor="middle" x="251" y="-7" font-family="Helvetica,sans-Serif" font-size="10.00">/dense/dense.hpp</text>
</a>
</g>
</g>
<!-- Node6&#45;&gt;Node7 -->
<g id="edge6" class="edge">
<title>Node6&#45;&gt;Node7</title>
<path fill="none" stroke="#63b8ff" d="M193.92,-58.97C206.37,-49.61 220.7,-38.81 231.89,-30.39"/>
<polygon fill="#63b8ff" stroke="#63b8ff" points="191.96,-56.07 186.07,-64.89 196.17,-61.67 191.96,-56.07"/>
</g>
<!-- Node8 -->
<g id="node8" class="node">
<title>Node8</title>
<g id="a_node8"><a xlink:href="serialization_2wrapper_8hpp.html" target="_top" xlink:title=" ">
<polygon fill="white" stroke="#666666" points="164,-30 0,-30 0,0 164,0 164,-30"/>
<text text-anchor="start" x="8" y="-18" font-family="Helvetica,sans-Serif" font-size="10.00">include/proxsuite/serialization</text>
<text text-anchor="middle" x="82" y="-7" font-family="Helvetica,sans-Serif" font-size="10.00">/wrapper.hpp</text>
</a>
</g>
</g>
<!-- Node6&#45;&gt;Node8 -->
<g id="edge7" class="edge">
<title>Node6&#45;&gt;Node8</title>
<path fill="none" stroke="#63b8ff" d="M138.4,-58.97C126.11,-49.61 111.94,-38.81 100.88,-30.39"/>
<polygon fill="#63b8ff" stroke="#63b8ff" points="136.08,-61.6 146.15,-64.88 140.32,-56.03 136.08,-61.6"/>
</g>
<!-- Node10 -->
<g id="node10" class="node">
<title>Node10</title>
<g id="a_node10"><a xlink:href="linesearch_8hpp.html" target="_top" xlink:title=" ">
<polygon fill="white" stroke="#666666" points="583.5,-228 446.5,-228 446.5,-198 583.5,-198 583.5,-228"/>
<text text-anchor="start" x="454.5" y="-216" font-family="Helvetica,sans-Serif" font-size="10.00">include/proxsuite/proxqp</text>
<text text-anchor="middle" x="515" y="-205" font-family="Helvetica,sans-Serif" font-size="10.00">/dense/linesearch.hpp</text>
</a>
</g>
</g>
<!-- Node9&#45;&gt;Node10 -->
<g id="edge9" class="edge">
<title>Node9&#45;&gt;Node10</title>
<path fill="none" stroke="#63b8ff" d="M405.35,-259.27C429.19,-249.43 457.97,-237.55 480.06,-228.43"/>
<polygon fill="#63b8ff" stroke="#63b8ff" points="404.09,-256.01 396.18,-263.06 406.76,-262.48 404.09,-256.01"/>
</g>
<!-- Node11 -->
<g id="node11" class="node">
<title>Node11</title>
<g id="a_node11"><a xlink:href="dense_2utils_8hpp.html" target="_top" xlink:title=" ">
<polygon fill="white" stroke="#666666" points="428.5,-228 291.5,-228 291.5,-198 428.5,-198 428.5,-228"/>
<text text-anchor="start" x="299.5" y="-216" font-family="Helvetica,sans-Serif" font-size="10.00">include/proxsuite/proxqp</text>
<text text-anchor="middle" x="360" y="-205" font-family="Helvetica,sans-Serif" font-size="10.00">/dense/utils.hpp</text>
</a>
</g>
</g>
<!-- Node9&#45;&gt;Node11 -->
<g id="edge11" class="edge">
<title>Node9&#45;&gt;Node11</title>
<path fill="none" stroke="#63b8ff" d="M360,-252.39C360,-244.13 360,-235.28 360,-228.16"/>
<polygon fill="#63b8ff" stroke="#63b8ff" points="356.5,-252.28 360,-262.28 363.5,-252.28 356.5,-252.28"/>
</g>
<!-- Node10&#45;&gt;Node5 -->
<g id="edge10" class="edge">
<title>Node10&#45;&gt;Node5</title>
<path fill="none" stroke="#63b8ff" d="M458.01,-194.12C426.08,-184.1 386.79,-171.78 356.87,-162.39"/>
<polygon fill="#63b8ff" stroke="#63b8ff" points="456.93,-197.45 467.52,-197.1 459.03,-190.77 456.93,-197.45"/>
</g>
<!-- Node11&#45;&gt;Node5 -->
<g id="edge12" class="edge">
<title>Node11&#45;&gt;Node5</title>
<path fill="none" stroke="#63b8ff" d="M342.14,-188.68C335.34,-179.79 327.8,-169.95 321.84,-162.16"/>
<polygon fill="#63b8ff" stroke="#63b8ff" points="339.35,-190.78 348.21,-196.59 344.91,-186.53 339.35,-190.78"/>
</g>
<!-- Node12&#45;&gt;Node4 -->
<g id="edge14" class="edge">
<title>Node12&#45;&gt;Node4</title>
<path fill="none" stroke="#63b8ff" d="M290.49,-386.39C296.27,-377.59 302.65,-367.86 307.7,-360.16"/>
<polygon fill="#63b8ff" stroke="#63b8ff" points="287.71,-384.25 285.15,-394.53 293.56,-388.09 287.71,-384.25"/>
</g>
<!-- Node13&#45;&gt;Node4 -->
<g id="edge17" class="edge">
<title>Node13&#45;&gt;Node4</title>
<path fill="none" stroke="#63b8ff" d="M486.23,-455.45C445.28,-428.97 375.14,-383.6 339.38,-360.47"/>
<polygon fill="#63b8ff" stroke="#63b8ff" points="484.15,-458.28 494.45,-460.77 487.95,-452.4 484.15,-458.28"/>
</g>
<!-- Node14&#45;&gt;Node4 -->
<g id="edge19" class="edge">
<title>Node14&#45;&gt;Node4</title>
<path fill="none" stroke="#63b8ff" d="M364.81,-450.48C361.65,-434.42 356.54,-413.49 349,-396 343.45,-383.13 334.77,-369.82 327.84,-360.18"/>
<polygon fill="#63b8ff" stroke="#63b8ff" points="361.35,-450.98 366.59,-460.19 368.23,-449.72 361.35,-450.98"/>
</g>
<!-- Node14&#45;&gt;Node12 -->
<g id="edge20" class="edge">
<title>Node14&#45;&gt;Node12</title>
<path fill="none" stroke="#63b8ff" d="M338.93,-455.52C324.98,-446.03 308.75,-434.98 296.13,-426.39"/>
<polygon fill="#63b8ff" stroke="#63b8ff" points="336.65,-458.21 346.89,-460.94 340.59,-452.42 336.65,-458.21"/>
</g>
<!-- Node15&#45;&gt;Node6 -->
<g id="edge26" class="edge">
<title>Node15&#45;&gt;Node6</title>
<path fill="none" stroke="#63b8ff" d="M96.47,-253.45C88.92,-237.59 82.35,-216.53 88,-198 100.6,-156.68 133.39,-116.74 152.2,-96.24"/>
<polygon fill="#63b8ff" stroke="#63b8ff" points="93.29,-254.91 101.01,-262.16 99.49,-251.68 93.29,-254.91"/>
</g>
<!-- Node15&#45;&gt;Node11 -->
<g id="edge25" class="edge">
<title>Node15&#45;&gt;Node11</title>
<path fill="none" stroke="#63b8ff" d="M178.28,-260.71C217.65,-250.59 266.77,-237.96 304.01,-228.39"/>
<polygon fill="#63b8ff" stroke="#63b8ff" points="177.47,-257.3 168.66,-263.18 179.21,-264.08 177.47,-257.3"/>
</g>
<!-- Node16 -->
<g id="node16" class="node">
<title>Node16</title>
<g id="a_node16"><a xlink:href="dense_2helpers_8hpp.html" target="_top" xlink:title=" ">
<polygon fill="white" stroke="#666666" points="234.5,-228 97.5,-228 97.5,-198 234.5,-198 234.5,-228"/>
<text text-anchor="start" x="105.5" y="-216" font-family="Helvetica,sans-Serif" font-size="10.00">include/proxsuite/proxqp</text>
<text text-anchor="middle" x="166" y="-205" font-family="Helvetica,sans-Serif" font-size="10.00">/dense/helpers.hpp</text>
</a>
</g>
</g>
<!-- Node15&#45;&gt;Node16 -->
<g id="edge22" class="edge">
<title>Node15&#45;&gt;Node16</title>
<path fill="none" stroke="#63b8ff" d="M130.56,-255.24C138.32,-246.21 147,-236.11 153.83,-228.16"/>
<polygon fill="#63b8ff" stroke="#63b8ff" points="128.06,-252.78 124.19,-262.65 133.36,-257.35 128.06,-252.78"/>
</g>
<!-- Node16&#45;&gt;Node5 -->
<g id="edge23" class="edge">
<title>Node16&#45;&gt;Node5</title>
<path fill="none" stroke="#63b8ff" d="M209.03,-193.01C231.22,-183.22 257.84,-171.46 278.32,-162.43"/>
<polygon fill="#63b8ff" stroke="#63b8ff" points="207.66,-189.79 199.93,-197.03 210.49,-196.19 207.66,-189.79"/>
</g>
<!-- Node16&#45;&gt;Node6 -->
<g id="edge24" class="edge">
<title>Node16&#45;&gt;Node6</title>
<path fill="none" stroke="#63b8ff" d="M166,-186.38C166,-159.49 166,-118.18 166,-96.47"/>
<polygon fill="#63b8ff" stroke="#63b8ff" points="162.5,-186.08 166,-196.08 169.5,-186.08 162.5,-186.08"/>
</g>
<!-- Node18 -->
<g id="node18" class="node">
<title>Node18</title>
<g id="a_node18"><a xlink:href="proxqp_2sparse_2wrapper_8hpp.html" target="_top" xlink:title=" ">
<polygon fill="white" stroke="#666666" points="1392.5,-96 1255.5,-96 1255.5,-66 1392.5,-66 1392.5,-96"/>
<text text-anchor="start" x="1263.5" y="-84" font-family="Helvetica,sans-Serif" font-size="10.00">include/proxsuite/proxqp</text>
<text text-anchor="middle" x="1324" y="-73" font-family="Helvetica,sans-Serif" font-size="10.00">/sparse/wrapper.hpp</text>
</a>
</g>
</g>
<!-- Node17&#45;&gt;Node18 -->
<g id="edge28" class="edge">
<title>Node17&#45;&gt;Node18</title>
<path fill="none" stroke="#63b8ff" d="M1324,-120.39C1324,-112.13 1324,-103.28 1324,-96.16"/>
<polygon fill="#63b8ff" stroke="#63b8ff" points="1320.5,-120.28 1324,-130.28 1327.5,-120.28 1320.5,-120.28"/>
</g>
<!-- Node19 -->
<g id="node19" class="node">
<title>Node19</title>
<g id="a_node19"><a xlink:href="sparse_8hpp.html" target="_top" xlink:title=" ">
<polygon fill="white" stroke="#666666" points="1392.5,-30 1255.5,-30 1255.5,0 1392.5,0 1392.5,-30"/>
<text text-anchor="start" x="1263.5" y="-18" font-family="Helvetica,sans-Serif" font-size="10.00">include/proxsuite/proxqp</text>
<text text-anchor="middle" x="1324" y="-7" font-family="Helvetica,sans-Serif" font-size="10.00">/sparse/sparse.hpp</text>
</a>
</g>
</g>
<!-- Node18&#45;&gt;Node19 -->
<g id="edge29" class="edge">
<title>Node18&#45;&gt;Node19</title>
<path fill="none" stroke="#63b8ff" d="M1324,-54.39C1324,-46.13 1324,-37.28 1324,-30.16"/>
<polygon fill="#63b8ff" stroke="#63b8ff" points="1320.5,-54.28 1324,-64.28 1327.5,-54.28 1320.5,-54.28"/>
</g>
<!-- Node20&#45;&gt;Node17 -->
<g id="edge31" class="edge">
<title>Node20&#45;&gt;Node17</title>
<path fill="none" stroke="#63b8ff" d="M1483.3,-255.38C1498.31,-238.63 1512.38,-215.74 1499,-198 1485.87,-180.59 1436.04,-167.42 1392.9,-158.98"/>
<polygon fill="#63b8ff" stroke="#63b8ff" points="1480.94,-252.79 1476.55,-262.43 1485.99,-257.63 1480.94,-252.79"/>
</g>
<!-- Node20&#45;&gt;Node21 -->
<g id="edge32" class="edge">
<title>Node20&#45;&gt;Node21</title>
<path fill="none" stroke="#63b8ff" d="M1438.45,-254.39C1432.76,-245.59 1427.26,-235.86 1423.69,-228.16"/>
<polygon fill="#63b8ff" stroke="#63b8ff" points="1435.47,-256.25 1443.99,-262.55 1441.26,-252.31 1435.47,-256.25"/>
</g>
<!-- Node21&#45;&gt;Node17 -->
<g id="edge33" class="edge">
<title>Node21&#45;&gt;Node17</title>
<path fill="none" stroke="#63b8ff" d="M1389.97,-191.52C1375.58,-182.03 1358.83,-170.98 1345.8,-162.39"/>
<polygon fill="#63b8ff" stroke="#63b8ff" points="1387.93,-194.38 1398.21,-196.96 1391.79,-188.53 1387.93,-194.38"/>
</g>
<!-- Node21&#45;&gt;Node20 -->
<g id="edge34" class="edge">
<title>Node21&#45;&gt;Node20</title>
<path fill="none" stroke="#63b8ff" d="M1441.53,-237.56C1447.21,-246.37 1452.71,-256.09 1456.29,-263.8"/>
<polygon fill="#63b8ff" stroke="#63b8ff" points="1444.5,-235.71 1435.98,-229.41 1438.71,-239.65 1444.5,-235.71"/>
</g>
<!-- Node22&#45;&gt;Node17 -->
<g id="edge36" class="edge">
<title>Node22&#45;&gt;Node17</title>
<path fill="none" stroke="#63b8ff" d="M1547.06,-319.24C1550.3,-311.36 1553.37,-302.49 1555,-294 1563.74,-248.61 1552.05,-225.64 1515,-198 1479.7,-171.66 1431.71,-159.17 1392.67,-153.25"/>
<polygon fill="#63b8ff" stroke="#63b8ff" points="1543.95,-317.63 1543.09,-328.19 1550.35,-320.46 1543.95,-317.63"/>
</g>
<!-- Node22&#45;&gt;Node20 -->
<g id="edge37" class="edge">
<title>Node22&#45;&gt;Node20</title>
<path fill="none" stroke="#63b8ff" d="M1509.38,-322.42C1498.41,-313.18 1485.89,-302.65 1476.08,-294.39"/>
<polygon fill="#63b8ff" stroke="#63b8ff" points="1507.07,-325.06 1516.98,-328.82 1511.58,-319.7 1507.07,-325.06"/>
</g>
<!-- Node22&#45;&gt;Node21 -->
<g id="edge38" class="edge">
<title>Node22&#45;&gt;Node21</title>
<path fill="none" stroke="#63b8ff" d="M1542.59,-318.93C1546.13,-302.05 1547.55,-280.03 1537,-264 1525.85,-247.05 1507.61,-235.83 1488.87,-228.4"/>
<polygon fill="#63b8ff" stroke="#63b8ff" points="1539.3,-317.64 1540.29,-328.19 1546.1,-319.33 1539.3,-317.64"/>
</g>
<!-- Node23&#45;&gt;Node17 -->
<g id="edge69" class="edge">
<title>Node23&#45;&gt;Node17</title>
<path fill="none" stroke="#63b8ff" d="M1365.14,-526.25C1321.53,-516.98 1266.02,-504.62 1217,-492 1027.51,-443.21 927.01,-506.23 797,-360 777.08,-337.59 786.13,-323.82 783,-294 781.61,-280.74 774.62,-274.37 783,-264 841.69,-191.4 1123.14,-162.17 1255.25,-152.31"/>
<polygon fill="#63b8ff" stroke="#63b8ff" points="1364.26,-529.64 1374.77,-528.28 1365.71,-522.79 1364.26,-529.64"/>
</g>
<!-- Node23&#45;&gt;Node20 -->
<g id="edge70" class="edge">
<title>Node23&#45;&gt;Node20</title>
<path fill="none" stroke="#63b8ff" d="M1518.84,-533.51C1584.14,-521.67 1673.52,-493.4 1714,-426 1760.88,-347.94 1618.41,-307.75 1527.85,-290.58"/>
<polygon fill="#63b8ff" stroke="#63b8ff" points="1518.53,-530.01 1509.26,-535.15 1519.71,-536.91 1518.53,-530.01"/>
</g>
<!-- Node23&#45;&gt;Node21 -->
<g id="edge72" class="edge">
<title>Node23&#45;&gt;Node21</title>
<path fill="none" stroke="#63b8ff" d="M1519.33,-536C1612.84,-524.51 1755.11,-491.31 1732,-396 1712.67,-316.28 1677.3,-298.77 1603,-264 1567.24,-247.27 1524.82,-235.21 1489.93,-227.13"/>
<polygon fill="#63b8ff" stroke="#63b8ff" points="1518.93,-532.52 1509.4,-537.15 1519.73,-539.47 1518.93,-532.52"/>
</g>
<!-- Node23&#45;&gt;Node22 -->
<g id="edge71" class="edge">
<title>Node23&#45;&gt;Node22</title>
<path fill="none" stroke="#63b8ff" d="M1488.62,-522.08C1501.12,-514.48 1513.29,-504.55 1521,-492 1546.87,-449.91 1541.57,-387.77 1537.49,-360.14"/>
<polygon fill="#63b8ff" stroke="#63b8ff" points="1486.95,-519.01 1479.92,-526.94 1490.36,-525.12 1486.95,-519.01"/>
</g>
<!-- Node24 -->
<g id="node24" class="node">
<title>Node24</title>
<g id="a_node24"><a xlink:href="sparse_2factorize_8hpp.html" target="_top" xlink:title=" ">
<polygon fill="white" stroke="#666666" points="1704.5,-426 1573.5,-426 1573.5,-396 1704.5,-396 1704.5,-426"/>
<text text-anchor="start" x="1581.5" y="-414" font-family="Helvetica,sans-Serif" font-size="10.00">include/proxsuite/linalg</text>
<text text-anchor="middle" x="1639" y="-403" font-family="Helvetica,sans-Serif" font-size="10.00">/sparse/factorize.hpp</text>
</a>
</g>
</g>
<!-- Node23&#45;&gt;Node24 -->
<g id="edge43" class="edge">
<title>Node23&#45;&gt;Node24</title>
<path fill="none" stroke="#63b8ff" d="M1497.23,-523.42C1517.54,-515.33 1540.15,-504.74 1559,-492 1586.82,-473.18 1613.17,-443.81 1627.6,-426.38"/>
<polygon fill="#63b8ff" stroke="#63b8ff" points="1496.02,-520.14 1487.95,-527 1498.54,-526.67 1496.02,-520.14"/>
</g>
<!-- Node25 -->
<g id="node25" class="node">
<title>Node25</title>
<g id="a_node25"><a xlink:href="sparse_2update_8hpp.html" target="_top" xlink:title=" ">
<polygon fill="white" stroke="#666666" points="1403.5,-492 1272.5,-492 1272.5,-462 1403.5,-462 1403.5,-492"/>
<text text-anchor="start" x="1280.5" y="-480" font-family="Helvetica,sans-Serif" font-size="10.00">include/proxsuite/linalg</text>
<text text-anchor="middle" x="1338" y="-469" font-family="Helvetica,sans-Serif" font-size="10.00">/sparse/update.hpp</text>
</a>
</g>
</g>
<!-- Node23&#45;&gt;Node25 -->
<g id="edge48" class="edge">
<title>Node23&#45;&gt;Node25</title>
<path fill="none" stroke="#63b8ff" d="M1408.91,-521.64C1393.4,-512.09 1375.3,-500.95 1361.26,-492.31"/>
<polygon fill="#63b8ff" stroke="#63b8ff" points="1407.02,-524.58 1417.37,-526.84 1410.69,-518.62 1407.02,-524.58"/>
</g>
<!-- Node27 -->
<g id="node27" class="node">
<title>Node27</title>
<g id="a_node27"><a xlink:href="proxqp_2sparse_2model_8hpp.html" target="_top" xlink:title=" ">
<polygon fill="white" stroke="#666666" points="1137.5,-426 1000.5,-426 1000.5,-396 1137.5,-396 1137.5,-426"/>
<text text-anchor="start" x="1008.5" y="-414" font-family="Helvetica,sans-Serif" font-size="10.00">include/proxsuite/proxqp</text>
<text text-anchor="middle" x="1069" y="-403" font-family="Helvetica,sans-Serif" font-size="10.00">/sparse/model.hpp</text>
</a>
</g>
</g>
<!-- Node23&#45;&gt;Node27 -->
<g id="edge58" class="edge">
<title>Node23&#45;&gt;Node27</title>
<path fill="none" stroke="#63b8ff" d="M1365.03,-525.65C1333.03,-517.51 1295.97,-506.32 1264,-492 1241.38,-481.87 1239.35,-472.71 1217,-462 1186.55,-447.41 1150.71,-435.18 1121.93,-426.47"/>
<polygon fill="#63b8ff" stroke="#63b8ff" points="1364.11,-529.02 1374.66,-528.03 1365.79,-522.23 1364.11,-529.02"/>
</g>
<!-- Node24&#45;&gt;Node17 -->
<g id="edge44" class="edge">
<title>Node24&#45;&gt;Node17</title>
<path fill="none" stroke="#63b8ff" d="M1649.32,-385.05C1654.46,-368.96 1658.36,-347.81 1652,-330 1626.52,-258.61 1608.45,-237.9 1544,-198 1498.37,-169.76 1438.57,-157.42 1392.84,-152.06"/>
<polygon fill="#63b8ff" stroke="#63b8ff" points="1646.08,-383.72 1646,-394.32 1652.67,-386.08 1646.08,-383.72"/>
</g>
<!-- Node24&#45;&gt;Node20 -->
<g id="edge45" class="edge">
<title>Node24&#45;&gt;Node20</title>
<path fill="none" stroke="#63b8ff" d="M1636.67,-384.17C1633.79,-366.73 1627.36,-344.36 1613,-330 1590.34,-307.34 1557.32,-294.95 1527.66,-288.17"/>
<polygon fill="#63b8ff" stroke="#63b8ff" points="1633.2,-384.59 1637.98,-394.05 1640.14,-383.68 1633.2,-384.59"/>
</g>
<!-- Node24&#45;&gt;Node21 -->
<g id="edge47" class="edge">
<title>Node24&#45;&gt;Node21</title>
<path fill="none" stroke="#63b8ff" d="M1642.84,-384.11C1644.07,-367.75 1643.36,-346.64 1635,-330 1606.78,-273.83 1539.11,-243.77 1487.35,-228.44"/>
<polygon fill="#63b8ff" stroke="#63b8ff" points="1639.36,-383.72 1641.78,-394.04 1646.32,-384.46 1639.36,-383.72"/>
</g>
<!-- Node24&#45;&gt;Node22 -->
<g id="edge46" class="edge">
<title>Node24&#45;&gt;Node22</title>
<path fill="none" stroke="#63b8ff" d="M1605.91,-389.64C1590.4,-380.09 1572.3,-368.95 1558.26,-360.31"/>
<polygon fill="#63b8ff" stroke="#63b8ff" points="1604.02,-392.58 1614.37,-394.84 1607.69,-386.62 1604.02,-392.58"/>
</g>
<!-- Node25&#45;&gt;Node17 -->
<g id="edge54" class="edge">
<title>Node25&#45;&gt;Node17</title>
<path fill="none" stroke="#63b8ff" d="M1287.29,-456.43C1274.49,-448.93 1262.32,-438.95 1255,-426 1203.38,-334.65 1283.73,-205.03 1313.57,-162.28"/>
<polygon fill="#63b8ff" stroke="#63b8ff" points="1285.32,-459.35 1295.79,-460.98 1288.62,-453.18 1285.32,-459.35"/>
</g>
<!-- Node25&#45;&gt;Node20 -->
<g id="edge55" class="edge">
<title>Node25&#45;&gt;Node20</title>
<path fill="none" stroke="#63b8ff" d="M1378.01,-455.83C1390.35,-447.97 1403.04,-437.94 1412,-426 1443.02,-384.69 1454.01,-322.15 1457.52,-294.27"/>
<polygon fill="#63b8ff" stroke="#63b8ff" points="1376.34,-452.76 1369.56,-460.9 1379.94,-458.76 1376.34,-452.76"/>
</g>
<!-- Node25&#45;&gt;Node21 -->
<g id="edge57" class="edge">
<title>Node25&#45;&gt;Node21</title>
<path fill="none" stroke="#63b8ff" d="M1292.61,-455.82C1280.85,-448.25 1269.63,-438.4 1263,-426 1256.71,-414.24 1258.72,-408.63 1263,-396 1288.7,-320.11 1364.37,-255.91 1400.86,-228.39"/>
<polygon fill="#63b8ff" stroke="#63b8ff" points="1290.83,-458.83 1301.23,-460.88 1294.38,-452.8 1290.83,-458.83"/>
</g>
<!-- Node25&#45;&gt;Node22 -->
<g id="edge56" class="edge">
<title>Node25&#45;&gt;Node22</title>
<path fill="none" stroke="#63b8ff" d="M1386.33,-456.98C1405.28,-448.62 1426.8,-437.97 1445,-426 1474.69,-406.47 1504.64,-377.6 1521.41,-360.41"/>
<polygon fill="#63b8ff" stroke="#63b8ff" points="1385,-453.74 1377.2,-460.91 1387.76,-460.17 1385,-453.74"/>
</g>
<!-- Node26 -->
<g id="node26" class="node">
<title>Node26</title>
<g id="a_node26"><a xlink:href="rowmod_8hpp.html" target="_top" xlink:title=" ">
<polygon fill="white" stroke="#666666" points="1402.5,-426 1271.5,-426 1271.5,-396 1402.5,-396 1402.5,-426"/>
<text text-anchor="start" x="1279.5" y="-414" font-family="Helvetica,sans-Serif" font-size="10.00">include/proxsuite/linalg</text>
<text text-anchor="middle" x="1337" y="-403" font-family="Helvetica,sans-Serif" font-size="10.00">/sparse/rowmod.hpp</text>
</a>
</g>
</g>
<!-- Node25&#45;&gt;Node26 -->
<g id="edge49" class="edge">
<title>Node25&#45;&gt;Node26</title>
<path fill="none" stroke="#63b8ff" d="M1337.6,-450.39C1337.47,-442.13 1337.33,-433.28 1337.22,-426.16"/>
<polygon fill="#63b8ff" stroke="#63b8ff" points="1334.1,-450.34 1337.75,-460.28 1341.1,-450.23 1334.1,-450.34"/>
</g>
<!-- Node26&#45;&gt;Node17 -->
<g id="edge50" class="edge">
<title>Node26&#45;&gt;Node17</title>
<path fill="none" stroke="#63b8ff" d="M1335.72,-384.18C1333.02,-329.77 1326.82,-204.85 1324.72,-162.41"/>
<polygon fill="#63b8ff" stroke="#63b8ff" points="1332.22,-384.21 1336.21,-394.03 1339.21,-383.87 1332.22,-384.21"/>
</g>
<!-- Node26&#45;&gt;Node20 -->
<g id="edge51" class="edge">
<title>Node26&#45;&gt;Node20</title>
<path fill="none" stroke="#63b8ff" d="M1358.37,-387.22C1383.46,-360.49 1424.31,-316.96 1445.42,-294.47"/>
<polygon fill="#63b8ff" stroke="#63b8ff" points="1355.85,-384.8 1351.56,-394.49 1360.95,-389.59 1355.85,-384.8"/>
</g>
<!-- Node26&#45;&gt;Node21 -->
<g id="edge53" class="edge">
<title>Node26&#45;&gt;Node21</title>
<path fill="none" stroke="#63b8ff" d="M1341.91,-384.51C1348.34,-354.49 1361.3,-303.69 1382,-264 1388.82,-250.92 1399.19,-237.83 1407.52,-228.33"/>
<polygon fill="#63b8ff" stroke="#63b8ff" points="1338.51,-383.67 1339.92,-394.17 1345.36,-385.08 1338.51,-383.67"/>
</g>
<!-- Node26&#45;&gt;Node22 -->
<g id="edge52" class="edge">
<title>Node26&#45;&gt;Node22</title>
<path fill="none" stroke="#63b8ff" d="M1392.07,-392.2C1423.06,-382.18 1461.26,-369.83 1490.37,-360.43"/>
<polygon fill="#63b8ff" stroke="#63b8ff" points="1391.31,-388.77 1382.88,-395.17 1393.47,-395.43 1391.31,-388.77"/>
</g>
<!-- Node27&#45;&gt;Node17 -->
<g id="edge64" class="edge">
<title>Node27&#45;&gt;Node17</title>
<path fill="none" stroke="#63b8ff" d="M1082.05,-385.63C1091.24,-369.29 1104.31,-347.62 1118,-330 1131.69,-312.38 1140.47,-312.47 1153,-294 1179.25,-255.31 1162.15,-230.24 1196,-198 1213.53,-181.3 1237.29,-169.98 1259.57,-162.4"/>
<polygon fill="#63b8ff" stroke="#63b8ff" points="1079.1,-383.73 1077.33,-394.18 1085.23,-387.12 1079.1,-383.73"/>
</g>
<!-- Node27&#45;&gt;Node20 -->
<g id="edge65" class="edge">
<title>Node27&#45;&gt;Node20</title>
<path fill="none" stroke="#63b8ff" d="M1103.89,-390.12C1136.61,-372.2 1187.34,-346.25 1234,-330 1285.11,-312.2 1345.02,-299.26 1390.16,-291"/>
<polygon fill="#63b8ff" stroke="#63b8ff" points="1102.31,-386.99 1095.26,-394.9 1105.7,-393.12 1102.31,-386.99"/>
</g>
<!-- Node27&#45;&gt;Node21 -->
<g id="edge67" class="edge">
<title>Node27&#45;&gt;Node21</title>
<path fill="none" stroke="#63b8ff" d="M1091.47,-388.09C1109.3,-371.26 1135.26,-347.92 1160,-330 1206.79,-296.11 1219.44,-287.99 1272,-264 1303.4,-249.67 1340.15,-237.29 1369.3,-228.44"/>
<polygon fill="#63b8ff" stroke="#63b8ff" points="1089.32,-385.31 1084.51,-394.74 1094.16,-390.37 1089.32,-385.31"/>
</g>
<!-- Node27&#45;&gt;Node22 -->
<g id="edge66" class="edge">
<title>Node27&#45;&gt;Node22</title>
<path fill="none" stroke="#63b8ff" d="M1148.93,-399.02C1238.37,-386.74 1381.77,-367.04 1466.34,-355.43"/>
<polygon fill="#63b8ff" stroke="#63b8ff" points="1148.69,-395.52 1139.26,-400.35 1149.64,-402.46 1148.69,-395.52"/>
</g>
<!-- Node28 -->
<g id="node28" class="node">
<title>Node28</title>
<g id="a_node28"><a xlink:href="proxqp_2dense_2model_8hpp.html" target="_top" xlink:title=" ">
<polygon fill="white" stroke="#666666" points="942.5,-360 805.5,-360 805.5,-330 942.5,-330 942.5,-360"/>
<text text-anchor="start" x="813.5" y="-348" font-family="Helvetica,sans-Serif" font-size="10.00">include/proxsuite/proxqp</text>
<text text-anchor="middle" x="874" y="-337" font-family="Helvetica,sans-Serif" font-size="10.00">/dense/model.hpp</text>
</a>
</g>
</g>
<!-- Node27&#45;&gt;Node28 -->
<g id="edge59" class="edge">
<title>Node27&#45;&gt;Node28</title>
<path fill="none" stroke="#63b8ff" d="M1014.36,-392.07C983.91,-382.07 946.49,-369.79 917.95,-360.43"/>
<polygon fill="#63b8ff" stroke="#63b8ff" points="1013.21,-395.37 1023.8,-395.17 1015.39,-388.72 1013.21,-395.37"/>
</g>
<!-- Node29 -->
<g id="node29" class="node">
<title>Node29</title>
<g id="a_node29"><a xlink:href="random__qp__problems_8hpp.html" target="_top" xlink:title=" ">
<polygon fill="white" stroke="#666666" points="1144,-294 974,-294 974,-264 1144,-264 1144,-294"/>
<text text-anchor="start" x="982" y="-282" font-family="Helvetica,sans-Serif" font-size="10.00">include/proxsuite/proxqp</text>
<text text-anchor="middle" x="1059" y="-271" font-family="Helvetica,sans-Serif" font-size="10.00">/utils/random_qp_problems.hpp</text>
</a>
</g>
</g>
<!-- Node27&#45;&gt;Node29 -->
<g id="edge68" class="edge">
<title>Node27&#45;&gt;Node29</title>
<path fill="none" stroke="#63b8ff" d="M1067.03,-384.38C1064.96,-357.49 1061.78,-316.18 1060.11,-294.47"/>
<polygon fill="#63b8ff" stroke="#63b8ff" points="1063.52,-384.38 1067.78,-394.08 1070.5,-383.84 1063.52,-384.38"/>
</g>
<!-- Node28&#45;&gt;Node10 -->
<g id="edge60" class="edge">
<title>Node28&#45;&gt;Node10</title>
<path fill="none" stroke="#63b8ff" d="M823.6,-325.75C751.59,-299.67 620.72,-252.28 554.97,-228.47"/>
<polygon fill="#63b8ff" stroke="#63b8ff" points="822.19,-328.96 832.79,-329.08 824.58,-322.38 822.19,-328.96"/>
</g>
<!-- Node28&#45;&gt;Node11 -->
<g id="edge61" class="edge">
<title>Node28&#45;&gt;Node11</title>
<path fill="none" stroke="#63b8ff" d="M797.99,-327.09C756.53,-317.69 704.35,-305.58 658,-294 571.34,-272.34 471.14,-244.96 411.81,-228.49"/>
<polygon fill="#63b8ff" stroke="#63b8ff" points="797.11,-330.47 807.64,-329.27 798.66,-323.65 797.11,-330.47"/>
</g>
<!-- Node28&#45;&gt;Node29 -->
<g id="edge62" class="edge">
<title>Node28&#45;&gt;Node29</title>
<path fill="none" stroke="#63b8ff" d="M926.22,-325.94C955.04,-315.97 990.34,-303.75 1017.3,-294.43"/>
<polygon fill="#63b8ff" stroke="#63b8ff" points="925.25,-322.57 916.95,-329.14 927.54,-329.18 925.25,-322.57"/>
</g>
<!-- Node30 -->
<g id="node30" class="node">
<title>Node30</title>
<g id="a_node30"><a xlink:href="serialization_2model_8hpp.html" target="_top" xlink:title=" ">
<polygon fill="white" stroke="#666666" points="956,-294 792,-294 792,-264 956,-264 956,-294"/>
<text text-anchor="start" x="800" y="-282" font-family="Helvetica,sans-Serif" font-size="10.00">include/proxsuite/serialization</text>
<text text-anchor="middle" x="874" y="-271" font-family="Helvetica,sans-Serif" font-size="10.00">/model.hpp</text>
</a>
</g>
</g>
<!-- Node28&#45;&gt;Node30 -->
<g id="edge63" class="edge">
<title>Node28&#45;&gt;Node30</title>
<path fill="none" stroke="#63b8ff" d="M874,-318.39C874,-310.13 874,-301.28 874,-294.16"/>
<polygon fill="#63b8ff" stroke="#63b8ff" points="870.5,-318.28 874,-328.28 877.5,-318.28 870.5,-318.28"/>
</g>
<!-- Node31&#45;&gt;Node5 -->
<g id="edge74" class="edge">
<title>Node31&#45;&gt;Node5</title>
<path fill="none" stroke="#63b8ff" d="M612,-516.38C612,-490.16 612,-448.24 612,-412 612,-412 612,-412 612,-278 612,-241.46 619.58,-223.08 593,-198 562.99,-169.67 453.33,-157.06 379.93,-151.69"/>
<polygon fill="#63b8ff" stroke="#63b8ff" points="608.5,-516.06 612,-526.06 615.5,-516.06 608.5,-516.06"/>
</g>
</g>
</svg>
