<?xml version="1.0" encoding="UTF-8" standalone="no"?>
<!DOCTYPE svg PUBLIC "-//W3C//DTD SVG 1.1//EN"
 "http://www.w3.org/Graphics/SVG/1.1/DTD/svg11.dtd">
<!-- Generated by graphviz version 6.0.2 (20221126.1951)
 -->
<!-- Title: include/proxsuite/linalg/veg/memory/dynamic_stack.hpp Pages: 1 -->
<svg width="1649pt" height="632pt"
 viewBox="0.00 0.00 1649.00 632.00" xmlns="http://www.w3.org/2000/svg" xmlns:xlink="http://www.w3.org/1999/xlink">
<g id="graph0" class="graph" transform="scale(1 1) rotate(0) translate(4 628)">
<title>include/proxsuite/linalg/veg/memory/dynamic_stack.hpp</title>
<!-- Node1 -->
<g id="node1" class="node">
<title>Node1</title>
<g id="a_node1"><a xlink:title=" ">
<polygon fill="#999999" stroke="#666666" points="512.5,-624 333.5,-624 333.5,-594 512.5,-594 512.5,-624"/>
<text text-anchor="start" x="341.5" y="-612" font-family="Helvetica,sans-Serif" font-size="10.00">include/proxsuite/linalg</text>
<text text-anchor="middle" x="423" y="-601" font-family="Helvetica,sans-Serif" font-size="10.00">/veg/memory/dynamic_stack.hpp</text>
</a>
</g>
</g>
<!-- Node2 -->
<g id="node2" class="node">
<title>Node2</title>
<g id="a_node2"><a xlink:href="dense_2core_8hpp.html" target="_top" xlink:title=" ">
<polygon fill="white" stroke="#666666" points="488.5,-558 357.5,-558 357.5,-528 488.5,-528 488.5,-558"/>
<text text-anchor="start" x="365.5" y="-546" font-family="Helvetica,sans-Serif" font-size="10.00">include/proxsuite/linalg</text>
<text text-anchor="middle" x="423" y="-535" font-family="Helvetica,sans-Serif" font-size="10.00">/dense/core.hpp</text>
</a>
</g>
</g>
<!-- Node1&#45;&gt;Node2 -->
<g id="edge1" class="edge">
<title>Node1&#45;&gt;Node2</title>
<path fill="none" stroke="#63b8ff" d="M423,-583.54C423,-574.96 423,-565.61 423,-558.16"/>
<polygon fill="#63b8ff" stroke="#63b8ff" points="419.5,-583.8 423,-593.8 426.5,-583.8 419.5,-583.8"/>
</g>
<!-- Node3 -->
<g id="node3" class="node">
<title>Node3</title>
<g id="a_node3"><a xlink:href="dense_2factorize_8hpp.html" target="_top" xlink:title=" ">
<polygon fill="white" stroke="#666666" points="217.5,-492 86.5,-492 86.5,-462 217.5,-462 217.5,-492"/>
<text text-anchor="start" x="94.5" y="-480" font-family="Helvetica,sans-Serif" font-size="10.00">include/proxsuite/linalg</text>
<text text-anchor="middle" x="152" y="-469" font-family="Helvetica,sans-Serif" font-size="10.00">/dense/factorize.hpp</text>
</a>
</g>
</g>
<!-- Node1&#45;&gt;Node3 -->
<g id="edge38" class="edge">
<title>Node1&#45;&gt;Node3</title>
<path fill="none" stroke="#63b8ff" d="M384.72,-589.64C330.09,-563.43 230.91,-515.85 181.55,-492.17"/>
<polygon fill="#63b8ff" stroke="#63b8ff" points="383.21,-592.79 393.74,-593.96 386.24,-586.48 383.21,-592.79"/>
</g>
<!-- Node11 -->
<g id="node11" class="node">
<title>Node11</title>
<g id="a_node11"><a xlink:href="modify_8hpp.html" target="_top" xlink:title=" ">
<polygon fill="white" stroke="#666666" points="311.5,-426 180.5,-426 180.5,-396 311.5,-396 311.5,-426"/>
<text text-anchor="start" x="188.5" y="-414" font-family="Helvetica,sans-Serif" font-size="10.00">include/proxsuite/linalg</text>
<text text-anchor="middle" x="246" y="-403" font-family="Helvetica,sans-Serif" font-size="10.00">/dense/modify.hpp</text>
</a>
</g>
</g>
<!-- Node1&#45;&gt;Node11 -->
<g id="edge39" class="edge">
<title>Node1&#45;&gt;Node11</title>
<path fill="none" stroke="#63b8ff" d="M323.17,-604.9C241.84,-596.42 131.83,-570.06 77,-492 47.05,-449.37 121.09,-428.74 180.49,-419.29"/>
<polygon fill="#63b8ff" stroke="#63b8ff" points="323.15,-608.41 333.44,-605.89 323.82,-601.45 323.15,-608.41"/>
</g>
<!-- Node22 -->
<g id="node22" class="node">
<title>Node22</title>
<g id="a_node22"><a xlink:href="sparse_2core_8hpp.html" target="_top" xlink:title=" ">
<polygon fill="white" stroke="#666666" points="1235.5,-558 1104.5,-558 1104.5,-528 1235.5,-528 1235.5,-558"/>
<text text-anchor="start" x="1112.5" y="-546" font-family="Helvetica,sans-Serif" font-size="10.00">include/proxsuite/linalg</text>
<text text-anchor="middle" x="1170" y="-535" font-family="Helvetica,sans-Serif" font-size="10.00">/sparse/core.hpp</text>
</a>
</g>
</g>
<!-- Node1&#45;&gt;Node22 -->
<g id="edge40" class="edge">
<title>Node1&#45;&gt;Node22</title>
<path fill="none" stroke="#63b8ff" d="M522.76,-599.45C678.03,-586.15 973.29,-560.85 1104.42,-549.62"/>
<polygon fill="#63b8ff" stroke="#63b8ff" points="522.4,-595.97 512.73,-600.31 523,-602.95 522.4,-595.97"/>
</g>
<!-- Node29 -->
<g id="node29" class="node">
<title>Node29</title>
<g id="a_node29"><a xlink:href="dynstack__alloc_8hpp.html" target="_top" xlink:title=" ">
<polygon fill="white" stroke="#666666" points="659.5,-558 506.5,-558 506.5,-528 659.5,-528 659.5,-558"/>
<text text-anchor="start" x="514.5" y="-546" font-family="Helvetica,sans-Serif" font-size="10.00">include/proxsuite/linalg</text>
<text text-anchor="middle" x="583" y="-535" font-family="Helvetica,sans-Serif" font-size="10.00">/veg/util/dynstack_alloc.hpp</text>
</a>
</g>
</g>
<!-- Node1&#45;&gt;Node29 -->
<g id="edge70" class="edge">
<title>Node1&#45;&gt;Node29</title>
<path fill="none" stroke="#63b8ff" d="M467.53,-590.19C492.94,-580.02 524.33,-567.47 547.97,-558.01"/>
<polygon fill="#63b8ff" stroke="#63b8ff" points="466.1,-586.99 458.11,-593.95 468.7,-593.49 466.1,-586.99"/>
</g>
<!-- Node2&#45;&gt;Node3 -->
<g id="edge2" class="edge">
<title>Node2&#45;&gt;Node3</title>
<path fill="none" stroke="#63b8ff" d="M353.76,-525.65C309.73,-515.25 253.31,-501.93 211.33,-492.01"/>
<polygon fill="#63b8ff" stroke="#63b8ff" points="352.99,-529.06 363.53,-527.95 354.6,-522.25 352.99,-529.06"/>
</g>
<!-- Node2&#45;&gt;Node11 -->
<g id="edge14" class="edge">
<title>Node2&#45;&gt;Node11</title>
<path fill="none" stroke="#63b8ff" d="M347.42,-534.15C317.99,-527.38 286.29,-514.91 265,-492 248.19,-473.91 245.42,-443.73 245.4,-426.07"/>
<polygon fill="#63b8ff" stroke="#63b8ff" points="346.79,-537.59 357.3,-536.23 348.23,-530.74 346.79,-537.59"/>
</g>
<!-- Node12 -->
<g id="node12" class="node">
<title>Node12</title>
<g id="a_node12"><a xlink:href="solve_8hpp.html" target="_top" xlink:title=" ">
<polygon fill="white" stroke="#666666" points="554.5,-492 423.5,-492 423.5,-462 554.5,-462 554.5,-492"/>
<text text-anchor="start" x="431.5" y="-480" font-family="Helvetica,sans-Serif" font-size="10.00">include/proxsuite/linalg</text>
<text text-anchor="middle" x="489" y="-469" font-family="Helvetica,sans-Serif" font-size="10.00">/dense/solve.hpp</text>
</a>
</g>
</g>
<!-- Node2&#45;&gt;Node12 -->
<g id="edge15" class="edge">
<title>Node2&#45;&gt;Node12</title>
<path fill="none" stroke="#63b8ff" d="M445.02,-520.65C454.69,-511.27 465.77,-500.53 474.39,-492.16"/>
<polygon fill="#63b8ff" stroke="#63b8ff" points="442.39,-518.32 437.65,-527.8 447.26,-523.35 442.39,-518.32"/>
</g>
<!-- Node13 -->
<g id="node13" class="node">
<title>Node13</title>
<g id="a_node13"><a xlink:href="dense_2update_8hpp.html" target="_top" xlink:title=" ">
<polygon fill="white" stroke="#666666" points="405.5,-492 274.5,-492 274.5,-462 405.5,-462 405.5,-492"/>
<text text-anchor="start" x="282.5" y="-480" font-family="Helvetica,sans-Serif" font-size="10.00">include/proxsuite/linalg</text>
<text text-anchor="middle" x="340" y="-469" font-family="Helvetica,sans-Serif" font-size="10.00">/dense/update.hpp</text>
</a>
</g>
</g>
<!-- Node2&#45;&gt;Node13 -->
<g id="edge17" class="edge">
<title>Node2&#45;&gt;Node13</title>
<path fill="none" stroke="#63b8ff" d="M396.39,-521.48C383.98,-511.91 369.53,-500.77 358.37,-492.16"/>
<polygon fill="#63b8ff" stroke="#63b8ff" points="394.52,-524.46 404.58,-527.8 398.8,-518.92 394.52,-524.46"/>
</g>
<!-- Node14 -->
<g id="node14" class="node">
<title>Node14</title>
<g id="a_node14"><a xlink:href="dense_2preconditioner_2ruiz_8hpp.html" target="_top" xlink:title=" ">
<polygon fill="white" stroke="#666666" points="164,-294 0,-294 0,-264 164,-264 164,-294"/>
<text text-anchor="start" x="8" y="-282" font-family="Helvetica,sans-Serif" font-size="10.00">include/proxsuite/proxqp</text>
<text text-anchor="middle" x="82" y="-271" font-family="Helvetica,sans-Serif" font-size="10.00">/dense/preconditioner/ruiz.hpp</text>
</a>
</g>
</g>
<!-- Node2&#45;&gt;Node14 -->
<g id="edge20" class="edge">
<title>Node2&#45;&gt;Node14</title>
<path fill="none" stroke="#63b8ff" d="M347.19,-542.14C256.1,-540.5 111.23,-531.53 77,-492 27.24,-434.53 61.01,-331.83 75.93,-294.27"/>
<polygon fill="#63b8ff" stroke="#63b8ff" points="347.14,-545.64 357.2,-542.29 347.25,-538.64 347.14,-545.64"/>
</g>
<!-- Node16 -->
<g id="node16" class="node">
<title>Node16</title>
<g id="a_node16"><a xlink:href="sparse_2solver_8hpp.html" target="_top" xlink:title=" ">
<polygon fill="white" stroke="#666666" points="1240.5,-162 1103.5,-162 1103.5,-132 1240.5,-132 1240.5,-162"/>
<text text-anchor="start" x="1111.5" y="-150" font-family="Helvetica,sans-Serif" font-size="10.00">include/proxsuite/proxqp</text>
<text text-anchor="middle" x="1172" y="-139" font-family="Helvetica,sans-Serif" font-size="10.00">/sparse/solver.hpp</text>
</a>
</g>
</g>
<!-- Node2&#45;&gt;Node16 -->
<g id="edge26" class="edge">
<title>Node2&#45;&gt;Node16</title>
<path fill="none" stroke="#63b8ff" d="M497.45,-525.09C553.6,-507.42 621,-473.42 621,-412 621,-412 621,-412 621,-278 621,-179.96 955.62,-155.77 1103.33,-149.88"/>
<polygon fill="#63b8ff" stroke="#63b8ff" points="496.39,-521.76 487.83,-528 498.42,-528.46 496.39,-521.76"/>
</g>
<!-- Node19 -->
<g id="node19" class="node">
<title>Node19</title>
<g id="a_node19"><a xlink:href="sparse_2utils_8hpp.html" target="_top" xlink:title=" ">
<polygon fill="white" stroke="#666666" points="1299.5,-294 1162.5,-294 1162.5,-264 1299.5,-264 1299.5,-294"/>
<text text-anchor="start" x="1170.5" y="-282" font-family="Helvetica,sans-Serif" font-size="10.00">include/proxsuite/proxqp</text>
<text text-anchor="middle" x="1231" y="-271" font-family="Helvetica,sans-Serif" font-size="10.00">/sparse/utils.hpp</text>
</a>
</g>
</g>
<!-- Node2&#45;&gt;Node19 -->
<g id="edge29" class="edge">
<title>Node2&#45;&gt;Node19</title>
<path fill="none" stroke="#63b8ff" d="M498.82,-527.97C641.78,-507.51 681.92,-522.07 819,-492 910.02,-472.03 949.98,-489.69 1018,-426 1051.62,-394.52 1022.76,-360.79 1057,-330 1085.75,-304.15 1127.04,-291.6 1162.18,-285.53"/>
<polygon fill="#63b8ff" stroke="#63b8ff" points="498.19,-524.52 488.8,-529.44 499.21,-531.45 498.19,-524.52"/>
</g>
<!-- Node20 -->
<g id="node20" class="node">
<title>Node20</title>
<g id="a_node20"><a xlink:href="sparse_2workspace_8hpp.html" target="_top" xlink:title=" ">
<polygon fill="white" stroke="#666666" points="1337.5,-228 1200.5,-228 1200.5,-198 1337.5,-198 1337.5,-228"/>
<text text-anchor="start" x="1208.5" y="-216" font-family="Helvetica,sans-Serif" font-size="10.00">include/proxsuite/proxqp</text>
<text text-anchor="middle" x="1269" y="-205" font-family="Helvetica,sans-Serif" font-size="10.00">/sparse/workspace.hpp</text>
</a>
</g>
</g>
<!-- Node2&#45;&gt;Node20 -->
<g id="edge37" class="edge">
<title>Node2&#45;&gt;Node20</title>
<path fill="none" stroke="#63b8ff" d="M498.58,-526.66C548.99,-515.95 610.36,-501.87 635,-492 821.04,-417.5 836.86,-335.67 1024,-264 1081.47,-241.99 1150.41,-229.03 1200.5,-221.84"/>
<polygon fill="#63b8ff" stroke="#63b8ff" points="497.72,-523.26 488.66,-528.75 499.17,-530.11 497.72,-523.26"/>
</g>
<!-- Node21 -->
<g id="node21" class="node">
<title>Node21</title>
<g id="a_node21"><a xlink:href="sparse_2views_8hpp.html" target="_top" xlink:title=" ">
<polygon fill="white" stroke="#666666" points="1202.5,-360 1065.5,-360 1065.5,-330 1202.5,-330 1202.5,-360"/>
<text text-anchor="start" x="1073.5" y="-348" font-family="Helvetica,sans-Serif" font-size="10.00">include/proxsuite/proxqp</text>
<text text-anchor="middle" x="1134" y="-337" font-family="Helvetica,sans-Serif" font-size="10.00">/sparse/views.hpp</text>
</a>
</g>
</g>
<!-- Node2&#45;&gt;Node21 -->
<g id="edge33" class="edge">
<title>Node2&#45;&gt;Node21</title>
<path fill="none" stroke="#63b8ff" d="M498.95,-528.25C593.69,-520.63 1000.9,-523.37 1051,-492 1099.93,-461.36 1122.82,-390.78 1130.68,-360.37"/>
<polygon fill="#63b8ff" stroke="#63b8ff" points="498.39,-524.79 488.78,-529.26 499.08,-531.75 498.39,-524.79"/>
</g>
<!-- Node4 -->
<g id="node4" class="node">
<title>Node4</title>
<g id="a_node4"><a xlink:href="ldlt_8hpp.html" target="_top" xlink:title=" ">
<polygon fill="white" stroke="#666666" points="355.5,-360 224.5,-360 224.5,-330 355.5,-330 355.5,-360"/>
<text text-anchor="start" x="232.5" y="-348" font-family="Helvetica,sans-Serif" font-size="10.00">include/proxsuite/linalg</text>
<text text-anchor="middle" x="290" y="-337" font-family="Helvetica,sans-Serif" font-size="10.00">/dense/ldlt.hpp</text>
</a>
</g>
</g>
<!-- Node3&#45;&gt;Node4 -->
<g id="edge3" class="edge">
<title>Node3&#45;&gt;Node4</title>
<path fill="none" stroke="#63b8ff" d="M152.18,-451.4C153.54,-434.09 157.98,-411.36 171,-396 185.49,-378.91 206.82,-367.54 227.43,-360.03"/>
<polygon fill="#63b8ff" stroke="#63b8ff" points="148.66,-451.7 151.67,-461.86 155.65,-452.04 148.66,-451.7"/>
</g>
<!-- Node3&#45;&gt;Node11 -->
<g id="edge12" class="edge">
<title>Node3&#45;&gt;Node11</title>
<path fill="none" stroke="#63b8ff" d="M181.33,-456.03C195.56,-446.34 212.31,-434.94 225.2,-426.16"/>
<polygon fill="#63b8ff" stroke="#63b8ff" points="179.16,-453.28 172.86,-461.8 183.1,-459.06 179.16,-453.28"/>
</g>
<!-- Node5 -->
<g id="node5" class="node">
<title>Node5</title>
<g id="a_node5"><a xlink:href="dense_2solver_8hpp.html" target="_top" xlink:title=" ">
<polygon fill="white" stroke="#666666" points="350.5,-162 213.5,-162 213.5,-132 350.5,-132 350.5,-162"/>
<text text-anchor="start" x="221.5" y="-150" font-family="Helvetica,sans-Serif" font-size="10.00">include/proxsuite/proxqp</text>
<text text-anchor="middle" x="282" y="-139" font-family="Helvetica,sans-Serif" font-size="10.00">/dense/solver.hpp</text>
</a>
</g>
</g>
<!-- Node4&#45;&gt;Node5 -->
<g id="edge4" class="edge">
<title>Node4&#45;&gt;Node5</title>
<path fill="none" stroke="#63b8ff" d="M276.79,-320.99C261.94,-292.17 241.34,-241.33 253,-198 256.49,-185.01 264.28,-171.92 270.9,-162.4"/>
<polygon fill="#63b8ff" stroke="#63b8ff" points="273.74,-322.71 281.55,-329.87 279.91,-319.4 273.74,-322.71"/>
</g>
<!-- Node8 -->
<g id="node8" class="node">
<title>Node8</title>
<g id="a_node8"><a xlink:href="dense_2workspace_8hpp.html" target="_top" xlink:title=" ">
<polygon fill="white" stroke="#666666" points="457.5,-294 320.5,-294 320.5,-264 457.5,-264 457.5,-294"/>
<text text-anchor="start" x="328.5" y="-282" font-family="Helvetica,sans-Serif" font-size="10.00">include/proxsuite/proxqp</text>
<text text-anchor="middle" x="389" y="-271" font-family="Helvetica,sans-Serif" font-size="10.00">/dense/workspace.hpp</text>
</a>
</g>
</g>
<!-- Node4&#45;&gt;Node8 -->
<g id="edge7" class="edge">
<title>Node4&#45;&gt;Node8</title>
<path fill="none" stroke="#63b8ff" d="M320.47,-324.3C335.54,-314.56 353.39,-303.02 367.09,-294.16"/>
<polygon fill="#63b8ff" stroke="#63b8ff" points="318.47,-321.43 311.97,-329.8 322.27,-327.31 318.47,-321.43"/>
</g>
<!-- Node6 -->
<g id="node6" class="node">
<title>Node6</title>
<g id="a_node6"><a xlink:href="dense_2wrapper_8hpp.html" target="_top" xlink:title=" ">
<polygon fill="white" stroke="#666666" points="205.5,-96 68.5,-96 68.5,-66 205.5,-66 205.5,-96"/>
<text text-anchor="start" x="76.5" y="-84" font-family="Helvetica,sans-Serif" font-size="10.00">include/proxsuite/proxqp</text>
<text text-anchor="middle" x="137" y="-73" font-family="Helvetica,sans-Serif" font-size="10.00">/dense/wrapper.hpp</text>
</a>
</g>
</g>
<!-- Node5&#45;&gt;Node6 -->
<g id="edge5" class="edge">
<title>Node5&#45;&gt;Node6</title>
<path fill="none" stroke="#63b8ff" d="M240.73,-127.78C217.87,-117.69 189.88,-105.34 168.75,-96.01"/>
<polygon fill="#63b8ff" stroke="#63b8ff" points="239.62,-131.12 250.18,-131.95 242.44,-124.71 239.62,-131.12"/>
</g>
<!-- Node7 -->
<g id="node7" class="node">
<title>Node7</title>
<g id="a_node7"><a xlink:href="dense_8hpp.html" target="_top" xlink:title=" ">
<polygon fill="white" stroke="#666666" points="205.5,-30 68.5,-30 68.5,0 205.5,0 205.5,-30"/>
<text text-anchor="start" x="76.5" y="-18" font-family="Helvetica,sans-Serif" font-size="10.00">include/proxsuite/proxqp</text>
<text text-anchor="middle" x="137" y="-7" font-family="Helvetica,sans-Serif" font-size="10.00">/dense/dense.hpp</text>
</a>
</g>
</g>
<!-- Node6&#45;&gt;Node7 -->
<g id="edge6" class="edge">
<title>Node6&#45;&gt;Node7</title>
<path fill="none" stroke="#63b8ff" d="M137,-55.54C137,-46.96 137,-37.61 137,-30.16"/>
<polygon fill="#63b8ff" stroke="#63b8ff" points="133.5,-55.8 137,-65.8 140.5,-55.8 133.5,-55.8"/>
</g>
<!-- Node9 -->
<g id="node9" class="node">
<title>Node9</title>
<g id="a_node9"><a xlink:href="linesearch_8hpp.html" target="_top" xlink:title=" ">
<polygon fill="white" stroke="#666666" points="554.5,-228 417.5,-228 417.5,-198 554.5,-198 554.5,-228"/>
<text text-anchor="start" x="425.5" y="-216" font-family="Helvetica,sans-Serif" font-size="10.00">include/proxsuite/proxqp</text>
<text text-anchor="middle" x="486" y="-205" font-family="Helvetica,sans-Serif" font-size="10.00">/dense/linesearch.hpp</text>
</a>
</g>
</g>
<!-- Node8&#45;&gt;Node9 -->
<g id="edge8" class="edge">
<title>Node8&#45;&gt;Node9</title>
<path fill="none" stroke="#63b8ff" d="M419.27,-258.03C433.95,-248.34 451.23,-236.94 464.53,-228.16"/>
<polygon fill="#63b8ff" stroke="#63b8ff" points="416.95,-255.37 410.53,-263.8 420.8,-261.21 416.95,-255.37"/>
</g>
<!-- Node10 -->
<g id="node10" class="node">
<title>Node10</title>
<g id="a_node10"><a xlink:href="dense_2utils_8hpp.html" target="_top" xlink:title=" ">
<polygon fill="white" stroke="#666666" points="399.5,-228 262.5,-228 262.5,-198 399.5,-198 399.5,-228"/>
<text text-anchor="start" x="270.5" y="-216" font-family="Helvetica,sans-Serif" font-size="10.00">include/proxsuite/proxqp</text>
<text text-anchor="middle" x="331" y="-205" font-family="Helvetica,sans-Serif" font-size="10.00">/dense/utils.hpp</text>
</a>
</g>
</g>
<!-- Node8&#45;&gt;Node10 -->
<g id="edge10" class="edge">
<title>Node8&#45;&gt;Node10</title>
<path fill="none" stroke="#63b8ff" d="M369.4,-256.37C360.96,-247.06 351.34,-236.44 343.84,-228.16"/>
<polygon fill="#63b8ff" stroke="#63b8ff" points="366.82,-258.74 376.13,-263.8 372.01,-254.04 366.82,-258.74"/>
</g>
<!-- Node9&#45;&gt;Node5 -->
<g id="edge9" class="edge">
<title>Node9&#45;&gt;Node5</title>
<path fill="none" stroke="#63b8ff" d="M431.35,-194.86C398.6,-184.58 357.47,-171.68 326.66,-162.01"/>
<polygon fill="#63b8ff" stroke="#63b8ff" points="430.64,-198.3 441.23,-197.95 432.74,-191.62 430.64,-198.3"/>
</g>
<!-- Node10&#45;&gt;Node5 -->
<g id="edge11" class="edge">
<title>Node10&#45;&gt;Node5</title>
<path fill="none" stroke="#63b8ff" d="M314.01,-189.81C306.99,-180.64 299.06,-170.28 292.84,-162.16"/>
<polygon fill="#63b8ff" stroke="#63b8ff" points="311.27,-191.98 320.13,-197.8 316.83,-187.73 311.27,-191.98"/>
</g>
<!-- Node11&#45;&gt;Node4 -->
<g id="edge13" class="edge">
<title>Node11&#45;&gt;Node4</title>
<path fill="none" stroke="#63b8ff" d="M261.45,-387.53C267.71,-378.43 274.74,-368.19 280.26,-360.16"/>
<polygon fill="#63b8ff" stroke="#63b8ff" points="258.55,-385.57 255.77,-395.8 264.31,-389.54 258.55,-385.57"/>
</g>
<!-- Node12&#45;&gt;Node4 -->
<g id="edge16" class="edge">
<title>Node12&#45;&gt;Node4</title>
<path fill="none" stroke="#63b8ff" d="M458.93,-456.35C418.42,-429.89 347.29,-383.43 311.65,-360.14"/>
<polygon fill="#63b8ff" stroke="#63b8ff" points="457.04,-459.3 467.32,-461.84 460.87,-453.44 457.04,-459.3"/>
</g>
<!-- Node13&#45;&gt;Node4 -->
<g id="edge18" class="edge">
<title>Node13&#45;&gt;Node4</title>
<path fill="none" stroke="#63b8ff" d="M335.83,-451.49C332.61,-435.34 327.43,-413.95 320,-396 314.73,-383.28 306.59,-369.96 300.12,-360.27"/>
<polygon fill="#63b8ff" stroke="#63b8ff" points="332.46,-452.54 337.75,-461.72 339.34,-451.25 332.46,-452.54"/>
</g>
<!-- Node13&#45;&gt;Node11 -->
<g id="edge19" class="edge">
<title>Node13&#45;&gt;Node11</title>
<path fill="none" stroke="#63b8ff" d="M310.67,-456.03C296.44,-446.34 279.69,-434.94 266.8,-426.16"/>
<polygon fill="#63b8ff" stroke="#63b8ff" points="308.9,-459.06 319.14,-461.8 312.84,-453.28 308.9,-459.06"/>
</g>
<!-- Node14&#45;&gt;Node6 -->
<g id="edge25" class="edge">
<title>Node14&#45;&gt;Node6</title>
<path fill="none" stroke="#63b8ff" d="M68.05,-254.65C60.27,-238.67 53.21,-217 59,-198 71.6,-156.68 104.39,-116.74 123.2,-96.24"/>
<polygon fill="#63b8ff" stroke="#63b8ff" points="65.11,-256.59 72.88,-263.8 71.3,-253.32 65.11,-256.59"/>
</g>
<!-- Node14&#45;&gt;Node10 -->
<g id="edge24" class="edge">
<title>Node14&#45;&gt;Node10</title>
<path fill="none" stroke="#63b8ff" d="M146.38,-261.45C186.73,-251.08 238.16,-237.86 276.48,-228.01"/>
<polygon fill="#63b8ff" stroke="#63b8ff" points="145.46,-258.08 136.64,-263.95 147.2,-264.86 145.46,-258.08"/>
</g>
<!-- Node15 -->
<g id="node15" class="node">
<title>Node15</title>
<g id="a_node15"><a xlink:href="dense_2helpers_8hpp.html" target="_top" xlink:title=" ">
<polygon fill="white" stroke="#666666" points="205.5,-228 68.5,-228 68.5,-198 205.5,-198 205.5,-228"/>
<text text-anchor="start" x="76.5" y="-216" font-family="Helvetica,sans-Serif" font-size="10.00">include/proxsuite/proxqp</text>
<text text-anchor="middle" x="137" y="-205" font-family="Helvetica,sans-Serif" font-size="10.00">/dense/helpers.hpp</text>
</a>
</g>
</g>
<!-- Node14&#45;&gt;Node15 -->
<g id="edge21" class="edge">
<title>Node14&#45;&gt;Node15</title>
<path fill="none" stroke="#63b8ff" d="M100.83,-256.09C108.77,-246.85 117.78,-236.36 124.83,-228.16"/>
<polygon fill="#63b8ff" stroke="#63b8ff" points="98.07,-253.93 94.21,-263.8 103.38,-258.49 98.07,-253.93"/>
</g>
<!-- Node15&#45;&gt;Node5 -->
<g id="edge22" class="edge">
<title>Node15&#45;&gt;Node5</title>
<path fill="none" stroke="#63b8ff" d="M178.27,-193.78C201.13,-183.69 229.12,-171.34 250.25,-162.01"/>
<polygon fill="#63b8ff" stroke="#63b8ff" points="176.56,-190.71 168.82,-197.95 179.38,-197.12 176.56,-190.71"/>
</g>
<!-- Node15&#45;&gt;Node6 -->
<g id="edge23" class="edge">
<title>Node15&#45;&gt;Node6</title>
<path fill="none" stroke="#63b8ff" d="M137,-187.68C137,-160.7 137,-118.11 137,-96.14"/>
<polygon fill="#63b8ff" stroke="#63b8ff" points="133.5,-187.84 137,-197.84 140.5,-187.84 133.5,-187.84"/>
</g>
<!-- Node17 -->
<g id="node17" class="node">
<title>Node17</title>
<g id="a_node17"><a xlink:href="sparse_2wrapper_8hpp.html" target="_top" xlink:title=" ">
<polygon fill="white" stroke="#666666" points="1240.5,-96 1103.5,-96 1103.5,-66 1240.5,-66 1240.5,-96"/>
<text text-anchor="start" x="1111.5" y="-84" font-family="Helvetica,sans-Serif" font-size="10.00">include/proxsuite/proxqp</text>
<text text-anchor="middle" x="1172" y="-73" font-family="Helvetica,sans-Serif" font-size="10.00">/sparse/wrapper.hpp</text>
</a>
</g>
</g>
<!-- Node16&#45;&gt;Node17 -->
<g id="edge27" class="edge">
<title>Node16&#45;&gt;Node17</title>
<path fill="none" stroke="#63b8ff" d="M1172,-121.54C1172,-112.96 1172,-103.61 1172,-96.16"/>
<polygon fill="#63b8ff" stroke="#63b8ff" points="1168.5,-121.8 1172,-131.8 1175.5,-121.8 1168.5,-121.8"/>
</g>
<!-- Node18 -->
<g id="node18" class="node">
<title>Node18</title>
<g id="a_node18"><a xlink:href="sparse_8hpp.html" target="_top" xlink:title=" ">
<polygon fill="white" stroke="#666666" points="1240.5,-30 1103.5,-30 1103.5,0 1240.5,0 1240.5,-30"/>
<text text-anchor="start" x="1111.5" y="-18" font-family="Helvetica,sans-Serif" font-size="10.00">include/proxsuite/proxqp</text>
<text text-anchor="middle" x="1172" y="-7" font-family="Helvetica,sans-Serif" font-size="10.00">/sparse/sparse.hpp</text>
</a>
</g>
</g>
<!-- Node17&#45;&gt;Node18 -->
<g id="edge28" class="edge">
<title>Node17&#45;&gt;Node18</title>
<path fill="none" stroke="#63b8ff" d="M1172,-55.54C1172,-46.96 1172,-37.61 1172,-30.16"/>
<polygon fill="#63b8ff" stroke="#63b8ff" points="1168.5,-55.8 1172,-65.8 1175.5,-55.8 1168.5,-55.8"/>
</g>
<!-- Node19&#45;&gt;Node16 -->
<g id="edge30" class="edge">
<title>Node19&#45;&gt;Node16</title>
<path fill="none" stroke="#63b8ff" d="M1210.68,-256.07C1203.9,-247.79 1196.85,-237.94 1192,-228 1181.46,-206.38 1176.14,-178.68 1173.73,-162.2"/>
<polygon fill="#63b8ff" stroke="#63b8ff" points="1208.12,-258.46 1217.28,-263.79 1213.44,-253.92 1208.12,-258.46"/>
</g>
<!-- Node19&#45;&gt;Node20 -->
<g id="edge31" class="edge">
<title>Node19&#45;&gt;Node20</title>
<path fill="none" stroke="#63b8ff" d="M1244.68,-254.96C1250,-246 1255.92,-236.03 1260.59,-228.16"/>
<polygon fill="#63b8ff" stroke="#63b8ff" points="1241.53,-253.41 1239.43,-263.8 1247.55,-256.98 1241.53,-253.41"/>
</g>
<!-- Node20&#45;&gt;Node16 -->
<g id="edge32" class="edge">
<title>Node20&#45;&gt;Node16</title>
<path fill="none" stroke="#63b8ff" d="M1238.73,-192.03C1224.05,-182.34 1206.77,-170.94 1193.47,-162.16"/>
<polygon fill="#63b8ff" stroke="#63b8ff" points="1237.2,-195.21 1247.47,-197.8 1241.05,-189.37 1237.2,-195.21"/>
</g>
<!-- Node21&#45;&gt;Node16 -->
<g id="edge34" class="edge">
<title>Node21&#45;&gt;Node16</title>
<path fill="none" stroke="#63b8ff" d="M1132.45,-319.64C1131.89,-303.71 1132,-282.49 1135,-264 1141.12,-226.23 1157.08,-183.88 1165.91,-162.31"/>
<polygon fill="#63b8ff" stroke="#63b8ff" points="1128.96,-319.9 1132.92,-329.73 1135.95,-319.58 1128.96,-319.9"/>
</g>
<!-- Node21&#45;&gt;Node19 -->
<g id="edge35" class="edge">
<title>Node21&#45;&gt;Node19</title>
<path fill="none" stroke="#63b8ff" d="M1164.27,-324.03C1178.95,-314.34 1196.23,-302.94 1209.53,-294.16"/>
<polygon fill="#63b8ff" stroke="#63b8ff" points="1161.95,-321.37 1155.53,-329.8 1165.8,-327.21 1161.95,-321.37"/>
</g>
<!-- Node21&#45;&gt;Node20 -->
<g id="edge36" class="edge">
<title>Node21&#45;&gt;Node20</title>
<path fill="none" stroke="#63b8ff" d="M1134.58,-319.43C1136.2,-302.14 1140.94,-279.41 1154,-264 1168.42,-246.97 1189.73,-235.57 1210.1,-228.01"/>
<polygon fill="#63b8ff" stroke="#63b8ff" points="1131.06,-319.68 1133.91,-329.88 1138.04,-320.13 1131.06,-319.68"/>
</g>
<!-- Node22&#45;&gt;Node16 -->
<g id="edge66" class="edge">
<title>Node22&#45;&gt;Node16</title>
<path fill="none" stroke="#63b8ff" d="M1094.13,-537.05C1021.02,-527.76 914.18,-501.26 863,-426 779.71,-303.53 1028.61,-198.74 1130.56,-162"/>
<polygon fill="#63b8ff" stroke="#63b8ff" points="1093.87,-540.55 1104.21,-538.25 1094.7,-533.6 1093.87,-540.55"/>
</g>
<!-- Node22&#45;&gt;Node19 -->
<g id="edge67" class="edge">
<title>Node22&#45;&gt;Node19</title>
<path fill="none" stroke="#63b8ff" d="M1175.6,-517.96C1188.06,-464.43 1217.77,-336.81 1227.7,-294.16"/>
<polygon fill="#63b8ff" stroke="#63b8ff" points="1172.14,-517.38 1173.28,-527.91 1178.96,-518.97 1172.14,-517.38"/>
</g>
<!-- Node22&#45;&gt;Node20 -->
<g id="edge69" class="edge">
<title>Node22&#45;&gt;Node20</title>
<path fill="none" stroke="#63b8ff" d="M1246.14,-536.74C1379.42,-525.43 1641,-492.92 1641,-412 1641,-412 1641,-412 1641,-344 1641,-280.46 1445.15,-240.69 1337.66,-223.64"/>
<polygon fill="#63b8ff" stroke="#63b8ff" points="1245.66,-533.27 1235.99,-537.58 1246.24,-540.25 1245.66,-533.27"/>
</g>
<!-- Node22&#45;&gt;Node21 -->
<g id="edge68" class="edge">
<title>Node22&#45;&gt;Node21</title>
<path fill="none" stroke="#63b8ff" d="M1165.57,-517.89C1157.98,-476.58 1142.72,-393.48 1136.61,-360.23"/>
<polygon fill="#63b8ff" stroke="#63b8ff" points="1162.16,-518.7 1167.41,-527.9 1169.05,-517.44 1162.16,-518.7"/>
</g>
<!-- Node23 -->
<g id="node23" class="node">
<title>Node23</title>
<g id="a_node23"><a xlink:href="sparse_2factorize_8hpp.html" target="_top" xlink:title=" ">
<polygon fill="white" stroke="#666666" points="1348.5,-426 1217.5,-426 1217.5,-396 1348.5,-396 1348.5,-426"/>
<text text-anchor="start" x="1225.5" y="-414" font-family="Helvetica,sans-Serif" font-size="10.00">include/proxsuite/linalg</text>
<text text-anchor="middle" x="1283" y="-403" font-family="Helvetica,sans-Serif" font-size="10.00">/sparse/factorize.hpp</text>
</a>
</g>
</g>
<!-- Node22&#45;&gt;Node23 -->
<g id="edge41" class="edge">
<title>Node22&#45;&gt;Node23</title>
<path fill="none" stroke="#63b8ff" d="M1188.99,-520.15C1212.27,-493.38 1251.02,-448.79 1270.71,-426.14"/>
<polygon fill="#63b8ff" stroke="#63b8ff" points="1186.23,-518 1182.31,-527.84 1191.51,-522.59 1186.23,-518"/>
</g>
<!-- Node24 -->
<g id="node24" class="node">
<title>Node24</title>
<g id="a_node24"><a xlink:href="sparse_2update_8hpp.html" target="_top" xlink:title=" ">
<polygon fill="white" stroke="#666666" points="1489.5,-492 1358.5,-492 1358.5,-462 1489.5,-462 1489.5,-492"/>
<text text-anchor="start" x="1366.5" y="-480" font-family="Helvetica,sans-Serif" font-size="10.00">include/proxsuite/linalg</text>
<text text-anchor="middle" x="1424" y="-469" font-family="Helvetica,sans-Serif" font-size="10.00">/sparse/update.hpp</text>
</a>
</g>
</g>
<!-- Node22&#45;&gt;Node24 -->
<g id="edge46" class="edge">
<title>Node22&#45;&gt;Node24</title>
<path fill="none" stroke="#63b8ff" d="M1235.68,-525.45C1276.83,-515.08 1329.29,-501.86 1368.39,-492.01"/>
<polygon fill="#63b8ff" stroke="#63b8ff" points="1234.58,-522.12 1225.74,-527.95 1236.29,-528.91 1234.58,-522.12"/>
</g>
<!-- Node26 -->
<g id="node26" class="node">
<title>Node26</title>
<g id="a_node26"><a xlink:href="sparse_2model_8hpp.html" target="_top" xlink:title=" ">
<polygon fill="white" stroke="#666666" points="1008.5,-426 871.5,-426 871.5,-396 1008.5,-396 1008.5,-426"/>
<text text-anchor="start" x="879.5" y="-414" font-family="Helvetica,sans-Serif" font-size="10.00">include/proxsuite/proxqp</text>
<text text-anchor="middle" x="940" y="-403" font-family="Helvetica,sans-Serif" font-size="10.00">/sparse/model.hpp</text>
</a>
</g>
</g>
<!-- Node22&#45;&gt;Node26 -->
<g id="edge56" class="edge">
<title>Node22&#45;&gt;Node26</title>
<path fill="none" stroke="#63b8ff" d="M1136.12,-522.85C1089.46,-496.48 1006.48,-449.57 965.02,-426.14"/>
<polygon fill="#63b8ff" stroke="#63b8ff" points="1134.52,-525.97 1144.95,-527.84 1137.96,-519.87 1134.52,-525.97"/>
</g>
<!-- Node23&#45;&gt;Node16 -->
<g id="edge42" class="edge">
<title>Node23&#45;&gt;Node16</title>
<path fill="none" stroke="#63b8ff" d="M1303.64,-388.23C1310.45,-379.95 1317.44,-370.08 1322,-360 1352.03,-293.62 1390.87,-256.16 1347,-198 1333.87,-180.59 1284.04,-167.42 1240.9,-158.98"/>
<polygon fill="#63b8ff" stroke="#63b8ff" points="1300.88,-386.06 1296.99,-395.91 1306.18,-390.64 1300.88,-386.06"/>
</g>
<!-- Node23&#45;&gt;Node19 -->
<g id="edge43" class="edge">
<title>Node23&#45;&gt;Node19</title>
<path fill="none" stroke="#63b8ff" d="M1273.56,-386.39C1262.79,-359.46 1245.52,-316.31 1236.66,-294.14"/>
<polygon fill="#63b8ff" stroke="#63b8ff" points="1270.37,-387.86 1277.34,-395.84 1276.87,-385.26 1270.37,-387.86"/>
</g>
<!-- Node23&#45;&gt;Node20 -->
<g id="edge45" class="edge">
<title>Node23&#45;&gt;Node20</title>
<path fill="none" stroke="#63b8ff" d="M1294.35,-386.53C1306.93,-357.18 1323.64,-305.73 1309,-264 1304.14,-250.15 1293.66,-237.29 1284.64,-228.08"/>
<polygon fill="#63b8ff" stroke="#63b8ff" points="1291.03,-385.38 1290.13,-395.93 1297.42,-388.24 1291.03,-385.38"/>
</g>
<!-- Node23&#45;&gt;Node21 -->
<g id="edge44" class="edge">
<title>Node23&#45;&gt;Node21</title>
<path fill="none" stroke="#63b8ff" d="M1240.91,-391.92C1217.36,-381.8 1188.44,-369.38 1166.62,-360.01"/>
<polygon fill="#63b8ff" stroke="#63b8ff" points="1239.73,-395.22 1250.3,-395.95 1242.49,-388.79 1239.73,-395.22"/>
</g>
<!-- Node24&#45;&gt;Node16 -->
<g id="edge52" class="edge">
<title>Node24&#45;&gt;Node16</title>
<path fill="none" stroke="#63b8ff" d="M1499.45,-459.9C1521.48,-452.4 1544.35,-441.56 1562,-426 1591.97,-399.58 1603,-385.95 1603,-346 1603,-346 1603,-346 1603,-278 1603,-203.26 1362.45,-167.64 1240.77,-154.4"/>
<polygon fill="#63b8ff" stroke="#63b8ff" points="1498.19,-456.62 1489.74,-463.01 1500.33,-463.29 1498.19,-456.62"/>
</g>
<!-- Node24&#45;&gt;Node19 -->
<g id="edge53" class="edge">
<title>Node24&#45;&gt;Node19</title>
<path fill="none" stroke="#63b8ff" d="M1407.16,-453.93C1394.27,-437.45 1375.75,-414.67 1358,-396 1320.96,-357.05 1273.22,-315.52 1248.14,-294.3"/>
<polygon fill="#63b8ff" stroke="#63b8ff" points="1404.46,-456.15 1413.35,-461.91 1409.99,-451.86 1404.46,-456.15"/>
</g>
<!-- Node24&#45;&gt;Node20 -->
<g id="edge55" class="edge">
<title>Node24&#45;&gt;Node20</title>
<path fill="none" stroke="#63b8ff" d="M1499.16,-460.88C1517.49,-453.47 1534.98,-442.43 1546,-426 1553.43,-414.93 1551.95,-407.93 1546,-396 1499.81,-303.3 1381.63,-250.98 1315.53,-228.09"/>
<polygon fill="#63b8ff" stroke="#63b8ff" points="1497.7,-457.68 1489.53,-464.43 1500.12,-464.25 1497.7,-457.68"/>
</g>
<!-- Node24&#45;&gt;Node21 -->
<g id="edge54" class="edge">
<title>Node24&#45;&gt;Node21</title>
<path fill="none" stroke="#63b8ff" d="M1348.13,-469.34C1305.04,-462.96 1251.41,-450.46 1209,-426 1180.3,-409.45 1155.97,-378.44 1143.32,-360.27"/>
<polygon fill="#63b8ff" stroke="#63b8ff" points="1347.88,-472.84 1358.27,-470.76 1348.86,-465.91 1347.88,-472.84"/>
</g>
<!-- Node25 -->
<g id="node25" class="node">
<title>Node25</title>
<g id="a_node25"><a xlink:href="rowmod_8hpp.html" target="_top" xlink:title=" ">
<polygon fill="white" stroke="#666666" points="1536.5,-426 1405.5,-426 1405.5,-396 1536.5,-396 1536.5,-426"/>
<text text-anchor="start" x="1413.5" y="-414" font-family="Helvetica,sans-Serif" font-size="10.00">include/proxsuite/linalg</text>
<text text-anchor="middle" x="1471" y="-403" font-family="Helvetica,sans-Serif" font-size="10.00">/sparse/rowmod.hpp</text>
</a>
</g>
</g>
<!-- Node24&#45;&gt;Node25 -->
<g id="edge47" class="edge">
<title>Node24&#45;&gt;Node25</title>
<path fill="none" stroke="#63b8ff" d="M1440.5,-453.53C1447.19,-444.43 1454.7,-434.19 1460.6,-426.16"/>
<polygon fill="#63b8ff" stroke="#63b8ff" points="1437.53,-451.66 1434.43,-461.8 1443.17,-455.81 1437.53,-451.66"/>
</g>
<!-- Node25&#45;&gt;Node16 -->
<g id="edge48" class="edge">
<title>Node25&#45;&gt;Node16</title>
<path fill="none" stroke="#63b8ff" d="M1466.67,-386.03C1457.32,-341.54 1430.86,-246.3 1369,-198 1332.43,-169.44 1281.45,-157.03 1240.51,-151.71"/>
<polygon fill="#63b8ff" stroke="#63b8ff" points="1463.26,-386.83 1468.65,-395.95 1470.13,-385.46 1463.26,-386.83"/>
</g>
<!-- Node25&#45;&gt;Node19 -->
<g id="edge49" class="edge">
<title>Node25&#45;&gt;Node19</title>
<path fill="none" stroke="#63b8ff" d="M1451.19,-388.32C1433.89,-370.51 1407.35,-345.75 1380,-330 1352.22,-314 1318.55,-302.16 1290.25,-294.02"/>
<polygon fill="#63b8ff" stroke="#63b8ff" points="1449.02,-391.12 1458.45,-395.95 1454.09,-386.29 1449.02,-391.12"/>
</g>
<!-- Node25&#45;&gt;Node20 -->
<g id="edge51" class="edge">
<title>Node25&#45;&gt;Node20</title>
<path fill="none" stroke="#63b8ff" d="M1457.19,-387.21C1446.49,-370.47 1430.71,-347.67 1414,-330 1374.57,-288.31 1319.87,-248.51 1290.2,-228.13"/>
<polygon fill="#63b8ff" stroke="#63b8ff" points="1454.31,-389.2 1462.59,-395.82 1460.24,-385.48 1454.31,-389.2"/>
</g>
<!-- Node25&#45;&gt;Node21 -->
<g id="edge50" class="edge">
<title>Node25&#45;&gt;Node21</title>
<path fill="none" stroke="#63b8ff" d="M1395.05,-395.58C1337.25,-384.6 1258.38,-369.62 1202.5,-359.01"/>
<polygon fill="#63b8ff" stroke="#63b8ff" points="1394.75,-399.08 1405.22,-397.51 1396.05,-392.2 1394.75,-399.08"/>
</g>
<!-- Node26&#45;&gt;Node16 -->
<g id="edge61" class="edge">
<title>Node26&#45;&gt;Node16</title>
<path fill="none" stroke="#63b8ff" d="M940.68,-385.83C942.04,-369.25 945.67,-347.22 955,-330 999.27,-248.29 1096.45,-188.03 1144.29,-162.08"/>
<polygon fill="#63b8ff" stroke="#63b8ff" points="937.19,-385.64 940.08,-395.84 944.18,-386.07 937.19,-385.64"/>
</g>
<!-- Node26&#45;&gt;Node19 -->
<g id="edge62" class="edge">
<title>Node26&#45;&gt;Node19</title>
<path fill="none" stroke="#63b8ff" d="M957.09,-387.96C972.42,-369.71 996.52,-344.52 1023,-330 1065.99,-306.43 1119.95,-293.88 1162.13,-287.24"/>
<polygon fill="#63b8ff" stroke="#63b8ff" points="954.31,-385.83 950.69,-395.79 959.73,-390.26 954.31,-385.83"/>
</g>
<!-- Node26&#45;&gt;Node20 -->
<g id="edge64" class="edge">
<title>Node26&#45;&gt;Node20</title>
<path fill="none" stroke="#63b8ff" d="M947.27,-386.19C953.69,-368.66 964.6,-345.31 981,-330 1042.66,-272.43 1136.57,-241.9 1200.25,-226.86"/>
<polygon fill="#63b8ff" stroke="#63b8ff" points="943.93,-385.13 944.01,-395.73 950.56,-387.4 943.93,-385.13"/>
</g>
<!-- Node26&#45;&gt;Node21 -->
<g id="edge63" class="edge">
<title>Node26&#45;&gt;Node21</title>
<path fill="none" stroke="#63b8ff" d="M992.37,-392.72C1023.46,-382.47 1062.36,-369.63 1091.53,-360.01"/>
<polygon fill="#63b8ff" stroke="#63b8ff" points="990.97,-389.5 982.57,-395.95 993.17,-396.15 990.97,-389.5"/>
</g>
<!-- Node27 -->
<g id="node27" class="node">
<title>Node27</title>
<g id="a_node27"><a xlink:href="dense_2model_8hpp.html" target="_top" xlink:title=" ">
<polygon fill="white" stroke="#666666" points="554.5,-360 417.5,-360 417.5,-330 554.5,-330 554.5,-360"/>
<text text-anchor="start" x="425.5" y="-348" font-family="Helvetica,sans-Serif" font-size="10.00">include/proxsuite/proxqp</text>
<text text-anchor="middle" x="486" y="-337" font-family="Helvetica,sans-Serif" font-size="10.00">/dense/model.hpp</text>
</a>
</g>
</g>
<!-- Node26&#45;&gt;Node27 -->
<g id="edge57" class="edge">
<title>Node26&#45;&gt;Node27</title>
<path fill="none" stroke="#63b8ff" d="M861.02,-398.87C774.5,-386.67 637.13,-367.31 554.86,-355.71"/>
<polygon fill="#63b8ff" stroke="#63b8ff" points="860.66,-402.35 871.05,-400.28 861.63,-395.42 860.66,-402.35"/>
</g>
<!-- Node28 -->
<g id="node28" class="node">
<title>Node28</title>
<g id="a_node28"><a xlink:href="random__qp__problems_8hpp.html" target="_top" xlink:title=" ">
<polygon fill="white" stroke="#666666" points="819,-294 649,-294 649,-264 819,-264 819,-294"/>
<text text-anchor="start" x="657" y="-282" font-family="Helvetica,sans-Serif" font-size="10.00">include/proxsuite/proxqp</text>
<text text-anchor="middle" x="734" y="-271" font-family="Helvetica,sans-Serif" font-size="10.00">/utils/random_qp_problems.hpp</text>
</a>
</g>
</g>
<!-- Node26&#45;&gt;Node28 -->
<g id="edge65" class="edge">
<title>Node26&#45;&gt;Node28</title>
<path fill="none" stroke="#63b8ff" d="M908.87,-390.35C866.93,-363.89 793.31,-317.43 756.41,-294.14"/>
<polygon fill="#63b8ff" stroke="#63b8ff" points="907.24,-393.46 917.56,-395.84 910.97,-387.54 907.24,-393.46"/>
</g>
<!-- Node27&#45;&gt;Node9 -->
<g id="edge58" class="edge">
<title>Node27&#45;&gt;Node9</title>
<path fill="none" stroke="#63b8ff" d="M486,-319.68C486,-292.7 486,-250.11 486,-228.14"/>
<polygon fill="#63b8ff" stroke="#63b8ff" points="482.5,-319.84 486,-329.84 489.5,-319.84 482.5,-319.84"/>
</g>
<!-- Node27&#45;&gt;Node10 -->
<g id="edge59" class="edge">
<title>Node27&#45;&gt;Node10</title>
<path fill="none" stroke="#63b8ff" d="M407.15,-331.01C366.58,-322.54 323.13,-310.08 311,-294 296.26,-274.46 310.13,-245.33 320.97,-228.14"/>
<polygon fill="#63b8ff" stroke="#63b8ff" points="406.61,-334.47 417.1,-333.02 407.99,-327.61 406.61,-334.47"/>
</g>
<!-- Node27&#45;&gt;Node28 -->
<g id="edge60" class="edge">
<title>Node27&#45;&gt;Node28</title>
<path fill="none" stroke="#63b8ff" d="M550.13,-327.45C590.31,-317.08 641.53,-303.86 679.7,-294.01"/>
<polygon fill="#63b8ff" stroke="#63b8ff" points="549.23,-324.07 540.42,-329.95 550.98,-330.85 549.23,-324.07"/>
</g>
<!-- Node29&#45;&gt;Node5 -->
<g id="edge71" class="edge">
<title>Node29&#45;&gt;Node5</title>
<path fill="none" stroke="#63b8ff" d="M583,-517.86C583,-491.76 583,-448.93 583,-412 583,-412 583,-412 583,-278 583,-241.46 590.58,-223.08 564,-198 533.94,-169.63 423.99,-157.02 350.6,-151.67"/>
<polygon fill="#63b8ff" stroke="#63b8ff" points="579.5,-517.96 583,-527.96 586.5,-517.96 579.5,-517.96"/>
</g>
</g>
</svg>
