<?xml version="1.0" encoding="UTF-8" standalone="no"?>
<!DOCTYPE svg PUBLIC "-//W3C//DTD SVG 1.1//EN"
 "http://www.w3.org/Graphics/SVG/1.1/DTD/svg11.dtd">
<!-- Generated by graphviz version 8.0.4 (20230426.1303)
 -->
<!-- Title: include/proxsuite/serialization/eigen.hpp Pages: 1 -->
<svg width="300pt" height="98pt"
 viewBox="0.00 0.00 299.50 98.25" xmlns="http://www.w3.org/2000/svg" xmlns:xlink="http://www.w3.org/1999/xlink">
<g id="graph0" class="graph" transform="scale(1 1) rotate(0) translate(4 94.25)">
<title>include/proxsuite/serialization/eigen.hpp</title>
<!-- Node1 -->
<g id="node1" class="node">
<title>Node1</title>
<g id="a_node1"><a xlink:title=" ">
<polygon fill="#999999" stroke="#666666" points="217,-90.25 54,-90.25 54,-56.75 217,-56.75 217,-90.25"/>
<text text-anchor="start" x="62" y="-76.75" font-family="Helvetica,sans-Serif" font-size="10.00">include/proxsuite/serialization</text>
<text text-anchor="middle" x="135.5" y="-64" font-family="Helvetica,sans-Serif" font-size="10.00">/eigen.hpp</text>
</a>
</g>
</g>
<!-- Node2 -->
<g id="node2" class="node">
<title>Node2</title>
<g id="a_node2"><a xlink:title=" ">
<polygon fill="#e0e0e0" stroke="#999999" points="79,-20.75 0,-20.75 0,0 79,0 79,-20.75"/>
<text text-anchor="middle" x="39.5" y="-7.25" font-family="Helvetica,sans-Serif" font-size="10.00">Eigen/Sparse</text>
</a>
</g>
</g>
<!-- Node1&#45;&gt;Node2 -->
<g id="edge1" class="edge">
<title>Node1&#45;&gt;Node2</title>
<path fill="none" stroke="#63b8ff" d="M110.03,-56.28C95.76,-47.2 78.07,-35.93 63.97,-26.96"/>
<polygon fill="#63b8ff" stroke="#63b8ff" points="66.19,-23.58 55.88,-21.17 62.43,-29.49 66.19,-23.58"/>
</g>
<!-- Node3 -->
<g id="node3" class="node">
<title>Node3</title>
<g id="a_node3"><a xlink:title=" ">
<polygon fill="#e0e0e0" stroke="#999999" points="173.88,-20.75 97.12,-20.75 97.12,0 173.88,0 173.88,-20.75"/>
<text text-anchor="middle" x="135.5" y="-7.25" font-family="Helvetica,sans-Serif" font-size="10.00">Eigen/Dense</text>
</a>
</g>
</g>
<!-- Node1&#45;&gt;Node3 -->
<g id="edge2" class="edge">
<title>Node1&#45;&gt;Node3</title>
<path fill="none" stroke="#63b8ff" d="M135.5,-56.44C135.5,-49.02 135.5,-40.11 135.5,-32.18"/>
<polygon fill="#63b8ff" stroke="#63b8ff" points="139,-32.22 135.5,-22.22 132,-32.22 139,-32.22"/>
</g>
<!-- Node4 -->
<g id="node4" class="node">
<title>Node4</title>
<g id="a_node4"><a xlink:title=" ">
<polygon fill="#e0e0e0" stroke="#999999" points="291.5,-20.75 191.5,-20.75 191.5,0 291.5,0 291.5,-20.75"/>
<text text-anchor="middle" x="241.5" y="-7.25" font-family="Helvetica,sans-Serif" font-size="10.00">cereal/cereal.hpp</text>
</a>
</g>
</g>
<!-- Node1&#45;&gt;Node4 -->
<g id="edge3" class="edge">
<title>Node1&#45;&gt;Node4</title>
<path fill="none" stroke="#63b8ff" d="M163.63,-56.28C179.68,-47.02 199.66,-35.5 215.37,-26.44"/>
<polygon fill="#63b8ff" stroke="#63b8ff" points="216.61,-29.19 223.52,-21.17 213.11,-23.13 216.61,-29.19"/>
</g>
</g>
</svg>
