<?xml version="1.0" encoding="UTF-8" standalone="no"?>
<!DOCTYPE svg PUBLIC "-//W3C//DTD SVG 1.1//EN"
 "http://www.w3.org/Graphics/SVG/1.1/DTD/svg11.dtd">
<!-- Generated by graphviz version 7.1.0 (20230122.1345)
 -->
<!-- Title: include/proxsuite/linalg/veg/internal/fix_index.hpp Pages: 1 -->
<svg width="1195pt" height="555pt"
 viewBox="0.00 0.00 1195.33 555.00" xmlns="http://www.w3.org/2000/svg" xmlns:xlink="http://www.w3.org/1999/xlink">
<g id="graph0" class="graph" transform="scale(1 1) rotate(0) translate(4 551)">
<title>include/proxsuite/linalg/veg/internal/fix_index.hpp</title>
<!-- Node1 -->
<g id="node1" class="node">
<title>Node1</title>
<g id="a_node1"><a xlink:title=" ">
<polygon fill="#999999" stroke="#666666" points="252.5,-547 106.5,-547 106.5,-517 252.5,-517 252.5,-547"/>
<text text-anchor="start" x="114.5" y="-535" font-family="Helvetica,sans-Serif" font-size="10.00">include/proxsuite/linalg</text>
<text text-anchor="middle" x="179.5" y="-524" font-family="Helvetica,sans-Serif" font-size="10.00">/veg/internal/fix_index.hpp</text>
</a>
</g>
</g>
<!-- Node2 -->
<g id="node2" class="node">
<title>Node2</title>
<g id="a_node2"><a xlink:href="tags_8hpp.html" target="_top" xlink:title=" ">
<polygon fill="white" stroke="#666666" points="591,-349 474,-349 474,-319 591,-319 591,-349"/>
<text text-anchor="start" x="482" y="-337" font-family="Helvetica,sans-Serif" font-size="10.00">proxsuite/linalg/veg</text>
<text text-anchor="middle" x="532.5" y="-326" font-family="Helvetica,sans-Serif" font-size="10.00">/type_traits/tags.hpp</text>
</a>
</g>
</g>
<!-- Node1&#45;&gt;Node2 -->
<g id="edge1" class="edge">
<title>Node1&#45;&gt;Node2</title>
<path fill="none" stroke="#63b8ff" d="M205.46,-516.59C267.68,-482.04 425.44,-394.45 496.65,-354.91"/>
<polygon fill="#63b8ff" stroke="#63b8ff" points="498.14,-358.08 505.18,-350.17 494.74,-351.96 498.14,-358.08"/>
</g>
<!-- Node11 -->
<g id="node11" class="node">
<title>Node11</title>
<g id="a_node11"><a xlink:href="prologue_8hpp.html" target="_top" xlink:title=" ">
<polygon fill="white" stroke="#666666" points="335.5,-85 211.5,-85 211.5,-55 335.5,-55 335.5,-85"/>
<text text-anchor="start" x="219.5" y="-73" font-family="Helvetica,sans-Serif" font-size="10.00">proxsuite/linalg/veg</text>
<text text-anchor="middle" x="273.5" y="-62" font-family="Helvetica,sans-Serif" font-size="10.00">/internal/prologue.hpp</text>
</a>
</g>
</g>
<!-- Node1&#45;&gt;Node11 -->
<g id="edge55" class="edge">
<title>Node1&#45;&gt;Node11</title>
<path fill="none" stroke="#63b8ff" d="M172.35,-516.59C161.34,-493.02 141.5,-444.5 141.5,-401 141.5,-401 141.5,-401 141.5,-201 141.5,-149.77 192.59,-111.97 231.2,-90.71"/>
<polygon fill="#63b8ff" stroke="#63b8ff" points="232.67,-93.9 239.87,-86.12 229.4,-87.71 232.67,-93.9"/>
</g>
<!-- Node13 -->
<g id="node13" class="node">
<title>Node13</title>
<g id="a_node13"><a xlink:href="epilogue_8hpp.html" target="_top" xlink:title=" ">
<polygon fill="white" stroke="#666666" points="974,-85 851,-85 851,-55 974,-55 974,-85"/>
<text text-anchor="start" x="859" y="-73" font-family="Helvetica,sans-Serif" font-size="10.00">proxsuite/linalg/veg</text>
<text text-anchor="middle" x="912.5" y="-62" font-family="Helvetica,sans-Serif" font-size="10.00">/internal/epilogue.hpp</text>
</a>
</g>
</g>
<!-- Node1&#45;&gt;Node13 -->
<g id="edge56" class="edge">
<title>Node1&#45;&gt;Node13</title>
<path fill="none" stroke="#63b8ff" d="M252.66,-529.24C484.16,-522.69 1185.5,-495.11 1185.5,-401 1185.5,-401 1185.5,-401 1185.5,-201 1185.5,-164.46 1192.84,-146.33 1166.5,-121 1153.41,-108.41 1055.63,-91.79 985.3,-81.25"/>
<polygon fill="#63b8ff" stroke="#63b8ff" points="986.17,-77.84 975.76,-79.83 985.14,-84.76 986.17,-77.84"/>
</g>
<!-- Node14 -->
<g id="node14" class="node">
<title>Node14</title>
<g id="a_node14"><a xlink:href="std_8hpp.html" target="_top" xlink:title=" ">
<polygon fill="white" stroke="#666666" points="113,-217 0,-217 0,-187 113,-187 113,-217"/>
<text text-anchor="start" x="8" y="-205" font-family="Helvetica,sans-Serif" font-size="10.00">proxsuite/linalg/veg</text>
<text text-anchor="middle" x="56.5" y="-194" font-family="Helvetica,sans-Serif" font-size="10.00">/internal/std.hpp</text>
</a>
</g>
</g>
<!-- Node1&#45;&gt;Node14 -->
<g id="edge21" class="edge">
<title>Node1&#45;&gt;Node14</title>
<path fill="none" stroke="#63b8ff" d="M158.02,-516.57C128.9,-495.11 80.5,-451.78 80.5,-401 80.5,-401 80.5,-401 80.5,-333 80.5,-295.98 70.97,-254 63.92,-228.01"/>
<polygon fill="#63b8ff" stroke="#63b8ff" points="67.39,-227.4 61.31,-218.73 60.65,-229.3 67.39,-227.4"/>
</g>
<!-- Node15 -->
<g id="node15" class="node">
<title>Node15</title>
<g id="a_node15"><a xlink:href="internal_2dbg_8hpp.html" target="_top" xlink:title=" ">
<polygon fill="white" stroke="#666666" points="830,-481 717,-481 717,-451 830,-451 830,-481"/>
<text text-anchor="start" x="725" y="-469" font-family="Helvetica,sans-Serif" font-size="10.00">proxsuite/linalg/veg</text>
<text text-anchor="middle" x="773.5" y="-458" font-family="Helvetica,sans-Serif" font-size="10.00">/internal/dbg.hpp</text>
</a>
</g>
</g>
<!-- Node1&#45;&gt;Node15 -->
<g id="edge24" class="edge">
<title>Node1&#45;&gt;Node15</title>
<path fill="none" stroke="#63b8ff" d="M252.93,-523.09C368.92,-510.59 592.88,-486.46 705.43,-474.33"/>
<polygon fill="#63b8ff" stroke="#63b8ff" points="705.55,-477.84 715.12,-473.29 704.8,-470.88 705.55,-477.84"/>
</g>
<!-- Node3 -->
<g id="node3" class="node">
<title>Node3</title>
<g id="a_node3"><a xlink:href="veg_2type__traits_2core_8hpp.html" target="_top" xlink:title=" ">
<polygon fill="white" stroke="#666666" points="591,-283 474,-283 474,-253 591,-253 591,-283"/>
<text text-anchor="start" x="482" y="-271" font-family="Helvetica,sans-Serif" font-size="10.00">proxsuite/linalg/veg</text>
<text text-anchor="middle" x="532.5" y="-260" font-family="Helvetica,sans-Serif" font-size="10.00">/type_traits/core.hpp</text>
</a>
</g>
</g>
<!-- Node2&#45;&gt;Node3 -->
<g id="edge2" class="edge">
<title>Node2&#45;&gt;Node3</title>
<path fill="none" stroke="#63b8ff" d="M532.5,-318.8C532.5,-311.67 532.5,-302.82 532.5,-294.56"/>
<polygon fill="#63b8ff" stroke="#63b8ff" points="536,-294.68 532.5,-284.68 529,-294.68 536,-294.68"/>
</g>
<!-- Node2&#45;&gt;Node11 -->
<g id="edge19" class="edge">
<title>Node2&#45;&gt;Node11</title>
<path fill="none" stroke="#63b8ff" d="M498.1,-318.62C477.99,-309.57 452.51,-296.99 431.5,-283 394.26,-258.21 383.76,-251.68 355.5,-217 324.07,-178.43 298.02,-126.18 284.2,-95.78"/>
<polygon fill="#63b8ff" stroke="#63b8ff" points="287.4,-94.36 280.13,-86.65 281,-97.21 287.4,-94.36"/>
</g>
<!-- Node2&#45;&gt;Node13 -->
<g id="edge20" class="edge">
<title>Node2&#45;&gt;Node13</title>
<path fill="none" stroke="#63b8ff" d="M585.03,-318.52C613.86,-309.77 649.86,-297.51 680.5,-283 703.24,-272.23 705.96,-264.18 728.5,-253 768.95,-232.94 790,-247.27 823.5,-217 858.9,-185.02 845.55,-161.03 871.5,-121 877.53,-111.69 885.02,-102.12 891.94,-93.88"/>
<polygon fill="#63b8ff" stroke="#63b8ff" points="894.53,-96.22 898.41,-86.36 889.23,-91.65 894.53,-96.22"/>
</g>
<!-- Node4 -->
<g id="node4" class="node">
<title>Node4</title>
<g id="a_node4"><a xlink:href="typedefs_8hpp.html" target="_top" xlink:title=" ">
<polygon fill="white" stroke="#666666" points="832.5,-85 708.5,-85 708.5,-55 832.5,-55 832.5,-85"/>
<text text-anchor="start" x="716.5" y="-73" font-family="Helvetica,sans-Serif" font-size="10.00">proxsuite/linalg/veg</text>
<text text-anchor="middle" x="770.5" y="-62" font-family="Helvetica,sans-Serif" font-size="10.00">/internal/typedefs.hpp</text>
</a>
</g>
</g>
<!-- Node3&#45;&gt;Node4 -->
<g id="edge3" class="edge">
<title>Node3&#45;&gt;Node4</title>
<path fill="none" stroke="#63b8ff" d="M579.2,-252.56C601.49,-244.3 627.76,-232.47 648.5,-217 695.09,-182.25 735.27,-126.3 755.84,-94.7"/>
<polygon fill="#63b8ff" stroke="#63b8ff" points="758.56,-96.94 761,-86.63 752.66,-93.17 758.56,-96.94"/>
</g>
<!-- Node7 -->
<g id="node7" class="node">
<title>Node7</title>
<g id="a_node7"><a xlink:href="integer__seq_8hpp.html" target="_top" xlink:title=" ">
<polygon fill="white" stroke="#666666" points="639.5,-217 501.5,-217 501.5,-187 639.5,-187 639.5,-217"/>
<text text-anchor="start" x="509.5" y="-205" font-family="Helvetica,sans-Serif" font-size="10.00">proxsuite/linalg/veg</text>
<text text-anchor="middle" x="570.5" y="-194" font-family="Helvetica,sans-Serif" font-size="10.00">/internal/integer_seq.hpp</text>
</a>
</g>
</g>
<!-- Node3&#45;&gt;Node7 -->
<g id="edge6" class="edge">
<title>Node3&#45;&gt;Node7</title>
<path fill="none" stroke="#63b8ff" d="M540.93,-252.8C545.46,-245.17 551.16,-235.57 556.34,-226.84"/>
<polygon fill="#63b8ff" stroke="#63b8ff" points="559.22,-228.85 561.32,-218.47 553.2,-225.28 559.22,-228.85"/>
</g>
<!-- Node3&#45;&gt;Node11 -->
<g id="edge17" class="edge">
<title>Node3&#45;&gt;Node11</title>
<path fill="none" stroke="#63b8ff" d="M499.46,-252.69C482.07,-244.07 461.17,-231.87 445.5,-217 408.67,-182.03 421.95,-154.18 383.5,-121 368.23,-107.82 348.92,-97.49 330.75,-89.73"/>
<polygon fill="#63b8ff" stroke="#63b8ff" points="332.21,-86.54 321.63,-86.02 329.58,-93.03 332.21,-86.54"/>
</g>
<!-- Node3&#45;&gt;Node13 -->
<g id="edge18" class="edge">
<title>Node3&#45;&gt;Node13</title>
<path fill="none" stroke="#63b8ff" d="M590.39,-252.6C618.33,-244.35 651.73,-232.52 679.5,-217 737.92,-184.35 738.36,-155.84 795.5,-121 815.66,-108.71 839.37,-97.97 860.17,-89.62"/>
<polygon fill="#63b8ff" stroke="#63b8ff" points="861.29,-92.94 869.33,-86.03 858.74,-86.42 861.29,-92.94"/>
</g>
<!-- Node5 -->
<g id="node5" class="node">
<title>Node5</title>
<g id="a_node5"><a xlink:title=" ">
<polygon fill="#e0e0e0" stroke="#999999" points="416.5,-19 366.5,-19 366.5,0 416.5,0 416.5,-19"/>
<text text-anchor="middle" x="391.5" y="-7" font-family="Helvetica,sans-Serif" font-size="10.00">cstdint</text>
</a>
</g>
</g>
<!-- Node4&#45;&gt;Node5 -->
<g id="edge4" class="edge">
<title>Node4&#45;&gt;Node5</title>
<path fill="none" stroke="#63b8ff" d="M708.09,-56.67C704.85,-56.09 701.64,-55.53 698.5,-55 601.09,-38.48 485.64,-22.78 428.02,-15.22"/>
<polygon fill="#63b8ff" stroke="#63b8ff" points="428.5,-11.75 418.14,-13.92 427.6,-18.69 428.5,-11.75"/>
</g>
<!-- Node6 -->
<g id="node6" class="node">
<title>Node6</title>
<g id="a_node6"><a xlink:title=" ">
<polygon fill="#e0e0e0" stroke="#999999" points="797,-19 744,-19 744,0 797,0 797,-19"/>
<text text-anchor="middle" x="770.5" y="-7" font-family="Helvetica,sans-Serif" font-size="10.00">cstddef</text>
</a>
</g>
</g>
<!-- Node4&#45;&gt;Node6 -->
<g id="edge5" class="edge">
<title>Node4&#45;&gt;Node6</title>
<path fill="none" stroke="#63b8ff" d="M770.5,-54.54C770.5,-47.34 770.5,-38.53 770.5,-30.68"/>
<polygon fill="#63b8ff" stroke="#63b8ff" points="774,-30.69 770.5,-20.69 767,-30.69 774,-30.69"/>
</g>
<!-- Node7&#45;&gt;Node4 -->
<g id="edge7" class="edge">
<title>Node7&#45;&gt;Node4</title>
<path fill="none" stroke="#63b8ff" d="M589.72,-186.75C616.45,-166.99 663.58,-132.44 681.5,-121 698.2,-110.34 717.29,-99.45 733.49,-90.57"/>
<polygon fill="#63b8ff" stroke="#63b8ff" points="734.71,-93.89 741.83,-86.04 731.37,-87.74 734.71,-93.89"/>
</g>
<!-- Node8 -->
<g id="node8" class="node">
<title>Node8</title>
<g id="a_node8"><a xlink:href="macros_8hpp.html" target="_top" xlink:title=" ">
<polygon fill="white" stroke="#666666" points="629,-151 512,-151 512,-121 629,-121 629,-151"/>
<text text-anchor="start" x="520" y="-139" font-family="Helvetica,sans-Serif" font-size="10.00">proxsuite/linalg/veg</text>
<text text-anchor="middle" x="570.5" y="-128" font-family="Helvetica,sans-Serif" font-size="10.00">/internal/macros.hpp</text>
</a>
</g>
</g>
<!-- Node7&#45;&gt;Node8 -->
<g id="edge8" class="edge">
<title>Node7&#45;&gt;Node8</title>
<path fill="none" stroke="#63b8ff" d="M570.5,-186.8C570.5,-179.67 570.5,-170.82 570.5,-162.56"/>
<polygon fill="#63b8ff" stroke="#63b8ff" points="574,-162.68 570.5,-152.68 567,-162.68 574,-162.68"/>
</g>
<!-- Node7&#45;&gt;Node11 -->
<g id="edge15" class="edge">
<title>Node7&#45;&gt;Node11</title>
<path fill="none" stroke="#63b8ff" d="M551.26,-186.86C520.82,-164.53 464.49,-123.37 459.5,-121 439.36,-111.43 389.71,-98.26 346.77,-87.84"/>
<polygon fill="#63b8ff" stroke="#63b8ff" points="347.74,-84.47 337.2,-85.53 346.11,-91.28 347.74,-84.47"/>
</g>
<!-- Node7&#45;&gt;Node13 -->
<g id="edge16" class="edge">
<title>Node7&#45;&gt;Node13</title>
<path fill="none" stroke="#63b8ff" d="M601.9,-186.51C638.77,-169.75 701.94,-141.79 757.5,-121 788.73,-109.31 824.08,-97.78 853.13,-88.74"/>
<polygon fill="#63b8ff" stroke="#63b8ff" points="853.96,-92.15 862.48,-85.85 851.9,-85.46 853.96,-92.15"/>
</g>
<!-- Node8&#45;&gt;Node4 -->
<g id="edge10" class="edge">
<title>Node8&#45;&gt;Node4</title>
<path fill="none" stroke="#63b8ff" d="M615.38,-120.64C644.75,-111.24 683.33,-98.9 714.66,-88.87"/>
<polygon fill="#63b8ff" stroke="#63b8ff" points="715.52,-92.27 723.98,-85.89 713.39,-85.6 715.52,-92.27"/>
</g>
<!-- Node9 -->
<g id="node9" class="node">
<title>Node9</title>
<g id="a_node9"><a xlink:href="hedley_8ext_8hpp.html" target="_top" xlink:title=" ">
<polygon fill="white" stroke="#666666" points="690,-85 515,-85 515,-55 690,-55 690,-85"/>
<text text-anchor="start" x="523" y="-73" font-family="Helvetica,sans-Serif" font-size="10.00">proxsuite/linalg/veg</text>
<text text-anchor="middle" x="602.5" y="-62" font-family="Helvetica,sans-Serif" font-size="10.00">/internal/external/hedley.ext.hpp</text>
</a>
</g>
</g>
<!-- Node8&#45;&gt;Node9 -->
<g id="edge9" class="edge">
<title>Node8&#45;&gt;Node9</title>
<path fill="none" stroke="#63b8ff" d="M577.6,-120.8C581.33,-113.34 586,-103.99 590.29,-95.41"/>
<polygon fill="#63b8ff" stroke="#63b8ff" points="593.4,-97.03 594.74,-86.52 587.14,-93.9 593.4,-97.03"/>
</g>
<!-- Node10 -->
<g id="node10" class="node">
<title>Node10</title>
<g id="a_node10"><a xlink:href="preprocessor_8hpp.html" target="_top" xlink:title=" ">
<polygon fill="white" stroke="#666666" points="497,-85 354,-85 354,-55 497,-55 497,-85"/>
<text text-anchor="start" x="362" y="-73" font-family="Helvetica,sans-Serif" font-size="10.00">proxsuite/linalg/veg</text>
<text text-anchor="middle" x="425.5" y="-62" font-family="Helvetica,sans-Serif" font-size="10.00">/internal/preprocessor.hpp</text>
</a>
</g>
</g>
<!-- Node8&#45;&gt;Node10 -->
<g id="edge11" class="edge">
<title>Node8&#45;&gt;Node10</title>
<path fill="none" stroke="#63b8ff" d="M537.96,-120.64C517.51,-111.61 490.89,-99.86 468.68,-90.06"/>
<polygon fill="#63b8ff" stroke="#63b8ff" points="470.13,-86.87 459.57,-86.04 467.3,-93.28 470.13,-86.87"/>
</g>
<!-- Node8&#45;&gt;Node11 -->
<g id="edge12" class="edge">
<title>Node8&#45;&gt;Node11</title>
<path fill="none" stroke="#63b8ff" d="M511.82,-122.36C464.59,-112.18 397.95,-97.82 347.14,-86.87"/>
<polygon fill="#63b8ff" stroke="#63b8ff" points="347.89,-83.45 337.38,-84.76 346.42,-90.29 347.89,-83.45"/>
</g>
<!-- Node12 -->
<g id="node12" class="node">
<title>Node12</title>
<g id="a_node12"><a xlink:title=" ">
<polygon fill="#e0e0e0" stroke="#999999" points="186,-79.5 103,-79.5 103,-60.5 186,-60.5 186,-79.5"/>
<text text-anchor="middle" x="144.5" y="-67.5" font-family="Helvetica,sans-Serif" font-size="10.00">initializer_list</text>
</a>
</g>
</g>
<!-- Node8&#45;&gt;Node12 -->
<g id="edge13" class="edge">
<title>Node8&#45;&gt;Node12</title>
<path fill="none" stroke="#63b8ff" d="M511.57,-128.87C438.65,-120.84 310.85,-105.38 202.5,-85 198.44,-84.24 194.25,-83.37 190.05,-82.46"/>
<polygon fill="#63b8ff" stroke="#63b8ff" points="191.04,-79.09 180.51,-80.28 189.48,-85.92 191.04,-79.09"/>
</g>
<!-- Node8&#45;&gt;Node13 -->
<g id="edge14" class="edge">
<title>Node8&#45;&gt;Node13</title>
<path fill="none" stroke="#63b8ff" d="M629.48,-124.33C681.94,-114.8 761.04,-100.3 839.49,-85.37"/>
<polygon fill="#63b8ff" stroke="#63b8ff" points="839.9,-88.86 849.07,-83.54 838.59,-81.98 839.9,-88.86"/>
</g>
<!-- Node14&#45;&gt;Node5 -->
<g id="edge22" class="edge">
<title>Node14&#45;&gt;Node5</title>
<path fill="none" stroke="#63b8ff" d="M55.4,-186.82C53.98,-157.39 55.3,-89.56 93.5,-55 131.27,-20.83 284.01,-12.9 354.96,-11.05"/>
<polygon fill="#63b8ff" stroke="#63b8ff" points="354.98,-14.56 364.9,-10.83 354.82,-7.56 354.98,-14.56"/>
</g>
<!-- Node14&#45;&gt;Node12 -->
<g id="edge23" class="edge">
<title>Node14&#45;&gt;Node12</title>
<path fill="none" stroke="#63b8ff" d="M66.25,-186.59C82.38,-162.77 114.57,-115.22 132.22,-89.15"/>
<polygon fill="#63b8ff" stroke="#63b8ff" points="135.05,-91.2 137.76,-80.96 129.25,-87.28 135.05,-91.2"/>
</g>
<!-- Node15&#45;&gt;Node11 -->
<g id="edge51" class="edge">
<title>Node15&#45;&gt;Node11</title>
<path fill="none" stroke="#63b8ff" d="M716.57,-459.85C597.3,-447.85 327.09,-414.02 265.5,-349 199.31,-279.13 241.04,-149.53 262.76,-95.57"/>
<polygon fill="#63b8ff" stroke="#63b8ff" points="265.87,-97.23 266.47,-86.65 259.4,-94.54 265.87,-97.23"/>
</g>
<!-- Node15&#45;&gt;Node13 -->
<g id="edge54" class="edge">
<title>Node15&#45;&gt;Node13</title>
<path fill="none" stroke="#63b8ff" d="M830.24,-457.4C897.18,-444.87 999.5,-412.97 999.5,-335 999.5,-335 999.5,-335 999.5,-201 999.5,-156.84 964.39,-116.33 938.78,-92.65"/>
<polygon fill="#63b8ff" stroke="#63b8ff" points="941.45,-90.33 931.66,-86.29 936.79,-95.56 941.45,-90.33"/>
</g>
<!-- Node16 -->
<g id="node16" class="node">
<title>Node16</title>
<g id="a_node16"><a xlink:href="primitives_8hpp.html" target="_top" xlink:title=" ">
<polygon fill="white" stroke="#666666" points="793.5,-349 647.5,-349 647.5,-319 793.5,-319 793.5,-349"/>
<text text-anchor="start" x="655.5" y="-337" font-family="Helvetica,sans-Serif" font-size="10.00">proxsuite/linalg/veg</text>
<text text-anchor="middle" x="720.5" y="-326" font-family="Helvetica,sans-Serif" font-size="10.00">/type_traits/primitives.hpp</text>
</a>
</g>
</g>
<!-- Node15&#45;&gt;Node16 -->
<g id="edge25" class="edge">
<title>Node15&#45;&gt;Node16</title>
<path fill="none" stroke="#63b8ff" d="M761.56,-450.53C754.22,-440.97 745.17,-427.87 739.5,-415 731.84,-397.62 727.01,-376.69 724.13,-360.6"/>
<polygon fill="#63b8ff" stroke="#63b8ff" points="727.61,-360.18 722.55,-350.87 720.7,-361.3 727.61,-360.18"/>
</g>
<!-- Node18 -->
<g id="node18" class="node">
<title>Node18</title>
<g id="a_node18"><a xlink:href="terminate_8hpp.html" target="_top" xlink:title=" ">
<polygon fill="white" stroke="#666666" points="1157,-151 1028,-151 1028,-121 1157,-121 1157,-151"/>
<text text-anchor="start" x="1036" y="-139" font-family="Helvetica,sans-Serif" font-size="10.00">proxsuite/linalg/veg</text>
<text text-anchor="middle" x="1092.5" y="-128" font-family="Helvetica,sans-Serif" font-size="10.00">/internal/terminate.hpp</text>
</a>
</g>
</g>
<!-- Node15&#45;&gt;Node18 -->
<g id="edge30" class="edge">
<title>Node15&#45;&gt;Node18</title>
<path fill="none" stroke="#63b8ff" d="M830.3,-464.06C914.98,-459.3 1064.5,-436.54 1064.5,-335 1064.5,-335 1064.5,-335 1064.5,-267 1064.5,-229.76 1075.62,-187.84 1083.84,-161.92"/>
<polygon fill="#63b8ff" stroke="#63b8ff" points="1087.09,-163.24 1086.89,-152.65 1080.44,-161.05 1087.09,-163.24"/>
</g>
<!-- Node20 -->
<g id="node20" class="node">
<title>Node20</title>
<g id="a_node20"><a xlink:href="constructible_8hpp.html" target="_top" xlink:title=" ">
<polygon fill="white" stroke="#666666" points="971,-349 812,-349 812,-319 971,-319 971,-349"/>
<text text-anchor="start" x="820" y="-337" font-family="Helvetica,sans-Serif" font-size="10.00">proxsuite/linalg/veg</text>
<text text-anchor="middle" x="891.5" y="-326" font-family="Helvetica,sans-Serif" font-size="10.00">/type_traits/constructible.hpp</text>
</a>
</g>
</g>
<!-- Node15&#45;&gt;Node20 -->
<g id="edge34" class="edge">
<title>Node15&#45;&gt;Node20</title>
<path fill="none" stroke="#63b8ff" d="M820.51,-450.59C838.85,-442.78 858.54,-431.29 871.5,-415 883.76,-399.58 888.62,-377.63 890.49,-360.61"/>
<polygon fill="#63b8ff" stroke="#63b8ff" points="893.97,-361.02 891.27,-350.77 886.99,-360.47 893.97,-361.02"/>
</g>
<!-- Node22 -->
<g id="node22" class="node">
<title>Node22</title>
<g id="a_node22"><a xlink:href="ref_8hpp.html" target="_top" xlink:title=" ">
<polygon fill="white" stroke="#666666" points="633,-415 520,-415 520,-385 633,-385 633,-415"/>
<text text-anchor="start" x="528" y="-403" font-family="Helvetica,sans-Serif" font-size="10.00">proxsuite/linalg/veg</text>
<text text-anchor="middle" x="576.5" y="-392" font-family="Helvetica,sans-Serif" font-size="10.00">/ref.hpp</text>
</a>
</g>
</g>
<!-- Node15&#45;&gt;Node22 -->
<g id="edge40" class="edge">
<title>Node15&#45;&gt;Node22</title>
<path fill="none" stroke="#63b8ff" d="M729.29,-450.64C700.37,-441.24 662.37,-428.9 631.5,-418.87"/>
<polygon fill="#63b8ff" stroke="#63b8ff" points="632.94,-415.65 622.34,-415.89 630.77,-422.31 632.94,-415.65"/>
</g>
<!-- Node25 -->
<g id="node25" class="node">
<title>Node25</title>
<g id="a_node25"><a xlink:title=" ">
<polygon fill="#e0e0e0" stroke="#999999" points="798.5,-409.5 748.5,-409.5 748.5,-390.5 798.5,-390.5 798.5,-409.5"/>
<text text-anchor="middle" x="773.5" y="-397.5" font-family="Helvetica,sans-Serif" font-size="10.00">cstring</text>
</a>
</g>
</g>
<!-- Node15&#45;&gt;Node25 -->
<g id="edge52" class="edge">
<title>Node15&#45;&gt;Node25</title>
<path fill="none" stroke="#63b8ff" d="M773.5,-450.8C773.5,-442.09 773.5,-430.81 773.5,-421.18"/>
<polygon fill="#63b8ff" stroke="#63b8ff" points="777,-421.36 773.5,-411.36 770,-421.36 777,-421.36"/>
</g>
<!-- Node26 -->
<g id="node26" class="node">
<title>Node26</title>
<g id="a_node26"><a xlink:title=" ">
<polygon fill="#e0e0e0" stroke="#999999" points="862.5,-409.5 816.5,-409.5 816.5,-390.5 862.5,-390.5 862.5,-409.5"/>
<text text-anchor="middle" x="839.5" y="-397.5" font-family="Helvetica,sans-Serif" font-size="10.00">cstdio</text>
</a>
</g>
</g>
<!-- Node15&#45;&gt;Node26 -->
<g id="edge53" class="edge">
<title>Node15&#45;&gt;Node26</title>
<path fill="none" stroke="#63b8ff" d="M788.15,-450.8C798.24,-441.01 811.68,-427.98 822.28,-417.7"/>
<polygon fill="#63b8ff" stroke="#63b8ff" points="824.55,-420.37 829.29,-410.9 819.68,-415.35 824.55,-420.37"/>
</g>
<!-- Node16&#45;&gt;Node3 -->
<g id="edge26" class="edge">
<title>Node16&#45;&gt;Node3</title>
<path fill="none" stroke="#63b8ff" d="M678.31,-318.64C650.95,-309.32 615.08,-297.11 585.76,-287.13"/>
<polygon fill="#63b8ff" stroke="#63b8ff" points="586.9,-283.82 576.31,-283.91 584.65,-290.45 586.9,-283.82"/>
</g>
<!-- Node16&#45;&gt;Node11 -->
<g id="edge27" class="edge">
<title>Node16&#45;&gt;Node11</title>
<path fill="none" stroke="#63b8ff" d="M647.28,-323.95C583.01,-315.07 495.14,-300.35 464.5,-283 464.16,-282.81 342.91,-148.12 293.8,-93.55"/>
<polygon fill="#63b8ff" stroke="#63b8ff" points="296.61,-91.44 287.31,-86.35 291.4,-96.12 296.61,-91.44"/>
</g>
<!-- Node16&#45;&gt;Node13 -->
<g id="edge29" class="edge">
<title>Node16&#45;&gt;Node13</title>
<path fill="none" stroke="#63b8ff" d="M731.3,-318.65C745.27,-300.98 771.21,-271.08 799.5,-253 839.3,-227.56 870.65,-254.4 899.5,-217 926.37,-182.16 922.88,-127.78 917.77,-96.15"/>
<polygon fill="#63b8ff" stroke="#63b8ff" points="921.29,-95.93 916.07,-86.71 914.4,-97.18 921.29,-95.93"/>
</g>
<!-- Node17 -->
<g id="node17" class="node">
<title>Node17</title>
<g id="a_node17"><a xlink:title=" ">
<polygon fill="#e0e0e0" stroke="#999999" points="878,-277.5 809,-277.5 809,-258.5 878,-258.5 878,-277.5"/>
<text text-anchor="middle" x="843.5" y="-265.5" font-family="Helvetica,sans-Serif" font-size="10.00">type_traits</text>
</a>
</g>
</g>
<!-- Node16&#45;&gt;Node17 -->
<g id="edge28" class="edge">
<title>Node16&#45;&gt;Node17</title>
<path fill="none" stroke="#63b8ff" d="M748.1,-318.64C768.4,-308.08 795.85,-293.79 816.1,-283.26"/>
<polygon fill="#63b8ff" stroke="#63b8ff" points="817.63,-286.41 824.89,-278.68 814.4,-280.2 817.63,-286.41"/>
</g>
<!-- Node18&#45;&gt;Node11 -->
<g id="edge31" class="edge">
<title>Node18&#45;&gt;Node11</title>
<path fill="none" stroke="#63b8ff" d="M1027.69,-133.46C899.48,-129.8 604.32,-118.37 346.83,-85.19"/>
<polygon fill="#63b8ff" stroke="#63b8ff" points="347.63,-81.76 337.26,-83.94 346.73,-88.7 347.63,-81.76"/>
</g>
<!-- Node18&#45;&gt;Node13 -->
<g id="edge33" class="edge">
<title>Node18&#45;&gt;Node13</title>
<path fill="none" stroke="#63b8ff" d="M1052.1,-120.64C1026.03,-111.36 991.87,-99.22 963.86,-89.26"/>
<polygon fill="#63b8ff" stroke="#63b8ff" points="965.09,-85.98 954.5,-85.93 962.75,-92.58 965.09,-85.98"/>
</g>
<!-- Node19 -->
<g id="node19" class="node">
<title>Node19</title>
<g id="a_node19"><a xlink:title=" ">
<polygon fill="#e0e0e0" stroke="#999999" points="1125,-79.5 1060,-79.5 1060,-60.5 1125,-60.5 1125,-79.5"/>
<text text-anchor="middle" x="1092.5" y="-67.5" font-family="Helvetica,sans-Serif" font-size="10.00">exception</text>
</a>
</g>
</g>
<!-- Node18&#45;&gt;Node19 -->
<g id="edge32" class="edge">
<title>Node18&#45;&gt;Node19</title>
<path fill="none" stroke="#63b8ff" d="M1092.5,-120.8C1092.5,-112.09 1092.5,-100.81 1092.5,-91.18"/>
<polygon fill="#63b8ff" stroke="#63b8ff" points="1096,-91.36 1092.5,-81.36 1089,-91.36 1096,-91.36"/>
</g>
<!-- Node20&#45;&gt;Node3 -->
<g id="edge35" class="edge">
<title>Node20&#45;&gt;Node3</title>
<path fill="none" stroke="#63b8ff" d="M811.61,-319.39C754.22,-309.53 675.04,-295.75 605.5,-283 604.5,-282.82 603.49,-282.63 602.48,-282.44"/>
<polygon fill="#63b8ff" stroke="#63b8ff" points="603.41,-279.06 592.94,-280.67 602.13,-285.94 603.41,-279.06"/>
</g>
<!-- Node20&#45;&gt;Node11 -->
<g id="edge36" class="edge">
<title>Node20&#45;&gt;Node11</title>
<path fill="none" stroke="#63b8ff" d="M838.87,-318.55C733.94,-289.63 507.39,-226.56 492.5,-217 445.03,-186.54 455.89,-153.08 409.5,-121 389.59,-107.23 365.42,-96.74 343.02,-89.02"/>
<polygon fill="#63b8ff" stroke="#63b8ff" points="344.22,-85.73 333.63,-85.92 342.03,-92.38 344.22,-85.73"/>
</g>
<!-- Node20&#45;&gt;Node13 -->
<g id="edge39" class="edge">
<title>Node20&#45;&gt;Node13</title>
<path fill="none" stroke="#63b8ff" d="M912.25,-318.68C923.18,-309.82 935.53,-297.4 941.5,-283 951.04,-259.97 973.75,-264.77 937.5,-121 935.28,-112.2 931.35,-103.16 927.25,-95.23"/>
<polygon fill="#63b8ff" stroke="#63b8ff" points="930.35,-93.59 922.44,-86.55 924.23,-96.99 930.35,-93.59"/>
</g>
<!-- Node20&#45;&gt;Node17 -->
<g id="edge38" class="edge">
<title>Node20&#45;&gt;Node17</title>
<path fill="none" stroke="#63b8ff" d="M880.85,-318.8C873.8,-309.41 864.51,-297.02 856.96,-286.95"/>
<polygon fill="#63b8ff" stroke="#63b8ff" points="859.84,-284.96 851.04,-279.06 854.24,-289.16 859.84,-284.96"/>
</g>
<!-- Node21 -->
<g id="node21" class="node">
<title>Node21</title>
<g id="a_node21"><a xlink:title=" ">
<polygon fill="#e0e0e0" stroke="#999999" points="933,-277.5 896,-277.5 896,-258.5 933,-258.5 933,-277.5"/>
<text text-anchor="middle" x="914.5" y="-265.5" font-family="Helvetica,sans-Serif" font-size="10.00">new</text>
</a>
</g>
</g>
<!-- Node20&#45;&gt;Node21 -->
<g id="edge37" class="edge">
<title>Node20&#45;&gt;Node21</title>
<path fill="none" stroke="#63b8ff" d="M896.6,-318.8C899.8,-309.89 903.97,-298.3 907.48,-288.54"/>
<polygon fill="#63b8ff" stroke="#63b8ff" points="910.72,-289.86 910.81,-279.27 904.13,-287.5 910.72,-289.86"/>
</g>
<!-- Node22&#45;&gt;Node2 -->
<g id="edge41" class="edge">
<title>Node22&#45;&gt;Node2</title>
<path fill="none" stroke="#63b8ff" d="M566.73,-384.8C561.44,-377.09 554.75,-367.37 548.7,-358.56"/>
<polygon fill="#63b8ff" stroke="#63b8ff" points="551.64,-356.67 543.1,-350.41 545.88,-360.63 551.64,-356.67"/>
</g>
<!-- Node22&#45;&gt;Node11 -->
<g id="edge49" class="edge">
<title>Node22&#45;&gt;Node11</title>
<path fill="none" stroke="#63b8ff" d="M519.64,-394.3C449.66,-387.57 335.85,-373.23 301.5,-349 267.99,-325.36 255.5,-310.01 255.5,-269 255.5,-269 255.5,-269 255.5,-201 255.5,-164.41 262.58,-122.58 267.86,-96.47"/>
<polygon fill="#63b8ff" stroke="#63b8ff" points="271.26,-97.33 269.89,-86.82 264.41,-95.89 271.26,-97.33"/>
</g>
<!-- Node22&#45;&gt;Node13 -->
<g id="edge50" class="edge">
<title>Node22&#45;&gt;Node13</title>
<path fill="none" stroke="#63b8ff" d="M584.66,-384.55C595.16,-367.04 614.9,-337.59 638.5,-319 669.13,-294.87 684.69,-302.43 718.5,-283 738.39,-271.57 740.42,-264.08 760.5,-253 797.5,-232.58 818.25,-246.51 848.5,-217 882.75,-183.58 899.93,-128.7 907.48,-96.6"/>
<polygon fill="#63b8ff" stroke="#63b8ff" points="910.86,-97.5 909.59,-86.98 904.02,-96 910.86,-97.5"/>
</g>
<!-- Node22&#45;&gt;Node20 -->
<g id="edge42" class="edge">
<title>Node22&#45;&gt;Node20</title>
<path fill="none" stroke="#63b8ff" d="M633.18,-387.48C682.23,-377.52 753.79,-362.98 809.16,-351.73"/>
<polygon fill="#63b8ff" stroke="#63b8ff" points="809.77,-355.18 818.88,-349.76 808.38,-348.32 809.77,-355.18"/>
</g>
<!-- Node23 -->
<g id="node23" class="node">
<title>Node23</title>
<g id="a_node23"><a xlink:href="address_8hpp.html" target="_top" xlink:title=" ">
<polygon fill="white" stroke="#666666" points="434,-349 311,-349 311,-319 434,-319 434,-349"/>
<text text-anchor="start" x="319" y="-337" font-family="Helvetica,sans-Serif" font-size="10.00">proxsuite/linalg/veg</text>
<text text-anchor="middle" x="372.5" y="-326" font-family="Helvetica,sans-Serif" font-size="10.00">/memory/address.hpp</text>
</a>
</g>
</g>
<!-- Node22&#45;&gt;Node23 -->
<g id="edge43" class="edge">
<title>Node22&#45;&gt;Node23</title>
<path fill="none" stroke="#63b8ff" d="M530.46,-384.56C500.5,-375.16 461.22,-362.83 429.32,-352.82"/>
<polygon fill="#63b8ff" stroke="#63b8ff" points="430.4,-349.5 419.81,-349.84 428.31,-356.18 430.4,-349.5"/>
</g>
<!-- Node23&#45;&gt;Node3 -->
<g id="edge44" class="edge">
<title>Node23&#45;&gt;Node3</title>
<path fill="none" stroke="#63b8ff" d="M408.41,-318.64C431.28,-309.49 461.15,-297.54 485.85,-287.66"/>
<polygon fill="#63b8ff" stroke="#63b8ff" points="487.05,-290.95 495.03,-283.99 484.45,-284.45 487.05,-290.95"/>
</g>
<!-- Node23&#45;&gt;Node11 -->
<g id="edge46" class="edge">
<title>Node23&#45;&gt;Node11</title>
<path fill="none" stroke="#63b8ff" d="M348.17,-318.62C335.56,-309.9 321.05,-297.63 312.5,-283 277.42,-223 272.72,-138.47 272.77,-96.59"/>
<polygon fill="#63b8ff" stroke="#63b8ff" points="276.27,-96.82 272.89,-86.78 269.27,-96.74 276.27,-96.82"/>
</g>
<!-- Node23&#45;&gt;Node13 -->
<g id="edge48" class="edge">
<title>Node23&#45;&gt;Node13</title>
<path fill="none" stroke="#63b8ff" d="M434.29,-321.58C490.77,-310.74 569.86,-294.46 599.5,-283 654.47,-261.75 665.15,-249.21 714.5,-217 777.81,-175.69 848.23,-121.71 885.66,-92.33"/>
<polygon fill="#63b8ff" stroke="#63b8ff" points="887.56,-95.28 893.25,-86.35 883.23,-89.78 887.56,-95.28"/>
</g>
<!-- Node23&#45;&gt;Node14 -->
<g id="edge45" class="edge">
<title>Node23&#45;&gt;Node14</title>
<path fill="none" stroke="#63b8ff" d="M337.48,-318.59C280.06,-294.97 165.93,-248.02 102.21,-221.81"/>
<polygon fill="#63b8ff" stroke="#63b8ff" points="103.66,-218.62 93.08,-218.05 101,-225.09 103.66,-218.62"/>
</g>
<!-- Node24 -->
<g id="node24" class="node">
<title>Node24</title>
<g id="a_node24"><a xlink:title=" ">
<polygon fill="#e0e0e0" stroke="#999999" points="379.5,-277.5 321.5,-277.5 321.5,-258.5 379.5,-258.5 379.5,-277.5"/>
<text text-anchor="middle" x="350.5" y="-265.5" font-family="Helvetica,sans-Serif" font-size="10.00">memory</text>
</a>
</g>
</g>
<!-- Node23&#45;&gt;Node24 -->
<g id="edge47" class="edge">
<title>Node23&#45;&gt;Node24</title>
<path fill="none" stroke="#63b8ff" d="M367.62,-318.8C364.56,-309.89 360.57,-298.3 357.22,-288.54"/>
<polygon fill="#63b8ff" stroke="#63b8ff" points="360.59,-287.59 354.03,-279.28 353.97,-289.87 360.59,-287.59"/>
</g>
</g>
</svg>
