<?xml version="1.0" encoding="UTF-8" standalone="no"?>
<!DOCTYPE svg PUBLIC "-//W3C//DTD SVG 1.1//EN"
 "http://www.w3.org/Graphics/SVG/1.1/DTD/svg11.dtd">
<!-- Generated by graphviz version 6.0.2 (20221126.1951)
 -->
<!-- Title: include/proxsuite/linalg/veg/internal/fix_index.hpp Pages: 1 -->
<svg width="1195pt" height="555pt"
 viewBox="0.00 0.00 1195.33 555.00" xmlns="http://www.w3.org/2000/svg" xmlns:xlink="http://www.w3.org/1999/xlink">
<g id="graph0" class="graph" transform="scale(1 1) rotate(0) translate(4 551)">
<title>include/proxsuite/linalg/veg/internal/fix_index.hpp</title>
<!-- Node1 -->
<g id="node1" class="node">
<title>Node1</title>
<g id="a_node1"><a xlink:title=" ">
<polygon fill="#999999" stroke="#666666" points="252.5,-547 106.5,-547 106.5,-517 252.5,-517 252.5,-547"/>
<text text-anchor="start" x="114.5" y="-535" font-family="Helvetica,sans-Serif" font-size="10.00">include/proxsuite/linalg</text>
<text text-anchor="middle" x="179.5" y="-524" font-family="Helvetica,sans-Serif" font-size="10.00">/veg/internal/fix_index.hpp</text>
</a>
</g>
</g>
<!-- Node2 -->
<g id="node2" class="node">
<title>Node2</title>
<g id="a_node2"><a xlink:href="tags_8hpp.html" target="_top" xlink:title=" ">
<polygon fill="white" stroke="#666666" points="592,-349 475,-349 475,-319 592,-319 592,-349"/>
<text text-anchor="start" x="483" y="-337" font-family="Helvetica,sans-Serif" font-size="10.00">proxsuite/linalg/veg</text>
<text text-anchor="middle" x="533.5" y="-326" font-family="Helvetica,sans-Serif" font-size="10.00">/type_traits/tags.hpp</text>
</a>
</g>
</g>
<!-- Node1&#45;&gt;Node2 -->
<g id="edge1" class="edge">
<title>Node1&#45;&gt;Node2</title>
<path fill="none" stroke="#63b8ff" d="M204.96,-516.9C267.32,-482.38 427.77,-393.54 498.79,-354.22"/>
<polygon fill="#63b8ff" stroke="#63b8ff" points="500.74,-357.14 507.8,-349.23 497.35,-351.01 500.74,-357.14"/>
</g>
<!-- Node11 -->
<g id="node11" class="node">
<title>Node11</title>
<g id="a_node11"><a xlink:href="prologue_8hpp.html" target="_top" xlink:title=" ">
<polygon fill="white" stroke="#666666" points="335.5,-85 211.5,-85 211.5,-55 335.5,-55 335.5,-85"/>
<text text-anchor="start" x="219.5" y="-73" font-family="Helvetica,sans-Serif" font-size="10.00">proxsuite/linalg/veg</text>
<text text-anchor="middle" x="273.5" y="-62" font-family="Helvetica,sans-Serif" font-size="10.00">/internal/prologue.hpp</text>
</a>
</g>
</g>
<!-- Node1&#45;&gt;Node11 -->
<g id="edge55" class="edge">
<title>Node1&#45;&gt;Node11</title>
<path fill="none" stroke="#63b8ff" d="M172.53,-516.97C161.56,-493.54 141.5,-444.74 141.5,-401 141.5,-401 141.5,-401 141.5,-201 141.5,-149.04 194.07,-110.89 232.85,-89.81"/>
<polygon fill="#63b8ff" stroke="#63b8ff" points="234.65,-92.82 241.88,-85.07 231.4,-86.62 234.65,-92.82"/>
</g>
<!-- Node13 -->
<g id="node13" class="node">
<title>Node13</title>
<g id="a_node13"><a xlink:href="epilogue_8hpp.html" target="_top" xlink:title=" ">
<polygon fill="white" stroke="#666666" points="974,-85 851,-85 851,-55 974,-55 974,-85"/>
<text text-anchor="start" x="859" y="-73" font-family="Helvetica,sans-Serif" font-size="10.00">proxsuite/linalg/veg</text>
<text text-anchor="middle" x="912.5" y="-62" font-family="Helvetica,sans-Serif" font-size="10.00">/internal/epilogue.hpp</text>
</a>
</g>
</g>
<!-- Node1&#45;&gt;Node13 -->
<g id="edge56" class="edge">
<title>Node1&#45;&gt;Node13</title>
<path fill="none" stroke="#63b8ff" d="M252.66,-529.24C484.16,-522.69 1185.5,-495.11 1185.5,-401 1185.5,-401 1185.5,-401 1185.5,-201 1185.5,-164.46 1192.84,-146.33 1166.5,-121 1153.36,-108.36 1054.82,-91.66 984.43,-81.12"/>
<polygon fill="#63b8ff" stroke="#63b8ff" points="984.67,-77.61 974.26,-79.61 983.64,-84.54 984.67,-77.61"/>
</g>
<!-- Node14 -->
<g id="node14" class="node">
<title>Node14</title>
<g id="a_node14"><a xlink:href="std_8hpp.html" target="_top" xlink:title=" ">
<polygon fill="white" stroke="#666666" points="113,-217 0,-217 0,-187 113,-187 113,-217"/>
<text text-anchor="start" x="8" y="-205" font-family="Helvetica,sans-Serif" font-size="10.00">proxsuite/linalg/veg</text>
<text text-anchor="middle" x="56.5" y="-194" font-family="Helvetica,sans-Serif" font-size="10.00">/internal/std.hpp</text>
</a>
</g>
</g>
<!-- Node1&#45;&gt;Node14 -->
<g id="edge21" class="edge">
<title>Node1&#45;&gt;Node14</title>
<path fill="none" stroke="#63b8ff" d="M158.5,-516.93C129.44,-495.59 80.5,-452.06 80.5,-401 80.5,-401 80.5,-401 80.5,-333 80.5,-295.48 70.71,-252.87 63.64,-226.97"/>
<polygon fill="#63b8ff" stroke="#63b8ff" points="66.99,-225.94 60.9,-217.27 60.25,-227.84 66.99,-225.94"/>
</g>
<!-- Node15 -->
<g id="node15" class="node">
<title>Node15</title>
<g id="a_node15"><a xlink:href="internal_2dbg_8hpp.html" target="_top" xlink:title=" ">
<polygon fill="white" stroke="#666666" points="831,-481 718,-481 718,-451 831,-451 831,-481"/>
<text text-anchor="start" x="726" y="-469" font-family="Helvetica,sans-Serif" font-size="10.00">proxsuite/linalg/veg</text>
<text text-anchor="middle" x="774.5" y="-458" font-family="Helvetica,sans-Serif" font-size="10.00">/internal/dbg.hpp</text>
</a>
</g>
</g>
<!-- Node1&#45;&gt;Node15 -->
<g id="edge24" class="edge">
<title>Node1&#45;&gt;Node15</title>
<path fill="none" stroke="#63b8ff" d="M252.76,-523.12C369.33,-510.58 595.32,-486.27 707.7,-474.19"/>
<polygon fill="#63b8ff" stroke="#63b8ff" points="708.32,-477.64 717.89,-473.09 707.57,-470.68 708.32,-477.64"/>
</g>
<!-- Node3 -->
<g id="node3" class="node">
<title>Node3</title>
<g id="a_node3"><a xlink:href="veg_2type__traits_2core_8hpp.html" target="_top" xlink:title=" ">
<polygon fill="white" stroke="#666666" points="592,-283 475,-283 475,-253 592,-253 592,-283"/>
<text text-anchor="start" x="483" y="-271" font-family="Helvetica,sans-Serif" font-size="10.00">proxsuite/linalg/veg</text>
<text text-anchor="middle" x="533.5" y="-260" font-family="Helvetica,sans-Serif" font-size="10.00">/type_traits/core.hpp</text>
</a>
</g>
</g>
<!-- Node2&#45;&gt;Node3 -->
<g id="edge2" class="edge">
<title>Node2&#45;&gt;Node3</title>
<path fill="none" stroke="#63b8ff" d="M533.5,-318.8C533.5,-311.34 533.5,-301.99 533.5,-293.41"/>
<polygon fill="#63b8ff" stroke="#63b8ff" points="537,-293.16 533.5,-283.16 530,-293.16 537,-293.16"/>
</g>
<!-- Node2&#45;&gt;Node11 -->
<g id="edge19" class="edge">
<title>Node2&#45;&gt;Node11</title>
<path fill="none" stroke="#63b8ff" d="M499.22,-318.88C478.84,-309.84 452.87,-297.17 431.5,-283 394.21,-258.28 383.76,-251.68 355.5,-217 323.66,-177.92 297.33,-124.8 283.66,-94.59"/>
<polygon fill="#63b8ff" stroke="#63b8ff" points="286.78,-92.99 279.51,-85.27 280.38,-95.83 286.78,-92.99"/>
</g>
<!-- Node2&#45;&gt;Node13 -->
<g id="edge20" class="edge">
<title>Node2&#45;&gt;Node13</title>
<path fill="none" stroke="#63b8ff" d="M583.96,-318.99C612.87,-310.2 649.45,-297.74 680.5,-283 703.23,-272.21 705.96,-264.18 728.5,-253 768.95,-232.94 790,-247.27 823.5,-217 858.9,-185.02 845.55,-161.03 871.5,-121 877.79,-111.29 885.67,-101.3 892.82,-92.82"/>
<polygon fill="#63b8ff" stroke="#63b8ff" points="895.5,-95.07 899.39,-85.22 890.21,-90.49 895.5,-95.07"/>
</g>
<!-- Node4 -->
<g id="node4" class="node">
<title>Node4</title>
<g id="a_node4"><a xlink:href="typedefs_8hpp.html" target="_top" xlink:title=" ">
<polygon fill="white" stroke="#666666" points="832.5,-85 708.5,-85 708.5,-55 832.5,-55 832.5,-85"/>
<text text-anchor="start" x="716.5" y="-73" font-family="Helvetica,sans-Serif" font-size="10.00">proxsuite/linalg/veg</text>
<text text-anchor="middle" x="770.5" y="-62" font-family="Helvetica,sans-Serif" font-size="10.00">/internal/typedefs.hpp</text>
</a>
</g>
</g>
<!-- Node3&#45;&gt;Node4 -->
<g id="edge3" class="edge">
<title>Node3&#45;&gt;Node4</title>
<path fill="none" stroke="#63b8ff" d="M578.67,-252.91C601.01,-244.62 627.58,-232.65 648.5,-217 695.44,-181.88 735.93,-125.28 756.36,-93.87"/>
<polygon fill="#63b8ff" stroke="#63b8ff" points="759.37,-95.66 761.8,-85.34 753.47,-91.88 759.37,-95.66"/>
</g>
<!-- Node7 -->
<g id="node7" class="node">
<title>Node7</title>
<g id="a_node7"><a xlink:href="integer__seq_8hpp.html" target="_top" xlink:title=" ">
<polygon fill="white" stroke="#666666" points="639.5,-217 501.5,-217 501.5,-187 639.5,-187 639.5,-217"/>
<text text-anchor="start" x="509.5" y="-205" font-family="Helvetica,sans-Serif" font-size="10.00">proxsuite/linalg/veg</text>
<text text-anchor="middle" x="570.5" y="-194" font-family="Helvetica,sans-Serif" font-size="10.00">/internal/integer_seq.hpp</text>
</a>
</g>
</g>
<!-- Node3&#45;&gt;Node7 -->
<g id="edge6" class="edge">
<title>Node3&#45;&gt;Node7</title>
<path fill="none" stroke="#63b8ff" d="M541.71,-252.8C546.26,-244.92 552.03,-234.95 557.21,-225.99"/>
<polygon fill="#63b8ff" stroke="#63b8ff" points="560.34,-227.57 562.31,-217.16 554.28,-224.07 560.34,-227.57"/>
</g>
<!-- Node3&#45;&gt;Node11 -->
<g id="edge17" class="edge">
<title>Node3&#45;&gt;Node11</title>
<path fill="none" stroke="#63b8ff" d="M500.5,-252.97C482.82,-244.36 461.47,-232.08 445.5,-217 408.58,-182.12 421.95,-154.18 383.5,-121 367.6,-107.28 347.32,-96.65 328.52,-88.78"/>
<polygon fill="#63b8ff" stroke="#63b8ff" points="329.72,-85.5 319.14,-85.03 327.12,-92 329.72,-85.5"/>
</g>
<!-- Node3&#45;&gt;Node13 -->
<g id="edge18" class="edge">
<title>Node3&#45;&gt;Node13</title>
<path fill="none" stroke="#63b8ff" d="M589.59,-252.96C617.62,-244.68 651.45,-232.71 679.5,-217 737.88,-184.29 738.36,-155.84 795.5,-121 816.35,-108.28 841.02,-97.23 862.31,-88.76"/>
<polygon fill="#63b8ff" stroke="#63b8ff" points="863.78,-91.95 871.83,-85.06 861.24,-85.42 863.78,-91.95"/>
</g>
<!-- Node5 -->
<g id="node5" class="node">
<title>Node5</title>
<g id="a_node5"><a xlink:title=" ">
<polygon fill="#e0e0e0" stroke="#999999" points="416.5,-19 366.5,-19 366.5,0 416.5,0 416.5,-19"/>
<text text-anchor="middle" x="391.5" y="-7" font-family="Helvetica,sans-Serif" font-size="10.00">cstdint</text>
</a>
</g>
</g>
<!-- Node4&#45;&gt;Node5 -->
<g id="edge4" class="edge">
<title>Node4&#45;&gt;Node5</title>
<path fill="none" stroke="#63b8ff" d="M708.48,-56.74C705.11,-56.14 701.76,-55.55 698.5,-55 600.28,-38.34 483.7,-22.52 426.59,-15.03"/>
<polygon fill="#63b8ff" stroke="#63b8ff" points="427,-11.55 416.63,-13.73 426.1,-18.49 427,-11.55"/>
</g>
<!-- Node6 -->
<g id="node6" class="node">
<title>Node6</title>
<g id="a_node6"><a xlink:title=" ">
<polygon fill="#e0e0e0" stroke="#999999" points="797,-19 744,-19 744,0 797,0 797,-19"/>
<text text-anchor="middle" x="770.5" y="-7" font-family="Helvetica,sans-Serif" font-size="10.00">cstddef</text>
</a>
</g>
</g>
<!-- Node4&#45;&gt;Node6 -->
<g id="edge5" class="edge">
<title>Node4&#45;&gt;Node6</title>
<path fill="none" stroke="#63b8ff" d="M770.5,-54.84C770.5,-47.21 770.5,-37.7 770.5,-29.45"/>
<polygon fill="#63b8ff" stroke="#63b8ff" points="774,-29.27 770.5,-19.27 767,-29.27 774,-29.27"/>
</g>
<!-- Node7&#45;&gt;Node4 -->
<g id="edge7" class="edge">
<title>Node7&#45;&gt;Node4</title>
<path fill="none" stroke="#63b8ff" d="M589.72,-186.75C616.45,-166.99 663.58,-132.44 681.5,-121 698.48,-110.16 717.93,-99.08 734.31,-90.12"/>
<polygon fill="#63b8ff" stroke="#63b8ff" points="736.44,-92.95 743.56,-85.11 733.1,-86.8 736.44,-92.95"/>
</g>
<!-- Node8 -->
<g id="node8" class="node">
<title>Node8</title>
<g id="a_node8"><a xlink:href="macros_8hpp.html" target="_top" xlink:title=" ">
<polygon fill="white" stroke="#666666" points="629,-151 512,-151 512,-121 629,-121 629,-151"/>
<text text-anchor="start" x="520" y="-139" font-family="Helvetica,sans-Serif" font-size="10.00">proxsuite/linalg/veg</text>
<text text-anchor="middle" x="570.5" y="-128" font-family="Helvetica,sans-Serif" font-size="10.00">/internal/macros.hpp</text>
</a>
</g>
</g>
<!-- Node7&#45;&gt;Node8 -->
<g id="edge8" class="edge">
<title>Node7&#45;&gt;Node8</title>
<path fill="none" stroke="#63b8ff" d="M570.5,-186.8C570.5,-179.34 570.5,-169.99 570.5,-161.41"/>
<polygon fill="#63b8ff" stroke="#63b8ff" points="574,-161.16 570.5,-151.16 567,-161.16 574,-161.16"/>
</g>
<!-- Node7&#45;&gt;Node11 -->
<g id="edge15" class="edge">
<title>Node7&#45;&gt;Node11</title>
<path fill="none" stroke="#63b8ff" d="M551.26,-186.86C520.82,-164.53 464.49,-123.37 459.5,-121 439.12,-111.31 388.51,-97.94 345.23,-87.46"/>
<polygon fill="#63b8ff" stroke="#63b8ff" points="345.81,-84 335.27,-85.07 344.17,-90.81 345.81,-84"/>
</g>
<!-- Node7&#45;&gt;Node13 -->
<g id="edge16" class="edge">
<title>Node7&#45;&gt;Node13</title>
<path fill="none" stroke="#63b8ff" d="M600.92,-186.96C637.64,-170.25 701.44,-141.98 757.5,-121 789.5,-109.02 825.83,-97.21 855.26,-88.08"/>
<polygon fill="#63b8ff" stroke="#63b8ff" points="856.44,-91.38 864.97,-85.09 854.38,-84.69 856.44,-91.38"/>
</g>
<!-- Node8&#45;&gt;Node4 -->
<g id="edge10" class="edge">
<title>Node8&#45;&gt;Node4</title>
<path fill="none" stroke="#63b8ff" d="M614.39,-120.95C644.61,-111.28 684.94,-98.38 717.04,-88.11"/>
<polygon fill="#63b8ff" stroke="#63b8ff" points="718.25,-91.39 726.71,-85.01 716.12,-84.73 718.25,-91.39"/>
</g>
<!-- Node9 -->
<g id="node9" class="node">
<title>Node9</title>
<g id="a_node9"><a xlink:href="hedley_8ext_8hpp.html" target="_top" xlink:title=" ">
<polygon fill="white" stroke="#666666" points="690,-85 515,-85 515,-55 690,-55 690,-85"/>
<text text-anchor="start" x="523" y="-73" font-family="Helvetica,sans-Serif" font-size="10.00">proxsuite/linalg/veg</text>
<text text-anchor="middle" x="602.5" y="-62" font-family="Helvetica,sans-Serif" font-size="10.00">/internal/external/hedley.ext.hpp</text>
</a>
</g>
</g>
<!-- Node8&#45;&gt;Node9 -->
<g id="edge9" class="edge">
<title>Node8&#45;&gt;Node9</title>
<path fill="none" stroke="#63b8ff" d="M577.6,-120.8C581.5,-113.01 586.42,-103.16 590.86,-94.28"/>
<polygon fill="#63b8ff" stroke="#63b8ff" points="594.08,-95.67 595.42,-85.16 587.82,-92.54 594.08,-95.67"/>
</g>
<!-- Node10 -->
<g id="node10" class="node">
<title>Node10</title>
<g id="a_node10"><a xlink:href="preprocessor_8hpp.html" target="_top" xlink:title=" ">
<polygon fill="white" stroke="#666666" points="497,-85 354,-85 354,-55 497,-55 497,-85"/>
<text text-anchor="start" x="362" y="-73" font-family="Helvetica,sans-Serif" font-size="10.00">proxsuite/linalg/veg</text>
<text text-anchor="middle" x="425.5" y="-62" font-family="Helvetica,sans-Serif" font-size="10.00">/internal/preprocessor.hpp</text>
</a>
</g>
</g>
<!-- Node8&#45;&gt;Node10 -->
<g id="edge11" class="edge">
<title>Node8&#45;&gt;Node10</title>
<path fill="none" stroke="#63b8ff" d="M538.68,-120.95C517.53,-111.62 489.54,-99.27 466.69,-89.18"/>
<polygon fill="#63b8ff" stroke="#63b8ff" points="467.81,-85.85 457.25,-85.01 464.98,-92.25 467.81,-85.85"/>
</g>
<!-- Node8&#45;&gt;Node11 -->
<g id="edge12" class="edge">
<title>Node8&#45;&gt;Node11</title>
<path fill="none" stroke="#63b8ff" d="M511.82,-122.36C464.12,-112.08 396.6,-97.53 345.61,-86.54"/>
<polygon fill="#63b8ff" stroke="#63b8ff" points="346.15,-83.08 335.64,-84.39 344.68,-89.92 346.15,-83.08"/>
</g>
<!-- Node12 -->
<g id="node12" class="node">
<title>Node12</title>
<g id="a_node12"><a xlink:title=" ">
<polygon fill="#e0e0e0" stroke="#999999" points="186,-79.5 103,-79.5 103,-60.5 186,-60.5 186,-79.5"/>
<text text-anchor="middle" x="144.5" y="-67.5" font-family="Helvetica,sans-Serif" font-size="10.00">initializer_list</text>
</a>
</g>
</g>
<!-- Node8&#45;&gt;Node12 -->
<g id="edge13" class="edge">
<title>Node8&#45;&gt;Node12</title>
<path fill="none" stroke="#63b8ff" d="M511.89,-128.9C439.02,-120.89 311.01,-105.41 202.5,-85 197.48,-84.05 192.23,-82.95 187.04,-81.79"/>
<polygon fill="#63b8ff" stroke="#63b8ff" points="187.73,-78.36 177.19,-79.51 186.15,-85.18 187.73,-78.36"/>
</g>
<!-- Node8&#45;&gt;Node13 -->
<g id="edge14" class="edge">
<title>Node8&#45;&gt;Node13</title>
<path fill="none" stroke="#63b8ff" d="M629.22,-124.38C681.88,-114.81 761.56,-100.2 840.78,-85.12"/>
<polygon fill="#63b8ff" stroke="#63b8ff" points="841.77,-88.5 850.94,-83.19 840.46,-81.62 841.77,-88.5"/>
</g>
<!-- Node14&#45;&gt;Node5 -->
<g id="edge22" class="edge">
<title>Node14&#45;&gt;Node5</title>
<path fill="none" stroke="#63b8ff" d="M55.4,-186.82C53.98,-157.39 55.3,-89.56 93.5,-55 131.5,-20.62 285.91,-12.8 356.27,-11.02"/>
<polygon fill="#63b8ff" stroke="#63b8ff" points="356.49,-14.52 366.41,-10.79 356.33,-7.52 356.49,-14.52"/>
</g>
<!-- Node14&#45;&gt;Node12 -->
<g id="edge23" class="edge">
<title>Node14&#45;&gt;Node12</title>
<path fill="none" stroke="#63b8ff" d="M66.09,-186.84C82.35,-162.81 115.3,-114.13 132.86,-88.19"/>
<polygon fill="#63b8ff" stroke="#63b8ff" points="135.87,-89.99 138.58,-79.75 130.07,-86.07 135.87,-89.99"/>
</g>
<!-- Node15&#45;&gt;Node11 -->
<g id="edge51" class="edge">
<title>Node15&#45;&gt;Node11</title>
<path fill="none" stroke="#63b8ff" d="M717.92,-459.91C598.65,-447.98 327.32,-414.19 265.5,-349 198.86,-278.73 241.56,-147.92 263.17,-94.57"/>
<polygon fill="#63b8ff" stroke="#63b8ff" points="266.43,-95.83 267.05,-85.26 259.97,-93.14 266.43,-95.83"/>
</g>
<!-- Node15&#45;&gt;Node13 -->
<g id="edge54" class="edge">
<title>Node15&#45;&gt;Node13</title>
<path fill="none" stroke="#63b8ff" d="M831.28,-457.26C897.93,-444.61 999.5,-412.6 999.5,-335 999.5,-335 999.5,-335 999.5,-201 999.5,-156.45 963.78,-115.62 938.12,-92.03"/>
<polygon fill="#63b8ff" stroke="#63b8ff" points="940.32,-89.31 930.53,-85.28 935.67,-94.54 940.32,-89.31"/>
</g>
<!-- Node16 -->
<g id="node16" class="node">
<title>Node16</title>
<g id="a_node16"><a xlink:href="primitives_8hpp.html" target="_top" xlink:title=" ">
<polygon fill="white" stroke="#666666" points="794.5,-349 648.5,-349 648.5,-319 794.5,-319 794.5,-349"/>
<text text-anchor="start" x="656.5" y="-337" font-family="Helvetica,sans-Serif" font-size="10.00">proxsuite/linalg/veg</text>
<text text-anchor="middle" x="721.5" y="-326" font-family="Helvetica,sans-Serif" font-size="10.00">/type_traits/primitives.hpp</text>
</a>
</g>
</g>
<!-- Node15&#45;&gt;Node16 -->
<g id="edge25" class="edge">
<title>Node15&#45;&gt;Node16</title>
<path fill="none" stroke="#63b8ff" d="M762.89,-450.95C755.49,-441.36 746.26,-428.06 740.5,-415 732.64,-397.17 727.76,-375.61 724.92,-359.37"/>
<polygon fill="#63b8ff" stroke="#63b8ff" points="728.31,-358.4 723.26,-349.08 721.4,-359.51 728.31,-358.4"/>
</g>
<!-- Node18 -->
<g id="node18" class="node">
<title>Node18</title>
<g id="a_node18"><a xlink:href="terminate_8hpp.html" target="_top" xlink:title=" ">
<polygon fill="white" stroke="#666666" points="1157,-151 1028,-151 1028,-121 1157,-121 1157,-151"/>
<text text-anchor="start" x="1036" y="-139" font-family="Helvetica,sans-Serif" font-size="10.00">proxsuite/linalg/veg</text>
<text text-anchor="middle" x="1092.5" y="-128" font-family="Helvetica,sans-Serif" font-size="10.00">/internal/terminate.hpp</text>
</a>
</g>
</g>
<!-- Node15&#45;&gt;Node18 -->
<g id="edge30" class="edge">
<title>Node15&#45;&gt;Node18</title>
<path fill="none" stroke="#63b8ff" d="M831.1,-463.99C915.5,-459.14 1064.5,-436.25 1064.5,-335 1064.5,-335 1064.5,-335 1064.5,-267 1064.5,-229.26 1075.92,-186.71 1084.17,-160.88"/>
<polygon fill="#63b8ff" stroke="#63b8ff" points="1087.55,-161.81 1087.36,-151.21 1080.9,-159.61 1087.55,-161.81"/>
</g>
<!-- Node20 -->
<g id="node20" class="node">
<title>Node20</title>
<g id="a_node20"><a xlink:href="constructible_8hpp.html" target="_top" xlink:title=" ">
<polygon fill="white" stroke="#666666" points="972,-349 813,-349 813,-319 972,-319 972,-349"/>
<text text-anchor="start" x="821" y="-337" font-family="Helvetica,sans-Serif" font-size="10.00">proxsuite/linalg/veg</text>
<text text-anchor="middle" x="892.5" y="-326" font-family="Helvetica,sans-Serif" font-size="10.00">/type_traits/constructible.hpp</text>
</a>
</g>
</g>
<!-- Node15&#45;&gt;Node20 -->
<g id="edge34" class="edge">
<title>Node15&#45;&gt;Node20</title>
<path fill="none" stroke="#63b8ff" d="M820.75,-450.91C839.31,-443.09 859.36,-431.52 872.5,-415 885,-399.28 889.81,-376.77 891.6,-359.63"/>
<polygon fill="#63b8ff" stroke="#63b8ff" points="895.12,-359.5 892.39,-349.27 888.14,-358.97 895.12,-359.5"/>
</g>
<!-- Node22 -->
<g id="node22" class="node">
<title>Node22</title>
<g id="a_node22"><a xlink:href="ref_8hpp.html" target="_top" xlink:title=" ">
<polygon fill="white" stroke="#666666" points="634,-415 521,-415 521,-385 634,-385 634,-415"/>
<text text-anchor="start" x="529" y="-403" font-family="Helvetica,sans-Serif" font-size="10.00">proxsuite/linalg/veg</text>
<text text-anchor="middle" x="577.5" y="-392" font-family="Helvetica,sans-Serif" font-size="10.00">/ref.hpp</text>
</a>
</g>
</g>
<!-- Node15&#45;&gt;Node22 -->
<g id="edge40" class="edge">
<title>Node15&#45;&gt;Node22</title>
<path fill="none" stroke="#63b8ff" d="M731.27,-450.95C701.5,-441.28 661.78,-428.38 630.16,-418.11"/>
<polygon fill="#63b8ff" stroke="#63b8ff" points="631.22,-414.77 620.63,-415.01 629.06,-421.43 631.22,-414.77"/>
</g>
<!-- Node25 -->
<g id="node25" class="node">
<title>Node25</title>
<g id="a_node25"><a xlink:title=" ">
<polygon fill="#e0e0e0" stroke="#999999" points="799.5,-409.5 749.5,-409.5 749.5,-390.5 799.5,-390.5 799.5,-409.5"/>
<text text-anchor="middle" x="774.5" y="-397.5" font-family="Helvetica,sans-Serif" font-size="10.00">cstring</text>
</a>
</g>
</g>
<!-- Node15&#45;&gt;Node25 -->
<g id="edge52" class="edge">
<title>Node15&#45;&gt;Node25</title>
<path fill="none" stroke="#63b8ff" d="M774.5,-450.8C774.5,-441.7 774.5,-429.79 774.5,-419.9"/>
<polygon fill="#63b8ff" stroke="#63b8ff" points="778,-419.84 774.5,-409.84 771,-419.84 778,-419.84"/>
</g>
<!-- Node26 -->
<g id="node26" class="node">
<title>Node26</title>
<g id="a_node26"><a xlink:title=" ">
<polygon fill="#e0e0e0" stroke="#999999" points="863.5,-409.5 817.5,-409.5 817.5,-390.5 863.5,-390.5 863.5,-409.5"/>
<text text-anchor="middle" x="840.5" y="-397.5" font-family="Helvetica,sans-Serif" font-size="10.00">cstdio</text>
</a>
</g>
</g>
<!-- Node15&#45;&gt;Node26 -->
<g id="edge53" class="edge">
<title>Node15&#45;&gt;Node26</title>
<path fill="none" stroke="#63b8ff" d="M789.15,-450.8C799.44,-440.82 813.22,-427.46 823.91,-417.09"/>
<polygon fill="#63b8ff" stroke="#63b8ff" points="826.64,-419.32 831.38,-409.84 821.76,-414.29 826.64,-419.32"/>
</g>
<!-- Node16&#45;&gt;Node3 -->
<g id="edge26" class="edge">
<title>Node16&#45;&gt;Node3</title>
<path fill="none" stroke="#63b8ff" d="M680.24,-318.95C651.96,-309.33 614.25,-296.49 584.15,-286.24"/>
<polygon fill="#63b8ff" stroke="#63b8ff" points="585.26,-282.92 574.66,-283.01 583,-289.55 585.26,-282.92"/>
</g>
<!-- Node16&#45;&gt;Node11 -->
<g id="edge27" class="edge">
<title>Node16&#45;&gt;Node11</title>
<path fill="none" stroke="#63b8ff" d="M648.29,-323.93C584.03,-315.04 496.16,-300.31 465.5,-283 464.12,-282.22 341.85,-146.77 293.18,-92.81"/>
<polygon fill="#63b8ff" stroke="#63b8ff" points="295.58,-90.26 286.29,-85.18 290.39,-94.95 295.58,-90.26"/>
</g>
<!-- Node16&#45;&gt;Node13 -->
<g id="edge29" class="edge">
<title>Node16&#45;&gt;Node13</title>
<path fill="none" stroke="#63b8ff" d="M731.88,-318.95C745.58,-301.31 771.28,-271.16 799.5,-253 839.22,-227.44 870.65,-254.4 899.5,-217 926.61,-181.85 922.81,-126.82 917.64,-95.32"/>
<polygon fill="#63b8ff" stroke="#63b8ff" points="921.04,-94.44 915.8,-85.23 914.15,-95.69 921.04,-94.44"/>
</g>
<!-- Node17 -->
<g id="node17" class="node">
<title>Node17</title>
<g id="a_node17"><a xlink:title=" ">
<polygon fill="#e0e0e0" stroke="#999999" points="878,-277.5 809,-277.5 809,-258.5 878,-258.5 878,-277.5"/>
<text text-anchor="middle" x="843.5" y="-265.5" font-family="Helvetica,sans-Serif" font-size="10.00">type_traits</text>
</a>
</g>
</g>
<!-- Node16&#45;&gt;Node17 -->
<g id="edge28" class="edge">
<title>Node16&#45;&gt;Node17</title>
<path fill="none" stroke="#63b8ff" d="M748.27,-318.95C769.1,-308.03 797.81,-292.97 818.24,-282.25"/>
<polygon fill="#63b8ff" stroke="#63b8ff" points="820.03,-285.26 827.26,-277.52 816.78,-279.06 820.03,-285.26"/>
</g>
<!-- Node18&#45;&gt;Node11 -->
<g id="edge31" class="edge">
<title>Node18&#45;&gt;Node11</title>
<path fill="none" stroke="#63b8ff" d="M1027.94,-133.46C899.68,-129.81 603.61,-118.36 345.69,-85.04"/>
<polygon fill="#63b8ff" stroke="#63b8ff" points="346.13,-81.57 335.76,-83.75 345.23,-88.51 346.13,-81.57"/>
</g>
<!-- Node18&#45;&gt;Node13 -->
<g id="edge33" class="edge">
<title>Node18&#45;&gt;Node13</title>
<path fill="none" stroke="#63b8ff" d="M1053,-120.95C1026.03,-111.37 990.13,-98.6 961.37,-88.37"/>
<polygon fill="#63b8ff" stroke="#63b8ff" points="962.5,-85.06 951.91,-85.01 960.16,-91.66 962.5,-85.06"/>
</g>
<!-- Node19 -->
<g id="node19" class="node">
<title>Node19</title>
<g id="a_node19"><a xlink:title=" ">
<polygon fill="#e0e0e0" stroke="#999999" points="1125,-79.5 1060,-79.5 1060,-60.5 1125,-60.5 1125,-79.5"/>
<text text-anchor="middle" x="1092.5" y="-67.5" font-family="Helvetica,sans-Serif" font-size="10.00">exception</text>
</a>
</g>
</g>
<!-- Node18&#45;&gt;Node19 -->
<g id="edge32" class="edge">
<title>Node18&#45;&gt;Node19</title>
<path fill="none" stroke="#63b8ff" d="M1092.5,-120.8C1092.5,-111.7 1092.5,-99.79 1092.5,-89.9"/>
<polygon fill="#63b8ff" stroke="#63b8ff" points="1096,-89.84 1092.5,-79.84 1089,-89.84 1096,-89.84"/>
</g>
<!-- Node20&#45;&gt;Node3 -->
<g id="edge35" class="edge">
<title>Node20&#45;&gt;Node3</title>
<path fill="none" stroke="#63b8ff" d="M812.92,-319.45C755.5,-309.58 676.16,-295.77 606.5,-283 605.03,-282.73 603.55,-282.46 602.05,-282.18"/>
<polygon fill="#63b8ff" stroke="#63b8ff" points="602.53,-278.71 592.06,-280.32 601.24,-285.59 602.53,-278.71"/>
</g>
<!-- Node20&#45;&gt;Node11 -->
<g id="edge36" class="edge">
<title>Node20&#45;&gt;Node11</title>
<path fill="none" stroke="#63b8ff" d="M841.34,-319C736.86,-290.28 507.51,-226.62 492.5,-217 445.02,-186.56 455.89,-153.08 409.5,-121 388.86,-106.73 363.66,-95.98 340.58,-88.19"/>
<polygon fill="#63b8ff" stroke="#63b8ff" points="341.43,-84.79 330.84,-85.03 339.27,-91.44 341.43,-84.79"/>
</g>
<!-- Node20&#45;&gt;Node13 -->
<g id="edge39" class="edge">
<title>Node20&#45;&gt;Node13</title>
<path fill="none" stroke="#63b8ff" d="M912.59,-318.8C923.37,-309.9 935.62,-297.4 941.5,-283 950.99,-259.77 973.52,-263.86 937.5,-121 935.18,-111.8 930.99,-102.34 926.69,-94.15"/>
<polygon fill="#63b8ff" stroke="#63b8ff" points="929.63,-92.25 921.7,-85.22 923.52,-95.66 929.63,-92.25"/>
</g>
<!-- Node20&#45;&gt;Node17 -->
<g id="edge38" class="edge">
<title>Node20&#45;&gt;Node17</title>
<path fill="none" stroke="#63b8ff" d="M881.63,-318.8C874.21,-309.11 864.36,-296.24 856.52,-286.01"/>
<polygon fill="#63b8ff" stroke="#63b8ff" points="859.13,-283.66 850.27,-277.84 853.57,-287.91 859.13,-283.66"/>
</g>
<!-- Node21 -->
<g id="node21" class="node">
<title>Node21</title>
<g id="a_node21"><a xlink:title=" ">
<polygon fill="#e0e0e0" stroke="#999999" points="933,-277.5 896,-277.5 896,-258.5 933,-258.5 933,-277.5"/>
<text text-anchor="middle" x="914.5" y="-265.5" font-family="Helvetica,sans-Serif" font-size="10.00">new</text>
</a>
</g>
</g>
<!-- Node20&#45;&gt;Node21 -->
<g id="edge37" class="edge">
<title>Node20&#45;&gt;Node21</title>
<path fill="none" stroke="#63b8ff" d="M897.38,-318.8C900.54,-309.6 904.69,-297.53 908.11,-287.58"/>
<polygon fill="#63b8ff" stroke="#63b8ff" points="911.52,-288.44 911.46,-277.84 904.9,-286.16 911.52,-288.44"/>
</g>
<!-- Node22&#45;&gt;Node2 -->
<g id="edge41" class="edge">
<title>Node22&#45;&gt;Node2</title>
<path fill="none" stroke="#63b8ff" d="M567.73,-384.8C562.21,-376.76 555.17,-366.53 548.92,-357.43"/>
<polygon fill="#63b8ff" stroke="#63b8ff" points="551.79,-355.42 543.24,-349.16 546.02,-359.39 551.79,-355.42"/>
</g>
<!-- Node22&#45;&gt;Node11 -->
<g id="edge49" class="edge">
<title>Node22&#45;&gt;Node11</title>
<path fill="none" stroke="#63b8ff" d="M520.74,-394.35C450.53,-387.66 336.03,-373.34 301.5,-349 267.98,-325.37 255.5,-310.01 255.5,-269 255.5,-269 255.5,-269 255.5,-201 255.5,-163.92 262.78,-121.44 268.07,-95.42"/>
<polygon fill="#63b8ff" stroke="#63b8ff" points="271.56,-95.84 270.2,-85.34 264.71,-94.4 271.56,-95.84"/>
</g>
<!-- Node22&#45;&gt;Node13 -->
<g id="edge50" class="edge">
<title>Node22&#45;&gt;Node13</title>
<path fill="none" stroke="#63b8ff" d="M585.49,-384.87C595.96,-367.42 615.8,-337.76 639.5,-319 669.75,-295.05 685.09,-302.3 718.5,-283 738.36,-271.52 740.42,-264.08 760.5,-253 797.5,-232.58 818.25,-246.51 848.5,-217 883.39,-182.97 900.56,-126.67 907.88,-94.85"/>
<polygon fill="#63b8ff" stroke="#63b8ff" points="911.31,-95.57 910,-85.06 904.47,-94.09 911.31,-95.57"/>
</g>
<!-- Node22&#45;&gt;Node20 -->
<g id="edge42" class="edge">
<title>Node22&#45;&gt;Node20</title>
<path fill="none" stroke="#63b8ff" d="M634.18,-387.48C684.23,-377.32 757.7,-362.39 813.51,-351.05"/>
<polygon fill="#63b8ff" stroke="#63b8ff" points="814.26,-354.47 823.36,-349.05 812.86,-347.61 814.26,-354.47"/>
</g>
<!-- Node23 -->
<g id="node23" class="node">
<title>Node23</title>
<g id="a_node23"><a xlink:href="address_8hpp.html" target="_top" xlink:title=" ">
<polygon fill="white" stroke="#666666" points="434,-349 311,-349 311,-319 434,-319 434,-349"/>
<text text-anchor="start" x="319" y="-337" font-family="Helvetica,sans-Serif" font-size="10.00">proxsuite/linalg/veg</text>
<text text-anchor="middle" x="372.5" y="-326" font-family="Helvetica,sans-Serif" font-size="10.00">/memory/address.hpp</text>
</a>
</g>
</g>
<!-- Node22&#45;&gt;Node23 -->
<g id="edge43" class="edge">
<title>Node22&#45;&gt;Node23</title>
<path fill="none" stroke="#63b8ff" d="M532.51,-384.95C501.54,-375.28 460.2,-362.38 427.3,-352.11"/>
<polygon fill="#63b8ff" stroke="#63b8ff" points="427.97,-348.65 417.38,-349.01 425.89,-355.33 427.97,-348.65"/>
</g>
<!-- Node23&#45;&gt;Node3 -->
<g id="edge44" class="edge">
<title>Node23&#45;&gt;Node3</title>
<path fill="none" stroke="#63b8ff" d="M407.83,-318.95C431.63,-309.49 463.23,-296.93 488.78,-286.78"/>
<polygon fill="#63b8ff" stroke="#63b8ff" points="490.25,-289.96 498.25,-283.01 487.66,-283.45 490.25,-289.96"/>
</g>
<!-- Node23&#45;&gt;Node11 -->
<g id="edge46" class="edge">
<title>Node23&#45;&gt;Node11</title>
<path fill="none" stroke="#63b8ff" d="M348.47,-318.82C335.79,-310.09 321.12,-297.75 312.5,-283 277.04,-222.33 272.61,-136.6 272.78,-95.21"/>
<polygon fill="#63b8ff" stroke="#63b8ff" points="276.28,-95.05 272.92,-85 269.28,-94.95 276.28,-95.05"/>
</g>
<!-- Node23&#45;&gt;Node13 -->
<g id="edge48" class="edge">
<title>Node23&#45;&gt;Node13</title>
<path fill="none" stroke="#63b8ff" d="M434.04,-321.72C490.8,-310.92 570.66,-294.59 600.5,-283 655.08,-261.81 665.53,-249.09 714.5,-217 778.16,-175.28 849.14,-120.89 886.4,-91.69"/>
<polygon fill="#63b8ff" stroke="#63b8ff" points="888.99,-94.11 894.69,-85.17 884.67,-88.6 888.99,-94.11"/>
</g>
<!-- Node23&#45;&gt;Node14 -->
<g id="edge45" class="edge">
<title>Node23&#45;&gt;Node14</title>
<path fill="none" stroke="#63b8ff" d="M338.38,-318.96C280.7,-295.23 163.98,-247.22 100.32,-221.03"/>
<polygon fill="#63b8ff" stroke="#63b8ff" points="101.53,-217.74 90.95,-217.17 98.87,-224.22 101.53,-217.74"/>
</g>
<!-- Node24 -->
<g id="node24" class="node">
<title>Node24</title>
<g id="a_node24"><a xlink:title=" ">
<polygon fill="#e0e0e0" stroke="#999999" points="379.5,-277.5 321.5,-277.5 321.5,-258.5 379.5,-258.5 379.5,-277.5"/>
<text text-anchor="middle" x="350.5" y="-265.5" font-family="Helvetica,sans-Serif" font-size="10.00">memory</text>
</a>
</g>
</g>
<!-- Node23&#45;&gt;Node24 -->
<g id="edge47" class="edge">
<title>Node23&#45;&gt;Node24</title>
<path fill="none" stroke="#63b8ff" d="M367.62,-318.8C364.46,-309.6 360.31,-297.53 356.89,-287.58"/>
<polygon fill="#63b8ff" stroke="#63b8ff" points="360.1,-286.16 353.54,-277.84 353.48,-288.44 360.1,-286.16"/>
</g>
</g>
</svg>
