<?xml version="1.0" encoding="UTF-8" standalone="no"?>
<!DOCTYPE svg PUBLIC "-//W3C//DTD SVG 1.1//EN"
 "http://www.w3.org/Graphics/SVG/1.1/DTD/svg11.dtd">
<!-- Generated by graphviz version 12.2.1 (20250203.1708)
 -->
<!-- Title: include/proxsuite/fwd.hpp Pages: 1 -->
<svg width="152pt" height="86pt"
 viewBox="0.00 0.00 151.88 85.50" xmlns="http://www.w3.org/2000/svg" xmlns:xlink="http://www.w3.org/1999/xlink">
<g id="graph0" class="graph" transform="scale(1 1) rotate(0) translate(4 81.5)">
<title>include/proxsuite/fwd.hpp</title>
<!-- Node1 -->
<g id="Node000001" class="node">
<title>Node1</title>
<g id="a_Node000001"><a xlink:title=" ">
<polygon fill="#999999" stroke="#666666" points="143.88,-77.5 2.62,-77.5 2.62,-56.75 143.88,-56.75 143.88,-77.5"/>
<text text-anchor="middle" x="73.25" y="-64" font-family="Helvetica,sans-Serif" font-size="10.00">include/proxsuite/fwd.hpp</text>
</a>
</g>
</g>
<!-- Node2 -->
<g id="Node000002" class="node">
<title>Node2</title>
<g id="a_Node000002"><a xlink:title=" ">
<polygon fill="#e0e0e0" stroke="#999999" points="68.5,-20.75 0,-20.75 0,0 68.5,0 68.5,-20.75"/>
<text text-anchor="middle" x="34.25" y="-7.25" font-family="Helvetica,sans-Serif" font-size="10.00">Eigen/Core</text>
</a>
</g>
</g>
<!-- Node1&#45;&gt;Node2 -->
<g id="edge1_Node000001_Node000002" class="edge">
<title>Node1&#45;&gt;Node2</title>
<g id="a_edge1_Node000001_Node000002"><a xlink:title=" ">
<path fill="none" stroke="#63b8ff" d="M66.28,-56.34C61.12,-49.1 53.93,-39.01 47.68,-30.22"/>
<polygon fill="#63b8ff" stroke="#63b8ff" points="50.69,-28.43 42.04,-22.31 44.99,-32.49 50.69,-28.43"/>
</a>
</g>
</g>
<!-- Node3 -->
<g id="Node000003" class="node">
<title>Node3</title>
<g id="a_Node000003"><a xlink:title=" ">
<polygon fill="#e0e0e0" stroke="#999999" points="137.88,-20.75 86.62,-20.75 86.62,0 137.88,0 137.88,-20.75"/>
<text text-anchor="middle" x="112.25" y="-7.25" font-family="Helvetica,sans-Serif" font-size="10.00">cassert</text>
</a>
</g>
</g>
<!-- Node1&#45;&gt;Node3 -->
<g id="edge2_Node000001_Node000003" class="edge">
<title>Node1&#45;&gt;Node3</title>
<g id="a_edge2_Node000001_Node000003"><a xlink:title=" ">
<path fill="none" stroke="#63b8ff" d="M80.22,-56.34C85.38,-49.1 92.57,-39.01 98.82,-30.22"/>
<polygon fill="#63b8ff" stroke="#63b8ff" points="101.51,-32.49 104.46,-22.31 95.81,-28.43 101.51,-32.49"/>
</a>
</g>
</g>
</g>
</svg>
