<?xml version="1.0" encoding="UTF-8" standalone="no"?>
<!DOCTYPE svg PUBLIC "-//W3C//DTD SVG 1.1//EN"
 "http://www.w3.org/Graphics/SVG/1.1/DTD/svg11.dtd">
<!-- Generated by graphviz version 6.0.1 (20220911.2005)
 -->
<!-- Title: Graphical Class Hierarchy Pages: 1 -->
<svg width="1163pt" height="292pt"
 viewBox="0.00 0.00 1163.00 291.50" xmlns="http://www.w3.org/2000/svg" xmlns:xlink="http://www.w3.org/1999/xlink">
<g id="graph0" class="graph" transform="scale(1 1) rotate(0) translate(4 287.5)">
<title>Graphical Class Hierarchy</title>
<!-- Node0 -->
<g id="node1" class="node">
<title>Node0</title>
<g id="a_node1"><a xlink:href="structtl_1_1detail_1_1optional__delete__assign__base.html" target="_top" xlink:title=" ">
<polygon fill="white" stroke="#666666" points="1021,-283.5 854,-283.5 854,-242.5 1021,-242.5 1021,-283.5"/>
<text text-anchor="start" x="862" y="-271.5" font-family="Helvetica,sans-Serif" font-size="10.00">tl::detail::optional</text>
<text text-anchor="start" x="862" y="-260.5" font-family="Helvetica,sans-Serif" font-size="10.00">_delete_assign_base&lt;</text>
<text text-anchor="middle" x="937.5" y="-249.5" font-family="Helvetica,sans-Serif" font-size="10.00"> T, EnableCopy, EnableMove &gt;</text>
</a>
</g>
</g>
<!-- Node1 -->
<g id="node2" class="node">
<title>Node1</title>
<g id="a_node2"><a xlink:href="classtl_1_1optional.html" target="_top" xlink:title=" ">
<polygon fill="white" stroke="#666666" points="1155,-213.5 1057,-213.5 1057,-194.5 1155,-194.5 1155,-213.5"/>
<text text-anchor="middle" x="1106" y="-201.5" font-family="Helvetica,sans-Serif" font-size="10.00">tl::optional&lt; T &gt;</text>
</a>
</g>
</g>
<!-- Node0&#45;&gt;Node1 -->
<g id="edge1" class="edge">
<title>Node0&#45;&gt;Node1</title>
<path fill="none" stroke="#8b1a1a" d="M1006.91,-238.98C1011.68,-237.3 1016.41,-235.63 1021,-234 1040.12,-227.22 1061.67,-219.53 1078.15,-213.63"/>
<polygon fill="#8b1a1a" stroke="#8b1a1a" points="1005.37,-235.81 997.1,-242.44 1007.7,-242.42 1005.37,-235.81"/>
</g>
<!-- Node2 -->
<g id="node3" class="node">
<title>Node2</title>
<g id="a_node3"><a xlink:href="structtl_1_1detail_1_1optional__delete__ctor__base.html" target="_top" xlink:title=" ">
<polygon fill="white" stroke="#666666" points="1015,-224.5 860,-224.5 860,-183.5 1015,-183.5 1015,-224.5"/>
<text text-anchor="start" x="868" y="-212.5" font-family="Helvetica,sans-Serif" font-size="10.00">tl::detail::optional</text>
<text text-anchor="start" x="868" y="-201.5" font-family="Helvetica,sans-Serif" font-size="10.00">_delete_ctor_base&lt; T,</text>
<text text-anchor="middle" x="937.5" y="-190.5" font-family="Helvetica,sans-Serif" font-size="10.00"> EnableCopy, EnableMove &gt;</text>
</a>
</g>
</g>
<!-- Node2&#45;&gt;Node1 -->
<g id="edge2" class="edge">
<title>Node2&#45;&gt;Node1</title>
<path fill="none" stroke="#8b1a1a" d="M1025.71,-204C1036.45,-204 1047.09,-204 1056.94,-204"/>
<polygon fill="#8b1a1a" stroke="#8b1a1a" points="1025.41,-200.5 1015.41,-204 1025.41,-207.5 1025.41,-200.5"/>
</g>
<!-- Node12 -->
<g id="node4" class="node">
<title>Node12</title>
<g id="a_node4"><a xlink:href="structtl_1_1detail_1_1optional__storage__base.html" target="_top" xlink:title=" ">
<polygon fill="white" stroke="#666666" points="143,-54 0,-54 0,-24 143,-24 143,-54"/>
<text text-anchor="start" x="8" y="-42" font-family="Helvetica,sans-Serif" font-size="10.00">tl::detail::optional</text>
<text text-anchor="middle" x="71.5" y="-31" font-family="Helvetica,sans-Serif" font-size="10.00">_storage_base&lt; T, bool &gt;</text>
</a>
</g>
</g>
<!-- Node10 -->
<g id="node5" class="node">
<title>Node10</title>
<g id="a_node5"><a xlink:href="structtl_1_1detail_1_1optional__operations__base.html" target="_top" xlink:title=" ">
<polygon fill="white" stroke="#666666" points="310,-54 179,-54 179,-24 310,-24 310,-54"/>
<text text-anchor="start" x="187" y="-42" font-family="Helvetica,sans-Serif" font-size="10.00">tl::detail::optional</text>
<text text-anchor="middle" x="244.5" y="-31" font-family="Helvetica,sans-Serif" font-size="10.00">_operations_base&lt; T &gt;</text>
</a>
</g>
</g>
<!-- Node12&#45;&gt;Node10 -->
<g id="edge3" class="edge">
<title>Node12&#45;&gt;Node10</title>
<path fill="none" stroke="#63b8ff" d="M153.13,-39C161.76,-39 170.47,-39 178.88,-39"/>
<polygon fill="#63b8ff" stroke="#63b8ff" points="153.04,-35.5 143.04,-39 153.04,-42.5 153.04,-35.5"/>
</g>
<!-- Node8 -->
<g id="node6" class="node">
<title>Node8</title>
<g id="a_node6"><a xlink:href="structtl_1_1detail_1_1optional__copy__base.html" target="_top" xlink:title=" ">
<polygon fill="white" stroke="#666666" points="476.5,-78 347.5,-78 347.5,-48 476.5,-48 476.5,-78"/>
<text text-anchor="start" x="355.5" y="-66" font-family="Helvetica,sans-Serif" font-size="10.00">tl::detail::optional</text>
<text text-anchor="middle" x="412" y="-55" font-family="Helvetica,sans-Serif" font-size="10.00">_copy_base&lt; T, bool &gt;</text>
</a>
</g>
</g>
<!-- Node10&#45;&gt;Node8 -->
<g id="edge4" class="edge">
<title>Node10&#45;&gt;Node8</title>
<path fill="none" stroke="#63b8ff" d="M320.49,-49.87C329.46,-51.17 338.55,-52.49 347.34,-53.77"/>
<polygon fill="#63b8ff" stroke="#63b8ff" points="320.83,-46.39 310.43,-48.42 319.83,-53.32 320.83,-46.39"/>
</g>
<!-- Node11 -->
<g id="node13" class="node">
<title>Node11</title>
<g id="a_node13"><a xlink:href="structtl_1_1detail_1_1optional__copy__base_3_01T_00_01false_01_4.html" target="_top" xlink:title=" ">
<polygon fill="white" stroke="#666666" points="478,-30 346,-30 346,0 478,0 478,-30"/>
<text text-anchor="start" x="354" y="-18" font-family="Helvetica,sans-Serif" font-size="10.00">tl::detail::optional</text>
<text text-anchor="middle" x="412" y="-7" font-family="Helvetica,sans-Serif" font-size="10.00">_copy_base&lt; T, false &gt;</text>
</a>
</g>
</g>
<!-- Node10&#45;&gt;Node11 -->
<g id="edge12" class="edge">
<title>Node10&#45;&gt;Node11</title>
<path fill="none" stroke="#63b8ff" d="M320.39,-28.14C328.93,-26.9 337.58,-25.65 345.98,-24.43"/>
<polygon fill="#63b8ff" stroke="#63b8ff" points="319.83,-24.68 310.43,-29.58 320.83,-31.61 319.83,-24.68"/>
</g>
<!-- Node6 -->
<g id="node7" class="node">
<title>Node6</title>
<g id="a_node7"><a xlink:href="structtl_1_1detail_1_1optional__move__base.html" target="_top" xlink:title=" ">
<polygon fill="white" stroke="#666666" points="649.5,-102 515.5,-102 515.5,-72 649.5,-72 649.5,-102"/>
<text text-anchor="start" x="523.5" y="-90" font-family="Helvetica,sans-Serif" font-size="10.00">tl::detail::optional</text>
<text text-anchor="middle" x="582.5" y="-79" font-family="Helvetica,sans-Serif" font-size="10.00">_move_base&lt; T, bool &gt;</text>
</a>
</g>
</g>
<!-- Node8&#45;&gt;Node6 -->
<g id="edge5" class="edge">
<title>Node8&#45;&gt;Node6</title>
<path fill="none" stroke="#63b8ff" d="M486.62,-73.49C496.21,-74.85 506,-76.25 515.46,-77.59"/>
<polygon fill="#63b8ff" stroke="#63b8ff" points="487.1,-70.02 476.7,-72.07 486.11,-76.95 487.1,-70.02"/>
</g>
<!-- Node9 -->
<g id="node12" class="node">
<title>Node9</title>
<g id="a_node12"><a xlink:href="structtl_1_1detail_1_1optional__move__base_3_01T_00_01false_01_4.html" target="_top" xlink:title=" ">
<polygon fill="white" stroke="#666666" points="651,-54 514,-54 514,-24 651,-24 651,-54"/>
<text text-anchor="start" x="522" y="-42" font-family="Helvetica,sans-Serif" font-size="10.00">tl::detail::optional</text>
<text text-anchor="middle" x="582.5" y="-31" font-family="Helvetica,sans-Serif" font-size="10.00">_move_base&lt; T, false &gt;</text>
</a>
</g>
</g>
<!-- Node8&#45;&gt;Node9 -->
<g id="edge11" class="edge">
<title>Node8&#45;&gt;Node9</title>
<path fill="none" stroke="#63b8ff" d="M486.75,-52.49C495.74,-51.22 504.88,-49.91 513.77,-48.65"/>
<polygon fill="#63b8ff" stroke="#63b8ff" points="486.11,-49.05 476.7,-53.93 487.1,-55.98 486.11,-49.05"/>
</g>
<!-- Node4 -->
<g id="node8" class="node">
<title>Node4</title>
<g id="a_node8"><a xlink:href="structtl_1_1detail_1_1optional__copy__assign__base.html" target="_top" xlink:title=" ">
<polygon fill="white" stroke="#666666" points="818,-136.5 687,-136.5 687,-95.5 818,-95.5 818,-136.5"/>
<text text-anchor="start" x="695" y="-124.5" font-family="Helvetica,sans-Serif" font-size="10.00">tl::detail::optional</text>
<text text-anchor="start" x="695" y="-113.5" font-family="Helvetica,sans-Serif" font-size="10.00">_copy_assign_base&lt; T,</text>
<text text-anchor="middle" x="752.5" y="-102.5" font-family="Helvetica,sans-Serif" font-size="10.00"> bool &gt;</text>
</a>
</g>
</g>
<!-- Node6&#45;&gt;Node4 -->
<g id="edge6" class="edge">
<title>Node6&#45;&gt;Node4</title>
<path fill="none" stroke="#63b8ff" d="M660,-100.21C669.01,-101.76 678.13,-103.34 686.96,-104.86"/>
<polygon fill="#63b8ff" stroke="#63b8ff" points="660.35,-96.71 649.9,-98.46 659.16,-103.61 660.35,-96.71"/>
</g>
<!-- Node7 -->
<g id="node11" class="node">
<title>Node7</title>
<g id="a_node11"><a xlink:href="structtl_1_1detail_1_1optional__copy__assign__base_3_01T_00_01false_01_4.html" target="_top" xlink:title=" ">
<polygon fill="white" stroke="#666666" points="818,-77.5 687,-77.5 687,-36.5 818,-36.5 818,-77.5"/>
<text text-anchor="start" x="695" y="-65.5" font-family="Helvetica,sans-Serif" font-size="10.00">tl::detail::optional</text>
<text text-anchor="start" x="695" y="-54.5" font-family="Helvetica,sans-Serif" font-size="10.00">_copy_assign_base&lt; T,</text>
<text text-anchor="middle" x="752.5" y="-43.5" font-family="Helvetica,sans-Serif" font-size="10.00"> false &gt;</text>
</a>
</g>
</g>
<!-- Node6&#45;&gt;Node7 -->
<g id="edge10" class="edge">
<title>Node6&#45;&gt;Node7</title>
<path fill="none" stroke="#63b8ff" d="M660,-73.34C669.01,-71.73 678.13,-70.1 686.96,-68.53"/>
<polygon fill="#63b8ff" stroke="#63b8ff" points="659.13,-69.94 649.9,-75.14 660.36,-76.83 659.13,-69.94"/>
</g>
<!-- Node3 -->
<g id="node9" class="node">
<title>Node3</title>
<g id="a_node9"><a xlink:href="structtl_1_1detail_1_1optional__move__assign__base.html" target="_top" xlink:title=" ">
<polygon fill="white" stroke="#666666" points="1005,-165.5 870,-165.5 870,-124.5 1005,-124.5 1005,-165.5"/>
<text text-anchor="start" x="878" y="-153.5" font-family="Helvetica,sans-Serif" font-size="10.00">tl::detail::optional</text>
<text text-anchor="start" x="878" y="-142.5" font-family="Helvetica,sans-Serif" font-size="10.00">_move_assign_base&lt; T,</text>
<text text-anchor="middle" x="937.5" y="-131.5" font-family="Helvetica,sans-Serif" font-size="10.00"> bool &gt;</text>
</a>
</g>
</g>
<!-- Node4&#45;&gt;Node3 -->
<g id="edge7" class="edge">
<title>Node4&#45;&gt;Node3</title>
<path fill="none" stroke="#63b8ff" d="M827.98,-127.8C841.82,-130 856.19,-132.27 869.78,-134.43"/>
<polygon fill="#63b8ff" stroke="#63b8ff" points="828.44,-124.33 818.02,-126.22 827.35,-131.25 828.44,-124.33"/>
</g>
<!-- Node5 -->
<g id="node10" class="node">
<title>Node5</title>
<g id="a_node10"><a xlink:href="structtl_1_1detail_1_1optional__move__assign__base_3_01T_00_01false_01_4.html" target="_top" xlink:title=" ">
<polygon fill="white" stroke="#666666" points="1005,-106.5 870,-106.5 870,-65.5 1005,-65.5 1005,-106.5"/>
<text text-anchor="start" x="878" y="-94.5" font-family="Helvetica,sans-Serif" font-size="10.00">tl::detail::optional</text>
<text text-anchor="start" x="878" y="-83.5" font-family="Helvetica,sans-Serif" font-size="10.00">_move_assign_base&lt; T,</text>
<text text-anchor="middle" x="937.5" y="-72.5" font-family="Helvetica,sans-Serif" font-size="10.00"> false &gt;</text>
</a>
</g>
</g>
<!-- Node4&#45;&gt;Node5 -->
<g id="edge9" class="edge">
<title>Node4&#45;&gt;Node5</title>
<path fill="none" stroke="#63b8ff" d="M827.98,-103.79C841.82,-101.52 856.19,-99.17 869.78,-96.94"/>
<polygon fill="#63b8ff" stroke="#63b8ff" points="827.32,-100.35 818.02,-105.42 828.45,-107.26 827.32,-100.35"/>
</g>
<!-- Node3&#45;&gt;Node1 -->
<g id="edge8" class="edge">
<title>Node3&#45;&gt;Node1</title>
<path fill="none" stroke="#8b1a1a" d="M1006.24,-169C1031.34,-177.9 1058.39,-187.48 1077.83,-194.37"/>
<polygon fill="#8b1a1a" stroke="#8b1a1a" points="1007.33,-165.68 996.73,-165.64 1004.99,-172.27 1007.33,-165.68"/>
</g>
</g>
</svg>
