<?xml version="1.0" encoding="UTF-8" standalone="no"?>
<!DOCTYPE svg PUBLIC "-//W3C//DTD SVG 1.1//EN"
 "http://www.w3.org/Graphics/SVG/1.1/DTD/svg11.dtd">
<!-- Generated by graphviz version 12.0.0 (20240803.0821)
 -->
<!-- Title: Graphical Class Hierarchy Pages: 1 -->
<svg width="320pt" height="106pt"
 viewBox="0.00 0.00 319.75 105.88" xmlns="http://www.w3.org/2000/svg" xmlns:xlink="http://www.w3.org/1999/xlink">
<g id="graph0" class="graph" transform="scale(1 1) rotate(0) translate(4 101.88)">
<title>Graphical Class Hierarchy</title>
<!-- Node0 -->
<g id="Node000000" class="node">
<title>Node0</title>
<g id="a_Node000000"><a xlink:href="structproxsuite_1_1linalg_1_1veg_1_1meta_1_1constant.html" target="_top" xlink:title=" ">
<polygon fill="white" stroke="#666666" points="113.5,-68.88 0,-68.88 0,-22.62 113.5,-22.62 113.5,-68.88"/>
<text text-anchor="start" x="8" y="-55.38" font-family="Helvetica,sans-Serif" font-size="10.00">proxsuite::linalg::</text>
<text text-anchor="start" x="8" y="-42.62" font-family="Helvetica,sans-Serif" font-size="10.00">veg::meta::constant</text>
<text text-anchor="middle" x="56.75" y="-29.88" font-family="Helvetica,sans-Serif" font-size="10.00">&lt; usize, 0 &gt;</text>
</a>
</g>
</g>
<!-- Node1 -->
<g id="Node000001" class="node">
<title>Node1</title>
<g id="a_Node000001"><a xlink:href="structproxsuite_1_1linalg_1_1veg_1_1__detail_1_1__meta_1_1specialize__len.html" target="_top" xlink:title=" ">
<polygon fill="white" stroke="#666666" points="296.38,-97.88 164.88,-97.88 164.88,-51.62 296.38,-51.62 296.38,-97.88"/>
<text text-anchor="start" x="172.88" y="-84.38" font-family="Helvetica,sans-Serif" font-size="10.00">proxsuite::linalg::</text>
<text text-anchor="start" x="172.88" y="-71.62" font-family="Helvetica,sans-Serif" font-size="10.00">veg::_detail::_meta</text>
<text text-anchor="middle" x="230.62" y="-58.88" font-family="Helvetica,sans-Serif" font-size="10.00">::specialize_len&lt; F, T &gt;</text>
</a>
</g>
</g>
<!-- Node0&#45;&gt;Node1 -->
<g id="edge123_Node000000_Node000001" class="edge">
<title>Node0&#45;&gt;Node1</title>
<g id="a_edge123_Node000000_Node000001"><a xlink:title=" ">
<path fill="none" stroke="#63b8ff" d="M124.83,-57.07C137.89,-59.27 151.55,-61.58 164.54,-63.77"/>
<polygon fill="#63b8ff" stroke="#63b8ff" points="125.49,-53.63 115.05,-55.42 124.32,-60.53 125.49,-53.63"/>
</a>
</g>
</g>
<!-- Node2 -->
<g id="Node000002" class="node">
<title>Node2</title>
<g id="a_Node000002"><a xlink:href="structproxsuite_1_1linalg_1_1veg_1_1meta_1_1array__extent.html" target="_top" xlink:title=" ">
<polygon fill="white" stroke="#666666" points="311.75,-33.5 149.5,-33.5 149.5,0 311.75,0 311.75,-33.5"/>
<text text-anchor="start" x="157.5" y="-20" font-family="Helvetica,sans-Serif" font-size="10.00">proxsuite::linalg::</text>
<text text-anchor="middle" x="230.62" y="-7.25" font-family="Helvetica,sans-Serif" font-size="10.00">veg::meta::array_extent&lt; T &gt;</text>
</a>
</g>
</g>
<!-- Node0&#45;&gt;Node2 -->
<g id="edge124_Node000000_Node000002" class="edge">
<title>Node0&#45;&gt;Node2</title>
<g id="a_edge124_Node000000_Node000002"><a xlink:title=" ">
<path fill="none" stroke="#63b8ff" d="M124.7,-34.45C132.71,-33.1 140.95,-31.71 149.13,-30.33"/>
<polygon fill="#63b8ff" stroke="#63b8ff" points="124.32,-30.97 115.05,-36.08 125.49,-37.87 124.32,-30.97"/>
</a>
</g>
</g>
</g>
</svg>
