<?xml version="1.0" encoding="UTF-8" standalone="no"?>
<!DOCTYPE svg PUBLIC "-//W3C//DTD SVG 1.1//EN"
 "http://www.w3.org/Graphics/SVG/1.1/DTD/svg11.dtd">
<!-- Generated by graphviz version 8.1.0 (20230707.2238)
 -->
<!-- Title: Graphical Class Hierarchy Pages: 1 -->
<svg width="618pt" height="697pt"
 viewBox="0.00 0.00 617.75 696.88" xmlns="http://www.w3.org/2000/svg" xmlns:xlink="http://www.w3.org/1999/xlink">
<g id="graph0" class="graph" transform="scale(1 1) rotate(0) translate(4 692.88)">
<title>Graphical Class Hierarchy</title>
<!-- Node0 -->
<g id="Node000000" class="node">
<title>Node0</title>
<g id="a_Node000000"><a xlink:href="structproxsuite_1_1linalg_1_1veg_1_1__detail_1_1__vector_1_1adl_1_1AdlBase.html" target="_top" xlink:title=" ">
<polygon fill="white" stroke="#666666" points="137.5,-486.25 22.5,-486.25 22.5,-440 137.5,-440 137.5,-486.25"/>
<text text-anchor="start" x="30.5" y="-472.75" font-family="Helvetica,sans-Serif" font-size="10.00">proxsuite::linalg::</text>
<text text-anchor="start" x="30.5" y="-460" font-family="Helvetica,sans-Serif" font-size="10.00">veg::_detail::_vector</text>
<text text-anchor="middle" x="80" y="-447.25" font-family="Helvetica,sans-Serif" font-size="10.00">::adl::AdlBase</text>
</a>
</g>
</g>
<!-- Node1 -->
<g id="Node000001" class="node">
<title>Node1</title>
<g id="a_Node000001"><a xlink:href="structproxsuite_1_1linalg_1_1veg_1_1Vec.html" target="_top" xlink:title=" ">
<polygon fill="white" stroke="#666666" points="416.75,-456.75 196,-456.75 196,-359.5 416.75,-359.5 416.75,-456.75"/>
<text text-anchor="start" x="204" y="-443.25" font-family="Helvetica,sans-Serif" font-size="10.00">proxsuite::linalg::</text>
<text text-anchor="start" x="204" y="-430.5" font-family="Helvetica,sans-Serif" font-size="10.00">veg::Vec&lt; T, proxsuite</text>
<text text-anchor="start" x="204" y="-417.75" font-family="Helvetica,sans-Serif" font-size="10.00">::linalg::veg::meta::if</text>
<text text-anchor="start" x="204" y="-405" font-family="Helvetica,sans-Serif" font-size="10.00">_t&lt; _detail::should_vectorize</text>
<text text-anchor="start" x="204" y="-392.25" font-family="Helvetica,sans-Serif" font-size="10.00">&lt; T &gt;::value, _detail::SimdAlignedSystem</text>
<text text-anchor="start" x="204" y="-379.5" font-family="Helvetica,sans-Serif" font-size="10.00">Alloc, proxsuite::linalg::veg::mem</text>
<text text-anchor="middle" x="306.38" y="-366.75" font-family="Helvetica,sans-Serif" font-size="10.00">::SystemAlloc &gt; &gt;</text>
</a>
</g>
</g>
<!-- Node0&#45;&gt;Node1 -->
<g id="edge83_Node000000_Node000001" class="edge">
<title>Node0&#45;&gt;Node1</title>
<g id="a_edge83_Node000000_Node000001"><a xlink:title=" ">
<path fill="none" stroke="#8b1a1a" d="M148.52,-446.58C163.41,-442.92 179.56,-438.96 195.65,-435.02"/>
<polygon fill="#8b1a1a" stroke="#8b1a1a" points="147.79,-443.39 138.91,-449.18 149.46,-450.19 147.79,-443.39"/>
</a>
</g>
</g>
<!-- Node3 -->
<g id="Node000003" class="node">
<title>Node3</title>
<g id="a_Node000003"><a xlink:href="structproxsuite_1_1linalg_1_1veg_1_1Vec.html" target="_top" xlink:title=" ">
<polygon fill="white" stroke="#666666" points="357.5,-341.88 255.25,-341.88 255.25,-308.38 357.5,-308.38 357.5,-341.88"/>
<text text-anchor="start" x="263.25" y="-328.38" font-family="Helvetica,sans-Serif" font-size="10.00">proxsuite::linalg::</text>
<text text-anchor="middle" x="306.38" y="-315.62" font-family="Helvetica,sans-Serif" font-size="10.00">veg::Vec&lt; isize &gt;</text>
</a>
</g>
</g>
<!-- Node0&#45;&gt;Node3 -->
<g id="edge84_Node000000_Node000003" class="edge">
<title>Node0&#45;&gt;Node3</title>
<g id="a_edge84_Node000000_Node000003"><a xlink:title=" ">
<path fill="none" stroke="#8b1a1a" d="M104.86,-431.43C126,-405.63 159.16,-370.28 196,-350.12 213.94,-340.31 235.57,-334.34 254.83,-330.71"/>
<polygon fill="#8b1a1a" stroke="#8b1a1a" points="101.69,-428.79 98.16,-438.78 107.15,-433.17 101.69,-428.79"/>
</a>
</g>
</g>
<!-- Node5 -->
<g id="Node000005" class="node">
<title>Node5</title>
<g id="a_Node000005"><a xlink:href="structproxsuite_1_1linalg_1_1veg_1_1Vec.html" target="_top" xlink:title=" ">
<polygon fill="white" stroke="#666666" points="380.38,-289.88 232.38,-289.88 232.38,-256.38 380.38,-256.38 380.38,-289.88"/>
<text text-anchor="start" x="240.38" y="-276.38" font-family="Helvetica,sans-Serif" font-size="10.00">proxsuite::linalg::</text>
<text text-anchor="middle" x="306.38" y="-263.62" font-family="Helvetica,sans-Serif" font-size="10.00">veg::Vec&lt; unsigned char &gt;</text>
</a>
</g>
</g>
<!-- Node0&#45;&gt;Node5 -->
<g id="edge85_Node000000_Node000005" class="edge">
<title>Node0&#45;&gt;Node5</title>
<g id="a_edge85_Node000000_Node000005"><a xlink:title=" ">
<path fill="none" stroke="#8b1a1a" d="M102.1,-430.45C131.62,-385.18 183.07,-307.9 196,-299.12 206.74,-291.84 219.28,-286.58 231.96,-282.79"/>
<polygon fill="#8b1a1a" stroke="#8b1a1a" points="98.68,-428.3 96.16,-438.59 104.55,-432.12 98.68,-428.3"/>
</a>
</g>
</g>
<!-- Node6 -->
<g id="Node000006" class="node">
<title>Node6</title>
<g id="a_Node000006"><a xlink:href="structproxsuite_1_1linalg_1_1veg_1_1Vec.html" target="_top" xlink:title=" ">
<polygon fill="white" stroke="#666666" points="356.75,-688.88 256,-688.88 256,-655.38 356.75,-655.38 356.75,-688.88"/>
<text text-anchor="start" x="264" y="-675.38" font-family="Helvetica,sans-Serif" font-size="10.00">proxsuite::linalg::</text>
<text text-anchor="middle" x="306.38" y="-662.62" font-family="Helvetica,sans-Serif" font-size="10.00">veg::Vec&lt; I &gt;</text>
</a>
</g>
</g>
<!-- Node0&#45;&gt;Node6 -->
<g id="edge86_Node000000_Node000006" class="edge">
<title>Node0&#45;&gt;Node6</title>
<g id="a_edge86_Node000000_Node000006"><a xlink:title=" ">
<path fill="none" stroke="#8b1a1a" d="M146.81,-483.59C151.7,-486.89 156.2,-490.71 160,-495.12 204.97,-547.45 147.2,-597.36 196,-646.12 211.6,-661.72 234.74,-668.61 255.72,-671.44"/>
<polygon fill="#8b1a1a" stroke="#8b1a1a" points="149.04,-480.26 138.64,-478.21 145.49,-486.29 149.04,-480.26"/>
</a>
</g>
</g>
<!-- Node7 -->
<g id="Node000007" class="node">
<title>Node7</title>
<g id="a_Node000007"><a xlink:href="structproxsuite_1_1linalg_1_1veg_1_1Vec.html" target="_top" xlink:title=" ">
<polygon fill="white" stroke="#666666" points="378.12,-637.25 234.62,-637.25 234.62,-591 378.12,-591 378.12,-637.25"/>
<text text-anchor="start" x="242.62" y="-623.75" font-family="Helvetica,sans-Serif" font-size="10.00">proxsuite::linalg::</text>
<text text-anchor="start" x="242.62" y="-611" font-family="Helvetica,sans-Serif" font-size="10.00">veg::Vec&lt; proxsuite</text>
<text text-anchor="middle" x="306.38" y="-598.25" font-family="Helvetica,sans-Serif" font-size="10.00">::linalg::veg::mem::byte &gt;</text>
</a>
</g>
</g>
<!-- Node0&#45;&gt;Node7 -->
<g id="edge87_Node000000_Node000007" class="edge">
<title>Node0&#45;&gt;Node7</title>
<g id="a_edge87_Node000000_Node000007"><a xlink:title=" ">
<path fill="none" stroke="#8b1a1a" d="M147.16,-484.95C151.81,-487.94 156.16,-491.31 160,-495.12 189.7,-524.6 164.86,-554.17 196,-582.12 206.82,-591.84 220.44,-598.61 234.37,-603.33"/>
<polygon fill="#8b1a1a" stroke="#8b1a1a" points="149.35,-481.6 138.93,-479.68 145.88,-487.68 149.35,-481.6"/>
</a>
</g>
</g>
<!-- Node8 -->
<g id="Node000008" class="node">
<title>Node8</title>
<g id="a_Node000008"><a xlink:href="structproxsuite_1_1linalg_1_1veg_1_1Vec.html" target="_top" xlink:title=" ">
<polygon fill="white" stroke="#666666" points="356.75,-572.88 256,-572.88 256,-539.38 356.75,-539.38 356.75,-572.88"/>
<text text-anchor="start" x="264" y="-559.38" font-family="Helvetica,sans-Serif" font-size="10.00">proxsuite::linalg::</text>
<text text-anchor="middle" x="306.38" y="-546.62" font-family="Helvetica,sans-Serif" font-size="10.00">veg::Vec&lt; bool &gt;</text>
</a>
</g>
</g>
<!-- Node0&#45;&gt;Node8 -->
<g id="edge88_Node000000_Node000008" class="edge">
<title>Node0&#45;&gt;Node8</title>
<g id="a_edge88_Node000000_Node000008"><a xlink:title=" ">
<path fill="none" stroke="#8b1a1a" d="M147.34,-487.73C151.73,-490.04 155.99,-492.51 160,-495.12 178.69,-507.32 176.44,-519.38 196,-530.12 214.22,-540.13 236.21,-546.31 255.68,-550.12"/>
<polygon fill="#8b1a1a" stroke="#8b1a1a" points="149.12,-484.21 138.61,-482.91 146.02,-490.48 149.12,-484.21"/>
</a>
</g>
</g>
<!-- Node9 -->
<g id="Node000009" class="node">
<title>Node9</title>
<g id="a_Node000009"><a xlink:href="structproxsuite_1_1linalg_1_1veg_1_1Vec.html" target="_top" xlink:title=" ">
<polygon fill="white" stroke="#666666" points="365,-521.25 247.75,-521.25 247.75,-475 365,-475 365,-521.25"/>
<text text-anchor="start" x="255.75" y="-507.75" font-family="Helvetica,sans-Serif" font-size="10.00">proxsuite::linalg::</text>
<text text-anchor="start" x="255.75" y="-495" font-family="Helvetica,sans-Serif" font-size="10.00">veg::Vec&lt; T, A, Dtor,</text>
<text text-anchor="middle" x="306.38" y="-482.25" font-family="Helvetica,sans-Serif" font-size="10.00"> Copy &gt;</text>
</a>
</g>
</g>
<!-- Node0&#45;&gt;Node9 -->
<g id="edge89_Node000000_Node000009" class="edge">
<title>Node0&#45;&gt;Node9</title>
<g id="a_edge89_Node000000_Node000009"><a xlink:title=" ">
<path fill="none" stroke="#8b1a1a" d="M148.37,-473.63C179.9,-478.55 217.09,-484.35 247.35,-489.07"/>
<polygon fill="#8b1a1a" stroke="#8b1a1a" points="149.33,-470.09 138.91,-472 148.25,-477 149.33,-470.09"/>
</a>
</g>
</g>
<!-- Node2 -->
<g id="Node000002" class="node">
<title>Node2</title>
<g id="a_Node000002"><a xlink:title=" ">
<polygon fill="#e0e0e0" stroke="#999999" points="111.62,-335.5 48.38,-335.5 48.38,-314.75 111.62,-314.75 111.62,-335.5"/>
<text text-anchor="middle" x="80" y="-322" font-family="Helvetica,sans-Serif" font-size="10.00">meta::if_t</text>
</a>
</g>
</g>
<!-- Node2&#45;&gt;Node1 -->
<g id="edge90_Node000002_Node000001" class="edge">
<title>Node2&#45;&gt;Node1</title>
<g id="a_edge90_Node000002_Node000001"><a xlink:title=" ">
<path fill="none" stroke="#8b1a1a" d="M120.49,-339.73C141.61,-347.55 168.76,-357.59 195.72,-367.56"/>
<polygon fill="#8b1a1a" stroke="#8b1a1a" points="121.93,-336.16 111.33,-335.98 119.5,-342.73 121.93,-336.16"/>
</a>
</g>
</g>
<!-- Node2&#45;&gt;Node3 -->
<g id="edge91_Node000002_Node000003" class="edge">
<title>Node2&#45;&gt;Node3</title>
<g id="a_edge91_Node000002_Node000003"><a xlink:title=" ">
<path fill="none" stroke="#8b1a1a" d="M122.73,-325.12C160.09,-325.12 214.98,-325.12 254.82,-325.12"/>
<polygon fill="#8b1a1a" stroke="#8b1a1a" points="122.73,-321.63 112.73,-325.12 122.73,-328.63 122.73,-321.63"/>
</a>
</g>
</g>
<!-- Node2&#45;&gt;Node5 -->
<g id="edge92_Node000002_Node000005" class="edge">
<title>Node2&#45;&gt;Node5</title>
<g id="a_edge92_Node000002_Node000005"><a xlink:title=" ">
<path fill="none" stroke="#8b1a1a" d="M122.05,-315.61C152.75,-308.5 195.55,-298.58 232.07,-290.11"/>
<polygon fill="#8b1a1a" stroke="#8b1a1a" points="121.68,-312.34 112.73,-318 123.26,-319.16 121.68,-312.34"/>
</a>
</g>
</g>
<!-- Node2&#45;&gt;Node6 -->
<g id="edge93_Node000002_Node000006" class="edge">
<title>Node2&#45;&gt;Node6</title>
<g id="a_edge93_Node000002_Node000006"><a xlink:title=" ">
<path fill="none" stroke="#8b1a1a" d="M99.22,-343.66C117.64,-363.55 145.41,-396.92 160,-431.12 198.01,-520.24 129.84,-575.34 196,-646.12 211.19,-662.38 234.54,-669.31 255.78,-672"/>
<polygon fill="#8b1a1a" stroke="#8b1a1a" points="102.15,-341.61 92.73,-336.76 97.07,-346.43 102.15,-341.61"/>
</a>
</g>
</g>
<!-- Node2&#45;&gt;Node7 -->
<g id="edge94_Node000002_Node000007" class="edge">
<title>Node2&#45;&gt;Node7</title>
<g id="a_edge94_Node000002_Node000007"><a xlink:title=" ">
<path fill="none" stroke="#8b1a1a" d="M98.76,-343.87C116.79,-363.93 144.25,-397.44 160,-431.12 189.22,-493.63 148.46,-532.12 196,-582.12 206.29,-592.95 220.03,-600.17 234.28,-604.98"/>
<polygon fill="#8b1a1a" stroke="#8b1a1a" points="101.77,-341.89 92.44,-336.89 96.62,-346.63 101.77,-341.89"/>
</a>
</g>
</g>
<!-- Node2&#45;&gt;Node8 -->
<g id="edge95_Node000002_Node000008" class="edge">
<title>Node2&#45;&gt;Node8</title>
<g id="a_edge95_Node000002_Node000008"><a xlink:title=" ">
<path fill="none" stroke="#8b1a1a" d="M97.71,-343.93C115.1,-364.27 142.25,-398.22 160,-431.12 182.22,-472.33 161.04,-498.98 196,-530.12 212.25,-544.6 235.09,-551.4 255.7,-554.46"/>
<polygon fill="#8b1a1a" stroke="#8b1a1a" points="99.88,-342.1 90.68,-336.84 94.6,-346.69 99.88,-342.1"/>
</a>
</g>
</g>
<!-- Node2&#45;&gt;Node9 -->
<g id="edge100_Node000002_Node000009" class="edge">
<title>Node2&#45;&gt;Node9</title>
<g id="a_edge100_Node000002_Node000009"><a xlink:title=" ">
<path fill="none" stroke="#8b1a1a" d="M94.6,-344.53C119.2,-379.14 170.85,-449.45 196,-466.12 211.33,-476.29 229.96,-483.3 247.47,-488.09"/>
<polygon fill="#8b1a1a" stroke="#8b1a1a" points="97.05,-342.94 88.42,-336.79 91.34,-346.98 97.05,-342.94"/>
</a>
</g>
</g>
<!-- Node10 -->
<g id="Node000010" class="node">
<title>Node10</title>
<g id="a_Node000010"><a xlink:href="structproxsuite_1_1linalg_1_1veg_1_1cpo_1_1is__trivially__constructible.html" target="_top" xlink:title=" ">
<polygon fill="white" stroke="#666666" points="363.5,-174.25 249.25,-174.25 249.25,-128 363.5,-128 363.5,-174.25"/>
<text text-anchor="start" x="257.25" y="-160.75" font-family="Helvetica,sans-Serif" font-size="10.00">proxsuite::linalg::</text>
<text text-anchor="start" x="257.25" y="-148" font-family="Helvetica,sans-Serif" font-size="10.00">veg::cpo::is_trivially</text>
<text text-anchor="middle" x="306.38" y="-135.25" font-family="Helvetica,sans-Serif" font-size="10.00">_constructible&lt; A &gt;</text>
</a>
</g>
</g>
<!-- Node2&#45;&gt;Node10 -->
<g id="edge96_Node000002_Node000010" class="edge">
<title>Node2&#45;&gt;Node10</title>
<g id="a_edge96_Node000002_Node000010"><a xlink:title=" ">
<path fill="none" stroke="#63b8ff" d="M91.85,-305.06C109.56,-274.22 147.6,-215.35 196,-183.12 211.73,-172.65 230.94,-165.54 248.85,-160.74"/>
<polygon fill="#63b8ff" stroke="#63b8ff" points="88.47,-302.93 86.64,-313.37 94.58,-306.35 88.47,-302.93"/>
</a>
</g>
</g>
<!-- Node12 -->
<g id="Node000012" class="node">
<title>Node12</title>
<g id="a_Node000012"><a xlink:href="structproxsuite_1_1linalg_1_1veg_1_1cpo_1_1is__trivially__relocatable.html" target="_top" xlink:title=" ">
<polygon fill="white" stroke="#666666" points="363.5,-110.25 249.25,-110.25 249.25,-64 363.5,-64 363.5,-110.25"/>
<text text-anchor="start" x="257.25" y="-96.75" font-family="Helvetica,sans-Serif" font-size="10.00">proxsuite::linalg::</text>
<text text-anchor="start" x="257.25" y="-84" font-family="Helvetica,sans-Serif" font-size="10.00">veg::cpo::is_trivially</text>
<text text-anchor="middle" x="306.38" y="-71.25" font-family="Helvetica,sans-Serif" font-size="10.00">_relocatable&lt; A &gt;</text>
</a>
</g>
</g>
<!-- Node2&#45;&gt;Node12 -->
<g id="edge98_Node000002_Node000012" class="edge">
<title>Node2&#45;&gt;Node12</title>
<g id="a_edge98_Node000002_Node000012"><a xlink:title=" ">
<path fill="none" stroke="#63b8ff" d="M86.8,-304.21C99.45,-262.56 133.49,-168.97 196,-119.12 211.08,-107.1 230.54,-99.59 248.86,-94.91"/>
<polygon fill="#63b8ff" stroke="#63b8ff" points="83.18,-303.14 83.74,-313.72 89.9,-305.1 83.18,-303.14"/>
</a>
</g>
</g>
<!-- Node14 -->
<g id="Node000014" class="node">
<title>Node14</title>
<g id="a_Node000014"><a xlink:href="structproxsuite_1_1linalg_1_1veg_1_1cpo_1_1is__trivially__constructible.html" target="_top" xlink:title=" ">
<polygon fill="white" stroke="#666666" points="363.5,-46.25 249.25,-46.25 249.25,0 363.5,0 363.5,-46.25"/>
<text text-anchor="start" x="257.25" y="-32.75" font-family="Helvetica,sans-Serif" font-size="10.00">proxsuite::linalg::</text>
<text text-anchor="start" x="257.25" y="-20" font-family="Helvetica,sans-Serif" font-size="10.00">veg::cpo::is_trivially</text>
<text text-anchor="middle" x="306.38" y="-7.25" font-family="Helvetica,sans-Serif" font-size="10.00">_constructible&lt; T &gt;</text>
</a>
</g>
</g>
<!-- Node2&#45;&gt;Node14 -->
<g id="edge101_Node000002_Node000014" class="edge">
<title>Node2&#45;&gt;Node14</title>
<g id="a_edge101_Node000002_Node000014"><a xlink:title=" ">
<path fill="none" stroke="#63b8ff" d="M83.83,-303.84C91.74,-253.02 118.78,-123.73 196,-55.12 210.64,-42.12 230.32,-34.38 248.94,-29.79"/>
<polygon fill="#63b8ff" stroke="#63b8ff" points="80.26,-303.08 82.28,-313.48 87.19,-304.09 80.26,-303.08"/>
</a>
</g>
</g>
<!-- Node15 -->
<g id="Node000015" class="node">
<title>Node15</title>
<g id="a_Node000015"><a xlink:href="structproxsuite_1_1linalg_1_1veg_1_1cpo_1_1is__trivially__relocatable.html" target="_top" xlink:title=" ">
<polygon fill="white" stroke="#666666" points="363.5,-238.25 249.25,-238.25 249.25,-192 363.5,-192 363.5,-238.25"/>
<text text-anchor="start" x="257.25" y="-224.75" font-family="Helvetica,sans-Serif" font-size="10.00">proxsuite::linalg::</text>
<text text-anchor="start" x="257.25" y="-212" font-family="Helvetica,sans-Serif" font-size="10.00">veg::cpo::is_trivially</text>
<text text-anchor="middle" x="306.38" y="-199.25" font-family="Helvetica,sans-Serif" font-size="10.00">_relocatable&lt; T &gt;</text>
</a>
</g>
</g>
<!-- Node2&#45;&gt;Node15 -->
<g id="edge102_Node000002_Node000015" class="edge">
<title>Node2&#45;&gt;Node15</title>
<g id="a_edge102_Node000002_Node000015"><a xlink:title=" ">
<path fill="none" stroke="#63b8ff" d="M102.31,-307.66C124.51,-290.21 160.9,-263.66 196,-247.12 212.56,-239.32 231.43,-232.98 248.78,-228.07"/>
<polygon fill="#63b8ff" stroke="#63b8ff" points="100.61,-305.33 94.98,-314.3 104.98,-310.8 100.61,-305.33"/>
</a>
</g>
</g>
<!-- Node11 -->
<g id="Node000011" class="node">
<title>Node11</title>
<g id="a_Node000011"><a xlink:href="structproxsuite_1_1linalg_1_1veg_1_1cpo_1_1is__trivially__constructible_3_01Vec_3_01T_00_01A_01_4_01_4.html" target="_top" xlink:title=" ">
<polygon fill="white" stroke="#666666" points="597.75,-184.62 464.75,-184.62 464.75,-125.62 597.75,-125.62 597.75,-184.62"/>
<text text-anchor="start" x="472.75" y="-171.12" font-family="Helvetica,sans-Serif" font-size="10.00">proxsuite::linalg::</text>
<text text-anchor="start" x="472.75" y="-158.38" font-family="Helvetica,sans-Serif" font-size="10.00">veg::cpo::is_trivially</text>
<text text-anchor="start" x="472.75" y="-145.62" font-family="Helvetica,sans-Serif" font-size="10.00">_constructible&lt; Vec&lt; T,</text>
<text text-anchor="middle" x="531.25" y="-132.88" font-family="Helvetica,sans-Serif" font-size="10.00"> A &gt; &gt;</text>
</a>
</g>
</g>
<!-- Node10&#45;&gt;Node11 -->
<g id="edge97_Node000010_Node000011" class="edge">
<title>Node10&#45;&gt;Node11</title>
<g id="a_edge97_Node000010_Node000011"><a xlink:title=" ">
<path fill="none" stroke="#63b8ff" d="M374.55,-152.33C402.98,-152.84 435.99,-153.43 464.29,-153.94"/>
<polygon fill="#63b8ff" stroke="#63b8ff" points="374.97,-148.82 364.9,-152.14 374.84,-155.82 374.97,-148.82"/>
</a>
</g>
</g>
<!-- Node13 -->
<g id="Node000013" class="node">
<title>Node13</title>
<g id="a_Node000013"><a xlink:href="structproxsuite_1_1linalg_1_1veg_1_1cpo_1_1is__trivially__relocatable_3_01Vec_3_01T_00_01A_01_4_01_4.html" target="_top" xlink:title=" ">
<polygon fill="white" stroke="#666666" points="609.75,-107.25 452.75,-107.25 452.75,-61 609.75,-61 609.75,-107.25"/>
<text text-anchor="start" x="460.75" y="-93.75" font-family="Helvetica,sans-Serif" font-size="10.00">proxsuite::linalg::</text>
<text text-anchor="start" x="460.75" y="-81" font-family="Helvetica,sans-Serif" font-size="10.00">veg::cpo::is_trivially</text>
<text text-anchor="middle" x="531.25" y="-68.25" font-family="Helvetica,sans-Serif" font-size="10.00">_relocatable&lt; Vec&lt; T, A &gt; &gt;</text>
</a>
</g>
</g>
<!-- Node12&#45;&gt;Node13 -->
<g id="edge99_Node000012_Node000013" class="edge">
<title>Node12&#45;&gt;Node13</title>
<g id="a_edge99_Node000012_Node000013"><a xlink:title=" ">
<path fill="none" stroke="#63b8ff" d="M374.87,-86.22C399.3,-85.89 427.08,-85.51 452.33,-85.17"/>
<polygon fill="#63b8ff" stroke="#63b8ff" points="374.86,-82.73 364.9,-86.36 374.95,-89.73 374.86,-82.73"/>
</a>
</g>
</g>
<!-- Node4 -->
<g id="Node000004" class="node">
<title>Node4</title>
<g id="a_Node000004"><a xlink:href="structproxsuite_1_1linalg_1_1veg_1_1__detail_1_1__collections_1_1VecImpl.html" target="_top" xlink:title=" ">
<polygon fill="white" stroke="#666666" points="160,-550.25 0,-550.25 0,-504 160,-504 160,-550.25"/>
<text text-anchor="start" x="8" y="-536.75" font-family="Helvetica,sans-Serif" font-size="10.00">proxsuite::linalg::</text>
<text text-anchor="start" x="8" y="-524" font-family="Helvetica,sans-Serif" font-size="10.00">veg::_detail::_collections</text>
<text text-anchor="middle" x="80" y="-511.25" font-family="Helvetica,sans-Serif" font-size="10.00">::VecImpl&lt; T, A, Dtor, Copy &gt;</text>
</a>
</g>
</g>
<!-- Node4&#45;&gt;Node1 -->
<g id="edge103_Node000004_Node000001" class="edge">
<title>Node4&#45;&gt;Node1</title>
<g id="a_edge103_Node000004_Node000001"><a xlink:title=" ">
<path fill="none" stroke="#63b8ff" d="M153.63,-498.7C155.8,-497.54 157.93,-496.34 160,-495.12 177.71,-484.71 178.85,-477.43 196,-466.12 200.58,-463.11 205.33,-460.12 210.17,-457.18"/>
<polygon fill="#63b8ff" stroke="#63b8ff" points="152.25,-495.98 144.92,-503.63 155.42,-502.23 152.25,-495.98"/>
</a>
</g>
</g>
<!-- Node4&#45;&gt;Node3 -->
<g id="edge104_Node000004_Node000003" class="edge">
<title>Node4&#45;&gt;Node3</title>
<g id="a_edge104_Node000004_Node000003"><a xlink:title=" ">
<path fill="none" stroke="#63b8ff" d="M158.97,-496.28C159.32,-495.9 159.66,-495.52 160,-495.12 203.52,-444.97 148.61,-396.64 196,-350.12 211.5,-334.91 234.25,-328.21 254.99,-325.49"/>
<polygon fill="#63b8ff" stroke="#63b8ff" points="156.94,-493.31 151.91,-502.64 161.66,-498.48 156.94,-493.31"/>
</a>
</g>
</g>
<!-- Node4&#45;&gt;Node5 -->
<g id="edge105_Node000004_Node000005" class="edge">
<title>Node4&#45;&gt;Node5</title>
<g id="a_edge105_Node000004_Node000005"><a xlink:title=" ">
<path fill="none" stroke="#63b8ff" d="M159.28,-495.99C159.52,-495.7 159.76,-495.42 160,-495.12 215.95,-426.47 135.01,-363.35 196,-299.12 205.68,-288.93 218.56,-282.42 232.09,-278.32"/>
<polygon fill="#63b8ff" stroke="#63b8ff" points="157.23,-493.08 152.49,-502.55 162.1,-498.1 157.23,-493.08"/>
</a>
</g>
</g>
<!-- Node4&#45;&gt;Node6 -->
<g id="edge106_Node000004_Node000006" class="edge">
<title>Node4&#45;&gt;Node6</title>
<g id="a_edge106_Node000004_Node000006"><a xlink:title=" ">
<path fill="none" stroke="#63b8ff" d="M103.8,-559.47C124.7,-586.69 158.1,-624.53 196,-646.12 214.06,-656.42 236.02,-662.64 255.52,-666.41"/>
<polygon fill="#63b8ff" stroke="#63b8ff" points="106.01,-557.58 97.2,-551.69 100.41,-561.78 106.01,-557.58"/>
</a>
</g>
</g>
<!-- Node4&#45;&gt;Node7 -->
<g id="edge107_Node000004_Node000007" class="edge">
<title>Node4&#45;&gt;Node7</title>
<g id="a_edge107_Node000004_Node000007"><a xlink:title=" ">
<path fill="none" stroke="#63b8ff" d="M135.48,-555.4C154.36,-564.6 175.85,-574.42 196,-582.12 208.2,-586.79 221.37,-591.18 234.22,-595.12"/>
<polygon fill="#63b8ff" stroke="#63b8ff" points="137.39,-551.94 126.87,-550.66 134.29,-558.22 137.39,-551.94"/>
</a>
</g>
</g>
<!-- Node4&#45;&gt;Node8 -->
<g id="edge108_Node000004_Node000008" class="edge">
<title>Node4&#45;&gt;Node8</title>
<g id="a_edge108_Node000004_Node000008"><a xlink:title=" ">
<path fill="none" stroke="#63b8ff" d="M170.97,-538.75C199.89,-542.49 230.86,-546.49 255.78,-549.71"/>
<polygon fill="#63b8ff" stroke="#63b8ff" points="171.79,-535.2 161.42,-537.39 170.89,-542.14 171.79,-535.2"/>
</a>
</g>
</g>
<!-- Node4&#45;&gt;Node9 -->
<g id="edge109_Node000004_Node000009" class="edge">
<title>Node4&#45;&gt;Node9</title>
<g id="a_edge109_Node000004_Node000009"><a xlink:title=" ">
<path fill="none" stroke="#63b8ff" d="M170.99,-515.49C196.81,-512.16 224.27,-508.61 247.59,-505.59"/>
<polygon fill="#63b8ff" stroke="#63b8ff" points="170.89,-512.11 161.42,-516.86 171.79,-519.05 170.89,-512.11"/>
</a>
</g>
</g>
</g>
</svg>
