<?xml version="1.0" encoding="UTF-8" standalone="no"?>
<!DOCTYPE svg PUBLIC "-//W3C//DTD SVG 1.1//EN"
 "http://www.w3.org/Graphics/SVG/1.1/DTD/svg11.dtd">
<!-- Generated by graphviz version 12.2.1 (20250203.1708)
 -->
<!-- Title: Graphical Class Hierarchy Pages: 1 -->
<svg width="552pt" height="300pt"
 viewBox="0.00 0.00 551.75 299.50" xmlns="http://www.w3.org/2000/svg" xmlns:xlink="http://www.w3.org/1999/xlink">
<g id="graph0" class="graph" transform="scale(1 1) rotate(0) translate(4 295.5)">
<title>Graphical Class Hierarchy</title>
<!-- Node0 -->
<g id="Node000000" class="node">
<title>Node0</title>
<g id="a_Node000000"><a xlink:title=" ">
<polygon fill="#e0e0e0" stroke="#999999" points="121.75,-169.12 0,-169.12 0,-148.38 121.75,-148.38 121.75,-169.12"/>
<text text-anchor="middle" x="60.88" y="-155.62" font-family="Helvetica,sans-Serif" font-size="10.00">std::integral_constant</text>
</a>
</g>
</g>
<!-- Node1 -->
<g id="Node000001" class="node">
<title>Node1</title>
<g id="a_Node000001"><a xlink:href="structtl_1_1detail_1_1is__swappable_3_01T_0fN_0e_00_01T_0fN_0e_4.html" target="_top" xlink:title=" ">
<polygon fill="white" stroke="#666666" points="316.62,-291.5 188.12,-291.5 188.12,-258 316.62,-258 316.62,-291.5"/>
<text text-anchor="start" x="196.12" y="-278" font-family="Helvetica,sans-Serif" font-size="10.00">tl::detail::is_swappable</text>
<text text-anchor="middle" x="252.38" y="-265.25" font-family="Helvetica,sans-Serif" font-size="10.00">&lt; T[N], T[N]&gt;</text>
</a>
</g>
</g>
<!-- Node0&#45;&gt;Node1 -->
<g id="edge189_Node000000_Node000001" class="edge">
<title>Node0&#45;&gt;Node1</title>
<g id="a_edge189_Node000000_Node000001"><a xlink:title=" ">
<path fill="none" stroke="#63b8ff" d="M78.72,-177.64C96.63,-196.71 126.63,-225.83 157.75,-243.75 167.1,-249.13 177.51,-253.74 187.91,-257.64"/>
<polygon fill="#63b8ff" stroke="#63b8ff" points="81.53,-175.53 72.18,-170.54 76.38,-180.27 81.53,-175.53"/>
</a>
</g>
</g>
<!-- Node2 -->
<g id="Node000002" class="node">
<title>Node2</title>
<g id="a_Node000002"><a xlink:href="structtl_1_1detail_1_1swap__adl__tests_1_1is__std__swap__noexcept_3_01T_0fN_0e_4.html" target="_top" xlink:title=" ">
<polygon fill="white" stroke="#666666" points="543.75,-145.88 383,-145.88 383,-99.62 543.75,-99.62 543.75,-145.88"/>
<text text-anchor="start" x="391" y="-132.38" font-family="Helvetica,sans-Serif" font-size="10.00">tl::detail::swap_adl</text>
<text text-anchor="start" x="391" y="-119.62" font-family="Helvetica,sans-Serif" font-size="10.00">_tests::is_std_swap_noexcept</text>
<text text-anchor="middle" x="463.38" y="-106.88" font-family="Helvetica,sans-Serif" font-size="10.00">&lt; T[N]&gt;</text>
</a>
</g>
</g>
<!-- Node0&#45;&gt;Node2 -->
<g id="edge190_Node000000_Node000002" class="edge">
<title>Node0&#45;&gt;Node2</title>
<g id="a_edge190_Node000000_Node000002"><a xlink:title=" ">
<path fill="none" stroke="#63b8ff" d="M85.59,-175.98C104.18,-188.37 131.27,-204.03 157.75,-210.75 239.28,-231.44 267.31,-237.67 347,-210.75 384.47,-198.09 419.38,-167.86 440.77,-146.37"/>
<polygon fill="#63b8ff" stroke="#63b8ff" points="87.65,-173.15 77.43,-170.37 83.69,-178.92 87.65,-173.15"/>
</a>
</g>
</g>
<!-- Node4 -->
<g id="Node000004" class="node">
<title>Node4</title>
<g id="a_Node000004"><a xlink:href="structtl_1_1detail_1_1is__nothrow__swappable.html" target="_top" xlink:title=" ">
<polygon fill="white" stroke="#666666" points="310.25,-201.5 194.5,-201.5 194.5,-168 310.25,-168 310.25,-201.5"/>
<text text-anchor="start" x="202.5" y="-188" font-family="Helvetica,sans-Serif" font-size="10.00">tl::detail::is_nothrow</text>
<text text-anchor="middle" x="252.38" y="-175.25" font-family="Helvetica,sans-Serif" font-size="10.00">_swappable&lt; T, U &gt;</text>
</a>
</g>
</g>
<!-- Node0&#45;&gt;Node4 -->
<g id="edge191_Node000000_Node000004" class="edge">
<title>Node0&#45;&gt;Node4</title>
<g id="a_edge191_Node000000_Node000004"><a xlink:title=" ">
<path fill="none" stroke="#63b8ff" d="M133.4,-168.56C153.5,-171.32 175.08,-174.28 194.22,-176.91"/>
<polygon fill="#63b8ff" stroke="#63b8ff" points="133.98,-165.11 123.59,-167.22 133.03,-172.04 133.98,-165.11"/>
</a>
</g>
</g>
<!-- Node5 -->
<g id="Node000005" class="node">
<title>Node5</title>
<g id="a_Node000005"><a xlink:href="structtl_1_1detail_1_1is__swappable.html" target="_top" xlink:title=" ">
<polygon fill="white" stroke="#666666" points="316.62,-149.5 188.12,-149.5 188.12,-116 316.62,-116 316.62,-149.5"/>
<text text-anchor="start" x="196.12" y="-136" font-family="Helvetica,sans-Serif" font-size="10.00">tl::detail::is_swappable</text>
<text text-anchor="middle" x="252.38" y="-123.25" font-family="Helvetica,sans-Serif" font-size="10.00">&lt; T, U &gt;</text>
</a>
</g>
</g>
<!-- Node0&#45;&gt;Node5 -->
<g id="edge192_Node000000_Node000005" class="edge">
<title>Node0&#45;&gt;Node5</title>
<g id="a_edge192_Node000000_Node000005"><a xlink:title=" ">
<path fill="none" stroke="#63b8ff" d="M133.34,-148.94C151.21,-146.49 170.25,-143.88 187.71,-141.48"/>
<polygon fill="#63b8ff" stroke="#63b8ff" points="133.03,-145.46 123.59,-150.28 133.98,-152.39 133.03,-145.46"/>
</a>
</g>
</g>
<!-- Node6 -->
<g id="Node000006" class="node">
<title>Node6</title>
<g id="a_Node000006"><a xlink:href="structtl_1_1detail_1_1swap__adl__tests_1_1is__adl__swap__noexcept.html" target="_top" xlink:title=" ">
<polygon fill="white" stroke="#666666" points="332.75,-97.88 172,-97.88 172,-51.62 332.75,-51.62 332.75,-97.88"/>
<text text-anchor="start" x="180" y="-84.38" font-family="Helvetica,sans-Serif" font-size="10.00">tl::detail::swap_adl</text>
<text text-anchor="start" x="180" y="-71.62" font-family="Helvetica,sans-Serif" font-size="10.00">_tests::is_adl_swap_noexcept</text>
<text text-anchor="middle" x="252.38" y="-58.88" font-family="Helvetica,sans-Serif" font-size="10.00">&lt; T, U &gt;</text>
</a>
</g>
</g>
<!-- Node0&#45;&gt;Node6 -->
<g id="edge193_Node000000_Node000006" class="edge">
<title>Node0&#45;&gt;Node6</title>
<g id="a_edge193_Node000000_Node000006"><a xlink:title=" ">
<path fill="none" stroke="#63b8ff" d="M89.14,-142.37C108,-131.44 133.9,-117.21 157.75,-106.75 164.44,-103.82 171.48,-100.98 178.59,-98.28"/>
<polygon fill="#63b8ff" stroke="#63b8ff" points="87.61,-139.21 80.75,-147.29 91.15,-145.25 87.61,-139.21"/>
</a>
</g>
</g>
<!-- Node3 -->
<g id="Node000003" class="node">
<title>Node3</title>
<g id="a_Node000003"><a xlink:href="structtl_1_1detail_1_1swap__adl__tests_1_1is__std__swap__noexcept.html" target="_top" xlink:title=" ">
<polygon fill="white" stroke="#666666" points="347,-33.5 157.75,-33.5 157.75,0 347,0 347,-33.5"/>
<text text-anchor="start" x="165.75" y="-20" font-family="Helvetica,sans-Serif" font-size="10.00">tl::detail::swap_adl</text>
<text text-anchor="middle" x="252.38" y="-7.25" font-family="Helvetica,sans-Serif" font-size="10.00">_tests::is_std_swap_noexcept&lt; T &gt;</text>
</a>
</g>
</g>
<!-- Node0&#45;&gt;Node3 -->
<g id="edge194_Node000000_Node000003" class="edge">
<title>Node0&#45;&gt;Node3</title>
<g id="a_edge194_Node000000_Node000003"><a xlink:title=" ">
<path fill="none" stroke="#63b8ff" d="M73.34,-138.3C89.02,-112.2 119.61,-67.5 157.75,-42.75 162.99,-39.35 168.66,-36.39 174.55,-33.82"/>
<polygon fill="#63b8ff" stroke="#63b8ff" points="70.5,-136.21 68.49,-146.61 76.55,-139.74 70.5,-136.21"/>
</a>
</g>
</g>
<!-- Node3&#45;&gt;Node2 -->
<g id="edge195_Node000003_Node000002" class="edge">
<title>Node3&#45;&gt;Node2</title>
<g id="a_edge195_Node000003_Node000002"><a xlink:title=" ">
<path fill="none" stroke="#63b8ff" d="M335.44,-37.79C339.39,-39.35 343.27,-41 347,-42.75 379,-57.76 411.76,-81.43 434.16,-99.14"/>
<polygon fill="#63b8ff" stroke="#63b8ff" points="336.85,-34.58 326.26,-34.4 334.43,-41.14 336.85,-34.58"/>
</a>
</g>
</g>
</g>
</svg>
