<?xml version="1.0" encoding="UTF-8" standalone="no"?>
<!DOCTYPE svg PUBLIC "-//W3C//DTD SVG 1.1//EN"
 "http://www.w3.org/Graphics/SVG/1.1/DTD/svg11.dtd">
<!-- Generated by graphviz version 11.0.0 (20240519.1550)
 -->
<!-- Title: Graphical Class Hierarchy Pages: 1 -->
<svg width="552pt" height="268pt"
 viewBox="0.00 0.00 551.75 267.88" xmlns="http://www.w3.org/2000/svg" xmlns:xlink="http://www.w3.org/1999/xlink">
<g id="graph0" class="graph" transform="scale(1 1) rotate(0) translate(4 263.88)">
<title>Graphical Class Hierarchy</title>
<!-- Node0 -->
<g id="Node000000" class="node">
<title>Node0</title>
<g id="a_Node000000"><a xlink:title=" ">
<polygon fill="#e0e0e0" stroke="#999999" points="121.75,-149.5 0,-149.5 0,-128.75 121.75,-128.75 121.75,-149.5"/>
<text text-anchor="middle" x="60.88" y="-136" font-family="Helvetica,sans-Serif" font-size="10.00">std::integral_constant</text>
</a>
</g>
</g>
<!-- Node1 -->
<g id="Node000001" class="node">
<title>Node1</title>
<g id="a_Node000001"><a xlink:href="structtl_1_1detail_1_1is__nothrow__swappable.html" target="_top" xlink:title=" ">
<polygon fill="white" stroke="#666666" points="310.25,-259.88 194.5,-259.88 194.5,-226.38 310.25,-226.38 310.25,-259.88"/>
<text text-anchor="start" x="202.5" y="-246.38" font-family="Helvetica,sans-Serif" font-size="10.00">tl::detail::is_nothrow</text>
<text text-anchor="middle" x="252.38" y="-233.62" font-family="Helvetica,sans-Serif" font-size="10.00">_swappable&lt; T, U &gt;</text>
</a>
</g>
</g>
<!-- Node0&#45;&gt;Node1 -->
<g id="edge153_Node000000_Node000001" class="edge">
<title>Node0&#45;&gt;Node1</title>
<g id="a_edge153_Node000000_Node000001"><a xlink:title=" ">
<path fill="none" stroke="#63b8ff" d="M79.98,-157.78C98.12,-175.46 127.61,-201.55 157.75,-217.12 168.99,-222.93 181.68,-227.57 194.01,-231.22"/>
<polygon fill="#63b8ff" stroke="#63b8ff" points="82.66,-155.51 73.11,-150.93 77.72,-160.47 82.66,-155.51"/>
</a>
</g>
</g>
<!-- Node2 -->
<g id="Node000002" class="node">
<title>Node2</title>
<g id="a_Node000002"><a xlink:href="structtl_1_1detail_1_1is__swappable.html" target="_top" xlink:title=" ">
<polygon fill="white" stroke="#666666" points="316.62,-207.88 188.12,-207.88 188.12,-174.38 316.62,-174.38 316.62,-207.88"/>
<text text-anchor="start" x="196.12" y="-194.38" font-family="Helvetica,sans-Serif" font-size="10.00">tl::detail::is_swappable</text>
<text text-anchor="middle" x="252.38" y="-181.62" font-family="Helvetica,sans-Serif" font-size="10.00">&lt; T, U &gt;</text>
</a>
</g>
</g>
<!-- Node0&#45;&gt;Node2 -->
<g id="edge154_Node000000_Node000002" class="edge">
<title>Node0&#45;&gt;Node2</title>
<g id="a_edge154_Node000000_Node000002"><a xlink:title=" ">
<path fill="none" stroke="#63b8ff" d="M111.92,-152.86C135.44,-159.31 163.73,-167.07 188.66,-173.92"/>
<polygon fill="#63b8ff" stroke="#63b8ff" points="113.17,-149.57 102.6,-150.3 111.32,-156.32 113.17,-149.57"/>
</a>
</g>
</g>
<!-- Node3 -->
<g id="Node000003" class="node">
<title>Node3</title>
<g id="a_Node000003"><a xlink:href="structtl_1_1detail_1_1is__swappable_3_01T_0fN_0e_00_01T_0fN_0e_4.html" target="_top" xlink:title=" ">
<polygon fill="white" stroke="#666666" points="316.62,-155.88 188.12,-155.88 188.12,-122.38 316.62,-122.38 316.62,-155.88"/>
<text text-anchor="start" x="196.12" y="-142.38" font-family="Helvetica,sans-Serif" font-size="10.00">tl::detail::is_swappable</text>
<text text-anchor="middle" x="252.38" y="-129.62" font-family="Helvetica,sans-Serif" font-size="10.00">&lt; T[N], T[N]&gt;</text>
</a>
</g>
</g>
<!-- Node0&#45;&gt;Node3 -->
<g id="edge155_Node000000_Node000003" class="edge">
<title>Node0&#45;&gt;Node3</title>
<g id="a_edge155_Node000000_Node000003"><a xlink:title=" ">
<path fill="none" stroke="#63b8ff" d="M133.59,-139.12C151.39,-139.12 170.33,-139.12 187.71,-139.12"/>
<polygon fill="#63b8ff" stroke="#63b8ff" points="133.61,-135.63 123.61,-139.13 133.61,-142.63 133.61,-135.63"/>
</a>
</g>
</g>
<!-- Node4 -->
<g id="Node000004" class="node">
<title>Node4</title>
<g id="a_Node000004"><a xlink:href="structtl_1_1detail_1_1swap__adl__tests_1_1is__adl__swap__noexcept.html" target="_top" xlink:title=" ">
<polygon fill="white" stroke="#666666" points="332.75,-104.25 172,-104.25 172,-58 332.75,-58 332.75,-104.25"/>
<text text-anchor="start" x="180" y="-90.75" font-family="Helvetica,sans-Serif" font-size="10.00">tl::detail::swap_adl</text>
<text text-anchor="start" x="180" y="-78" font-family="Helvetica,sans-Serif" font-size="10.00">_tests::is_adl_swap_noexcept</text>
<text text-anchor="middle" x="252.38" y="-65.25" font-family="Helvetica,sans-Serif" font-size="10.00">&lt; T, U &gt;</text>
</a>
</g>
</g>
<!-- Node0&#45;&gt;Node4 -->
<g id="edge156_Node000000_Node000004" class="edge">
<title>Node0&#45;&gt;Node4</title>
<g id="a_edge156_Node000000_Node000004"><a xlink:title=" ">
<path fill="none" stroke="#63b8ff" d="M108.02,-125C127.96,-118.9 151.85,-111.59 174.35,-104.7"/>
<polygon fill="#63b8ff" stroke="#63b8ff" points="107.06,-121.64 98.52,-127.91 109.11,-128.33 107.06,-121.64"/>
</a>
</g>
</g>
<!-- Node5 -->
<g id="Node000005" class="node">
<title>Node5</title>
<g id="a_Node000005"><a xlink:href="structtl_1_1detail_1_1swap__adl__tests_1_1is__std__swap__noexcept.html" target="_top" xlink:title=" ">
<polygon fill="white" stroke="#666666" points="347,-39.88 157.75,-39.88 157.75,-6.38 347,-6.38 347,-39.88"/>
<text text-anchor="start" x="165.75" y="-26.38" font-family="Helvetica,sans-Serif" font-size="10.00">tl::detail::swap_adl</text>
<text text-anchor="middle" x="252.38" y="-13.62" font-family="Helvetica,sans-Serif" font-size="10.00">_tests::is_std_swap_noexcept&lt; T &gt;</text>
</a>
</g>
</g>
<!-- Node0&#45;&gt;Node5 -->
<g id="edge157_Node000000_Node000005" class="edge">
<title>Node0&#45;&gt;Node5</title>
<g id="a_edge157_Node000000_Node000005"><a xlink:title=" ">
<path fill="none" stroke="#63b8ff" d="M77.47,-119.73C94.94,-99.26 125.11,-67.48 157.75,-49.12 163.63,-45.82 169.96,-42.91 176.45,-40.35"/>
<polygon fill="#63b8ff" stroke="#63b8ff" points="74.84,-117.41 71.14,-127.34 80.22,-121.89 74.84,-117.41"/>
</a>
</g>
</g>
<!-- Node6 -->
<g id="Node000006" class="node">
<title>Node6</title>
<g id="a_Node000006"><a xlink:href="structtl_1_1detail_1_1swap__adl__tests_1_1is__std__swap__noexcept_3_01T_0fN_0e_4.html" target="_top" xlink:title=" ">
<polygon fill="white" stroke="#666666" points="543.75,-46.25 383,-46.25 383,0 543.75,0 543.75,-46.25"/>
<text text-anchor="start" x="391" y="-32.75" font-family="Helvetica,sans-Serif" font-size="10.00">tl::detail::swap_adl</text>
<text text-anchor="start" x="391" y="-20" font-family="Helvetica,sans-Serif" font-size="10.00">_tests::is_std_swap_noexcept</text>
<text text-anchor="middle" x="463.38" y="-7.25" font-family="Helvetica,sans-Serif" font-size="10.00">&lt; T[N]&gt;</text>
</a>
</g>
</g>
<!-- Node5&#45;&gt;Node6 -->
<g id="edge158_Node000005_Node000006" class="edge">
<title>Node5&#45;&gt;Node6</title>
<g id="a_edge158_Node000005_Node000006"><a xlink:title=" ">
<path fill="none" stroke="#63b8ff" d="M358.76,-23.12C366.75,-23.12 374.73,-23.12 382.52,-23.12"/>
<polygon fill="#63b8ff" stroke="#63b8ff" points="358.99,-19.63 348.99,-23.13 358.99,-26.63 358.99,-19.63"/>
</a>
</g>
</g>
</g>
</svg>
