<?xml version="1.0" encoding="UTF-8" standalone="no"?>
<!DOCTYPE svg PUBLIC "-//W3C//DTD SVG 1.1//EN"
 "http://www.w3.org/Graphics/SVG/1.1/DTD/svg11.dtd">
<!-- Generated by graphviz version 5.0.1 (20220821.0811)
 -->
<!-- Title: Graphical Class Hierarchy Pages: 1 -->
<svg width="709pt" height="613pt"
 viewBox="0.00 0.00 709.00 612.50" xmlns="http://www.w3.org/2000/svg" xmlns:xlink="http://www.w3.org/1999/xlink">
<g id="graph0" class="graph" transform="scale(1 1) rotate(0) translate(4 608.5)">
<title>Graphical Class Hierarchy</title>
<!-- Node0 -->
<g id="node1" class="node">
<title>Node0</title>
<g id="a_node1"><a xlink:href="structproxsuite_1_1linalg_1_1veg_1_1tuple_1_1IndexedTuple.html" target="_top" xlink:title=" ">
<polygon fill="none" stroke="black" points="0,-247.5 0,-299.5 170,-299.5 170,-247.5 0,-247.5"/>
<text text-anchor="start" x="8" y="-287.5" font-family="Helvetica,sans-Serif" font-size="10.00">proxsuite::linalg::</text>
<text text-anchor="start" x="8" y="-276.5" font-family="Helvetica,sans-Serif" font-size="10.00">veg::tuple::IndexedTuple</text>
<text text-anchor="start" x="8" y="-265.5" font-family="Helvetica,sans-Serif" font-size="10.00">&lt; meta::make_index_sequence</text>
<text text-anchor="middle" x="85" y="-254.5" font-family="Helvetica,sans-Serif" font-size="10.00">&lt; sizeof...(Ts)&gt;, Ts... &gt;</text>
</a>
</g>
</g>
<!-- Node1 -->
<g id="node2" class="node">
<title>Node1</title>
<g id="a_node2"><a xlink:href="structproxsuite_1_1linalg_1_1veg_1_1Tuple.html" target="_top" xlink:title=" ">
<polygon fill="none" stroke="black" points="238.5,-561 238.5,-602 411.5,-602 411.5,-561 238.5,-561"/>
<text text-anchor="start" x="246.5" y="-590" font-family="Helvetica,sans-Serif" font-size="10.00">proxsuite::linalg::</text>
<text text-anchor="start" x="246.5" y="-579" font-family="Helvetica,sans-Serif" font-size="10.00">veg::Tuple&lt; mem::SystemAlloc,</text>
<text text-anchor="middle" x="325" y="-568" font-family="Helvetica,sans-Serif" font-size="10.00"> RawVectorMoveRaii&lt; T &gt; &gt;</text>
</a>
</g>
</g>
<!-- Node0&#45;&gt;Node1 -->
<g id="edge1" class="edge">
<title>Node0&#45;&gt;Node1</title>
<path fill="none" stroke="midnightblue" d="M91.74,-309.63C102.97,-368.25 133.4,-483.92 206,-547.5 215.38,-555.72 226.64,-561.95 238.42,-566.69"/>
<polygon fill="midnightblue" stroke="midnightblue" points="95.17,-308.92 89.92,-299.71 88.28,-310.18 95.17,-308.92"/>
</g>
<!-- Node3 -->
<g id="node4" class="node">
<title>Node3</title>
<g id="a_node4"><a xlink:href="structproxsuite_1_1linalg_1_1veg_1_1Tuple.html" target="_top" xlink:title=" ">
<polygon fill="none" stroke="black" points="240.5,-497 240.5,-538 409.5,-538 409.5,-497 240.5,-497"/>
<text text-anchor="start" x="248.5" y="-526" font-family="Helvetica,sans-Serif" font-size="10.00">proxsuite::linalg::</text>
<text text-anchor="start" x="248.5" y="-515" font-family="Helvetica,sans-Serif" font-size="10.00">veg::Tuple&lt; A, RawVectorMove</text>
<text text-anchor="middle" x="325" y="-504" font-family="Helvetica,sans-Serif" font-size="10.00">Raii&lt; T &gt; &gt;</text>
</a>
</g>
</g>
<!-- Node0&#45;&gt;Node3 -->
<g id="edge3" class="edge">
<title>Node0&#45;&gt;Node3</title>
<path fill="none" stroke="midnightblue" d="M97.48,-309.17C114.13,-355.33 149.33,-435.18 206,-480.5 216.14,-488.61 228.08,-494.96 240.4,-499.92"/>
<polygon fill="midnightblue" stroke="midnightblue" points="100.73,-307.86 94.11,-299.58 94.12,-310.18 100.73,-307.86"/>
</g>
<!-- Node5 -->
<g id="node6" class="node">
<title>Node5</title>
<g id="a_node6"><a xlink:href="structproxsuite_1_1linalg_1_1veg_1_1Tuple.html" target="_top" xlink:title=" ">
<polygon fill="none" stroke="black" points="206,-386 206,-471 444,-471 444,-386 206,-386"/>
<text text-anchor="start" x="214" y="-459" font-family="Helvetica,sans-Serif" font-size="10.00">proxsuite::linalg::</text>
<text text-anchor="start" x="214" y="-448" font-family="Helvetica,sans-Serif" font-size="10.00">veg::Tuple&lt; proxsuite</text>
<text text-anchor="start" x="214" y="-437" font-family="Helvetica,sans-Serif" font-size="10.00">::linalg::veg::meta::if</text>
<text text-anchor="start" x="214" y="-426" font-family="Helvetica,sans-Serif" font-size="10.00">_t&lt; _detail::should_vectorize</text>
<text text-anchor="start" x="214" y="-415" font-family="Helvetica,sans-Serif" font-size="10.00">&lt; T &gt;::value, _detail::SimdAlignedSystem</text>
<text text-anchor="start" x="214" y="-404" font-family="Helvetica,sans-Serif" font-size="10.00">Alloc, proxsuite::linalg::veg::mem</text>
<text text-anchor="middle" x="325" y="-393" font-family="Helvetica,sans-Serif" font-size="10.00">::SystemAlloc &gt;, RawVectorMoveRaii&lt; T &gt; &gt;</text>
</a>
</g>
</g>
<!-- Node0&#45;&gt;Node5 -->
<g id="edge5" class="edge">
<title>Node0&#45;&gt;Node5</title>
<path fill="none" stroke="midnightblue" d="M123.61,-306.47C146.57,-325.76 176.98,-349.9 206,-368.5 215.29,-374.45 225.24,-380.28 235.28,-385.83"/>
<polygon fill="midnightblue" stroke="midnightblue" points="125.71,-303.66 115.82,-299.87 121.19,-309 125.71,-303.66"/>
</g>
<!-- Node7 -->
<g id="node8" class="node">
<title>Node7</title>
<g id="a_node8"><a xlink:href="structproxsuite_1_1linalg_1_1veg_1_1Tuple.html" target="_top" xlink:title=" ">
<polygon fill="none" stroke="black" points="238.5,-318 238.5,-359 411.5,-359 411.5,-318 238.5,-318"/>
<text text-anchor="start" x="246.5" y="-347" font-family="Helvetica,sans-Serif" font-size="10.00">proxsuite::linalg::</text>
<text text-anchor="start" x="246.5" y="-336" font-family="Helvetica,sans-Serif" font-size="10.00">veg::Tuple&lt; mem::SystemAlloc,</text>
<text text-anchor="middle" x="325" y="-325" font-family="Helvetica,sans-Serif" font-size="10.00"> RawVectorMoveRaii&lt; isize &gt; &gt;</text>
</a>
</g>
</g>
<!-- Node0&#45;&gt;Node7 -->
<g id="edge7" class="edge">
<title>Node0&#45;&gt;Node7</title>
<path fill="none" stroke="midnightblue" d="M179.92,-299.15C202.71,-305.37 226.78,-311.95 248.59,-317.9"/>
<polygon fill="midnightblue" stroke="midnightblue" points="180.81,-295.77 170.24,-296.51 178.97,-302.52 180.81,-295.77"/>
</g>
<!-- Node9 -->
<g id="node10" class="node">
<title>Node9</title>
<g id="a_node10"><a xlink:href="structproxsuite_1_1linalg_1_1veg_1_1Tuple.html" target="_top" xlink:title=" ">
<polygon fill="none" stroke="black" points="238.5,-253 238.5,-294 411.5,-294 411.5,-253 238.5,-253"/>
<text text-anchor="start" x="246.5" y="-282" font-family="Helvetica,sans-Serif" font-size="10.00">proxsuite::linalg::</text>
<text text-anchor="start" x="246.5" y="-271" font-family="Helvetica,sans-Serif" font-size="10.00">veg::Tuple&lt; mem::SystemAlloc,</text>
<text text-anchor="middle" x="325" y="-260" font-family="Helvetica,sans-Serif" font-size="10.00"> RawVectorMoveRaii&lt; bool &gt; &gt;</text>
</a>
</g>
</g>
<!-- Node0&#45;&gt;Node9 -->
<g id="edge9" class="edge">
<title>Node0&#45;&gt;Node9</title>
<path fill="none" stroke="midnightblue" d="M180.44,-273.5C199.53,-273.5 219.49,-273.5 238.26,-273.5"/>
<polygon fill="midnightblue" stroke="midnightblue" points="180.24,-270 170.24,-273.5 180.24,-277 180.24,-270"/>
</g>
<!-- Node11 -->
<g id="node12" class="node">
<title>Node11</title>
<g id="a_node12"><a xlink:href="structproxsuite_1_1linalg_1_1veg_1_1Tuple.html" target="_top" xlink:title=" ">
<polygon fill="none" stroke="black" points="238.5,-181.5 238.5,-233.5 411.5,-233.5 411.5,-181.5 238.5,-181.5"/>
<text text-anchor="start" x="246.5" y="-221.5" font-family="Helvetica,sans-Serif" font-size="10.00">proxsuite::linalg::</text>
<text text-anchor="start" x="246.5" y="-210.5" font-family="Helvetica,sans-Serif" font-size="10.00">veg::Tuple&lt; mem::SystemAlloc,</text>
<text text-anchor="start" x="246.5" y="-199.5" font-family="Helvetica,sans-Serif" font-size="10.00"> RawVectorMoveRaii&lt; unsigned</text>
<text text-anchor="middle" x="325" y="-188.5" font-family="Helvetica,sans-Serif" font-size="10.00"> char &gt; &gt;</text>
</a>
</g>
</g>
<!-- Node0&#45;&gt;Node11 -->
<g id="edge11" class="edge">
<title>Node0&#45;&gt;Node11</title>
<path fill="none" stroke="midnightblue" d="M179.91,-247.46C199.16,-242.12 219.32,-236.53 238.26,-231.28"/>
<polygon fill="midnightblue" stroke="midnightblue" points="178.95,-244.09 170.24,-250.14 180.82,-250.84 178.95,-244.09"/>
</g>
<!-- Node13 -->
<g id="node14" class="node">
<title>Node13</title>
<g id="a_node14"><a xlink:href="structproxsuite_1_1linalg_1_1veg_1_1Tuple.html" target="_top" xlink:title=" ">
<polygon fill="none" stroke="black" points="238.5,-121 238.5,-162 411.5,-162 411.5,-121 238.5,-121"/>
<text text-anchor="start" x="246.5" y="-150" font-family="Helvetica,sans-Serif" font-size="10.00">proxsuite::linalg::</text>
<text text-anchor="start" x="246.5" y="-139" font-family="Helvetica,sans-Serif" font-size="10.00">veg::Tuple&lt; mem::SystemAlloc,</text>
<text text-anchor="middle" x="325" y="-128" font-family="Helvetica,sans-Serif" font-size="10.00"> RawVectorMoveRaii&lt; I &gt; &gt;</text>
</a>
</g>
</g>
<!-- Node0&#45;&gt;Node13 -->
<g id="edge13" class="edge">
<title>Node0&#45;&gt;Node13</title>
<path fill="none" stroke="midnightblue" d="M117.54,-240.1C140.21,-217.94 172.55,-189.84 206,-172.5 216.06,-167.28 227.07,-162.9 238.19,-159.21"/>
<polygon fill="midnightblue" stroke="midnightblue" points="114.86,-237.83 110.24,-247.37 119.8,-242.8 114.86,-237.83"/>
</g>
<!-- Node15 -->
<g id="node16" class="node">
<title>Node15</title>
<g id="a_node16"><a xlink:href="structproxsuite_1_1linalg_1_1veg_1_1Tuple.html" target="_top" xlink:title=" ">
<polygon fill="none" stroke="black" points="238,-49.5 238,-101.5 412,-101.5 412,-49.5 238,-49.5"/>
<text text-anchor="start" x="246" y="-89.5" font-family="Helvetica,sans-Serif" font-size="10.00">proxsuite::linalg::</text>
<text text-anchor="start" x="246" y="-78.5" font-family="Helvetica,sans-Serif" font-size="10.00">veg::Tuple&lt; mem::SystemAlloc,</text>
<text text-anchor="start" x="246" y="-67.5" font-family="Helvetica,sans-Serif" font-size="10.00"> RawVectorMoveRaii&lt; proxsuite</text>
<text text-anchor="middle" x="325" y="-56.5" font-family="Helvetica,sans-Serif" font-size="10.00">::linalg::veg::mem::byte &gt; &gt;</text>
</a>
</g>
</g>
<!-- Node0&#45;&gt;Node15 -->
<g id="edge15" class="edge">
<title>Node0&#45;&gt;Node15</title>
<path fill="none" stroke="midnightblue" d="M103.32,-238.35C123.21,-201.52 159.21,-144.53 206,-111.5 215.62,-104.71 226.56,-99.17 237.8,-94.66"/>
<polygon fill="midnightblue" stroke="midnightblue" points="100.19,-236.77 98.61,-247.25 106.38,-240.05 100.19,-236.77"/>
</g>
<!-- Node17 -->
<g id="node18" class="node">
<title>Node17</title>
<g id="a_node18"><a xlink:href="structproxsuite_1_1linalg_1_1veg_1_1Tuple.html" target="_top" xlink:title=" ">
<polygon fill="none" stroke="black" points="274.5,-0.5 274.5,-30.5 375.5,-30.5 375.5,-0.5 274.5,-0.5"/>
<text text-anchor="start" x="282.5" y="-18.5" font-family="Helvetica,sans-Serif" font-size="10.00">proxsuite::linalg::</text>
<text text-anchor="middle" x="325" y="-7.5" font-family="Helvetica,sans-Serif" font-size="10.00">veg::Tuple&lt; Ts &gt;</text>
</a>
</g>
</g>
<!-- Node0&#45;&gt;Node17 -->
<g id="edge17" class="edge">
<title>Node0&#45;&gt;Node17</title>
<path fill="none" stroke="midnightblue" d="M94.03,-237.41C107.62,-185.17 140.35,-89.28 206,-39.5 225.41,-24.78 251.59,-18.49 274.36,-16"/>
<polygon fill="midnightblue" stroke="midnightblue" points="90.6,-236.7 91.56,-247.25 97.39,-238.4 90.6,-236.7"/>
</g>
<!-- Node2 -->
<g id="node3" class="node">
<title>Node2</title>
<g id="a_node3"><a xlink:href="structproxsuite_1_1linalg_1_1veg_1_1__detail_1_1__vector_1_1VecAlloc.html" target="_top" xlink:title=" ">
<polygon fill="none" stroke="black" points="495,-563 495,-604 686,-604 686,-563 495,-563"/>
<text text-anchor="start" x="503" y="-592" font-family="Helvetica,sans-Serif" font-size="10.00">proxsuite::linalg::</text>
<text text-anchor="start" x="503" y="-581" font-family="Helvetica,sans-Serif" font-size="10.00">veg::_detail::_vector</text>
<text text-anchor="middle" x="590.5" y="-570" font-family="Helvetica,sans-Serif" font-size="10.00">::VecAlloc&lt; T, mem::SystemAlloc &gt;</text>
</a>
</g>
</g>
<!-- Node1&#45;&gt;Node2 -->
<g id="edge2" class="edge">
<title>Node1&#45;&gt;Node2</title>
<path fill="none" stroke="midnightblue" d="M421.65,-582.23C445.48,-582.41 471.02,-582.6 494.81,-582.78"/>
<polygon fill="midnightblue" stroke="midnightblue" points="421.58,-578.73 411.55,-582.15 421.52,-585.73 421.58,-578.73"/>
</g>
<!-- Node4 -->
<g id="node5" class="node">
<title>Node4</title>
<g id="a_node5"><a xlink:href="structproxsuite_1_1linalg_1_1veg_1_1__detail_1_1__vector_1_1VecAlloc.html" target="_top" xlink:title=" ">
<polygon fill="none" stroke="black" points="532.5,-503 532.5,-544 648.5,-544 648.5,-503 532.5,-503"/>
<text text-anchor="start" x="540.5" y="-532" font-family="Helvetica,sans-Serif" font-size="10.00">proxsuite::linalg::</text>
<text text-anchor="start" x="540.5" y="-521" font-family="Helvetica,sans-Serif" font-size="10.00">veg::_detail::_vector</text>
<text text-anchor="middle" x="590.5" y="-510" font-family="Helvetica,sans-Serif" font-size="10.00">::VecAlloc&lt; T, A &gt;</text>
</a>
</g>
</g>
<!-- Node3&#45;&gt;Node4 -->
<g id="edge4" class="edge">
<title>Node3&#45;&gt;Node4</title>
<path fill="none" stroke="midnightblue" d="M420.17,-519.64C457.62,-520.5 499.5,-521.45 532.24,-522.2"/>
<polygon fill="midnightblue" stroke="midnightblue" points="419.81,-516.14 409.74,-519.41 419.65,-523.13 419.81,-516.14"/>
</g>
<!-- Node6 -->
<g id="node7" class="node">
<title>Node6</title>
<g id="a_node7"><a xlink:href="structproxsuite_1_1linalg_1_1veg_1_1__detail_1_1__vector_1_1VecAlloc.html" target="_top" xlink:title=" ">
<polygon fill="none" stroke="black" points="480,-387.5 480,-483.5 701,-483.5 701,-387.5 480,-387.5"/>
<text text-anchor="start" x="488" y="-471.5" font-family="Helvetica,sans-Serif" font-size="10.00">proxsuite::linalg::</text>
<text text-anchor="start" x="488" y="-460.5" font-family="Helvetica,sans-Serif" font-size="10.00">veg::_detail::_vector</text>
<text text-anchor="start" x="488" y="-449.5" font-family="Helvetica,sans-Serif" font-size="10.00">::VecAlloc&lt; T, proxsuite</text>
<text text-anchor="start" x="488" y="-438.5" font-family="Helvetica,sans-Serif" font-size="10.00">::linalg::veg::meta::if</text>
<text text-anchor="start" x="488" y="-427.5" font-family="Helvetica,sans-Serif" font-size="10.00">_t&lt; _detail::should_vectorize</text>
<text text-anchor="start" x="488" y="-416.5" font-family="Helvetica,sans-Serif" font-size="10.00">&lt; T &gt;::value, _detail::SimdAlignedSystem</text>
<text text-anchor="start" x="488" y="-405.5" font-family="Helvetica,sans-Serif" font-size="10.00">Alloc, proxsuite::linalg::veg::mem</text>
<text text-anchor="middle" x="590.5" y="-394.5" font-family="Helvetica,sans-Serif" font-size="10.00">::SystemAlloc &gt; &gt;</text>
</a>
</g>
</g>
<!-- Node5&#45;&gt;Node6 -->
<g id="edge6" class="edge">
<title>Node5&#45;&gt;Node6</title>
<path fill="none" stroke="midnightblue" d="M454.49,-431.91C462.89,-432.14 471.31,-432.36 479.61,-432.58"/>
<polygon fill="midnightblue" stroke="midnightblue" points="454.35,-428.41 444.26,-431.64 454.17,-435.41 454.35,-428.41"/>
</g>
<!-- Node8 -->
<g id="node9" class="node">
<title>Node8</title>
<g id="a_node9"><a xlink:href="structproxsuite_1_1linalg_1_1veg_1_1__detail_1_1__vector_1_1VecAlloc.html" target="_top" xlink:title=" ">
<polygon fill="none" stroke="black" points="526,-316.5 526,-368.5 655,-368.5 655,-316.5 526,-316.5"/>
<text text-anchor="start" x="534" y="-356.5" font-family="Helvetica,sans-Serif" font-size="10.00">proxsuite::linalg::</text>
<text text-anchor="start" x="534" y="-345.5" font-family="Helvetica,sans-Serif" font-size="10.00">veg::_detail::_vector</text>
<text text-anchor="start" x="534" y="-334.5" font-family="Helvetica,sans-Serif" font-size="10.00">::VecAlloc&lt; isize, mem</text>
<text text-anchor="middle" x="590.5" y="-323.5" font-family="Helvetica,sans-Serif" font-size="10.00">::SystemAlloc &gt;</text>
</a>
</g>
</g>
<!-- Node7&#45;&gt;Node8 -->
<g id="edge8" class="edge">
<title>Node7&#45;&gt;Node8</title>
<path fill="none" stroke="midnightblue" d="M421.68,-339.95C456.28,-340.48 494.47,-341.06 525.67,-341.53"/>
<polygon fill="midnightblue" stroke="midnightblue" points="421.6,-336.45 411.55,-339.8 421.5,-343.45 421.6,-336.45"/>
</g>
<!-- Node10 -->
<g id="node11" class="node">
<title>Node10</title>
<g id="a_node11"><a xlink:href="structproxsuite_1_1linalg_1_1veg_1_1__detail_1_1__vector_1_1VecAlloc.html" target="_top" xlink:title=" ">
<polygon fill="none" stroke="black" points="526.5,-245.5 526.5,-297.5 654.5,-297.5 654.5,-245.5 526.5,-245.5"/>
<text text-anchor="start" x="534.5" y="-285.5" font-family="Helvetica,sans-Serif" font-size="10.00">proxsuite::linalg::</text>
<text text-anchor="start" x="534.5" y="-274.5" font-family="Helvetica,sans-Serif" font-size="10.00">veg::_detail::_vector</text>
<text text-anchor="start" x="534.5" y="-263.5" font-family="Helvetica,sans-Serif" font-size="10.00">::VecAlloc&lt; bool, mem</text>
<text text-anchor="middle" x="590.5" y="-252.5" font-family="Helvetica,sans-Serif" font-size="10.00">::SystemAlloc &gt;</text>
</a>
</g>
</g>
<!-- Node9&#45;&gt;Node10 -->
<g id="edge10" class="edge">
<title>Node9&#45;&gt;Node10</title>
<path fill="none" stroke="midnightblue" d="M421.76,-272.77C456.65,-272.51 495.17,-272.22 526.5,-271.98"/>
<polygon fill="midnightblue" stroke="midnightblue" points="421.52,-269.27 411.55,-272.85 421.58,-276.27 421.52,-269.27"/>
</g>
<!-- Node12 -->
<g id="node13" class="node">
<title>Node12</title>
<g id="a_node13"><a xlink:href="structproxsuite_1_1linalg_1_1veg_1_1__detail_1_1__vector_1_1VecAlloc.html" target="_top" xlink:title=" ">
<polygon fill="none" stroke="black" points="517.5,-174.5 517.5,-226.5 663.5,-226.5 663.5,-174.5 517.5,-174.5"/>
<text text-anchor="start" x="525.5" y="-214.5" font-family="Helvetica,sans-Serif" font-size="10.00">proxsuite::linalg::</text>
<text text-anchor="start" x="525.5" y="-203.5" font-family="Helvetica,sans-Serif" font-size="10.00">veg::_detail::_vector</text>
<text text-anchor="start" x="525.5" y="-192.5" font-family="Helvetica,sans-Serif" font-size="10.00">::VecAlloc&lt; unsigned char,</text>
<text text-anchor="middle" x="590.5" y="-181.5" font-family="Helvetica,sans-Serif" font-size="10.00"> mem::SystemAlloc &gt;</text>
</a>
</g>
</g>
<!-- Node11&#45;&gt;Node12 -->
<g id="edge12" class="edge">
<title>Node11&#45;&gt;Node12</title>
<path fill="none" stroke="midnightblue" d="M421.67,-204.96C453.19,-204.12 487.7,-203.2 517.18,-202.42"/>
<polygon fill="midnightblue" stroke="midnightblue" points="421.45,-201.46 411.55,-205.23 421.64,-208.46 421.45,-201.46"/>
</g>
<!-- Node14 -->
<g id="node15" class="node">
<title>Node14</title>
<g id="a_node15"><a xlink:href="structproxsuite_1_1linalg_1_1veg_1_1__detail_1_1__vector_1_1VecAlloc.html" target="_top" xlink:title=" ">
<polygon fill="none" stroke="black" points="496.5,-114 496.5,-155 684.5,-155 684.5,-114 496.5,-114"/>
<text text-anchor="start" x="504.5" y="-143" font-family="Helvetica,sans-Serif" font-size="10.00">proxsuite::linalg::</text>
<text text-anchor="start" x="504.5" y="-132" font-family="Helvetica,sans-Serif" font-size="10.00">veg::_detail::_vector</text>
<text text-anchor="middle" x="590.5" y="-121" font-family="Helvetica,sans-Serif" font-size="10.00">::VecAlloc&lt; I, mem::SystemAlloc &gt;</text>
</a>
</g>
</g>
<!-- Node13&#45;&gt;Node14 -->
<g id="edge14" class="edge">
<title>Node13&#45;&gt;Node14</title>
<path fill="none" stroke="midnightblue" d="M421.82,-138.95C446.07,-138.31 472.07,-137.62 496.19,-136.98"/>
<polygon fill="midnightblue" stroke="midnightblue" points="421.45,-135.46 411.55,-139.23 421.64,-142.46 421.45,-135.46"/>
</g>
<!-- Node16 -->
<g id="node17" class="node">
<title>Node16</title>
<g id="a_node17"><a xlink:href="structproxsuite_1_1linalg_1_1veg_1_1__detail_1_1__vector_1_1VecAlloc.html" target="_top" xlink:title=" ">
<polygon fill="none" stroke="black" points="522.5,-32 522.5,-95 658.5,-95 658.5,-32 522.5,-32"/>
<text text-anchor="start" x="530.5" y="-83" font-family="Helvetica,sans-Serif" font-size="10.00">proxsuite::linalg::</text>
<text text-anchor="start" x="530.5" y="-72" font-family="Helvetica,sans-Serif" font-size="10.00">veg::_detail::_vector</text>
<text text-anchor="start" x="530.5" y="-61" font-family="Helvetica,sans-Serif" font-size="10.00">::VecAlloc&lt; proxsuite</text>
<text text-anchor="start" x="530.5" y="-50" font-family="Helvetica,sans-Serif" font-size="10.00">::linalg::veg::mem::byte,</text>
<text text-anchor="middle" x="590.5" y="-39" font-family="Helvetica,sans-Serif" font-size="10.00"> mem::SystemAlloc &gt;</text>
</a>
</g>
</g>
<!-- Node15&#45;&gt;Node16 -->
<g id="edge16" class="edge">
<title>Node15&#45;&gt;Node16</title>
<path fill="none" stroke="midnightblue" d="M422.45,-71.11C455.59,-69.6 491.94,-67.94 522.25,-66.56"/>
<polygon fill="midnightblue" stroke="midnightblue" points="422.11,-67.62 412.28,-71.57 422.43,-74.61 422.11,-67.62"/>
</g>
</g>
</svg>
