<?xml version="1.0" encoding="UTF-8" standalone="no"?>
<!DOCTYPE svg PUBLIC "-//W3C//DTD SVG 1.1//EN"
 "http://www.w3.org/Graphics/SVG/1.1/DTD/svg11.dtd">
<!-- Generated by graphviz version 7.1.0 (20230122.1345)
 -->
<!-- Title: Graphical Class Hierarchy Pages: 1 -->
<svg width="456pt" height="130pt"
 viewBox="0.00 0.00 456.00 130.00" xmlns="http://www.w3.org/2000/svg" xmlns:xlink="http://www.w3.org/1999/xlink">
<g id="graph0" class="graph" transform="scale(1 1) rotate(0) translate(4 126)">
<title>Graphical Class Hierarchy</title>
<!-- Node0 -->
<g id="node1" class="node">
<title>Node0</title>
<g id="a_node1"><a xlink:title=" ">
<polygon fill="#e0e0e0" stroke="#999999" points="122,-76 0,-76 0,-35 122,-35 122,-76"/>
<text text-anchor="start" x="8" y="-64" font-family="Helvetica,sans-Serif" font-size="10.00">std::integral_constant</text>
<text text-anchor="start" x="8" y="-53" font-family="Helvetica,sans-Serif" font-size="10.00">&lt; std::size_t,(A&lt; B) </text>
<text text-anchor="middle" x="61" y="-42" font-family="Helvetica,sans-Serif" font-size="10.00">? A :B &gt;</text>
</a>
</g>
</g>
<!-- Node1 -->
<g id="node2" class="node">
<title>Node1</title>
<g id="a_node2"><a xlink:href="structproxsuite_1_1linalg_1_1veg_1_1alignment_1_1detail_1_1min__size.html" target="_top" xlink:title=" ">
<polygon fill="white" stroke="#666666" points="288,-122 158,-122 158,-59 288,-59 288,-122"/>
<text text-anchor="start" x="166" y="-110" font-family="Helvetica,sans-Serif" font-size="10.00">proxsuite::linalg::</text>
<text text-anchor="start" x="166" y="-99" font-family="Helvetica,sans-Serif" font-size="10.00">veg::alignment::detail</text>
<text text-anchor="start" x="166" y="-88" font-family="Helvetica,sans-Serif" font-size="10.00">::min_size&lt; sizeof(T),</text>
<text text-anchor="start" x="166" y="-77" font-family="Helvetica,sans-Serif" font-size="10.00"> sizeof(offset_value&lt; T</text>
<text text-anchor="middle" x="223" y="-66" font-family="Helvetica,sans-Serif" font-size="10.00"> &gt;) &#45; sizeof(T)&gt;</text>
</a>
</g>
</g>
<!-- Node0&#45;&gt;Node1 -->
<g id="edge1" class="edge">
<title>Node0&#45;&gt;Node1</title>
<path fill="none" stroke="#63b8ff" d="M133.69,-71.18C141.68,-72.93 149.79,-74.7 157.69,-76.43"/>
<polygon fill="#63b8ff" stroke="#63b8ff" points="134.48,-67.77 123.97,-69.06 132.99,-74.61 134.48,-67.77"/>
</g>
<!-- Node3 -->
<g id="node4" class="node">
<title>Node3</title>
<g id="a_node4"><a xlink:href="structproxsuite_1_1linalg_1_1veg_1_1alignment_1_1detail_1_1min__size.html" target="_top" xlink:title=" ">
<polygon fill="white" stroke="#666666" points="285,-41 161,-41 161,0 285,0 285,-41"/>
<text text-anchor="start" x="169" y="-29" font-family="Helvetica,sans-Serif" font-size="10.00">proxsuite::linalg::</text>
<text text-anchor="start" x="169" y="-18" font-family="Helvetica,sans-Serif" font-size="10.00">veg::alignment::detail</text>
<text text-anchor="middle" x="223" y="-7" font-family="Helvetica,sans-Serif" font-size="10.00">::min_size&lt; A, B &gt;</text>
</a>
</g>
</g>
<!-- Node0&#45;&gt;Node3 -->
<g id="edge3" class="edge">
<title>Node0&#45;&gt;Node3</title>
<path fill="none" stroke="#63b8ff" d="M133.45,-39.87C142.52,-37.89 151.73,-35.87 160.63,-33.93"/>
<polygon fill="#63b8ff" stroke="#63b8ff" points="132.99,-36.39 123.97,-41.94 134.48,-43.23 132.99,-36.39"/>
</g>
<!-- Node2 -->
<g id="node3" class="node">
<title>Node2</title>
<g id="a_node3"><a xlink:href="structproxsuite_1_1linalg_1_1veg_1_1alignment_1_1detail_1_1alignment__of.html" target="_top" xlink:title=" ">
<polygon fill="white" stroke="#666666" points="448,-111 324,-111 324,-70 448,-70 448,-111"/>
<text text-anchor="start" x="332" y="-99" font-family="Helvetica,sans-Serif" font-size="10.00">proxsuite::linalg::</text>
<text text-anchor="start" x="332" y="-88" font-family="Helvetica,sans-Serif" font-size="10.00">veg::alignment::detail</text>
<text text-anchor="middle" x="386" y="-77" font-family="Helvetica,sans-Serif" font-size="10.00">::alignment_of&lt; T &gt;</text>
</a>
</g>
</g>
<!-- Node1&#45;&gt;Node2 -->
<g id="edge2" class="edge">
<title>Node1&#45;&gt;Node2</title>
<path fill="none" stroke="#63b8ff" d="M299.5,-90.5C307.63,-90.5 315.82,-90.5 323.75,-90.5"/>
<polygon fill="#63b8ff" stroke="#63b8ff" points="299.61,-87 289.61,-90.5 299.61,-94 299.61,-87"/>
</g>
</g>
</svg>
