<?xml version="1.0" encoding="UTF-8" standalone="no"?>
<!DOCTYPE svg PUBLIC "-//W3C//DTD SVG 1.1//EN"
 "http://www.w3.org/Graphics/SVG/1.1/DTD/svg11.dtd">
<!-- Generated by graphviz version 5.0.1 (20220821.0811)
 -->
<!-- Title: Graphical Class Hierarchy Pages: 1 -->
<svg width="321pt" height="98pt"
 viewBox="0.00 0.00 321.00 97.50" xmlns="http://www.w3.org/2000/svg" xmlns:xlink="http://www.w3.org/1999/xlink">
<g id="graph0" class="graph" transform="scale(1 1) rotate(0) translate(4 93.5)">
<title>Graphical Class Hierarchy</title>
<!-- Node0 -->
<g id="node1" class="node">
<title>Node0</title>
<g id="a_node1"><a xlink:href="structproxsuite_1_1linalg_1_1veg_1_1meta_1_1constant.html" target="_top" xlink:title=" ">
<polygon fill="white" stroke="#666666" points="114,-62.5 0,-62.5 0,-21.5 114,-21.5 114,-62.5"/>
<text text-anchor="start" x="8" y="-50.5" font-family="Helvetica,sans-Serif" font-size="10.00">proxsuite::linalg::</text>
<text text-anchor="start" x="8" y="-39.5" font-family="Helvetica,sans-Serif" font-size="10.00">veg::meta::constant</text>
<text text-anchor="middle" x="57" y="-28.5" font-family="Helvetica,sans-Serif" font-size="10.00">&lt; usize, 0 &gt;</text>
</a>
</g>
</g>
<!-- Node1 -->
<g id="node2" class="node">
<title>Node1</title>
<g id="a_node2"><a xlink:href="structproxsuite_1_1linalg_1_1veg_1_1__detail_1_1__meta_1_1specialize__len.html" target="_top" xlink:title=" ">
<polygon fill="white" stroke="#666666" points="297.5,-89.5 165.5,-89.5 165.5,-48.5 297.5,-48.5 297.5,-89.5"/>
<text text-anchor="start" x="173.5" y="-77.5" font-family="Helvetica,sans-Serif" font-size="10.00">proxsuite::linalg::</text>
<text text-anchor="start" x="173.5" y="-66.5" font-family="Helvetica,sans-Serif" font-size="10.00">veg::_detail::_meta</text>
<text text-anchor="middle" x="231.5" y="-55.5" font-family="Helvetica,sans-Serif" font-size="10.00">::specialize_len&lt; F, T &gt;</text>
</a>
</g>
</g>
<!-- Node0&#45;&gt;Node1 -->
<g id="edge1" class="edge">
<title>Node0&#45;&gt;Node1</title>
<path fill="none" stroke="#63b8ff" d="M124.2,-52.36C137.74,-54.48 151.98,-56.71 165.48,-58.82"/>
<polygon fill="#63b8ff" stroke="#63b8ff" points="124.43,-48.85 114.01,-50.77 123.34,-55.77 124.43,-48.85"/>
</g>
<!-- Node2 -->
<g id="node3" class="node">
<title>Node2</title>
<g id="a_node3"><a xlink:href="structproxsuite_1_1linalg_1_1veg_1_1meta_1_1array__extent.html" target="_top" xlink:title=" ">
<polygon fill="white" stroke="#666666" points="313,-30 150,-30 150,0 313,0 313,-30"/>
<text text-anchor="start" x="158" y="-18" font-family="Helvetica,sans-Serif" font-size="10.00">proxsuite::linalg::</text>
<text text-anchor="middle" x="231.5" y="-7" font-family="Helvetica,sans-Serif" font-size="10.00">veg::meta::array_extent&lt; T &gt;</text>
</a>
</g>
</g>
<!-- Node0&#45;&gt;Node2 -->
<g id="edge2" class="edge">
<title>Node0&#45;&gt;Node2</title>
<path fill="none" stroke="#63b8ff" d="M124.08,-31.66C132.47,-30.34 141.13,-28.99 149.72,-27.64"/>
<polygon fill="#63b8ff" stroke="#63b8ff" points="123.34,-28.23 114.01,-33.23 124.43,-35.15 123.34,-28.23"/>
</g>
</g>
</svg>
