<?xml version="1.0" encoding="UTF-8" standalone="no"?>
<!DOCTYPE svg PUBLIC "-//W3C//DTD SVG 1.1//EN"
 "http://www.w3.org/Graphics/SVG/1.1/DTD/svg11.dtd">
<!-- Generated by graphviz version 8.0.4 (20230426.1303)
 -->
<!-- Title: Graphical Class Hierarchy Pages: 1 -->
<svg width="571pt" height="408pt"
 viewBox="0.00 0.00 571.25 408.25" xmlns="http://www.w3.org/2000/svg" xmlns:xlink="http://www.w3.org/1999/xlink">
<g id="graph0" class="graph" transform="scale(1 1) rotate(0) translate(4 404.25)">
<title>Graphical Class Hierarchy</title>
<!-- Node0 -->
<g id="node1" class="node">
<title>Node0</title>
<g id="a_node1"><a xlink:href="structproxsuite_1_1linalg_1_1sparse_1_1__detail_1_1SymbolicMatRefInterface.html" target="_top" xlink:title=" ">
<polygon fill="white" stroke="#666666" points="157,-207.88 0,-207.88 0,-161.62 157,-161.62 157,-207.88"/>
<text text-anchor="start" x="8" y="-194.38" font-family="Helvetica,sans-Serif" font-size="10.00">proxsuite::linalg::</text>
<text text-anchor="start" x="8" y="-181.62" font-family="Helvetica,sans-Serif" font-size="10.00">sparse::_detail::SymbolicMat</text>
<text text-anchor="middle" x="78.5" y="-168.88" font-family="Helvetica,sans-Serif" font-size="10.00">RefInterface&lt; D, I &gt;</text>
</a>
</g>
</g>
<!-- Node1 -->
<g id="node2" class="node">
<title>Node1</title>
<g id="a_node2"><a xlink:href="structproxsuite_1_1linalg_1_1sparse_1_1__detail_1_1SymbolicMatMutInterface.html" target="_top" xlink:title=" ">
<polygon fill="white" stroke="#666666" points="357.5,-400.25 200.5,-400.25 200.5,-341.25 357.5,-341.25 357.5,-400.25"/>
<text text-anchor="start" x="208.5" y="-386.75" font-family="Helvetica,sans-Serif" font-size="10.00">proxsuite::linalg::</text>
<text text-anchor="start" x="208.5" y="-374" font-family="Helvetica,sans-Serif" font-size="10.00">sparse::_detail::SymbolicMat</text>
<text text-anchor="start" x="208.5" y="-361.25" font-family="Helvetica,sans-Serif" font-size="10.00">MutInterface&lt; MatMut&lt; T,</text>
<text text-anchor="middle" x="279" y="-348.5" font-family="Helvetica,sans-Serif" font-size="10.00"> isize &gt;, isize &gt;</text>
</a>
</g>
</g>
<!-- Node0&#45;&gt;Node1 -->
<g id="edge1" class="edge">
<title>Node0&#45;&gt;Node1</title>
<path fill="none" stroke="#63b8ff" d="M97.85,-217.36C117.7,-250.17 152.06,-300.42 193,-332.75 196.68,-335.66 200.61,-338.39 204.7,-340.96"/>
<polygon fill="#63b8ff" stroke="#63b8ff" points="100.52,-216 92.41,-209.18 94.5,-219.57 100.52,-216"/>
</g>
<!-- Node2 -->
<g id="node3" class="node">
<title>Node2</title>
<g id="a_node3"><a xlink:href="structproxsuite_1_1linalg_1_1sparse_1_1__detail_1_1SymbolicMatMutInterface.html" target="_top" xlink:title=" ">
<polygon fill="white" stroke="#666666" points="365,-323.25 193,-323.25 193,-264.25 365,-264.25 365,-323.25"/>
<text text-anchor="start" x="201" y="-309.75" font-family="Helvetica,sans-Serif" font-size="10.00">proxsuite::linalg::</text>
<text text-anchor="start" x="201" y="-297" font-family="Helvetica,sans-Serif" font-size="10.00">sparse::_detail::SymbolicMat</text>
<text text-anchor="start" x="201" y="-284.25" font-family="Helvetica,sans-Serif" font-size="10.00">MutInterface&lt; SymbolicMatMut</text>
<text text-anchor="middle" x="279" y="-271.5" font-family="Helvetica,sans-Serif" font-size="10.00">&lt; isize &gt;, isize &gt;</text>
</a>
</g>
</g>
<!-- Node0&#45;&gt;Node2 -->
<g id="edge2" class="edge">
<title>Node0&#45;&gt;Node2</title>
<path fill="none" stroke="#63b8ff" d="M123.22,-214.08C143.96,-227.48 169.34,-243.14 193,-255.75 198.14,-258.49 203.51,-261.21 208.95,-263.86"/>
<polygon fill="#63b8ff" stroke="#63b8ff" points="125.32,-210.62 115.03,-208.1 121.5,-216.49 125.32,-210.62"/>
</g>
<!-- Node3 -->
<g id="node4" class="node">
<title>Node3</title>
<g id="a_node4"><a xlink:href="structproxsuite_1_1linalg_1_1sparse_1_1__detail_1_1SymbolicMatMutInterface.html" target="_top" xlink:title=" ">
<polygon fill="white" stroke="#666666" points="357.5,-246.25 200.5,-246.25 200.5,-187.25 357.5,-187.25 357.5,-246.25"/>
<text text-anchor="start" x="208.5" y="-232.75" font-family="Helvetica,sans-Serif" font-size="10.00">proxsuite::linalg::</text>
<text text-anchor="start" x="208.5" y="-220" font-family="Helvetica,sans-Serif" font-size="10.00">sparse::_detail::SymbolicMat</text>
<text text-anchor="start" x="208.5" y="-207.25" font-family="Helvetica,sans-Serif" font-size="10.00">MutInterface&lt; MatMut&lt; T,</text>
<text text-anchor="middle" x="279" y="-194.5" font-family="Helvetica,sans-Serif" font-size="10.00"> I &gt;, I &gt;</text>
</a>
</g>
</g>
<!-- Node0&#45;&gt;Node3 -->
<g id="edge3" class="edge">
<title>Node0&#45;&gt;Node3</title>
<path fill="none" stroke="#63b8ff" d="M167.98,-199.01C178.66,-200.74 189.51,-202.48 200.02,-204.18"/>
<polygon fill="#63b8ff" stroke="#63b8ff" points="168.81,-195.44 158.38,-197.31 167.7,-202.35 168.81,-195.44"/>
</g>
<!-- Node5 -->
<g id="node6" class="node">
<title>Node5</title>
<g id="a_node6"><a xlink:href="structproxsuite_1_1linalg_1_1sparse_1_1MatRef.html" target="_top" xlink:title=" ">
<polygon fill="white" stroke="#666666" points="342.5,-169.5 215.5,-169.5 215.5,-136 342.5,-136 342.5,-169.5"/>
<text text-anchor="start" x="223.5" y="-156" font-family="Helvetica,sans-Serif" font-size="10.00">proxsuite::linalg::</text>
<text text-anchor="middle" x="279" y="-143.25" font-family="Helvetica,sans-Serif" font-size="10.00">sparse::MatRef&lt; T, I &gt;</text>
</a>
</g>
</g>
<!-- Node0&#45;&gt;Node5 -->
<g id="edge5" class="edge">
<title>Node0&#45;&gt;Node5</title>
<path fill="none" stroke="#63b8ff" d="M168.23,-170.45C184.02,-167.9 200.16,-165.3 215.04,-162.9"/>
<polygon fill="#63b8ff" stroke="#63b8ff" points="167.7,-167.15 158.38,-172.19 168.81,-174.06 167.7,-167.15"/>
</g>
<!-- Node6 -->
<g id="node7" class="node">
<title>Node6</title>
<g id="a_node7"><a xlink:href="structproxsuite_1_1linalg_1_1sparse_1_1SymbolicMatRef.html" target="_top" xlink:title=" ">
<polygon fill="white" stroke="#666666" points="359,-117.5 199,-117.5 199,-84 359,-84 359,-117.5"/>
<text text-anchor="start" x="207" y="-104" font-family="Helvetica,sans-Serif" font-size="10.00">proxsuite::linalg::</text>
<text text-anchor="middle" x="279" y="-91.25" font-family="Helvetica,sans-Serif" font-size="10.00">sparse::SymbolicMatRef&lt; I &gt;</text>
</a>
</g>
</g>
<!-- Node0&#45;&gt;Node6 -->
<g id="edge6" class="edge">
<title>Node0&#45;&gt;Node6</title>
<path fill="none" stroke="#63b8ff" d="M130.97,-156.03C150.1,-146 172.21,-135.16 193,-126.75 200.72,-123.62 208.97,-120.66 217.18,-117.93"/>
<polygon fill="#63b8ff" stroke="#63b8ff" points="129.45,-153.41 122.25,-161.19 132.73,-159.59 129.45,-153.41"/>
</g>
<!-- Node7 -->
<g id="node8" class="node">
<title>Node7</title>
<g id="a_node8"><a xlink:href="structproxsuite_1_1linalg_1_1sparse_1_1__detail_1_1SymbolicMatMutInterface.html" target="_top" xlink:title=" ">
<polygon fill="white" stroke="#666666" points="357.5,-65.88 200.5,-65.88 200.5,-19.62 357.5,-19.62 357.5,-65.88"/>
<text text-anchor="start" x="208.5" y="-52.38" font-family="Helvetica,sans-Serif" font-size="10.00">proxsuite::linalg::</text>
<text text-anchor="start" x="208.5" y="-39.62" font-family="Helvetica,sans-Serif" font-size="10.00">sparse::_detail::SymbolicMat</text>
<text text-anchor="middle" x="279" y="-26.88" font-family="Helvetica,sans-Serif" font-size="10.00">MutInterface&lt; D, I &gt;</text>
</a>
</g>
</g>
<!-- Node0&#45;&gt;Node7 -->
<g id="edge7" class="edge">
<title>Node0&#45;&gt;Node7</title>
<path fill="none" stroke="#63b8ff" d="M105.7,-153.06C127.09,-128.87 159.21,-96.17 193,-74.75 197.79,-71.71 202.92,-68.89 208.19,-66.3"/>
<polygon fill="#63b8ff" stroke="#63b8ff" points="102.52,-150.38 98.6,-160.23 107.8,-154.98 102.52,-150.38"/>
</g>
<!-- Node4 -->
<g id="node5" class="node">
<title>Node4</title>
<g id="a_node5"><a xlink:href="structproxsuite_1_1linalg_1_1sparse_1_1MatMut.html" target="_top" xlink:title=" ">
<polygon fill="white" stroke="#666666" points="546.75,-233.5 417.5,-233.5 417.5,-200 546.75,-200 546.75,-233.5"/>
<text text-anchor="start" x="425.5" y="-220" font-family="Helvetica,sans-Serif" font-size="10.00">proxsuite::linalg::</text>
<text text-anchor="middle" x="482.12" y="-207.25" font-family="Helvetica,sans-Serif" font-size="10.00">sparse::MatMut&lt; T, I &gt;</text>
</a>
</g>
</g>
<!-- Node3&#45;&gt;Node4 -->
<g id="edge4" class="edge">
<title>Node3&#45;&gt;Node4</title>
<path fill="none" stroke="#63b8ff" d="M368.47,-216.75C384.88,-216.75 401.74,-216.75 417.24,-216.75"/>
<polygon fill="#63b8ff" stroke="#63b8ff" points="368.76,-213.25 358.76,-216.75 368.76,-220.25 368.76,-213.25"/>
</g>
<!-- Node8 -->
<g id="node9" class="node">
<title>Node8</title>
<g id="a_node9"><a xlink:href="structproxsuite_1_1linalg_1_1sparse_1_1MatMut.html" target="_top" xlink:title=" ">
<polygon fill="white" stroke="#666666" points="546.75,-85.5 417.5,-85.5 417.5,-52 546.75,-52 546.75,-85.5"/>
<text text-anchor="start" x="425.5" y="-72" font-family="Helvetica,sans-Serif" font-size="10.00">proxsuite::linalg::</text>
<text text-anchor="middle" x="482.12" y="-59.25" font-family="Helvetica,sans-Serif" font-size="10.00">sparse::MatMut&lt; T, I &gt;</text>
</a>
</g>
</g>
<!-- Node7&#45;&gt;Node8 -->
<g id="edge8" class="edge">
<title>Node7&#45;&gt;Node8</title>
<path fill="none" stroke="#63b8ff" d="M368.47,-54.19C384.88,-56.31 401.74,-58.49 417.24,-60.49"/>
<polygon fill="#63b8ff" stroke="#63b8ff" points="369.13,-50.61 358.76,-52.8 368.23,-57.56 369.13,-50.61"/>
</g>
<!-- Node9 -->
<g id="node10" class="node">
<title>Node9</title>
<g id="a_node10"><a xlink:href="structproxsuite_1_1linalg_1_1sparse_1_1SymbolicMatMut.html" target="_top" xlink:title=" ">
<polygon fill="white" stroke="#666666" points="563.25,-33.5 401,-33.5 401,0 563.25,0 563.25,-33.5"/>
<text text-anchor="start" x="409" y="-20" font-family="Helvetica,sans-Serif" font-size="10.00">proxsuite::linalg::</text>
<text text-anchor="middle" x="482.12" y="-7.25" font-family="Helvetica,sans-Serif" font-size="10.00">sparse::SymbolicMatMut&lt; I &gt;</text>
</a>
</g>
</g>
<!-- Node7&#45;&gt;Node9 -->
<g id="edge9" class="edge">
<title>Node7&#45;&gt;Node9</title>
<path fill="none" stroke="#63b8ff" d="M368.39,-31.32C379.1,-29.94 389.99,-28.53 400.58,-27.16"/>
<polygon fill="#63b8ff" stroke="#63b8ff" points="368.23,-27.94 358.76,-32.7 369.13,-34.89 368.23,-27.94"/>
</g>
</g>
</svg>
