<?xml version="1.0" encoding="UTF-8" standalone="no"?>
<!DOCTYPE svg PUBLIC "-//W3C//DTD SVG 1.1//EN"
 "http://www.w3.org/Graphics/SVG/1.1/DTD/svg11.dtd">
<!-- Generated by graphviz version 12.2.1 (20250203.1708)
 -->
<!-- Title: Graphical Class Hierarchy Pages: 1 -->
<svg width="328pt" height="248pt"
 viewBox="0.00 0.00 328.00 247.62" xmlns="http://www.w3.org/2000/svg" xmlns:xlink="http://www.w3.org/1999/xlink">
<g id="graph0" class="graph" transform="scale(1 1) rotate(0) translate(4 243.62)">
<title>Graphical Class Hierarchy</title>
<!-- Node0 -->
<g id="Node000000" class="node">
<title>Node0</title>
<g id="a_Node000000"><a xlink:href="structproxsuite_1_1linalg_1_1veg_1_1meta_1_1constant.html" target="_top" xlink:title=" ">
<polygon fill="white" stroke="#666666" points="117.62,-136.25 4.12,-136.25 4.12,-90 117.62,-90 117.62,-136.25"/>
<text text-anchor="start" x="12.12" y="-122.75" font-family="Helvetica,sans-Serif" font-size="10.00">proxsuite::linalg::</text>
<text text-anchor="start" x="12.12" y="-110" font-family="Helvetica,sans-Serif" font-size="10.00">veg::meta::constant</text>
<text text-anchor="middle" x="60.88" y="-97.25" font-family="Helvetica,sans-Serif" font-size="10.00">&lt; usize, 0 &gt;</text>
</a>
</g>
</g>
<!-- Node1 -->
<g id="Node000001" class="node">
<title>Node1</title>
<g id="a_Node000001"><a xlink:href="structproxsuite_1_1linalg_1_1veg_1_1__detail_1_1__meta_1_1specialize__len_3_01F_00_01F_3_01Ts_8_8_8_01_4_01_4.html" target="_top" xlink:title=" ">
<polygon fill="white" stroke="#666666" points="294.5,-239.62 183.25,-239.62 183.25,-180.62 294.5,-180.62 294.5,-239.62"/>
<text text-anchor="start" x="191.25" y="-226.12" font-family="Helvetica,sans-Serif" font-size="10.00">proxsuite::linalg::</text>
<text text-anchor="start" x="191.25" y="-213.38" font-family="Helvetica,sans-Serif" font-size="10.00">veg::_detail::_meta</text>
<text text-anchor="start" x="191.25" y="-200.62" font-family="Helvetica,sans-Serif" font-size="10.00">::specialize_len&lt; F,</text>
<text text-anchor="middle" x="238.88" y="-187.88" font-family="Helvetica,sans-Serif" font-size="10.00"> F&lt; Ts... &gt; &gt;</text>
</a>
</g>
</g>
<!-- Node0&#45;&gt;Node1 -->
<g id="edge162_Node000000_Node000001" class="edge">
<title>Node0&#45;&gt;Node1</title>
<g id="a_edge162_Node000000_Node000001"><a xlink:title=" ">
<path fill="none" stroke="#63b8ff" d="M108.16,-142.29C123.74,-151.79 141.34,-162.19 157.75,-171.12 165.77,-175.49 174.34,-179.91 182.8,-184.14"/>
<polygon fill="#63b8ff" stroke="#63b8ff" points="110.39,-139.55 100.04,-137.3 106.73,-145.52 110.39,-139.55"/>
</a>
</g>
</g>
<!-- Node3 -->
<g id="Node000003" class="node">
<title>Node3</title>
<g id="a_Node000003"><a xlink:href="structproxsuite_1_1linalg_1_1veg_1_1meta_1_1array__extent_3_01T_0fN_0e_4.html" target="_top" xlink:title=" ">
<polygon fill="white" stroke="#666666" points="305.75,-46.25 172,-46.25 172,0 305.75,0 305.75,-46.25"/>
<text text-anchor="start" x="180" y="-32.75" font-family="Helvetica,sans-Serif" font-size="10.00">proxsuite::linalg::</text>
<text text-anchor="start" x="180" y="-20" font-family="Helvetica,sans-Serif" font-size="10.00">veg::meta::array_extent</text>
<text text-anchor="middle" x="238.88" y="-7.25" font-family="Helvetica,sans-Serif" font-size="10.00">&lt; T[N]&gt;</text>
</a>
</g>
</g>
<!-- Node0&#45;&gt;Node3 -->
<g id="edge163_Node000000_Node000003" class="edge">
<title>Node0&#45;&gt;Node3</title>
<g id="a_edge163_Node000000_Node000003"><a xlink:title=" ">
<path fill="none" stroke="#63b8ff" d="M106.99,-83.74C122.74,-74.05 140.73,-63.6 157.75,-55.12 163.65,-52.19 169.89,-49.31 176.18,-46.57"/>
<polygon fill="#63b8ff" stroke="#63b8ff" points="105.43,-80.59 98.79,-88.85 109.13,-86.54 105.43,-80.59"/>
</a>
</g>
</g>
<!-- Node5 -->
<g id="Node000005" class="node">
<title>Node5</title>
<g id="a_Node000005"><a xlink:href="structproxsuite_1_1linalg_1_1veg_1_1__detail_1_1__meta_1_1specialize__len.html" target="_top" xlink:title=" ">
<polygon fill="white" stroke="#666666" points="304.62,-162.25 173.12,-162.25 173.12,-116 304.62,-116 304.62,-162.25"/>
<text text-anchor="start" x="181.12" y="-148.75" font-family="Helvetica,sans-Serif" font-size="10.00">proxsuite::linalg::</text>
<text text-anchor="start" x="181.12" y="-136" font-family="Helvetica,sans-Serif" font-size="10.00">veg::_detail::_meta</text>
<text text-anchor="middle" x="238.88" y="-123.25" font-family="Helvetica,sans-Serif" font-size="10.00">::specialize_len&lt; F, T &gt;</text>
</a>
</g>
</g>
<!-- Node0&#45;&gt;Node5 -->
<g id="edge164_Node000000_Node000005" class="edge">
<title>Node0&#45;&gt;Node5</title>
<g id="a_edge164_Node000000_Node000005"><a xlink:title=" ">
<path fill="none" stroke="#63b8ff" d="M129.29,-123.08C143.54,-125.19 158.56,-127.41 172.73,-129.5"/>
<polygon fill="#63b8ff" stroke="#63b8ff" points="129.95,-119.64 119.54,-121.64 128.92,-126.57 129.95,-119.64"/>
</a>
</g>
</g>
<!-- Node6 -->
<g id="Node000006" class="node">
<title>Node6</title>
<g id="a_Node000006"><a xlink:href="structproxsuite_1_1linalg_1_1veg_1_1meta_1_1array__extent.html" target="_top" xlink:title=" ">
<polygon fill="white" stroke="#666666" points="320,-97.88 157.75,-97.88 157.75,-64.38 320,-64.38 320,-97.88"/>
<text text-anchor="start" x="165.75" y="-84.38" font-family="Helvetica,sans-Serif" font-size="10.00">proxsuite::linalg::</text>
<text text-anchor="middle" x="238.88" y="-71.62" font-family="Helvetica,sans-Serif" font-size="10.00">veg::meta::array_extent&lt; T &gt;</text>
</a>
</g>
</g>
<!-- Node0&#45;&gt;Node6 -->
<g id="edge165_Node000000_Node000006" class="edge">
<title>Node0&#45;&gt;Node6</title>
<g id="a_edge165_Node000000_Node000006"><a xlink:title=" ">
<path fill="none" stroke="#63b8ff" d="M129.17,-100.89C138.45,-99.2 148.06,-97.46 157.54,-95.73"/>
<polygon fill="#63b8ff" stroke="#63b8ff" points="128.75,-97.41 119.54,-102.64 130,-104.3 128.75,-97.41"/>
</a>
</g>
</g>
<!-- Node4 -->
<g id="Node000004" class="node">
<title>Node4</title>
<g id="a_Node000004"><a xlink:href="structproxsuite_1_1linalg_1_1veg_1_1meta_1_1constant.html" target="_top" xlink:title=" ">
<polygon fill="white" stroke="#666666" points="117.62,-46.25 4.12,-46.25 4.12,0 117.62,0 117.62,-46.25"/>
<text text-anchor="start" x="12.12" y="-32.75" font-family="Helvetica,sans-Serif" font-size="10.00">proxsuite::linalg::</text>
<text text-anchor="start" x="12.12" y="-20" font-family="Helvetica,sans-Serif" font-size="10.00">veg::meta::constant</text>
<text text-anchor="middle" x="60.88" y="-7.25" font-family="Helvetica,sans-Serif" font-size="10.00">&lt; usize, N &gt;</text>
</a>
</g>
</g>
<!-- Node4&#45;&gt;Node3 -->
<g id="edge166_Node000004_Node000003" class="edge">
<title>Node4&#45;&gt;Node3</title>
<g id="a_edge166_Node000004_Node000003"><a xlink:title=" ">
<path fill="none" stroke="#63b8ff" d="M129.5,-23.12C143.38,-23.12 157.97,-23.12 171.8,-23.12"/>
<polygon fill="#63b8ff" stroke="#63b8ff" points="129.56,-19.63 119.56,-23.13 129.56,-26.63 129.56,-19.63"/>
</a>
</g>
</g>
<!-- Node2 -->
<g id="Node000002" class="node">
<title>Node2</title>
<g id="a_Node000002"><a xlink:href="structproxsuite_1_1linalg_1_1veg_1_1meta_1_1constant.html" target="_top" xlink:title=" ">
<polygon fill="white" stroke="#666666" points="121.75,-233.25 0,-233.25 0,-187 121.75,-187 121.75,-233.25"/>
<text text-anchor="start" x="8" y="-219.75" font-family="Helvetica,sans-Serif" font-size="10.00">proxsuite::linalg::</text>
<text text-anchor="start" x="8" y="-207" font-family="Helvetica,sans-Serif" font-size="10.00">veg::meta::constant</text>
<text text-anchor="middle" x="60.88" y="-194.25" font-family="Helvetica,sans-Serif" font-size="10.00">&lt; usize, sizeof...(Ts)&gt;</text>
</a>
</g>
</g>
<!-- Node2&#45;&gt;Node1 -->
<g id="edge167_Node000002_Node000001" class="edge">
<title>Node2&#45;&gt;Node1</title>
<g id="a_edge167_Node000002_Node000001"><a xlink:title=" ">
<path fill="none" stroke="#63b8ff" d="M133.23,-210.12C149.76,-210.12 167.1,-210.12 182.8,-210.12"/>
<polygon fill="#63b8ff" stroke="#63b8ff" points="133.47,-206.63 123.47,-210.13 133.47,-213.63 133.47,-206.63"/>
</a>
</g>
</g>
</g>
</svg>
