<?xml version="1.0" encoding="UTF-8" standalone="no"?>
<!DOCTYPE svg PUBLIC "-//W3C//DTD SVG 1.1//EN"
 "http://www.w3.org/Graphics/SVG/1.1/DTD/svg11.dtd">
<!-- Generated by graphviz version 9.0.0 (20231125.0833)
 -->
<!-- Title: Graphical Class Hierarchy Pages: 1 -->
<svg width="404pt" height="94pt"
 viewBox="0.00 0.00 404.00 93.50" xmlns="http://www.w3.org/2000/svg" xmlns:xlink="http://www.w3.org/1999/xlink">
<g id="graph0" class="graph" transform="scale(1 1) rotate(0) translate(4 89.5)">
<title>Graphical Class Hierarchy</title>
<!-- Node0 -->
<g id="Node000000" class="node">
<title>Node0</title>
<g id="a_Node000000"><a xlink:href="structproxsuite_1_1linalg_1_1veg_1_1__detail_1_1__slice_1_1adl_1_1AdlBase.html" target="_top" xlink:title=" ">
<polygon fill="white" stroke="#666666" points="106.75,-65.88 0,-65.88 0,-19.62 106.75,-19.62 106.75,-65.88"/>
<text text-anchor="start" x="8" y="-52.38" font-family="Helvetica,sans-Serif" font-size="10.00">proxsuite::linalg::</text>
<text text-anchor="start" x="8" y="-39.62" font-family="Helvetica,sans-Serif" font-size="10.00">veg::_detail::_slice</text>
<text text-anchor="middle" x="53.38" y="-26.88" font-family="Helvetica,sans-Serif" font-size="10.00">::adl::AdlBase</text>
</a>
</g>
</g>
<!-- Node1 -->
<g id="Node000001" class="node">
<title>Node1</title>
<g id="a_Node000001"><a xlink:href="structproxsuite_1_1linalg_1_1veg_1_1Slice.html" target="_top" xlink:title=" ">
<polygon fill="white" stroke="#666666" points="249.5,-85.5 142.75,-85.5 142.75,-52 249.5,-52 249.5,-85.5"/>
<text text-anchor="start" x="150.75" y="-72" font-family="Helvetica,sans-Serif" font-size="10.00">proxsuite::linalg::</text>
<text text-anchor="middle" x="196.12" y="-59.25" font-family="Helvetica,sans-Serif" font-size="10.00">veg::Slice&lt; bool &gt;</text>
</a>
</g>
</g>
<!-- Node0&#45;&gt;Node1 -->
<g id="edge80_Node000000_Node000001" class="edge">
<title>Node0&#45;&gt;Node1</title>
<g id="a_edge80_Node000000_Node000001"><a xlink:title=" ">
<path fill="none" stroke="#63b8ff" d="M118.44,-54.58C126.49,-56.07 134.64,-57.58 142.49,-59.03"/>
<polygon fill="#63b8ff" stroke="#63b8ff" points="119.14,-51.16 108.67,-52.78 117.87,-58.04 119.14,-51.16"/>
</a>
</g>
</g>
<!-- Node2 -->
<g id="Node000002" class="node">
<title>Node2</title>
<g id="a_Node000002"><a xlink:href="structproxsuite_1_1linalg_1_1veg_1_1Slice.html" target="_top" xlink:title=" ">
<polygon fill="white" stroke="#666666" points="246.5,-33.5 145.75,-33.5 145.75,0 246.5,0 246.5,-33.5"/>
<text text-anchor="start" x="153.75" y="-20" font-family="Helvetica,sans-Serif" font-size="10.00">proxsuite::linalg::</text>
<text text-anchor="middle" x="196.12" y="-7.25" font-family="Helvetica,sans-Serif" font-size="10.00">veg::Slice&lt; T &gt;</text>
</a>
</g>
</g>
<!-- Node0&#45;&gt;Node2 -->
<g id="edge81_Node000000_Node000002" class="edge">
<title>Node0&#45;&gt;Node2</title>
<g id="a_edge81_Node000000_Node000002"><a xlink:title=" ">
<path fill="none" stroke="#63b8ff" d="M118.46,-30.91C127.46,-29.25 136.6,-27.56 145.28,-25.96"/>
<polygon fill="#63b8ff" stroke="#63b8ff" points="117.87,-27.46 108.67,-32.72 119.14,-34.34 117.87,-27.46"/>
</a>
</g>
</g>
<!-- Node3 -->
<g id="Node000003" class="node">
<title>Node3</title>
<g id="a_Node000003"><a xlink:href="structproxsuite_1_1linalg_1_1veg_1_1SliceMut.html" target="_top" xlink:title=" ">
<polygon fill="white" stroke="#666666" points="396,-33.5 285.5,-33.5 285.5,0 396,0 396,-33.5"/>
<text text-anchor="start" x="293.5" y="-20" font-family="Helvetica,sans-Serif" font-size="10.00">proxsuite::linalg::</text>
<text text-anchor="middle" x="340.75" y="-7.25" font-family="Helvetica,sans-Serif" font-size="10.00">veg::SliceMut&lt; T &gt;</text>
</a>
</g>
</g>
<!-- Node2&#45;&gt;Node3 -->
<g id="edge82_Node000002_Node000003" class="edge">
<title>Node2&#45;&gt;Node3</title>
<g id="a_edge82_Node000002_Node000003"><a xlink:title=" ">
<path fill="none" stroke="#8b1a1a" d="M258,-16.75C267.14,-16.75 276.5,-16.75 285.48,-16.75"/>
<polygon fill="#8b1a1a" stroke="#8b1a1a" points="258.12,-13.25 248.12,-16.75 258.12,-20.25 258.12,-13.25"/>
</a>
</g>
</g>
</g>
</svg>
