<?xml version="1.0" encoding="UTF-8" standalone="no"?>
<!DOCTYPE svg PUBLIC "-//W3C//DTD SVG 1.1//EN"
 "http://www.w3.org/Graphics/SVG/1.1/DTD/svg11.dtd">
<!-- Generated by graphviz version 12.2.1 (20250203.1708)
 -->
<!-- Title: Graphical Class Hierarchy Pages: 1 -->
<svg width="273pt" height="94pt"
 viewBox="0.00 0.00 272.50 93.50" xmlns="http://www.w3.org/2000/svg" xmlns:xlink="http://www.w3.org/1999/xlink">
<g id="graph0" class="graph" transform="scale(1 1) rotate(0) translate(4 89.5)">
<title>Graphical Class Hierarchy</title>
<!-- Node0 -->
<g id="Node000000" class="node">
<title>Node0</title>
<g id="a_Node000000"><a xlink:href="structproxsuite_1_1linalg_1_1veg_1_1__detail_1_1idx_1_1adl_1_1IdxBase.html" target="_top" xlink:title=" ">
<polygon fill="white" stroke="#666666" points="127.75,-65.88 0,-65.88 0,-19.62 127.75,-19.62 127.75,-65.88"/>
<text text-anchor="start" x="8" y="-52.38" font-family="Helvetica,sans-Serif" font-size="10.00">proxsuite::linalg::</text>
<text text-anchor="start" x="8" y="-39.62" font-family="Helvetica,sans-Serif" font-size="10.00">veg::_detail::idx::adl</text>
<text text-anchor="middle" x="63.88" y="-26.88" font-family="Helvetica,sans-Serif" font-size="10.00">::IdxBase&lt; Fix&lt; N &gt; &gt;</text>
</a>
</g>
</g>
<!-- Node1 -->
<g id="Node000001" class="node">
<title>Node1</title>
<g id="a_Node000001"><a xlink:href="structproxsuite_1_1linalg_1_1veg_1_1Fix.html" target="_top" xlink:title=" ">
<polygon fill="white" stroke="#666666" points="264.5,-85.5 163.75,-85.5 163.75,-52 264.5,-52 264.5,-85.5"/>
<text text-anchor="start" x="171.75" y="-72" font-family="Helvetica,sans-Serif" font-size="10.00">proxsuite::linalg::</text>
<text text-anchor="middle" x="214.12" y="-59.25" font-family="Helvetica,sans-Serif" font-size="10.00">veg::Fix&lt; 0 &gt;</text>
</a>
</g>
</g>
<!-- Node0&#45;&gt;Node1 -->
<g id="edge94_Node000000_Node000001" class="edge">
<title>Node0&#45;&gt;Node1</title>
<g id="a_edge94_Node000000_Node000001"><a xlink:title=" ">
<path fill="none" stroke="#63b8ff" d="M139.32,-55.81C147.51,-57.24 155.7,-58.68 163.48,-60.04"/>
<polygon fill="#63b8ff" stroke="#63b8ff" points="140.12,-52.39 129.67,-54.11 138.91,-59.29 140.12,-52.39"/>
</a>
</g>
</g>
<!-- Node2 -->
<g id="Node000002" class="node">
<title>Node2</title>
<g id="a_Node000002"><a xlink:href="structproxsuite_1_1linalg_1_1veg_1_1Fix.html" target="_top" xlink:title=" ">
<polygon fill="white" stroke="#666666" points="264.5,-33.5 163.75,-33.5 163.75,0 264.5,0 264.5,-33.5"/>
<text text-anchor="start" x="171.75" y="-20" font-family="Helvetica,sans-Serif" font-size="10.00">proxsuite::linalg::</text>
<text text-anchor="middle" x="214.12" y="-7.25" font-family="Helvetica,sans-Serif" font-size="10.00">veg::Fix&lt; N &gt;</text>
</a>
</g>
</g>
<!-- Node0&#45;&gt;Node2 -->
<g id="edge95_Node000000_Node000002" class="edge">
<title>Node0&#45;&gt;Node2</title>
<g id="a_edge95_Node000000_Node000002"><a xlink:title=" ">
<path fill="none" stroke="#63b8ff" d="M139.32,-29.69C147.51,-28.26 155.7,-26.82 163.48,-25.46"/>
<polygon fill="#63b8ff" stroke="#63b8ff" points="138.91,-26.21 129.67,-31.39 140.12,-33.11 138.91,-26.21"/>
</a>
</g>
</g>
</g>
</svg>
