<?xml version="1.0" encoding="UTF-8" standalone="no"?>
<!DOCTYPE svg PUBLIC "-//W3C//DTD SVG 1.1//EN"
 "http://www.w3.org/Graphics/SVG/1.1/DTD/svg11.dtd">
<!-- Generated by graphviz version 8.1.0 (20230707.2238)
 -->
<!-- Title: Graphical Class Hierarchy Pages: 1 -->
<svg width="1157pt" height="318pt"
 viewBox="0.00 0.00 1156.50 317.88" xmlns="http://www.w3.org/2000/svg" xmlns:xlink="http://www.w3.org/1999/xlink">
<g id="graph0" class="graph" transform="scale(1 1) rotate(0) translate(4 313.88)">
<title>Graphical Class Hierarchy</title>
<!-- Node0 -->
<g id="Node000000" class="node">
<title>Node0</title>
<g id="a_Node000000"><a xlink:href="structtl_1_1detail_1_1optional__delete__assign__base.html" target="_top" xlink:title=" ">
<polygon fill="white" stroke="#666666" points="1015.5,-309.88 849.5,-309.88 849.5,-263.62 1015.5,-263.62 1015.5,-309.88"/>
<text text-anchor="start" x="857.5" y="-296.38" font-family="Helvetica,sans-Serif" font-size="10.00">tl::detail::optional</text>
<text text-anchor="start" x="857.5" y="-283.62" font-family="Helvetica,sans-Serif" font-size="10.00">_delete_assign_base&lt;</text>
<text text-anchor="middle" x="932.5" y="-270.88" font-family="Helvetica,sans-Serif" font-size="10.00"> T, EnableCopy, EnableMove &gt;</text>
</a>
</g>
</g>
<!-- Node1 -->
<g id="Node000001" class="node">
<title>Node1</title>
<g id="a_Node000001"><a xlink:href="classtl_1_1optional.html" target="_top" xlink:title=" ">
<polygon fill="white" stroke="#666666" points="1148.5,-233.12 1051.5,-233.12 1051.5,-212.38 1148.5,-212.38 1148.5,-233.12"/>
<text text-anchor="middle" x="1100" y="-219.62" font-family="Helvetica,sans-Serif" font-size="10.00">tl::optional&lt; T &gt;</text>
</a>
</g>
</g>
<!-- Node0&#45;&gt;Node1 -->
<g id="edge166_Node000000_Node000001" class="edge">
<title>Node0&#45;&gt;Node1</title>
<g id="a_edge166_Node000000_Node000001"><a xlink:title=" ">
<path fill="none" stroke="#8b1a1a" d="M1004.21,-259.41C1027.84,-250.27 1052.81,-240.61 1071.19,-233.51"/>
<polygon fill="#8b1a1a" stroke="#8b1a1a" points="1003.25,-256.41 995.19,-263.28 1005.78,-262.94 1003.25,-256.41"/>
</a>
</g>
</g>
<!-- Node2 -->
<g id="Node000002" class="node">
<title>Node2</title>
<g id="a_Node000002"><a xlink:href="structtl_1_1detail_1_1optional__delete__ctor__base.html" target="_top" xlink:title=" ">
<polygon fill="white" stroke="#666666" points="1009.5,-245.88 855.5,-245.88 855.5,-199.62 1009.5,-199.62 1009.5,-245.88"/>
<text text-anchor="start" x="863.5" y="-232.38" font-family="Helvetica,sans-Serif" font-size="10.00">tl::detail::optional</text>
<text text-anchor="start" x="863.5" y="-219.62" font-family="Helvetica,sans-Serif" font-size="10.00">_delete_ctor_base&lt; T,</text>
<text text-anchor="middle" x="932.5" y="-206.88" font-family="Helvetica,sans-Serif" font-size="10.00"> EnableCopy, EnableMove &gt;</text>
</a>
</g>
</g>
<!-- Node2&#45;&gt;Node1 -->
<g id="edge167_Node000002_Node000001" class="edge">
<title>Node2&#45;&gt;Node1</title>
<g id="a_edge167_Node000002_Node000001"><a xlink:title=" ">
<path fill="none" stroke="#8b1a1a" d="M1020.85,-222.75C1031.29,-222.75 1041.64,-222.75 1051.23,-222.75"/>
<polygon fill="#8b1a1a" stroke="#8b1a1a" points="1020.95,-219.25 1010.95,-222.75 1020.95,-226.25 1020.95,-219.25"/>
</a>
</g>
</g>
<!-- Node12 -->
<g id="Node000012" class="node">
<title>Node12</title>
<g id="a_Node000012"><a xlink:href="structtl_1_1detail_1_1optional__storage__base.html" target="_top" xlink:title=" ">
<polygon fill="white" stroke="#666666" points="142,-59.5 0,-59.5 0,-26 142,-26 142,-59.5"/>
<text text-anchor="start" x="8" y="-46" font-family="Helvetica,sans-Serif" font-size="10.00">tl::detail::optional</text>
<text text-anchor="middle" x="71" y="-33.25" font-family="Helvetica,sans-Serif" font-size="10.00">_storage_base&lt; T, bool &gt;</text>
</a>
</g>
</g>
<!-- Node10 -->
<g id="Node000010" class="node">
<title>Node10</title>
<g id="a_Node000010"><a xlink:href="structtl_1_1detail_1_1optional__operations__base.html" target="_top" xlink:title=" ">
<polygon fill="white" stroke="#666666" points="308,-59.5 178,-59.5 178,-26 308,-26 308,-59.5"/>
<text text-anchor="start" x="186" y="-46" font-family="Helvetica,sans-Serif" font-size="10.00">tl::detail::optional</text>
<text text-anchor="middle" x="243" y="-33.25" font-family="Helvetica,sans-Serif" font-size="10.00">_operations_base&lt; T &gt;</text>
</a>
</g>
</g>
<!-- Node12&#45;&gt;Node10 -->
<g id="edge168_Node000012_Node000010" class="edge">
<title>Node12&#45;&gt;Node10</title>
<g id="a_edge168_Node000012_Node000010"><a xlink:title=" ">
<path fill="none" stroke="#63b8ff" d="M152.99,-42.75C161.3,-42.75 169.67,-42.75 177.76,-42.75"/>
<polygon fill="#63b8ff" stroke="#63b8ff" points="153.13,-39.25 143.13,-42.75 153.13,-46.25 153.13,-39.25"/>
</a>
</g>
</g>
<!-- Node8 -->
<g id="Node000008" class="node">
<title>Node8</title>
<g id="a_Node000008"><a xlink:href="structtl_1_1detail_1_1optional__copy__base.html" target="_top" xlink:title=" ">
<polygon fill="white" stroke="#666666" points="474,-85.5 345.5,-85.5 345.5,-52 474,-52 474,-85.5"/>
<text text-anchor="start" x="353.5" y="-72" font-family="Helvetica,sans-Serif" font-size="10.00">tl::detail::optional</text>
<text text-anchor="middle" x="409.75" y="-59.25" font-family="Helvetica,sans-Serif" font-size="10.00">_copy_base&lt; T, bool &gt;</text>
</a>
</g>
</g>
<!-- Node10&#45;&gt;Node8 -->
<g id="edge169_Node000010_Node000008" class="edge">
<title>Node10&#45;&gt;Node8</title>
<g id="a_edge169_Node000010_Node000008"><a xlink:title=" ">
<path fill="none" stroke="#63b8ff" d="M318.78,-54.55C327.55,-55.93 336.43,-57.34 345.03,-58.69"/>
<polygon fill="#63b8ff" stroke="#63b8ff" points="319.59,-50.98 309.17,-52.88 318.5,-57.89 319.59,-50.98"/>
</a>
</g>
</g>
<!-- Node11 -->
<g id="Node000011" class="node">
<title>Node11</title>
<g id="a_Node000011"><a xlink:href="structtl_1_1detail_1_1optional__copy__base_3_01T_00_01false_01_4.html" target="_top" xlink:title=" ">
<polygon fill="white" stroke="#666666" points="475.5,-33.5 344,-33.5 344,0 475.5,0 475.5,-33.5"/>
<text text-anchor="start" x="352" y="-20" font-family="Helvetica,sans-Serif" font-size="10.00">tl::detail::optional</text>
<text text-anchor="middle" x="409.75" y="-7.25" font-family="Helvetica,sans-Serif" font-size="10.00">_copy_base&lt; T, false &gt;</text>
</a>
</g>
</g>
<!-- Node10&#45;&gt;Node11 -->
<g id="edge177_Node000010_Node000011" class="edge">
<title>Node10&#45;&gt;Node11</title>
<g id="a_edge177_Node000010_Node000011"><a xlink:title=" ">
<path fill="none" stroke="#63b8ff" d="M318.94,-30.92C327.19,-29.62 335.55,-28.3 343.67,-27.02"/>
<polygon fill="#63b8ff" stroke="#63b8ff" points="318.5,-27.61 309.17,-32.62 319.59,-34.52 318.5,-27.61"/>
</a>
</g>
</g>
<!-- Node6 -->
<g id="Node000006" class="node">
<title>Node6</title>
<g id="a_Node000006"><a xlink:href="structtl_1_1detail_1_1optional__move__base.html" target="_top" xlink:title=" ">
<polygon fill="white" stroke="#666666" points="646,-111.5 513,-111.5 513,-78 646,-78 646,-111.5"/>
<text text-anchor="start" x="521" y="-98" font-family="Helvetica,sans-Serif" font-size="10.00">tl::detail::optional</text>
<text text-anchor="middle" x="579.5" y="-85.25" font-family="Helvetica,sans-Serif" font-size="10.00">_move_base&lt; T, bool &gt;</text>
</a>
</g>
</g>
<!-- Node8&#45;&gt;Node6 -->
<g id="edge170_Node000008_Node000006" class="edge">
<title>Node8&#45;&gt;Node6</title>
<g id="a_edge170_Node000008_Node000006"><a xlink:title=" ">
<path fill="none" stroke="#63b8ff" d="M484.94,-80.25C494.21,-81.69 503.63,-83.15 512.76,-84.56"/>
<polygon fill="#63b8ff" stroke="#63b8ff" points="485.59,-76.65 475.17,-78.58 484.51,-83.57 485.59,-76.65"/>
</a>
</g>
</g>
<!-- Node9 -->
<g id="Node000009" class="node">
<title>Node9</title>
<g id="a_Node000009"><a xlink:href="structtl_1_1detail_1_1optional__move__base_3_01T_00_01false_01_4.html" target="_top" xlink:title=" ">
<polygon fill="white" stroke="#666666" points="647.5,-59.5 511.5,-59.5 511.5,-26 647.5,-26 647.5,-59.5"/>
<text text-anchor="start" x="519.5" y="-46" font-family="Helvetica,sans-Serif" font-size="10.00">tl::detail::optional</text>
<text text-anchor="middle" x="579.5" y="-33.25" font-family="Helvetica,sans-Serif" font-size="10.00">_move_base&lt; T, false &gt;</text>
</a>
</g>
</g>
<!-- Node8&#45;&gt;Node9 -->
<g id="edge176_Node000008_Node000009" class="edge">
<title>Node8&#45;&gt;Node9</title>
<g id="a_edge176_Node000008_Node000009"><a xlink:title=" ">
<path fill="none" stroke="#63b8ff" d="M484.75,-57.28C493.51,-55.92 502.41,-54.54 511.07,-53.2"/>
<polygon fill="#63b8ff" stroke="#63b8ff" points="484.51,-53.93 475.17,-58.92 485.59,-60.85 484.51,-53.93"/>
</a>
</g>
</g>
<!-- Node4 -->
<g id="Node000004" class="node">
<title>Node4</title>
<g id="a_Node000004"><a xlink:href="structtl_1_1detail_1_1optional__copy__assign__base.html" target="_top" xlink:title=" ">
<polygon fill="white" stroke="#666666" points="813.5,-149.88 683.5,-149.88 683.5,-103.62 813.5,-103.62 813.5,-149.88"/>
<text text-anchor="start" x="691.5" y="-136.38" font-family="Helvetica,sans-Serif" font-size="10.00">tl::detail::optional</text>
<text text-anchor="start" x="691.5" y="-123.62" font-family="Helvetica,sans-Serif" font-size="10.00">_copy_assign_base&lt; T,</text>
<text text-anchor="middle" x="748.5" y="-110.88" font-family="Helvetica,sans-Serif" font-size="10.00"> bool &gt;</text>
</a>
</g>
</g>
<!-- Node6&#45;&gt;Node4 -->
<g id="edge171_Node000006_Node000004" class="edge">
<title>Node6&#45;&gt;Node4</title>
<g id="a_edge171_Node000006_Node000004"><a xlink:title=" ">
<path fill="none" stroke="#63b8ff" d="M656.75,-109.36C665.61,-111.06 674.58,-112.78 683.26,-114.44"/>
<polygon fill="#63b8ff" stroke="#63b8ff" points="657.5,-105.75 647.02,-107.31 656.19,-112.62 657.5,-105.75"/>
</a>
</g>
</g>
<!-- Node7 -->
<g id="Node000007" class="node">
<title>Node7</title>
<g id="a_Node000007"><a xlink:href="structtl_1_1detail_1_1optional__copy__assign__base_3_01T_00_01false_01_4.html" target="_top" xlink:title=" ">
<polygon fill="white" stroke="#666666" points="813.5,-85.88 683.5,-85.88 683.5,-39.62 813.5,-39.62 813.5,-85.88"/>
<text text-anchor="start" x="691.5" y="-72.38" font-family="Helvetica,sans-Serif" font-size="10.00">tl::detail::optional</text>
<text text-anchor="start" x="691.5" y="-59.62" font-family="Helvetica,sans-Serif" font-size="10.00">_copy_assign_base&lt; T,</text>
<text text-anchor="middle" x="748.5" y="-46.88" font-family="Helvetica,sans-Serif" font-size="10.00"> false &gt;</text>
</a>
</g>
</g>
<!-- Node6&#45;&gt;Node7 -->
<g id="edge175_Node000006_Node000007" class="edge">
<title>Node6&#45;&gt;Node7</title>
<g id="a_edge175_Node000006_Node000007"><a xlink:title=" ">
<path fill="none" stroke="#63b8ff" d="M656.75,-80.14C665.61,-78.44 674.58,-76.72 683.26,-75.06"/>
<polygon fill="#63b8ff" stroke="#63b8ff" points="656.19,-76.88 647.02,-82.19 657.5,-83.75 656.19,-76.88"/>
</a>
</g>
</g>
<!-- Node3 -->
<g id="Node000003" class="node">
<title>Node3</title>
<g id="a_Node000003"><a xlink:href="structtl_1_1detail_1_1optional__move__assign__base.html" target="_top" xlink:title=" ">
<polygon fill="white" stroke="#666666" points="999.75,-181.88 865.25,-181.88 865.25,-135.62 999.75,-135.62 999.75,-181.88"/>
<text text-anchor="start" x="873.25" y="-168.38" font-family="Helvetica,sans-Serif" font-size="10.00">tl::detail::optional</text>
<text text-anchor="start" x="873.25" y="-155.62" font-family="Helvetica,sans-Serif" font-size="10.00">_move_assign_base&lt; T,</text>
<text text-anchor="middle" x="932.5" y="-142.88" font-family="Helvetica,sans-Serif" font-size="10.00"> bool &gt;</text>
</a>
</g>
</g>
<!-- Node4&#45;&gt;Node3 -->
<g id="edge172_Node000004_Node000003" class="edge">
<title>Node4&#45;&gt;Node3</title>
<g id="a_edge172_Node000004_Node000003"><a xlink:title=" ">
<path fill="none" stroke="#63b8ff" d="M824.55,-139.95C837.97,-142.3 851.86,-144.75 865.01,-147.06"/>
<polygon fill="#63b8ff" stroke="#63b8ff" points="825.38,-136.36 814.92,-138.08 824.17,-143.26 825.38,-136.36"/>
</a>
</g>
</g>
<!-- Node5 -->
<g id="Node000005" class="node">
<title>Node5</title>
<g id="a_Node000005"><a xlink:href="structtl_1_1detail_1_1optional__move__assign__base_3_01T_00_01false_01_4.html" target="_top" xlink:title=" ">
<polygon fill="white" stroke="#666666" points="999.75,-117.88 865.25,-117.88 865.25,-71.62 999.75,-71.62 999.75,-117.88"/>
<text text-anchor="start" x="873.25" y="-104.38" font-family="Helvetica,sans-Serif" font-size="10.00">tl::detail::optional</text>
<text text-anchor="start" x="873.25" y="-91.62" font-family="Helvetica,sans-Serif" font-size="10.00">_move_assign_base&lt; T,</text>
<text text-anchor="middle" x="932.5" y="-78.88" font-family="Helvetica,sans-Serif" font-size="10.00"> false &gt;</text>
</a>
</g>
</g>
<!-- Node4&#45;&gt;Node5 -->
<g id="edge174_Node000004_Node000005" class="edge">
<title>Node4&#45;&gt;Node5</title>
<g id="a_edge174_Node000004_Node000005"><a xlink:title=" ">
<path fill="none" stroke="#63b8ff" d="M824.55,-113.55C837.97,-111.2 851.86,-108.75 865.01,-106.44"/>
<polygon fill="#63b8ff" stroke="#63b8ff" points="824.17,-110.24 814.92,-115.42 825.38,-117.14 824.17,-110.24"/>
</a>
</g>
</g>
<!-- Node3&#45;&gt;Node1 -->
<g id="edge173_Node000003_Node000001" class="edge">
<title>Node3&#45;&gt;Node1</title>
<g id="a_edge173_Node000003_Node000001"><a xlink:title=" ">
<path fill="none" stroke="#8b1a1a" d="M1004.21,-186.09C1027.84,-195.23 1052.81,-204.89 1071.19,-211.99"/>
<polygon fill="#8b1a1a" stroke="#8b1a1a" points="1005.78,-182.56 995.19,-182.22 1003.25,-189.09 1005.78,-182.56"/>
</a>
</g>
</g>
</g>
</svg>
