<?xml version="1.0" encoding="UTF-8" standalone="no"?>
<!DOCTYPE svg PUBLIC "-//W3C//DTD SVG 1.1//EN"
 "http://www.w3.org/Graphics/SVG/1.1/DTD/svg11.dtd">
<!-- Generated by graphviz version 12.2.1 (20250203.1708)
 -->
<!-- Title: Graphical Class Hierarchy Pages: 1 -->
<svg width="613pt" height="646pt"
 viewBox="0.00 0.00 613.25 645.50" xmlns="http://www.w3.org/2000/svg" xmlns:xlink="http://www.w3.org/1999/xlink">
<g id="graph0" class="graph" transform="scale(1 1) rotate(0) translate(4 641.5)">
<title>Graphical Class Hierarchy</title>
<!-- Node0 -->
<g id="Node000000" class="node">
<title>Node0</title>
<g id="a_Node000000"><a xlink:href="structproxsuite_1_1linalg_1_1veg_1_1tuple_1_1IndexedTuple.html" target="_top" xlink:title=" ">
<polygon fill="white" stroke="#666666" points="169.75,-355.25 0,-355.25 0,-296.25 169.75,-296.25 169.75,-355.25"/>
<text text-anchor="start" x="8" y="-341.75" font-family="Helvetica,sans-Serif" font-size="10.00">proxsuite::linalg::</text>
<text text-anchor="start" x="8" y="-329" font-family="Helvetica,sans-Serif" font-size="10.00">veg::tuple::IndexedTuple</text>
<text text-anchor="start" x="8" y="-316.25" font-family="Helvetica,sans-Serif" font-size="10.00">&lt; meta::make_index_sequence</text>
<text text-anchor="middle" x="84.88" y="-303.5" font-family="Helvetica,sans-Serif" font-size="10.00">&lt; sizeof...(Ts)&gt;, Ts... &gt;</text>
</a>
</g>
</g>
<!-- Node1 -->
<g id="Node000001" class="node">
<title>Node1</title>
<g id="a_Node000001"><a xlink:href="structproxsuite_1_1linalg_1_1veg_1_1Tuple.html" target="_top" xlink:title=" ">
<polygon fill="white" stroke="#666666" points="345.88,-637.5 239.12,-637.5 239.12,-604 345.88,-604 345.88,-637.5"/>
<text text-anchor="start" x="247.12" y="-624" font-family="Helvetica,sans-Serif" font-size="10.00">proxsuite::linalg::</text>
<text text-anchor="middle" x="292.5" y="-611.25" font-family="Helvetica,sans-Serif" font-size="10.00">veg::Tuple&lt; Ts... &gt;</text>
</a>
</g>
</g>
<!-- Node0&#45;&gt;Node1 -->
<g id="edge169_Node000000_Node000001" class="edge">
<title>Node0&#45;&gt;Node1</title>
<g id="a_edge169_Node000000_Node000001"><a xlink:title=" ">
<path fill="none" stroke="#63b8ff" d="M92.82,-366.48C105.05,-425.63 136.06,-534.84 205.75,-595.75 215.09,-603.91 226.97,-609.42 238.88,-613.13"/>
<polygon fill="#63b8ff" stroke="#63b8ff" points="96.29,-365.97 90.92,-356.84 89.42,-367.33 96.29,-365.97"/>
</a>
</g>
</g>
<!-- Node2 -->
<g id="Node000002" class="node">
<title>Node2</title>
<g id="a_Node000002"><a xlink:href="structproxsuite_1_1linalg_1_1veg_1_1Tuple.html" target="_top" xlink:title=" ">
<polygon fill="white" stroke="#666666" points="353.75,-586.25 231.25,-586.25 231.25,-527.25 353.75,-527.25 353.75,-586.25"/>
<text text-anchor="start" x="239.25" y="-572.75" font-family="Helvetica,sans-Serif" font-size="10.00">proxsuite::linalg::</text>
<text text-anchor="start" x="239.25" y="-560" font-family="Helvetica,sans-Serif" font-size="10.00">veg::Tuple&lt; T, meta</text>
<text text-anchor="start" x="239.25" y="-547.25" font-family="Helvetica,sans-Serif" font-size="10.00">::tuple_element&lt; I, Ts</text>
<text text-anchor="middle" x="292.5" y="-534.5" font-family="Helvetica,sans-Serif" font-size="10.00"> &gt;... &gt;</text>
</a>
</g>
</g>
<!-- Node0&#45;&gt;Node2 -->
<g id="edge170_Node000000_Node000002" class="edge">
<title>Node0&#45;&gt;Node2</title>
<g id="a_edge170_Node000000_Node000002"><a xlink:title=" ">
<path fill="none" stroke="#63b8ff" d="M102.38,-365.78C121.68,-408.34 157.26,-475.24 205.75,-517.75 213.25,-524.33 222.05,-529.98 231.09,-534.78"/>
<polygon fill="#63b8ff" stroke="#63b8ff" points="105.7,-364.62 98.44,-356.9 99.3,-367.46 105.7,-364.62"/>
</a>
</g>
</g>
<!-- Node3 -->
<g id="Node000003" class="node">
<title>Node3</title>
<g id="a_Node000003"><a xlink:href="structproxsuite_1_1linalg_1_1veg_1_1Tuple.html" target="_top" xlink:title=" ">
<polygon fill="white" stroke="#666666" points="378.5,-508.88 206.5,-508.88 206.5,-462.62 378.5,-462.62 378.5,-508.88"/>
<text text-anchor="start" x="214.5" y="-495.38" font-family="Helvetica,sans-Serif" font-size="10.00">proxsuite::linalg::</text>
<text text-anchor="start" x="214.5" y="-482.62" font-family="Helvetica,sans-Serif" font-size="10.00">veg::Tuple&lt; mem::SystemAlloc,</text>
<text text-anchor="middle" x="292.5" y="-469.88" font-family="Helvetica,sans-Serif" font-size="10.00"> RawVectorMoveRaii&lt; T &gt; &gt;</text>
</a>
</g>
</g>
<!-- Node0&#45;&gt;Node3 -->
<g id="edge171_Node000000_Node000003" class="edge">
<title>Node0&#45;&gt;Node3</title>
<g id="a_edge171_Node000000_Node000003"><a xlink:title=" ">
<path fill="none" stroke="#63b8ff" d="M114.14,-364.43C136.35,-392.49 169.51,-429.61 205.75,-453.75 210.38,-456.83 215.34,-459.67 220.47,-462.27"/>
<polygon fill="#63b8ff" stroke="#63b8ff" points="117.15,-362.6 108.25,-356.86 111.62,-366.9 117.15,-362.6"/>
</a>
</g>
</g>
<!-- Node5 -->
<g id="Node000005" class="node">
<title>Node5</title>
<g id="a_Node000005"><a xlink:href="structproxsuite_1_1linalg_1_1veg_1_1Tuple.html" target="_top" xlink:title=" ">
<polygon fill="white" stroke="#666666" points="376.62,-444.88 208.38,-444.88 208.38,-398.62 376.62,-398.62 376.62,-444.88"/>
<text text-anchor="start" x="216.38" y="-431.38" font-family="Helvetica,sans-Serif" font-size="10.00">proxsuite::linalg::</text>
<text text-anchor="start" x="216.38" y="-418.62" font-family="Helvetica,sans-Serif" font-size="10.00">veg::Tuple&lt; A, RawVectorMove</text>
<text text-anchor="middle" x="292.5" y="-405.88" font-family="Helvetica,sans-Serif" font-size="10.00">Raii&lt; T &gt; &gt;</text>
</a>
</g>
</g>
<!-- Node0&#45;&gt;Node5 -->
<g id="edge173_Node000000_Node000005" class="edge">
<title>Node0&#45;&gt;Node5</title>
<g id="a_edge173_Node000000_Node000005"><a xlink:title=" ">
<path fill="none" stroke="#63b8ff" d="M148.18,-361.03C166.48,-370.84 186.7,-381.16 205.75,-389.75 212.12,-392.63 218.84,-395.46 225.59,-398.18"/>
<polygon fill="#63b8ff" stroke="#63b8ff" points="150.02,-358.05 139.56,-356.37 146.69,-364.21 150.02,-358.05"/>
</a>
</g>
</g>
<!-- Node7 -->
<g id="Node000007" class="node">
<title>Node7</title>
<g id="a_Node000007"><a xlink:href="structproxsuite_1_1linalg_1_1veg_1_1Tuple.html" target="_top" xlink:title=" ">
<polygon fill="white" stroke="#666666" points="378.88,-380.88 206.12,-380.88 206.12,-334.62 378.88,-334.62 378.88,-380.88"/>
<text text-anchor="start" x="214.12" y="-367.38" font-family="Helvetica,sans-Serif" font-size="10.00">proxsuite::linalg::</text>
<text text-anchor="start" x="214.12" y="-354.62" font-family="Helvetica,sans-Serif" font-size="10.00">veg::Tuple&lt; mem::SystemAlloc,</text>
<text text-anchor="middle" x="292.5" y="-341.88" font-family="Helvetica,sans-Serif" font-size="10.00"> RawVectorMoveRaii&lt; isize &gt; &gt;</text>
</a>
</g>
</g>
<!-- Node0&#45;&gt;Node7 -->
<g id="edge175_Node000000_Node000007" class="edge">
<title>Node0&#45;&gt;Node7</title>
<g id="a_edge175_Node000000_Node000007"><a xlink:title=" ">
<path fill="none" stroke="#63b8ff" d="M181.2,-340.59C189.39,-341.86 197.63,-343.14 205.74,-344.4"/>
<polygon fill="#63b8ff" stroke="#63b8ff" points="182.02,-337.17 171.6,-339.09 180.94,-344.09 182.02,-337.17"/>
</a>
</g>
</g>
<!-- Node9 -->
<g id="Node000009" class="node">
<title>Node9</title>
<g id="a_Node000009"><a xlink:href="structproxsuite_1_1linalg_1_1veg_1_1Tuple.html" target="_top" xlink:title=" ">
<polygon fill="white" stroke="#666666" points="378.5,-316.88 206.5,-316.88 206.5,-270.62 378.5,-270.62 378.5,-316.88"/>
<text text-anchor="start" x="214.5" y="-303.38" font-family="Helvetica,sans-Serif" font-size="10.00">proxsuite::linalg::</text>
<text text-anchor="start" x="214.5" y="-290.62" font-family="Helvetica,sans-Serif" font-size="10.00">veg::Tuple&lt; mem::SystemAlloc,</text>
<text text-anchor="middle" x="292.5" y="-277.88" font-family="Helvetica,sans-Serif" font-size="10.00"> RawVectorMoveRaii&lt; bool &gt; &gt;</text>
</a>
</g>
</g>
<!-- Node0&#45;&gt;Node9 -->
<g id="edge177_Node000000_Node000009" class="edge">
<title>Node0&#45;&gt;Node9</title>
<g id="a_edge177_Node000000_Node000009"><a xlink:title=" ">
<path fill="none" stroke="#63b8ff" d="M181.31,-310.9C189.57,-309.61 197.9,-308.32 206.07,-307.04"/>
<polygon fill="#63b8ff" stroke="#63b8ff" points="180.94,-307.41 171.6,-312.41 182.02,-314.33 180.94,-307.41"/>
</a>
</g>
</g>
<!-- Node11 -->
<g id="Node000011" class="node">
<title>Node11</title>
<g id="a_Node000011"><a xlink:href="structproxsuite_1_1linalg_1_1veg_1_1Tuple.html" target="_top" xlink:title=" ">
<polygon fill="white" stroke="#666666" points="378.5,-252.25 206.5,-252.25 206.5,-193.25 378.5,-193.25 378.5,-252.25"/>
<text text-anchor="start" x="214.5" y="-238.75" font-family="Helvetica,sans-Serif" font-size="10.00">proxsuite::linalg::</text>
<text text-anchor="start" x="214.5" y="-226" font-family="Helvetica,sans-Serif" font-size="10.00">veg::Tuple&lt; mem::SystemAlloc,</text>
<text text-anchor="start" x="214.5" y="-213.25" font-family="Helvetica,sans-Serif" font-size="10.00"> RawVectorMoveRaii&lt; unsigned</text>
<text text-anchor="middle" x="292.5" y="-200.5" font-family="Helvetica,sans-Serif" font-size="10.00"> char &gt; &gt;</text>
</a>
</g>
</g>
<!-- Node0&#45;&gt;Node11 -->
<g id="edge179_Node000000_Node000011" class="edge">
<title>Node0&#45;&gt;Node11</title>
<g id="a_edge179_Node000000_Node000011"><a xlink:title=" ">
<path fill="none" stroke="#63b8ff" d="M150.13,-290.48C168.02,-280.92 187.54,-270.74 205.75,-261.75 211.91,-258.71 218.36,-255.62 224.83,-252.57"/>
<polygon fill="#63b8ff" stroke="#63b8ff" points="148.59,-287.33 141.43,-295.15 151.9,-293.5 148.59,-287.33"/>
</a>
</g>
</g>
<!-- Node13 -->
<g id="Node000013" class="node">
<title>Node13</title>
<g id="a_Node000013"><a xlink:href="structproxsuite_1_1linalg_1_1veg_1_1Tuple.html" target="_top" xlink:title=" ">
<polygon fill="white" stroke="#666666" points="378.5,-174.88 206.5,-174.88 206.5,-128.62 378.5,-128.62 378.5,-174.88"/>
<text text-anchor="start" x="214.5" y="-161.38" font-family="Helvetica,sans-Serif" font-size="10.00">proxsuite::linalg::</text>
<text text-anchor="start" x="214.5" y="-148.62" font-family="Helvetica,sans-Serif" font-size="10.00">veg::Tuple&lt; mem::SystemAlloc,</text>
<text text-anchor="middle" x="292.5" y="-135.88" font-family="Helvetica,sans-Serif" font-size="10.00"> RawVectorMoveRaii&lt; I &gt; &gt;</text>
</a>
</g>
</g>
<!-- Node0&#45;&gt;Node13 -->
<g id="edge181_Node000000_Node000013" class="edge">
<title>Node0&#45;&gt;Node13</title>
<g id="a_edge181_Node000000_Node000013"><a xlink:title=" ">
<path fill="none" stroke="#63b8ff" d="M110.89,-286.72C132.67,-255.45 166.8,-212.37 205.75,-184.75 210.69,-181.24 216.06,-178.05 221.61,-175.16"/>
<polygon fill="#63b8ff" stroke="#63b8ff" points="108.15,-284.54 105.39,-294.77 113.92,-288.49 108.15,-284.54"/>
</a>
</g>
</g>
<!-- Node15 -->
<g id="Node000015" class="node">
<title>Node15</title>
<g id="a_Node000015"><a xlink:href="structproxsuite_1_1linalg_1_1veg_1_1Tuple.html" target="_top" xlink:title=" ">
<polygon fill="white" stroke="#666666" points="379.25,-110.25 205.75,-110.25 205.75,-51.25 379.25,-51.25 379.25,-110.25"/>
<text text-anchor="start" x="213.75" y="-96.75" font-family="Helvetica,sans-Serif" font-size="10.00">proxsuite::linalg::</text>
<text text-anchor="start" x="213.75" y="-84" font-family="Helvetica,sans-Serif" font-size="10.00">veg::Tuple&lt; mem::SystemAlloc,</text>
<text text-anchor="start" x="213.75" y="-71.25" font-family="Helvetica,sans-Serif" font-size="10.00"> RawVectorMoveRaii&lt; proxsuite</text>
<text text-anchor="middle" x="292.5" y="-58.5" font-family="Helvetica,sans-Serif" font-size="10.00">::linalg::veg::mem::byte &gt; &gt;</text>
</a>
</g>
</g>
<!-- Node0&#45;&gt;Node15 -->
<g id="edge183_Node000000_Node000015" class="edge">
<title>Node0&#45;&gt;Node15</title>
<g id="a_edge183_Node000000_Node000015"><a xlink:title=" ">
<path fill="none" stroke="#63b8ff" d="M100.61,-285.35C119.01,-239.83 154.44,-166.16 205.75,-119.75 209.39,-116.46 213.35,-113.4 217.51,-110.57"/>
<polygon fill="#63b8ff" stroke="#63b8ff" points="97.38,-284.01 96.97,-294.6 103.89,-286.58 97.38,-284.01"/>
</a>
</g>
</g>
<!-- Node17 -->
<g id="Node000017" class="node">
<title>Node17</title>
<g id="a_Node000017"><a xlink:href="structproxsuite_1_1linalg_1_1veg_1_1Tuple.html" target="_top" xlink:title=" ">
<polygon fill="white" stroke="#666666" points="342.88,-33.5 242.12,-33.5 242.12,0 342.88,0 342.88,-33.5"/>
<text text-anchor="start" x="250.12" y="-20" font-family="Helvetica,sans-Serif" font-size="10.00">proxsuite::linalg::</text>
<text text-anchor="middle" x="292.5" y="-7.25" font-family="Helvetica,sans-Serif" font-size="10.00">veg::Tuple&lt; Ts &gt;</text>
</a>
</g>
</g>
<!-- Node0&#45;&gt;Node17 -->
<g id="edge185_Node000000_Node000017" class="edge">
<title>Node0&#45;&gt;Node17</title>
<g id="a_edge185_Node000000_Node000017"><a xlink:title=" ">
<path fill="none" stroke="#63b8ff" d="M91.98,-285.01C103.33,-223.64 133.43,-107.76 205.75,-42.75 215.81,-33.7 228.94,-27.8 241.89,-23.95"/>
<polygon fill="#63b8ff" stroke="#63b8ff" points="88.57,-284.22 90.28,-294.68 95.46,-285.44 88.57,-284.22"/>
</a>
</g>
</g>
<!-- Node4 -->
<g id="Node000004" class="node">
<title>Node4</title>
<g id="a_Node000004"><a xlink:href="structproxsuite_1_1linalg_1_1veg_1_1__detail_1_1__vector_1_1VecAlloc.html" target="_top" xlink:title=" ">
<polygon fill="white" stroke="#666666" points="605.25,-528.88 415.25,-528.88 415.25,-482.62 605.25,-482.62 605.25,-528.88"/>
<text text-anchor="start" x="423.25" y="-515.38" font-family="Helvetica,sans-Serif" font-size="10.00">proxsuite::linalg::</text>
<text text-anchor="start" x="423.25" y="-502.62" font-family="Helvetica,sans-Serif" font-size="10.00">veg::_detail::_vector</text>
<text text-anchor="middle" x="510.25" y="-489.88" font-family="Helvetica,sans-Serif" font-size="10.00">::VecAlloc&lt; T, mem::SystemAlloc &gt;</text>
</a>
</g>
</g>
<!-- Node3&#45;&gt;Node4 -->
<g id="edge172_Node000003_Node000004" class="edge">
<title>Node3&#45;&gt;Node4</title>
<g id="a_edge172_Node000003_Node000004"><a xlink:title=" ">
<path fill="none" stroke="#63b8ff" d="M390.02,-494.7C398.32,-495.47 406.71,-496.24 415,-497.01"/>
<polygon fill="#63b8ff" stroke="#63b8ff" points="390.56,-491.23 380.28,-493.79 389.91,-498.2 390.56,-491.23"/>
</a>
</g>
</g>
<!-- Node6 -->
<g id="Node000006" class="node">
<title>Node6</title>
<g id="a_Node000006"><a xlink:href="structproxsuite_1_1linalg_1_1veg_1_1__detail_1_1__vector_1_1VecAlloc.html" target="_top" xlink:title=" ">
<polygon fill="white" stroke="#666666" points="567.75,-464.88 452.75,-464.88 452.75,-418.62 567.75,-418.62 567.75,-464.88"/>
<text text-anchor="start" x="460.75" y="-451.38" font-family="Helvetica,sans-Serif" font-size="10.00">proxsuite::linalg::</text>
<text text-anchor="start" x="460.75" y="-438.62" font-family="Helvetica,sans-Serif" font-size="10.00">veg::_detail::_vector</text>
<text text-anchor="middle" x="510.25" y="-425.88" font-family="Helvetica,sans-Serif" font-size="10.00">::VecAlloc&lt; T, A &gt;</text>
</a>
</g>
</g>
<!-- Node5&#45;&gt;Node6 -->
<g id="edge174_Node000005_Node000006" class="edge">
<title>Node5&#45;&gt;Node6</title>
<g id="a_edge174_Node000005_Node000006"><a xlink:title=" ">
<path fill="none" stroke="#63b8ff" d="M388.27,-430.53C410.14,-432.56 432.74,-434.66 452.41,-436.48"/>
<polygon fill="#63b8ff" stroke="#63b8ff" points="388.7,-427.06 378.42,-429.62 388.06,-434.03 388.7,-427.06"/>
</a>
</g>
</g>
<!-- Node8 -->
<g id="Node000008" class="node">
<title>Node8</title>
<g id="a_Node000008"><a xlink:href="structproxsuite_1_1linalg_1_1veg_1_1__detail_1_1__vector_1_1VecAlloc.html" target="_top" xlink:title=" ">
<polygon fill="white" stroke="#666666" points="574.5,-400.25 446,-400.25 446,-341.25 574.5,-341.25 574.5,-400.25"/>
<text text-anchor="start" x="454" y="-386.75" font-family="Helvetica,sans-Serif" font-size="10.00">proxsuite::linalg::</text>
<text text-anchor="start" x="454" y="-374" font-family="Helvetica,sans-Serif" font-size="10.00">veg::_detail::_vector</text>
<text text-anchor="start" x="454" y="-361.25" font-family="Helvetica,sans-Serif" font-size="10.00">::VecAlloc&lt; isize, mem</text>
<text text-anchor="middle" x="510.25" y="-348.5" font-family="Helvetica,sans-Serif" font-size="10.00">::SystemAlloc &gt;</text>
</a>
</g>
</g>
<!-- Node7&#45;&gt;Node8 -->
<g id="edge176_Node000007_Node000008" class="edge">
<title>Node7&#45;&gt;Node8</title>
<g id="a_edge176_Node000007_Node000008"><a xlink:title=" ">
<path fill="none" stroke="#63b8ff" d="M390.38,-363.59C409.15,-364.72 428.38,-365.88 445.75,-366.92"/>
<polygon fill="#63b8ff" stroke="#63b8ff" points="390.78,-360.11 380.59,-363 390.36,-367.09 390.78,-360.11"/>
</a>
</g>
</g>
<!-- Node10 -->
<g id="Node000010" class="node">
<title>Node10</title>
<g id="a_Node000010"><a xlink:href="structproxsuite_1_1linalg_1_1veg_1_1__detail_1_1__vector_1_1VecAlloc.html" target="_top" xlink:title=" ">
<polygon fill="white" stroke="#666666" points="573.75,-323.25 446.75,-323.25 446.75,-264.25 573.75,-264.25 573.75,-323.25"/>
<text text-anchor="start" x="454.75" y="-309.75" font-family="Helvetica,sans-Serif" font-size="10.00">proxsuite::linalg::</text>
<text text-anchor="start" x="454.75" y="-297" font-family="Helvetica,sans-Serif" font-size="10.00">veg::_detail::_vector</text>
<text text-anchor="start" x="454.75" y="-284.25" font-family="Helvetica,sans-Serif" font-size="10.00">::VecAlloc&lt; bool, mem</text>
<text text-anchor="middle" x="510.25" y="-271.5" font-family="Helvetica,sans-Serif" font-size="10.00">::SystemAlloc &gt;</text>
</a>
</g>
</g>
<!-- Node9&#45;&gt;Node10 -->
<g id="edge178_Node000009_Node000010" class="edge">
<title>Node9&#45;&gt;Node10</title>
<g id="a_edge178_Node000009_Node000010"><a xlink:title=" ">
<path fill="none" stroke="#63b8ff" d="M390.26,-293.75C409.37,-293.75 428.94,-293.75 446.56,-293.75"/>
<polygon fill="#63b8ff" stroke="#63b8ff" points="390.28,-290.25 380.28,-293.75 390.28,-297.25 390.28,-290.25"/>
</a>
</g>
</g>
<!-- Node12 -->
<g id="Node000012" class="node">
<title>Node12</title>
<g id="a_Node000012"><a xlink:href="structproxsuite_1_1linalg_1_1veg_1_1__detail_1_1__vector_1_1VecAlloc.html" target="_top" xlink:title=" ">
<polygon fill="white" stroke="#666666" points="583.12,-246.25 437.38,-246.25 437.38,-187.25 583.12,-187.25 583.12,-246.25"/>
<text text-anchor="start" x="445.38" y="-232.75" font-family="Helvetica,sans-Serif" font-size="10.00">proxsuite::linalg::</text>
<text text-anchor="start" x="445.38" y="-220" font-family="Helvetica,sans-Serif" font-size="10.00">veg::_detail::_vector</text>
<text text-anchor="start" x="445.38" y="-207.25" font-family="Helvetica,sans-Serif" font-size="10.00">::VecAlloc&lt; unsigned char,</text>
<text text-anchor="middle" x="510.25" y="-194.5" font-family="Helvetica,sans-Serif" font-size="10.00"> mem::SystemAlloc &gt;</text>
</a>
</g>
</g>
<!-- Node11&#45;&gt;Node12 -->
<g id="edge180_Node000011_Node000012" class="edge">
<title>Node11&#45;&gt;Node12</title>
<g id="a_edge180_Node000011_Node000012"><a xlink:title=" ">
<path fill="none" stroke="#63b8ff" d="M390.18,-220.06C405.97,-219.62 422.07,-219.17 437.13,-218.76"/>
<polygon fill="#63b8ff" stroke="#63b8ff" points="390.18,-216.56 380.28,-220.34 390.38,-223.56 390.18,-216.56"/>
</a>
</g>
</g>
<!-- Node14 -->
<g id="Node000014" class="node">
<title>Node14</title>
<g id="a_Node000014"><a xlink:href="structproxsuite_1_1linalg_1_1veg_1_1__detail_1_1__vector_1_1VecAlloc.html" target="_top" xlink:title=" ">
<polygon fill="white" stroke="#666666" points="603.75,-168.88 416.75,-168.88 416.75,-122.62 603.75,-122.62 603.75,-168.88"/>
<text text-anchor="start" x="424.75" y="-155.38" font-family="Helvetica,sans-Serif" font-size="10.00">proxsuite::linalg::</text>
<text text-anchor="start" x="424.75" y="-142.62" font-family="Helvetica,sans-Serif" font-size="10.00">veg::_detail::_vector</text>
<text text-anchor="middle" x="510.25" y="-129.88" font-family="Helvetica,sans-Serif" font-size="10.00">::VecAlloc&lt; I, mem::SystemAlloc &gt;</text>
</a>
</g>
</g>
<!-- Node13&#45;&gt;Node14 -->
<g id="edge182_Node000013_Node000014" class="edge">
<title>Node13&#45;&gt;Node14</title>
<g id="a_edge182_Node000013_Node000014"><a xlink:title=" ">
<path fill="none" stroke="#63b8ff" d="M390.17,-149.06C398.9,-148.82 407.73,-148.57 416.43,-148.33"/>
<polygon fill="#63b8ff" stroke="#63b8ff" points="390.18,-145.56 380.28,-149.34 390.38,-152.56 390.18,-145.56"/>
</a>
</g>
</g>
<!-- Node16 -->
<g id="Node000016" class="node">
<title>Node16</title>
<g id="a_Node000016"><a xlink:href="structproxsuite_1_1linalg_1_1veg_1_1__detail_1_1__vector_1_1VecAlloc.html" target="_top" xlink:title=" ">
<polygon fill="white" stroke="#666666" points="577.88,-104.62 442.62,-104.62 442.62,-32.88 577.88,-32.88 577.88,-104.62"/>
<text text-anchor="start" x="450.62" y="-91.12" font-family="Helvetica,sans-Serif" font-size="10.00">proxsuite::linalg::</text>
<text text-anchor="start" x="450.62" y="-78.38" font-family="Helvetica,sans-Serif" font-size="10.00">veg::_detail::_vector</text>
<text text-anchor="start" x="450.62" y="-65.62" font-family="Helvetica,sans-Serif" font-size="10.00">::VecAlloc&lt; proxsuite</text>
<text text-anchor="start" x="450.62" y="-52.88" font-family="Helvetica,sans-Serif" font-size="10.00">::linalg::veg::mem::byte,</text>
<text text-anchor="middle" x="510.25" y="-40.12" font-family="Helvetica,sans-Serif" font-size="10.00"> mem::SystemAlloc &gt;</text>
</a>
</g>
</g>
<!-- Node15&#45;&gt;Node16 -->
<g id="edge184_Node000015_Node000016" class="edge">
<title>Node15&#45;&gt;Node16</title>
<g id="a_edge184_Node000015_Node000016"><a xlink:title=" ">
<path fill="none" stroke="#63b8ff" d="M391.05,-75.32C408.44,-74.36 426.18,-73.37 442.46,-72.46"/>
<polygon fill="#63b8ff" stroke="#63b8ff" points="391,-71.82 381.21,-75.87 391.39,-78.81 391,-71.82"/>
</a>
</g>
</g>
</g>
</svg>
