<?xml version="1.0" encoding="UTF-8" standalone="no"?>
<!DOCTYPE svg PUBLIC "-//W3C//DTD SVG 1.1//EN"
 "http://www.w3.org/Graphics/SVG/1.1/DTD/svg11.dtd">
<!-- Generated by graphviz version 9.0.0 (20231125.0833)
 -->
<!-- Title: Graphical Class Hierarchy Pages: 1 -->
<svg width="618pt" height="697pt"
 viewBox="0.00 0.00 617.75 696.88" xmlns="http://www.w3.org/2000/svg" xmlns:xlink="http://www.w3.org/1999/xlink">
<g id="graph0" class="graph" transform="scale(1 1) rotate(0) translate(4 692.88)">
<title>Graphical Class Hierarchy</title>
<!-- Node0 -->
<g id="Node000000" class="node">
<title>Node0</title>
<g id="a_Node000000"><a xlink:href="structproxsuite_1_1linalg_1_1veg_1_1__detail_1_1__vector_1_1adl_1_1AdlBase.html" target="_top" xlink:title=" ">
<polygon fill="white" stroke="#666666" points="137.5,-489.25 22.5,-489.25 22.5,-443 137.5,-443 137.5,-489.25"/>
<text text-anchor="start" x="30.5" y="-475.75" font-family="Helvetica,sans-Serif" font-size="10.00">proxsuite::linalg::</text>
<text text-anchor="start" x="30.5" y="-463" font-family="Helvetica,sans-Serif" font-size="10.00">veg::_detail::_vector</text>
<text text-anchor="middle" x="80" y="-450.25" font-family="Helvetica,sans-Serif" font-size="10.00">::adl::AdlBase</text>
</a>
</g>
</g>
<!-- Node1 -->
<g id="Node000001" class="node">
<title>Node1</title>
<g id="a_Node000001"><a xlink:href="structproxsuite_1_1linalg_1_1veg_1_1Vec.html" target="_top" xlink:title=" ">
<polygon fill="white" stroke="#666666" points="416.75,-456.75 196,-456.75 196,-359.5 416.75,-359.5 416.75,-456.75"/>
<text text-anchor="start" x="204" y="-443.25" font-family="Helvetica,sans-Serif" font-size="10.00">proxsuite::linalg::</text>
<text text-anchor="start" x="204" y="-430.5" font-family="Helvetica,sans-Serif" font-size="10.00">veg::Vec&lt; T, proxsuite</text>
<text text-anchor="start" x="204" y="-417.75" font-family="Helvetica,sans-Serif" font-size="10.00">::linalg::veg::meta::if</text>
<text text-anchor="start" x="204" y="-405" font-family="Helvetica,sans-Serif" font-size="10.00">_t&lt; _detail::should_vectorize</text>
<text text-anchor="start" x="204" y="-392.25" font-family="Helvetica,sans-Serif" font-size="10.00">&lt; T &gt;::value, _detail::SimdAlignedSystem</text>
<text text-anchor="start" x="204" y="-379.5" font-family="Helvetica,sans-Serif" font-size="10.00">Alloc, proxsuite::linalg::veg::mem</text>
<text text-anchor="middle" x="306.38" y="-366.75" font-family="Helvetica,sans-Serif" font-size="10.00">::SystemAlloc &gt; &gt;</text>
</a>
</g>
</g>
<!-- Node0&#45;&gt;Node1 -->
<g id="edge83_Node000000_Node000001" class="edge">
<title>Node0&#45;&gt;Node1</title>
<g id="a_edge83_Node000000_Node000001"><a xlink:title=" ">
<path fill="none" stroke="#8b1a1a" d="M148.95,-448.56C163.72,-444.74 179.72,-440.61 195.65,-436.49"/>
<polygon fill="#8b1a1a" stroke="#8b1a1a" points="148.18,-445.14 139.37,-451.04 149.93,-451.92 148.18,-445.14"/>
</a>
</g>
</g>
<!-- Node3 -->
<g id="Node000003" class="node">
<title>Node3</title>
<g id="a_Node000003"><a xlink:href="structproxsuite_1_1linalg_1_1veg_1_1Vec.html" target="_top" xlink:title=" ">
<polygon fill="white" stroke="#666666" points="357.5,-341.88 255.25,-341.88 255.25,-308.38 357.5,-308.38 357.5,-341.88"/>
<text text-anchor="start" x="263.25" y="-328.38" font-family="Helvetica,sans-Serif" font-size="10.00">proxsuite::linalg::</text>
<text text-anchor="middle" x="306.38" y="-315.62" font-family="Helvetica,sans-Serif" font-size="10.00">veg::Vec&lt; isize &gt;</text>
</a>
</g>
</g>
<!-- Node0&#45;&gt;Node3 -->
<g id="edge84_Node000000_Node000003" class="edge">
<title>Node0&#45;&gt;Node3</title>
<g id="a_edge84_Node000000_Node000003"><a xlink:title=" ">
<path fill="none" stroke="#8b1a1a" d="M104.58,-433.71C125.6,-407.2 158.75,-370.83 196,-350.12 213.88,-340.19 235.49,-334.2 254.77,-330.59"/>
<polygon fill="#8b1a1a" stroke="#8b1a1a" points="101.95,-431.39 98.59,-441.43 107.48,-435.68 101.95,-431.39"/>
</a>
</g>
</g>
<!-- Node5 -->
<g id="Node000005" class="node">
<title>Node5</title>
<g id="a_Node000005"><a xlink:href="structproxsuite_1_1linalg_1_1veg_1_1Vec.html" target="_top" xlink:title=" ">
<polygon fill="white" stroke="#666666" points="356.75,-289.88 256,-289.88 256,-256.38 356.75,-256.38 356.75,-289.88"/>
<text text-anchor="start" x="264" y="-276.38" font-family="Helvetica,sans-Serif" font-size="10.00">proxsuite::linalg::</text>
<text text-anchor="middle" x="306.38" y="-263.62" font-family="Helvetica,sans-Serif" font-size="10.00">veg::Vec&lt; bool &gt;</text>
</a>
</g>
</g>
<!-- Node0&#45;&gt;Node5 -->
<g id="edge85_Node000000_Node000005" class="edge">
<title>Node0&#45;&gt;Node5</title>
<g id="a_edge85_Node000000_Node000005"><a xlink:title=" ">
<path fill="none" stroke="#8b1a1a" d="M102.03,-432.93C131.5,-386.83 182.94,-308.07 196,-299.12 213.47,-287.16 235.78,-280.66 255.69,-277.15"/>
<polygon fill="#8b1a1a" stroke="#8b1a1a" points="99.16,-430.92 96.73,-441.23 105.06,-434.68 99.16,-430.92"/>
</a>
</g>
</g>
<!-- Node6 -->
<g id="Node000006" class="node">
<title>Node6</title>
<g id="a_Node000006"><a xlink:href="structproxsuite_1_1linalg_1_1veg_1_1Vec.html" target="_top" xlink:title=" ">
<polygon fill="white" stroke="#666666" points="380.38,-688.88 232.38,-688.88 232.38,-655.38 380.38,-655.38 380.38,-688.88"/>
<text text-anchor="start" x="240.38" y="-675.38" font-family="Helvetica,sans-Serif" font-size="10.00">proxsuite::linalg::</text>
<text text-anchor="middle" x="306.38" y="-662.62" font-family="Helvetica,sans-Serif" font-size="10.00">veg::Vec&lt; unsigned char &gt;</text>
</a>
</g>
</g>
<!-- Node0&#45;&gt;Node6 -->
<g id="edge86_Node000000_Node000006" class="edge">
<title>Node0&#45;&gt;Node6</title>
<g id="a_edge86_Node000000_Node000006"><a xlink:title=" ">
<path fill="none" stroke="#8b1a1a" d="M147.15,-486.86C151.91,-490.1 156.29,-493.83 160,-498.12 204.24,-549.36 148.01,-598.38 196,-646.12 205.82,-655.9 218.61,-662.25 231.96,-666.33"/>
<polygon fill="#8b1a1a" stroke="#8b1a1a" points="149.31,-484.07 138.92,-482 145.75,-490.1 149.31,-484.07"/>
</a>
</g>
</g>
<!-- Node7 -->
<g id="Node000007" class="node">
<title>Node7</title>
<g id="a_Node000007"><a xlink:href="structproxsuite_1_1linalg_1_1veg_1_1Vec.html" target="_top" xlink:title=" ">
<polygon fill="white" stroke="#666666" points="356.75,-636.88 256,-636.88 256,-603.38 356.75,-603.38 356.75,-636.88"/>
<text text-anchor="start" x="264" y="-623.38" font-family="Helvetica,sans-Serif" font-size="10.00">proxsuite::linalg::</text>
<text text-anchor="middle" x="306.38" y="-610.62" font-family="Helvetica,sans-Serif" font-size="10.00">veg::Vec&lt; I &gt;</text>
</a>
</g>
</g>
<!-- Node0&#45;&gt;Node7 -->
<g id="edge87_Node000000_Node000007" class="edge">
<title>Node0&#45;&gt;Node7</title>
<g id="a_edge87_Node000000_Node000007"><a xlink:title=" ">
<path fill="none" stroke="#8b1a1a" d="M147.43,-487.9C152,-490.89 156.26,-494.29 160,-498.12 191.8,-530.76 161.82,-563.99 196,-594.12 212.32,-608.52 235.17,-615.31 255.77,-618.38"/>
<polygon fill="#8b1a1a" stroke="#8b1a1a" points="149.44,-485.01 139.03,-483.04 145.94,-491.07 149.44,-485.01"/>
</a>
</g>
</g>
<!-- Node8 -->
<g id="Node000008" class="node">
<title>Node8</title>
<g id="a_Node000008"><a xlink:href="structproxsuite_1_1linalg_1_1veg_1_1Vec.html" target="_top" xlink:title=" ">
<polygon fill="white" stroke="#666666" points="378.12,-585.25 234.62,-585.25 234.62,-539 378.12,-539 378.12,-585.25"/>
<text text-anchor="start" x="242.62" y="-571.75" font-family="Helvetica,sans-Serif" font-size="10.00">proxsuite::linalg::</text>
<text text-anchor="start" x="242.62" y="-559" font-family="Helvetica,sans-Serif" font-size="10.00">veg::Vec&lt; proxsuite</text>
<text text-anchor="middle" x="306.38" y="-546.25" font-family="Helvetica,sans-Serif" font-size="10.00">::linalg::veg::mem::byte &gt;</text>
</a>
</g>
</g>
<!-- Node0&#45;&gt;Node8 -->
<g id="edge88_Node000000_Node000008" class="edge">
<title>Node0&#45;&gt;Node8</title>
<g id="a_edge88_Node000000_Node000008"><a xlink:title=" ">
<path fill="none" stroke="#8b1a1a" d="M148.15,-491.42C152.24,-493.54 156.22,-495.78 160,-498.12 178.19,-509.42 177.27,-519.76 196,-530.12 207.86,-536.69 221.2,-542.03 234.38,-546.34"/>
<polygon fill="#8b1a1a" stroke="#8b1a1a" points="149.72,-488.29 139.2,-487.05 146.65,-494.58 149.72,-488.29"/>
</a>
</g>
</g>
<!-- Node9 -->
<g id="Node000009" class="node">
<title>Node9</title>
<g id="a_Node000009"><a xlink:href="structproxsuite_1_1linalg_1_1veg_1_1Vec.html" target="_top" xlink:title=" ">
<polygon fill="white" stroke="#666666" points="365,-521.25 247.75,-521.25 247.75,-475 365,-475 365,-521.25"/>
<text text-anchor="start" x="255.75" y="-507.75" font-family="Helvetica,sans-Serif" font-size="10.00">proxsuite::linalg::</text>
<text text-anchor="start" x="255.75" y="-495" font-family="Helvetica,sans-Serif" font-size="10.00">veg::Vec&lt; T, A, Dtor,</text>
<text text-anchor="middle" x="306.38" y="-482.25" font-family="Helvetica,sans-Serif" font-size="10.00"> Copy &gt;</text>
</a>
</g>
</g>
<!-- Node0&#45;&gt;Node9 -->
<g id="edge89_Node000000_Node000009" class="edge">
<title>Node0&#45;&gt;Node9</title>
<g id="a_edge89_Node000000_Node000009"><a xlink:title=" ">
<path fill="none" stroke="#8b1a1a" d="M149.19,-475.85C180.55,-480.32 217.35,-485.57 247.35,-489.85"/>
<polygon fill="#8b1a1a" stroke="#8b1a1a" points="149.8,-472.4 139.41,-474.46 148.81,-479.33 149.8,-472.4"/>
</a>
</g>
</g>
<!-- Node2 -->
<g id="Node000002" class="node">
<title>Node2</title>
<g id="a_Node000002"><a xlink:title=" ">
<polygon fill="#e0e0e0" stroke="#999999" points="111.62,-335.5 48.38,-335.5 48.38,-314.75 111.62,-314.75 111.62,-335.5"/>
<text text-anchor="middle" x="80" y="-322" font-family="Helvetica,sans-Serif" font-size="10.00">meta::if_t</text>
</a>
</g>
</g>
<!-- Node2&#45;&gt;Node1 -->
<g id="edge90_Node000002_Node000001" class="edge">
<title>Node2&#45;&gt;Node1</title>
<g id="a_edge90_Node000002_Node000001"><a xlink:title=" ">
<path fill="none" stroke="#8b1a1a" d="M121.07,-339.95C142.11,-347.73 169.01,-357.68 195.72,-367.56"/>
<polygon fill="#8b1a1a" stroke="#8b1a1a" points="122.35,-336.69 111.75,-336.5 119.92,-343.25 122.35,-336.69"/>
</a>
</g>
</g>
<!-- Node2&#45;&gt;Node3 -->
<g id="edge91_Node000002_Node000003" class="edge">
<title>Node2&#45;&gt;Node3</title>
<g id="a_edge91_Node000002_Node000003"><a xlink:title=" ">
<path fill="none" stroke="#8b1a1a" d="M123.21,-325.12C160.56,-325.12 215.15,-325.12 254.82,-325.12"/>
<polygon fill="#8b1a1a" stroke="#8b1a1a" points="123.24,-321.63 113.24,-325.13 123.24,-328.63 123.24,-321.63"/>
</a>
</g>
</g>
<!-- Node2&#45;&gt;Node5 -->
<g id="edge92_Node000002_Node000005" class="edge">
<title>Node2&#45;&gt;Node5</title>
<g id="a_edge92_Node000002_Node000005"><a xlink:title=" ">
<path fill="none" stroke="#8b1a1a" d="M122.8,-315.44C160.43,-306.72 215.79,-293.89 255.68,-284.64"/>
<polygon fill="#8b1a1a" stroke="#8b1a1a" points="122.15,-311.99 113.2,-317.66 123.73,-318.81 122.15,-311.99"/>
</a>
</g>
</g>
<!-- Node2&#45;&gt;Node6 -->
<g id="edge93_Node000002_Node000006" class="edge">
<title>Node2&#45;&gt;Node6</title>
<g id="a_edge93_Node000002_Node000006"><a xlink:title=" ">
<path fill="none" stroke="#8b1a1a" d="M99.15,-344.24C117.54,-364.77 145.32,-399.18 160,-434.12 197.01,-522.24 130.66,-576.38 196,-646.12 205.61,-656.38 218.46,-662.92 231.98,-667.03"/>
<polygon fill="#8b1a1a" stroke="#8b1a1a" points="101.8,-341.95 92.46,-336.95 96.64,-346.68 101.8,-341.95"/>
</a>
</g>
</g>
<!-- Node2&#45;&gt;Node7 -->
<g id="edge94_Node000002_Node000007" class="edge">
<title>Node2&#45;&gt;Node7</title>
<g id="a_edge94_Node000002_Node000007"><a xlink:title=" ">
<path fill="none" stroke="#8b1a1a" d="M98.77,-344.4C116.86,-365.07 144.4,-399.59 160,-434.12 190,-500.55 144.77,-542.27 196,-594.12 211.5,-609.81 234.63,-616.72 255.63,-619.54"/>
<polygon fill="#8b1a1a" stroke="#8b1a1a" points="101.49,-342.18 92.21,-337.06 96.27,-346.85 101.49,-342.18"/>
</a>
</g>
</g>
<!-- Node2&#45;&gt;Node8 -->
<g id="edge95_Node000002_Node000008" class="edge">
<title>Node2&#45;&gt;Node8</title>
<g id="a_edge95_Node000002_Node000008"><a xlink:title=" ">
<path fill="none" stroke="#8b1a1a" d="M97.55,-344.53C114.86,-365.54 141.97,-400.56 160,-434.12 181.56,-474.27 162.61,-499.12 196,-530.12 206.73,-540.09 220.39,-546.96 234.4,-551.71"/>
<polygon fill="#8b1a1a" stroke="#8b1a1a" points="100.43,-342.51 91.33,-337.08 95.06,-347 100.43,-342.51"/>
</a>
</g>
</g>
<!-- Node2&#45;&gt;Node9 -->
<g id="edge100_Node000002_Node000009" class="edge">
<title>Node2&#45;&gt;Node9</title>
<g id="a_edge100_Node000002_Node000009"><a xlink:title=" ">
<path fill="none" stroke="#8b1a1a" d="M94.92,-344.98C119.64,-379.74 170.96,-449.52 196,-466.12 211.33,-476.29 229.96,-483.3 247.47,-488.09"/>
<polygon fill="#8b1a1a" stroke="#8b1a1a" points="97.93,-343.17 89.3,-337.03 92.21,-347.22 97.93,-343.17"/>
</a>
</g>
</g>
<!-- Node10 -->
<g id="Node000010" class="node">
<title>Node10</title>
<g id="a_Node000010"><a xlink:href="structproxsuite_1_1linalg_1_1veg_1_1cpo_1_1is__trivially__constructible.html" target="_top" xlink:title=" ">
<polygon fill="white" stroke="#666666" points="363.5,-174.25 249.25,-174.25 249.25,-128 363.5,-128 363.5,-174.25"/>
<text text-anchor="start" x="257.25" y="-160.75" font-family="Helvetica,sans-Serif" font-size="10.00">proxsuite::linalg::</text>
<text text-anchor="start" x="257.25" y="-148" font-family="Helvetica,sans-Serif" font-size="10.00">veg::cpo::is_trivially</text>
<text text-anchor="middle" x="306.38" y="-135.25" font-family="Helvetica,sans-Serif" font-size="10.00">_constructible&lt; A &gt;</text>
</a>
</g>
</g>
<!-- Node2&#45;&gt;Node10 -->
<g id="edge96_Node000002_Node000010" class="edge">
<title>Node2&#45;&gt;Node10</title>
<g id="a_edge96_Node000002_Node000010"><a xlink:title=" ">
<path fill="none" stroke="#63b8ff" d="M92.08,-304.66C109.89,-273.7 147.81,-215.21 196,-183.12 211.73,-172.65 230.94,-165.54 248.85,-160.74"/>
<polygon fill="#63b8ff" stroke="#63b8ff" points="89.22,-302.61 87.38,-313.05 95.32,-306.04 89.22,-302.61"/>
</a>
</g>
</g>
<!-- Node12 -->
<g id="Node000012" class="node">
<title>Node12</title>
<g id="a_Node000012"><a xlink:href="structproxsuite_1_1linalg_1_1veg_1_1cpo_1_1is__trivially__relocatable.html" target="_top" xlink:title=" ">
<polygon fill="white" stroke="#666666" points="363.5,-110.25 249.25,-110.25 249.25,-64 363.5,-64 363.5,-110.25"/>
<text text-anchor="start" x="257.25" y="-96.75" font-family="Helvetica,sans-Serif" font-size="10.00">proxsuite::linalg::</text>
<text text-anchor="start" x="257.25" y="-84" font-family="Helvetica,sans-Serif" font-size="10.00">veg::cpo::is_trivially</text>
<text text-anchor="middle" x="306.38" y="-71.25" font-family="Helvetica,sans-Serif" font-size="10.00">_relocatable&lt; A &gt;</text>
</a>
</g>
</g>
<!-- Node2&#45;&gt;Node12 -->
<g id="edge98_Node000002_Node000012" class="edge">
<title>Node2&#45;&gt;Node12</title>
<g id="a_edge98_Node000002_Node000012"><a xlink:title=" ">
<path fill="none" stroke="#63b8ff" d="M86.97,-303.68C99.74,-261.76 133.76,-168.75 196,-119.12 211.08,-107.1 230.54,-99.59 248.86,-94.91"/>
<polygon fill="#63b8ff" stroke="#63b8ff" points="83.61,-302.69 84.16,-313.27 90.33,-304.65 83.61,-302.69"/>
</a>
</g>
</g>
<!-- Node14 -->
<g id="Node000014" class="node">
<title>Node14</title>
<g id="a_Node000014"><a xlink:href="structproxsuite_1_1linalg_1_1veg_1_1cpo_1_1is__trivially__constructible.html" target="_top" xlink:title=" ">
<polygon fill="white" stroke="#666666" points="363.5,-46.25 249.25,-46.25 249.25,0 363.5,0 363.5,-46.25"/>
<text text-anchor="start" x="257.25" y="-32.75" font-family="Helvetica,sans-Serif" font-size="10.00">proxsuite::linalg::</text>
<text text-anchor="start" x="257.25" y="-20" font-family="Helvetica,sans-Serif" font-size="10.00">veg::cpo::is_trivially</text>
<text text-anchor="middle" x="306.38" y="-7.25" font-family="Helvetica,sans-Serif" font-size="10.00">_constructible&lt; T &gt;</text>
</a>
</g>
</g>
<!-- Node2&#45;&gt;Node14 -->
<g id="edge101_Node000002_Node000014" class="edge">
<title>Node2&#45;&gt;Node14</title>
<g id="a_edge101_Node000002_Node000014"><a xlink:title=" ">
<path fill="none" stroke="#63b8ff" d="M83.93,-303.19C91.97,-251.93 119.1,-123.44 196,-55.12 210.64,-42.12 230.32,-34.38 248.94,-29.79"/>
<polygon fill="#63b8ff" stroke="#63b8ff" points="80.49,-302.58 82.5,-312.98 87.41,-303.59 80.49,-302.58"/>
</a>
</g>
</g>
<!-- Node15 -->
<g id="Node000015" class="node">
<title>Node15</title>
<g id="a_Node000015"><a xlink:href="structproxsuite_1_1linalg_1_1veg_1_1cpo_1_1is__trivially__relocatable.html" target="_top" xlink:title=" ">
<polygon fill="white" stroke="#666666" points="363.5,-238.25 249.25,-238.25 249.25,-192 363.5,-192 363.5,-238.25"/>
<text text-anchor="start" x="257.25" y="-224.75" font-family="Helvetica,sans-Serif" font-size="10.00">proxsuite::linalg::</text>
<text text-anchor="start" x="257.25" y="-212" font-family="Helvetica,sans-Serif" font-size="10.00">veg::cpo::is_trivially</text>
<text text-anchor="middle" x="306.38" y="-199.25" font-family="Helvetica,sans-Serif" font-size="10.00">_relocatable&lt; T &gt;</text>
</a>
</g>
</g>
<!-- Node2&#45;&gt;Node15 -->
<g id="edge102_Node000002_Node000015" class="edge">
<title>Node2&#45;&gt;Node15</title>
<g id="a_edge102_Node000002_Node000015"><a xlink:title=" ">
<path fill="none" stroke="#63b8ff" d="M102.9,-307.19C125.16,-289.74 161.21,-263.52 196,-247.12 212.56,-239.32 231.43,-232.98 248.78,-228.07"/>
<polygon fill="#63b8ff" stroke="#63b8ff" points="100.8,-304.39 95.16,-313.36 105.16,-309.87 100.8,-304.39"/>
</a>
</g>
</g>
<!-- Node11 -->
<g id="Node000011" class="node">
<title>Node11</title>
<g id="a_Node000011"><a xlink:href="structproxsuite_1_1linalg_1_1veg_1_1cpo_1_1is__trivially__constructible_3_01Vec_3_01T_00_01A_01_4_01_4.html" target="_top" xlink:title=" ">
<polygon fill="white" stroke="#666666" points="597.75,-184.62 464.75,-184.62 464.75,-125.62 597.75,-125.62 597.75,-184.62"/>
<text text-anchor="start" x="472.75" y="-171.12" font-family="Helvetica,sans-Serif" font-size="10.00">proxsuite::linalg::</text>
<text text-anchor="start" x="472.75" y="-158.38" font-family="Helvetica,sans-Serif" font-size="10.00">veg::cpo::is_trivially</text>
<text text-anchor="start" x="472.75" y="-145.62" font-family="Helvetica,sans-Serif" font-size="10.00">_constructible&lt; Vec&lt; T,</text>
<text text-anchor="middle" x="531.25" y="-132.88" font-family="Helvetica,sans-Serif" font-size="10.00"> A &gt; &gt;</text>
</a>
</g>
</g>
<!-- Node10&#45;&gt;Node11 -->
<g id="edge97_Node000010_Node000011" class="edge">
<title>Node10&#45;&gt;Node11</title>
<g id="a_edge97_Node000010_Node000011"><a xlink:title=" ">
<path fill="none" stroke="#63b8ff" d="M375.31,-152.34C403.56,-152.85 436.24,-153.44 464.29,-153.94"/>
<polygon fill="#63b8ff" stroke="#63b8ff" points="375.48,-148.85 365.42,-152.17 375.35,-155.85 375.48,-148.85"/>
</a>
</g>
</g>
<!-- Node13 -->
<g id="Node000013" class="node">
<title>Node13</title>
<g id="a_Node000013"><a xlink:href="structproxsuite_1_1linalg_1_1veg_1_1cpo_1_1is__trivially__relocatable_3_01Vec_3_01T_00_01A_01_4_01_4.html" target="_top" xlink:title=" ">
<polygon fill="white" stroke="#666666" points="609.75,-107.25 452.75,-107.25 452.75,-61 609.75,-61 609.75,-107.25"/>
<text text-anchor="start" x="460.75" y="-93.75" font-family="Helvetica,sans-Serif" font-size="10.00">proxsuite::linalg::</text>
<text text-anchor="start" x="460.75" y="-81" font-family="Helvetica,sans-Serif" font-size="10.00">veg::cpo::is_trivially</text>
<text text-anchor="middle" x="531.25" y="-68.25" font-family="Helvetica,sans-Serif" font-size="10.00">_relocatable&lt; Vec&lt; T, A &gt; &gt;</text>
</a>
</g>
</g>
<!-- Node12&#45;&gt;Node13 -->
<g id="edge99_Node000012_Node000013" class="edge">
<title>Node12&#45;&gt;Node13</title>
<g id="a_edge99_Node000012_Node000013"><a xlink:title=" ">
<path fill="none" stroke="#63b8ff" d="M375.2,-86.21C399.55,-85.88 427.19,-85.51 452.33,-85.17"/>
<polygon fill="#63b8ff" stroke="#63b8ff" points="375.37,-82.71 365.42,-86.34 375.46,-89.71 375.37,-82.71"/>
</a>
</g>
</g>
<!-- Node4 -->
<g id="Node000004" class="node">
<title>Node4</title>
<g id="a_Node000004"><a xlink:href="structproxsuite_1_1linalg_1_1veg_1_1__detail_1_1__collections_1_1VecImpl.html" target="_top" xlink:title=" ">
<polygon fill="white" stroke="#666666" points="160,-553.25 0,-553.25 0,-507 160,-507 160,-553.25"/>
<text text-anchor="start" x="8" y="-539.75" font-family="Helvetica,sans-Serif" font-size="10.00">proxsuite::linalg::</text>
<text text-anchor="start" x="8" y="-527" font-family="Helvetica,sans-Serif" font-size="10.00">veg::_detail::_collections</text>
<text text-anchor="middle" x="80" y="-514.25" font-family="Helvetica,sans-Serif" font-size="10.00">::VecImpl&lt; T, A, Dtor, Copy &gt;</text>
</a>
</g>
</g>
<!-- Node4&#45;&gt;Node1 -->
<g id="edge103_Node000004_Node000001" class="edge">
<title>Node4&#45;&gt;Node1</title>
<g id="a_edge103_Node000004_Node000001"><a xlink:title=" ">
<path fill="none" stroke="#63b8ff" d="M154.35,-501.47C156.28,-500.38 158.16,-499.27 160,-498.12 178.19,-486.83 178.42,-478.34 196,-466.12 200.41,-463.06 205.01,-460.04 209.71,-457.09"/>
<polygon fill="#63b8ff" stroke="#63b8ff" points="153.03,-498.21 145.83,-505.98 156.3,-504.4 153.03,-498.21"/>
</a>
</g>
</g>
<!-- Node4&#45;&gt;Node3 -->
<g id="edge104_Node000004_Node000003" class="edge">
<title>Node4&#45;&gt;Node3</title>
<g id="a_edge104_Node000004_Node000003"><a xlink:title=" ">
<path fill="none" stroke="#63b8ff" d="M159.23,-499C159.49,-498.71 159.75,-498.42 160,-498.12 204.24,-446.89 147.8,-397.66 196,-350.12 211.46,-334.87 234.21,-328.17 254.95,-325.45"/>
<polygon fill="#63b8ff" stroke="#63b8ff" points="157.02,-496.27 152.04,-505.63 161.77,-501.42 157.02,-496.27"/>
</a>
</g>
</g>
<!-- Node4&#45;&gt;Node5 -->
<g id="edge105_Node000004_Node000005" class="edge">
<title>Node4&#45;&gt;Node5</title>
<g id="a_edge105_Node000004_Node000005"><a xlink:title=" ">
<path fill="none" stroke="#63b8ff" d="M159.52,-498.7C159.68,-498.51 159.84,-498.32 160,-498.12 216.69,-428.38 134.2,-364.39 196,-299.12 211.23,-283.04 234.46,-276.11 255.59,-273.37"/>
<polygon fill="#63b8ff" stroke="#63b8ff" points="157.28,-496 152.58,-505.5 162.17,-501.01 157.28,-496"/>
</a>
</g>
</g>
<!-- Node4&#45;&gt;Node6 -->
<g id="edge106_Node000004_Node000006" class="edge">
<title>Node4&#45;&gt;Node6</title>
<g id="a_edge106_Node000004_Node000006"><a xlink:title=" ">
<path fill="none" stroke="#63b8ff" d="M104.63,-562.46C125.68,-588.92 158.84,-625.26 196,-646.12 207.06,-652.34 219.56,-657.07 232.05,-660.67"/>
<polygon fill="#63b8ff" stroke="#63b8ff" points="107.53,-560.49 98.63,-554.75 102,-564.79 107.53,-560.49"/>
</a>
</g>
</g>
<!-- Node4&#45;&gt;Node7 -->
<g id="edge107_Node000004_Node000007" class="edge">
<title>Node4&#45;&gt;Node7</title>
<g id="a_edge107_Node000004_Node000007"><a xlink:title=" ">
<path fill="none" stroke="#63b8ff" d="M126.98,-559.53C147.47,-571.62 172.3,-584.92 196,-594.12 215.01,-601.51 236.73,-607.2 255.77,-611.35"/>
<polygon fill="#63b8ff" stroke="#63b8ff" points="128.96,-556.64 118.58,-554.49 125.36,-562.64 128.96,-556.64"/>
</a>
</g>
</g>
<!-- Node4&#45;&gt;Node8 -->
<g id="edge108_Node000004_Node000008" class="edge">
<title>Node4&#45;&gt;Node8</title>
<g id="a_edge108_Node000004_Node000008"><a xlink:title=" ">
<path fill="none" stroke="#63b8ff" d="M171.56,-543.04C192.44,-546.02 214.37,-549.15 234.28,-551.99"/>
<polygon fill="#63b8ff" stroke="#63b8ff" points="172.31,-539.61 161.92,-541.67 171.33,-546.54 172.31,-539.61"/>
</a>
</g>
</g>
<!-- Node4&#45;&gt;Node9 -->
<g id="edge109_Node000004_Node000009" class="edge">
<title>Node4&#45;&gt;Node9</title>
<g id="a_edge109_Node000004_Node000009"><a xlink:title=" ">
<path fill="none" stroke="#63b8ff" d="M171.68,-517.19C197.3,-513.54 224.47,-509.66 247.59,-506.37"/>
<polygon fill="#63b8ff" stroke="#63b8ff" points="171.33,-513.71 161.92,-518.58 172.31,-520.64 171.33,-513.71"/>
</a>
</g>
</g>
</g>
</svg>
