<?xml version="1.0" encoding="UTF-8" standalone="no"?>
<!DOCTYPE svg PUBLIC "-//W3C//DTD SVG 1.1//EN"
 "http://www.w3.org/Graphics/SVG/1.1/DTD/svg11.dtd">
<!-- Generated by graphviz version 5.0.1 (20220821.0811)
 -->
<!-- Title: Graphical Class Hierarchy Pages: 1 -->
<svg width="522pt" height="110pt"
 viewBox="0.00 0.00 522.00 110.00" xmlns="http://www.w3.org/2000/svg" xmlns:xlink="http://www.w3.org/1999/xlink">
<g id="graph0" class="graph" transform="scale(1 1) rotate(0) translate(4 106)">
<title>Graphical Class Hierarchy</title>
<!-- Node0 -->
<g id="node1" class="node">
<title>Node0</title>
<g id="a_node1"><a xlink:href="structproxsuite_1_1linalg_1_1veg_1_1__detail_1_1__mem_1_1BumpAllocLayout.html" target="_top" xlink:title=" ">
<polygon fill="none" stroke="black" points="0,-30.5 0,-71.5 170,-71.5 170,-30.5 0,-30.5"/>
<text text-anchor="start" x="8" y="-59.5" font-family="Helvetica,sans-Serif" font-size="10.00">proxsuite::linalg::</text>
<text text-anchor="start" x="8" y="-48.5" font-family="Helvetica,sans-Serif" font-size="10.00">veg::_detail::_mem::</text>
<text text-anchor="middle" x="85" y="-37.5" font-family="Helvetica,sans-Serif" font-size="10.00">BumpAllocLayout&lt; MaxAlign &gt;</text>
</a>
</g>
</g>
<!-- Node1 -->
<g id="node2" class="node">
<title>Node1</title>
<g id="a_node2"><a xlink:href="structproxsuite_1_1linalg_1_1veg_1_1mem_1_1BumpAlloc.html" target="_top" xlink:title=" ">
<polygon fill="none" stroke="black" points="206,-30.5 206,-71.5 331,-71.5 331,-30.5 206,-30.5"/>
<text text-anchor="start" x="214" y="-59.5" font-family="Helvetica,sans-Serif" font-size="10.00">proxsuite::linalg::</text>
<text text-anchor="start" x="214" y="-48.5" font-family="Helvetica,sans-Serif" font-size="10.00">veg::mem::BumpAlloc</text>
<text text-anchor="middle" x="268.5" y="-37.5" font-family="Helvetica,sans-Serif" font-size="10.00">&lt; MaxAlign &gt;</text>
</a>
</g>
</g>
<!-- Node0&#45;&gt;Node1 -->
<g id="edge1" class="edge">
<title>Node0&#45;&gt;Node1</title>
<path fill="none" stroke="#8b1a1a" d="M180.3,-51C188.98,-51 197.61,-51 205.89,-51"/>
<polygon fill="#8b1a1a" stroke="#8b1a1a" points="180.11,-47.5 170.11,-51 180.11,-54.5 180.11,-47.5"/>
</g>
<!-- Node2 -->
<g id="node3" class="node">
<title>Node2</title>
<g id="a_node3"><a xlink:href="structproxsuite_1_1linalg_1_1veg_1_1mem_1_1MonotonicAlloc.html" target="_top" xlink:title=" ">
<polygon fill="none" stroke="black" points="367,-60.5 367,-101.5 514,-101.5 514,-60.5 367,-60.5"/>
<text text-anchor="start" x="375" y="-89.5" font-family="Helvetica,sans-Serif" font-size="10.00">proxsuite::linalg::</text>
<text text-anchor="start" x="375" y="-78.5" font-family="Helvetica,sans-Serif" font-size="10.00">veg::mem::MonotonicAlloc</text>
<text text-anchor="middle" x="440.5" y="-67.5" font-family="Helvetica,sans-Serif" font-size="10.00">&lt; MaxAlign &gt;</text>
</a>
</g>
</g>
<!-- Node1&#45;&gt;Node2 -->
<g id="edge2" class="edge">
<title>Node1&#45;&gt;Node2</title>
<path fill="none" stroke="#8b1a1a" d="M341.45,-63.7C349.81,-65.17 358.34,-66.68 366.72,-68.16"/>
<polygon fill="#8b1a1a" stroke="#8b1a1a" points="341.81,-60.21 331.35,-61.92 340.59,-67.1 341.81,-60.21"/>
</g>
<!-- Node3 -->
<g id="node4" class="node">
<title>Node3</title>
<g id="a_node4"><a xlink:href="structproxsuite_1_1linalg_1_1veg_1_1mem_1_1StackAlloc.html" target="_top" xlink:title=" ">
<polygon fill="none" stroke="black" points="379,-0.5 379,-41.5 502,-41.5 502,-0.5 379,-0.5"/>
<text text-anchor="start" x="387" y="-29.5" font-family="Helvetica,sans-Serif" font-size="10.00">proxsuite::linalg::</text>
<text text-anchor="start" x="387" y="-18.5" font-family="Helvetica,sans-Serif" font-size="10.00">veg::mem::StackAlloc</text>
<text text-anchor="middle" x="440.5" y="-7.5" font-family="Helvetica,sans-Serif" font-size="10.00">&lt; MaxAlign &gt;</text>
</a>
</g>
</g>
<!-- Node1&#45;&gt;Node3 -->
<g id="edge3" class="edge">
<title>Node1&#45;&gt;Node3</title>
<path fill="none" stroke="#8b1a1a" d="M341.27,-38.33C353.77,-36.13 366.66,-33.85 378.83,-31.71"/>
<polygon fill="#8b1a1a" stroke="#8b1a1a" points="340.59,-34.9 331.35,-40.08 341.81,-41.79 340.59,-34.9"/>
</g>
</g>
</svg>
