<?xml version="1.0" encoding="UTF-8" standalone="no"?>
<!DOCTYPE svg PUBLIC "-//W3C//DTD SVG 1.1//EN"
 "http://www.w3.org/Graphics/SVG/1.1/DTD/svg11.dtd">
<!-- Generated by graphviz version 7.1.0 (20230122.1345)
 -->
<!-- Title: Graphical Class Hierarchy Pages: 1 -->
<svg width="620pt" height="642pt"
 viewBox="0.00 0.00 620.00 641.50" xmlns="http://www.w3.org/2000/svg" xmlns:xlink="http://www.w3.org/1999/xlink">
<g id="graph0" class="graph" transform="scale(1 1) rotate(0) translate(4 637.5)">
<title>Graphical Class Hierarchy</title>
<!-- Node0 -->
<g id="node1" class="node">
<title>Node0</title>
<g id="a_node1"><a xlink:href="structproxsuite_1_1linalg_1_1veg_1_1__detail_1_1__vector_1_1adl_1_1AdlBase.html" target="_top" xlink:title=" ">
<polygon fill="white" stroke="#666666" points="138.5,-445 22.5,-445 22.5,-404 138.5,-404 138.5,-445"/>
<text text-anchor="start" x="30.5" y="-433" font-family="Helvetica,sans-Serif" font-size="10.00">proxsuite::linalg::</text>
<text text-anchor="start" x="30.5" y="-422" font-family="Helvetica,sans-Serif" font-size="10.00">veg::_detail::_vector</text>
<text text-anchor="middle" x="80.5" y="-411" font-family="Helvetica,sans-Serif" font-size="10.00">::adl::AdlBase</text>
</a>
</g>
</g>
<!-- Node1 -->
<g id="node2" class="node">
<title>Node1</title>
<g id="a_node2"><a xlink:href="structproxsuite_1_1linalg_1_1veg_1_1Vec.html" target="_top" xlink:title=" ">
<polygon fill="white" stroke="#666666" points="418,-418 197,-418 197,-333 418,-333 418,-418"/>
<text text-anchor="start" x="205" y="-406" font-family="Helvetica,sans-Serif" font-size="10.00">proxsuite::linalg::</text>
<text text-anchor="start" x="205" y="-395" font-family="Helvetica,sans-Serif" font-size="10.00">veg::Vec&lt; T, proxsuite</text>
<text text-anchor="start" x="205" y="-384" font-family="Helvetica,sans-Serif" font-size="10.00">::linalg::veg::meta::if</text>
<text text-anchor="start" x="205" y="-373" font-family="Helvetica,sans-Serif" font-size="10.00">_t&lt; _detail::should_vectorize</text>
<text text-anchor="start" x="205" y="-362" font-family="Helvetica,sans-Serif" font-size="10.00">&lt; T &gt;::value, _detail::SimdAlignedSystem</text>
<text text-anchor="start" x="205" y="-351" font-family="Helvetica,sans-Serif" font-size="10.00">Alloc, proxsuite::linalg::veg::mem</text>
<text text-anchor="middle" x="307.5" y="-340" font-family="Helvetica,sans-Serif" font-size="10.00">::SystemAlloc &gt; &gt;</text>
</a>
</g>
</g>
<!-- Node0&#45;&gt;Node1 -->
<g id="edge1" class="edge">
<title>Node0&#45;&gt;Node1</title>
<path fill="none" stroke="#8b1a1a" d="M149.93,-409.6C164.74,-406.37 180.76,-402.88 196.71,-399.41"/>
<polygon fill="#8b1a1a" stroke="#8b1a1a" points="149.36,-406.14 140.34,-411.69 150.85,-412.98 149.36,-406.14"/>
</g>
<!-- Node3 -->
<g id="node3" class="node">
<title>Node3</title>
<g id="a_node3"><a xlink:href="structproxsuite_1_1linalg_1_1veg_1_1Vec.html" target="_top" xlink:title=" ">
<polygon fill="white" stroke="#666666" points="359,-314.5 256,-314.5 256,-284.5 359,-284.5 359,-314.5"/>
<text text-anchor="start" x="264" y="-302.5" font-family="Helvetica,sans-Serif" font-size="10.00">proxsuite::linalg::</text>
<text text-anchor="middle" x="307.5" y="-291.5" font-family="Helvetica,sans-Serif" font-size="10.00">veg::Vec&lt; isize &gt;</text>
</a>
</g>
</g>
<!-- Node0&#45;&gt;Node3 -->
<g id="edge2" class="edge">
<title>Node0&#45;&gt;Node3</title>
<path fill="none" stroke="#8b1a1a" d="M107.09,-395.64C128.82,-372.93 161.97,-342.25 197,-324.5 215.09,-315.33 236.55,-309.49 255.66,-305.78"/>
<polygon fill="#8b1a1a" stroke="#8b1a1a" points="104.66,-393.11 100.38,-402.8 109.77,-397.89 104.66,-393.11"/>
</g>
<!-- Node5 -->
<g id="node4" class="node">
<title>Node5</title>
<g id="a_node4"><a xlink:href="structproxsuite_1_1linalg_1_1veg_1_1Vec.html" target="_top" xlink:title=" ">
<polygon fill="white" stroke="#666666" points="382,-266.5 233,-266.5 233,-236.5 382,-236.5 382,-266.5"/>
<text text-anchor="start" x="241" y="-254.5" font-family="Helvetica,sans-Serif" font-size="10.00">proxsuite::linalg::</text>
<text text-anchor="middle" x="307.5" y="-243.5" font-family="Helvetica,sans-Serif" font-size="10.00">veg::Vec&lt; unsigned char &gt;</text>
</a>
</g>
</g>
<!-- Node0&#45;&gt;Node5 -->
<g id="edge3" class="edge">
<title>Node0&#45;&gt;Node5</title>
<path fill="none" stroke="#8b1a1a" d="M103.91,-394.52C135.7,-352.16 190.75,-279.45 197,-275.5 207.78,-268.69 220.21,-263.79 232.74,-260.28"/>
<polygon fill="#8b1a1a" stroke="#8b1a1a" points="101.24,-392.26 98.04,-402.36 106.84,-396.46 101.24,-392.26"/>
</g>
<!-- Node6 -->
<g id="node5" class="node">
<title>Node6</title>
<g id="a_node5"><a xlink:href="structproxsuite_1_1linalg_1_1veg_1_1Vec.html" target="_top" xlink:title=" ">
<polygon fill="white" stroke="#666666" points="358,-633.5 257,-633.5 257,-603.5 358,-603.5 358,-633.5"/>
<text text-anchor="start" x="265" y="-621.5" font-family="Helvetica,sans-Serif" font-size="10.00">proxsuite::linalg::</text>
<text text-anchor="middle" x="307.5" y="-610.5" font-family="Helvetica,sans-Serif" font-size="10.00">veg::Vec&lt; I &gt;</text>
</a>
</g>
</g>
<!-- Node0&#45;&gt;Node6 -->
<g id="edge4" class="edge">
<title>Node0&#45;&gt;Node6</title>
<path fill="none" stroke="#8b1a1a" d="M148.57,-443.92C153.15,-446.96 157.38,-450.46 161,-454.5 203.88,-502.34 150.76,-549.89 197,-594.5 212.76,-609.7 235.81,-616.18 256.71,-618.66"/>
<polygon fill="#8b1a1a" stroke="#8b1a1a" points="150.49,-440.99 140.07,-439.09 147.03,-447.07 150.49,-440.99"/>
</g>
<!-- Node7 -->
<g id="node6" class="node">
<title>Node7</title>
<g id="a_node6"><a xlink:href="structproxsuite_1_1linalg_1_1veg_1_1Vec.html" target="_top" xlink:title=" ">
<polygon fill="white" stroke="#666666" points="379.5,-585 235.5,-585 235.5,-544 379.5,-544 379.5,-585"/>
<text text-anchor="start" x="243.5" y="-573" font-family="Helvetica,sans-Serif" font-size="10.00">proxsuite::linalg::</text>
<text text-anchor="start" x="243.5" y="-562" font-family="Helvetica,sans-Serif" font-size="10.00">veg::Vec&lt; proxsuite</text>
<text text-anchor="middle" x="307.5" y="-551" font-family="Helvetica,sans-Serif" font-size="10.00">::linalg::veg::mem::byte &gt;</text>
</a>
</g>
</g>
<!-- Node0&#45;&gt;Node7 -->
<g id="edge5" class="edge">
<title>Node0&#45;&gt;Node7</title>
<path fill="none" stroke="#8b1a1a" d="M148.66,-445.14C153.09,-447.89 157.27,-451 161,-454.5 189.41,-481.2 167.37,-509.15 197,-534.5 207.86,-543.79 221.35,-550.22 235.11,-554.67"/>
<polygon fill="#8b1a1a" stroke="#8b1a1a" points="150.39,-442.1 139.93,-440.39 147.04,-448.25 150.39,-442.1"/>
</g>
<!-- Node8 -->
<g id="node7" class="node">
<title>Node8</title>
<g id="a_node7"><a xlink:href="structproxsuite_1_1linalg_1_1veg_1_1Vec.html" target="_top" xlink:title=" ">
<polygon fill="white" stroke="#666666" points="358,-525.5 257,-525.5 257,-495.5 358,-495.5 358,-525.5"/>
<text text-anchor="start" x="265" y="-513.5" font-family="Helvetica,sans-Serif" font-size="10.00">proxsuite::linalg::</text>
<text text-anchor="middle" x="307.5" y="-502.5" font-family="Helvetica,sans-Serif" font-size="10.00">veg::Vec&lt; bool &gt;</text>
</a>
</g>
</g>
<!-- Node0&#45;&gt;Node8 -->
<g id="edge6" class="edge">
<title>Node0&#45;&gt;Node8</title>
<path fill="none" stroke="#8b1a1a" d="M149.09,-447.99C153.2,-450.03 157.2,-452.2 161,-454.5 179.32,-465.57 177.93,-476.78 197,-486.5 215.38,-495.86 237.31,-501.59 256.71,-505.08"/>
<polygon fill="#8b1a1a" stroke="#8b1a1a" points="150.64,-444.85 140.1,-443.82 147.7,-451.2 150.64,-444.85"/>
</g>
<!-- Node9 -->
<g id="node8" class="node">
<title>Node9</title>
<g id="a_node8"><a xlink:href="structproxsuite_1_1linalg_1_1veg_1_1Vec.html" target="_top" xlink:title=" ">
<polygon fill="white" stroke="#666666" points="366.5,-477 248.5,-477 248.5,-436 366.5,-436 366.5,-477"/>
<text text-anchor="start" x="256.5" y="-465" font-family="Helvetica,sans-Serif" font-size="10.00">proxsuite::linalg::</text>
<text text-anchor="start" x="256.5" y="-454" font-family="Helvetica,sans-Serif" font-size="10.00">veg::Vec&lt; T, A, Dtor,</text>
<text text-anchor="middle" x="307.5" y="-443" font-family="Helvetica,sans-Serif" font-size="10.00"> Copy &gt;</text>
</a>
</g>
</g>
<!-- Node0&#45;&gt;Node9 -->
<g id="edge7" class="edge">
<title>Node0&#45;&gt;Node9</title>
<path fill="none" stroke="#8b1a1a" d="M150.13,-434.26C181.43,-438.71 218.11,-443.93 248.07,-448.19"/>
<polygon fill="#8b1a1a" stroke="#8b1a1a" points="150.75,-430.81 140.36,-432.87 149.77,-437.74 150.75,-430.81"/>
</g>
<!-- Node2 -->
<g id="node9" class="node">
<title>Node2</title>
<g id="a_node9"><a xlink:title=" ">
<polygon fill="#e0e0e0" stroke="#999999" points="112.5,-309 48.5,-309 48.5,-290 112.5,-290 112.5,-309"/>
<text text-anchor="middle" x="80.5" y="-297" font-family="Helvetica,sans-Serif" font-size="10.00">meta::if_t</text>
</a>
</g>
</g>
<!-- Node2&#45;&gt;Node1 -->
<g id="edge8" class="edge">
<title>Node2&#45;&gt;Node1</title>
<path fill="none" stroke="#8b1a1a" d="M121.68,-313.07C142.78,-320.2 169.76,-329.31 196.54,-338.36"/>
<polygon fill="#8b1a1a" stroke="#8b1a1a" points="122.94,-309.8 112.35,-309.92 120.7,-316.44 122.94,-309.8"/>
</g>
<!-- Node2&#45;&gt;Node3 -->
<g id="edge9" class="edge">
<title>Node2&#45;&gt;Node3</title>
<path fill="none" stroke="#8b1a1a" d="M124.29,-299.5C161.67,-299.5 216,-299.5 255.6,-299.5"/>
<polygon fill="#8b1a1a" stroke="#8b1a1a" points="124.3,-296 114.3,-299.5 124.3,-303 124.3,-296"/>
</g>
<!-- Node2&#45;&gt;Node5 -->
<g id="edge10" class="edge">
<title>Node2&#45;&gt;Node5</title>
<path fill="none" stroke="#8b1a1a" d="M123.66,-290.51C154.72,-283.88 197.75,-274.7 234.25,-266.91"/>
<polygon fill="#8b1a1a" stroke="#8b1a1a" points="123.32,-287 114.27,-292.51 124.78,-293.85 123.32,-287"/>
</g>
<!-- Node2&#45;&gt;Node6 -->
<g id="edge11" class="edge">
<title>Node2&#45;&gt;Node6</title>
<path fill="none" stroke="#8b1a1a" d="M101.15,-317.26C119.64,-335.15 146.57,-364.47 161,-395.5 198.9,-477 134.63,-529.79 197,-594.5 212.33,-610.4 235.59,-616.92 256.74,-619.25"/>
<polygon fill="#8b1a1a" stroke="#8b1a1a" points="103.63,-314.79 93.95,-310.48 98.83,-319.88 103.63,-314.79"/>
</g>
<!-- Node2&#45;&gt;Node7 -->
<g id="edge12" class="edge">
<title>Node2&#45;&gt;Node7</title>
<path fill="none" stroke="#8b1a1a" d="M100.35,-317.21C118.47,-335.26 145.34,-364.87 161,-395.5 190.05,-452.32 152.19,-489.06 197,-534.5 207.38,-545.03 221.08,-551.96 235.26,-556.5"/>
<polygon fill="#8b1a1a" stroke="#8b1a1a" points="102.94,-314.85 93.33,-310.39 98.06,-319.87 102.94,-314.85"/>
</g>
<!-- Node2&#45;&gt;Node8 -->
<g id="edge13" class="edge">
<title>Node2&#45;&gt;Node8</title>
<path fill="none" stroke="#8b1a1a" d="M99.27,-317.36C116.78,-335.71 143.39,-365.73 161,-395.5 183.14,-432.93 163.87,-458.32 197,-486.5 213.45,-500.5 236.23,-506.87 256.74,-509.6"/>
<polygon fill="#8b1a1a" stroke="#8b1a1a" points="102.02,-315.16 92.54,-310.42 96.99,-320.04 102.02,-315.16"/>
</g>
<!-- Node2&#45;&gt;Node9 -->
<g id="edge18" class="edge">
<title>Node2&#45;&gt;Node9</title>
<path fill="none" stroke="#8b1a1a" d="M95.97,-317.98C121.19,-349.75 172.8,-412.74 197,-427.5 212.45,-436.92 230.93,-443.32 248.28,-447.65"/>
<polygon fill="#8b1a1a" stroke="#8b1a1a" points="98.93,-316.08 89.99,-310.4 93.43,-320.42 98.93,-316.08"/>
</g>
<!-- Node10 -->
<g id="node10" class="node">
<title>Node10</title>
<g id="a_node10"><a xlink:href="structproxsuite_1_1linalg_1_1veg_1_1cpo_1_1is__trivially__constructible.html" target="_top" xlink:title=" ">
<polygon fill="white" stroke="#666666" points="365,-159 250,-159 250,-118 365,-118 365,-159"/>
<text text-anchor="start" x="258" y="-147" font-family="Helvetica,sans-Serif" font-size="10.00">proxsuite::linalg::</text>
<text text-anchor="start" x="258" y="-136" font-family="Helvetica,sans-Serif" font-size="10.00">veg::cpo::is_trivially</text>
<text text-anchor="middle" x="307.5" y="-125" font-family="Helvetica,sans-Serif" font-size="10.00">_constructible&lt; A &gt;</text>
</a>
</g>
</g>
<!-- Node2&#45;&gt;Node10 -->
<g id="edge14" class="edge">
<title>Node2&#45;&gt;Node10</title>
<path fill="none" stroke="#63b8ff" d="M93.48,-279.78C112.03,-250.94 150.47,-197.53 197,-168.5 212.8,-158.64 231.86,-151.97 249.62,-147.48"/>
<polygon fill="#63b8ff" stroke="#63b8ff" points="90.51,-277.92 88.17,-288.25 96.45,-281.64 90.51,-277.92"/>
</g>
<!-- Node12 -->
<g id="node12" class="node">
<title>Node12</title>
<g id="a_node12"><a xlink:href="structproxsuite_1_1linalg_1_1veg_1_1cpo_1_1is__trivially__relocatable.html" target="_top" xlink:title=" ">
<polygon fill="white" stroke="#666666" points="365,-100 250,-100 250,-59 365,-59 365,-100"/>
<text text-anchor="start" x="258" y="-88" font-family="Helvetica,sans-Serif" font-size="10.00">proxsuite::linalg::</text>
<text text-anchor="start" x="258" y="-77" font-family="Helvetica,sans-Serif" font-size="10.00">veg::cpo::is_trivially</text>
<text text-anchor="middle" x="307.5" y="-66" font-family="Helvetica,sans-Serif" font-size="10.00">_relocatable&lt; A &gt;</text>
</a>
</g>
</g>
<!-- Node2&#45;&gt;Node12 -->
<g id="edge16" class="edge">
<title>Node2&#45;&gt;Node12</title>
<path fill="none" stroke="#63b8ff" d="M88.06,-278.96C101.7,-239.59 136.98,-153.46 197,-108.5 212.19,-97.12 231.49,-90.2 249.64,-85.99"/>
<polygon fill="#63b8ff" stroke="#63b8ff" points="84.77,-277.75 84.93,-288.34 91.41,-279.96 84.77,-277.75"/>
</g>
<!-- Node14 -->
<g id="node14" class="node">
<title>Node14</title>
<g id="a_node14"><a xlink:href="structproxsuite_1_1linalg_1_1veg_1_1cpo_1_1is__trivially__constructible.html" target="_top" xlink:title=" ">
<polygon fill="white" stroke="#666666" points="365,-41 250,-41 250,0 365,0 365,-41"/>
<text text-anchor="start" x="258" y="-29" font-family="Helvetica,sans-Serif" font-size="10.00">proxsuite::linalg::</text>
<text text-anchor="start" x="258" y="-18" font-family="Helvetica,sans-Serif" font-size="10.00">veg::cpo::is_trivially</text>
<text text-anchor="middle" x="307.5" y="-7" font-family="Helvetica,sans-Serif" font-size="10.00">_constructible&lt; T &gt;</text>
</a>
</g>
</g>
<!-- Node2&#45;&gt;Node14 -->
<g id="edge19" class="edge">
<title>Node2&#45;&gt;Node14</title>
<path fill="none" stroke="#63b8ff" d="M85.01,-278.42C94.16,-230.21 123.39,-111.31 197,-49.5 211.76,-37.11 231.27,-29.95 249.72,-25.84"/>
<polygon fill="#63b8ff" stroke="#63b8ff" points="81.6,-277.61 83.28,-288.07 88.49,-278.84 81.6,-277.61"/>
</g>
<!-- Node15 -->
<g id="node15" class="node">
<title>Node15</title>
<g id="a_node15"><a xlink:href="structproxsuite_1_1linalg_1_1veg_1_1cpo_1_1is__trivially__relocatable.html" target="_top" xlink:title=" ">
<polygon fill="white" stroke="#666666" points="365,-218 250,-218 250,-177 365,-177 365,-218"/>
<text text-anchor="start" x="258" y="-206" font-family="Helvetica,sans-Serif" font-size="10.00">proxsuite::linalg::</text>
<text text-anchor="start" x="258" y="-195" font-family="Helvetica,sans-Serif" font-size="10.00">veg::cpo::is_trivially</text>
<text text-anchor="middle" x="307.5" y="-184" font-family="Helvetica,sans-Serif" font-size="10.00">_relocatable&lt; T &gt;</text>
</a>
</g>
</g>
<!-- Node2&#45;&gt;Node15 -->
<g id="edge20" class="edge">
<title>Node2&#45;&gt;Node15</title>
<path fill="none" stroke="#63b8ff" d="M103.68,-282.93C126.17,-266.81 162.49,-242.6 197,-227.5 213.61,-220.23 232.43,-214.31 249.72,-209.71"/>
<polygon fill="#63b8ff" stroke="#63b8ff" points="101.9,-279.9 95.88,-288.61 106.02,-285.56 101.9,-279.9"/>
</g>
<!-- Node11 -->
<g id="node11" class="node">
<title>Node11</title>
<g id="a_node11"><a xlink:href="structproxsuite_1_1linalg_1_1veg_1_1cpo_1_1is__trivially__constructible_3_01Vec_3_01T_00_01A_01_4_01_4.html" target="_top" xlink:title=" ">
<polygon fill="white" stroke="#666666" points="600,-167.5 466,-167.5 466,-115.5 600,-115.5 600,-167.5"/>
<text text-anchor="start" x="474" y="-155.5" font-family="Helvetica,sans-Serif" font-size="10.00">proxsuite::linalg::</text>
<text text-anchor="start" x="474" y="-144.5" font-family="Helvetica,sans-Serif" font-size="10.00">veg::cpo::is_trivially</text>
<text text-anchor="start" x="474" y="-133.5" font-family="Helvetica,sans-Serif" font-size="10.00">_constructible&lt; Vec&lt; T,</text>
<text text-anchor="middle" x="533" y="-122.5" font-family="Helvetica,sans-Serif" font-size="10.00"> A &gt; &gt;</text>
</a>
</g>
</g>
<!-- Node10&#45;&gt;Node11 -->
<g id="edge15" class="edge">
<title>Node10&#45;&gt;Node11</title>
<path fill="none" stroke="#63b8ff" d="M376.86,-139.42C405.06,-139.8 437.62,-140.23 465.61,-140.61"/>
<polygon fill="#63b8ff" stroke="#63b8ff" points="377.04,-135.92 366.99,-139.29 376.94,-142.92 377.04,-135.92"/>
</g>
<!-- Node13 -->
<g id="node13" class="node">
<title>Node13</title>
<g id="a_node13"><a xlink:href="structproxsuite_1_1linalg_1_1veg_1_1cpo_1_1is__trivially__relocatable_3_01Vec_3_01T_00_01A_01_4_01_4.html" target="_top" xlink:title=" ">
<polygon fill="white" stroke="#666666" points="612,-97 454,-97 454,-56 612,-56 612,-97"/>
<text text-anchor="start" x="462" y="-85" font-family="Helvetica,sans-Serif" font-size="10.00">proxsuite::linalg::</text>
<text text-anchor="start" x="462" y="-74" font-family="Helvetica,sans-Serif" font-size="10.00">veg::cpo::is_trivially</text>
<text text-anchor="middle" x="533" y="-63" font-family="Helvetica,sans-Serif" font-size="10.00">_relocatable&lt; Vec&lt; T, A &gt; &gt;</text>
</a>
</g>
</g>
<!-- Node12&#45;&gt;Node13 -->
<g id="edge17" class="edge">
<title>Node12&#45;&gt;Node13</title>
<path fill="none" stroke="#63b8ff" d="M376.75,-78.58C401.03,-78.26 428.56,-77.89 453.63,-77.55"/>
<polygon fill="#63b8ff" stroke="#63b8ff" points="376.94,-75.08 366.99,-78.71 377.04,-82.08 376.94,-75.08"/>
</g>
<!-- Node4 -->
<g id="node16" class="node">
<title>Node4</title>
<g id="a_node16"><a xlink:href="structproxsuite_1_1linalg_1_1veg_1_1__detail_1_1__collections_1_1VecImpl.html" target="_top" xlink:title=" ">
<polygon fill="white" stroke="#666666" points="161,-504 0,-504 0,-463 161,-463 161,-504"/>
<text text-anchor="start" x="8" y="-492" font-family="Helvetica,sans-Serif" font-size="10.00">proxsuite::linalg::</text>
<text text-anchor="start" x="8" y="-481" font-family="Helvetica,sans-Serif" font-size="10.00">veg::_detail::_collections</text>
<text text-anchor="middle" x="80.5" y="-470" font-family="Helvetica,sans-Serif" font-size="10.00">::VecImpl&lt; T, A, Dtor, Copy &gt;</text>
</a>
</g>
</g>
<!-- Node4&#45;&gt;Node1 -->
<g id="edge21" class="edge">
<title>Node4&#45;&gt;Node1</title>
<path fill="none" stroke="#63b8ff" d="M154.65,-457.78C156.81,-456.72 158.93,-455.62 161,-454.5 178.58,-444.97 179.88,-437.84 197,-427.5 202.13,-424.4 207.48,-421.34 212.93,-418.36"/>
<polygon fill="#63b8ff" stroke="#63b8ff" points="153.3,-454.55 145.7,-461.93 156.25,-460.9 153.3,-454.55"/>
</g>
<!-- Node4&#45;&gt;Node3 -->
<g id="edge22" class="edge">
<title>Node4&#45;&gt;Node3</title>
<path fill="none" stroke="#63b8ff" d="M160.21,-455.34C160.47,-455.06 160.74,-454.78 161,-454.5 201.67,-410.45 153.65,-365.91 197,-324.5 212.58,-309.62 235.11,-302.92 255.69,-300.12"/>
<polygon fill="#63b8ff" stroke="#63b8ff" points="158.15,-452.49 152.86,-461.67 162.72,-457.79 158.15,-452.49"/>
</g>
<!-- Node4&#45;&gt;Node5 -->
<g id="edge23" class="edge">
<title>Node4&#45;&gt;Node5</title>
<path fill="none" stroke="#63b8ff" d="M160.76,-454.78C160.84,-454.69 160.92,-454.59 161,-454.5 213.88,-392.95 140.12,-333.37 197,-275.5 206.69,-265.65 219.42,-259.41 232.77,-255.55"/>
<polygon fill="#63b8ff" stroke="#63b8ff" points="158.37,-452.22 153.44,-461.59 163.14,-457.34 158.37,-452.22"/>
</g>
<!-- Node4&#45;&gt;Node6 -->
<g id="edge24" class="edge">
<title>Node4&#45;&gt;Node6</title>
<path fill="none" stroke="#63b8ff" d="M104.24,-513.12C125.46,-538.63 159.42,-574.43 197,-594.5 215.2,-604.22 237.1,-610.01 256.51,-613.45"/>
<polygon fill="#63b8ff" stroke="#63b8ff" points="107,-510.96 97.97,-505.4 101.56,-515.37 107,-510.96"/>
</g>
<!-- Node4&#45;&gt;Node7 -->
<g id="edge25" class="edge">
<title>Node4&#45;&gt;Node7</title>
<path fill="none" stroke="#63b8ff" d="M135.14,-509.17C154.4,-517.85 176.44,-527.19 197,-534.5 209.16,-538.83 222.27,-542.9 235.05,-546.57"/>
<polygon fill="#63b8ff" stroke="#63b8ff" points="136.69,-506.02 126.14,-505.06 133.78,-512.39 136.69,-506.02"/>
</g>
<!-- Node4&#45;&gt;Node8 -->
<g id="edge26" class="edge">
<title>Node4&#45;&gt;Node8</title>
<path fill="none" stroke="#63b8ff" d="M172.74,-494.45C201.38,-497.89 231.91,-501.55 256.57,-504.51"/>
<polygon fill="#63b8ff" stroke="#63b8ff" points="173.31,-490.99 162.96,-493.28 172.47,-497.94 173.31,-490.99"/>
</g>
<!-- Node4&#45;&gt;Node9 -->
<g id="edge27" class="edge">
<title>Node4&#45;&gt;Node9</title>
<path fill="none" stroke="#63b8ff" d="M172.63,-472.56C198.07,-469.51 225.01,-466.28 248.01,-463.52"/>
<polygon fill="#63b8ff" stroke="#63b8ff" points="172.47,-469.06 162.96,-473.72 173.31,-476.01 172.47,-469.06"/>
</g>
</g>
</svg>
