<?xml version="1.0" encoding="UTF-8" standalone="no"?>
<!DOCTYPE svg PUBLIC "-//W3C//DTD SVG 1.1//EN"
 "http://www.w3.org/Graphics/SVG/1.1/DTD/svg11.dtd">
<!-- Generated by graphviz version 12.2.1 (20250203.1708)
 -->
<!-- Title: Graphical Class Hierarchy Pages: 1 -->
<svg width="311pt" height="288pt"
 viewBox="0.00 0.00 310.75 288.12" xmlns="http://www.w3.org/2000/svg" xmlns:xlink="http://www.w3.org/1999/xlink">
<g id="graph0" class="graph" transform="scale(1 1) rotate(0) translate(4 284.12)">
<title>Graphical Class Hierarchy</title>
<!-- Node0 -->
<g id="Node000000" class="node">
<title>Node0</title>
<g id="a_Node000000"><a xlink:title=" ">
<polygon fill="#e0e0e0" stroke="#999999" points="73.78,-280.12 44.98,-280.12 44.98,-259.38 73.78,-259.38 73.78,-280.12"/>
<text text-anchor="middle" x="59.38" y="-266.62" font-family="Helvetica,sans-Serif" font-size="10.00">B</text>
</a>
</g>
</g>
<!-- Node1 -->
<g id="Node000001" class="node">
<title>Node1</title>
<g id="a_Node000001"><a xlink:href="structtl_1_1detail_1_1conjunction_3_01B_01_4.html" target="_top" xlink:title=" ">
<polygon fill="white" stroke="#666666" points="302.75,-280.12 154.75,-280.12 154.75,-259.38 302.75,-259.38 302.75,-280.12"/>
<text text-anchor="middle" x="228.75" y="-266.62" font-family="Helvetica,sans-Serif" font-size="10.00">tl::detail::conjunction&lt; B &gt;</text>
</a>
</g>
</g>
<!-- Node0&#45;&gt;Node1 -->
<g id="edge1_Node000000_Node000001" class="edge">
<title>Node0&#45;&gt;Node1</title>
<g id="a_edge1_Node000000_Node000001"><a xlink:title=" ">
<path fill="none" stroke="#63b8ff" d="M85.46,-269.75C103.81,-269.75 129.71,-269.75 154.38,-269.75"/>
<polygon fill="#63b8ff" stroke="#63b8ff" points="85.59,-266.25 75.59,-269.75 85.59,-273.25 85.59,-266.25"/>
</a>
</g>
</g>
<!-- Node7 -->
<g id="Node000007" class="node">
<title>Node7</title>
<g id="a_Node000007"><a xlink:title=" ">
<polygon fill="#e0e0e0" stroke="#999999" points="103.38,-79.12 15.38,-79.12 15.38,-58.38 103.38,-58.38 103.38,-79.12"/>
<text text-anchor="middle" x="59.38" y="-65.62" font-family="Helvetica,sans-Serif" font-size="10.00">std::false_type</text>
</a>
</g>
</g>
<!-- Node8 -->
<g id="Node000008" class="node">
<title>Node8</title>
<g id="a_Node000008"><a xlink:href="structtl_1_1detail_1_1is__optional__impl.html" target="_top" xlink:title=" ">
<polygon fill="white" stroke="#666666" points="294.88,-85.5 162.62,-85.5 162.62,-52 294.88,-52 294.88,-85.5"/>
<text text-anchor="start" x="170.62" y="-72" font-family="Helvetica,sans-Serif" font-size="10.00">tl::detail::is_optional</text>
<text text-anchor="middle" x="228.75" y="-59.25" font-family="Helvetica,sans-Serif" font-size="10.00">_impl&lt; decay_t&lt; T &gt; &gt;</text>
</a>
</g>
</g>
<!-- Node7&#45;&gt;Node8 -->
<g id="edge2_Node000007_Node000008" class="edge">
<title>Node7&#45;&gt;Node8</title>
<g id="a_edge2_Node000007_Node000008"><a xlink:title=" ">
<path fill="none" stroke="#63b8ff" d="M114.76,-68.75C129.95,-68.75 146.61,-68.75 162.35,-68.75"/>
<polygon fill="#63b8ff" stroke="#63b8ff" points="114.99,-65.25 104.99,-68.75 114.99,-72.25 114.99,-65.25"/>
</a>
</g>
</g>
<!-- Node6 -->
<g id="Node000006" class="node">
<title>Node6</title>
<g id="a_Node000006"><a xlink:href="structtl_1_1detail_1_1is__optional__impl_3_01optional_3_01T_01_4_01_4.html" target="_top" xlink:title=" ">
<polygon fill="white" stroke="#666666" points="295.62,-137.5 161.88,-137.5 161.88,-104 295.62,-104 295.62,-137.5"/>
<text text-anchor="start" x="169.88" y="-124" font-family="Helvetica,sans-Serif" font-size="10.00">tl::detail::is_optional</text>
<text text-anchor="middle" x="228.75" y="-111.25" font-family="Helvetica,sans-Serif" font-size="10.00">_impl&lt; optional&lt; T &gt; &gt;</text>
</a>
</g>
</g>
<!-- Node7&#45;&gt;Node6 -->
<g id="edge3_Node000007_Node000006" class="edge">
<title>Node7&#45;&gt;Node6</title>
<g id="a_edge3_Node000007_Node000006"><a xlink:title=" ">
<path fill="none" stroke="#63b8ff" d="M106,-82.92C126.48,-89.29 150.84,-96.85 172.36,-103.54"/>
<polygon fill="#63b8ff" stroke="#63b8ff" points="107.09,-79.6 96.5,-79.97 105.01,-86.28 107.09,-79.6"/>
</a>
</g>
</g>
<!-- Node9 -->
<g id="Node000009" class="node">
<title>Node9</title>
<g id="a_Node000009"><a xlink:href="structtl_1_1detail_1_1is__optional__impl.html" target="_top" xlink:title=" ">
<polygon fill="white" stroke="#666666" points="286.62,-33.5 170.88,-33.5 170.88,0 286.62,0 286.62,-33.5"/>
<text text-anchor="start" x="178.88" y="-20" font-family="Helvetica,sans-Serif" font-size="10.00">tl::detail::is_optional</text>
<text text-anchor="middle" x="228.75" y="-7.25" font-family="Helvetica,sans-Serif" font-size="10.00">_impl&lt; T &gt;</text>
</a>
</g>
</g>
<!-- Node7&#45;&gt;Node9 -->
<g id="edge4_Node000007_Node000009" class="edge">
<title>Node7&#45;&gt;Node9</title>
<g id="a_edge4_Node000007_Node000009"><a xlink:title=" ">
<path fill="none" stroke="#63b8ff" d="M106,-54.58C126.48,-48.21 150.84,-40.65 172.36,-33.96"/>
<polygon fill="#63b8ff" stroke="#63b8ff" points="105.01,-51.22 96.5,-57.53 107.09,-57.9 105.01,-51.22"/>
</a>
</g>
</g>
<!-- Node2 -->
<g id="Node000002" class="node">
<title>Node2</title>
<g id="a_Node000002"><a xlink:title=" ">
<polygon fill="#e0e0e0" stroke="#999999" points="101.12,-229.12 17.62,-229.12 17.62,-208.38 101.12,-208.38 101.12,-229.12"/>
<text text-anchor="middle" x="59.38" y="-215.62" font-family="Helvetica,sans-Serif" font-size="10.00">std::true_type</text>
</a>
</g>
</g>
<!-- Node2&#45;&gt;Node1 -->
<g id="edge5_Node000002_Node000001" class="edge">
<title>Node2&#45;&gt;Node1</title>
<g id="a_edge5_Node000002_Node000001"><a xlink:title=" ">
<path fill="none" stroke="#63b8ff" d="M100.83,-233.18C117.45,-238.93 136.94,-245.42 154.75,-250.75 164.16,-253.57 174.32,-256.36 183.99,-258.91"/>
<polygon fill="#63b8ff" stroke="#63b8ff" points="102.4,-230.02 91.8,-230.04 100.09,-236.63 102.4,-230.02"/>
</a>
</g>
</g>
<!-- Node2&#45;&gt;Node6 -->
<g id="edge8_Node000002_Node000006" class="edge">
<title>Node2&#45;&gt;Node6</title>
<g id="a_edge8_Node000002_Node000006"><a xlink:title=" ">
<path fill="none" stroke="#63b8ff" d="M100.64,-203.14C107,-199.85 113.27,-196.04 118.75,-191.75 138.91,-175.95 133.89,-161.61 154.75,-146.75 159.46,-143.39 164.65,-140.43 170.02,-137.82"/>
<polygon fill="#63b8ff" stroke="#63b8ff" points="99.57,-199.78 92.06,-207.25 102.59,-206.09 99.57,-199.78"/>
</a>
</g>
</g>
<!-- Node3 -->
<g id="Node000003" class="node">
<title>Node3</title>
<g id="a_Node000003"><a xlink:href="structtl_1_1detail_1_1conjunction_3_01B_00_01Bs_8_8_8_01_4.html" target="_top" xlink:title=" ">
<polygon fill="white" stroke="#666666" points="288.12,-189.5 169.38,-189.5 169.38,-156 288.12,-156 288.12,-189.5"/>
<text text-anchor="start" x="177.38" y="-176" font-family="Helvetica,sans-Serif" font-size="10.00">tl::detail::conjunction</text>
<text text-anchor="middle" x="228.75" y="-163.25" font-family="Helvetica,sans-Serif" font-size="10.00">&lt; B, Bs... &gt;</text>
</a>
</g>
</g>
<!-- Node2&#45;&gt;Node3 -->
<g id="edge6_Node000002_Node000003" class="edge">
<title>Node2&#45;&gt;Node3</title>
<g id="a_edge6_Node000002_Node000003"><a xlink:title=" ">
<path fill="none" stroke="#63b8ff" d="M110.69,-204.92C129.07,-199.87 150.02,-194.11 169.07,-188.88"/>
<polygon fill="#63b8ff" stroke="#63b8ff" points="109.79,-201.54 101.08,-207.56 111.65,-208.29 109.79,-201.54"/>
</a>
</g>
</g>
<!-- Node5 -->
<g id="Node000005" class="node">
<title>Node5</title>
<g id="a_Node000005"><a xlink:href="structtl_1_1detail_1_1conjunction.html" target="_top" xlink:title=" ">
<polygon fill="white" stroke="#666666" points="288.12,-241.5 169.38,-241.5 169.38,-208 288.12,-208 288.12,-241.5"/>
<text text-anchor="start" x="177.38" y="-228" font-family="Helvetica,sans-Serif" font-size="10.00">tl::detail::conjunction</text>
<text text-anchor="middle" x="228.75" y="-215.25" font-family="Helvetica,sans-Serif" font-size="10.00">&lt;... &gt;</text>
</a>
</g>
</g>
<!-- Node2&#45;&gt;Node5 -->
<g id="edge7_Node000002_Node000005" class="edge">
<title>Node2&#45;&gt;Node5</title>
<g id="a_edge7_Node000002_Node000005"><a xlink:title=" ">
<path fill="none" stroke="#63b8ff" d="M112.68,-220.62C130.52,-221.26 150.58,-221.98 168.89,-222.64"/>
<polygon fill="#63b8ff" stroke="#63b8ff" points="112.95,-217.13 102.83,-220.27 112.7,-224.13 112.95,-217.13"/>
</a>
</g>
</g>
<!-- Node4 -->
<g id="Node000004" class="node">
<title>Node4</title>
<g id="a_Node000004"><a xlink:title=" ">
<polygon fill="#e0e0e0" stroke="#999999" points="118.75,-183.12 0,-183.12 0,-162.38 118.75,-162.38 118.75,-183.12"/>
<text text-anchor="middle" x="59.38" y="-169.62" font-family="Helvetica,sans-Serif" font-size="10.00">std::conditional::type</text>
</a>
</g>
</g>
<!-- Node4&#45;&gt;Node3 -->
<g id="edge9_Node000004_Node000003" class="edge">
<title>Node4&#45;&gt;Node3</title>
<g id="a_edge9_Node000004_Node000003"><a xlink:title=" ">
<path fill="none" stroke="#63b8ff" d="M130.12,-172.75C143.03,-172.75 156.41,-172.75 168.96,-172.75"/>
<polygon fill="#63b8ff" stroke="#63b8ff" points="130.43,-169.25 120.43,-172.75 130.43,-176.25 130.43,-169.25"/>
</a>
</g>
</g>
</g>
</svg>
