<?xml version="1.0" encoding="UTF-8" standalone="no"?>
<!DOCTYPE svg PUBLIC "-//W3C//DTD SVG 1.1//EN"
 "http://www.w3.org/Graphics/SVG/1.1/DTD/svg11.dtd">
<!-- Generated by graphviz version 12.2.1 (20250203.1708)
 -->
<!-- Title: Graphical Class Hierarchy Pages: 1 -->
<svg width="618pt" height="1650pt"
 viewBox="0.00 0.00 617.75 1649.66" xmlns="http://www.w3.org/2000/svg" xmlns:xlink="http://www.w3.org/1999/xlink">
<g id="graph0" class="graph" transform="scale(1 1) rotate(0) translate(4 1645.66)">
<title>Graphical Class Hierarchy</title>
<!-- Node0 -->
<g id="Node000000" class="node">
<title>Node0</title>
<g id="a_Node000000"><a xlink:href="structproxsuite_1_1linalg_1_1veg_1_1__detail_1_1__meta_1_1adl__get.html" target="_top" xlink:title=" ">
<polygon fill="white" stroke="#666666" points="134.88,-1513.66 25.13,-1513.66 25.13,-1467.41 134.88,-1467.41 134.88,-1513.66"/>
<text text-anchor="start" x="33.12" y="-1500.16" font-family="Helvetica,sans-Serif" font-size="10.00">proxsuite::linalg::</text>
<text text-anchor="start" x="33.12" y="-1487.41" font-family="Helvetica,sans-Serif" font-size="10.00">veg::_detail::_meta</text>
<text text-anchor="middle" x="80" y="-1474.66" font-family="Helvetica,sans-Serif" font-size="10.00">::adl_get</text>
</a>
</g>
</g>
<!-- Node1 -->
<g id="Node000001" class="node">
<title>Node1</title>
<g id="a_Node000001"><a xlink:href="structproxsuite_1_1linalg_1_1veg_1_1__detail_1_1__meta_1_1has__adl__get.html" target="_top" xlink:title=" ">
<polygon fill="white" stroke="#666666" points="365.38,-1513.66 247.38,-1513.66 247.38,-1467.41 365.38,-1467.41 365.38,-1513.66"/>
<text text-anchor="start" x="255.38" y="-1500.16" font-family="Helvetica,sans-Serif" font-size="10.00">proxsuite::linalg::</text>
<text text-anchor="start" x="255.38" y="-1487.41" font-family="Helvetica,sans-Serif" font-size="10.00">veg::_detail::_meta</text>
<text text-anchor="middle" x="306.38" y="-1474.66" font-family="Helvetica,sans-Serif" font-size="10.00">::has_adl_get&lt; I, T &gt;</text>
</a>
</g>
</g>
<!-- Node0&#45;&gt;Node1 -->
<g id="edge34_Node000000_Node000001" class="edge">
<title>Node0&#45;&gt;Node1</title>
<g id="a_edge34_Node000000_Node000001"><a xlink:title=" ">
<path fill="none" stroke="#63b8ff" d="M146.75,-1490.53C178.58,-1490.53 216.47,-1490.53 247.24,-1490.53"/>
<polygon fill="#63b8ff" stroke="#63b8ff" points="146.83,-1487.03 136.83,-1490.53 146.83,-1494.03 146.83,-1487.03"/>
</a>
</g>
</g>
<!-- Node15 -->
<g id="Node000015" class="node">
<title>Node15</title>
<g id="a_Node000015"><a xlink:href="structproxsuite_1_1linalg_1_1veg_1_1__detail_1_1__vector_1_1adl_1_1AdlBase.html" target="_top" xlink:title=" ">
<polygon fill="white" stroke="#666666" points="137.5,-615.66 22.5,-615.66 22.5,-569.41 137.5,-569.41 137.5,-615.66"/>
<text text-anchor="start" x="30.5" y="-602.16" font-family="Helvetica,sans-Serif" font-size="10.00">proxsuite::linalg::</text>
<text text-anchor="start" x="30.5" y="-589.41" font-family="Helvetica,sans-Serif" font-size="10.00">veg::_detail::_vector</text>
<text text-anchor="middle" x="80" y="-576.66" font-family="Helvetica,sans-Serif" font-size="10.00">::adl::AdlBase</text>
</a>
</g>
</g>
<!-- Node14 -->
<g id="Node000014" class="node">
<title>Node14</title>
<g id="a_Node000014"><a xlink:href="structproxsuite_1_1linalg_1_1veg_1_1Vec.html" target="_top" xlink:title=" ">
<polygon fill="white" stroke="#666666" points="416.75,-592.16 196,-592.16 196,-494.91 416.75,-494.91 416.75,-592.16"/>
<text text-anchor="start" x="204" y="-578.66" font-family="Helvetica,sans-Serif" font-size="10.00">proxsuite::linalg::</text>
<text text-anchor="start" x="204" y="-565.91" font-family="Helvetica,sans-Serif" font-size="10.00">veg::Vec&lt; T, proxsuite</text>
<text text-anchor="start" x="204" y="-553.16" font-family="Helvetica,sans-Serif" font-size="10.00">::linalg::veg::meta::if</text>
<text text-anchor="start" x="204" y="-540.41" font-family="Helvetica,sans-Serif" font-size="10.00">_t&lt; _detail::should_vectorize</text>
<text text-anchor="start" x="204" y="-527.66" font-family="Helvetica,sans-Serif" font-size="10.00">&lt; T &gt;::value, _detail::SimdAlignedSystem</text>
<text text-anchor="start" x="204" y="-514.91" font-family="Helvetica,sans-Serif" font-size="10.00">Alloc, proxsuite::linalg::veg::mem</text>
<text text-anchor="middle" x="306.38" y="-502.16" font-family="Helvetica,sans-Serif" font-size="10.00">::SystemAlloc &gt; &gt;</text>
</a>
</g>
</g>
<!-- Node15&#45;&gt;Node14 -->
<g id="edge35_Node000015_Node000014" class="edge">
<title>Node15&#45;&gt;Node14</title>
<g id="a_edge35_Node000015_Node000014"><a xlink:title=" ">
<path fill="none" stroke="#8b1a1a" d="M148.95,-577.69C163.72,-574.47 179.72,-570.97 195.65,-567.49"/>
<polygon fill="#8b1a1a" stroke="#8b1a1a" points="148.41,-574.23 139.39,-579.78 149.9,-581.07 148.41,-574.23"/>
</a>
</g>
</g>
<!-- Node16 -->
<g id="Node000016" class="node">
<title>Node16</title>
<g id="a_Node000016"><a xlink:href="structproxsuite_1_1linalg_1_1veg_1_1Vec.html" target="_top" xlink:title=" ">
<polygon fill="white" stroke="#666666" points="357.5,-477.28 255.25,-477.28 255.25,-443.78 357.5,-443.78 357.5,-477.28"/>
<text text-anchor="start" x="263.25" y="-463.78" font-family="Helvetica,sans-Serif" font-size="10.00">proxsuite::linalg::</text>
<text text-anchor="middle" x="306.38" y="-451.03" font-family="Helvetica,sans-Serif" font-size="10.00">veg::Vec&lt; isize &gt;</text>
</a>
</g>
</g>
<!-- Node15&#45;&gt;Node16 -->
<g id="edge36_Node000015_Node000016" class="edge">
<title>Node15&#45;&gt;Node16</title>
<g id="a_edge36_Node000015_Node000016"><a xlink:title=" ">
<path fill="none" stroke="#8b1a1a" d="M147.65,-570.01C152.08,-567.19 156.26,-564.04 160,-560.53 186.95,-535.22 167.11,-508.61 196,-485.53 212.59,-472.28 234.88,-465.78 255.01,-462.69"/>
<polygon fill="#8b1a1a" stroke="#8b1a1a" points="145.94,-566.96 138.95,-574.93 149.38,-573.06 145.94,-566.96"/>
</a>
</g>
</g>
<!-- Node18 -->
<g id="Node000018" class="node">
<title>Node18</title>
<g id="a_Node000018"><a xlink:href="structproxsuite_1_1linalg_1_1veg_1_1Vec.html" target="_top" xlink:title=" ">
<polygon fill="white" stroke="#666666" points="356.75,-425.28 256,-425.28 256,-391.78 356.75,-391.78 356.75,-425.28"/>
<text text-anchor="start" x="264" y="-411.78" font-family="Helvetica,sans-Serif" font-size="10.00">proxsuite::linalg::</text>
<text text-anchor="middle" x="306.38" y="-399.03" font-family="Helvetica,sans-Serif" font-size="10.00">veg::Vec&lt; bool &gt;</text>
</a>
</g>
</g>
<!-- Node15&#45;&gt;Node18 -->
<g id="edge37_Node000015_Node000018" class="edge">
<title>Node15&#45;&gt;Node18</title>
<g id="a_edge37_Node000015_Node000018"><a xlink:title=" ">
<path fill="none" stroke="#8b1a1a" d="M147.56,-571.24C152.13,-568.13 156.36,-564.58 160,-560.53 198.93,-517.21 153.9,-474.78 196,-434.53 211.87,-419.36 234.92,-412.5 255.76,-409.58"/>
<polygon fill="#8b1a1a" stroke="#8b1a1a" points="145.92,-568.14 139.08,-576.24 149.47,-574.17 145.92,-568.14"/>
</a>
</g>
</g>
<!-- Node19 -->
<g id="Node000019" class="node">
<title>Node19</title>
<g id="a_Node000019"><a xlink:href="structproxsuite_1_1linalg_1_1veg_1_1Vec.html" target="_top" xlink:title=" ">
<polygon fill="white" stroke="#666666" points="380.38,-373.28 232.38,-373.28 232.38,-339.78 380.38,-339.78 380.38,-373.28"/>
<text text-anchor="start" x="240.38" y="-359.78" font-family="Helvetica,sans-Serif" font-size="10.00">proxsuite::linalg::</text>
<text text-anchor="middle" x="306.38" y="-347.03" font-family="Helvetica,sans-Serif" font-size="10.00">veg::Vec&lt; unsigned char &gt;</text>
</a>
</g>
</g>
<!-- Node15&#45;&gt;Node19 -->
<g id="edge38_Node000015_Node000019" class="edge">
<title>Node15&#45;&gt;Node19</title>
<g id="a_edge38_Node000015_Node000019"><a xlink:title=" ">
<path fill="none" stroke="#8b1a1a" d="M147.7,-571.7C152.28,-568.49 156.46,-564.79 160,-560.53 211.55,-498.42 139.9,-440.56 196,-382.53 205.7,-372.5 218.51,-366.04 231.94,-361.94"/>
<polygon fill="#8b1a1a" stroke="#8b1a1a" points="145.91,-568.69 139.15,-576.84 149.52,-574.69 145.91,-568.69"/>
</a>
</g>
</g>
<!-- Node20 -->
<g id="Node000020" class="node">
<title>Node20</title>
<g id="a_Node000020"><a xlink:href="structproxsuite_1_1linalg_1_1veg_1_1Vec.html" target="_top" xlink:title=" ">
<polygon fill="white" stroke="#666666" points="356.75,-772.28 256,-772.28 256,-738.78 356.75,-738.78 356.75,-772.28"/>
<text text-anchor="start" x="264" y="-758.78" font-family="Helvetica,sans-Serif" font-size="10.00">proxsuite::linalg::</text>
<text text-anchor="middle" x="306.38" y="-746.03" font-family="Helvetica,sans-Serif" font-size="10.00">veg::Vec&lt; I &gt;</text>
</a>
</g>
</g>
<!-- Node15&#45;&gt;Node20 -->
<g id="edge39_Node000015_Node000020" class="edge">
<title>Node15&#45;&gt;Node20</title>
<g id="a_edge39_Node000015_Node000020"><a xlink:title=" ">
<path fill="none" stroke="#8b1a1a" d="M99.99,-625.58C119.88,-657.14 154.03,-703.63 196,-729.53 213.86,-740.55 236,-746.9 255.69,-750.56"/>
<polygon fill="#8b1a1a" stroke="#8b1a1a" points="103.06,-623.87 94.84,-617.19 97.09,-627.54 103.06,-623.87"/>
</a>
</g>
</g>
<!-- Node21 -->
<g id="Node000021" class="node">
<title>Node21</title>
<g id="a_Node000021"><a xlink:href="structproxsuite_1_1linalg_1_1veg_1_1Vec.html" target="_top" xlink:title=" ">
<polygon fill="white" stroke="#666666" points="378.12,-720.66 234.62,-720.66 234.62,-674.41 378.12,-674.41 378.12,-720.66"/>
<text text-anchor="start" x="242.62" y="-707.16" font-family="Helvetica,sans-Serif" font-size="10.00">proxsuite::linalg::</text>
<text text-anchor="start" x="242.62" y="-694.41" font-family="Helvetica,sans-Serif" font-size="10.00">veg::Vec&lt; proxsuite</text>
<text text-anchor="middle" x="306.38" y="-681.66" font-family="Helvetica,sans-Serif" font-size="10.00">::linalg::veg::mem::byte &gt;</text>
</a>
</g>
</g>
<!-- Node15&#45;&gt;Node21 -->
<g id="edge40_Node000015_Node000021" class="edge">
<title>Node15&#45;&gt;Node21</title>
<g id="a_edge40_Node000015_Node000021"><a xlink:title=" ">
<path fill="none" stroke="#8b1a1a" d="M121.71,-622.34C143.02,-636.9 170.03,-653.77 196,-665.53 208.08,-671 221.32,-675.8 234.3,-679.9"/>
<polygon fill="#8b1a1a" stroke="#8b1a1a" points="123.8,-619.53 113.59,-616.71 119.8,-625.28 123.8,-619.53"/>
</a>
</g>
</g>
<!-- Node22 -->
<g id="Node000022" class="node">
<title>Node22</title>
<g id="a_Node000022"><a xlink:href="structproxsuite_1_1linalg_1_1veg_1_1Vec.html" target="_top" xlink:title=" ">
<polygon fill="white" stroke="#666666" points="365,-656.66 247.75,-656.66 247.75,-610.41 365,-610.41 365,-656.66"/>
<text text-anchor="start" x="255.75" y="-643.16" font-family="Helvetica,sans-Serif" font-size="10.00">proxsuite::linalg::</text>
<text text-anchor="start" x="255.75" y="-630.41" font-family="Helvetica,sans-Serif" font-size="10.00">veg::Vec&lt; T, A, Dtor,</text>
<text text-anchor="middle" x="306.38" y="-617.66" font-family="Helvetica,sans-Serif" font-size="10.00"> Copy &gt;</text>
</a>
</g>
</g>
<!-- Node15&#45;&gt;Node22 -->
<g id="edge41_Node000015_Node000022" class="edge">
<title>Node15&#45;&gt;Node22</title>
<g id="a_edge41_Node000015_Node000022"><a xlink:title=" ">
<path fill="none" stroke="#8b1a1a" d="M149.19,-604.99C180.55,-610.72 217.35,-617.45 247.35,-622.93"/>
<polygon fill="#8b1a1a" stroke="#8b1a1a" points="149.86,-601.56 139.4,-603.2 148.61,-608.44 149.86,-601.56"/>
</a>
</g>
</g>
<!-- Node9 -->
<g id="Node000009" class="node">
<title>Node9</title>
<g id="a_Node000009"><a xlink:href="structproxsuite_1_1linalg_1_1veg_1_1__detail_1_1__meta_1_1array__get.html" target="_top" xlink:title=" ">
<polygon fill="white" stroke="#666666" points="134.88,-1449.66 25.13,-1449.66 25.13,-1403.41 134.88,-1403.41 134.88,-1449.66"/>
<text text-anchor="start" x="33.12" y="-1436.16" font-family="Helvetica,sans-Serif" font-size="10.00">proxsuite::linalg::</text>
<text text-anchor="start" x="33.12" y="-1423.41" font-family="Helvetica,sans-Serif" font-size="10.00">veg::_detail::_meta</text>
<text text-anchor="middle" x="80" y="-1410.66" font-family="Helvetica,sans-Serif" font-size="10.00">::array_get</text>
</a>
</g>
</g>
<!-- Node8 -->
<g id="Node000008" class="node">
<title>Node8</title>
<g id="a_Node000008"><a xlink:href="structproxsuite_1_1linalg_1_1veg_1_1__detail_1_1__meta_1_1has__array__get.html" target="_top" xlink:title=" ">
<polygon fill="white" stroke="#666666" points="370.62,-1449.66 242.12,-1449.66 242.12,-1403.41 370.62,-1403.41 370.62,-1449.66"/>
<text text-anchor="start" x="250.12" y="-1436.16" font-family="Helvetica,sans-Serif" font-size="10.00">proxsuite::linalg::</text>
<text text-anchor="start" x="250.12" y="-1423.41" font-family="Helvetica,sans-Serif" font-size="10.00">veg::_detail::_meta</text>
<text text-anchor="middle" x="306.38" y="-1410.66" font-family="Helvetica,sans-Serif" font-size="10.00">::has_array_get&lt; I, T &gt;</text>
</a>
</g>
</g>
<!-- Node9&#45;&gt;Node8 -->
<g id="edge42_Node000009_Node000008" class="edge">
<title>Node9&#45;&gt;Node8</title>
<g id="a_edge42_Node000009_Node000008"><a xlink:title=" ">
<path fill="none" stroke="#63b8ff" d="M146.56,-1426.53C176.65,-1426.53 212.19,-1426.53 242.02,-1426.53"/>
<polygon fill="#63b8ff" stroke="#63b8ff" points="146.83,-1423.03 136.83,-1426.53 146.83,-1430.03 146.83,-1423.03"/>
</a>
</g>
</g>
<!-- Node2 -->
<g id="Node000002" class="node">
<title>Node2</title>
<g id="a_Node000002"><a xlink:href="structproxsuite_1_1linalg_1_1veg_1_1meta_1_1constant.html" target="_top" xlink:title=" ">
<polygon fill="white" stroke="#666666" points="136.75,-1264.66 23.25,-1264.66 23.25,-1218.41 136.75,-1218.41 136.75,-1264.66"/>
<text text-anchor="start" x="31.25" y="-1251.16" font-family="Helvetica,sans-Serif" font-size="10.00">proxsuite::linalg::</text>
<text text-anchor="start" x="31.25" y="-1238.41" font-family="Helvetica,sans-Serif" font-size="10.00">veg::meta::constant</text>
<text text-anchor="middle" x="80" y="-1225.66" font-family="Helvetica,sans-Serif" font-size="10.00">&lt; bool, B &gt;</text>
</a>
</g>
</g>
<!-- Node2&#45;&gt;Node1 -->
<g id="edge46_Node000002_Node000001" class="edge">
<title>Node2&#45;&gt;Node1</title>
<g id="a_edge46_Node000002_Node000001"><a xlink:title=" ">
<path fill="none" stroke="#63b8ff" d="M115.12,-1272.78C130.76,-1288.72 148.36,-1309.22 160,-1330.53 188.34,-1382.39 154.43,-1416.53 196,-1458.53 209.57,-1472.24 228.67,-1480.15 247.11,-1484.69"/>
<polygon fill="#63b8ff" stroke="#63b8ff" points="117.8,-1270.51 108.24,-1265.95 112.87,-1275.48 117.8,-1270.51"/>
</a>
</g>
</g>
<!-- Node2&#45;&gt;Node8 -->
<g id="edge47_Node000002_Node000008" class="edge">
<title>Node2&#45;&gt;Node8</title>
<g id="a_edge47_Node000002_Node000008"><a xlink:title=" ">
<path fill="none" stroke="#63b8ff" d="M111.99,-1273.07C127.33,-1289.5 145.6,-1310.33 160,-1330.53 178.94,-1357.11 170.45,-1374.23 196,-1394.53 209.17,-1404.99 225.65,-1412.04 241.79,-1416.78"/>
<polygon fill="#63b8ff" stroke="#63b8ff" points="114.72,-1270.87 105.31,-1266.01 109.64,-1275.68 114.72,-1270.87"/>
</a>
</g>
</g>
<!-- Node3 -->
<g id="Node000003" class="node">
<title>Node3</title>
<g id="a_Node000003"><a xlink:href="structproxsuite_1_1linalg_1_1veg_1_1__detail_1_1__cpo_1_1member__trait__and_3_01Trait_00_01Simplc5b492ef828350d9630bf5ebc812c047.html" target="_top" xlink:title=" ">
<polygon fill="white" stroke="#666666" points="388.25,-1283.78 224.5,-1283.78 224.5,-1199.28 388.25,-1199.28 388.25,-1283.78"/>
<text text-anchor="start" x="232.5" y="-1270.28" font-family="Helvetica,sans-Serif" font-size="10.00">proxsuite::linalg::</text>
<text text-anchor="start" x="232.5" y="-1257.53" font-family="Helvetica,sans-Serif" font-size="10.00">veg::_detail::_cpo::</text>
<text text-anchor="start" x="232.5" y="-1244.78" font-family="Helvetica,sans-Serif" font-size="10.00">member_trait_and&lt; Trait,</text>
<text text-anchor="start" x="232.5" y="-1232.03" font-family="Helvetica,sans-Serif" font-size="10.00"> SimpleITuple&lt; _meta::integer</text>
<text text-anchor="start" x="232.5" y="-1219.28" font-family="Helvetica,sans-Serif" font-size="10.00">_sequence&lt; usize, Is... &gt;,</text>
<text text-anchor="middle" x="306.38" y="-1206.53" font-family="Helvetica,sans-Serif" font-size="10.00"> Ts Bases::*... &gt; &gt;</text>
</a>
</g>
</g>
<!-- Node2&#45;&gt;Node3 -->
<g id="edge43_Node000002_Node000003" class="edge">
<title>Node2&#45;&gt;Node3</title>
<g id="a_edge43_Node000002_Node000003"><a xlink:title=" ">
<path fill="none" stroke="#63b8ff" d="M148.46,-1241.53C172.31,-1241.53 199.38,-1241.53 224.24,-1241.53"/>
<polygon fill="#63b8ff" stroke="#63b8ff" points="148.55,-1238.03 138.55,-1241.53 148.55,-1245.03 148.55,-1238.03"/>
</a>
</g>
</g>
<!-- Node4 -->
<g id="Node000004" class="node">
<title>Node4</title>
<g id="a_Node000004"><a xlink:href="structproxsuite_1_1linalg_1_1veg_1_1__detail_1_1__mem_1_1has__adl__addr.html" target="_top" xlink:title=" ">
<polygon fill="white" stroke="#666666" points="589.12,-1487.66 473.38,-1487.66 473.38,-1441.41 589.12,-1441.41 589.12,-1487.66"/>
<text text-anchor="start" x="481.38" y="-1474.16" font-family="Helvetica,sans-Serif" font-size="10.00">proxsuite::linalg::</text>
<text text-anchor="start" x="481.38" y="-1461.41" font-family="Helvetica,sans-Serif" font-size="10.00">veg::_detail::_mem::</text>
<text text-anchor="middle" x="531.25" y="-1448.66" font-family="Helvetica,sans-Serif" font-size="10.00">has_adl_addr&lt; T &gt;</text>
</a>
</g>
</g>
<!-- Node2&#45;&gt;Node4 -->
<g id="edge44_Node000002_Node000004" class="edge">
<title>Node2&#45;&gt;Node4</title>
<g id="a_edge44_Node000002_Node000004"><a xlink:title=" ">
<path fill="none" stroke="#63b8ff" d="M137.23,-1269.79C155.6,-1278.12 176.34,-1286.58 196,-1292.53 291.28,-1321.37 330.32,-1281.13 416.75,-1330.53 463.2,-1357.08 499.31,-1410.21 517.42,-1440.99"/>
<polygon fill="#63b8ff" stroke="#63b8ff" points="138.92,-1266.72 128.38,-1265.7 135.98,-1273.07 138.92,-1266.72"/>
</a>
</g>
</g>
<!-- Node7 -->
<g id="Node000007" class="node">
<title>Node7</title>
<g id="a_Node000007"><a xlink:href="structproxsuite_1_1linalg_1_1veg_1_1__detail_1_1__mem_1_1has__member__addr.html" target="_top" xlink:title=" ">
<polygon fill="white" stroke="#666666" points="374,-1577.66 238.75,-1577.66 238.75,-1531.41 374,-1531.41 374,-1577.66"/>
<text text-anchor="start" x="246.75" y="-1564.16" font-family="Helvetica,sans-Serif" font-size="10.00">proxsuite::linalg::</text>
<text text-anchor="start" x="246.75" y="-1551.41" font-family="Helvetica,sans-Serif" font-size="10.00">veg::_detail::_mem::</text>
<text text-anchor="middle" x="306.38" y="-1538.66" font-family="Helvetica,sans-Serif" font-size="10.00">has_member_addr&lt; T &gt;</text>
</a>
</g>
</g>
<!-- Node2&#45;&gt;Node7 -->
<g id="edge45_Node000002_Node000007" class="edge">
<title>Node2&#45;&gt;Node7</title>
<g id="a_edge45_Node000002_Node000007"><a xlink:title=" ">
<path fill="none" stroke="#63b8ff" d="M116.31,-1272.69C132.05,-1288.49 149.39,-1308.89 160,-1330.53 198.2,-1408.49 137.73,-1458.17 196,-1522.53 207.09,-1534.78 222.58,-1542.44 238.42,-1547.21"/>
<polygon fill="#63b8ff" stroke="#63b8ff" points="118.96,-1270.39 109.35,-1265.92 114.08,-1275.41 118.96,-1270.39"/>
</a>
</g>
</g>
<!-- Node10 -->
<g id="Node000010" class="node">
<title>Node10</title>
<g id="a_Node000010"><a xlink:href="structproxsuite_1_1linalg_1_1veg_1_1__detail_1_1__meta_1_1has__member__get.html" target="_top" xlink:title=" ">
<polygon fill="white" stroke="#666666" points="378.5,-1385.66 234.25,-1385.66 234.25,-1339.41 378.5,-1339.41 378.5,-1385.66"/>
<text text-anchor="start" x="242.25" y="-1372.16" font-family="Helvetica,sans-Serif" font-size="10.00">proxsuite::linalg::</text>
<text text-anchor="start" x="242.25" y="-1359.41" font-family="Helvetica,sans-Serif" font-size="10.00">veg::_detail::_meta</text>
<text text-anchor="middle" x="306.38" y="-1346.66" font-family="Helvetica,sans-Serif" font-size="10.00">::has_member_get&lt; I, T &gt;</text>
</a>
</g>
</g>
<!-- Node2&#45;&gt;Node10 -->
<g id="edge48_Node000002_Node000010" class="edge">
<title>Node2&#45;&gt;Node10</title>
<g id="a_edge48_Node000002_Node000010"><a xlink:title=" ">
<path fill="none" stroke="#63b8ff" d="M117.11,-1272.35C138.88,-1289.75 167.77,-1310.89 196,-1325.53 207.83,-1331.67 220.9,-1337.12 233.76,-1341.81"/>
<polygon fill="#63b8ff" stroke="#63b8ff" points="119.39,-1269.69 109.42,-1266.1 114.98,-1275.12 119.39,-1269.69"/>
</a>
</g>
</g>
<!-- Node12 -->
<g id="Node000012" class="node">
<title>Node12</title>
<g id="a_Node000012"><a xlink:href="structproxsuite_1_1linalg_1_1veg_1_1cpo_1_1is__trivially__constructible_3_01Slice_3_01T_01_4_01_4.html" target="_top" xlink:title=" ">
<polygon fill="white" stroke="#666666" points="365.75,-1015.03 247,-1015.03 247,-956.03 365.75,-956.03 365.75,-1015.03"/>
<text text-anchor="start" x="255" y="-1001.53" font-family="Helvetica,sans-Serif" font-size="10.00">proxsuite::linalg::</text>
<text text-anchor="start" x="255" y="-988.78" font-family="Helvetica,sans-Serif" font-size="10.00">veg::cpo::is_trivially</text>
<text text-anchor="start" x="255" y="-976.03" font-family="Helvetica,sans-Serif" font-size="10.00">_constructible&lt; Slice</text>
<text text-anchor="middle" x="306.38" y="-963.28" font-family="Helvetica,sans-Serif" font-size="10.00">&lt; T &gt; &gt;</text>
</a>
</g>
</g>
<!-- Node2&#45;&gt;Node12 -->
<g id="edge49_Node000002_Node000012" class="edge">
<title>Node2&#45;&gt;Node12</title>
<g id="a_edge49_Node000002_Node000012"><a xlink:title=" ">
<path fill="none" stroke="#63b8ff" d="M90.58,-1207.07C105.48,-1159.54 138.65,-1074.13 196,-1024.53 210.33,-1012.14 228.89,-1003.58 246.63,-997.73"/>
<polygon fill="#63b8ff" stroke="#63b8ff" points="87.25,-1205.98 87.7,-1216.56 93.95,-1208.01 87.25,-1205.98"/>
</a>
</g>
</g>
<!-- Node25 -->
<g id="Node000025" class="node">
<title>Node25</title>
<g id="a_Node000025"><a xlink:href="structproxsuite_1_1linalg_1_1veg_1_1cpo_1_1is__trivially__constructible_3_01tuple_1_1IndexedTupl14a1f264569e7350f37ed76ce13be4f5.html" target="_top" xlink:title=" ">
<polygon fill="white" stroke="#666666" points="384.12,-938.41 228.62,-938.41 228.62,-866.66 384.12,-866.66 384.12,-938.41"/>
<text text-anchor="start" x="236.62" y="-924.91" font-family="Helvetica,sans-Serif" font-size="10.00">proxsuite::linalg::</text>
<text text-anchor="start" x="236.62" y="-912.16" font-family="Helvetica,sans-Serif" font-size="10.00">veg::cpo::is_trivially</text>
<text text-anchor="start" x="236.62" y="-899.41" font-family="Helvetica,sans-Serif" font-size="10.00">_constructible&lt; tuple</text>
<text text-anchor="start" x="236.62" y="-886.66" font-family="Helvetica,sans-Serif" font-size="10.00">::IndexedTuple&lt; meta::index</text>
<text text-anchor="middle" x="306.38" y="-873.91" font-family="Helvetica,sans-Serif" font-size="10.00">_sequence&lt; Is... &gt;, Ts... &gt; &gt;</text>
</a>
</g>
</g>
<!-- Node2&#45;&gt;Node25 -->
<g id="edge50_Node000002_Node000025" class="edge">
<title>Node2&#45;&gt;Node25</title>
<g id="a_edge50_Node000002_Node000025"><a xlink:title=" ">
<path fill="none" stroke="#63b8ff" d="M85.6,-1206.75C95.34,-1146.33 123.43,-1021.38 196,-947.53 205.14,-938.23 216.47,-930.78 228.35,-924.82"/>
<polygon fill="#63b8ff" stroke="#63b8ff" points="82.17,-1206.03 84.12,-1216.44 89.09,-1207.09 82.17,-1206.03"/>
</a>
</g>
</g>
<!-- Node26 -->
<g id="Node000026" class="node">
<title>Node26</title>
<g id="a_Node000026"><a xlink:href="structproxsuite_1_1linalg_1_1veg_1_1cpo_1_1is__trivially__constructible_3_01tuple_1_1Tuple_3_01Ts_8_8_8_01_4_01_4.html" target="_top" xlink:title=" ">
<polygon fill="white" stroke="#666666" points="366.5,-849.03 246.25,-849.03 246.25,-790.03 366.5,-790.03 366.5,-849.03"/>
<text text-anchor="start" x="254.25" y="-835.53" font-family="Helvetica,sans-Serif" font-size="10.00">proxsuite::linalg::</text>
<text text-anchor="start" x="254.25" y="-822.78" font-family="Helvetica,sans-Serif" font-size="10.00">veg::cpo::is_trivially</text>
<text text-anchor="start" x="254.25" y="-810.03" font-family="Helvetica,sans-Serif" font-size="10.00">_constructible&lt; tuple</text>
<text text-anchor="middle" x="306.38" y="-797.28" font-family="Helvetica,sans-Serif" font-size="10.00">::Tuple&lt; Ts... &gt; &gt;</text>
</a>
</g>
</g>
<!-- Node2&#45;&gt;Node26 -->
<g id="edge51_Node000002_Node000026" class="edge">
<title>Node2&#45;&gt;Node26</title>
<g id="a_edge51_Node000002_Node000026"><a xlink:title=" ">
<path fill="none" stroke="#63b8ff" d="M81.36,-1206.63C84.03,-1132.3 100.71,-957.05 196,-857.53 209.28,-843.66 227.87,-834.86 245.96,-829.26"/>
<polygon fill="#63b8ff" stroke="#63b8ff" points="77.86,-1206.47 81.08,-1216.56 84.86,-1206.67 77.86,-1206.47"/>
</a>
</g>
</g>
<!-- Node29 -->
<g id="Node000029" class="node">
<title>Node29</title>
<g id="a_Node000029"><a xlink:href="structproxsuite_1_1linalg_1_1veg_1_1cpo_1_1is__trivially__relocatable_3_01tuple_1_1IndexedTuple_1a5f170446885fa944e8403df425058d.html" target="_top" xlink:title=" ">
<polygon fill="white" stroke="#666666" points="387.88,-1181.41 224.88,-1181.41 224.88,-1109.66 387.88,-1109.66 387.88,-1181.41"/>
<text text-anchor="start" x="232.88" y="-1167.91" font-family="Helvetica,sans-Serif" font-size="10.00">proxsuite::linalg::</text>
<text text-anchor="start" x="232.88" y="-1155.16" font-family="Helvetica,sans-Serif" font-size="10.00">veg::cpo::is_trivially</text>
<text text-anchor="start" x="232.88" y="-1142.41" font-family="Helvetica,sans-Serif" font-size="10.00">_relocatable&lt; tuple::Indexed</text>
<text text-anchor="start" x="232.88" y="-1129.66" font-family="Helvetica,sans-Serif" font-size="10.00">Tuple&lt; meta::index_sequence</text>
<text text-anchor="middle" x="306.38" y="-1116.91" font-family="Helvetica,sans-Serif" font-size="10.00">&lt; Is... &gt;, Ts... &gt; &gt;</text>
</a>
</g>
</g>
<!-- Node2&#45;&gt;Node29 -->
<g id="edge52_Node000002_Node000029" class="edge">
<title>Node2&#45;&gt;Node29</title>
<g id="a_edge52_Node000002_Node000029"><a xlink:title=" ">
<path fill="none" stroke="#63b8ff" d="M143.6,-1213.4C160.57,-1205.88 178.95,-1197.82 196,-1190.53 205.25,-1186.58 214.97,-1182.49 224.63,-1178.46"/>
<polygon fill="#63b8ff" stroke="#63b8ff" points="142.35,-1210.13 134.63,-1217.39 145.19,-1216.52 142.35,-1210.13"/>
</a>
</g>
</g>
<!-- Node30 -->
<g id="Node000030" class="node">
<title>Node30</title>
<g id="a_Node000030"><a xlink:href="structproxsuite_1_1linalg_1_1veg_1_1cpo_1_1is__trivially__relocatable_3_01tuple_1_1Tuple_3_01Ts_8_8_8_01_4_01_4.html" target="_top" xlink:title=" ">
<polygon fill="white" stroke="#666666" points="378.12,-1092.03 234.62,-1092.03 234.62,-1033.03 378.12,-1033.03 378.12,-1092.03"/>
<text text-anchor="start" x="242.62" y="-1078.53" font-family="Helvetica,sans-Serif" font-size="10.00">proxsuite::linalg::</text>
<text text-anchor="start" x="242.62" y="-1065.78" font-family="Helvetica,sans-Serif" font-size="10.00">veg::cpo::is_trivially</text>
<text text-anchor="start" x="242.62" y="-1053.03" font-family="Helvetica,sans-Serif" font-size="10.00">_relocatable&lt; tuple::Tuple</text>
<text text-anchor="middle" x="306.38" y="-1040.28" font-family="Helvetica,sans-Serif" font-size="10.00">&lt; Ts... &gt; &gt;</text>
</a>
</g>
</g>
<!-- Node2&#45;&gt;Node30 -->
<g id="edge53_Node000002_Node000030" class="edge">
<title>Node2&#45;&gt;Node30</title>
<g id="a_edge53_Node000002_Node000030"><a xlink:title=" ">
<path fill="none" stroke="#63b8ff" d="M100.37,-1208.43C120.53,-1176.63 154.9,-1129.29 196,-1100.53 207.53,-1092.46 220.93,-1085.97 234.32,-1080.79"/>
<polygon fill="#63b8ff" stroke="#63b8ff" points="97.42,-1206.54 95.12,-1216.88 103.37,-1210.23 97.42,-1206.54"/>
</a>
</g>
</g>
<!-- Node13 -->
<g id="Node000013" class="node">
<title>Node13</title>
<g id="a_Node000013"><a xlink:title=" ">
<polygon fill="#e0e0e0" stroke="#999999" points="111.62,-478.91 48.38,-478.91 48.38,-458.16 111.62,-458.16 111.62,-478.91"/>
<text text-anchor="middle" x="80" y="-465.41" font-family="Helvetica,sans-Serif" font-size="10.00">meta::if_t</text>
</a>
</g>
</g>
<!-- Node13&#45;&gt;Node14 -->
<g id="edge54_Node000013_Node000014" class="edge">
<title>Node13&#45;&gt;Node14</title>
<g id="a_edge54_Node000013_Node000014"><a xlink:title=" ">
<path fill="none" stroke="#8b1a1a" d="M122.39,-482.37C143.22,-489.33 169.56,-498.13 195.72,-506.88"/>
<polygon fill="#8b1a1a" stroke="#8b1a1a" points="123.76,-479.13 113.16,-479.28 121.54,-485.77 123.76,-479.13"/>
</a>
</g>
</g>
<!-- Node13&#45;&gt;Node16 -->
<g id="edge55_Node000013_Node000016" class="edge">
<title>Node13&#45;&gt;Node16</title>
<g id="a_edge55_Node000013_Node000016"><a xlink:title=" ">
<path fill="none" stroke="#8b1a1a" d="M123.21,-467.03C160.56,-465.69 215.15,-463.75 254.82,-462.33"/>
<polygon fill="#8b1a1a" stroke="#8b1a1a" points="123.11,-463.53 113.24,-467.38 123.36,-470.52 123.11,-463.53"/>
</a>
</g>
</g>
<!-- Node13&#45;&gt;Node18 -->
<g id="edge56_Node000013_Node000018" class="edge">
<title>Node13&#45;&gt;Node18</title>
<g id="a_edge56_Node000013_Node000018"><a xlink:title=" ">
<path fill="none" stroke="#8b1a1a" d="M122.95,-455.54C144.67,-448.96 171.67,-441.01 196,-434.53 215.43,-429.35 236.93,-424.13 255.69,-419.74"/>
<polygon fill="#8b1a1a" stroke="#8b1a1a" points="122.1,-452.13 113.56,-458.4 124.14,-458.83 122.1,-452.13"/>
</a>
</g>
</g>
<!-- Node13&#45;&gt;Node19 -->
<g id="edge57_Node000013_Node000019" class="edge">
<title>Node13&#45;&gt;Node19</title>
<g id="a_edge57_Node000013_Node000019"><a xlink:title=" ">
<path fill="none" stroke="#8b1a1a" d="M100.34,-450.09C121.96,-430.47 158.86,-399.92 196,-382.53 207.23,-377.28 219.61,-373.03 231.89,-369.61"/>
<polygon fill="#8b1a1a" stroke="#8b1a1a" points="98.12,-447.37 93.16,-456.73 102.87,-452.51 98.12,-447.37"/>
</a>
</g>
</g>
<!-- Node13&#45;&gt;Node20 -->
<g id="edge58_Node000013_Node000020" class="edge">
<title>Node13&#45;&gt;Node20</title>
<g id="a_edge58_Node000013_Node000020"><a xlink:title=" ">
<path fill="none" stroke="#8b1a1a" d="M122.83,-474.54C136.57,-478.57 150.7,-485.3 160,-496.53 226.84,-577.23 124.93,-652.53 196,-729.53 211.09,-745.88 234.43,-752.83 255.68,-755.5"/>
<polygon fill="#8b1a1a" stroke="#8b1a1a" points="124,-471.23 113.45,-472.22 122.32,-478.02 124,-471.23"/>
</a>
</g>
</g>
<!-- Node13&#45;&gt;Node21 -->
<g id="edge59_Node000013_Node000021" class="edge">
<title>Node13&#45;&gt;Node21</title>
<g id="a_edge59_Node000013_Node000021"><a xlink:title=" ">
<path fill="none" stroke="#8b1a1a" d="M123.21,-475.06C136.69,-479.14 150.55,-485.76 160,-496.53 210.64,-554.27 143.76,-609.24 196,-665.53 206.23,-676.55 220.02,-683.85 234.36,-688.66"/>
<polygon fill="#8b1a1a" stroke="#8b1a1a" points="124.1,-471.67 113.54,-472.57 122.35,-478.45 124.1,-471.67"/>
</a>
</g>
</g>
<!-- Node13&#45;&gt;Node22 -->
<g id="edge71_Node000013_Node000022" class="edge">
<title>Node13&#45;&gt;Node22</title>
<g id="a_edge71_Node000013_Node000022"><a xlink:title=" ">
<path fill="none" stroke="#8b1a1a" d="M122.81,-475.82C136.14,-479.96 150,-486.43 160,-496.53 194.7,-531.59 160.33,-567.45 196,-601.53 209.88,-614.79 228.94,-622.59 247.27,-627.17"/>
<polygon fill="#8b1a1a" stroke="#8b1a1a" points="123.86,-472.48 113.3,-473.26 122.04,-479.24 123.86,-472.48"/>
</a>
</g>
</g>
<!-- Node13&#45;&gt;Node12 -->
<g id="edge62_Node000013_Node000012" class="edge">
<title>Node13&#45;&gt;Node12</title>
<g id="a_edge62_Node000013_Node000012"><a xlink:title=" ">
<path fill="none" stroke="#63b8ff" d="M122.97,-474.08C136.86,-478.06 151.05,-484.87 160,-496.53 221.24,-576.27 134.51,-867.98 196,-947.53 208.29,-963.44 227.67,-972.71 246.72,-978.11"/>
<polygon fill="#63b8ff" stroke="#63b8ff" points="124,-470.72 113.46,-471.8 122.38,-477.53 124,-470.72"/>
</a>
</g>
</g>
<!-- Node13&#45;&gt;Node25 -->
<g id="edge64_Node000013_Node000025" class="edge">
<title>Node13&#45;&gt;Node25</title>
<g id="a_edge64_Node000013_Node000025"><a xlink:title=" ">
<path fill="none" stroke="#63b8ff" d="M122.84,-474.17C136.73,-478.16 150.94,-484.96 160,-496.53 259.72,-623.8 98.96,-729.21 196,-858.53 204.29,-869.58 215.82,-877.86 228.29,-884.07"/>
<polygon fill="#63b8ff" stroke="#63b8ff" points="123.9,-470.83 113.36,-471.89 122.26,-477.63 123.9,-470.83"/>
</a>
</g>
</g>
<!-- Node13&#45;&gt;Node26 -->
<g id="edge65_Node000013_Node000026" class="edge">
<title>Node13&#45;&gt;Node26</title>
<g id="a_edge65_Node000013_Node000026"><a xlink:title=" ">
<path fill="none" stroke="#63b8ff" d="M122.68,-474.31C136.54,-478.31 150.78,-485.08 160,-496.53 240.07,-595.97 115.62,-682.34 196,-781.53 208.4,-796.84 227.34,-805.99 245.99,-811.46"/>
<polygon fill="#63b8ff" stroke="#63b8ff" points="123.75,-470.97 113.21,-472.01 122.1,-477.77 123.75,-470.97"/>
</a>
</g>
</g>
<!-- Node13&#45;&gt;Node29 -->
<g id="edge69_Node000013_Node000029" class="edge">
<title>Node13&#45;&gt;Node29</title>
<g id="a_edge69_Node000013_Node000029"><a xlink:title=" ">
<path fill="none" stroke="#63b8ff" d="M123.1,-473.98C137.01,-477.95 151.17,-484.78 160,-496.53 240.95,-604.17 117.32,-992.22 196,-1101.53 203.35,-1111.75 213.49,-1119.59 224.64,-1125.62"/>
<polygon fill="#63b8ff" stroke="#63b8ff" points="124.11,-470.62 113.58,-471.72 122.5,-477.43 124.11,-470.62"/>
</a>
</g>
</g>
<!-- Node13&#45;&gt;Node30 -->
<g id="edge70_Node000013_Node000030" class="edge">
<title>Node13&#45;&gt;Node30</title>
<g id="a_edge70_Node000013_Node000030"><a xlink:title=" ">
<path fill="none" stroke="#63b8ff" d="M123.04,-474.02C136.95,-478 151.12,-484.82 160,-496.53 231.09,-590.22 124.62,-931.07 196,-1024.53 205.58,-1037.07 219.57,-1045.49 234.36,-1051.15"/>
<polygon fill="#63b8ff" stroke="#63b8ff" points="124.07,-470.67 113.53,-471.75 122.45,-477.47 124.07,-470.67"/>
</a>
</g>
</g>
<!-- Node23 -->
<g id="Node000023" class="node">
<title>Node23</title>
<g id="a_Node000023"><a xlink:href="structproxsuite_1_1linalg_1_1veg_1_1cpo_1_1is__trivially__constructible.html" target="_top" xlink:title=" ">
<polygon fill="white" stroke="#666666" points="363.5,-91.66 249.25,-91.66 249.25,-45.41 363.5,-45.41 363.5,-91.66"/>
<text text-anchor="start" x="257.25" y="-78.16" font-family="Helvetica,sans-Serif" font-size="10.00">proxsuite::linalg::</text>
<text text-anchor="start" x="257.25" y="-65.41" font-family="Helvetica,sans-Serif" font-size="10.00">veg::cpo::is_trivially</text>
<text text-anchor="middle" x="306.38" y="-52.66" font-family="Helvetica,sans-Serif" font-size="10.00">_constructible&lt; A &gt;</text>
</a>
</g>
</g>
<!-- Node13&#45;&gt;Node23 -->
<g id="edge60_Node000013_Node000023" class="edge">
<title>Node13&#45;&gt;Node23</title>
<g id="a_edge60_Node000013_Node000023"><a xlink:title=" ">
<path fill="none" stroke="#63b8ff" d="M81.09,-446.72C82.57,-383.61 95.69,-199.03 196,-100.53 210.12,-86.67 229.89,-78.75 248.76,-74.26"/>
<polygon fill="#63b8ff" stroke="#63b8ff" points="77.59,-446.41 80.95,-456.46 84.59,-446.51 77.59,-446.41"/>
</a>
</g>
</g>
<!-- Node24 -->
<g id="Node000024" class="node">
<title>Node24</title>
<g id="a_Node000024"><a xlink:href="structproxsuite_1_1linalg_1_1veg_1_1cpo_1_1is__trivially__constructible_3_01Vec_3_01T_00_01A_01_4_01_4.html" target="_top" xlink:title=" ">
<polygon fill="white" stroke="#666666" points="597.75,-83.03 464.75,-83.03 464.75,-24.03 597.75,-24.03 597.75,-83.03"/>
<text text-anchor="start" x="472.75" y="-69.53" font-family="Helvetica,sans-Serif" font-size="10.00">proxsuite::linalg::</text>
<text text-anchor="start" x="472.75" y="-56.78" font-family="Helvetica,sans-Serif" font-size="10.00">veg::cpo::is_trivially</text>
<text text-anchor="start" x="472.75" y="-44.03" font-family="Helvetica,sans-Serif" font-size="10.00">_constructible&lt; Vec&lt; T,</text>
<text text-anchor="middle" x="531.25" y="-31.28" font-family="Helvetica,sans-Serif" font-size="10.00"> A &gt; &gt;</text>
</a>
</g>
</g>
<!-- Node13&#45;&gt;Node24 -->
<g id="edge63_Node000013_Node000024" class="edge">
<title>Node13&#45;&gt;Node24</title>
<g id="a_edge63_Node000013_Node000024"><a xlink:title=" ">
<path fill="none" stroke="#63b8ff" d="M83.4,-446.32C92.66,-365.35 128.9,-88.11 196,-36.53 272.7,22.43 391.02,-2.5 464.38,-27.13"/>
<polygon fill="#63b8ff" stroke="#63b8ff" points="79.93,-445.92 82.3,-456.25 86.88,-446.7 79.93,-445.92"/>
</a>
</g>
</g>
<!-- Node27 -->
<g id="Node000027" class="node">
<title>Node27</title>
<g id="a_Node000027"><a xlink:href="structproxsuite_1_1linalg_1_1veg_1_1cpo_1_1is__trivially__relocatable.html" target="_top" xlink:title=" ">
<polygon fill="white" stroke="#666666" points="363.5,-155.66 249.25,-155.66 249.25,-109.41 363.5,-109.41 363.5,-155.66"/>
<text text-anchor="start" x="257.25" y="-142.16" font-family="Helvetica,sans-Serif" font-size="10.00">proxsuite::linalg::</text>
<text text-anchor="start" x="257.25" y="-129.41" font-family="Helvetica,sans-Serif" font-size="10.00">veg::cpo::is_trivially</text>
<text text-anchor="middle" x="306.38" y="-116.66" font-family="Helvetica,sans-Serif" font-size="10.00">_relocatable&lt; A &gt;</text>
</a>
</g>
</g>
<!-- Node13&#45;&gt;Node27 -->
<g id="edge66_Node000013_Node000027" class="edge">
<title>Node13&#45;&gt;Node27</title>
<g id="a_edge66_Node000013_Node000027"><a xlink:title=" ">
<path fill="none" stroke="#63b8ff" d="M82.76,-446.52C88.43,-390.82 111.1,-243.13 196,-164.53 210.45,-151.16 230.18,-143.35 248.92,-138.79"/>
<polygon fill="#63b8ff" stroke="#63b8ff" points="79.3,-446 81.87,-456.28 86.27,-446.64 79.3,-446"/>
</a>
</g>
</g>
<!-- Node28 -->
<g id="Node000028" class="node">
<title>Node28</title>
<g id="a_Node000028"><a xlink:href="structproxsuite_1_1linalg_1_1veg_1_1cpo_1_1is__trivially__relocatable_3_01Vec_3_01T_00_01A_01_4_01_4.html" target="_top" xlink:title=" ">
<polygon fill="white" stroke="#666666" points="609.75,-169.66 452.75,-169.66 452.75,-123.41 609.75,-123.41 609.75,-169.66"/>
<text text-anchor="start" x="460.75" y="-156.16" font-family="Helvetica,sans-Serif" font-size="10.00">proxsuite::linalg::</text>
<text text-anchor="start" x="460.75" y="-143.41" font-family="Helvetica,sans-Serif" font-size="10.00">veg::cpo::is_trivially</text>
<text text-anchor="middle" x="531.25" y="-130.66" font-family="Helvetica,sans-Serif" font-size="10.00">_relocatable&lt; Vec&lt; T, A &gt; &gt;</text>
</a>
</g>
</g>
<!-- Node13&#45;&gt;Node28 -->
<g id="edge68_Node000013_Node000028" class="edge">
<title>Node13&#45;&gt;Node28</title>
<g id="a_edge68_Node000013_Node000028"><a xlink:title=" ">
<path fill="none" stroke="#63b8ff" d="M91.81,-447.96C109.25,-416.99 146.7,-358.97 196,-330.53 282.23,-280.78 331.37,-343.73 416.75,-292.53 466.17,-262.89 502.09,-203.04 519.14,-169.91"/>
<polygon fill="#63b8ff" stroke="#63b8ff" points="88.94,-445.92 87.21,-456.37 95.08,-449.27 88.94,-445.92"/>
</a>
</g>
</g>
<!-- Node31 -->
<g id="Node000031" class="node">
<title>Node31</title>
<g id="a_Node000031"><a xlink:href="structproxsuite_1_1linalg_1_1veg_1_1cpo_1_1is__trivially__constructible.html" target="_top" xlink:title=" ">
<polygon fill="white" stroke="#666666" points="363.5,-283.66 249.25,-283.66 249.25,-237.41 363.5,-237.41 363.5,-283.66"/>
<text text-anchor="start" x="257.25" y="-270.16" font-family="Helvetica,sans-Serif" font-size="10.00">proxsuite::linalg::</text>
<text text-anchor="start" x="257.25" y="-257.41" font-family="Helvetica,sans-Serif" font-size="10.00">veg::cpo::is_trivially</text>
<text text-anchor="middle" x="306.38" y="-244.66" font-family="Helvetica,sans-Serif" font-size="10.00">_constructible&lt; T &gt;</text>
</a>
</g>
</g>
<!-- Node13&#45;&gt;Node31 -->
<g id="edge72_Node000013_Node000031" class="edge">
<title>Node13&#45;&gt;Node31</title>
<g id="a_edge72_Node000013_Node000031"><a xlink:title=" ">
<path fill="none" stroke="#63b8ff" d="M89.57,-447.73C105.36,-411.91 142.39,-338.5 196,-297.53 211.37,-285.79 230.69,-277.64 248.81,-272.04"/>
<polygon fill="#63b8ff" stroke="#63b8ff" points="86.51,-445.98 85.79,-456.55 92.94,-448.74 86.51,-445.98"/>
</a>
</g>
</g>
<!-- Node32 -->
<g id="Node000032" class="node">
<title>Node32</title>
<g id="a_Node000032"><a xlink:href="structproxsuite_1_1linalg_1_1veg_1_1cpo_1_1is__trivially__relocatable.html" target="_top" xlink:title=" ">
<polygon fill="white" stroke="#666666" points="363.5,-219.66 249.25,-219.66 249.25,-173.41 363.5,-173.41 363.5,-219.66"/>
<text text-anchor="start" x="257.25" y="-206.16" font-family="Helvetica,sans-Serif" font-size="10.00">proxsuite::linalg::</text>
<text text-anchor="start" x="257.25" y="-193.41" font-family="Helvetica,sans-Serif" font-size="10.00">veg::cpo::is_trivially</text>
<text text-anchor="middle" x="306.38" y="-180.66" font-family="Helvetica,sans-Serif" font-size="10.00">_relocatable&lt; T &gt;</text>
</a>
</g>
</g>
<!-- Node13&#45;&gt;Node32 -->
<g id="edge73_Node000013_Node000032" class="edge">
<title>Node13&#45;&gt;Node32</title>
<g id="a_edge73_Node000013_Node000032"><a xlink:title=" ">
<path fill="none" stroke="#63b8ff" d="M85.25,-446.5C95.52,-399.3 126.17,-287.86 196,-228.53 210.85,-215.91 230.47,-208.27 248.98,-203.64"/>
<polygon fill="#63b8ff" stroke="#63b8ff" points="81.82,-445.8 83.23,-456.3 88.68,-447.21 81.82,-445.8"/>
</a>
</g>
</g>
<!-- Node23&#45;&gt;Node24 -->
<g id="edge61_Node000023_Node000024" class="edge">
<title>Node23&#45;&gt;Node24</title>
<g id="a_edge61_Node000023_Node000024"><a xlink:title=" ">
<path fill="none" stroke="#63b8ff" d="M375.31,-63.96C403.56,-62.06 436.24,-59.86 464.29,-57.97"/>
<polygon fill="#63b8ff" stroke="#63b8ff" points="375.16,-60.46 365.41,-64.62 375.63,-67.45 375.16,-60.46"/>
</a>
</g>
</g>
<!-- Node27&#45;&gt;Node28 -->
<g id="edge67_Node000027_Node000028" class="edge">
<title>Node27&#45;&gt;Node28</title>
<g id="a_edge67_Node000027_Node000028"><a xlink:title=" ">
<path fill="none" stroke="#63b8ff" d="M375.2,-136.79C399.55,-138.32 427.19,-140.06 452.33,-141.64"/>
<polygon fill="#63b8ff" stroke="#63b8ff" points="375.61,-133.31 365.41,-136.18 375.18,-140.3 375.61,-133.31"/>
</a>
</g>
</g>
<!-- Node6 -->
<g id="Node000006" class="node">
<title>Node6</title>
<g id="a_Node000006"><a xlink:href="structproxsuite_1_1linalg_1_1veg_1_1__detail_1_1__mem_1_1member__addr.html" target="_top" xlink:title=" ">
<polygon fill="white" stroke="#666666" points="137.88,-1609.66 22.12,-1609.66 22.12,-1563.41 137.88,-1563.41 137.88,-1609.66"/>
<text text-anchor="start" x="30.12" y="-1596.16" font-family="Helvetica,sans-Serif" font-size="10.00">proxsuite::linalg::</text>
<text text-anchor="start" x="30.12" y="-1583.41" font-family="Helvetica,sans-Serif" font-size="10.00">veg::_detail::_mem::</text>
<text text-anchor="middle" x="80" y="-1570.66" font-family="Helvetica,sans-Serif" font-size="10.00">member_addr</text>
</a>
</g>
</g>
<!-- Node6&#45;&gt;Node7 -->
<g id="edge76_Node000006_Node000007" class="edge">
<title>Node6&#45;&gt;Node7</title>
<g id="a_edge76_Node000006_Node000007"><a xlink:title=" ">
<path fill="none" stroke="#63b8ff" d="M149.58,-1576.75C177.76,-1572.73 210.29,-1568.09 238.32,-1564.09"/>
<polygon fill="#63b8ff" stroke="#63b8ff" points="149.1,-1573.28 139.7,-1578.16 150.09,-1580.21 149.1,-1573.28"/>
</a>
</g>
</g>
<!-- Node5 -->
<g id="Node000005" class="node">
<title>Node5</title>
<g id="a_Node000005"><a xlink:href="structproxsuite_1_1linalg_1_1veg_1_1__detail_1_1__mem_1_1adl__addr.html" target="_top" xlink:title=" ">
<polygon fill="white" stroke="#666666" points="364.25,-1641.66 248.5,-1641.66 248.5,-1595.41 364.25,-1595.41 364.25,-1641.66"/>
<text text-anchor="start" x="256.5" y="-1628.16" font-family="Helvetica,sans-Serif" font-size="10.00">proxsuite::linalg::</text>
<text text-anchor="start" x="256.5" y="-1615.41" font-family="Helvetica,sans-Serif" font-size="10.00">veg::_detail::_mem::</text>
<text text-anchor="middle" x="306.38" y="-1602.66" font-family="Helvetica,sans-Serif" font-size="10.00">adl_addr</text>
</a>
</g>
</g>
<!-- Node6&#45;&gt;Node5 -->
<g id="edge74_Node000006_Node000005" class="edge">
<title>Node6&#45;&gt;Node5</title>
<g id="a_edge74_Node000006_Node000005"><a xlink:title=" ">
<path fill="none" stroke="#63b8ff" d="M149.57,-1596.31C181.17,-1600.82 218.23,-1606.1 248.28,-1610.39"/>
<polygon fill="#63b8ff" stroke="#63b8ff" points="150.09,-1592.85 139.7,-1594.9 149.1,-1599.78 150.09,-1592.85"/>
</a>
</g>
</g>
<!-- Node5&#45;&gt;Node4 -->
<g id="edge75_Node000005_Node000004" class="edge">
<title>Node5&#45;&gt;Node4</title>
<g id="a_edge75_Node000005_Node000004"><a xlink:title=" ">
<path fill="none" stroke="#63b8ff" d="M375.43,-1604.76C389.7,-1600.22 404.21,-1594.27 416.75,-1586.53 458.6,-1560.7 494.92,-1515.37 514.6,-1487.84"/>
<polygon fill="#63b8ff" stroke="#63b8ff" points="374.66,-1601.34 366.06,-1607.54 376.64,-1608.05 374.66,-1601.34"/>
</a>
</g>
</g>
<!-- Node11 -->
<g id="Node000011" class="node">
<title>Node11</title>
<g id="a_Node000011"><a xlink:href="structproxsuite_1_1linalg_1_1veg_1_1__detail_1_1__meta_1_1member__get.html" target="_top" xlink:title=" ">
<polygon fill="white" stroke="#666666" points="134.88,-1385.66 25.13,-1385.66 25.13,-1339.41 134.88,-1339.41 134.88,-1385.66"/>
<text text-anchor="start" x="33.12" y="-1372.16" font-family="Helvetica,sans-Serif" font-size="10.00">proxsuite::linalg::</text>
<text text-anchor="start" x="33.12" y="-1359.41" font-family="Helvetica,sans-Serif" font-size="10.00">veg::_detail::_meta</text>
<text text-anchor="middle" x="80" y="-1346.66" font-family="Helvetica,sans-Serif" font-size="10.00">::member_get</text>
</a>
</g>
</g>
<!-- Node11&#45;&gt;Node10 -->
<g id="edge77_Node000011_Node000010" class="edge">
<title>Node11&#45;&gt;Node10</title>
<g id="a_edge77_Node000011_Node000010"><a xlink:title=" ">
<path fill="none" stroke="#63b8ff" d="M146.78,-1362.53C174.22,-1362.53 206.17,-1362.53 234.16,-1362.53"/>
<polygon fill="#63b8ff" stroke="#63b8ff" points="146.83,-1359.03 136.83,-1362.53 146.83,-1366.03 146.83,-1359.03"/>
</a>
</g>
</g>
<!-- Node17 -->
<g id="Node000017" class="node">
<title>Node17</title>
<g id="a_Node000017"><a xlink:href="structproxsuite_1_1linalg_1_1veg_1_1__detail_1_1__collections_1_1VecImpl.html" target="_top" xlink:title=" ">
<polygon fill="white" stroke="#666666" points="160,-551.66 0,-551.66 0,-505.41 160,-505.41 160,-551.66"/>
<text text-anchor="start" x="8" y="-538.16" font-family="Helvetica,sans-Serif" font-size="10.00">proxsuite::linalg::</text>
<text text-anchor="start" x="8" y="-525.41" font-family="Helvetica,sans-Serif" font-size="10.00">veg::_detail::_collections</text>
<text text-anchor="middle" x="80" y="-512.66" font-family="Helvetica,sans-Serif" font-size="10.00">::VecImpl&lt; T, A, Dtor, Copy &gt;</text>
</a>
</g>
</g>
<!-- Node17&#45;&gt;Node14 -->
<g id="edge78_Node000017_Node000014" class="edge">
<title>Node17&#45;&gt;Node14</title>
<g id="a_edge78_Node000017_Node000014"><a xlink:title=" ">
<path fill="none" stroke="#63b8ff" d="M171.86,-534.6C179.75,-535.13 187.78,-535.67 195.8,-536.21"/>
<polygon fill="#63b8ff" stroke="#63b8ff" points="172.14,-531.12 161.93,-533.94 171.68,-538.1 172.14,-531.12"/>
</a>
</g>
</g>
<!-- Node17&#45;&gt;Node16 -->
<g id="edge79_Node000017_Node000016" class="edge">
<title>Node17&#45;&gt;Node16</title>
<g id="a_edge79_Node000017_Node000016"><a xlink:title=" ">
<path fill="none" stroke="#63b8ff" d="M150.29,-500.93C165.24,-495.45 181.05,-490.01 196,-485.53 215.03,-479.83 236.26,-474.7 254.91,-470.59"/>
<polygon fill="#63b8ff" stroke="#63b8ff" points="149.15,-497.62 141,-504.38 151.59,-504.18 149.15,-497.62"/>
</a>
</g>
</g>
<!-- Node17&#45;&gt;Node18 -->
<g id="edge80_Node000017_Node000018" class="edge">
<title>Node17&#45;&gt;Node18</title>
<g id="a_edge80_Node000017_Node000018"><a xlink:title=" ">
<path fill="none" stroke="#63b8ff" d="M144.95,-498.99C150.27,-495.46 155.38,-491.64 160,-487.53 181.29,-468.62 172.56,-450.7 196,-434.53 213.43,-422.51 235.74,-416.01 255.65,-412.5"/>
<polygon fill="#63b8ff" stroke="#63b8ff" points="143.14,-495.99 136.47,-504.23 146.82,-501.95 143.14,-495.99"/>
</a>
</g>
</g>
<!-- Node17&#45;&gt;Node19 -->
<g id="edge81_Node000017_Node000019" class="edge">
<title>Node17&#45;&gt;Node19</title>
<g id="a_edge81_Node000017_Node000019"><a xlink:title=" ">
<path fill="none" stroke="#63b8ff" d="M148.29,-498.62C152.56,-495.25 156.53,-491.56 160,-487.53 192.2,-450.16 159.47,-415.68 196,-382.53 206.12,-373.35 218.88,-367.24 232.08,-363.22"/>
<polygon fill="#63b8ff" stroke="#63b8ff" points="146.54,-495.56 140.41,-504.2 150.59,-501.28 146.54,-495.56"/>
</a>
</g>
</g>
<!-- Node17&#45;&gt;Node20 -->
<g id="edge82_Node000017_Node000020" class="edge">
<title>Node17&#45;&gt;Node20</title>
<g id="a_edge82_Node000017_Node000020"><a xlink:title=" ">
<path fill="none" stroke="#63b8ff" d="M159.24,-559.65C159.5,-559.94 159.75,-560.23 160,-560.53 209.35,-619.37 142.34,-674.59 196,-729.53 211.41,-745.31 234.53,-752.22 255.54,-755.03"/>
<polygon fill="#63b8ff" stroke="#63b8ff" points="161.81,-557.26 152.14,-552.95 157.01,-562.36 161.81,-557.26"/>
</a>
</g>
</g>
<!-- Node17&#45;&gt;Node21 -->
<g id="edge83_Node000017_Node000021" class="edge">
<title>Node17&#45;&gt;Node21</title>
<g id="a_edge83_Node000017_Node000021"><a xlink:title=" ">
<path fill="none" stroke="#63b8ff" d="M158.88,-559.38C159.26,-559.76 159.63,-560.14 160,-560.53 193.92,-596.35 160.33,-631.45 196,-665.53 206.59,-675.64 220.19,-682.58 234.19,-687.34"/>
<polygon fill="#63b8ff" stroke="#63b8ff" points="161.27,-556.82 151.38,-553.02 156.75,-562.16 161.27,-556.82"/>
</a>
</g>
</g>
<!-- Node17&#45;&gt;Node22 -->
<g id="edge84_Node000017_Node000022" class="edge">
<title>Node17&#45;&gt;Node22</title>
<g id="a_edge84_Node000017_Node000022"><a xlink:title=" ">
<path fill="none" stroke="#63b8ff" d="M155.83,-557.71C157.25,-558.63 158.64,-559.57 160,-560.53 179.77,-574.57 175.55,-588.5 196,-601.53 211.43,-611.37 229.99,-618.27 247.41,-623.08"/>
<polygon fill="#63b8ff" stroke="#63b8ff" points="157.82,-554.82 147.43,-552.75 154.26,-560.84 157.82,-554.82"/>
</a>
</g>
</g>
</g>
</svg>
