<?xml version="1.0" encoding="UTF-8" standalone="no"?>
<!DOCTYPE svg PUBLIC "-//W3C//DTD SVG 1.1//EN"
 "http://www.w3.org/Graphics/SVG/1.1/DTD/svg11.dtd">
<!-- Generated by graphviz version 9.0.0 (20231125.0833)
 -->
<!-- Title: Graphical Class Hierarchy Pages: 1 -->
<svg width="708pt" height="877pt"
 viewBox="0.00 0.00 707.75 877.00" xmlns="http://www.w3.org/2000/svg" xmlns:xlink="http://www.w3.org/1999/xlink">
<g id="graph0" class="graph" transform="scale(1 1) rotate(0) translate(4 873)">
<title>Graphical Class Hierarchy</title>
<!-- Node0 -->
<g id="Node000000" class="node">
<title>Node0</title>
<g id="a_Node000000"><a xlink:href="structproxsuite_1_1linalg_1_1veg_1_1tuple_1_1IndexedTuple.html" target="_top" xlink:title=" ">
<polygon fill="white" stroke="#666666" points="169.75,-567.38 0,-567.38 0,-508.38 169.75,-508.38 169.75,-567.38"/>
<text text-anchor="start" x="8" y="-553.88" font-family="Helvetica,sans-Serif" font-size="10.00">proxsuite::linalg::</text>
<text text-anchor="start" x="8" y="-541.12" font-family="Helvetica,sans-Serif" font-size="10.00">veg::tuple::IndexedTuple</text>
<text text-anchor="start" x="8" y="-528.38" font-family="Helvetica,sans-Serif" font-size="10.00">&lt; meta::make_index_sequence</text>
<text text-anchor="middle" x="84.88" y="-515.62" font-family="Helvetica,sans-Serif" font-size="10.00">&lt; sizeof...(Ts)&gt;, Ts... &gt;</text>
</a>
</g>
</g>
<!-- Node1 -->
<g id="Node000001" class="node">
<title>Node1</title>
<g id="a_Node000001"><a xlink:href="structproxsuite_1_1linalg_1_1veg_1_1Tuple.html" target="_top" xlink:title=" ">
<polygon fill="white" stroke="#666666" points="410.38,-869 238.38,-869 238.38,-822.75 410.38,-822.75 410.38,-869"/>
<text text-anchor="start" x="246.38" y="-855.5" font-family="Helvetica,sans-Serif" font-size="10.00">proxsuite::linalg::</text>
<text text-anchor="start" x="246.38" y="-842.75" font-family="Helvetica,sans-Serif" font-size="10.00">veg::Tuple&lt; mem::SystemAlloc,</text>
<text text-anchor="middle" x="324.38" y="-830" font-family="Helvetica,sans-Serif" font-size="10.00"> RawVectorMoveRaii&lt; T &gt; &gt;</text>
</a>
</g>
</g>
<!-- Node0&#45;&gt;Node1 -->
<g id="edge130_Node000000_Node000001" class="edge">
<title>Node0&#45;&gt;Node1</title>
<g id="a_edge130_Node000000_Node000001"><a xlink:title=" ">
<path fill="none" stroke="#63b8ff" d="M92.24,-578.82C103.82,-639.26 134.12,-751.89 205.75,-813.88 215.11,-821.98 226.34,-828.05 238.09,-832.59"/>
<polygon fill="#63b8ff" stroke="#63b8ff" points="95.74,-578.5 90.5,-569.3 88.86,-579.76 95.74,-578.5"/>
</a>
</g>
</g>
<!-- Node2 -->
<g id="Node000002" class="node">
<title>Node2</title>
<g id="a_Node000002"><a xlink:href="structproxsuite_1_1linalg_1_1veg_1_1Tuple.html" target="_top" xlink:title=" ">
<polygon fill="white" stroke="#666666" points="408.5,-805 240.25,-805 240.25,-758.75 408.5,-758.75 408.5,-805"/>
<text text-anchor="start" x="248.25" y="-791.5" font-family="Helvetica,sans-Serif" font-size="10.00">proxsuite::linalg::</text>
<text text-anchor="start" x="248.25" y="-778.75" font-family="Helvetica,sans-Serif" font-size="10.00">veg::Tuple&lt; A, RawVectorMove</text>
<text text-anchor="middle" x="324.38" y="-766" font-family="Helvetica,sans-Serif" font-size="10.00">Raii&lt; T &gt; &gt;</text>
</a>
</g>
</g>
<!-- Node0&#45;&gt;Node2 -->
<g id="edge131_Node000000_Node000002" class="edge">
<title>Node0&#45;&gt;Node2</title>
<g id="a_edge131_Node000000_Node000002"><a xlink:title=" ">
<path fill="none" stroke="#63b8ff" d="M98.09,-578.43C114.67,-626.52 148.93,-705.69 205.75,-749.88 215.86,-757.73 227.76,-763.67 240.04,-768.14"/>
<polygon fill="#63b8ff" stroke="#63b8ff" points="101.5,-577.61 95.01,-569.23 94.86,-579.82 101.5,-577.61"/>
</a>
</g>
</g>
<!-- Node4 -->
<g id="Node000004" class="node">
<title>Node4</title>
<g id="a_Node000004"><a xlink:href="structproxsuite_1_1linalg_1_1veg_1_1Tuple.html" target="_top" xlink:title=" ">
<polygon fill="white" stroke="#666666" points="443,-740.5 205.75,-740.5 205.75,-643.25 443,-643.25 443,-740.5"/>
<text text-anchor="start" x="213.75" y="-727" font-family="Helvetica,sans-Serif" font-size="10.00">proxsuite::linalg::</text>
<text text-anchor="start" x="213.75" y="-714.25" font-family="Helvetica,sans-Serif" font-size="10.00">veg::Tuple&lt; proxsuite</text>
<text text-anchor="start" x="213.75" y="-701.5" font-family="Helvetica,sans-Serif" font-size="10.00">::linalg::veg::meta::if</text>
<text text-anchor="start" x="213.75" y="-688.75" font-family="Helvetica,sans-Serif" font-size="10.00">_t&lt; _detail::should_vectorize</text>
<text text-anchor="start" x="213.75" y="-676" font-family="Helvetica,sans-Serif" font-size="10.00">&lt; T &gt;::value, _detail::SimdAlignedSystem</text>
<text text-anchor="start" x="213.75" y="-663.25" font-family="Helvetica,sans-Serif" font-size="10.00">Alloc, proxsuite::linalg::veg::mem</text>
<text text-anchor="middle" x="324.38" y="-650.5" font-family="Helvetica,sans-Serif" font-size="10.00">::SystemAlloc &gt;, RawVectorMoveRaii&lt; T &gt; &gt;</text>
</a>
</g>
</g>
<!-- Node0&#45;&gt;Node4 -->
<g id="edge133_Node000000_Node000004" class="edge">
<title>Node0&#45;&gt;Node4</title>
<g id="a_edge133_Node000000_Node000004"><a xlink:title=" ">
<path fill="none" stroke="#63b8ff" d="M127.56,-574.97C149.87,-593.86 178.34,-616.44 205.75,-633.88 210.55,-636.93 215.54,-639.94 220.63,-642.89"/>
<polygon fill="#63b8ff" stroke="#63b8ff" points="130.04,-572.49 120.17,-568.65 125.49,-577.81 130.04,-572.49"/>
</a>
</g>
</g>
<!-- Node5 -->
<g id="Node000005" class="node">
<title>Node5</title>
<g id="a_Node000005"><a xlink:href="structproxsuite_1_1linalg_1_1veg_1_1Tuple.html" target="_top" xlink:title=" ">
<polygon fill="white" stroke="#666666" points="410.75,-625 238,-625 238,-578.75 410.75,-578.75 410.75,-625"/>
<text text-anchor="start" x="246" y="-611.5" font-family="Helvetica,sans-Serif" font-size="10.00">proxsuite::linalg::</text>
<text text-anchor="start" x="246" y="-598.75" font-family="Helvetica,sans-Serif" font-size="10.00">veg::Tuple&lt; mem::SystemAlloc,</text>
<text text-anchor="middle" x="324.38" y="-586" font-family="Helvetica,sans-Serif" font-size="10.00"> RawVectorMoveRaii&lt; isize &gt; &gt;</text>
</a>
</g>
</g>
<!-- Node0&#45;&gt;Node5 -->
<g id="edge134_Node000000_Node000005" class="edge">
<title>Node0&#45;&gt;Node5</title>
<g id="a_edge134_Node000000_Node000005"><a xlink:title=" ">
<path fill="none" stroke="#63b8ff" d="M180.91,-563.48C199.71,-568.55 219.35,-573.84 237.82,-578.82"/>
<polygon fill="#63b8ff" stroke="#63b8ff" points="181.97,-560.15 171.4,-560.92 180.15,-566.9 181.97,-560.15"/>
</a>
</g>
</g>
<!-- Node6 -->
<g id="Node000006" class="node">
<title>Node6</title>
<g id="a_Node000006"><a xlink:href="structproxsuite_1_1linalg_1_1veg_1_1Tuple.html" target="_top" xlink:title=" ">
<polygon fill="white" stroke="#666666" points="410.38,-561 238.38,-561 238.38,-514.75 410.38,-514.75 410.38,-561"/>
<text text-anchor="start" x="246.38" y="-547.5" font-family="Helvetica,sans-Serif" font-size="10.00">proxsuite::linalg::</text>
<text text-anchor="start" x="246.38" y="-534.75" font-family="Helvetica,sans-Serif" font-size="10.00">veg::Tuple&lt; mem::SystemAlloc,</text>
<text text-anchor="middle" x="324.38" y="-522" font-family="Helvetica,sans-Serif" font-size="10.00"> RawVectorMoveRaii&lt; bool &gt; &gt;</text>
</a>
</g>
</g>
<!-- Node0&#45;&gt;Node6 -->
<g id="edge135_Node000000_Node000006" class="edge">
<title>Node0&#45;&gt;Node6</title>
<g id="a_edge135_Node000000_Node000006"><a xlink:title=" ">
<path fill="none" stroke="#63b8ff" d="M181.24,-537.88C200.08,-537.88 219.74,-537.88 238.22,-537.88"/>
<polygon fill="#63b8ff" stroke="#63b8ff" points="181.46,-534.38 171.46,-537.88 181.46,-541.38 181.46,-534.38"/>
</a>
</g>
</g>
<!-- Node7 -->
<g id="Node000007" class="node">
<title>Node7</title>
<g id="a_Node000007"><a xlink:href="structproxsuite_1_1linalg_1_1veg_1_1Tuple.html" target="_top" xlink:title=" ">
<polygon fill="white" stroke="#666666" points="410.38,-496.38 238.38,-496.38 238.38,-437.38 410.38,-437.38 410.38,-496.38"/>
<text text-anchor="start" x="246.38" y="-482.88" font-family="Helvetica,sans-Serif" font-size="10.00">proxsuite::linalg::</text>
<text text-anchor="start" x="246.38" y="-470.12" font-family="Helvetica,sans-Serif" font-size="10.00">veg::Tuple&lt; mem::SystemAlloc,</text>
<text text-anchor="start" x="246.38" y="-457.38" font-family="Helvetica,sans-Serif" font-size="10.00"> RawVectorMoveRaii&lt; unsigned</text>
<text text-anchor="middle" x="324.38" y="-444.62" font-family="Helvetica,sans-Serif" font-size="10.00"> char &gt; &gt;</text>
</a>
</g>
</g>
<!-- Node0&#45;&gt;Node7 -->
<g id="edge136_Node000000_Node000007" class="edge">
<title>Node0&#45;&gt;Node7</title>
<g id="a_edge136_Node000000_Node000007"><a xlink:title=" ">
<path fill="none" stroke="#63b8ff" d="M180.97,-509.45C199.9,-503.79 219.65,-497.88 238.22,-492.33"/>
<polygon fill="#63b8ff" stroke="#63b8ff" points="179.97,-506.09 171.39,-512.31 181.98,-512.8 179.97,-506.09"/>
</a>
</g>
</g>
<!-- Node8 -->
<g id="Node000008" class="node">
<title>Node8</title>
<g id="a_Node000008"><a xlink:href="structproxsuite_1_1linalg_1_1veg_1_1Tuple.html" target="_top" xlink:title=" ">
<polygon fill="white" stroke="#666666" points="410.38,-419 238.38,-419 238.38,-372.75 410.38,-372.75 410.38,-419"/>
<text text-anchor="start" x="246.38" y="-405.5" font-family="Helvetica,sans-Serif" font-size="10.00">proxsuite::linalg::</text>
<text text-anchor="start" x="246.38" y="-392.75" font-family="Helvetica,sans-Serif" font-size="10.00">veg::Tuple&lt; mem::SystemAlloc,</text>
<text text-anchor="middle" x="324.38" y="-380" font-family="Helvetica,sans-Serif" font-size="10.00"> RawVectorMoveRaii&lt; I &gt; &gt;</text>
</a>
</g>
</g>
<!-- Node0&#45;&gt;Node8 -->
<g id="edge137_Node000000_Node000008" class="edge">
<title>Node0&#45;&gt;Node8</title>
<g id="a_edge137_Node000000_Node000008"><a xlink:title=" ">
<path fill="none" stroke="#63b8ff" d="M118.49,-499.76C140.82,-475.91 172.34,-446.3 205.75,-427.88 215.76,-422.36 226.78,-417.74 237.93,-413.89"/>
<polygon fill="#63b8ff" stroke="#63b8ff" points="116.19,-497.09 112.01,-506.82 121.35,-501.82 116.19,-497.09"/>
</a>
</g>
</g>
<!-- Node9 -->
<g id="Node000009" class="node">
<title>Node9</title>
<g id="a_Node000009"><a xlink:href="structproxsuite_1_1linalg_1_1veg_1_1Tuple.html" target="_top" xlink:title=" ">
<polygon fill="white" stroke="#666666" points="411.12,-354.38 237.62,-354.38 237.62,-295.38 411.12,-295.38 411.12,-354.38"/>
<text text-anchor="start" x="245.62" y="-340.88" font-family="Helvetica,sans-Serif" font-size="10.00">proxsuite::linalg::</text>
<text text-anchor="start" x="245.62" y="-328.12" font-family="Helvetica,sans-Serif" font-size="10.00">veg::Tuple&lt; mem::SystemAlloc,</text>
<text text-anchor="start" x="245.62" y="-315.38" font-family="Helvetica,sans-Serif" font-size="10.00"> RawVectorMoveRaii&lt; proxsuite</text>
<text text-anchor="middle" x="324.38" y="-302.62" font-family="Helvetica,sans-Serif" font-size="10.00">::linalg::veg::mem::byte &gt; &gt;</text>
</a>
</g>
</g>
<!-- Node0&#45;&gt;Node9 -->
<g id="edge138_Node000000_Node000009" class="edge">
<title>Node0&#45;&gt;Node9</title>
<g id="a_edge138_Node000000_Node000009"><a xlink:title=" ">
<path fill="none" stroke="#63b8ff" d="M104.06,-497.57C123.79,-458.15 158.85,-399.07 205.75,-363.88 215.21,-356.77 226.04,-350.92 237.21,-346.11"/>
<polygon fill="#63b8ff" stroke="#63b8ff" points="100.93,-496 99.69,-506.52 107.22,-499.07 100.93,-496"/>
</a>
</g>
</g>
<!-- Node10 -->
<g id="Node000010" class="node">
<title>Node10</title>
<g id="a_Node000010"><a xlink:href="structproxsuite_1_1linalg_1_1veg_1_1Tuple.html" target="_top" xlink:title=" ">
<polygon fill="white" stroke="#666666" points="374.75,-277.62 274,-277.62 274,-244.12 374.75,-244.12 374.75,-277.62"/>
<text text-anchor="start" x="282" y="-264.12" font-family="Helvetica,sans-Serif" font-size="10.00">proxsuite::linalg::</text>
<text text-anchor="middle" x="324.38" y="-251.38" font-family="Helvetica,sans-Serif" font-size="10.00">veg::Tuple&lt; Ts &gt;</text>
</a>
</g>
</g>
<!-- Node0&#45;&gt;Node10 -->
<g id="edge139_Node000000_Node000010" class="edge">
<title>Node0&#45;&gt;Node10</title>
<g id="a_edge139_Node000000_Node000010"><a xlink:title=" ">
<path fill="none" stroke="#63b8ff" d="M93.58,-497.04C106.46,-440.51 137.97,-339.37 205.75,-285.88 224.84,-270.81 250.92,-264.28 273.67,-261.63"/>
<polygon fill="#63b8ff" stroke="#63b8ff" points="90.21,-496.06 91.5,-506.58 97.05,-497.55 90.21,-496.06"/>
</a>
</g>
</g>
<!-- Node3 -->
<g id="Node000003" class="node">
<title>Node3</title>
<g id="a_Node000003"><a xlink:href="structproxsuite_1_1linalg_1_1veg_1_1__detail_1_1__vector_1_1VecAlloc.html" target="_top" xlink:title=" ">
<polygon fill="white" stroke="#666666" points="646.88,-805 531.88,-805 531.88,-758.75 646.88,-758.75 646.88,-805"/>
<text text-anchor="start" x="539.88" y="-791.5" font-family="Helvetica,sans-Serif" font-size="10.00">proxsuite::linalg::</text>
<text text-anchor="start" x="539.88" y="-778.75" font-family="Helvetica,sans-Serif" font-size="10.00">veg::_detail::_vector</text>
<text text-anchor="middle" x="589.38" y="-766" font-family="Helvetica,sans-Serif" font-size="10.00">::VecAlloc&lt; T, A &gt;</text>
</a>
</g>
</g>
<!-- Node2&#45;&gt;Node3 -->
<g id="edge132_Node000002_Node000003" class="edge">
<title>Node2&#45;&gt;Node3</title>
<g id="a_edge132_Node000002_Node000003"><a xlink:title=" ">
<path fill="none" stroke="#63b8ff" d="M420.37,-781.88C457.65,-781.88 499.18,-781.88 531.63,-781.88"/>
<polygon fill="#63b8ff" stroke="#63b8ff" points="420.46,-778.38 410.46,-781.88 420.46,-785.38 420.46,-778.38"/>
</a>
</g>
</g>
<!-- Node11 -->
<g id="Node000011" class="node">
<title>Node11</title>
<g id="a_Node000011"><a xlink:href="structproxsuite_1_1linalg_1_1veg_1_1__detail_1_1__vector_1_1VecAlloc.html" target="_top" xlink:title=" ">
<polygon fill="white" stroke="#666666" points="684.38,-560 494.38,-560 494.38,-513.75 684.38,-513.75 684.38,-560"/>
<text text-anchor="start" x="502.38" y="-546.5" font-family="Helvetica,sans-Serif" font-size="10.00">proxsuite::linalg::</text>
<text text-anchor="start" x="502.38" y="-533.75" font-family="Helvetica,sans-Serif" font-size="10.00">veg::_detail::_vector</text>
<text text-anchor="middle" x="589.38" y="-521" font-family="Helvetica,sans-Serif" font-size="10.00">::VecAlloc&lt; T, mem::SystemAlloc &gt;</text>
</a>
</g>
</g>
<!-- Node10&#45;&gt;Node11 -->
<g id="edge140_Node000010_Node000011" class="edge">
<title>Node10&#45;&gt;Node11</title>
<g id="a_edge140_Node000010_Node000011"><a xlink:title=" ">
<path fill="none" stroke="#63b8ff" d="M386.36,-260.47C406.95,-263.48 428.4,-270.58 443,-285.88 511.11,-357.23 413.62,-431.01 479,-504.88 483.46,-509.91 488.66,-514.18 494.33,-517.78"/>
<polygon fill="#63b8ff" stroke="#63b8ff" points="386.88,-257.01 376.55,-259.37 386.1,-263.97 386.88,-257.01"/>
</a>
</g>
</g>
<!-- Node12 -->
<g id="Node000012" class="node">
<title>Node12</title>
<g id="a_Node000012"><a xlink:href="structproxsuite_1_1linalg_1_1veg_1_1__detail_1_1__vector_1_1VecAlloc.html" target="_top" xlink:title=" ">
<polygon fill="white" stroke="#666666" points="699.75,-495.88 479,-495.88 479,-385.88 699.75,-385.88 699.75,-495.88"/>
<text text-anchor="start" x="487" y="-482.38" font-family="Helvetica,sans-Serif" font-size="10.00">proxsuite::linalg::</text>
<text text-anchor="start" x="487" y="-469.62" font-family="Helvetica,sans-Serif" font-size="10.00">veg::_detail::_vector</text>
<text text-anchor="start" x="487" y="-456.88" font-family="Helvetica,sans-Serif" font-size="10.00">::VecAlloc&lt; T, proxsuite</text>
<text text-anchor="start" x="487" y="-444.12" font-family="Helvetica,sans-Serif" font-size="10.00">::linalg::veg::meta::if</text>
<text text-anchor="start" x="487" y="-431.38" font-family="Helvetica,sans-Serif" font-size="10.00">_t&lt; _detail::should_vectorize</text>
<text text-anchor="start" x="487" y="-418.62" font-family="Helvetica,sans-Serif" font-size="10.00">&lt; T &gt;::value, _detail::SimdAlignedSystem</text>
<text text-anchor="start" x="487" y="-405.88" font-family="Helvetica,sans-Serif" font-size="10.00">Alloc, proxsuite::linalg::veg::mem</text>
<text text-anchor="middle" x="589.38" y="-393.12" font-family="Helvetica,sans-Serif" font-size="10.00">::SystemAlloc &gt; &gt;</text>
</a>
</g>
</g>
<!-- Node10&#45;&gt;Node12 -->
<g id="edge141_Node000010_Node000012" class="edge">
<title>Node10&#45;&gt;Node12</title>
<g id="a_edge141_Node000010_Node000012"><a xlink:title=" ">
<path fill="none" stroke="#63b8ff" d="M386.44,-262.6C406.33,-265.91 427.31,-272.66 443,-285.88 475.95,-313.62 451,-343.14 479,-375.88 481.87,-379.23 484.96,-382.46 488.22,-385.56"/>
<polygon fill="#63b8ff" stroke="#63b8ff" points="387.11,-259.16 376.72,-261.27 386.16,-266.1 387.11,-259.16"/>
</a>
</g>
</g>
<!-- Node13 -->
<g id="Node000013" class="node">
<title>Node13</title>
<g id="a_Node000013"><a xlink:href="structproxsuite_1_1linalg_1_1veg_1_1__detail_1_1__vector_1_1VecAlloc.html" target="_top" xlink:title=" ">
<polygon fill="white" stroke="#666666" points="653.62,-367.38 525.12,-367.38 525.12,-308.38 653.62,-308.38 653.62,-367.38"/>
<text text-anchor="start" x="533.12" y="-353.88" font-family="Helvetica,sans-Serif" font-size="10.00">proxsuite::linalg::</text>
<text text-anchor="start" x="533.12" y="-341.12" font-family="Helvetica,sans-Serif" font-size="10.00">veg::_detail::_vector</text>
<text text-anchor="start" x="533.12" y="-328.38" font-family="Helvetica,sans-Serif" font-size="10.00">::VecAlloc&lt; isize, mem</text>
<text text-anchor="middle" x="589.38" y="-315.62" font-family="Helvetica,sans-Serif" font-size="10.00">::SystemAlloc &gt;</text>
</a>
</g>
</g>
<!-- Node10&#45;&gt;Node13 -->
<g id="edge142_Node000010_Node000013" class="edge">
<title>Node10&#45;&gt;Node13</title>
<g id="a_edge142_Node000010_Node000013"><a xlink:title=" ">
<path fill="none" stroke="#63b8ff" d="M386.15,-272.13C404.55,-275.99 424.71,-280.66 443,-285.88 459.36,-290.54 462.99,-293.13 479,-298.88 493.8,-304.19 509.74,-309.88 524.74,-315.23"/>
<polygon fill="#63b8ff" stroke="#63b8ff" points="386.94,-268.72 376.45,-270.15 385.54,-275.58 386.94,-268.72"/>
</a>
</g>
</g>
<!-- Node14 -->
<g id="Node000014" class="node">
<title>Node14</title>
<g id="a_Node000014"><a xlink:href="structproxsuite_1_1linalg_1_1veg_1_1__detail_1_1__vector_1_1VecAlloc.html" target="_top" xlink:title=" ">
<polygon fill="white" stroke="#666666" points="652.88,-290.38 525.88,-290.38 525.88,-231.38 652.88,-231.38 652.88,-290.38"/>
<text text-anchor="start" x="533.88" y="-276.88" font-family="Helvetica,sans-Serif" font-size="10.00">proxsuite::linalg::</text>
<text text-anchor="start" x="533.88" y="-264.12" font-family="Helvetica,sans-Serif" font-size="10.00">veg::_detail::_vector</text>
<text text-anchor="start" x="533.88" y="-251.38" font-family="Helvetica,sans-Serif" font-size="10.00">::VecAlloc&lt; bool, mem</text>
<text text-anchor="middle" x="589.38" y="-238.62" font-family="Helvetica,sans-Serif" font-size="10.00">::SystemAlloc &gt;</text>
</a>
</g>
</g>
<!-- Node10&#45;&gt;Node14 -->
<g id="edge143_Node000010_Node000014" class="edge">
<title>Node10&#45;&gt;Node14</title>
<g id="a_edge143_Node000010_Node000014"><a xlink:title=" ">
<path fill="none" stroke="#63b8ff" d="M386.57,-260.88C428.4,-260.88 483.67,-260.88 525.8,-260.88"/>
<polygon fill="#63b8ff" stroke="#63b8ff" points="386.67,-257.38 376.67,-260.88 386.67,-264.38 386.67,-257.38"/>
</a>
</g>
</g>
<!-- Node15 -->
<g id="Node000015" class="node">
<title>Node15</title>
<g id="a_Node000015"><a xlink:href="structproxsuite_1_1linalg_1_1veg_1_1__detail_1_1__vector_1_1VecAlloc.html" target="_top" xlink:title=" ">
<polygon fill="white" stroke="#666666" points="662.25,-213.38 516.5,-213.38 516.5,-154.38 662.25,-154.38 662.25,-213.38"/>
<text text-anchor="start" x="524.5" y="-199.88" font-family="Helvetica,sans-Serif" font-size="10.00">proxsuite::linalg::</text>
<text text-anchor="start" x="524.5" y="-187.12" font-family="Helvetica,sans-Serif" font-size="10.00">veg::_detail::_vector</text>
<text text-anchor="start" x="524.5" y="-174.38" font-family="Helvetica,sans-Serif" font-size="10.00">::VecAlloc&lt; unsigned char,</text>
<text text-anchor="middle" x="589.38" y="-161.62" font-family="Helvetica,sans-Serif" font-size="10.00"> mem::SystemAlloc &gt;</text>
</a>
</g>
</g>
<!-- Node10&#45;&gt;Node15 -->
<g id="edge144_Node000010_Node000015" class="edge">
<title>Node10&#45;&gt;Node15</title>
<g id="a_edge144_Node000010_Node000015"><a xlink:title=" ">
<path fill="none" stroke="#63b8ff" d="M385.77,-243.19C424.6,-231.82 475.25,-217 516.2,-205.01"/>
<polygon fill="#63b8ff" stroke="#63b8ff" points="385.22,-239.71 376.61,-245.88 387.19,-246.43 385.22,-239.71"/>
</a>
</g>
</g>
<!-- Node16 -->
<g id="Node000016" class="node">
<title>Node16</title>
<g id="a_Node000016"><a xlink:href="structproxsuite_1_1linalg_1_1veg_1_1__detail_1_1__vector_1_1VecAlloc.html" target="_top" xlink:title=" ">
<polygon fill="white" stroke="#666666" points="682.88,-136 495.88,-136 495.88,-89.75 682.88,-89.75 682.88,-136"/>
<text text-anchor="start" x="503.88" y="-122.5" font-family="Helvetica,sans-Serif" font-size="10.00">proxsuite::linalg::</text>
<text text-anchor="start" x="503.88" y="-109.75" font-family="Helvetica,sans-Serif" font-size="10.00">veg::_detail::_vector</text>
<text text-anchor="middle" x="589.38" y="-97" font-family="Helvetica,sans-Serif" font-size="10.00">::VecAlloc&lt; I, mem::SystemAlloc &gt;</text>
</a>
</g>
</g>
<!-- Node10&#45;&gt;Node16 -->
<g id="edge145_Node000010_Node000016" class="edge">
<title>Node10&#45;&gt;Node16</title>
<g id="a_edge145_Node000010_Node000016"><a xlink:title=" ">
<path fill="none" stroke="#63b8ff" d="M351.65,-236.25C380.73,-210.19 430.02,-169.49 479,-144.88 485.1,-141.81 491.54,-138.99 498.12,-136.4"/>
<polygon fill="#63b8ff" stroke="#63b8ff" points="349.46,-233.5 344.41,-242.82 354.17,-238.69 349.46,-233.5"/>
</a>
</g>
</g>
<!-- Node17 -->
<g id="Node000017" class="node">
<title>Node17</title>
<g id="a_Node000017"><a xlink:href="structproxsuite_1_1linalg_1_1veg_1_1__detail_1_1__vector_1_1VecAlloc.html" target="_top" xlink:title=" ">
<polygon fill="white" stroke="#666666" points="657,-71.75 521.75,-71.75 521.75,0 657,0 657,-71.75"/>
<text text-anchor="start" x="529.75" y="-58.25" font-family="Helvetica,sans-Serif" font-size="10.00">proxsuite::linalg::</text>
<text text-anchor="start" x="529.75" y="-45.5" font-family="Helvetica,sans-Serif" font-size="10.00">veg::_detail::_vector</text>
<text text-anchor="start" x="529.75" y="-32.75" font-family="Helvetica,sans-Serif" font-size="10.00">::VecAlloc&lt; proxsuite</text>
<text text-anchor="start" x="529.75" y="-20" font-family="Helvetica,sans-Serif" font-size="10.00">::linalg::veg::mem::byte,</text>
<text text-anchor="middle" x="589.38" y="-7.25" font-family="Helvetica,sans-Serif" font-size="10.00"> mem::SystemAlloc &gt;</text>
</a>
</g>
</g>
<!-- Node10&#45;&gt;Node17 -->
<g id="edge146_Node000010_Node000017" class="edge">
<title>Node10&#45;&gt;Node17</title>
<g id="a_edge146_Node000010_Node000017"><a xlink:title=" ">
<path fill="none" stroke="#63b8ff" d="M342.16,-234.13C367.55,-195.58 419.15,-124.26 479,-80.88 491.8,-71.59 506.8,-63.83 521.51,-57.5"/>
<polygon fill="#63b8ff" stroke="#63b8ff" points="339.32,-232.07 336.82,-242.37 345.19,-235.88 339.32,-232.07"/>
</a>
</g>
</g>
</g>
</svg>
