<?xml version="1.0" encoding="UTF-8" standalone="no"?>
<!DOCTYPE svg PUBLIC "-//W3C//DTD SVG 1.1//EN"
 "http://www.w3.org/Graphics/SVG/1.1/DTD/svg11.dtd">
<!-- Generated by graphviz version 8.0.4 (20230426.1303)
 -->
<!-- Title: Graphical Class Hierarchy Pages: 1 -->
<svg width="204pt" height="118pt"
 viewBox="0.00 0.00 203.50 118.25" xmlns="http://www.w3.org/2000/svg" xmlns:xlink="http://www.w3.org/1999/xlink">
<g id="graph0" class="graph" transform="scale(1 1) rotate(0) translate(4 114.25)">
<title>Graphical Class Hierarchy</title>
<!-- Node0 -->
<g id="node1" class="node">
<title>Node0</title>
<g id="a_node1"><a xlink:title=" ">
<polygon fill="#e0e0e0" stroke="#999999" points="31.75,-65.5 0,-65.5 0,-44.75 31.75,-44.75 31.75,-65.5"/>
<text text-anchor="middle" x="15.88" y="-52" font-family="Helvetica,sans-Serif" font-size="10.00">if_t</text>
</a>
</g>
</g>
<!-- Node1 -->
<g id="node2" class="node">
<title>Node1</title>
<g id="a_node2"><a xlink:href="structproxsuite_1_1linalg_1_1veg_1_1meta_1_1conjunction_3_01First_00_01Preds_8_8_8_01_4.html" target="_top" xlink:title=" ">
<polygon fill="white" stroke="#666666" points="195.5,-110.25 67.75,-110.25 67.75,-64 195.5,-64 195.5,-110.25"/>
<text text-anchor="start" x="75.75" y="-96.75" font-family="Helvetica,sans-Serif" font-size="10.00">proxsuite::linalg::</text>
<text text-anchor="start" x="75.75" y="-84" font-family="Helvetica,sans-Serif" font-size="10.00">veg::meta::conjunction</text>
<text text-anchor="middle" x="131.62" y="-71.25" font-family="Helvetica,sans-Serif" font-size="10.00">&lt; First, Preds... &gt;</text>
</a>
</g>
</g>
<!-- Node0&#45;&gt;Node1 -->
<g id="edge1" class="edge">
<title>Node0&#45;&gt;Node1</title>
<path fill="none" stroke="#63b8ff" d="M42.63,-62.37C50.09,-64.47 58.58,-66.86 67.27,-69.3"/>
<polygon fill="#63b8ff" stroke="#63b8ff" points="43.79,-58.78 33.22,-59.44 41.89,-65.52 43.79,-58.78"/>
</g>
<!-- Node2 -->
<g id="node3" class="node">
<title>Node2</title>
<g id="a_node3"><a xlink:href="structproxsuite_1_1linalg_1_1veg_1_1meta_1_1disjunction_3_01First_00_01Preds_8_8_8_01_4.html" target="_top" xlink:title=" ">
<polygon fill="white" stroke="#666666" points="194,-46.25 69.25,-46.25 69.25,0 194,0 194,-46.25"/>
<text text-anchor="start" x="77.25" y="-32.75" font-family="Helvetica,sans-Serif" font-size="10.00">proxsuite::linalg::</text>
<text text-anchor="start" x="77.25" y="-20" font-family="Helvetica,sans-Serif" font-size="10.00">veg::meta::disjunction</text>
<text text-anchor="middle" x="131.62" y="-7.25" font-family="Helvetica,sans-Serif" font-size="10.00">&lt; First, Preds... &gt;</text>
</a>
</g>
</g>
<!-- Node0&#45;&gt;Node2 -->
<g id="edge2" class="edge">
<title>Node0&#45;&gt;Node2</title>
<path fill="none" stroke="#63b8ff" d="M42.8,-47.83C50.65,-45.62 59.64,-43.09 68.8,-40.52"/>
<polygon fill="#63b8ff" stroke="#63b8ff" points="41.89,-44.73 33.22,-50.81 43.79,-51.47 41.89,-44.73"/>
</g>
</g>
</svg>
