<?xml version="1.0" encoding="UTF-8" standalone="no"?>
<!DOCTYPE svg PUBLIC "-//W3C//DTD SVG 1.1//EN"
 "http://www.w3.org/Graphics/SVG/1.1/DTD/svg11.dtd">
<!-- Generated by graphviz version 6.0.1 (20220911.2005)
 -->
<!-- Title: Graphical Class Hierarchy Pages: 1 -->
<svg width="553pt" height="248pt"
 viewBox="0.00 0.00 553.00 247.50" xmlns="http://www.w3.org/2000/svg" xmlns:xlink="http://www.w3.org/1999/xlink">
<g id="graph0" class="graph" transform="scale(1 1) rotate(0) translate(4 243.5)">
<title>Graphical Class Hierarchy</title>
<!-- Node0 -->
<g id="node1" class="node">
<title>Node0</title>
<g id="a_node1"><a xlink:title=" ">
<polygon fill="#e0e0e0" stroke="#999999" points="122,-138 0,-138 0,-119 122,-119 122,-138"/>
<text text-anchor="middle" x="61" y="-126" font-family="Helvetica,sans-Serif" font-size="10.00">std::integral_constant</text>
</a>
</g>
</g>
<!-- Node1 -->
<g id="node2" class="node">
<title>Node1</title>
<g id="a_node2"><a xlink:href="structtl_1_1detail_1_1is__nothrow__swappable.html" target="_top" xlink:title=" ">
<polygon fill="white" stroke="#666666" points="311,-239.5 195,-239.5 195,-209.5 311,-209.5 311,-239.5"/>
<text text-anchor="start" x="203" y="-227.5" font-family="Helvetica,sans-Serif" font-size="10.00">tl::detail::is_nothrow</text>
<text text-anchor="middle" x="253" y="-216.5" font-family="Helvetica,sans-Serif" font-size="10.00">_swappable&lt; T, U &gt;</text>
</a>
</g>
</g>
<!-- Node0&#45;&gt;Node1 -->
<g id="edge1" class="edge">
<title>Node0&#45;&gt;Node1</title>
<path fill="none" stroke="#63b8ff" d="M79.55,-145.07C97.79,-161.44 127.86,-186.06 158,-200.5 169.39,-205.96 182.18,-210.28 194.56,-213.66"/>
<polygon fill="#63b8ff" stroke="#63b8ff" points="81.78,-142.37 72.04,-138.2 77.05,-147.53 81.78,-142.37"/>
</g>
<!-- Node2 -->
<g id="node3" class="node">
<title>Node2</title>
<g id="a_node3"><a xlink:href="structtl_1_1detail_1_1is__swappable.html" target="_top" xlink:title=" ">
<polygon fill="white" stroke="#666666" points="317.5,-191.5 188.5,-191.5 188.5,-161.5 317.5,-161.5 317.5,-191.5"/>
<text text-anchor="start" x="196.5" y="-179.5" font-family="Helvetica,sans-Serif" font-size="10.00">tl::detail::is_swappable</text>
<text text-anchor="middle" x="253" y="-168.5" font-family="Helvetica,sans-Serif" font-size="10.00">&lt; T, U &gt;</text>
</a>
</g>
</g>
<!-- Node0&#45;&gt;Node2 -->
<g id="edge2" class="edge">
<title>Node0&#45;&gt;Node2</title>
<path fill="none" stroke="#63b8ff" d="M109.98,-140.62C135,-146.94 165.83,-154.73 192.38,-161.44"/>
<polygon fill="#63b8ff" stroke="#63b8ff" points="110.55,-137.15 99.99,-138.1 108.83,-143.94 110.55,-137.15"/>
</g>
<!-- Node3 -->
<g id="node4" class="node">
<title>Node3</title>
<g id="a_node4"><a xlink:href="structtl_1_1detail_1_1is__swappable_3_01T_0fN_0e_00_01T_0fN_0e_4.html" target="_top" xlink:title=" ">
<polygon fill="white" stroke="#666666" points="317.5,-143.5 188.5,-143.5 188.5,-113.5 317.5,-113.5 317.5,-143.5"/>
<text text-anchor="start" x="196.5" y="-131.5" font-family="Helvetica,sans-Serif" font-size="10.00">tl::detail::is_swappable</text>
<text text-anchor="middle" x="253" y="-120.5" font-family="Helvetica,sans-Serif" font-size="10.00">&lt; T[N], T[N]&gt;</text>
</a>
</g>
</g>
<!-- Node0&#45;&gt;Node3 -->
<g id="edge3" class="edge">
<title>Node0&#45;&gt;Node3</title>
<path fill="none" stroke="#63b8ff" d="M132.18,-128.5C150.57,-128.5 170.3,-128.5 188.34,-128.5"/>
<polygon fill="#63b8ff" stroke="#63b8ff" points="132.12,-125 122.12,-128.5 132.12,-132 132.12,-125"/>
</g>
<!-- Node4 -->
<g id="node5" class="node">
<title>Node4</title>
<g id="a_node5"><a xlink:href="structtl_1_1detail_1_1swap__adl__tests_1_1is__adl__swap__noexcept.html" target="_top" xlink:title=" ">
<polygon fill="white" stroke="#666666" points="333.5,-95 172.5,-95 172.5,-54 333.5,-54 333.5,-95"/>
<text text-anchor="start" x="180.5" y="-83" font-family="Helvetica,sans-Serif" font-size="10.00">tl::detail::swap_adl</text>
<text text-anchor="start" x="180.5" y="-72" font-family="Helvetica,sans-Serif" font-size="10.00">_tests::is_adl_swap_noexcept</text>
<text text-anchor="middle" x="253" y="-61" font-family="Helvetica,sans-Serif" font-size="10.00">&lt; T, U &gt;</text>
</a>
</g>
</g>
<!-- Node0&#45;&gt;Node4 -->
<g id="edge4" class="edge">
<title>Node0&#45;&gt;Node4</title>
<path fill="none" stroke="#63b8ff" d="M105.26,-116.21C127.31,-109.94 154.71,-102.15 179.84,-95.01"/>
<polygon fill="#63b8ff" stroke="#63b8ff" points="104.19,-112.87 95.53,-118.97 106.11,-119.6 104.19,-112.87"/>
</g>
<!-- Node5 -->
<g id="node6" class="node">
<title>Node5</title>
<g id="a_node6"><a xlink:href="structtl_1_1detail_1_1swap__adl__tests_1_1is__std__swap__noexcept.html" target="_top" xlink:title=" ">
<polygon fill="white" stroke="#666666" points="348,-35.5 158,-35.5 158,-5.5 348,-5.5 348,-35.5"/>
<text text-anchor="start" x="166" y="-23.5" font-family="Helvetica,sans-Serif" font-size="10.00">tl::detail::swap_adl</text>
<text text-anchor="middle" x="253" y="-12.5" font-family="Helvetica,sans-Serif" font-size="10.00">_tests::is_std_swap_noexcept&lt; T &gt;</text>
</a>
</g>
</g>
<!-- Node0&#45;&gt;Node5 -->
<g id="edge5" class="edge">
<title>Node0&#45;&gt;Node5</title>
<path fill="none" stroke="#63b8ff" d="M77.14,-111.41C94.76,-92.56 125.59,-62.64 158,-45.5 165.31,-41.63 173.27,-38.33 181.36,-35.52"/>
<polygon fill="#63b8ff" stroke="#63b8ff" points="74.39,-109.23 70.23,-118.97 79.56,-113.95 74.39,-109.23"/>
</g>
<!-- Node6 -->
<g id="node7" class="node">
<title>Node6</title>
<g id="a_node7"><a xlink:href="structtl_1_1detail_1_1swap__adl__tests_1_1is__std__swap__noexcept_3_01T_0fN_0e_4.html" target="_top" xlink:title=" ">
<polygon fill="white" stroke="#666666" points="545,-41 384,-41 384,0 545,0 545,-41"/>
<text text-anchor="start" x="392" y="-29" font-family="Helvetica,sans-Serif" font-size="10.00">tl::detail::swap_adl</text>
<text text-anchor="start" x="392" y="-18" font-family="Helvetica,sans-Serif" font-size="10.00">_tests::is_std_swap_noexcept</text>
<text text-anchor="middle" x="464.5" y="-7" font-family="Helvetica,sans-Serif" font-size="10.00">&lt; T[N]&gt;</text>
</a>
</g>
</g>
<!-- Node5&#45;&gt;Node6 -->
<g id="edge6" class="edge">
<title>Node5&#45;&gt;Node6</title>
<path fill="none" stroke="#63b8ff" d="M358.15,-20.5C366.79,-20.5 375.44,-20.5 383.85,-20.5"/>
<polygon fill="#63b8ff" stroke="#63b8ff" points="358.03,-17 348.03,-20.5 358.03,-24 358.03,-17"/>
</g>
</g>
</svg>
