<?xml version="1.0" encoding="UTF-8" standalone="no"?>
<!DOCTYPE svg PUBLIC "-//W3C//DTD SVG 1.1//EN"
 "http://www.w3.org/Graphics/SVG/1.1/DTD/svg11.dtd">
<!-- Generated by graphviz version 5.0.0 (20220707.2338)
 -->
<!-- Title: Graphical Class Hierarchy Pages: 1 -->
<svg width="204pt" height="110pt"
 viewBox="0.00 0.00 204.00 110.00" xmlns="http://www.w3.org/2000/svg" xmlns:xlink="http://www.w3.org/1999/xlink">
<g id="graph0" class="graph" transform="scale(1 1) rotate(0) translate(4 106)">
<title>Graphical Class Hierarchy</title>
<!-- Node0 -->
<g id="node1" class="node">
<title>Node0</title>
<g id="a_node1"><a xlink:title=" ">
<polygon fill="none" stroke="#bfbfbf" points="0,-41.5 0,-60.5 32,-60.5 32,-41.5 0,-41.5"/>
<text text-anchor="middle" x="16" y="-48.5" font-family="Helvetica,sans-Serif" font-size="10.00">if_t</text>
</a>
</g>
</g>
<!-- Node1 -->
<g id="node2" class="node">
<title>Node1</title>
<g id="a_node2"><a xlink:href="structproxsuite_1_1linalg_1_1veg_1_1meta_1_1conjunction_3_01First_00_01Preds_8_8_8_01_4.html" target="_top" xlink:title=" ">
<polygon fill="none" stroke="black" points="68,-60.5 68,-101.5 196,-101.5 196,-60.5 68,-60.5"/>
<text text-anchor="start" x="76" y="-89.5" font-family="Helvetica,sans-Serif" font-size="10.00">proxsuite::linalg::</text>
<text text-anchor="start" x="76" y="-78.5" font-family="Helvetica,sans-Serif" font-size="10.00">veg::meta::conjunction</text>
<text text-anchor="middle" x="132" y="-67.5" font-family="Helvetica,sans-Serif" font-size="10.00">&lt; First, Preds... &gt;</text>
</a>
</g>
</g>
<!-- Node0&#45;&gt;Node1 -->
<g id="edge1" class="edge">
<title>Node0&#45;&gt;Node1</title>
<path fill="none" stroke="midnightblue" d="M42.1,-57.6C49.81,-59.63 58.68,-61.97 67.76,-64.36"/>
<polygon fill="midnightblue" stroke="midnightblue" points="42.94,-54.21 32.37,-55.05 41.15,-60.98 42.94,-54.21"/>
</g>
<!-- Node2 -->
<g id="node3" class="node">
<title>Node2</title>
<g id="a_node3"><a xlink:href="structproxsuite_1_1linalg_1_1veg_1_1meta_1_1disjunction_3_01First_00_01Preds_8_8_8_01_4.html" target="_top" xlink:title=" ">
<polygon fill="none" stroke="black" points="69.5,-0.5 69.5,-41.5 194.5,-41.5 194.5,-0.5 69.5,-0.5"/>
<text text-anchor="start" x="77.5" y="-29.5" font-family="Helvetica,sans-Serif" font-size="10.00">proxsuite::linalg::</text>
<text text-anchor="start" x="77.5" y="-18.5" font-family="Helvetica,sans-Serif" font-size="10.00">veg::meta::disjunction</text>
<text text-anchor="middle" x="132" y="-7.5" font-family="Helvetica,sans-Serif" font-size="10.00">&lt; First, Preds... &gt;</text>
</a>
</g>
</g>
<!-- Node0&#45;&gt;Node2 -->
<g id="edge2" class="edge">
<title>Node0&#45;&gt;Node2</title>
<path fill="none" stroke="midnightblue" d="M42.23,-44.36C50.35,-42.22 59.73,-39.75 69.29,-37.24"/>
<polygon fill="midnightblue" stroke="midnightblue" points="41.15,-41.02 32.37,-46.95 42.94,-47.79 41.15,-41.02"/>
</g>
</g>
</svg>
