<?xml version="1.0" encoding="UTF-8" standalone="no"?>
<!DOCTYPE svg PUBLIC "-//W3C//DTD SVG 1.1//EN"
 "http://www.w3.org/Graphics/SVG/1.1/DTD/svg11.dtd">
<!-- Generated by graphviz version 8.1.0 (20230707.2238)
 -->
<!-- Title: include/proxsuite/linalg/veg/internal/integer_seq.hpp Pages: 1 -->
<svg width="867pt" height="237pt"
 viewBox="0.00 0.00 866.88 237.25" xmlns="http://www.w3.org/2000/svg" xmlns:xlink="http://www.w3.org/1999/xlink">
<g id="graph0" class="graph" transform="scale(1 1) rotate(0) translate(4 233.25)">
<title>include/proxsuite/linalg/veg/internal/integer_seq.hpp</title>
<!-- Node1 -->
<g id="Node000001" class="node">
<title>Node1</title>
<g id="a_Node000001"><a xlink:title=" ">
<polygon fill="#999999" stroke="#666666" points="657.88,-229.25 499.38,-229.25 499.38,-195.75 657.88,-195.75 657.88,-229.25"/>
<text text-anchor="start" x="507.38" y="-215.75" font-family="Helvetica,sans-Serif" font-size="10.00">include/proxsuite/linalg</text>
<text text-anchor="middle" x="578.62" y="-203" font-family="Helvetica,sans-Serif" font-size="10.00">/veg/internal/integer_seq.hpp</text>
</a>
</g>
</g>
<!-- Node2 -->
<g id="Node000002" class="node">
<title>Node2</title>
<g id="a_Node000002"><a xlink:href="typedefs_8hpp.html" target="_top" xlink:title=" ">
<polygon fill="white" stroke="#666666" points="123.25,-90.25 0,-90.25 0,-56.75 123.25,-56.75 123.25,-90.25"/>
<text text-anchor="start" x="8" y="-76.75" font-family="Helvetica,sans-Serif" font-size="10.00">proxsuite/linalg/veg</text>
<text text-anchor="middle" x="61.62" y="-64" font-family="Helvetica,sans-Serif" font-size="10.00">/internal/typedefs.hpp</text>
</a>
</g>
</g>
<!-- Node1&#45;&gt;Node2 -->
<g id="edge1_Node000001_Node000002" class="edge">
<title>Node1&#45;&gt;Node2</title>
<g id="a_edge1_Node000001_Node000002"><a xlink:title=" ">
<path fill="none" stroke="#63b8ff" d="M517.54,-195.31C421.41,-169.84 235.27,-120.51 133.08,-93.43"/>
<polygon fill="#63b8ff" stroke="#63b8ff" points="134.11,-89.82 123.55,-90.64 132.32,-96.59 134.11,-89.82"/>
</a>
</g>
</g>
<!-- Node5 -->
<g id="Node000005" class="node">
<title>Node5</title>
<g id="a_Node000005"><a xlink:href="macros_8hpp.html" target="_top" xlink:title=" ">
<polygon fill="white" stroke="#666666" points="593.88,-159.75 477.38,-159.75 477.38,-126.25 593.88,-126.25 593.88,-159.75"/>
<text text-anchor="start" x="485.38" y="-146.25" font-family="Helvetica,sans-Serif" font-size="10.00">proxsuite/linalg/veg</text>
<text text-anchor="middle" x="535.62" y="-133.5" font-family="Helvetica,sans-Serif" font-size="10.00">/internal/macros.hpp</text>
</a>
</g>
</g>
<!-- Node1&#45;&gt;Node5 -->
<g id="edge4_Node000001_Node000005" class="edge">
<title>Node1&#45;&gt;Node5</title>
<g id="a_edge4_Node000001_Node000005"><a xlink:title=" ">
<path fill="none" stroke="#63b8ff" d="M568.43,-195.5C563.4,-187.6 557.21,-177.88 551.57,-169.03"/>
<polygon fill="#63b8ff" stroke="#63b8ff" points="554.07,-167.44 545.74,-160.88 548.16,-171.2 554.07,-167.44"/>
</a>
</g>
</g>
<!-- Node8 -->
<g id="Node000008" class="node">
<title>Node8</title>
<g id="a_Node000008"><a xlink:href="prologue_8hpp.html" target="_top" xlink:title=" ">
<polygon fill="white" stroke="#666666" points="718.25,-90.25 595,-90.25 595,-56.75 718.25,-56.75 718.25,-90.25"/>
<text text-anchor="start" x="603" y="-76.75" font-family="Helvetica,sans-Serif" font-size="10.00">proxsuite/linalg/veg</text>
<text text-anchor="middle" x="656.62" y="-64" font-family="Helvetica,sans-Serif" font-size="10.00">/internal/prologue.hpp</text>
</a>
</g>
</g>
<!-- Node1&#45;&gt;Node8 -->
<g id="edge11_Node000001_Node000008" class="edge">
<title>Node1&#45;&gt;Node8</title>
<g id="a_edge11_Node000001_Node000008"><a xlink:title=" ">
<path fill="none" stroke="#63b8ff" d="M587.73,-195.52C601.11,-172.01 626.24,-127.87 642.17,-99.89"/>
<polygon fill="#63b8ff" stroke="#63b8ff" points="645.68,-101.8 647.58,-91.38 639.59,-98.34 645.68,-101.8"/>
</a>
</g>
</g>
<!-- Node10 -->
<g id="Node000010" class="node">
<title>Node10</title>
<g id="a_Node000010"><a xlink:href="epilogue_8hpp.html" target="_top" xlink:title=" ">
<polygon fill="white" stroke="#666666" points="858.88,-90.25 736.38,-90.25 736.38,-56.75 858.88,-56.75 858.88,-90.25"/>
<text text-anchor="start" x="744.38" y="-76.75" font-family="Helvetica,sans-Serif" font-size="10.00">proxsuite/linalg/veg</text>
<text text-anchor="middle" x="797.62" y="-64" font-family="Helvetica,sans-Serif" font-size="10.00">/internal/epilogue.hpp</text>
</a>
</g>
</g>
<!-- Node1&#45;&gt;Node10 -->
<g id="edge12_Node000001_Node000010" class="edge">
<title>Node1&#45;&gt;Node10</title>
<g id="a_edge12_Node000001_Node000010"><a xlink:title=" ">
<path fill="none" stroke="#63b8ff" d="M604.18,-195.52C643.38,-170.99 718.48,-124.01 762.69,-96.35"/>
<polygon fill="#63b8ff" stroke="#63b8ff" points="764.28,-98.86 770.9,-90.59 760.56,-92.93 764.28,-98.86"/>
</a>
</g>
</g>
<!-- Node3 -->
<g id="Node000003" class="node">
<title>Node3</title>
<g id="a_Node000003"><a xlink:title=" ">
<polygon fill="#e0e0e0" stroke="#999999" points="52.12,-20.75 3.12,-20.75 3.12,0 52.12,0 52.12,-20.75"/>
<text text-anchor="middle" x="27.62" y="-7.25" font-family="Helvetica,sans-Serif" font-size="10.00">cstdint</text>
</a>
</g>
</g>
<!-- Node2&#45;&gt;Node3 -->
<g id="edge2_Node000002_Node000003" class="edge">
<title>Node2&#45;&gt;Node3</title>
<g id="a_edge2_Node000002_Node000003"><a xlink:title=" ">
<path fill="none" stroke="#63b8ff" d="M52.69,-56.44C48.32,-48.58 43.02,-39.06 38.43,-30.79"/>
<polygon fill="#63b8ff" stroke="#63b8ff" points="41.02,-29.25 33.1,-22.22 34.9,-32.66 41.02,-29.25"/>
</a>
</g>
</g>
<!-- Node4 -->
<g id="Node000004" class="node">
<title>Node4</title>
<g id="a_Node000004"><a xlink:title=" ">
<polygon fill="#e0e0e0" stroke="#999999" points="122.62,-20.75 70.62,-20.75 70.62,0 122.62,0 122.62,-20.75"/>
<text text-anchor="middle" x="96.62" y="-7.25" font-family="Helvetica,sans-Serif" font-size="10.00">cstddef</text>
</a>
</g>
</g>
<!-- Node2&#45;&gt;Node4 -->
<g id="edge3_Node000002_Node000004" class="edge">
<title>Node2&#45;&gt;Node4</title>
<g id="a_edge3_Node000002_Node000004"><a xlink:title=" ">
<path fill="none" stroke="#63b8ff" d="M70.82,-56.44C75.37,-48.49 80.9,-38.84 85.66,-30.52"/>
<polygon fill="#63b8ff" stroke="#63b8ff" points="89.06,-32.63 90.99,-22.22 82.98,-29.16 89.06,-32.63"/>
</a>
</g>
</g>
<!-- Node5&#45;&gt;Node2 -->
<g id="edge6_Node000005_Node000002" class="edge">
<title>Node5&#45;&gt;Node2</title>
<g id="a_edge6_Node000005_Node000002"><a xlink:title=" ">
<path fill="none" stroke="#63b8ff" d="M476.98,-136.15C400.46,-128.15 262.22,-112.42 134.28,-90.44"/>
<polygon fill="#63b8ff" stroke="#63b8ff" points="134.97,-86.84 124.52,-88.58 133.77,-93.73 134.97,-86.84"/>
</a>
</g>
</g>
<!-- Node6 -->
<g id="Node000006" class="node">
<title>Node6</title>
<g id="a_Node000006"><a xlink:href="hedley_8ext_8hpp.html" target="_top" xlink:title=" ">
<polygon fill="white" stroke="#666666" points="315.75,-90.25 141.5,-90.25 141.5,-56.75 315.75,-56.75 315.75,-90.25"/>
<text text-anchor="start" x="149.5" y="-76.75" font-family="Helvetica,sans-Serif" font-size="10.00">proxsuite/linalg/veg</text>
<text text-anchor="middle" x="228.62" y="-64" font-family="Helvetica,sans-Serif" font-size="10.00">/internal/external/hedley.ext.hpp</text>
</a>
</g>
</g>
<!-- Node5&#45;&gt;Node6 -->
<g id="edge5_Node000005_Node000006" class="edge">
<title>Node5&#45;&gt;Node6</title>
<g id="a_edge5_Node000005_Node000006"><a xlink:title=" ">
<path fill="none" stroke="#63b8ff" d="M477.16,-129.14C430.69,-118.93 365.07,-104.5 312.92,-93.03"/>
<polygon fill="#63b8ff" stroke="#63b8ff" points="313.86,-89.44 303.35,-90.71 312.36,-96.27 313.86,-89.44"/>
</a>
</g>
</g>
<!-- Node7 -->
<g id="Node000007" class="node">
<title>Node7</title>
<g id="a_Node000007"><a xlink:href="preprocessor_8hpp.html" target="_top" xlink:title=" ">
<polygon fill="white" stroke="#666666" points="477,-90.25 334.25,-90.25 334.25,-56.75 477,-56.75 477,-90.25"/>
<text text-anchor="start" x="342.25" y="-76.75" font-family="Helvetica,sans-Serif" font-size="10.00">proxsuite/linalg/veg</text>
<text text-anchor="middle" x="405.62" y="-64" font-family="Helvetica,sans-Serif" font-size="10.00">/internal/preprocessor.hpp</text>
</a>
</g>
</g>
<!-- Node5&#45;&gt;Node7 -->
<g id="edge7_Node000005_Node000007" class="edge">
<title>Node5&#45;&gt;Node7</title>
<g id="a_edge7_Node000005_Node000007"><a xlink:title=" ">
<path fill="none" stroke="#63b8ff" d="M504.49,-125.83C486.96,-116.73 464.88,-105.27 446.03,-95.48"/>
<polygon fill="#63b8ff" stroke="#63b8ff" points="448,-92.04 437.51,-90.54 444.77,-98.25 448,-92.04"/>
</a>
</g>
</g>
<!-- Node5&#45;&gt;Node8 -->
<g id="edge8_Node000005_Node000008" class="edge">
<title>Node5&#45;&gt;Node8</title>
<g id="a_edge8_Node000005_Node000008"><a xlink:title=" ">
<path fill="none" stroke="#63b8ff" d="M564.61,-125.83C580.77,-116.82 601.1,-105.48 618.53,-95.75"/>
<polygon fill="#63b8ff" stroke="#63b8ff" points="619.85,-98.46 626.88,-90.54 616.44,-92.35 619.85,-98.46"/>
</a>
</g>
</g>
<!-- Node9 -->
<g id="Node000009" class="node">
<title>Node9</title>
<g id="a_Node000009"><a xlink:title=" ">
<polygon fill="#e0e0e0" stroke="#999999" points="576.62,-83.88 494.62,-83.88 494.62,-63.12 576.62,-63.12 576.62,-83.88"/>
<text text-anchor="middle" x="535.62" y="-70.38" font-family="Helvetica,sans-Serif" font-size="10.00">initializer_list</text>
</a>
</g>
</g>
<!-- Node5&#45;&gt;Node9 -->
<g id="edge9_Node000005_Node000009" class="edge">
<title>Node5&#45;&gt;Node9</title>
<g id="a_edge9_Node000005_Node000009"><a xlink:title=" ">
<path fill="none" stroke="#63b8ff" d="M535.62,-126C535.62,-116.8 535.62,-105.14 535.62,-95.24"/>
<polygon fill="#63b8ff" stroke="#63b8ff" points="539.13,-95.32 535.62,-85.32 532.13,-95.32 539.13,-95.32"/>
</a>
</g>
</g>
<!-- Node5&#45;&gt;Node10 -->
<g id="edge10_Node000005_Node000010" class="edge">
<title>Node5&#45;&gt;Node10</title>
<g id="a_edge10_Node000005_Node000010"><a xlink:title=" ">
<path fill="none" stroke="#63b8ff" d="M594.1,-126.94C632.94,-116.93 684.22,-103.72 725.58,-93.06"/>
<polygon fill="#63b8ff" stroke="#63b8ff" points="726.33,-96.22 735.14,-90.34 724.58,-89.45 726.33,-96.22"/>
</a>
</g>
</g>
</g>
</svg>
