<?xml version="1.0" encoding="UTF-8" standalone="no"?>
<!DOCTYPE svg PUBLIC "-//W3C//DTD SVG 1.1//EN"
 "http://www.w3.org/Graphics/SVG/1.1/DTD/svg11.dtd">
<!-- Generated by graphviz version 8.1.0 (20230707.2238)
 -->
<!-- Title: include/proxsuite/linalg/veg/type_traits/invocable.hpp Pages: 1 -->
<svg width="866pt" height="446pt"
 viewBox="0.00 0.00 865.88 445.75" xmlns="http://www.w3.org/2000/svg" xmlns:xlink="http://www.w3.org/1999/xlink">
<g id="graph0" class="graph" transform="scale(1 1) rotate(0) translate(4 441.75)">
<title>include/proxsuite/linalg/veg/type_traits/invocable.hpp</title>
<!-- Node1 -->
<g id="Node000001" class="node">
<title>Node1</title>
<g id="a_Node000001"><a xlink:title=" ">
<polygon fill="#999999" stroke="#666666" points="660.5,-437.75 496.75,-437.75 496.75,-404.25 660.5,-404.25 660.5,-437.75"/>
<text text-anchor="start" x="504.75" y="-424.25" font-family="Helvetica,sans-Serif" font-size="10.00">include/proxsuite/linalg</text>
<text text-anchor="middle" x="578.62" y="-411.5" font-family="Helvetica,sans-Serif" font-size="10.00">/veg/type_traits/invocable.hpp</text>
</a>
</g>
</g>
<!-- Node2 -->
<g id="Node000002" class="node">
<title>Node2</title>
<g id="a_Node000002"><a xlink:href="veg_2type__traits_2core_8hpp.html" target="_top" xlink:title=" ">
<polygon fill="white" stroke="#666666" points="590.88,-298.75 474.38,-298.75 474.38,-265.25 590.88,-265.25 590.88,-298.75"/>
<text text-anchor="start" x="482.38" y="-285.25" font-family="Helvetica,sans-Serif" font-size="10.00">proxsuite/linalg/veg</text>
<text text-anchor="middle" x="532.62" y="-272.5" font-family="Helvetica,sans-Serif" font-size="10.00">/type_traits/core.hpp</text>
</a>
</g>
</g>
<!-- Node1&#45;&gt;Node2 -->
<g id="edge1_Node000001_Node000002" class="edge">
<title>Node1&#45;&gt;Node2</title>
<g id="a_edge1_Node000001_Node000002"><a xlink:title=" ">
<path fill="none" stroke="#63b8ff" d="M565.27,-403.78C557.98,-394.06 549.48,-381.13 544.62,-368.25 537.6,-349.61 534.64,-327.28 533.41,-310.15"/>
<polygon fill="#63b8ff" stroke="#63b8ff" points="536.85,-310.02 532.81,-300.23 529.86,-310.41 536.85,-310.02"/>
</a>
</g>
</g>
<!-- Node10 -->
<g id="Node000010" class="node">
<title>Node10</title>
<g id="a_Node000010"><a xlink:href="prologue_8hpp.html" target="_top" xlink:title=" ">
<polygon fill="white" stroke="#666666" points="123.25,-90.25 0,-90.25 0,-56.75 123.25,-56.75 123.25,-90.25"/>
<text text-anchor="start" x="8" y="-76.75" font-family="Helvetica,sans-Serif" font-size="10.00">proxsuite/linalg/veg</text>
<text text-anchor="middle" x="61.62" y="-64" font-family="Helvetica,sans-Serif" font-size="10.00">/internal/prologue.hpp</text>
</a>
</g>
</g>
<!-- Node1&#45;&gt;Node10 -->
<g id="edge24_Node000001_Node000010" class="edge">
<title>Node1&#45;&gt;Node10</title>
<g id="a_edge24_Node000001_Node000010"><a xlink:title=" ">
<path fill="none" stroke="#63b8ff" d="M496.29,-414.54C353.88,-402.81 76.62,-368.94 76.62,-283 76.62,-283 76.62,-283 76.62,-211.5 76.62,-172.98 70.69,-128.72 66.29,-101.18"/>
<polygon fill="#63b8ff" stroke="#63b8ff" points="69.6,-100.76 64.52,-91.47 62.7,-101.9 69.6,-100.76"/>
</a>
</g>
</g>
<!-- Node12 -->
<g id="Node000012" class="node">
<title>Node12</title>
<g id="a_Node000012"><a xlink:href="epilogue_8hpp.html" target="_top" xlink:title=" ">
<polygon fill="white" stroke="#666666" points="857.88,-90.25 735.38,-90.25 735.38,-56.75 857.88,-56.75 857.88,-90.25"/>
<text text-anchor="start" x="743.38" y="-76.75" font-family="Helvetica,sans-Serif" font-size="10.00">proxsuite/linalg/veg</text>
<text text-anchor="middle" x="796.62" y="-64" font-family="Helvetica,sans-Serif" font-size="10.00">/internal/epilogue.hpp</text>
</a>
</g>
</g>
<!-- Node1&#45;&gt;Node12 -->
<g id="edge25_Node000001_Node000012" class="edge">
<title>Node1&#45;&gt;Node12</title>
<g id="a_edge25_Node000001_Node000012"><a xlink:title=" ">
<path fill="none" stroke="#63b8ff" d="M658.56,-403.83C720.78,-386.03 796.62,-350.5 796.62,-283 796.62,-283 796.62,-283 796.62,-211.5 796.62,-173.21 796.62,-128.89 796.62,-101.28"/>
<polygon fill="#63b8ff" stroke="#63b8ff" points="800.13,-101.53 796.62,-91.53 793.13,-101.53 800.13,-101.53"/>
</a>
</g>
</g>
<!-- Node13 -->
<g id="Node000013" class="node">
<title>Node13</title>
<g id="a_Node000013"><a xlink:href="constructible_8hpp.html" target="_top" xlink:title=" ">
<polygon fill="white" stroke="#666666" points="711.88,-368.25 553.38,-368.25 553.38,-334.75 711.88,-334.75 711.88,-368.25"/>
<text text-anchor="start" x="561.38" y="-354.75" font-family="Helvetica,sans-Serif" font-size="10.00">proxsuite/linalg/veg</text>
<text text-anchor="middle" x="632.62" y="-342" font-family="Helvetica,sans-Serif" font-size="10.00">/type_traits/constructible.hpp</text>
</a>
</g>
</g>
<!-- Node1&#45;&gt;Node13 -->
<g id="edge18_Node000001_Node000013" class="edge">
<title>Node1&#45;&gt;Node13</title>
<g id="a_edge18_Node000001_Node000013"><a xlink:title=" ">
<path fill="none" stroke="#63b8ff" d="M591.42,-404C597.88,-395.93 605.85,-385.97 613.05,-376.96"/>
<polygon fill="#63b8ff" stroke="#63b8ff" points="616.41,-379.38 619.92,-369.38 610.94,-375 616.41,-379.38"/>
</a>
</g>
</g>
<!-- Node3 -->
<g id="Node000003" class="node">
<title>Node3</title>
<g id="a_Node000003"><a xlink:href="typedefs_8hpp.html" target="_top" xlink:title=" ">
<polygon fill="white" stroke="#666666" points="717.25,-90.25 594,-90.25 594,-56.75 717.25,-56.75 717.25,-90.25"/>
<text text-anchor="start" x="602" y="-76.75" font-family="Helvetica,sans-Serif" font-size="10.00">proxsuite/linalg/veg</text>
<text text-anchor="middle" x="655.62" y="-64" font-family="Helvetica,sans-Serif" font-size="10.00">/internal/typedefs.hpp</text>
</a>
</g>
</g>
<!-- Node2&#45;&gt;Node3 -->
<g id="edge2_Node000002_Node000003" class="edge">
<title>Node2&#45;&gt;Node3</title>
<g id="a_edge2_Node000002_Node000003"><a xlink:title=" ">
<path fill="none" stroke="#63b8ff" d="M567.47,-264.9C582.69,-256.28 599.55,-244.31 610.62,-229.25 639.09,-190.53 649.62,-134.11 653.46,-101.17"/>
<polygon fill="#63b8ff" stroke="#63b8ff" points="657.01,-101.87 654.56,-91.56 650.05,-101.15 657.01,-101.87"/>
</a>
</g>
</g>
<!-- Node6 -->
<g id="Node000006" class="node">
<title>Node6</title>
<g id="a_Node000006"><a xlink:href="integer__seq_8hpp.html" target="_top" xlink:title=" ">
<polygon fill="white" stroke="#666666" points="601.38,-229.25 463.88,-229.25 463.88,-195.75 601.38,-195.75 601.38,-229.25"/>
<text text-anchor="start" x="471.88" y="-215.75" font-family="Helvetica,sans-Serif" font-size="10.00">proxsuite/linalg/veg</text>
<text text-anchor="middle" x="532.62" y="-203" font-family="Helvetica,sans-Serif" font-size="10.00">/internal/integer_seq.hpp</text>
</a>
</g>
</g>
<!-- Node2&#45;&gt;Node6 -->
<g id="edge5_Node000002_Node000006" class="edge">
<title>Node2&#45;&gt;Node6</title>
<g id="a_edge5_Node000002_Node000006"><a xlink:title=" ">
<path fill="none" stroke="#63b8ff" d="M532.62,-265C532.62,-257.61 532.62,-248.62 532.62,-240.23"/>
<polygon fill="#63b8ff" stroke="#63b8ff" points="536.13,-240.38 532.62,-230.38 529.13,-240.38 536.13,-240.38"/>
</a>
</g>
</g>
<!-- Node2&#45;&gt;Node10 -->
<g id="edge16_Node000002_Node000010" class="edge">
<title>Node2&#45;&gt;Node10</title>
<g id="a_edge16_Node000002_Node000010"><a xlink:title=" ">
<path fill="none" stroke="#63b8ff" d="M495.67,-264.8C410.8,-227.59 202.11,-136.09 108.45,-95.03"/>
<polygon fill="#63b8ff" stroke="#63b8ff" points="109.98,-91.44 99.41,-90.63 107.16,-97.85 109.98,-91.44"/>
</a>
</g>
</g>
<!-- Node2&#45;&gt;Node12 -->
<g id="edge17_Node000002_Node000012" class="edge">
<title>Node2&#45;&gt;Node12</title>
<g id="a_edge17_Node000002_Node000012"><a xlink:title=" ">
<path fill="none" stroke="#63b8ff" d="M570.96,-264.81C590.76,-255.66 614.85,-243.25 634.62,-229.25 649.65,-218.61 731.1,-139.03 772.47,-98.33"/>
<polygon fill="#63b8ff" stroke="#63b8ff" points="774.51,-101.25 779.18,-91.74 769.6,-96.26 774.51,-101.25"/>
</a>
</g>
</g>
<!-- Node4 -->
<g id="Node000004" class="node">
<title>Node4</title>
<g id="a_Node000004"><a xlink:title=" ">
<polygon fill="#e0e0e0" stroke="#999999" points="645.12,-20.75 596.12,-20.75 596.12,0 645.12,0 645.12,-20.75"/>
<text text-anchor="middle" x="620.62" y="-7.25" font-family="Helvetica,sans-Serif" font-size="10.00">cstdint</text>
</a>
</g>
</g>
<!-- Node3&#45;&gt;Node4 -->
<g id="edge3_Node000003_Node000004" class="edge">
<title>Node3&#45;&gt;Node4</title>
<g id="a_edge3_Node000003_Node000004"><a xlink:title=" ">
<path fill="none" stroke="#63b8ff" d="M646.43,-56.44C641.88,-48.49 636.35,-38.84 631.59,-30.52"/>
<polygon fill="#63b8ff" stroke="#63b8ff" points="634.27,-29.16 626.26,-22.22 628.19,-32.63 634.27,-29.16"/>
</a>
</g>
</g>
<!-- Node5 -->
<g id="Node000005" class="node">
<title>Node5</title>
<g id="a_Node000005"><a xlink:title=" ">
<polygon fill="#e0e0e0" stroke="#999999" points="715.62,-20.75 663.62,-20.75 663.62,0 715.62,0 715.62,-20.75"/>
<text text-anchor="middle" x="689.62" y="-7.25" font-family="Helvetica,sans-Serif" font-size="10.00">cstddef</text>
</a>
</g>
</g>
<!-- Node3&#45;&gt;Node5 -->
<g id="edge4_Node000003_Node000005" class="edge">
<title>Node3&#45;&gt;Node5</title>
<g id="a_edge4_Node000003_Node000005"><a xlink:title=" ">
<path fill="none" stroke="#63b8ff" d="M664.56,-56.44C668.93,-48.58 674.23,-39.06 678.82,-30.79"/>
<polygon fill="#63b8ff" stroke="#63b8ff" points="682.35,-32.66 684.15,-22.22 676.23,-29.25 682.35,-32.66"/>
</a>
</g>
</g>
<!-- Node6&#45;&gt;Node3 -->
<g id="edge6_Node000006_Node000003" class="edge">
<title>Node6&#45;&gt;Node3</title>
<g id="a_edge6_Node000006_Node000003"><a xlink:title=" ">
<path fill="none" stroke="#63b8ff" d="M546.98,-195.52C568.45,-171.59 609.11,-126.31 634.14,-98.43"/>
<polygon fill="#63b8ff" stroke="#63b8ff" points="636.29,-101.16 640.37,-91.38 631.08,-96.48 636.29,-101.16"/>
</a>
</g>
</g>
<!-- Node7 -->
<g id="Node000007" class="node">
<title>Node7</title>
<g id="a_Node000007"><a xlink:href="macros_8hpp.html" target="_top" xlink:title=" ">
<polygon fill="white" stroke="#666666" points="546.88,-159.75 430.38,-159.75 430.38,-126.25 546.88,-126.25 546.88,-159.75"/>
<text text-anchor="start" x="438.38" y="-146.25" font-family="Helvetica,sans-Serif" font-size="10.00">proxsuite/linalg/veg</text>
<text text-anchor="middle" x="488.62" y="-133.5" font-family="Helvetica,sans-Serif" font-size="10.00">/internal/macros.hpp</text>
</a>
</g>
</g>
<!-- Node6&#45;&gt;Node7 -->
<g id="edge7_Node000006_Node000007" class="edge">
<title>Node6&#45;&gt;Node7</title>
<g id="a_edge7_Node000006_Node000007"><a xlink:title=" ">
<path fill="none" stroke="#63b8ff" d="M522.2,-195.5C517.05,-187.6 510.71,-177.88 504.94,-169.03"/>
<polygon fill="#63b8ff" stroke="#63b8ff" points="507.37,-167.35 498.98,-160.88 501.51,-171.17 507.37,-167.35"/>
</a>
</g>
</g>
<!-- Node6&#45;&gt;Node10 -->
<g id="edge14_Node000006_Node000010" class="edge">
<title>Node6&#45;&gt;Node10</title>
<g id="a_edge14_Node000006_Node000010"><a xlink:title=" ">
<path fill="none" stroke="#63b8ff" d="M498.33,-195.42C451.12,-173.48 368.34,-135.8 336.62,-126.25 251.74,-100.69 224.9,-107.64 134.31,-90.5"/>
<polygon fill="#63b8ff" stroke="#63b8ff" points="135.03,-86.88 124.55,-88.4 133.7,-93.75 135.03,-86.88"/>
</a>
</g>
</g>
<!-- Node6&#45;&gt;Node12 -->
<g id="edge15_Node000006_Node000012" class="edge">
<title>Node6&#45;&gt;Node12</title>
<g id="a_edge15_Node000006_Node000012"><a xlink:title=" ">
<path fill="none" stroke="#63b8ff" d="M563.69,-195.38C611.45,-170.6 702.94,-123.11 755.94,-95.61"/>
<polygon fill="#63b8ff" stroke="#63b8ff" points="757.42,-98.27 764.68,-90.56 754.19,-92.06 757.42,-98.27"/>
</a>
</g>
</g>
<!-- Node7&#45;&gt;Node3 -->
<g id="edge9_Node000007_Node000003" class="edge">
<title>Node7&#45;&gt;Node3</title>
<g id="a_edge9_Node000007_Node000003"><a xlink:title=" ">
<path fill="none" stroke="#63b8ff" d="M528.63,-125.83C551.78,-116.47 581.12,-104.61 605.77,-94.65"/>
<polygon fill="#63b8ff" stroke="#63b8ff" points="606.7,-97.65 614.66,-90.65 604.08,-91.16 606.7,-97.65"/>
</a>
</g>
</g>
<!-- Node8 -->
<g id="Node000008" class="node">
<title>Node8</title>
<g id="a_Node000008"><a xlink:href="hedley_8ext_8hpp.html" target="_top" xlink:title=" ">
<polygon fill="white" stroke="#666666" points="575.75,-90.25 401.5,-90.25 401.5,-56.75 575.75,-56.75 575.75,-90.25"/>
<text text-anchor="start" x="409.5" y="-76.75" font-family="Helvetica,sans-Serif" font-size="10.00">proxsuite/linalg/veg</text>
<text text-anchor="middle" x="488.62" y="-64" font-family="Helvetica,sans-Serif" font-size="10.00">/internal/external/hedley.ext.hpp</text>
</a>
</g>
</g>
<!-- Node7&#45;&gt;Node8 -->
<g id="edge8_Node000007_Node000008" class="edge">
<title>Node7&#45;&gt;Node8</title>
<g id="a_edge8_Node000007_Node000008"><a xlink:title=" ">
<path fill="none" stroke="#63b8ff" d="M488.62,-126C488.62,-118.61 488.62,-109.62 488.62,-101.23"/>
<polygon fill="#63b8ff" stroke="#63b8ff" points="492.13,-101.38 488.62,-91.38 485.13,-101.38 492.13,-101.38"/>
</a>
</g>
</g>
<!-- Node9 -->
<g id="Node000009" class="node">
<title>Node9</title>
<g id="a_Node000009"><a xlink:href="preprocessor_8hpp.html" target="_top" xlink:title=" ">
<polygon fill="white" stroke="#666666" points="284,-90.25 141.25,-90.25 141.25,-56.75 284,-56.75 284,-90.25"/>
<text text-anchor="start" x="149.25" y="-76.75" font-family="Helvetica,sans-Serif" font-size="10.00">proxsuite/linalg/veg</text>
<text text-anchor="middle" x="212.62" y="-64" font-family="Helvetica,sans-Serif" font-size="10.00">/internal/preprocessor.hpp</text>
</a>
</g>
</g>
<!-- Node7&#45;&gt;Node9 -->
<g id="edge10_Node000007_Node000009" class="edge">
<title>Node7&#45;&gt;Node9</title>
<g id="a_edge10_Node000007_Node000009"><a xlink:title=" ">
<path fill="none" stroke="#63b8ff" d="M430.09,-127.68C389.07,-117.65 333.85,-104.15 289.31,-93.26"/>
<polygon fill="#63b8ff" stroke="#63b8ff" points="290.37,-89.67 279.82,-90.69 288.7,-96.46 290.37,-89.67"/>
</a>
</g>
</g>
<!-- Node7&#45;&gt;Node10 -->
<g id="edge11_Node000007_Node000010" class="edge">
<title>Node7&#45;&gt;Node10</title>
<g id="a_edge11_Node000007_Node000010"><a xlink:title=" ">
<path fill="none" stroke="#63b8ff" d="M429.94,-130.86C420.81,-129.24 411.47,-127.65 402.62,-126.25 286.44,-107.88 253.67,-111.17 134.19,-90.43"/>
<polygon fill="#63b8ff" stroke="#63b8ff" points="134.97,-86.84 124.52,-88.56 133.76,-93.74 134.97,-86.84"/>
</a>
</g>
</g>
<!-- Node11 -->
<g id="Node000011" class="node">
<title>Node11</title>
<g id="a_Node000011"><a xlink:title=" ">
<polygon fill="#e0e0e0" stroke="#999999" points="383.62,-83.88 301.62,-83.88 301.62,-63.12 383.62,-63.12 383.62,-83.88"/>
<text text-anchor="middle" x="342.62" y="-70.38" font-family="Helvetica,sans-Serif" font-size="10.00">initializer_list</text>
</a>
</g>
</g>
<!-- Node7&#45;&gt;Node11 -->
<g id="edge12_Node000007_Node000011" class="edge">
<title>Node7&#45;&gt;Node11</title>
<g id="a_edge12_Node000007_Node000011"><a xlink:title=" ">
<path fill="none" stroke="#63b8ff" d="M453.65,-125.83C429.26,-114.55 397,-99.64 373.54,-88.79"/>
<polygon fill="#63b8ff" stroke="#63b8ff" points="375.31,-85.29 364.76,-84.27 372.37,-91.64 375.31,-85.29"/>
</a>
</g>
</g>
<!-- Node7&#45;&gt;Node12 -->
<g id="edge13_Node000007_Node000012" class="edge">
<title>Node7&#45;&gt;Node12</title>
<g id="a_edge13_Node000007_Node000012"><a xlink:title=" ">
<path fill="none" stroke="#63b8ff" d="M547.34,-129.36C593.07,-119.48 658.47,-105.3 724.56,-90.7"/>
<polygon fill="#63b8ff" stroke="#63b8ff" points="725.16,-93.93 734.17,-88.35 723.65,-87.09 725.16,-93.93"/>
</a>
</g>
</g>
<!-- Node13&#45;&gt;Node2 -->
<g id="edge19_Node000013_Node000002" class="edge">
<title>Node13&#45;&gt;Node2</title>
<g id="a_edge19_Node000013_Node000002"><a xlink:title=" ">
<path fill="none" stroke="#63b8ff" d="M608.67,-334.33C595.69,-325.57 579.45,-314.6 565.31,-305.06"/>
<polygon fill="#63b8ff" stroke="#63b8ff" points="567.63,-301.73 557.38,-299.04 563.71,-307.53 567.63,-301.73"/>
</a>
</g>
</g>
<!-- Node13&#45;&gt;Node10 -->
<g id="edge20_Node000013_Node000010" class="edge">
<title>Node13&#45;&gt;Node10</title>
<g id="a_edge20_Node000013_Node000010"><a xlink:title=" ">
<path fill="none" stroke="#63b8ff" d="M569.67,-334.31C537.91,-325.32 499.12,-313.06 465.62,-298.75 321.89,-237.37 162.93,-139.52 95.18,-96.27"/>
<polygon fill="#63b8ff" stroke="#63b8ff" points="97.54,-92.99 87.23,-90.54 93.76,-98.89 97.54,-92.99"/>
</a>
</g>
</g>
<!-- Node13&#45;&gt;Node12 -->
<g id="edge23_Node000013_Node000012" class="edge">
<title>Node13&#45;&gt;Node12</title>
<g id="a_edge23_Node000013_Node000012"><a xlink:title=" ">
<path fill="none" stroke="#63b8ff" d="M688.35,-334.35C707.06,-326.39 726.48,-314.93 739.62,-298.75 789.45,-237.43 762.75,-202.72 782.62,-126.25 784.78,-117.95 787.2,-108.92 789.41,-100.77"/>
<polygon fill="#63b8ff" stroke="#63b8ff" points="793,-101.9 792.25,-91.33 786.25,-100.06 793,-101.9"/>
</a>
</g>
</g>
<!-- Node14 -->
<g id="Node000014" class="node">
<title>Node14</title>
<g id="a_Node000014"><a xlink:title=" ">
<polygon fill="#e0e0e0" stroke="#999999" points="644.75,-292.38 608.5,-292.38 608.5,-271.62 644.75,-271.62 644.75,-292.38"/>
<text text-anchor="middle" x="626.62" y="-278.88" font-family="Helvetica,sans-Serif" font-size="10.00">new</text>
</a>
</g>
</g>
<!-- Node13&#45;&gt;Node14 -->
<g id="edge21_Node000013_Node000014" class="edge">
<title>Node13&#45;&gt;Node14</title>
<g id="a_edge21_Node000013_Node000014"><a xlink:title=" ">
<path fill="none" stroke="#63b8ff" d="M631.2,-334.5C630.39,-325.3 629.35,-313.64 628.47,-303.74"/>
<polygon fill="#63b8ff" stroke="#63b8ff" points="631.87,-303.47 627.5,-293.82 624.9,-304.09 631.87,-303.47"/>
</a>
</g>
</g>
<!-- Node15 -->
<g id="Node000015" class="node">
<title>Node15</title>
<g id="a_Node000015"><a xlink:title=" ">
<polygon fill="#e0e0e0" stroke="#999999" points="730.88,-292.38 662.38,-292.38 662.38,-271.62 730.88,-271.62 730.88,-292.38"/>
<text text-anchor="middle" x="696.62" y="-278.88" font-family="Helvetica,sans-Serif" font-size="10.00">type_traits</text>
</a>
</g>
</g>
<!-- Node13&#45;&gt;Node15 -->
<g id="edge22_Node000013_Node000015" class="edge">
<title>Node13&#45;&gt;Node15</title>
<g id="a_edge22_Node000013_Node000015"><a xlink:title=" ">
<path fill="none" stroke="#63b8ff" d="M647.79,-334.5C657.48,-324.29 670.03,-311.05 679.99,-300.54"/>
<polygon fill="#63b8ff" stroke="#63b8ff" points="681.97,-303.49 686.31,-293.82 676.89,-298.67 681.97,-303.49"/>
</a>
</g>
</g>
</g>
</svg>
