<?xml version="1.0" encoding="UTF-8" standalone="no"?>
<!DOCTYPE svg PUBLIC "-//W3C//DTD SVG 1.1//EN"
 "http://www.w3.org/Graphics/SVG/1.1/DTD/svg11.dtd">
<!-- Generated by graphviz version 5.0.1 (20220821.0811)
 -->
<!-- Title: include/proxsuite/linalg/veg/type_traits/invocable.hpp Pages: 1 -->
<svg width="871pt" height="423pt"
 viewBox="0.00 0.00 871.00 423.00" xmlns="http://www.w3.org/2000/svg" xmlns:xlink="http://www.w3.org/1999/xlink">
<g id="graph0" class="graph" transform="scale(1 1) rotate(0) translate(4 419)">
<title>include/proxsuite/linalg/veg/type_traits/invocable.hpp</title>
<!-- Node1 -->
<g id="node1" class="node">
<title>Node1</title>
<g id="a_node1"><a xlink:title=" ">
<polygon fill="#999999" stroke="#666666" points="686,-415 522,-415 522,-385 686,-385 686,-415"/>
<text text-anchor="start" x="530" y="-403" font-family="Helvetica,sans-Serif" font-size="10.00">include/proxsuite/linalg</text>
<text text-anchor="middle" x="604" y="-392" font-family="Helvetica,sans-Serif" font-size="10.00">/veg/type_traits/invocable.hpp</text>
</a>
</g>
</g>
<!-- Node2 -->
<g id="node2" class="node">
<title>Node2</title>
<g id="a_node2"><a xlink:href="veg_2type__traits_2core_8hpp.html" target="_top" xlink:title=" ">
<polygon fill="white" stroke="#666666" points="605.5,-283 488.5,-283 488.5,-253 605.5,-253 605.5,-283"/>
<text text-anchor="start" x="496.5" y="-271" font-family="Helvetica,sans-Serif" font-size="10.00">proxsuite/linalg/veg</text>
<text text-anchor="middle" x="547" y="-260" font-family="Helvetica,sans-Serif" font-size="10.00">/type_traits/core.hpp</text>
</a>
</g>
</g>
<!-- Node1&#45;&gt;Node2 -->
<g id="edge1" class="edge">
<title>Node1&#45;&gt;Node2</title>
<path fill="none" stroke="#63b8ff" d="M592.59,-384.86C585.28,-375.23 576.06,-361.93 570,-349 561.54,-330.97 555.53,-309.17 551.77,-292.88"/>
<polygon fill="#63b8ff" stroke="#63b8ff" points="555.18,-292.09 549.63,-283.07 548.34,-293.58 555.18,-292.09"/>
</g>
<!-- Node10 -->
<g id="node10" class="node">
<title>Node10</title>
<g id="a_node10"><a xlink:href="prologue_8hpp.html" target="_top" xlink:title=" ">
<polygon fill="white" stroke="#666666" points="863,-85 739,-85 739,-55 863,-55 863,-85"/>
<text text-anchor="start" x="747" y="-73" font-family="Helvetica,sans-Serif" font-size="10.00">proxsuite/linalg/veg</text>
<text text-anchor="middle" x="801" y="-62" font-family="Helvetica,sans-Serif" font-size="10.00">/internal/prologue.hpp</text>
</a>
</g>
</g>
<!-- Node1&#45;&gt;Node10 -->
<g id="edge23" class="edge">
<title>Node1&#45;&gt;Node10</title>
<path fill="none" stroke="#63b8ff" d="M686.26,-388.63C755.73,-374.72 844,-342.57 844,-269 844,-269 844,-269 844,-201 844,-162.18 826.5,-119.98 813.83,-94.51"/>
<polygon fill="#63b8ff" stroke="#63b8ff" points="816.78,-92.59 809.09,-85.3 810.55,-95.8 816.78,-92.59"/>
</g>
<!-- Node12 -->
<g id="node12" class="node">
<title>Node12</title>
<g id="a_node12"><a xlink:href="epilogue_8hpp.html" target="_top" xlink:title=" ">
<polygon fill="white" stroke="#666666" points="720.5,-85 597.5,-85 597.5,-55 720.5,-55 720.5,-85"/>
<text text-anchor="start" x="605.5" y="-73" font-family="Helvetica,sans-Serif" font-size="10.00">proxsuite/linalg/veg</text>
<text text-anchor="middle" x="659" y="-62" font-family="Helvetica,sans-Serif" font-size="10.00">/internal/epilogue.hpp</text>
</a>
</g>
</g>
<!-- Node1&#45;&gt;Node12 -->
<g id="edge24" class="edge">
<title>Node1&#45;&gt;Node12</title>
<path fill="none" stroke="#63b8ff" d="M567.66,-384.91C525,-365.7 460,-326.93 460,-269 460,-269 460,-269 460,-201 460,-138.1 530.55,-104.01 587.64,-86.73"/>
<polygon fill="#63b8ff" stroke="#63b8ff" points="588.77,-90.05 597.4,-83.9 586.82,-83.32 588.77,-90.05"/>
</g>
<!-- Node13 -->
<g id="node13" class="node">
<title>Node13</title>
<g id="a_node13"><a xlink:href="constructible_8hpp.html" target="_top" xlink:title=" ">
<polygon fill="white" stroke="#666666" points="737.5,-349 578.5,-349 578.5,-319 737.5,-319 737.5,-349"/>
<text text-anchor="start" x="586.5" y="-337" font-family="Helvetica,sans-Serif" font-size="10.00">proxsuite/linalg/veg</text>
<text text-anchor="middle" x="658" y="-326" font-family="Helvetica,sans-Serif" font-size="10.00">/type_traits/constructible.hpp</text>
</a>
</g>
</g>
<!-- Node1&#45;&gt;Node13 -->
<g id="edge18" class="edge">
<title>Node1&#45;&gt;Node13</title>
<path fill="none" stroke="#63b8ff" d="M615.98,-384.8C622.91,-376.59 631.76,-366.1 639.55,-356.87"/>
<polygon fill="#63b8ff" stroke="#63b8ff" points="642.28,-359.06 646.05,-349.16 636.93,-354.55 642.28,-359.06"/>
</g>
<!-- Node3 -->
<g id="node3" class="node">
<title>Node3</title>
<g id="a_node3"><a xlink:href="typedefs_8hpp.html" target="_top" xlink:title=" ">
<polygon fill="white" stroke="#666666" points="124,-85 0,-85 0,-55 124,-55 124,-85"/>
<text text-anchor="start" x="8" y="-73" font-family="Helvetica,sans-Serif" font-size="10.00">proxsuite/linalg/veg</text>
<text text-anchor="middle" x="62" y="-62" font-family="Helvetica,sans-Serif" font-size="10.00">/internal/typedefs.hpp</text>
</a>
</g>
</g>
<!-- Node2&#45;&gt;Node3 -->
<g id="edge2" class="edge">
<title>Node2&#45;&gt;Node3</title>
<path fill="none" stroke="#63b8ff" d="M496.98,-252.94C429.75,-233.37 307.1,-195.28 207,-151 166.43,-133.05 122.09,-107.68 93.26,-90.35"/>
<polygon fill="#63b8ff" stroke="#63b8ff" points="94.84,-87.21 84.47,-85.02 91.21,-93.2 94.84,-87.21"/>
</g>
<!-- Node6 -->
<g id="node6" class="node">
<title>Node6</title>
<g id="a_node6"><a xlink:href="integer__seq_8hpp.html" target="_top" xlink:title=" ">
<polygon fill="white" stroke="#666666" points="626,-217 488,-217 488,-187 626,-187 626,-217"/>
<text text-anchor="start" x="496" y="-205" font-family="Helvetica,sans-Serif" font-size="10.00">proxsuite/linalg/veg</text>
<text text-anchor="middle" x="557" y="-194" font-family="Helvetica,sans-Serif" font-size="10.00">/internal/integer_seq.hpp</text>
</a>
</g>
</g>
<!-- Node2&#45;&gt;Node6 -->
<g id="edge5" class="edge">
<title>Node2&#45;&gt;Node6</title>
<path fill="none" stroke="#63b8ff" d="M549.22,-252.8C550.4,-245.26 551.88,-235.78 553.23,-227.13"/>
<polygon fill="#63b8ff" stroke="#63b8ff" points="556.7,-227.58 554.79,-217.16 549.78,-226.5 556.7,-227.58"/>
</g>
<!-- Node2&#45;&gt;Node10 -->
<g id="edge16" class="edge">
<title>Node2&#45;&gt;Node10</title>
<path fill="none" stroke="#63b8ff" d="M586.39,-252.93C607.96,-244.27 634.58,-231.96 656,-217 708.21,-180.55 758.01,-124.08 783.44,-93.14"/>
<polygon fill="#63b8ff" stroke="#63b8ff" points="786.37,-95.09 789.95,-85.13 780.93,-90.68 786.37,-95.09"/>
</g>
<!-- Node2&#45;&gt;Node12 -->
<g id="edge17" class="edge">
<title>Node2&#45;&gt;Node12</title>
<path fill="none" stroke="#63b8ff" d="M588.07,-252.88C605.17,-244.94 623.65,-233.29 635,-217 660.37,-180.58 662.43,-126.82 661.08,-95.71"/>
<polygon fill="#63b8ff" stroke="#63b8ff" points="664.56,-95.12 660.47,-85.35 657.57,-95.54 664.56,-95.12"/>
</g>
<!-- Node4 -->
<g id="node4" class="node">
<title>Node4</title>
<g id="a_node4"><a xlink:title=" ">
<polygon fill="#e0e0e0" stroke="#999999" points="52,-19 2,-19 2,0 52,0 52,-19"/>
<text text-anchor="middle" x="27" y="-7" font-family="Helvetica,sans-Serif" font-size="10.00">cstdint</text>
</a>
</g>
</g>
<!-- Node3&#45;&gt;Node4 -->
<g id="edge3" class="edge">
<title>Node3&#45;&gt;Node4</title>
<path fill="none" stroke="#63b8ff" d="M53.53,-54.84C48.71,-46.78 42.63,-36.62 37.5,-28.06"/>
<polygon fill="#63b8ff" stroke="#63b8ff" points="40.38,-26.05 32.24,-19.27 34.38,-29.64 40.38,-26.05"/>
</g>
<!-- Node5 -->
<g id="node5" class="node">
<title>Node5</title>
<g id="a_node5"><a xlink:title=" ">
<polygon fill="#e0e0e0" stroke="#999999" points="123.5,-19 70.5,-19 70.5,0 123.5,0 123.5,-19"/>
<text text-anchor="middle" x="97" y="-7" font-family="Helvetica,sans-Serif" font-size="10.00">cstddef</text>
</a>
</g>
</g>
<!-- Node3&#45;&gt;Node5 -->
<g id="edge4" class="edge">
<title>Node3&#45;&gt;Node5</title>
<path fill="none" stroke="#63b8ff" d="M70.47,-54.84C75.29,-46.78 81.37,-36.62 86.5,-28.06"/>
<polygon fill="#63b8ff" stroke="#63b8ff" points="89.62,-29.64 91.76,-19.27 83.62,-26.05 89.62,-29.64"/>
</g>
<!-- Node6&#45;&gt;Node3 -->
<g id="edge6" class="edge">
<title>Node6&#45;&gt;Node3</title>
<path fill="none" stroke="#63b8ff" d="M487.76,-189.61C436.84,-180.67 366.15,-167.07 305,-151 236.08,-132.89 158.1,-106.06 109.48,-88.55"/>
<polygon fill="#63b8ff" stroke="#63b8ff" points="110.46,-85.18 99.87,-85.07 108.08,-91.76 110.46,-85.18"/>
</g>
<!-- Node7 -->
<g id="node7" class="node">
<title>Node7</title>
<g id="a_node7"><a xlink:href="macros_8hpp.html" target="_top" xlink:title=" ">
<polygon fill="white" stroke="#666666" points="431.5,-151 314.5,-151 314.5,-121 431.5,-121 431.5,-151"/>
<text text-anchor="start" x="322.5" y="-139" font-family="Helvetica,sans-Serif" font-size="10.00">proxsuite/linalg/veg</text>
<text text-anchor="middle" x="373" y="-128" font-family="Helvetica,sans-Serif" font-size="10.00">/internal/macros.hpp</text>
</a>
</g>
</g>
<!-- Node6&#45;&gt;Node7 -->
<g id="edge7" class="edge">
<title>Node6&#45;&gt;Node7</title>
<path fill="none" stroke="#63b8ff" d="M516.62,-186.95C489.06,-177.37 452.36,-164.6 422.95,-154.37"/>
<polygon fill="#63b8ff" stroke="#63b8ff" points="423.88,-150.99 413.29,-151.01 421.58,-157.6 423.88,-150.99"/>
</g>
<!-- Node6&#45;&gt;Node10 -->
<g id="edge14" class="edge">
<title>Node6&#45;&gt;Node10</title>
<path fill="none" stroke="#63b8ff" d="M583.58,-186.84C627.67,-163.35 715.98,-116.3 765.41,-89.96"/>
<polygon fill="#63b8ff" stroke="#63b8ff" points="767.28,-92.93 774.46,-85.14 763.98,-86.76 767.28,-92.93"/>
</g>
<!-- Node6&#45;&gt;Node12 -->
<g id="edge15" class="edge">
<title>Node6&#45;&gt;Node12</title>
<path fill="none" stroke="#63b8ff" d="M568.11,-186.84C585.81,-164.28 620.57,-119.98 641.6,-93.18"/>
<polygon fill="#63b8ff" stroke="#63b8ff" points="644.48,-95.17 647.9,-85.14 638.98,-90.85 644.48,-95.17"/>
</g>
<!-- Node7&#45;&gt;Node3 -->
<g id="edge9" class="edge">
<title>Node7&#45;&gt;Node3</title>
<path fill="none" stroke="#63b8ff" d="M314.14,-122.89C262.99,-112.36 188.75,-97.08 134.06,-85.83"/>
<polygon fill="#63b8ff" stroke="#63b8ff" points="134.59,-82.36 124.08,-83.78 133.17,-89.22 134.59,-82.36"/>
</g>
<!-- Node8 -->
<g id="node8" class="node">
<title>Node8</title>
<g id="a_node8"><a xlink:href="hedley_8ext_8hpp.html" target="_top" xlink:title=" ">
<polygon fill="white" stroke="#666666" points="418.5,-85 243.5,-85 243.5,-55 418.5,-55 418.5,-85"/>
<text text-anchor="start" x="251.5" y="-73" font-family="Helvetica,sans-Serif" font-size="10.00">proxsuite/linalg/veg</text>
<text text-anchor="middle" x="331" y="-62" font-family="Helvetica,sans-Serif" font-size="10.00">/internal/external/hedley.ext.hpp</text>
</a>
</g>
</g>
<!-- Node7&#45;&gt;Node8 -->
<g id="edge8" class="edge">
<title>Node7&#45;&gt;Node8</title>
<path fill="none" stroke="#63b8ff" d="M363.68,-120.8C358.46,-112.84 351.83,-102.74 345.9,-93.71"/>
<polygon fill="#63b8ff" stroke="#63b8ff" points="348.71,-91.6 340.3,-85.16 342.86,-95.44 348.71,-91.6"/>
</g>
<!-- Node9 -->
<g id="node9" class="node">
<title>Node9</title>
<g id="a_node9"><a xlink:href="preprocessor_8hpp.html" target="_top" xlink:title=" ">
<polygon fill="white" stroke="#666666" points="579.5,-85 436.5,-85 436.5,-55 579.5,-55 579.5,-85"/>
<text text-anchor="start" x="444.5" y="-73" font-family="Helvetica,sans-Serif" font-size="10.00">proxsuite/linalg/veg</text>
<text text-anchor="middle" x="508" y="-62" font-family="Helvetica,sans-Serif" font-size="10.00">/internal/preprocessor.hpp</text>
</a>
</g>
</g>
<!-- Node7&#45;&gt;Node9 -->
<g id="edge10" class="edge">
<title>Node7&#45;&gt;Node9</title>
<path fill="none" stroke="#63b8ff" d="M402.63,-120.95C422.23,-111.66 448.14,-99.38 469.37,-89.32"/>
<polygon fill="#63b8ff" stroke="#63b8ff" points="470.91,-92.46 478.44,-85.01 467.91,-86.13 470.91,-92.46"/>
</g>
<!-- Node7&#45;&gt;Node10 -->
<g id="edge11" class="edge">
<title>Node7&#45;&gt;Node10</title>
<path fill="none" stroke="#63b8ff" d="M431.59,-127.81C500.37,-119.14 618.09,-103.6 728.7,-85.16"/>
<polygon fill="#63b8ff" stroke="#63b8ff" points="729.41,-88.59 738.7,-83.49 728.26,-81.69 729.41,-88.59"/>
</g>
<!-- Node11 -->
<g id="node11" class="node">
<title>Node11</title>
<g id="a_node11"><a xlink:title=" ">
<polygon fill="#e0e0e0" stroke="#999999" points="225.5,-79.5 142.5,-79.5 142.5,-60.5 225.5,-60.5 225.5,-79.5"/>
<text text-anchor="middle" x="184" y="-67.5" font-family="Helvetica,sans-Serif" font-size="10.00">initializer_list</text>
</a>
</g>
</g>
<!-- Node7&#45;&gt;Node11 -->
<g id="edge12" class="edge">
<title>Node7&#45;&gt;Node11</title>
<path fill="none" stroke="#63b8ff" d="M331.52,-120.95C297.79,-109.53 250.74,-93.6 218.91,-82.82"/>
<polygon fill="#63b8ff" stroke="#63b8ff" points="219.75,-79.41 209.15,-79.52 217.5,-86.04 219.75,-79.41"/>
</g>
<!-- Node7&#45;&gt;Node12 -->
<g id="edge13" class="edge">
<title>Node7&#45;&gt;Node12</title>
<path fill="none" stroke="#63b8ff" d="M431.57,-121.89C476.65,-111.81 539.18,-97.81 587.27,-87.05"/>
<polygon fill="#63b8ff" stroke="#63b8ff" points="588.3,-90.41 597.3,-84.81 586.77,-83.58 588.3,-90.41"/>
</g>
<!-- Node13&#45;&gt;Node2 -->
<g id="edge19" class="edge">
<title>Node13&#45;&gt;Node2</title>
<path fill="none" stroke="#63b8ff" d="M633.64,-318.95C618.03,-309.95 597.55,-298.14 580.42,-288.27"/>
<polygon fill="#63b8ff" stroke="#63b8ff" points="581.71,-284.98 571.3,-283.01 578.22,-291.04 581.71,-284.98"/>
</g>
<!-- Node13&#45;&gt;Node10 -->
<g id="edge20" class="edge">
<title>Node13&#45;&gt;Node10</title>
<path fill="none" stroke="#63b8ff" d="M680.49,-318.86C693.23,-309.89 708.64,-297.31 719,-283 762.55,-222.85 786.38,-136.57 795.95,-95.09"/>
<polygon fill="#63b8ff" stroke="#63b8ff" points="799.42,-95.61 798.18,-85.09 792.59,-94.09 799.42,-95.61"/>
</g>
<!-- Node13&#45;&gt;Node12 -->
<g id="edge22" class="edge">
<title>Node13&#45;&gt;Node12</title>
<path fill="none" stroke="#63b8ff" d="M675.63,-318.81C685.43,-309.74 696.69,-297.06 702,-283 726.87,-217.08 692.2,-133.93 671.9,-94.2"/>
<polygon fill="#63b8ff" stroke="#63b8ff" points="674.84,-92.29 667.09,-85.07 668.65,-95.55 674.84,-92.29"/>
</g>
<!-- Node14 -->
<g id="node14" class="node">
<title>Node14</title>
<g id="a_node14"><a xlink:title=" ">
<polygon fill="#e0e0e0" stroke="#999999" points="692.5,-277.5 623.5,-277.5 623.5,-258.5 692.5,-258.5 692.5,-277.5"/>
<text text-anchor="middle" x="658" y="-265.5" font-family="Helvetica,sans-Serif" font-size="10.00">type_traits</text>
</a>
</g>
</g>
<!-- Node13&#45;&gt;Node14 -->
<g id="edge21" class="edge">
<title>Node13&#45;&gt;Node14</title>
<path fill="none" stroke="#63b8ff" d="M658,-318.8C658,-309.7 658,-297.79 658,-287.9"/>
<polygon fill="#63b8ff" stroke="#63b8ff" points="661.5,-287.84 658,-277.84 654.5,-287.84 661.5,-287.84"/>
</g>
</g>
</svg>
