<?xml version="1.0" encoding="UTF-8" standalone="no"?>
<!DOCTYPE svg PUBLIC "-//W3C//DTD SVG 1.1//EN"
 "http://www.w3.org/Graphics/SVG/1.1/DTD/svg11.dtd">
<!-- Generated by graphviz version 5.0.1 (20220821.0811)
 -->
<!-- Title: include/proxsuite/linalg/dense/ldlt.hpp Pages: 1 -->
<svg width="346pt" height="368pt"
 viewBox="0.00 0.00 346.00 368.00" xmlns="http://www.w3.org/2000/svg" xmlns:xlink="http://www.w3.org/1999/xlink">
<g id="graph0" class="graph" transform="scale(1 1) rotate(0) translate(4 364)">
<title>include/proxsuite/linalg/dense/ldlt.hpp</title>
<!-- Node1 -->
<g id="node1" class="node">
<title>Node1</title>
<g id="a_node1"><a xlink:title=" ">
<polygon fill="#999999" stroke="#666666" points="131,-360 0,-360 0,-330 131,-330 131,-360"/>
<text text-anchor="start" x="8" y="-348" font-family="Helvetica,sans-Serif" font-size="10.00">include/proxsuite/linalg</text>
<text text-anchor="middle" x="65.5" y="-337" font-family="Helvetica,sans-Serif" font-size="10.00">/dense/ldlt.hpp</text>
</a>
</g>
</g>
<!-- Node2 -->
<g id="node2" class="node">
<title>Node2</title>
<g id="a_node2"><a xlink:href="dense_2solver_8hpp.html" target="_top" xlink:title=" ">
<polygon fill="white" stroke="#666666" points="183,-162 46,-162 46,-132 183,-132 183,-162"/>
<text text-anchor="start" x="54" y="-150" font-family="Helvetica,sans-Serif" font-size="10.00">include/proxsuite/proxqp</text>
<text text-anchor="middle" x="114.5" y="-139" font-family="Helvetica,sans-Serif" font-size="10.00">/dense/solver.hpp</text>
</a>
</g>
</g>
<!-- Node1&#45;&gt;Node2 -->
<g id="edge1" class="edge">
<title>Node1&#45;&gt;Node2</title>
<path fill="none" stroke="#63b8ff" d="M48.82,-321.06C43.84,-312.92 39.04,-303.43 36.5,-294 25.42,-252.8 16.03,-235.44 36.5,-198 45.37,-181.77 62.02,-170.03 77.66,-162.02"/>
<polygon fill="#63b8ff" stroke="#63b8ff" points="46,-323.15 54.4,-329.6 51.86,-319.32 46,-323.15"/>
</g>
<!-- Node5 -->
<g id="node5" class="node">
<title>Node5</title>
<g id="a_node5"><a xlink:href="dense_2workspace_8hpp.html" target="_top" xlink:title=" ">
<polygon fill="white" stroke="#666666" points="183,-294 46,-294 46,-264 183,-264 183,-294"/>
<text text-anchor="start" x="54" y="-282" font-family="Helvetica,sans-Serif" font-size="10.00">include/proxsuite/proxqp</text>
<text text-anchor="middle" x="114.5" y="-271" font-family="Helvetica,sans-Serif" font-size="10.00">/dense/workspace.hpp</text>
</a>
</g>
</g>
<!-- Node1&#45;&gt;Node5 -->
<g id="edge4" class="edge">
<title>Node1&#45;&gt;Node5</title>
<path fill="none" stroke="#63b8ff" d="M82.49,-321.81C89.51,-312.64 97.44,-302.28 103.66,-294.16"/>
<polygon fill="#63b8ff" stroke="#63b8ff" points="79.67,-319.73 76.37,-329.8 85.23,-323.98 79.67,-319.73"/>
</g>
<!-- Node3 -->
<g id="node3" class="node">
<title>Node3</title>
<g id="a_node3"><a xlink:href="dense_2wrapper_8hpp.html" target="_top" xlink:title=" ">
<polygon fill="white" stroke="#666666" points="183,-96 46,-96 46,-66 183,-66 183,-96"/>
<text text-anchor="start" x="54" y="-84" font-family="Helvetica,sans-Serif" font-size="10.00">include/proxsuite/proxqp</text>
<text text-anchor="middle" x="114.5" y="-73" font-family="Helvetica,sans-Serif" font-size="10.00">/dense/wrapper.hpp</text>
</a>
</g>
</g>
<!-- Node2&#45;&gt;Node3 -->
<g id="edge2" class="edge">
<title>Node2&#45;&gt;Node3</title>
<path fill="none" stroke="#63b8ff" d="M114.5,-121.54C114.5,-112.96 114.5,-103.61 114.5,-96.16"/>
<polygon fill="#63b8ff" stroke="#63b8ff" points="111,-121.8 114.5,-131.8 118,-121.8 111,-121.8"/>
</g>
<!-- Node4 -->
<g id="node4" class="node">
<title>Node4</title>
<g id="a_node4"><a xlink:href="dense_8hpp.html" target="_top" xlink:title=" ">
<polygon fill="white" stroke="#666666" points="183,-30 46,-30 46,0 183,0 183,-30"/>
<text text-anchor="start" x="54" y="-18" font-family="Helvetica,sans-Serif" font-size="10.00">include/proxsuite/proxqp</text>
<text text-anchor="middle" x="114.5" y="-7" font-family="Helvetica,sans-Serif" font-size="10.00">/dense/dense.hpp</text>
</a>
</g>
</g>
<!-- Node3&#45;&gt;Node4 -->
<g id="edge3" class="edge">
<title>Node3&#45;&gt;Node4</title>
<path fill="none" stroke="#63b8ff" d="M114.5,-55.54C114.5,-46.96 114.5,-37.61 114.5,-30.16"/>
<polygon fill="#63b8ff" stroke="#63b8ff" points="111,-55.8 114.5,-65.8 118,-55.8 111,-55.8"/>
</g>
<!-- Node6 -->
<g id="node6" class="node">
<title>Node6</title>
<g id="a_node6"><a xlink:href="linesearch_8hpp.html" target="_top" xlink:title=" ">
<polygon fill="white" stroke="#666666" points="183,-228 46,-228 46,-198 183,-198 183,-228"/>
<text text-anchor="start" x="54" y="-216" font-family="Helvetica,sans-Serif" font-size="10.00">include/proxsuite/proxqp</text>
<text text-anchor="middle" x="114.5" y="-205" font-family="Helvetica,sans-Serif" font-size="10.00">/dense/linesearch.hpp</text>
</a>
</g>
</g>
<!-- Node5&#45;&gt;Node6 -->
<g id="edge5" class="edge">
<title>Node5&#45;&gt;Node6</title>
<path fill="none" stroke="#63b8ff" d="M114.5,-253.54C114.5,-244.96 114.5,-235.61 114.5,-228.16"/>
<polygon fill="#63b8ff" stroke="#63b8ff" points="111,-253.8 114.5,-263.8 118,-253.8 111,-253.8"/>
</g>
<!-- Node7 -->
<g id="node7" class="node">
<title>Node7</title>
<g id="a_node7"><a xlink:href="dense_2utils_8hpp.html" target="_top" xlink:title=" ">
<polygon fill="white" stroke="#666666" points="338,-228 201,-228 201,-198 338,-198 338,-228"/>
<text text-anchor="start" x="209" y="-216" font-family="Helvetica,sans-Serif" font-size="10.00">include/proxsuite/proxqp</text>
<text text-anchor="middle" x="269.5" y="-205" font-family="Helvetica,sans-Serif" font-size="10.00">/dense/utils.hpp</text>
</a>
</g>
</g>
<!-- Node5&#45;&gt;Node7 -->
<g id="edge7" class="edge">
<title>Node5&#45;&gt;Node7</title>
<path fill="none" stroke="#63b8ff" d="M157.96,-260.05C182.52,-249.91 212.77,-237.43 235.56,-228.01"/>
<polygon fill="#63b8ff" stroke="#63b8ff" points="156.42,-256.9 148.52,-263.95 159.09,-263.37 156.42,-256.9"/>
</g>
<!-- Node6&#45;&gt;Node2 -->
<g id="edge6" class="edge">
<title>Node6&#45;&gt;Node2</title>
<path fill="none" stroke="#63b8ff" d="M114.5,-187.54C114.5,-178.96 114.5,-169.61 114.5,-162.16"/>
<polygon fill="#63b8ff" stroke="#63b8ff" points="111,-187.8 114.5,-197.8 118,-187.8 111,-187.8"/>
</g>
<!-- Node7&#45;&gt;Node2 -->
<g id="edge8" class="edge">
<title>Node7&#45;&gt;Node2</title>
<path fill="none" stroke="#63b8ff" d="M226.04,-194.05C201.48,-183.91 171.23,-171.43 148.44,-162.01"/>
<polygon fill="#63b8ff" stroke="#63b8ff" points="224.91,-197.37 235.48,-197.95 227.58,-190.9 224.91,-197.37"/>
</g>
</g>
</svg>
