<?xml version="1.0" encoding="UTF-8" standalone="no"?>
<!DOCTYPE svg PUBLIC "-//W3C//DTD SVG 1.1//EN"
 "http://www.w3.org/Graphics/SVG/1.1/DTD/svg11.dtd">
<!-- Generated by graphviz version 6.0.2 (20221126.1951)
 -->
<!-- Title: include/proxsuite/linalg/veg/internal/macros.hpp Pages: 1 -->
<svg width="872pt" height="159pt"
 viewBox="0.00 0.00 872.00 159.00" xmlns="http://www.w3.org/2000/svg" xmlns:xlink="http://www.w3.org/1999/xlink">
<g id="graph0" class="graph" transform="scale(1 1) rotate(0) translate(4 155)">
<title>include/proxsuite/linalg/veg/internal/macros.hpp</title>
<!-- Node1 -->
<g id="node1" class="node">
<title>Node1</title>
<g id="a_node1"><a xlink:title=" ">
<polygon fill="#999999" stroke="#666666" points="552.5,-151 414.5,-151 414.5,-121 552.5,-121 552.5,-151"/>
<text text-anchor="start" x="422.5" y="-139" font-family="Helvetica,sans-Serif" font-size="10.00">include/proxsuite/linalg</text>
<text text-anchor="middle" x="483.5" y="-128" font-family="Helvetica,sans-Serif" font-size="10.00">/veg/internal/macros.hpp</text>
</a>
</g>
</g>
<!-- Node2 -->
<g id="node2" class="node">
<title>Node2</title>
<g id="a_node2"><a xlink:href="hedley_8ext_8hpp.html" target="_top" xlink:title=" ">
<polygon fill="white" stroke="#666666" points="175,-85 0,-85 0,-55 175,-55 175,-85"/>
<text text-anchor="start" x="8" y="-73" font-family="Helvetica,sans-Serif" font-size="10.00">proxsuite/linalg/veg</text>
<text text-anchor="middle" x="87.5" y="-62" font-family="Helvetica,sans-Serif" font-size="10.00">/internal/external/hedley.ext.hpp</text>
</a>
</g>
</g>
<!-- Node1&#45;&gt;Node2 -->
<g id="edge1" class="edge">
<title>Node1&#45;&gt;Node2</title>
<path fill="none" stroke="#63b8ff" d="M414.07,-123.78C350.3,-113.47 255.19,-98.1 184.03,-86.6"/>
<polygon fill="#63b8ff" stroke="#63b8ff" points="184.59,-83.15 174.16,-85.01 183.47,-90.06 184.59,-83.15"/>
</g>
<!-- Node3 -->
<g id="node3" class="node">
<title>Node3</title>
<g id="a_node3"><a xlink:href="typedefs_8hpp.html" target="_top" xlink:title=" ">
<polygon fill="white" stroke="#666666" points="317.5,-85 193.5,-85 193.5,-55 317.5,-55 317.5,-85"/>
<text text-anchor="start" x="201.5" y="-73" font-family="Helvetica,sans-Serif" font-size="10.00">proxsuite/linalg/veg</text>
<text text-anchor="middle" x="255.5" y="-62" font-family="Helvetica,sans-Serif" font-size="10.00">/internal/typedefs.hpp</text>
</a>
</g>
</g>
<!-- Node1&#45;&gt;Node3 -->
<g id="edge2" class="edge">
<title>Node1&#45;&gt;Node3</title>
<path fill="none" stroke="#63b8ff" d="M433.46,-120.95C398.72,-111.2 352.25,-98.16 315.51,-87.84"/>
<polygon fill="#63b8ff" stroke="#63b8ff" points="315.99,-84.35 305.42,-85.01 314.1,-91.08 315.99,-84.35"/>
</g>
<!-- Node6 -->
<g id="node6" class="node">
<title>Node6</title>
<g id="a_node6"><a xlink:href="preprocessor_8hpp.html" target="_top" xlink:title=" ">
<polygon fill="white" stroke="#666666" points="479,-85 336,-85 336,-55 479,-55 479,-85"/>
<text text-anchor="start" x="344" y="-73" font-family="Helvetica,sans-Serif" font-size="10.00">proxsuite/linalg/veg</text>
<text text-anchor="middle" x="407.5" y="-62" font-family="Helvetica,sans-Serif" font-size="10.00">/internal/preprocessor.hpp</text>
</a>
</g>
</g>
<!-- Node1&#45;&gt;Node6 -->
<g id="edge5" class="edge">
<title>Node1&#45;&gt;Node6</title>
<path fill="none" stroke="#63b8ff" d="M466.63,-120.8C456.5,-112.26 443.42,-101.25 432.15,-91.75"/>
<polygon fill="#63b8ff" stroke="#63b8ff" points="434.22,-88.93 424.32,-85.16 429.71,-94.28 434.22,-88.93"/>
</g>
<!-- Node7 -->
<g id="node7" class="node">
<title>Node7</title>
<g id="a_node7"><a xlink:href="prologue_8hpp.html" target="_top" xlink:title=" ">
<polygon fill="white" stroke="#666666" points="621.5,-85 497.5,-85 497.5,-55 621.5,-55 621.5,-85"/>
<text text-anchor="start" x="505.5" y="-73" font-family="Helvetica,sans-Serif" font-size="10.00">proxsuite/linalg/veg</text>
<text text-anchor="middle" x="559.5" y="-62" font-family="Helvetica,sans-Serif" font-size="10.00">/internal/prologue.hpp</text>
</a>
</g>
</g>
<!-- Node1&#45;&gt;Node7 -->
<g id="edge6" class="edge">
<title>Node1&#45;&gt;Node7</title>
<path fill="none" stroke="#63b8ff" d="M500.37,-120.8C510.5,-112.26 523.58,-101.25 534.85,-91.75"/>
<polygon fill="#63b8ff" stroke="#63b8ff" points="537.29,-94.28 542.68,-85.16 532.78,-88.93 537.29,-94.28"/>
</g>
<!-- Node8 -->
<g id="node8" class="node">
<title>Node8</title>
<g id="a_node8"><a xlink:title=" ">
<polygon fill="#e0e0e0" stroke="#999999" points="723,-79.5 640,-79.5 640,-60.5 723,-60.5 723,-79.5"/>
<text text-anchor="middle" x="681.5" y="-67.5" font-family="Helvetica,sans-Serif" font-size="10.00">initializer_list</text>
</a>
</g>
</g>
<!-- Node1&#45;&gt;Node8 -->
<g id="edge7" class="edge">
<title>Node1&#45;&gt;Node8</title>
<path fill="none" stroke="#63b8ff" d="M526.95,-120.95C562.44,-109.48 612.01,-93.46 645.36,-82.68"/>
<polygon fill="#63b8ff" stroke="#63b8ff" points="646.71,-85.92 655.15,-79.52 644.56,-79.26 646.71,-85.92"/>
</g>
<!-- Node9 -->
<g id="node9" class="node">
<title>Node9</title>
<g id="a_node9"><a xlink:href="epilogue_8hpp.html" target="_top" xlink:title=" ">
<polygon fill="white" stroke="#666666" points="864,-85 741,-85 741,-55 864,-55 864,-85"/>
<text text-anchor="start" x="749" y="-73" font-family="Helvetica,sans-Serif" font-size="10.00">proxsuite/linalg/veg</text>
<text text-anchor="middle" x="802.5" y="-62" font-family="Helvetica,sans-Serif" font-size="10.00">/internal/epilogue.hpp</text>
</a>
</g>
</g>
<!-- Node1&#45;&gt;Node9 -->
<g id="edge8" class="edge">
<title>Node1&#45;&gt;Node9</title>
<path fill="none" stroke="#63b8ff" d="M552.72,-121.11C605.4,-110.54 677.66,-96.05 730.92,-85.36"/>
<polygon fill="#63b8ff" stroke="#63b8ff" points="731.85,-88.74 740.96,-83.35 730.47,-81.88 731.85,-88.74"/>
</g>
<!-- Node4 -->
<g id="node4" class="node">
<title>Node4</title>
<g id="a_node4"><a xlink:title=" ">
<polygon fill="#e0e0e0" stroke="#999999" points="245.5,-19 195.5,-19 195.5,0 245.5,0 245.5,-19"/>
<text text-anchor="middle" x="220.5" y="-7" font-family="Helvetica,sans-Serif" font-size="10.00">cstdint</text>
</a>
</g>
</g>
<!-- Node3&#45;&gt;Node4 -->
<g id="edge3" class="edge">
<title>Node3&#45;&gt;Node4</title>
<path fill="none" stroke="#63b8ff" d="M247.03,-54.84C242.21,-46.78 236.13,-36.62 231,-28.06"/>
<polygon fill="#63b8ff" stroke="#63b8ff" points="233.88,-26.05 225.74,-19.27 227.88,-29.64 233.88,-26.05"/>
</g>
<!-- Node5 -->
<g id="node5" class="node">
<title>Node5</title>
<g id="a_node5"><a xlink:title=" ">
<polygon fill="#e0e0e0" stroke="#999999" points="317,-19 264,-19 264,0 317,0 317,-19"/>
<text text-anchor="middle" x="290.5" y="-7" font-family="Helvetica,sans-Serif" font-size="10.00">cstddef</text>
</a>
</g>
</g>
<!-- Node3&#45;&gt;Node5 -->
<g id="edge4" class="edge">
<title>Node3&#45;&gt;Node5</title>
<path fill="none" stroke="#63b8ff" d="M263.97,-54.84C268.79,-46.78 274.87,-36.62 280,-28.06"/>
<polygon fill="#63b8ff" stroke="#63b8ff" points="283.12,-29.64 285.26,-19.27 277.12,-26.05 283.12,-29.64"/>
</g>
</g>
</svg>
