<?xml version="1.0" encoding="UTF-8" standalone="no"?>
<!DOCTYPE svg PUBLIC "-//W3C//DTD SVG 1.1//EN"
 "http://www.w3.org/Graphics/SVG/1.1/DTD/svg11.dtd">
<!-- Generated by graphviz version 12.2.1 (20250203.1708)
 -->
<!-- Title: include/proxsuite/linalg/veg/internal/macros.hpp Pages: 1 -->
<svg width="929pt" height="168pt"
 viewBox="0.00 0.00 929.38 167.75" xmlns="http://www.w3.org/2000/svg" xmlns:xlink="http://www.w3.org/1999/xlink">
<g id="graph0" class="graph" transform="scale(1 1) rotate(0) translate(4 163.75)">
<title>include/proxsuite/linalg/veg/internal/macros.hpp</title>
<!-- Node1 -->
<g id="Node000001" class="node">
<title>Node1</title>
<g id="a_Node000001"><a xlink:title=" ">
<polygon fill="#999999" stroke="#666666" points="624.88,-159.75 487.38,-159.75 487.38,-126.25 624.88,-126.25 624.88,-159.75"/>
<text text-anchor="start" x="495.38" y="-146.25" font-family="Helvetica,sans-Serif" font-size="10.00">include/proxsuite/linalg</text>
<text text-anchor="middle" x="556.12" y="-133.5" font-family="Helvetica,sans-Serif" font-size="10.00">/veg/internal/macros.hpp</text>
</a>
</g>
</g>
<!-- Node2 -->
<g id="Node000002" class="node">
<title>Node2</title>
<g id="a_Node000002"><a xlink:href="hedley_8ext_8hpp.html" target="_top" xlink:title=" ">
<polygon fill="white" stroke="#666666" points="174.25,-90.25 0,-90.25 0,-56.75 174.25,-56.75 174.25,-90.25"/>
<text text-anchor="start" x="8" y="-76.75" font-family="Helvetica,sans-Serif" font-size="10.00">proxsuite/linalg/veg</text>
<text text-anchor="middle" x="87.12" y="-64" font-family="Helvetica,sans-Serif" font-size="10.00">/internal/external/hedley.ext.hpp</text>
</a>
</g>
</g>
<!-- Node1&#45;&gt;Node2 -->
<g id="edge1_Node000001_Node000002" class="edge">
<title>Node1&#45;&gt;Node2</title>
<g id="a_edge1_Node000001_Node000002"><a xlink:title=" ">
<path fill="none" stroke="#63b8ff" d="M486.96,-132.93C414.44,-123.29 296.86,-107.34 185.81,-90.64"/>
<polygon fill="#63b8ff" stroke="#63b8ff" points="186.65,-87.22 176.24,-89.19 185.61,-94.15 186.65,-87.22"/>
</a>
</g>
</g>
<!-- Node3 -->
<g id="Node000003" class="node">
<title>Node3</title>
<g id="a_Node000003"><a xlink:href="typedefs_8hpp.html" target="_top" xlink:title=" ">
<polygon fill="white" stroke="#666666" points="315.75,-90.25 192.5,-90.25 192.5,-56.75 315.75,-56.75 315.75,-90.25"/>
<text text-anchor="start" x="200.5" y="-76.75" font-family="Helvetica,sans-Serif" font-size="10.00">proxsuite/linalg/veg</text>
<text text-anchor="middle" x="254.12" y="-64" font-family="Helvetica,sans-Serif" font-size="10.00">/internal/typedefs.hpp</text>
</a>
</g>
</g>
<!-- Node1&#45;&gt;Node3 -->
<g id="edge2_Node000001_Node000003" class="edge">
<title>Node1&#45;&gt;Node3</title>
<g id="a_edge2_Node000001_Node000003"><a xlink:title=" ">
<path fill="none" stroke="#63b8ff" d="M487.22,-126.6C439.41,-115.91 375.83,-101.7 327.15,-90.82"/>
<polygon fill="#63b8ff" stroke="#63b8ff" points="328.06,-87.44 317.54,-88.67 326.54,-94.27 328.06,-87.44"/>
</a>
</g>
</g>
<!-- Node6 -->
<g id="Node000006" class="node">
<title>Node6</title>
<g id="a_Node000006"><a xlink:href="preprocessor_8hpp.html" target="_top" xlink:title=" ">
<polygon fill="white" stroke="#666666" points="476.5,-90.25 333.75,-90.25 333.75,-56.75 476.5,-56.75 476.5,-90.25"/>
<text text-anchor="start" x="341.75" y="-76.75" font-family="Helvetica,sans-Serif" font-size="10.00">proxsuite/linalg/veg</text>
<text text-anchor="middle" x="405.12" y="-64" font-family="Helvetica,sans-Serif" font-size="10.00">/internal/preprocessor.hpp</text>
</a>
</g>
</g>
<!-- Node1&#45;&gt;Node6 -->
<g id="edge5_Node000001_Node000006" class="edge">
<title>Node1&#45;&gt;Node6</title>
<g id="a_edge5_Node000001_Node000006"><a xlink:title=" ">
<path fill="none" stroke="#63b8ff" d="M519.96,-125.83C499.49,-116.68 473.67,-105.14 451.7,-95.32"/>
<polygon fill="#63b8ff" stroke="#63b8ff" points="453.2,-92.16 442.64,-91.27 450.34,-98.55 453.2,-92.16"/>
</a>
</g>
</g>
<!-- Node7 -->
<g id="Node000007" class="node">
<title>Node7</title>
<g id="a_Node000007"><a xlink:href="prologue_8hpp.html" target="_top" xlink:title=" ">
<polygon fill="white" stroke="#666666" points="617.75,-90.25 494.5,-90.25 494.5,-56.75 617.75,-56.75 617.75,-90.25"/>
<text text-anchor="start" x="502.5" y="-76.75" font-family="Helvetica,sans-Serif" font-size="10.00">proxsuite/linalg/veg</text>
<text text-anchor="middle" x="556.12" y="-64" font-family="Helvetica,sans-Serif" font-size="10.00">/internal/prologue.hpp</text>
</a>
</g>
</g>
<!-- Node1&#45;&gt;Node7 -->
<g id="edge6_Node000001_Node000007" class="edge">
<title>Node1&#45;&gt;Node7</title>
<g id="a_edge6_Node000001_Node000007"><a xlink:title=" ">
<path fill="none" stroke="#63b8ff" d="M556.12,-126C556.12,-118.77 556.12,-110.03 556.12,-101.81"/>
<polygon fill="#63b8ff" stroke="#63b8ff" points="559.63,-101.9 556.13,-91.9 552.63,-101.9 559.63,-101.9"/>
</a>
</g>
</g>
<!-- Node8 -->
<g id="Node000008" class="node">
<title>Node8</title>
<g id="a_Node000008"><a xlink:title=" ">
<polygon fill="#e0e0e0" stroke="#999999" points="718.12,-83.88 636.12,-83.88 636.12,-63.12 718.12,-63.12 718.12,-83.88"/>
<text text-anchor="middle" x="677.12" y="-70.38" font-family="Helvetica,sans-Serif" font-size="10.00">initializer_list</text>
</a>
</g>
</g>
<!-- Node1&#45;&gt;Node8 -->
<g id="edge7_Node000001_Node000008" class="edge">
<title>Node1&#45;&gt;Node8</title>
<g id="a_edge7_Node000001_Node000008"><a xlink:title=" ">
<path fill="none" stroke="#63b8ff" d="M585.11,-125.83C604.69,-114.91 630.39,-100.57 649.65,-89.83"/>
<polygon fill="#63b8ff" stroke="#63b8ff" points="651.26,-92.94 658.29,-85.01 647.85,-86.82 651.26,-92.94"/>
</a>
</g>
</g>
<!-- Node9 -->
<g id="Node000009" class="node">
<title>Node9</title>
<g id="a_Node000009"><a xlink:title=" ">
<polygon fill="#e0e0e0" stroke="#999999" points="780.38,-83.88 735.88,-83.88 735.88,-63.12 780.38,-63.12 780.38,-83.88"/>
<text text-anchor="middle" x="758.12" y="-70.38" font-family="Helvetica,sans-Serif" font-size="10.00">utility</text>
</a>
</g>
</g>
<!-- Node1&#45;&gt;Node9 -->
<g id="edge8_Node000001_Node000009" class="edge">
<title>Node1&#45;&gt;Node9</title>
<g id="a_edge8_Node000001_Node000009"><a xlink:title=" ">
<path fill="none" stroke="#63b8ff" d="M619.17,-125.79C651.86,-116.67 692.16,-104.3 727.12,-90.25 728.06,-89.88 729,-89.48 729.94,-89.08"/>
<polygon fill="#63b8ff" stroke="#63b8ff" points="731.06,-92.42 738.64,-85.01 728.1,-86.08 731.06,-92.42"/>
</a>
</g>
</g>
<!-- Node10 -->
<g id="Node000010" class="node">
<title>Node10</title>
<g id="a_Node000010"><a xlink:href="epilogue_8hpp.html" target="_top" xlink:title=" ">
<polygon fill="white" stroke="#666666" points="921.38,-90.25 798.88,-90.25 798.88,-56.75 921.38,-56.75 921.38,-90.25"/>
<text text-anchor="start" x="806.88" y="-76.75" font-family="Helvetica,sans-Serif" font-size="10.00">proxsuite/linalg/veg</text>
<text text-anchor="middle" x="860.12" y="-64" font-family="Helvetica,sans-Serif" font-size="10.00">/internal/epilogue.hpp</text>
</a>
</g>
</g>
<!-- Node1&#45;&gt;Node10 -->
<g id="edge9_Node000001_Node000010" class="edge">
<title>Node1&#45;&gt;Node10</title>
<g id="a_edge9_Node000001_Node000010"><a xlink:title=" ">
<path fill="none" stroke="#63b8ff" d="M625.11,-126.68C673.46,-115.95 737.97,-101.62 787.18,-90.7"/>
<polygon fill="#63b8ff" stroke="#63b8ff" points="787.9,-94.12 796.9,-88.54 786.38,-87.29 787.9,-94.12"/>
</a>
</g>
</g>
<!-- Node4 -->
<g id="Node000004" class="node">
<title>Node4</title>
<g id="a_Node000004"><a xlink:title=" ">
<polygon fill="#e0e0e0" stroke="#999999" points="243.62,-20.75 194.62,-20.75 194.62,0 243.62,0 243.62,-20.75"/>
<text text-anchor="middle" x="219.12" y="-7.25" font-family="Helvetica,sans-Serif" font-size="10.00">cstdint</text>
</a>
</g>
</g>
<!-- Node3&#45;&gt;Node4 -->
<g id="edge3_Node000003_Node000004" class="edge">
<title>Node3&#45;&gt;Node4</title>
<g id="a_edge3_Node000003_Node000004"><a xlink:title=" ">
<path fill="none" stroke="#63b8ff" d="M244.93,-56.44C240.48,-48.67 235.1,-39.27 230.4,-31.07"/>
<polygon fill="#63b8ff" stroke="#63b8ff" points="233.52,-29.47 225.51,-22.53 227.44,-32.95 233.52,-29.47"/>
</a>
</g>
</g>
<!-- Node5 -->
<g id="Node000005" class="node">
<title>Node5</title>
<g id="a_Node000005"><a xlink:title=" ">
<polygon fill="#e0e0e0" stroke="#999999" points="314.12,-20.75 262.12,-20.75 262.12,0 314.12,0 314.12,-20.75"/>
<text text-anchor="middle" x="288.12" y="-7.25" font-family="Helvetica,sans-Serif" font-size="10.00">cstddef</text>
</a>
</g>
</g>
<!-- Node3&#45;&gt;Node5 -->
<g id="edge4_Node000003_Node000005" class="edge">
<title>Node3&#45;&gt;Node5</title>
<g id="a_edge4_Node000003_Node000005"><a xlink:title=" ">
<path fill="none" stroke="#63b8ff" d="M263.06,-56.44C267.38,-48.67 272.61,-39.27 277.17,-31.07"/>
<polygon fill="#63b8ff" stroke="#63b8ff" points="280.11,-32.98 281.91,-22.54 274,-29.58 280.11,-32.98"/>
</a>
</g>
</g>
</g>
</svg>
