<?xml version="1.0" encoding="UTF-8" standalone="no"?>
<!DOCTYPE svg PUBLIC "-//W3C//DTD SVG 1.1//EN"
 "http://www.w3.org/Graphics/SVG/1.1/DTD/svg11.dtd">
<!-- Generated by graphviz version 7.0.6 (20230107.1202)
 -->
<!-- Title: include/proxsuite/linalg/veg/internal/macros.hpp Pages: 1 -->
<svg width="872pt" height="159pt"
 viewBox="0.00 0.00 872.00 159.00" xmlns="http://www.w3.org/2000/svg" xmlns:xlink="http://www.w3.org/1999/xlink">
<g id="graph0" class="graph" transform="scale(1 1) rotate(0) translate(4 155)">
<title>include/proxsuite/linalg/veg/internal/macros.hpp</title>
<!-- Node1 -->
<g id="node1" class="node">
<title>Node1</title>
<g id="a_node1"><a xlink:title=" ">
<polygon fill="#999999" stroke="#666666" points="552.5,-151 414.5,-151 414.5,-121 552.5,-121 552.5,-151"/>
<text text-anchor="start" x="422.5" y="-139" font-family="Helvetica,sans-Serif" font-size="10.00">include/proxsuite/linalg</text>
<text text-anchor="middle" x="483.5" y="-128" font-family="Helvetica,sans-Serif" font-size="10.00">/veg/internal/macros.hpp</text>
</a>
</g>
</g>
<!-- Node2 -->
<g id="node2" class="node">
<title>Node2</title>
<g id="a_node2"><a xlink:href="hedley_8ext_8hpp.html" target="_top" xlink:title=" ">
<polygon fill="white" stroke="#666666" points="175,-85 0,-85 0,-55 175,-55 175,-85"/>
<text text-anchor="start" x="8" y="-73" font-family="Helvetica,sans-Serif" font-size="10.00">proxsuite/linalg/veg</text>
<text text-anchor="middle" x="87.5" y="-62" font-family="Helvetica,sans-Serif" font-size="10.00">/internal/external/hedley.ext.hpp</text>
</a>
</g>
</g>
<!-- Node1&#45;&gt;Node2 -->
<g id="edge1" class="edge">
<title>Node1&#45;&gt;Node2</title>
<path fill="none" stroke="#63b8ff" d="M414.07,-123.78C351.01,-113.59 257.29,-98.44 186.41,-86.99"/>
<polygon fill="#63b8ff" stroke="#63b8ff" points="187.16,-83.56 176.73,-85.42 186.04,-90.47 187.16,-83.56"/>
</g>
<!-- Node3 -->
<g id="node3" class="node">
<title>Node3</title>
<g id="a_node3"><a xlink:href="typedefs_8hpp.html" target="_top" xlink:title=" ">
<polygon fill="white" stroke="#666666" points="317.5,-85 193.5,-85 193.5,-55 317.5,-55 317.5,-85"/>
<text text-anchor="start" x="201.5" y="-73" font-family="Helvetica,sans-Serif" font-size="10.00">proxsuite/linalg/veg</text>
<text text-anchor="middle" x="255.5" y="-62" font-family="Helvetica,sans-Serif" font-size="10.00">/internal/typedefs.hpp</text>
</a>
</g>
</g>
<!-- Node1&#45;&gt;Node3 -->
<g id="edge2" class="edge">
<title>Node1&#45;&gt;Node3</title>
<path fill="none" stroke="#63b8ff" d="M432.05,-120.56C398.13,-111.04 353.5,-98.51 317.6,-88.43"/>
<polygon fill="#63b8ff" stroke="#63b8ff" points="318.8,-85.13 308.22,-85.8 316.9,-91.87 318.8,-85.13"/>
</g>
<!-- Node6 -->
<g id="node6" class="node">
<title>Node6</title>
<g id="a_node6"><a xlink:href="preprocessor_8hpp.html" target="_top" xlink:title=" ">
<polygon fill="white" stroke="#666666" points="479,-85 336,-85 336,-55 479,-55 479,-85"/>
<text text-anchor="start" x="344" y="-73" font-family="Helvetica,sans-Serif" font-size="10.00">proxsuite/linalg/veg</text>
<text text-anchor="middle" x="407.5" y="-62" font-family="Helvetica,sans-Serif" font-size="10.00">/internal/preprocessor.hpp</text>
</a>
</g>
</g>
<!-- Node1&#45;&gt;Node6 -->
<g id="edge5" class="edge">
<title>Node1&#45;&gt;Node6</title>
<path fill="none" stroke="#63b8ff" d="M466.63,-120.8C456.86,-112.57 444.36,-102.04 433.37,-92.78"/>
<polygon fill="#63b8ff" stroke="#63b8ff" points="435.64,-90.12 425.74,-86.36 431.13,-95.48 435.64,-90.12"/>
</g>
<!-- Node7 -->
<g id="node7" class="node">
<title>Node7</title>
<g id="a_node7"><a xlink:href="prologue_8hpp.html" target="_top" xlink:title=" ">
<polygon fill="white" stroke="#666666" points="621.5,-85 497.5,-85 497.5,-55 621.5,-55 621.5,-85"/>
<text text-anchor="start" x="505.5" y="-73" font-family="Helvetica,sans-Serif" font-size="10.00">proxsuite/linalg/veg</text>
<text text-anchor="middle" x="559.5" y="-62" font-family="Helvetica,sans-Serif" font-size="10.00">/internal/prologue.hpp</text>
</a>
</g>
</g>
<!-- Node1&#45;&gt;Node7 -->
<g id="edge6" class="edge">
<title>Node1&#45;&gt;Node7</title>
<path fill="none" stroke="#63b8ff" d="M500.37,-120.8C510.14,-112.57 522.64,-102.04 533.63,-92.78"/>
<polygon fill="#63b8ff" stroke="#63b8ff" points="535.87,-95.48 541.26,-86.36 531.36,-90.12 535.87,-95.48"/>
</g>
<!-- Node8 -->
<g id="node8" class="node">
<title>Node8</title>
<g id="a_node8"><a xlink:title=" ">
<polygon fill="#e0e0e0" stroke="#999999" points="723,-79.5 640,-79.5 640,-60.5 723,-60.5 723,-79.5"/>
<text text-anchor="middle" x="681.5" y="-67.5" font-family="Helvetica,sans-Serif" font-size="10.00">initializer_list</text>
</a>
</g>
</g>
<!-- Node1&#45;&gt;Node8 -->
<g id="edge7" class="edge">
<title>Node1&#45;&gt;Node8</title>
<path fill="none" stroke="#63b8ff" d="M527.94,-120.64C562.56,-109.45 610.13,-94.07 643.11,-83.41"/>
<polygon fill="#63b8ff" stroke="#63b8ff" points="643.82,-86.86 652.26,-80.45 641.67,-80.2 643.82,-86.86"/>
</g>
<!-- Node9 -->
<g id="node9" class="node">
<title>Node9</title>
<g id="a_node9"><a xlink:href="epilogue_8hpp.html" target="_top" xlink:title=" ">
<polygon fill="white" stroke="#666666" points="864,-85 741,-85 741,-55 864,-55 864,-85"/>
<text text-anchor="start" x="749" y="-73" font-family="Helvetica,sans-Serif" font-size="10.00">proxsuite/linalg/veg</text>
<text text-anchor="middle" x="802.5" y="-62" font-family="Helvetica,sans-Serif" font-size="10.00">/internal/epilogue.hpp</text>
</a>
</g>
</g>
<!-- Node1&#45;&gt;Node9 -->
<g id="edge8" class="edge">
<title>Node1&#45;&gt;Node9</title>
<path fill="none" stroke="#63b8ff" d="M552.72,-121.11C604.98,-110.63 676.53,-96.27 729.66,-85.61"/>
<polygon fill="#63b8ff" stroke="#63b8ff" points="730.1,-89.1 739.22,-83.7 728.72,-82.23 730.1,-89.1"/>
</g>
<!-- Node4 -->
<g id="node4" class="node">
<title>Node4</title>
<g id="a_node4"><a xlink:title=" ">
<polygon fill="#e0e0e0" stroke="#999999" points="245.5,-19 195.5,-19 195.5,0 245.5,0 245.5,-19"/>
<text text-anchor="middle" x="220.5" y="-7" font-family="Helvetica,sans-Serif" font-size="10.00">cstdint</text>
</a>
</g>
</g>
<!-- Node3&#45;&gt;Node4 -->
<g id="edge3" class="edge">
<title>Node3&#45;&gt;Node4</title>
<path fill="none" stroke="#63b8ff" d="M246.85,-54.54C242.23,-46.82 236.5,-37.24 231.56,-28.99"/>
<polygon fill="#63b8ff" stroke="#63b8ff" points="234.61,-27.26 226.47,-20.47 228.6,-30.85 234.61,-27.26"/>
</g>
<!-- Node5 -->
<g id="node5" class="node">
<title>Node5</title>
<g id="a_node5"><a xlink:title=" ">
<polygon fill="#e0e0e0" stroke="#999999" points="317,-19 264,-19 264,0 317,0 317,-19"/>
<text text-anchor="middle" x="290.5" y="-7" font-family="Helvetica,sans-Serif" font-size="10.00">cstddef</text>
</a>
</g>
</g>
<!-- Node3&#45;&gt;Node5 -->
<g id="edge4" class="edge">
<title>Node3&#45;&gt;Node5</title>
<path fill="none" stroke="#63b8ff" d="M264.15,-54.54C268.77,-46.82 274.5,-37.24 279.44,-28.99"/>
<polygon fill="#63b8ff" stroke="#63b8ff" points="282.4,-30.85 284.53,-20.47 276.39,-27.26 282.4,-30.85"/>
</g>
</g>
</svg>
