<?xml version="1.0" encoding="UTF-8" standalone="no"?>
<!DOCTYPE svg PUBLIC "-//W3C//DTD SVG 1.1//EN"
 "http://www.w3.org/Graphics/SVG/1.1/DTD/svg11.dtd">
<!-- Generated by graphviz version 7.1.0 (20230122.1345)
 -->
<!-- Title: include/proxsuite/linalg/veg/memory/alloc.hpp Pages: 1 -->
<svg width="1646pt" height="621pt"
 viewBox="0.00 0.00 1645.50 621.00" xmlns="http://www.w3.org/2000/svg" xmlns:xlink="http://www.w3.org/1999/xlink">
<g id="graph0" class="graph" transform="scale(1 1) rotate(0) translate(4 617)">
<title>include/proxsuite/linalg/veg/memory/alloc.hpp</title>
<!-- Node1 -->
<g id="node1" class="node">
<title>Node1</title>
<g id="a_node1"><a xlink:title=" ">
<polygon fill="#999999" stroke="#666666" points="1088.5,-613 957.5,-613 957.5,-583 1088.5,-583 1088.5,-613"/>
<text text-anchor="start" x="965.5" y="-601" font-family="Helvetica,sans-Serif" font-size="10.00">include/proxsuite/linalg</text>
<text text-anchor="middle" x="1023" y="-590" font-family="Helvetica,sans-Serif" font-size="10.00">/veg/memory/alloc.hpp</text>
</a>
</g>
</g>
<!-- Node2 -->
<g id="node2" class="node">
<title>Node2</title>
<g id="a_node2"><a xlink:href="fwd_8hpp.html" target="_top" xlink:title=" ">
<polygon fill="white" stroke="#666666" points="104,-541.5 0,-541.5 0,-522.5 104,-522.5 104,-541.5"/>
<text text-anchor="middle" x="52" y="-529.5" font-family="Helvetica,sans-Serif" font-size="10.00">proxsuite/fwd.hpp</text>
</a>
</g>
</g>
<!-- Node1&#45;&gt;Node2 -->
<g id="edge1" class="edge">
<title>Node1&#45;&gt;Node2</title>
<path fill="none" stroke="#63b8ff" d="M957.1,-596.82C807.33,-595.66 430.17,-588.48 118,-547 112.27,-546.24 106.29,-545.25 100.38,-544.15"/>
<polygon fill="#63b8ff" stroke="#63b8ff" points="101.15,-540.73 90.66,-542.22 99.79,-547.6 101.15,-540.73"/>
</g>
<!-- Node4 -->
<g id="node4" class="node">
<title>Node4</title>
<g id="a_node4"><a xlink:href="ref_8hpp.html" target="_top" xlink:title=" ">
<polygon fill="white" stroke="#666666" points="972.5,-415 859.5,-415 859.5,-385 972.5,-385 972.5,-415"/>
<text text-anchor="start" x="867.5" y="-403" font-family="Helvetica,sans-Serif" font-size="10.00">proxsuite/linalg/veg</text>
<text text-anchor="middle" x="916" y="-392" font-family="Helvetica,sans-Serif" font-size="10.00">/ref.hpp</text>
</a>
</g>
</g>
<!-- Node1&#45;&gt;Node4 -->
<g id="edge3" class="edge">
<title>Node1&#45;&gt;Node4</title>
<path fill="none" stroke="#63b8ff" d="M995.14,-582.5C963.12,-563.98 912.6,-528.54 894,-481 886.85,-462.73 893.53,-441.26 901.35,-425.17"/>
<polygon fill="#63b8ff" stroke="#63b8ff" points="904.2,-427.26 905.81,-416.79 898.02,-423.97 904.2,-427.26"/>
</g>
<!-- Node7 -->
<g id="node7" class="node">
<title>Node7</title>
<g id="a_node7"><a xlink:href="typedefs_8hpp.html" target="_top" xlink:title=" ">
<polygon fill="white" stroke="#666666" points="398,-85 274,-85 274,-55 398,-55 398,-85"/>
<text text-anchor="start" x="282" y="-73" font-family="Helvetica,sans-Serif" font-size="10.00">proxsuite/linalg/veg</text>
<text text-anchor="middle" x="336" y="-62" font-family="Helvetica,sans-Serif" font-size="10.00">/internal/typedefs.hpp</text>
</a>
</g>
</g>
<!-- Node1&#45;&gt;Node7 -->
<g id="edge46" class="edge">
<title>Node1&#45;&gt;Node7</title>
<path fill="none" stroke="#63b8ff" d="M957.13,-597.73C840.69,-597.72 591.47,-591.83 387,-547 286.6,-524.99 170,-569.79 170,-467 170,-467 170,-467 170,-201 170,-144.51 230.33,-108.88 278.25,-89.5"/>
<polygon fill="#63b8ff" stroke="#63b8ff" points="279.41,-92.8 287.46,-85.92 276.88,-86.27 279.41,-92.8"/>
</g>
<!-- Node9 -->
<g id="node9" class="node">
<title>Node9</title>
<g id="a_node9"><a xlink:title=" ">
<polygon fill="#e0e0e0" stroke="#999999" points="225.5,-19 172.5,-19 172.5,0 225.5,0 225.5,-19"/>
<text text-anchor="middle" x="199" y="-7" font-family="Helvetica,sans-Serif" font-size="10.00">cstddef</text>
</a>
</g>
</g>
<!-- Node1&#45;&gt;Node9 -->
<g id="edge72" class="edge">
<title>Node1&#45;&gt;Node9</title>
<path fill="none" stroke="#63b8ff" d="M957.22,-596.46C771.13,-594.47 250.14,-585.48 184,-547 147.35,-525.67 132,-509.41 132,-467 132,-467 132,-467 132,-135 132,-92.47 162.69,-50.49 182.52,-27.79"/>
<polygon fill="#63b8ff" stroke="#63b8ff" points="185.09,-30.17 189.22,-20.41 179.91,-25.46 185.09,-30.17"/>
</g>
<!-- Node11 -->
<g id="node11" class="node">
<title>Node11</title>
<g id="a_node11"><a xlink:href="macros_8hpp.html" target="_top" xlink:title=" ">
<polygon fill="white" stroke="#666666" points="999.5,-151 882.5,-151 882.5,-121 999.5,-121 999.5,-151"/>
<text text-anchor="start" x="890.5" y="-139" font-family="Helvetica,sans-Serif" font-size="10.00">proxsuite/linalg/veg</text>
<text text-anchor="middle" x="941" y="-128" font-family="Helvetica,sans-Serif" font-size="10.00">/internal/macros.hpp</text>
</a>
</g>
</g>
<!-- Node1&#45;&gt;Node11 -->
<g id="edge47" class="edge">
<title>Node1&#45;&gt;Node11</title>
<path fill="none" stroke="#63b8ff" d="M1071.44,-582.55C1095.08,-574.22 1123.26,-562.34 1146,-547 1249.91,-476.9 1356.71,-436.1 1312,-319 1283.83,-245.21 1261.76,-225.86 1193,-187 1137.02,-155.36 1064.17,-143.5 1011.2,-139.17"/>
<polygon fill="#63b8ff" stroke="#63b8ff" points="1011.62,-135.7 1001.39,-138.45 1011.1,-142.68 1011.62,-135.7"/>
</g>
<!-- Node14 -->
<g id="node14" class="node">
<title>Node14</title>
<g id="a_node14"><a xlink:href="prologue_8hpp.html" target="_top" xlink:title=" ">
<polygon fill="white" stroke="#666666" points="1290,-85 1166,-85 1166,-55 1290,-55 1290,-85"/>
<text text-anchor="start" x="1174" y="-73" font-family="Helvetica,sans-Serif" font-size="10.00">proxsuite/linalg/veg</text>
<text text-anchor="middle" x="1228" y="-62" font-family="Helvetica,sans-Serif" font-size="10.00">/internal/prologue.hpp</text>
</a>
</g>
</g>
<!-- Node1&#45;&gt;Node14 -->
<g id="edge75" class="edge">
<title>Node1&#45;&gt;Node14</title>
<path fill="none" stroke="#63b8ff" d="M1088.91,-592.16C1216.1,-580.99 1483,-547.91 1483,-467 1483,-467 1483,-467 1483,-201 1483,-118.99 1377.03,-88.69 1301.72,-77.51"/>
<polygon fill="#63b8ff" stroke="#63b8ff" points="1302.27,-74.06 1291.88,-76.15 1301.3,-80.99 1302.27,-74.06"/>
</g>
<!-- Node16 -->
<g id="node16" class="node">
<title>Node16</title>
<g id="a_node16"><a xlink:href="epilogue_8hpp.html" target="_top" xlink:title=" ">
<polygon fill="white" stroke="#666666" points="676.5,-85 553.5,-85 553.5,-55 676.5,-55 676.5,-85"/>
<text text-anchor="start" x="561.5" y="-73" font-family="Helvetica,sans-Serif" font-size="10.00">proxsuite/linalg/veg</text>
<text text-anchor="middle" x="615" y="-62" font-family="Helvetica,sans-Serif" font-size="10.00">/internal/epilogue.hpp</text>
</a>
</g>
</g>
<!-- Node1&#45;&gt;Node16 -->
<g id="edge76" class="edge">
<title>Node1&#45;&gt;Node16</title>
<path fill="none" stroke="#63b8ff" d="M957.09,-592.32C775.97,-578.59 284,-535.02 284,-467 284,-467 284,-467 284,-201 284,-149.77 321.63,-144.79 367,-121 421.43,-92.46 490.44,-80.18 541.84,-74.91"/>
<polygon fill="#63b8ff" stroke="#63b8ff" points="542.06,-78.41 551.68,-73.98 541.39,-71.44 542.06,-78.41"/>
</g>
<!-- Node17 -->
<g id="node17" class="node">
<title>Node17</title>
<g id="a_node17"><a xlink:href="constructible_8hpp.html" target="_top" xlink:title=" ">
<polygon fill="white" stroke="#666666" points="1096.5,-349 937.5,-349 937.5,-319 1096.5,-319 1096.5,-349"/>
<text text-anchor="start" x="945.5" y="-337" font-family="Helvetica,sans-Serif" font-size="10.00">proxsuite/linalg/veg</text>
<text text-anchor="middle" x="1017" y="-326" font-family="Helvetica,sans-Serif" font-size="10.00">/type_traits/constructible.hpp</text>
</a>
</g>
</g>
<!-- Node1&#45;&gt;Node17 -->
<g id="edge40" class="edge">
<title>Node1&#45;&gt;Node17</title>
<path fill="none" stroke="#63b8ff" d="M1053.25,-582.7C1067.45,-574.35 1083.16,-562.4 1092,-547 1127.95,-484.35 1141.33,-447.43 1105,-385 1097.39,-371.93 1084.96,-362 1071.79,-354.57"/>
<polygon fill="#63b8ff" stroke="#63b8ff" points="1073.5,-351.51 1063,-350.06 1070.3,-357.74 1073.5,-351.51"/>
</g>
<!-- Node23 -->
<g id="node23" class="node">
<title>Node23</title>
<g id="a_node23"><a xlink:href="assignable_8hpp.html" target="_top" xlink:title=" ">
<polygon fill="white" stroke="#666666" points="1302.5,-349 1153.5,-349 1153.5,-319 1302.5,-319 1302.5,-349"/>
<text text-anchor="start" x="1161.5" y="-337" font-family="Helvetica,sans-Serif" font-size="10.00">proxsuite/linalg/veg</text>
<text text-anchor="middle" x="1228" y="-326" font-family="Helvetica,sans-Serif" font-size="10.00">/type_traits/assignable.hpp</text>
</a>
</g>
</g>
<!-- Node1&#45;&gt;Node23 -->
<g id="edge41" class="edge">
<title>Node1&#45;&gt;Node23</title>
<path fill="none" stroke="#63b8ff" d="M1052.83,-582.67C1070.88,-573.46 1094,-560.69 1113,-547 1148.22,-521.62 1157.85,-514.87 1185,-481 1206.17,-454.59 1213.24,-447.41 1223,-415 1228.34,-397.27 1229.48,-376.35 1229.34,-360.36"/>
<polygon fill="#63b8ff" stroke="#63b8ff" points="1232.85,-360.63 1229.08,-350.73 1225.85,-360.82 1232.85,-360.63"/>
</g>
<!-- Node24 -->
<g id="node24" class="node">
<title>Node24</title>
<g id="a_node24"><a xlink:href="placement_8hpp.html" target="_top" xlink:title=" ">
<polygon fill="white" stroke="#666666" points="808.5,-481 671.5,-481 671.5,-451 808.5,-451 808.5,-481"/>
<text text-anchor="start" x="679.5" y="-469" font-family="Helvetica,sans-Serif" font-size="10.00">proxsuite/linalg/veg</text>
<text text-anchor="middle" x="740" y="-458" font-family="Helvetica,sans-Serif" font-size="10.00">/memory/placement.hpp</text>
</a>
</g>
</g>
<!-- Node1&#45;&gt;Node24 -->
<g id="edge48" class="edge">
<title>Node1&#45;&gt;Node24</title>
<path fill="none" stroke="#63b8ff" d="M957.43,-587.32C919.52,-579.91 871.8,-567.39 833,-547 804.97,-532.27 778.13,-507.67 760.55,-489.63"/>
<polygon fill="#63b8ff" stroke="#63b8ff" points="763.17,-487.3 753.75,-482.47 758.1,-492.13 763.17,-487.3"/>
</g>
<!-- Node27 -->
<g id="node27" class="node">
<title>Node27</title>
<g id="a_node27"><a xlink:href="type__traits_2alloc_8hpp.html" target="_top" xlink:title=" ">
<polygon fill="white" stroke="#666666" points="1082.5,-547 963.5,-547 963.5,-517 1082.5,-517 1082.5,-547"/>
<text text-anchor="start" x="971.5" y="-535" font-family="Helvetica,sans-Serif" font-size="10.00">proxsuite/linalg/veg</text>
<text text-anchor="middle" x="1023" y="-524" font-family="Helvetica,sans-Serif" font-size="10.00">/type_traits/alloc.hpp</text>
</a>
</g>
</g>
<!-- Node1&#45;&gt;Node27 -->
<g id="edge61" class="edge">
<title>Node1&#45;&gt;Node27</title>
<path fill="none" stroke="#63b8ff" d="M1023,-582.8C1023,-575.67 1023,-566.82 1023,-558.56"/>
<polygon fill="#63b8ff" stroke="#63b8ff" points="1026.5,-558.68 1023,-548.68 1019.5,-558.68 1026.5,-558.68"/>
</g>
<!-- Node29 -->
<g id="node29" class="node">
<title>Node29</title>
<g id="a_node29"><a xlink:title=" ">
<polygon fill="#e0e0e0" stroke="#999999" points="1560.5,-541.5 1511.5,-541.5 1511.5,-522.5 1560.5,-522.5 1560.5,-541.5"/>
<text text-anchor="middle" x="1536" y="-529.5" font-family="Helvetica,sans-Serif" font-size="10.00">cstdlib</text>
</a>
</g>
</g>
<!-- Node1&#45;&gt;Node29 -->
<g id="edge73" class="edge">
<title>Node1&#45;&gt;Node29</title>
<path fill="none" stroke="#63b8ff" d="M1088.99,-595.02C1181.32,-591.12 1353.82,-579.75 1497,-547 1499.02,-546.54 1501.07,-546 1503.13,-545.42"/>
<polygon fill="#63b8ff" stroke="#63b8ff" points="1504.11,-548.78 1512.56,-542.4 1501.97,-542.12 1504.11,-548.78"/>
</g>
<!-- Node30 -->
<g id="node30" class="node">
<title>Node30</title>
<g id="a_node30"><a xlink:title=" ">
<polygon fill="#e0e0e0" stroke="#999999" points="1637.5,-541.5 1578.5,-541.5 1578.5,-522.5 1637.5,-522.5 1637.5,-541.5"/>
<text text-anchor="middle" x="1608" y="-529.5" font-family="Helvetica,sans-Serif" font-size="10.00">malloc.h</text>
</a>
</g>
</g>
<!-- Node1&#45;&gt;Node30 -->
<g id="edge74" class="edge">
<title>Node1&#45;&gt;Node30</title>
<path fill="none" stroke="#63b8ff" d="M1088.7,-596.51C1192.27,-594.52 1399.31,-585.54 1570,-547 1571.89,-546.57 1573.81,-546.08 1575.73,-545.53"/>
<polygon fill="#63b8ff" stroke="#63b8ff" points="1576.73,-548.89 1585.15,-542.46 1574.56,-542.23 1576.73,-548.89"/>
</g>
<!-- Node3 -->
<g id="node3" class="node">
<title>Node3</title>
<g id="a_node3"><a xlink:title=" ">
<polygon fill="#e0e0e0" stroke="#999999" points="86.5,-475.5 17.5,-475.5 17.5,-456.5 86.5,-456.5 86.5,-475.5"/>
<text text-anchor="middle" x="52" y="-463.5" font-family="Helvetica,sans-Serif" font-size="10.00">Eigen/Core</text>
</a>
</g>
</g>
<!-- Node2&#45;&gt;Node3 -->
<g id="edge2" class="edge">
<title>Node2&#45;&gt;Node3</title>
<path fill="none" stroke="#63b8ff" d="M52,-522.1C52,-513.12 52,-498.95 52,-487.22"/>
<polygon fill="#63b8ff" stroke="#63b8ff" points="55.5,-487.34 52,-477.34 48.5,-487.34 55.5,-487.34"/>
</g>
<!-- Node5 -->
<g id="node5" class="node">
<title>Node5</title>
<g id="a_node5"><a xlink:href="tags_8hpp.html" target="_top" xlink:title=" ">
<polygon fill="white" stroke="#666666" points="880.5,-349 763.5,-349 763.5,-319 880.5,-319 880.5,-349"/>
<text text-anchor="start" x="771.5" y="-337" font-family="Helvetica,sans-Serif" font-size="10.00">proxsuite/linalg/veg</text>
<text text-anchor="middle" x="822" y="-326" font-family="Helvetica,sans-Serif" font-size="10.00">/type_traits/tags.hpp</text>
</a>
</g>
</g>
<!-- Node4&#45;&gt;Node5 -->
<g id="edge4" class="edge">
<title>Node4&#45;&gt;Node5</title>
<path fill="none" stroke="#63b8ff" d="M895.14,-384.8C882.57,-376.24 866.34,-365.19 852.37,-355.68"/>
<polygon fill="#63b8ff" stroke="#63b8ff" points="854.62,-352.97 844.38,-350.24 850.68,-358.76 854.62,-352.97"/>
</g>
<!-- Node4&#45;&gt;Node14 -->
<g id="edge38" class="edge">
<title>Node4&#45;&gt;Node14</title>
<path fill="none" stroke="#63b8ff" d="M972.89,-387.34C977.66,-386.5 982.41,-385.71 987,-385 1058.82,-373.96 1249.34,-385.8 1312,-349 1349.65,-326.89 1369,-312.66 1369,-269 1369,-269 1369,-269 1369,-201 1369,-148.36 1315.22,-111.16 1274.09,-90.4"/>
<polygon fill="#63b8ff" stroke="#63b8ff" points="1275.83,-87.35 1265.31,-86.14 1272.78,-93.65 1275.83,-87.35"/>
</g>
<!-- Node4&#45;&gt;Node16 -->
<g id="edge39" class="edge">
<title>Node4&#45;&gt;Node16</title>
<path fill="none" stroke="#63b8ff" d="M859.06,-391.3C843.78,-389.24 827.26,-387.03 812,-385 750.9,-376.89 585.5,-387.03 537,-349 452.84,-283 397.04,-207.46 460,-121 478.9,-95.04 511.53,-82.28 541.99,-76.11"/>
<polygon fill="#63b8ff" stroke="#63b8ff" points="542.37,-79.59 551.6,-74.38 541.14,-72.7 542.37,-79.59"/>
</g>
<!-- Node4&#45;&gt;Node17 -->
<g id="edge24" class="edge">
<title>Node4&#45;&gt;Node17</title>
<path fill="none" stroke="#63b8ff" d="M938.67,-384.64C952.31,-375.99 969.9,-364.85 984.95,-355.31"/>
<polygon fill="#63b8ff" stroke="#63b8ff" points="986.56,-358.43 993.13,-350.13 982.81,-352.52 986.56,-358.43"/>
</g>
<!-- Node20 -->
<g id="node20" class="node">
<title>Node20</title>
<g id="a_node20"><a xlink:href="address_8hpp.html" target="_top" xlink:title=" ">
<polygon fill="white" stroke="#666666" points="668.5,-349 545.5,-349 545.5,-319 668.5,-319 668.5,-349"/>
<text text-anchor="start" x="553.5" y="-337" font-family="Helvetica,sans-Serif" font-size="10.00">proxsuite/linalg/veg</text>
<text text-anchor="middle" x="607" y="-326" font-family="Helvetica,sans-Serif" font-size="10.00">/memory/address.hpp</text>
</a>
</g>
</g>
<!-- Node4&#45;&gt;Node20 -->
<g id="edge30" class="edge">
<title>Node4&#45;&gt;Node20</title>
<path fill="none" stroke="#63b8ff" d="M859.32,-387.26C808.88,-376.81 734.79,-361.47 679.93,-350.11"/>
<polygon fill="#63b8ff" stroke="#63b8ff" points="680.87,-346.73 670.37,-348.12 679.45,-353.58 680.87,-346.73"/>
</g>
<!-- Node6 -->
<g id="node6" class="node">
<title>Node6</title>
<g id="a_node6"><a xlink:href="veg_2type__traits_2core_8hpp.html" target="_top" xlink:title=" ">
<polygon fill="white" stroke="#666666" points="941.5,-283 824.5,-283 824.5,-253 941.5,-253 941.5,-283"/>
<text text-anchor="start" x="832.5" y="-271" font-family="Helvetica,sans-Serif" font-size="10.00">proxsuite/linalg/veg</text>
<text text-anchor="middle" x="883" y="-260" font-family="Helvetica,sans-Serif" font-size="10.00">/type_traits/core.hpp</text>
</a>
</g>
</g>
<!-- Node5&#45;&gt;Node6 -->
<g id="edge5" class="edge">
<title>Node5&#45;&gt;Node6</title>
<path fill="none" stroke="#63b8ff" d="M835.54,-318.8C843.2,-310.76 852.95,-300.53 861.62,-291.43"/>
<polygon fill="#63b8ff" stroke="#63b8ff" points="864.09,-293.91 868.46,-284.26 859.02,-289.08 864.09,-293.91"/>
</g>
<!-- Node5&#45;&gt;Node14 -->
<g id="edge22" class="edge">
<title>Node5&#45;&gt;Node14</title>
<path fill="none" stroke="#63b8ff" d="M868.14,-318.57C893.38,-309.83 924.75,-297.57 951,-283 1053.01,-226.39 1158.36,-134.92 1204.25,-93.12"/>
<polygon fill="#63b8ff" stroke="#63b8ff" points="1206.5,-95.81 1211.5,-86.47 1201.77,-90.65 1206.5,-95.81"/>
</g>
<!-- Node5&#45;&gt;Node16 -->
<g id="edge23" class="edge">
<title>Node5&#45;&gt;Node16</title>
<path fill="none" stroke="#63b8ff" d="M815.65,-318.54C807.9,-301.8 793.76,-273.87 777,-253 755.71,-226.5 684.66,-177.2 663,-151 648.78,-133.79 635.96,-111.93 627.15,-95.41"/>
<polygon fill="#63b8ff" stroke="#63b8ff" points="630.38,-94.03 622.67,-86.77 624.17,-97.26 630.38,-94.03"/>
</g>
<!-- Node6&#45;&gt;Node7 -->
<g id="edge6" class="edge">
<title>Node6&#45;&gt;Node7</title>
<path fill="none" stroke="#63b8ff" d="M841.05,-252.6C812.29,-242.69 773.29,-229.17 739,-217 611.66,-171.83 462.22,-117.29 386.1,-89.39"/>
<polygon fill="#63b8ff" stroke="#63b8ff" points="387.42,-86.15 376.83,-86 385.01,-92.72 387.42,-86.15"/>
</g>
<!-- Node10 -->
<g id="node10" class="node">
<title>Node10</title>
<g id="a_node10"><a xlink:href="integer__seq_8hpp.html" target="_top" xlink:title=" ">
<polygon fill="white" stroke="#666666" points="962,-217 824,-217 824,-187 962,-187 962,-217"/>
<text text-anchor="start" x="832" y="-205" font-family="Helvetica,sans-Serif" font-size="10.00">proxsuite/linalg/veg</text>
<text text-anchor="middle" x="893" y="-194" font-family="Helvetica,sans-Serif" font-size="10.00">/internal/integer_seq.hpp</text>
</a>
</g>
</g>
<!-- Node6&#45;&gt;Node10 -->
<g id="edge9" class="edge">
<title>Node6&#45;&gt;Node10</title>
<path fill="none" stroke="#63b8ff" d="M885.22,-252.8C886.35,-245.59 887.75,-236.61 889.05,-228.27"/>
<polygon fill="#63b8ff" stroke="#63b8ff" points="892.47,-229.08 890.55,-218.66 885.55,-228 892.47,-229.08"/>
</g>
<!-- Node6&#45;&gt;Node14 -->
<g id="edge20" class="edge">
<title>Node6&#45;&gt;Node14</title>
<path fill="none" stroke="#63b8ff" d="M925.75,-252.53C949.52,-243.7 979.22,-231.36 1004,-217 1064.3,-182.05 1068.99,-158.09 1128,-121 1146,-109.69 1166.89,-98.9 1184.92,-90.27"/>
<polygon fill="#63b8ff" stroke="#63b8ff" points="1186.23,-93.52 1193.79,-86.09 1183.25,-87.18 1186.23,-93.52"/>
</g>
<!-- Node6&#45;&gt;Node16 -->
<g id="edge21" class="edge">
<title>Node6&#45;&gt;Node16</title>
<path fill="none" stroke="#63b8ff" d="M848.59,-252.65C828.47,-243.61 802.99,-231.02 782,-217 725.22,-179.06 666.97,-123.63 636.53,-93.14"/>
<polygon fill="#63b8ff" stroke="#63b8ff" points="639.3,-90.96 629.78,-86.31 634.32,-95.88 639.3,-90.96"/>
</g>
<!-- Node8 -->
<g id="node8" class="node">
<title>Node8</title>
<g id="a_node8"><a xlink:title=" ">
<polygon fill="#e0e0e0" stroke="#999999" points="316,-19 266,-19 266,0 316,0 316,-19"/>
<text text-anchor="middle" x="291" y="-7" font-family="Helvetica,sans-Serif" font-size="10.00">cstdint</text>
</a>
</g>
</g>
<!-- Node7&#45;&gt;Node8 -->
<g id="edge7" class="edge">
<title>Node7&#45;&gt;Node8</title>
<path fill="none" stroke="#63b8ff" d="M324.88,-54.54C318.74,-46.56 311.07,-36.59 304.59,-28.16"/>
<polygon fill="#63b8ff" stroke="#63b8ff" points="307.47,-26.17 298.6,-20.37 301.92,-30.44 307.47,-26.17"/>
</g>
<!-- Node7&#45;&gt;Node9 -->
<g id="edge8" class="edge">
<title>Node7&#45;&gt;Node9</title>
<path fill="none" stroke="#63b8ff" d="M302.13,-54.54C280.14,-45.15 251.67,-32.99 230.22,-23.83"/>
<polygon fill="#63b8ff" stroke="#63b8ff" points="231.68,-20.65 221.11,-19.94 228.93,-27.09 231.68,-20.65"/>
</g>
<!-- Node10&#45;&gt;Node7 -->
<g id="edge10" class="edge">
<title>Node10&#45;&gt;Node7</title>
<path fill="none" stroke="#63b8ff" d="M830.99,-186.53C727.37,-162.34 519.49,-113.83 408.98,-88.03"/>
<polygon fill="#63b8ff" stroke="#63b8ff" points="409.95,-84.67 399.42,-85.8 408.36,-91.48 409.95,-84.67"/>
</g>
<!-- Node10&#45;&gt;Node11 -->
<g id="edge11" class="edge">
<title>Node10&#45;&gt;Node11</title>
<path fill="none" stroke="#63b8ff" d="M903.65,-186.8C909.49,-179.01 916.88,-169.16 923.54,-160.28"/>
<polygon fill="#63b8ff" stroke="#63b8ff" points="926.27,-162.47 929.47,-152.37 920.67,-158.27 926.27,-162.47"/>
</g>
<!-- Node10&#45;&gt;Node14 -->
<g id="edge18" class="edge">
<title>Node10&#45;&gt;Node14</title>
<path fill="none" stroke="#63b8ff" d="M931.8,-186.56C954.79,-177.45 984.19,-164.82 1009,-151 1029.36,-139.66 1030.95,-130.99 1052,-121 1084.22,-105.71 1122.03,-94.22 1154.32,-86.13"/>
<polygon fill="#63b8ff" stroke="#63b8ff" points="1155.14,-89.53 1164.03,-83.77 1153.49,-82.73 1155.14,-89.53"/>
</g>
<!-- Node10&#45;&gt;Node16 -->
<g id="edge19" class="edge">
<title>Node10&#45;&gt;Node16</title>
<path fill="none" stroke="#63b8ff" d="M865.7,-186.52C847.51,-176.74 823.15,-163.4 802,-151 780.3,-138.27 776.63,-131.99 754,-121 728.48,-108.61 699.06,-97.59 673.87,-89.07"/>
<polygon fill="#63b8ff" stroke="#63b8ff" points="675.02,-85.77 664.43,-85.93 672.82,-92.41 675.02,-85.77"/>
</g>
<!-- Node11&#45;&gt;Node7 -->
<g id="edge13" class="edge">
<title>Node11&#45;&gt;Node7</title>
<path fill="none" stroke="#63b8ff" d="M882.16,-128.78C771.13,-117.03 530.95,-91.62 409.5,-78.78"/>
<polygon fill="#63b8ff" stroke="#63b8ff" points="409.94,-75.3 399.63,-77.73 409.21,-82.26 409.94,-75.3"/>
</g>
<!-- Node12 -->
<g id="node12" class="node">
<title>Node12</title>
<g id="a_node12"><a xlink:href="hedley_8ext_8hpp.html" target="_top" xlink:title=" ">
<polygon fill="white" stroke="#666666" points="986.5,-85 811.5,-85 811.5,-55 986.5,-55 986.5,-85"/>
<text text-anchor="start" x="819.5" y="-73" font-family="Helvetica,sans-Serif" font-size="10.00">proxsuite/linalg/veg</text>
<text text-anchor="middle" x="899" y="-62" font-family="Helvetica,sans-Serif" font-size="10.00">/internal/external/hedley.ext.hpp</text>
</a>
</g>
</g>
<!-- Node11&#45;&gt;Node12 -->
<g id="edge12" class="edge">
<title>Node11&#45;&gt;Node12</title>
<path fill="none" stroke="#63b8ff" d="M931.68,-120.8C926.62,-113.09 920.24,-103.37 914.46,-94.56"/>
<polygon fill="#63b8ff" stroke="#63b8ff" points="917.54,-92.87 909.13,-86.43 911.69,-96.71 917.54,-92.87"/>
</g>
<!-- Node13 -->
<g id="node13" class="node">
<title>Node13</title>
<g id="a_node13"><a xlink:href="preprocessor_8hpp.html" target="_top" xlink:title=" ">
<polygon fill="white" stroke="#666666" points="1147.5,-85 1004.5,-85 1004.5,-55 1147.5,-55 1147.5,-85"/>
<text text-anchor="start" x="1012.5" y="-73" font-family="Helvetica,sans-Serif" font-size="10.00">proxsuite/linalg/veg</text>
<text text-anchor="middle" x="1076" y="-62" font-family="Helvetica,sans-Serif" font-size="10.00">/internal/preprocessor.hpp</text>
</a>
</g>
</g>
<!-- Node11&#45;&gt;Node13 -->
<g id="edge14" class="edge">
<title>Node11&#45;&gt;Node13</title>
<path fill="none" stroke="#63b8ff" d="M971.3,-120.64C990.23,-111.66 1014.84,-99.99 1035.45,-90.23"/>
<polygon fill="#63b8ff" stroke="#63b8ff" points="1036.9,-93.41 1044.44,-85.96 1033.9,-87.08 1036.9,-93.41"/>
</g>
<!-- Node11&#45;&gt;Node14 -->
<g id="edge15" class="edge">
<title>Node11&#45;&gt;Node14</title>
<path fill="none" stroke="#63b8ff" d="M999.77,-121.89C1044.58,-111.9 1106.55,-98.08 1154.62,-87.36"/>
<polygon fill="#63b8ff" stroke="#63b8ff" points="1155.11,-90.84 1164.1,-85.25 1153.58,-84.01 1155.11,-90.84"/>
</g>
<!-- Node15 -->
<g id="node15" class="node">
<title>Node15</title>
<g id="a_node15"><a xlink:title=" ">
<polygon fill="#e0e0e0" stroke="#999999" points="793.5,-79.5 710.5,-79.5 710.5,-60.5 793.5,-60.5 793.5,-79.5"/>
<text text-anchor="middle" x="752" y="-67.5" font-family="Helvetica,sans-Serif" font-size="10.00">initializer_list</text>
</a>
</g>
</g>
<!-- Node11&#45;&gt;Node15 -->
<g id="edge16" class="edge">
<title>Node11&#45;&gt;Node15</title>
<path fill="none" stroke="#63b8ff" d="M898.58,-120.64C865.68,-109.49 820.52,-94.2 789.05,-83.55"/>
<polygon fill="#63b8ff" stroke="#63b8ff" points="790.56,-80.36 779.97,-80.47 788.32,-86.99 790.56,-80.36"/>
</g>
<!-- Node11&#45;&gt;Node16 -->
<g id="edge17" class="edge">
<title>Node11&#45;&gt;Node16</title>
<path fill="none" stroke="#63b8ff" d="M882.34,-123.48C827.83,-112.78 746.47,-96.81 687.83,-85.3"/>
<polygon fill="#63b8ff" stroke="#63b8ff" points="688.76,-81.91 678.28,-83.42 687.41,-88.78 688.76,-81.91"/>
</g>
<!-- Node17&#45;&gt;Node6 -->
<g id="edge25" class="edge">
<title>Node17&#45;&gt;Node6</title>
<path fill="none" stroke="#63b8ff" d="M986.93,-318.64C968.13,-309.66 943.71,-297.99 923.25,-288.23"/>
<polygon fill="#63b8ff" stroke="#63b8ff" points="924.87,-285.12 914.34,-283.97 921.85,-291.44 924.87,-285.12"/>
</g>
<!-- Node17&#45;&gt;Node14 -->
<g id="edge26" class="edge">
<title>Node17&#45;&gt;Node14</title>
<path fill="none" stroke="#63b8ff" d="M1044.47,-318.51C1062.09,-308.95 1085.27,-295.85 1105,-283 1115.32,-276.28 1187.25,-227.29 1194,-217 1218.35,-179.9 1225.34,-127.45 1227.3,-96.56"/>
<polygon fill="#63b8ff" stroke="#63b8ff" points="1230.8,-96.78 1227.78,-86.63 1223.8,-96.45 1230.8,-96.78"/>
</g>
<!-- Node17&#45;&gt;Node16 -->
<g id="edge29" class="edge">
<title>Node17&#45;&gt;Node16</title>
<path fill="none" stroke="#63b8ff" d="M1008.96,-318.52C998.15,-300.43 977.23,-269.81 951,-253 898.36,-219.26 870.78,-245.25 815,-217 807.42,-213.16 702.93,-125.91 696,-121 681.2,-110.53 664.22,-99.85 649.63,-91.07"/>
<polygon fill="#63b8ff" stroke="#63b8ff" points="651.66,-88.2 641.28,-86.09 648.08,-94.21 651.66,-88.2"/>
</g>
<!-- Node18 -->
<g id="node18" class="node">
<title>Node18</title>
<g id="a_node18"><a xlink:title=" ">
<polygon fill="#e0e0e0" stroke="#999999" points="767.5,-277.5 730.5,-277.5 730.5,-258.5 767.5,-258.5 767.5,-277.5"/>
<text text-anchor="middle" x="749" y="-265.5" font-family="Helvetica,sans-Serif" font-size="10.00">new</text>
</a>
</g>
</g>
<!-- Node17&#45;&gt;Node18 -->
<g id="edge27" class="edge">
<title>Node17&#45;&gt;Node18</title>
<path fill="none" stroke="#63b8ff" d="M956.52,-318.56C901.2,-305.35 821.68,-286.36 778.92,-276.14"/>
<polygon fill="#63b8ff" stroke="#63b8ff" points="779.89,-272.78 769.35,-273.86 778.27,-279.59 779.89,-272.78"/>
</g>
<!-- Node19 -->
<g id="node19" class="node">
<title>Node19</title>
<g id="a_node19"><a xlink:title=" ">
<polygon fill="#e0e0e0" stroke="#999999" points="1226.5,-277.5 1157.5,-277.5 1157.5,-258.5 1226.5,-258.5 1226.5,-277.5"/>
<text text-anchor="middle" x="1192" y="-265.5" font-family="Helvetica,sans-Serif" font-size="10.00">type_traits</text>
</a>
</g>
</g>
<!-- Node17&#45;&gt;Node19 -->
<g id="edge28" class="edge">
<title>Node17&#45;&gt;Node19</title>
<path fill="none" stroke="#63b8ff" d="M1056.27,-318.64C1086.48,-307.59 1127.83,-292.47 1156.93,-281.83"/>
<polygon fill="#63b8ff" stroke="#63b8ff" points="1157.82,-285.23 1166.01,-278.51 1155.41,-278.65 1157.82,-285.23"/>
</g>
<!-- Node20&#45;&gt;Node6 -->
<g id="edge31" class="edge">
<title>Node20&#45;&gt;Node6</title>
<path fill="none" stroke="#63b8ff" d="M668.94,-318.64C711.72,-308.72 768.69,-295.51 813.1,-285.21"/>
<polygon fill="#63b8ff" stroke="#63b8ff" points="813.68,-288.67 822.63,-283 812.1,-281.85 813.68,-288.67"/>
</g>
<!-- Node20&#45;&gt;Node14 -->
<g id="edge35" class="edge">
<title>Node20&#45;&gt;Node14</title>
<path fill="none" stroke="#63b8ff" d="M622.36,-318.73C643.21,-300.27 682.41,-268.62 722,-253 826.02,-211.97 869.87,-264.7 971,-217 988.93,-208.54 989.02,-199.98 1004,-187 1021.42,-171.91 1063.91,-132.29 1084,-121 1107.81,-107.62 1135.84,-96.9 1160.8,-88.87"/>
<polygon fill="#63b8ff" stroke="#63b8ff" points="1161.71,-92.25 1170.21,-85.93 1159.63,-85.57 1161.71,-92.25"/>
</g>
<!-- Node20&#45;&gt;Node16 -->
<g id="edge37" class="edge">
<title>Node20&#45;&gt;Node16</title>
<path fill="none" stroke="#63b8ff" d="M591.68,-318.6C576.38,-302.39 556.77,-275.4 569,-253 583.18,-227.03 610.82,-242.97 625,-217 639.33,-190.76 617.15,-180.45 612,-151 609.7,-137.87 611.6,-134.33 612,-121 612.24,-113.13 612.68,-104.57 613.16,-96.79"/>
<polygon fill="#63b8ff" stroke="#63b8ff" points="616.64,-97.15 613.81,-86.94 609.66,-96.69 616.64,-97.15"/>
</g>
<!-- Node21 -->
<g id="node21" class="node">
<title>Node21</title>
<g id="a_node21"><a xlink:href="std_8hpp.html" target="_top" xlink:title=" ">
<polygon fill="white" stroke="#666666" points="615.5,-217 502.5,-217 502.5,-187 615.5,-187 615.5,-217"/>
<text text-anchor="start" x="510.5" y="-205" font-family="Helvetica,sans-Serif" font-size="10.00">proxsuite/linalg/veg</text>
<text text-anchor="middle" x="559" y="-194" font-family="Helvetica,sans-Serif" font-size="10.00">/internal/std.hpp</text>
</a>
</g>
</g>
<!-- Node20&#45;&gt;Node21 -->
<g id="edge32" class="edge">
<title>Node20&#45;&gt;Node21</title>
<path fill="none" stroke="#63b8ff" d="M622.23,-318.79C637.73,-302.52 657.81,-275.26 645,-253 637.52,-240 625.21,-230.06 612.22,-222.61"/>
<polygon fill="#63b8ff" stroke="#63b8ff" points="614.04,-219.61 603.56,-218.09 610.8,-225.82 614.04,-219.61"/>
</g>
<!-- Node22 -->
<g id="node22" class="node">
<title>Node22</title>
<g id="a_node22"><a xlink:title=" ">
<polygon fill="#e0e0e0" stroke="#999999" points="636,-277.5 578,-277.5 578,-258.5 636,-258.5 636,-277.5"/>
<text text-anchor="middle" x="607" y="-265.5" font-family="Helvetica,sans-Serif" font-size="10.00">memory</text>
</a>
</g>
</g>
<!-- Node20&#45;&gt;Node22 -->
<g id="edge36" class="edge">
<title>Node20&#45;&gt;Node22</title>
<path fill="none" stroke="#63b8ff" d="M607,-318.8C607,-310.09 607,-298.81 607,-289.18"/>
<polygon fill="#63b8ff" stroke="#63b8ff" points="610.5,-289.36 607,-279.36 603.5,-289.36 610.5,-289.36"/>
</g>
<!-- Node21&#45;&gt;Node8 -->
<g id="edge33" class="edge">
<title>Node21&#45;&gt;Node8</title>
<path fill="none" stroke="#63b8ff" d="M502.23,-194.86C438.23,-187.05 339.05,-172.01 308,-151 279.01,-131.38 274.97,-118.56 265,-85 261.2,-72.22 261.52,-67.87 265,-55 267.51,-45.74 272.48,-36.42 277.41,-28.73"/>
<polygon fill="#63b8ff" stroke="#63b8ff" points="280.19,-30.86 283.01,-20.64 274.44,-26.87 280.19,-30.86"/>
</g>
<!-- Node21&#45;&gt;Node15 -->
<g id="edge34" class="edge">
<title>Node21&#45;&gt;Node15</title>
<path fill="none" stroke="#63b8ff" d="M580.39,-186.59C617.17,-161.82 692.05,-111.38 729.55,-86.12"/>
<polygon fill="#63b8ff" stroke="#63b8ff" points="731.48,-89.04 737.82,-80.55 727.57,-83.24 731.48,-89.04"/>
</g>
<!-- Node23&#45;&gt;Node6 -->
<g id="edge42" class="edge">
<title>Node23&#45;&gt;Node6</title>
<path fill="none" stroke="#63b8ff" d="M1153.14,-319.11C1093.78,-308.1 1011.42,-292.82 953.28,-282.04"/>
<polygon fill="#63b8ff" stroke="#63b8ff" points="953.95,-278.6 943.48,-280.22 952.68,-285.49 953.95,-278.6"/>
</g>
<!-- Node23&#45;&gt;Node14 -->
<g id="edge43" class="edge">
<title>Node23&#45;&gt;Node14</title>
<path fill="none" stroke="#63b8ff" d="M1244.45,-318.57C1253.59,-309.42 1264.09,-296.74 1269,-283 1292.42,-217.5 1260.35,-135.57 1240.93,-95.45"/>
<polygon fill="#63b8ff" stroke="#63b8ff" points="1244.12,-94.01 1236.52,-86.64 1237.86,-97.15 1244.12,-94.01"/>
</g>
<!-- Node23&#45;&gt;Node16 -->
<g id="edge45" class="edge">
<title>Node23&#45;&gt;Node16</title>
<path fill="none" stroke="#63b8ff" d="M1234.83,-318.69C1242,-301.33 1250.41,-272.03 1236,-253 1135.1,-119.74 1033.05,-202.42 874,-151 837.07,-139.06 828.92,-132.95 792,-121 755.7,-109.25 714.72,-97.58 681.34,-88.47"/>
<polygon fill="#63b8ff" stroke="#63b8ff" points="682.36,-85.12 671.79,-85.88 680.53,-91.87 682.36,-85.12"/>
</g>
<!-- Node23&#45;&gt;Node19 -->
<g id="edge44" class="edge">
<title>Node23&#45;&gt;Node19</title>
<path fill="none" stroke="#63b8ff" d="M1220.01,-318.8C1214.84,-309.6 1208.05,-297.53 1202.45,-287.58"/>
<polygon fill="#63b8ff" stroke="#63b8ff" points="1205.67,-286.16 1197.72,-279.16 1199.57,-289.6 1205.67,-286.16"/>
</g>
<!-- Node24&#45;&gt;Node14 -->
<g id="edge57" class="edge">
<title>Node24&#45;&gt;Node14</title>
<path fill="none" stroke="#63b8ff" d="M808.91,-459.33C858.84,-453.21 926.97,-440.64 982,-415 1001.5,-405.91 1000.09,-393.16 1020,-385 1154.87,-329.7 1219.11,-420.75 1346,-349 1384.92,-326.99 1407,-313.71 1407,-269 1407,-269 1407,-269 1407,-201 1407,-142.73 1344.14,-107.87 1292.92,-89.14"/>
<polygon fill="#63b8ff" stroke="#63b8ff" points="1294.22,-85.88 1283.62,-85.88 1291.9,-92.49 1294.22,-85.88"/>
</g>
<!-- Node24&#45;&gt;Node16 -->
<g id="edge60" class="edge">
<title>Node24&#45;&gt;Node16</title>
<path fill="none" stroke="#63b8ff" d="M671.18,-455.83C561.68,-439.3 360,-400.02 360,-335 360,-335 360,-335 360,-201 360,-161.44 368.05,-145.64 399,-121 439.25,-88.95 496.36,-76.74 541.75,-72.39"/>
<polygon fill="#63b8ff" stroke="#63b8ff" points="541.84,-75.89 551.51,-71.57 541.25,-68.92 541.84,-75.89"/>
</g>
<!-- Node24&#45;&gt;Node17 -->
<g id="edge49" class="edge">
<title>Node24&#45;&gt;Node17</title>
<path fill="none" stroke="#63b8ff" d="M761.3,-450.61C775.73,-440.76 795.17,-427.31 812,-415 829.65,-402.09 831.54,-394.98 851,-385 878.19,-371.05 909.92,-360.3 938.31,-352.41"/>
<polygon fill="#63b8ff" stroke="#63b8ff" points="939.22,-355.79 947.96,-349.81 937.4,-349.03 939.22,-355.79"/>
</g>
<!-- Node24&#45;&gt;Node18 -->
<g id="edge58" class="edge">
<title>Node24&#45;&gt;Node18</title>
<path fill="none" stroke="#63b8ff" d="M694.38,-450.54C677.7,-442.79 660.58,-431.37 651,-415 644.27,-403.49 646.42,-397.52 651,-385 655.27,-373.33 706.43,-315.9 733.08,-286.47"/>
<polygon fill="#63b8ff" stroke="#63b8ff" points="735.63,-288.86 739.76,-279.11 730.45,-284.16 735.63,-288.86"/>
</g>
<!-- Node24&#45;&gt;Node20 -->
<g id="edge56" class="edge">
<title>Node24&#45;&gt;Node20</title>
<path fill="none" stroke="#63b8ff" d="M671.06,-451.16C650.71,-443.74 630.33,-432.37 617,-415 605.27,-399.72 603.27,-377.75 603.91,-360.7"/>
<polygon fill="#63b8ff" stroke="#63b8ff" points="607.4,-361.06 604.64,-350.83 600.42,-360.55 607.4,-361.06"/>
</g>
<!-- Node24&#45;&gt;Node21 -->
<g id="edge50" class="edge">
<title>Node24&#45;&gt;Node21</title>
<path fill="none" stroke="#63b8ff" d="M675.16,-450.52C624.76,-435.15 559.71,-405.05 537,-349 520.61,-308.55 535.75,-257.33 547.73,-227.56"/>
<polygon fill="#63b8ff" stroke="#63b8ff" points="550.82,-229.23 551.51,-218.65 544.38,-226.49 550.82,-229.23"/>
</g>
<!-- Node25 -->
<g id="node25" class="node">
<title>Node25</title>
<g id="a_node25"><a xlink:href="invocable_8hpp.html" target="_top" xlink:title=" ">
<polygon fill="white" stroke="#666666" points="802.5,-415 659.5,-415 659.5,-385 802.5,-385 802.5,-415"/>
<text text-anchor="start" x="667.5" y="-403" font-family="Helvetica,sans-Serif" font-size="10.00">proxsuite/linalg/veg</text>
<text text-anchor="middle" x="731" y="-392" font-family="Helvetica,sans-Serif" font-size="10.00">/type_traits/invocable.hpp</text>
</a>
</g>
</g>
<!-- Node24&#45;&gt;Node25 -->
<g id="edge51" class="edge">
<title>Node24&#45;&gt;Node25</title>
<path fill="none" stroke="#63b8ff" d="M738,-450.8C737,-443.67 735.76,-434.82 734.59,-426.56"/>
<polygon fill="#63b8ff" stroke="#63b8ff" points="738.06,-426.08 733.2,-416.66 731.13,-427.05 738.06,-426.08"/>
</g>
<!-- Node26 -->
<g id="node26" class="node">
<title>Node26</title>
<g id="a_node26"><a xlink:title=" ">
<polygon fill="#e0e0e0" stroke="#999999" points="1079,-409.5 1029,-409.5 1029,-390.5 1079,-390.5 1079,-409.5"/>
<text text-anchor="middle" x="1054" y="-397.5" font-family="Helvetica,sans-Serif" font-size="10.00">cstring</text>
</a>
</g>
</g>
<!-- Node24&#45;&gt;Node26 -->
<g id="edge59" class="edge">
<title>Node24&#45;&gt;Node26</title>
<path fill="none" stroke="#63b8ff" d="M808.78,-455.71C864.84,-447.37 945.75,-433.59 1015,-415 1016.73,-414.53 1018.5,-414.03 1020.27,-413.49"/>
<polygon fill="#63b8ff" stroke="#63b8ff" points="1021.26,-416.85 1029.66,-410.4 1019.07,-410.2 1021.26,-416.85"/>
</g>
<!-- Node25&#45;&gt;Node6 -->
<g id="edge52" class="edge">
<title>Node25&#45;&gt;Node6</title>
<path fill="none" stroke="#63b8ff" d="M731.6,-384.73C733.07,-367.15 738.09,-337.33 755,-319 770.5,-302.2 792.32,-290.97 813.57,-283.49"/>
<polygon fill="#63b8ff" stroke="#63b8ff" points="814.39,-286.91 822.82,-280.49 812.23,-280.25 814.39,-286.91"/>
</g>
<!-- Node25&#45;&gt;Node14 -->
<g id="edge54" class="edge">
<title>Node25&#45;&gt;Node14</title>
<path fill="none" stroke="#63b8ff" d="M796.33,-384.52C825.99,-376.45 860.87,-364.78 890,-349 898.85,-344.21 1124.6,-156.9 1202.14,-92.49"/>
<polygon fill="#63b8ff" stroke="#63b8ff" points="1204.22,-95.32 1209.67,-86.23 1199.74,-89.93 1204.22,-95.32"/>
</g>
<!-- Node25&#45;&gt;Node16 -->
<g id="edge55" class="edge">
<title>Node25&#45;&gt;Node16</title>
<path fill="none" stroke="#63b8ff" d="M659.12,-397.98C581.34,-392.32 462.94,-369.17 422,-283 391.1,-217.97 377.93,-177.94 422,-121 436.94,-101.7 493.98,-88.49 542.21,-80.52"/>
<polygon fill="#63b8ff" stroke="#63b8ff" points="542.48,-84.02 551.8,-78.99 541.37,-77.11 542.48,-84.02"/>
</g>
<!-- Node25&#45;&gt;Node17 -->
<g id="edge53" class="edge">
<title>Node25&#45;&gt;Node17</title>
<path fill="none" stroke="#63b8ff" d="M795.54,-384.56C838.92,-374.85 896.25,-362.02 941.71,-351.85"/>
<polygon fill="#63b8ff" stroke="#63b8ff" points="942.22,-355.32 951.22,-349.72 940.69,-348.49 942.22,-355.32"/>
</g>
<!-- Node27&#45;&gt;Node4 -->
<g id="edge63" class="edge">
<title>Node27&#45;&gt;Node4</title>
<path fill="none" stroke="#63b8ff" d="M963.28,-520.18C941.13,-512.95 918.21,-500.94 905,-481 894.2,-464.7 898.43,-442.42 904.52,-425.51"/>
<polygon fill="#63b8ff" stroke="#63b8ff" points="907.58,-427.28 908.09,-416.7 901.09,-424.65 907.58,-427.28"/>
</g>
<!-- Node27&#45;&gt;Node7 -->
<g id="edge66" class="edge">
<title>Node27&#45;&gt;Node7</title>
<path fill="none" stroke="#63b8ff" d="M963.23,-526.21C793.71,-511.83 322,-465.98 322,-401 322,-401 322,-401 322,-333 322,-246.24 329.75,-143.54 333.72,-96.65"/>
<polygon fill="#63b8ff" stroke="#63b8ff" points="337.18,-97.24 334.55,-86.98 330.21,-96.64 337.18,-97.24"/>
</g>
<!-- Node27&#45;&gt;Node11 -->
<g id="edge67" class="edge">
<title>Node27&#45;&gt;Node11</title>
<path fill="none" stroke="#63b8ff" d="M1051.42,-516.59C1065.41,-508.08 1081.31,-496.02 1091,-481 1130.2,-420.24 1132.03,-386.46 1106,-319 1078.84,-248.61 1010.42,-188.59 970.74,-158.22"/>
<polygon fill="#63b8ff" stroke="#63b8ff" points="972.86,-155.44 962.76,-152.24 968.66,-161.04 972.86,-155.44"/>
</g>
<!-- Node27&#45;&gt;Node14 -->
<g id="edge69" class="edge">
<title>Node27&#45;&gt;Node14</title>
<path fill="none" stroke="#63b8ff" d="M1082.57,-522.27C1198.89,-501.48 1445,-437.59 1445,-269 1445,-269 1445,-269 1445,-201 1445,-132.54 1364.53,-99.25 1301.6,-83.68"/>
<polygon fill="#63b8ff" stroke="#63b8ff" points="1302.48,-80.3 1291.95,-81.41 1300.88,-87.11 1302.48,-80.3"/>
</g>
<!-- Node27&#45;&gt;Node16 -->
<g id="edge71" class="edge">
<title>Node27&#45;&gt;Node16</title>
<path fill="none" stroke="#63b8ff" d="M963.32,-527.47C874.94,-521.44 714.18,-507.21 663,-481 590.81,-444.03 578.6,-418.62 537,-349 498.79,-285.05 464.77,-255.52 494,-187 511.65,-145.64 552.08,-111.94 581.36,-91.73"/>
<polygon fill="#63b8ff" stroke="#63b8ff" points="583.19,-94.72 589.55,-86.24 579.3,-88.9 583.19,-94.72"/>
</g>
<!-- Node27&#45;&gt;Node17 -->
<g id="edge64" class="edge">
<title>Node27&#45;&gt;Node17</title>
<path fill="none" stroke="#63b8ff" d="M1038.16,-516.64C1064.21,-490.16 1112.41,-432.04 1088,-385 1081.65,-372.77 1070.79,-362.9 1059.44,-355.26"/>
<polygon fill="#63b8ff" stroke="#63b8ff" points="1061.52,-352.43 1051.17,-350.16 1057.84,-358.39 1061.52,-352.43"/>
</g>
<!-- Node27&#45;&gt;Node23 -->
<g id="edge65" class="edge">
<title>Node27&#45;&gt;Node23</title>
<path fill="none" stroke="#63b8ff" d="M1082.92,-519.68C1108.81,-512.28 1137.93,-500.27 1159,-481 1194.96,-448.12 1213.89,-392.59 1222.35,-360.32"/>
<polygon fill="#63b8ff" stroke="#63b8ff" points="1225.73,-361.21 1224.73,-350.66 1218.94,-359.53 1225.73,-361.21"/>
</g>
<!-- Node27&#45;&gt;Node24 -->
<g id="edge68" class="edge">
<title>Node27&#45;&gt;Node24</title>
<path fill="none" stroke="#63b8ff" d="M963.33,-517.51C920.18,-507.75 861.57,-494.49 815.22,-484.01"/>
<polygon fill="#63b8ff" stroke="#63b8ff" points="816.02,-480.6 805.49,-481.81 814.48,-487.43 816.02,-480.6"/>
</g>
<!-- Node27&#45;&gt;Node26 -->
<g id="edge70" class="edge">
<title>Node27&#45;&gt;Node26</title>
<path fill="none" stroke="#63b8ff" d="M1032.86,-516.86C1038.99,-507.23 1046.39,-493.92 1050,-481 1055.55,-461.13 1056.01,-437.43 1055.42,-421"/>
<polygon fill="#63b8ff" stroke="#63b8ff" points="1058.92,-420.91 1054.88,-411.12 1051.93,-421.29 1058.92,-420.91"/>
</g>
<!-- Node28 -->
<g id="node28" class="node">
<title>Node28</title>
<g id="a_node28"><a xlink:href="has__asan_8hpp.html" target="_top" xlink:title=" ">
<polygon fill="white" stroke="#666666" points="1040.5,-481 913.5,-481 913.5,-451 1040.5,-451 1040.5,-481"/>
<text text-anchor="start" x="921.5" y="-469" font-family="Helvetica,sans-Serif" font-size="10.00">proxsuite/linalg/veg</text>
<text text-anchor="middle" x="977" y="-458" font-family="Helvetica,sans-Serif" font-size="10.00">/internal/has_asan.hpp</text>
</a>
</g>
</g>
<!-- Node27&#45;&gt;Node28 -->
<g id="edge62" class="edge">
<title>Node27&#45;&gt;Node28</title>
<path fill="none" stroke="#63b8ff" d="M1012.79,-516.8C1007.19,-509.01 1000.11,-499.16 993.73,-490.28"/>
<polygon fill="#63b8ff" stroke="#63b8ff" points="996.74,-488.47 988.06,-482.39 991.06,-492.56 996.74,-488.47"/>
</g>
</g>
</svg>
