<?xml version="1.0" encoding="UTF-8" standalone="no"?>
<!DOCTYPE svg PUBLIC "-//W3C//DTD SVG 1.1//EN"
 "http://www.w3.org/Graphics/SVG/1.1/DTD/svg11.dtd">
<!-- Generated by graphviz version 6.0.1 (20220911.2005)
 -->
<!-- Title: include/proxsuite/linalg/veg/memory/alloc.hpp Pages: 1 -->
<svg width="1580pt" height="621pt"
 viewBox="0.00 0.00 1579.78 621.00" xmlns="http://www.w3.org/2000/svg" xmlns:xlink="http://www.w3.org/1999/xlink">
<g id="graph0" class="graph" transform="scale(1 1) rotate(0) translate(4 617)">
<title>include/proxsuite/linalg/veg/memory/alloc.hpp</title>
<!-- Node1 -->
<g id="node1" class="node">
<title>Node1</title>
<g id="a_node1"><a xlink:title=" ">
<polygon fill="#999999" stroke="#666666" points="1273.78,-613 1142.78,-613 1142.78,-583 1273.78,-583 1273.78,-613"/>
<text text-anchor="start" x="1150.78" y="-601" font-family="Helvetica,sans-Serif" font-size="10.00">include/proxsuite/linalg</text>
<text text-anchor="middle" x="1208.28" y="-590" font-family="Helvetica,sans-Serif" font-size="10.00">/veg/memory/alloc.hpp</text>
</a>
</g>
</g>
<!-- Node2 -->
<g id="node2" class="node">
<title>Node2</title>
<g id="a_node2"><a xlink:href="ref_8hpp.html" target="_top" xlink:title=" ">
<polygon fill="white" stroke="#666666" points="677.78,-415 564.78,-415 564.78,-385 677.78,-385 677.78,-415"/>
<text text-anchor="start" x="572.78" y="-403" font-family="Helvetica,sans-Serif" font-size="10.00">proxsuite/linalg/veg</text>
<text text-anchor="middle" x="621.28" y="-392" font-family="Helvetica,sans-Serif" font-size="10.00">/ref.hpp</text>
</a>
</g>
</g>
<!-- Node1&#45;&gt;Node2 -->
<g id="edge1" class="edge">
<title>Node1&#45;&gt;Node2</title>
<path fill="none" stroke="#63b8ff" d="M1142.66,-594.45C1010.25,-588.76 720.6,-573.44 684.28,-547 644.58,-518.1 629.64,-458.86 624.21,-425.41"/>
<polygon fill="#63b8ff" stroke="#63b8ff" points="627.62,-424.52 622.72,-415.13 620.69,-425.53 627.62,-424.52"/>
</g>
<!-- Node5 -->
<g id="node5" class="node">
<title>Node5</title>
<g id="a_node5"><a xlink:href="typedefs_8hpp.html" target="_top" xlink:title=" ">
<polygon fill="white" stroke="#666666" points="1273.28,-85 1149.28,-85 1149.28,-55 1273.28,-55 1273.28,-85"/>
<text text-anchor="start" x="1157.28" y="-73" font-family="Helvetica,sans-Serif" font-size="10.00">proxsuite/linalg/veg</text>
<text text-anchor="middle" x="1211.28" y="-62" font-family="Helvetica,sans-Serif" font-size="10.00">/internal/typedefs.hpp</text>
</a>
</g>
</g>
<!-- Node1&#45;&gt;Node5 -->
<g id="edge44" class="edge">
<title>Node1&#45;&gt;Node5</title>
<path fill="none" stroke="#63b8ff" d="M1274.11,-588.33C1302.47,-581.46 1333.95,-569.12 1355.28,-547 1381.05,-520.28 1379.28,-504.12 1379.28,-467 1379.28,-467 1379.28,-467 1379.28,-201 1379.28,-143.43 1316.82,-107.74 1268.07,-88.64"/>
<polygon fill="#63b8ff" stroke="#63b8ff" points="1269.12,-85.3 1258.53,-85.04 1266.65,-91.85 1269.12,-85.3"/>
</g>
<!-- Node7 -->
<g id="node7" class="node">
<title>Node7</title>
<g id="a_node7"><a xlink:title=" ">
<polygon fill="#e0e0e0" stroke="#999999" points="1340.78,-19 1287.78,-19 1287.78,0 1340.78,0 1340.78,-19"/>
<text text-anchor="middle" x="1314.28" y="-7" font-family="Helvetica,sans-Serif" font-size="10.00">cstddef</text>
</a>
</g>
</g>
<!-- Node1&#45;&gt;Node7 -->
<g id="edge70" class="edge">
<title>Node1&#45;&gt;Node7</title>
<path fill="none" stroke="#63b8ff" d="M1274.09,-590.75C1308.73,-584.49 1349.98,-571.98 1379.28,-547 1409.24,-521.46 1417.28,-506.36 1417.28,-467 1417.28,-467 1417.28,-467 1417.28,-135 1417.28,-85.43 1368.2,-44.97 1337.8,-24.66"/>
<polygon fill="#63b8ff" stroke="#63b8ff" points="1339.34,-21.49 1329.04,-19.02 1335.55,-27.38 1339.34,-21.49"/>
</g>
<!-- Node9 -->
<g id="node9" class="node">
<title>Node9</title>
<g id="a_node9"><a xlink:href="macros_8hpp.html" target="_top" xlink:title=" ">
<polygon fill="white" stroke="#666666" points="249.78,-151 132.78,-151 132.78,-121 249.78,-121 249.78,-151"/>
<text text-anchor="start" x="140.78" y="-139" font-family="Helvetica,sans-Serif" font-size="10.00">proxsuite/linalg/veg</text>
<text text-anchor="middle" x="191.28" y="-128" font-family="Helvetica,sans-Serif" font-size="10.00">/internal/macros.hpp</text>
</a>
</g>
</g>
<!-- Node1&#45;&gt;Node9 -->
<g id="edge45" class="edge">
<title>Node1&#45;&gt;Node9</title>
<path fill="none" stroke="#63b8ff" d="M1142.6,-596.45C900.25,-593.55 70.28,-575.69 70.28,-467 70.28,-467 70.28,-467 70.28,-267 70.28,-230.46 66.47,-215.55 89.28,-187 100.45,-173.03 116.51,-162.68 132.59,-155.14"/>
<polygon fill="#63b8ff" stroke="#63b8ff" points="134.26,-158.23 142.02,-151.02 131.46,-151.81 134.26,-158.23"/>
</g>
<!-- Node12 -->
<g id="node12" class="node">
<title>Node12</title>
<g id="a_node12"><a xlink:href="prologue_8hpp.html" target="_top" xlink:title=" ">
<polygon fill="white" stroke="#666666" points="1039.28,-85 915.28,-85 915.28,-55 1039.28,-55 1039.28,-85"/>
<text text-anchor="start" x="923.28" y="-73" font-family="Helvetica,sans-Serif" font-size="10.00">proxsuite/linalg/veg</text>
<text text-anchor="middle" x="977.28" y="-62" font-family="Helvetica,sans-Serif" font-size="10.00">/internal/prologue.hpp</text>
</a>
</g>
</g>
<!-- Node1&#45;&gt;Node12 -->
<g id="edge73" class="edge">
<title>Node1&#45;&gt;Node12</title>
<path fill="none" stroke="#63b8ff" d="M1216.64,-582.6C1221.92,-572.85 1228.46,-559.52 1232.28,-547 1279.2,-393.41 1299.23,-343.52 1263.28,-187 1255.99,-155.23 1257.1,-140.91 1231.28,-121 1203.37,-99.48 1114.3,-85.56 1049.5,-78"/>
<polygon fill="#63b8ff" stroke="#63b8ff" points="1049.66,-74.5 1039.32,-76.85 1048.86,-81.45 1049.66,-74.5"/>
</g>
<!-- Node14 -->
<g id="node14" class="node">
<title>Node14</title>
<g id="a_node14"><a xlink:href="epilogue_8hpp.html" target="_top" xlink:title=" ">
<polygon fill="white" stroke="#666666" points="599.78,-85 476.78,-85 476.78,-55 599.78,-55 599.78,-85"/>
<text text-anchor="start" x="484.78" y="-73" font-family="Helvetica,sans-Serif" font-size="10.00">proxsuite/linalg/veg</text>
<text text-anchor="middle" x="538.28" y="-62" font-family="Helvetica,sans-Serif" font-size="10.00">/internal/epilogue.hpp</text>
</a>
</g>
</g>
<!-- Node1&#45;&gt;Node14 -->
<g id="edge74" class="edge">
<title>Node1&#45;&gt;Node14</title>
<path fill="none" stroke="#63b8ff" d="M1142.45,-596.05C925.13,-592.62 239.18,-579.32 145.28,-547 87.1,-526.97 32.28,-528.53 32.28,-467 32.28,-467 32.28,-467 32.28,-201 32.28,-147.15 73.95,-142.6 123.28,-121 261.08,-60.67 313.03,-105.86 466.51,-84.96"/>
<polygon fill="#63b8ff" stroke="#63b8ff" points="467.37,-88.37 476.77,-83.48 466.37,-81.44 467.37,-88.37"/>
</g>
<!-- Node15 -->
<g id="node15" class="node">
<title>Node15</title>
<g id="a_node15"><a xlink:href="constructible_8hpp.html" target="_top" xlink:title=" ">
<polygon fill="white" stroke="#666666" points="1145.78,-349 986.78,-349 986.78,-319 1145.78,-319 1145.78,-349"/>
<text text-anchor="start" x="994.78" y="-337" font-family="Helvetica,sans-Serif" font-size="10.00">proxsuite/linalg/veg</text>
<text text-anchor="middle" x="1066.28" y="-326" font-family="Helvetica,sans-Serif" font-size="10.00">/type_traits/constructible.hpp</text>
</a>
</g>
</g>
<!-- Node1&#45;&gt;Node15 -->
<g id="edge38" class="edge">
<title>Node1&#45;&gt;Node15</title>
<path fill="none" stroke="#63b8ff" d="M1211.3,-582.9C1218.3,-546.16 1231.79,-446.15 1186.28,-385 1175.48,-370.49 1159.68,-360.16 1143.07,-352.82"/>
<polygon fill="#63b8ff" stroke="#63b8ff" points="1144.37,-349.57 1133.79,-349.04 1141.73,-356.05 1144.37,-349.57"/>
</g>
<!-- Node21 -->
<g id="node21" class="node">
<title>Node21</title>
<g id="a_node21"><a xlink:href="assignable_8hpp.html" target="_top" xlink:title=" ">
<polygon fill="white" stroke="#666666" points="931.78,-349 782.78,-349 782.78,-319 931.78,-319 931.78,-349"/>
<text text-anchor="start" x="790.78" y="-337" font-family="Helvetica,sans-Serif" font-size="10.00">proxsuite/linalg/veg</text>
<text text-anchor="middle" x="857.28" y="-326" font-family="Helvetica,sans-Serif" font-size="10.00">/type_traits/assignable.hpp</text>
</a>
</g>
</g>
<!-- Node1&#45;&gt;Node21 -->
<g id="edge39" class="edge">
<title>Node1&#45;&gt;Node21</title>
<path fill="none" stroke="#63b8ff" d="M1142.44,-588.3C1036.39,-572.78 835.36,-536.64 793.28,-481 767.51,-446.92 768.86,-423.06 788.28,-385 794.66,-372.5 805.78,-362.41 817.26,-354.64"/>
<polygon fill="#63b8ff" stroke="#63b8ff" points="819.4,-357.43 826.03,-349.16 815.69,-351.49 819.4,-357.43"/>
</g>
<!-- Node22 -->
<g id="node22" class="node">
<title>Node22</title>
<g id="a_node22"><a xlink:href="placement_8hpp.html" target="_top" xlink:title=" ">
<polygon fill="white" stroke="#666666" points="939.78,-481 802.78,-481 802.78,-451 939.78,-451 939.78,-481"/>
<text text-anchor="start" x="810.78" y="-469" font-family="Helvetica,sans-Serif" font-size="10.00">proxsuite/linalg/veg</text>
<text text-anchor="middle" x="871.28" y="-458" font-family="Helvetica,sans-Serif" font-size="10.00">/memory/placement.hpp</text>
</a>
</g>
</g>
<!-- Node1&#45;&gt;Node22 -->
<g id="edge46" class="edge">
<title>Node1&#45;&gt;Node22</title>
<path fill="none" stroke="#63b8ff" d="M1155.6,-582.93C1123.13,-573.77 1080.85,-560.95 1044.28,-547 996.1,-528.61 942.47,-502.97 907.88,-485.71"/>
<polygon fill="#63b8ff" stroke="#63b8ff" points="909.15,-482.44 898.65,-481.08 906.02,-488.69 909.15,-482.44"/>
</g>
<!-- Node25 -->
<g id="node25" class="node">
<title>Node25</title>
<g id="a_node25"><a xlink:href="type__traits_2alloc_8hpp.html" target="_top" xlink:title=" ">
<polygon fill="white" stroke="#666666" points="1172.78,-547 1053.78,-547 1053.78,-517 1172.78,-517 1172.78,-547"/>
<text text-anchor="start" x="1061.78" y="-535" font-family="Helvetica,sans-Serif" font-size="10.00">proxsuite/linalg/veg</text>
<text text-anchor="middle" x="1113.28" y="-524" font-family="Helvetica,sans-Serif" font-size="10.00">/type_traits/alloc.hpp</text>
</a>
</g>
</g>
<!-- Node1&#45;&gt;Node25 -->
<g id="edge59" class="edge">
<title>Node1&#45;&gt;Node25</title>
<path fill="none" stroke="#63b8ff" d="M1187.2,-582.8C1174.16,-574.01 1157.23,-562.61 1142.87,-552.93"/>
<polygon fill="#63b8ff" stroke="#63b8ff" points="1144.56,-549.85 1134.31,-547.16 1140.65,-555.65 1144.56,-549.85"/>
</g>
<!-- Node27 -->
<g id="node27" class="node">
<title>Node27</title>
<g id="a_node27"><a xlink:title=" ">
<polygon fill="#e0e0e0" stroke="#999999" points="1494.78,-541.5 1445.78,-541.5 1445.78,-522.5 1494.78,-522.5 1494.78,-541.5"/>
<text text-anchor="middle" x="1470.28" y="-529.5" font-family="Helvetica,sans-Serif" font-size="10.00">cstdlib</text>
</a>
</g>
</g>
<!-- Node1&#45;&gt;Node27 -->
<g id="edge71" class="edge">
<title>Node1&#45;&gt;Node27</title>
<path fill="none" stroke="#63b8ff" d="M1274.21,-584.46C1318.89,-575.41 1379.08,-562.16 1431.28,-547 1433.56,-546.34 1435.89,-545.62 1438.23,-544.86"/>
<polygon fill="#63b8ff" stroke="#63b8ff" points="1439.41,-548.16 1447.76,-541.62 1437.16,-541.53 1439.41,-548.16"/>
</g>
<!-- Node28 -->
<g id="node28" class="node">
<title>Node28</title>
<g id="a_node28"><a xlink:title=" ">
<polygon fill="#e0e0e0" stroke="#999999" points="1571.78,-541.5 1512.78,-541.5 1512.78,-522.5 1571.78,-522.5 1571.78,-541.5"/>
<text text-anchor="middle" x="1542.28" y="-529.5" font-family="Helvetica,sans-Serif" font-size="10.00">malloc.h</text>
</a>
</g>
</g>
<!-- Node1&#45;&gt;Node28 -->
<g id="edge72" class="edge">
<title>Node1&#45;&gt;Node28</title>
<path fill="none" stroke="#63b8ff" d="M1274.02,-589.25C1334.27,-581.34 1425.65,-567.34 1503.28,-547 1505.78,-546.35 1508.34,-545.6 1510.9,-544.8"/>
<polygon fill="#63b8ff" stroke="#63b8ff" points="1512.27,-548.04 1520.63,-541.54 1510.04,-541.4 1512.27,-548.04"/>
</g>
<!-- Node3 -->
<g id="node3" class="node">
<title>Node3</title>
<g id="a_node3"><a xlink:href="tags_8hpp.html" target="_top" xlink:title=" ">
<polygon fill="white" stroke="#666666" points="688.78,-349 571.78,-349 571.78,-319 688.78,-319 688.78,-349"/>
<text text-anchor="start" x="579.78" y="-337" font-family="Helvetica,sans-Serif" font-size="10.00">proxsuite/linalg/veg</text>
<text text-anchor="middle" x="630.28" y="-326" font-family="Helvetica,sans-Serif" font-size="10.00">/type_traits/tags.hpp</text>
</a>
</g>
</g>
<!-- Node2&#45;&gt;Node3 -->
<g id="edge2" class="edge">
<title>Node2&#45;&gt;Node3</title>
<path fill="none" stroke="#63b8ff" d="M623.28,-384.8C624.34,-377.26 625.67,-367.78 626.89,-359.13"/>
<polygon fill="#63b8ff" stroke="#63b8ff" points="630.37,-359.55 628.29,-349.16 623.43,-358.58 630.37,-359.55"/>
</g>
<!-- Node2&#45;&gt;Node12 -->
<g id="edge36" class="edge">
<title>Node2&#45;&gt;Node12</title>
<path fill="none" stroke="#63b8ff" d="M647.18,-384.89C677.28,-368.61 728.55,-341.22 773.28,-319 807.12,-302.2 818.89,-304.01 850.28,-283 886.36,-258.86 897.97,-252.96 922.28,-217 948.48,-178.26 964.36,-125.37 971.92,-95.04"/>
<polygon fill="#63b8ff" stroke="#63b8ff" points="975.32,-95.85 974.25,-85.31 968.52,-94.22 975.32,-95.85"/>
</g>
<!-- Node2&#45;&gt;Node14 -->
<g id="edge37" class="edge">
<title>Node2&#45;&gt;Node14</title>
<path fill="none" stroke="#63b8ff" d="M596.8,-384.83C584.24,-376.18 569.99,-363.91 562.28,-349 518.46,-264.2 527.88,-145.24 534.54,-94.95"/>
<polygon fill="#63b8ff" stroke="#63b8ff" points="538.01,-95.42 535.94,-85.03 531.08,-94.44 538.01,-95.42"/>
</g>
<!-- Node2&#45;&gt;Node15 -->
<g id="edge22" class="edge">
<title>Node2&#45;&gt;Node15</title>
<path fill="none" stroke="#63b8ff" d="M678.1,-390.83C753.45,-379.99 887.3,-360.74 976.43,-347.92"/>
<polygon fill="#63b8ff" stroke="#63b8ff" points="977.13,-351.36 986.53,-346.47 976.13,-344.43 977.13,-351.36"/>
</g>
<!-- Node18 -->
<g id="node18" class="node">
<title>Node18</title>
<g id="a_node18"><a xlink:href="address_8hpp.html" target="_top" xlink:title=" ">
<polygon fill="white" stroke="#666666" points="514.78,-349 391.78,-349 391.78,-319 514.78,-319 514.78,-349"/>
<text text-anchor="start" x="399.78" y="-337" font-family="Helvetica,sans-Serif" font-size="10.00">proxsuite/linalg/veg</text>
<text text-anchor="middle" x="453.28" y="-326" font-family="Helvetica,sans-Serif" font-size="10.00">/memory/address.hpp</text>
</a>
</g>
</g>
<!-- Node2&#45;&gt;Node18 -->
<g id="edge28" class="edge">
<title>Node2&#45;&gt;Node18</title>
<path fill="none" stroke="#63b8ff" d="M584.42,-384.95C559.47,-375.45 526.32,-362.82 499.6,-352.64"/>
<polygon fill="#63b8ff" stroke="#63b8ff" points="500.66,-349.3 490.07,-349.01 498.17,-355.84 500.66,-349.3"/>
</g>
<!-- Node4 -->
<g id="node4" class="node">
<title>Node4</title>
<g id="a_node4"><a xlink:href="veg_2type__traits_2core_8hpp.html" target="_top" xlink:title=" ">
<polygon fill="white" stroke="#666666" points="841.78,-283 724.78,-283 724.78,-253 841.78,-253 841.78,-283"/>
<text text-anchor="start" x="732.78" y="-271" font-family="Helvetica,sans-Serif" font-size="10.00">proxsuite/linalg/veg</text>
<text text-anchor="middle" x="783.28" y="-260" font-family="Helvetica,sans-Serif" font-size="10.00">/type_traits/core.hpp</text>
</a>
</g>
</g>
<!-- Node3&#45;&gt;Node4 -->
<g id="edge3" class="edge">
<title>Node3&#45;&gt;Node4</title>
<path fill="none" stroke="#63b8ff" d="M663.86,-318.95C686.38,-309.53 716.24,-297.04 740.47,-286.91"/>
<polygon fill="#63b8ff" stroke="#63b8ff" points="741.91,-290.1 749.79,-283.01 739.21,-283.64 741.91,-290.1"/>
</g>
<!-- Node3&#45;&gt;Node12 -->
<g id="edge20" class="edge">
<title>Node3&#45;&gt;Node12</title>
<path fill="none" stroke="#63b8ff" d="M641.34,-318.85C656.2,-300.8 684.35,-269.93 715.28,-253 772.77,-221.53 804.09,-253.85 858.28,-217 901.74,-187.46 893.26,-161.04 927.28,-121 935.65,-111.16 945.58,-100.96 954.38,-92.37"/>
<polygon fill="#63b8ff" stroke="#63b8ff" points="956.97,-94.73 961.75,-85.27 952.12,-89.68 956.97,-94.73"/>
</g>
<!-- Node3&#45;&gt;Node14 -->
<g id="edge21" class="edge">
<title>Node3&#45;&gt;Node14</title>
<path fill="none" stroke="#63b8ff" d="M625.34,-318.91C610.36,-276.27 565.39,-148.2 546.64,-94.79"/>
<polygon fill="#63b8ff" stroke="#63b8ff" points="549.87,-93.43 543.26,-85.16 543.27,-95.75 549.87,-93.43"/>
</g>
<!-- Node4&#45;&gt;Node5 -->
<g id="edge4" class="edge">
<title>Node4&#45;&gt;Node5</title>
<path fill="none" stroke="#63b8ff" d="M826.71,-252.91C854.39,-243.55 890.84,-230.54 922.28,-217 1016.53,-176.42 1123.31,-119.48 1176.83,-90.14"/>
<polygon fill="#63b8ff" stroke="#63b8ff" points="1178.81,-93.05 1185.88,-85.17 1175.43,-86.92 1178.81,-93.05"/>
</g>
<!-- Node8 -->
<g id="node8" class="node">
<title>Node8</title>
<g id="a_node8"><a xlink:href="integer__seq_8hpp.html" target="_top" xlink:title=" ">
<polygon fill="white" stroke="#666666" points="816.28,-217 678.28,-217 678.28,-187 816.28,-187 816.28,-217"/>
<text text-anchor="start" x="686.28" y="-205" font-family="Helvetica,sans-Serif" font-size="10.00">proxsuite/linalg/veg</text>
<text text-anchor="middle" x="747.28" y="-194" font-family="Helvetica,sans-Serif" font-size="10.00">/internal/integer_seq.hpp</text>
</a>
</g>
</g>
<!-- Node4&#45;&gt;Node8 -->
<g id="edge7" class="edge">
<title>Node4&#45;&gt;Node8</title>
<path fill="none" stroke="#63b8ff" d="M775.29,-252.8C770.87,-244.92 765.25,-234.95 760.22,-225.99"/>
<polygon fill="#63b8ff" stroke="#63b8ff" points="763.2,-224.16 755.25,-217.16 757.1,-227.6 763.2,-224.16"/>
</g>
<!-- Node4&#45;&gt;Node12 -->
<g id="edge18" class="edge">
<title>Node4&#45;&gt;Node12</title>
<path fill="none" stroke="#63b8ff" d="M834.11,-252.97C855.31,-245.12 878.98,-233.51 896.28,-217 930.8,-184.07 920.44,-162.31 944.28,-121 949.61,-111.77 955.96,-101.93 961.65,-93.43"/>
<polygon fill="#63b8ff" stroke="#63b8ff" points="964.56,-95.39 967.29,-85.15 958.77,-91.45 964.56,-95.39"/>
</g>
<!-- Node4&#45;&gt;Node14 -->
<g id="edge19" class="edge">
<title>Node4&#45;&gt;Node14</title>
<path fill="none" stroke="#63b8ff" d="M730.52,-252.99C709.37,-245.23 686.08,-233.67 669.28,-217 636.1,-184.07 657.73,-155.6 626.28,-121 614.54,-108.08 598.65,-97.65 583.61,-89.73"/>
<polygon fill="#63b8ff" stroke="#63b8ff" points="584.91,-86.47 574.4,-85.13 581.78,-92.73 584.91,-86.47"/>
</g>
<!-- Node6 -->
<g id="node6" class="node">
<title>Node6</title>
<g id="a_node6"><a xlink:title=" ">
<polygon fill="#e0e0e0" stroke="#999999" points="696.28,-19 646.28,-19 646.28,0 696.28,0 696.28,-19"/>
<text text-anchor="middle" x="671.28" y="-7" font-family="Helvetica,sans-Serif" font-size="10.00">cstdint</text>
</a>
</g>
</g>
<!-- Node5&#45;&gt;Node6 -->
<g id="edge5" class="edge">
<title>Node5&#45;&gt;Node6</title>
<path fill="none" stroke="#63b8ff" d="M1149.08,-62.26C1035.15,-49.92 796.46,-24.06 706.55,-14.32"/>
<polygon fill="#63b8ff" stroke="#63b8ff" points="706.66,-10.81 696.34,-13.21 705.91,-17.77 706.66,-10.81"/>
</g>
<!-- Node5&#45;&gt;Node7 -->
<g id="edge6" class="edge">
<title>Node5&#45;&gt;Node7</title>
<path fill="none" stroke="#63b8ff" d="M1235.96,-54.99C1252.37,-45.66 1273.84,-33.47 1290.15,-24.21"/>
<polygon fill="#63b8ff" stroke="#63b8ff" points="1292.11,-27.12 1299.07,-19.14 1288.65,-21.03 1292.11,-27.12"/>
</g>
<!-- Node8&#45;&gt;Node5 -->
<g id="edge8" class="edge">
<title>Node8&#45;&gt;Node5</title>
<path fill="none" stroke="#63b8ff" d="M797.38,-186.96C883.41,-162.86 1058.87,-113.7 1151.28,-87.81"/>
<polygon fill="#63b8ff" stroke="#63b8ff" points="1152.36,-91.14 1161.05,-85.08 1150.47,-84.4 1152.36,-91.14"/>
</g>
<!-- Node8&#45;&gt;Node9 -->
<g id="edge9" class="edge">
<title>Node8&#45;&gt;Node9</title>
<path fill="none" stroke="#63b8ff" d="M678.27,-193.06C571.35,-180.75 366.89,-157.21 260.1,-144.92"/>
<polygon fill="#63b8ff" stroke="#63b8ff" points="260.41,-141.43 250.07,-143.77 259.61,-148.39 260.41,-141.43"/>
</g>
<!-- Node8&#45;&gt;Node12 -->
<g id="edge16" class="edge">
<title>Node8&#45;&gt;Node12</title>
<path fill="none" stroke="#63b8ff" d="M751.44,-186.87C757.48,-168.87 770.4,-138.03 792.28,-121 824.45,-95.98 868.18,-83.45 905.06,-77.2"/>
<polygon fill="#63b8ff" stroke="#63b8ff" points="905.92,-80.6 915.26,-75.59 904.84,-73.69 905.92,-80.6"/>
</g>
<!-- Node8&#45;&gt;Node14 -->
<g id="edge17" class="edge">
<title>Node8&#45;&gt;Node14</title>
<path fill="none" stroke="#63b8ff" d="M735.69,-186.83C720.74,-169.35 693.22,-139.64 664.28,-121 643.35,-107.51 618.18,-96.63 595.87,-88.5"/>
<polygon fill="#63b8ff" stroke="#63b8ff" points="596.77,-85.11 586.17,-85.08 594.44,-91.71 596.77,-85.11"/>
</g>
<!-- Node9&#45;&gt;Node5 -->
<g id="edge11" class="edge">
<title>Node9&#45;&gt;Node5</title>
<path fill="none" stroke="#63b8ff" d="M250.03,-132.13C388.91,-125.22 748.38,-106.62 1048.28,-85 1077.93,-82.86 1110.58,-80.13 1138.82,-77.65"/>
<polygon fill="#63b8ff" stroke="#63b8ff" points="1139.35,-81.12 1149.01,-76.75 1138.74,-74.15 1139.35,-81.12"/>
</g>
<!-- Node10 -->
<g id="node10" class="node">
<title>Node10</title>
<g id="a_node10"><a xlink:href="hedley_8ext_8hpp.html" target="_top" xlink:title=" ">
<polygon fill="white" stroke="#666666" points="297.78,-85 122.78,-85 122.78,-55 297.78,-55 297.78,-85"/>
<text text-anchor="start" x="130.78" y="-73" font-family="Helvetica,sans-Serif" font-size="10.00">proxsuite/linalg/veg</text>
<text text-anchor="middle" x="210.28" y="-62" font-family="Helvetica,sans-Serif" font-size="10.00">/internal/external/hedley.ext.hpp</text>
</a>
</g>
</g>
<!-- Node9&#45;&gt;Node10 -->
<g id="edge10" class="edge">
<title>Node9&#45;&gt;Node10</title>
<path fill="none" stroke="#63b8ff" d="M195.5,-120.8C197.76,-113.17 200.61,-103.57 203.21,-94.84"/>
<polygon fill="#63b8ff" stroke="#63b8ff" points="206.59,-95.75 206.08,-85.16 199.88,-93.75 206.59,-95.75"/>
</g>
<!-- Node11 -->
<g id="node11" class="node">
<title>Node11</title>
<g id="a_node11"><a xlink:href="preprocessor_8hpp.html" target="_top" xlink:title=" ">
<polygon fill="white" stroke="#666666" points="458.78,-85 315.78,-85 315.78,-55 458.78,-55 458.78,-85"/>
<text text-anchor="start" x="323.78" y="-73" font-family="Helvetica,sans-Serif" font-size="10.00">proxsuite/linalg/veg</text>
<text text-anchor="middle" x="387.28" y="-62" font-family="Helvetica,sans-Serif" font-size="10.00">/internal/preprocessor.hpp</text>
</a>
</g>
</g>
<!-- Node9&#45;&gt;Node11 -->
<g id="edge12" class="edge">
<title>Node9&#45;&gt;Node11</title>
<path fill="none" stroke="#63b8ff" d="M234.3,-120.95C263.79,-111.33 303.09,-98.49 334.48,-88.24"/>
<polygon fill="#63b8ff" stroke="#63b8ff" points="335.95,-91.44 344.37,-85.01 333.78,-84.79 335.95,-91.44"/>
</g>
<!-- Node9&#45;&gt;Node12 -->
<g id="edge13" class="edge">
<title>Node9&#45;&gt;Node12</title>
<path fill="none" stroke="#63b8ff" d="M250.04,-130.22C391.49,-118.7 750.63,-89.46 904.97,-76.89"/>
<polygon fill="#63b8ff" stroke="#63b8ff" points="905.6,-80.35 915.28,-76.05 905.03,-73.37 905.6,-80.35"/>
</g>
<!-- Node13 -->
<g id="node13" class="node">
<title>Node13</title>
<g id="a_node13"><a xlink:title=" ">
<polygon fill="#e0e0e0" stroke="#999999" points="104.78,-79.5 21.78,-79.5 21.78,-60.5 104.78,-60.5 104.78,-79.5"/>
<text text-anchor="middle" x="63.28" y="-67.5" font-family="Helvetica,sans-Serif" font-size="10.00">initializer_list</text>
</a>
</g>
</g>
<!-- Node9&#45;&gt;Node13 -->
<g id="edge14" class="edge">
<title>Node9&#45;&gt;Node13</title>
<path fill="none" stroke="#63b8ff" d="M163.19,-120.95C141.24,-109.98 110.95,-94.83 89.5,-84.11"/>
<polygon fill="#63b8ff" stroke="#63b8ff" points="90.83,-80.86 80.32,-79.52 87.7,-87.12 90.83,-80.86"/>
</g>
<!-- Node9&#45;&gt;Node14 -->
<g id="edge15" class="edge">
<title>Node9&#45;&gt;Node14</title>
<path fill="none" stroke="#63b8ff" d="M249.84,-123.7C254.73,-122.78 259.59,-121.87 264.28,-121 351.31,-104.94 375.58,-102.05 466.78,-85.07"/>
<polygon fill="#63b8ff" stroke="#63b8ff" points="467.54,-88.49 476.72,-83.21 466.25,-81.61 467.54,-88.49"/>
</g>
<!-- Node15&#45;&gt;Node4 -->
<g id="edge23" class="edge">
<title>Node15&#45;&gt;Node4</title>
<path fill="none" stroke="#63b8ff" d="M1004.18,-318.95C959.16,-308.77 898.28,-295.01 851.84,-284.5"/>
<polygon fill="#63b8ff" stroke="#63b8ff" points="852.39,-281.04 841.86,-282.25 850.84,-287.87 852.39,-281.04"/>
</g>
<!-- Node15&#45;&gt;Node12 -->
<g id="edge24" class="edge">
<title>Node15&#45;&gt;Node12</title>
<path fill="none" stroke="#63b8ff" d="M1073.1,-318.97C1089.58,-282.84 1127.3,-184.95 1086.28,-121 1077.16,-106.78 1062.87,-96.55 1047.6,-89.21"/>
<polygon fill="#63b8ff" stroke="#63b8ff" points="1048.57,-85.81 1038,-85 1045.76,-92.22 1048.57,-85.81"/>
</g>
<!-- Node15&#45;&gt;Node14 -->
<g id="edge27" class="edge">
<title>Node15&#45;&gt;Node14</title>
<path fill="none" stroke="#63b8ff" d="M1060.23,-318.7C1052.13,-301.08 1036.18,-271.23 1014.28,-253 893.19,-152.14 710.15,-103.52 610,-83.28"/>
<polygon fill="#63b8ff" stroke="#63b8ff" points="610.47,-79.8 599.98,-81.29 609.11,-86.67 610.47,-79.8"/>
</g>
<!-- Node16 -->
<g id="node16" class="node">
<title>Node16</title>
<g id="a_node16"><a xlink:title=" ">
<polygon fill="#e0e0e0" stroke="#999999" points="1179.78,-277.5 1142.78,-277.5 1142.78,-258.5 1179.78,-258.5 1179.78,-277.5"/>
<text text-anchor="middle" x="1161.28" y="-265.5" font-family="Helvetica,sans-Serif" font-size="10.00">new</text>
</a>
</g>
</g>
<!-- Node15&#45;&gt;Node16 -->
<g id="edge25" class="edge">
<title>Node15&#45;&gt;Node16</title>
<path fill="none" stroke="#63b8ff" d="M1087.37,-318.8C1103,-308.27 1124.22,-293.97 1139.91,-283.4"/>
<polygon fill="#63b8ff" stroke="#63b8ff" points="1142.09,-286.15 1148.43,-277.66 1138.18,-280.34 1142.09,-286.15"/>
</g>
<!-- Node17 -->
<g id="node17" class="node">
<title>Node17</title>
<g id="a_node17"><a xlink:title=" ">
<polygon fill="#e0e0e0" stroke="#999999" points="1005.78,-277.5 936.78,-277.5 936.78,-258.5 1005.78,-258.5 1005.78,-277.5"/>
<text text-anchor="middle" x="971.28" y="-265.5" font-family="Helvetica,sans-Serif" font-size="10.00">type_traits</text>
</a>
</g>
</g>
<!-- Node15&#45;&gt;Node17 -->
<g id="edge26" class="edge">
<title>Node15&#45;&gt;Node17</title>
<path fill="none" stroke="#63b8ff" d="M1045.2,-318.8C1029.57,-308.27 1008.35,-293.97 992.66,-283.4"/>
<polygon fill="#63b8ff" stroke="#63b8ff" points="994.39,-280.34 984.14,-277.66 990.47,-286.15 994.39,-280.34"/>
</g>
<!-- Node18&#45;&gt;Node4 -->
<g id="edge29" class="edge">
<title>Node18&#45;&gt;Node4</title>
<path fill="none" stroke="#63b8ff" d="M514.97,-321.04C571.75,-310.02 655.85,-293.71 714.72,-282.3"/>
<polygon fill="#63b8ff" stroke="#63b8ff" points="715.52,-285.71 724.67,-280.37 714.19,-278.83 715.52,-285.71"/>
</g>
<!-- Node18&#45;&gt;Node12 -->
<g id="edge33" class="edge">
<title>Node18&#45;&gt;Node12</title>
<path fill="none" stroke="#63b8ff" d="M487.75,-318.96C530.53,-301.87 605.97,-272.84 672.28,-253 739.21,-232.98 765.97,-253.91 825.28,-217 872.2,-187.81 863.53,-158.32 904.28,-121 916.44,-109.87 931.22,-99.29 944.29,-90.76"/>
<polygon fill="#63b8ff" stroke="#63b8ff" points="946.47,-93.52 953.02,-85.19 942.71,-87.62 946.47,-93.52"/>
</g>
<!-- Node18&#45;&gt;Node14 -->
<g id="edge35" class="edge">
<title>Node18&#45;&gt;Node14</title>
<path fill="none" stroke="#63b8ff" d="M450.27,-318.92C447.35,-302.78 444.05,-275.63 449.28,-253 463.49,-191.61 501.4,-127.01 522.88,-93.76"/>
<polygon fill="#63b8ff" stroke="#63b8ff" points="525.91,-95.52 528.47,-85.24 520.06,-91.68 525.91,-95.52"/>
</g>
<!-- Node19 -->
<g id="node19" class="node">
<title>Node19</title>
<g id="a_node19"><a xlink:href="std_8hpp.html" target="_top" xlink:title=" ">
<polygon fill="white" stroke="#666666" points="211.78,-217 98.78,-217 98.78,-187 211.78,-187 211.78,-217"/>
<text text-anchor="start" x="106.78" y="-205" font-family="Helvetica,sans-Serif" font-size="10.00">proxsuite/linalg/veg</text>
<text text-anchor="middle" x="155.28" y="-194" font-family="Helvetica,sans-Serif" font-size="10.00">/internal/std.hpp</text>
</a>
</g>
</g>
<!-- Node18&#45;&gt;Node19 -->
<g id="edge30" class="edge">
<title>Node18&#45;&gt;Node19</title>
<path fill="none" stroke="#63b8ff" d="M421.11,-318.96C366.82,-295.28 257.09,-247.41 196.98,-221.19"/>
<polygon fill="#63b8ff" stroke="#63b8ff" points="198.34,-217.96 187.78,-217.17 195.54,-224.38 198.34,-217.96"/>
</g>
<!-- Node20 -->
<g id="node20" class="node">
<title>Node20</title>
<g id="a_node20"><a xlink:title=" ">
<polygon fill="#e0e0e0" stroke="#999999" points="516.28,-277.5 458.28,-277.5 458.28,-258.5 516.28,-258.5 516.28,-277.5"/>
<text text-anchor="middle" x="487.28" y="-265.5" font-family="Helvetica,sans-Serif" font-size="10.00">memory</text>
</a>
</g>
</g>
<!-- Node18&#45;&gt;Node20 -->
<g id="edge34" class="edge">
<title>Node18&#45;&gt;Node20</title>
<path fill="none" stroke="#63b8ff" d="M460.83,-318.8C465.82,-309.41 472.4,-297.02 477.75,-286.95"/>
<polygon fill="#63b8ff" stroke="#63b8ff" points="480.99,-288.32 482.59,-277.84 474.8,-285.03 480.99,-288.32"/>
</g>
<!-- Node19&#45;&gt;Node6 -->
<g id="edge31" class="edge">
<title>Node19&#45;&gt;Node6</title>
<path fill="none" stroke="#63b8ff" d="M122.93,-186.91C67.85,-161.11 -33.87,-104.38 12.28,-55 55.08,-9.22 505.32,-9.18 635.95,-10.14"/>
<polygon fill="#63b8ff" stroke="#63b8ff" points="636.16,-13.64 646.19,-10.22 636.22,-6.64 636.16,-13.64"/>
</g>
<!-- Node19&#45;&gt;Node13 -->
<g id="edge32" class="edge">
<title>Node19&#45;&gt;Node13</title>
<path fill="none" stroke="#63b8ff" d="M145.26,-186.84C128.26,-162.81 93.81,-114.13 75.45,-88.19"/>
<polygon fill="#63b8ff" stroke="#63b8ff" points="78.11,-85.89 69.48,-79.75 72.4,-89.93 78.11,-85.89"/>
</g>
<!-- Node21&#45;&gt;Node4 -->
<g id="edge40" class="edge">
<title>Node21&#45;&gt;Node4</title>
<path fill="none" stroke="#63b8ff" d="M840.86,-318.8C830.99,-310.26 818.26,-299.25 807.28,-289.75"/>
<polygon fill="#63b8ff" stroke="#63b8ff" points="809.51,-287.06 799.66,-283.16 804.94,-292.35 809.51,-287.06"/>
</g>
<!-- Node21&#45;&gt;Node12 -->
<g id="edge41" class="edge">
<title>Node21&#45;&gt;Node12</title>
<path fill="none" stroke="#63b8ff" d="M868.47,-318.74C881.74,-302.19 904.88,-274.43 927.28,-253 945.79,-235.29 960.8,-239.89 972.28,-217 991.84,-178.04 987.39,-125.57 982.35,-95.31"/>
<polygon fill="#63b8ff" stroke="#63b8ff" points="985.75,-94.44 980.51,-85.23 978.86,-95.69 985.75,-94.44"/>
</g>
<!-- Node21&#45;&gt;Node14 -->
<g id="edge43" class="edge">
<title>Node21&#45;&gt;Node14</title>
<path fill="none" stroke="#63b8ff" d="M799.4,-318.9C772.57,-310.83 741,-299.06 715.28,-283 634.81,-232.75 633.45,-196.72 576.28,-121 569.48,-111.99 561.97,-102.1 555.43,-93.5"/>
<polygon fill="#63b8ff" stroke="#63b8ff" points="558.13,-91.26 549.28,-85.42 552.56,-95.5 558.13,-91.26"/>
</g>
<!-- Node21&#45;&gt;Node17 -->
<g id="edge42" class="edge">
<title>Node21&#45;&gt;Node17</title>
<path fill="none" stroke="#63b8ff" d="M882.3,-318.95C901.59,-308.13 928.1,-293.24 947.16,-282.54"/>
<polygon fill="#63b8ff" stroke="#63b8ff" points="949.11,-285.46 956.11,-277.52 945.68,-279.36 949.11,-285.46"/>
</g>
<!-- Node22&#45;&gt;Node12 -->
<g id="edge55" class="edge">
<title>Node22&#45;&gt;Node12</title>
<path fill="none" stroke="#63b8ff" d="M926.68,-450.99C955.96,-442.53 992,-430.38 1022.28,-415 1042.74,-404.61 1043.81,-395.35 1064.28,-385 1110.19,-361.78 1139.91,-387.27 1174.28,-349 1244.86,-270.42 1188.49,-188.54 1107.28,-121 1089.87,-106.52 1067.8,-95.94 1046.81,-88.35"/>
<polygon fill="#63b8ff" stroke="#63b8ff" points="1047.86,-85.01 1037.26,-85.07 1045.58,-91.63 1047.86,-85.01"/>
</g>
<!-- Node22&#45;&gt;Node14 -->
<g id="edge58" class="edge">
<title>Node22&#45;&gt;Node14</title>
<path fill="none" stroke="#63b8ff" d="M802.65,-456.81C704.12,-444.88 531.31,-423.25 503.28,-415 436.91,-395.45 407.58,-401.31 362.28,-349 293.7,-269.78 236.32,-202.41 302.28,-121 303.62,-119.35 397.81,-99.76 466.77,-85.6"/>
<polygon fill="#63b8ff" stroke="#63b8ff" points="467.66,-88.99 476.75,-83.55 466.25,-82.13 467.66,-88.99"/>
</g>
<!-- Node22&#45;&gt;Node15 -->
<g id="edge47" class="edge">
<title>Node22&#45;&gt;Node15</title>
<path fill="none" stroke="#63b8ff" d="M893.59,-450.95C909.25,-441.02 930.64,-427.34 949.28,-415 953.65,-412.11 1003.98,-377.67 1037.19,-354.93"/>
<polygon fill="#63b8ff" stroke="#63b8ff" points="1039.36,-357.68 1045.63,-349.14 1035.41,-351.91 1039.36,-357.68"/>
</g>
<!-- Node22&#45;&gt;Node16 -->
<g id="edge56" class="edge">
<title>Node22&#45;&gt;Node16</title>
<path fill="none" stroke="#63b8ff" d="M906.81,-450.91C929.4,-441.55 959.05,-428.54 984.28,-415 1006.12,-403.29 1008.72,-395.25 1031.28,-385 1083.14,-361.44 1118.17,-393.05 1154.28,-349 1168.27,-331.94 1167.64,-305.4 1165.12,-287.62"/>
<polygon fill="#63b8ff" stroke="#63b8ff" points="1168.54,-286.87 1163.37,-277.62 1161.65,-288.07 1168.54,-286.87"/>
</g>
<!-- Node22&#45;&gt;Node18 -->
<g id="edge54" class="edge">
<title>Node22&#45;&gt;Node18</title>
<path fill="none" stroke="#63b8ff" d="M802.72,-456.02C716.65,-444.45 577.53,-424.7 555.28,-415 523.55,-401.17 493.13,-375.08 473.9,-356.45"/>
<polygon fill="#63b8ff" stroke="#63b8ff" points="476.18,-353.79 466.61,-349.23 471.25,-358.76 476.18,-353.79"/>
</g>
<!-- Node22&#45;&gt;Node19 -->
<g id="edge48" class="edge">
<title>Node22&#45;&gt;Node19</title>
<path fill="none" stroke="#63b8ff" d="M802.67,-465.8C672.13,-466.2 393.68,-461.39 311.28,-415 233.91,-371.44 184.12,-271.88 164.62,-226.41"/>
<polygon fill="#63b8ff" stroke="#63b8ff" points="167.8,-224.95 160.71,-217.08 161.34,-227.65 167.8,-224.95"/>
</g>
<!-- Node23 -->
<g id="node23" class="node">
<title>Node23</title>
<g id="a_node23"><a xlink:href="invocable_8hpp.html" target="_top" xlink:title=" ">
<polygon fill="white" stroke="#666666" points="940.78,-415 797.78,-415 797.78,-385 940.78,-385 940.78,-415"/>
<text text-anchor="start" x="805.78" y="-403" font-family="Helvetica,sans-Serif" font-size="10.00">proxsuite/linalg/veg</text>
<text text-anchor="middle" x="869.28" y="-392" font-family="Helvetica,sans-Serif" font-size="10.00">/type_traits/invocable.hpp</text>
</a>
</g>
</g>
<!-- Node22&#45;&gt;Node23 -->
<g id="edge49" class="edge">
<title>Node22&#45;&gt;Node23</title>
<path fill="none" stroke="#63b8ff" d="M870.84,-450.8C870.61,-443.34 870.32,-433.99 870.05,-425.41"/>
<polygon fill="#63b8ff" stroke="#63b8ff" points="873.54,-425.05 869.73,-415.16 866.54,-425.27 873.54,-425.05"/>
</g>
<!-- Node24 -->
<g id="node24" class="node">
<title>Node24</title>
<g id="a_node24"><a xlink:title=" ">
<polygon fill="#e0e0e0" stroke="#999999" points="1123.28,-409.5 1073.28,-409.5 1073.28,-390.5 1123.28,-390.5 1123.28,-409.5"/>
<text text-anchor="middle" x="1098.28" y="-397.5" font-family="Helvetica,sans-Serif" font-size="10.00">cstring</text>
</a>
</g>
</g>
<!-- Node22&#45;&gt;Node24 -->
<g id="edge57" class="edge">
<title>Node22&#45;&gt;Node24</title>
<path fill="none" stroke="#63b8ff" d="M929.24,-450.94C966.6,-441.54 1016.08,-428.47 1059.28,-415 1061.4,-414.34 1063.58,-413.63 1065.77,-412.9"/>
<polygon fill="#63b8ff" stroke="#63b8ff" points="1066.98,-416.19 1075.3,-409.62 1064.7,-409.57 1066.98,-416.19"/>
</g>
<!-- Node23&#45;&gt;Node4 -->
<g id="edge50" class="edge">
<title>Node23&#45;&gt;Node4</title>
<path fill="none" stroke="#63b8ff" d="M819.17,-384.94C801.51,-377.31 783.52,-365.87 773.28,-349 763.06,-332.15 767.11,-309.64 772.82,-292.79"/>
<polygon fill="#63b8ff" stroke="#63b8ff" points="776.21,-293.72 776.48,-283.13 769.66,-291.24 776.21,-293.72"/>
</g>
<!-- Node23&#45;&gt;Node12 -->
<g id="edge52" class="edge">
<title>Node23&#45;&gt;Node12</title>
<path fill="none" stroke="#63b8ff" d="M890.56,-384.96C904.91,-375.26 924.11,-361.84 940.28,-349 948.91,-342.15 1009.78,-293.05 1014.28,-283 1043.08,-218.74 1009.42,-134.2 989.66,-94.06"/>
<polygon fill="#63b8ff" stroke="#63b8ff" points="992.75,-92.41 985.1,-85.08 986.51,-95.58 992.75,-92.41"/>
</g>
<!-- Node23&#45;&gt;Node14 -->
<g id="edge53" class="edge">
<title>Node23&#45;&gt;Node14</title>
<path fill="none" stroke="#63b8ff" d="M797.61,-392.88C663.88,-381.29 389.17,-356.63 382.28,-349 307.2,-265.82 448.48,-140.31 510.83,-91.47"/>
<polygon fill="#63b8ff" stroke="#63b8ff" points="513.3,-93.98 519.08,-85.1 509.02,-88.44 513.3,-93.98"/>
</g>
<!-- Node23&#45;&gt;Node15 -->
<g id="edge51" class="edge">
<title>Node23&#45;&gt;Node15</title>
<path fill="none" stroke="#63b8ff" d="M912.52,-384.95C942.28,-375.28 982.01,-362.38 1013.62,-352.11"/>
<polygon fill="#63b8ff" stroke="#63b8ff" points="1014.72,-355.43 1023.15,-349.01 1012.56,-348.77 1014.72,-355.43"/>
</g>
<!-- Node25&#45;&gt;Node2 -->
<g id="edge61" class="edge">
<title>Node25&#45;&gt;Node2</title>
<path fill="none" stroke="#63b8ff" d="M1053.66,-529.67C987.75,-526.4 879.5,-515.65 793.28,-481 771.66,-472.31 770.85,-461.96 750.28,-451 726.34,-438.25 698.42,-427.01 674.68,-418.44"/>
<polygon fill="#63b8ff" stroke="#63b8ff" points="675.73,-415.1 665.14,-415.05 673.39,-421.7 675.73,-415.1"/>
</g>
<!-- Node25&#45;&gt;Node5 -->
<g id="edge64" class="edge">
<title>Node25&#45;&gt;Node5</title>
<path fill="none" stroke="#63b8ff" d="M1173.09,-520.91C1197.67,-513.77 1224.29,-501.62 1241.28,-481 1344.43,-355.81 1383.54,-260.8 1301.28,-121 1293.25,-107.35 1280,-97.16 1266.11,-89.67"/>
<polygon fill="#63b8ff" stroke="#63b8ff" points="1267.44,-86.43 1256.93,-85.13 1264.34,-92.7 1267.44,-86.43"/>
</g>
<!-- Node25&#45;&gt;Node9 -->
<g id="edge65" class="edge">
<title>Node25&#45;&gt;Node9</title>
<path fill="none" stroke="#63b8ff" d="M1053.61,-531.25C881.16,-530.73 387.2,-519.89 273.28,-415 196.75,-344.53 258.58,-283.73 220.28,-187 216.63,-177.78 211.48,-168.23 206.53,-159.98"/>
<polygon fill="#63b8ff" stroke="#63b8ff" points="209.38,-157.93 201.12,-151.29 203.44,-161.63 209.38,-157.93"/>
</g>
<!-- Node25&#45;&gt;Node12 -->
<g id="edge67" class="edge">
<title>Node25&#45;&gt;Node12</title>
<path fill="none" stroke="#63b8ff" d="M1142.48,-516.8C1157.23,-508.28 1174.28,-496.14 1185.28,-481 1243.15,-401.39 1249.28,-367.42 1249.28,-269 1249.28,-269 1249.28,-269 1249.28,-201 1249.28,-112.29 1130.04,-84.06 1049.46,-75.11"/>
<polygon fill="#63b8ff" stroke="#63b8ff" points="1049.65,-71.61 1039.35,-74.07 1048.93,-78.58 1049.65,-71.61"/>
</g>
<!-- Node25&#45;&gt;Node14 -->
<g id="edge69" class="edge">
<title>Node25&#45;&gt;Node14</title>
<path fill="none" stroke="#63b8ff" d="M1053.73,-526.5C890.15,-512.71 440.93,-464.75 362.28,-349 302.02,-260.29 357.63,-188.1 441.28,-121 457,-108.4 476.39,-97.64 493.69,-89.37"/>
<polygon fill="#63b8ff" stroke="#63b8ff" points="495.45,-92.41 503.05,-85.03 492.51,-86.06 495.45,-92.41"/>
</g>
<!-- Node25&#45;&gt;Node15 -->
<g id="edge62" class="edge">
<title>Node25&#45;&gt;Node15</title>
<path fill="none" stroke="#63b8ff" d="M1134.84,-516.86C1146.21,-508.05 1159.05,-495.63 1165.28,-481 1182,-441.74 1187.64,-421.34 1165.28,-385 1156.64,-370.94 1142.68,-360.69 1127.94,-353.28"/>
<polygon fill="#63b8ff" stroke="#63b8ff" points="1129.25,-350.03 1118.71,-349.02 1126.32,-356.39 1129.25,-350.03"/>
</g>
<!-- Node25&#45;&gt;Node21 -->
<g id="edge63" class="edge">
<title>Node25&#45;&gt;Node21</title>
<path fill="none" stroke="#63b8ff" d="M1121.45,-516.6C1136.48,-487.95 1164.22,-423.27 1132.28,-385 1120.01,-370.29 1018.24,-354.7 942.06,-344.92"/>
<polygon fill="#63b8ff" stroke="#63b8ff" points="942.33,-341.42 931.96,-343.64 941.44,-348.37 942.33,-341.42"/>
</g>
<!-- Node25&#45;&gt;Node22 -->
<g id="edge66" class="edge">
<title>Node25&#45;&gt;Node22</title>
<path fill="none" stroke="#63b8ff" d="M1060.18,-516.95C1022.98,-507.12 973.13,-493.93 933.98,-483.58"/>
<polygon fill="#63b8ff" stroke="#63b8ff" points="934.83,-480.19 924.27,-481.01 933.04,-486.95 934.83,-480.19"/>
</g>
<!-- Node25&#45;&gt;Node24 -->
<g id="edge68" class="edge">
<title>Node25&#45;&gt;Node24</title>
<path fill="none" stroke="#63b8ff" d="M1111.65,-516.84C1108.94,-493.34 1103.51,-446.26 1100.47,-419.93"/>
<polygon fill="#63b8ff" stroke="#63b8ff" points="1103.92,-419.28 1099.29,-409.75 1096.96,-420.08 1103.92,-419.28"/>
</g>
<!-- Node26 -->
<g id="node26" class="node">
<title>Node26</title>
<g id="a_node26"><a xlink:href="has__asan_8hpp.html" target="_top" xlink:title=" ">
<polygon fill="white" stroke="#666666" points="1084.78,-481 957.78,-481 957.78,-451 1084.78,-451 1084.78,-481"/>
<text text-anchor="start" x="965.78" y="-469" font-family="Helvetica,sans-Serif" font-size="10.00">proxsuite/linalg/veg</text>
<text text-anchor="middle" x="1021.28" y="-458" font-family="Helvetica,sans-Serif" font-size="10.00">/internal/has_asan.hpp</text>
</a>
</g>
</g>
<!-- Node25&#45;&gt;Node26 -->
<g id="edge60" class="edge">
<title>Node25&#45;&gt;Node26</title>
<path fill="none" stroke="#63b8ff" d="M1092.87,-516.8C1080.24,-508.01 1063.85,-496.61 1049.93,-486.93"/>
<polygon fill="#63b8ff" stroke="#63b8ff" points="1051.85,-484 1041.65,-481.16 1047.86,-489.75 1051.85,-484"/>
</g>
</g>
</svg>
