<?xml version="1.0" encoding="UTF-8" standalone="no"?>
<!DOCTYPE svg PUBLIC "-//W3C//DTD SVG 1.1//EN"
 "http://www.w3.org/Graphics/SVG/1.1/DTD/svg11.dtd">
<!-- Generated by graphviz version 6.0.2 (20221126.1951)
 -->
<!-- Title: include/proxsuite/linalg/veg/internal/narrow.hpp Pages: 1 -->
<svg width="1762pt" height="687pt"
 viewBox="0.00 0.00 1762.00 687.00" xmlns="http://www.w3.org/2000/svg" xmlns:xlink="http://www.w3.org/1999/xlink">
<g id="graph0" class="graph" transform="scale(1 1) rotate(0) translate(4 683)">
<title>include/proxsuite/linalg/veg/internal/narrow.hpp</title>
<!-- Node1 -->
<g id="node1" class="node">
<title>Node1</title>
<g id="a_node1"><a xlink:title=" ">
<polygon fill="#999999" stroke="#666666" points="949.5,-679 814.5,-679 814.5,-649 949.5,-649 949.5,-679"/>
<text text-anchor="start" x="822.5" y="-667" font-family="Helvetica,sans-Serif" font-size="10.00">include/proxsuite/linalg</text>
<text text-anchor="middle" x="882" y="-656" font-family="Helvetica,sans-Serif" font-size="10.00">/veg/internal/narrow.hpp</text>
</a>
</g>
</g>
<!-- Node2 -->
<g id="node2" class="node">
<title>Node2</title>
<g id="a_node2"><a xlink:href="fwd_8hpp.html" target="_top" xlink:title=" ">
<polygon fill="white" stroke="#666666" points="104,-607.5 0,-607.5 0,-588.5 104,-588.5 104,-607.5"/>
<text text-anchor="middle" x="52" y="-595.5" font-family="Helvetica,sans-Serif" font-size="10.00">proxsuite/fwd.hpp</text>
</a>
</g>
</g>
<!-- Node1&#45;&gt;Node2 -->
<g id="edge1" class="edge">
<title>Node1&#45;&gt;Node2</title>
<path fill="none" stroke="#63b8ff" d="M814.48,-661.83C680.88,-658.81 373.61,-648.29 118,-613 111.37,-612.09 104.42,-610.88 97.61,-609.56"/>
<polygon fill="#63b8ff" stroke="#63b8ff" points="98.3,-606.13 87.8,-607.57 96.91,-612.99 98.3,-606.13"/>
</g>
<!-- Node4 -->
<g id="node4" class="node">
<title>Node4</title>
<g id="a_node4"><a xlink:href="assert_8hpp.html" target="_top" xlink:title=" ">
<polygon fill="white" stroke="#666666" points="938.5,-613 825.5,-613 825.5,-583 938.5,-583 938.5,-613"/>
<text text-anchor="start" x="833.5" y="-601" font-family="Helvetica,sans-Serif" font-size="10.00">proxsuite/linalg/veg</text>
<text text-anchor="middle" x="882" y="-590" font-family="Helvetica,sans-Serif" font-size="10.00">/util/assert.hpp</text>
</a>
</g>
</g>
<!-- Node1&#45;&gt;Node4 -->
<g id="edge3" class="edge">
<title>Node1&#45;&gt;Node4</title>
<path fill="none" stroke="#63b8ff" d="M882,-648.8C882,-641.34 882,-631.99 882,-623.41"/>
<polygon fill="#63b8ff" stroke="#63b8ff" points="885.5,-623.16 882,-613.16 878.5,-623.16 885.5,-623.16"/>
</g>
<!-- Node16 -->
<g id="node16" class="node">
<title>Node16</title>
<g id="a_node16"><a xlink:href="prologue_8hpp.html" target="_top" xlink:title=" ">
<polygon fill="white" stroke="#666666" points="441,-85 317,-85 317,-55 441,-55 441,-85"/>
<text text-anchor="start" x="325" y="-73" font-family="Helvetica,sans-Serif" font-size="10.00">proxsuite/linalg/veg</text>
<text text-anchor="middle" x="379" y="-62" font-family="Helvetica,sans-Serif" font-size="10.00">/internal/prologue.hpp</text>
</a>
</g>
</g>
<!-- Node1&#45;&gt;Node16 -->
<g id="edge70" class="edge">
<title>Node1&#45;&gt;Node16</title>
<path fill="none" stroke="#63b8ff" d="M814.45,-658.37C630.1,-644.85 132,-601.92 132,-533 132,-533 132,-533 132,-201 132,-121.28 234,-90.33 306.91,-78.4"/>
<polygon fill="#63b8ff" stroke="#63b8ff" points="307.64,-81.83 316.99,-76.84 306.57,-74.91 307.64,-81.83"/>
</g>
<!-- Node18 -->
<g id="node18" class="node">
<title>Node18</title>
<g id="a_node18"><a xlink:href="epilogue_8hpp.html" target="_top" xlink:title=" ">
<polygon fill="white" stroke="#666666" points="1253.5,-85 1130.5,-85 1130.5,-55 1253.5,-55 1253.5,-85"/>
<text text-anchor="start" x="1138.5" y="-73" font-family="Helvetica,sans-Serif" font-size="10.00">proxsuite/linalg/veg</text>
<text text-anchor="middle" x="1192" y="-62" font-family="Helvetica,sans-Serif" font-size="10.00">/internal/epilogue.hpp</text>
</a>
</g>
</g>
<!-- Node1&#45;&gt;Node18 -->
<g id="edge74" class="edge">
<title>Node1&#45;&gt;Node18</title>
<path fill="none" stroke="#63b8ff" d="M949.73,-663.68C1116.77,-663.56 1535,-651.41 1535,-533 1535,-533 1535,-533 1535,-201 1535,-160.21 1523.38,-144.45 1490,-121 1471.71,-108.16 1345.75,-90.26 1263.55,-79.73"/>
<polygon fill="#63b8ff" stroke="#63b8ff" points="1263.87,-76.24 1253.5,-78.45 1262.98,-83.18 1263.87,-76.24"/>
</g>
<!-- Node34 -->
<g id="node34" class="node">
<title>Node34</title>
<g id="a_node34"><a xlink:href="common_8hpp.html" target="_top" xlink:title=" ">
<polygon fill="white" stroke="#666666" points="1731,-607.5 1563,-607.5 1563,-588.5 1731,-588.5 1731,-607.5"/>
<text text-anchor="middle" x="1647" y="-595.5" font-family="Helvetica,sans-Serif" font-size="10.00">proxsuite/helpers/common.hpp</text>
</a>
</g>
</g>
<!-- Node1&#45;&gt;Node34 -->
<g id="edge71" class="edge">
<title>Node1&#45;&gt;Node34</title>
<path fill="none" stroke="#63b8ff" d="M949.83,-659.42C1070.55,-652.72 1330.53,-636.77 1549,-613 1559.66,-611.84 1570.95,-610.41 1581.92,-608.92"/>
<polygon fill="#63b8ff" stroke="#63b8ff" points="1582.46,-612.38 1591.88,-607.54 1581.5,-605.45 1582.46,-612.38"/>
</g>
<!-- Node3 -->
<g id="node3" class="node">
<title>Node3</title>
<g id="a_node3"><a xlink:title=" ">
<polygon fill="#e0e0e0" stroke="#999999" points="86.5,-541.5 17.5,-541.5 17.5,-522.5 86.5,-522.5 86.5,-541.5"/>
<text text-anchor="middle" x="52" y="-529.5" font-family="Helvetica,sans-Serif" font-size="10.00">Eigen/Core</text>
</a>
</g>
</g>
<!-- Node2&#45;&gt;Node3 -->
<g id="edge2" class="edge">
<title>Node2&#45;&gt;Node3</title>
<path fill="none" stroke="#63b8ff" d="M52,-588.37C52,-579.16 52,-564.29 52,-552.27"/>
<polygon fill="#63b8ff" stroke="#63b8ff" points="55.5,-551.91 52,-541.91 48.5,-551.91 55.5,-551.91"/>
</g>
<!-- Node5 -->
<g id="node5" class="node">
<title>Node5</title>
<g id="a_node5"><a xlink:href="assert__impl_8hpp.html" target="_top" xlink:title=" ">
<polygon fill="white" stroke="#666666" points="951,-547 813,-547 813,-517 951,-517 951,-547"/>
<text text-anchor="start" x="821" y="-535" font-family="Helvetica,sans-Serif" font-size="10.00">proxsuite/linalg/veg</text>
<text text-anchor="middle" x="882" y="-524" font-family="Helvetica,sans-Serif" font-size="10.00">/internal/assert_impl.hpp</text>
</a>
</g>
</g>
<!-- Node4&#45;&gt;Node5 -->
<g id="edge4" class="edge">
<title>Node4&#45;&gt;Node5</title>
<path fill="none" stroke="#63b8ff" d="M882,-582.8C882,-575.34 882,-565.99 882,-557.41"/>
<polygon fill="#63b8ff" stroke="#63b8ff" points="885.5,-557.16 882,-547.16 878.5,-557.16 885.5,-557.16"/>
</g>
<!-- Node6 -->
<g id="node6" class="node">
<title>Node6</title>
<g id="a_node6"><a xlink:href="typedefs_8hpp.html" target="_top" xlink:title=" ">
<polygon fill="white" stroke="#666666" points="612,-85 488,-85 488,-55 612,-55 612,-85"/>
<text text-anchor="start" x="496" y="-73" font-family="Helvetica,sans-Serif" font-size="10.00">proxsuite/linalg/veg</text>
<text text-anchor="middle" x="550" y="-62" font-family="Helvetica,sans-Serif" font-size="10.00">/internal/typedefs.hpp</text>
</a>
</g>
</g>
<!-- Node5&#45;&gt;Node6 -->
<g id="edge5" class="edge">
<title>Node5&#45;&gt;Node6</title>
<path fill="none" stroke="#63b8ff" d="M812.78,-528.66C666.57,-522.11 334.02,-498.21 265,-415 162.11,-290.96 414.03,-141.64 512.55,-89.8"/>
<polygon fill="#63b8ff" stroke="#63b8ff" points="514.33,-92.82 521.59,-85.09 511.1,-86.61 514.33,-92.82"/>
</g>
<!-- Node9 -->
<g id="node9" class="node">
<title>Node9</title>
<g id="a_node9"><a xlink:href="defer_8hpp.html" target="_top" xlink:title=" ">
<polygon fill="white" stroke="#666666" points="1004.5,-481 891.5,-481 891.5,-451 1004.5,-451 1004.5,-481"/>
<text text-anchor="start" x="899.5" y="-469" font-family="Helvetica,sans-Serif" font-size="10.00">proxsuite/linalg/veg</text>
<text text-anchor="middle" x="948" y="-458" font-family="Helvetica,sans-Serif" font-size="10.00">/util/defer.hpp</text>
</a>
</g>
</g>
<!-- Node5&#45;&gt;Node9 -->
<g id="edge8" class="edge">
<title>Node5&#45;&gt;Node9</title>
<path fill="none" stroke="#63b8ff" d="M896.65,-516.8C905.28,-508.43 916.36,-497.68 926.02,-488.31"/>
<polygon fill="#63b8ff" stroke="#63b8ff" points="928.65,-490.64 933.39,-481.16 923.78,-485.61 928.65,-490.64"/>
</g>
<!-- Node5&#45;&gt;Node16 -->
<g id="edge67" class="edge">
<title>Node5&#45;&gt;Node16</title>
<path fill="none" stroke="#63b8ff" d="M812.96,-528.48C682.88,-523.15 406.33,-508.86 315,-481 244.6,-459.53 170,-474.6 170,-401 170,-401 170,-401 170,-201 170,-159.99 183.94,-146.58 216,-121 242,-100.26 276.57,-88.1 307.18,-80.98"/>
<polygon fill="#63b8ff" stroke="#63b8ff" points="307.94,-84.39 316.96,-78.83 306.45,-77.55 307.94,-84.39"/>
</g>
<!-- Node5&#45;&gt;Node18 -->
<g id="edge69" class="edge">
<title>Node5&#45;&gt;Node18</title>
<path fill="none" stroke="#63b8ff" d="M951.06,-530.82C1111.72,-528.55 1497,-511.56 1497,-401 1497,-401 1497,-401 1497,-201 1497,-162.37 1493.14,-145.16 1463,-121 1447.56,-108.62 1338.86,-91.36 1263.91,-80.69"/>
<polygon fill="#63b8ff" stroke="#63b8ff" points="1263.96,-77.17 1253.57,-79.23 1262.99,-84.1 1263.96,-77.17"/>
</g>
<!-- Node22 -->
<g id="node22" class="node">
<title>Node22</title>
<g id="a_node22"><a xlink:href="internal_2dbg_8hpp.html" target="_top" xlink:title=" ">
<polygon fill="white" stroke="#666666" points="873.5,-481 760.5,-481 760.5,-451 873.5,-451 873.5,-481"/>
<text text-anchor="start" x="768.5" y="-469" font-family="Helvetica,sans-Serif" font-size="10.00">proxsuite/linalg/veg</text>
<text text-anchor="middle" x="817" y="-458" font-family="Helvetica,sans-Serif" font-size="10.00">/internal/dbg.hpp</text>
</a>
</g>
</g>
<!-- Node5&#45;&gt;Node22 -->
<g id="edge36" class="edge">
<title>Node5&#45;&gt;Node22</title>
<path fill="none" stroke="#63b8ff" d="M867.57,-516.8C859.07,-508.43 848.16,-497.68 838.64,-488.31"/>
<polygon fill="#63b8ff" stroke="#63b8ff" points="840.97,-485.69 831.39,-481.16 836.06,-490.67 840.97,-485.69"/>
</g>
<!-- Node33 -->
<g id="node33" class="node">
<title>Node33</title>
<g id="a_node33"><a xlink:title=" ">
<polygon fill="#e0e0e0" stroke="#999999" points="1075,-475.5 1023,-475.5 1023,-456.5 1075,-456.5 1075,-475.5"/>
<text text-anchor="middle" x="1049" y="-463.5" font-family="Helvetica,sans-Serif" font-size="10.00">cassert</text>
</a>
</g>
</g>
<!-- Node5&#45;&gt;Node33 -->
<g id="edge68" class="edge">
<title>Node5&#45;&gt;Node33</title>
<path fill="none" stroke="#63b8ff" d="M919.01,-516.95C945.26,-506.96 981.31,-493.21 1013,-481 1014.41,-480.46 1015.85,-479.9 1017.3,-479.34"/>
<polygon fill="#63b8ff" stroke="#63b8ff" points="1018.86,-482.49 1026.92,-475.61 1016.33,-475.96 1018.86,-482.49"/>
</g>
<!-- Node7 -->
<g id="node7" class="node">
<title>Node7</title>
<g id="a_node7"><a xlink:title=" ">
<polygon fill="#e0e0e0" stroke="#999999" points="883,-19 833,-19 833,0 883,0 883,-19"/>
<text text-anchor="middle" x="858" y="-7" font-family="Helvetica,sans-Serif" font-size="10.00">cstdint</text>
</a>
</g>
</g>
<!-- Node6&#45;&gt;Node7 -->
<g id="edge6" class="edge">
<title>Node6&#45;&gt;Node7</title>
<path fill="none" stroke="#63b8ff" d="M612.33,-56.68C615.26,-56.11 618.16,-55.55 621,-55 692.51,-41.24 776.27,-25.63 822.61,-17.04"/>
<polygon fill="#63b8ff" stroke="#63b8ff" points="823.54,-20.43 832.73,-15.17 822.26,-13.55 823.54,-20.43"/>
</g>
<!-- Node8 -->
<g id="node8" class="node">
<title>Node8</title>
<g id="a_node8"><a xlink:title=" ">
<polygon fill="#e0e0e0" stroke="#999999" points="576.5,-19 523.5,-19 523.5,0 576.5,0 576.5,-19"/>
<text text-anchor="middle" x="550" y="-7" font-family="Helvetica,sans-Serif" font-size="10.00">cstddef</text>
</a>
</g>
</g>
<!-- Node6&#45;&gt;Node8 -->
<g id="edge7" class="edge">
<title>Node6&#45;&gt;Node8</title>
<path fill="none" stroke="#63b8ff" d="M550,-54.84C550,-47.21 550,-37.7 550,-29.45"/>
<polygon fill="#63b8ff" stroke="#63b8ff" points="553.5,-29.27 550,-19.27 546.5,-29.27 553.5,-29.27"/>
</g>
<!-- Node10 -->
<g id="node10" class="node">
<title>Node10</title>
<g id="a_node10"><a xlink:href="constructible_8hpp.html" target="_top" xlink:title=" ">
<polygon fill="white" stroke="#666666" points="1145.5,-349 986.5,-349 986.5,-319 1145.5,-319 1145.5,-349"/>
<text text-anchor="start" x="994.5" y="-337" font-family="Helvetica,sans-Serif" font-size="10.00">proxsuite/linalg/veg</text>
<text text-anchor="middle" x="1066" y="-326" font-family="Helvetica,sans-Serif" font-size="10.00">/type_traits/constructible.hpp</text>
</a>
</g>
</g>
<!-- Node9&#45;&gt;Node10 -->
<g id="edge9" class="edge">
<title>Node9&#45;&gt;Node10</title>
<path fill="none" stroke="#63b8ff" d="M996.12,-450.97C1025.66,-441.28 1059.42,-427.86 1068,-415 1078.91,-398.63 1077.14,-375.89 1073.38,-358.84"/>
<polygon fill="#63b8ff" stroke="#63b8ff" points="1076.75,-357.88 1070.87,-349.06 1069.97,-359.62 1076.75,-357.88"/>
</g>
<!-- Node9&#45;&gt;Node16 -->
<g id="edge34" class="edge">
<title>Node9&#45;&gt;Node16</title>
<path fill="none" stroke="#63b8ff" d="M891.16,-452.72C888.07,-452.12 885,-451.54 882,-451 819.99,-439.74 370.84,-391.18 324,-349 248.17,-280.72 245.7,-209.21 297,-121 304.7,-107.77 317.42,-97.59 330.57,-89.99"/>
<polygon fill="#63b8ff" stroke="#63b8ff" points="332.51,-92.92 339.69,-85.13 329.22,-86.74 332.51,-92.92"/>
</g>
<!-- Node9&#45;&gt;Node18 -->
<g id="edge35" class="edge">
<title>Node9&#45;&gt;Node18</title>
<path fill="none" stroke="#63b8ff" d="M1004.64,-452.08C1137.68,-421.55 1459,-346.61 1459,-335 1459,-335 1459,-335 1459,-201 1459,-164.35 1465.49,-146.32 1439,-121 1426.29,-108.85 1332.15,-92.25 1263.86,-81.57"/>
<polygon fill="#63b8ff" stroke="#63b8ff" points="1263.98,-78.05 1253.56,-79.97 1262.91,-84.96 1263.98,-78.05"/>
</g>
<!-- Node21 -->
<g id="node21" class="node">
<title>Node21</title>
<g id="a_node21"><a xlink:href="invocable_8hpp.html" target="_top" xlink:title=" ">
<polygon fill="white" stroke="#666666" points="1019.5,-415 876.5,-415 876.5,-385 1019.5,-385 1019.5,-415"/>
<text text-anchor="start" x="884.5" y="-403" font-family="Helvetica,sans-Serif" font-size="10.00">proxsuite/linalg/veg</text>
<text text-anchor="middle" x="948" y="-392" font-family="Helvetica,sans-Serif" font-size="10.00">/type_traits/invocable.hpp</text>
</a>
</g>
</g>
<!-- Node9&#45;&gt;Node21 -->
<g id="edge29" class="edge">
<title>Node9&#45;&gt;Node21</title>
<path fill="none" stroke="#63b8ff" d="M948,-450.8C948,-443.34 948,-433.99 948,-425.41"/>
<polygon fill="#63b8ff" stroke="#63b8ff" points="951.5,-425.16 948,-415.16 944.5,-425.16 951.5,-425.16"/>
</g>
<!-- Node11 -->
<g id="node11" class="node">
<title>Node11</title>
<g id="a_node11"><a xlink:href="veg_2type__traits_2core_8hpp.html" target="_top" xlink:title=" ">
<polygon fill="white" stroke="#666666" points="827.5,-283 710.5,-283 710.5,-253 827.5,-253 827.5,-283"/>
<text text-anchor="start" x="718.5" y="-271" font-family="Helvetica,sans-Serif" font-size="10.00">proxsuite/linalg/veg</text>
<text text-anchor="middle" x="769" y="-260" font-family="Helvetica,sans-Serif" font-size="10.00">/type_traits/core.hpp</text>
</a>
</g>
</g>
<!-- Node10&#45;&gt;Node11 -->
<g id="edge10" class="edge">
<title>Node10&#45;&gt;Node11</title>
<path fill="none" stroke="#63b8ff" d="M1000.82,-318.95C952.58,-308.56 886.99,-294.42 837.88,-283.84"/>
<polygon fill="#63b8ff" stroke="#63b8ff" points="838.49,-280.39 827.98,-281.71 837.02,-287.24 838.49,-280.39"/>
</g>
<!-- Node10&#45;&gt;Node16 -->
<g id="edge25" class="edge">
<title>Node10&#45;&gt;Node16</title>
<path fill="none" stroke="#63b8ff" d="M1066.77,-318.93C1066.92,-300.69 1064.13,-269.29 1045,-253 981.76,-199.16 753.28,-238.29 673,-217 603.78,-198.64 588.85,-185.33 526,-151 504.58,-139.3 501.2,-133.1 480,-121 460.38,-109.8 437.9,-98.53 419.15,-89.53"/>
<polygon fill="#63b8ff" stroke="#63b8ff" points="420.52,-86.31 409.99,-85.17 417.52,-92.63 420.52,-86.31"/>
</g>
<!-- Node10&#45;&gt;Node18 -->
<g id="edge28" class="edge">
<title>Node10&#45;&gt;Node18</title>
<path fill="none" stroke="#63b8ff" d="M1096.27,-318.89C1111.22,-310.46 1128.3,-298.39 1139,-283 1149.79,-267.48 1175.91,-147.61 1186.94,-95.29"/>
<polygon fill="#63b8ff" stroke="#63b8ff" points="1190.43,-95.72 1189.06,-85.21 1183.58,-94.28 1190.43,-95.72"/>
</g>
<!-- Node19 -->
<g id="node19" class="node">
<title>Node19</title>
<g id="a_node19"><a xlink:title=" ">
<polygon fill="#e0e0e0" stroke="#999999" points="1130.5,-277.5 1093.5,-277.5 1093.5,-258.5 1130.5,-258.5 1130.5,-277.5"/>
<text text-anchor="middle" x="1112" y="-265.5" font-family="Helvetica,sans-Serif" font-size="10.00">new</text>
</a>
</g>
</g>
<!-- Node10&#45;&gt;Node19 -->
<g id="edge26" class="edge">
<title>Node10&#45;&gt;Node19</title>
<path fill="none" stroke="#63b8ff" d="M1076.21,-318.8C1083.17,-309.11 1092.42,-296.24 1099.77,-286.01"/>
<polygon fill="#63b8ff" stroke="#63b8ff" points="1102.65,-288.01 1105.64,-277.84 1096.96,-283.92 1102.65,-288.01"/>
</g>
<!-- Node20 -->
<g id="node20" class="node">
<title>Node20</title>
<g id="a_node20"><a xlink:title=" ">
<polygon fill="#e0e0e0" stroke="#999999" points="1036.5,-277.5 967.5,-277.5 967.5,-258.5 1036.5,-258.5 1036.5,-277.5"/>
<text text-anchor="middle" x="1002" y="-265.5" font-family="Helvetica,sans-Serif" font-size="10.00">type_traits</text>
</a>
</g>
</g>
<!-- Node10&#45;&gt;Node20 -->
<g id="edge27" class="edge">
<title>Node10&#45;&gt;Node20</title>
<path fill="none" stroke="#63b8ff" d="M1051.8,-318.8C1041.82,-308.82 1028.46,-295.46 1018.09,-285.09"/>
<polygon fill="#63b8ff" stroke="#63b8ff" points="1020.39,-282.44 1010.84,-277.84 1015.44,-287.39 1020.39,-282.44"/>
</g>
<!-- Node11&#45;&gt;Node6 -->
<g id="edge11" class="edge">
<title>Node11&#45;&gt;Node6</title>
<path fill="none" stroke="#63b8ff" d="M734.17,-252.87C715.02,-244.15 691.48,-231.8 673,-217 627.09,-180.22 585.72,-124.27 564.66,-93.4"/>
<polygon fill="#63b8ff" stroke="#63b8ff" points="567.52,-91.38 559.03,-85.04 561.71,-95.29 567.52,-91.38"/>
</g>
<!-- Node12 -->
<g id="node12" class="node">
<title>Node12</title>
<g id="a_node12"><a xlink:href="integer__seq_8hpp.html" target="_top" xlink:title=" ">
<polygon fill="white" stroke="#666666" points="820,-217 682,-217 682,-187 820,-187 820,-217"/>
<text text-anchor="start" x="690" y="-205" font-family="Helvetica,sans-Serif" font-size="10.00">proxsuite/linalg/veg</text>
<text text-anchor="middle" x="751" y="-194" font-family="Helvetica,sans-Serif" font-size="10.00">/internal/integer_seq.hpp</text>
</a>
</g>
</g>
<!-- Node11&#45;&gt;Node12 -->
<g id="edge12" class="edge">
<title>Node11&#45;&gt;Node12</title>
<path fill="none" stroke="#63b8ff" d="M765.01,-252.8C762.86,-245.17 760.16,-235.57 757.71,-226.84"/>
<polygon fill="#63b8ff" stroke="#63b8ff" points="761.06,-225.84 754.98,-217.16 754.32,-227.74 761.06,-225.84"/>
</g>
<!-- Node11&#45;&gt;Node16 -->
<g id="edge23" class="edge">
<title>Node11&#45;&gt;Node16</title>
<path fill="none" stroke="#63b8ff" d="M710.24,-254.87C651.75,-242.54 568.75,-224.25 555,-217 499.06,-187.52 499.28,-160.62 450,-121 437.02,-110.56 422.01,-99.82 409.15,-90.98"/>
<polygon fill="#63b8ff" stroke="#63b8ff" points="410.88,-87.92 400.64,-85.19 406.94,-93.71 410.88,-87.92"/>
</g>
<!-- Node11&#45;&gt;Node18 -->
<g id="edge24" class="edge">
<title>Node11&#45;&gt;Node18</title>
<path fill="none" stroke="#63b8ff" d="M827.75,-260.12C868.73,-253.48 923.63,-240.76 967,-217 1021.6,-187.09 1016.61,-154.63 1069,-121 1089.79,-107.66 1114.72,-96.73 1136.69,-88.52"/>
<polygon fill="#63b8ff" stroke="#63b8ff" points="1138.01,-91.77 1146.22,-85.06 1135.63,-85.19 1138.01,-91.77"/>
</g>
<!-- Node12&#45;&gt;Node6 -->
<g id="edge13" class="edge">
<title>Node12&#45;&gt;Node6</title>
<path fill="none" stroke="#63b8ff" d="M731.79,-186.73C705.06,-166.97 657.95,-132.4 640,-121 622.69,-110 602.81,-98.82 586.15,-89.83"/>
<polygon fill="#63b8ff" stroke="#63b8ff" points="587.73,-86.7 577.26,-85.07 584.43,-92.87 587.73,-86.7"/>
</g>
<!-- Node13 -->
<g id="node13" class="node">
<title>Node13</title>
<g id="a_node13"><a xlink:href="macros_8hpp.html" target="_top" xlink:title=" ">
<polygon fill="white" stroke="#666666" points="809.5,-151 692.5,-151 692.5,-121 809.5,-121 809.5,-151"/>
<text text-anchor="start" x="700.5" y="-139" font-family="Helvetica,sans-Serif" font-size="10.00">proxsuite/linalg/veg</text>
<text text-anchor="middle" x="751" y="-128" font-family="Helvetica,sans-Serif" font-size="10.00">/internal/macros.hpp</text>
</a>
</g>
</g>
<!-- Node12&#45;&gt;Node13 -->
<g id="edge14" class="edge">
<title>Node12&#45;&gt;Node13</title>
<path fill="none" stroke="#63b8ff" d="M751,-186.8C751,-179.34 751,-169.99 751,-161.41"/>
<polygon fill="#63b8ff" stroke="#63b8ff" points="754.5,-161.16 751,-151.16 747.5,-161.16 754.5,-161.16"/>
</g>
<!-- Node12&#45;&gt;Node16 -->
<g id="edge21" class="edge">
<title>Node12&#45;&gt;Node16</title>
<path fill="none" stroke="#63b8ff" d="M712.04,-186.96C667.22,-170.86 591.39,-143.75 526,-121 494.34,-109.99 458.76,-97.88 430.53,-88.33"/>
<polygon fill="#63b8ff" stroke="#63b8ff" points="431.47,-84.96 420.87,-85.07 429.23,-91.59 431.47,-84.96"/>
</g>
<!-- Node12&#45;&gt;Node18 -->
<g id="edge22" class="edge">
<title>Node12&#45;&gt;Node18</title>
<path fill="none" stroke="#63b8ff" d="M820.34,-189.69C859.28,-181.83 908.1,-169.41 949,-151 970.58,-141.29 971.41,-130.7 993,-121 1033.42,-102.84 1081.54,-90.52 1120.33,-82.66"/>
<polygon fill="#63b8ff" stroke="#63b8ff" points="1121.37,-86.02 1130.5,-80.66 1120.01,-79.15 1121.37,-86.02"/>
</g>
<!-- Node13&#45;&gt;Node6 -->
<g id="edge16" class="edge">
<title>Node13&#45;&gt;Node6</title>
<path fill="none" stroke="#63b8ff" d="M706.89,-120.95C676.52,-111.28 635.99,-98.38 603.73,-88.11"/>
<polygon fill="#63b8ff" stroke="#63b8ff" points="604.6,-84.71 594.01,-85.01 602.47,-91.38 604.6,-84.71"/>
</g>
<!-- Node14 -->
<g id="node14" class="node">
<title>Node14</title>
<g id="a_node14"><a xlink:href="hedley_8ext_8hpp.html" target="_top" xlink:title=" ">
<polygon fill="white" stroke="#666666" points="805.5,-85 630.5,-85 630.5,-55 805.5,-55 805.5,-85"/>
<text text-anchor="start" x="638.5" y="-73" font-family="Helvetica,sans-Serif" font-size="10.00">proxsuite/linalg/veg</text>
<text text-anchor="middle" x="718" y="-62" font-family="Helvetica,sans-Serif" font-size="10.00">/internal/external/hedley.ext.hpp</text>
</a>
</g>
</g>
<!-- Node13&#45;&gt;Node14 -->
<g id="edge15" class="edge">
<title>Node13&#45;&gt;Node14</title>
<path fill="none" stroke="#63b8ff" d="M743.68,-120.8C739.66,-113.01 734.58,-103.16 730,-94.28"/>
<polygon fill="#63b8ff" stroke="#63b8ff" points="733,-92.45 725.3,-85.16 726.78,-95.66 733,-92.45"/>
</g>
<!-- Node15 -->
<g id="node15" class="node">
<title>Node15</title>
<g id="a_node15"><a xlink:href="preprocessor_8hpp.html" target="_top" xlink:title=" ">
<polygon fill="white" stroke="#666666" points="966.5,-85 823.5,-85 823.5,-55 966.5,-55 966.5,-85"/>
<text text-anchor="start" x="831.5" y="-73" font-family="Helvetica,sans-Serif" font-size="10.00">proxsuite/linalg/veg</text>
<text text-anchor="middle" x="895" y="-62" font-family="Helvetica,sans-Serif" font-size="10.00">/internal/preprocessor.hpp</text>
</a>
</g>
</g>
<!-- Node13&#45;&gt;Node15 -->
<g id="edge17" class="edge">
<title>Node13&#45;&gt;Node15</title>
<path fill="none" stroke="#63b8ff" d="M782.6,-120.95C803.61,-111.62 831.4,-99.27 854.09,-89.18"/>
<polygon fill="#63b8ff" stroke="#63b8ff" points="855.76,-92.27 863.47,-85.01 852.91,-85.88 855.76,-92.27"/>
</g>
<!-- Node13&#45;&gt;Node16 -->
<g id="edge18" class="edge">
<title>Node13&#45;&gt;Node16</title>
<path fill="none" stroke="#63b8ff" d="M692.47,-124.93C627.23,-113.71 521.69,-95.55 451.34,-83.45"/>
<polygon fill="#63b8ff" stroke="#63b8ff" points="451.67,-79.95 441.22,-81.71 450.49,-86.85 451.67,-79.95"/>
</g>
<!-- Node17 -->
<g id="node17" class="node">
<title>Node17</title>
<g id="a_node17"><a xlink:title=" ">
<polygon fill="#e0e0e0" stroke="#999999" points="1067.5,-79.5 984.5,-79.5 984.5,-60.5 1067.5,-60.5 1067.5,-79.5"/>
<text text-anchor="middle" x="1026" y="-67.5" font-family="Helvetica,sans-Serif" font-size="10.00">initializer_list</text>
</a>
</g>
</g>
<!-- Node13&#45;&gt;Node17 -->
<g id="edge19" class="edge">
<title>Node13&#45;&gt;Node17</title>
<path fill="none" stroke="#63b8ff" d="M809.66,-122.72C854.96,-113.04 919.12,-98.9 975,-85 978.6,-84.11 982.33,-83.14 986.06,-82.16"/>
<polygon fill="#63b8ff" stroke="#63b8ff" points="987.11,-85.5 995.86,-79.53 985.29,-78.74 987.11,-85.5"/>
</g>
<!-- Node13&#45;&gt;Node18 -->
<g id="edge20" class="edge">
<title>Node13&#45;&gt;Node18</title>
<path fill="none" stroke="#63b8ff" d="M809.78,-122.46C812.56,-121.95 815.31,-121.46 818,-121 874.48,-111.34 1028.42,-91.53 1120.24,-79.96"/>
<polygon fill="#63b8ff" stroke="#63b8ff" points="1120.82,-83.41 1130.3,-78.69 1119.94,-76.47 1120.82,-83.41"/>
</g>
<!-- Node21&#45;&gt;Node10 -->
<g id="edge31" class="edge">
<title>Node21&#45;&gt;Node10</title>
<path fill="none" stroke="#63b8ff" d="M973.9,-384.95C990.73,-375.83 1012.87,-363.82 1031.23,-353.86"/>
<polygon fill="#63b8ff" stroke="#63b8ff" points="1033.04,-356.86 1040.16,-349.01 1029.71,-350.7 1033.04,-356.86"/>
</g>
<!-- Node21&#45;&gt;Node11 -->
<g id="edge30" class="edge">
<title>Node21&#45;&gt;Node11</title>
<path fill="none" stroke="#63b8ff" d="M882.56,-385C858.66,-377.4 832.69,-365.97 813,-349 795.64,-334.03 783.85,-310.45 776.88,-292.76"/>
<polygon fill="#63b8ff" stroke="#63b8ff" points="780.07,-291.3 773.33,-283.13 773.51,-293.72 780.07,-291.3"/>
</g>
<!-- Node21&#45;&gt;Node16 -->
<g id="edge32" class="edge">
<title>Node21&#45;&gt;Node16</title>
<path fill="none" stroke="#63b8ff" d="M876.5,-392.91C758.54,-382.58 532.7,-361.55 498,-349 447.92,-330.89 430.42,-325.24 398,-283 379.17,-258.47 381.87,-247.36 376,-217 367.89,-175.07 369.03,-163.6 372,-121 372.58,-112.61 373.71,-103.48 374.9,-95.35"/>
<polygon fill="#63b8ff" stroke="#63b8ff" points="378.37,-95.8 376.45,-85.39 371.45,-94.73 378.37,-95.8"/>
</g>
<!-- Node21&#45;&gt;Node18 -->
<g id="edge33" class="edge">
<title>Node21&#45;&gt;Node18</title>
<path fill="none" stroke="#63b8ff" d="M1019.56,-393.68C1087.55,-387.2 1183.38,-373.9 1211,-349 1238.57,-324.15 1235,-306.12 1235,-269 1235,-269 1235,-269 1235,-201 1235,-162.18 1217.5,-119.98 1204.83,-94.51"/>
<polygon fill="#63b8ff" stroke="#63b8ff" points="1207.78,-92.59 1200.09,-85.3 1201.55,-95.8 1207.78,-92.59"/>
</g>
<!-- Node22&#45;&gt;Node10 -->
<g id="edge46" class="edge">
<title>Node22&#45;&gt;Node10</title>
<path fill="none" stroke="#63b8ff" d="M873.57,-452.22C935.02,-438.24 1024.93,-417.49 1028,-415 1045.39,-400.94 1055.29,-377.03 1060.59,-359"/>
<polygon fill="#63b8ff" stroke="#63b8ff" points="1064.01,-359.75 1063.2,-349.19 1057.25,-357.95 1064.01,-359.75"/>
</g>
<!-- Node22&#45;&gt;Node16 -->
<g id="edge63" class="edge">
<title>Node22&#45;&gt;Node16</title>
<path fill="none" stroke="#63b8ff" d="M760.42,-463.73C626.92,-460.19 300.8,-448.22 265,-415 216.81,-370.28 193.72,-174.45 232,-121 249.27,-96.89 278.85,-84.26 306.97,-77.71"/>
<polygon fill="#63b8ff" stroke="#63b8ff" points="307.76,-81.12 316.83,-75.64 306.32,-74.27 307.76,-81.12"/>
</g>
<!-- Node22&#45;&gt;Node18 -->
<g id="edge66" class="edge">
<title>Node22&#45;&gt;Node18</title>
<path fill="none" stroke="#63b8ff" d="M873.72,-452.77C876.52,-452.17 879.29,-451.58 882,-451 1059.29,-413.25 1273,-516.26 1273,-335 1273,-335 1273,-335 1273,-201 1273,-157.33 1239.67,-116.19 1215.77,-92.31"/>
<polygon fill="#63b8ff" stroke="#63b8ff" points="1218.01,-89.61 1208.39,-85.18 1213.15,-94.64 1218.01,-89.61"/>
</g>
<!-- Node23 -->
<g id="node23" class="node">
<title>Node23</title>
<g id="a_node23"><a xlink:href="primitives_8hpp.html" target="_top" xlink:title=" ">
<polygon fill="white" stroke="#666666" points="968,-349 822,-349 822,-319 968,-319 968,-349"/>
<text text-anchor="start" x="830" y="-337" font-family="Helvetica,sans-Serif" font-size="10.00">proxsuite/linalg/veg</text>
<text text-anchor="middle" x="895" y="-326" font-family="Helvetica,sans-Serif" font-size="10.00">/type_traits/primitives.hpp</text>
</a>
</g>
</g>
<!-- Node22&#45;&gt;Node23 -->
<g id="edge37" class="edge">
<title>Node22&#45;&gt;Node23</title>
<path fill="none" stroke="#63b8ff" d="M825.5,-450.84C838.92,-428.47 865.15,-384.74 881.27,-357.88"/>
<polygon fill="#63b8ff" stroke="#63b8ff" points="884.37,-359.52 886.51,-349.14 878.37,-355.92 884.37,-359.52"/>
</g>
<!-- Node24 -->
<g id="node24" class="node">
<title>Node24</title>
<g id="a_node24"><a xlink:href="terminate_8hpp.html" target="_top" xlink:title=" ">
<polygon fill="white" stroke="#666666" points="1430.5,-151 1301.5,-151 1301.5,-121 1430.5,-121 1430.5,-151"/>
<text text-anchor="start" x="1309.5" y="-139" font-family="Helvetica,sans-Serif" font-size="10.00">proxsuite/linalg/veg</text>
<text text-anchor="middle" x="1366" y="-128" font-family="Helvetica,sans-Serif" font-size="10.00">/internal/terminate.hpp</text>
</a>
</g>
</g>
<!-- Node22&#45;&gt;Node24 -->
<g id="edge42" class="edge">
<title>Node22&#45;&gt;Node24</title>
<path fill="none" stroke="#63b8ff" d="M873.64,-452.37C876.46,-451.88 879.26,-451.42 882,-451 971.33,-437.46 1216.97,-472.09 1287,-415 1315.77,-391.54 1311,-372.12 1311,-335 1311,-335 1311,-335 1311,-267 1311,-226.84 1333.54,-184.83 1349.76,-159.79"/>
<polygon fill="#63b8ff" stroke="#63b8ff" points="1352.74,-161.62 1355.4,-151.36 1346.92,-157.73 1352.74,-161.62"/>
</g>
<!-- Node26 -->
<g id="node26" class="node">
<title>Node26</title>
<g id="a_node26"><a xlink:href="ref_8hpp.html" target="_top" xlink:title=" ">
<polygon fill="white" stroke="#666666" points="766.5,-415 653.5,-415 653.5,-385 766.5,-385 766.5,-415"/>
<text text-anchor="start" x="661.5" y="-403" font-family="Helvetica,sans-Serif" font-size="10.00">proxsuite/linalg/veg</text>
<text text-anchor="middle" x="710" y="-392" font-family="Helvetica,sans-Serif" font-size="10.00">/ref.hpp</text>
</a>
</g>
</g>
<!-- Node22&#45;&gt;Node26 -->
<g id="edge47" class="edge">
<title>Node22&#45;&gt;Node26</title>
<path fill="none" stroke="#63b8ff" d="M793.52,-450.95C778.47,-441.95 758.73,-430.14 742.22,-420.27"/>
<polygon fill="#63b8ff" stroke="#63b8ff" points="743.81,-417.14 733.43,-415.01 740.21,-423.15 743.81,-417.14"/>
</g>
<!-- Node31 -->
<g id="node31" class="node">
<title>Node31</title>
<g id="a_node31"><a xlink:title=" ">
<polygon fill="#e0e0e0" stroke="#999999" points="324,-409.5 274,-409.5 274,-390.5 324,-390.5 324,-409.5"/>
<text text-anchor="middle" x="299" y="-397.5" font-family="Helvetica,sans-Serif" font-size="10.00">cstring</text>
</a>
</g>
</g>
<!-- Node22&#45;&gt;Node31 -->
<g id="edge64" class="edge">
<title>Node22&#45;&gt;Node31</title>
<path fill="none" stroke="#63b8ff" d="M760.19,-464.39C668.82,-462.24 484.13,-453.07 333,-415 330.84,-414.46 328.63,-413.8 326.44,-413.07"/>
<polygon fill="#63b8ff" stroke="#63b8ff" points="327.62,-409.78 317.02,-409.55 325.16,-416.33 327.62,-409.78"/>
</g>
<!-- Node32 -->
<g id="node32" class="node">
<title>Node32</title>
<g id="a_node32"><a xlink:title=" ">
<polygon fill="#e0e0e0" stroke="#999999" points="388,-409.5 342,-409.5 342,-390.5 388,-390.5 388,-409.5"/>
<text text-anchor="middle" x="365" y="-397.5" font-family="Helvetica,sans-Serif" font-size="10.00">cstdio</text>
</a>
</g>
</g>
<!-- Node22&#45;&gt;Node32 -->
<g id="edge65" class="edge">
<title>Node22&#45;&gt;Node32</title>
<path fill="none" stroke="#63b8ff" d="M760.18,-462.5C679.51,-457.98 527.62,-445.85 402,-415 399.55,-414.4 397.04,-413.68 394.54,-412.89"/>
<polygon fill="#63b8ff" stroke="#63b8ff" points="395.67,-409.58 385.08,-409.6 393.37,-416.19 395.67,-409.58"/>
</g>
<!-- Node23&#45;&gt;Node11 -->
<g id="edge38" class="edge">
<title>Node23&#45;&gt;Node11</title>
<path fill="none" stroke="#63b8ff" d="M867.35,-318.95C849.21,-309.74 825.3,-297.6 805.59,-287.59"/>
<polygon fill="#63b8ff" stroke="#63b8ff" points="807.09,-284.42 796.59,-283.01 803.92,-290.66 807.09,-284.42"/>
</g>
<!-- Node23&#45;&gt;Node16 -->
<g id="edge39" class="edge">
<title>Node23&#45;&gt;Node16</title>
<path fill="none" stroke="#63b8ff" d="M821.97,-321.64C784.48,-313.99 738.86,-301.77 701,-283 681.72,-273.44 682.37,-262.37 663,-253 600.5,-222.78 570.95,-252.02 511,-217 496.94,-208.79 430.66,-131.88 397.7,-93.12"/>
<polygon fill="#63b8ff" stroke="#63b8ff" points="399.97,-90.38 390.83,-85.02 394.63,-94.91 399.97,-90.38"/>
</g>
<!-- Node23&#45;&gt;Node18 -->
<g id="edge41" class="edge">
<title>Node23&#45;&gt;Node18</title>
<path fill="none" stroke="#63b8ff" d="M902.32,-318.81C912.4,-300.73 932.25,-269.82 958,-253 1011.43,-218.1 1045.2,-254.27 1097,-217 1140.64,-185.6 1169.48,-127.41 1183.03,-94.78"/>
<polygon fill="#63b8ff" stroke="#63b8ff" points="1186.42,-95.73 1186.89,-85.15 1179.92,-93.12 1186.42,-95.73"/>
</g>
<!-- Node23&#45;&gt;Node20 -->
<g id="edge40" class="edge">
<title>Node23&#45;&gt;Node20</title>
<path fill="none" stroke="#63b8ff" d="M918.48,-318.95C936.5,-308.18 961.24,-293.38 979.11,-282.69"/>
<polygon fill="#63b8ff" stroke="#63b8ff" points="980.97,-285.65 987.76,-277.52 977.38,-279.65 980.97,-285.65"/>
</g>
<!-- Node24&#45;&gt;Node16 -->
<g id="edge43" class="edge">
<title>Node24&#45;&gt;Node16</title>
<path fill="none" stroke="#63b8ff" d="M1301.31,-133.19C1154.7,-128.68 786,-115.09 479,-85 469.97,-84.11 460.5,-83.01 451.14,-81.82"/>
<polygon fill="#63b8ff" stroke="#63b8ff" points="451.42,-78.33 441.05,-80.5 450.51,-85.27 451.42,-78.33"/>
</g>
<!-- Node24&#45;&gt;Node18 -->
<g id="edge45" class="edge">
<title>Node24&#45;&gt;Node18</title>
<path fill="none" stroke="#63b8ff" d="M1327.81,-120.95C1301.86,-111.41 1267.34,-98.71 1239.6,-88.51"/>
<polygon fill="#63b8ff" stroke="#63b8ff" points="1240.69,-85.18 1230.1,-85.01 1238.27,-91.75 1240.69,-85.18"/>
</g>
<!-- Node25 -->
<g id="node25" class="node">
<title>Node25</title>
<g id="a_node25"><a xlink:title=" ">
<polygon fill="#e0e0e0" stroke="#999999" points="1398.5,-79.5 1333.5,-79.5 1333.5,-60.5 1398.5,-60.5 1398.5,-79.5"/>
<text text-anchor="middle" x="1366" y="-67.5" font-family="Helvetica,sans-Serif" font-size="10.00">exception</text>
</a>
</g>
</g>
<!-- Node24&#45;&gt;Node25 -->
<g id="edge44" class="edge">
<title>Node24&#45;&gt;Node25</title>
<path fill="none" stroke="#63b8ff" d="M1366,-120.8C1366,-111.7 1366,-99.79 1366,-89.9"/>
<polygon fill="#63b8ff" stroke="#63b8ff" points="1369.5,-89.84 1366,-79.84 1362.5,-89.84 1369.5,-89.84"/>
</g>
<!-- Node26&#45;&gt;Node10 -->
<g id="edge52" class="edge">
<title>Node26&#45;&gt;Node10</title>
<path fill="none" stroke="#63b8ff" d="M766.8,-388.79C823.66,-378.57 911.93,-362.7 977.89,-350.84"/>
<polygon fill="#63b8ff" stroke="#63b8ff" points="978.64,-354.26 987.86,-349.05 977.4,-347.37 978.64,-354.26"/>
</g>
<!-- Node26&#45;&gt;Node16 -->
<g id="edge61" class="edge">
<title>Node26&#45;&gt;Node16</title>
<path fill="none" stroke="#63b8ff" d="M653.26,-398.99C562.16,-397.74 389.1,-389.87 346,-349 308.73,-313.66 284.34,-166.59 308,-121 314.59,-108.29 326.06,-98.13 337.89,-90.38"/>
<polygon fill="#63b8ff" stroke="#63b8ff" points="339.76,-93.34 346.49,-85.16 336.13,-87.35 339.76,-93.34"/>
</g>
<!-- Node26&#45;&gt;Node18 -->
<g id="edge62" class="edge">
<title>Node26&#45;&gt;Node18</title>
<path fill="none" stroke="#63b8ff" d="M766.92,-394C883.13,-383.6 1138.16,-359.72 1154,-349 1187.43,-326.38 1197,-309.37 1197,-269 1197,-269 1197,-269 1197,-201 1197,-164.04 1194.96,-121.22 1193.48,-95.13"/>
<polygon fill="#63b8ff" stroke="#63b8ff" points="1196.97,-94.82 1192.89,-85.04 1189.98,-95.22 1196.97,-94.82"/>
</g>
<!-- Node27 -->
<g id="node27" class="node">
<title>Node27</title>
<g id="a_node27"><a xlink:href="tags_8hpp.html" target="_top" xlink:title=" ">
<polygon fill="white" stroke="#666666" points="624.5,-349 507.5,-349 507.5,-319 624.5,-319 624.5,-349"/>
<text text-anchor="start" x="515.5" y="-337" font-family="Helvetica,sans-Serif" font-size="10.00">proxsuite/linalg/veg</text>
<text text-anchor="middle" x="566" y="-326" font-family="Helvetica,sans-Serif" font-size="10.00">/type_traits/tags.hpp</text>
</a>
</g>
</g>
<!-- Node26&#45;&gt;Node27 -->
<g id="edge48" class="edge">
<title>Node26&#45;&gt;Node27</title>
<path fill="none" stroke="#63b8ff" d="M678.4,-384.95C657.39,-375.62 629.6,-363.27 606.91,-353.18"/>
<polygon fill="#63b8ff" stroke="#63b8ff" points="608.09,-349.88 597.53,-349.01 605.24,-356.27 608.09,-349.88"/>
</g>
<!-- Node28 -->
<g id="node28" class="node">
<title>Node28</title>
<g id="a_node28"><a xlink:href="address_8hpp.html" target="_top" xlink:title=" ">
<polygon fill="white" stroke="#666666" points="765.5,-349 642.5,-349 642.5,-319 765.5,-319 765.5,-349"/>
<text text-anchor="start" x="650.5" y="-337" font-family="Helvetica,sans-Serif" font-size="10.00">proxsuite/linalg/veg</text>
<text text-anchor="middle" x="704" y="-326" font-family="Helvetica,sans-Serif" font-size="10.00">/memory/address.hpp</text>
</a>
</g>
</g>
<!-- Node26&#45;&gt;Node28 -->
<g id="edge53" class="edge">
<title>Node26&#45;&gt;Node28</title>
<path fill="none" stroke="#63b8ff" d="M708.67,-384.8C707.96,-377.26 707.07,-367.78 706.26,-359.13"/>
<polygon fill="#63b8ff" stroke="#63b8ff" points="709.75,-358.79 705.33,-349.16 702.78,-359.45 709.75,-358.79"/>
</g>
<!-- Node27&#45;&gt;Node11 -->
<g id="edge49" class="edge">
<title>Node27&#45;&gt;Node11</title>
<path fill="none" stroke="#63b8ff" d="M610.55,-318.95C641.22,-309.28 682.16,-296.38 714.73,-286.11"/>
<polygon fill="#63b8ff" stroke="#63b8ff" points="716.07,-289.36 724.55,-283.01 713.97,-282.68 716.07,-289.36"/>
</g>
<!-- Node27&#45;&gt;Node16 -->
<g id="edge50" class="edge">
<title>Node27&#45;&gt;Node16</title>
<path fill="none" stroke="#63b8ff" d="M507.19,-325.51C477.95,-318.89 444.21,-306.44 422,-283 372.71,-230.98 373.01,-138.71 376.36,-95.11"/>
<polygon fill="#63b8ff" stroke="#63b8ff" points="379.85,-95.4 377.25,-85.13 372.87,-94.78 379.85,-95.4"/>
</g>
<!-- Node27&#45;&gt;Node18 -->
<g id="edge51" class="edge">
<title>Node27&#45;&gt;Node18</title>
<path fill="none" stroke="#63b8ff" d="M565.36,-318.77C565.38,-300.64 568.4,-269.68 587,-253 667.97,-180.41 724.32,-246.42 829,-217 901.48,-196.63 918.54,-186.37 985,-151 1006.55,-139.53 1008.91,-131.39 1031,-121 1060.27,-107.24 1094.27,-96.04 1123.46,-87.76"/>
<polygon fill="#63b8ff" stroke="#63b8ff" points="1124.47,-91.11 1133.17,-85.06 1122.59,-84.37 1124.47,-91.11"/>
</g>
<!-- Node28&#45;&gt;Node11 -->
<g id="edge54" class="edge">
<title>Node28&#45;&gt;Node11</title>
<path fill="none" stroke="#63b8ff" d="M718.43,-318.8C726.93,-310.43 737.84,-299.68 747.36,-290.31"/>
<polygon fill="#63b8ff" stroke="#63b8ff" points="749.94,-292.67 754.61,-283.16 745.03,-287.69 749.94,-292.67"/>
</g>
<!-- Node28&#45;&gt;Node16 -->
<g id="edge58" class="edge">
<title>Node28&#45;&gt;Node16</title>
<path fill="none" stroke="#63b8ff" d="M652.16,-318.98C598.52,-302.25 515.05,-269.72 460,-217 423.32,-181.87 398.91,-126.45 387.15,-94.96"/>
<polygon fill="#63b8ff" stroke="#63b8ff" points="390.34,-93.48 383.65,-85.26 383.76,-95.85 390.34,-93.48"/>
</g>
<!-- Node28&#45;&gt;Node18 -->
<g id="edge60" class="edge">
<title>Node28&#45;&gt;Node18</title>
<path fill="none" stroke="#63b8ff" d="M754.49,-318.91C785.59,-309.75 826.06,-296.93 861,-283 889.43,-271.66 895.36,-266.15 923,-253 957.11,-236.77 967.67,-236.54 1000,-217 1064.36,-178.09 1132.92,-121.92 1168.1,-91.85"/>
<polygon fill="#63b8ff" stroke="#63b8ff" points="1170.6,-94.32 1175.9,-85.15 1166.04,-89.01 1170.6,-94.32"/>
</g>
<!-- Node29 -->
<g id="node29" class="node">
<title>Node29</title>
<g id="a_node29"><a xlink:href="std_8hpp.html" target="_top" xlink:title=" ">
<polygon fill="white" stroke="#666666" points="940.5,-151 827.5,-151 827.5,-121 940.5,-121 940.5,-151"/>
<text text-anchor="start" x="835.5" y="-139" font-family="Helvetica,sans-Serif" font-size="10.00">proxsuite/linalg/veg</text>
<text text-anchor="middle" x="884" y="-128" font-family="Helvetica,sans-Serif" font-size="10.00">/internal/std.hpp</text>
</a>
</g>
</g>
<!-- Node28&#45;&gt;Node29 -->
<g id="edge55" class="edge">
<title>Node28&#45;&gt;Node29</title>
<path fill="none" stroke="#63b8ff" d="M765.65,-321.77C790.38,-314.45 817.37,-302.48 836,-283 868.34,-249.19 878.89,-193.21 882.34,-161.29"/>
<polygon fill="#63b8ff" stroke="#63b8ff" points="885.85,-161.35 883.28,-151.07 878.88,-160.71 885.85,-161.35"/>
</g>
<!-- Node30 -->
<g id="node30" class="node">
<title>Node30</title>
<g id="a_node30"><a xlink:title=" ">
<polygon fill="#e0e0e0" stroke="#999999" points="654,-277.5 596,-277.5 596,-258.5 654,-258.5 654,-277.5"/>
<text text-anchor="middle" x="625" y="-265.5" font-family="Helvetica,sans-Serif" font-size="10.00">memory</text>
</a>
</g>
</g>
<!-- Node28&#45;&gt;Node30 -->
<g id="edge59" class="edge">
<title>Node28&#45;&gt;Node30</title>
<path fill="none" stroke="#63b8ff" d="M686.47,-318.8C673.79,-308.53 656.68,-294.67 643.74,-284.18"/>
<polygon fill="#63b8ff" stroke="#63b8ff" points="645.89,-281.42 635.92,-277.84 641.48,-286.86 645.89,-281.42"/>
</g>
<!-- Node29&#45;&gt;Node7 -->
<g id="edge56" class="edge">
<title>Node29&#45;&gt;Node7</title>
<path fill="none" stroke="#63b8ff" d="M940.69,-123.88C994.22,-112.81 1067.55,-95.94 1076,-85 1084.15,-74.45 1084.43,-65.33 1076,-55 1053.34,-27.24 949.01,-16.34 893.3,-12.45"/>
<polygon fill="#63b8ff" stroke="#63b8ff" points="893.38,-8.95 883.17,-11.78 892.92,-15.93 893.38,-8.95"/>
</g>
<!-- Node29&#45;&gt;Node17 -->
<g id="edge57" class="edge">
<title>Node29&#45;&gt;Node17</title>
<path fill="none" stroke="#63b8ff" d="M915.16,-120.95C939.85,-109.83 974.03,-94.42 997.88,-83.67"/>
<polygon fill="#63b8ff" stroke="#63b8ff" points="999.42,-86.82 1007.1,-79.52 996.55,-80.44 999.42,-86.82"/>
</g>
<!-- Node35 -->
<g id="node35" class="node">
<title>Node35</title>
<g id="a_node35"><a xlink:title=" ">
<polygon fill="#e0e0e0" stroke="#999999" points="1692,-541.5 1576,-541.5 1576,-522.5 1692,-522.5 1692,-541.5"/>
<text text-anchor="middle" x="1634" y="-529.5" font-family="Helvetica,sans-Serif" font-size="10.00">proxsuite/config.hpp</text>
</a>
</g>
</g>
<!-- Node34&#45;&gt;Node35 -->
<g id="edge72" class="edge">
<title>Node34&#45;&gt;Node35</title>
<path fill="none" stroke="#63b8ff" d="M1645.25,-588.37C1643.36,-579.07 1640.29,-563.98 1637.84,-551.9"/>
<polygon fill="#63b8ff" stroke="#63b8ff" points="1641.23,-551.01 1635.81,-541.91 1634.37,-552.4 1641.23,-551.01"/>
</g>
<!-- Node36 -->
<g id="node36" class="node">
<title>Node36</title>
<g id="a_node36"><a xlink:title=" ">
<polygon fill="#e0e0e0" stroke="#999999" points="1754,-541.5 1710,-541.5 1710,-522.5 1754,-522.5 1754,-541.5"/>
<text text-anchor="middle" x="1732" y="-529.5" font-family="Helvetica,sans-Serif" font-size="10.00">limits</text>
</a>
</g>
</g>
<!-- Node34&#45;&gt;Node36 -->
<g id="edge73" class="edge">
<title>Node34&#45;&gt;Node36</title>
<path fill="none" stroke="#63b8ff" d="M1658.46,-588.37C1672.28,-577.97 1695.71,-560.32 1712.41,-547.75"/>
<polygon fill="#63b8ff" stroke="#63b8ff" points="1714.56,-550.51 1720.45,-541.7 1710.35,-544.92 1714.56,-550.51"/>
</g>
</g>
</svg>
