<?xml version="1.0" encoding="UTF-8" standalone="no"?>
<!DOCTYPE svg PUBLIC "-//W3C//DTD SVG 1.1//EN"
 "http://www.w3.org/Graphics/SVG/1.1/DTD/svg11.dtd">
<!-- Generated by graphviz version 8.0.4 (20230426.1303)
 -->
<!-- Title: include/proxsuite/linalg/veg/internal/narrow.hpp Pages: 1 -->
<svg width="1756pt" height="724pt"
 viewBox="0.00 0.00 1756.38 723.75" xmlns="http://www.w3.org/2000/svg" xmlns:xlink="http://www.w3.org/1999/xlink">
<g id="graph0" class="graph" transform="scale(1 1) rotate(0) translate(4 719.75)">
<title>include/proxsuite/linalg/veg/internal/narrow.hpp</title>
<!-- Node1 -->
<g id="node1" class="node">
<title>Node1</title>
<g id="a_node1"><a xlink:title=" ">
<polygon fill="#999999" stroke="#666666" points="955.75,-715.75 821.25,-715.75 821.25,-682.25 955.75,-682.25 955.75,-715.75"/>
<text text-anchor="start" x="829.25" y="-702.25" font-family="Helvetica,sans-Serif" font-size="10.00">include/proxsuite/linalg</text>
<text text-anchor="middle" x="888.5" y="-689.5" font-family="Helvetica,sans-Serif" font-size="10.00">/veg/internal/narrow.hpp</text>
</a>
</g>
</g>
<!-- Node2 -->
<g id="node2" class="node">
<title>Node2</title>
<g id="a_node2"><a xlink:href="fwd_8hpp.html" target="_top" xlink:title=" ">
<polygon fill="white" stroke="#666666" points="103,-639.88 0,-639.88 0,-619.12 103,-619.12 103,-639.88"/>
<text text-anchor="middle" x="51.5" y="-626.38" font-family="Helvetica,sans-Serif" font-size="10.00">proxsuite/fwd.hpp</text>
</a>
</g>
</g>
<!-- Node1&#45;&gt;Node2 -->
<g id="edge1" class="edge">
<title>Node1&#45;&gt;Node2</title>
<path fill="none" stroke="#63b8ff" d="M820.8,-697.25C686.11,-694.92 375.31,-685.38 117.5,-646.25 111.31,-645.31 104.84,-644.08 98.48,-642.72"/>
<polygon fill="#63b8ff" stroke="#63b8ff" points="99.47,-639.13 88.94,-640.35 97.93,-645.96 99.47,-639.13"/>
</g>
<!-- Node4 -->
<g id="node4" class="node">
<title>Node4</title>
<g id="a_node4"><a xlink:href="assert_8hpp.html" target="_top" xlink:title=" ">
<polygon fill="white" stroke="#666666" points="944.88,-646.25 832.12,-646.25 832.12,-612.75 944.88,-612.75 944.88,-646.25"/>
<text text-anchor="start" x="840.12" y="-632.75" font-family="Helvetica,sans-Serif" font-size="10.00">proxsuite/linalg/veg</text>
<text text-anchor="middle" x="888.5" y="-620" font-family="Helvetica,sans-Serif" font-size="10.00">/util/assert.hpp</text>
</a>
</g>
</g>
<!-- Node1&#45;&gt;Node4 -->
<g id="edge3" class="edge">
<title>Node1&#45;&gt;Node4</title>
<path fill="none" stroke="#63b8ff" d="M888.5,-682C888.5,-674.61 888.5,-665.62 888.5,-657.23"/>
<polygon fill="#63b8ff" stroke="#63b8ff" points="892,-657.38 888.5,-647.38 885,-657.38 892,-657.38"/>
</g>
<!-- Node16 -->
<g id="node16" class="node">
<title>Node16</title>
<g id="a_node16"><a xlink:href="prologue_8hpp.html" target="_top" xlink:title=" ">
<polygon fill="white" stroke="#666666" points="440.12,-90.25 316.88,-90.25 316.88,-56.75 440.12,-56.75 440.12,-90.25"/>
<text text-anchor="start" x="324.88" y="-76.75" font-family="Helvetica,sans-Serif" font-size="10.00">proxsuite/linalg/veg</text>
<text text-anchor="middle" x="378.5" y="-64" font-family="Helvetica,sans-Serif" font-size="10.00">/internal/prologue.hpp</text>
</a>
</g>
</g>
<!-- Node1&#45;&gt;Node16 -->
<g id="edge70" class="edge">
<title>Node1&#45;&gt;Node16</title>
<path fill="none" stroke="#63b8ff" d="M820.99,-692.87C635.45,-677.88 131.5,-630.74 131.5,-561 131.5,-561 131.5,-561 131.5,-211.5 131.5,-168.23 144.32,-152.78 178.5,-126.25 214.78,-98.09 264.81,-85.15 305.75,-79.26"/>
<polygon fill="#63b8ff" stroke="#63b8ff" points="306.04,-82.62 315.5,-77.84 305.12,-75.68 306.04,-82.62"/>
</g>
<!-- Node18 -->
<g id="node18" class="node">
<title>Node18</title>
<g id="a_node18"><a xlink:href="epilogue_8hpp.html" target="_top" xlink:title=" ">
<polygon fill="white" stroke="#666666" points="1249.75,-90.25 1127.25,-90.25 1127.25,-56.75 1249.75,-56.75 1249.75,-90.25"/>
<text text-anchor="start" x="1135.25" y="-76.75" font-family="Helvetica,sans-Serif" font-size="10.00">proxsuite/linalg/veg</text>
<text text-anchor="middle" x="1188.5" y="-64" font-family="Helvetica,sans-Serif" font-size="10.00">/internal/epilogue.hpp</text>
</a>
</g>
</g>
<!-- Node1&#45;&gt;Node18 -->
<g id="edge74" class="edge">
<title>Node1&#45;&gt;Node18</title>
<path fill="none" stroke="#63b8ff" d="M955.99,-697.75C1120.82,-695.31 1530.5,-677.53 1530.5,-561 1530.5,-561 1530.5,-561 1530.5,-211.5 1530.5,-169.06 1521.6,-151.51 1487.5,-126.25 1469.5,-112.92 1343.39,-94.45 1260.8,-83.56"/>
<polygon fill="#63b8ff" stroke="#63b8ff" points="1261.33,-79.97 1250.96,-82.14 1260.42,-86.91 1261.33,-79.97"/>
</g>
<!-- Node34 -->
<g id="node34" class="node">
<title>Node34</title>
<g id="a_node34"><a xlink:href="common_8hpp.html" target="_top" xlink:title=" ">
<polygon fill="white" stroke="#666666" points="1726.25,-639.88 1558.75,-639.88 1558.75,-619.12 1726.25,-619.12 1726.25,-639.88"/>
<text text-anchor="middle" x="1642.5" y="-626.38" font-family="Helvetica,sans-Serif" font-size="10.00">proxsuite/helpers/common.hpp</text>
</a>
</g>
</g>
<!-- Node1&#45;&gt;Node34 -->
<g id="edge71" class="edge">
<title>Node1&#45;&gt;Node34</title>
<path fill="none" stroke="#63b8ff" d="M956.2,-694.46C1075.4,-687.84 1330.39,-671.86 1544.5,-646.25 1554.53,-645.05 1565.11,-643.57 1575.46,-642.01"/>
<polygon fill="#63b8ff" stroke="#63b8ff" points="1575.78,-645.35 1585.12,-640.36 1574.7,-638.43 1575.78,-645.35"/>
</g>
<!-- Node3 -->
<g id="node3" class="node">
<title>Node3</title>
<g id="a_node3"><a xlink:title=" ">
<polygon fill="#e0e0e0" stroke="#999999" points="85.75,-570.38 17.25,-570.38 17.25,-549.62 85.75,-549.62 85.75,-570.38"/>
<text text-anchor="middle" x="51.5" y="-556.88" font-family="Helvetica,sans-Serif" font-size="10.00">Eigen/Core</text>
</a>
</g>
</g>
<!-- Node2&#45;&gt;Node3 -->
<g id="edge2" class="edge">
<title>Node2&#45;&gt;Node3</title>
<path fill="none" stroke="#63b8ff" d="M51.5,-618.83C51.5,-609.1 51.5,-593.82 51.5,-581.4"/>
<polygon fill="#63b8ff" stroke="#63b8ff" points="55,-581.65 51.5,-571.65 48,-581.65 55,-581.65"/>
</g>
<!-- Node5 -->
<g id="node5" class="node">
<title>Node5</title>
<g id="a_node5"><a xlink:href="assert__impl_8hpp.html" target="_top" xlink:title=" ">
<polygon fill="white" stroke="#666666" points="957.25,-576.75 819.75,-576.75 819.75,-543.25 957.25,-543.25 957.25,-576.75"/>
<text text-anchor="start" x="827.75" y="-563.25" font-family="Helvetica,sans-Serif" font-size="10.00">proxsuite/linalg/veg</text>
<text text-anchor="middle" x="888.5" y="-550.5" font-family="Helvetica,sans-Serif" font-size="10.00">/internal/assert_impl.hpp</text>
</a>
</g>
</g>
<!-- Node4&#45;&gt;Node5 -->
<g id="edge4" class="edge">
<title>Node4&#45;&gt;Node5</title>
<path fill="none" stroke="#63b8ff" d="M888.5,-612.5C888.5,-605.11 888.5,-596.12 888.5,-587.73"/>
<polygon fill="#63b8ff" stroke="#63b8ff" points="892,-587.88 888.5,-577.88 885,-587.88 892,-587.88"/>
</g>
<!-- Node6 -->
<g id="node6" class="node">
<title>Node6</title>
<g id="a_node6"><a xlink:href="typedefs_8hpp.html" target="_top" xlink:title=" ">
<polygon fill="white" stroke="#666666" points="611.12,-90.25 487.88,-90.25 487.88,-56.75 611.12,-56.75 611.12,-90.25"/>
<text text-anchor="start" x="495.88" y="-76.75" font-family="Helvetica,sans-Serif" font-size="10.00">proxsuite/linalg/veg</text>
<text text-anchor="middle" x="549.5" y="-64" font-family="Helvetica,sans-Serif" font-size="10.00">/internal/typedefs.hpp</text>
</a>
</g>
</g>
<!-- Node5&#45;&gt;Node6 -->
<g id="edge5" class="edge">
<title>Node5&#45;&gt;Node6</title>
<path fill="none" stroke="#63b8ff" d="M819.3,-556.22C671.82,-548.68 334.26,-522.37 264.5,-437.75 159.39,-310.25 408.34,-152.56 509.31,-95.96"/>
<polygon fill="#63b8ff" stroke="#63b8ff" points="510.84,-98.56 517.89,-90.65 507.44,-92.44 510.84,-98.56"/>
</g>
<!-- Node9 -->
<g id="node9" class="node">
<title>Node9</title>
<g id="a_node9"><a xlink:href="defer_8hpp.html" target="_top" xlink:title=" ">
<polygon fill="white" stroke="#666666" points="1010.88,-507.25 898.12,-507.25 898.12,-473.75 1010.88,-473.75 1010.88,-507.25"/>
<text text-anchor="start" x="906.12" y="-493.75" font-family="Helvetica,sans-Serif" font-size="10.00">proxsuite/linalg/veg</text>
<text text-anchor="middle" x="954.5" y="-481" font-family="Helvetica,sans-Serif" font-size="10.00">/util/defer.hpp</text>
</a>
</g>
</g>
<!-- Node5&#45;&gt;Node9 -->
<g id="edge8" class="edge">
<title>Node5&#45;&gt;Node9</title>
<path fill="none" stroke="#63b8ff" d="M904.14,-543C912.28,-534.68 922.38,-524.35 931.4,-515.12"/>
<polygon fill="#63b8ff" stroke="#63b8ff" points="933.48,-517.98 937.97,-508.38 928.48,-513.08 933.48,-517.98"/>
</g>
<!-- Node5&#45;&gt;Node16 -->
<g id="edge67" class="edge">
<title>Node5&#45;&gt;Node16</title>
<path fill="none" stroke="#63b8ff" d="M819.3,-556.55C687.81,-551.29 406.73,-536.87 314.5,-507.25 243.32,-484.39 169.5,-496.76 169.5,-422 169.5,-422 169.5,-422 169.5,-211.5 169.5,-168.66 181.6,-153.7 214.5,-126.25 240.24,-104.78 274.94,-92.18 305.79,-84.81"/>
<polygon fill="#63b8ff" stroke="#63b8ff" points="306.53,-88.01 315.53,-82.42 305,-81.18 306.53,-88.01"/>
</g>
<!-- Node5&#45;&gt;Node18 -->
<g id="edge69" class="edge">
<title>Node5&#45;&gt;Node18</title>
<path fill="none" stroke="#63b8ff" d="M957.49,-557.79C1115.97,-553.14 1492.5,-530.67 1492.5,-422 1492.5,-422 1492.5,-422 1492.5,-211.5 1492.5,-170.87 1490.7,-152.27 1459.5,-126.25 1444.31,-113.59 1335.96,-95.73 1260.96,-84.65"/>
<polygon fill="#63b8ff" stroke="#63b8ff" points="1261.55,-81.05 1251.15,-83.06 1260.53,-87.97 1261.55,-81.05"/>
</g>
<!-- Node22 -->
<g id="node22" class="node">
<title>Node22</title>
<g id="a_node22"><a xlink:href="internal_2dbg_8hpp.html" target="_top" xlink:title=" ">
<polygon fill="white" stroke="#666666" points="879.88,-507.25 767.12,-507.25 767.12,-473.75 879.88,-473.75 879.88,-507.25"/>
<text text-anchor="start" x="775.12" y="-493.75" font-family="Helvetica,sans-Serif" font-size="10.00">proxsuite/linalg/veg</text>
<text text-anchor="middle" x="823.5" y="-481" font-family="Helvetica,sans-Serif" font-size="10.00">/internal/dbg.hpp</text>
</a>
</g>
</g>
<!-- Node5&#45;&gt;Node22 -->
<g id="edge36" class="edge">
<title>Node5&#45;&gt;Node22</title>
<path fill="none" stroke="#63b8ff" d="M873.1,-543C865.08,-534.68 855.13,-524.35 846.25,-515.12"/>
<polygon fill="#63b8ff" stroke="#63b8ff" points="849.25,-513.16 839.79,-508.38 844.21,-518.01 849.25,-513.16"/>
</g>
<!-- Node33 -->
<g id="node33" class="node">
<title>Node33</title>
<g id="a_node33"><a xlink:title=" ">
<polygon fill="#e0e0e0" stroke="#999999" points="1080.12,-500.88 1028.88,-500.88 1028.88,-480.12 1080.12,-480.12 1080.12,-500.88"/>
<text text-anchor="middle" x="1054.5" y="-487.38" font-family="Helvetica,sans-Serif" font-size="10.00">cassert</text>
</a>
</g>
</g>
<!-- Node5&#45;&gt;Node33 -->
<g id="edge68" class="edge">
<title>Node5&#45;&gt;Node33</title>
<path fill="none" stroke="#63b8ff" d="M930.89,-542.83C956.63,-532.87 990.1,-519.66 1019.5,-507.25 1020.74,-506.73 1022.01,-506.18 1023.28,-505.63"/>
<polygon fill="#63b8ff" stroke="#63b8ff" points="1024.35,-508.55 1032.1,-501.32 1021.53,-502.14 1024.35,-508.55"/>
</g>
<!-- Node7 -->
<g id="node7" class="node">
<title>Node7</title>
<g id="a_node7"><a xlink:title=" ">
<polygon fill="#e0e0e0" stroke="#999999" points="880,-20.75 831,-20.75 831,0 880,0 880,-20.75"/>
<text text-anchor="middle" x="855.5" y="-7.25" font-family="Helvetica,sans-Serif" font-size="10.00">cstdint</text>
</a>
</g>
</g>
<!-- Node6&#45;&gt;Node7 -->
<g id="edge6" class="edge">
<title>Node6&#45;&gt;Node7</title>
<path fill="none" stroke="#63b8ff" d="M611.43,-58.66C614.5,-58 617.53,-57.37 620.5,-56.75 691.16,-42.09 774.11,-26.44 820.15,-17.89"/>
<polygon fill="#63b8ff" stroke="#63b8ff" points="820.56,-21.18 829.76,-15.92 819.29,-14.3 820.56,-21.18"/>
</g>
<!-- Node8 -->
<g id="node8" class="node">
<title>Node8</title>
<g id="a_node8"><a xlink:title=" ">
<polygon fill="#e0e0e0" stroke="#999999" points="575.5,-20.75 523.5,-20.75 523.5,0 575.5,0 575.5,-20.75"/>
<text text-anchor="middle" x="549.5" y="-7.25" font-family="Helvetica,sans-Serif" font-size="10.00">cstddef</text>
</a>
</g>
</g>
<!-- Node6&#45;&gt;Node8 -->
<g id="edge7" class="edge">
<title>Node6&#45;&gt;Node8</title>
<path fill="none" stroke="#63b8ff" d="M549.5,-56.44C549.5,-49.02 549.5,-40.11 549.5,-32.18"/>
<polygon fill="#63b8ff" stroke="#63b8ff" points="553,-32.22 549.5,-22.22 546,-32.22 553,-32.22"/>
</g>
<!-- Node10 -->
<g id="node10" class="node">
<title>Node10</title>
<g id="a_node10"><a xlink:href="constructible_8hpp.html" target="_top" xlink:title=" ">
<polygon fill="white" stroke="#666666" points="1149.75,-368.25 991.25,-368.25 991.25,-334.75 1149.75,-334.75 1149.75,-368.25"/>
<text text-anchor="start" x="999.25" y="-354.75" font-family="Helvetica,sans-Serif" font-size="10.00">proxsuite/linalg/veg</text>
<text text-anchor="middle" x="1070.5" y="-342" font-family="Helvetica,sans-Serif" font-size="10.00">/type_traits/constructible.hpp</text>
</a>
</g>
</g>
<!-- Node9&#45;&gt;Node10 -->
<g id="edge9" class="edge">
<title>Node9&#45;&gt;Node10</title>
<path fill="none" stroke="#63b8ff" d="M1006.12,-473.36C1034.44,-463.35 1065.41,-450.09 1073.5,-437.75 1084.68,-420.7 1082.97,-397.34 1079,-379.39"/>
<polygon fill="#63b8ff" stroke="#63b8ff" points="1082.14,-378.56 1076.25,-369.75 1075.36,-380.3 1082.14,-378.56"/>
</g>
<!-- Node9&#45;&gt;Node16 -->
<g id="edge34" class="edge">
<title>Node9&#45;&gt;Node16</title>
<path fill="none" stroke="#63b8ff" d="M897.68,-475.62C894.58,-474.97 891.51,-474.34 888.5,-473.75 825.6,-461.49 368.43,-411.89 321.5,-368.25 242.28,-294.59 242.33,-220.46 295.5,-126.25 302.62,-113.64 314.2,-103.69 326.49,-96.03"/>
<polygon fill="#63b8ff" stroke="#63b8ff" points="328.02,-98.61 334.95,-90.6 324.54,-92.54 328.02,-98.61"/>
</g>
<!-- Node9&#45;&gt;Node18 -->
<g id="edge35" class="edge">
<title>Node9&#45;&gt;Node18</title>
<path fill="none" stroke="#63b8ff" d="M1011.37,-475.42C1142.42,-442.79 1454.5,-363.88 1454.5,-352.5 1454.5,-352.5 1454.5,-352.5 1454.5,-211.5 1454.5,-172.68 1463.12,-153.52 1435.5,-126.25 1423,-113.9 1329.17,-96.71 1260.86,-85.59"/>
<polygon fill="#63b8ff" stroke="#63b8ff" points="1261.56,-82 1251.13,-83.86 1260.44,-88.91 1261.56,-82"/>
</g>
<!-- Node21 -->
<g id="node21" class="node">
<title>Node21</title>
<g id="a_node21"><a xlink:href="invocable_8hpp.html" target="_top" xlink:title=" ">
<polygon fill="white" stroke="#666666" points="1025.88,-437.75 883.12,-437.75 883.12,-404.25 1025.88,-404.25 1025.88,-437.75"/>
<text text-anchor="start" x="891.12" y="-424.25" font-family="Helvetica,sans-Serif" font-size="10.00">proxsuite/linalg/veg</text>
<text text-anchor="middle" x="954.5" y="-411.5" font-family="Helvetica,sans-Serif" font-size="10.00">/type_traits/invocable.hpp</text>
</a>
</g>
</g>
<!-- Node9&#45;&gt;Node21 -->
<g id="edge29" class="edge">
<title>Node9&#45;&gt;Node21</title>
<path fill="none" stroke="#63b8ff" d="M954.5,-473.5C954.5,-466.11 954.5,-457.12 954.5,-448.73"/>
<polygon fill="#63b8ff" stroke="#63b8ff" points="958,-448.88 954.5,-438.88 951,-448.88 958,-448.88"/>
</g>
<!-- Node11 -->
<g id="node11" class="node">
<title>Node11</title>
<g id="a_node11"><a xlink:href="veg_2type__traits_2core_8hpp.html" target="_top" xlink:title=" ">
<polygon fill="white" stroke="#666666" points="831.75,-298.75 715.25,-298.75 715.25,-265.25 831.75,-265.25 831.75,-298.75"/>
<text text-anchor="start" x="723.25" y="-285.25" font-family="Helvetica,sans-Serif" font-size="10.00">proxsuite/linalg/veg</text>
<text text-anchor="middle" x="773.5" y="-272.5" font-family="Helvetica,sans-Serif" font-size="10.00">/type_traits/core.hpp</text>
</a>
</g>
</g>
<!-- Node10&#45;&gt;Node11 -->
<g id="edge10" class="edge">
<title>Node10&#45;&gt;Node11</title>
<path fill="none" stroke="#63b8ff" d="M999.36,-334.33C951.92,-323.55 889.86,-309.44 842.8,-298.75"/>
<polygon fill="#63b8ff" stroke="#63b8ff" points="843.61,-295.12 833.09,-296.32 842.06,-301.94 843.61,-295.12"/>
</g>
<!-- Node10&#45;&gt;Node16 -->
<g id="edge25" class="edge">
<title>Node10&#45;&gt;Node16</title>
<path fill="none" stroke="#63b8ff" d="M1070.8,-334.45C1070.2,-314.83 1065.95,-282.15 1045.5,-265.25 981.14,-212.05 751.97,-251.53 671.5,-229.25 602.24,-210.07 587.06,-196.83 525.5,-159.75 504.14,-146.89 501.69,-139.38 480.5,-126.25 462.41,-115.04 441.6,-104.15 423.5,-95.27"/>
<polygon fill="#63b8ff" stroke="#63b8ff" points="425.29,-91.77 414.77,-90.56 422.24,-98.07 425.29,-91.77"/>
</g>
<!-- Node10&#45;&gt;Node18 -->
<g id="edge28" class="edge">
<title>Node10&#45;&gt;Node18</title>
<path fill="none" stroke="#63b8ff" d="M1099.78,-334.34C1113.2,-325.5 1128.16,-313.37 1137.5,-298.75 1148.13,-282.1 1172.81,-157.15 1183.46,-101.32"/>
<polygon fill="#63b8ff" stroke="#63b8ff" points="1187.08,-101.99 1185.51,-91.52 1180.2,-100.69 1187.08,-101.99"/>
</g>
<!-- Node19 -->
<g id="node19" class="node">
<title>Node19</title>
<g id="a_node19"><a xlink:title=" ">
<polygon fill="#e0e0e0" stroke="#999999" points="1128.62,-292.38 1092.38,-292.38 1092.38,-271.62 1128.62,-271.62 1128.62,-292.38"/>
<text text-anchor="middle" x="1110.5" y="-278.88" font-family="Helvetica,sans-Serif" font-size="10.00">new</text>
</a>
</g>
</g>
<!-- Node10&#45;&gt;Node19 -->
<g id="edge26" class="edge">
<title>Node10&#45;&gt;Node19</title>
<path fill="none" stroke="#63b8ff" d="M1079.98,-334.5C1085.73,-324.8 1093.11,-312.35 1099.17,-302.12"/>
<polygon fill="#63b8ff" stroke="#63b8ff" points="1102.59,-304.21 1104.68,-293.82 1096.57,-300.64 1102.59,-304.21"/>
</g>
<!-- Node20 -->
<g id="node20" class="node">
<title>Node20</title>
<g id="a_node20"><a xlink:title=" ">
<polygon fill="#e0e0e0" stroke="#999999" points="1036.75,-292.38 968.25,-292.38 968.25,-271.62 1036.75,-271.62 1036.75,-292.38"/>
<text text-anchor="middle" x="1002.5" y="-278.88" font-family="Helvetica,sans-Serif" font-size="10.00">type_traits</text>
</a>
</g>
</g>
<!-- Node10&#45;&gt;Node20 -->
<g id="edge27" class="edge">
<title>Node10&#45;&gt;Node20</title>
<path fill="none" stroke="#63b8ff" d="M1054.38,-334.5C1044.1,-324.29 1030.75,-311.05 1020.17,-300.54"/>
<polygon fill="#63b8ff" stroke="#63b8ff" points="1022.96,-298.38 1013.39,-293.82 1018.03,-303.35 1022.96,-298.38"/>
</g>
<!-- Node11&#45;&gt;Node6 -->
<g id="edge11" class="edge">
<title>Node11&#45;&gt;Node6</title>
<path fill="none" stroke="#63b8ff" d="M731.84,-264.82C712.32,-256.05 689.47,-243.97 671.5,-229.25 625.01,-191.17 584.88,-132.49 564.27,-99.4"/>
<polygon fill="#63b8ff" stroke="#63b8ff" points="566.96,-98.1 558.75,-91.4 560.99,-101.76 566.96,-98.1"/>
</g>
<!-- Node12 -->
<g id="node12" class="node">
<title>Node12</title>
<g id="a_node12"><a xlink:href="integer__seq_8hpp.html" target="_top" xlink:title=" ">
<polygon fill="white" stroke="#666666" points="818.25,-229.25 680.75,-229.25 680.75,-195.75 818.25,-195.75 818.25,-229.25"/>
<text text-anchor="start" x="688.75" y="-215.75" font-family="Helvetica,sans-Serif" font-size="10.00">proxsuite/linalg/veg</text>
<text text-anchor="middle" x="749.5" y="-203" font-family="Helvetica,sans-Serif" font-size="10.00">/internal/integer_seq.hpp</text>
</a>
</g>
</g>
<!-- Node11&#45;&gt;Node12 -->
<g id="edge12" class="edge">
<title>Node11&#45;&gt;Node12</title>
<path fill="none" stroke="#63b8ff" d="M767.81,-265C765.12,-257.44 761.84,-248.21 758.8,-239.66"/>
<polygon fill="#63b8ff" stroke="#63b8ff" points="761.79,-238.63 755.15,-230.38 755.2,-240.98 761.79,-238.63"/>
</g>
<!-- Node11&#45;&gt;Node16 -->
<g id="edge23" class="edge">
<title>Node11&#45;&gt;Node16</title>
<path fill="none" stroke="#63b8ff" d="M714.81,-267.95C652.39,-253.95 561.63,-233.18 554.5,-229.25 497.25,-197.69 499.38,-168.5 449.5,-126.25 437.42,-116.02 423.46,-105.57 411.14,-96.77"/>
<polygon fill="#63b8ff" stroke="#63b8ff" points="413.69,-93.58 403.5,-90.68 409.65,-99.31 413.69,-93.58"/>
</g>
<!-- Node11&#45;&gt;Node18 -->
<g id="edge24" class="edge">
<title>Node11&#45;&gt;Node18</title>
<path fill="none" stroke="#63b8ff" d="M831.97,-273.68C871.98,-266.73 925.07,-253.58 966.5,-229.25 1021.52,-196.94 1013.86,-162.31 1066.5,-126.25 1085.17,-113.46 1107.51,-102.85 1127.94,-94.65"/>
<polygon fill="#63b8ff" stroke="#63b8ff" points="1129.05,-97.58 1137.1,-90.69 1126.51,-91.06 1129.05,-97.58"/>
</g>
<!-- Node12&#45;&gt;Node6 -->
<g id="edge13" class="edge">
<title>Node12&#45;&gt;Node6</title>
<path fill="none" stroke="#63b8ff" d="M728.66,-195.44C715.43,-185.23 697.95,-171.73 682.5,-159.75 663.36,-144.9 659.61,-139.77 639.5,-126.25 623.64,-115.59 605.49,-104.89 589.66,-96"/>
<polygon fill="#63b8ff" stroke="#63b8ff" points="591.58,-92.51 581.14,-90.72 588.19,-98.63 591.58,-92.51"/>
</g>
<!-- Node13 -->
<g id="node13" class="node">
<title>Node13</title>
<g id="a_node13"><a xlink:href="macros_8hpp.html" target="_top" xlink:title=" ">
<polygon fill="white" stroke="#666666" points="807.75,-159.75 691.25,-159.75 691.25,-126.25 807.75,-126.25 807.75,-159.75"/>
<text text-anchor="start" x="699.25" y="-146.25" font-family="Helvetica,sans-Serif" font-size="10.00">proxsuite/linalg/veg</text>
<text text-anchor="middle" x="749.5" y="-133.5" font-family="Helvetica,sans-Serif" font-size="10.00">/internal/macros.hpp</text>
</a>
</g>
</g>
<!-- Node12&#45;&gt;Node13 -->
<g id="edge14" class="edge">
<title>Node12&#45;&gt;Node13</title>
<path fill="none" stroke="#63b8ff" d="M749.5,-195.5C749.5,-188.11 749.5,-179.12 749.5,-170.73"/>
<polygon fill="#63b8ff" stroke="#63b8ff" points="753,-170.88 749.5,-160.88 746,-170.88 753,-170.88"/>
</g>
<!-- Node12&#45;&gt;Node16 -->
<g id="edge21" class="edge">
<title>Node12&#45;&gt;Node16</title>
<path fill="none" stroke="#63b8ff" d="M707.92,-195.32C663.04,-177.93 589.38,-149.65 525.5,-126.25 495.99,-115.44 462.99,-103.79 435.75,-94.28"/>
<polygon fill="#63b8ff" stroke="#63b8ff" points="437.21,-90.73 426.61,-90.75 434.9,-97.34 437.21,-90.73"/>
</g>
<!-- Node12&#45;&gt;Node18 -->
<g id="edge22" class="edge">
<title>Node12&#45;&gt;Node18</title>
<path fill="none" stroke="#63b8ff" d="M818.38,-200.64C857.61,-192.73 906.88,-179.81 947.5,-159.75 969.22,-149.02 968.78,-136.98 990.5,-126.25 1029.96,-106.76 1077.58,-94.02 1116.23,-86.05"/>
<polygon fill="#63b8ff" stroke="#63b8ff" points="1116.76,-89.32 1125.88,-83.93 1115.39,-82.45 1116.76,-89.32"/>
</g>
<!-- Node13&#45;&gt;Node6 -->
<g id="edge16" class="edge">
<title>Node13&#45;&gt;Node6</title>
<path fill="none" stroke="#63b8ff" d="M701.6,-125.83C673.37,-116.31 637.47,-104.19 607.64,-94.12"/>
<polygon fill="#63b8ff" stroke="#63b8ff" points="608.95,-90.53 598.36,-90.65 606.72,-97.17 608.95,-90.53"/>
</g>
<!-- Node14 -->
<g id="node14" class="node">
<title>Node14</title>
<g id="a_node14"><a xlink:href="hedley_8ext_8hpp.html" target="_top" xlink:title=" ">
<polygon fill="white" stroke="#666666" points="803.62,-90.25 629.38,-90.25 629.38,-56.75 803.62,-56.75 803.62,-90.25"/>
<text text-anchor="start" x="637.38" y="-76.75" font-family="Helvetica,sans-Serif" font-size="10.00">proxsuite/linalg/veg</text>
<text text-anchor="middle" x="716.5" y="-64" font-family="Helvetica,sans-Serif" font-size="10.00">/internal/external/hedley.ext.hpp</text>
</a>
</g>
</g>
<!-- Node13&#45;&gt;Node14 -->
<g id="edge15" class="edge">
<title>Node13&#45;&gt;Node14</title>
<path fill="none" stroke="#63b8ff" d="M741.68,-126C737.9,-118.27 733.27,-108.8 729.01,-100.09"/>
<polygon fill="#63b8ff" stroke="#63b8ff" points="731.8,-98.83 724.26,-91.38 725.51,-101.9 731.8,-98.83"/>
</g>
<!-- Node15 -->
<g id="node15" class="node">
<title>Node15</title>
<g id="a_node15"><a xlink:href="preprocessor_8hpp.html" target="_top" xlink:title=" ">
<polygon fill="white" stroke="#666666" points="964.88,-90.25 822.12,-90.25 822.12,-56.75 964.88,-56.75 964.88,-90.25"/>
<text text-anchor="start" x="830.12" y="-76.75" font-family="Helvetica,sans-Serif" font-size="10.00">proxsuite/linalg/veg</text>
<text text-anchor="middle" x="893.5" y="-64" font-family="Helvetica,sans-Serif" font-size="10.00">/internal/preprocessor.hpp</text>
</a>
</g>
</g>
<!-- Node13&#45;&gt;Node15 -->
<g id="edge17" class="edge">
<title>Node13&#45;&gt;Node15</title>
<path fill="none" stroke="#63b8ff" d="M783.99,-125.83C803.67,-116.61 828.54,-104.95 849.6,-95.08"/>
<polygon fill="#63b8ff" stroke="#63b8ff" points="850.72,-97.95 858.29,-90.54 847.75,-91.61 850.72,-97.95"/>
</g>
<!-- Node13&#45;&gt;Node16 -->
<g id="edge18" class="edge">
<title>Node13&#45;&gt;Node16</title>
<path fill="none" stroke="#63b8ff" d="M691.12,-131.38C626.2,-119.57 521.24,-100.47 451.08,-87.7"/>
<polygon fill="#63b8ff" stroke="#63b8ff" points="452.02,-84.14 441.56,-85.79 450.77,-91.02 452.02,-84.14"/>
</g>
<!-- Node17 -->
<g id="node17" class="node">
<title>Node17</title>
<g id="a_node17"><a xlink:title=" ">
<polygon fill="#e0e0e0" stroke="#999999" points="1064.5,-83.88 982.5,-83.88 982.5,-63.12 1064.5,-63.12 1064.5,-83.88"/>
<text text-anchor="middle" x="1023.5" y="-70.38" font-family="Helvetica,sans-Serif" font-size="10.00">initializer_list</text>
</a>
</g>
</g>
<!-- Node13&#45;&gt;Node17 -->
<g id="edge19" class="edge">
<title>Node13&#45;&gt;Node17</title>
<path fill="none" stroke="#63b8ff" d="M808.1,-128.42C811.28,-127.69 814.43,-126.96 817.5,-126.25 886.83,-110.22 904.85,-108.95 973.5,-90.25 976.69,-89.38 979.98,-88.44 983.28,-87.47"/>
<polygon fill="#63b8ff" stroke="#63b8ff" points="984.18,-90.55 992.74,-84.3 982.15,-83.85 984.18,-90.55"/>
</g>
<!-- Node13&#45;&gt;Node18 -->
<g id="edge20" class="edge">
<title>Node13&#45;&gt;Node18</title>
<path fill="none" stroke="#63b8ff" d="M808.04,-128.09C811.23,-127.44 814.4,-126.82 817.5,-126.25 832.01,-123.56 1012.58,-98.65 1116.34,-84.4"/>
<polygon fill="#63b8ff" stroke="#63b8ff" points="1116.63,-87.75 1126.06,-82.93 1115.67,-80.82 1116.63,-87.75"/>
</g>
<!-- Node21&#45;&gt;Node10 -->
<g id="edge31" class="edge">
<title>Node21&#45;&gt;Node10</title>
<path fill="none" stroke="#63b8ff" d="M982.28,-403.83C997.64,-394.9 1016.91,-383.69 1033.52,-374.02"/>
<polygon fill="#63b8ff" stroke="#63b8ff" points="1035.06,-376.59 1041.94,-368.54 1031.54,-370.54 1035.06,-376.59"/>
</g>
<!-- Node21&#45;&gt;Node11 -->
<g id="edge30" class="edge">
<title>Node21&#45;&gt;Node11</title>
<path fill="none" stroke="#63b8ff" d="M883.87,-403.82C861.07,-395.97 836.95,-384.57 818.5,-368.25 800.69,-352.49 788.78,-327.96 781.72,-309.25"/>
<polygon fill="#63b8ff" stroke="#63b8ff" points="784.74,-308.28 778.11,-300.02 778.14,-310.61 784.74,-308.28"/>
</g>
<!-- Node21&#45;&gt;Node16 -->
<g id="edge32" class="edge">
<title>Node21&#45;&gt;Node16</title>
<path fill="none" stroke="#63b8ff" d="M882.71,-413.5C764.93,-402.56 540.19,-380.49 505.5,-368.25 450.96,-349.01 430.51,-344.77 395.5,-298.75 351.04,-240.31 362.73,-146.71 372.06,-101.15"/>
<polygon fill="#63b8ff" stroke="#63b8ff" points="375.64,-102.17 374.35,-91.65 368.8,-100.68 375.64,-102.17"/>
</g>
<!-- Node21&#45;&gt;Node18 -->
<g id="edge33" class="edge">
<title>Node21&#45;&gt;Node18</title>
<path fill="none" stroke="#63b8ff" d="M1026.22,-413.69C1091.81,-406.49 1182.45,-392.45 1208.5,-368.25 1237.34,-341.46 1232.5,-322.36 1232.5,-283 1232.5,-283 1232.5,-283 1232.5,-211.5 1232.5,-171.14 1214.98,-127.16 1202.05,-100.2"/>
<polygon fill="#63b8ff" stroke="#63b8ff" points="1204.77,-98.82 1197.19,-91.41 1198.5,-101.93 1204.77,-98.82"/>
</g>
<!-- Node22&#45;&gt;Node10 -->
<g id="edge46" class="edge">
<title>Node22&#45;&gt;Node10</title>
<path fill="none" stroke="#63b8ff" d="M880.35,-475.88C942.32,-460.99 1032.99,-439.04 1034.5,-437.75 1051.9,-422.92 1061.08,-398.24 1065.8,-379.24"/>
<polygon fill="#63b8ff" stroke="#63b8ff" points="1069.42,-380.08 1068.14,-369.56 1062.58,-378.58 1069.42,-380.08"/>
</g>
<!-- Node22&#45;&gt;Node16 -->
<g id="edge63" class="edge">
<title>Node22&#45;&gt;Node16</title>
<path fill="none" stroke="#63b8ff" d="M766.68,-488.13C631.76,-484.33 300.63,-471.62 264.5,-437.75 213.71,-390.15 191.27,-183.06 231.5,-126.25 248.62,-102.07 278,-89.11 306,-82.19"/>
<polygon fill="#63b8ff" stroke="#63b8ff" points="306.64,-85.41 315.64,-79.82 305.12,-78.58 306.64,-85.41"/>
</g>
<!-- Node22&#45;&gt;Node18 -->
<g id="edge66" class="edge">
<title>Node22&#45;&gt;Node18</title>
<path fill="none" stroke="#63b8ff" d="M880.36,-475.83C883.45,-475.12 886.51,-474.42 889.5,-473.75 1062.88,-434.82 1270.5,-530.2 1270.5,-352.5 1270.5,-352.5 1270.5,-352.5 1270.5,-211.5 1270.5,-166.48 1237.49,-123.44 1213.36,-97.99"/>
<polygon fill="#63b8ff" stroke="#63b8ff" points="1216.39,-96.06 1206.89,-91.36 1211.39,-100.95 1216.39,-96.06"/>
</g>
<!-- Node23 -->
<g id="node23" class="node">
<title>Node23</title>
<g id="a_node23"><a xlink:href="primitives_8hpp.html" target="_top" xlink:title=" ">
<polygon fill="white" stroke="#666666" points="973,-368.25 828,-368.25 828,-334.75 973,-334.75 973,-368.25"/>
<text text-anchor="start" x="836" y="-354.75" font-family="Helvetica,sans-Serif" font-size="10.00">proxsuite/linalg/veg</text>
<text text-anchor="middle" x="900.5" y="-342" font-family="Helvetica,sans-Serif" font-size="10.00">/type_traits/primitives.hpp</text>
</a>
</g>
</g>
<!-- Node22&#45;&gt;Node23 -->
<g id="edge37" class="edge">
<title>Node22&#45;&gt;Node23</title>
<path fill="none" stroke="#63b8ff" d="M832.48,-473.52C845.7,-450.01 870.51,-405.87 886.23,-377.89"/>
<polygon fill="#63b8ff" stroke="#63b8ff" points="889.73,-379.81 891.57,-369.38 883.62,-376.38 889.73,-379.81"/>
</g>
<!-- Node24 -->
<g id="node24" class="node">
<title>Node24</title>
<g id="a_node24"><a xlink:href="terminate_8hpp.html" target="_top" xlink:title=" ">
<polygon fill="white" stroke="#666666" points="1426.75,-159.75 1298.25,-159.75 1298.25,-126.25 1426.75,-126.25 1426.75,-159.75"/>
<text text-anchor="start" x="1306.25" y="-146.25" font-family="Helvetica,sans-Serif" font-size="10.00">proxsuite/linalg/veg</text>
<text text-anchor="middle" x="1362.5" y="-133.5" font-family="Helvetica,sans-Serif" font-size="10.00">/internal/terminate.hpp</text>
</a>
</g>
</g>
<!-- Node22&#45;&gt;Node24 -->
<g id="edge42" class="edge">
<title>Node22&#45;&gt;Node24</title>
<path fill="none" stroke="#63b8ff" d="M880.28,-475.4C883.39,-474.8 886.48,-474.25 889.5,-473.75 976.48,-459.48 1216.73,-494.1 1284.5,-437.75 1314.77,-412.58 1308.5,-391.86 1308.5,-352.5 1308.5,-352.5 1308.5,-352.5 1308.5,-281 1308.5,-239.74 1329.96,-196.06 1345.82,-169.4"/>
<polygon fill="#63b8ff" stroke="#63b8ff" points="1349.31,-171.41 1351.57,-161.06 1343.35,-167.74 1349.31,-171.41"/>
</g>
<!-- Node26 -->
<g id="node26" class="node">
<title>Node26</title>
<g id="a_node26"><a xlink:href="ref_8hpp.html" target="_top" xlink:title=" ">
<polygon fill="white" stroke="#666666" points="772.88,-437.75 660.12,-437.75 660.12,-404.25 772.88,-404.25 772.88,-437.75"/>
<text text-anchor="start" x="668.12" y="-424.25" font-family="Helvetica,sans-Serif" font-size="10.00">proxsuite/linalg/veg</text>
<text text-anchor="middle" x="716.5" y="-411.5" font-family="Helvetica,sans-Serif" font-size="10.00">/ref.hpp</text>
</a>
</g>
</g>
<!-- Node22&#45;&gt;Node26 -->
<g id="edge47" class="edge">
<title>Node22&#45;&gt;Node26</title>
<path fill="none" stroke="#63b8ff" d="M797.87,-473.33C783.84,-464.48 766.27,-453.39 751.04,-443.79"/>
<polygon fill="#63b8ff" stroke="#63b8ff" points="753.25,-440.41 742.92,-438.04 749.51,-446.33 753.25,-440.41"/>
</g>
<!-- Node31 -->
<g id="node31" class="node">
<title>Node31</title>
<g id="a_node31"><a xlink:title=" ">
<polygon fill="#e0e0e0" stroke="#999999" points="323,-431.38 274,-431.38 274,-410.62 323,-410.62 323,-431.38"/>
<text text-anchor="middle" x="298.5" y="-417.88" font-family="Helvetica,sans-Serif" font-size="10.00">cstring</text>
</a>
</g>
</g>
<!-- Node22&#45;&gt;Node31 -->
<g id="edge64" class="edge">
<title>Node22&#45;&gt;Node31</title>
<path fill="none" stroke="#63b8ff" d="M767,-489.73C674.28,-488.75 484.83,-481.02 331.5,-437.75 329.74,-437.25 327.95,-436.67 326.17,-436.02"/>
<polygon fill="#63b8ff" stroke="#63b8ff" points="327.8,-432.48 317.22,-431.81 325.07,-438.93 327.8,-432.48"/>
</g>
<!-- Node32 -->
<g id="node32" class="node">
<title>Node32</title>
<g id="a_node32"><a xlink:title=" ">
<polygon fill="#e0e0e0" stroke="#999999" points="386.12,-431.38 340.88,-431.38 340.88,-410.62 386.12,-410.62 386.12,-431.38"/>
<text text-anchor="middle" x="363.5" y="-417.88" font-family="Helvetica,sans-Serif" font-size="10.00">cstdio</text>
</a>
</g>
</g>
<!-- Node22&#45;&gt;Node32 -->
<g id="edge65" class="edge">
<title>Node22&#45;&gt;Node32</title>
<path fill="none" stroke="#63b8ff" d="M766.78,-487.6C684.69,-483.72 528.59,-472.11 400.5,-437.75 398.2,-437.13 395.85,-436.4 393.52,-435.59"/>
<polygon fill="#63b8ff" stroke="#63b8ff" points="395.08,-432.06 384.49,-431.72 392.56,-438.59 395.08,-432.06"/>
</g>
<!-- Node23&#45;&gt;Node11 -->
<g id="edge38" class="edge">
<title>Node23&#45;&gt;Node11</title>
<path fill="none" stroke="#63b8ff" d="M870.08,-334.33C853.04,-325.27 831.58,-313.87 813.23,-304.11"/>
<polygon fill="#63b8ff" stroke="#63b8ff" points="815.14,-300.64 804.67,-299.04 811.86,-306.82 815.14,-300.64"/>
</g>
<!-- Node23&#45;&gt;Node16 -->
<g id="edge39" class="edge">
<title>Node23&#45;&gt;Node16</title>
<path fill="none" stroke="#63b8ff" d="M827.5,-339.31C789.81,-331.52 743.99,-318.82 706.5,-298.75 686.65,-288.12 688.55,-275.49 668.5,-265.25 603.58,-232.11 570.86,-266.98 508.5,-229.25 494.34,-220.68 430.45,-140.7 397.82,-99.21"/>
<polygon fill="#63b8ff" stroke="#63b8ff" points="400.1,-97.45 391.17,-91.75 394.59,-101.77 400.1,-97.45"/>
</g>
<!-- Node23&#45;&gt;Node18 -->
<g id="edge41" class="edge">
<title>Node23&#45;&gt;Node18</title>
<path fill="none" stroke="#63b8ff" d="M907.37,-334.4C916.46,-315.05 934.33,-282.96 959.5,-265.25 1010.29,-229.52 1044.8,-266.47 1094.5,-229.25 1117.66,-211.91 1156.1,-139.51 1175.89,-100.19"/>
<polygon fill="#63b8ff" stroke="#63b8ff" points="1179.39,-102.01 1180.72,-91.5 1173.12,-98.89 1179.39,-102.01"/>
</g>
<!-- Node23&#45;&gt;Node20 -->
<g id="edge40" class="edge">
<title>Node23&#45;&gt;Node20</title>
<path fill="none" stroke="#63b8ff" d="M924.93,-334.33C941.29,-323.51 962.7,-309.34 978.89,-298.63"/>
<polygon fill="#63b8ff" stroke="#63b8ff" points="980.33,-301.21 986.73,-292.77 976.46,-295.37 980.33,-301.21"/>
</g>
<!-- Node24&#45;&gt;Node16 -->
<g id="edge43" class="edge">
<title>Node24&#45;&gt;Node16</title>
<path fill="none" stroke="#63b8ff" d="M1297.99,-140.38C1151.79,-136.25 784.2,-123.19 478.5,-90.25 469.65,-89.3 460.38,-88.1 451.21,-86.8"/>
<polygon fill="#63b8ff" stroke="#63b8ff" points="451.92,-83.22 441.52,-85.23 450.91,-90.15 451.92,-83.22"/>
</g>
<!-- Node24&#45;&gt;Node18 -->
<g id="edge45" class="edge">
<title>Node24&#45;&gt;Node18</title>
<path fill="none" stroke="#63b8ff" d="M1320.82,-125.83C1296.59,-116.43 1265.85,-104.51 1240.1,-94.52"/>
<polygon fill="#63b8ff" stroke="#63b8ff" points="1241.73,-91.01 1231.14,-90.65 1239.2,-97.53 1241.73,-91.01"/>
</g>
<!-- Node25 -->
<g id="node25" class="node">
<title>Node25</title>
<g id="a_node25"><a xlink:title=" ">
<polygon fill="#e0e0e0" stroke="#999999" points="1394.5,-83.88 1330.5,-83.88 1330.5,-63.12 1394.5,-63.12 1394.5,-83.88"/>
<text text-anchor="middle" x="1362.5" y="-70.38" font-family="Helvetica,sans-Serif" font-size="10.00">exception</text>
</a>
</g>
</g>
<!-- Node24&#45;&gt;Node25 -->
<g id="edge44" class="edge">
<title>Node24&#45;&gt;Node25</title>
<path fill="none" stroke="#63b8ff" d="M1362.5,-126C1362.5,-116.8 1362.5,-105.14 1362.5,-95.24"/>
<polygon fill="#63b8ff" stroke="#63b8ff" points="1366,-95.32 1362.5,-85.32 1359,-95.32 1366,-95.32"/>
</g>
<!-- Node26&#45;&gt;Node10 -->
<g id="edge52" class="edge">
<title>Node26&#45;&gt;Node10</title>
<path fill="none" stroke="#63b8ff" d="M772.98,-409.23C828.73,-398.6 914.86,-382.18 980.13,-369.73"/>
<polygon fill="#63b8ff" stroke="#63b8ff" points="980.66,-373 989.83,-367.69 979.35,-366.13 980.66,-373"/>
</g>
<!-- Node26&#45;&gt;Node16 -->
<g id="edge61" class="edge">
<title>Node26&#45;&gt;Node16</title>
<path fill="none" stroke="#63b8ff" d="M659.74,-419.92C567.12,-418.55 389.38,-410.34 345.5,-368.25 306.21,-330.57 282.82,-174.77 307.5,-126.25 313.55,-114.35 323.76,-104.54 334.58,-96.78"/>
<polygon fill="#63b8ff" stroke="#63b8ff" points="336.31,-99.17 342.73,-90.75 332.45,-93.33 336.31,-99.17"/>
</g>
<!-- Node26&#45;&gt;Node18 -->
<g id="edge62" class="edge">
<title>Node26&#45;&gt;Node18</title>
<path fill="none" stroke="#63b8ff" d="M773.11,-414.12C890.63,-401.81 1150.85,-373.99 1158.5,-368.25 1191.39,-343.56 1194.5,-324.13 1194.5,-283 1194.5,-283 1194.5,-283 1194.5,-211.5 1194.5,-173.17 1192.13,-128.87 1190.37,-101.26"/>
<polygon fill="#63b8ff" stroke="#63b8ff" points="1193.81,-101.27 1189.66,-91.52 1186.82,-101.73 1193.81,-101.27"/>
</g>
<!-- Node27 -->
<g id="node27" class="node">
<title>Node27</title>
<g id="a_node27"><a xlink:href="tags_8hpp.html" target="_top" xlink:title=" ">
<polygon fill="white" stroke="#666666" points="630.75,-368.25 514.25,-368.25 514.25,-334.75 630.75,-334.75 630.75,-368.25"/>
<text text-anchor="start" x="522.25" y="-354.75" font-family="Helvetica,sans-Serif" font-size="10.00">proxsuite/linalg/veg</text>
<text text-anchor="middle" x="572.5" y="-342" font-family="Helvetica,sans-Serif" font-size="10.00">/type_traits/tags.hpp</text>
</a>
</g>
</g>
<!-- Node26&#45;&gt;Node27 -->
<g id="edge48" class="edge">
<title>Node26&#45;&gt;Node27</title>
<path fill="none" stroke="#63b8ff" d="M682.01,-403.83C662.33,-394.61 637.46,-382.95 616.4,-373.08"/>
<polygon fill="#63b8ff" stroke="#63b8ff" points="618.25,-369.61 607.71,-368.54 615.28,-375.95 618.25,-369.61"/>
</g>
<!-- Node28 -->
<g id="node28" class="node">
<title>Node28</title>
<g id="a_node28"><a xlink:href="address_8hpp.html" target="_top" xlink:title=" ">
<polygon fill="white" stroke="#666666" points="771.75,-368.25 649.25,-368.25 649.25,-334.75 771.75,-334.75 771.75,-368.25"/>
<text text-anchor="start" x="657.25" y="-354.75" font-family="Helvetica,sans-Serif" font-size="10.00">proxsuite/linalg/veg</text>
<text text-anchor="middle" x="710.5" y="-342" font-family="Helvetica,sans-Serif" font-size="10.00">/memory/address.hpp</text>
</a>
</g>
</g>
<!-- Node26&#45;&gt;Node28 -->
<g id="edge53" class="edge">
<title>Node26&#45;&gt;Node28</title>
<path fill="none" stroke="#63b8ff" d="M715.08,-404C714.42,-396.61 713.62,-387.62 712.88,-379.23"/>
<polygon fill="#63b8ff" stroke="#63b8ff" points="716.28,-379.03 711.91,-369.38 709.31,-379.65 716.28,-379.03"/>
</g>
<!-- Node27&#45;&gt;Node11 -->
<g id="edge49" class="edge">
<title>Node27&#45;&gt;Node11</title>
<path fill="none" stroke="#63b8ff" d="M620.64,-334.33C649.01,-324.81 685.09,-312.69 715.07,-302.62"/>
<polygon fill="#63b8ff" stroke="#63b8ff" points="716.03,-305.65 724.4,-299.15 713.81,-299.02 716.03,-305.65"/>
</g>
<!-- Node27&#45;&gt;Node16 -->
<g id="edge50" class="edge">
<title>Node27&#45;&gt;Node16</title>
<path fill="none" stroke="#63b8ff" d="M514.09,-343.79C482.64,-337.25 445.49,-324.31 421.5,-298.75 370.23,-244.13 371.22,-147.94 375.26,-101.33"/>
<polygon fill="#63b8ff" stroke="#63b8ff" points="378.82,-101.9 376.32,-91.6 371.85,-101.21 378.82,-101.9"/>
</g>
<!-- Node27&#45;&gt;Node18 -->
<g id="edge51" class="edge">
<title>Node27&#45;&gt;Node18</title>
<path fill="none" stroke="#63b8ff" d="M571.34,-334.38C570.9,-315.01 573.41,-282.9 592.5,-265.25 670.09,-193.52 726.12,-259.01 827.5,-229.25 900.33,-207.87 917.99,-198.09 983.5,-159.75 1005.02,-147.16 1006.34,-137.68 1028.5,-126.25 1056.11,-112 1088.42,-100.66 1116.75,-92.26"/>
<polygon fill="#63b8ff" stroke="#63b8ff" points="1117.35,-95.44 1125.99,-89.3 1115.41,-88.72 1117.35,-95.44"/>
</g>
<!-- Node28&#45;&gt;Node11 -->
<g id="edge54" class="edge">
<title>Node28&#45;&gt;Node11</title>
<path fill="none" stroke="#63b8ff" d="M725.43,-334.5C733.12,-326.27 742.65,-316.05 751.19,-306.9"/>
<polygon fill="#63b8ff" stroke="#63b8ff" points="753.41,-309.58 757.68,-299.88 748.3,-304.8 753.41,-309.58"/>
</g>
<!-- Node28&#45;&gt;Node16 -->
<g id="edge58" class="edge">
<title>Node28&#45;&gt;Node16</title>
<path fill="none" stroke="#63b8ff" d="M652.04,-334.26C596.63,-316.33 513.99,-282.72 459.5,-229.25 421.97,-192.42 398.12,-134.49 386.64,-100.93"/>
<polygon fill="#63b8ff" stroke="#63b8ff" points="389.67,-99.96 383.21,-91.56 383.02,-102.15 389.67,-99.96"/>
</g>
<!-- Node28&#45;&gt;Node18 -->
<g id="edge60" class="edge">
<title>Node28&#45;&gt;Node18</title>
<path fill="none" stroke="#63b8ff" d="M767.83,-334.28C797.5,-325.15 834.02,-312.78 865.5,-298.75 893.04,-286.47 897.74,-279.16 924.5,-265.25 957.66,-248.01 968.94,-249.28 1000.5,-229.25 1063.94,-188.98 1129.92,-130.03 1164.33,-97.75"/>
<polygon fill="#63b8ff" stroke="#63b8ff" points="1166.11,-100.94 1170.97,-91.52 1161.3,-95.85 1166.11,-100.94"/>
</g>
<!-- Node29 -->
<g id="node29" class="node">
<title>Node29</title>
<g id="a_node29"><a xlink:href="std_8hpp.html" target="_top" xlink:title=" ">
<polygon fill="white" stroke="#666666" points="938.88,-159.75 826.12,-159.75 826.12,-126.25 938.88,-126.25 938.88,-159.75"/>
<text text-anchor="start" x="834.12" y="-146.25" font-family="Helvetica,sans-Serif" font-size="10.00">proxsuite/linalg/veg</text>
<text text-anchor="middle" x="882.5" y="-133.5" font-family="Helvetica,sans-Serif" font-size="10.00">/internal/std.hpp</text>
</a>
</g>
</g>
<!-- Node28&#45;&gt;Node29 -->
<g id="edge55" class="edge">
<title>Node28&#45;&gt;Node29</title>
<path fill="none" stroke="#63b8ff" d="M772.1,-338.55C796.45,-330.93 822.79,-318.6 840.5,-298.75 872.5,-262.89 880.44,-205.01 882.22,-171.13"/>
<polygon fill="#63b8ff" stroke="#63b8ff" points="885.75,-171.34 882.62,-161.22 878.75,-171.08 885.75,-171.34"/>
</g>
<!-- Node30 -->
<g id="node30" class="node">
<title>Node30</title>
<g id="a_node30"><a xlink:title=" ">
<polygon fill="#e0e0e0" stroke="#999999" points="659.12,-292.38 601.88,-292.38 601.88,-271.62 659.12,-271.62 659.12,-292.38"/>
<text text-anchor="middle" x="630.5" y="-278.88" font-family="Helvetica,sans-Serif" font-size="10.00">memory</text>
</a>
</g>
</g>
<!-- Node28&#45;&gt;Node30 -->
<g id="edge59" class="edge">
<title>Node28&#45;&gt;Node30</title>
<path fill="none" stroke="#63b8ff" d="M691.54,-334.5C679.08,-323.99 662.8,-310.26 650.19,-299.62"/>
<polygon fill="#63b8ff" stroke="#63b8ff" points="653.04,-296.6 643.14,-292.82 648.53,-301.95 653.04,-296.6"/>
</g>
<!-- Node29&#45;&gt;Node7 -->
<g id="edge56" class="edge">
<title>Node29&#45;&gt;Node7</title>
<path fill="none" stroke="#63b8ff" d="M939.13,-128.43C993.91,-115.03 1069.27,-95.78 1073.5,-90.25 1082.55,-78.43 1082.89,-68.3 1073.5,-56.75 1050.91,-28.97 946.87,-17.64 891.08,-13.49"/>
<polygon fill="#63b8ff" stroke="#63b8ff" points="891.5,-9.94 881.28,-12.73 891.01,-16.93 891.5,-9.94"/>
</g>
<!-- Node29&#45;&gt;Node17 -->
<g id="edge57" class="edge">
<title>Node29&#45;&gt;Node17</title>
<path fill="none" stroke="#63b8ff" d="M916.27,-125.83C939.73,-114.6 970.71,-99.77 993.34,-88.94"/>
<polygon fill="#63b8ff" stroke="#63b8ff" points="994.58,-91.75 1002.09,-84.27 991.56,-85.43 994.58,-91.75"/>
</g>
<!-- Node35 -->
<g id="node35" class="node">
<title>Node35</title>
<g id="a_node35"><a xlink:title=" ">
<polygon fill="#e0e0e0" stroke="#999999" points="1687,-570.38 1572,-570.38 1572,-549.62 1687,-549.62 1687,-570.38"/>
<text text-anchor="middle" x="1629.5" y="-556.88" font-family="Helvetica,sans-Serif" font-size="10.00">proxsuite/config.hpp</text>
</a>
</g>
</g>
<!-- Node34&#45;&gt;Node35 -->
<g id="edge72" class="edge">
<title>Node34&#45;&gt;Node35</title>
<path fill="none" stroke="#63b8ff" d="M1640.64,-618.83C1638.76,-609.1 1635.82,-593.82 1633.43,-581.4"/>
<polygon fill="#63b8ff" stroke="#63b8ff" points="1636.69,-580.81 1631.36,-571.65 1629.81,-582.13 1636.69,-580.81"/>
</g>
<!-- Node36 -->
<g id="node36" class="node">
<title>Node36</title>
<g id="a_node36"><a xlink:title=" ">
<polygon fill="#e0e0e0" stroke="#999999" points="1748.38,-570.38 1704.62,-570.38 1704.62,-549.62 1748.38,-549.62 1748.38,-570.38"/>
<text text-anchor="middle" x="1726.5" y="-556.88" font-family="Helvetica,sans-Serif" font-size="10.00">limits</text>
</a>
</g>
</g>
<!-- Node34&#45;&gt;Node36 -->
<g id="edge73" class="edge">
<title>Node34&#45;&gt;Node36</title>
<path fill="none" stroke="#63b8ff" d="M1654.54,-618.83C1667.93,-608.06 1689.82,-590.48 1705.94,-577.52"/>
<polygon fill="#63b8ff" stroke="#63b8ff" points="1707.61,-579.86 1713.21,-570.87 1703.23,-574.41 1707.61,-579.86"/>
</g>
</g>
</svg>
