<?xml version="1.0" encoding="UTF-8" standalone="no"?>
<!DOCTYPE svg PUBLIC "-//W3C//DTD SVG 1.1//EN"
 "http://www.w3.org/Graphics/SVG/1.1/DTD/svg11.dtd">
<!-- Generated by graphviz version 6.0.1 (20220911.2005)
 -->
<!-- Title: include/proxsuite/linalg/veg/internal/narrow.hpp Pages: 1 -->
<svg width="1449pt" height="687pt"
 viewBox="0.00 0.00 1449.00 687.00" xmlns="http://www.w3.org/2000/svg" xmlns:xlink="http://www.w3.org/1999/xlink">
<g id="graph0" class="graph" transform="scale(1 1) rotate(0) translate(4 683)">
<title>include/proxsuite/linalg/veg/internal/narrow.hpp</title>
<!-- Node1 -->
<g id="node1" class="node">
<title>Node1</title>
<g id="a_node1"><a xlink:title=" ">
<polygon fill="#999999" stroke="#666666" points="573.5,-679 438.5,-679 438.5,-649 573.5,-649 573.5,-679"/>
<text text-anchor="start" x="446.5" y="-667" font-family="Helvetica,sans-Serif" font-size="10.00">include/proxsuite/linalg</text>
<text text-anchor="middle" x="506" y="-656" font-family="Helvetica,sans-Serif" font-size="10.00">/veg/internal/narrow.hpp</text>
</a>
</g>
</g>
<!-- Node2 -->
<g id="node2" class="node">
<title>Node2</title>
<g id="a_node2"><a xlink:href="assert_8hpp.html" target="_top" xlink:title=" ">
<polygon fill="white" stroke="#666666" points="562.5,-613 449.5,-613 449.5,-583 562.5,-583 562.5,-613"/>
<text text-anchor="start" x="457.5" y="-601" font-family="Helvetica,sans-Serif" font-size="10.00">proxsuite/linalg/veg</text>
<text text-anchor="middle" x="506" y="-590" font-family="Helvetica,sans-Serif" font-size="10.00">/util/assert.hpp</text>
</a>
</g>
</g>
<!-- Node1&#45;&gt;Node2 -->
<g id="edge1" class="edge">
<title>Node1&#45;&gt;Node2</title>
<path fill="none" stroke="#63b8ff" d="M506,-648.8C506,-641.34 506,-631.99 506,-623.41"/>
<polygon fill="#63b8ff" stroke="#63b8ff" points="509.5,-623.16 506,-613.16 502.5,-623.16 509.5,-623.16"/>
</g>
<!-- Node14 -->
<g id="node14" class="node">
<title>Node14</title>
<g id="a_node14"><a xlink:href="prologue_8hpp.html" target="_top" xlink:title=" ">
<polygon fill="white" stroke="#666666" points="419,-85 295,-85 295,-55 419,-55 419,-85"/>
<text text-anchor="start" x="303" y="-73" font-family="Helvetica,sans-Serif" font-size="10.00">proxsuite/linalg/veg</text>
<text text-anchor="middle" x="357" y="-62" font-family="Helvetica,sans-Serif" font-size="10.00">/internal/prologue.hpp</text>
</a>
</g>
</g>
<!-- Node1&#45;&gt;Node14 -->
<g id="edge67" class="edge">
<title>Node1&#45;&gt;Node14</title>
<path fill="none" stroke="#63b8ff" d="M438.28,-659.74C300.4,-651.24 0,-622.45 0,-533 0,-533 0,-533 0,-201 0,-162.19 4.25,-144.68 35,-121 54.48,-106 195.92,-88.32 284.75,-78.52"/>
<polygon fill="#63b8ff" stroke="#63b8ff" points="285.22,-81.99 294.78,-77.42 284.45,-75.03 285.22,-81.99"/>
</g>
<!-- Node16 -->
<g id="node16" class="node">
<title>Node16</title>
<g id="a_node16"><a xlink:href="epilogue_8hpp.html" target="_top" xlink:title=" ">
<polygon fill="white" stroke="#666666" points="1236.5,-85 1113.5,-85 1113.5,-55 1236.5,-55 1236.5,-85"/>
<text text-anchor="start" x="1121.5" y="-73" font-family="Helvetica,sans-Serif" font-size="10.00">proxsuite/linalg/veg</text>
<text text-anchor="middle" x="1175" y="-62" font-family="Helvetica,sans-Serif" font-size="10.00">/internal/epilogue.hpp</text>
</a>
</g>
</g>
<!-- Node1&#45;&gt;Node16 -->
<g id="edge68" class="edge">
<title>Node1&#45;&gt;Node16</title>
<path fill="none" stroke="#63b8ff" d="M573.62,-660.72C788.39,-652.58 1441,-620.63 1441,-533 1441,-533 1441,-533 1441,-201 1441,-114.42 1325.85,-85.5 1247.07,-75.84"/>
<polygon fill="#63b8ff" stroke="#63b8ff" points="1247.03,-72.31 1236.69,-74.65 1246.23,-79.26 1247.03,-72.31"/>
</g>
<!-- Node3 -->
<g id="node3" class="node">
<title>Node3</title>
<g id="a_node3"><a xlink:href="assert__impl_8hpp.html" target="_top" xlink:title=" ">
<polygon fill="white" stroke="#666666" points="575,-547 437,-547 437,-517 575,-517 575,-547"/>
<text text-anchor="start" x="445" y="-535" font-family="Helvetica,sans-Serif" font-size="10.00">proxsuite/linalg/veg</text>
<text text-anchor="middle" x="506" y="-524" font-family="Helvetica,sans-Serif" font-size="10.00">/internal/assert_impl.hpp</text>
</a>
</g>
</g>
<!-- Node2&#45;&gt;Node3 -->
<g id="edge2" class="edge">
<title>Node2&#45;&gt;Node3</title>
<path fill="none" stroke="#63b8ff" d="M506,-582.8C506,-575.34 506,-565.99 506,-557.41"/>
<polygon fill="#63b8ff" stroke="#63b8ff" points="509.5,-557.16 506,-547.16 502.5,-557.16 509.5,-557.16"/>
</g>
<!-- Node4 -->
<g id="node4" class="node">
<title>Node4</title>
<g id="a_node4"><a xlink:href="typedefs_8hpp.html" target="_top" xlink:title=" ">
<polygon fill="white" stroke="#666666" points="601,-85 477,-85 477,-55 601,-55 601,-85"/>
<text text-anchor="start" x="485" y="-73" font-family="Helvetica,sans-Serif" font-size="10.00">proxsuite/linalg/veg</text>
<text text-anchor="middle" x="539" y="-62" font-family="Helvetica,sans-Serif" font-size="10.00">/internal/typedefs.hpp</text>
</a>
</g>
</g>
<!-- Node3&#45;&gt;Node4 -->
<g id="edge3" class="edge">
<title>Node3&#45;&gt;Node4</title>
<path fill="none" stroke="#63b8ff" d="M575.21,-518.99C711.62,-493.74 1006.97,-430.66 1064,-349 1071.63,-338.07 1072.19,-329.52 1064,-319 1007.25,-246.1 737.71,-268.47 661,-217 616.93,-187.43 624.83,-161.03 590,-121 581.44,-111.16 571.3,-100.97 562.33,-92.37"/>
<polygon fill="#63b8ff" stroke="#63b8ff" points="564.49,-89.59 554.82,-85.27 559.68,-94.68 564.49,-89.59"/>
</g>
<!-- Node7 -->
<g id="node7" class="node">
<title>Node7</title>
<g id="a_node7"><a xlink:href="defer_8hpp.html" target="_top" xlink:title=" ">
<polygon fill="white" stroke="#666666" points="628.5,-481 515.5,-481 515.5,-451 628.5,-451 628.5,-481"/>
<text text-anchor="start" x="523.5" y="-469" font-family="Helvetica,sans-Serif" font-size="10.00">proxsuite/linalg/veg</text>
<text text-anchor="middle" x="572" y="-458" font-family="Helvetica,sans-Serif" font-size="10.00">/util/defer.hpp</text>
</a>
</g>
</g>
<!-- Node3&#45;&gt;Node7 -->
<g id="edge6" class="edge">
<title>Node3&#45;&gt;Node7</title>
<path fill="none" stroke="#63b8ff" d="M520.65,-516.8C529.28,-508.43 540.36,-497.68 550.02,-488.31"/>
<polygon fill="#63b8ff" stroke="#63b8ff" points="552.65,-490.64 557.39,-481.16 547.78,-485.61 552.65,-490.64"/>
</g>
<!-- Node3&#45;&gt;Node14 -->
<g id="edge64" class="edge">
<title>Node3&#45;&gt;Node14</title>
<path fill="none" stroke="#63b8ff" d="M436.94,-526.21C306.76,-515.28 38,-482.8 38,-401 38,-401 38,-401 38,-201 38,-164.46 30.3,-145.95 57,-121 89.13,-90.99 206.4,-78.86 284.45,-74.06"/>
<polygon fill="#63b8ff" stroke="#63b8ff" points="284.93,-77.53 294.71,-73.45 284.52,-70.55 284.93,-77.53"/>
</g>
<!-- Node3&#45;&gt;Node16 -->
<g id="edge66" class="edge">
<title>Node3&#45;&gt;Node16</title>
<path fill="none" stroke="#63b8ff" d="M575.27,-528.24C785.67,-518.94 1403,-484.55 1403,-401 1403,-401 1403,-401 1403,-201 1403,-127.97 1313.63,-95.43 1246.8,-81.3"/>
<polygon fill="#63b8ff" stroke="#63b8ff" points="1247.19,-77.81 1236.7,-79.27 1245.81,-84.68 1247.19,-77.81"/>
</g>
<!-- Node19 -->
<g id="node19" class="node">
<title>Node19</title>
<g id="a_node19"><a xlink:href="internal_2dbg_8hpp.html" target="_top" xlink:title=" ">
<polygon fill="white" stroke="#666666" points="485.5,-481 372.5,-481 372.5,-451 485.5,-451 485.5,-481"/>
<text text-anchor="start" x="380.5" y="-469" font-family="Helvetica,sans-Serif" font-size="10.00">proxsuite/linalg/veg</text>
<text text-anchor="middle" x="429" y="-458" font-family="Helvetica,sans-Serif" font-size="10.00">/internal/dbg.hpp</text>
</a>
</g>
</g>
<!-- Node3&#45;&gt;Node19 -->
<g id="edge33" class="edge">
<title>Node3&#45;&gt;Node19</title>
<path fill="none" stroke="#63b8ff" d="M488.91,-516.8C478.64,-508.26 465.4,-497.25 453.97,-487.75"/>
<polygon fill="#63b8ff" stroke="#63b8ff" points="455.97,-484.86 446.04,-481.16 451.49,-490.25 455.97,-484.86"/>
</g>
<!-- Node30 -->
<g id="node30" class="node">
<title>Node30</title>
<g id="a_node30"><a xlink:title=" ">
<polygon fill="#e0e0e0" stroke="#999999" points="354,-475.5 302,-475.5 302,-456.5 354,-456.5 354,-475.5"/>
<text text-anchor="middle" x="328" y="-463.5" font-family="Helvetica,sans-Serif" font-size="10.00">cassert</text>
</a>
</g>
</g>
<!-- Node3&#45;&gt;Node30 -->
<g id="edge65" class="edge">
<title>Node3&#45;&gt;Node30</title>
<path fill="none" stroke="#63b8ff" d="M464.21,-516.93C435.6,-507.17 396.86,-493.69 363,-481 361.58,-480.47 360.14,-479.92 358.68,-479.36"/>
<polygon fill="#63b8ff" stroke="#63b8ff" points="359.63,-475.97 349.04,-475.59 357.08,-482.49 359.63,-475.97"/>
</g>
<!-- Node5 -->
<g id="node5" class="node">
<title>Node5</title>
<g id="a_node5"><a xlink:title=" ">
<polygon fill="#e0e0e0" stroke="#999999" points="872,-19 822,-19 822,0 872,0 872,-19"/>
<text text-anchor="middle" x="847" y="-7" font-family="Helvetica,sans-Serif" font-size="10.00">cstdint</text>
</a>
</g>
</g>
<!-- Node4&#45;&gt;Node5 -->
<g id="edge4" class="edge">
<title>Node4&#45;&gt;Node5</title>
<path fill="none" stroke="#63b8ff" d="M601.05,-56.91C604.41,-56.26 607.75,-55.62 611,-55 682.23,-41.36 765.62,-25.71 811.76,-17.08"/>
<polygon fill="#63b8ff" stroke="#63b8ff" points="812.66,-20.47 821.84,-15.2 811.37,-13.59 812.66,-20.47"/>
</g>
<!-- Node6 -->
<g id="node6" class="node">
<title>Node6</title>
<g id="a_node6"><a xlink:title=" ">
<polygon fill="#e0e0e0" stroke="#999999" points="565.5,-19 512.5,-19 512.5,0 565.5,0 565.5,-19"/>
<text text-anchor="middle" x="539" y="-7" font-family="Helvetica,sans-Serif" font-size="10.00">cstddef</text>
</a>
</g>
</g>
<!-- Node4&#45;&gt;Node6 -->
<g id="edge5" class="edge">
<title>Node4&#45;&gt;Node6</title>
<path fill="none" stroke="#63b8ff" d="M539,-54.84C539,-47.21 539,-37.7 539,-29.45"/>
<polygon fill="#63b8ff" stroke="#63b8ff" points="542.5,-29.27 539,-19.27 535.5,-29.27 542.5,-29.27"/>
</g>
<!-- Node8 -->
<g id="node8" class="node">
<title>Node8</title>
<g id="a_node8"><a xlink:href="constructible_8hpp.html" target="_top" xlink:title=" ">
<polygon fill="white" stroke="#666666" points="651.5,-349 492.5,-349 492.5,-319 651.5,-319 651.5,-349"/>
<text text-anchor="start" x="500.5" y="-337" font-family="Helvetica,sans-Serif" font-size="10.00">proxsuite/linalg/veg</text>
<text text-anchor="middle" x="572" y="-326" font-family="Helvetica,sans-Serif" font-size="10.00">/type_traits/constructible.hpp</text>
</a>
</g>
</g>
<!-- Node7&#45;&gt;Node8 -->
<g id="edge7" class="edge">
<title>Node7&#45;&gt;Node8</title>
<path fill="none" stroke="#63b8ff" d="M572,-450.84C572,-428.86 572,-386.27 572,-359.3"/>
<polygon fill="#63b8ff" stroke="#63b8ff" points="575.5,-359.14 572,-349.14 568.5,-359.14 575.5,-359.14"/>
</g>
<!-- Node7&#45;&gt;Node14 -->
<g id="edge31" class="edge">
<title>Node7&#45;&gt;Node14</title>
<path fill="none" stroke="#63b8ff" d="M566.05,-450.85C557.57,-432.52 540.18,-401.02 515,-385 440.28,-337.45 375.69,-417.05 319,-349 256.48,-273.95 315.22,-145.91 343.61,-93.94"/>
<polygon fill="#63b8ff" stroke="#63b8ff" points="346.7,-95.58 348.52,-85.15 340.59,-92.17 346.7,-95.58"/>
</g>
<!-- Node7&#45;&gt;Node16 -->
<g id="edge32" class="edge">
<title>Node7&#45;&gt;Node16</title>
<path fill="none" stroke="#63b8ff" d="M628.69,-464.78C791.25,-463.64 1250.75,-456.72 1303,-415 1332.01,-391.84 1327,-372.12 1327,-335 1327,-335 1327,-335 1327,-201 1327,-163.88 1328.17,-148.29 1303,-121 1287.99,-104.72 1267.04,-93.68 1246.43,-86.21"/>
<polygon fill="#63b8ff" stroke="#63b8ff" points="1247.29,-82.8 1236.69,-82.92 1245.05,-89.43 1247.29,-82.8"/>
</g>
<!-- Node18 -->
<g id="node18" class="node">
<title>Node18</title>
<g id="a_node18"><a xlink:href="invocable_8hpp.html" target="_top" xlink:title=" ">
<polygon fill="white" stroke="#666666" points="874.5,-415 731.5,-415 731.5,-385 874.5,-385 874.5,-415"/>
<text text-anchor="start" x="739.5" y="-403" font-family="Helvetica,sans-Serif" font-size="10.00">proxsuite/linalg/veg</text>
<text text-anchor="middle" x="803" y="-392" font-family="Helvetica,sans-Serif" font-size="10.00">/type_traits/invocable.hpp</text>
</a>
</g>
</g>
<!-- Node7&#45;&gt;Node18 -->
<g id="edge26" class="edge">
<title>Node7&#45;&gt;Node18</title>
<path fill="none" stroke="#63b8ff" d="M622.69,-450.95C658.05,-441.16 705.38,-428.05 742.68,-417.71"/>
<polygon fill="#63b8ff" stroke="#63b8ff" points="743.72,-421.06 752.42,-415.01 741.85,-414.31 743.72,-421.06"/>
</g>
<!-- Node9 -->
<g id="node9" class="node">
<title>Node9</title>
<g id="a_node9"><a xlink:href="veg_2type__traits_2core_8hpp.html" target="_top" xlink:title=" ">
<polygon fill="white" stroke="#666666" points="723.5,-283 606.5,-283 606.5,-253 723.5,-253 723.5,-283"/>
<text text-anchor="start" x="614.5" y="-271" font-family="Helvetica,sans-Serif" font-size="10.00">proxsuite/linalg/veg</text>
<text text-anchor="middle" x="665" y="-260" font-family="Helvetica,sans-Serif" font-size="10.00">/type_traits/core.hpp</text>
</a>
</g>
</g>
<!-- Node8&#45;&gt;Node9 -->
<g id="edge8" class="edge">
<title>Node8&#45;&gt;Node9</title>
<path fill="none" stroke="#63b8ff" d="M592.64,-318.8C605.4,-310.01 621.98,-298.61 636.04,-288.93"/>
<polygon fill="#63b8ff" stroke="#63b8ff" points="638.16,-291.72 644.42,-283.16 634.2,-285.95 638.16,-291.72"/>
</g>
<!-- Node8&#45;&gt;Node14 -->
<g id="edge23" class="edge">
<title>Node8&#45;&gt;Node14</title>
<path fill="none" stroke="#63b8ff" d="M549.12,-318.79C504.74,-291.06 410.37,-231.17 400,-217 373.03,-180.16 362.88,-126.54 359.13,-95.58"/>
<polygon fill="#63b8ff" stroke="#63b8ff" points="362.57,-94.83 358.02,-85.26 355.61,-95.58 362.57,-94.83"/>
</g>
<!-- Node8&#45;&gt;Node16 -->
<g id="edge25" class="edge">
<title>Node8&#45;&gt;Node16</title>
<path fill="none" stroke="#63b8ff" d="M640.33,-318.92C721.03,-300.97 858.28,-266.24 969,-217 1020.05,-194.29 1030.4,-183.29 1076,-151 1102.51,-132.23 1131.22,-108.64 1150.86,-91.95"/>
<polygon fill="#63b8ff" stroke="#63b8ff" points="1153.36,-94.41 1158.69,-85.25 1148.81,-89.09 1153.36,-94.41"/>
</g>
<!-- Node17 -->
<g id="node17" class="node">
<title>Node17</title>
<g id="a_node17"><a xlink:title=" ">
<polygon fill="#e0e0e0" stroke="#999999" points="435.5,-277.5 366.5,-277.5 366.5,-258.5 435.5,-258.5 435.5,-277.5"/>
<text text-anchor="middle" x="401" y="-265.5" font-family="Helvetica,sans-Serif" font-size="10.00">type_traits</text>
</a>
</g>
</g>
<!-- Node8&#45;&gt;Node17 -->
<g id="edge24" class="edge">
<title>Node8&#45;&gt;Node17</title>
<path fill="none" stroke="#63b8ff" d="M534.47,-318.95C504.22,-307.63 462.12,-291.88 433.34,-281.1"/>
<polygon fill="#63b8ff" stroke="#63b8ff" points="434.35,-277.74 423.76,-277.52 431.9,-284.3 434.35,-277.74"/>
</g>
<!-- Node9&#45;&gt;Node4 -->
<g id="edge9" class="edge">
<title>Node9&#45;&gt;Node4</title>
<path fill="none" stroke="#63b8ff" d="M653.97,-252.8C646.42,-242.93 636.32,-229.36 628,-217 599.56,-174.74 569.26,-123.53 552.37,-94.36"/>
<polygon fill="#63b8ff" stroke="#63b8ff" points="555.21,-92.27 547.18,-85.36 549.14,-95.77 555.21,-92.27"/>
</g>
<!-- Node10 -->
<g id="node10" class="node">
<title>Node10</title>
<g id="a_node10"><a xlink:href="integer__seq_8hpp.html" target="_top" xlink:title=" ">
<polygon fill="white" stroke="#666666" points="808,-217 670,-217 670,-187 808,-187 808,-217"/>
<text text-anchor="start" x="678" y="-205" font-family="Helvetica,sans-Serif" font-size="10.00">proxsuite/linalg/veg</text>
<text text-anchor="middle" x="739" y="-194" font-family="Helvetica,sans-Serif" font-size="10.00">/internal/integer_seq.hpp</text>
</a>
</g>
</g>
<!-- Node9&#45;&gt;Node10 -->
<g id="edge10" class="edge">
<title>Node9&#45;&gt;Node10</title>
<path fill="none" stroke="#63b8ff" d="M681.42,-252.8C691.29,-244.26 704.02,-233.25 715,-223.75"/>
<polygon fill="#63b8ff" stroke="#63b8ff" points="717.35,-226.35 722.62,-217.16 712.77,-221.06 717.35,-226.35"/>
</g>
<!-- Node9&#45;&gt;Node14 -->
<g id="edge21" class="edge">
<title>Node9&#45;&gt;Node14</title>
<path fill="none" stroke="#63b8ff" d="M648.25,-252.87C614.99,-225.25 537.66,-163.13 466,-121 445.55,-108.98 421.71,-97.75 401.55,-88.99"/>
<polygon fill="#63b8ff" stroke="#63b8ff" points="402.84,-85.74 392.27,-85.02 400.09,-92.18 402.84,-85.74"/>
</g>
<!-- Node9&#45;&gt;Node16 -->
<g id="edge22" class="edge">
<title>Node9&#45;&gt;Node16</title>
<path fill="none" stroke="#63b8ff" d="M723.61,-261.52C777.36,-255.16 858.46,-242.14 925,-217 1002.58,-187.69 1013.57,-163.13 1085,-121 1102.93,-110.43 1123.17,-99.13 1139.9,-89.95"/>
<polygon fill="#63b8ff" stroke="#63b8ff" points="1141.71,-92.95 1148.81,-85.09 1138.35,-86.81 1141.71,-92.95"/>
</g>
<!-- Node10&#45;&gt;Node4 -->
<g id="edge11" class="edge">
<title>Node10&#45;&gt;Node4</title>
<path fill="none" stroke="#63b8ff" d="M727.32,-186.96C712.3,-169.6 684.69,-140.02 656,-121 636.2,-107.88 612.39,-96.95 591.44,-88.7"/>
<polygon fill="#63b8ff" stroke="#63b8ff" points="592.62,-85.41 582.03,-85.1 590.12,-91.95 592.62,-85.41"/>
</g>
<!-- Node11 -->
<g id="node11" class="node">
<title>Node11</title>
<g id="a_node11"><a xlink:href="macros_8hpp.html" target="_top" xlink:title=" ">
<polygon fill="white" stroke="#666666" points="825.5,-151 708.5,-151 708.5,-121 825.5,-121 825.5,-151"/>
<text text-anchor="start" x="716.5" y="-139" font-family="Helvetica,sans-Serif" font-size="10.00">proxsuite/linalg/veg</text>
<text text-anchor="middle" x="767" y="-128" font-family="Helvetica,sans-Serif" font-size="10.00">/internal/macros.hpp</text>
</a>
</g>
</g>
<!-- Node10&#45;&gt;Node11 -->
<g id="edge12" class="edge">
<title>Node10&#45;&gt;Node11</title>
<path fill="none" stroke="#63b8ff" d="M745.21,-186.8C748.59,-179.09 752.84,-169.37 756.69,-160.56"/>
<polygon fill="#63b8ff" stroke="#63b8ff" points="760,-161.73 760.8,-151.16 753.59,-158.92 760,-161.73"/>
</g>
<!-- Node10&#45;&gt;Node14 -->
<g id="edge19" class="edge">
<title>Node10&#45;&gt;Node14</title>
<path fill="none" stroke="#63b8ff" d="M707.71,-186.91C669.23,-169.9 601.65,-141.09 542,-121 504.26,-108.29 461.37,-96.54 426.4,-87.62"/>
<polygon fill="#63b8ff" stroke="#63b8ff" points="426.84,-84.12 416.29,-85.07 425.13,-90.91 426.84,-84.12"/>
</g>
<!-- Node10&#45;&gt;Node16 -->
<g id="edge20" class="edge">
<title>Node10&#45;&gt;Node16</title>
<path fill="none" stroke="#63b8ff" d="M808.23,-192.94C854.36,-185.85 915.55,-173.11 966,-151 987.34,-141.65 988.03,-131.15 1009,-121 1038.69,-106.62 1073.39,-95.39 1103.37,-87.25"/>
<polygon fill="#63b8ff" stroke="#63b8ff" points="1104.57,-90.55 1113.33,-84.6 1102.77,-83.79 1104.57,-90.55"/>
</g>
<!-- Node11&#45;&gt;Node4 -->
<g id="edge14" class="edge">
<title>Node11&#45;&gt;Node4</title>
<path fill="none" stroke="#63b8ff" d="M716.96,-120.95C682.22,-111.2 635.75,-98.16 599.01,-87.84"/>
<polygon fill="#63b8ff" stroke="#63b8ff" points="599.49,-84.35 588.92,-85.01 597.6,-91.08 599.49,-84.35"/>
</g>
<!-- Node12 -->
<g id="node12" class="node">
<title>Node12</title>
<g id="a_node12"><a xlink:href="hedley_8ext_8hpp.html" target="_top" xlink:title=" ">
<polygon fill="white" stroke="#666666" points="955.5,-85 780.5,-85 780.5,-55 955.5,-55 955.5,-85"/>
<text text-anchor="start" x="788.5" y="-73" font-family="Helvetica,sans-Serif" font-size="10.00">proxsuite/linalg/veg</text>
<text text-anchor="middle" x="868" y="-62" font-family="Helvetica,sans-Serif" font-size="10.00">/internal/external/hedley.ext.hpp</text>
</a>
</g>
</g>
<!-- Node11&#45;&gt;Node12 -->
<g id="edge13" class="edge">
<title>Node11&#45;&gt;Node12</title>
<path fill="none" stroke="#63b8ff" d="M789.42,-120.8C803.41,-111.93 821.62,-100.39 836.98,-90.66"/>
<polygon fill="#63b8ff" stroke="#63b8ff" points="839.07,-93.47 845.65,-85.16 835.33,-87.56 839.07,-93.47"/>
</g>
<!-- Node13 -->
<g id="node13" class="node">
<title>Node13</title>
<g id="a_node13"><a xlink:href="preprocessor_8hpp.html" target="_top" xlink:title=" ">
<polygon fill="white" stroke="#666666" points="762.5,-85 619.5,-85 619.5,-55 762.5,-55 762.5,-85"/>
<text text-anchor="start" x="627.5" y="-73" font-family="Helvetica,sans-Serif" font-size="10.00">proxsuite/linalg/veg</text>
<text text-anchor="middle" x="691" y="-62" font-family="Helvetica,sans-Serif" font-size="10.00">/internal/preprocessor.hpp</text>
</a>
</g>
</g>
<!-- Node11&#45;&gt;Node13 -->
<g id="edge15" class="edge">
<title>Node11&#45;&gt;Node13</title>
<path fill="none" stroke="#63b8ff" d="M750.13,-120.8C740,-112.26 726.92,-101.25 715.65,-91.75"/>
<polygon fill="#63b8ff" stroke="#63b8ff" points="717.72,-88.93 707.82,-85.16 713.21,-94.28 717.72,-88.93"/>
</g>
<!-- Node11&#45;&gt;Node14 -->
<g id="edge16" class="edge">
<title>Node11&#45;&gt;Node14</title>
<path fill="none" stroke="#63b8ff" d="M708.26,-125.83C634.68,-114.35 508.66,-94.67 429.25,-82.28"/>
<polygon fill="#63b8ff" stroke="#63b8ff" points="429.75,-78.81 419.33,-80.73 428.67,-85.73 429.75,-78.81"/>
</g>
<!-- Node15 -->
<g id="node15" class="node">
<title>Node15</title>
<g id="a_node15"><a xlink:title=" ">
<polygon fill="#e0e0e0" stroke="#999999" points="1056.5,-79.5 973.5,-79.5 973.5,-60.5 1056.5,-60.5 1056.5,-79.5"/>
<text text-anchor="middle" x="1015" y="-67.5" font-family="Helvetica,sans-Serif" font-size="10.00">initializer_list</text>
</a>
</g>
</g>
<!-- Node11&#45;&gt;Node15 -->
<g id="edge17" class="edge">
<title>Node11&#45;&gt;Node15</title>
<path fill="none" stroke="#63b8ff" d="M824.29,-120.95C863.88,-111.13 917.72,-97.59 965,-85 968.32,-84.12 971.77,-83.18 975.22,-82.24"/>
<polygon fill="#63b8ff" stroke="#63b8ff" points="976.19,-85.6 984.89,-79.56 974.32,-78.86 976.19,-85.6"/>
</g>
<!-- Node11&#45;&gt;Node16 -->
<g id="edge18" class="edge">
<title>Node11&#45;&gt;Node16</title>
<path fill="none" stroke="#63b8ff" d="M825.56,-122.72C828.75,-122.12 831.91,-121.54 835,-121 927.21,-104.74 1034.15,-89.63 1103.1,-80.36"/>
<polygon fill="#63b8ff" stroke="#63b8ff" points="1103.96,-83.78 1113.41,-78.98 1103.03,-76.84 1103.96,-83.78"/>
</g>
<!-- Node18&#45;&gt;Node8 -->
<g id="edge28" class="edge">
<title>Node18&#45;&gt;Node8</title>
<path fill="none" stroke="#63b8ff" d="M752.31,-384.95C716.95,-375.16 669.62,-362.05 632.32,-351.71"/>
<polygon fill="#63b8ff" stroke="#63b8ff" points="633.15,-348.31 622.58,-349.01 631.28,-355.06 633.15,-348.31"/>
</g>
<!-- Node18&#45;&gt;Node9 -->
<g id="edge27" class="edge">
<title>Node18&#45;&gt;Node9</title>
<path fill="none" stroke="#63b8ff" d="M816.28,-384.85C830.51,-367.91 849.15,-339.29 834,-319 827.59,-310.43 777.71,-296.29 733.78,-285.23"/>
<polygon fill="#63b8ff" stroke="#63b8ff" points="734.49,-281.8 723.94,-282.78 732.8,-288.59 734.49,-281.8"/>
</g>
<!-- Node18&#45;&gt;Node14 -->
<g id="edge29" class="edge">
<title>Node18&#45;&gt;Node14</title>
<path fill="none" stroke="#63b8ff" d="M768.75,-384.82C747.97,-375.67 721.26,-362.9 699,-349 680.75,-337.6 679.92,-329.25 661,-319 616.88,-295.1 596.54,-309.6 554,-283 485.23,-240 482.44,-211.11 428,-151 410.38,-131.54 390.57,-109.18 376.36,-93.06"/>
<polygon fill="#63b8ff" stroke="#63b8ff" points="378.72,-90.43 369.48,-85.24 373.46,-95.06 378.72,-90.43"/>
</g>
<!-- Node18&#45;&gt;Node16 -->
<g id="edge30" class="edge">
<title>Node18&#45;&gt;Node16</title>
<path fill="none" stroke="#63b8ff" d="M874.53,-399.76C981.24,-399.4 1175.13,-392.55 1227,-349 1255.43,-325.13 1251,-306.12 1251,-269 1251,-269 1251,-269 1251,-201 1251,-163.88 1246.35,-152.68 1227,-121 1220.39,-110.17 1210.86,-100.08 1201.77,-91.84"/>
<polygon fill="#63b8ff" stroke="#63b8ff" points="1203.83,-88.99 1193.97,-85.11 1199.25,-94.29 1203.83,-88.99"/>
</g>
<!-- Node19&#45;&gt;Node8 -->
<g id="edge43" class="edge">
<title>Node19&#45;&gt;Node8</title>
<path fill="none" stroke="#63b8ff" d="M410.95,-451C391.82,-434.45 366.48,-406.45 383,-385 390.13,-375.74 444.32,-361.96 492.85,-351.22"/>
<polygon fill="#63b8ff" stroke="#63b8ff" points="493.76,-354.6 502.78,-349.04 492.27,-347.76 493.76,-354.6"/>
</g>
<!-- Node19&#45;&gt;Node14 -->
<g id="edge60" class="edge">
<title>Node19&#45;&gt;Node14</title>
<path fill="none" stroke="#63b8ff" d="M393.76,-450.94C335.15,-426.43 224,-374.72 224,-335 224,-335 224,-335 224,-201 224,-160.21 240.22,-149.91 269,-121 281.63,-108.32 298.14,-97.81 313.44,-89.76"/>
<polygon fill="#63b8ff" stroke="#63b8ff" points="315.41,-92.68 322.77,-85.06 312.27,-86.43 315.41,-92.68"/>
</g>
<!-- Node19&#45;&gt;Node16 -->
<g id="edge63" class="edge">
<title>Node19&#45;&gt;Node16</title>
<path fill="none" stroke="#63b8ff" d="M485.57,-454.28C492.77,-453.08 500.05,-451.95 507,-451 681.05,-427.11 1289,-510.68 1289,-335 1289,-335 1289,-335 1289,-201 1289,-161.25 1275.22,-150.88 1249,-121 1238.45,-108.97 1224.38,-98.52 1211.35,-90.32"/>
<polygon fill="#63b8ff" stroke="#63b8ff" points="1212.91,-87.18 1202.54,-85.02 1209.3,-93.18 1212.91,-87.18"/>
</g>
<!-- Node20 -->
<g id="node20" class="node">
<title>Node20</title>
<g id="a_node20"><a xlink:href="primitives_8hpp.html" target="_top" xlink:title=" ">
<polygon fill="white" stroke="#666666" points="474,-349 328,-349 328,-319 474,-319 474,-349"/>
<text text-anchor="start" x="336" y="-337" font-family="Helvetica,sans-Serif" font-size="10.00">proxsuite/linalg/veg</text>
<text text-anchor="middle" x="401" y="-326" font-family="Helvetica,sans-Serif" font-size="10.00">/type_traits/primitives.hpp</text>
</a>
</g>
</g>
<!-- Node19&#45;&gt;Node20 -->
<g id="edge34" class="edge">
<title>Node19&#45;&gt;Node20</title>
<path fill="none" stroke="#63b8ff" d="M391.28,-450.88C375.57,-442.9 358.92,-431.21 350,-415 343.57,-403.32 344.84,-397.29 350,-385 354.75,-373.68 363.46,-363.64 372.35,-355.58"/>
<polygon fill="#63b8ff" stroke="#63b8ff" points="374.73,-358.15 380.11,-349.03 370.21,-352.8 374.73,-358.15"/>
</g>
<!-- Node21 -->
<g id="node21" class="node">
<title>Node21</title>
<g id="a_node21"><a xlink:href="terminate_8hpp.html" target="_top" xlink:title=" ">
<polygon fill="white" stroke="#666666" points="195.5,-151 66.5,-151 66.5,-121 195.5,-121 195.5,-151"/>
<text text-anchor="start" x="74.5" y="-139" font-family="Helvetica,sans-Serif" font-size="10.00">proxsuite/linalg/veg</text>
<text text-anchor="middle" x="131" y="-128" font-family="Helvetica,sans-Serif" font-size="10.00">/internal/terminate.hpp</text>
</a>
</g>
</g>
<!-- Node19&#45;&gt;Node21 -->
<g id="edge39" class="edge">
<title>Node19&#45;&gt;Node21</title>
<path fill="none" stroke="#63b8ff" d="M372.33,-452.6C308.58,-438.58 213.39,-417.37 210,-415 175.23,-390.73 158,-377.41 158,-335 158,-335 158,-335 158,-267 158,-229.32 146.99,-186.75 139.03,-160.9"/>
<polygon fill="#63b8ff" stroke="#63b8ff" points="142.32,-159.69 135.95,-151.23 135.65,-161.82 142.32,-159.69"/>
</g>
<!-- Node23 -->
<g id="node23" class="node">
<title>Node23</title>
<g id="a_node23"><a xlink:href="ref_8hpp.html" target="_top" xlink:title=" ">
<polygon fill="white" stroke="#666666" points="713.5,-415 600.5,-415 600.5,-385 713.5,-385 713.5,-415"/>
<text text-anchor="start" x="608.5" y="-403" font-family="Helvetica,sans-Serif" font-size="10.00">proxsuite/linalg/veg</text>
<text text-anchor="middle" x="657" y="-392" font-family="Helvetica,sans-Serif" font-size="10.00">/ref.hpp</text>
</a>
</g>
</g>
<!-- Node19&#45;&gt;Node23 -->
<g id="edge44" class="edge">
<title>Node19&#45;&gt;Node23</title>
<path fill="none" stroke="#63b8ff" d="M479.04,-450.95C513.78,-441.2 560.25,-428.16 596.99,-417.84"/>
<polygon fill="#63b8ff" stroke="#63b8ff" points="598.4,-421.08 607.08,-415.01 596.51,-414.35 598.4,-421.08"/>
</g>
<!-- Node28 -->
<g id="node28" class="node">
<title>Node28</title>
<g id="a_node28"><a xlink:title=" ">
<polygon fill="#e0e0e0" stroke="#999999" points="442,-409.5 392,-409.5 392,-390.5 442,-390.5 442,-409.5"/>
<text text-anchor="middle" x="417" y="-397.5" font-family="Helvetica,sans-Serif" font-size="10.00">cstring</text>
</a>
</g>
</g>
<!-- Node19&#45;&gt;Node28 -->
<g id="edge61" class="edge">
<title>Node19&#45;&gt;Node28</title>
<path fill="none" stroke="#63b8ff" d="M426.34,-450.8C424.63,-441.7 422.4,-429.79 420.54,-419.9"/>
<polygon fill="#63b8ff" stroke="#63b8ff" points="423.94,-419.03 418.66,-409.84 417.06,-420.32 423.94,-419.03"/>
</g>
<!-- Node29 -->
<g id="node29" class="node">
<title>Node29</title>
<g id="a_node29"><a xlink:title=" ">
<polygon fill="#e0e0e0" stroke="#999999" points="506,-409.5 460,-409.5 460,-390.5 506,-390.5 506,-409.5"/>
<text text-anchor="middle" x="483" y="-397.5" font-family="Helvetica,sans-Serif" font-size="10.00">cstdio</text>
</a>
</g>
</g>
<!-- Node19&#45;&gt;Node29 -->
<g id="edge62" class="edge">
<title>Node19&#45;&gt;Node29</title>
<path fill="none" stroke="#63b8ff" d="M440.98,-450.8C449.24,-441.01 460.24,-427.98 468.91,-417.7"/>
<polygon fill="#63b8ff" stroke="#63b8ff" points="471.76,-419.74 475.54,-409.84 466.41,-415.23 471.76,-419.74"/>
</g>
<!-- Node20&#45;&gt;Node9 -->
<g id="edge35" class="edge">
<title>Node20&#45;&gt;Node9</title>
<path fill="none" stroke="#63b8ff" d="M458.94,-318.95C499.77,-309.06 554.59,-295.77 597.42,-285.38"/>
<polygon fill="#63b8ff" stroke="#63b8ff" points="598.31,-288.77 607.2,-283.01 596.66,-281.97 598.31,-288.77"/>
</g>
<!-- Node20&#45;&gt;Node14 -->
<g id="edge36" class="edge">
<title>Node20&#45;&gt;Node14</title>
<path fill="none" stroke="#63b8ff" d="M383.37,-318.81C373.57,-309.74 362.31,-297.06 357,-283 332.78,-218.81 343.83,-135.69 351.63,-95.25"/>
<polygon fill="#63b8ff" stroke="#63b8ff" points="355.1,-95.75 353.66,-85.25 348.24,-94.35 355.1,-95.75"/>
</g>
<!-- Node20&#45;&gt;Node16 -->
<g id="edge38" class="edge">
<title>Node20&#45;&gt;Node16</title>
<path fill="none" stroke="#63b8ff" d="M429.66,-318.99C467.38,-301.11 536.17,-270.4 598,-253 692.95,-226.28 721.52,-241.75 817,-217 859.05,-206.1 963.29,-172.57 1001,-151 1019.08,-140.66 1018.94,-131.37 1037,-121 1060.8,-107.34 1089,-96.32 1113.69,-88.14"/>
<polygon fill="#63b8ff" stroke="#63b8ff" points="1114.87,-91.44 1123.31,-85.03 1112.72,-84.77 1114.87,-91.44"/>
</g>
<!-- Node20&#45;&gt;Node17 -->
<g id="edge37" class="edge">
<title>Node20&#45;&gt;Node17</title>
<path fill="none" stroke="#63b8ff" d="M401,-318.8C401,-309.7 401,-297.79 401,-287.9"/>
<polygon fill="#63b8ff" stroke="#63b8ff" points="404.5,-287.84 401,-277.84 397.5,-287.84 404.5,-287.84"/>
</g>
<!-- Node21&#45;&gt;Node14 -->
<g id="edge40" class="edge">
<title>Node21&#45;&gt;Node14</title>
<path fill="none" stroke="#63b8ff" d="M180.6,-120.95C215.04,-111.2 261.1,-98.16 297.52,-87.84"/>
<polygon fill="#63b8ff" stroke="#63b8ff" points="298.85,-91.1 307.52,-85.01 296.94,-84.37 298.85,-91.1"/>
</g>
<!-- Node21&#45;&gt;Node16 -->
<g id="edge42" class="edge">
<title>Node21&#45;&gt;Node16</title>
<path fill="none" stroke="#63b8ff" d="M195.73,-133.2C347.83,-128.59 739.79,-114.63 1066,-85 1078.02,-83.91 1090.76,-82.5 1103.13,-81"/>
<polygon fill="#63b8ff" stroke="#63b8ff" points="1103.92,-84.43 1113.41,-79.72 1103.05,-77.48 1103.92,-84.43"/>
</g>
<!-- Node22 -->
<g id="node22" class="node">
<title>Node22</title>
<g id="a_node22"><a xlink:title=" ">
<polygon fill="#e0e0e0" stroke="#999999" points="163.5,-79.5 98.5,-79.5 98.5,-60.5 163.5,-60.5 163.5,-79.5"/>
<text text-anchor="middle" x="131" y="-67.5" font-family="Helvetica,sans-Serif" font-size="10.00">exception</text>
</a>
</g>
</g>
<!-- Node21&#45;&gt;Node22 -->
<g id="edge41" class="edge">
<title>Node21&#45;&gt;Node22</title>
<path fill="none" stroke="#63b8ff" d="M131,-120.8C131,-111.7 131,-99.79 131,-89.9"/>
<polygon fill="#63b8ff" stroke="#63b8ff" points="134.5,-89.84 131,-79.84 127.5,-89.84 134.5,-89.84"/>
</g>
<!-- Node23&#45;&gt;Node8 -->
<g id="edge49" class="edge">
<title>Node23&#45;&gt;Node8</title>
<path fill="none" stroke="#63b8ff" d="M638.14,-384.8C626.58,-376.1 611.61,-364.82 598.83,-355.2"/>
<polygon fill="#63b8ff" stroke="#63b8ff" points="600.91,-352.38 590.81,-349.16 596.69,-357.98 600.91,-352.38"/>
</g>
<!-- Node23&#45;&gt;Node14 -->
<g id="edge58" class="edge">
<title>Node23&#45;&gt;Node14</title>
<path fill="none" stroke="#63b8ff" d="M600.23,-392.36C506.57,-381.15 328.95,-358.77 319,-349 245.94,-277.26 238.84,-211.88 286,-121 292.59,-108.29 304.06,-98.13 315.89,-90.38"/>
<polygon fill="#63b8ff" stroke="#63b8ff" points="317.76,-93.34 324.49,-85.16 314.13,-87.35 317.76,-93.34"/>
</g>
<!-- Node23&#45;&gt;Node16 -->
<g id="edge59" class="edge">
<title>Node23&#45;&gt;Node16</title>
<path fill="none" stroke="#63b8ff" d="M713.81,-386.56C716.91,-386 719.99,-385.48 723,-385 833.52,-367.49 1213,-380.9 1213,-269 1213,-269 1213,-269 1213,-201 1213,-162.39 1197.37,-119.83 1186.15,-94.27"/>
<polygon fill="#63b8ff" stroke="#63b8ff" points="1189.29,-92.7 1181.97,-85.03 1182.91,-95.59 1189.29,-92.7"/>
</g>
<!-- Node24 -->
<g id="node24" class="node">
<title>Node24</title>
<g id="a_node24"><a xlink:href="tags_8hpp.html" target="_top" xlink:title=" ">
<polygon fill="white" stroke="#666666" points="824.5,-349 707.5,-349 707.5,-319 824.5,-319 824.5,-349"/>
<text text-anchor="start" x="715.5" y="-337" font-family="Helvetica,sans-Serif" font-size="10.00">proxsuite/linalg/veg</text>
<text text-anchor="middle" x="766" y="-326" font-family="Helvetica,sans-Serif" font-size="10.00">/type_traits/tags.hpp</text>
</a>
</g>
</g>
<!-- Node23&#45;&gt;Node24 -->
<g id="edge45" class="edge">
<title>Node23&#45;&gt;Node24</title>
<path fill="none" stroke="#63b8ff" d="M680.92,-384.95C696.25,-375.95 716.36,-364.14 733.18,-354.27"/>
<polygon fill="#63b8ff" stroke="#63b8ff" points="735.28,-357.09 742.14,-349.01 731.74,-351.06 735.28,-357.09"/>
</g>
<!-- Node25 -->
<g id="node25" class="node">
<title>Node25</title>
<g id="a_node25"><a xlink:href="address_8hpp.html" target="_top" xlink:title=" ">
<polygon fill="white" stroke="#666666" points="1054.5,-349 931.5,-349 931.5,-319 1054.5,-319 1054.5,-349"/>
<text text-anchor="start" x="939.5" y="-337" font-family="Helvetica,sans-Serif" font-size="10.00">proxsuite/linalg/veg</text>
<text text-anchor="middle" x="993" y="-326" font-family="Helvetica,sans-Serif" font-size="10.00">/memory/address.hpp</text>
</a>
</g>
</g>
<!-- Node23&#45;&gt;Node25 -->
<g id="edge50" class="edge">
<title>Node23&#45;&gt;Node25</title>
<path fill="none" stroke="#63b8ff" d="M713.51,-386.91C716.72,-386.26 719.9,-385.62 723,-385 790.13,-371.67 866.88,-357.56 921.35,-347.75"/>
<polygon fill="#63b8ff" stroke="#63b8ff" points="922.03,-351.18 931.25,-345.96 920.79,-344.29 922.03,-351.18"/>
</g>
<!-- Node24&#45;&gt;Node9 -->
<g id="edge46" class="edge">
<title>Node24&#45;&gt;Node9</title>
<path fill="none" stroke="#63b8ff" d="M743.58,-318.8C729.59,-309.93 711.38,-298.39 696.02,-288.66"/>
<polygon fill="#63b8ff" stroke="#63b8ff" points="697.67,-285.56 687.35,-283.16 693.93,-291.47 697.67,-285.56"/>
</g>
<!-- Node24&#45;&gt;Node14 -->
<g id="edge47" class="edge">
<title>Node24&#45;&gt;Node14</title>
<path fill="none" stroke="#63b8ff" d="M708.55,-318.97C667.74,-308.43 616.96,-293.99 598,-283 507.7,-230.66 508.66,-187.23 428,-121 415.12,-110.43 400.14,-99.67 387.26,-90.85"/>
<polygon fill="#63b8ff" stroke="#63b8ff" points="388.97,-87.79 378.73,-85.08 385.05,-93.58 388.97,-87.79"/>
</g>
<!-- Node24&#45;&gt;Node16 -->
<g id="edge48" class="edge">
<title>Node24&#45;&gt;Node16</title>
<path fill="none" stroke="#63b8ff" d="M812.21,-318.9C843.59,-309.18 885.94,-295.76 923,-283 959.3,-270.51 967.77,-265.69 1004,-253 1052.15,-236.14 1075.47,-251.56 1113,-217 1148.68,-184.16 1164.61,-127.41 1171.08,-95.19"/>
<polygon fill="#63b8ff" stroke="#63b8ff" points="1174.53,-95.75 1172.92,-85.28 1167.65,-94.47 1174.53,-95.75"/>
</g>
<!-- Node25&#45;&gt;Node9 -->
<g id="edge51" class="edge">
<title>Node25&#45;&gt;Node9</title>
<path fill="none" stroke="#63b8ff" d="M931.31,-320.96C874.99,-309.97 791.89,-293.76 733.53,-282.37"/>
<polygon fill="#63b8ff" stroke="#63b8ff" points="734.15,-278.93 723.66,-280.45 732.81,-285.8 734.15,-278.93"/>
</g>
<!-- Node25&#45;&gt;Node14 -->
<g id="edge55" class="edge">
<title>Node25&#45;&gt;Node14</title>
<path fill="none" stroke="#63b8ff" d="M947.16,-318.91C852.4,-289.72 642.52,-224.71 628,-217 608.99,-206.91 607.05,-200.12 590,-187 551.26,-157.18 545.19,-143.91 502,-121 476.34,-107.39 446.23,-96.3 420.11,-88.05"/>
<polygon fill="#63b8ff" stroke="#63b8ff" points="420.91,-84.64 410.32,-85.03 418.84,-91.33 420.91,-84.64"/>
</g>
<!-- Node25&#45;&gt;Node16 -->
<g id="edge57" class="edge">
<title>Node25&#45;&gt;Node16</title>
<path fill="none" stroke="#63b8ff" d="M1031.43,-318.94C1051.82,-310.4 1076.59,-298.19 1096,-283 1126.07,-259.47 1135.12,-251.73 1151,-217 1169.18,-177.23 1173.8,-125.78 1174.85,-95.78"/>
<polygon fill="#63b8ff" stroke="#63b8ff" points="1178.35,-95.48 1175.1,-85.4 1171.36,-95.32 1178.35,-95.48"/>
</g>
<!-- Node26 -->
<g id="node26" class="node">
<title>Node26</title>
<g id="a_node26"><a xlink:href="std_8hpp.html" target="_top" xlink:title=" ">
<polygon fill="white" stroke="#666666" points="956.5,-151 843.5,-151 843.5,-121 956.5,-121 956.5,-151"/>
<text text-anchor="start" x="851.5" y="-139" font-family="Helvetica,sans-Serif" font-size="10.00">proxsuite/linalg/veg</text>
<text text-anchor="middle" x="900" y="-128" font-family="Helvetica,sans-Serif" font-size="10.00">/internal/std.hpp</text>
</a>
</g>
</g>
<!-- Node25&#45;&gt;Node26 -->
<g id="edge52" class="edge">
<title>Node25&#45;&gt;Node26</title>
<path fill="none" stroke="#63b8ff" d="M1036.25,-318.95C1052.99,-311.15 1070.4,-299.59 1080,-283 1086.68,-271.46 1086.38,-264.71 1080,-253 1053.2,-203.84 995.63,-172.37 952.77,-154.8"/>
<polygon fill="#63b8ff" stroke="#63b8ff" points="953.91,-151.48 943.32,-151.05 951.33,-157.99 953.91,-151.48"/>
</g>
<!-- Node27 -->
<g id="node27" class="node">
<title>Node27</title>
<g id="a_node27"><a xlink:title=" ">
<polygon fill="#e0e0e0" stroke="#999999" points="1071,-277.5 1013,-277.5 1013,-258.5 1071,-258.5 1071,-277.5"/>
<text text-anchor="middle" x="1042" y="-265.5" font-family="Helvetica,sans-Serif" font-size="10.00">memory</text>
</a>
</g>
</g>
<!-- Node25&#45;&gt;Node27 -->
<g id="edge56" class="edge">
<title>Node25&#45;&gt;Node27</title>
<path fill="none" stroke="#63b8ff" d="M1003.87,-318.8C1011.29,-309.11 1021.14,-296.24 1028.98,-286.01"/>
<polygon fill="#63b8ff" stroke="#63b8ff" points="1031.93,-287.91 1035.23,-277.84 1026.37,-283.66 1031.93,-287.91"/>
</g>
<!-- Node26&#45;&gt;Node5 -->
<g id="edge53" class="edge">
<title>Node26&#45;&gt;Node5</title>
<path fill="none" stroke="#63b8ff" d="M956.55,-121.49C1001.94,-110.09 1059.18,-94.18 1066,-85 1073.95,-74.3 1074.44,-65.32 1066,-55 1043.22,-27.13 938.42,-16.28 882.46,-12.42"/>
<polygon fill="#63b8ff" stroke="#63b8ff" points="882.49,-8.92 872.28,-11.76 882.04,-15.9 882.49,-8.92"/>
</g>
<!-- Node26&#45;&gt;Node15 -->
<g id="edge54" class="edge">
<title>Node26&#45;&gt;Node15</title>
<path fill="none" stroke="#63b8ff" d="M925.24,-120.95C944.78,-110.08 971.68,-95.11 990.93,-84.4"/>
<polygon fill="#63b8ff" stroke="#63b8ff" points="992.66,-87.44 999.7,-79.52 989.26,-81.32 992.66,-87.44"/>
</g>
</g>
</svg>
