<?xml version="1.0" encoding="UTF-8" standalone="no"?>
<!DOCTYPE svg PUBLIC "-//W3C//DTD SVG 1.1//EN"
 "http://www.w3.org/Graphics/SVG/1.1/DTD/svg11.dtd">
<!-- Generated by graphviz version 7.0.6 (20230107.1202)
 -->
<!-- Title: include/proxsuite/linalg/veg/internal/narrow.hpp Pages: 1 -->
<svg width="1762pt" height="687pt"
 viewBox="0.00 0.00 1762.00 687.00" xmlns="http://www.w3.org/2000/svg" xmlns:xlink="http://www.w3.org/1999/xlink">
<g id="graph0" class="graph" transform="scale(1 1) rotate(0) translate(4 683)">
<title>include/proxsuite/linalg/veg/internal/narrow.hpp</title>
<!-- Node1 -->
<g id="node1" class="node">
<title>Node1</title>
<g id="a_node1"><a xlink:title=" ">
<polygon fill="#999999" stroke="#666666" points="949.5,-679 814.5,-679 814.5,-649 949.5,-649 949.5,-679"/>
<text text-anchor="start" x="822.5" y="-667" font-family="Helvetica,sans-Serif" font-size="10.00">include/proxsuite/linalg</text>
<text text-anchor="middle" x="882" y="-656" font-family="Helvetica,sans-Serif" font-size="10.00">/veg/internal/narrow.hpp</text>
</a>
</g>
</g>
<!-- Node2 -->
<g id="node2" class="node">
<title>Node2</title>
<g id="a_node2"><a xlink:href="fwd_8hpp.html" target="_top" xlink:title=" ">
<polygon fill="white" stroke="#666666" points="104,-607.5 0,-607.5 0,-588.5 104,-588.5 104,-607.5"/>
<text text-anchor="middle" x="52" y="-595.5" font-family="Helvetica,sans-Serif" font-size="10.00">proxsuite/fwd.hpp</text>
</a>
</g>
</g>
<!-- Node1&#45;&gt;Node2 -->
<g id="edge1" class="edge">
<title>Node1&#45;&gt;Node2</title>
<path fill="none" stroke="#63b8ff" d="M814.22,-661.83C680.48,-658.8 373.45,-648.27 118,-613 112.34,-612.22 106.45,-611.23 100.61,-610.13"/>
<polygon fill="#63b8ff" stroke="#63b8ff" points="101.5,-606.74 91.01,-608.23 100.14,-613.61 101.5,-606.74"/>
</g>
<!-- Node4 -->
<g id="node4" class="node">
<title>Node4</title>
<g id="a_node4"><a xlink:href="assert_8hpp.html" target="_top" xlink:title=" ">
<polygon fill="white" stroke="#666666" points="938.5,-613 825.5,-613 825.5,-583 938.5,-583 938.5,-613"/>
<text text-anchor="start" x="833.5" y="-601" font-family="Helvetica,sans-Serif" font-size="10.00">proxsuite/linalg/veg</text>
<text text-anchor="middle" x="882" y="-590" font-family="Helvetica,sans-Serif" font-size="10.00">/util/assert.hpp</text>
</a>
</g>
</g>
<!-- Node1&#45;&gt;Node4 -->
<g id="edge3" class="edge">
<title>Node1&#45;&gt;Node4</title>
<path fill="none" stroke="#63b8ff" d="M882,-648.8C882,-641.67 882,-632.82 882,-624.56"/>
<polygon fill="#63b8ff" stroke="#63b8ff" points="885.5,-624.68 882,-614.68 878.5,-624.68 885.5,-624.68"/>
</g>
<!-- Node16 -->
<g id="node16" class="node">
<title>Node16</title>
<g id="a_node16"><a xlink:href="prologue_8hpp.html" target="_top" xlink:title=" ">
<polygon fill="white" stroke="#666666" points="441,-85 317,-85 317,-55 441,-55 441,-85"/>
<text text-anchor="start" x="325" y="-73" font-family="Helvetica,sans-Serif" font-size="10.00">proxsuite/linalg/veg</text>
<text text-anchor="middle" x="379" y="-62" font-family="Helvetica,sans-Serif" font-size="10.00">/internal/prologue.hpp</text>
</a>
</g>
</g>
<!-- Node1&#45;&gt;Node16 -->
<g id="edge70" class="edge">
<title>Node1&#45;&gt;Node16</title>
<path fill="none" stroke="#63b8ff" d="M814.12,-658.35C629.5,-644.8 132,-601.88 132,-533 132,-533 132,-533 132,-201 132,-121.72 232.88,-90.68 305.7,-78.6"/>
<polygon fill="#63b8ff" stroke="#63b8ff" points="305.84,-82.12 315.18,-77.12 304.76,-75.2 305.84,-82.12"/>
</g>
<!-- Node18 -->
<g id="node18" class="node">
<title>Node18</title>
<g id="a_node18"><a xlink:href="epilogue_8hpp.html" target="_top" xlink:title=" ">
<polygon fill="white" stroke="#666666" points="1253.5,-85 1130.5,-85 1130.5,-55 1253.5,-55 1253.5,-85"/>
<text text-anchor="start" x="1138.5" y="-73" font-family="Helvetica,sans-Serif" font-size="10.00">proxsuite/linalg/veg</text>
<text text-anchor="middle" x="1192" y="-62" font-family="Helvetica,sans-Serif" font-size="10.00">/internal/epilogue.hpp</text>
</a>
</g>
</g>
<!-- Node1&#45;&gt;Node18 -->
<g id="edge74" class="edge">
<title>Node1&#45;&gt;Node18</title>
<path fill="none" stroke="#63b8ff" d="M949.73,-663.68C1116.77,-663.56 1535,-651.41 1535,-533 1535,-533 1535,-533 1535,-201 1535,-160.21 1523.38,-144.45 1490,-121 1471.83,-108.24 1347.38,-90.49 1265.15,-79.93"/>
<polygon fill="#63b8ff" stroke="#63b8ff" points="1265.71,-76.47 1255.35,-78.68 1264.83,-83.42 1265.71,-76.47"/>
</g>
<!-- Node34 -->
<g id="node34" class="node">
<title>Node34</title>
<g id="a_node34"><a xlink:href="common_8hpp.html" target="_top" xlink:title=" ">
<polygon fill="white" stroke="#666666" points="1731,-607.5 1563,-607.5 1563,-588.5 1731,-588.5 1731,-607.5"/>
<text text-anchor="middle" x="1647" y="-595.5" font-family="Helvetica,sans-Serif" font-size="10.00">proxsuite/helpers/common.hpp</text>
</a>
</g>
</g>
<!-- Node1&#45;&gt;Node34 -->
<g id="edge71" class="edge">
<title>Node1&#45;&gt;Node34</title>
<path fill="none" stroke="#63b8ff" d="M949.83,-659.42C1070.55,-652.72 1330.53,-636.77 1549,-613 1558.27,-611.99 1568.02,-610.78 1577.62,-609.5"/>
<polygon fill="#63b8ff" stroke="#63b8ff" points="1577.85,-613 1587.28,-608.18 1576.9,-606.07 1577.85,-613"/>
</g>
<!-- Node3 -->
<g id="node3" class="node">
<title>Node3</title>
<g id="a_node3"><a xlink:title=" ">
<polygon fill="#e0e0e0" stroke="#999999" points="86.5,-541.5 17.5,-541.5 17.5,-522.5 86.5,-522.5 86.5,-541.5"/>
<text text-anchor="middle" x="52" y="-529.5" font-family="Helvetica,sans-Serif" font-size="10.00">Eigen/Core</text>
</a>
</g>
</g>
<!-- Node2&#45;&gt;Node3 -->
<g id="edge2" class="edge">
<title>Node2&#45;&gt;Node3</title>
<path fill="none" stroke="#63b8ff" d="M52,-588.1C52,-579.12 52,-564.95 52,-553.22"/>
<polygon fill="#63b8ff" stroke="#63b8ff" points="55.5,-553.34 52,-543.34 48.5,-553.34 55.5,-553.34"/>
</g>
<!-- Node5 -->
<g id="node5" class="node">
<title>Node5</title>
<g id="a_node5"><a xlink:href="assert__impl_8hpp.html" target="_top" xlink:title=" ">
<polygon fill="white" stroke="#666666" points="951,-547 813,-547 813,-517 951,-517 951,-547"/>
<text text-anchor="start" x="821" y="-535" font-family="Helvetica,sans-Serif" font-size="10.00">proxsuite/linalg/veg</text>
<text text-anchor="middle" x="882" y="-524" font-family="Helvetica,sans-Serif" font-size="10.00">/internal/assert_impl.hpp</text>
</a>
</g>
</g>
<!-- Node4&#45;&gt;Node5 -->
<g id="edge4" class="edge">
<title>Node4&#45;&gt;Node5</title>
<path fill="none" stroke="#63b8ff" d="M882,-582.8C882,-575.67 882,-566.82 882,-558.56"/>
<polygon fill="#63b8ff" stroke="#63b8ff" points="885.5,-558.68 882,-548.68 878.5,-558.68 885.5,-558.68"/>
</g>
<!-- Node6 -->
<g id="node6" class="node">
<title>Node6</title>
<g id="a_node6"><a xlink:href="typedefs_8hpp.html" target="_top" xlink:title=" ">
<polygon fill="white" stroke="#666666" points="612,-85 488,-85 488,-55 612,-55 612,-85"/>
<text text-anchor="start" x="496" y="-73" font-family="Helvetica,sans-Serif" font-size="10.00">proxsuite/linalg/veg</text>
<text text-anchor="middle" x="550" y="-62" font-family="Helvetica,sans-Serif" font-size="10.00">/internal/typedefs.hpp</text>
</a>
</g>
</g>
<!-- Node5&#45;&gt;Node6 -->
<g id="edge5" class="edge">
<title>Node5&#45;&gt;Node6</title>
<path fill="none" stroke="#63b8ff" d="M812.5,-528.65C666.15,-522.08 333.98,-498.16 265,-415 162.66,-291.62 411.35,-143.23 510.95,-90.64"/>
<polygon fill="#63b8ff" stroke="#63b8ff" points="512.36,-93.86 519.61,-86.13 509.12,-87.65 512.36,-93.86"/>
</g>
<!-- Node9 -->
<g id="node9" class="node">
<title>Node9</title>
<g id="a_node9"><a xlink:href="defer_8hpp.html" target="_top" xlink:title=" ">
<polygon fill="white" stroke="#666666" points="1004.5,-481 891.5,-481 891.5,-451 1004.5,-451 1004.5,-481"/>
<text text-anchor="start" x="899.5" y="-469" font-family="Helvetica,sans-Serif" font-size="10.00">proxsuite/linalg/veg</text>
<text text-anchor="middle" x="948" y="-458" font-family="Helvetica,sans-Serif" font-size="10.00">/util/defer.hpp</text>
</a>
</g>
</g>
<!-- Node5&#45;&gt;Node9 -->
<g id="edge8" class="edge">
<title>Node5&#45;&gt;Node9</title>
<path fill="none" stroke="#63b8ff" d="M896.65,-516.8C905.02,-508.68 915.71,-498.31 925.16,-489.15"/>
<polygon fill="#63b8ff" stroke="#63b8ff" points="927.56,-491.69 932.31,-482.22 922.69,-486.67 927.56,-491.69"/>
</g>
<!-- Node5&#45;&gt;Node16 -->
<g id="edge67" class="edge">
<title>Node5&#45;&gt;Node16</title>
<path fill="none" stroke="#63b8ff" d="M812.71,-528.47C682.52,-523.13 406.27,-508.84 315,-481 244.6,-459.53 170,-474.6 170,-401 170,-401 170,-401 170,-201 170,-159.99 183.94,-146.58 216,-121 241.56,-100.62 275.4,-88.51 305.62,-81.34"/>
<polygon fill="#63b8ff" stroke="#63b8ff" points="306.08,-84.82 315.09,-79.24 304.57,-77.99 306.08,-84.82"/>
</g>
<!-- Node5&#45;&gt;Node18 -->
<g id="edge69" class="edge">
<title>Node5&#45;&gt;Node18</title>
<path fill="none" stroke="#63b8ff" d="M951.35,-530.82C1112.19,-528.52 1497,-511.49 1497,-401 1497,-401 1497,-401 1497,-201 1497,-162.37 1493.14,-145.16 1463,-121 1447.64,-108.69 1340.06,-91.55 1265.16,-80.87"/>
<polygon fill="#63b8ff" stroke="#63b8ff" points="1265.79,-77.42 1255.4,-79.49 1264.81,-84.36 1265.79,-77.42"/>
</g>
<!-- Node22 -->
<g id="node22" class="node">
<title>Node22</title>
<g id="a_node22"><a xlink:href="internal_2dbg_8hpp.html" target="_top" xlink:title=" ">
<polygon fill="white" stroke="#666666" points="873.5,-481 760.5,-481 760.5,-451 873.5,-451 873.5,-481"/>
<text text-anchor="start" x="768.5" y="-469" font-family="Helvetica,sans-Serif" font-size="10.00">proxsuite/linalg/veg</text>
<text text-anchor="middle" x="817" y="-458" font-family="Helvetica,sans-Serif" font-size="10.00">/internal/dbg.hpp</text>
</a>
</g>
</g>
<!-- Node5&#45;&gt;Node22 -->
<g id="edge36" class="edge">
<title>Node5&#45;&gt;Node22</title>
<path fill="none" stroke="#63b8ff" d="M867.57,-516.8C859.33,-508.68 848.8,-498.31 839.49,-489.15"/>
<polygon fill="#63b8ff" stroke="#63b8ff" points="842.05,-486.75 832.46,-482.23 837.13,-491.74 842.05,-486.75"/>
</g>
<!-- Node33 -->
<g id="node33" class="node">
<title>Node33</title>
<g id="a_node33"><a xlink:title=" ">
<polygon fill="#e0e0e0" stroke="#999999" points="1075,-475.5 1023,-475.5 1023,-456.5 1075,-456.5 1075,-475.5"/>
<text text-anchor="middle" x="1049" y="-463.5" font-family="Helvetica,sans-Serif" font-size="10.00">cassert</text>
</a>
</g>
</g>
<!-- Node5&#45;&gt;Node33 -->
<g id="edge68" class="edge">
<title>Node5&#45;&gt;Node33</title>
<path fill="none" stroke="#63b8ff" d="M920.14,-516.51C946.29,-506.57 981.77,-493.03 1013,-481 1013.8,-480.69 1014.61,-480.38 1015.42,-480.07"/>
<polygon fill="#63b8ff" stroke="#63b8ff" points="1016.68,-483.33 1024.74,-476.46 1014.15,-476.8 1016.68,-483.33"/>
</g>
<!-- Node7 -->
<g id="node7" class="node">
<title>Node7</title>
<g id="a_node7"><a xlink:title=" ">
<polygon fill="#e0e0e0" stroke="#999999" points="883,-19 833,-19 833,0 883,0 883,-19"/>
<text text-anchor="middle" x="858" y="-7" font-family="Helvetica,sans-Serif" font-size="10.00">cstdint</text>
</a>
</g>
</g>
<!-- Node6&#45;&gt;Node7 -->
<g id="edge6" class="edge">
<title>Node6&#45;&gt;Node7</title>
<path fill="none" stroke="#63b8ff" d="M612.33,-56.68C615.26,-56.11 618.16,-55.55 621,-55 691.91,-41.35 774.86,-25.89 821.43,-17.26"/>
<polygon fill="#63b8ff" stroke="#63b8ff" points="822.05,-20.71 831.24,-15.44 820.77,-13.82 822.05,-20.71"/>
</g>
<!-- Node8 -->
<g id="node8" class="node">
<title>Node8</title>
<g id="a_node8"><a xlink:title=" ">
<polygon fill="#e0e0e0" stroke="#999999" points="576.5,-19 523.5,-19 523.5,0 576.5,0 576.5,-19"/>
<text text-anchor="middle" x="550" y="-7" font-family="Helvetica,sans-Serif" font-size="10.00">cstddef</text>
</a>
</g>
</g>
<!-- Node6&#45;&gt;Node8 -->
<g id="edge7" class="edge">
<title>Node6&#45;&gt;Node8</title>
<path fill="none" stroke="#63b8ff" d="M550,-54.54C550,-47.34 550,-38.53 550,-30.68"/>
<polygon fill="#63b8ff" stroke="#63b8ff" points="553.5,-30.69 550,-20.69 546.5,-30.69 553.5,-30.69"/>
</g>
<!-- Node10 -->
<g id="node10" class="node">
<title>Node10</title>
<g id="a_node10"><a xlink:href="constructible_8hpp.html" target="_top" xlink:title=" ">
<polygon fill="white" stroke="#666666" points="1145.5,-349 986.5,-349 986.5,-319 1145.5,-319 1145.5,-349"/>
<text text-anchor="start" x="994.5" y="-337" font-family="Helvetica,sans-Serif" font-size="10.00">proxsuite/linalg/veg</text>
<text text-anchor="middle" x="1066" y="-326" font-family="Helvetica,sans-Serif" font-size="10.00">/type_traits/constructible.hpp</text>
</a>
</g>
</g>
<!-- Node9&#45;&gt;Node10 -->
<g id="edge9" class="edge">
<title>Node9&#45;&gt;Node10</title>
<path fill="none" stroke="#63b8ff" d="M997.42,-450.54C1026.64,-440.89 1059.55,-427.68 1068,-415 1078.64,-399.03 1077.22,-377.01 1073.65,-360.11"/>
<polygon fill="#63b8ff" stroke="#63b8ff" points="1077.15,-359.68 1071.33,-350.83 1070.36,-361.38 1077.15,-359.68"/>
</g>
<!-- Node9&#45;&gt;Node16 -->
<g id="edge34" class="edge">
<title>Node9&#45;&gt;Node16</title>
<path fill="none" stroke="#63b8ff" d="M891.16,-452.72C888.07,-452.12 885,-451.54 882,-451 819.99,-439.74 370.84,-391.18 324,-349 248.17,-280.72 245.7,-209.21 297,-121 304.48,-108.14 316.71,-98.16 329.47,-90.63"/>
<polygon fill="#63b8ff" stroke="#63b8ff" points="330.8,-93.89 337.93,-86.06 327.47,-87.74 330.8,-93.89"/>
</g>
<!-- Node9&#45;&gt;Node18 -->
<g id="edge35" class="edge">
<title>Node9&#45;&gt;Node18</title>
<path fill="none" stroke="#63b8ff" d="M1004.64,-452.08C1137.68,-421.55 1459,-346.61 1459,-335 1459,-335 1459,-335 1459,-201 1459,-164.35 1465.49,-146.32 1439,-121 1426.36,-108.92 1333.2,-92.43 1265.01,-81.75"/>
<polygon fill="#63b8ff" stroke="#63b8ff" points="1265.78,-78.33 1255.36,-80.25 1264.71,-85.24 1265.78,-78.33"/>
</g>
<!-- Node21 -->
<g id="node21" class="node">
<title>Node21</title>
<g id="a_node21"><a xlink:href="invocable_8hpp.html" target="_top" xlink:title=" ">
<polygon fill="white" stroke="#666666" points="1019.5,-415 876.5,-415 876.5,-385 1019.5,-385 1019.5,-415"/>
<text text-anchor="start" x="884.5" y="-403" font-family="Helvetica,sans-Serif" font-size="10.00">proxsuite/linalg/veg</text>
<text text-anchor="middle" x="948" y="-392" font-family="Helvetica,sans-Serif" font-size="10.00">/type_traits/invocable.hpp</text>
</a>
</g>
</g>
<!-- Node9&#45;&gt;Node21 -->
<g id="edge29" class="edge">
<title>Node9&#45;&gt;Node21</title>
<path fill="none" stroke="#63b8ff" d="M948,-450.8C948,-443.67 948,-434.82 948,-426.56"/>
<polygon fill="#63b8ff" stroke="#63b8ff" points="951.5,-426.68 948,-416.68 944.5,-426.68 951.5,-426.68"/>
</g>
<!-- Node11 -->
<g id="node11" class="node">
<title>Node11</title>
<g id="a_node11"><a xlink:href="veg_2type__traits_2core_8hpp.html" target="_top" xlink:title=" ">
<polygon fill="white" stroke="#666666" points="827.5,-283 710.5,-283 710.5,-253 827.5,-253 827.5,-283"/>
<text text-anchor="start" x="718.5" y="-271" font-family="Helvetica,sans-Serif" font-size="10.00">proxsuite/linalg/veg</text>
<text text-anchor="middle" x="769" y="-260" font-family="Helvetica,sans-Serif" font-size="10.00">/type_traits/core.hpp</text>
</a>
</g>
</g>
<!-- Node10&#45;&gt;Node11 -->
<g id="edge10" class="edge">
<title>Node10&#45;&gt;Node11</title>
<path fill="none" stroke="#63b8ff" d="M998.98,-318.56C951.2,-308.26 887.13,-294.46 838.75,-284.03"/>
<polygon fill="#63b8ff" stroke="#63b8ff" points="839.74,-280.66 829.22,-281.98 838.26,-287.51 839.74,-280.66"/>
</g>
<!-- Node10&#45;&gt;Node16 -->
<g id="edge25" class="edge">
<title>Node10&#45;&gt;Node16</title>
<path fill="none" stroke="#63b8ff" d="M1066.77,-318.62C1066.89,-300.33 1064.02,-269.2 1045,-253 981.76,-199.16 753.28,-238.29 673,-217 603.78,-198.64 588.85,-185.33 526,-151 504.58,-139.3 501.2,-133.1 480,-121 460.88,-110.08 439.05,-99.1 420.59,-90.22"/>
<polygon fill="#63b8ff" stroke="#63b8ff" points="422.34,-87.18 411.81,-86.04 419.33,-93.5 422.34,-87.18"/>
</g>
<!-- Node10&#45;&gt;Node18 -->
<g id="edge28" class="edge">
<title>Node10&#45;&gt;Node18</title>
<path fill="none" stroke="#63b8ff" d="M1096.64,-318.68C1111.5,-310.27 1128.39,-298.26 1139,-283 1149.73,-267.58 1175.58,-149.11 1186.73,-96.28"/>
<polygon fill="#63b8ff" stroke="#63b8ff" points="1190.12,-97.2 1188.75,-86.7 1183.27,-95.76 1190.12,-97.2"/>
</g>
<!-- Node19 -->
<g id="node19" class="node">
<title>Node19</title>
<g id="a_node19"><a xlink:title=" ">
<polygon fill="#e0e0e0" stroke="#999999" points="1130.5,-277.5 1093.5,-277.5 1093.5,-258.5 1130.5,-258.5 1130.5,-277.5"/>
<text text-anchor="middle" x="1112" y="-265.5" font-family="Helvetica,sans-Serif" font-size="10.00">new</text>
</a>
</g>
</g>
<!-- Node10&#45;&gt;Node19 -->
<g id="edge26" class="edge">
<title>Node10&#45;&gt;Node19</title>
<path fill="none" stroke="#63b8ff" d="M1076.21,-318.8C1082.96,-309.41 1091.86,-297.02 1099.1,-286.95"/>
<polygon fill="#63b8ff" stroke="#63b8ff" points="1101.77,-289.24 1104.76,-279.07 1096.08,-285.15 1101.77,-289.24"/>
</g>
<!-- Node20 -->
<g id="node20" class="node">
<title>Node20</title>
<g id="a_node20"><a xlink:title=" ">
<polygon fill="#e0e0e0" stroke="#999999" points="1036.5,-277.5 967.5,-277.5 967.5,-258.5 1036.5,-258.5 1036.5,-277.5"/>
<text text-anchor="middle" x="1002" y="-265.5" font-family="Helvetica,sans-Serif" font-size="10.00">type_traits</text>
</a>
</g>
</g>
<!-- Node10&#45;&gt;Node20 -->
<g id="edge27" class="edge">
<title>Node10&#45;&gt;Node20</title>
<path fill="none" stroke="#63b8ff" d="M1051.8,-318.8C1042.01,-309.01 1028.98,-295.98 1018.7,-285.7"/>
<polygon fill="#63b8ff" stroke="#63b8ff" points="1021.46,-283.51 1011.91,-278.91 1016.51,-288.46 1021.46,-283.51"/>
</g>
<!-- Node11&#45;&gt;Node6 -->
<g id="edge11" class="edge">
<title>Node11&#45;&gt;Node6</title>
<path fill="none" stroke="#63b8ff" d="M733.71,-252.66C714.65,-243.95 691.33,-231.69 673,-217 627.72,-180.72 586.85,-125.79 565.53,-94.68"/>
<polygon fill="#63b8ff" stroke="#63b8ff" points="568.66,-93.05 560.17,-86.72 562.86,-96.97 568.66,-93.05"/>
</g>
<!-- Node12 -->
<g id="node12" class="node">
<title>Node12</title>
<g id="a_node12"><a xlink:href="integer__seq_8hpp.html" target="_top" xlink:title=" ">
<polygon fill="white" stroke="#666666" points="820,-217 682,-217 682,-187 820,-187 820,-217"/>
<text text-anchor="start" x="690" y="-205" font-family="Helvetica,sans-Serif" font-size="10.00">proxsuite/linalg/veg</text>
<text text-anchor="middle" x="751" y="-194" font-family="Helvetica,sans-Serif" font-size="10.00">/internal/integer_seq.hpp</text>
</a>
</g>
</g>
<!-- Node11&#45;&gt;Node12 -->
<g id="edge12" class="edge">
<title>Node11&#45;&gt;Node12</title>
<path fill="none" stroke="#63b8ff" d="M765.01,-252.8C762.95,-245.5 760.4,-236.41 758.03,-227.99"/>
<polygon fill="#63b8ff" stroke="#63b8ff" points="761.47,-227.3 755.39,-218.62 754.73,-229.2 761.47,-227.3"/>
</g>
<!-- Node11&#45;&gt;Node16 -->
<g id="edge23" class="edge">
<title>Node11&#45;&gt;Node16</title>
<path fill="none" stroke="#63b8ff" d="M710.24,-254.87C651.75,-242.54 568.75,-224.25 555,-217 499.06,-187.52 499.28,-160.62 450,-121 437.36,-110.84 422.8,-100.39 410.18,-91.69"/>
<polygon fill="#63b8ff" stroke="#63b8ff" points="412.44,-89 402.21,-86.26 408.5,-94.78 412.44,-89"/>
</g>
<!-- Node11&#45;&gt;Node18 -->
<g id="edge24" class="edge">
<title>Node11&#45;&gt;Node18</title>
<path fill="none" stroke="#63b8ff" d="M827.75,-260.12C868.73,-253.48 923.63,-240.76 967,-217 1021.6,-187.09 1016.61,-154.63 1069,-121 1089.08,-108.11 1113.03,-97.47 1134.44,-89.37"/>
<polygon fill="#63b8ff" stroke="#63b8ff" points="1135.44,-92.73 1143.62,-86 1133.03,-86.16 1135.44,-92.73"/>
</g>
<!-- Node12&#45;&gt;Node6 -->
<g id="edge13" class="edge">
<title>Node12&#45;&gt;Node6</title>
<path fill="none" stroke="#63b8ff" d="M731.79,-186.73C705.06,-166.97 657.95,-132.4 640,-121 623.26,-110.37 604.12,-99.56 587.81,-90.72"/>
<polygon fill="#63b8ff" stroke="#63b8ff" points="589.86,-87.85 579.4,-86.21 586.55,-94.02 589.86,-87.85"/>
</g>
<!-- Node13 -->
<g id="node13" class="node">
<title>Node13</title>
<g id="a_node13"><a xlink:href="macros_8hpp.html" target="_top" xlink:title=" ">
<polygon fill="white" stroke="#666666" points="809.5,-151 692.5,-151 692.5,-121 809.5,-121 809.5,-151"/>
<text text-anchor="start" x="700.5" y="-139" font-family="Helvetica,sans-Serif" font-size="10.00">proxsuite/linalg/veg</text>
<text text-anchor="middle" x="751" y="-128" font-family="Helvetica,sans-Serif" font-size="10.00">/internal/macros.hpp</text>
</a>
</g>
</g>
<!-- Node12&#45;&gt;Node13 -->
<g id="edge14" class="edge">
<title>Node12&#45;&gt;Node13</title>
<path fill="none" stroke="#63b8ff" d="M751,-186.8C751,-179.67 751,-170.82 751,-162.56"/>
<polygon fill="#63b8ff" stroke="#63b8ff" points="754.5,-162.68 751,-152.68 747.5,-162.68 754.5,-162.68"/>
</g>
<!-- Node12&#45;&gt;Node16 -->
<g id="edge21" class="edge">
<title>Node12&#45;&gt;Node16</title>
<path fill="none" stroke="#63b8ff" d="M710.82,-186.53C665.86,-170.37 590.8,-143.54 526,-121 495.09,-110.25 460.45,-98.45 432.55,-89.02"/>
<polygon fill="#63b8ff" stroke="#63b8ff" points="433.86,-85.76 423.26,-85.88 431.62,-92.4 433.86,-85.76"/>
</g>
<!-- Node12&#45;&gt;Node18 -->
<g id="edge22" class="edge">
<title>Node12&#45;&gt;Node18</title>
<path fill="none" stroke="#63b8ff" d="M820.34,-189.69C859.28,-181.83 908.1,-169.41 949,-151 970.58,-141.29 971.41,-130.7 993,-121 1032.92,-103.06 1080.37,-90.82 1118.91,-82.95"/>
<polygon fill="#63b8ff" stroke="#63b8ff" points="1119.44,-86.41 1128.57,-81.04 1118.08,-79.55 1119.44,-86.41"/>
</g>
<!-- Node13&#45;&gt;Node6 -->
<g id="edge16" class="edge">
<title>Node13&#45;&gt;Node6</title>
<path fill="none" stroke="#63b8ff" d="M705.64,-120.56C676.12,-111.16 637.41,-98.83 605.98,-88.82"/>
<polygon fill="#63b8ff" stroke="#63b8ff" points="607.23,-85.55 596.64,-85.85 605.1,-92.22 607.23,-85.55"/>
</g>
<!-- Node14 -->
<g id="node14" class="node">
<title>Node14</title>
<g id="a_node14"><a xlink:href="hedley_8ext_8hpp.html" target="_top" xlink:title=" ">
<polygon fill="white" stroke="#666666" points="805.5,-85 630.5,-85 630.5,-55 805.5,-55 805.5,-85"/>
<text text-anchor="start" x="638.5" y="-73" font-family="Helvetica,sans-Serif" font-size="10.00">proxsuite/linalg/veg</text>
<text text-anchor="middle" x="718" y="-62" font-family="Helvetica,sans-Serif" font-size="10.00">/internal/external/hedley.ext.hpp</text>
</a>
</g>
</g>
<!-- Node13&#45;&gt;Node14 -->
<g id="edge15" class="edge">
<title>Node13&#45;&gt;Node14</title>
<path fill="none" stroke="#63b8ff" d="M743.68,-120.8C739.79,-113.26 734.9,-103.78 730.44,-95.13"/>
<polygon fill="#63b8ff" stroke="#63b8ff" points="733.69,-93.79 726,-86.51 727.47,-97 733.69,-93.79"/>
</g>
<!-- Node15 -->
<g id="node15" class="node">
<title>Node15</title>
<g id="a_node15"><a xlink:href="preprocessor_8hpp.html" target="_top" xlink:title=" ">
<polygon fill="white" stroke="#666666" points="966.5,-85 823.5,-85 823.5,-55 966.5,-55 966.5,-85"/>
<text text-anchor="start" x="831.5" y="-73" font-family="Helvetica,sans-Serif" font-size="10.00">proxsuite/linalg/veg</text>
<text text-anchor="middle" x="895" y="-62" font-family="Helvetica,sans-Serif" font-size="10.00">/internal/preprocessor.hpp</text>
</a>
</g>
</g>
<!-- Node13&#45;&gt;Node15 -->
<g id="edge17" class="edge">
<title>Node13&#45;&gt;Node15</title>
<path fill="none" stroke="#63b8ff" d="M783.32,-120.64C803.7,-111.58 830.25,-99.78 852.35,-89.96"/>
<polygon fill="#63b8ff" stroke="#63b8ff" points="853.69,-93.19 861.41,-85.93 850.85,-86.79 853.69,-93.19"/>
</g>
<!-- Node13&#45;&gt;Node16 -->
<g id="edge18" class="edge">
<title>Node13&#45;&gt;Node16</title>
<path fill="none" stroke="#63b8ff" d="M692.06,-124.86C627.1,-113.68 522.56,-95.7 452.35,-83.62"/>
<polygon fill="#63b8ff" stroke="#63b8ff" points="453.33,-80.24 442.88,-81.99 452.15,-87.14 453.33,-80.24"/>
</g>
<!-- Node17 -->
<g id="node17" class="node">
<title>Node17</title>
<g id="a_node17"><a xlink:title=" ">
<polygon fill="#e0e0e0" stroke="#999999" points="1067.5,-79.5 984.5,-79.5 984.5,-60.5 1067.5,-60.5 1067.5,-79.5"/>
<text text-anchor="middle" x="1026" y="-67.5" font-family="Helvetica,sans-Serif" font-size="10.00">initializer_list</text>
</a>
</g>
</g>
<!-- Node13&#45;&gt;Node17 -->
<g id="edge19" class="edge">
<title>Node13&#45;&gt;Node17</title>
<path fill="none" stroke="#63b8ff" d="M809.66,-122.72C854.96,-113.04 919.12,-98.9 975,-85 977.73,-84.32 980.53,-83.6 983.36,-82.87"/>
<polygon fill="#63b8ff" stroke="#63b8ff" points="984.01,-86.32 992.77,-80.36 982.21,-79.55 984.01,-86.32"/>
</g>
<!-- Node13&#45;&gt;Node18 -->
<g id="edge20" class="edge">
<title>Node13&#45;&gt;Node18</title>
<path fill="none" stroke="#63b8ff" d="M809.78,-122.46C812.56,-121.95 815.31,-121.46 818,-121 874.25,-111.38 1027.18,-91.69 1119.13,-80.1"/>
<polygon fill="#63b8ff" stroke="#63b8ff" points="1119.31,-83.6 1128.8,-78.88 1118.44,-76.66 1119.31,-83.6"/>
</g>
<!-- Node21&#45;&gt;Node10 -->
<g id="edge31" class="edge">
<title>Node21&#45;&gt;Node10</title>
<path fill="none" stroke="#63b8ff" d="M974.48,-384.64C990.73,-375.83 1011.76,-364.42 1029.56,-354.77"/>
<polygon fill="#63b8ff" stroke="#63b8ff" points="1031.15,-357.88 1038.28,-350.04 1027.82,-351.73 1031.15,-357.88"/>
</g>
<!-- Node21&#45;&gt;Node11 -->
<g id="edge30" class="edge">
<title>Node21&#45;&gt;Node11</title>
<path fill="none" stroke="#63b8ff" d="M881.18,-384.56C857.67,-376.96 832.31,-365.64 813,-349 796.06,-334.4 784.43,-311.59 777.4,-294.06"/>
<polygon fill="#63b8ff" stroke="#63b8ff" points="780.74,-293 773.96,-284.86 774.18,-295.45 780.74,-293"/>
</g>
<!-- Node21&#45;&gt;Node16 -->
<g id="edge32" class="edge">
<title>Node21&#45;&gt;Node16</title>
<path fill="none" stroke="#63b8ff" d="M876.03,-392.87C757.94,-382.53 532.65,-361.53 498,-349 447.92,-330.89 430.42,-325.24 398,-283 379.17,-258.47 381.87,-247.36 376,-217 367.89,-175.07 369.03,-163.6 372,-121 372.55,-113.08 373.59,-104.51 374.7,-96.73"/>
<polygon fill="#63b8ff" stroke="#63b8ff" points="378.15,-97.3 376.21,-86.88 371.24,-96.23 378.15,-97.3"/>
</g>
<!-- Node21&#45;&gt;Node18 -->
<g id="edge33" class="edge">
<title>Node21&#45;&gt;Node18</title>
<path fill="none" stroke="#63b8ff" d="M1019.88,-393.65C1087.85,-387.16 1183.43,-373.86 1211,-349 1238.57,-324.15 1235,-306.12 1235,-269 1235,-269 1235,-269 1235,-201 1235,-162.69 1217.96,-121.1 1205.33,-95.54"/>
<polygon fill="#63b8ff" stroke="#63b8ff" points="1208.46,-93.95 1200.78,-86.65 1202.23,-97.15 1208.46,-93.95"/>
</g>
<!-- Node22&#45;&gt;Node10 -->
<g id="edge46" class="edge">
<title>Node22&#45;&gt;Node10</title>
<path fill="none" stroke="#63b8ff" d="M873.84,-452.16C935.28,-438.18 1024.93,-417.48 1028,-415 1044.98,-401.27 1054.82,-378.14 1060.21,-360.28"/>
<polygon fill="#63b8ff" stroke="#63b8ff" points="1063.58,-361.22 1062.81,-350.65 1056.82,-359.39 1063.58,-361.22"/>
</g>
<!-- Node22&#45;&gt;Node16 -->
<g id="edge63" class="edge">
<title>Node22&#45;&gt;Node16</title>
<path fill="none" stroke="#63b8ff" d="M760.42,-463.73C626.92,-460.19 300.8,-448.22 265,-415 216.81,-370.28 193.72,-174.45 232,-121 249.04,-97.2 278.07,-84.6 305.86,-77.97"/>
<polygon fill="#63b8ff" stroke="#63b8ff" points="306.29,-81.46 315.35,-75.95 304.84,-74.61 306.29,-81.46"/>
</g>
<!-- Node22&#45;&gt;Node18 -->
<g id="edge66" class="edge">
<title>Node22&#45;&gt;Node18</title>
<path fill="none" stroke="#63b8ff" d="M873.72,-452.77C876.52,-452.17 879.29,-451.58 882,-451 1059.29,-413.25 1273,-516.26 1273,-335 1273,-335 1273,-335 1273,-201 1273,-157.71 1240.24,-116.9 1216.39,-92.93"/>
<polygon fill="#63b8ff" stroke="#63b8ff" points="1219.09,-90.68 1209.48,-86.23 1214.22,-95.7 1219.09,-90.68"/>
</g>
<!-- Node23 -->
<g id="node23" class="node">
<title>Node23</title>
<g id="a_node23"><a xlink:href="primitives_8hpp.html" target="_top" xlink:title=" ">
<polygon fill="white" stroke="#666666" points="968,-349 822,-349 822,-319 968,-319 968,-349"/>
<text text-anchor="start" x="830" y="-337" font-family="Helvetica,sans-Serif" font-size="10.00">proxsuite/linalg/veg</text>
<text text-anchor="middle" x="895" y="-326" font-family="Helvetica,sans-Serif" font-size="10.00">/type_traits/primitives.hpp</text>
</a>
</g>
</g>
<!-- Node22&#45;&gt;Node23 -->
<g id="edge37" class="edge">
<title>Node22&#45;&gt;Node23</title>
<path fill="none" stroke="#63b8ff" d="M825.65,-450.59C838.88,-428.53 864.33,-386.12 880.44,-359.26"/>
<polygon fill="#63b8ff" stroke="#63b8ff" points="883.39,-361.15 885.54,-350.77 877.39,-357.55 883.39,-361.15"/>
</g>
<!-- Node24 -->
<g id="node24" class="node">
<title>Node24</title>
<g id="a_node24"><a xlink:href="terminate_8hpp.html" target="_top" xlink:title=" ">
<polygon fill="white" stroke="#666666" points="1430.5,-151 1301.5,-151 1301.5,-121 1430.5,-121 1430.5,-151"/>
<text text-anchor="start" x="1309.5" y="-139" font-family="Helvetica,sans-Serif" font-size="10.00">proxsuite/linalg/veg</text>
<text text-anchor="middle" x="1366" y="-128" font-family="Helvetica,sans-Serif" font-size="10.00">/internal/terminate.hpp</text>
</a>
</g>
</g>
<!-- Node22&#45;&gt;Node24 -->
<g id="edge42" class="edge">
<title>Node22&#45;&gt;Node24</title>
<path fill="none" stroke="#63b8ff" d="M874,-452.31C876.7,-451.84 879.37,-451.4 882,-451 971.33,-437.46 1216.97,-472.09 1287,-415 1315.77,-391.54 1311,-372.12 1311,-335 1311,-335 1311,-335 1311,-267 1311,-227.37 1332.95,-185.93 1349.12,-160.78"/>
<polygon fill="#63b8ff" stroke="#63b8ff" points="1351.92,-162.89 1354.56,-152.62 1346.1,-159 1351.92,-162.89"/>
</g>
<!-- Node26 -->
<g id="node26" class="node">
<title>Node26</title>
<g id="a_node26"><a xlink:href="ref_8hpp.html" target="_top" xlink:title=" ">
<polygon fill="white" stroke="#666666" points="766.5,-415 653.5,-415 653.5,-385 766.5,-385 766.5,-415"/>
<text text-anchor="start" x="661.5" y="-403" font-family="Helvetica,sans-Serif" font-size="10.00">proxsuite/linalg/veg</text>
<text text-anchor="middle" x="710" y="-392" font-family="Helvetica,sans-Serif" font-size="10.00">/ref.hpp</text>
</a>
</g>
</g>
<!-- Node22&#45;&gt;Node26 -->
<g id="edge47" class="edge">
<title>Node22&#45;&gt;Node26</title>
<path fill="none" stroke="#63b8ff" d="M792.99,-450.64C778.39,-441.91 759.54,-430.63 743.5,-421.04"/>
<polygon fill="#63b8ff" stroke="#63b8ff" points="745.61,-418.22 735.23,-416.09 742.02,-424.23 745.61,-418.22"/>
</g>
<!-- Node31 -->
<g id="node31" class="node">
<title>Node31</title>
<g id="a_node31"><a xlink:title=" ">
<polygon fill="#e0e0e0" stroke="#999999" points="324,-409.5 274,-409.5 274,-390.5 324,-390.5 324,-409.5"/>
<text text-anchor="middle" x="299" y="-397.5" font-family="Helvetica,sans-Serif" font-size="10.00">cstring</text>
</a>
</g>
</g>
<!-- Node22&#45;&gt;Node31 -->
<g id="edge64" class="edge">
<title>Node22&#45;&gt;Node31</title>
<path fill="none" stroke="#63b8ff" d="M760.19,-464.39C668.82,-462.24 484.13,-453.07 333,-415 331.61,-414.65 330.2,-414.25 328.78,-413.82"/>
<polygon fill="#63b8ff" stroke="#63b8ff" points="330.11,-410.58 319.52,-410.5 327.75,-417.17 330.11,-410.58"/>
</g>
<!-- Node32 -->
<g id="node32" class="node">
<title>Node32</title>
<g id="a_node32"><a xlink:title=" ">
<polygon fill="#e0e0e0" stroke="#999999" points="388,-409.5 342,-409.5 342,-390.5 388,-390.5 388,-409.5"/>
<text text-anchor="middle" x="365" y="-397.5" font-family="Helvetica,sans-Serif" font-size="10.00">cstdio</text>
</a>
</g>
</g>
<!-- Node22&#45;&gt;Node32 -->
<g id="edge65" class="edge">
<title>Node22&#45;&gt;Node32</title>
<path fill="none" stroke="#63b8ff" d="M760.18,-462.5C679.51,-457.98 527.62,-445.85 402,-415 400.25,-414.57 398.47,-414.08 396.68,-413.55"/>
<polygon fill="#63b8ff" stroke="#63b8ff" points="397.88,-410.26 387.29,-410.38 395.64,-416.89 397.88,-410.26"/>
</g>
<!-- Node23&#45;&gt;Node11 -->
<g id="edge38" class="edge">
<title>Node23&#45;&gt;Node11</title>
<path fill="none" stroke="#63b8ff" d="M866.72,-318.64C849.21,-309.74 826.5,-298.21 807.38,-288.49"/>
<polygon fill="#63b8ff" stroke="#63b8ff" points="809.03,-285.41 798.53,-284 805.86,-291.65 809.03,-285.41"/>
</g>
<!-- Node23&#45;&gt;Node16 -->
<g id="edge39" class="edge">
<title>Node23&#45;&gt;Node16</title>
<path fill="none" stroke="#63b8ff" d="M821.51,-321.55C784.11,-313.89 738.71,-301.69 701,-283 681.72,-273.44 682.37,-262.37 663,-253 600.5,-222.78 570.95,-252.02 511,-217 497.03,-208.84 431.53,-132.9 398.36,-93.89"/>
<polygon fill="#63b8ff" stroke="#63b8ff" points="401.16,-91.79 392.02,-86.43 395.83,-96.32 401.16,-91.79"/>
</g>
<!-- Node23&#45;&gt;Node18 -->
<g id="edge41" class="edge">
<title>Node23&#45;&gt;Node18</title>
<path fill="none" stroke="#63b8ff" d="M902.32,-318.81C912.4,-300.73 932.25,-269.82 958,-253 1011.43,-218.1 1045.2,-254.27 1097,-217 1140.26,-185.88 1168.98,-128.42 1182.68,-95.63"/>
<polygon fill="#63b8ff" stroke="#63b8ff" points="1185.84,-97.13 1186.33,-86.55 1179.35,-94.52 1185.84,-97.13"/>
</g>
<!-- Node23&#45;&gt;Node20 -->
<g id="edge40" class="edge">
<title>Node23&#45;&gt;Node20</title>
<path fill="none" stroke="#63b8ff" d="M919.01,-318.64C936.42,-308.22 959.89,-294.19 977.43,-283.7"/>
<polygon fill="#63b8ff" stroke="#63b8ff" points="978.89,-286.9 985.68,-278.76 975.3,-280.89 978.89,-286.9"/>
</g>
<!-- Node24&#45;&gt;Node16 -->
<g id="edge43" class="edge">
<title>Node24&#45;&gt;Node16</title>
<path fill="none" stroke="#63b8ff" d="M1301.03,-133.18C1154.24,-128.67 785.81,-115.07 479,-85 470.41,-84.16 461.43,-83.12 452.52,-82"/>
<polygon fill="#63b8ff" stroke="#63b8ff" points="453.19,-78.56 442.82,-80.73 452.28,-85.5 453.19,-78.56"/>
</g>
<!-- Node24&#45;&gt;Node18 -->
<g id="edge45" class="edge">
<title>Node24&#45;&gt;Node18</title>
<path fill="none" stroke="#63b8ff" d="M1326.95,-120.64C1301.85,-111.41 1269.01,-99.33 1242.01,-89.39"/>
<polygon fill="#63b8ff" stroke="#63b8ff" points="1243.23,-86.12 1232.64,-85.95 1240.82,-92.68 1243.23,-86.12"/>
</g>
<!-- Node25 -->
<g id="node25" class="node">
<title>Node25</title>
<g id="a_node25"><a xlink:title=" ">
<polygon fill="#e0e0e0" stroke="#999999" points="1398.5,-79.5 1333.5,-79.5 1333.5,-60.5 1398.5,-60.5 1398.5,-79.5"/>
<text text-anchor="middle" x="1366" y="-67.5" font-family="Helvetica,sans-Serif" font-size="10.00">exception</text>
</a>
</g>
</g>
<!-- Node24&#45;&gt;Node25 -->
<g id="edge44" class="edge">
<title>Node24&#45;&gt;Node25</title>
<path fill="none" stroke="#63b8ff" d="M1366,-120.8C1366,-112.09 1366,-100.81 1366,-91.18"/>
<polygon fill="#63b8ff" stroke="#63b8ff" points="1369.5,-91.36 1366,-81.36 1362.5,-91.36 1369.5,-91.36"/>
</g>
<!-- Node26&#45;&gt;Node10 -->
<g id="edge52" class="edge">
<title>Node26&#45;&gt;Node10</title>
<path fill="none" stroke="#63b8ff" d="M766.8,-388.79C822.85,-378.71 909.41,-363.15 975.04,-351.35"/>
<polygon fill="#63b8ff" stroke="#63b8ff" points="975.5,-354.83 984.72,-349.61 974.26,-347.94 975.5,-354.83"/>
</g>
<!-- Node26&#45;&gt;Node16 -->
<g id="edge61" class="edge">
<title>Node26&#45;&gt;Node16</title>
<path fill="none" stroke="#63b8ff" d="M653.26,-398.99C562.16,-397.74 389.1,-389.87 346,-349 308.73,-313.66 284.34,-166.59 308,-121 314.35,-108.77 325.21,-98.9 336.56,-91.26"/>
<polygon fill="#63b8ff" stroke="#63b8ff" points="338.16,-94.39 344.83,-86.16 334.48,-88.43 338.16,-94.39"/>
</g>
<!-- Node26&#45;&gt;Node18 -->
<g id="edge62" class="edge">
<title>Node26&#45;&gt;Node18</title>
<path fill="none" stroke="#63b8ff" d="M766.92,-394C883.13,-383.6 1138.16,-359.72 1154,-349 1187.43,-326.38 1197,-309.37 1197,-269 1197,-269 1197,-269 1197,-201 1197,-164.73 1195.03,-122.82 1193.57,-96.61"/>
<polygon fill="#63b8ff" stroke="#63b8ff" points="1197.08,-96.71 1193,-86.93 1190.09,-97.12 1197.08,-96.71"/>
</g>
<!-- Node27 -->
<g id="node27" class="node">
<title>Node27</title>
<g id="a_node27"><a xlink:href="tags_8hpp.html" target="_top" xlink:title=" ">
<polygon fill="white" stroke="#666666" points="624.5,-349 507.5,-349 507.5,-319 624.5,-319 624.5,-349"/>
<text text-anchor="start" x="515.5" y="-337" font-family="Helvetica,sans-Serif" font-size="10.00">proxsuite/linalg/veg</text>
<text text-anchor="middle" x="566" y="-326" font-family="Helvetica,sans-Serif" font-size="10.00">/type_traits/tags.hpp</text>
</a>
</g>
</g>
<!-- Node26&#45;&gt;Node27 -->
<g id="edge48" class="edge">
<title>Node26&#45;&gt;Node27</title>
<path fill="none" stroke="#63b8ff" d="M677.68,-384.64C657.3,-375.58 630.75,-363.78 608.65,-353.96"/>
<polygon fill="#63b8ff" stroke="#63b8ff" points="610.15,-350.79 599.59,-349.93 607.31,-357.19 610.15,-350.79"/>
</g>
<!-- Node28 -->
<g id="node28" class="node">
<title>Node28</title>
<g id="a_node28"><a xlink:href="address_8hpp.html" target="_top" xlink:title=" ">
<polygon fill="white" stroke="#666666" points="765.5,-349 642.5,-349 642.5,-319 765.5,-319 765.5,-349"/>
<text text-anchor="start" x="650.5" y="-337" font-family="Helvetica,sans-Serif" font-size="10.00">proxsuite/linalg/veg</text>
<text text-anchor="middle" x="704" y="-326" font-family="Helvetica,sans-Serif" font-size="10.00">/memory/address.hpp</text>
</a>
</g>
</g>
<!-- Node26&#45;&gt;Node28 -->
<g id="edge53" class="edge">
<title>Node26&#45;&gt;Node28</title>
<path fill="none" stroke="#63b8ff" d="M708.67,-384.8C708,-377.67 707.17,-368.82 706.4,-360.56"/>
<polygon fill="#63b8ff" stroke="#63b8ff" points="709.89,-360.3 705.47,-350.67 702.92,-360.95 709.89,-360.3"/>
</g>
<!-- Node27&#45;&gt;Node11 -->
<g id="edge49" class="edge">
<title>Node27&#45;&gt;Node11</title>
<path fill="none" stroke="#63b8ff" d="M611.81,-318.56C641.62,-309.16 680.72,-296.83 712.46,-286.82"/>
<polygon fill="#63b8ff" stroke="#63b8ff" points="713.43,-290.19 721.91,-283.85 711.32,-283.51 713.43,-290.19"/>
</g>
<!-- Node27&#45;&gt;Node16 -->
<g id="edge50" class="edge">
<title>Node27&#45;&gt;Node16</title>
<path fill="none" stroke="#63b8ff" d="M507.19,-325.51C477.95,-318.89 444.21,-306.44 422,-283 373.35,-231.65 373.01,-141.1 376.23,-96.83"/>
<polygon fill="#63b8ff" stroke="#63b8ff" points="379.71,-97.17 377.09,-86.91 372.74,-96.57 379.71,-97.17"/>
</g>
<!-- Node27&#45;&gt;Node18 -->
<g id="edge51" class="edge">
<title>Node27&#45;&gt;Node18</title>
<path fill="none" stroke="#63b8ff" d="M565.36,-318.77C565.38,-300.64 568.4,-269.68 587,-253 667.97,-180.41 724.32,-246.42 829,-217 901.48,-196.63 918.54,-186.37 985,-151 1006.55,-139.53 1008.91,-131.39 1031,-121 1059.42,-107.64 1092.3,-96.69 1120.9,-88.49"/>
<polygon fill="#63b8ff" stroke="#63b8ff" points="1121.5,-91.96 1130.18,-85.89 1119.61,-85.22 1121.5,-91.96"/>
</g>
<!-- Node28&#45;&gt;Node11 -->
<g id="edge54" class="edge">
<title>Node28&#45;&gt;Node11</title>
<path fill="none" stroke="#63b8ff" d="M718.43,-318.8C726.67,-310.68 737.2,-300.31 746.51,-291.15"/>
<polygon fill="#63b8ff" stroke="#63b8ff" points="748.87,-293.74 753.54,-284.23 743.95,-288.75 748.87,-293.74"/>
</g>
<!-- Node28&#45;&gt;Node16 -->
<g id="edge58" class="edge">
<title>Node28&#45;&gt;Node16</title>
<path fill="none" stroke="#63b8ff" d="M650.67,-318.51C596.98,-301.65 514.54,-269.23 460,-217 423.64,-182.18 399.34,-127.41 387.46,-95.78"/>
<polygon fill="#63b8ff" stroke="#63b8ff" points="390.86,-94.89 384.17,-86.68 384.28,-97.28 390.86,-94.89"/>
</g>
<!-- Node28&#45;&gt;Node18 -->
<g id="edge60" class="edge">
<title>Node28&#45;&gt;Node18</title>
<path fill="none" stroke="#63b8ff" d="M755.56,-318.6C786.51,-309.45 826.46,-296.78 861,-283 889.43,-271.66 895.36,-266.15 923,-253 957.11,-236.77 967.67,-236.54 1000,-217 1063.82,-178.42 1131.76,-122.86 1167.21,-92.62"/>
<polygon fill="#63b8ff" stroke="#63b8ff" points="1169.45,-95.3 1174.76,-86.13 1164.89,-89.99 1169.45,-95.3"/>
</g>
<!-- Node29 -->
<g id="node29" class="node">
<title>Node29</title>
<g id="a_node29"><a xlink:href="std_8hpp.html" target="_top" xlink:title=" ">
<polygon fill="white" stroke="#666666" points="940.5,-151 827.5,-151 827.5,-121 940.5,-121 940.5,-151"/>
<text text-anchor="start" x="835.5" y="-139" font-family="Helvetica,sans-Serif" font-size="10.00">proxsuite/linalg/veg</text>
<text text-anchor="middle" x="884" y="-128" font-family="Helvetica,sans-Serif" font-size="10.00">/internal/std.hpp</text>
</a>
</g>
</g>
<!-- Node28&#45;&gt;Node29 -->
<g id="edge55" class="edge">
<title>Node28&#45;&gt;Node29</title>
<path fill="none" stroke="#63b8ff" d="M765.99,-321.67C790.62,-314.34 817.45,-302.39 836,-283 868.05,-249.49 878.71,-194.19 882.25,-162.13"/>
<polygon fill="#63b8ff" stroke="#63b8ff" points="885.69,-162.86 883.14,-152.58 878.72,-162.21 885.69,-162.86"/>
</g>
<!-- Node30 -->
<g id="node30" class="node">
<title>Node30</title>
<g id="a_node30"><a xlink:title=" ">
<polygon fill="#e0e0e0" stroke="#999999" points="654,-277.5 596,-277.5 596,-258.5 654,-258.5 654,-277.5"/>
<text text-anchor="middle" x="625" y="-265.5" font-family="Helvetica,sans-Serif" font-size="10.00">memory</text>
</a>
</g>
</g>
<!-- Node28&#45;&gt;Node30 -->
<g id="edge59" class="edge">
<title>Node28&#45;&gt;Node30</title>
<path fill="none" stroke="#63b8ff" d="M686.47,-318.8C674.15,-308.82 657.66,-295.46 644.86,-285.09"/>
<polygon fill="#63b8ff" stroke="#63b8ff" points="647.07,-282.37 637.09,-278.8 642.66,-287.81 647.07,-282.37"/>
</g>
<!-- Node29&#45;&gt;Node7 -->
<g id="edge56" class="edge">
<title>Node29&#45;&gt;Node7</title>
<path fill="none" stroke="#63b8ff" d="M940.69,-123.88C994.22,-112.81 1067.55,-95.94 1076,-85 1084.15,-74.45 1084.43,-65.33 1076,-55 1053.48,-27.42 950.31,-16.48 894.35,-12.52"/>
<polygon fill="#63b8ff" stroke="#63b8ff" points="894.89,-9.05 884.68,-11.88 894.43,-16.04 894.89,-9.05"/>
</g>
<!-- Node29&#45;&gt;Node17 -->
<g id="edge57" class="edge">
<title>Node29&#45;&gt;Node17</title>
<path fill="none" stroke="#63b8ff" d="M915.87,-120.64C939.73,-109.88 972.16,-95.27 995.65,-84.68"/>
<polygon fill="#63b8ff" stroke="#63b8ff" points="997,-87.91 1004.68,-80.61 994.13,-81.53 997,-87.91"/>
</g>
<!-- Node35 -->
<g id="node35" class="node">
<title>Node35</title>
<g id="a_node35"><a xlink:title=" ">
<polygon fill="#e0e0e0" stroke="#999999" points="1692,-541.5 1576,-541.5 1576,-522.5 1692,-522.5 1692,-541.5"/>
<text text-anchor="middle" x="1634" y="-529.5" font-family="Helvetica,sans-Serif" font-size="10.00">proxsuite/config.hpp</text>
</a>
</g>
</g>
<!-- Node34&#45;&gt;Node35 -->
<g id="edge72" class="edge">
<title>Node34&#45;&gt;Node35</title>
<path fill="none" stroke="#63b8ff" d="M1645.19,-588.1C1643.35,-579.03 1640.43,-564.64 1638.03,-552.85"/>
<polygon fill="#63b8ff" stroke="#63b8ff" points="1641.51,-552.41 1636.09,-543.31 1634.65,-553.8 1641.51,-552.41"/>
</g>
<!-- Node36 -->
<g id="node36" class="node">
<title>Node36</title>
<g id="a_node36"><a xlink:title=" ">
<polygon fill="#e0e0e0" stroke="#999999" points="1754,-541.5 1710,-541.5 1710,-522.5 1754,-522.5 1754,-541.5"/>
<text text-anchor="middle" x="1732" y="-529.5" font-family="Helvetica,sans-Serif" font-size="10.00">limits</text>
</a>
</g>
</g>
<!-- Node34&#45;&gt;Node36 -->
<g id="edge73" class="edge">
<title>Node34&#45;&gt;Node36</title>
<path fill="none" stroke="#63b8ff" d="M1658.82,-588.1C1672.39,-577.88 1694.91,-560.93 1711.39,-548.52"/>
<polygon fill="#63b8ff" stroke="#63b8ff" points="1713.19,-551.54 1719.07,-542.73 1708.98,-545.95 1713.19,-551.54"/>
</g>
</g>
</svg>
