<?xml version="1.0" encoding="UTF-8" standalone="no"?>
<!DOCTYPE svg PUBLIC "-//W3C//DTD SVG 1.1//EN"
 "http://www.w3.org/Graphics/SVG/1.1/DTD/svg11.dtd">
<!-- Generated by graphviz version 5.0.0 (20220707.2338)
 -->
<!-- Title: include/proxsuite/linalg/veg/internal/narrow.hpp Pages: 1 -->
<svg width="1449pt" height="698pt"
 viewBox="0.00 0.00 1449.00 698.00" xmlns="http://www.w3.org/2000/svg" xmlns:xlink="http://www.w3.org/1999/xlink">
<g id="graph0" class="graph" transform="scale(1 1) rotate(0) translate(4 694)">
<title>include/proxsuite/linalg/veg/internal/narrow.hpp</title>
<!-- Node1 -->
<g id="node1" class="node">
<title>Node1</title>
<g id="a_node1"><a xlink:title=" ">
<polygon fill="#bfbfbf" stroke="black" points="438.5,-659.5 438.5,-689.5 573.5,-689.5 573.5,-659.5 438.5,-659.5"/>
<text text-anchor="start" x="446.5" y="-677.5" font-family="Helvetica,sans-Serif" font-size="10.00">include/proxsuite/linalg</text>
<text text-anchor="middle" x="506" y="-666.5" font-family="Helvetica,sans-Serif" font-size="10.00">/veg/internal/narrow.hpp</text>
</a>
</g>
</g>
<!-- Node2 -->
<g id="node2" class="node">
<title>Node2</title>
<g id="a_node2"><a xlink:href="assert_8hpp.html" target="_top" xlink:title=" ">
<polygon fill="none" stroke="black" points="449.5,-592.5 449.5,-622.5 562.5,-622.5 562.5,-592.5 449.5,-592.5"/>
<text text-anchor="start" x="457.5" y="-610.5" font-family="Helvetica,sans-Serif" font-size="10.00">proxsuite/linalg/veg</text>
<text text-anchor="middle" x="506" y="-599.5" font-family="Helvetica,sans-Serif" font-size="10.00">/util/assert.hpp</text>
</a>
</g>
</g>
<!-- Node1&#45;&gt;Node2 -->
<g id="edge1" class="edge">
<title>Node1&#45;&gt;Node2</title>
<path fill="none" stroke="midnightblue" d="M506,-659.4C506,-651.64 506,-641.81 506,-632.86"/>
<polygon fill="midnightblue" stroke="midnightblue" points="509.5,-632.58 506,-622.58 502.5,-632.58 509.5,-632.58"/>
</g>
<!-- Node14 -->
<g id="node14" class="node">
<title>Node14</title>
<g id="a_node14"><a xlink:href="prologue_8hpp.html" target="_top" xlink:title=" ">
<polygon fill="none" stroke="black" points="295,-56.5 295,-86.5 419,-86.5 419,-56.5 295,-56.5"/>
<text text-anchor="start" x="303" y="-74.5" font-family="Helvetica,sans-Serif" font-size="10.00">proxsuite/linalg/veg</text>
<text text-anchor="middle" x="357" y="-63.5" font-family="Helvetica,sans-Serif" font-size="10.00">/internal/prologue.hpp</text>
</a>
</g>
</g>
<!-- Node1&#45;&gt;Node14 -->
<g id="edge67" class="edge">
<title>Node1&#45;&gt;Node14</title>
<path fill="none" stroke="midnightblue" d="M438.28,-669.98C300.4,-660.96 0,-631.04 0,-541.5 0,-541.5 0,-541.5 0,-204.5 0,-165.08 3.87,-147.18 35,-123 54.42,-107.92 195.89,-90.04 284.73,-80.11"/>
<polygon fill="midnightblue" stroke="midnightblue" points="285.21,-83.58 294.76,-79 284.44,-76.62 285.21,-83.58"/>
</g>
<!-- Node16 -->
<g id="node16" class="node">
<title>Node16</title>
<g id="a_node16"><a xlink:href="epilogue_8hpp.html" target="_top" xlink:title=" ">
<polygon fill="none" stroke="black" points="1113.5,-56.5 1113.5,-86.5 1236.5,-86.5 1236.5,-56.5 1113.5,-56.5"/>
<text text-anchor="start" x="1121.5" y="-74.5" font-family="Helvetica,sans-Serif" font-size="10.00">proxsuite/linalg/veg</text>
<text text-anchor="middle" x="1175" y="-63.5" font-family="Helvetica,sans-Serif" font-size="10.00">/internal/epilogue.hpp</text>
</a>
</g>
</g>
<!-- Node1&#45;&gt;Node16 -->
<g id="edge68" class="edge">
<title>Node1&#45;&gt;Node16</title>
<path fill="none" stroke="midnightblue" d="M573.62,-671.07C788.39,-662.48 1441,-629.15 1441,-541.5 1441,-541.5 1441,-541.5 1441,-204.5 1441,-117.66 1325.85,-87.95 1247.07,-77.79"/>
<polygon fill="midnightblue" stroke="midnightblue" points="1247.04,-74.26 1236.69,-76.53 1246.2,-81.21 1247.04,-74.26"/>
</g>
<!-- Node3 -->
<g id="node3" class="node">
<title>Node3</title>
<g id="a_node3"><a xlink:href="assert__impl_8hpp.html" target="_top" xlink:title=" ">
<polygon fill="none" stroke="black" points="437,-525.5 437,-555.5 575,-555.5 575,-525.5 437,-525.5"/>
<text text-anchor="start" x="445" y="-543.5" font-family="Helvetica,sans-Serif" font-size="10.00">proxsuite/linalg/veg</text>
<text text-anchor="middle" x="506" y="-532.5" font-family="Helvetica,sans-Serif" font-size="10.00">/internal/assert_impl.hpp</text>
</a>
</g>
</g>
<!-- Node2&#45;&gt;Node3 -->
<g id="edge2" class="edge">
<title>Node2&#45;&gt;Node3</title>
<path fill="none" stroke="midnightblue" d="M506,-592.4C506,-584.64 506,-574.81 506,-565.86"/>
<polygon fill="midnightblue" stroke="midnightblue" points="509.5,-565.58 506,-555.58 502.5,-565.58 509.5,-565.58"/>
</g>
<!-- Node4 -->
<g id="node4" class="node">
<title>Node4</title>
<g id="a_node4"><a xlink:href="typedefs_8hpp.html" target="_top" xlink:title=" ">
<polygon fill="none" stroke="black" points="477,-56.5 477,-86.5 601,-86.5 601,-56.5 477,-56.5"/>
<text text-anchor="start" x="485" y="-74.5" font-family="Helvetica,sans-Serif" font-size="10.00">proxsuite/linalg/veg</text>
<text text-anchor="middle" x="539" y="-63.5" font-family="Helvetica,sans-Serif" font-size="10.00">/internal/typedefs.hpp</text>
</a>
</g>
</g>
<!-- Node3&#45;&gt;Node4 -->
<g id="edge3" class="edge">
<title>Node3&#45;&gt;Node4</title>
<path fill="none" stroke="midnightblue" d="M575.23,-527.18C711.68,-501.31 1007.09,-436.91 1064,-355 1071.86,-343.69 1072.45,-334.88 1064,-324 1007.31,-250.99 737.44,-272.97 661,-221 616.52,-190.76 625,-163.84 590,-123 581.38,-112.95 571.13,-102.54 562.09,-93.81"/>
<polygon fill="midnightblue" stroke="midnightblue" points="564.5,-91.26 554.84,-86.9 559.67,-96.33 564.5,-91.26"/>
</g>
<!-- Node7 -->
<g id="node7" class="node">
<title>Node7</title>
<g id="a_node7"><a xlink:href="defer_8hpp.html" target="_top" xlink:title=" ">
<polygon fill="none" stroke="black" points="515.5,-458.5 515.5,-488.5 628.5,-488.5 628.5,-458.5 515.5,-458.5"/>
<text text-anchor="start" x="523.5" y="-476.5" font-family="Helvetica,sans-Serif" font-size="10.00">proxsuite/linalg/veg</text>
<text text-anchor="middle" x="572" y="-465.5" font-family="Helvetica,sans-Serif" font-size="10.00">/util/defer.hpp</text>
</a>
</g>
</g>
<!-- Node3&#45;&gt;Node7 -->
<g id="edge6" class="edge">
<title>Node3&#45;&gt;Node7</title>
<path fill="none" stroke="midnightblue" d="M520.32,-525.4C529.14,-516.71 540.62,-505.4 550.52,-495.66"/>
<polygon fill="midnightblue" stroke="midnightblue" points="553.04,-498.09 557.71,-488.58 548.13,-493.1 553.04,-498.09"/>
</g>
<!-- Node3&#45;&gt;Node14 -->
<g id="edge64" class="edge">
<title>Node3&#45;&gt;Node14</title>
<path fill="none" stroke="midnightblue" d="M436.94,-534.43C306.76,-522.97 38,-489.39 38,-407.5 38,-407.5 38,-407.5 38,-204.5 38,-167.31 29.89,-148.47 57,-123 73.44,-107.56 201.49,-90.24 284.9,-80.42"/>
<polygon fill="midnightblue" stroke="midnightblue" points="285.31,-83.9 294.84,-79.27 284.5,-76.95 285.31,-83.9"/>
</g>
<!-- Node3&#45;&gt;Node16 -->
<g id="edge66" class="edge">
<title>Node3&#45;&gt;Node16</title>
<path fill="none" stroke="midnightblue" d="M575.27,-536.59C785.67,-526.83 1403,-491.07 1403,-407.5 1403,-407.5 1403,-407.5 1403,-204.5 1403,-131.19 1313.63,-97.94 1246.8,-83.32"/>
<polygon fill="midnightblue" stroke="midnightblue" points="1247.2,-79.83 1236.7,-81.21 1245.77,-86.68 1247.2,-79.83"/>
</g>
<!-- Node19 -->
<g id="node19" class="node">
<title>Node19</title>
<g id="a_node19"><a xlink:href="internal_2dbg_8hpp.html" target="_top" xlink:title=" ">
<polygon fill="none" stroke="black" points="372.5,-458.5 372.5,-488.5 485.5,-488.5 485.5,-458.5 372.5,-458.5"/>
<text text-anchor="start" x="380.5" y="-476.5" font-family="Helvetica,sans-Serif" font-size="10.00">proxsuite/linalg/veg</text>
<text text-anchor="middle" x="429" y="-465.5" font-family="Helvetica,sans-Serif" font-size="10.00">/internal/dbg.hpp</text>
</a>
</g>
</g>
<!-- Node3&#45;&gt;Node19 -->
<g id="edge33" class="edge">
<title>Node3&#45;&gt;Node19</title>
<path fill="none" stroke="midnightblue" d="M489.29,-525.4C478.8,-516.54 465.08,-504.96 453.39,-495.09"/>
<polygon fill="midnightblue" stroke="midnightblue" points="455.57,-492.35 445.68,-488.58 451.06,-497.7 455.57,-492.35"/>
</g>
<!-- Node30 -->
<g id="node30" class="node">
<title>Node30</title>
<g id="a_node30"><a xlink:title=" ">
<polygon fill="none" stroke="#bfbfbf" points="302,-464 302,-483 354,-483 354,-464 302,-464"/>
<text text-anchor="middle" x="328" y="-471" font-family="Helvetica,sans-Serif" font-size="10.00">cassert</text>
</a>
</g>
</g>
<!-- Node3&#45;&gt;Node30 -->
<g id="edge65" class="edge">
<title>Node3&#45;&gt;Node30</title>
<path fill="none" stroke="midnightblue" d="M464.49,-525.49C435.83,-515.67 396.93,-502.01 363,-489 361.35,-488.37 359.67,-487.71 357.97,-487.04"/>
<polygon fill="midnightblue" stroke="midnightblue" points="358.87,-483.63 348.28,-483.12 356.24,-490.11 358.87,-483.63"/>
</g>
<!-- Node5 -->
<g id="node5" class="node">
<title>Node5</title>
<g id="a_node5"><a xlink:title=" ">
<polygon fill="none" stroke="#bfbfbf" points="822,-0.5 822,-19.5 872,-19.5 872,-0.5 822,-0.5"/>
<text text-anchor="middle" x="847" y="-7.5" font-family="Helvetica,sans-Serif" font-size="10.00">cstdint</text>
</a>
</g>
</g>
<!-- Node4&#45;&gt;Node5 -->
<g id="edge4" class="edge">
<title>Node4&#45;&gt;Node5</title>
<path fill="none" stroke="midnightblue" d="M601.04,-57.96C604.41,-57.3 607.75,-56.64 611,-56 682.2,-42.04 765.6,-26.28 811.75,-17.6"/>
<polygon fill="midnightblue" stroke="midnightblue" points="812.65,-21 821.84,-15.71 811.36,-14.12 812.65,-21"/>
</g>
<!-- Node6 -->
<g id="node6" class="node">
<title>Node6</title>
<g id="a_node6"><a xlink:title=" ">
<polygon fill="none" stroke="#bfbfbf" points="512.5,-0.5 512.5,-19.5 565.5,-19.5 565.5,-0.5 512.5,-0.5"/>
<text text-anchor="middle" x="539" y="-7.5" font-family="Helvetica,sans-Serif" font-size="10.00">cstddef</text>
</a>
</g>
</g>
<!-- Node4&#45;&gt;Node6 -->
<g id="edge5" class="edge">
<title>Node4&#45;&gt;Node6</title>
<path fill="none" stroke="midnightblue" d="M539,-56.4C539,-48.47 539,-38.46 539,-29.86"/>
<polygon fill="midnightblue" stroke="midnightblue" points="542.5,-29.66 539,-19.66 535.5,-29.66 542.5,-29.66"/>
</g>
<!-- Node8 -->
<g id="node8" class="node">
<title>Node8</title>
<g id="a_node8"><a xlink:href="constructible_8hpp.html" target="_top" xlink:title=" ">
<polygon fill="none" stroke="black" points="492.5,-324.5 492.5,-354.5 651.5,-354.5 651.5,-324.5 492.5,-324.5"/>
<text text-anchor="start" x="500.5" y="-342.5" font-family="Helvetica,sans-Serif" font-size="10.00">proxsuite/linalg/veg</text>
<text text-anchor="middle" x="572" y="-331.5" font-family="Helvetica,sans-Serif" font-size="10.00">/type_traits/constructible.hpp</text>
</a>
</g>
</g>
<!-- Node7&#45;&gt;Node8 -->
<g id="edge7" class="edge">
<title>Node7&#45;&gt;Node8</title>
<path fill="none" stroke="midnightblue" d="M572,-458.37C572,-436.04 572,-392.31 572,-364.85"/>
<polygon fill="midnightblue" stroke="midnightblue" points="575.5,-364.52 572,-354.52 568.5,-364.52 575.5,-364.52"/>
</g>
<!-- Node7&#45;&gt;Node14 -->
<g id="edge31" class="edge">
<title>Node7&#45;&gt;Node14</title>
<path fill="none" stroke="midnightblue" d="M566.27,-458.41C557.92,-439.79 540.57,-407.43 515,-391 440.49,-343.13 375.69,-423.05 319,-355 255.34,-278.58 315.06,-148.02 343.67,-95.44"/>
<polygon fill="midnightblue" stroke="midnightblue" points="346.81,-97 348.61,-86.56 340.69,-93.6 346.81,-97"/>
</g>
<!-- Node7&#45;&gt;Node16 -->
<g id="edge32" class="edge">
<title>Node7&#45;&gt;Node16</title>
<path fill="none" stroke="midnightblue" d="M628.7,-472.25C791.3,-471.03 1250.87,-463.87 1303,-422 1332.44,-398.35 1327,-378.26 1327,-340.5 1327,-340.5 1327,-340.5 1327,-204.5 1327,-166.74 1328.48,-150.87 1303,-123 1288.04,-106.64 1267.1,-95.5 1246.49,-87.96"/>
<polygon fill="midnightblue" stroke="midnightblue" points="1247.34,-84.55 1236.75,-84.63 1245.08,-91.17 1247.34,-84.55"/>
</g>
<!-- Node18 -->
<g id="node18" class="node">
<title>Node18</title>
<g id="a_node18"><a xlink:href="invocable_8hpp.html" target="_top" xlink:title=" ">
<polygon fill="none" stroke="black" points="731.5,-391.5 731.5,-421.5 874.5,-421.5 874.5,-391.5 731.5,-391.5"/>
<text text-anchor="start" x="739.5" y="-409.5" font-family="Helvetica,sans-Serif" font-size="10.00">proxsuite/linalg/veg</text>
<text text-anchor="middle" x="803" y="-398.5" font-family="Helvetica,sans-Serif" font-size="10.00">/type_traits/invocable.hpp</text>
</a>
</g>
</g>
<!-- Node7&#45;&gt;Node18 -->
<g id="edge26" class="edge">
<title>Node7&#45;&gt;Node18</title>
<path fill="none" stroke="midnightblue" d="M621.84,-458.48C657.39,-448.47 705.37,-434.97 743.02,-424.38"/>
<polygon fill="midnightblue" stroke="midnightblue" points="744.17,-427.69 752.85,-421.61 742.28,-420.95 744.17,-427.69"/>
</g>
<!-- Node9 -->
<g id="node9" class="node">
<title>Node9</title>
<g id="a_node9"><a xlink:href="veg_2type__traits_2core_8hpp.html" target="_top" xlink:title=" ">
<polygon fill="none" stroke="black" points="606.5,-257.5 606.5,-287.5 723.5,-287.5 723.5,-257.5 606.5,-257.5"/>
<text text-anchor="start" x="614.5" y="-275.5" font-family="Helvetica,sans-Serif" font-size="10.00">proxsuite/linalg/veg</text>
<text text-anchor="middle" x="665" y="-264.5" font-family="Helvetica,sans-Serif" font-size="10.00">/type_traits/core.hpp</text>
</a>
</g>
</g>
<!-- Node8&#45;&gt;Node9 -->
<g id="edge8" class="edge">
<title>Node8&#45;&gt;Node9</title>
<path fill="none" stroke="midnightblue" d="M592.18,-324.4C605.1,-315.37 622.06,-303.51 636.36,-293.52"/>
<polygon fill="midnightblue" stroke="midnightblue" points="638.67,-296.17 644.86,-287.58 634.66,-290.44 638.67,-296.17"/>
</g>
<!-- Node8&#45;&gt;Node14 -->
<g id="edge23" class="edge">
<title>Node8&#45;&gt;Node14</title>
<path fill="none" stroke="midnightblue" d="M549.46,-324.31C505.21,-296.29 410.37,-235.32 400,-221 372.54,-183.08 362.54,-127.89 358.95,-96.57"/>
<polygon fill="midnightblue" stroke="midnightblue" points="362.43,-96.15 357.93,-86.56 355.46,-96.86 362.43,-96.15"/>
</g>
<!-- Node8&#45;&gt;Node16 -->
<g id="edge25" class="edge">
<title>Node8&#45;&gt;Node16</title>
<path fill="none" stroke="midnightblue" d="M639.3,-324.47C719.9,-306.35 857.93,-271.08 969,-221 1020.15,-197.94 1030.47,-186.79 1076,-154 1102.83,-134.68 1131.86,-110.34 1151.5,-93.31"/>
<polygon fill="midnightblue" stroke="midnightblue" points="1153.81,-95.93 1159.05,-86.72 1149.21,-90.66 1153.81,-95.93"/>
</g>
<!-- Node17 -->
<g id="node17" class="node">
<title>Node17</title>
<g id="a_node17"><a xlink:title=" ">
<polygon fill="none" stroke="#bfbfbf" points="366.5,-263 366.5,-282 435.5,-282 435.5,-263 366.5,-263"/>
<text text-anchor="middle" x="401" y="-270" font-family="Helvetica,sans-Serif" font-size="10.00">type_traits</text>
</a>
</g>
</g>
<!-- Node8&#45;&gt;Node17 -->
<g id="edge24" class="edge">
<title>Node8&#45;&gt;Node17</title>
<path fill="none" stroke="midnightblue" d="M534.9,-324.4C504.49,-312.84 461.92,-296.66 433,-285.66"/>
<polygon fill="midnightblue" stroke="midnightblue" points="433.97,-282.29 423.38,-282.01 431.48,-288.83 433.97,-282.29"/>
</g>
<!-- Node9&#45;&gt;Node4 -->
<g id="edge9" class="edge">
<title>Node9&#45;&gt;Node4</title>
<path fill="none" stroke="midnightblue" d="M653.95,-257.17C646.4,-247.19 636.3,-233.5 628,-221 599.2,-177.62 568.62,-124.94 551.86,-95.42"/>
<polygon fill="midnightblue" stroke="midnightblue" points="554.89,-93.67 546.92,-86.69 548.8,-97.12 554.89,-93.67"/>
</g>
<!-- Node10 -->
<g id="node10" class="node">
<title>Node10</title>
<g id="a_node10"><a xlink:href="integer__seq_8hpp.html" target="_top" xlink:title=" ">
<polygon fill="none" stroke="black" points="670,-190.5 670,-220.5 808,-220.5 808,-190.5 670,-190.5"/>
<text text-anchor="start" x="678" y="-208.5" font-family="Helvetica,sans-Serif" font-size="10.00">proxsuite/linalg/veg</text>
<text text-anchor="middle" x="739" y="-197.5" font-family="Helvetica,sans-Serif" font-size="10.00">/internal/integer_seq.hpp</text>
</a>
</g>
</g>
<!-- Node9&#45;&gt;Node10 -->
<g id="edge10" class="edge">
<title>Node9&#45;&gt;Node10</title>
<path fill="none" stroke="midnightblue" d="M681.06,-257.4C691.04,-248.62 704.07,-237.18 715.24,-227.37"/>
<polygon fill="midnightblue" stroke="midnightblue" points="717.77,-229.81 722.97,-220.58 713.15,-224.55 717.77,-229.81"/>
</g>
<!-- Node9&#45;&gt;Node14 -->
<g id="edge21" class="edge">
<title>Node9&#45;&gt;Node14</title>
<path fill="none" stroke="midnightblue" d="M647.16,-257.44C605.68,-224.86 503.4,-145.29 466,-123 445.58,-110.83 421.75,-99.49 401.58,-90.65"/>
<polygon fill="midnightblue" stroke="midnightblue" points="402.87,-87.4 392.3,-86.65 400.1,-93.82 402.87,-87.4"/>
</g>
<!-- Node9&#45;&gt;Node16 -->
<g id="edge22" class="edge">
<title>Node9&#45;&gt;Node16</title>
<path fill="none" stroke="midnightblue" d="M723.65,-265.98C777.42,-259.57 858.54,-246.43 925,-221 1002.88,-191.2 1013.58,-166.04 1085,-123 1102.87,-112.23 1123.1,-100.81 1139.85,-91.56"/>
<polygon fill="midnightblue" stroke="midnightblue" points="1141.68,-94.55 1148.76,-86.66 1138.31,-88.41 1141.68,-94.55"/>
</g>
<!-- Node10&#45;&gt;Node4 -->
<g id="edge11" class="edge">
<title>Node10&#45;&gt;Node4</title>
<path fill="none" stroke="midnightblue" d="M727.37,-190.19C712.39,-172.51 684.83,-142.38 656,-123 636.1,-109.62 612.07,-98.52 590.98,-90.16"/>
<polygon fill="midnightblue" stroke="midnightblue" points="592.12,-86.85 581.53,-86.52 589.6,-93.38 592.12,-86.85"/>
</g>
<!-- Node11 -->
<g id="node11" class="node">
<title>Node11</title>
<g id="a_node11"><a xlink:href="macros_8hpp.html" target="_top" xlink:title=" ">
<polygon fill="none" stroke="black" points="708.5,-123.5 708.5,-153.5 825.5,-153.5 825.5,-123.5 708.5,-123.5"/>
<text text-anchor="start" x="716.5" y="-141.5" font-family="Helvetica,sans-Serif" font-size="10.00">proxsuite/linalg/veg</text>
<text text-anchor="middle" x="767" y="-130.5" font-family="Helvetica,sans-Serif" font-size="10.00">/internal/macros.hpp</text>
</a>
</g>
</g>
<!-- Node10&#45;&gt;Node11 -->
<g id="edge12" class="edge">
<title>Node10&#45;&gt;Node11</title>
<path fill="none" stroke="midnightblue" d="M745.08,-190.4C748.52,-182.39 752.93,-172.16 756.89,-162.98"/>
<polygon fill="midnightblue" stroke="midnightblue" points="760.19,-164.15 760.94,-153.58 753.77,-161.38 760.19,-164.15"/>
</g>
<!-- Node10&#45;&gt;Node14 -->
<g id="edge19" class="edge">
<title>Node10&#45;&gt;Node14</title>
<path fill="none" stroke="midnightblue" d="M708.41,-190.43C670.06,-173.13 602.06,-143.53 542,-123 504.15,-110.06 461.08,-98.15 426.03,-89.14"/>
<polygon fill="midnightblue" stroke="midnightblue" points="426.45,-85.64 415.9,-86.56 424.72,-92.42 426.45,-85.64"/>
</g>
<!-- Node10&#45;&gt;Node16 -->
<g id="edge20" class="edge">
<title>Node10&#45;&gt;Node16</title>
<path fill="none" stroke="midnightblue" d="M808.09,-196.55C854.3,-189.47 915.63,-176.6 966,-154 987.5,-144.36 987.89,-133.46 1009,-123 1038.59,-108.34 1073.27,-96.98 1103.26,-88.78"/>
<polygon fill="midnightblue" stroke="midnightblue" points="1104.48,-92.07 1113.24,-86.11 1102.67,-85.31 1104.48,-92.07"/>
</g>
<!-- Node11&#45;&gt;Node4 -->
<g id="edge14" class="edge">
<title>Node11&#45;&gt;Node4</title>
<path fill="none" stroke="midnightblue" d="M717.81,-123.48C682.72,-113.47 635.36,-99.97 598.2,-89.38"/>
<polygon fill="midnightblue" stroke="midnightblue" points="599.07,-85.99 588.5,-86.61 597.15,-92.72 599.07,-85.99"/>
</g>
<!-- Node12 -->
<g id="node12" class="node">
<title>Node12</title>
<g id="a_node12"><a xlink:href="hedley_8ext_8hpp.html" target="_top" xlink:title=" ">
<polygon fill="none" stroke="black" points="780.5,-56.5 780.5,-86.5 955.5,-86.5 955.5,-56.5 780.5,-56.5"/>
<text text-anchor="start" x="788.5" y="-74.5" font-family="Helvetica,sans-Serif" font-size="10.00">proxsuite/linalg/veg</text>
<text text-anchor="middle" x="868" y="-63.5" font-family="Helvetica,sans-Serif" font-size="10.00">/internal/external/hedley.ext.hpp</text>
</a>
</g>
</g>
<!-- Node11&#45;&gt;Node12 -->
<g id="edge13" class="edge">
<title>Node11&#45;&gt;Node12</title>
<path fill="none" stroke="midnightblue" d="M788.92,-123.4C803.08,-114.28 821.71,-102.29 837.33,-92.24"/>
<polygon fill="midnightblue" stroke="midnightblue" points="839.61,-94.93 846.13,-86.58 835.82,-89.05 839.61,-94.93"/>
</g>
<!-- Node13 -->
<g id="node13" class="node">
<title>Node13</title>
<g id="a_node13"><a xlink:href="preprocessor_8hpp.html" target="_top" xlink:title=" ">
<polygon fill="none" stroke="black" points="619.5,-56.5 619.5,-86.5 762.5,-86.5 762.5,-56.5 619.5,-56.5"/>
<text text-anchor="start" x="627.5" y="-74.5" font-family="Helvetica,sans-Serif" font-size="10.00">proxsuite/linalg/veg</text>
<text text-anchor="middle" x="691" y="-63.5" font-family="Helvetica,sans-Serif" font-size="10.00">/internal/preprocessor.hpp</text>
</a>
</g>
</g>
<!-- Node11&#45;&gt;Node13 -->
<g id="edge15" class="edge">
<title>Node11&#45;&gt;Node13</title>
<path fill="none" stroke="midnightblue" d="M750.51,-123.4C740.15,-114.54 726.62,-102.96 715.07,-93.09"/>
<polygon fill="midnightblue" stroke="midnightblue" points="717.33,-90.42 707.46,-86.58 712.78,-95.74 717.33,-90.42"/>
</g>
<!-- Node11&#45;&gt;Node14 -->
<g id="edge16" class="edge">
<title>Node11&#45;&gt;Node14</title>
<path fill="none" stroke="midnightblue" d="M708.26,-128.19C634.68,-116.52 508.66,-96.54 429.25,-83.95"/>
<polygon fill="midnightblue" stroke="midnightblue" points="429.75,-80.49 419.33,-82.38 428.66,-87.4 429.75,-80.49"/>
</g>
<!-- Node15 -->
<g id="node15" class="node">
<title>Node15</title>
<g id="a_node15"><a xlink:title=" ">
<polygon fill="none" stroke="#bfbfbf" points="973.5,-62 973.5,-81 1056.5,-81 1056.5,-62 973.5,-62"/>
<text text-anchor="middle" x="1015" y="-69" font-family="Helvetica,sans-Serif" font-size="10.00">initializer_list</text>
</a>
</g>
</g>
<!-- Node11&#45;&gt;Node15 -->
<g id="edge17" class="edge">
<title>Node11&#45;&gt;Node15</title>
<path fill="none" stroke="midnightblue" d="M824.32,-123.41C863.92,-113.54 917.77,-99.87 965,-87 968.77,-85.97 972.69,-84.88 976.6,-83.77"/>
<polygon fill="midnightblue" stroke="midnightblue" points="977.57,-87.13 986.23,-81.02 975.65,-80.4 977.57,-87.13"/>
</g>
<!-- Node11&#45;&gt;Node16 -->
<g id="edge18" class="edge">
<title>Node11&#45;&gt;Node16</title>
<path fill="none" stroke="midnightblue" d="M825.56,-124.77C828.75,-124.15 831.91,-123.56 835,-123 885.08,-113.95 1019.36,-94.54 1103.41,-82.6"/>
<polygon fill="midnightblue" stroke="midnightblue" points="1103.99,-86.05 1113.4,-81.18 1103.01,-79.12 1103.99,-86.05"/>
</g>
<!-- Node18&#45;&gt;Node8 -->
<g id="edge28" class="edge">
<title>Node18&#45;&gt;Node8</title>
<path fill="none" stroke="midnightblue" d="M753.16,-391.48C717.61,-381.47 669.63,-367.97 631.98,-357.38"/>
<polygon fill="midnightblue" stroke="midnightblue" points="632.72,-353.95 622.15,-354.61 630.83,-360.69 632.72,-353.95"/>
</g>
<!-- Node18&#45;&gt;Node9 -->
<g id="edge27" class="edge">
<title>Node18&#45;&gt;Node9</title>
<path fill="none" stroke="midnightblue" d="M816.1,-391.38C830.44,-374.15 849.46,-344.76 834,-324 827.6,-315.41 777.71,-301.12 733.79,-289.93"/>
<polygon fill="midnightblue" stroke="midnightblue" points="734.49,-286.5 723.94,-287.45 732.78,-293.29 734.49,-286.5"/>
</g>
<!-- Node18&#45;&gt;Node14 -->
<g id="edge29" class="edge">
<title>Node18&#45;&gt;Node14</title>
<path fill="none" stroke="midnightblue" d="M769.16,-391.47C748.28,-382.24 721.33,-369.26 699,-355 680.63,-343.27 680.05,-334.59 661,-324 617.88,-300.03 597.76,-314.27 556,-288 486.29,-244.14 483.03,-215.28 428,-154 410.17,-134.14 390.24,-111.2 376.04,-94.72"/>
<polygon fill="midnightblue" stroke="midnightblue" points="378.36,-92.05 369.19,-86.75 373.05,-96.61 378.36,-92.05"/>
</g>
<!-- Node18&#45;&gt;Node16 -->
<g id="edge30" class="edge">
<title>Node18&#45;&gt;Node16</title>
<path fill="none" stroke="midnightblue" d="M874.57,-406.2C981.32,-405.75 1175.26,-398.71 1227,-355 1255.84,-330.63 1251,-311.26 1251,-273.5 1251,-273.5 1251,-273.5 1251,-204.5 1251,-166.74 1246.52,-155.32 1227,-123 1220.29,-111.89 1210.55,-101.54 1201.31,-93.13"/>
<polygon fill="midnightblue" stroke="midnightblue" points="1203.58,-90.47 1193.74,-86.56 1198.99,-95.76 1203.58,-90.47"/>
</g>
<!-- Node19&#45;&gt;Node8 -->
<g id="edge43" class="edge">
<title>Node19&#45;&gt;Node8</title>
<path fill="none" stroke="midnightblue" d="M410.88,-458.21C391.68,-441.32 366.28,-412.78 383,-391 390.17,-381.66 445.05,-367.62 493.83,-356.71"/>
<polygon fill="midnightblue" stroke="midnightblue" points="494.8,-360.08 503.81,-354.5 493.29,-353.24 494.8,-360.08"/>
</g>
<!-- Node19&#45;&gt;Node14 -->
<g id="edge60" class="edge">
<title>Node19&#45;&gt;Node14</title>
<path fill="none" stroke="midnightblue" d="M394.22,-458.33C335.74,-433.39 224,-380.5 224,-340.5 224,-340.5 224,-340.5 224,-204.5 224,-163.12 239.98,-152.5 269,-123 281.8,-109.98 298.67,-99.23 314.2,-91.04"/>
<polygon fill="midnightblue" stroke="midnightblue" points="315.81,-94.15 323.16,-86.51 312.65,-87.9 315.81,-94.15"/>
</g>
<!-- Node19&#45;&gt;Node16 -->
<g id="edge63" class="edge">
<title>Node19&#45;&gt;Node16</title>
<path fill="none" stroke="midnightblue" d="M485.56,-461.38C492.76,-460.14 500.04,-458.98 507,-458 681.02,-433.57 1289,-516.23 1289,-340.5 1289,-340.5 1289,-340.5 1289,-204.5 1289,-164.15 1275.43,-153.49 1249,-123 1238.49,-110.87 1224.43,-100.32 1211.39,-92.04"/>
<polygon fill="midnightblue" stroke="midnightblue" points="1212.94,-88.88 1202.58,-86.67 1209.3,-94.86 1212.94,-88.88"/>
</g>
<!-- Node20 -->
<g id="node20" class="node">
<title>Node20</title>
<g id="a_node20"><a xlink:href="primitives_8hpp.html" target="_top" xlink:title=" ">
<polygon fill="none" stroke="black" points="328,-324.5 328,-354.5 474,-354.5 474,-324.5 328,-324.5"/>
<text text-anchor="start" x="336" y="-342.5" font-family="Helvetica,sans-Serif" font-size="10.00">proxsuite/linalg/veg</text>
<text text-anchor="middle" x="401" y="-331.5" font-family="Helvetica,sans-Serif" font-size="10.00">/type_traits/primitives.hpp</text>
</a>
</g>
</g>
<!-- Node19&#45;&gt;Node20 -->
<g id="edge34" class="edge">
<title>Node19&#45;&gt;Node20</title>
<path fill="none" stroke="midnightblue" d="M391.69,-458.36C375.85,-450.28 358.99,-438.42 350,-422 343.38,-409.92 344.7,-403.72 350,-391 354.79,-379.53 363.59,-369.32 372.55,-361.15"/>
<polygon fill="midnightblue" stroke="midnightblue" points="375.02,-363.64 380.37,-354.5 370.48,-358.31 375.02,-363.64"/>
</g>
<!-- Node21 -->
<g id="node21" class="node">
<title>Node21</title>
<g id="a_node21"><a xlink:href="terminate_8hpp.html" target="_top" xlink:title=" ">
<polygon fill="none" stroke="black" points="66.5,-123.5 66.5,-153.5 195.5,-153.5 195.5,-123.5 66.5,-123.5"/>
<text text-anchor="start" x="74.5" y="-141.5" font-family="Helvetica,sans-Serif" font-size="10.00">proxsuite/linalg/veg</text>
<text text-anchor="middle" x="131" y="-130.5" font-family="Helvetica,sans-Serif" font-size="10.00">/internal/terminate.hpp</text>
</a>
</g>
</g>
<!-- Node19&#45;&gt;Node21 -->
<g id="edge39" class="edge">
<title>Node19&#45;&gt;Node21</title>
<path fill="none" stroke="midnightblue" d="M372.33,-459.98C308.57,-445.81 213.38,-424.39 210,-422 174.9,-397.22 158,-383.47 158,-340.5 158,-340.5 158,-340.5 158,-271.5 158,-233.06 146.87,-189.57 138.9,-163.36"/>
<polygon fill="midnightblue" stroke="midnightblue" points="142.16,-162.06 135.83,-153.57 135.49,-164.16 142.16,-162.06"/>
</g>
<!-- Node23 -->
<g id="node23" class="node">
<title>Node23</title>
<g id="a_node23"><a xlink:href="ref_8hpp.html" target="_top" xlink:title=" ">
<polygon fill="none" stroke="black" points="600.5,-391.5 600.5,-421.5 713.5,-421.5 713.5,-391.5 600.5,-391.5"/>
<text text-anchor="start" x="608.5" y="-409.5" font-family="Helvetica,sans-Serif" font-size="10.00">proxsuite/linalg/veg</text>
<text text-anchor="middle" x="657" y="-398.5" font-family="Helvetica,sans-Serif" font-size="10.00">/ref.hpp</text>
</a>
</g>
</g>
<!-- Node19&#45;&gt;Node23 -->
<g id="edge44" class="edge">
<title>Node19&#45;&gt;Node23</title>
<path fill="none" stroke="midnightblue" d="M478.19,-458.48C513.28,-448.47 560.64,-434.97 597.8,-424.38"/>
<polygon fill="midnightblue" stroke="midnightblue" points="598.85,-427.72 607.5,-421.61 596.93,-420.99 598.85,-427.72"/>
</g>
<!-- Node28 -->
<g id="node28" class="node">
<title>Node28</title>
<g id="a_node28"><a xlink:title=" ">
<polygon fill="none" stroke="#bfbfbf" points="392,-397 392,-416 442,-416 442,-397 392,-397"/>
<text text-anchor="middle" x="417" y="-404" font-family="Helvetica,sans-Serif" font-size="10.00">cstring</text>
</a>
</g>
</g>
<!-- Node19&#45;&gt;Node28 -->
<g id="edge61" class="edge">
<title>Node19&#45;&gt;Node28</title>
<path fill="none" stroke="midnightblue" d="M426.4,-458.4C424.65,-448.96 422.34,-436.45 420.45,-426.19"/>
<polygon fill="midnightblue" stroke="midnightblue" points="423.86,-425.39 418.61,-416.19 416.98,-426.66 423.86,-425.39"/>
</g>
<!-- Node29 -->
<g id="node29" class="node">
<title>Node29</title>
<g id="a_node29"><a xlink:title=" ">
<polygon fill="none" stroke="#bfbfbf" points="460,-397 460,-416 506,-416 506,-397 460,-397"/>
<text text-anchor="middle" x="483" y="-404" font-family="Helvetica,sans-Serif" font-size="10.00">cstdio</text>
</a>
</g>
</g>
<!-- Node19&#45;&gt;Node29 -->
<g id="edge62" class="edge">
<title>Node19&#45;&gt;Node29</title>
<path fill="none" stroke="midnightblue" d="M440.72,-458.4C449.14,-448.26 460.51,-434.57 469.34,-423.94"/>
<polygon fill="midnightblue" stroke="midnightblue" points="472.08,-426.12 475.78,-416.19 466.69,-421.65 472.08,-426.12"/>
</g>
<!-- Node20&#45;&gt;Node9 -->
<g id="edge35" class="edge">
<title>Node20&#45;&gt;Node9</title>
<path fill="none" stroke="midnightblue" d="M457.96,-324.48C499.02,-314.37 554.59,-300.68 597.82,-290.04"/>
<polygon fill="midnightblue" stroke="midnightblue" points="598.81,-293.4 607.69,-287.61 597.14,-286.6 598.81,-293.4"/>
</g>
<!-- Node20&#45;&gt;Node14 -->
<g id="edge36" class="edge">
<title>Node20&#45;&gt;Node14</title>
<path fill="none" stroke="midnightblue" d="M383.37,-324.13C373.57,-314.96 362.3,-302.16 357,-288 332.43,-222.39 343.8,-137.45 351.69,-96.57"/>
<polygon fill="midnightblue" stroke="midnightblue" points="355.13,-97.21 353.69,-86.72 348.27,-95.82 355.13,-97.21"/>
</g>
<!-- Node20&#45;&gt;Node16 -->
<g id="edge38" class="edge">
<title>Node20&#45;&gt;Node16</title>
<path fill="none" stroke="midnightblue" d="M429.3,-324.36C466.92,-306.14 535.89,-274.7 598,-257 692.86,-229.97 721.58,-245.98 817,-221 859.1,-209.98 963.46,-176 1001,-154 1019.22,-143.32 1018.79,-133.69 1037,-123 1060.7,-109.09 1088.88,-97.94 1113.58,-89.7"/>
<polygon fill="midnightblue" stroke="midnightblue" points="1114.78,-92.99 1123.21,-86.57 1112.62,-86.33 1114.78,-92.99"/>
</g>
<!-- Node20&#45;&gt;Node17 -->
<g id="edge37" class="edge">
<title>Node20&#45;&gt;Node17</title>
<path fill="none" stroke="midnightblue" d="M401,-324.4C401,-315.06 401,-302.71 401,-292.52"/>
<polygon fill="midnightblue" stroke="midnightblue" points="404.5,-292.19 401,-282.19 397.5,-292.19 404.5,-292.19"/>
</g>
<!-- Node21&#45;&gt;Node14 -->
<g id="edge40" class="edge">
<title>Node21&#45;&gt;Node14</title>
<path fill="none" stroke="midnightblue" d="M179.76,-123.48C214.54,-113.47 261.48,-99.97 298.32,-89.38"/>
<polygon fill="midnightblue" stroke="midnightblue" points="299.29,-92.74 307.94,-86.61 297.36,-86.01 299.29,-92.74"/>
</g>
<!-- Node21&#45;&gt;Node16 -->
<g id="edge42" class="edge">
<title>Node21&#45;&gt;Node16</title>
<path fill="none" stroke="midnightblue" d="M195.74,-135.75C347.86,-131.25 739.85,-117.45 1066,-87 1078.03,-85.88 1090.77,-84.42 1103.14,-82.87"/>
<polygon fill="midnightblue" stroke="midnightblue" points="1103.94,-86.3 1113.42,-81.55 1103.05,-79.35 1103.94,-86.3"/>
</g>
<!-- Node22 -->
<g id="node22" class="node">
<title>Node22</title>
<g id="a_node22"><a xlink:title=" ">
<polygon fill="none" stroke="#bfbfbf" points="98.5,-62 98.5,-81 163.5,-81 163.5,-62 98.5,-62"/>
<text text-anchor="middle" x="131" y="-69" font-family="Helvetica,sans-Serif" font-size="10.00">exception</text>
</a>
</g>
</g>
<!-- Node21&#45;&gt;Node22 -->
<g id="edge41" class="edge">
<title>Node21&#45;&gt;Node22</title>
<path fill="none" stroke="midnightblue" d="M131,-123.4C131,-114.06 131,-101.71 131,-91.52"/>
<polygon fill="midnightblue" stroke="midnightblue" points="134.5,-91.19 131,-81.19 127.5,-91.19 134.5,-91.19"/>
</g>
<!-- Node23&#45;&gt;Node8 -->
<g id="edge49" class="edge">
<title>Node23&#45;&gt;Node8</title>
<path fill="none" stroke="midnightblue" d="M638.56,-391.4C626.86,-382.45 611.54,-370.74 598.55,-360.8"/>
<polygon fill="midnightblue" stroke="midnightblue" points="600.48,-357.87 590.41,-354.58 596.23,-363.43 600.48,-357.87"/>
</g>
<!-- Node23&#45;&gt;Node14 -->
<g id="edge58" class="edge">
<title>Node23&#45;&gt;Node14</title>
<path fill="none" stroke="midnightblue" d="M600.23,-398.78C506.56,-387.43 328.93,-364.79 319,-355 244.83,-281.89 238.25,-215.56 286,-123 292.64,-110.13 304.25,-99.82 316.18,-91.96"/>
<polygon fill="midnightblue" stroke="midnightblue" points="318.14,-94.86 324.85,-86.66 314.49,-88.88 318.14,-94.86"/>
</g>
<!-- Node23&#45;&gt;Node16 -->
<g id="edge59" class="edge">
<title>Node23&#45;&gt;Node16</title>
<path fill="none" stroke="midnightblue" d="M713.8,-392.6C716.91,-392.03 719.99,-391.49 723,-391 833.53,-373.08 1213,-385.48 1213,-273.5 1213,-273.5 1213,-273.5 1213,-204.5 1213,-165.34 1197.37,-122.11 1186.15,-96.14"/>
<polygon fill="midnightblue" stroke="midnightblue" points="1189.24,-94.47 1181.97,-86.76 1182.85,-97.32 1189.24,-94.47"/>
</g>
<!-- Node24 -->
<g id="node24" class="node">
<title>Node24</title>
<g id="a_node24"><a xlink:href="tags_8hpp.html" target="_top" xlink:title=" ">
<polygon fill="none" stroke="black" points="707.5,-324.5 707.5,-354.5 824.5,-354.5 824.5,-324.5 707.5,-324.5"/>
<text text-anchor="start" x="715.5" y="-342.5" font-family="Helvetica,sans-Serif" font-size="10.00">proxsuite/linalg/veg</text>
<text text-anchor="middle" x="766" y="-331.5" font-family="Helvetica,sans-Serif" font-size="10.00">/type_traits/tags.hpp</text>
</a>
</g>
</g>
<!-- Node23&#45;&gt;Node24 -->
<g id="edge45" class="edge">
<title>Node23&#45;&gt;Node24</title>
<path fill="none" stroke="midnightblue" d="M680.65,-391.4C696.08,-382.2 716.42,-370.07 733.38,-359.95"/>
<polygon fill="midnightblue" stroke="midnightblue" points="735.6,-362.7 742.39,-354.58 732.01,-356.69 735.6,-362.7"/>
</g>
<!-- Node25 -->
<g id="node25" class="node">
<title>Node25</title>
<g id="a_node25"><a xlink:href="address_8hpp.html" target="_top" xlink:title=" ">
<polygon fill="none" stroke="black" points="931.5,-324.5 931.5,-354.5 1054.5,-354.5 1054.5,-324.5 931.5,-324.5"/>
<text text-anchor="start" x="939.5" y="-342.5" font-family="Helvetica,sans-Serif" font-size="10.00">proxsuite/linalg/veg</text>
<text text-anchor="middle" x="993" y="-331.5" font-family="Helvetica,sans-Serif" font-size="10.00">/memory/address.hpp</text>
</a>
</g>
</g>
<!-- Node23&#45;&gt;Node25 -->
<g id="edge50" class="edge">
<title>Node23&#45;&gt;Node25</title>
<path fill="none" stroke="midnightblue" d="M713.5,-392.96C716.71,-392.29 719.9,-391.63 723,-391 790.09,-377.36 866.85,-363.14 921.33,-353.27"/>
<polygon fill="midnightblue" stroke="midnightblue" points="922.01,-356.71 931.23,-351.48 920.77,-349.82 922.01,-356.71"/>
</g>
<!-- Node24&#45;&gt;Node9 -->
<g id="edge46" class="edge">
<title>Node24&#45;&gt;Node9</title>
<path fill="none" stroke="midnightblue" d="M744.08,-324.4C729.92,-315.28 711.29,-303.29 695.67,-293.24"/>
<polygon fill="midnightblue" stroke="midnightblue" points="697.18,-290.05 686.87,-287.58 693.39,-295.93 697.18,-290.05"/>
</g>
<!-- Node24&#45;&gt;Node14 -->
<g id="edge47" class="edge">
<title>Node24&#45;&gt;Node14</title>
<path fill="none" stroke="midnightblue" d="M708.95,-324.45C668.05,-313.8 616.97,-299.15 598,-288 552.61,-261.33 468.46,-156.69 428,-123 415.16,-112.3 400.17,-101.43 387.29,-92.53"/>
<polygon fill="midnightblue" stroke="midnightblue" points="388.99,-89.45 378.76,-86.71 385.04,-95.24 388.99,-89.45"/>
</g>
<!-- Node24&#45;&gt;Node16 -->
<g id="edge48" class="edge">
<title>Node24&#45;&gt;Node16</title>
<path fill="none" stroke="midnightblue" d="M811.9,-324.46C843.33,-314.67 885.86,-301.07 923,-288 959.36,-275.2 967.69,-269.94 1004,-257 1052.06,-239.88 1075.57,-255.67 1113,-221 1131.92,-203.47 1155.8,-133.98 1167.64,-96.6"/>
<polygon fill="midnightblue" stroke="midnightblue" points="1171.01,-97.56 1170.65,-86.98 1164.33,-95.48 1171.01,-97.56"/>
</g>
<!-- Node25&#45;&gt;Node9 -->
<g id="edge51" class="edge">
<title>Node25&#45;&gt;Node9</title>
<path fill="none" stroke="midnightblue" d="M931.42,-326.32C879.78,-316.09 804.07,-301.1 738,-288 736.53,-287.71 735.05,-287.42 733.56,-287.12"/>
<polygon fill="midnightblue" stroke="midnightblue" points="734.06,-283.65 723.57,-285.14 732.7,-290.52 734.06,-283.65"/>
</g>
<!-- Node25&#45;&gt;Node14 -->
<g id="edge55" class="edge">
<title>Node25&#45;&gt;Node14</title>
<path fill="none" stroke="midnightblue" d="M947.87,-324.46C853.44,-295.02 642.49,-228.88 628,-221 608.85,-210.59 607.15,-203.45 590,-190 551.03,-159.46 544.66,-146.36 501,-123 475.32,-109.26 445.13,-98 419.05,-89.64"/>
<polygon fill="midnightblue" stroke="midnightblue" points="419.86,-86.22 409.27,-86.57 417.77,-92.9 419.86,-86.22"/>
</g>
<!-- Node25&#45;&gt;Node16 -->
<g id="edge57" class="edge">
<title>Node25&#45;&gt;Node16</title>
<path fill="none" stroke="midnightblue" d="M1031.47,-324.29C1051.87,-315.66 1076.64,-303.33 1096,-288 1126.21,-264.09 1135.16,-256.12 1151,-221 1169.46,-180.08 1173.95,-127.16 1174.91,-96.81"/>
<polygon fill="midnightblue" stroke="midnightblue" points="1178.41,-96.78 1175.12,-86.71 1171.41,-96.63 1178.41,-96.78"/>
</g>
<!-- Node26 -->
<g id="node26" class="node">
<title>Node26</title>
<g id="a_node26"><a xlink:href="std_8hpp.html" target="_top" xlink:title=" ">
<polygon fill="none" stroke="black" points="843.5,-123.5 843.5,-153.5 956.5,-153.5 956.5,-123.5 843.5,-123.5"/>
<text text-anchor="start" x="851.5" y="-141.5" font-family="Helvetica,sans-Serif" font-size="10.00">proxsuite/linalg/veg</text>
<text text-anchor="middle" x="900" y="-130.5" font-family="Helvetica,sans-Serif" font-size="10.00">/internal/std.hpp</text>
</a>
</g>
</g>
<!-- Node25&#45;&gt;Node26 -->
<g id="edge52" class="edge">
<title>Node25&#45;&gt;Node26</title>
<path fill="none" stroke="midnightblue" d="M1035.81,-324.42C1052.69,-316.52 1070.33,-304.8 1080,-288 1086.87,-276.06 1086.56,-269.12 1080,-257 1053.07,-207.27 994.95,-175.24 952,-157.39"/>
<polygon fill="midnightblue" stroke="midnightblue" points="953.12,-154.06 942.54,-153.58 950.51,-160.56 953.12,-154.06"/>
</g>
<!-- Node27 -->
<g id="node27" class="node">
<title>Node27</title>
<g id="a_node27"><a xlink:title=" ">
<polygon fill="none" stroke="#bfbfbf" points="1013,-263 1013,-282 1071,-282 1071,-263 1013,-263"/>
<text text-anchor="middle" x="1042" y="-270" font-family="Helvetica,sans-Serif" font-size="10.00">memory</text>
</a>
</g>
</g>
<!-- Node25&#45;&gt;Node27 -->
<g id="edge56" class="edge">
<title>Node25&#45;&gt;Node27</title>
<path fill="none" stroke="midnightblue" d="M1003.63,-324.4C1011.2,-314.36 1021.39,-300.84 1029.37,-290.25"/>
<polygon fill="midnightblue" stroke="midnightblue" points="1032.22,-292.29 1035.45,-282.19 1026.63,-288.07 1032.22,-292.29"/>
</g>
<!-- Node26&#45;&gt;Node5 -->
<g id="edge53" class="edge">
<title>Node26&#45;&gt;Node5</title>
<path fill="none" stroke="midnightblue" d="M956.56,-123.82C1001.94,-112.28 1059.18,-96.2 1066,-87 1074.2,-75.93 1074.71,-66.68 1066,-56 1043.24,-28.09 938.43,-17 882.46,-13.01"/>
<polygon fill="midnightblue" stroke="midnightblue" points="882.5,-9.5 872.29,-12.32 882.03,-16.49 882.5,-9.5"/>
</g>
<!-- Node26&#45;&gt;Node15 -->
<g id="edge54" class="edge">
<title>Node26&#45;&gt;Node15</title>
<path fill="none" stroke="midnightblue" d="M924.95,-123.4C944.6,-112.29 971.79,-96.92 991.15,-85.98"/>
<polygon fill="midnightblue" stroke="midnightblue" points="992.97,-88.97 999.95,-81.01 989.52,-82.88 992.97,-88.97"/>
</g>
</g>
</svg>
