<?xml version="1.0" encoding="UTF-8" standalone="no"?>
<!DOCTYPE svg PUBLIC "-//W3C//DTD SVG 1.1//EN"
 "http://www.w3.org/Graphics/SVG/1.1/DTD/svg11.dtd">
<!-- Generated by graphviz version 6.0.1 (20220911.2005)
 -->
<!-- Title: include/proxsuite/linalg/veg/internal/narrow.hpp Pages: 1 -->
<svg width="1411pt" height="687pt"
 viewBox="0.00 0.00 1411.00 687.00" xmlns="http://www.w3.org/2000/svg" xmlns:xlink="http://www.w3.org/1999/xlink">
<g id="graph0" class="graph" transform="scale(1 1) rotate(0) translate(4 683)">
<title>include/proxsuite/linalg/veg/internal/narrow.hpp</title>
<!-- Node1 -->
<g id="node1" class="node">
<title>Node1</title>
<g id="a_node1"><a xlink:title=" ">
<polygon fill="#999999" stroke="#666666" points="823.5,-679 688.5,-679 688.5,-649 823.5,-649 823.5,-679"/>
<text text-anchor="start" x="696.5" y="-667" font-family="Helvetica,sans-Serif" font-size="10.00">include/proxsuite/linalg</text>
<text text-anchor="middle" x="756" y="-656" font-family="Helvetica,sans-Serif" font-size="10.00">/veg/internal/narrow.hpp</text>
</a>
</g>
</g>
<!-- Node2 -->
<g id="node2" class="node">
<title>Node2</title>
<g id="a_node2"><a xlink:href="assert_8hpp.html" target="_top" xlink:title=" ">
<polygon fill="white" stroke="#666666" points="812.5,-613 699.5,-613 699.5,-583 812.5,-583 812.5,-613"/>
<text text-anchor="start" x="707.5" y="-601" font-family="Helvetica,sans-Serif" font-size="10.00">proxsuite/linalg/veg</text>
<text text-anchor="middle" x="756" y="-590" font-family="Helvetica,sans-Serif" font-size="10.00">/util/assert.hpp</text>
</a>
</g>
</g>
<!-- Node1&#45;&gt;Node2 -->
<g id="edge1" class="edge">
<title>Node1&#45;&gt;Node2</title>
<path fill="none" stroke="#63b8ff" d="M756,-648.8C756,-641.34 756,-631.99 756,-623.41"/>
<polygon fill="#63b8ff" stroke="#63b8ff" points="759.5,-623.16 756,-613.16 752.5,-623.16 759.5,-623.16"/>
</g>
<!-- Node14 -->
<g id="node14" class="node">
<title>Node14</title>
<g id="a_node14"><a xlink:href="prologue_8hpp.html" target="_top" xlink:title=" ">
<polygon fill="white" stroke="#666666" points="309,-85 185,-85 185,-55 309,-55 309,-85"/>
<text text-anchor="start" x="193" y="-73" font-family="Helvetica,sans-Serif" font-size="10.00">proxsuite/linalg/veg</text>
<text text-anchor="middle" x="247" y="-62" font-family="Helvetica,sans-Serif" font-size="10.00">/internal/prologue.hpp</text>
</a>
</g>
</g>
<!-- Node1&#45;&gt;Node14 -->
<g id="edge68" class="edge">
<title>Node1&#45;&gt;Node14</title>
<path fill="none" stroke="#63b8ff" d="M688.24,-658.45C502.68,-645.1 0,-602.5 0,-533 0,-533 0,-533 0,-201 0,-121.28 102,-90.33 174.91,-78.4"/>
<polygon fill="#63b8ff" stroke="#63b8ff" points="175.64,-81.83 184.99,-76.84 174.57,-74.91 175.64,-81.83"/>
</g>
<!-- Node16 -->
<g id="node16" class="node">
<title>Node16</title>
<g id="a_node16"><a xlink:href="epilogue_8hpp.html" target="_top" xlink:title=" ">
<polygon fill="white" stroke="#666666" points="1121.5,-85 998.5,-85 998.5,-55 1121.5,-55 1121.5,-85"/>
<text text-anchor="start" x="1006.5" y="-73" font-family="Helvetica,sans-Serif" font-size="10.00">proxsuite/linalg/veg</text>
<text text-anchor="middle" x="1060" y="-62" font-family="Helvetica,sans-Serif" font-size="10.00">/internal/epilogue.hpp</text>
</a>
</g>
</g>
<!-- Node1&#45;&gt;Node16 -->
<g id="edge69" class="edge">
<title>Node1&#45;&gt;Node16</title>
<path fill="none" stroke="#63b8ff" d="M823.71,-663.56C989.63,-663.11 1403,-650.22 1403,-533 1403,-533 1403,-533 1403,-201 1403,-159.99 1390.67,-144.42 1357,-121 1338.74,-108.3 1213.55,-90.39 1131.64,-79.81"/>
<polygon fill="#63b8ff" stroke="#63b8ff" points="1131.99,-76.33 1121.62,-78.53 1131.1,-83.27 1131.99,-76.33"/>
</g>
<!-- Node3 -->
<g id="node3" class="node">
<title>Node3</title>
<g id="a_node3"><a xlink:href="assert__impl_8hpp.html" target="_top" xlink:title=" ">
<polygon fill="white" stroke="#666666" points="825,-547 687,-547 687,-517 825,-517 825,-547"/>
<text text-anchor="start" x="695" y="-535" font-family="Helvetica,sans-Serif" font-size="10.00">proxsuite/linalg/veg</text>
<text text-anchor="middle" x="756" y="-524" font-family="Helvetica,sans-Serif" font-size="10.00">/internal/assert_impl.hpp</text>
</a>
</g>
</g>
<!-- Node2&#45;&gt;Node3 -->
<g id="edge2" class="edge">
<title>Node2&#45;&gt;Node3</title>
<path fill="none" stroke="#63b8ff" d="M756,-582.8C756,-575.34 756,-565.99 756,-557.41"/>
<polygon fill="#63b8ff" stroke="#63b8ff" points="759.5,-557.16 756,-547.16 752.5,-557.16 759.5,-557.16"/>
</g>
<!-- Node4 -->
<g id="node4" class="node">
<title>Node4</title>
<g id="a_node4"><a xlink:href="typedefs_8hpp.html" target="_top" xlink:title=" ">
<polygon fill="white" stroke="#666666" points="480,-85 356,-85 356,-55 480,-55 480,-85"/>
<text text-anchor="start" x="364" y="-73" font-family="Helvetica,sans-Serif" font-size="10.00">proxsuite/linalg/veg</text>
<text text-anchor="middle" x="418" y="-62" font-family="Helvetica,sans-Serif" font-size="10.00">/internal/typedefs.hpp</text>
</a>
</g>
</g>
<!-- Node3&#45;&gt;Node4 -->
<g id="edge3" class="edge">
<title>Node3&#45;&gt;Node4</title>
<path fill="none" stroke="#63b8ff" d="M686.95,-528.81C539.76,-522.53 202.88,-499.09 133,-415 30,-291.05 281.99,-141.67 380.54,-89.81"/>
<polygon fill="#63b8ff" stroke="#63b8ff" points="382.33,-92.83 389.58,-85.1 379.09,-86.62 382.33,-92.83"/>
</g>
<!-- Node7 -->
<g id="node7" class="node">
<title>Node7</title>
<g id="a_node7"><a xlink:href="defer_8hpp.html" target="_top" xlink:title=" ">
<polygon fill="white" stroke="#666666" points="878.5,-481 765.5,-481 765.5,-451 878.5,-451 878.5,-481"/>
<text text-anchor="start" x="773.5" y="-469" font-family="Helvetica,sans-Serif" font-size="10.00">proxsuite/linalg/veg</text>
<text text-anchor="middle" x="822" y="-458" font-family="Helvetica,sans-Serif" font-size="10.00">/util/defer.hpp</text>
</a>
</g>
</g>
<!-- Node3&#45;&gt;Node7 -->
<g id="edge6" class="edge">
<title>Node3&#45;&gt;Node7</title>
<path fill="none" stroke="#63b8ff" d="M770.65,-516.8C779.28,-508.43 790.36,-497.68 800.02,-488.31"/>
<polygon fill="#63b8ff" stroke="#63b8ff" points="802.65,-490.64 807.39,-481.16 797.78,-485.61 802.65,-490.64"/>
</g>
<!-- Node3&#45;&gt;Node14 -->
<g id="edge65" class="edge">
<title>Node3&#45;&gt;Node14</title>
<path fill="none" stroke="#63b8ff" d="M687,-528.56C555.86,-523.33 275.48,-509.16 183,-481 112.59,-459.56 38,-474.6 38,-401 38,-401 38,-401 38,-201 38,-159.99 51.94,-146.58 84,-121 110,-100.26 144.57,-88.1 175.18,-80.98"/>
<polygon fill="#63b8ff" stroke="#63b8ff" points="175.94,-84.39 184.96,-78.83 174.45,-77.55 175.94,-84.39"/>
</g>
<!-- Node3&#45;&gt;Node16 -->
<g id="edge67" class="edge">
<title>Node3&#45;&gt;Node16</title>
<path fill="none" stroke="#63b8ff" d="M825.27,-530.67C984.89,-528.05 1365,-510.33 1365,-401 1365,-401 1365,-401 1365,-201 1365,-162.37 1361.14,-145.16 1331,-121 1315.56,-108.62 1206.86,-91.36 1131.91,-80.69"/>
<polygon fill="#63b8ff" stroke="#63b8ff" points="1131.96,-77.17 1121.57,-79.23 1130.99,-84.1 1131.96,-77.17"/>
</g>
<!-- Node20 -->
<g id="node20" class="node">
<title>Node20</title>
<g id="a_node20"><a xlink:href="internal_2dbg_8hpp.html" target="_top" xlink:title=" ">
<polygon fill="white" stroke="#666666" points="747.5,-481 634.5,-481 634.5,-451 747.5,-451 747.5,-481"/>
<text text-anchor="start" x="642.5" y="-469" font-family="Helvetica,sans-Serif" font-size="10.00">proxsuite/linalg/veg</text>
<text text-anchor="middle" x="691" y="-458" font-family="Helvetica,sans-Serif" font-size="10.00">/internal/dbg.hpp</text>
</a>
</g>
</g>
<!-- Node3&#45;&gt;Node20 -->
<g id="edge34" class="edge">
<title>Node3&#45;&gt;Node20</title>
<path fill="none" stroke="#63b8ff" d="M741.57,-516.8C733.07,-508.43 722.16,-497.68 712.64,-488.31"/>
<polygon fill="#63b8ff" stroke="#63b8ff" points="714.97,-485.69 705.39,-481.16 710.06,-490.67 714.97,-485.69"/>
</g>
<!-- Node31 -->
<g id="node31" class="node">
<title>Node31</title>
<g id="a_node31"><a xlink:title=" ">
<polygon fill="#e0e0e0" stroke="#999999" points="949,-475.5 897,-475.5 897,-456.5 949,-456.5 949,-475.5"/>
<text text-anchor="middle" x="923" y="-463.5" font-family="Helvetica,sans-Serif" font-size="10.00">cassert</text>
</a>
</g>
</g>
<!-- Node3&#45;&gt;Node31 -->
<g id="edge66" class="edge">
<title>Node3&#45;&gt;Node31</title>
<path fill="none" stroke="#63b8ff" d="M793.62,-516.96C820.07,-507.04 856.26,-493.36 888,-481 889.41,-480.45 890.85,-479.89 892.31,-479.31"/>
<polygon fill="#63b8ff" stroke="#63b8ff" points="893.92,-482.44 901.93,-475.5 891.34,-475.93 893.92,-482.44"/>
</g>
<!-- Node5 -->
<g id="node5" class="node">
<title>Node5</title>
<g id="a_node5"><a xlink:title=" ">
<polygon fill="#e0e0e0" stroke="#999999" points="751,-19 701,-19 701,0 751,0 751,-19"/>
<text text-anchor="middle" x="726" y="-7" font-family="Helvetica,sans-Serif" font-size="10.00">cstdint</text>
</a>
</g>
</g>
<!-- Node4&#45;&gt;Node5 -->
<g id="edge4" class="edge">
<title>Node4&#45;&gt;Node5</title>
<path fill="none" stroke="#63b8ff" d="M480.33,-56.68C483.26,-56.11 486.16,-55.55 489,-55 560.51,-41.24 644.27,-25.63 690.61,-17.04"/>
<polygon fill="#63b8ff" stroke="#63b8ff" points="691.54,-20.43 700.73,-15.17 690.26,-13.55 691.54,-20.43"/>
</g>
<!-- Node6 -->
<g id="node6" class="node">
<title>Node6</title>
<g id="a_node6"><a xlink:title=" ">
<polygon fill="#e0e0e0" stroke="#999999" points="444.5,-19 391.5,-19 391.5,0 444.5,0 444.5,-19"/>
<text text-anchor="middle" x="418" y="-7" font-family="Helvetica,sans-Serif" font-size="10.00">cstddef</text>
</a>
</g>
</g>
<!-- Node4&#45;&gt;Node6 -->
<g id="edge5" class="edge">
<title>Node4&#45;&gt;Node6</title>
<path fill="none" stroke="#63b8ff" d="M418,-54.84C418,-47.21 418,-37.7 418,-29.45"/>
<polygon fill="#63b8ff" stroke="#63b8ff" points="421.5,-29.27 418,-19.27 414.5,-29.27 421.5,-29.27"/>
</g>
<!-- Node8 -->
<g id="node8" class="node">
<title>Node8</title>
<g id="a_node8"><a xlink:href="constructible_8hpp.html" target="_top" xlink:title=" ">
<polygon fill="white" stroke="#666666" points="1013.5,-349 854.5,-349 854.5,-319 1013.5,-319 1013.5,-349"/>
<text text-anchor="start" x="862.5" y="-337" font-family="Helvetica,sans-Serif" font-size="10.00">proxsuite/linalg/veg</text>
<text text-anchor="middle" x="934" y="-326" font-family="Helvetica,sans-Serif" font-size="10.00">/type_traits/constructible.hpp</text>
</a>
</g>
</g>
<!-- Node7&#45;&gt;Node8 -->
<g id="edge7" class="edge">
<title>Node7&#45;&gt;Node8</title>
<path fill="none" stroke="#63b8ff" d="M870.12,-450.97C899.66,-441.28 933.42,-427.86 942,-415 952.96,-398.55 949.35,-375.82 943.93,-358.79"/>
<polygon fill="#63b8ff" stroke="#63b8ff" points="947.1,-357.27 940.44,-349.03 940.51,-359.63 947.1,-357.27"/>
</g>
<!-- Node7&#45;&gt;Node14 -->
<g id="edge32" class="edge">
<title>Node7&#45;&gt;Node14</title>
<path fill="none" stroke="#63b8ff" d="M765.32,-452.57C762.51,-452.03 759.73,-451.5 757,-451 694.25,-439.53 239.48,-391.6 192,-349 116.05,-280.86 113.7,-209.21 165,-121 172.7,-107.77 185.42,-97.59 198.57,-89.99"/>
<polygon fill="#63b8ff" stroke="#63b8ff" points="200.51,-92.92 207.69,-85.13 197.22,-86.74 200.51,-92.92"/>
</g>
<!-- Node7&#45;&gt;Node16 -->
<g id="edge33" class="edge">
<title>Node7&#45;&gt;Node16</title>
<path fill="none" stroke="#63b8ff" d="M878.95,-451.84C1011.02,-421.13 1327,-346.46 1327,-335 1327,-335 1327,-335 1327,-201 1327,-164.46 1334.28,-146.39 1308,-121 1295.26,-108.69 1200.1,-92.04 1131.45,-81.41"/>
<polygon fill="#63b8ff" stroke="#63b8ff" points="1131.95,-77.94 1121.53,-79.88 1130.88,-84.86 1131.95,-77.94"/>
</g>
<!-- Node19 -->
<g id="node19" class="node">
<title>Node19</title>
<g id="a_node19"><a xlink:href="invocable_8hpp.html" target="_top" xlink:title=" ">
<polygon fill="white" stroke="#666666" points="893.5,-415 750.5,-415 750.5,-385 893.5,-385 893.5,-415"/>
<text text-anchor="start" x="758.5" y="-403" font-family="Helvetica,sans-Serif" font-size="10.00">proxsuite/linalg/veg</text>
<text text-anchor="middle" x="822" y="-392" font-family="Helvetica,sans-Serif" font-size="10.00">/type_traits/invocable.hpp</text>
</a>
</g>
</g>
<!-- Node7&#45;&gt;Node19 -->
<g id="edge27" class="edge">
<title>Node7&#45;&gt;Node19</title>
<path fill="none" stroke="#63b8ff" d="M822,-450.8C822,-443.34 822,-433.99 822,-425.41"/>
<polygon fill="#63b8ff" stroke="#63b8ff" points="825.5,-425.16 822,-415.16 818.5,-425.16 825.5,-425.16"/>
</g>
<!-- Node9 -->
<g id="node9" class="node">
<title>Node9</title>
<g id="a_node9"><a xlink:href="veg_2type__traits_2core_8hpp.html" target="_top" xlink:title=" ">
<polygon fill="white" stroke="#666666" points="695.5,-283 578.5,-283 578.5,-253 695.5,-253 695.5,-283"/>
<text text-anchor="start" x="586.5" y="-271" font-family="Helvetica,sans-Serif" font-size="10.00">proxsuite/linalg/veg</text>
<text text-anchor="middle" x="637" y="-260" font-family="Helvetica,sans-Serif" font-size="10.00">/type_traits/core.hpp</text>
</a>
</g>
</g>
<!-- Node8&#45;&gt;Node9 -->
<g id="edge8" class="edge">
<title>Node8&#45;&gt;Node9</title>
<path fill="none" stroke="#63b8ff" d="M868.82,-318.95C820.58,-308.56 754.99,-294.42 705.88,-283.84"/>
<polygon fill="#63b8ff" stroke="#63b8ff" points="706.49,-280.39 695.98,-281.71 705.02,-287.24 706.49,-280.39"/>
</g>
<!-- Node8&#45;&gt;Node14 -->
<g id="edge23" class="edge">
<title>Node8&#45;&gt;Node14</title>
<path fill="none" stroke="#63b8ff" d="M934.96,-318.95C935.36,-300.73 932.98,-269.35 914,-253 850.9,-198.65 621.49,-238.34 541,-217 471.77,-198.65 456.85,-185.33 394,-151 372.58,-139.3 369.2,-133.1 348,-121 328.38,-109.8 305.9,-98.53 287.15,-89.53"/>
<polygon fill="#63b8ff" stroke="#63b8ff" points="288.52,-86.31 277.99,-85.17 285.52,-92.63 288.52,-86.31"/>
</g>
<!-- Node8&#45;&gt;Node16 -->
<g id="edge26" class="edge">
<title>Node8&#45;&gt;Node16</title>
<path fill="none" stroke="#63b8ff" d="M965.08,-318.79C980.16,-310.4 997.27,-298.39 1008,-283 1018.8,-267.51 1044.3,-147.62 1055.07,-95.29"/>
<polygon fill="#63b8ff" stroke="#63b8ff" points="1058.56,-95.72 1057.13,-85.22 1051.7,-94.31 1058.56,-95.72"/>
</g>
<!-- Node17 -->
<g id="node17" class="node">
<title>Node17</title>
<g id="a_node17"><a xlink:title=" ">
<polygon fill="#e0e0e0" stroke="#999999" points="998.5,-277.5 961.5,-277.5 961.5,-258.5 998.5,-258.5 998.5,-277.5"/>
<text text-anchor="middle" x="980" y="-265.5" font-family="Helvetica,sans-Serif" font-size="10.00">new</text>
</a>
</g>
</g>
<!-- Node8&#45;&gt;Node17 -->
<g id="edge24" class="edge">
<title>Node8&#45;&gt;Node17</title>
<path fill="none" stroke="#63b8ff" d="M944.21,-318.8C951.17,-309.11 960.42,-296.24 967.77,-286.01"/>
<polygon fill="#63b8ff" stroke="#63b8ff" points="970.65,-288.01 973.64,-277.84 964.96,-283.92 970.65,-288.01"/>
</g>
<!-- Node18 -->
<g id="node18" class="node">
<title>Node18</title>
<g id="a_node18"><a xlink:title=" ">
<polygon fill="#e0e0e0" stroke="#999999" points="904.5,-277.5 835.5,-277.5 835.5,-258.5 904.5,-258.5 904.5,-277.5"/>
<text text-anchor="middle" x="870" y="-265.5" font-family="Helvetica,sans-Serif" font-size="10.00">type_traits</text>
</a>
</g>
</g>
<!-- Node8&#45;&gt;Node18 -->
<g id="edge25" class="edge">
<title>Node8&#45;&gt;Node18</title>
<path fill="none" stroke="#63b8ff" d="M919.8,-318.8C909.82,-308.82 896.46,-295.46 886.09,-285.09"/>
<polygon fill="#63b8ff" stroke="#63b8ff" points="888.39,-282.44 878.84,-277.84 883.44,-287.39 888.39,-282.44"/>
</g>
<!-- Node9&#45;&gt;Node4 -->
<g id="edge9" class="edge">
<title>Node9&#45;&gt;Node4</title>
<path fill="none" stroke="#63b8ff" d="M602.17,-252.87C583.02,-244.15 559.48,-231.8 541,-217 495.09,-180.22 453.72,-124.27 432.66,-93.4"/>
<polygon fill="#63b8ff" stroke="#63b8ff" points="435.52,-91.38 427.03,-85.04 429.71,-95.29 435.52,-91.38"/>
</g>
<!-- Node10 -->
<g id="node10" class="node">
<title>Node10</title>
<g id="a_node10"><a xlink:href="integer__seq_8hpp.html" target="_top" xlink:title=" ">
<polygon fill="white" stroke="#666666" points="688,-217 550,-217 550,-187 688,-187 688,-217"/>
<text text-anchor="start" x="558" y="-205" font-family="Helvetica,sans-Serif" font-size="10.00">proxsuite/linalg/veg</text>
<text text-anchor="middle" x="619" y="-194" font-family="Helvetica,sans-Serif" font-size="10.00">/internal/integer_seq.hpp</text>
</a>
</g>
</g>
<!-- Node9&#45;&gt;Node10 -->
<g id="edge10" class="edge">
<title>Node9&#45;&gt;Node10</title>
<path fill="none" stroke="#63b8ff" d="M633.01,-252.8C630.86,-245.17 628.16,-235.57 625.71,-226.84"/>
<polygon fill="#63b8ff" stroke="#63b8ff" points="629.06,-225.84 622.98,-217.16 622.32,-227.74 629.06,-225.84"/>
</g>
<!-- Node9&#45;&gt;Node14 -->
<g id="edge21" class="edge">
<title>Node9&#45;&gt;Node14</title>
<path fill="none" stroke="#63b8ff" d="M578.24,-254.87C519.75,-242.54 436.75,-224.25 423,-217 367.06,-187.52 367.28,-160.62 318,-121 305.02,-110.56 290.01,-99.82 277.15,-90.98"/>
<polygon fill="#63b8ff" stroke="#63b8ff" points="278.88,-87.92 268.64,-85.19 274.94,-93.71 278.88,-87.92"/>
</g>
<!-- Node9&#45;&gt;Node16 -->
<g id="edge22" class="edge">
<title>Node9&#45;&gt;Node16</title>
<path fill="none" stroke="#63b8ff" d="M695.75,-260.12C736.73,-253.48 791.63,-240.76 835,-217 889.6,-187.09 884.61,-154.63 937,-121 957.79,-107.66 982.72,-96.73 1004.69,-88.52"/>
<polygon fill="#63b8ff" stroke="#63b8ff" points="1006.01,-91.77 1014.22,-85.06 1003.63,-85.19 1006.01,-91.77"/>
</g>
<!-- Node10&#45;&gt;Node4 -->
<g id="edge11" class="edge">
<title>Node10&#45;&gt;Node4</title>
<path fill="none" stroke="#63b8ff" d="M599.79,-186.73C573.06,-166.97 525.95,-132.4 508,-121 490.69,-110 470.81,-98.82 454.15,-89.83"/>
<polygon fill="#63b8ff" stroke="#63b8ff" points="455.73,-86.7 445.26,-85.07 452.43,-92.87 455.73,-86.7"/>
</g>
<!-- Node11 -->
<g id="node11" class="node">
<title>Node11</title>
<g id="a_node11"><a xlink:href="macros_8hpp.html" target="_top" xlink:title=" ">
<polygon fill="white" stroke="#666666" points="677.5,-151 560.5,-151 560.5,-121 677.5,-121 677.5,-151"/>
<text text-anchor="start" x="568.5" y="-139" font-family="Helvetica,sans-Serif" font-size="10.00">proxsuite/linalg/veg</text>
<text text-anchor="middle" x="619" y="-128" font-family="Helvetica,sans-Serif" font-size="10.00">/internal/macros.hpp</text>
</a>
</g>
</g>
<!-- Node10&#45;&gt;Node11 -->
<g id="edge12" class="edge">
<title>Node10&#45;&gt;Node11</title>
<path fill="none" stroke="#63b8ff" d="M619,-186.8C619,-179.34 619,-169.99 619,-161.41"/>
<polygon fill="#63b8ff" stroke="#63b8ff" points="622.5,-161.16 619,-151.16 615.5,-161.16 622.5,-161.16"/>
</g>
<!-- Node10&#45;&gt;Node14 -->
<g id="edge19" class="edge">
<title>Node10&#45;&gt;Node14</title>
<path fill="none" stroke="#63b8ff" d="M580.04,-186.96C535.22,-170.86 459.39,-143.75 394,-121 362.34,-109.99 326.76,-97.88 298.53,-88.33"/>
<polygon fill="#63b8ff" stroke="#63b8ff" points="299.47,-84.96 288.87,-85.07 297.23,-91.59 299.47,-84.96"/>
</g>
<!-- Node10&#45;&gt;Node16 -->
<g id="edge20" class="edge">
<title>Node10&#45;&gt;Node16</title>
<path fill="none" stroke="#63b8ff" d="M688.31,-190C727.54,-182.22 776.83,-169.76 818,-151 839.2,-141.34 839.8,-130.66 861,-121 901.32,-102.62 949.44,-90.3 988.26,-82.49"/>
<polygon fill="#63b8ff" stroke="#63b8ff" points="989.29,-85.85 998.43,-80.5 987.94,-78.98 989.29,-85.85"/>
</g>
<!-- Node11&#45;&gt;Node4 -->
<g id="edge14" class="edge">
<title>Node11&#45;&gt;Node4</title>
<path fill="none" stroke="#63b8ff" d="M574.89,-120.95C544.52,-111.28 503.99,-98.38 471.73,-88.11"/>
<polygon fill="#63b8ff" stroke="#63b8ff" points="472.6,-84.71 462.01,-85.01 470.47,-91.38 472.6,-84.71"/>
</g>
<!-- Node12 -->
<g id="node12" class="node">
<title>Node12</title>
<g id="a_node12"><a xlink:href="hedley_8ext_8hpp.html" target="_top" xlink:title=" ">
<polygon fill="white" stroke="#666666" points="673.5,-85 498.5,-85 498.5,-55 673.5,-55 673.5,-85"/>
<text text-anchor="start" x="506.5" y="-73" font-family="Helvetica,sans-Serif" font-size="10.00">proxsuite/linalg/veg</text>
<text text-anchor="middle" x="586" y="-62" font-family="Helvetica,sans-Serif" font-size="10.00">/internal/external/hedley.ext.hpp</text>
</a>
</g>
</g>
<!-- Node11&#45;&gt;Node12 -->
<g id="edge13" class="edge">
<title>Node11&#45;&gt;Node12</title>
<path fill="none" stroke="#63b8ff" d="M611.68,-120.8C607.66,-113.01 602.58,-103.16 598,-94.28"/>
<polygon fill="#63b8ff" stroke="#63b8ff" points="601,-92.45 593.3,-85.16 594.78,-95.66 601,-92.45"/>
</g>
<!-- Node13 -->
<g id="node13" class="node">
<title>Node13</title>
<g id="a_node13"><a xlink:href="preprocessor_8hpp.html" target="_top" xlink:title=" ">
<polygon fill="white" stroke="#666666" points="834.5,-85 691.5,-85 691.5,-55 834.5,-55 834.5,-85"/>
<text text-anchor="start" x="699.5" y="-73" font-family="Helvetica,sans-Serif" font-size="10.00">proxsuite/linalg/veg</text>
<text text-anchor="middle" x="763" y="-62" font-family="Helvetica,sans-Serif" font-size="10.00">/internal/preprocessor.hpp</text>
</a>
</g>
</g>
<!-- Node11&#45;&gt;Node13 -->
<g id="edge15" class="edge">
<title>Node11&#45;&gt;Node13</title>
<path fill="none" stroke="#63b8ff" d="M650.6,-120.95C671.61,-111.62 699.4,-99.27 722.09,-89.18"/>
<polygon fill="#63b8ff" stroke="#63b8ff" points="723.76,-92.27 731.47,-85.01 720.91,-85.88 723.76,-92.27"/>
</g>
<!-- Node11&#45;&gt;Node14 -->
<g id="edge16" class="edge">
<title>Node11&#45;&gt;Node14</title>
<path fill="none" stroke="#63b8ff" d="M560.47,-124.93C495.23,-113.71 389.69,-95.55 319.34,-83.45"/>
<polygon fill="#63b8ff" stroke="#63b8ff" points="319.67,-79.95 309.22,-81.71 318.49,-86.85 319.67,-79.95"/>
</g>
<!-- Node15 -->
<g id="node15" class="node">
<title>Node15</title>
<g id="a_node15"><a xlink:title=" ">
<polygon fill="#e0e0e0" stroke="#999999" points="935.5,-79.5 852.5,-79.5 852.5,-60.5 935.5,-60.5 935.5,-79.5"/>
<text text-anchor="middle" x="894" y="-67.5" font-family="Helvetica,sans-Serif" font-size="10.00">initializer_list</text>
</a>
</g>
</g>
<!-- Node11&#45;&gt;Node15 -->
<g id="edge17" class="edge">
<title>Node11&#45;&gt;Node15</title>
<path fill="none" stroke="#63b8ff" d="M677.95,-122.82C723.46,-113.19 787.92,-99.07 844,-85 847.43,-84.14 850.98,-83.22 854.53,-82.27"/>
<polygon fill="#63b8ff" stroke="#63b8ff" points="855.73,-85.57 864.46,-79.56 853.89,-78.81 855.73,-85.57"/>
</g>
<!-- Node11&#45;&gt;Node16 -->
<g id="edge18" class="edge">
<title>Node11&#45;&gt;Node16</title>
<path fill="none" stroke="#63b8ff" d="M677.56,-122.67C680.75,-122.09 683.91,-121.52 687,-121 743.34,-111.44 896.87,-91.59 988.44,-79.99"/>
<polygon fill="#63b8ff" stroke="#63b8ff" points="988.99,-83.45 998.47,-78.72 988.11,-76.5 988.99,-83.45"/>
</g>
<!-- Node19&#45;&gt;Node8 -->
<g id="edge29" class="edge">
<title>Node19&#45;&gt;Node8</title>
<path fill="none" stroke="#63b8ff" d="M846.58,-384.95C862.48,-375.87 883.38,-363.93 900.76,-354"/>
<polygon fill="#63b8ff" stroke="#63b8ff" points="902.53,-357.01 909.48,-349.01 899.06,-350.93 902.53,-357.01"/>
</g>
<!-- Node19&#45;&gt;Node9 -->
<g id="edge28" class="edge">
<title>Node19&#45;&gt;Node9</title>
<path fill="none" stroke="#63b8ff" d="M751.51,-384.89C727.15,-377.35 700.99,-365.99 681,-349 663.53,-334.16 651.76,-310.55 644.82,-292.82"/>
<polygon fill="#63b8ff" stroke="#63b8ff" points="648.01,-291.36 641.29,-283.18 641.44,-293.77 648.01,-291.36"/>
</g>
<!-- Node19&#45;&gt;Node14 -->
<g id="edge30" class="edge">
<title>Node19&#45;&gt;Node14</title>
<path fill="none" stroke="#63b8ff" d="M750.5,-393.02C631.24,-382.77 401.26,-361.72 366,-349 315.91,-330.93 298.42,-325.24 266,-283 247.17,-258.47 249.87,-247.36 244,-217 235.89,-175.07 237.03,-163.6 240,-121 240.58,-112.61 241.71,-103.48 242.9,-95.35"/>
<polygon fill="#63b8ff" stroke="#63b8ff" points="246.37,-95.8 244.45,-85.39 239.45,-94.73 246.37,-95.8"/>
</g>
<!-- Node19&#45;&gt;Node16 -->
<g id="edge31" class="edge">
<title>Node19&#45;&gt;Node16</title>
<path fill="none" stroke="#63b8ff" d="M893.51,-393.32C959.85,-386.62 1052.25,-373.21 1079,-349 1106.52,-324.09 1103,-306.12 1103,-269 1103,-269 1103,-269 1103,-201 1103,-162.18 1085.5,-119.98 1072.83,-94.51"/>
<polygon fill="#63b8ff" stroke="#63b8ff" points="1075.78,-92.59 1068.09,-85.3 1069.55,-95.8 1075.78,-92.59"/>
</g>
<!-- Node20&#45;&gt;Node8 -->
<g id="edge44" class="edge">
<title>Node20&#45;&gt;Node8</title>
<path fill="none" stroke="#63b8ff" d="M747.62,-453.01C808.38,-439.94 897.04,-420.19 903,-415 919.26,-400.84 927.05,-377.11 930.74,-359.16"/>
<polygon fill="#63b8ff" stroke="#63b8ff" points="934.22,-359.58 932.51,-349.13 927.33,-358.37 934.22,-359.58"/>
</g>
<!-- Node20&#45;&gt;Node14 -->
<g id="edge61" class="edge">
<title>Node20&#45;&gt;Node14</title>
<path fill="none" stroke="#63b8ff" d="M634.3,-463.79C499.67,-460.36 169.25,-448.6 133,-415 84.78,-370.31 61.72,-174.45 100,-121 117.27,-96.89 146.85,-84.26 174.97,-77.71"/>
<polygon fill="#63b8ff" stroke="#63b8ff" points="175.76,-81.12 184.83,-75.64 174.32,-74.27 175.76,-81.12"/>
</g>
<!-- Node20&#45;&gt;Node16 -->
<g id="edge64" class="edge">
<title>Node20&#45;&gt;Node16</title>
<path fill="none" stroke="#63b8ff" d="M747.55,-452.99C816.74,-438.3 924.91,-415.32 926,-415 1023.9,-386.54 1141,-436.96 1141,-335 1141,-335 1141,-335 1141,-201 1141,-157.33 1107.67,-116.19 1083.77,-92.31"/>
<polygon fill="#63b8ff" stroke="#63b8ff" points="1086.01,-89.61 1076.39,-85.18 1081.15,-94.64 1086.01,-89.61"/>
</g>
<!-- Node21 -->
<g id="node21" class="node">
<title>Node21</title>
<g id="a_node21"><a xlink:href="primitives_8hpp.html" target="_top" xlink:title=" ">
<polygon fill="white" stroke="#666666" points="836,-349 690,-349 690,-319 836,-319 836,-349"/>
<text text-anchor="start" x="698" y="-337" font-family="Helvetica,sans-Serif" font-size="10.00">proxsuite/linalg/veg</text>
<text text-anchor="middle" x="763" y="-326" font-family="Helvetica,sans-Serif" font-size="10.00">/type_traits/primitives.hpp</text>
</a>
</g>
</g>
<!-- Node20&#45;&gt;Node21 -->
<g id="edge35" class="edge">
<title>Node20&#45;&gt;Node21</title>
<path fill="none" stroke="#63b8ff" d="M698.84,-450.84C711.18,-428.57 735.24,-385.13 750.13,-358.23"/>
<polygon fill="#63b8ff" stroke="#63b8ff" points="753.38,-359.59 755.17,-349.14 747.26,-356.19 753.38,-359.59"/>
</g>
<!-- Node22 -->
<g id="node22" class="node">
<title>Node22</title>
<g id="a_node22"><a xlink:href="terminate_8hpp.html" target="_top" xlink:title=" ">
<polygon fill="white" stroke="#666666" points="1298.5,-151 1169.5,-151 1169.5,-121 1298.5,-121 1298.5,-151"/>
<text text-anchor="start" x="1177.5" y="-139" font-family="Helvetica,sans-Serif" font-size="10.00">proxsuite/linalg/veg</text>
<text text-anchor="middle" x="1234" y="-128" font-family="Helvetica,sans-Serif" font-size="10.00">/internal/terminate.hpp</text>
</a>
</g>
</g>
<!-- Node20&#45;&gt;Node22 -->
<g id="edge40" class="edge">
<title>Node20&#45;&gt;Node22</title>
<path fill="none" stroke="#63b8ff" d="M747.8,-452.5C750.91,-451.96 753.99,-451.45 757,-451 844.81,-437.76 1086.21,-471.17 1155,-415 1183.75,-391.52 1179,-372.12 1179,-335 1179,-335 1179,-335 1179,-267 1179,-226.84 1201.54,-184.83 1217.76,-159.79"/>
<polygon fill="#63b8ff" stroke="#63b8ff" points="1220.74,-161.62 1223.4,-151.36 1214.92,-157.73 1220.74,-161.62"/>
</g>
<!-- Node24 -->
<g id="node24" class="node">
<title>Node24</title>
<g id="a_node24"><a xlink:href="ref_8hpp.html" target="_top" xlink:title=" ">
<polygon fill="white" stroke="#666666" points="640.5,-415 527.5,-415 527.5,-385 640.5,-385 640.5,-415"/>
<text text-anchor="start" x="535.5" y="-403" font-family="Helvetica,sans-Serif" font-size="10.00">proxsuite/linalg/veg</text>
<text text-anchor="middle" x="584" y="-392" font-family="Helvetica,sans-Serif" font-size="10.00">/ref.hpp</text>
</a>
</g>
</g>
<!-- Node20&#45;&gt;Node24 -->
<g id="edge45" class="edge">
<title>Node20&#45;&gt;Node24</title>
<path fill="none" stroke="#63b8ff" d="M667.52,-450.95C652.47,-441.95 632.73,-430.14 616.22,-420.27"/>
<polygon fill="#63b8ff" stroke="#63b8ff" points="617.81,-417.14 607.43,-415.01 614.21,-423.15 617.81,-417.14"/>
</g>
<!-- Node29 -->
<g id="node29" class="node">
<title>Node29</title>
<g id="a_node29"><a xlink:title=" ">
<polygon fill="#e0e0e0" stroke="#999999" points="192,-409.5 142,-409.5 142,-390.5 192,-390.5 192,-409.5"/>
<text text-anchor="middle" x="167" y="-397.5" font-family="Helvetica,sans-Serif" font-size="10.00">cstring</text>
</a>
</g>
</g>
<!-- Node20&#45;&gt;Node29 -->
<g id="edge62" class="edge">
<title>Node20&#45;&gt;Node29</title>
<path fill="none" stroke="#63b8ff" d="M634.24,-464.49C542,-462.49 354.43,-453.55 201,-415 198.84,-414.46 196.63,-413.8 194.43,-413.07"/>
<polygon fill="#63b8ff" stroke="#63b8ff" points="195.62,-409.78 185.02,-409.55 193.16,-416.33 195.62,-409.78"/>
</g>
<!-- Node30 -->
<g id="node30" class="node">
<title>Node30</title>
<g id="a_node30"><a xlink:title=" ">
<polygon fill="#e0e0e0" stroke="#999999" points="256,-409.5 210,-409.5 210,-390.5 256,-390.5 256,-409.5"/>
<text text-anchor="middle" x="233" y="-397.5" font-family="Helvetica,sans-Serif" font-size="10.00">cstdio</text>
</a>
</g>
</g>
<!-- Node20&#45;&gt;Node30 -->
<g id="edge63" class="edge">
<title>Node20&#45;&gt;Node30</title>
<path fill="none" stroke="#63b8ff" d="M634.38,-462.65C552.82,-458.28 397.98,-446.31 270,-415 267.55,-414.4 265.04,-413.68 262.54,-412.9"/>
<polygon fill="#63b8ff" stroke="#63b8ff" points="263.67,-409.59 253.07,-409.61 261.37,-416.2 263.67,-409.59"/>
</g>
<!-- Node21&#45;&gt;Node9 -->
<g id="edge36" class="edge">
<title>Node21&#45;&gt;Node9</title>
<path fill="none" stroke="#63b8ff" d="M735.35,-318.95C717.21,-309.74 693.3,-297.6 673.59,-287.59"/>
<polygon fill="#63b8ff" stroke="#63b8ff" points="675.09,-284.42 664.59,-283.01 671.92,-290.66 675.09,-284.42"/>
</g>
<!-- Node21&#45;&gt;Node14 -->
<g id="edge37" class="edge">
<title>Node21&#45;&gt;Node14</title>
<path fill="none" stroke="#63b8ff" d="M689.97,-321.64C652.48,-313.99 606.86,-301.77 569,-283 549.72,-273.44 550.37,-262.37 531,-253 468.5,-222.78 438.95,-252.02 379,-217 364.94,-208.79 298.66,-131.88 265.7,-93.12"/>
<polygon fill="#63b8ff" stroke="#63b8ff" points="267.97,-90.38 258.83,-85.02 262.63,-94.91 267.97,-90.38"/>
</g>
<!-- Node21&#45;&gt;Node16 -->
<g id="edge39" class="edge">
<title>Node21&#45;&gt;Node16</title>
<path fill="none" stroke="#63b8ff" d="M770.5,-318.82C780.8,-300.75 801.04,-269.85 827,-253 880.17,-218.5 913.58,-254.06 965,-217 987.74,-200.61 1027.38,-131.36 1047.51,-94.43"/>
<polygon fill="#63b8ff" stroke="#63b8ff" points="1050.73,-95.83 1052.41,-85.36 1044.57,-92.5 1050.73,-95.83"/>
</g>
<!-- Node21&#45;&gt;Node18 -->
<g id="edge38" class="edge">
<title>Node21&#45;&gt;Node18</title>
<path fill="none" stroke="#63b8ff" d="M786.48,-318.95C804.5,-308.18 829.24,-293.38 847.11,-282.69"/>
<polygon fill="#63b8ff" stroke="#63b8ff" points="848.97,-285.65 855.76,-277.52 845.38,-279.65 848.97,-285.65"/>
</g>
<!-- Node22&#45;&gt;Node14 -->
<g id="edge41" class="edge">
<title>Node22&#45;&gt;Node14</title>
<path fill="none" stroke="#63b8ff" d="M1169.31,-133.19C1022.7,-128.68 654,-115.09 347,-85 337.97,-84.11 328.5,-83.01 319.14,-81.82"/>
<polygon fill="#63b8ff" stroke="#63b8ff" points="319.42,-78.33 309.05,-80.5 318.51,-85.27 319.42,-78.33"/>
</g>
<!-- Node22&#45;&gt;Node16 -->
<g id="edge43" class="edge">
<title>Node22&#45;&gt;Node16</title>
<path fill="none" stroke="#63b8ff" d="M1195.81,-120.95C1169.86,-111.41 1135.34,-98.71 1107.6,-88.51"/>
<polygon fill="#63b8ff" stroke="#63b8ff" points="1108.69,-85.18 1098.1,-85.01 1106.27,-91.75 1108.69,-85.18"/>
</g>
<!-- Node23 -->
<g id="node23" class="node">
<title>Node23</title>
<g id="a_node23"><a xlink:title=" ">
<polygon fill="#e0e0e0" stroke="#999999" points="1266.5,-79.5 1201.5,-79.5 1201.5,-60.5 1266.5,-60.5 1266.5,-79.5"/>
<text text-anchor="middle" x="1234" y="-67.5" font-family="Helvetica,sans-Serif" font-size="10.00">exception</text>
</a>
</g>
</g>
<!-- Node22&#45;&gt;Node23 -->
<g id="edge42" class="edge">
<title>Node22&#45;&gt;Node23</title>
<path fill="none" stroke="#63b8ff" d="M1234,-120.8C1234,-111.7 1234,-99.79 1234,-89.9"/>
<polygon fill="#63b8ff" stroke="#63b8ff" points="1237.5,-89.84 1234,-79.84 1230.5,-89.84 1237.5,-89.84"/>
</g>
<!-- Node24&#45;&gt;Node8 -->
<g id="edge50" class="edge">
<title>Node24&#45;&gt;Node8</title>
<path fill="none" stroke="#63b8ff" d="M640.62,-388.65C696.45,-378.44 782.54,-362.7 847.05,-350.9"/>
<polygon fill="#63b8ff" stroke="#63b8ff" points="848,-354.28 857.2,-349.04 846.74,-347.4 848,-354.28"/>
</g>
<!-- Node24&#45;&gt;Node14 -->
<g id="edge59" class="edge">
<title>Node24&#45;&gt;Node14</title>
<path fill="none" stroke="#63b8ff" d="M527.45,-399.14C435.16,-398.13 258.02,-390.65 214,-349 176.69,-313.7 152.34,-166.59 176,-121 182.59,-108.29 194.06,-98.13 205.89,-90.38"/>
<polygon fill="#63b8ff" stroke="#63b8ff" points="207.76,-93.34 214.49,-85.16 204.13,-87.35 207.76,-93.34"/>
</g>
<!-- Node24&#45;&gt;Node16 -->
<g id="edge60" class="edge">
<title>Node24&#45;&gt;Node16</title>
<path fill="none" stroke="#63b8ff" d="M640.72,-393.96C755.85,-383.53 1007.41,-359.67 1023,-349 1056.14,-326.31 1065,-309.16 1065,-269 1065,-269 1065,-269 1065,-201 1065,-164.04 1062.96,-121.22 1061.48,-95.13"/>
<polygon fill="#63b8ff" stroke="#63b8ff" points="1064.97,-94.82 1060.89,-85.04 1057.98,-95.22 1064.97,-94.82"/>
</g>
<!-- Node25 -->
<g id="node25" class="node">
<title>Node25</title>
<g id="a_node25"><a xlink:href="tags_8hpp.html" target="_top" xlink:title=" ">
<polygon fill="white" stroke="#666666" points="492.5,-349 375.5,-349 375.5,-319 492.5,-319 492.5,-349"/>
<text text-anchor="start" x="383.5" y="-337" font-family="Helvetica,sans-Serif" font-size="10.00">proxsuite/linalg/veg</text>
<text text-anchor="middle" x="434" y="-326" font-family="Helvetica,sans-Serif" font-size="10.00">/type_traits/tags.hpp</text>
</a>
</g>
</g>
<!-- Node24&#45;&gt;Node25 -->
<g id="edge46" class="edge">
<title>Node24&#45;&gt;Node25</title>
<path fill="none" stroke="#63b8ff" d="M551.08,-384.95C529.1,-375.58 499.99,-363.16 476.29,-353.05"/>
<polygon fill="#63b8ff" stroke="#63b8ff" points="477.41,-349.72 466.84,-349.01 474.67,-356.16 477.41,-349.72"/>
</g>
<!-- Node26 -->
<g id="node26" class="node">
<title>Node26</title>
<g id="a_node26"><a xlink:href="address_8hpp.html" target="_top" xlink:title=" ">
<polygon fill="white" stroke="#666666" points="633.5,-349 510.5,-349 510.5,-319 633.5,-319 633.5,-349"/>
<text text-anchor="start" x="518.5" y="-337" font-family="Helvetica,sans-Serif" font-size="10.00">proxsuite/linalg/veg</text>
<text text-anchor="middle" x="572" y="-326" font-family="Helvetica,sans-Serif" font-size="10.00">/memory/address.hpp</text>
</a>
</g>
</g>
<!-- Node24&#45;&gt;Node26 -->
<g id="edge51" class="edge">
<title>Node24&#45;&gt;Node26</title>
<path fill="none" stroke="#63b8ff" d="M581.34,-384.8C579.92,-377.26 578.15,-367.78 576.52,-359.13"/>
<polygon fill="#63b8ff" stroke="#63b8ff" points="579.94,-358.35 574.66,-349.16 573.06,-359.64 579.94,-358.35"/>
</g>
<!-- Node25&#45;&gt;Node9 -->
<g id="edge47" class="edge">
<title>Node25&#45;&gt;Node9</title>
<path fill="none" stroke="#63b8ff" d="M478.55,-318.95C509.22,-309.28 550.16,-296.38 582.73,-286.11"/>
<polygon fill="#63b8ff" stroke="#63b8ff" points="584.07,-289.36 592.55,-283.01 581.97,-282.68 584.07,-289.36"/>
</g>
<!-- Node25&#45;&gt;Node14 -->
<g id="edge48" class="edge">
<title>Node25&#45;&gt;Node14</title>
<path fill="none" stroke="#63b8ff" d="M375.19,-325.51C345.95,-318.89 312.21,-306.44 290,-283 240.71,-230.98 241.01,-138.71 244.36,-95.11"/>
<polygon fill="#63b8ff" stroke="#63b8ff" points="247.85,-95.4 245.25,-85.13 240.87,-94.78 247.85,-95.4"/>
</g>
<!-- Node25&#45;&gt;Node16 -->
<g id="edge49" class="edge">
<title>Node25&#45;&gt;Node16</title>
<path fill="none" stroke="#63b8ff" d="M433.36,-318.77C433.38,-300.64 436.4,-269.68 455,-253 535.97,-180.41 592.32,-246.42 697,-217 769.48,-196.63 786.72,-186.7 853,-151 874.16,-139.6 876.29,-131.32 898,-121 927.14,-107.15 961.02,-95.99 990.25,-87.76"/>
<polygon fill="#63b8ff" stroke="#63b8ff" points="991.26,-91.12 999.97,-85.09 989.4,-84.37 991.26,-91.12"/>
</g>
<!-- Node26&#45;&gt;Node9 -->
<g id="edge52" class="edge">
<title>Node26&#45;&gt;Node9</title>
<path fill="none" stroke="#63b8ff" d="M586.43,-318.8C594.93,-310.43 605.84,-299.68 615.36,-290.31"/>
<polygon fill="#63b8ff" stroke="#63b8ff" points="617.94,-292.67 622.61,-283.16 613.03,-287.69 617.94,-292.67"/>
</g>
<!-- Node26&#45;&gt;Node14 -->
<g id="edge56" class="edge">
<title>Node26&#45;&gt;Node14</title>
<path fill="none" stroke="#63b8ff" d="M520.16,-318.98C466.52,-302.25 383.05,-269.72 328,-217 291.32,-181.87 266.91,-126.45 255.15,-94.96"/>
<polygon fill="#63b8ff" stroke="#63b8ff" points="258.34,-93.48 251.65,-85.26 251.76,-95.85 258.34,-93.48"/>
</g>
<!-- Node26&#45;&gt;Node16 -->
<g id="edge58" class="edge">
<title>Node26&#45;&gt;Node16</title>
<path fill="none" stroke="#63b8ff" d="M622.49,-318.91C653.59,-309.75 694.06,-296.93 729,-283 757.43,-271.66 763.39,-266.22 791,-253 824.71,-236.86 835.04,-236.38 867,-217 931.53,-177.88 1000.51,-121.79 1035.93,-91.8"/>
<polygon fill="#63b8ff" stroke="#63b8ff" points="1038.44,-94.26 1043.79,-85.11 1033.9,-88.93 1038.44,-94.26"/>
</g>
<!-- Node27 -->
<g id="node27" class="node">
<title>Node27</title>
<g id="a_node27"><a xlink:href="std_8hpp.html" target="_top" xlink:title=" ">
<polygon fill="white" stroke="#666666" points="808.5,-151 695.5,-151 695.5,-121 808.5,-121 808.5,-151"/>
<text text-anchor="start" x="703.5" y="-139" font-family="Helvetica,sans-Serif" font-size="10.00">proxsuite/linalg/veg</text>
<text text-anchor="middle" x="752" y="-128" font-family="Helvetica,sans-Serif" font-size="10.00">/internal/std.hpp</text>
</a>
</g>
</g>
<!-- Node26&#45;&gt;Node27 -->
<g id="edge53" class="edge">
<title>Node26&#45;&gt;Node27</title>
<path fill="none" stroke="#63b8ff" d="M633.83,-322.03C658.84,-314.75 686.2,-302.73 705,-283 737.21,-249.2 747.34,-193.22 750.53,-161.29"/>
<polygon fill="#63b8ff" stroke="#63b8ff" points="754.04,-161.33 751.4,-151.07 747.07,-160.74 754.04,-161.33"/>
</g>
<!-- Node28 -->
<g id="node28" class="node">
<title>Node28</title>
<g id="a_node28"><a xlink:title=" ">
<polygon fill="#e0e0e0" stroke="#999999" points="522,-277.5 464,-277.5 464,-258.5 522,-258.5 522,-277.5"/>
<text text-anchor="middle" x="493" y="-265.5" font-family="Helvetica,sans-Serif" font-size="10.00">memory</text>
</a>
</g>
</g>
<!-- Node26&#45;&gt;Node28 -->
<g id="edge57" class="edge">
<title>Node26&#45;&gt;Node28</title>
<path fill="none" stroke="#63b8ff" d="M554.47,-318.8C541.79,-308.53 524.68,-294.67 511.74,-284.18"/>
<polygon fill="#63b8ff" stroke="#63b8ff" points="513.89,-281.42 503.92,-277.84 509.48,-286.86 513.89,-281.42"/>
</g>
<!-- Node27&#45;&gt;Node5 -->
<g id="edge54" class="edge">
<title>Node27&#45;&gt;Node5</title>
<path fill="none" stroke="#63b8ff" d="M808.74,-123.95C862.57,-112.9 936.49,-96 945,-85 953.16,-74.46 953.44,-65.32 945,-55 922.22,-27.13 817.42,-16.28 761.46,-12.42"/>
<polygon fill="#63b8ff" stroke="#63b8ff" points="761.49,-8.92 751.28,-11.76 761.04,-15.9 761.49,-8.92"/>
</g>
<!-- Node27&#45;&gt;Node15 -->
<g id="edge55" class="edge">
<title>Node27&#45;&gt;Node15</title>
<path fill="none" stroke="#63b8ff" d="M783.16,-120.95C807.85,-109.83 842.03,-94.42 865.88,-83.67"/>
<polygon fill="#63b8ff" stroke="#63b8ff" points="867.42,-86.82 875.1,-79.52 864.55,-80.44 867.42,-86.82"/>
</g>
</g>
</svg>
