<?xml version="1.0" encoding="UTF-8" standalone="no"?>
<!DOCTYPE svg PUBLIC "-//W3C//DTD SVG 1.1//EN"
 "http://www.w3.org/Graphics/SVG/1.1/DTD/svg11.dtd">
<!-- Generated by graphviz version 7.1.0 (20230122.1345)
 -->
<!-- Title: include/proxsuite/helpers/optional.hpp Pages: 1 -->
<svg width="448pt" height="159pt"
 viewBox="0.00 0.00 448.00 159.00" xmlns="http://www.w3.org/2000/svg" xmlns:xlink="http://www.w3.org/1999/xlink">
<g id="graph0" class="graph" transform="scale(1 1) rotate(0) translate(4 155)">
<title>include/proxsuite/helpers/optional.hpp</title>
<!-- Node1 -->
<g id="node1" class="node">
<title>Node1</title>
<g id="a_node1"><a xlink:title=" ">
<polygon fill="#999999" stroke="#666666" points="222.5,-151 82.5,-151 82.5,-121 222.5,-121 222.5,-151"/>
<text text-anchor="start" x="90.5" y="-139" font-family="Helvetica,sans-Serif" font-size="10.00">include/proxsuite/helpers</text>
<text text-anchor="middle" x="152.5" y="-128" font-family="Helvetica,sans-Serif" font-size="10.00">/optional.hpp</text>
</a>
</g>
</g>
<!-- Node2 -->
<g id="node2" class="node">
<title>Node2</title>
<g id="a_node2"><a xlink:href="fwd_8hpp.html" target="_top" xlink:title=" ">
<polygon fill="white" stroke="#666666" points="141.5,-79.5 37.5,-79.5 37.5,-60.5 141.5,-60.5 141.5,-79.5"/>
<text text-anchor="middle" x="89.5" y="-67.5" font-family="Helvetica,sans-Serif" font-size="10.00">proxsuite/fwd.hpp</text>
</a>
</g>
</g>
<!-- Node1&#45;&gt;Node2 -->
<g id="edge1" class="edge">
<title>Node1&#45;&gt;Node2</title>
<path fill="none" stroke="#63b8ff" d="M138.52,-120.8C128.99,-111.11 116.31,-98.24 106.24,-88.01"/>
<polygon fill="#63b8ff" stroke="#63b8ff" points="108.78,-85.59 99.27,-80.92 103.79,-90.5 108.78,-85.59"/>
</g>
<!-- Node4 -->
<g id="node4" class="node">
<title>Node4</title>
<g id="a_node4"><a xlink:href="tl-optional_8hpp.html" target="_top" xlink:title=" ">
<polygon fill="white" stroke="#666666" points="292,-85 181,-85 181,-55 292,-55 292,-85"/>
<text text-anchor="start" x="189" y="-73" font-family="Helvetica,sans-Serif" font-size="10.00">proxsuite/helpers/tl</text>
<text text-anchor="middle" x="236.5" y="-62" font-family="Helvetica,sans-Serif" font-size="10.00">&#45;optional.hpp</text>
</a>
</g>
</g>
<!-- Node1&#45;&gt;Node4 -->
<g id="edge3" class="edge">
<title>Node1&#45;&gt;Node4</title>
<path fill="none" stroke="#63b8ff" d="M171.14,-120.8C182.16,-112.4 196.32,-101.62 208.64,-92.23"/>
<polygon fill="#63b8ff" stroke="#63b8ff" points="210.58,-95.15 216.42,-86.3 206.34,-89.58 210.58,-95.15"/>
</g>
<!-- Node3 -->
<g id="node3" class="node">
<title>Node3</title>
<g id="a_node3"><a xlink:title=" ">
<polygon fill="#e0e0e0" stroke="#999999" points="69,-19 0,-19 0,0 69,0 69,-19"/>
<text text-anchor="middle" x="34.5" y="-7" font-family="Helvetica,sans-Serif" font-size="10.00">Eigen/Core</text>
</a>
</g>
</g>
<!-- Node2&#45;&gt;Node3 -->
<g id="edge2" class="edge">
<title>Node2&#45;&gt;Node3</title>
<path fill="none" stroke="#63b8ff" d="M81.38,-60.37C73.26,-51.73 60.54,-38.2 50.4,-27.42"/>
<polygon fill="#63b8ff" stroke="#63b8ff" points="53.09,-25.16 43.69,-20.27 47.99,-29.95 53.09,-25.16"/>
</g>
<!-- Node5 -->
<g id="node5" class="node">
<title>Node5</title>
<g id="a_node5"><a xlink:title=" ">
<polygon fill="#e0e0e0" stroke="#999999" points="152,-19 87,-19 87,0 152,0 152,-19"/>
<text text-anchor="middle" x="119.5" y="-7" font-family="Helvetica,sans-Serif" font-size="10.00">exception</text>
</a>
</g>
</g>
<!-- Node4&#45;&gt;Node5 -->
<g id="edge4" class="edge">
<title>Node4&#45;&gt;Node5</title>
<path fill="none" stroke="#63b8ff" d="M207.58,-54.54C189.22,-45.36 165.6,-33.55 147.44,-24.47"/>
<polygon fill="#63b8ff" stroke="#63b8ff" points="149.06,-21.36 138.55,-20.02 145.93,-27.63 149.06,-21.36"/>
</g>
<!-- Node6 -->
<g id="node6" class="node">
<title>Node6</title>
<g id="a_node6"><a xlink:title=" ">
<polygon fill="#e0e0e0" stroke="#999999" points="235,-19 170,-19 170,0 235,0 235,-19"/>
<text text-anchor="middle" x="202.5" y="-7" font-family="Helvetica,sans-Serif" font-size="10.00">functional</text>
</a>
</g>
</g>
<!-- Node4&#45;&gt;Node6 -->
<g id="edge5" class="edge">
<title>Node4&#45;&gt;Node6</title>
<path fill="none" stroke="#63b8ff" d="M228.1,-54.54C223.61,-46.82 218.04,-37.24 213.25,-28.99"/>
<polygon fill="#63b8ff" stroke="#63b8ff" points="216.35,-27.37 208.3,-20.48 210.3,-30.89 216.35,-27.37"/>
</g>
<!-- Node7 -->
<g id="node7" class="node">
<title>Node7</title>
<g id="a_node7"><a xlink:title=" ">
<polygon fill="#e0e0e0" stroke="#999999" points="290,-19 253,-19 253,0 290,0 290,-19"/>
<text text-anchor="middle" x="271.5" y="-7" font-family="Helvetica,sans-Serif" font-size="10.00">new</text>
</a>
</g>
</g>
<!-- Node4&#45;&gt;Node7 -->
<g id="edge6" class="edge">
<title>Node4&#45;&gt;Node7</title>
<path fill="none" stroke="#63b8ff" d="M245.15,-54.54C249.77,-46.82 255.5,-37.24 260.44,-28.99"/>
<polygon fill="#63b8ff" stroke="#63b8ff" points="263.4,-30.85 265.53,-20.47 257.39,-27.26 263.4,-30.85"/>
</g>
<!-- Node8 -->
<g id="node8" class="node">
<title>Node8</title>
<g id="a_node8"><a xlink:title=" ">
<polygon fill="#e0e0e0" stroke="#999999" points="377,-19 308,-19 308,0 377,0 377,-19"/>
<text text-anchor="middle" x="342.5" y="-7" font-family="Helvetica,sans-Serif" font-size="10.00">type_traits</text>
</a>
</g>
</g>
<!-- Node4&#45;&gt;Node8 -->
<g id="edge7" class="edge">
<title>Node4&#45;&gt;Node8</title>
<path fill="none" stroke="#63b8ff" d="M262.7,-54.54C279.1,-45.49 300.14,-33.88 316.49,-24.85"/>
<polygon fill="#63b8ff" stroke="#63b8ff" points="318.08,-27.97 325.15,-20.08 314.7,-21.85 318.08,-27.97"/>
</g>
<!-- Node9 -->
<g id="node9" class="node">
<title>Node9</title>
<g id="a_node9"><a xlink:title=" ">
<polygon fill="#e0e0e0" stroke="#999999" points="440,-19 395,-19 395,0 440,0 440,-19"/>
<text text-anchor="middle" x="417.5" y="-7" font-family="Helvetica,sans-Serif" font-size="10.00">utility</text>
</a>
</g>
</g>
<!-- Node4&#45;&gt;Node9 -->
<g id="edge8" class="edge">
<title>Node4&#45;&gt;Node9</title>
<path fill="none" stroke="#63b8ff" d="M281.24,-54.54C312.94,-44.29 354.8,-30.76 383.72,-21.42"/>
<polygon fill="#63b8ff" stroke="#63b8ff" points="384.62,-24.8 393.06,-18.4 382.47,-18.14 384.62,-24.8"/>
</g>
</g>
</svg>
