<?xml version="1.0" encoding="UTF-8" standalone="no"?>
<!DOCTYPE svg PUBLIC "-//W3C//DTD SVG 1.1//EN"
 "http://www.w3.org/Graphics/SVG/1.1/DTD/svg11.dtd">
<!-- Generated by graphviz version 7.0.6 (20230107.1202)
 -->
<!-- Title: include/proxsuite/helpers/optional.hpp Pages: 1 -->
<svg width="1019pt" height="500pt"
 viewBox="0.00 0.00 1019.06 500.00" xmlns="http://www.w3.org/2000/svg" xmlns:xlink="http://www.w3.org/1999/xlink">
<g id="graph0" class="graph" transform="scale(1 1) rotate(0) translate(4 496)">
<title>include/proxsuite/helpers/optional.hpp</title>
<!-- Node1 -->
<g id="node1" class="node">
<title>Node1</title>
<g id="a_node1"><a xlink:title=" ">
<polygon fill="#999999" stroke="#666666" points="583.5,-492 443.5,-492 443.5,-462 583.5,-462 583.5,-492"/>
<text text-anchor="start" x="451.5" y="-480" font-family="Helvetica,sans-Serif" font-size="10.00">include/proxsuite/helpers</text>
<text text-anchor="middle" x="513.5" y="-469" font-family="Helvetica,sans-Serif" font-size="10.00">/optional.hpp</text>
</a>
</g>
</g>
<!-- Node2 -->
<g id="node2" class="node">
<title>Node2</title>
<g id="a_node2"><a xlink:href="dense_2helpers_8hpp.html" target="_top" xlink:title=" ">
<polygon fill="white" stroke="#666666" points="137,-360 0,-360 0,-330 137,-330 137,-360"/>
<text text-anchor="start" x="8" y="-348" font-family="Helvetica,sans-Serif" font-size="10.00">include/proxsuite/proxqp</text>
<text text-anchor="middle" x="68.5" y="-337" font-family="Helvetica,sans-Serif" font-size="10.00">/dense/helpers.hpp</text>
</a>
</g>
</g>
<!-- Node1&#45;&gt;Node2 -->
<g id="edge1" class="edge">
<title>Node1&#45;&gt;Node2</title>
<path fill="none" stroke="#63b8ff" d="M453.21,-458.39C364.44,-432.45 200.22,-384.48 118.04,-360.47"/>
<polygon fill="#63b8ff" stroke="#63b8ff" points="452.14,-461.72 462.72,-461.17 454.11,-455 452.14,-461.72"/>
</g>
<!-- Node7 -->
<g id="node7" class="node">
<title>Node7</title>
<g id="a_node7"><a xlink:href="proxqp_2results_8hpp.html" target="_top" xlink:title=" ">
<polygon fill="white" stroke="#666666" points="582,-426 445,-426 445,-396 582,-396 582,-426"/>
<text text-anchor="start" x="453" y="-414" font-family="Helvetica,sans-Serif" font-size="10.00">include/proxsuite/proxqp</text>
<text text-anchor="middle" x="513.5" y="-403" font-family="Helvetica,sans-Serif" font-size="10.00">/results.hpp</text>
</a>
</g>
</g>
<!-- Node1&#45;&gt;Node7 -->
<g id="edge7" class="edge">
<title>Node1&#45;&gt;Node7</title>
<path fill="none" stroke="#63b8ff" d="M513.5,-450.39C513.5,-442.13 513.5,-433.28 513.5,-426.16"/>
<polygon fill="#63b8ff" stroke="#63b8ff" points="510,-450.28 513.5,-460.28 517,-450.28 510,-450.28"/>
</g>
<!-- Node17 -->
<g id="node17" class="node">
<title>Node17</title>
<g id="a_node17"><a xlink:href="sparse_2helpers_8hpp.html" target="_top" xlink:title=" ">
<polygon fill="white" stroke="#666666" points="885,-426 748,-426 748,-396 885,-396 885,-426"/>
<text text-anchor="start" x="756" y="-414" font-family="Helvetica,sans-Serif" font-size="10.00">include/proxsuite/proxqp</text>
<text text-anchor="middle" x="816.5" y="-403" font-family="Helvetica,sans-Serif" font-size="10.00">/sparse/helpers.hpp</text>
</a>
</g>
</g>
<!-- Node1&#45;&gt;Node17 -->
<g id="edge28" class="edge">
<title>Node1&#45;&gt;Node17</title>
<path fill="none" stroke="#63b8ff" d="M592.9,-459.23C641.12,-449.04 702.04,-436.18 748.11,-426.45"/>
<polygon fill="#63b8ff" stroke="#63b8ff" points="592.42,-455.75 583.36,-461.24 593.87,-462.6 592.42,-455.75"/>
</g>
<!-- Node3 -->
<g id="node3" class="node">
<title>Node3</title>
<g id="a_node3"><a xlink:href="dense_2solver_8hpp.html" target="_top" xlink:title=" ">
<polygon fill="white" stroke="#666666" points="265,-294 128,-294 128,-264 265,-264 265,-294"/>
<text text-anchor="start" x="136" y="-282" font-family="Helvetica,sans-Serif" font-size="10.00">include/proxsuite/proxqp</text>
<text text-anchor="middle" x="196.5" y="-271" font-family="Helvetica,sans-Serif" font-size="10.00">/dense/solver.hpp</text>
</a>
</g>
</g>
<!-- Node2&#45;&gt;Node3 -->
<g id="edge2" class="edge">
<title>Node2&#45;&gt;Node3</title>
<path fill="none" stroke="#63b8ff" d="M107.32,-324.59C126.82,-314.84 150.02,-303.24 167.87,-294.31"/>
<polygon fill="#63b8ff" stroke="#63b8ff" points="105.96,-321.36 98.58,-328.96 109.09,-327.62 105.96,-321.36"/>
</g>
<!-- Node4 -->
<g id="node4" class="node">
<title>Node4</title>
<g id="a_node4"><a xlink:href="proxqp_2dense_2wrapper_8hpp.html" target="_top" xlink:title=" ">
<polygon fill="white" stroke="#666666" points="237,-228 100,-228 100,-198 237,-198 237,-228"/>
<text text-anchor="start" x="108" y="-216" font-family="Helvetica,sans-Serif" font-size="10.00">include/proxsuite/proxqp</text>
<text text-anchor="middle" x="168.5" y="-205" font-family="Helvetica,sans-Serif" font-size="10.00">/dense/wrapper.hpp</text>
</a>
</g>
</g>
<!-- Node2&#45;&gt;Node4 -->
<g id="edge6" class="edge">
<title>Node2&#45;&gt;Node4</title>
<path fill="none" stroke="#63b8ff" d="M81.65,-319.89C91.04,-303.49 104.45,-281.66 118.5,-264 128.74,-251.13 141.96,-238.03 152.23,-228.47"/>
<polygon fill="#63b8ff" stroke="#63b8ff" points="78.68,-318.02 76.83,-328.45 84.78,-321.45 78.68,-318.02"/>
</g>
<!-- Node3&#45;&gt;Node4 -->
<g id="edge3" class="edge">
<title>Node3&#45;&gt;Node4</title>
<path fill="none" stroke="#63b8ff" d="M185.67,-253.25C181.95,-244.75 177.92,-235.53 174.7,-228.16"/>
<polygon fill="#63b8ff" stroke="#63b8ff" points="182.46,-254.65 189.68,-262.41 188.88,-251.85 182.46,-254.65"/>
</g>
<!-- Node5 -->
<g id="node5" class="node">
<title>Node5</title>
<g id="a_node5"><a xlink:href="dense_8hpp.html" target="_top" xlink:title=" ">
<polygon fill="white" stroke="#666666" points="224,-162 87,-162 87,-132 224,-132 224,-162"/>
<text text-anchor="start" x="95" y="-150" font-family="Helvetica,sans-Serif" font-size="10.00">include/proxsuite/proxqp</text>
<text text-anchor="middle" x="155.5" y="-139" font-family="Helvetica,sans-Serif" font-size="10.00">/dense/dense.hpp</text>
</a>
</g>
</g>
<!-- Node4&#45;&gt;Node5 -->
<g id="edge4" class="edge">
<title>Node4&#45;&gt;Node5</title>
<path fill="none" stroke="#63b8ff" d="M163.36,-186.68C161.66,-178.34 159.84,-169.37 158.38,-162.16"/>
<polygon fill="#63b8ff" stroke="#63b8ff" points="159.89,-187.21 165.31,-196.31 166.75,-185.82 159.89,-187.21"/>
</g>
<!-- Node6 -->
<g id="node6" class="node">
<title>Node6</title>
<g id="a_node6"><a xlink:href="serialization_2wrapper_8hpp.html" target="_top" xlink:title=" ">
<polygon fill="white" stroke="#666666" points="406.5,-162 242.5,-162 242.5,-132 406.5,-132 406.5,-162"/>
<text text-anchor="start" x="250.5" y="-150" font-family="Helvetica,sans-Serif" font-size="10.00">include/proxsuite/serialization</text>
<text text-anchor="middle" x="324.5" y="-139" font-family="Helvetica,sans-Serif" font-size="10.00">/wrapper.hpp</text>
</a>
</g>
</g>
<!-- Node4&#45;&gt;Node6 -->
<g id="edge5" class="edge">
<title>Node4&#45;&gt;Node6</title>
<path fill="none" stroke="#63b8ff" d="M214.14,-193.27C238.14,-183.43 267.11,-171.55 289.34,-162.43"/>
<polygon fill="#63b8ff" stroke="#63b8ff" points="212.83,-190.03 204.91,-197.06 215.49,-196.51 212.83,-190.03"/>
</g>
<!-- Node7&#45;&gt;Node2 -->
<g id="edge8" class="edge">
<title>Node7&#45;&gt;Node2</title>
<path fill="none" stroke="#63b8ff" d="M433.35,-400.16C358.7,-390.75 244.38,-375.7 145.5,-360 142.82,-359.57 140.08,-359.13 137.32,-358.67"/>
<polygon fill="#63b8ff" stroke="#63b8ff" points="432.66,-403.6 443.02,-401.38 433.54,-396.66 432.66,-403.6"/>
</g>
<!-- Node8 -->
<g id="node8" class="node">
<title>Node8</title>
<g id="a_node8"><a xlink:href="linesearch_8hpp.html" target="_top" xlink:title=" ">
<polygon fill="white" stroke="#666666" points="292,-360 155,-360 155,-330 292,-330 292,-360"/>
<text text-anchor="start" x="163" y="-348" font-family="Helvetica,sans-Serif" font-size="10.00">include/proxsuite/proxqp</text>
<text text-anchor="middle" x="223.5" y="-337" font-family="Helvetica,sans-Serif" font-size="10.00">/dense/linesearch.hpp</text>
</a>
</g>
</g>
<!-- Node7&#45;&gt;Node8 -->
<g id="edge9" class="edge">
<title>Node7&#45;&gt;Node8</title>
<path fill="none" stroke="#63b8ff" d="M436.9,-393.1C390.76,-382.91 332.64,-370.09 288.71,-360.39"/>
<polygon fill="#63b8ff" stroke="#63b8ff" points="436.06,-396.49 446.58,-395.23 437.57,-389.66 436.06,-396.49"/>
</g>
<!-- Node9 -->
<g id="node9" class="node">
<title>Node9</title>
<g id="a_node9"><a xlink:href="dense_2utils_8hpp.html" target="_top" xlink:title=" ">
<polygon fill="white" stroke="#666666" points="447,-360 310,-360 310,-330 447,-330 447,-360"/>
<text text-anchor="start" x="318" y="-348" font-family="Helvetica,sans-Serif" font-size="10.00">include/proxsuite/proxqp</text>
<text text-anchor="middle" x="378.5" y="-337" font-family="Helvetica,sans-Serif" font-size="10.00">/dense/utils.hpp</text>
</a>
</g>
</g>
<!-- Node7&#45;&gt;Node9 -->
<g id="edge11" class="edge">
<title>Node7&#45;&gt;Node9</title>
<path fill="none" stroke="#63b8ff" d="M472.84,-390.72C452.22,-380.95 427.61,-369.28 408.7,-360.31"/>
<polygon fill="#63b8ff" stroke="#63b8ff" points="471.3,-393.87 481.84,-394.99 474.3,-387.54 471.3,-393.87"/>
</g>
<!-- Node10 -->
<g id="node10" class="node">
<title>Node10</title>
<g id="a_node10"><a xlink:href="sparse_2solver_8hpp.html" target="_top" xlink:title=" ">
<polygon fill="white" stroke="#666666" points="706,-162 569,-162 569,-132 706,-132 706,-162"/>
<text text-anchor="start" x="577" y="-150" font-family="Helvetica,sans-Serif" font-size="10.00">include/proxsuite/proxqp</text>
<text text-anchor="middle" x="637.5" y="-139" font-family="Helvetica,sans-Serif" font-size="10.00">/sparse/solver.hpp</text>
</a>
</g>
</g>
<!-- Node7&#45;&gt;Node10 -->
<g id="edge13" class="edge">
<title>Node7&#45;&gt;Node10</title>
<path fill="none" stroke="#63b8ff" d="M512.32,-384.33C511.92,-354.13 514.42,-303.16 532.5,-264 552.54,-220.59 594.65,-182.04 619.02,-162.19"/>
<polygon fill="#63b8ff" stroke="#63b8ff" points="508.81,-384.12 512.57,-394.03 515.81,-383.94 508.81,-384.12"/>
</g>
<!-- Node11 -->
<g id="node11" class="node">
<title>Node11</title>
<g id="a_node11"><a xlink:href="proxqp_2sparse_2wrapper_8hpp.html" target="_top" xlink:title=" ">
<polygon fill="white" stroke="#666666" points="706,-96 569,-96 569,-66 706,-66 706,-96"/>
<text text-anchor="start" x="577" y="-84" font-family="Helvetica,sans-Serif" font-size="10.00">include/proxsuite/proxqp</text>
<text text-anchor="middle" x="637.5" y="-73" font-family="Helvetica,sans-Serif" font-size="10.00">/sparse/wrapper.hpp</text>
</a>
</g>
</g>
<!-- Node7&#45;&gt;Node11 -->
<g id="edge26" class="edge">
<title>Node7&#45;&gt;Node11</title>
<path fill="none" stroke="#63b8ff" d="M501.72,-385.29C490.56,-359.59 475.5,-317.89 475.5,-280 475.5,-280 475.5,-280 475.5,-212 475.5,-151.78 544.44,-114.81 592.37,-96.38"/>
<polygon fill="#63b8ff" stroke="#63b8ff" points="498.43,-386.53 505.73,-394.21 504.82,-383.65 498.43,-386.53"/>
</g>
<!-- Node13 -->
<g id="node13" class="node">
<title>Node13</title>
<g id="a_node13"><a xlink:href="sparse_2utils_8hpp.html" target="_top" xlink:title=" ">
<polygon fill="white" stroke="#666666" points="679,-294 542,-294 542,-264 679,-264 679,-294"/>
<text text-anchor="start" x="550" y="-282" font-family="Helvetica,sans-Serif" font-size="10.00">include/proxsuite/proxqp</text>
<text text-anchor="middle" x="610.5" y="-271" font-family="Helvetica,sans-Serif" font-size="10.00">/sparse/utils.hpp</text>
</a>
</g>
</g>
<!-- Node7&#45;&gt;Node13 -->
<g id="edge16" class="edge">
<title>Node7&#45;&gt;Node13</title>
<path fill="none" stroke="#63b8ff" d="M531.02,-386.52C551,-359.74 583.06,-316.77 599.7,-294.47"/>
<polygon fill="#63b8ff" stroke="#63b8ff" points="528.33,-384.27 525.16,-394.38 533.94,-388.46 528.33,-384.27"/>
</g>
<!-- Node14 -->
<g id="node14" class="node">
<title>Node14</title>
<g id="a_node14"><a xlink:href="sparse_2workspace_8hpp.html" target="_top" xlink:title=" ">
<polygon fill="white" stroke="#666666" points="755,-228 618,-228 618,-198 755,-198 755,-228"/>
<text text-anchor="start" x="626" y="-216" font-family="Helvetica,sans-Serif" font-size="10.00">include/proxsuite/proxqp</text>
<text text-anchor="middle" x="686.5" y="-205" font-family="Helvetica,sans-Serif" font-size="10.00">/sparse/workspace.hpp</text>
</a>
</g>
</g>
<!-- Node7&#45;&gt;Node14 -->
<g id="edge25" class="edge">
<title>Node7&#45;&gt;Node14</title>
<path fill="none" stroke="#63b8ff" d="M551.74,-390.25C598.58,-365.18 673.55,-321.84 688.5,-294 699.61,-273.31 695.18,-245.08 690.88,-228.27"/>
<polygon fill="#63b8ff" stroke="#63b8ff" points="550.17,-387.13 542.97,-394.91 553.45,-393.31 550.17,-387.13"/>
</g>
<!-- Node15 -->
<g id="node15" class="node">
<title>Node15</title>
<g id="a_node15"><a xlink:href="sparse_2views_8hpp.html" target="_top" xlink:title=" ">
<polygon fill="white" stroke="#666666" points="799,-360 662,-360 662,-330 799,-330 799,-360"/>
<text text-anchor="start" x="670" y="-348" font-family="Helvetica,sans-Serif" font-size="10.00">include/proxsuite/proxqp</text>
<text text-anchor="middle" x="730.5" y="-337" font-family="Helvetica,sans-Serif" font-size="10.00">/sparse/views.hpp</text>
</a>
</g>
</g>
<!-- Node7&#45;&gt;Node15 -->
<g id="edge21" class="edge">
<title>Node7&#45;&gt;Node15</title>
<path fill="none" stroke="#63b8ff" d="M573.24,-392.38C607.36,-382.32 649.6,-369.86 681.71,-360.39"/>
<polygon fill="#63b8ff" stroke="#63b8ff" points="572.52,-388.94 563.92,-395.13 574.5,-395.66 572.52,-388.94"/>
</g>
<!-- Node16 -->
<g id="node16" class="node">
<title>Node16</title>
<g id="a_node16"><a xlink:href="serialization_2results_8hpp.html" target="_top" xlink:title=" ">
<polygon fill="white" stroke="#666666" points="981.5,-360 817.5,-360 817.5,-330 981.5,-330 981.5,-360"/>
<text text-anchor="start" x="825.5" y="-348" font-family="Helvetica,sans-Serif" font-size="10.00">include/proxsuite/serialization</text>
<text text-anchor="middle" x="899.5" y="-337" font-family="Helvetica,sans-Serif" font-size="10.00">/results.hpp</text>
</a>
</g>
</g>
<!-- Node7&#45;&gt;Node16 -->
<g id="edge27" class="edge">
<title>Node7&#45;&gt;Node16</title>
<path fill="none" stroke="#63b8ff" d="M593.14,-396.8C658.59,-385.94 750.98,-370.62 817.16,-359.65"/>
<polygon fill="#63b8ff" stroke="#63b8ff" points="592.85,-393.3 583.56,-398.38 594,-400.2 592.85,-393.3"/>
</g>
<!-- Node8&#45;&gt;Node3 -->
<g id="edge10" class="edge">
<title>Node8&#45;&gt;Node3</title>
<path fill="none" stroke="#63b8ff" d="M213.06,-319.25C209.47,-310.75 205.58,-301.53 202.48,-294.16"/>
<polygon fill="#63b8ff" stroke="#63b8ff" points="209.81,-320.55 216.92,-328.4 216.26,-317.83 209.81,-320.55"/>
</g>
<!-- Node9&#45;&gt;Node3 -->
<g id="edge12" class="edge">
<title>Node9&#45;&gt;Node3</title>
<path fill="none" stroke="#63b8ff" d="M327.13,-325.94C298.78,-315.97 264.04,-303.75 237.52,-294.43"/>
<polygon fill="#63b8ff" stroke="#63b8ff" points="325.63,-329.12 336.23,-329.14 327.96,-322.52 325.63,-329.12"/>
</g>
<!-- Node10&#45;&gt;Node11 -->
<g id="edge14" class="edge">
<title>Node10&#45;&gt;Node11</title>
<path fill="none" stroke="#63b8ff" d="M637.5,-120.39C637.5,-112.13 637.5,-103.28 637.5,-96.16"/>
<polygon fill="#63b8ff" stroke="#63b8ff" points="634,-120.28 637.5,-130.28 641,-120.28 634,-120.28"/>
</g>
<!-- Node12 -->
<g id="node12" class="node">
<title>Node12</title>
<g id="a_node12"><a xlink:href="sparse_8hpp.html" target="_top" xlink:title=" ">
<polygon fill="white" stroke="#666666" points="706,-30 569,-30 569,0 706,0 706,-30"/>
<text text-anchor="start" x="577" y="-18" font-family="Helvetica,sans-Serif" font-size="10.00">include/proxsuite/proxqp</text>
<text text-anchor="middle" x="637.5" y="-7" font-family="Helvetica,sans-Serif" font-size="10.00">/sparse/sparse.hpp</text>
</a>
</g>
</g>
<!-- Node11&#45;&gt;Node12 -->
<g id="edge15" class="edge">
<title>Node11&#45;&gt;Node12</title>
<path fill="none" stroke="#63b8ff" d="M637.5,-54.39C637.5,-46.13 637.5,-37.28 637.5,-30.16"/>
<polygon fill="#63b8ff" stroke="#63b8ff" points="634,-54.28 637.5,-64.28 641,-54.28 634,-54.28"/>
</g>
<!-- Node13&#45;&gt;Node10 -->
<g id="edge17" class="edge">
<title>Node13&#45;&gt;Node10</title>
<path fill="none" stroke="#63b8ff" d="M606.21,-252.44C604.42,-236.51 603.73,-215.75 608.5,-198 611.99,-185.01 619.78,-171.92 626.4,-162.4"/>
<polygon fill="#63b8ff" stroke="#63b8ff" points="602.7,-252.61 607.51,-262.05 609.63,-251.67 602.7,-252.61"/>
</g>
<!-- Node13&#45;&gt;Node14 -->
<g id="edge18" class="edge">
<title>Node13&#45;&gt;Node14</title>
<path fill="none" stroke="#63b8ff" d="M630.01,-256.14C640.32,-246.97 652.92,-236.56 663.67,-228.39"/>
<polygon fill="#63b8ff" stroke="#63b8ff" points="627.78,-253.44 622.76,-262.77 632.51,-258.61 627.78,-253.44"/>
</g>
<!-- Node14&#45;&gt;Node10 -->
<g id="edge19" class="edge">
<title>Node14&#45;&gt;Node10</title>
<path fill="none" stroke="#63b8ff" d="M668.64,-188.68C661.84,-179.79 654.3,-169.95 648.34,-162.16"/>
<polygon fill="#63b8ff" stroke="#63b8ff" points="665.85,-190.78 674.71,-196.59 671.41,-186.53 665.85,-190.78"/>
</g>
<!-- Node14&#45;&gt;Node13 -->
<g id="edge20" class="edge">
<title>Node14&#45;&gt;Node13</title>
<path fill="none" stroke="#63b8ff" d="M666.97,-235.87C656.59,-245.1 643.89,-255.59 633.09,-263.8"/>
<polygon fill="#63b8ff" stroke="#63b8ff" points="669.26,-238.52 674.28,-229.19 664.54,-233.35 669.26,-238.52"/>
</g>
<!-- Node15&#45;&gt;Node10 -->
<g id="edge22" class="edge">
<title>Node15&#45;&gt;Node10</title>
<path fill="none" stroke="#63b8ff" d="M746.48,-320.34C765.04,-289.61 790.03,-235.49 764.5,-198 751.1,-178.32 728.64,-166.38 706.31,-159.15"/>
<polygon fill="#63b8ff" stroke="#63b8ff" points="743.69,-318.19 741.32,-328.52 749.62,-321.93 743.69,-318.19"/>
</g>
<!-- Node15&#45;&gt;Node13 -->
<g id="edge23" class="edge">
<title>Node15&#45;&gt;Node13</title>
<path fill="none" stroke="#63b8ff" d="M693.6,-324.32C675.43,-314.63 653.92,-303.16 637.34,-294.31"/>
<polygon fill="#63b8ff" stroke="#63b8ff" points="691.76,-327.31 702.23,-328.92 695.06,-321.13 691.76,-327.31"/>
</g>
<!-- Node15&#45;&gt;Node14 -->
<g id="edge24" class="edge">
<title>Node15&#45;&gt;Node14</title>
<path fill="none" stroke="#63b8ff" d="M730.82,-318.41C730.25,-302.33 728.08,-281.4 721.5,-264 716.48,-250.72 707.13,-237.64 699.35,-228.19"/>
<polygon fill="#63b8ff" stroke="#63b8ff" points="727.31,-318.17 730.96,-328.12 734.31,-318.07 727.31,-318.17"/>
</g>
<!-- Node17&#45;&gt;Node11 -->
<g id="edge29" class="edge">
<title>Node17&#45;&gt;Node11</title>
<path fill="none" stroke="#63b8ff" d="M896.39,-404.56C929.65,-398.29 966.13,-385.53 990.5,-360 1015.73,-333.56 1009.5,-316.54 1009.5,-280 1009.5,-280 1009.5,-280 1009.5,-212 1009.5,-148.46 813.65,-108.69 706.16,-91.64"/>
<polygon fill="#63b8ff" stroke="#63b8ff" points="896.02,-401.07 886.74,-406.2 897.19,-407.97 896.02,-401.07"/>
</g>
</g>
</svg>
