<?xml version="1.0" encoding="UTF-8" standalone="no"?>
<!DOCTYPE svg PUBLIC "-//W3C//DTD SVG 1.1//EN"
 "http://www.w3.org/Graphics/SVG/1.1/DTD/svg11.dtd">
<!-- Generated by graphviz version 6.0.1 (20220911.2005)
 -->
<!-- Title: include/proxsuite/linalg/veg/memory/placement.hpp Pages: 1 -->
<svg width="1080pt" height="489pt"
 viewBox="0.00 0.00 1080.29 489.00" xmlns="http://www.w3.org/2000/svg" xmlns:xlink="http://www.w3.org/1999/xlink">
<g id="graph0" class="graph" transform="scale(1 1) rotate(0) translate(4 485)">
<title>include/proxsuite/linalg/veg/memory/placement.hpp</title>
<!-- Node1 -->
<g id="node1" class="node">
<title>Node1</title>
<g id="a_node1"><a xlink:title=" ">
<polygon fill="#999999" stroke="#666666" points="868.29,-481 710.29,-481 710.29,-451 868.29,-451 868.29,-481"/>
<text text-anchor="start" x="718.29" y="-469" font-family="Helvetica,sans-Serif" font-size="10.00">include/proxsuite/linalg</text>
<text text-anchor="middle" x="789.29" y="-458" font-family="Helvetica,sans-Serif" font-size="10.00">/veg/memory/placement.hpp</text>
</a>
</g>
</g>
<!-- Node2 -->
<g id="node2" class="node">
<title>Node2</title>
<g id="a_node2"><a xlink:href="constructible_8hpp.html" target="_top" xlink:title=" ">
<polygon fill="white" stroke="#666666" points="818.79,-349 659.79,-349 659.79,-319 818.79,-319 818.79,-349"/>
<text text-anchor="start" x="667.79" y="-337" font-family="Helvetica,sans-Serif" font-size="10.00">proxsuite/linalg/veg</text>
<text text-anchor="middle" x="739.29" y="-326" font-family="Helvetica,sans-Serif" font-size="10.00">/type_traits/constructible.hpp</text>
</a>
</g>
</g>
<!-- Node1&#45;&gt;Node2 -->
<g id="edge1" class="edge">
<title>Node1&#45;&gt;Node2</title>
<path fill="none" stroke="#63b8ff" d="M778.76,-450.8C772.04,-441.14 763.63,-427.83 758.29,-415 750.81,-397.01 745.91,-375.46 742.96,-359.26"/>
<polygon fill="#63b8ff" stroke="#63b8ff" points="746.34,-358.29 741.22,-349.01 739.44,-359.45 746.34,-358.29"/>
</g>
<!-- Node11 -->
<g id="node11" class="node">
<title>Node11</title>
<g id="a_node11"><a xlink:href="prologue_8hpp.html" target="_top" xlink:title=" ">
<polygon fill="white" stroke="#666666" points="735.29,-85 611.29,-85 611.29,-55 735.29,-55 735.29,-85"/>
<text text-anchor="start" x="619.29" y="-73" font-family="Helvetica,sans-Serif" font-size="10.00">proxsuite/linalg/veg</text>
<text text-anchor="middle" x="673.29" y="-62" font-family="Helvetica,sans-Serif" font-size="10.00">/internal/prologue.hpp</text>
</a>
</g>
</g>
<!-- Node1&#45;&gt;Node11 -->
<g id="edge37" class="edge">
<title>Node1&#45;&gt;Node11</title>
<path fill="none" stroke="#63b8ff" d="M711.01,-450.93C649.19,-434.77 573.29,-401.42 573.29,-335 573.29,-335 573.29,-335 573.29,-201 573.29,-154.35 614.25,-114.17 643.74,-91.28"/>
<polygon fill="#63b8ff" stroke="#63b8ff" points="646.19,-93.82 652.09,-85.02 641.99,-88.22 646.19,-93.82"/>
</g>
<!-- Node13 -->
<g id="node13" class="node">
<title>Node13</title>
<g id="a_node13"><a xlink:href="epilogue_8hpp.html" target="_top" xlink:title=" ">
<polygon fill="white" stroke="#666666" points="876.79,-85 753.79,-85 753.79,-55 876.79,-55 876.79,-85"/>
<text text-anchor="start" x="761.79" y="-73" font-family="Helvetica,sans-Serif" font-size="10.00">proxsuite/linalg/veg</text>
<text text-anchor="middle" x="815.29" y="-62" font-family="Helvetica,sans-Serif" font-size="10.00">/internal/epilogue.hpp</text>
</a>
</g>
</g>
<!-- Node1&#45;&gt;Node13 -->
<g id="edge40" class="edge">
<title>Node1&#45;&gt;Node13</title>
<path fill="none" stroke="#63b8ff" d="M859.27,-450.92C918.66,-434.42 994.29,-400.53 994.29,-335 994.29,-335 994.29,-335 994.29,-201 994.29,-141.88 929.58,-106.86 877.98,-88.33"/>
<polygon fill="#63b8ff" stroke="#63b8ff" points="879.11,-85.01 868.51,-85.06 876.82,-91.63 879.11,-85.01"/>
</g>
<!-- Node14 -->
<g id="node14" class="node">
<title>Node14</title>
<g id="a_node14"><a xlink:title=" ">
<polygon fill="#e0e0e0" stroke="#999999" points="851.79,-277.5 814.79,-277.5 814.79,-258.5 851.79,-258.5 851.79,-277.5"/>
<text text-anchor="middle" x="833.29" y="-265.5" font-family="Helvetica,sans-Serif" font-size="10.00">new</text>
</a>
</g>
</g>
<!-- Node1&#45;&gt;Node14 -->
<g id="edge38" class="edge">
<title>Node1&#45;&gt;Node14</title>
<path fill="none" stroke="#63b8ff" d="M868.54,-451.2C888.34,-443.8 907.31,-432.44 919.29,-415 950.92,-368.95 888.3,-310.88 853.86,-283.96"/>
<polygon fill="#63b8ff" stroke="#63b8ff" points="855.86,-281.09 845.78,-277.82 851.62,-286.66 855.86,-281.09"/>
</g>
<!-- Node16 -->
<g id="node16" class="node">
<title>Node16</title>
<g id="a_node16"><a xlink:href="std_8hpp.html" target="_top" xlink:title=" ">
<polygon fill="white" stroke="#666666" points="123.79,-217 10.79,-217 10.79,-187 123.79,-187 123.79,-217"/>
<text text-anchor="start" x="18.79" y="-205" font-family="Helvetica,sans-Serif" font-size="10.00">proxsuite/linalg/veg</text>
<text text-anchor="middle" x="67.29" y="-194" font-family="Helvetica,sans-Serif" font-size="10.00">/internal/std.hpp</text>
</a>
</g>
</g>
<!-- Node1&#45;&gt;Node16 -->
<g id="edge23" class="edge">
<title>Node1&#45;&gt;Node16</title>
<path fill="none" stroke="#63b8ff" d="M710.23,-456.19C644.64,-448.05 549.2,-434.3 467.29,-415 373.3,-392.86 350.06,-384.58 260.29,-349 197.09,-323.95 173.97,-327.18 122.29,-283 103.7,-267.11 88.51,-243.52 78.84,-226.08"/>
<polygon fill="#63b8ff" stroke="#63b8ff" points="81.85,-224.28 74.05,-217.1 75.68,-227.57 81.85,-224.28"/>
</g>
<!-- Node17 -->
<g id="node17" class="node">
<title>Node17</title>
<g id="a_node17"><a xlink:href="invocable_8hpp.html" target="_top" xlink:title=" ">
<polygon fill="white" stroke="#666666" points="910.79,-415 767.79,-415 767.79,-385 910.79,-385 910.79,-415"/>
<text text-anchor="start" x="775.79" y="-403" font-family="Helvetica,sans-Serif" font-size="10.00">proxsuite/linalg/veg</text>
<text text-anchor="middle" x="839.29" y="-392" font-family="Helvetica,sans-Serif" font-size="10.00">/type_traits/invocable.hpp</text>
</a>
</g>
</g>
<!-- Node1&#45;&gt;Node17 -->
<g id="edge26" class="edge">
<title>Node1&#45;&gt;Node17</title>
<path fill="none" stroke="#63b8ff" d="M800.39,-450.8C806.73,-442.68 814.83,-432.31 821.99,-423.15"/>
<polygon fill="#63b8ff" stroke="#63b8ff" points="824.83,-425.2 828.23,-415.16 819.31,-420.89 824.83,-425.2"/>
</g>
<!-- Node18 -->
<g id="node18" class="node">
<title>Node18</title>
<g id="a_node18"><a xlink:href="address_8hpp.html" target="_top" xlink:title=" ">
<polygon fill="white" stroke="#666666" points="392.79,-349 269.79,-349 269.79,-319 392.79,-319 392.79,-349"/>
<text text-anchor="start" x="277.79" y="-337" font-family="Helvetica,sans-Serif" font-size="10.00">proxsuite/linalg/veg</text>
<text text-anchor="middle" x="331.29" y="-326" font-family="Helvetica,sans-Serif" font-size="10.00">/memory/address.hpp</text>
</a>
</g>
</g>
<!-- Node1&#45;&gt;Node18 -->
<g id="edge31" class="edge">
<title>Node1&#45;&gt;Node18</title>
<path fill="none" stroke="#63b8ff" d="M713.61,-450.99C668.47,-442.03 610.21,-429.41 559.29,-415 494.99,-396.8 422.42,-370.27 376.78,-352.83"/>
<polygon fill="#63b8ff" stroke="#63b8ff" points="377.77,-349.46 367.18,-349.14 375.26,-356 377.77,-349.46"/>
</g>
<!-- Node20 -->
<g id="node20" class="node">
<title>Node20</title>
<g id="a_node20"><a xlink:title=" ">
<polygon fill="#e0e0e0" stroke="#999999" points="1072.29,-409.5 1022.29,-409.5 1022.29,-390.5 1072.29,-390.5 1072.29,-409.5"/>
<text text-anchor="middle" x="1047.29" y="-397.5" font-family="Helvetica,sans-Serif" font-size="10.00">cstring</text>
</a>
</g>
</g>
<!-- Node1&#45;&gt;Node20 -->
<g id="edge39" class="edge">
<title>Node1&#45;&gt;Node20</title>
<path fill="none" stroke="#63b8ff" d="M860.86,-450.93C903.92,-441.9 959.63,-429.23 1008.29,-415 1010.57,-414.34 1012.9,-413.61 1015.24,-412.85"/>
<polygon fill="#63b8ff" stroke="#63b8ff" points="1016.42,-416.15 1024.76,-409.61 1014.17,-409.52 1016.42,-416.15"/>
</g>
<!-- Node3 -->
<g id="node3" class="node">
<title>Node3</title>
<g id="a_node3"><a xlink:href="veg_2type__traits_2core_8hpp.html" target="_top" xlink:title=" ">
<polygon fill="white" stroke="#666666" points="544.79,-283 427.79,-283 427.79,-253 544.79,-253 544.79,-283"/>
<text text-anchor="start" x="435.79" y="-271" font-family="Helvetica,sans-Serif" font-size="10.00">proxsuite/linalg/veg</text>
<text text-anchor="middle" x="486.29" y="-260" font-family="Helvetica,sans-Serif" font-size="10.00">/type_traits/core.hpp</text>
</a>
</g>
</g>
<!-- Node2&#45;&gt;Node3 -->
<g id="edge2" class="edge">
<title>Node2&#45;&gt;Node3</title>
<path fill="none" stroke="#63b8ff" d="M683.77,-318.95C644.8,-309.1 592.54,-295.88 551.58,-285.51"/>
<polygon fill="#63b8ff" stroke="#63b8ff" points="552.24,-282.07 541.69,-283.01 550.52,-288.86 552.24,-282.07"/>
</g>
<!-- Node2&#45;&gt;Node11 -->
<g id="edge19" class="edge">
<title>Node2&#45;&gt;Node11</title>
<path fill="none" stroke="#63b8ff" d="M713.75,-318.89C700.95,-310.33 686.64,-298.12 679.29,-283 649.09,-220.83 659.96,-135.84 667.9,-94.93"/>
<polygon fill="#63b8ff" stroke="#63b8ff" points="671.34,-95.56 669.93,-85.06 664.49,-94.15 671.34,-95.56"/>
</g>
<!-- Node2&#45;&gt;Node13 -->
<g id="edge22" class="edge">
<title>Node2&#45;&gt;Node13</title>
<path fill="none" stroke="#63b8ff" d="M748.4,-318.61C754.23,-308.88 761.55,-295.55 766.29,-283 791.12,-217.27 805.74,-135.13 811.88,-95.13"/>
<polygon fill="#63b8ff" stroke="#63b8ff" points="815.37,-95.42 813.38,-85.02 808.45,-94.39 815.37,-95.42"/>
</g>
<!-- Node2&#45;&gt;Node14 -->
<g id="edge20" class="edge">
<title>Node2&#45;&gt;Node14</title>
<path fill="none" stroke="#63b8ff" d="M760.16,-318.8C775.62,-308.27 796.62,-293.97 812.15,-283.4"/>
<polygon fill="#63b8ff" stroke="#63b8ff" points="814.28,-286.18 820.58,-277.66 810.34,-280.39 814.28,-286.18"/>
</g>
<!-- Node15 -->
<g id="node15" class="node">
<title>Node15</title>
<g id="a_node15"><a xlink:title=" ">
<polygon fill="#e0e0e0" stroke="#999999" points="757.79,-277.5 688.79,-277.5 688.79,-258.5 757.79,-258.5 757.79,-277.5"/>
<text text-anchor="middle" x="723.29" y="-265.5" font-family="Helvetica,sans-Serif" font-size="10.00">type_traits</text>
</a>
</g>
</g>
<!-- Node2&#45;&gt;Node15 -->
<g id="edge21" class="edge">
<title>Node2&#45;&gt;Node15</title>
<path fill="none" stroke="#63b8ff" d="M735.74,-318.8C733.44,-309.6 730.43,-297.53 727.94,-287.58"/>
<polygon fill="#63b8ff" stroke="#63b8ff" points="731.33,-286.7 725.5,-277.84 724.53,-288.39 731.33,-286.7"/>
</g>
<!-- Node4 -->
<g id="node4" class="node">
<title>Node4</title>
<g id="a_node4"><a xlink:href="typedefs_8hpp.html" target="_top" xlink:title=" ">
<polygon fill="white" stroke="#666666" points="238.29,-85 114.29,-85 114.29,-55 238.29,-55 238.29,-85"/>
<text text-anchor="start" x="122.29" y="-73" font-family="Helvetica,sans-Serif" font-size="10.00">proxsuite/linalg/veg</text>
<text text-anchor="middle" x="176.29" y="-62" font-family="Helvetica,sans-Serif" font-size="10.00">/internal/typedefs.hpp</text>
</a>
</g>
</g>
<!-- Node3&#45;&gt;Node4 -->
<g id="edge3" class="edge">
<title>Node3&#45;&gt;Node4</title>
<path fill="none" stroke="#63b8ff" d="M427.59,-255.13C368.55,-240.32 278.55,-209.49 223.29,-151 207.57,-134.36 194.82,-111.54 186.59,-94.53"/>
<polygon fill="#63b8ff" stroke="#63b8ff" points="189.67,-92.86 182.28,-85.28 183.33,-95.82 189.67,-92.86"/>
</g>
<!-- Node7 -->
<g id="node7" class="node">
<title>Node7</title>
<g id="a_node7"><a xlink:href="integer__seq_8hpp.html" target="_top" xlink:title=" ">
<polygon fill="white" stroke="#666666" points="469.29,-217 331.29,-217 331.29,-187 469.29,-187 469.29,-217"/>
<text text-anchor="start" x="339.29" y="-205" font-family="Helvetica,sans-Serif" font-size="10.00">proxsuite/linalg/veg</text>
<text text-anchor="middle" x="400.29" y="-194" font-family="Helvetica,sans-Serif" font-size="10.00">/internal/integer_seq.hpp</text>
</a>
</g>
</g>
<!-- Node3&#45;&gt;Node7 -->
<g id="edge6" class="edge">
<title>Node3&#45;&gt;Node7</title>
<path fill="none" stroke="#63b8ff" d="M467.21,-252.8C455.52,-244.1 440.37,-232.82 427.44,-223.2"/>
<polygon fill="#63b8ff" stroke="#63b8ff" points="429.44,-220.33 419.33,-217.16 425.26,-225.94 429.44,-220.33"/>
</g>
<!-- Node3&#45;&gt;Node11 -->
<g id="edge17" class="edge">
<title>Node3&#45;&gt;Node11</title>
<path fill="none" stroke="#63b8ff" d="M489.93,-252.57C497.85,-223.86 519.25,-159.08 559.29,-121 574.16,-106.86 593.69,-96.33 612.37,-88.68"/>
<polygon fill="#63b8ff" stroke="#63b8ff" points="613.68,-91.92 621.74,-85.04 611.15,-85.4 613.68,-91.92"/>
</g>
<!-- Node3&#45;&gt;Node13 -->
<g id="edge18" class="edge">
<title>Node3&#45;&gt;Node13</title>
<path fill="none" stroke="#63b8ff" d="M496.54,-252.99C518.57,-223.89 573.49,-156.64 635.29,-121 654.02,-110.2 702.06,-97.09 743.8,-87"/>
<polygon fill="#63b8ff" stroke="#63b8ff" points="744.78,-90.37 753.7,-84.64 743.16,-83.56 744.78,-90.37"/>
</g>
<!-- Node5 -->
<g id="node5" class="node">
<title>Node5</title>
<g id="a_node5"><a xlink:title=" ">
<polygon fill="#e0e0e0" stroke="#999999" points="70.29,-19 20.29,-19 20.29,0 70.29,0 70.29,-19"/>
<text text-anchor="middle" x="45.29" y="-7" font-family="Helvetica,sans-Serif" font-size="10.00">cstdint</text>
</a>
</g>
</g>
<!-- Node4&#45;&gt;Node5 -->
<g id="edge4" class="edge">
<title>Node4&#45;&gt;Node5</title>
<path fill="none" stroke="#63b8ff" d="M144.92,-54.99C123.35,-45.36 94.94,-32.67 73.98,-23.31"/>
<polygon fill="#63b8ff" stroke="#63b8ff" points="75.2,-20.02 64.64,-19.14 72.34,-26.41 75.2,-20.02"/>
</g>
<!-- Node6 -->
<g id="node6" class="node">
<title>Node6</title>
<g id="a_node6"><a xlink:title=" ">
<polygon fill="#e0e0e0" stroke="#999999" points="202.79,-19 149.79,-19 149.79,0 202.79,0 202.79,-19"/>
<text text-anchor="middle" x="176.29" y="-7" font-family="Helvetica,sans-Serif" font-size="10.00">cstddef</text>
</a>
</g>
</g>
<!-- Node4&#45;&gt;Node6 -->
<g id="edge5" class="edge">
<title>Node4&#45;&gt;Node6</title>
<path fill="none" stroke="#63b8ff" d="M176.29,-54.84C176.29,-47.21 176.29,-37.7 176.29,-29.45"/>
<polygon fill="#63b8ff" stroke="#63b8ff" points="179.79,-29.27 176.29,-19.27 172.79,-29.27 179.79,-29.27"/>
</g>
<!-- Node7&#45;&gt;Node4 -->
<g id="edge7" class="edge">
<title>Node7&#45;&gt;Node4</title>
<path fill="none" stroke="#63b8ff" d="M349.6,-186.98C323.64,-178.61 292.14,-166.56 266.29,-151 239.58,-134.92 213.44,-110.42 196.28,-92.77"/>
<polygon fill="#63b8ff" stroke="#63b8ff" points="198.49,-90.02 189.05,-85.2 193.42,-94.85 198.49,-90.02"/>
</g>
<!-- Node8 -->
<g id="node8" class="node">
<title>Node8</title>
<g id="a_node8"><a xlink:href="macros_8hpp.html" target="_top" xlink:title=" ">
<polygon fill="white" stroke="#666666" points="392.79,-151 275.79,-151 275.79,-121 392.79,-121 392.79,-151"/>
<text text-anchor="start" x="283.79" y="-139" font-family="Helvetica,sans-Serif" font-size="10.00">proxsuite/linalg/veg</text>
<text text-anchor="middle" x="334.29" y="-128" font-family="Helvetica,sans-Serif" font-size="10.00">/internal/macros.hpp</text>
</a>
</g>
</g>
<!-- Node7&#45;&gt;Node8 -->
<g id="edge8" class="edge">
<title>Node7&#45;&gt;Node8</title>
<path fill="none" stroke="#63b8ff" d="M385.65,-186.8C377.02,-178.43 365.93,-167.68 356.27,-158.31"/>
<polygon fill="#63b8ff" stroke="#63b8ff" points="358.52,-155.61 348.9,-151.16 353.64,-160.64 358.52,-155.61"/>
</g>
<!-- Node7&#45;&gt;Node11 -->
<g id="edge15" class="edge">
<title>Node7&#45;&gt;Node11</title>
<path fill="none" stroke="#63b8ff" d="M411.04,-186.89C425.5,-168.89 452.94,-138.07 483.29,-121 503.61,-109.58 556.38,-96.1 601.17,-86.02"/>
<polygon fill="#63b8ff" stroke="#63b8ff" points="602.17,-89.38 611.18,-83.79 600.65,-82.55 602.17,-89.38"/>
</g>
<!-- Node7&#45;&gt;Node13 -->
<g id="edge16" class="edge">
<title>Node7&#45;&gt;Node13</title>
<path fill="none" stroke="#63b8ff" d="M430.45,-186.98C468.63,-169.65 536.74,-140.1 597.29,-121 624.25,-112.49 691.08,-97.49 743.69,-86.13"/>
<polygon fill="#63b8ff" stroke="#63b8ff" points="744.63,-89.51 753.67,-83.98 743.16,-82.66 744.63,-89.51"/>
</g>
<!-- Node8&#45;&gt;Node4 -->
<g id="edge10" class="edge">
<title>Node8&#45;&gt;Node4</title>
<path fill="none" stroke="#63b8ff" d="M299.62,-120.95C276.26,-111.49 245.26,-98.93 220.18,-88.78"/>
<polygon fill="#63b8ff" stroke="#63b8ff" points="221.47,-85.52 210.89,-85.01 218.84,-92.01 221.47,-85.52"/>
</g>
<!-- Node9 -->
<g id="node9" class="node">
<title>Node9</title>
<g id="a_node9"><a xlink:href="hedley_8ext_8hpp.html" target="_top" xlink:title=" ">
<polygon fill="white" stroke="#666666" points="592.79,-85 417.79,-85 417.79,-55 592.79,-55 592.79,-85"/>
<text text-anchor="start" x="425.79" y="-73" font-family="Helvetica,sans-Serif" font-size="10.00">proxsuite/linalg/veg</text>
<text text-anchor="middle" x="505.29" y="-62" font-family="Helvetica,sans-Serif" font-size="10.00">/internal/external/hedley.ext.hpp</text>
</a>
</g>
</g>
<!-- Node8&#45;&gt;Node9 -->
<g id="edge9" class="edge">
<title>Node8&#45;&gt;Node9</title>
<path fill="none" stroke="#63b8ff" d="M371.82,-120.95C397.21,-111.45 430.95,-98.82 458.16,-88.64"/>
<polygon fill="#63b8ff" stroke="#63b8ff" points="459.72,-91.8 467.85,-85.01 457.26,-85.24 459.72,-91.8"/>
</g>
<!-- Node10 -->
<g id="node10" class="node">
<title>Node10</title>
<g id="a_node10"><a xlink:href="preprocessor_8hpp.html" target="_top" xlink:title=" ">
<polygon fill="white" stroke="#666666" points="399.79,-85 256.79,-85 256.79,-55 399.79,-55 399.79,-85"/>
<text text-anchor="start" x="264.79" y="-73" font-family="Helvetica,sans-Serif" font-size="10.00">proxsuite/linalg/veg</text>
<text text-anchor="middle" x="328.29" y="-62" font-family="Helvetica,sans-Serif" font-size="10.00">/internal/preprocessor.hpp</text>
</a>
</g>
</g>
<!-- Node8&#45;&gt;Node10 -->
<g id="edge11" class="edge">
<title>Node8&#45;&gt;Node10</title>
<path fill="none" stroke="#63b8ff" d="M332.96,-120.8C332.25,-113.26 331.37,-103.78 330.56,-95.13"/>
<polygon fill="#63b8ff" stroke="#63b8ff" points="334.04,-94.79 329.62,-85.16 327.07,-95.45 334.04,-94.79"/>
</g>
<!-- Node8&#45;&gt;Node11 -->
<g id="edge12" class="edge">
<title>Node8&#45;&gt;Node11</title>
<path fill="none" stroke="#63b8ff" d="M392.86,-123.74C397.74,-122.81 402.6,-121.89 407.29,-121 493.47,-104.74 515.14,-101.37 601.29,-85 601.4,-84.98 601.5,-84.96 601.6,-84.94"/>
<polygon fill="#63b8ff" stroke="#63b8ff" points="602.08,-88.41 611.25,-83.1 600.77,-81.54 602.08,-88.41"/>
</g>
<!-- Node12 -->
<g id="node12" class="node">
<title>Node12</title>
<g id="a_node12"><a xlink:title=" ">
<polygon fill="#e0e0e0" stroke="#999999" points="95.79,-79.5 12.79,-79.5 12.79,-60.5 95.79,-60.5 95.79,-79.5"/>
<text text-anchor="middle" x="54.29" y="-67.5" font-family="Helvetica,sans-Serif" font-size="10.00">initializer_list</text>
</a>
</g>
</g>
<!-- Node8&#45;&gt;Node12 -->
<g id="edge13" class="edge">
<title>Node8&#45;&gt;Node12</title>
<path fill="none" stroke="#63b8ff" d="M275.74,-123.11C229.35,-113.47 162.98,-99.21 105.29,-85 101.69,-84.11 97.96,-83.16 94.23,-82.18"/>
<polygon fill="#63b8ff" stroke="#63b8ff" points="94.99,-78.76 84.43,-79.56 93.18,-85.52 94.99,-78.76"/>
</g>
<!-- Node8&#45;&gt;Node13 -->
<g id="edge14" class="edge">
<title>Node8&#45;&gt;Node13</title>
<path fill="none" stroke="#63b8ff" d="M392.87,-129.22C470.58,-121.25 612.24,-105.68 743.53,-85.04"/>
<polygon fill="#63b8ff" stroke="#63b8ff" points="744.44,-88.44 753.77,-83.42 743.34,-81.53 744.44,-88.44"/>
</g>
<!-- Node16&#45;&gt;Node5 -->
<g id="edge24" class="edge">
<title>Node16&#45;&gt;Node5</title>
<path fill="none" stroke="#63b8ff" d="M56.19,-186.65C40.76,-165.7 13.56,-124.87 3.29,-85 -0.03,-72.09 -1.63,-67.39 3.29,-55 7.81,-43.63 16.77,-33.48 25.25,-25.76"/>
<polygon fill="#63b8ff" stroke="#63b8ff" points="27.71,-28.27 33.08,-19.14 23.19,-22.92 27.71,-28.27"/>
</g>
<!-- Node16&#45;&gt;Node12 -->
<g id="edge25" class="edge">
<title>Node16&#45;&gt;Node12</title>
<path fill="none" stroke="#63b8ff" d="M65.88,-186.84C63.53,-163.34 58.82,-116.26 56.19,-89.93"/>
<polygon fill="#63b8ff" stroke="#63b8ff" points="59.65,-89.35 55.17,-79.75 52.68,-90.05 59.65,-89.35"/>
</g>
<!-- Node17&#45;&gt;Node2 -->
<g id="edge28" class="edge">
<title>Node17&#45;&gt;Node2</title>
<path fill="none" stroke="#63b8ff" d="M817.1,-384.8C803.25,-375.93 785.22,-364.39 770,-354.66"/>
<polygon fill="#63b8ff" stroke="#63b8ff" points="771.73,-351.61 761.42,-349.16 767.96,-357.5 771.73,-351.61"/>
</g>
<!-- Node17&#45;&gt;Node3 -->
<g id="edge27" class="edge">
<title>Node17&#45;&gt;Node3</title>
<path fill="none" stroke="#63b8ff" d="M773.59,-384.95C736.79,-376.26 690.37,-363.91 650.29,-349 603.81,-331.7 552.85,-305.65 520.27,-288.01"/>
<polygon fill="#63b8ff" stroke="#63b8ff" points="521.64,-284.77 511.18,-283.05 518.28,-290.91 521.64,-284.77"/>
</g>
<!-- Node17&#45;&gt;Node11 -->
<g id="edge29" class="edge">
<title>Node17&#45;&gt;Node11</title>
<path fill="none" stroke="#63b8ff" d="M846.16,-384.68C858.04,-357.77 879.42,-298.3 860.29,-253 828.83,-178.46 750.25,-119.35 705.61,-90.41"/>
<polygon fill="#63b8ff" stroke="#63b8ff" points="707.48,-87.45 697.16,-85.03 703.72,-93.35 707.48,-87.45"/>
</g>
<!-- Node17&#45;&gt;Node13 -->
<g id="edge30" class="edge">
<title>Node17&#45;&gt;Node13</title>
<path fill="none" stroke="#63b8ff" d="M859.65,-384.9C871.31,-375.87 885.35,-363.19 894.29,-349 914.08,-317.59 918.29,-306.12 918.29,-269 918.29,-269 918.29,-269 918.29,-201 918.29,-153.76 875.98,-113.67 845.6,-90.97"/>
<polygon fill="#63b8ff" stroke="#63b8ff" points="847.54,-88.06 837.39,-85.04 843.44,-93.74 847.54,-88.06"/>
</g>
<!-- Node18&#45;&gt;Node3 -->
<g id="edge32" class="edge">
<title>Node18&#45;&gt;Node3</title>
<path fill="none" stroke="#63b8ff" d="M365.31,-318.95C388.12,-309.53 418.37,-297.04 442.92,-286.91"/>
<polygon fill="#63b8ff" stroke="#63b8ff" points="444.45,-290.06 452.36,-283.01 441.78,-283.59 444.45,-290.06"/>
</g>
<!-- Node18&#45;&gt;Node11 -->
<g id="edge34" class="edge">
<title>Node18&#45;&gt;Node11</title>
<path fill="none" stroke="#63b8ff" d="M325.28,-318.75C314.55,-290.91 295.64,-228.44 322.29,-187 343.17,-154.55 368,-170.49 401.29,-151 420.78,-139.59 421.7,-130.26 442.29,-121 456.83,-114.47 538.79,-97.45 600.99,-85.08"/>
<polygon fill="#63b8ff" stroke="#63b8ff" points="602.05,-88.44 611.18,-83.06 600.69,-81.57 602.05,-88.44"/>
</g>
<!-- Node18&#45;&gt;Node13 -->
<g id="edge36" class="edge">
<title>Node18&#45;&gt;Node13</title>
<path fill="none" stroke="#63b8ff" d="M393.15,-326.77C439.13,-320.34 502.44,-307.62 553.29,-283 656.17,-233.19 754.59,-135.96 795.46,-92.68"/>
<polygon fill="#63b8ff" stroke="#63b8ff" points="798.14,-94.94 802.41,-85.25 793.02,-90.16 798.14,-94.94"/>
</g>
<!-- Node18&#45;&gt;Node16 -->
<g id="edge33" class="edge">
<title>Node18&#45;&gt;Node16</title>
<path fill="none" stroke="#63b8ff" d="M269.62,-319.41C238.76,-311.24 201.43,-299.24 170.29,-283 139.77,-267.08 109.17,-241.85 89.35,-223.98"/>
<polygon fill="#63b8ff" stroke="#63b8ff" points="91.54,-221.24 81.8,-217.06 86.81,-226.4 91.54,-221.24"/>
</g>
<!-- Node19 -->
<g id="node19" class="node">
<title>Node19</title>
<g id="a_node19"><a xlink:title=" ">
<polygon fill="#e0e0e0" stroke="#999999" points="237.29,-277.5 179.29,-277.5 179.29,-258.5 237.29,-258.5 237.29,-277.5"/>
<text text-anchor="middle" x="208.29" y="-265.5" font-family="Helvetica,sans-Serif" font-size="10.00">memory</text>
</a>
</g>
</g>
<!-- Node18&#45;&gt;Node19 -->
<g id="edge35" class="edge">
<title>Node18&#45;&gt;Node19</title>
<path fill="none" stroke="#63b8ff" d="M304.3,-318.95C283.3,-308.03 254.36,-292.97 233.76,-282.25"/>
<polygon fill="#63b8ff" stroke="#63b8ff" points="235.15,-279.03 224.66,-277.52 231.92,-285.24 235.15,-279.03"/>
</g>
</g>
</svg>
