<?xml version="1.0" encoding="UTF-8" standalone="no"?>
<!DOCTYPE svg PUBLIC "-//W3C//DTD SVG 1.1//EN"
 "http://www.w3.org/Graphics/SVG/1.1/DTD/svg11.dtd">
<!-- Generated by graphviz version 8.1.0 (20230707.2238)
 -->
<!-- Title: include/proxsuite/linalg/veg/memory/placement.hpp Pages: 1 -->
<svg width="1073pt" height="515pt"
 viewBox="0.00 0.00 1073.10 515.25" xmlns="http://www.w3.org/2000/svg" xmlns:xlink="http://www.w3.org/1999/xlink">
<g id="graph0" class="graph" transform="scale(1 1) rotate(0) translate(4 511.25)">
<title>include/proxsuite/linalg/veg/memory/placement.hpp</title>
<!-- Node1 -->
<g id="Node000001" class="node">
<title>Node1</title>
<g id="a_Node000001"><a xlink:title=" ">
<polygon fill="#999999" stroke="#666666" points="863.1,-507.25 706.1,-507.25 706.1,-473.75 863.1,-473.75 863.1,-507.25"/>
<text text-anchor="start" x="714.1" y="-493.75" font-family="Helvetica,sans-Serif" font-size="10.00">include/proxsuite/linalg</text>
<text text-anchor="middle" x="784.6" y="-481" font-family="Helvetica,sans-Serif" font-size="10.00">/veg/memory/placement.hpp</text>
</a>
</g>
</g>
<!-- Node2 -->
<g id="Node000002" class="node">
<title>Node2</title>
<g id="a_Node000002"><a xlink:href="constructible_8hpp.html" target="_top" xlink:title=" ">
<polygon fill="white" stroke="#666666" points="814.85,-368.25 656.35,-368.25 656.35,-334.75 814.85,-334.75 814.85,-368.25"/>
<text text-anchor="start" x="664.35" y="-354.75" font-family="Helvetica,sans-Serif" font-size="10.00">proxsuite/linalg/veg</text>
<text text-anchor="middle" x="735.6" y="-342" font-family="Helvetica,sans-Serif" font-size="10.00">/type_traits/constructible.hpp</text>
</a>
</g>
</g>
<!-- Node1&#45;&gt;Node2 -->
<g id="edge1_Node000001_Node000002" class="edge">
<title>Node1&#45;&gt;Node2</title>
<g id="a_edge1_Node000001_Node000002"><a xlink:title=" ">
<path fill="none" stroke="#63b8ff" d="M773.52,-473.37C767.17,-463.47 759.51,-450.33 754.6,-437.75 747.18,-418.75 742.31,-396.17 739.36,-379.03"/>
<polygon fill="#63b8ff" stroke="#63b8ff" points="742.73,-378.96 737.69,-369.64 735.82,-380.07 742.73,-378.96"/>
</a>
</g>
</g>
<!-- Node11 -->
<g id="Node000011" class="node">
<title>Node11</title>
<g id="a_Node000011"><a xlink:href="prologue_8hpp.html" target="_top" xlink:title=" ">
<polygon fill="white" stroke="#666666" points="731.22,-90.25 607.97,-90.25 607.97,-56.75 731.22,-56.75 731.22,-90.25"/>
<text text-anchor="start" x="615.97" y="-76.75" font-family="Helvetica,sans-Serif" font-size="10.00">proxsuite/linalg/veg</text>
<text text-anchor="middle" x="669.6" y="-64" font-family="Helvetica,sans-Serif" font-size="10.00">/internal/prologue.hpp</text>
</a>
</g>
</g>
<!-- Node1&#45;&gt;Node11 -->
<g id="edge37_Node000001_Node000011" class="edge">
<title>Node1&#45;&gt;Node11</title>
<g id="a_edge37_Node000001_Node000011"><a xlink:title=" ">
<path fill="none" stroke="#63b8ff" d="M706.67,-473.26C645.15,-455.34 569.6,-419.66 569.6,-352.5 569.6,-352.5 569.6,-352.5 569.6,-211.5 569.6,-164.06 609.2,-122.08 638.56,-97.47"/>
<polygon fill="#63b8ff" stroke="#63b8ff" points="640.34,-99.71 645.91,-90.7 635.94,-94.28 640.34,-99.71"/>
</a>
</g>
</g>
<!-- Node13 -->
<g id="Node000013" class="node">
<title>Node13</title>
<g id="a_Node000013"><a xlink:href="epilogue_8hpp.html" target="_top" xlink:title=" ">
<polygon fill="white" stroke="#666666" points="871.85,-90.25 749.35,-90.25 749.35,-56.75 871.85,-56.75 871.85,-90.25"/>
<text text-anchor="start" x="757.35" y="-76.75" font-family="Helvetica,sans-Serif" font-size="10.00">proxsuite/linalg/veg</text>
<text text-anchor="middle" x="810.6" y="-64" font-family="Helvetica,sans-Serif" font-size="10.00">/internal/epilogue.hpp</text>
</a>
</g>
</g>
<!-- Node1&#45;&gt;Node13 -->
<g id="edge40_Node000001_Node000013" class="edge">
<title>Node1&#45;&gt;Node13</title>
<g id="a_edge40_Node000001_Node000013"><a xlink:title=" ">
<path fill="none" stroke="#63b8ff" d="M862.31,-473.26C886.89,-465.44 913,-454.08 933.6,-437.75 968.75,-409.89 987.6,-397.35 987.6,-352.5 987.6,-352.5 987.6,-352.5 987.6,-211.5 987.6,-152.3 924.92,-115.04 874.16,-94.58"/>
<polygon fill="#63b8ff" stroke="#63b8ff" points="875.77,-91.06 865.19,-90.71 873.24,-97.59 875.77,-91.06"/>
</a>
</g>
</g>
<!-- Node14 -->
<g id="Node000014" class="node">
<title>Node14</title>
<g id="a_Node000014"><a xlink:title=" ">
<polygon fill="#e0e0e0" stroke="#999999" points="845.72,-292.38 809.47,-292.38 809.47,-271.62 845.72,-271.62 845.72,-292.38"/>
<text text-anchor="middle" x="827.6" y="-278.88" font-family="Helvetica,sans-Serif" font-size="10.00">new</text>
</a>
</g>
</g>
<!-- Node1&#45;&gt;Node14 -->
<g id="edge38_Node000001_Node000014" class="edge">
<title>Node1&#45;&gt;Node14</title>
<g id="a_edge38_Node000001_Node000014"><a xlink:title=" ">
<path fill="none" stroke="#63b8ff" d="M863.57,-474.75C883.49,-467.09 902.6,-455.44 914.6,-437.75 947.29,-389.54 884.3,-328.18 849.09,-299.35"/>
<polygon fill="#63b8ff" stroke="#63b8ff" points="851.81,-296.25 841.8,-292.75 847.44,-301.72 851.81,-296.25"/>
</a>
</g>
</g>
<!-- Node16 -->
<g id="Node000016" class="node">
<title>Node16</title>
<g id="a_Node000016"><a xlink:href="std_8hpp.html" target="_top" xlink:title=" ">
<polygon fill="white" stroke="#666666" points="122.97,-229.25 10.22,-229.25 10.22,-195.75 122.97,-195.75 122.97,-229.25"/>
<text text-anchor="start" x="18.22" y="-215.75" font-family="Helvetica,sans-Serif" font-size="10.00">proxsuite/linalg/veg</text>
<text text-anchor="middle" x="66.6" y="-203" font-family="Helvetica,sans-Serif" font-size="10.00">/internal/std.hpp</text>
</a>
</g>
</g>
<!-- Node1&#45;&gt;Node16 -->
<g id="edge23_Node000001_Node000016" class="edge">
<title>Node1&#45;&gt;Node16</title>
<g id="a_edge23_Node000001_Node000016"><a xlink:title=" ">
<path fill="none" stroke="#63b8ff" d="M705.84,-481.05C639.11,-472.94 541.21,-458.79 457.6,-437.75 366.75,-414.89 345.05,-404.35 258.6,-368.25 193.76,-341.17 168.12,-346.53 116.6,-298.75 98.83,-282.27 85.44,-258.01 77.02,-239.59"/>
<polygon fill="#63b8ff" stroke="#63b8ff" points="79.83,-238.29 72.63,-230.51 73.41,-241.08 79.83,-238.29"/>
</a>
</g>
</g>
<!-- Node17 -->
<g id="Node000017" class="node">
<title>Node17</title>
<g id="a_Node000017"><a xlink:href="invocable_8hpp.html" target="_top" xlink:title=" ">
<polygon fill="white" stroke="#666666" points="905.97,-437.75 763.22,-437.75 763.22,-404.25 905.97,-404.25 905.97,-437.75"/>
<text text-anchor="start" x="771.22" y="-424.25" font-family="Helvetica,sans-Serif" font-size="10.00">proxsuite/linalg/veg</text>
<text text-anchor="middle" x="834.6" y="-411.5" font-family="Helvetica,sans-Serif" font-size="10.00">/type_traits/invocable.hpp</text>
</a>
</g>
</g>
<!-- Node1&#45;&gt;Node17 -->
<g id="edge26_Node000001_Node000017" class="edge">
<title>Node1&#45;&gt;Node17</title>
<g id="a_edge26_Node000001_Node000017"><a xlink:title=" ">
<path fill="none" stroke="#63b8ff" d="M796.45,-473.5C802.43,-465.43 809.81,-455.47 816.48,-446.46"/>
<polygon fill="#63b8ff" stroke="#63b8ff" points="819.69,-449 822.83,-438.88 814.07,-444.83 819.69,-449"/>
</a>
</g>
</g>
<!-- Node18 -->
<g id="Node000018" class="node">
<title>Node18</title>
<g id="a_Node000018"><a xlink:href="address_8hpp.html" target="_top" xlink:title=" ">
<polygon fill="white" stroke="#666666" points="389.85,-368.25 267.35,-368.25 267.35,-334.75 389.85,-334.75 389.85,-368.25"/>
<text text-anchor="start" x="275.35" y="-354.75" font-family="Helvetica,sans-Serif" font-size="10.00">proxsuite/linalg/veg</text>
<text text-anchor="middle" x="328.6" y="-342" font-family="Helvetica,sans-Serif" font-size="10.00">/memory/address.hpp</text>
</a>
</g>
</g>
<!-- Node1&#45;&gt;Node18 -->
<g id="edge31_Node000001_Node000018" class="edge">
<title>Node1&#45;&gt;Node18</title>
<g id="a_edge31_Node000001_Node000018"><a xlink:title=" ">
<path fill="none" stroke="#63b8ff" d="M705.74,-474.46C661.27,-465.29 604.9,-452.5 555.6,-437.75 492.74,-418.94 422.28,-391.44 376.77,-372.79"/>
<polygon fill="#63b8ff" stroke="#63b8ff" points="378.19,-369.18 367.61,-368.61 375.52,-375.65 378.19,-369.18"/>
</a>
</g>
</g>
<!-- Node20 -->
<g id="Node000020" class="node">
<title>Node20</title>
<g id="a_Node000020"><a xlink:title=" ">
<polygon fill="#e0e0e0" stroke="#999999" points="1065.1,-431.38 1016.1,-431.38 1016.1,-410.62 1065.1,-410.62 1065.1,-431.38"/>
<text text-anchor="middle" x="1040.6" y="-417.88" font-family="Helvetica,sans-Serif" font-size="10.00">cstring</text>
</a>
</g>
</g>
<!-- Node1&#45;&gt;Node20 -->
<g id="edge39_Node000001_Node000020" class="edge">
<title>Node1&#45;&gt;Node20</title>
<g id="a_edge39_Node000001_Node000020"><a xlink:title=" ">
<path fill="none" stroke="#63b8ff" d="M863.47,-473.67C904.98,-464.59 956.49,-452.15 1001.6,-437.75 1003.72,-437.07 1005.89,-436.33 1008.06,-435.56"/>
<polygon fill="#63b8ff" stroke="#63b8ff" points="1009.01,-438.56 1017.12,-431.74 1006.53,-432.02 1009.01,-438.56"/>
</a>
</g>
</g>
<!-- Node3 -->
<g id="Node000003" class="node">
<title>Node3</title>
<g id="a_Node000003"><a xlink:href="veg_2type__traits_2core_8hpp.html" target="_top" xlink:title=" ">
<polygon fill="white" stroke="#666666" points="541.85,-298.75 425.35,-298.75 425.35,-265.25 541.85,-265.25 541.85,-298.75"/>
<text text-anchor="start" x="433.35" y="-285.25" font-family="Helvetica,sans-Serif" font-size="10.00">proxsuite/linalg/veg</text>
<text text-anchor="middle" x="483.6" y="-272.5" font-family="Helvetica,sans-Serif" font-size="10.00">/type_traits/core.hpp</text>
</a>
</g>
</g>
<!-- Node2&#45;&gt;Node3 -->
<g id="edge2_Node000002_Node000003" class="edge">
<title>Node2&#45;&gt;Node3</title>
<g id="a_edge2_Node000002_Node000003"><a xlink:title=" ">
<path fill="none" stroke="#63b8ff" d="M675.24,-334.33C638.37,-324.46 591.1,-311.8 552.73,-301.52"/>
<polygon fill="#63b8ff" stroke="#63b8ff" points="553.73,-297.89 543.16,-298.69 551.92,-304.66 553.73,-297.89"/>
</a>
</g>
</g>
<!-- Node2&#45;&gt;Node11 -->
<g id="edge19_Node000002_Node000011" class="edge">
<title>Node2&#45;&gt;Node11</title>
<g id="a_edge19_Node000002_Node000011"><a xlink:title=" ">
<path fill="none" stroke="#63b8ff" d="M708.63,-334.27C696.53,-325.42 683.46,-313.29 676.6,-298.75 645.77,-233.43 655.93,-145.08 663.87,-101.34"/>
<polygon fill="#63b8ff" stroke="#63b8ff" points="667.46,-102.21 665.92,-91.73 660.59,-100.88 667.46,-102.21"/>
</a>
</g>
</g>
<!-- Node2&#45;&gt;Node13 -->
<g id="edge22_Node000002_Node000013" class="edge">
<title>Node2&#45;&gt;Node13</title>
<g id="a_edge22_Node000002_Node000013"><a xlink:title=" ">
<path fill="none" stroke="#63b8ff" d="M745.27,-334.7C751.03,-324.7 758.06,-311.33 762.6,-298.75 787.4,-229.93 801.32,-144.39 807.21,-101.57"/>
<polygon fill="#63b8ff" stroke="#63b8ff" points="810.81,-102.05 808.66,-91.68 803.87,-101.13 810.81,-102.05"/>
</a>
</g>
</g>
<!-- Node2&#45;&gt;Node14 -->
<g id="edge20_Node000002_Node000014" class="edge">
<title>Node2&#45;&gt;Node14</title>
<g id="a_edge20_Node000002_Node000014"><a xlink:title=" ">
<path fill="none" stroke="#63b8ff" d="M757.4,-334.5C771.87,-323.89 790.81,-309.99 805.37,-299.31"/>
<polygon fill="#63b8ff" stroke="#63b8ff" points="807.22,-301.56 813.21,-292.82 803.08,-295.92 807.22,-301.56"/>
</a>
</g>
</g>
<!-- Node15 -->
<g id="Node000015" class="node">
<title>Node15</title>
<g id="a_Node000015"><a xlink:title=" ">
<polygon fill="#e0e0e0" stroke="#999999" points="753.85,-292.38 685.35,-292.38 685.35,-271.62 753.85,-271.62 753.85,-292.38"/>
<text text-anchor="middle" x="719.6" y="-278.88" font-family="Helvetica,sans-Serif" font-size="10.00">type_traits</text>
</a>
</g>
</g>
<!-- Node2&#45;&gt;Node15 -->
<g id="edge21_Node000002_Node000015" class="edge">
<title>Node2&#45;&gt;Node15</title>
<g id="a_edge21_Node000002_Node000015"><a xlink:title=" ">
<path fill="none" stroke="#63b8ff" d="M731.81,-334.5C729.6,-325.2 726.8,-313.38 724.44,-303.41"/>
<polygon fill="#63b8ff" stroke="#63b8ff" points="727.64,-302.74 721.93,-293.82 720.83,-304.36 727.64,-302.74"/>
</a>
</g>
</g>
<!-- Node4 -->
<g id="Node000004" class="node">
<title>Node4</title>
<g id="a_Node000004"><a xlink:href="typedefs_8hpp.html" target="_top" xlink:title=" ">
<polygon fill="white" stroke="#666666" points="236.22,-90.25 112.97,-90.25 112.97,-56.75 236.22,-56.75 236.22,-90.25"/>
<text text-anchor="start" x="120.97" y="-76.75" font-family="Helvetica,sans-Serif" font-size="10.00">proxsuite/linalg/veg</text>
<text text-anchor="middle" x="174.6" y="-64" font-family="Helvetica,sans-Serif" font-size="10.00">/internal/typedefs.hpp</text>
</a>
</g>
</g>
<!-- Node3&#45;&gt;Node4 -->
<g id="edge3_Node000003_Node000004" class="edge">
<title>Node3&#45;&gt;Node4</title>
<g id="a_edge3_Node000003_Node000004"><a xlink:title=" ">
<path fill="none" stroke="#63b8ff" d="M425.11,-268.44C365.84,-252.78 275.45,-220.35 221.6,-159.75 206,-142.2 193.49,-118.58 185.31,-100.66"/>
<polygon fill="#63b8ff" stroke="#63b8ff" points="188.12,-99.35 180.89,-91.6 181.71,-102.16 188.12,-99.35"/>
</a>
</g>
</g>
<!-- Node7 -->
<g id="Node000007" class="node">
<title>Node7</title>
<g id="a_Node000007"><a xlink:href="integer__seq_8hpp.html" target="_top" xlink:title=" ">
<polygon fill="white" stroke="#666666" points="465.35,-229.25 327.85,-229.25 327.85,-195.75 465.35,-195.75 465.35,-229.25"/>
<text text-anchor="start" x="335.85" y="-215.75" font-family="Helvetica,sans-Serif" font-size="10.00">proxsuite/linalg/veg</text>
<text text-anchor="middle" x="396.6" y="-203" font-family="Helvetica,sans-Serif" font-size="10.00">/internal/integer_seq.hpp</text>
</a>
</g>
</g>
<!-- Node3&#45;&gt;Node7 -->
<g id="edge6_Node000003_Node000007" class="edge">
<title>Node3&#45;&gt;Node7</title>
<g id="a_edge6_Node000003_Node000007"><a xlink:title=" ">
<path fill="none" stroke="#63b8ff" d="M462.98,-265C451.9,-256.41 438.05,-245.66 425.88,-236.22"/>
<polygon fill="#63b8ff" stroke="#63b8ff" points="428.42,-232.98 418.37,-229.62 424.13,-238.51 428.42,-232.98"/>
</a>
</g>
</g>
<!-- Node3&#45;&gt;Node11 -->
<g id="edge17_Node000003_Node000011" class="edge">
<title>Node3&#45;&gt;Node11</title>
<g id="a_edge17_Node000003_Node000011"><a xlink:title=" ">
<path fill="none" stroke="#63b8ff" d="M487.15,-264.81C494.68,-234.02 514.97,-166.5 555.6,-126.25 569.02,-112.95 586.48,-102.72 603.68,-95"/>
<polygon fill="#63b8ff" stroke="#63b8ff" points="604.89,-97.86 612.74,-90.74 602.17,-91.41 604.89,-97.86"/>
</a>
</g>
</g>
<!-- Node3&#45;&gt;Node13 -->
<g id="edge18_Node000003_Node000013" class="edge">
<title>Node3&#45;&gt;Node13</title>
<g id="a_edge18_Node000003_Node000013"><a xlink:title=" ">
<path fill="none" stroke="#63b8ff" d="M494.24,-265.22C516.18,-233.94 569.59,-163.8 631.6,-126.25 649.93,-115.15 697.22,-101.68 738.59,-91.27"/>
<polygon fill="#63b8ff" stroke="#63b8ff" points="739.37,-94.43 748.23,-88.62 737.68,-87.64 739.37,-94.43"/>
</a>
</g>
</g>
<!-- Node5 -->
<g id="Node000005" class="node">
<title>Node5</title>
<g id="a_Node000005"><a xlink:title=" ">
<polygon fill="#e0e0e0" stroke="#999999" points="70.1,-20.75 21.1,-20.75 21.1,0 70.1,0 70.1,-20.75"/>
<text text-anchor="middle" x="45.6" y="-7.25" font-family="Helvetica,sans-Serif" font-size="10.00">cstdint</text>
</a>
</g>
</g>
<!-- Node4&#45;&gt;Node5 -->
<g id="edge4_Node000004_Node000005" class="edge">
<title>Node4&#45;&gt;Node5</title>
<g id="a_edge4_Node000004_Node000005"><a xlink:title=" ">
<path fill="none" stroke="#63b8ff" d="M140.37,-56.28C120.37,-46.81 95.36,-34.95 76.06,-25.81"/>
<polygon fill="#63b8ff" stroke="#63b8ff" points="77.8,-22.28 67.26,-21.17 74.8,-28.61 77.8,-22.28"/>
</a>
</g>
</g>
<!-- Node6 -->
<g id="Node000006" class="node">
<title>Node6</title>
<g id="a_Node000006"><a xlink:title=" ">
<polygon fill="#e0e0e0" stroke="#999999" points="200.6,-20.75 148.6,-20.75 148.6,0 200.6,0 200.6,-20.75"/>
<text text-anchor="middle" x="174.6" y="-7.25" font-family="Helvetica,sans-Serif" font-size="10.00">cstddef</text>
</a>
</g>
</g>
<!-- Node4&#45;&gt;Node6 -->
<g id="edge5_Node000004_Node000006" class="edge">
<title>Node4&#45;&gt;Node6</title>
<g id="a_edge5_Node000004_Node000006"><a xlink:title=" ">
<path fill="none" stroke="#63b8ff" d="M174.6,-56.44C174.6,-49.02 174.6,-40.11 174.6,-32.18"/>
<polygon fill="#63b8ff" stroke="#63b8ff" points="178.1,-32.22 174.6,-22.22 171.1,-32.22 178.1,-32.22"/>
</a>
</g>
</g>
<!-- Node7&#45;&gt;Node4 -->
<g id="edge7_Node000007_Node000004" class="edge">
<title>Node7&#45;&gt;Node4</title>
<g id="a_edge7_Node000007_Node000004"><a xlink:title=" ">
<path fill="none" stroke="#63b8ff" d="M341.68,-195.29C317.05,-186.71 288.28,-174.8 264.6,-159.75 237.98,-142.84 212.34,-117.35 195.28,-98.65"/>
<polygon fill="#63b8ff" stroke="#63b8ff" points="198.35,-96.71 189.08,-91.59 193.14,-101.38 198.35,-96.71"/>
</a>
</g>
</g>
<!-- Node8 -->
<g id="Node000008" class="node">
<title>Node8</title>
<g id="a_Node000008"><a xlink:href="macros_8hpp.html" target="_top" xlink:title=" ">
<polygon fill="white" stroke="#666666" points="389.85,-159.75 273.35,-159.75 273.35,-126.25 389.85,-126.25 389.85,-159.75"/>
<text text-anchor="start" x="281.35" y="-146.25" font-family="Helvetica,sans-Serif" font-size="10.00">proxsuite/linalg/veg</text>
<text text-anchor="middle" x="331.6" y="-133.5" font-family="Helvetica,sans-Serif" font-size="10.00">/internal/macros.hpp</text>
</a>
</g>
</g>
<!-- Node7&#45;&gt;Node8 -->
<g id="edge8_Node000007_Node000008" class="edge">
<title>Node7&#45;&gt;Node8</title>
<g id="a_edge8_Node000007_Node000008"><a xlink:title=" ">
<path fill="none" stroke="#63b8ff" d="M381.19,-195.5C373.18,-187.18 363.23,-176.85 354.35,-167.62"/>
<polygon fill="#63b8ff" stroke="#63b8ff" points="357.35,-165.66 347.89,-160.88 352.31,-170.51 357.35,-165.66"/>
</a>
</g>
</g>
<!-- Node7&#45;&gt;Node11 -->
<g id="edge15_Node000007_Node000011" class="edge">
<title>Node7&#45;&gt;Node11</title>
<g id="a_edge15_Node000007_Node000011"><a xlink:title=" ">
<path fill="none" stroke="#63b8ff" d="M407.91,-195.48C422.36,-176.19 449.16,-144.18 479.6,-126.25 490.1,-120.07 547.81,-104.73 596.9,-92.34"/>
<polygon fill="#63b8ff" stroke="#63b8ff" points="597.7,-95.5 606.55,-89.67 596,-88.71 597.7,-95.5"/>
</a>
</g>
</g>
<!-- Node7&#45;&gt;Node13 -->
<g id="edge16_Node000007_Node000013" class="edge">
<title>Node7&#45;&gt;Node13</title>
<g id="a_edge16_Node000007_Node000013"><a xlink:title=" ">
<path fill="none" stroke="#63b8ff" d="M429.03,-195.38C467.52,-176.74 534.02,-146.08 593.6,-126.25 607.5,-121.62 680.8,-104.38 738.41,-91.06"/>
<polygon fill="#63b8ff" stroke="#63b8ff" points="739.01,-94.28 747.96,-88.62 737.43,-87.46 739.01,-94.28"/>
</a>
</g>
</g>
<!-- Node8&#45;&gt;Node4 -->
<g id="edge10_Node000008_Node000004" class="edge">
<title>Node8&#45;&gt;Node4</title>
<g id="a_edge10_Node000008_Node000004"><a xlink:title=" ">
<path fill="none" stroke="#63b8ff" d="M293.99,-125.83C272.42,-116.56 245.13,-104.82 222.09,-94.92"/>
<polygon fill="#63b8ff" stroke="#63b8ff" points="223.74,-91.39 213.17,-90.65 220.97,-97.82 223.74,-91.39"/>
</a>
</g>
</g>
<!-- Node9 -->
<g id="Node000009" class="node">
<title>Node9</title>
<g id="a_Node000009"><a xlink:href="hedley_8ext_8hpp.html" target="_top" xlink:title=" ">
<polygon fill="white" stroke="#666666" points="589.72,-90.25 415.47,-90.25 415.47,-56.75 589.72,-56.75 589.72,-90.25"/>
<text text-anchor="start" x="423.47" y="-76.75" font-family="Helvetica,sans-Serif" font-size="10.00">proxsuite/linalg/veg</text>
<text text-anchor="middle" x="502.6" y="-64" font-family="Helvetica,sans-Serif" font-size="10.00">/internal/external/hedley.ext.hpp</text>
</a>
</g>
</g>
<!-- Node8&#45;&gt;Node9 -->
<g id="edge9_Node000008_Node000009" class="edge">
<title>Node8&#45;&gt;Node9</title>
<g id="a_edge9_Node000008_Node000009"><a xlink:title=" ">
<path fill="none" stroke="#63b8ff" d="M372.56,-125.83C396.27,-116.47 426.31,-104.61 451.55,-94.65"/>
<polygon fill="#63b8ff" stroke="#63b8ff" points="452.66,-97.58 460.68,-90.65 450.09,-91.07 452.66,-97.58"/>
</a>
</g>
</g>
<!-- Node10 -->
<g id="Node000010" class="node">
<title>Node10</title>
<g id="a_Node000010"><a xlink:href="preprocessor_8hpp.html" target="_top" xlink:title=" ">
<polygon fill="white" stroke="#666666" points="396.97,-90.25 254.22,-90.25 254.22,-56.75 396.97,-56.75 396.97,-90.25"/>
<text text-anchor="start" x="262.22" y="-76.75" font-family="Helvetica,sans-Serif" font-size="10.00">proxsuite/linalg/veg</text>
<text text-anchor="middle" x="325.6" y="-64" font-family="Helvetica,sans-Serif" font-size="10.00">/internal/preprocessor.hpp</text>
</a>
</g>
</g>
<!-- Node8&#45;&gt;Node10 -->
<g id="edge11_Node000008_Node000010" class="edge">
<title>Node8&#45;&gt;Node10</title>
<g id="a_edge11_Node000008_Node000010"><a xlink:title=" ">
<path fill="none" stroke="#63b8ff" d="M330.18,-126C329.52,-118.61 328.72,-109.62 327.98,-101.23"/>
<polygon fill="#63b8ff" stroke="#63b8ff" points="331.38,-101.03 327.01,-91.38 324.41,-101.65 331.38,-101.03"/>
</a>
</g>
</g>
<!-- Node8&#45;&gt;Node11 -->
<g id="edge12_Node000008_Node000011" class="edge">
<title>Node8&#45;&gt;Node11</title>
<g id="a_edge12_Node000008_Node000011"><a xlink:title=" ">
<path fill="none" stroke="#63b8ff" d="M390.11,-129.03C394.67,-128.07 399.21,-127.14 403.6,-126.25 486.7,-109.49 510.44,-107.9 597.08,-90.52"/>
<polygon fill="#63b8ff" stroke="#63b8ff" points="597.56,-93.79 606.67,-88.37 596.18,-86.92 597.56,-93.79"/>
</a>
</g>
</g>
<!-- Node12 -->
<g id="Node000012" class="node">
<title>Node12</title>
<g id="a_Node000012"><a xlink:title=" ">
<polygon fill="#e0e0e0" stroke="#999999" points="94.6,-83.88 12.6,-83.88 12.6,-63.12 94.6,-63.12 94.6,-83.88"/>
<text text-anchor="middle" x="53.6" y="-70.38" font-family="Helvetica,sans-Serif" font-size="10.00">initializer_list</text>
</a>
</g>
</g>
<!-- Node8&#45;&gt;Node12 -->
<g id="edge13_Node000008_Node000012" class="edge">
<title>Node8&#45;&gt;Node12</title>
<g id="a_edge13_Node000008_Node000012"><a xlink:title=" ">
<path fill="none" stroke="#63b8ff" d="M273.17,-130.12C226.92,-120.38 160.8,-105.72 103.6,-90.25 100.41,-89.39 97.11,-88.45 93.81,-87.48"/>
<polygon fill="#63b8ff" stroke="#63b8ff" points="94.94,-83.86 84.36,-84.31 92.91,-90.56 94.94,-83.86"/>
</a>
</g>
</g>
<!-- Node8&#45;&gt;Node13 -->
<g id="edge14_Node000008_Node000013" class="edge">
<title>Node8&#45;&gt;Node13</title>
<g id="a_edge14_Node000008_Node000013"><a xlink:title=" ">
<path fill="none" stroke="#63b8ff" d="M390.11,-136.37C467.64,-128.52 608.83,-112.86 738.68,-90.49"/>
<polygon fill="#63b8ff" stroke="#63b8ff" points="738.95,-93.82 748.21,-88.66 737.75,-86.93 738.95,-93.82"/>
</a>
</g>
</g>
<!-- Node16&#45;&gt;Node5 -->
<g id="edge24_Node000016_Node000005" class="edge">
<title>Node16&#45;&gt;Node5</title>
<g id="a_edge24_Node000016_Node000005"><a xlink:title=" ">
<path fill="none" stroke="#63b8ff" d="M54.89,-195.26C39.57,-172.91 13.51,-130.81 3.6,-90.25 0.07,-75.79 -1.83,-70.61 3.6,-56.75 7.84,-45.92 16.02,-36.13 24.04,-28.44"/>
<polygon fill="#63b8ff" stroke="#63b8ff" points="26.01,-31.48 31.17,-22.23 21.36,-26.24 26.01,-31.48"/>
</a>
</g>
</g>
<!-- Node16&#45;&gt;Node12 -->
<g id="edge25_Node000016_Node000012" class="edge">
<title>Node16&#45;&gt;Node12</title>
<g id="a_edge25_Node000016_Node000012"><a xlink:title=" ">
<path fill="none" stroke="#63b8ff" d="M65.08,-195.52C62.71,-170.55 58.14,-122.34 55.53,-94.9"/>
<polygon fill="#63b8ff" stroke="#63b8ff" points="58.95,-94.85 54.52,-85.23 51.98,-95.51 58.95,-94.85"/>
</a>
</g>
</g>
<!-- Node17&#45;&gt;Node2 -->
<g id="edge28_Node000017_Node000002" class="edge">
<title>Node17&#45;&gt;Node2</title>
<g id="a_edge28_Node000017_Node000002"><a xlink:title=" ">
<path fill="none" stroke="#63b8ff" d="M810.89,-403.83C798.03,-395.07 781.95,-384.1 767.96,-374.56"/>
<polygon fill="#63b8ff" stroke="#63b8ff" points="770.35,-371.28 760.12,-368.54 766.41,-377.06 770.35,-371.28"/>
</a>
</g>
</g>
<!-- Node17&#45;&gt;Node3 -->
<g id="edge27_Node000017_Node000003" class="edge">
<title>Node17&#45;&gt;Node3</title>
<g id="a_edge27_Node000017_Node000003"><a xlink:title=" ">
<path fill="none" stroke="#63b8ff" d="M762.86,-403.89C727.57,-395.03 684.75,-382.86 647.6,-368.25 601.8,-350.24 552.02,-323.21 519.46,-304.44"/>
<polygon fill="#63b8ff" stroke="#63b8ff" points="521.75,-301.14 511.34,-299.13 518.23,-307.19 521.75,-301.14"/>
</a>
</g>
</g>
<!-- Node17&#45;&gt;Node11 -->
<g id="edge29_Node000017_Node000011" class="edge">
<title>Node17&#45;&gt;Node11</title>
<g id="a_edge29_Node000017_Node000011"><a xlink:title=" ">
<path fill="none" stroke="#63b8ff" d="M841.76,-403.96C853.55,-375.09 873.93,-312.95 854.6,-265.25 824.19,-190.21 748.51,-128.4 703.94,-96.96"/>
<polygon fill="#63b8ff" stroke="#63b8ff" points="706.14,-93.53 695.93,-90.71 702.16,-99.28 706.14,-93.53"/>
</a>
</g>
</g>
<!-- Node17&#45;&gt;Node13 -->
<g id="edge30_Node000017_Node000013" class="edge">
<title>Node17&#45;&gt;Node13</title>
<g id="a_edge30_Node000017_Node000013"><a xlink:title=" ">
<path fill="none" stroke="#63b8ff" d="M855.85,-403.85C866.77,-394.53 879.46,-381.96 887.6,-368.25 907.7,-334.41 911.6,-322.36 911.6,-283 911.6,-283 911.6,-283 911.6,-211.5 911.6,-163.9 871.6,-121.95 841.95,-97.4"/>
<polygon fill="#63b8ff" stroke="#63b8ff" points="844.51,-94.16 834.52,-90.65 840.13,-99.63 844.51,-94.16"/>
</a>
</g>
</g>
<!-- Node18&#45;&gt;Node3 -->
<g id="edge32_Node000018_Node000003" class="edge">
<title>Node18&#45;&gt;Node3</title>
<g id="a_edge32_Node000018_Node000003"><a xlink:title=" ">
<path fill="none" stroke="#63b8ff" d="M365.73,-334.33C387.02,-325.06 413.97,-313.32 436.72,-303.42"/>
<polygon fill="#63b8ff" stroke="#63b8ff" points="437.74,-306.35 445.51,-299.15 434.94,-299.94 437.74,-306.35"/>
</a>
</g>
</g>
<!-- Node18&#45;&gt;Node11 -->
<g id="edge34_Node000018_Node000011" class="edge">
<title>Node18&#45;&gt;Node11</title>
<g id="a_edge34_Node000018_Node000011"><a xlink:title=" ">
<path fill="none" stroke="#63b8ff" d="M321.77,-334.46C310.19,-304.5 290.53,-239.16 318.6,-195.75 339.77,-163.01 365.97,-181.1 398.6,-159.75 417.16,-147.61 415.89,-136.43 435.6,-126.25 498.56,-93.74 523.86,-105.12 597,-90.49"/>
<polygon fill="#63b8ff" stroke="#63b8ff" points="597.58,-93.73 606.64,-88.25 596.14,-86.88 597.58,-93.73"/>
</a>
</g>
</g>
<!-- Node18&#45;&gt;Node13 -->
<g id="edge36_Node000018_Node000013" class="edge">
<title>Node18&#45;&gt;Node13</title>
<g id="a_edge36_Node000018_Node000013"><a xlink:title=" ">
<path fill="none" stroke="#63b8ff" d="M390.21,-344.21C436.35,-337.63 499.98,-324.49 550.6,-298.75 653.43,-246.47 749.37,-145.08 790.08,-98.71"/>
<polygon fill="#63b8ff" stroke="#63b8ff" points="793.33,-101.3 797.25,-91.45 788.05,-96.71 793.33,-101.3"/>
</a>
</g>
</g>
<!-- Node18&#45;&gt;Node16 -->
<g id="edge33_Node000018_Node000016" class="edge">
<title>Node18&#45;&gt;Node16</title>
<g id="a_edge33_Node000018_Node000016"><a xlink:title=" ">
<path fill="none" stroke="#63b8ff" d="M267.01,-336.99C235.72,-328.63 197.82,-316.11 166.6,-298.75 136.94,-282.26 107.99,-256.15 88.93,-237.17"/>
<polygon fill="#63b8ff" stroke="#63b8ff" points="91.91,-235.19 82.4,-230.52 86.92,-240.1 91.91,-235.19"/>
</a>
</g>
</g>
<!-- Node19 -->
<g id="Node000019" class="node">
<title>Node19</title>
<g id="a_Node000019"><a xlink:title=" ">
<polygon fill="#e0e0e0" stroke="#999999" points="233.22,-292.38 175.97,-292.38 175.97,-271.62 233.22,-271.62 233.22,-292.38"/>
<text text-anchor="middle" x="204.6" y="-278.88" font-family="Helvetica,sans-Serif" font-size="10.00">memory</text>
</a>
</g>
</g>
<!-- Node18&#45;&gt;Node19 -->
<g id="edge35_Node000018_Node000019" class="edge">
<title>Node18&#45;&gt;Node19</title>
<g id="a_edge35_Node000018_Node000019"><a xlink:title=" ">
<path fill="none" stroke="#63b8ff" d="M298.9,-334.33C278.64,-323.31 252,-308.8 232.21,-298.03"/>
<polygon fill="#63b8ff" stroke="#63b8ff" points="234.01,-294.48 223.55,-292.77 230.66,-300.63 234.01,-294.48"/>
</a>
</g>
</g>
</g>
</svg>
