<?xml version="1.0" encoding="UTF-8" standalone="no"?>
<!DOCTYPE svg PUBLIC "-//W3C//DTD SVG 1.1//EN"
 "http://www.w3.org/Graphics/SVG/1.1/DTD/svg11.dtd">
<!-- Generated by graphviz version 12.0.0 (20240803.0821)
 -->
<!-- Title: include/proxsuite/linalg/veg/memory/placement.hpp Pages: 1 -->
<svg width="1247pt" height="515pt"
 viewBox="0.00 0.00 1247.10 515.25" xmlns="http://www.w3.org/2000/svg" xmlns:xlink="http://www.w3.org/1999/xlink">
<g id="graph0" class="graph" transform="scale(1 1) rotate(0) translate(4 511.25)">
<title>include/proxsuite/linalg/veg/memory/placement.hpp</title>
<!-- Node1 -->
<g id="Node000001" class="node">
<title>Node1</title>
<g id="a_Node000001"><a xlink:title=" ">
<polygon fill="#999999" stroke="#666666" points="1037.1,-507.25 880.1,-507.25 880.1,-473.75 1037.1,-473.75 1037.1,-507.25"/>
<text text-anchor="start" x="888.1" y="-493.75" font-family="Helvetica,sans-Serif" font-size="10.00">include/proxsuite/linalg</text>
<text text-anchor="middle" x="958.6" y="-481" font-family="Helvetica,sans-Serif" font-size="10.00">/veg/memory/placement.hpp</text>
</a>
</g>
</g>
<!-- Node2 -->
<g id="Node000002" class="node">
<title>Node2</title>
<g id="a_Node000002"><a xlink:href="constructible_8hpp.html" target="_top" xlink:title=" ">
<polygon fill="white" stroke="#666666" points="988.85,-368.25 830.35,-368.25 830.35,-334.75 988.85,-334.75 988.85,-368.25"/>
<text text-anchor="start" x="838.35" y="-354.75" font-family="Helvetica,sans-Serif" font-size="10.00">proxsuite/linalg/veg</text>
<text text-anchor="middle" x="909.6" y="-342" font-family="Helvetica,sans-Serif" font-size="10.00">/type_traits/constructible.hpp</text>
</a>
</g>
</g>
<!-- Node1&#45;&gt;Node2 -->
<g id="edge1_Node000001_Node000002" class="edge">
<title>Node1&#45;&gt;Node2</title>
<g id="a_edge1_Node000001_Node000002"><a xlink:title=" ">
<path fill="none" stroke="#63b8ff" d="M947.52,-473.37C941.17,-463.47 933.51,-450.33 928.6,-437.75 921.25,-418.93 916.4,-396.6 913.45,-379.52"/>
<polygon fill="#63b8ff" stroke="#63b8ff" points="916.98,-379.45 911.93,-370.14 910.07,-380.57 916.98,-379.45"/>
</a>
</g>
</g>
<!-- Node11 -->
<g id="Node000011" class="node">
<title>Node11</title>
<g id="a_Node000011"><a xlink:href="prologue_8hpp.html" target="_top" xlink:title=" ">
<polygon fill="white" stroke="#666666" points="801.23,-90.25 677.98,-90.25 677.98,-56.75 801.23,-56.75 801.23,-90.25"/>
<text text-anchor="start" x="685.98" y="-76.75" font-family="Helvetica,sans-Serif" font-size="10.00">proxsuite/linalg/veg</text>
<text text-anchor="middle" x="739.6" y="-64" font-family="Helvetica,sans-Serif" font-size="10.00">/internal/prologue.hpp</text>
</a>
</g>
</g>
<!-- Node1&#45;&gt;Node11 -->
<g id="edge38_Node000001_Node000011" class="edge">
<title>Node1&#45;&gt;Node11</title>
<g id="a_edge38_Node000001_Node000011"><a xlink:title=" ">
<path fill="none" stroke="#63b8ff" d="M879.76,-483.75C741.45,-471.47 469.6,-436.64 469.6,-352.5 469.6,-352.5 469.6,-352.5 469.6,-211.5 469.6,-166.13 592.38,-119.65 672.35,-94.19"/>
<polygon fill="#63b8ff" stroke="#63b8ff" points="673.39,-97.53 681.89,-91.19 671.3,-90.85 673.39,-97.53"/>
</a>
</g>
</g>
<!-- Node14 -->
<g id="Node000014" class="node">
<title>Node14</title>
<g id="a_Node000014"><a xlink:href="epilogue_8hpp.html" target="_top" xlink:title=" ">
<polygon fill="white" stroke="#666666" points="941.85,-90.25 819.35,-90.25 819.35,-56.75 941.85,-56.75 941.85,-90.25"/>
<text text-anchor="start" x="827.35" y="-76.75" font-family="Helvetica,sans-Serif" font-size="10.00">proxsuite/linalg/veg</text>
<text text-anchor="middle" x="880.6" y="-64" font-family="Helvetica,sans-Serif" font-size="10.00">/internal/epilogue.hpp</text>
</a>
</g>
</g>
<!-- Node1&#45;&gt;Node14 -->
<g id="edge41_Node000001_Node000014" class="edge">
<title>Node1&#45;&gt;Node14</title>
<g id="a_edge41_Node000001_Node000014"><a xlink:title=" ">
<path fill="none" stroke="#63b8ff" d="M1027.89,-473.3C1086.7,-454.96 1161.6,-418.62 1161.6,-352.5 1161.6,-352.5 1161.6,-352.5 1161.6,-211.5 1161.6,-118.88 1036.73,-88.86 953.47,-79.14"/>
<polygon fill="#63b8ff" stroke="#63b8ff" points="954.09,-75.69 943.77,-78.09 953.34,-82.65 954.09,-75.69"/>
</a>
</g>
</g>
<!-- Node15 -->
<g id="Node000015" class="node">
<title>Node15</title>
<g id="a_Node000015"><a xlink:title=" ">
<polygon fill="#e0e0e0" stroke="#999999" points="1019.73,-292.38 983.48,-292.38 983.48,-271.62 1019.73,-271.62 1019.73,-292.38"/>
<text text-anchor="middle" x="1001.6" y="-278.88" font-family="Helvetica,sans-Serif" font-size="10.00">new</text>
</a>
</g>
</g>
<!-- Node1&#45;&gt;Node15 -->
<g id="edge39_Node000001_Node000015" class="edge">
<title>Node1&#45;&gt;Node15</title>
<g id="a_edge39_Node000001_Node000015"><a xlink:title=" ">
<path fill="none" stroke="#63b8ff" d="M1037.58,-474.75C1057.49,-467.09 1076.6,-455.44 1088.6,-437.75 1121.16,-389.75 1058.84,-328.7 1023.54,-299.72"/>
<polygon fill="#63b8ff" stroke="#63b8ff" points="1025.99,-297.2 1015.99,-293.7 1021.62,-302.67 1025.99,-297.2"/>
</a>
</g>
</g>
<!-- Node17 -->
<g id="Node000017" class="node">
<title>Node17</title>
<g id="a_Node000017"><a xlink:href="std_8hpp.html" target="_top" xlink:title=" ">
<polygon fill="white" stroke="#666666" points="280.98,-229.25 168.23,-229.25 168.23,-195.75 280.98,-195.75 280.98,-229.25"/>
<text text-anchor="start" x="176.23" y="-215.75" font-family="Helvetica,sans-Serif" font-size="10.00">proxsuite/linalg/veg</text>
<text text-anchor="middle" x="224.6" y="-203" font-family="Helvetica,sans-Serif" font-size="10.00">/internal/std.hpp</text>
</a>
</g>
</g>
<!-- Node1&#45;&gt;Node17 -->
<g id="edge24_Node000001_Node000017" class="edge">
<title>Node1&#45;&gt;Node17</title>
<g id="a_edge24_Node000001_Node000017"><a xlink:title=" ">
<path fill="none" stroke="#63b8ff" d="M879.98,-487.66C757.86,-483.76 528.99,-471.99 455.6,-437.75 357.72,-392.08 275.98,-287.57 241.79,-239.08"/>
<polygon fill="#63b8ff" stroke="#63b8ff" points="244.67,-237.09 236.09,-230.87 238.92,-241.08 244.67,-237.09"/>
</a>
</g>
</g>
<!-- Node18 -->
<g id="Node000018" class="node">
<title>Node18</title>
<g id="a_Node000018"><a xlink:href="invocable_8hpp.html" target="_top" xlink:title=" ">
<polygon fill="white" stroke="#666666" points="1079.98,-437.75 937.23,-437.75 937.23,-404.25 1079.98,-404.25 1079.98,-437.75"/>
<text text-anchor="start" x="945.23" y="-424.25" font-family="Helvetica,sans-Serif" font-size="10.00">proxsuite/linalg/veg</text>
<text text-anchor="middle" x="1008.6" y="-411.5" font-family="Helvetica,sans-Serif" font-size="10.00">/type_traits/invocable.hpp</text>
</a>
</g>
</g>
<!-- Node1&#45;&gt;Node18 -->
<g id="edge27_Node000001_Node000018" class="edge">
<title>Node1&#45;&gt;Node18</title>
<g id="a_edge27_Node000001_Node000018"><a xlink:title=" ">
<path fill="none" stroke="#63b8ff" d="M970.45,-473.5C976.3,-465.6 983.5,-455.88 990.06,-447.03"/>
<polygon fill="#63b8ff" stroke="#63b8ff" points="992.8,-449.22 995.94,-439.1 987.17,-445.05 992.8,-449.22"/>
</a>
</g>
</g>
<!-- Node19 -->
<g id="Node000019" class="node">
<title>Node19</title>
<g id="a_Node000019"><a xlink:href="address_8hpp.html" target="_top" xlink:title=" ">
<polygon fill="white" stroke="#666666" points="709.85,-368.25 587.35,-368.25 587.35,-334.75 709.85,-334.75 709.85,-368.25"/>
<text text-anchor="start" x="595.35" y="-354.75" font-family="Helvetica,sans-Serif" font-size="10.00">proxsuite/linalg/veg</text>
<text text-anchor="middle" x="648.6" y="-342" font-family="Helvetica,sans-Serif" font-size="10.00">/memory/address.hpp</text>
</a>
</g>
</g>
<!-- Node1&#45;&gt;Node19 -->
<g id="edge32_Node000001_Node000019" class="edge">
<title>Node1&#45;&gt;Node19</title>
<g id="a_edge32_Node000001_Node000019"><a xlink:title=" ">
<path fill="none" stroke="#63b8ff" d="M922.13,-473.38C865.69,-448.44 757.26,-400.52 695.22,-373.1"/>
<polygon fill="#63b8ff" stroke="#63b8ff" points="696.88,-370.01 686.32,-369.17 694.05,-376.41 696.88,-370.01"/>
</a>
</g>
</g>
<!-- Node21 -->
<g id="Node000021" class="node">
<title>Node21</title>
<g id="a_Node000021"><a xlink:title=" ">
<polygon fill="#e0e0e0" stroke="#999999" points="1239.1,-431.38 1190.1,-431.38 1190.1,-410.62 1239.1,-410.62 1239.1,-431.38"/>
<text text-anchor="middle" x="1214.6" y="-417.88" font-family="Helvetica,sans-Serif" font-size="10.00">cstring</text>
</a>
</g>
</g>
<!-- Node1&#45;&gt;Node21 -->
<g id="edge40_Node000001_Node000021" class="edge">
<title>Node1&#45;&gt;Node21</title>
<g id="a_edge40_Node000001_Node000021"><a xlink:title=" ">
<path fill="none" stroke="#63b8ff" d="M1037.47,-473.67C1078.98,-464.59 1130.5,-452.15 1175.6,-437.75 1177.55,-437.13 1179.54,-436.45 1181.54,-435.74"/>
<polygon fill="#63b8ff" stroke="#63b8ff" points="1182.59,-439.09 1190.71,-432.28 1180.12,-432.54 1182.59,-439.09"/>
</a>
</g>
</g>
<!-- Node3 -->
<g id="Node000003" class="node">
<title>Node3</title>
<g id="a_Node000003"><a xlink:href="veg_2type__traits_2core_8hpp.html" target="_top" xlink:title=" ">
<polygon fill="white" stroke="#666666" points="765.85,-298.75 649.35,-298.75 649.35,-265.25 765.85,-265.25 765.85,-298.75"/>
<text text-anchor="start" x="657.35" y="-285.25" font-family="Helvetica,sans-Serif" font-size="10.00">proxsuite/linalg/veg</text>
<text text-anchor="middle" x="707.6" y="-272.5" font-family="Helvetica,sans-Serif" font-size="10.00">/type_traits/core.hpp</text>
</a>
</g>
</g>
<!-- Node2&#45;&gt;Node3 -->
<g id="edge2_Node000002_Node000003" class="edge">
<title>Node2&#45;&gt;Node3</title>
<g id="a_edge2_Node000002_Node000003"><a xlink:title=" ">
<path fill="none" stroke="#63b8ff" d="M861.22,-334.33C832.84,-324.85 796.77,-312.8 766.72,-302.75"/>
<polygon fill="#63b8ff" stroke="#63b8ff" points="767.97,-299.48 757.38,-299.63 765.75,-306.12 767.97,-299.48"/>
</a>
</g>
</g>
<!-- Node2&#45;&gt;Node11 -->
<g id="edge20_Node000002_Node000011" class="edge">
<title>Node2&#45;&gt;Node11</title>
<g id="a_edge20_Node000002_Node000011"><a xlink:title=" ">
<path fill="none" stroke="#63b8ff" d="M887.22,-334.32C875.29,-324.91 860.98,-312.25 850.6,-298.75 801.4,-234.72 765.12,-145.44 748.95,-101.34"/>
<polygon fill="#63b8ff" stroke="#63b8ff" points="752.29,-100.3 745.61,-92.07 745.7,-102.67 752.29,-100.3"/>
</a>
</g>
</g>
<!-- Node2&#45;&gt;Node14 -->
<g id="edge23_Node000002_Node000014" class="edge">
<title>Node2&#45;&gt;Node14</title>
<g id="a_edge23_Node000002_Node000014"><a xlink:title=" ">
<path fill="none" stroke="#63b8ff" d="M920.51,-334.53C926.55,-324.69 933.46,-311.54 936.6,-298.75 940.15,-284.29 938.72,-279.99 936.6,-265.25 927.98,-205.29 904.86,-137.89 891.17,-101.43"/>
<polygon fill="#63b8ff" stroke="#63b8ff" points="894.46,-100.24 887.63,-92.15 887.92,-102.74 894.46,-100.24"/>
</a>
</g>
</g>
<!-- Node2&#45;&gt;Node15 -->
<g id="edge21_Node000002_Node000015" class="edge">
<title>Node2&#45;&gt;Node15</title>
<g id="a_edge21_Node000002_Node000015"><a xlink:title=" ">
<path fill="none" stroke="#63b8ff" d="M931.4,-334.5C945.74,-323.99 964.45,-310.26 978.95,-299.62"/>
<polygon fill="#63b8ff" stroke="#63b8ff" points="981,-302.45 986.99,-293.72 976.86,-296.81 981,-302.45"/>
</a>
</g>
</g>
<!-- Node16 -->
<g id="Node000016" class="node">
<title>Node16</title>
<g id="a_Node000016"><a xlink:title=" ">
<polygon fill="#e0e0e0" stroke="#999999" points="927.85,-292.38 859.35,-292.38 859.35,-271.62 927.85,-271.62 927.85,-292.38"/>
<text text-anchor="middle" x="893.6" y="-278.88" font-family="Helvetica,sans-Serif" font-size="10.00">type_traits</text>
</a>
</g>
</g>
<!-- Node2&#45;&gt;Node16 -->
<g id="edge22_Node000002_Node000016" class="edge">
<title>Node2&#45;&gt;Node16</title>
<g id="a_edge22_Node000002_Node000016"><a xlink:title=" ">
<path fill="none" stroke="#63b8ff" d="M905.81,-334.5C903.63,-325.3 900.86,-313.64 898.52,-303.74"/>
<polygon fill="#63b8ff" stroke="#63b8ff" points="901.99,-303.22 896.28,-294.29 895.18,-304.83 901.99,-303.22"/>
</a>
</g>
</g>
<!-- Node4 -->
<g id="Node000004" class="node">
<title>Node4</title>
<g id="a_Node000004"><a xlink:href="typedefs_8hpp.html" target="_top" xlink:title=" ">
<polygon fill="white" stroke="#666666" points="660.23,-90.25 536.98,-90.25 536.98,-56.75 660.23,-56.75 660.23,-90.25"/>
<text text-anchor="start" x="544.98" y="-76.75" font-family="Helvetica,sans-Serif" font-size="10.00">proxsuite/linalg/veg</text>
<text text-anchor="middle" x="598.6" y="-64" font-family="Helvetica,sans-Serif" font-size="10.00">/internal/typedefs.hpp</text>
</a>
</g>
</g>
<!-- Node3&#45;&gt;Node4 -->
<g id="edge3_Node000003_Node000004" class="edge">
<title>Node3&#45;&gt;Node4</title>
<g id="a_edge3_Node000003_Node000004"><a xlink:title=" ">
<path fill="none" stroke="#63b8ff" d="M649.21,-275.59C618.65,-269.44 583.71,-256.48 564.6,-229.25 537.23,-190.24 562.48,-133.15 581.66,-100.33"/>
<polygon fill="#63b8ff" stroke="#63b8ff" points="584.6,-102.23 586.81,-91.87 578.62,-98.59 584.6,-102.23"/>
</a>
</g>
</g>
<!-- Node7 -->
<g id="Node000007" class="node">
<title>Node7</title>
<g id="a_Node000007"><a xlink:href="integer__seq_8hpp.html" target="_top" xlink:title=" ">
<polygon fill="white" stroke="#666666" points="711.35,-229.25 573.85,-229.25 573.85,-195.75 711.35,-195.75 711.35,-229.25"/>
<text text-anchor="start" x="581.85" y="-215.75" font-family="Helvetica,sans-Serif" font-size="10.00">proxsuite/linalg/veg</text>
<text text-anchor="middle" x="642.6" y="-203" font-family="Helvetica,sans-Serif" font-size="10.00">/internal/integer_seq.hpp</text>
</a>
</g>
</g>
<!-- Node3&#45;&gt;Node7 -->
<g id="edge6_Node000003_Node000007" class="edge">
<title>Node3&#45;&gt;Node7</title>
<g id="a_edge6_Node000003_Node000007"><a xlink:title=" ">
<path fill="none" stroke="#63b8ff" d="M692.2,-265C684.26,-256.77 674.43,-246.55 665.62,-237.4"/>
<polygon fill="#63b8ff" stroke="#63b8ff" points="668.4,-235.25 658.94,-230.47 663.36,-240.1 668.4,-235.25"/>
</a>
</g>
</g>
<!-- Node3&#45;&gt;Node11 -->
<g id="edge18_Node000003_Node000011" class="edge">
<title>Node3&#45;&gt;Node11</title>
<g id="a_edge18_Node000003_Node000011"><a xlink:title=" ">
<path fill="none" stroke="#63b8ff" d="M712.22,-264.8C714.98,-254.65 718.36,-241.27 720.6,-229.25 728.87,-184.85 734.43,-132.59 737.3,-101.58"/>
<polygon fill="#63b8ff" stroke="#63b8ff" points="740.76,-102.2 738.17,-91.92 733.79,-101.57 740.76,-102.2"/>
</a>
</g>
</g>
<!-- Node3&#45;&gt;Node14 -->
<g id="edge19_Node000003_Node000014" class="edge">
<title>Node3&#45;&gt;Node14</title>
<g id="a_edge19_Node000003_Node000014"><a xlink:title=" ">
<path fill="none" stroke="#63b8ff" d="M717.14,-264.87C739.92,-226.39 796.04,-132 801.6,-126.25 812.59,-114.88 826.51,-104.74 839.59,-96.5"/>
<polygon fill="#63b8ff" stroke="#63b8ff" points="841.32,-99.55 848.07,-91.38 837.7,-93.55 841.32,-99.55"/>
</a>
</g>
</g>
<!-- Node5 -->
<g id="Node000005" class="node">
<title>Node5</title>
<g id="a_Node000005"><a xlink:title=" ">
<polygon fill="#e0e0e0" stroke="#999999" points="286.1,-20.75 237.1,-20.75 237.1,0 286.1,0 286.1,-20.75"/>
<text text-anchor="middle" x="261.6" y="-7.25" font-family="Helvetica,sans-Serif" font-size="10.00">cstdint</text>
</a>
</g>
</g>
<!-- Node4&#45;&gt;Node5 -->
<g id="edge4_Node000004_Node000005" class="edge">
<title>Node4&#45;&gt;Node5</title>
<g id="a_edge4_Node000004_Node000005"><a xlink:title=" ">
<path fill="none" stroke="#63b8ff" d="M536.68,-58.58C533.62,-57.95 530.58,-57.33 527.6,-56.75 445.5,-40.65 348.5,-24.93 297.34,-16.9"/>
<polygon fill="#63b8ff" stroke="#63b8ff" points="298.16,-13.48 287.74,-15.4 297.08,-20.4 298.16,-13.48"/>
</a>
</g>
</g>
<!-- Node6 -->
<g id="Node000006" class="node">
<title>Node6</title>
<g id="a_Node000006"><a xlink:title=" ">
<polygon fill="#e0e0e0" stroke="#999999" points="624.6,-20.75 572.6,-20.75 572.6,0 624.6,0 624.6,-20.75"/>
<text text-anchor="middle" x="598.6" y="-7.25" font-family="Helvetica,sans-Serif" font-size="10.00">cstddef</text>
</a>
</g>
</g>
<!-- Node4&#45;&gt;Node6 -->
<g id="edge5_Node000004_Node000006" class="edge">
<title>Node4&#45;&gt;Node6</title>
<g id="a_edge5_Node000004_Node000006"><a xlink:title=" ">
<path fill="none" stroke="#63b8ff" d="M598.6,-56.44C598.6,-49.1 598.6,-40.32 598.6,-32.46"/>
<polygon fill="#63b8ff" stroke="#63b8ff" points="602.1,-32.73 598.6,-22.73 595.1,-32.73 602.1,-32.73"/>
</a>
</g>
</g>
<!-- Node7&#45;&gt;Node4 -->
<g id="edge7_Node000007_Node000004" class="edge">
<title>Node7&#45;&gt;Node4</title>
<g id="a_edge7_Node000007_Node000004"><a xlink:title=" ">
<path fill="none" stroke="#63b8ff" d="M637.47,-195.52C630.02,-172.31 616.11,-129.02 607.11,-101"/>
<polygon fill="#63b8ff" stroke="#63b8ff" points="610.56,-100.27 604.17,-91.82 603.89,-102.41 610.56,-100.27"/>
</a>
</g>
</g>
<!-- Node8 -->
<g id="Node000008" class="node">
<title>Node8</title>
<g id="a_Node000008"><a xlink:href="macros_8hpp.html" target="_top" xlink:title=" ">
<polygon fill="white" stroke="#666666" points="441.85,-159.75 325.35,-159.75 325.35,-126.25 441.85,-126.25 441.85,-159.75"/>
<text text-anchor="start" x="333.35" y="-146.25" font-family="Helvetica,sans-Serif" font-size="10.00">proxsuite/linalg/veg</text>
<text text-anchor="middle" x="383.6" y="-133.5" font-family="Helvetica,sans-Serif" font-size="10.00">/internal/macros.hpp</text>
</a>
</g>
</g>
<!-- Node7&#45;&gt;Node8 -->
<g id="edge8_Node000007_Node000008" class="edge">
<title>Node7&#45;&gt;Node8</title>
<g id="a_edge8_Node000007_Node000008"><a xlink:title=" ">
<path fill="none" stroke="#63b8ff" d="M580.56,-195.33C542.13,-185.31 492.68,-172.43 452.95,-162.07"/>
<polygon fill="#63b8ff" stroke="#63b8ff" points="454.05,-158.74 443.49,-159.61 452.28,-165.52 454.05,-158.74"/>
</a>
</g>
</g>
<!-- Node7&#45;&gt;Node11 -->
<g id="edge16_Node000007_Node000011" class="edge">
<title>Node7&#45;&gt;Node11</title>
<g id="a_edge16_Node000007_Node000011"><a xlink:title=" ">
<path fill="none" stroke="#63b8ff" d="M649.39,-195.26C657.23,-177.45 671.18,-148.45 687.6,-126.25 694.87,-116.42 704,-106.68 712.57,-98.36"/>
<polygon fill="#63b8ff" stroke="#63b8ff" points="714.89,-100.98 719.77,-91.58 710.09,-95.89 714.89,-100.98"/>
</a>
</g>
</g>
<!-- Node7&#45;&gt;Node14 -->
<g id="edge17_Node000007_Node000014" class="edge">
<title>Node7&#45;&gt;Node14</title>
<g id="a_edge17_Node000007_Node000014"><a xlink:title=" ">
<path fill="none" stroke="#63b8ff" d="M662.77,-195.42C686.14,-177.23 726.26,-147.39 763.6,-126.25 784.09,-114.65 807.68,-103.78 828.28,-95.03"/>
<polygon fill="#63b8ff" stroke="#63b8ff" points="829.48,-98.32 837.35,-91.24 826.78,-91.86 829.48,-98.32"/>
</a>
</g>
</g>
<!-- Node8&#45;&gt;Node4 -->
<g id="edge10_Node000008_Node000004" class="edge">
<title>Node8&#45;&gt;Node4</title>
<g id="a_edge10_Node000008_Node000004"><a xlink:title=" ">
<path fill="none" stroke="#63b8ff" d="M435.1,-125.83C465.57,-116.27 504.37,-104.08 536.52,-93.99"/>
<polygon fill="#63b8ff" stroke="#63b8ff" points="537.22,-97.44 545.71,-91.11 535.12,-90.76 537.22,-97.44"/>
</a>
</g>
</g>
<!-- Node9 -->
<g id="Node000009" class="node">
<title>Node9</title>
<g id="a_Node000009"><a xlink:href="hedley_8ext_8hpp.html" target="_top" xlink:title=" ">
<polygon fill="white" stroke="#666666" points="518.73,-90.25 344.48,-90.25 344.48,-56.75 518.73,-56.75 518.73,-90.25"/>
<text text-anchor="start" x="352.48" y="-76.75" font-family="Helvetica,sans-Serif" font-size="10.00">proxsuite/linalg/veg</text>
<text text-anchor="middle" x="431.6" y="-64" font-family="Helvetica,sans-Serif" font-size="10.00">/internal/external/hedley.ext.hpp</text>
</a>
</g>
</g>
<!-- Node8&#45;&gt;Node9 -->
<g id="edge9_Node000008_Node000009" class="edge">
<title>Node8&#45;&gt;Node9</title>
<g id="a_edge9_Node000008_Node000009"><a xlink:title=" ">
<path fill="none" stroke="#63b8ff" d="M394.98,-126C400.6,-118.1 407.51,-108.38 413.8,-99.53"/>
<polygon fill="#63b8ff" stroke="#63b8ff" points="416.49,-101.79 419.43,-91.62 410.78,-97.74 416.49,-101.79"/>
</a>
</g>
</g>
<!-- Node10 -->
<g id="Node000010" class="node">
<title>Node10</title>
<g id="a_Node000010"><a xlink:href="preprocessor_8hpp.html" target="_top" xlink:title=" ">
<polygon fill="white" stroke="#666666" points="263.98,-90.25 121.23,-90.25 121.23,-56.75 263.98,-56.75 263.98,-90.25"/>
<text text-anchor="start" x="129.23" y="-76.75" font-family="Helvetica,sans-Serif" font-size="10.00">proxsuite/linalg/veg</text>
<text text-anchor="middle" x="192.6" y="-64" font-family="Helvetica,sans-Serif" font-size="10.00">/internal/preprocessor.hpp</text>
</a>
</g>
</g>
<!-- Node8&#45;&gt;Node10 -->
<g id="edge11_Node000008_Node000010" class="edge">
<title>Node8&#45;&gt;Node10</title>
<g id="a_edge11_Node000008_Node000010"><a xlink:title=" ">
<path fill="none" stroke="#63b8ff" d="M337.85,-125.83C311.14,-116.39 277.21,-104.4 248.87,-94.39"/>
<polygon fill="#63b8ff" stroke="#63b8ff" points="250.33,-91.19 239.74,-91.16 248,-97.79 250.33,-91.19"/>
</a>
</g>
</g>
<!-- Node8&#45;&gt;Node11 -->
<g id="edge12_Node000008_Node000011" class="edge">
<title>Node8&#45;&gt;Node11</title>
<g id="a_edge12_Node000008_Node000011"><a xlink:title=" ">
<path fill="none" stroke="#63b8ff" d="M442.1,-128.95C446.66,-128.01 451.2,-127.1 455.6,-126.25 546.78,-108.62 573.04,-108.8 666.67,-90.77"/>
<polygon fill="#63b8ff" stroke="#63b8ff" points="667.17,-94.23 676.32,-88.89 665.83,-87.36 667.17,-94.23"/>
</a>
</g>
</g>
<!-- Node12 -->
<g id="Node000012" class="node">
<title>Node12</title>
<g id="a_Node000012"><a xlink:title=" ">
<polygon fill="#e0e0e0" stroke="#999999" points="103.6,-83.88 21.6,-83.88 21.6,-63.12 103.6,-63.12 103.6,-83.88"/>
<text text-anchor="middle" x="62.6" y="-70.38" font-family="Helvetica,sans-Serif" font-size="10.00">initializer_list</text>
</a>
</g>
</g>
<!-- Node8&#45;&gt;Node12 -->
<g id="edge13_Node000008_Node000012" class="edge">
<title>Node8&#45;&gt;Node12</title>
<g id="a_edge13_Node000008_Node000012"><a xlink:title=" ">
<path fill="none" stroke="#63b8ff" d="M325.02,-132.84C269.84,-123.74 185.06,-108.51 112.6,-90.25 109.31,-89.42 105.92,-88.5 102.52,-87.53"/>
<polygon fill="#63b8ff" stroke="#63b8ff" points="103.82,-84.26 93.24,-84.75 101.81,-90.97 103.82,-84.26"/>
</a>
</g>
</g>
<!-- Node13 -->
<g id="Node000013" class="node">
<title>Node13</title>
<g id="a_Node000013"><a xlink:title=" ">
<polygon fill="#e0e0e0" stroke="#999999" points="326.85,-83.88 282.35,-83.88 282.35,-63.12 326.85,-63.12 326.85,-83.88"/>
<text text-anchor="middle" x="304.6" y="-70.38" font-family="Helvetica,sans-Serif" font-size="10.00">utility</text>
</a>
</g>
</g>
<!-- Node8&#45;&gt;Node13 -->
<g id="edge14_Node000008_Node000013" class="edge">
<title>Node8&#45;&gt;Node13</title>
<g id="a_edge14_Node000008_Node000013"><a xlink:title=" ">
<path fill="none" stroke="#63b8ff" d="M364.88,-126C352.81,-115.69 337.12,-102.28 324.77,-91.73"/>
<polygon fill="#63b8ff" stroke="#63b8ff" points="327.12,-89.14 317.25,-85.31 322.58,-94.46 327.12,-89.14"/>
</a>
</g>
</g>
<!-- Node8&#45;&gt;Node14 -->
<g id="edge15_Node000008_Node000014" class="edge">
<title>Node8&#45;&gt;Node14</title>
<g id="a_edge15_Node000008_Node000014"><a xlink:title=" ">
<path fill="none" stroke="#63b8ff" d="M442.24,-136.78C522.61,-129.21 671.68,-113.68 808.15,-90.57"/>
<polygon fill="#63b8ff" stroke="#63b8ff" points="808.45,-94.07 817.72,-88.94 807.27,-87.17 808.45,-94.07"/>
</a>
</g>
</g>
<!-- Node17&#45;&gt;Node5 -->
<g id="edge25_Node000017_Node000005" class="edge">
<title>Node17&#45;&gt;Node5</title>
<g id="a_edge25_Node000017_Node000005"><a xlink:title=" ">
<path fill="none" stroke="#63b8ff" d="M167.73,-195.95C88.33,-171.5 -40.38,-120.26 12.6,-56.75 39.31,-24.73 163.25,-15.25 225.59,-12.49"/>
<polygon fill="#63b8ff" stroke="#63b8ff" points="225.47,-15.99 235.32,-12.09 225.19,-9 225.47,-15.99"/>
</a>
</g>
</g>
<!-- Node17&#45;&gt;Node12 -->
<g id="edge26_Node000017_Node000012" class="edge">
<title>Node17&#45;&gt;Node12</title>
<g id="a_edge26_Node000017_Node000012"><a xlink:title=" ">
<path fill="none" stroke="#63b8ff" d="M205.7,-195.52C174.86,-169.43 114,-117.96 82.51,-91.34"/>
<polygon fill="#63b8ff" stroke="#63b8ff" points="85.16,-88.99 75.26,-85.21 80.64,-94.34 85.16,-88.99"/>
</a>
</g>
</g>
<!-- Node18&#45;&gt;Node2 -->
<g id="edge29_Node000018_Node000002" class="edge">
<title>Node18&#45;&gt;Node2</title>
<g id="a_edge29_Node000018_Node000002"><a xlink:title=" ">
<path fill="none" stroke="#63b8ff" d="M984.89,-403.83C972.15,-395.15 956.26,-384.31 942.36,-374.84"/>
<polygon fill="#63b8ff" stroke="#63b8ff" points="944.61,-372.13 934.37,-369.39 940.66,-377.91 944.61,-372.13"/>
</a>
</g>
</g>
<!-- Node18&#45;&gt;Node3 -->
<g id="edge28_Node000018_Node000003" class="edge">
<title>Node18&#45;&gt;Node3</title>
<g id="a_edge28_Node000018_Node000003"><a xlink:title=" ">
<path fill="none" stroke="#63b8ff" d="M937.07,-406.77C901.25,-398.54 857.89,-386.05 821.6,-368.25 788.45,-351.99 755.16,-325.67 733.19,-306.57"/>
<polygon fill="#63b8ff" stroke="#63b8ff" points="735.73,-304.14 725.92,-300.14 731.09,-309.38 735.73,-304.14"/>
</a>
</g>
</g>
<!-- Node18&#45;&gt;Node11 -->
<g id="edge30_Node000018_Node000011" class="edge">
<title>Node18&#45;&gt;Node11</title>
<g id="a_edge30_Node000018_Node000011"><a xlink:title=" ">
<path fill="none" stroke="#63b8ff" d="M1016.56,-403.95C1029.92,-374.53 1053.12,-310.81 1028.6,-265.25 980.44,-175.75 869.84,-121.27 800.28,-94.59"/>
<polygon fill="#63b8ff" stroke="#63b8ff" points="801.91,-91.46 791.32,-91.23 799.46,-98.02 801.91,-91.46"/>
</a>
</g>
</g>
<!-- Node18&#45;&gt;Node14 -->
<g id="edge31_Node000018_Node000014" class="edge">
<title>Node18&#45;&gt;Node14</title>
<g id="a_edge31_Node000018_Node000014"><a xlink:title=" ">
<path fill="none" stroke="#63b8ff" d="M1029.85,-403.85C1040.77,-394.53 1053.46,-381.96 1061.6,-368.25 1081.7,-334.41 1085.6,-322.36 1085.6,-283 1085.6,-283 1085.6,-283 1085.6,-211.5 1085.6,-145.81 1011.95,-109.65 952.94,-91.22"/>
<polygon fill="#63b8ff" stroke="#63b8ff" points="954.14,-87.93 943.56,-88.41 952.14,-94.63 954.14,-87.93"/>
</a>
</g>
</g>
<!-- Node19&#45;&gt;Node3 -->
<g id="edge33_Node000019_Node000003" class="edge">
<title>Node19&#45;&gt;Node3</title>
<g id="a_edge33_Node000019_Node000003"><a xlink:title=" ">
<path fill="none" stroke="#63b8ff" d="M662.58,-334.5C669.64,-326.43 678.35,-316.47 686.22,-307.46"/>
<polygon fill="#63b8ff" stroke="#63b8ff" points="688.78,-309.85 692.72,-300.02 683.51,-305.25 688.78,-309.85"/>
</a>
</g>
</g>
<!-- Node19&#45;&gt;Node11 -->
<g id="edge35_Node000019_Node000011" class="edge">
<title>Node19&#45;&gt;Node11</title>
<g id="a_edge35_Node000019_Node000011"><a xlink:title=" ">
<path fill="none" stroke="#63b8ff" d="M641.84,-334.52C633.88,-316.68 619.58,-287.41 602.6,-265.25 588.46,-246.78 573.79,-250.62 564.6,-229.25 558.72,-215.57 557.7,-208.94 564.6,-195.75 589.89,-147.39 644.22,-114.48 685.68,-95.28"/>
<polygon fill="#63b8ff" stroke="#63b8ff" points="687.11,-98.48 694.8,-91.2 684.25,-92.09 687.11,-98.48"/>
</a>
</g>
</g>
<!-- Node19&#45;&gt;Node14 -->
<g id="edge37_Node000019_Node000014" class="edge">
<title>Node19&#45;&gt;Node14</title>
<g id="a_edge37_Node000019_Node000014"><a xlink:title=" ">
<path fill="none" stroke="#63b8ff" d="M710.25,-335.34C732.63,-327.4 756.77,-315.68 774.6,-298.75 833.35,-242.97 863,-148.07 874.59,-101.67"/>
<polygon fill="#63b8ff" stroke="#63b8ff" points="877.93,-102.73 876.86,-92.19 871.13,-101.1 877.93,-102.73"/>
</a>
</g>
</g>
<!-- Node19&#45;&gt;Node17 -->
<g id="edge34_Node000019_Node000017" class="edge">
<title>Node19&#45;&gt;Node17</title>
<g id="a_edge34_Node000019_Node000017"><a xlink:title=" ">
<path fill="none" stroke="#63b8ff" d="M603.55,-334.33C554.01,-316.71 471.96,-287.99 400.6,-265.25 365.02,-253.91 325.12,-242.1 292.31,-232.63"/>
<polygon fill="#63b8ff" stroke="#63b8ff" points="293.5,-229.34 282.93,-229.94 291.57,-236.06 293.5,-229.34"/>
</a>
</g>
</g>
<!-- Node20 -->
<g id="Node000020" class="node">
<title>Node20</title>
<g id="a_Node000020"><a xlink:title=" ">
<polygon fill="#e0e0e0" stroke="#999999" points="593.23,-292.38 535.98,-292.38 535.98,-271.62 593.23,-271.62 593.23,-292.38"/>
<text text-anchor="middle" x="564.6" y="-278.88" font-family="Helvetica,sans-Serif" font-size="10.00">memory</text>
</a>
</g>
</g>
<!-- Node19&#45;&gt;Node20 -->
<g id="edge36_Node000019_Node000020" class="edge">
<title>Node19&#45;&gt;Node20</title>
<g id="a_edge36_Node000019_Node000020"><a xlink:title=" ">
<path fill="none" stroke="#63b8ff" d="M628.69,-334.5C615.73,-324.09 598.85,-310.52 585.66,-299.92"/>
<polygon fill="#63b8ff" stroke="#63b8ff" points="587.99,-297.31 578,-293.77 583.61,-302.76 587.99,-297.31"/>
</a>
</g>
</g>
</g>
</svg>
