<?xml version="1.0" encoding="UTF-8" standalone="no"?>
<!DOCTYPE svg PUBLIC "-//W3C//DTD SVG 1.1//EN"
 "http://www.w3.org/Graphics/SVG/1.1/DTD/svg11.dtd">
<!-- Generated by graphviz version 8.1.0 (20230707.2238)
 -->
<!-- Title: include/proxsuite/proxqp/utils/prints.hpp Pages: 1 -->
<svg width="519pt" height="389pt"
 viewBox="0.00 0.00 518.75 389.00" xmlns="http://www.w3.org/2000/svg" xmlns:xlink="http://www.w3.org/1999/xlink">
<g id="graph0" class="graph" transform="scale(1 1) rotate(0) translate(4 385)">
<title>include/proxsuite/proxqp/utils/prints.hpp</title>
<!-- Node1 -->
<g id="Node000001" class="node">
<title>Node1</title>
<g id="a_Node000001"><a xlink:title=" ">
<polygon fill="#999999" stroke="#666666" points="381.75,-381 245,-381 245,-347.5 381.75,-347.5 381.75,-381"/>
<text text-anchor="start" x="253" y="-367.5" font-family="Helvetica,sans-Serif" font-size="10.00">include/proxsuite/proxqp</text>
<text text-anchor="middle" x="313.38" y="-354.75" font-family="Helvetica,sans-Serif" font-size="10.00">/utils/prints.hpp</text>
</a>
</g>
</g>
<!-- Node2 -->
<g id="Node000002" class="node">
<title>Node2</title>
<g id="a_Node000002"><a xlink:href="dense_2utils_8hpp.html" target="_top" xlink:title=" ">
<polygon fill="white" stroke="#666666" points="304.75,-311.5 168,-311.5 168,-278 304.75,-278 304.75,-311.5"/>
<text text-anchor="start" x="176" y="-298" font-family="Helvetica,sans-Serif" font-size="10.00">include/proxsuite/proxqp</text>
<text text-anchor="middle" x="236.38" y="-285.25" font-family="Helvetica,sans-Serif" font-size="10.00">/dense/utils.hpp</text>
</a>
</g>
</g>
<!-- Node1&#45;&gt;Node2 -->
<g id="edge1_Node000001_Node000002" class="edge">
<title>Node1&#45;&gt;Node2</title>
<g id="a_edge1_Node000001_Node000002"><a xlink:title=" ">
<path fill="none" stroke="#63b8ff" d="M286.98,-340.11C276.37,-330.81 264.4,-320.31 254.76,-311.87"/>
<polygon fill="#63b8ff" stroke="#63b8ff" points="284.3,-343.29 294.13,-347.25 288.91,-338.03 284.3,-343.29"/>
</a>
</g>
</g>
<!-- Node8 -->
<g id="Node000008" class="node">
<title>Node8</title>
<g id="a_Node000008"><a xlink:href="sparse_2utils_8hpp.html" target="_top" xlink:title=" ">
<polygon fill="white" stroke="#666666" points="468.75,-311.5 332,-311.5 332,-278 468.75,-278 468.75,-311.5"/>
<text text-anchor="start" x="340" y="-298" font-family="Helvetica,sans-Serif" font-size="10.00">include/proxsuite/proxqp</text>
<text text-anchor="middle" x="400.38" y="-285.25" font-family="Helvetica,sans-Serif" font-size="10.00">/sparse/utils.hpp</text>
</a>
</g>
</g>
<!-- Node1&#45;&gt;Node8 -->
<g id="edge7_Node000001_Node000008" class="edge">
<title>Node1&#45;&gt;Node8</title>
<g id="a_edge7_Node000001_Node000008"><a xlink:title=" ">
<path fill="none" stroke="#63b8ff" d="M342.49,-340.66C354.65,-331.23 368.5,-320.48 379.6,-311.87"/>
<polygon fill="#63b8ff" stroke="#63b8ff" points="340.75,-338.36 334.99,-347.25 345.04,-343.89 340.75,-338.36"/>
</a>
</g>
</g>
<!-- Node3 -->
<g id="Node000003" class="node">
<title>Node3</title>
<g id="a_Node000003"><a xlink:href="dense_2solver_8hpp.html" target="_top" xlink:title=" ">
<polygon fill="white" stroke="#666666" points="286.75,-242 150,-242 150,-208.5 286.75,-208.5 286.75,-242"/>
<text text-anchor="start" x="158" y="-228.5" font-family="Helvetica,sans-Serif" font-size="10.00">include/proxsuite/proxqp</text>
<text text-anchor="middle" x="218.38" y="-215.75" font-family="Helvetica,sans-Serif" font-size="10.00">/dense/solver.hpp</text>
</a>
</g>
</g>
<!-- Node2&#45;&gt;Node3 -->
<g id="edge2_Node000002_Node000003" class="edge">
<title>Node2&#45;&gt;Node3</title>
<g id="a_edge2_Node000002_Node000003"><a xlink:title=" ">
<path fill="none" stroke="#63b8ff" d="M229.29,-267.17C227.03,-258.7 224.6,-249.6 222.61,-242.13"/>
<polygon fill="#63b8ff" stroke="#63b8ff" points="226.15,-267.99 232.11,-276.75 232.91,-266.19 226.15,-267.99"/>
</a>
</g>
</g>
<!-- Node4 -->
<g id="Node000004" class="node">
<title>Node4</title>
<g id="a_Node000004"><a xlink:href="proxqp_2dense_2wrapper_8hpp.html" target="_top" xlink:title=" ">
<polygon fill="white" stroke="#666666" points="243.75,-172.5 107,-172.5 107,-139 243.75,-139 243.75,-172.5"/>
<text text-anchor="start" x="115" y="-159" font-family="Helvetica,sans-Serif" font-size="10.00">include/proxsuite/proxqp</text>
<text text-anchor="middle" x="175.38" y="-146.25" font-family="Helvetica,sans-Serif" font-size="10.00">/dense/wrapper.hpp</text>
</a>
</g>
</g>
<!-- Node3&#45;&gt;Node4 -->
<g id="edge3_Node000003_Node000004" class="edge">
<title>Node3&#45;&gt;Node4</title>
<g id="a_edge3_Node000003_Node000004"><a xlink:title=" ">
<path fill="none" stroke="#63b8ff" d="M202.35,-199.09C196.7,-190.23 190.51,-180.52 185.49,-172.63"/>
<polygon fill="#63b8ff" stroke="#63b8ff" points="199.86,-200.7 208.18,-207.25 205.76,-196.94 199.86,-200.7"/>
</a>
</g>
</g>
<!-- Node5 -->
<g id="Node000005" class="node">
<title>Node5</title>
<g id="a_Node000005"><a xlink:href="dense_8hpp.html" target="_top" xlink:title=" ">
<polygon fill="white" stroke="#666666" points="136.75,-103 0,-103 0,-69.5 136.75,-69.5 136.75,-103"/>
<text text-anchor="start" x="8" y="-89.5" font-family="Helvetica,sans-Serif" font-size="10.00">include/proxsuite/proxqp</text>
<text text-anchor="middle" x="68.38" y="-76.75" font-family="Helvetica,sans-Serif" font-size="10.00">/dense/dense.hpp</text>
</a>
</g>
</g>
<!-- Node4&#45;&gt;Node5 -->
<g id="edge4_Node000004_Node000005" class="edge">
<title>Node4&#45;&gt;Node5</title>
<g id="a_edge4_Node000004_Node000005"><a xlink:title=" ">
<path fill="none" stroke="#63b8ff" d="M140.61,-132.82C125.36,-123.2 107.79,-112.11 93.8,-103.29"/>
<polygon fill="#63b8ff" stroke="#63b8ff" points="138.42,-136.21 148.75,-138.58 142.16,-130.29 138.42,-136.21"/>
</a>
</g>
</g>
<!-- Node6 -->
<g id="Node000006" class="node">
<title>Node6</title>
<g id="a_Node000006"><a xlink:href="qp__solve_8hpp.html" target="_top" xlink:title=" ">
<polygon fill="white" stroke="#666666" points="294.75,-33.5 158,-33.5 158,0 294.75,0 294.75,-33.5"/>
<text text-anchor="start" x="166" y="-20" font-family="Helvetica,sans-Serif" font-size="10.00">include/proxsuite/proxqp</text>
<text text-anchor="middle" x="226.38" y="-7.25" font-family="Helvetica,sans-Serif" font-size="10.00">/parallel/qp_solve.hpp</text>
</a>
</g>
</g>
<!-- Node4&#45;&gt;Node6 -->
<g id="edge5_Node000004_Node000006" class="edge">
<title>Node4&#45;&gt;Node6</title>
<g id="a_edge5_Node000004_Node000006"><a xlink:title=" ">
<path fill="none" stroke="#63b8ff" d="M173.89,-128.18C173.87,-110.85 175.66,-88.08 183.38,-69.5 189.02,-55.91 199.52,-43.16 208.74,-33.72"/>
<polygon fill="#63b8ff" stroke="#63b8ff" points="170.4,-127.76 174.12,-137.68 177.4,-127.6 170.4,-127.76"/>
</a>
</g>
</g>
<!-- Node7 -->
<g id="Node000007" class="node">
<title>Node7</title>
<g id="a_Node000007"><a xlink:href="serialization_2wrapper_8hpp.html" target="_top" xlink:title=" ">
<polygon fill="white" stroke="#666666" points="355.88,-103 192.88,-103 192.88,-69.5 355.88,-69.5 355.88,-103"/>
<text text-anchor="start" x="200.88" y="-89.5" font-family="Helvetica,sans-Serif" font-size="10.00">include/proxsuite/serialization</text>
<text text-anchor="middle" x="274.38" y="-76.75" font-family="Helvetica,sans-Serif" font-size="10.00">/wrapper.hpp</text>
</a>
</g>
</g>
<!-- Node4&#45;&gt;Node7 -->
<g id="edge6_Node000004_Node000007" class="edge">
<title>Node4&#45;&gt;Node7</title>
<g id="a_edge6_Node000004_Node000007"><a xlink:title=" ">
<path fill="none" stroke="#63b8ff" d="M207.94,-132.54C221.96,-122.99 238.03,-112.03 250.86,-103.29"/>
<polygon fill="#63b8ff" stroke="#63b8ff" points="206.38,-130.06 200.09,-138.58 210.32,-135.84 206.38,-130.06"/>
</a>
</g>
</g>
<!-- Node9 -->
<g id="Node000009" class="node">
<title>Node9</title>
<g id="a_Node000009"><a xlink:href="sparse_2solver_8hpp.html" target="_top" xlink:title=" ">
<polygon fill="white" stroke="#666666" points="499.75,-172.5 363,-172.5 363,-139 499.75,-139 499.75,-172.5"/>
<text text-anchor="start" x="371" y="-159" font-family="Helvetica,sans-Serif" font-size="10.00">include/proxsuite/proxqp</text>
<text text-anchor="middle" x="431.38" y="-146.25" font-family="Helvetica,sans-Serif" font-size="10.00">/sparse/solver.hpp</text>
</a>
</g>
</g>
<!-- Node8&#45;&gt;Node9 -->
<g id="edge8_Node000008_Node000009" class="edge">
<title>Node8&#45;&gt;Node9</title>
<g id="a_edge8_Node000008_Node000009"><a xlink:title=" ">
<path fill="none" stroke="#63b8ff" d="M372.77,-269.98C365.36,-261.93 358.31,-252.34 354.38,-242 349.08,-228.08 347.37,-221.64 354.38,-208.5 362.71,-192.86 378.09,-181.11 392.94,-172.79"/>
<polygon fill="#63b8ff" stroke="#63b8ff" points="369.99,-272.15 379.52,-276.78 374.95,-267.22 369.99,-272.15"/>
</a>
</g>
</g>
<!-- Node12 -->
<g id="Node000012" class="node">
<title>Node12</title>
<g id="a_Node000012"><a xlink:href="sparse_2workspace_8hpp.html" target="_top" xlink:title=" ">
<polygon fill="white" stroke="#666666" points="499.75,-242 363,-242 363,-208.5 499.75,-208.5 499.75,-242"/>
<text text-anchor="start" x="371" y="-228.5" font-family="Helvetica,sans-Serif" font-size="10.00">include/proxsuite/proxqp</text>
<text text-anchor="middle" x="431.38" y="-215.75" font-family="Helvetica,sans-Serif" font-size="10.00">/sparse/workspace.hpp</text>
</a>
</g>
</g>
<!-- Node8&#45;&gt;Node12 -->
<g id="edge12_Node000008_Node000012" class="edge">
<title>Node8&#45;&gt;Node12</title>
<g id="a_edge12_Node000008_Node000012"><a xlink:title=" ">
<path fill="none" stroke="#63b8ff" d="M405.73,-267.74C409.33,-259.11 413.88,-249.76 418.25,-242.13"/>
<polygon fill="#63b8ff" stroke="#63b8ff" points="402.2,-266.16 401.88,-276.75 408.74,-268.68 402.2,-266.16"/>
</a>
</g>
</g>
<!-- Node10 -->
<g id="Node000010" class="node">
<title>Node10</title>
<g id="a_Node000010"><a xlink:href="proxqp_2sparse_2wrapper_8hpp.html" target="_top" xlink:title=" ">
<polygon fill="white" stroke="#666666" points="510.75,-103 374,-103 374,-69.5 510.75,-69.5 510.75,-103"/>
<text text-anchor="start" x="382" y="-89.5" font-family="Helvetica,sans-Serif" font-size="10.00">include/proxsuite/proxqp</text>
<text text-anchor="middle" x="442.38" y="-76.75" font-family="Helvetica,sans-Serif" font-size="10.00">/sparse/wrapper.hpp</text>
</a>
</g>
</g>
<!-- Node9&#45;&gt;Node10 -->
<g id="edge9_Node000009_Node000010" class="edge">
<title>Node9&#45;&gt;Node10</title>
<g id="a_edge9_Node000009_Node000010"><a xlink:title=" ">
<path fill="none" stroke="#63b8ff" d="M435.71,-128.17C437.09,-119.7 438.57,-110.6 439.79,-103.13"/>
<polygon fill="#63b8ff" stroke="#63b8ff" points="432.14,-127.32 433.98,-137.75 439.04,-128.45 432.14,-127.32"/>
</a>
</g>
</g>
<!-- Node10&#45;&gt;Node6 -->
<g id="edge10_Node000010_Node000006" class="edge">
<title>Node10&#45;&gt;Node6</title>
<g id="a_edge10_Node000010_Node000006"><a xlink:title=" ">
<path fill="none" stroke="#63b8ff" d="M380.38,-65.88C347.98,-55.75 308.8,-43.51 278.06,-33.9"/>
<polygon fill="#63b8ff" stroke="#63b8ff" points="379.05,-69.44 389.64,-69.08 381.14,-62.76 379.05,-69.44"/>
</a>
</g>
</g>
<!-- Node11 -->
<g id="Node000011" class="node">
<title>Node11</title>
<g id="a_Node000011"><a xlink:href="sparse_8hpp.html" target="_top" xlink:title=" ">
<polygon fill="white" stroke="#666666" points="510.75,-33.5 374,-33.5 374,0 510.75,0 510.75,-33.5"/>
<text text-anchor="start" x="382" y="-20" font-family="Helvetica,sans-Serif" font-size="10.00">include/proxsuite/proxqp</text>
<text text-anchor="middle" x="442.38" y="-7.25" font-family="Helvetica,sans-Serif" font-size="10.00">/sparse/sparse.hpp</text>
</a>
</g>
</g>
<!-- Node10&#45;&gt;Node11 -->
<g id="edge11_Node000010_Node000011" class="edge">
<title>Node10&#45;&gt;Node11</title>
<g id="a_edge11_Node000010_Node000011"><a xlink:title=" ">
<path fill="none" stroke="#63b8ff" d="M442.38,-58.39C442.38,-50 442.38,-41.01 442.38,-33.63"/>
<polygon fill="#63b8ff" stroke="#63b8ff" points="438.88,-58.25 442.38,-68.25 445.88,-58.25 438.88,-58.25"/>
</a>
</g>
</g>
<!-- Node12&#45;&gt;Node8 -->
<g id="edge14_Node000012_Node000008" class="edge">
<title>Node12&#45;&gt;Node8</title>
<g id="a_edge14_Node000012_Node000008"><a xlink:title=" ">
<path fill="none" stroke="#63b8ff" d="M426.07,-252.13C422.48,-260.75 417.94,-270.1 413.56,-277.75"/>
<polygon fill="#63b8ff" stroke="#63b8ff" points="429.6,-253.72 429.91,-243.13 423.06,-251.22 429.6,-253.72"/>
</a>
</g>
</g>
<!-- Node12&#45;&gt;Node9 -->
<g id="edge13_Node000012_Node000009" class="edge">
<title>Node12&#45;&gt;Node9</title>
<g id="a_edge13_Node000012_Node000009"><a xlink:title=" ">
<path fill="none" stroke="#63b8ff" d="M431.38,-197.39C431.38,-189 431.38,-180.01 431.38,-172.63"/>
<polygon fill="#63b8ff" stroke="#63b8ff" points="427.88,-197.25 431.38,-207.25 434.88,-197.25 427.88,-197.25"/>
</a>
</g>
</g>
</g>
</svg>
