<?xml version="1.0" encoding="UTF-8" standalone="no"?>
<!DOCTYPE svg PUBLIC "-//W3C//DTD SVG 1.1//EN"
 "http://www.w3.org/Graphics/SVG/1.1/DTD/svg11.dtd">
<!-- Generated by graphviz version 6.0.2 (20221126.1951)
 -->
<!-- Title: include/proxsuite/proxqp/dense/fwd.hpp Pages: 1 -->
<svg width="865pt" height="368pt"
 viewBox="0.00 0.00 864.50 368.00" xmlns="http://www.w3.org/2000/svg" xmlns:xlink="http://www.w3.org/1999/xlink">
<g id="graph0" class="graph" transform="scale(1 1) rotate(0) translate(4 364)">
<title>include/proxsuite/proxqp/dense/fwd.hpp</title>
<!-- Node1 -->
<g id="node1" class="node">
<title>Node1</title>
<g id="a_node1"><a xlink:title=" ">
<polygon fill="#999999" stroke="#666666" points="247,-360 110,-360 110,-330 247,-330 247,-360"/>
<text text-anchor="start" x="118" y="-348" font-family="Helvetica,sans-Serif" font-size="10.00">include/proxsuite/proxqp</text>
<text text-anchor="middle" x="178.5" y="-337" font-family="Helvetica,sans-Serif" font-size="10.00">/dense/fwd.hpp</text>
</a>
</g>
</g>
<!-- Node2 -->
<g id="node2" class="node">
<title>Node2</title>
<g id="a_node2"><a xlink:href="dense_2helpers_8hpp.html" target="_top" xlink:title=" ">
<polygon fill="white" stroke="#666666" points="137,-228 0,-228 0,-198 137,-198 137,-228"/>
<text text-anchor="start" x="8" y="-216" font-family="Helvetica,sans-Serif" font-size="10.00">include/proxsuite/proxqp</text>
<text text-anchor="middle" x="68.5" y="-205" font-family="Helvetica,sans-Serif" font-size="10.00">/dense/helpers.hpp</text>
</a>
</g>
</g>
<!-- Node1&#45;&gt;Node2 -->
<g id="edge1" class="edge">
<title>Node1&#45;&gt;Node2</title>
<path fill="none" stroke="#63b8ff" d="M127.43,-325.37C112.63,-317.71 97.72,-307.42 87.5,-294 72.71,-274.58 69.2,-245.41 68.5,-228.18"/>
<polygon fill="#63b8ff" stroke="#63b8ff" points="126.06,-328.59 136.59,-329.8 129.11,-322.29 126.06,-328.59"/>
</g>
<!-- Node7 -->
<g id="node7" class="node">
<title>Node7</title>
<g id="a_node7"><a xlink:href="proxqp_2dense_2model_8hpp.html" target="_top" xlink:title=" ">
<polygon fill="white" stroke="#666666" points="486,-294 349,-294 349,-264 486,-264 486,-294"/>
<text text-anchor="start" x="357" y="-282" font-family="Helvetica,sans-Serif" font-size="10.00">include/proxsuite/proxqp</text>
<text text-anchor="middle" x="417.5" y="-271" font-family="Helvetica,sans-Serif" font-size="10.00">/dense/model.hpp</text>
</a>
</g>
</g>
<!-- Node1&#45;&gt;Node7 -->
<g id="edge7" class="edge">
<title>Node1&#45;&gt;Node7</title>
<path fill="none" stroke="#63b8ff" d="M241.04,-327.25C279.65,-316.91 328.62,-303.8 365.17,-294.01"/>
<polygon fill="#63b8ff" stroke="#63b8ff" points="239.7,-323.99 230.95,-329.95 241.51,-330.75 239.7,-323.99"/>
</g>
<!-- Node12 -->
<g id="node12" class="node">
<title>Node12</title>
<g id="a_node12"><a xlink:href="dense_2preconditioner_2ruiz_8hpp.html" target="_top" xlink:title=" ">
<polygon fill="white" stroke="#666666" points="260.5,-294 96.5,-294 96.5,-264 260.5,-264 260.5,-294"/>
<text text-anchor="start" x="104.5" y="-282" font-family="Helvetica,sans-Serif" font-size="10.00">include/proxsuite/proxqp</text>
<text text-anchor="middle" x="178.5" y="-271" font-family="Helvetica,sans-Serif" font-size="10.00">/dense/preconditioner/ruiz.hpp</text>
</a>
</g>
</g>
<!-- Node1&#45;&gt;Node12 -->
<g id="edge14" class="edge">
<title>Node1&#45;&gt;Node12</title>
<path fill="none" stroke="#63b8ff" d="M178.5,-319.54C178.5,-310.96 178.5,-301.61 178.5,-294.16"/>
<polygon fill="#63b8ff" stroke="#63b8ff" points="175,-319.8 178.5,-329.8 182,-319.8 175,-319.8"/>
</g>
<!-- Node3 -->
<g id="node3" class="node">
<title>Node3</title>
<g id="a_node3"><a xlink:href="dense_2solver_8hpp.html" target="_top" xlink:title=" ">
<polygon fill="white" stroke="#666666" points="331,-162 194,-162 194,-132 331,-132 331,-162"/>
<text text-anchor="start" x="202" y="-150" font-family="Helvetica,sans-Serif" font-size="10.00">include/proxsuite/proxqp</text>
<text text-anchor="middle" x="262.5" y="-139" font-family="Helvetica,sans-Serif" font-size="10.00">/dense/solver.hpp</text>
</a>
</g>
</g>
<!-- Node2&#45;&gt;Node3 -->
<g id="edge2" class="edge">
<title>Node2&#45;&gt;Node3</title>
<path fill="none" stroke="#63b8ff" d="M120.87,-194.72C151.96,-184.47 190.86,-171.63 220.03,-162.01"/>
<polygon fill="#63b8ff" stroke="#63b8ff" points="119.47,-191.5 111.07,-197.95 121.67,-198.15 119.47,-191.5"/>
</g>
<!-- Node4 -->
<g id="node4" class="node">
<title>Node4</title>
<g id="a_node4"><a xlink:href="proxqp_2dense_2wrapper_8hpp.html" target="_top" xlink:title=" ">
<polygon fill="white" stroke="#666666" points="234,-96 97,-96 97,-66 234,-66 234,-96"/>
<text text-anchor="start" x="105" y="-84" font-family="Helvetica,sans-Serif" font-size="10.00">include/proxsuite/proxqp</text>
<text text-anchor="middle" x="165.5" y="-73" font-family="Helvetica,sans-Serif" font-size="10.00">/dense/wrapper.hpp</text>
</a>
</g>
</g>
<!-- Node2&#45;&gt;Node4 -->
<g id="edge6" class="edge">
<title>Node2&#45;&gt;Node4</title>
<path fill="none" stroke="#63b8ff" d="M85.06,-189.8C105.07,-162.99 138.12,-118.7 154.95,-96.14"/>
<polygon fill="#63b8ff" stroke="#63b8ff" points="82.24,-187.73 79.07,-197.84 87.85,-191.92 82.24,-187.73"/>
</g>
<!-- Node3&#45;&gt;Node4 -->
<g id="edge3" class="edge">
<title>Node3&#45;&gt;Node4</title>
<path fill="none" stroke="#63b8ff" d="M232.23,-126.03C217.55,-116.34 200.27,-104.94 186.97,-96.16"/>
<polygon fill="#63b8ff" stroke="#63b8ff" points="230.7,-129.21 240.97,-131.8 234.55,-123.37 230.7,-129.21"/>
</g>
<!-- Node5 -->
<g id="node5" class="node">
<title>Node5</title>
<g id="a_node5"><a xlink:href="dense_8hpp.html" target="_top" xlink:title=" ">
<polygon fill="white" stroke="#666666" points="150,-30 13,-30 13,0 150,0 150,-30"/>
<text text-anchor="start" x="21" y="-18" font-family="Helvetica,sans-Serif" font-size="10.00">include/proxsuite/proxqp</text>
<text text-anchor="middle" x="81.5" y="-7" font-family="Helvetica,sans-Serif" font-size="10.00">/dense/dense.hpp</text>
</a>
</g>
</g>
<!-- Node4&#45;&gt;Node5 -->
<g id="edge4" class="edge">
<title>Node4&#45;&gt;Node5</title>
<path fill="none" stroke="#63b8ff" d="M138.56,-59.48C126.01,-49.91 111.39,-38.77 100.09,-30.16"/>
<polygon fill="#63b8ff" stroke="#63b8ff" points="136.78,-62.52 146.86,-65.8 141.02,-56.95 136.78,-62.52"/>
</g>
<!-- Node6 -->
<g id="node6" class="node">
<title>Node6</title>
<g id="a_node6"><a xlink:href="serialization_2wrapper_8hpp.html" target="_top" xlink:title=" ">
<polygon fill="white" stroke="#666666" points="332.5,-30 168.5,-30 168.5,0 332.5,0 332.5,-30"/>
<text text-anchor="start" x="176.5" y="-18" font-family="Helvetica,sans-Serif" font-size="10.00">include/proxsuite/serialization</text>
<text text-anchor="middle" x="250.5" y="-7" font-family="Helvetica,sans-Serif" font-size="10.00">/wrapper.hpp</text>
</a>
</g>
</g>
<!-- Node4&#45;&gt;Node6 -->
<g id="edge5" class="edge">
<title>Node4&#45;&gt;Node6</title>
<path fill="none" stroke="#63b8ff" d="M192.39,-59.75C205.17,-50.13 220.14,-38.86 231.69,-30.16"/>
<polygon fill="#63b8ff" stroke="#63b8ff" points="190.25,-56.99 184.36,-65.8 194.46,-62.58 190.25,-56.99"/>
</g>
<!-- Node8 -->
<g id="node8" class="node">
<title>Node8</title>
<g id="a_node8"><a xlink:href="linesearch_8hpp.html" target="_top" xlink:title=" ">
<polygon fill="white" stroke="#666666" points="486,-228 349,-228 349,-198 486,-198 486,-228"/>
<text text-anchor="start" x="357" y="-216" font-family="Helvetica,sans-Serif" font-size="10.00">include/proxsuite/proxqp</text>
<text text-anchor="middle" x="417.5" y="-205" font-family="Helvetica,sans-Serif" font-size="10.00">/dense/linesearch.hpp</text>
</a>
</g>
</g>
<!-- Node7&#45;&gt;Node8 -->
<g id="edge8" class="edge">
<title>Node7&#45;&gt;Node8</title>
<path fill="none" stroke="#63b8ff" d="M417.5,-253.54C417.5,-244.96 417.5,-235.61 417.5,-228.16"/>
<polygon fill="#63b8ff" stroke="#63b8ff" points="414,-253.8 417.5,-263.8 421,-253.8 414,-253.8"/>
</g>
<!-- Node9 -->
<g id="node9" class="node">
<title>Node9</title>
<g id="a_node9"><a xlink:href="dense_2utils_8hpp.html" target="_top" xlink:title=" ">
<polygon fill="white" stroke="#666666" points="331,-228 194,-228 194,-198 331,-198 331,-228"/>
<text text-anchor="start" x="202" y="-216" font-family="Helvetica,sans-Serif" font-size="10.00">include/proxsuite/proxqp</text>
<text text-anchor="middle" x="262.5" y="-205" font-family="Helvetica,sans-Serif" font-size="10.00">/dense/utils.hpp</text>
</a>
</g>
</g>
<!-- Node7&#45;&gt;Node9 -->
<g id="edge10" class="edge">
<title>Node7&#45;&gt;Node9</title>
<path fill="none" stroke="#63b8ff" d="M374.04,-260.05C349.48,-249.91 319.23,-237.43 296.44,-228.01"/>
<polygon fill="#63b8ff" stroke="#63b8ff" points="372.91,-263.37 383.48,-263.95 375.58,-256.9 372.91,-263.37"/>
</g>
<!-- Node10 -->
<g id="node10" class="node">
<title>Node10</title>
<g id="a_node10"><a xlink:href="random__qp__problems_8hpp.html" target="_top" xlink:title=" ">
<polygon fill="white" stroke="#666666" points="674.5,-228 504.5,-228 504.5,-198 674.5,-198 674.5,-228"/>
<text text-anchor="start" x="512.5" y="-216" font-family="Helvetica,sans-Serif" font-size="10.00">include/proxsuite/proxqp</text>
<text text-anchor="middle" x="589.5" y="-205" font-family="Helvetica,sans-Serif" font-size="10.00">/utils/random_qp_problems.hpp</text>
</a>
</g>
</g>
<!-- Node7&#45;&gt;Node10 -->
<g id="edge12" class="edge">
<title>Node7&#45;&gt;Node10</title>
<path fill="none" stroke="#63b8ff" d="M464.65,-260.46C492.09,-250.25 526.21,-237.55 551.84,-228.01"/>
<polygon fill="#63b8ff" stroke="#63b8ff" points="463.4,-257.19 455.25,-263.95 465.84,-263.75 463.4,-257.19"/>
</g>
<!-- Node11 -->
<g id="node11" class="node">
<title>Node11</title>
<g id="a_node11"><a xlink:href="serialization_2model_8hpp.html" target="_top" xlink:title=" ">
<polygon fill="white" stroke="#666666" points="856.5,-228 692.5,-228 692.5,-198 856.5,-198 856.5,-228"/>
<text text-anchor="start" x="700.5" y="-216" font-family="Helvetica,sans-Serif" font-size="10.00">include/proxsuite/serialization</text>
<text text-anchor="middle" x="774.5" y="-205" font-family="Helvetica,sans-Serif" font-size="10.00">/model.hpp</text>
</a>
</g>
</g>
<!-- Node7&#45;&gt;Node11 -->
<g id="edge13" class="edge">
<title>Node7&#45;&gt;Node11</title>
<path fill="none" stroke="#63b8ff" d="M496.42,-263.85C555.87,-253.19 636.97,-238.65 696.25,-228.03"/>
<polygon fill="#63b8ff" stroke="#63b8ff" points="495.56,-260.45 486.33,-265.66 496.79,-267.34 495.56,-260.45"/>
</g>
<!-- Node8&#45;&gt;Node3 -->
<g id="edge9" class="edge">
<title>Node8&#45;&gt;Node3</title>
<path fill="none" stroke="#63b8ff" d="M374.04,-194.05C349.48,-183.91 319.23,-171.43 296.44,-162.01"/>
<polygon fill="#63b8ff" stroke="#63b8ff" points="372.91,-197.37 383.48,-197.95 375.58,-190.9 372.91,-197.37"/>
</g>
<!-- Node9&#45;&gt;Node3 -->
<g id="edge11" class="edge">
<title>Node9&#45;&gt;Node3</title>
<path fill="none" stroke="#63b8ff" d="M262.5,-187.54C262.5,-178.96 262.5,-169.61 262.5,-162.16"/>
<polygon fill="#63b8ff" stroke="#63b8ff" points="259,-187.8 262.5,-197.8 266,-187.8 259,-187.8"/>
</g>
<!-- Node12&#45;&gt;Node2 -->
<g id="edge15" class="edge">
<title>Node12&#45;&gt;Node2</title>
<path fill="none" stroke="#63b8ff" d="M145.32,-258.69C128.34,-248.82 108.05,-237.01 92.58,-228.01"/>
<polygon fill="#63b8ff" stroke="#63b8ff" points="143.96,-261.95 154.36,-263.95 147.48,-255.9 143.96,-261.95"/>
</g>
<!-- Node12&#45;&gt;Node4 -->
<g id="edge17" class="edge">
<title>Node12&#45;&gt;Node4</title>
<path fill="none" stroke="#63b8ff" d="M176.9,-253.89C174.16,-212.58 168.65,-129.48 166.44,-96.23"/>
<polygon fill="#63b8ff" stroke="#63b8ff" points="173.41,-254.16 177.57,-263.9 180.4,-253.69 173.41,-254.16"/>
</g>
<!-- Node12&#45;&gt;Node9 -->
<g id="edge16" class="edge">
<title>Node12&#45;&gt;Node9</title>
<path fill="none" stroke="#63b8ff" d="M205.44,-257.48C217.99,-247.91 232.61,-236.77 243.91,-228.16"/>
<polygon fill="#63b8ff" stroke="#63b8ff" points="202.98,-254.95 197.14,-263.8 207.22,-260.52 202.98,-254.95"/>
</g>
</g>
</svg>
