<?xml version="1.0" encoding="UTF-8" standalone="no"?>
<!DOCTYPE svg PUBLIC "-//W3C//DTD SVG 1.1//EN"
 "http://www.w3.org/Graphics/SVG/1.1/DTD/svg11.dtd">
<!-- Generated by graphviz version 12.0.0 (20240803.0821)
 -->
<!-- Title: include/proxsuite/proxqp/sparse/model.hpp Pages: 1 -->
<svg width="990pt" height="598pt"
 viewBox="0.00 0.00 989.93 597.50" xmlns="http://www.w3.org/2000/svg" xmlns:xlink="http://www.w3.org/1999/xlink">
<g id="graph0" class="graph" transform="scale(1 1) rotate(0) translate(4 593.5)">
<title>include/proxsuite/proxqp/sparse/model.hpp</title>
<!-- Node1 -->
<g id="Node000001" class="node">
<title>Node1</title>
<g id="a_Node000001"><a xlink:title=" ">
<polygon fill="#999999" stroke="#666666" points="833.75,-589.5 697,-589.5 697,-556 833.75,-556 833.75,-589.5"/>
<text text-anchor="start" x="705" y="-576" font-family="Helvetica,sans-Serif" font-size="10.00">include/proxsuite/proxqp</text>
<text text-anchor="middle" x="765.38" y="-563.25" font-family="Helvetica,sans-Serif" font-size="10.00">/sparse/model.hpp</text>
</a>
</g>
</g>
<!-- Node2 -->
<g id="Node000002" class="node">
<title>Node2</title>
<g id="a_Node000002"><a xlink:href="proxqp_2dense_2model_8hpp.html" target="_top" xlink:title=" ">
<polygon fill="white" stroke="#666666" points="459.75,-520 323,-520 323,-486.5 459.75,-486.5 459.75,-520"/>
<text text-anchor="start" x="331" y="-506.5" font-family="Helvetica,sans-Serif" font-size="10.00">include/proxsuite/proxqp</text>
<text text-anchor="middle" x="391.38" y="-493.75" font-family="Helvetica,sans-Serif" font-size="10.00">/dense/model.hpp</text>
</a>
</g>
</g>
<!-- Node1&#45;&gt;Node2 -->
<g id="edge1_Node000001_Node000002" class="edge">
<title>Node1&#45;&gt;Node2</title>
<g id="a_edge1_Node000001_Node000002"><a xlink:title=" ">
<path fill="none" stroke="#63b8ff" d="M685.86,-557.4C618.85,-545.3 523.96,-528.18 460.17,-516.67"/>
<polygon fill="#63b8ff" stroke="#63b8ff" points="684.83,-560.77 695.29,-559.1 686.07,-553.88 684.83,-560.77"/>
</a>
</g>
</g>
<!-- Node11 -->
<g id="Node000011" class="node">
<title>Node11</title>
<g id="a_Node000011"><a xlink:href="random__qp__problems_8hpp.html" target="_top" xlink:title=" ">
<polygon fill="white" stroke="#666666" points="660.25,-450.5 490.5,-450.5 490.5,-417 660.25,-417 660.25,-450.5"/>
<text text-anchor="start" x="498.5" y="-437" font-family="Helvetica,sans-Serif" font-size="10.00">include/proxsuite/proxqp</text>
<text text-anchor="middle" x="575.38" y="-424.25" font-family="Helvetica,sans-Serif" font-size="10.00">/utils/random_qp_problems.hpp</text>
</a>
</g>
</g>
<!-- Node1&#45;&gt;Node11 -->
<g id="edge28_Node000001_Node000011" class="edge">
<title>Node1&#45;&gt;Node11</title>
<g id="a_edge28_Node000001_Node000011"><a xlink:title=" ">
<path fill="none" stroke="#63b8ff" d="M734.03,-549.15C695.6,-521.44 631.45,-475.18 597.69,-450.84"/>
<polygon fill="#63b8ff" stroke="#63b8ff" points="731.82,-551.87 741.98,-554.88 735.92,-546.19 731.82,-551.87"/>
</a>
</g>
</g>
<!-- Node13 -->
<g id="Node000013" class="node">
<title>Node13</title>
<g id="a_Node000013"><a xlink:href="sparse_2solver_8hpp.html" target="_top" xlink:title=" ">
<polygon fill="white" stroke="#666666" points="900.75,-311.5 764,-311.5 764,-278 900.75,-278 900.75,-311.5"/>
<text text-anchor="start" x="772" y="-298" font-family="Helvetica,sans-Serif" font-size="10.00">include/proxsuite/proxqp</text>
<text text-anchor="middle" x="832.38" y="-285.25" font-family="Helvetica,sans-Serif" font-size="10.00">/sparse/solver.hpp</text>
</a>
</g>
</g>
<!-- Node1&#45;&gt;Node13 -->
<g id="edge13_Node000001_Node000013" class="edge">
<title>Node1&#45;&gt;Node13</title>
<g id="a_edge13_Node000001_Node000013"><a xlink:title=" ">
<path fill="none" stroke="#63b8ff" d="M845.33,-560.15C891.58,-551.62 943.34,-538.32 957.38,-520 985.52,-483.26 1003.71,-449.54 927.38,-347.5 915.45,-331.56 897.11,-319.95 879.72,-311.81"/>
<polygon fill="#63b8ff" stroke="#63b8ff" points="844.75,-556.7 835.52,-561.9 845.98,-563.59 844.75,-556.7"/>
</a>
</g>
</g>
<!-- Node16 -->
<g id="Node000016" class="node">
<title>Node16</title>
<g id="a_Node000016"><a xlink:href="sparse_2utils_8hpp.html" target="_top" xlink:title=" ">
<polygon fill="white" stroke="#666666" points="814.75,-450.5 678,-450.5 678,-417 814.75,-417 814.75,-450.5"/>
<text text-anchor="start" x="686" y="-437" font-family="Helvetica,sans-Serif" font-size="10.00">include/proxsuite/proxqp</text>
<text text-anchor="middle" x="746.38" y="-424.25" font-family="Helvetica,sans-Serif" font-size="10.00">/sparse/utils.hpp</text>
</a>
</g>
</g>
<!-- Node1&#45;&gt;Node16 -->
<g id="edge18_Node000001_Node000016" class="edge">
<title>Node1&#45;&gt;Node16</title>
<g id="a_edge18_Node000001_Node000016"><a xlink:title=" ">
<path fill="none" stroke="#63b8ff" d="M761.58,-544.37C757.68,-516.29 751.76,-473.57 748.58,-450.63"/>
<polygon fill="#63b8ff" stroke="#63b8ff" points="758.11,-544.84 762.95,-554.27 765.04,-543.88 758.11,-544.84"/>
</a>
</g>
</g>
<!-- Node17 -->
<g id="Node000017" class="node">
<title>Node17</title>
<g id="a_Node000017"><a xlink:href="proxqp_2sparse_2workspace_8hpp.html" target="_top" xlink:title=" ">
<polygon fill="white" stroke="#666666" points="900.75,-381 764,-381 764,-347.5 900.75,-347.5 900.75,-381"/>
<text text-anchor="start" x="772" y="-367.5" font-family="Helvetica,sans-Serif" font-size="10.00">include/proxsuite/proxqp</text>
<text text-anchor="middle" x="832.38" y="-354.75" font-family="Helvetica,sans-Serif" font-size="10.00">/sparse/workspace.hpp</text>
</a>
</g>
</g>
<!-- Node1&#45;&gt;Node17 -->
<g id="edge27_Node000001_Node000017" class="edge">
<title>Node1&#45;&gt;Node17</title>
<g id="a_edge27_Node000001_Node000017"><a xlink:title=" ">
<path fill="none" stroke="#63b8ff" d="M776.48,-545.25C783.76,-528.28 793.69,-505.88 803.38,-486.5 811.55,-470.13 817.86,-467.95 823.38,-450.5 830.73,-427.23 832.36,-398.79 832.57,-381.35"/>
<polygon fill="#63b8ff" stroke="#63b8ff" points="773.39,-543.56 772.7,-554.13 779.83,-546.3 773.39,-543.56"/>
</a>
</g>
</g>
<!-- Node18 -->
<g id="Node000018" class="node">
<title>Node18</title>
<g id="a_Node000018"><a xlink:href="sparse_2views_8hpp.html" target="_top" xlink:title=" ">
<polygon fill="white" stroke="#666666" points="948.75,-520 812,-520 812,-486.5 948.75,-486.5 948.75,-520"/>
<text text-anchor="start" x="820" y="-506.5" font-family="Helvetica,sans-Serif" font-size="10.00">include/proxsuite/proxqp</text>
<text text-anchor="middle" x="880.38" y="-493.75" font-family="Helvetica,sans-Serif" font-size="10.00">/sparse/views.hpp</text>
</a>
</g>
</g>
<!-- Node1&#45;&gt;Node18 -->
<g id="edge23_Node000001_Node000018" class="edge">
<title>Node1&#45;&gt;Node18</title>
<g id="a_edge23_Node000001_Node000018"><a xlink:title=" ">
<path fill="none" stroke="#63b8ff" d="M802.74,-549.82C819.13,-540.2 838.01,-529.11 853.05,-520.29"/>
<polygon fill="#63b8ff" stroke="#63b8ff" points="801.08,-546.74 794.23,-554.82 804.62,-552.77 801.08,-546.74"/>
</a>
</g>
</g>
<!-- Node3 -->
<g id="Node000003" class="node">
<title>Node3</title>
<g id="a_Node000003"><a xlink:href="linesearch_8hpp.html" target="_top" xlink:title=" ">
<polygon fill="white" stroke="#666666" points="291.75,-450.5 155,-450.5 155,-417 291.75,-417 291.75,-450.5"/>
<text text-anchor="start" x="163" y="-437" font-family="Helvetica,sans-Serif" font-size="10.00">include/proxsuite/proxqp</text>
<text text-anchor="middle" x="223.38" y="-424.25" font-family="Helvetica,sans-Serif" font-size="10.00">/dense/linesearch.hpp</text>
</a>
</g>
</g>
<!-- Node2&#45;&gt;Node3 -->
<g id="edge2_Node000002_Node000003" class="edge">
<title>Node2&#45;&gt;Node3</title>
<g id="a_edge2_Node000002_Node000003"><a xlink:title=" ">
<path fill="none" stroke="#63b8ff" d="M340.52,-481.82C315.86,-471.91 286.66,-460.18 263.58,-450.9"/>
<polygon fill="#63b8ff" stroke="#63b8ff" points="339.15,-485.04 349.73,-485.52 341.76,-478.54 339.15,-485.04"/>
</a>
</g>
</g>
<!-- Node10 -->
<g id="Node000010" class="node">
<title>Node10</title>
<g id="a_Node000010"><a xlink:href="dense_2utils_8hpp.html" target="_top" xlink:title=" ">
<polygon fill="white" stroke="#666666" points="136.75,-450.5 0,-450.5 0,-417 136.75,-417 136.75,-450.5"/>
<text text-anchor="start" x="8" y="-437" font-family="Helvetica,sans-Serif" font-size="10.00">include/proxsuite/proxqp</text>
<text text-anchor="middle" x="68.38" y="-424.25" font-family="Helvetica,sans-Serif" font-size="10.00">/dense/utils.hpp</text>
</a>
</g>
</g>
<!-- Node2&#45;&gt;Node10 -->
<g id="edge9_Node000002_Node000010" class="edge">
<title>Node2&#45;&gt;Node10</title>
<g id="a_edge9_Node000002_Node000010"><a xlink:title=" ">
<path fill="none" stroke="#63b8ff" d="M311.7,-485.6C258.11,-474.4 188.19,-459.79 137.05,-449.1"/>
<polygon fill="#63b8ff" stroke="#63b8ff" points="310.89,-489.01 321.39,-487.63 312.32,-482.15 310.89,-489.01"/>
</a>
</g>
</g>
<!-- Node2&#45;&gt;Node11 -->
<g id="edge11_Node000002_Node000011" class="edge">
<title>Node2&#45;&gt;Node11</title>
<g id="a_edge11_Node000002_Node000011"><a xlink:title=" ">
<path fill="none" stroke="#63b8ff" d="M445.99,-482.22C473.22,-472.22 505.73,-460.3 531.34,-450.9"/>
<polygon fill="#63b8ff" stroke="#63b8ff" points="445.05,-478.83 436.87,-485.56 447.46,-485.4 445.05,-478.83"/>
</a>
</g>
</g>
<!-- Node12 -->
<g id="Node000012" class="node">
<title>Node12</title>
<g id="a_Node000012"><a xlink:href="serialization_2model_8hpp.html" target="_top" xlink:title=" ">
<polygon fill="white" stroke="#666666" points="472.88,-450.5 309.88,-450.5 309.88,-417 472.88,-417 472.88,-450.5"/>
<text text-anchor="start" x="317.88" y="-437" font-family="Helvetica,sans-Serif" font-size="10.00">include/proxsuite/serialization</text>
<text text-anchor="middle" x="391.38" y="-424.25" font-family="Helvetica,sans-Serif" font-size="10.00">/model.hpp</text>
</a>
</g>
</g>
<!-- Node2&#45;&gt;Node12 -->
<g id="edge12_Node000002_Node000012" class="edge">
<title>Node2&#45;&gt;Node12</title>
<g id="a_edge12_Node000002_Node000012"><a xlink:title=" ">
<path fill="none" stroke="#63b8ff" d="M391.38,-474.81C391.38,-466.59 391.38,-457.84 391.38,-450.63"/>
<polygon fill="#63b8ff" stroke="#63b8ff" points="387.88,-474.74 391.38,-484.74 394.88,-474.74 387.88,-474.74"/>
</a>
</g>
</g>
<!-- Node4 -->
<g id="Node000004" class="node">
<title>Node4</title>
<g id="a_Node000004"><a xlink:href="dense_2solver_8hpp.html" target="_top" xlink:title=" ">
<polygon fill="white" stroke="#666666" points="291.75,-381 155,-381 155,-347.5 291.75,-347.5 291.75,-381"/>
<text text-anchor="start" x="163" y="-367.5" font-family="Helvetica,sans-Serif" font-size="10.00">include/proxsuite/proxqp</text>
<text text-anchor="middle" x="223.38" y="-354.75" font-family="Helvetica,sans-Serif" font-size="10.00">/dense/solver.hpp</text>
</a>
</g>
</g>
<!-- Node3&#45;&gt;Node4 -->
<g id="edge3_Node000003_Node000004" class="edge">
<title>Node3&#45;&gt;Node4</title>
<g id="a_edge3_Node000003_Node000004"><a xlink:title=" ">
<path fill="none" stroke="#63b8ff" d="M223.38,-405.31C223.38,-397.09 223.38,-388.34 223.38,-381.13"/>
<polygon fill="#63b8ff" stroke="#63b8ff" points="219.88,-405.24 223.38,-415.24 226.88,-405.24 219.88,-405.24"/>
</a>
</g>
</g>
<!-- Node5 -->
<g id="Node000005" class="node">
<title>Node5</title>
<g id="a_Node000005"><a xlink:href="proxqp_2dense_2wrapper_8hpp.html" target="_top" xlink:title=" ">
<polygon fill="white" stroke="#666666" points="587.75,-172.5 451,-172.5 451,-139 587.75,-139 587.75,-172.5"/>
<text text-anchor="start" x="459" y="-159" font-family="Helvetica,sans-Serif" font-size="10.00">include/proxsuite/proxqp</text>
<text text-anchor="middle" x="519.38" y="-146.25" font-family="Helvetica,sans-Serif" font-size="10.00">/dense/wrapper.hpp</text>
</a>
</g>
</g>
<!-- Node4&#45;&gt;Node5 -->
<g id="edge4_Node000004_Node000005" class="edge">
<title>Node4&#45;&gt;Node5</title>
<g id="a_edge4_Node000004_Node000005"><a xlink:title=" ">
<path fill="none" stroke="#63b8ff" d="M256.03,-340.47C316.37,-298.37 443.94,-209.37 496.26,-172.88"/>
<polygon fill="#63b8ff" stroke="#63b8ff" points="254.04,-337.59 247.84,-346.18 258.05,-343.33 254.04,-337.59"/>
</a>
</g>
</g>
<!-- Node6 -->
<g id="Node000006" class="node">
<title>Node6</title>
<g id="a_Node000006"><a xlink:href="compute__ECJ_8hpp.html" target="_top" xlink:title=" ">
<polygon fill="white" stroke="#666666" points="432.75,-103 296,-103 296,-69.5 432.75,-69.5 432.75,-103"/>
<text text-anchor="start" x="304" y="-89.5" font-family="Helvetica,sans-Serif" font-size="10.00">include/proxsuite/proxqp</text>
<text text-anchor="middle" x="364.38" y="-76.75" font-family="Helvetica,sans-Serif" font-size="10.00">/dense/compute_ECJ.hpp</text>
</a>
</g>
</g>
<!-- Node5&#45;&gt;Node6 -->
<g id="edge5_Node000005_Node000006" class="edge">
<title>Node5&#45;&gt;Node6</title>
<g id="a_edge5_Node000005_Node000006"><a xlink:title=" ">
<path fill="none" stroke="#63b8ff" d="M471.84,-134.05C449.22,-124.2 422.57,-112.59 401.47,-103.4"/>
<polygon fill="#63b8ff" stroke="#63b8ff" points="470.3,-137.19 480.86,-137.98 473.09,-130.78 470.3,-137.19"/>
</a>
</g>
</g>
<!-- Node8 -->
<g id="Node000008" class="node">
<title>Node8</title>
<g id="a_Node000008"><a xlink:href="dense_8hpp.html" target="_top" xlink:title=" ">
<polygon fill="white" stroke="#666666" points="587.75,-103 451,-103 451,-69.5 587.75,-69.5 587.75,-103"/>
<text text-anchor="start" x="459" y="-89.5" font-family="Helvetica,sans-Serif" font-size="10.00">include/proxsuite/proxqp</text>
<text text-anchor="middle" x="519.38" y="-76.75" font-family="Helvetica,sans-Serif" font-size="10.00">/dense/dense.hpp</text>
</a>
</g>
</g>
<!-- Node5&#45;&gt;Node8 -->
<g id="edge7_Node000005_Node000008" class="edge">
<title>Node5&#45;&gt;Node8</title>
<g id="a_edge7_Node000005_Node000008"><a xlink:title=" ">
<path fill="none" stroke="#63b8ff" d="M519.38,-127.31C519.38,-119.09 519.38,-110.34 519.38,-103.13"/>
<polygon fill="#63b8ff" stroke="#63b8ff" points="515.88,-127.24 519.38,-137.24 522.88,-127.24 515.88,-127.24"/>
</a>
</g>
</g>
<!-- Node9 -->
<g id="Node000009" class="node">
<title>Node9</title>
<g id="a_Node000009"><a xlink:href="serialization_2wrapper_8hpp.html" target="_top" xlink:title=" ">
<polygon fill="white" stroke="#666666" points="768.88,-103 605.88,-103 605.88,-69.5 768.88,-69.5 768.88,-103"/>
<text text-anchor="start" x="613.88" y="-89.5" font-family="Helvetica,sans-Serif" font-size="10.00">include/proxsuite/serialization</text>
<text text-anchor="middle" x="687.38" y="-76.75" font-family="Helvetica,sans-Serif" font-size="10.00">/wrapper.hpp</text>
</a>
</g>
</g>
<!-- Node5&#45;&gt;Node9 -->
<g id="edge8_Node000005_Node000009" class="edge">
<title>Node5&#45;&gt;Node9</title>
<g id="a_edge8_Node000005_Node000009"><a xlink:title=" ">
<path fill="none" stroke="#63b8ff" d="M570.23,-134.32C594.89,-124.41 624.09,-112.68 647.17,-103.4"/>
<polygon fill="#63b8ff" stroke="#63b8ff" points="568.99,-131.04 561.02,-138.02 571.6,-137.54 568.99,-131.04"/>
</a>
</g>
</g>
<!-- Node7 -->
<g id="Node000007" class="node">
<title>Node7</title>
<g id="a_Node000007"><a xlink:href="qp__solve_8hpp.html" target="_top" xlink:title=" ">
<polygon fill="white" stroke="#666666" points="648.75,-33.5 512,-33.5 512,0 648.75,0 648.75,-33.5"/>
<text text-anchor="start" x="520" y="-20" font-family="Helvetica,sans-Serif" font-size="10.00">include/proxsuite/proxqp</text>
<text text-anchor="middle" x="580.38" y="-7.25" font-family="Helvetica,sans-Serif" font-size="10.00">/parallel/qp_solve.hpp</text>
</a>
</g>
</g>
<!-- Node6&#45;&gt;Node7 -->
<g id="edge6_Node000006_Node000007" class="edge">
<title>Node6&#45;&gt;Node7</title>
<g id="a_edge6_Node000006_Node000007"><a xlink:title=" ">
<path fill="none" stroke="#63b8ff" d="M426.79,-65.74C459.1,-55.65 498.08,-43.47 528.69,-33.9"/>
<polygon fill="#63b8ff" stroke="#63b8ff" points="426.06,-62.31 417.56,-68.63 428.15,-68.99 426.06,-62.31"/>
</a>
</g>
</g>
<!-- Node10&#45;&gt;Node4 -->
<g id="edge10_Node000010_Node000004" class="edge">
<title>Node10&#45;&gt;Node4</title>
<g id="a_edge10_Node000010_Node000004"><a xlink:title=" ">
<path fill="none" stroke="#63b8ff" d="M115.91,-412.05C138.53,-402.2 165.18,-390.59 186.28,-381.4"/>
<polygon fill="#63b8ff" stroke="#63b8ff" points="114.66,-408.78 106.89,-415.98 117.45,-415.19 114.66,-408.78"/>
</a>
</g>
</g>
<!-- Node14 -->
<g id="Node000014" class="node">
<title>Node14</title>
<g id="a_Node000014"><a xlink:href="proxqp_2sparse_2wrapper_8hpp.html" target="_top" xlink:title=" ">
<polygon fill="white" stroke="#666666" points="817.75,-242 681,-242 681,-208.5 817.75,-208.5 817.75,-242"/>
<text text-anchor="start" x="689" y="-228.5" font-family="Helvetica,sans-Serif" font-size="10.00">include/proxsuite/proxqp</text>
<text text-anchor="middle" x="749.38" y="-215.75" font-family="Helvetica,sans-Serif" font-size="10.00">/sparse/wrapper.hpp</text>
</a>
</g>
</g>
<!-- Node13&#45;&gt;Node14 -->
<g id="edge14_Node000013_Node000014" class="edge">
<title>Node13&#45;&gt;Node14</title>
<g id="a_edge14_Node000013_Node000014"><a xlink:title=" ">
<path fill="none" stroke="#63b8ff" d="M803.93,-270.61C792.49,-261.31 779.58,-250.81 769.19,-242.37"/>
<polygon fill="#63b8ff" stroke="#63b8ff" points="801.56,-273.2 811.53,-276.8 805.98,-267.77 801.56,-273.2"/>
</a>
</g>
</g>
<!-- Node14&#45;&gt;Node5 -->
<g id="edge15_Node000014_Node000005" class="edge">
<title>Node14&#45;&gt;Node5</title>
<g id="a_edge15_Node000014_Node000005"><a xlink:title=" ">
<path fill="none" stroke="#63b8ff" d="M683.36,-204.88C648.87,-194.75 607.14,-182.51 574.41,-172.9"/>
<polygon fill="#63b8ff" stroke="#63b8ff" points="682.25,-208.2 692.83,-207.66 684.22,-201.48 682.25,-208.2"/>
</a>
</g>
</g>
<!-- Node14&#45;&gt;Node7 -->
<g id="edge16_Node000014_Node000007" class="edge">
<title>Node14&#45;&gt;Node7</title>
<g id="a_edge16_Node000014_Node000007"><a xlink:title=" ">
<path fill="none" stroke="#63b8ff" d="M767.13,-198.61C771.72,-190.61 776.02,-181.51 778.38,-172.5 789.94,-128.21 806.35,-105.73 778.38,-69.5 762.44,-48.87 699.71,-34.88 649.07,-26.71"/>
<polygon fill="#63b8ff" stroke="#63b8ff" points="764.16,-196.76 761.87,-207.11 770.11,-200.44 764.16,-196.76"/>
</a>
</g>
</g>
<!-- Node15 -->
<g id="Node000015" class="node">
<title>Node15</title>
<g id="a_Node000015"><a xlink:href="sparse_8hpp.html" target="_top" xlink:title=" ">
<polygon fill="white" stroke="#666666" points="769.75,-172.5 633,-172.5 633,-139 769.75,-139 769.75,-172.5"/>
<text text-anchor="start" x="641" y="-159" font-family="Helvetica,sans-Serif" font-size="10.00">include/proxsuite/proxqp</text>
<text text-anchor="middle" x="701.38" y="-146.25" font-family="Helvetica,sans-Serif" font-size="10.00">/sparse/sparse.hpp</text>
</a>
</g>
</g>
<!-- Node14&#45;&gt;Node15 -->
<g id="edge17_Node000014_Node000015" class="edge">
<title>Node14&#45;&gt;Node15</title>
<g id="a_edge17_Node000014_Node000015"><a xlink:title=" ">
<path fill="none" stroke="#63b8ff" d="M731.49,-199.09C725.18,-190.23 718.28,-180.52 712.67,-172.63"/>
<polygon fill="#63b8ff" stroke="#63b8ff" points="728.47,-200.9 737.12,-207.02 734.18,-196.84 728.47,-200.9"/>
</a>
</g>
</g>
<!-- Node16&#45;&gt;Node13 -->
<g id="edge19_Node000016_Node000013" class="edge">
<title>Node16&#45;&gt;Node13</title>
<g id="a_edge19_Node000016_Node000013"><a xlink:title=" ">
<path fill="none" stroke="#63b8ff" d="M743.57,-405.42C743.05,-387.71 744.96,-364.8 755.38,-347.5 764.68,-332.05 780.58,-320.21 795.53,-311.78"/>
<polygon fill="#63b8ff" stroke="#63b8ff" points="740.06,-405.44 744.14,-415.21 747.05,-405.02 740.06,-405.44"/>
</a>
</g>
</g>
<!-- Node16&#45;&gt;Node17 -->
<g id="edge20_Node000016_Node000017" class="edge">
<title>Node16&#45;&gt;Node17</title>
<g id="a_edge20_Node000016_Node000017"><a xlink:title=" ">
<path fill="none" stroke="#63b8ff" d="M769.41,-409.61C780.71,-400.31 794.28,-389.81 805.99,-381.37"/>
<polygon fill="#63b8ff" stroke="#63b8ff" points="767.48,-406.67 762.07,-415.78 771.98,-412.02 767.48,-406.67"/>
</a>
</g>
</g>
<!-- Node17&#45;&gt;Node13 -->
<g id="edge21_Node000017_Node000013" class="edge">
<title>Node17&#45;&gt;Node13</title>
<g id="a_edge21_Node000017_Node000013"><a xlink:title=" ">
<path fill="none" stroke="#63b8ff" d="M832.38,-335.81C832.38,-327.59 832.38,-318.84 832.38,-311.63"/>
<polygon fill="#63b8ff" stroke="#63b8ff" points="828.88,-335.74 832.38,-345.74 835.88,-335.74 828.88,-335.74"/>
</a>
</g>
</g>
<!-- Node17&#45;&gt;Node16 -->
<g id="edge22_Node000017_Node000016" class="edge">
<title>Node17&#45;&gt;Node16</title>
<g id="a_edge22_Node000017_Node000016"><a xlink:title=" ">
<path fill="none" stroke="#63b8ff" d="M809.18,-388.52C797.86,-397.83 784.29,-408.32 772.6,-416.75"/>
<polygon fill="#63b8ff" stroke="#63b8ff" points="811.13,-391.45 816.54,-382.34 806.63,-386.09 811.13,-391.45"/>
</a>
</g>
</g>
<!-- Node18&#45;&gt;Node13 -->
<g id="edge24_Node000018_Node000013" class="edge">
<title>Node18&#45;&gt;Node13</title>
<g id="a_edge24_Node000018_Node000013"><a xlink:title=" ">
<path fill="none" stroke="#63b8ff" d="M894.94,-476.38C910.89,-444.33 931.43,-388.9 909.38,-347.5 901.04,-331.86 885.66,-320.11 870.81,-311.79"/>
<polygon fill="#63b8ff" stroke="#63b8ff" points="891.99,-474.47 890.48,-484.96 898.2,-477.7 891.99,-474.47"/>
</a>
</g>
</g>
<!-- Node18&#45;&gt;Node16 -->
<g id="edge25_Node000018_Node000016" class="edge">
<title>Node18&#45;&gt;Node16</title>
<g id="a_edge25_Node000018_Node000016"><a xlink:title=" ">
<path fill="none" stroke="#63b8ff" d="M838.18,-480.99C818.78,-471.22 796.15,-459.82 778.21,-450.79"/>
<polygon fill="#63b8ff" stroke="#63b8ff" points="836.42,-484.03 846.93,-485.4 839.57,-477.78 836.42,-484.03"/>
</a>
</g>
</g>
<!-- Node18&#45;&gt;Node17 -->
<g id="edge26_Node000018_Node000017" class="edge">
<title>Node18&#45;&gt;Node17</title>
<g id="a_edge26_Node000018_Node000017"><a xlink:title=" ">
<path fill="none" stroke="#63b8ff" d="M874.02,-475.5C869.69,-458.52 863.48,-436.22 856.38,-417 851.84,-404.74 845.6,-391.36 840.62,-381.28"/>
<polygon fill="#63b8ff" stroke="#63b8ff" points="870.53,-475.96 876.33,-484.83 877.32,-474.28 870.53,-475.96"/>
</a>
</g>
</g>
</g>
</svg>
