<?xml version="1.0" encoding="UTF-8" standalone="no"?>
<!DOCTYPE svg PUBLIC "-//W3C//DTD SVG 1.1//EN"
 "http://www.w3.org/Graphics/SVG/1.1/DTD/svg11.dtd">
<!-- Generated by graphviz version 12.0.0 (20240803.0821)
 -->
<!-- Title: include/proxsuite/proxqp/settings.hpp Pages: 1 -->
<svg width="1676pt" height="667pt"
 viewBox="0.00 0.00 1676.00 667.00" xmlns="http://www.w3.org/2000/svg" xmlns:xlink="http://www.w3.org/1999/xlink">
<g id="graph0" class="graph" transform="scale(1 1) rotate(0) translate(4 663)">
<title>include/proxsuite/proxqp/settings.hpp</title>
<!-- Node1 -->
<g id="Node000001" class="node">
<title>Node1</title>
<g id="a_Node000001"><a xlink:title=" ">
<polygon fill="#999999" stroke="#666666" points="1147.88,-659 1011.12,-659 1011.12,-625.5 1147.88,-625.5 1147.88,-659"/>
<text text-anchor="start" x="1019.12" y="-645.5" font-family="Helvetica,sans-Serif" font-size="10.00">include/proxsuite/proxqp</text>
<text text-anchor="middle" x="1079.5" y="-632.75" font-family="Helvetica,sans-Serif" font-size="10.00">/settings.hpp</text>
</a>
</g>
</g>
<!-- Node2 -->
<g id="Node000002" class="node">
<title>Node2</title>
<g id="a_Node000002"><a xlink:href="dense_2helpers_8hpp.html" target="_top" xlink:title=" ">
<polygon fill="white" stroke="#666666" points="355.88,-520 219.12,-520 219.12,-486.5 355.88,-486.5 355.88,-520"/>
<text text-anchor="start" x="227.12" y="-506.5" font-family="Helvetica,sans-Serif" font-size="10.00">include/proxsuite/proxqp</text>
<text text-anchor="middle" x="287.5" y="-493.75" font-family="Helvetica,sans-Serif" font-size="10.00">/dense/helpers.hpp</text>
</a>
</g>
</g>
<!-- Node1&#45;&gt;Node2 -->
<g id="edge1_Node000001_Node000002" class="edge">
<title>Node1&#45;&gt;Node2</title>
<g id="a_edge1_Node000001_Node000002"><a xlink:title=" ">
<path fill="none" stroke="#63b8ff" d="M999.52,-639.68C892.13,-636.22 695.94,-625.12 532.5,-589.5 456.81,-573 372.23,-540.19 324.88,-520.43"/>
<polygon fill="#63b8ff" stroke="#63b8ff" points="999.28,-643.18 1009.38,-639.99 999.5,-636.18 999.28,-643.18"/>
</a>
</g>
</g>
<!-- Node9 -->
<g id="Node000009" class="node">
<title>Node9</title>
<g id="a_Node000009"><a xlink:href="linesearch_8hpp.html" target="_top" xlink:title=" ">
<polygon fill="white" stroke="#666666" points="846.88,-520 710.12,-520 710.12,-486.5 846.88,-486.5 846.88,-520"/>
<text text-anchor="start" x="718.12" y="-506.5" font-family="Helvetica,sans-Serif" font-size="10.00">include/proxsuite/proxqp</text>
<text text-anchor="middle" x="778.5" y="-493.75" font-family="Helvetica,sans-Serif" font-size="10.00">/dense/linesearch.hpp</text>
</a>
</g>
</g>
<!-- Node1&#45;&gt;Node9 -->
<g id="edge9_Node000001_Node000009" class="edge">
<title>Node1&#45;&gt;Node9</title>
<g id="a_edge9_Node000001_Node000009"><a xlink:title=" ">
<path fill="none" stroke="#63b8ff" d="M999.53,-634.89C954.42,-628.46 898.46,-615.52 854.5,-589.5 825.32,-572.23 801.21,-540 788.42,-520.49"/>
<polygon fill="#63b8ff" stroke="#63b8ff" points="998.88,-638.33 1009.25,-636.19 999.8,-631.4 998.88,-638.33"/>
</a>
</g>
</g>
<!-- Node10 -->
<g id="Node000010" class="node">
<title>Node10</title>
<g id="a_Node000010"><a xlink:href="proxqp_2dense_2preconditioner_2ruiz_8hpp.html" target="_top" xlink:title=" ">
<polygon fill="white" stroke="#666666" points="369.38,-589.5 205.62,-589.5 205.62,-556 369.38,-556 369.38,-589.5"/>
<text text-anchor="start" x="213.62" y="-576" font-family="Helvetica,sans-Serif" font-size="10.00">include/proxsuite/proxqp</text>
<text text-anchor="middle" x="287.5" y="-563.25" font-family="Helvetica,sans-Serif" font-size="10.00">/dense/preconditioner/ruiz.hpp</text>
</a>
</g>
</g>
<!-- Node1&#45;&gt;Node10 -->
<g id="edge11_Node000001_Node000010" class="edge">
<title>Node1&#45;&gt;Node10</title>
<g id="a_edge11_Node000001_Node000010"><a xlink:title=" ">
<path fill="none" stroke="#63b8ff" d="M999.64,-635.66C877.1,-626.91 635.37,-608.95 430.5,-589.5 410.73,-587.62 389.45,-585.39 369.5,-583.21"/>
<polygon fill="#63b8ff" stroke="#63b8ff" points="999.03,-639.13 1009.25,-636.34 999.52,-632.14 999.03,-639.13"/>
</a>
</g>
</g>
<!-- Node11 -->
<g id="Node000011" class="node">
<title>Node11</title>
<g id="a_Node000011"><a xlink:href="dense_2utils_8hpp.html" target="_top" xlink:title=" ">
<polygon fill="white" stroke="#666666" points="510.88,-520 374.12,-520 374.12,-486.5 510.88,-486.5 510.88,-520"/>
<text text-anchor="start" x="382.12" y="-506.5" font-family="Helvetica,sans-Serif" font-size="10.00">include/proxsuite/proxqp</text>
<text text-anchor="middle" x="442.5" y="-493.75" font-family="Helvetica,sans-Serif" font-size="10.00">/dense/utils.hpp</text>
</a>
</g>
</g>
<!-- Node1&#45;&gt;Node11 -->
<g id="edge17_Node000001_Node000011" class="edge">
<title>Node1&#45;&gt;Node11</title>
<g id="a_edge17_Node000001_Node000011"><a xlink:title=" ">
<path fill="none" stroke="#63b8ff" d="M999.24,-640.74C905.22,-638.24 745.62,-627.99 614.5,-589.5 559.34,-573.31 500.42,-540.23 467.85,-520.37"/>
<polygon fill="#63b8ff" stroke="#63b8ff" points="999.07,-644.24 1009.15,-640.98 999.23,-637.24 999.07,-644.24"/>
</a>
</g>
</g>
<!-- Node13 -->
<g id="Node000013" class="node">
<title>Node13</title>
<g id="a_Node000013"><a xlink:href="proxqp_2dense_2workspace_8hpp.html" target="_top" xlink:title=" ">
<polygon fill="white" stroke="#666666" points="759.88,-589.5 623.12,-589.5 623.12,-556 759.88,-556 759.88,-589.5"/>
<text text-anchor="start" x="631.12" y="-576" font-family="Helvetica,sans-Serif" font-size="10.00">include/proxsuite/proxqp</text>
<text text-anchor="middle" x="691.5" y="-563.25" font-family="Helvetica,sans-Serif" font-size="10.00">/dense/workspace.hpp</text>
</a>
</g>
</g>
<!-- Node1&#45;&gt;Node13 -->
<g id="edge18_Node000001_Node000013" class="edge">
<title>Node1&#45;&gt;Node13</title>
<g id="a_edge18_Node000001_Node000013"><a xlink:title=" ">
<path fill="none" stroke="#63b8ff" d="M999.98,-627.42C929.41,-615.14 827.38,-597.39 760.27,-585.71"/>
<polygon fill="#63b8ff" stroke="#63b8ff" points="999.08,-630.81 1009.54,-629.08 1000.28,-623.92 999.08,-630.81"/>
</a>
</g>
</g>
<!-- Node15 -->
<g id="Node000015" class="node">
<title>Node15</title>
<g id="a_Node000015"><a xlink:href="proxqp_2results_8hpp.html" target="_top" xlink:title=" ">
<polygon fill="white" stroke="#666666" points="999.88,-589.5 863.12,-589.5 863.12,-556 999.88,-556 999.88,-589.5"/>
<text text-anchor="start" x="871.12" y="-576" font-family="Helvetica,sans-Serif" font-size="10.00">include/proxsuite/proxqp</text>
<text text-anchor="middle" x="931.5" y="-563.25" font-family="Helvetica,sans-Serif" font-size="10.00">/results.hpp</text>
</a>
</g>
</g>
<!-- Node1&#45;&gt;Node15 -->
<g id="edge22_Node000001_Node000015" class="edge">
<title>Node1&#45;&gt;Node15</title>
<g id="a_edge22_Node000001_Node000015"><a xlink:title=" ">
<path fill="none" stroke="#63b8ff" d="M1033.82,-620.42C1012.28,-610.59 986.97,-599.05 966.92,-589.9"/>
<polygon fill="#63b8ff" stroke="#63b8ff" points="1032.12,-623.49 1042.67,-624.45 1035.03,-617.12 1032.12,-623.49"/>
</a>
</g>
</g>
<!-- Node16 -->
<g id="Node000016" class="node">
<title>Node16</title>
<g id="a_Node000016"><a xlink:href="sparse_2solver_8hpp.html" target="_top" xlink:title=" ">
<polygon fill="white" stroke="#666666" points="1228.88,-311.5 1092.12,-311.5 1092.12,-278 1228.88,-278 1228.88,-311.5"/>
<text text-anchor="start" x="1100.12" y="-298" font-family="Helvetica,sans-Serif" font-size="10.00">include/proxsuite/proxqp</text>
<text text-anchor="middle" x="1160.5" y="-285.25" font-family="Helvetica,sans-Serif" font-size="10.00">/sparse/solver.hpp</text>
</a>
</g>
</g>
<!-- Node1&#45;&gt;Node16 -->
<g id="edge43_Node000001_Node000016" class="edge">
<title>Node1&#45;&gt;Node16</title>
<g id="a_edge43_Node000001_Node000016"><a xlink:title=" ">
<path fill="none" stroke="#63b8ff" d="M1159.72,-636.87C1214.25,-631.25 1286.7,-618.48 1344.5,-589.5 1394.92,-564.22 1438.5,-560.65 1438.5,-504.25 1438.5,-504.25 1438.5,-504.25 1438.5,-432.75 1438.5,-339.67 1311.54,-309.83 1229.22,-300.26"/>
<polygon fill="#63b8ff" stroke="#63b8ff" points="1159.49,-633.38 1149.87,-637.82 1160.16,-640.35 1159.49,-633.38"/>
</a>
</g>
</g>
<!-- Node17 -->
<g id="Node000017" class="node">
<title>Node17</title>
<g id="a_Node000017"><a xlink:href="proxqp_2sparse_2wrapper_8hpp.html" target="_top" xlink:title=" ">
<polygon fill="white" stroke="#666666" points="942.88,-242 806.12,-242 806.12,-208.5 942.88,-208.5 942.88,-242"/>
<text text-anchor="start" x="814.12" y="-228.5" font-family="Helvetica,sans-Serif" font-size="10.00">include/proxsuite/proxqp</text>
<text text-anchor="middle" x="874.5" y="-215.75" font-family="Helvetica,sans-Serif" font-size="10.00">/sparse/wrapper.hpp</text>
</a>
</g>
</g>
<!-- Node1&#45;&gt;Node17 -->
<g id="edge47_Node000001_Node000017" class="edge">
<title>Node1&#45;&gt;Node17</title>
<g id="a_edge47_Node000001_Node000017"><a xlink:title=" ">
<path fill="none" stroke="#63b8ff" d="M1159.17,-641.33C1224.85,-638.36 1318.71,-626.99 1391.5,-589.5 1439.07,-565 1476.5,-557.75 1476.5,-504.25 1476.5,-504.25 1476.5,-504.25 1476.5,-363.25 1476.5,-254.93 1101.22,-232.25 943.26,-227.51"/>
<polygon fill="#63b8ff" stroke="#63b8ff" points="1159.44,-637.81 1149.58,-641.7 1159.71,-644.81 1159.44,-637.81"/>
</a>
</g>
</g>
<!-- Node19 -->
<g id="Node000019" class="node">
<title>Node19</title>
<g id="a_Node000019"><a xlink:href="sparse_2utils_8hpp.html" target="_top" xlink:title=" ">
<polygon fill="white" stroke="#666666" points="1257.88,-450.5 1121.12,-450.5 1121.12,-417 1257.88,-417 1257.88,-450.5"/>
<text text-anchor="start" x="1129.12" y="-437" font-family="Helvetica,sans-Serif" font-size="10.00">include/proxsuite/proxqp</text>
<text text-anchor="middle" x="1189.5" y="-424.25" font-family="Helvetica,sans-Serif" font-size="10.00">/sparse/utils.hpp</text>
</a>
</g>
</g>
<!-- Node1&#45;&gt;Node19 -->
<g id="edge44_Node000001_Node000019" class="edge">
<title>Node1&#45;&gt;Node19</title>
<g id="a_edge44_Node000001_Node000019"><a xlink:title=" ">
<path fill="none" stroke="#63b8ff" d="M1111,-617.85C1137.62,-595.94 1173.84,-560.56 1189.5,-520 1198.29,-497.22 1195.75,-468.39 1192.83,-450.77"/>
<polygon fill="#63b8ff" stroke="#63b8ff" points="1108.84,-615.09 1103.22,-624.08 1113.22,-620.56 1108.84,-615.09"/>
</a>
</g>
</g>
<!-- Node20 -->
<g id="Node000020" class="node">
<title>Node20</title>
<g id="a_Node000020"><a xlink:href="proxqp_2sparse_2workspace_8hpp.html" target="_top" xlink:title=" ">
<polygon fill="white" stroke="#666666" points="1276.88,-381 1140.12,-381 1140.12,-347.5 1276.88,-347.5 1276.88,-381"/>
<text text-anchor="start" x="1148.12" y="-367.5" font-family="Helvetica,sans-Serif" font-size="10.00">include/proxsuite/proxqp</text>
<text text-anchor="middle" x="1208.5" y="-354.75" font-family="Helvetica,sans-Serif" font-size="10.00">/sparse/workspace.hpp</text>
</a>
</g>
</g>
<!-- Node1&#45;&gt;Node20 -->
<g id="edge46_Node000001_Node000020" class="edge">
<title>Node1&#45;&gt;Node20</title>
<g id="a_edge46_Node000001_Node000020"><a xlink:title=" ">
<path fill="none" stroke="#63b8ff" d="M1159.24,-635.23C1232.48,-624.83 1336.28,-596.59 1381.5,-520 1418.43,-457.45 1317.59,-406.27 1254.68,-381.45"/>
<polygon fill="#63b8ff" stroke="#63b8ff" points="1159.17,-631.71 1149.72,-636.49 1160.09,-638.65 1159.17,-631.71"/>
</a>
</g>
</g>
<!-- Node21 -->
<g id="Node000021" class="node">
<title>Node21</title>
<g id="a_Node000021"><a xlink:href="sparse_2views_8hpp.html" target="_top" xlink:title=" ">
<polygon fill="white" stroke="#666666" points="1372.88,-520 1236.12,-520 1236.12,-486.5 1372.88,-486.5 1372.88,-520"/>
<text text-anchor="start" x="1244.12" y="-506.5" font-family="Helvetica,sans-Serif" font-size="10.00">include/proxsuite/proxqp</text>
<text text-anchor="middle" x="1304.5" y="-493.75" font-family="Helvetica,sans-Serif" font-size="10.00">/sparse/views.hpp</text>
</a>
</g>
</g>
<!-- Node1&#45;&gt;Node21 -->
<g id="edge45_Node000001_Node000021" class="edge">
<title>Node1&#45;&gt;Node21</title>
<g id="a_edge45_Node000001_Node000021"><a xlink:title=" ">
<path fill="none" stroke="#63b8ff" d="M1154.06,-621.46C1177.05,-613.51 1201.76,-602.97 1222.5,-589.5 1251.78,-570.48 1278.33,-539.13 1292.87,-520.21"/>
<polygon fill="#63b8ff" stroke="#63b8ff" points="1153.11,-618.09 1144.72,-624.57 1155.32,-624.73 1153.11,-618.09"/>
</a>
</g>
</g>
<!-- Node23 -->
<g id="Node000023" class="node">
<title>Node23</title>
<g id="a_Node000023"><a xlink:href="serialization_2settings_8hpp.html" target="_top" xlink:title=" ">
<polygon fill="white" stroke="#666666" points="1668,-589.5 1505,-589.5 1505,-556 1668,-556 1668,-589.5"/>
<text text-anchor="start" x="1513" y="-576" font-family="Helvetica,sans-Serif" font-size="10.00">include/proxsuite/serialization</text>
<text text-anchor="middle" x="1586.5" y="-563.25" font-family="Helvetica,sans-Serif" font-size="10.00">/settings.hpp</text>
</a>
</g>
</g>
<!-- Node1&#45;&gt;Node23 -->
<g id="edge48_Node000001_Node000023" class="edge">
<title>Node1&#45;&gt;Node23</title>
<g id="a_edge48_Node000001_Node000023"><a xlink:title=" ">
<path fill="none" stroke="#63b8ff" d="M1159.69,-632.05C1242.61,-622.33 1375.79,-606.13 1490.5,-589.5 1495.1,-588.83 1499.81,-588.13 1504.57,-587.4"/>
<polygon fill="#63b8ff" stroke="#63b8ff" points="1159.36,-628.57 1149.83,-633.2 1160.17,-635.52 1159.36,-628.57"/>
</a>
</g>
</g>
<!-- Node3 -->
<g id="Node000003" class="node">
<title>Node3</title>
<g id="a_Node000003"><a xlink:href="dense_2solver_8hpp.html" target="_top" xlink:title=" ">
<polygon fill="white" stroke="#666666" points="510.88,-450.5 374.12,-450.5 374.12,-417 510.88,-417 510.88,-450.5"/>
<text text-anchor="start" x="382.12" y="-437" font-family="Helvetica,sans-Serif" font-size="10.00">include/proxsuite/proxqp</text>
<text text-anchor="middle" x="442.5" y="-424.25" font-family="Helvetica,sans-Serif" font-size="10.00">/dense/solver.hpp</text>
</a>
</g>
</g>
<!-- Node2&#45;&gt;Node3 -->
<g id="edge2_Node000002_Node000003" class="edge">
<title>Node2&#45;&gt;Node3</title>
<g id="a_edge2_Node000002_Node000003"><a xlink:title=" ">
<path fill="none" stroke="#63b8ff" d="M335.03,-481.55C357.66,-471.7 384.31,-460.09 405.41,-450.9"/>
<polygon fill="#63b8ff" stroke="#63b8ff" points="333.78,-478.28 326.01,-485.48 336.58,-484.69 333.78,-478.28"/>
</a>
</g>
</g>
<!-- Node4 -->
<g id="Node000004" class="node">
<title>Node4</title>
<g id="a_Node000004"><a xlink:href="proxqp_2dense_2wrapper_8hpp.html" target="_top" xlink:title=" ">
<polygon fill="white" stroke="#666666" points="510.88,-172.5 374.12,-172.5 374.12,-139 510.88,-139 510.88,-172.5"/>
<text text-anchor="start" x="382.12" y="-159" font-family="Helvetica,sans-Serif" font-size="10.00">include/proxsuite/proxqp</text>
<text text-anchor="middle" x="442.5" y="-146.25" font-family="Helvetica,sans-Serif" font-size="10.00">/dense/wrapper.hpp</text>
</a>
</g>
</g>
<!-- Node2&#45;&gt;Node4 -->
<g id="edge8_Node000002_Node000004" class="edge">
<title>Node2&#45;&gt;Node4</title>
<g id="a_edge8_Node000002_Node000004"><a xlink:title=" ">
<path fill="none" stroke="#63b8ff" d="M296.66,-475.38C305.15,-448.01 316.5,-404.18 316.5,-365.25 316.5,-365.25 316.5,-365.25 316.5,-293.75 316.5,-237.85 374.04,-194.93 411.35,-172.99"/>
<polygon fill="#63b8ff" stroke="#63b8ff" points="293.42,-474 293.69,-484.6 300.09,-476.15 293.42,-474"/>
</a>
</g>
</g>
<!-- Node3&#45;&gt;Node4 -->
<g id="edge3_Node000003_Node000004" class="edge">
<title>Node3&#45;&gt;Node4</title>
<g id="a_edge3_Node000003_Node000004"><a xlink:title=" ">
<path fill="none" stroke="#63b8ff" d="M442.5,-405.41C442.5,-348.39 442.5,-218.33 442.5,-172.83"/>
<polygon fill="#63b8ff" stroke="#63b8ff" points="439,-405.2 442.5,-415.2 446,-405.2 439,-405.2"/>
</a>
</g>
</g>
<!-- Node5 -->
<g id="Node000005" class="node">
<title>Node5</title>
<g id="a_Node000005"><a xlink:href="compute__ECJ_8hpp.html" target="_top" xlink:title=" ">
<polygon fill="white" stroke="#666666" points="594.88,-103 458.12,-103 458.12,-69.5 594.88,-69.5 594.88,-103"/>
<text text-anchor="start" x="466.12" y="-89.5" font-family="Helvetica,sans-Serif" font-size="10.00">include/proxsuite/proxqp</text>
<text text-anchor="middle" x="526.5" y="-76.75" font-family="Helvetica,sans-Serif" font-size="10.00">/dense/compute_ECJ.hpp</text>
</a>
</g>
</g>
<!-- Node4&#45;&gt;Node5 -->
<g id="edge4_Node000004_Node000005" class="edge">
<title>Node4&#45;&gt;Node5</title>
<g id="a_edge4_Node000004_Node000005"><a xlink:title=" ">
<path fill="none" stroke="#63b8ff" d="M471.29,-131.61C482.87,-122.31 495.93,-111.81 506.44,-103.37"/>
<polygon fill="#63b8ff" stroke="#63b8ff" points="469.19,-128.81 463.59,-137.81 473.57,-134.27 469.19,-128.81"/>
</a>
</g>
</g>
<!-- Node7 -->
<g id="Node000007" class="node">
<title>Node7</title>
<g id="a_Node000007"><a xlink:href="dense_8hpp.html" target="_top" xlink:title=" ">
<polygon fill="white" stroke="#666666" points="749.88,-103 613.12,-103 613.12,-69.5 749.88,-69.5 749.88,-103"/>
<text text-anchor="start" x="621.12" y="-89.5" font-family="Helvetica,sans-Serif" font-size="10.00">include/proxsuite/proxqp</text>
<text text-anchor="middle" x="681.5" y="-76.75" font-family="Helvetica,sans-Serif" font-size="10.00">/dense/dense.hpp</text>
</a>
</g>
</g>
<!-- Node4&#45;&gt;Node7 -->
<g id="edge6_Node000004_Node000007" class="edge">
<title>Node4&#45;&gt;Node7</title>
<g id="a_edge6_Node000004_Node000007"><a xlink:title=" ">
<path fill="none" stroke="#63b8ff" d="M510.63,-135.51C546.57,-125.36 590.15,-113.05 624.31,-103.4"/>
<polygon fill="#63b8ff" stroke="#63b8ff" points="509.88,-132.08 501.2,-138.17 511.78,-138.82 509.88,-132.08"/>
</a>
</g>
</g>
<!-- Node8 -->
<g id="Node000008" class="node">
<title>Node8</title>
<g id="a_Node000008"><a xlink:href="serialization_2wrapper_8hpp.html" target="_top" xlink:title=" ">
<polygon fill="white" stroke="#666666" points="440,-103 277,-103 277,-69.5 440,-69.5 440,-103"/>
<text text-anchor="start" x="285" y="-89.5" font-family="Helvetica,sans-Serif" font-size="10.00">include/proxsuite/serialization</text>
<text text-anchor="middle" x="358.5" y="-76.75" font-family="Helvetica,sans-Serif" font-size="10.00">/wrapper.hpp</text>
</a>
</g>
</g>
<!-- Node4&#45;&gt;Node8 -->
<g id="edge7_Node000004_Node000008" class="edge">
<title>Node4&#45;&gt;Node8</title>
<g id="a_edge7_Node000004_Node000008"><a xlink:title=" ">
<path fill="none" stroke="#63b8ff" d="M413.71,-131.61C402.13,-122.31 389.07,-111.81 378.56,-103.37"/>
<polygon fill="#63b8ff" stroke="#63b8ff" points="411.43,-134.27 421.41,-137.81 415.81,-128.81 411.43,-134.27"/>
</a>
</g>
</g>
<!-- Node6 -->
<g id="Node000006" class="node">
<title>Node6</title>
<g id="a_Node000006"><a xlink:href="qp__solve_8hpp.html" target="_top" xlink:title=" ">
<polygon fill="white" stroke="#666666" points="768.88,-33.5 632.12,-33.5 632.12,0 768.88,0 768.88,-33.5"/>
<text text-anchor="start" x="640.12" y="-20" font-family="Helvetica,sans-Serif" font-size="10.00">include/proxsuite/proxqp</text>
<text text-anchor="middle" x="700.5" y="-7.25" font-family="Helvetica,sans-Serif" font-size="10.00">/parallel/qp_solve.hpp</text>
</a>
</g>
</g>
<!-- Node5&#45;&gt;Node6 -->
<g id="edge5_Node000005_Node000006" class="edge">
<title>Node5&#45;&gt;Node6</title>
<g id="a_edge5_Node000005_Node000006"><a xlink:title=" ">
<path fill="none" stroke="#63b8ff" d="M578.83,-64.95C604.44,-55.01 634.85,-43.22 658.86,-33.9"/>
<polygon fill="#63b8ff" stroke="#63b8ff" points="577.65,-61.65 569.59,-68.53 580.18,-68.18 577.65,-61.65"/>
</a>
</g>
</g>
<!-- Node9&#45;&gt;Node3 -->
<g id="edge10_Node000009_Node000003" class="edge">
<title>Node9&#45;&gt;Node3</title>
<g id="a_edge10_Node000009_Node000003"><a xlink:title=" ">
<path fill="none" stroke="#63b8ff" d="M698.58,-485.91C629.59,-471.98 560.78,-458.25 511.23,-448.39"/>
<polygon fill="#63b8ff" stroke="#63b8ff" points="697.68,-489.3 708.17,-487.85 699.06,-482.44 697.68,-489.3"/>
</a>
</g>
</g>
<!-- Node10&#45;&gt;Node2 -->
<g id="edge12_Node000010_Node000002" class="edge">
<title>Node10&#45;&gt;Node2</title>
<g id="a_edge12_Node000010_Node000002"><a xlink:title=" ">
<path fill="none" stroke="#63b8ff" d="M287.5,-544.31C287.5,-536.09 287.5,-527.34 287.5,-520.13"/>
<polygon fill="#63b8ff" stroke="#63b8ff" points="284,-544.24 287.5,-554.24 291,-544.24 284,-544.24"/>
</a>
</g>
</g>
<!-- Node10&#45;&gt;Node4 -->
<g id="edge15_Node000010_Node000004" class="edge">
<title>Node10&#45;&gt;Node4</title>
<g id="a_edge15_Node000010_Node000004"><a xlink:title=" ">
<path fill="none" stroke="#63b8ff" d="M242.65,-549.78C230.61,-541.91 218.67,-531.96 210.5,-520 188.61,-487.94 191.5,-473.57 191.5,-434.75 191.5,-434.75 191.5,-434.75 191.5,-293.75 191.5,-210.35 299.6,-177.41 373.91,-164.62"/>
<polygon fill="#63b8ff" stroke="#63b8ff" points="240.61,-552.64 250.97,-554.85 244.26,-546.66 240.61,-552.64"/>
</a>
</g>
</g>
<!-- Node10&#45;&gt;Node11 -->
<g id="edge13_Node000010_Node000011" class="edge">
<title>Node10&#45;&gt;Node11</title>
<g id="a_edge13_Node000010_Node000011"><a xlink:title=" ">
<path fill="none" stroke="#63b8ff" d="M335.03,-551.05C357.66,-541.2 384.31,-529.59 405.41,-520.4"/>
<polygon fill="#63b8ff" stroke="#63b8ff" points="333.78,-547.78 326.01,-554.98 336.58,-554.19 333.78,-547.78"/>
</a>
</g>
</g>
<!-- Node12 -->
<g id="Node000012" class="node">
<title>Node12</title>
<g id="a_Node000012"><a xlink:href="serialization_2ruiz_8hpp.html" target="_top" xlink:title=" ">
<polygon fill="white" stroke="#666666" points="163,-520 0,-520 0,-486.5 163,-486.5 163,-520"/>
<text text-anchor="start" x="8" y="-506.5" font-family="Helvetica,sans-Serif" font-size="10.00">include/proxsuite/serialization</text>
<text text-anchor="middle" x="81.5" y="-493.75" font-family="Helvetica,sans-Serif" font-size="10.00">/ruiz.hpp</text>
</a>
</g>
</g>
<!-- Node10&#45;&gt;Node12 -->
<g id="edge16_Node000010_Node000012" class="edge">
<title>Node10&#45;&gt;Node12</title>
<g id="a_edge16_Node000010_Node000012"><a xlink:title=" ">
<path fill="none" stroke="#63b8ff" d="M227.57,-552.11C196.83,-542.04 159.86,-529.92 130.8,-520.4"/>
<polygon fill="#63b8ff" stroke="#63b8ff" points="226.13,-555.32 236.72,-555.11 228.31,-548.67 226.13,-555.32"/>
</a>
</g>
</g>
<!-- Node11&#45;&gt;Node3 -->
<g id="edge14_Node000011_Node000003" class="edge">
<title>Node11&#45;&gt;Node3</title>
<g id="a_edge14_Node000011_Node000003"><a xlink:title=" ">
<path fill="none" stroke="#63b8ff" d="M442.5,-474.81C442.5,-466.59 442.5,-457.84 442.5,-450.63"/>
<polygon fill="#63b8ff" stroke="#63b8ff" points="439,-474.74 442.5,-484.74 446,-474.74 439,-474.74"/>
</a>
</g>
</g>
<!-- Node13&#45;&gt;Node9 -->
<g id="edge19_Node000013_Node000009" class="edge">
<title>Node13&#45;&gt;Node9</title>
<g id="a_edge19_Node000013_Node000009"><a xlink:title=" ">
<path fill="none" stroke="#63b8ff" d="M720.97,-548.89C733.04,-539.52 746.73,-528.9 757.73,-520.37"/>
<polygon fill="#63b8ff" stroke="#63b8ff" points="719.07,-545.93 713.31,-554.83 723.36,-551.46 719.07,-545.93"/>
</a>
</g>
</g>
<!-- Node13&#45;&gt;Node11 -->
<g id="edge20_Node000013_Node000011" class="edge">
<title>Node13&#45;&gt;Node11</title>
<g id="a_edge20_Node000013_Node000011"><a xlink:title=" ">
<path fill="none" stroke="#63b8ff" d="M621,-552.64C583.47,-542.47 537.82,-530.09 502.09,-520.4"/>
<polygon fill="#63b8ff" stroke="#63b8ff" points="619.83,-555.95 630.4,-555.19 621.66,-549.19 619.83,-555.95"/>
</a>
</g>
</g>
<!-- Node14 -->
<g id="Node000014" class="node">
<title>Node14</title>
<g id="a_Node000014"><a xlink:href="serialization_2workspace_8hpp.html" target="_top" xlink:title=" ">
<polygon fill="white" stroke="#666666" points="692,-520 529,-520 529,-486.5 692,-486.5 692,-520"/>
<text text-anchor="start" x="537" y="-506.5" font-family="Helvetica,sans-Serif" font-size="10.00">include/proxsuite/serialization</text>
<text text-anchor="middle" x="610.5" y="-493.75" font-family="Helvetica,sans-Serif" font-size="10.00">/workspace.hpp</text>
</a>
</g>
</g>
<!-- Node13&#45;&gt;Node14 -->
<g id="edge21_Node000013_Node000014" class="edge">
<title>Node13&#45;&gt;Node14</title>
<g id="a_edge21_Node000013_Node000014"><a xlink:title=" ">
<path fill="none" stroke="#63b8ff" d="M663.74,-548.61C652.57,-539.31 639.98,-528.81 629.84,-520.37"/>
<polygon fill="#63b8ff" stroke="#63b8ff" points="661.22,-551.07 671.14,-554.78 665.7,-545.69 661.22,-551.07"/>
</a>
</g>
</g>
<!-- Node15&#45;&gt;Node2 -->
<g id="edge23_Node000015_Node000002" class="edge">
<title>Node15&#45;&gt;Node2</title>
<g id="a_edge23_Node000015_Node000002"><a xlink:title=" ">
<path fill="none" stroke="#63b8ff" d="M851.77,-563.93C825.28,-561.36 795.62,-558.52 768.5,-556 589.45,-539.35 543.46,-545.84 365.5,-520 362.49,-519.56 359.43,-519.09 356.33,-518.58"/>
<polygon fill="#63b8ff" stroke="#63b8ff" points="851.11,-567.38 861.4,-564.86 851.79,-560.41 851.11,-567.38"/>
</a>
</g>
</g>
<!-- Node15&#45;&gt;Node9 -->
<g id="edge24_Node000015_Node000009" class="edge">
<title>Node15&#45;&gt;Node9</title>
<g id="a_edge24_Node000015_Node000009"><a xlink:title=" ">
<path fill="none" stroke="#63b8ff" d="M884.58,-551.05C862.25,-541.2 835.94,-529.59 815.11,-520.4"/>
<polygon fill="#63b8ff" stroke="#63b8ff" points="882.91,-554.14 893.47,-554.97 885.73,-547.73 882.91,-554.14"/>
</a>
</g>
</g>
<!-- Node15&#45;&gt;Node11 -->
<g id="edge25_Node000015_Node000011" class="edge">
<title>Node15&#45;&gt;Node11</title>
<g id="a_edge25_Node000015_Node000011"><a xlink:title=" ">
<path fill="none" stroke="#63b8ff" d="M851.55,-563.46C768.54,-554.43 635.06,-538.75 520.5,-520 517.5,-519.51 514.44,-518.99 511.35,-518.44"/>
<polygon fill="#63b8ff" stroke="#63b8ff" points="851.1,-566.93 861.41,-564.52 851.85,-559.97 851.1,-566.93"/>
</a>
</g>
</g>
<!-- Node15&#45;&gt;Node16 -->
<g id="edge26_Node000015_Node000016" class="edge">
<title>Node15&#45;&gt;Node16</title>
<g id="a_edge26_Node000015_Node000016"><a xlink:title=" ">
<path fill="none" stroke="#63b8ff" d="M930.48,-544.26C930.84,-526.96 933.2,-504.57 941.5,-486.5 980.53,-401.5 1077.99,-339.53 1128.7,-311.84"/>
<polygon fill="#63b8ff" stroke="#63b8ff" points="926.97,-544.06 930.5,-554.05 933.97,-544.04 926.97,-544.06"/>
</a>
</g>
</g>
<!-- Node15&#45;&gt;Node17 -->
<g id="edge41_Node000015_Node000017" class="edge">
<title>Node15&#45;&gt;Node17</title>
<g id="a_edge41_Node000015_Node000017"><a xlink:title=" ">
<path fill="none" stroke="#63b8ff" d="M913.9,-546.48C897.15,-519.93 874.5,-476.32 874.5,-434.75 874.5,-434.75 874.5,-434.75 874.5,-363.25 874.5,-319.49 874.5,-267.86 874.5,-242.28"/>
<polygon fill="#63b8ff" stroke="#63b8ff" points="910.74,-548.05 919.14,-554.51 916.61,-544.22 910.74,-548.05"/>
</a>
</g>
</g>
<!-- Node15&#45;&gt;Node19 -->
<g id="edge31_Node000015_Node000019" class="edge">
<title>Node15&#45;&gt;Node19</title>
<g id="a_edge31_Node000015_Node000019"><a xlink:title=" ">
<path fill="none" stroke="#63b8ff" d="M948.36,-546.44C962.33,-527.33 983.85,-501.86 1008.5,-486.5 1042.48,-465.32 1085.38,-452.56 1120.89,-445.02"/>
<polygon fill="#63b8ff" stroke="#63b8ff" points="945.55,-544.34 942.63,-554.53 951.26,-548.38 945.55,-544.34"/>
</a>
</g>
</g>
<!-- Node15&#45;&gt;Node20 -->
<g id="edge40_Node000015_Node000020" class="edge">
<title>Node15&#45;&gt;Node20</title>
<g id="a_edge40_Node000015_Node000020"><a xlink:title=" ">
<path fill="none" stroke="#63b8ff" d="M937.31,-544.68C942.4,-526.41 951.41,-502.76 966.5,-486.5 1016.6,-432.5 1096.08,-399.17 1150.17,-381.44"/>
<polygon fill="#63b8ff" stroke="#63b8ff" points="933.94,-543.75 934.88,-554.3 940.72,-545.47 933.94,-543.75"/>
</a>
</g>
</g>
<!-- Node15&#45;&gt;Node21 -->
<g id="edge36_Node000015_Node000021" class="edge">
<title>Node15&#45;&gt;Node21</title>
<g id="a_edge36_Node000015_Node000021"><a xlink:title=" ">
<path fill="none" stroke="#63b8ff" d="M1011.64,-557.25C1078.37,-545.17 1172.39,-528.16 1235.74,-516.69"/>
<polygon fill="#63b8ff" stroke="#63b8ff" points="1011.05,-553.8 1001.84,-559.02 1012.3,-560.68 1011.05,-553.8"/>
</a>
</g>
</g>
<!-- Node22 -->
<g id="Node000022" class="node">
<title>Node22</title>
<g id="a_Node000022"><a xlink:href="serialization_2results_8hpp.html" target="_top" xlink:title=" ">
<polygon fill="white" stroke="#666666" points="1180,-520 1017,-520 1017,-486.5 1180,-486.5 1180,-520"/>
<text text-anchor="start" x="1025" y="-506.5" font-family="Helvetica,sans-Serif" font-size="10.00">include/proxsuite/serialization</text>
<text text-anchor="middle" x="1098.5" y="-493.75" font-family="Helvetica,sans-Serif" font-size="10.00">/results.hpp</text>
</a>
</g>
</g>
<!-- Node15&#45;&gt;Node22 -->
<g id="edge42_Node000015_Node000022" class="edge">
<title>Node15&#45;&gt;Node22</title>
<g id="a_edge42_Node000015_Node000022"><a xlink:title=" ">
<path fill="none" stroke="#63b8ff" d="M982.05,-551.32C1006.57,-541.41 1035.6,-529.68 1058.54,-520.4"/>
<polygon fill="#63b8ff" stroke="#63b8ff" points="980.86,-548.02 972.9,-555.01 983.49,-554.51 980.86,-548.02"/>
</a>
</g>
</g>
<!-- Node16&#45;&gt;Node17 -->
<g id="edge27_Node000016_Node000017" class="edge">
<title>Node16&#45;&gt;Node17</title>
<g id="a_edge27_Node000016_Node000017"><a xlink:title=" ">
<path fill="none" stroke="#63b8ff" d="M1080.91,-274.97C1037.55,-264.73 984.43,-252.2 942.94,-242.4"/>
<polygon fill="#63b8ff" stroke="#63b8ff" points="1079.99,-278.34 1090.52,-277.23 1081.59,-271.53 1079.99,-278.34"/>
</a>
</g>
</g>
<!-- Node17&#45;&gt;Node4 -->
<g id="edge28_Node000017_Node000004" class="edge">
<title>Node17&#45;&gt;Node4</title>
<g id="a_edge28_Node000017_Node000004"><a xlink:title=" ">
<path fill="none" stroke="#63b8ff" d="M794.87,-211.81C713.53,-199.1 588.54,-179.57 511.35,-167.51"/>
<polygon fill="#63b8ff" stroke="#63b8ff" points="794.13,-215.23 804.55,-213.32 795.21,-208.32 794.13,-215.23"/>
</a>
</g>
</g>
<!-- Node17&#45;&gt;Node6 -->
<g id="edge29_Node000017_Node000006" class="edge">
<title>Node17&#45;&gt;Node6</title>
<g id="a_edge29_Node000017_Node000006"><a xlink:title=" ">
<path fill="none" stroke="#63b8ff" d="M873.13,-196.99C871.16,-179.3 866.48,-156.4 855.5,-139 824.95,-90.61 768.02,-53.64 732.31,-33.85"/>
<polygon fill="#63b8ff" stroke="#63b8ff" points="869.63,-197.1 873.98,-206.76 876.6,-196.49 869.63,-197.1"/>
</a>
</g>
</g>
<!-- Node18 -->
<g id="Node000018" class="node">
<title>Node18</title>
<g id="a_Node000018"><a xlink:href="sparse_8hpp.html" target="_top" xlink:title=" ">
<polygon fill="white" stroke="#666666" points="846.88,-172.5 710.12,-172.5 710.12,-139 846.88,-139 846.88,-172.5"/>
<text text-anchor="start" x="718.12" y="-159" font-family="Helvetica,sans-Serif" font-size="10.00">include/proxsuite/proxqp</text>
<text text-anchor="middle" x="778.5" y="-146.25" font-family="Helvetica,sans-Serif" font-size="10.00">/sparse/sparse.hpp</text>
</a>
</g>
</g>
<!-- Node17&#45;&gt;Node18 -->
<g id="edge30_Node000017_Node000018" class="edge">
<title>Node17&#45;&gt;Node18</title>
<g id="a_edge30_Node000017_Node000018"><a xlink:title=" ">
<path fill="none" stroke="#63b8ff" d="M842.38,-201.66C828.96,-192.23 813.67,-181.48 801.42,-172.87"/>
<polygon fill="#63b8ff" stroke="#63b8ff" points="840.32,-204.49 850.51,-207.38 844.34,-198.77 840.32,-204.49"/>
</a>
</g>
</g>
<!-- Node19&#45;&gt;Node16 -->
<g id="edge32_Node000019_Node000016" class="edge">
<title>Node19&#45;&gt;Node16</title>
<g id="a_edge32_Node000019_Node000016"><a xlink:title=" ">
<path fill="none" stroke="#63b8ff" d="M1154.05,-409.52C1145,-401.65 1136.43,-392.01 1131.5,-381 1121.02,-357.6 1135.87,-329.2 1147.89,-311.8"/>
<polygon fill="#63b8ff" stroke="#63b8ff" points="1151.61,-412.05 1161.6,-415.57 1155.99,-406.59 1151.61,-412.05"/>
</a>
</g>
</g>
<!-- Node19&#45;&gt;Node20 -->
<g id="edge33_Node000019_Node000020" class="edge">
<title>Node19&#45;&gt;Node20</title>
<g id="a_edge33_Node000019_Node000020"><a xlink:title=" ">
<path fill="none" stroke="#63b8ff" d="M1190.51,-405.6C1192.55,-397.29 1195.32,-388.43 1198.2,-381.13"/>
<polygon fill="#63b8ff" stroke="#63b8ff" points="1187.11,-404.77 1188.47,-415.27 1193.96,-406.21 1187.11,-404.77"/>
</a>
</g>
</g>
<!-- Node20&#45;&gt;Node16 -->
<g id="edge34_Node000020_Node000016" class="edge">
<title>Node20&#45;&gt;Node16</title>
<g id="a_edge34_Node000020_Node000016"><a xlink:title=" ">
<path fill="none" stroke="#63b8ff" d="M1190.61,-338.09C1184.31,-329.23 1177.4,-319.52 1171.79,-311.63"/>
<polygon fill="#63b8ff" stroke="#63b8ff" points="1187.6,-339.9 1196.25,-346.02 1193.3,-335.84 1187.6,-339.9"/>
</a>
</g>
</g>
<!-- Node20&#45;&gt;Node19 -->
<g id="edge35_Node000020_Node000019" class="edge">
<title>Node20&#45;&gt;Node19</title>
<g id="a_edge35_Node000020_Node000019"><a xlink:title=" ">
<path fill="none" stroke="#63b8ff" d="M1207.52,-392.27C1205.49,-400.57 1202.73,-409.44 1199.84,-416.75"/>
<polygon fill="#63b8ff" stroke="#63b8ff" points="1210.92,-393.12 1209.55,-382.61 1204.07,-391.68 1210.92,-393.12"/>
</a>
</g>
</g>
<!-- Node21&#45;&gt;Node16 -->
<g id="edge37_Node000021_Node000016" class="edge">
<title>Node21&#45;&gt;Node16</title>
<g id="a_edge37_Node000021_Node000016"><a xlink:title=" ">
<path fill="none" stroke="#63b8ff" d="M1308.82,-475.11C1312.57,-441.6 1313.67,-384.53 1285.5,-347.5 1271.71,-329.37 1250.42,-317.54 1229.3,-309.86"/>
<polygon fill="#63b8ff" stroke="#63b8ff" points="1305.37,-474.43 1307.56,-484.8 1312.32,-475.34 1305.37,-474.43"/>
</a>
</g>
</g>
<!-- Node21&#45;&gt;Node19 -->
<g id="edge38_Node000021_Node000019" class="edge">
<title>Node21&#45;&gt;Node19</title>
<g id="a_edge38_Node000021_Node000019"><a xlink:title=" ">
<path fill="none" stroke="#63b8ff" d="M1267.13,-480.32C1250.74,-470.7 1231.86,-459.61 1216.82,-450.79"/>
<polygon fill="#63b8ff" stroke="#63b8ff" points="1265.25,-483.27 1275.65,-485.32 1268.8,-477.24 1265.25,-483.27"/>
</a>
</g>
</g>
<!-- Node21&#45;&gt;Node20 -->
<g id="edge39_Node000021_Node000020" class="edge">
<title>Node21&#45;&gt;Node20</title>
<g id="a_edge39_Node000021_Node000020"><a xlink:title=" ">
<path fill="none" stroke="#63b8ff" d="M1295.87,-475.41C1289.43,-457.8 1279.51,-434.82 1266.5,-417 1256.55,-403.38 1242.49,-390.72 1230.7,-381.33"/>
<polygon fill="#63b8ff" stroke="#63b8ff" points="1292.5,-476.38 1299.1,-484.67 1299.11,-474.08 1292.5,-476.38"/>
</a>
</g>
</g>
</g>
</svg>
