<?xml version="1.0" encoding="UTF-8" standalone="no"?>
<!DOCTYPE svg PUBLIC "-//W3C//DTD SVG 1.1//EN"
 "http://www.w3.org/Graphics/SVG/1.1/DTD/svg11.dtd">
<!-- Generated by graphviz version 6.0.1 (20220911.2005)
 -->
<!-- Title: include/proxsuite/proxqp/sparse/fwd.hpp Pages: 1 -->
<svg width="1558pt" height="643pt"
 viewBox="0.00 0.00 1557.50 643.00" xmlns="http://www.w3.org/2000/svg" xmlns:xlink="http://www.w3.org/1999/xlink">
<g id="graph0" class="graph" transform="scale(1 1) rotate(0) translate(4 639)">
<title>include/proxsuite/proxqp/sparse/fwd.hpp</title>
<!-- Node1 -->
<g id="node1" class="node">
<title>Node1</title>
<g id="a_node1"><a xlink:title=" ">
<polygon fill="#999999" stroke="#666666" points="1144.5,-635 1007.5,-635 1007.5,-605 1144.5,-605 1144.5,-635"/>
<text text-anchor="start" x="1015.5" y="-623" font-family="Helvetica,sans-Serif" font-size="10.00">include/proxsuite/proxqp</text>
<text text-anchor="middle" x="1076" y="-612" font-family="Helvetica,sans-Serif" font-size="10.00">/sparse/fwd.hpp</text>
</a>
</g>
</g>
<!-- Node2 -->
<g id="node2" class="node">
<title>Node2</title>
<g id="a_node2"><a xlink:href="results_8hpp.html" target="_top" xlink:title=" ">
<polygon fill="white" stroke="#666666" points="548.5,-437 411.5,-437 411.5,-407 548.5,-407 548.5,-437"/>
<text text-anchor="start" x="419.5" y="-425" font-family="Helvetica,sans-Serif" font-size="10.00">include/proxsuite/proxqp</text>
<text text-anchor="middle" x="480" y="-414" font-family="Helvetica,sans-Serif" font-size="10.00">/results.hpp</text>
</a>
</g>
</g>
<!-- Node1&#45;&gt;Node2 -->
<g id="edge1" class="edge">
<title>Node1&#45;&gt;Node2</title>
<path fill="none" stroke="#63b8ff" d="M1023.38,-601.7C906.99,-563.42 629.61,-472.2 522.87,-437.1"/>
<polygon fill="#63b8ff" stroke="#63b8ff" points="1022.54,-605.1 1033.14,-604.9 1024.73,-598.46 1022.54,-605.1"/>
</g>
<!-- Node9 -->
<g id="node9" class="node">
<title>Node9</title>
<g id="a_node9"><a xlink:href="sparse_2solver_8hpp.html" target="_top" xlink:title=" ">
<polygon fill="white" stroke="#666666" points="889.5,-162 752.5,-162 752.5,-132 889.5,-132 889.5,-162"/>
<text text-anchor="start" x="760.5" y="-150" font-family="Helvetica,sans-Serif" font-size="10.00">include/proxsuite/proxqp</text>
<text text-anchor="middle" x="821" y="-139" font-family="Helvetica,sans-Serif" font-size="10.00">/sparse/solver.hpp</text>
</a>
</g>
</g>
<!-- Node1&#45;&gt;Node9 -->
<g id="edge49" class="edge">
<title>Node1&#45;&gt;Node9</title>
<path fill="none" stroke="#63b8ff" d="M1154.79,-618.38C1246.05,-613.01 1384,-588.44 1384,-489 1384,-489 1384,-489 1384,-278 1384,-177.62 1039.94,-154.74 889.75,-149.53"/>
<polygon fill="#63b8ff" stroke="#63b8ff" points="1154.54,-614.89 1144.74,-618.9 1154.91,-621.88 1154.54,-614.89"/>
</g>
<!-- Node15 -->
<g id="node15" class="node">
<title>Node15</title>
<g id="a_node15"><a xlink:href="settings_8hpp.html" target="_top" xlink:title=" ">
<polygon fill="white" stroke="#666666" points="451.5,-503 314.5,-503 314.5,-473 451.5,-473 451.5,-503"/>
<text text-anchor="start" x="322.5" y="-491" font-family="Helvetica,sans-Serif" font-size="10.00">include/proxsuite/proxqp</text>
<text text-anchor="middle" x="383" y="-480" font-family="Helvetica,sans-Serif" font-size="10.00">/settings.hpp</text>
</a>
</g>
</g>
<!-- Node1&#45;&gt;Node15 -->
<g id="edge24" class="edge">
<title>Node1&#45;&gt;Node15</title>
<path fill="none" stroke="#63b8ff" d="M997.23,-618.25C829.28,-615.93 447.57,-606.54 403,-569 383.84,-552.86 381.53,-521.4 381.98,-503.11"/>
<polygon fill="#63b8ff" stroke="#63b8ff" points="997.21,-621.75 1007.25,-618.38 997.3,-614.75 997.21,-621.75"/>
</g>
<!-- Node16 -->
<g id="node16" class="node">
<title>Node16</title>
<g id="a_node16"><a xlink:href="sparse_2helpers_8hpp.html" target="_top" xlink:title=" ">
<polygon fill="white" stroke="#666666" points="1549.5,-569 1412.5,-569 1412.5,-539 1549.5,-539 1549.5,-569"/>
<text text-anchor="start" x="1420.5" y="-557" font-family="Helvetica,sans-Serif" font-size="10.00">include/proxsuite/proxqp</text>
<text text-anchor="middle" x="1481" y="-546" font-family="Helvetica,sans-Serif" font-size="10.00">/sparse/helpers.hpp</text>
</a>
</g>
</g>
<!-- Node1&#45;&gt;Node16 -->
<g id="edge34" class="edge">
<title>Node1&#45;&gt;Node16</title>
<path fill="none" stroke="#63b8ff" d="M1154.71,-607.07C1219.93,-597.12 1315.04,-582.44 1398,-569 1402.62,-568.25 1407.38,-567.47 1412.17,-566.68"/>
<polygon fill="#63b8ff" stroke="#63b8ff" points="1153.87,-603.66 1144.51,-608.63 1154.92,-610.58 1153.87,-603.66"/>
</g>
<!-- Node17 -->
<g id="node17" class="node">
<title>Node17</title>
<g id="a_node17"><a xlink:href="sparse_2model_8hpp.html" target="_top" xlink:title=" ">
<polygon fill="white" stroke="#666666" points="1144.5,-503 1007.5,-503 1007.5,-473 1144.5,-473 1144.5,-503"/>
<text text-anchor="start" x="1015.5" y="-491" font-family="Helvetica,sans-Serif" font-size="10.00">include/proxsuite/proxqp</text>
<text text-anchor="middle" x="1076" y="-480" font-family="Helvetica,sans-Serif" font-size="10.00">/sparse/model.hpp</text>
</a>
</g>
</g>
<!-- Node1&#45;&gt;Node17 -->
<g id="edge36" class="edge">
<title>Node1&#45;&gt;Node17</title>
<path fill="none" stroke="#63b8ff" d="M1076,-594.68C1076,-567.7 1076,-525.11 1076,-503.14"/>
<polygon fill="#63b8ff" stroke="#63b8ff" points="1072.5,-594.84 1076,-604.84 1079.5,-594.84 1072.5,-594.84"/>
</g>
<!-- Node20 -->
<g id="node20" class="node">
<title>Node20</title>
<g id="a_node20"><a xlink:href="sparse_2preconditioner_2ruiz_8hpp.html" target="_top" xlink:title=" ">
<polygon fill="white" stroke="#666666" points="1355.5,-371 1218.5,-371 1218.5,-330 1355.5,-330 1355.5,-371"/>
<text text-anchor="start" x="1226.5" y="-359" font-family="Helvetica,sans-Serif" font-size="10.00">include/proxsuite/proxqp</text>
<text text-anchor="start" x="1226.5" y="-348" font-family="Helvetica,sans-Serif" font-size="10.00">/sparse/preconditioner</text>
<text text-anchor="middle" x="1287" y="-337" font-family="Helvetica,sans-Serif" font-size="10.00">/ruiz.hpp</text>
</a>
</g>
</g>
<!-- Node1&#45;&gt;Node20 -->
<g id="edge46" class="edge">
<title>Node1&#45;&gt;Node20</title>
<path fill="none" stroke="#63b8ff" d="M1093.43,-596.9C1133.75,-545.79 1232.92,-420.06 1271.39,-371.29"/>
<polygon fill="#63b8ff" stroke="#63b8ff" points="1090.49,-594.98 1087.05,-604.99 1095.99,-599.31 1090.49,-594.98"/>
</g>
<!-- Node21 -->
<g id="node21" class="node">
<title>Node21</title>
<g id="a_node21"><a xlink:href="status_8hpp.html" target="_top" xlink:title=" ">
<polygon fill="white" stroke="#666666" points="548.5,-569 411.5,-569 411.5,-539 548.5,-539 548.5,-569"/>
<text text-anchor="start" x="419.5" y="-557" font-family="Helvetica,sans-Serif" font-size="10.00">include/proxsuite/proxqp</text>
<text text-anchor="middle" x="480" y="-546" font-family="Helvetica,sans-Serif" font-size="10.00">/status.hpp</text>
</a>
</g>
</g>
<!-- Node1&#45;&gt;Node21 -->
<g id="edge50" class="edge">
<title>Node1&#45;&gt;Node21</title>
<path fill="none" stroke="#63b8ff" d="M997.33,-610.55C879.83,-597.93 660.39,-574.37 548.87,-562.4"/>
<polygon fill="#63b8ff" stroke="#63b8ff" points="997.02,-614.04 1007.34,-611.63 997.77,-607.08 997.02,-614.04"/>
</g>
<!-- Node3 -->
<g id="node3" class="node">
<title>Node3</title>
<g id="a_node3"><a xlink:href="dense_2helpers_8hpp.html" target="_top" xlink:title=" ">
<polygon fill="white" stroke="#666666" points="279.5,-365.5 142.5,-365.5 142.5,-335.5 279.5,-335.5 279.5,-365.5"/>
<text text-anchor="start" x="150.5" y="-353.5" font-family="Helvetica,sans-Serif" font-size="10.00">include/proxsuite/proxqp</text>
<text text-anchor="middle" x="211" y="-342.5" font-family="Helvetica,sans-Serif" font-size="10.00">/dense/helpers.hpp</text>
</a>
</g>
</g>
<!-- Node2&#45;&gt;Node3 -->
<g id="edge2" class="edge">
<title>Node2&#45;&gt;Node3</title>
<path fill="none" stroke="#63b8ff" d="M415.72,-404.39C369.84,-392.54 308.81,-376.77 265.36,-365.54"/>
<polygon fill="#63b8ff" stroke="#63b8ff" points="415.01,-407.82 425.56,-406.94 416.76,-401.05 415.01,-407.82"/>
</g>
<!-- Node7 -->
<g id="node7" class="node">
<title>Node7</title>
<g id="a_node7"><a xlink:href="linesearch_8hpp.html" target="_top" xlink:title=" ">
<polygon fill="white" stroke="#666666" points="589.5,-365.5 452.5,-365.5 452.5,-335.5 589.5,-335.5 589.5,-365.5"/>
<text text-anchor="start" x="460.5" y="-353.5" font-family="Helvetica,sans-Serif" font-size="10.00">include/proxsuite/proxqp</text>
<text text-anchor="middle" x="521" y="-342.5" font-family="Helvetica,sans-Serif" font-size="10.00">/dense/linesearch.hpp</text>
</a>
</g>
</g>
<!-- Node2&#45;&gt;Node7 -->
<g id="edge7" class="edge">
<title>Node2&#45;&gt;Node7</title>
<path fill="none" stroke="#63b8ff" d="M493.53,-398.06C499.87,-387.32 507.22,-374.86 512.72,-365.54"/>
<polygon fill="#63b8ff" stroke="#63b8ff" points="490.36,-396.54 488.3,-406.94 496.39,-400.1 490.36,-396.54"/>
</g>
<!-- Node8 -->
<g id="node8" class="node">
<title>Node8</title>
<g id="a_node8"><a xlink:href="dense_2utils_8hpp.html" target="_top" xlink:title=" ">
<polygon fill="white" stroke="#666666" points="434.5,-365.5 297.5,-365.5 297.5,-335.5 434.5,-335.5 434.5,-365.5"/>
<text text-anchor="start" x="305.5" y="-353.5" font-family="Helvetica,sans-Serif" font-size="10.00">include/proxsuite/proxqp</text>
<text text-anchor="middle" x="366" y="-342.5" font-family="Helvetica,sans-Serif" font-size="10.00">/dense/utils.hpp</text>
</a>
</g>
</g>
<!-- Node2&#45;&gt;Node8 -->
<g id="edge9" class="edge">
<title>Node2&#45;&gt;Node8</title>
<path fill="none" stroke="#63b8ff" d="M448.38,-401.72C429.56,-390.25 406.1,-375.95 389.04,-365.54"/>
<polygon fill="#63b8ff" stroke="#63b8ff" points="446.57,-404.72 456.93,-406.94 450.21,-398.74 446.57,-404.72"/>
</g>
<!-- Node2&#45;&gt;Node9 -->
<g id="edge11" class="edge">
<title>Node2&#45;&gt;Node9</title>
<path fill="none" stroke="#63b8ff" d="M551.37,-403.07C568.98,-395.67 586.38,-385.33 599,-371 651.72,-311.11 590.84,-254.68 647,-198 674.54,-170.2 716.45,-157.62 752.23,-152.02"/>
<polygon fill="#63b8ff" stroke="#63b8ff" points="549.64,-399.99 541.6,-406.89 552.19,-406.51 549.64,-399.99"/>
</g>
<!-- Node10 -->
<g id="node10" class="node">
<title>Node10</title>
<g id="a_node10"><a xlink:href="sparse_2wrapper_8hpp.html" target="_top" xlink:title=" ">
<polygon fill="white" stroke="#666666" points="501.5,-96 364.5,-96 364.5,-66 501.5,-66 501.5,-96"/>
<text text-anchor="start" x="372.5" y="-84" font-family="Helvetica,sans-Serif" font-size="10.00">include/proxsuite/proxqp</text>
<text text-anchor="middle" x="433" y="-73" font-family="Helvetica,sans-Serif" font-size="10.00">/sparse/wrapper.hpp</text>
</a>
</g>
</g>
<!-- Node2&#45;&gt;Node10 -->
<g id="edge23" class="edge">
<title>Node2&#45;&gt;Node10</title>
<path fill="none" stroke="#63b8ff" d="M401.12,-415.16C313.94,-407.75 179.78,-393.17 134,-371 81.09,-345.37 38,-338.79 38,-280 38,-280 38,-280 38,-212 38,-144.14 251.03,-105.84 364.2,-90.28"/>
<polygon fill="#63b8ff" stroke="#63b8ff" points="400.99,-418.67 411.24,-416.01 401.57,-411.69 400.99,-418.67"/>
</g>
<!-- Node12 -->
<g id="node12" class="node">
<title>Node12</title>
<g id="a_node12"><a xlink:href="sparse_2utils_8hpp.html" target="_top" xlink:title=" ">
<polygon fill="white" stroke="#666666" points="889.5,-294 752.5,-294 752.5,-264 889.5,-264 889.5,-294"/>
<text text-anchor="start" x="760.5" y="-282" font-family="Helvetica,sans-Serif" font-size="10.00">include/proxsuite/proxqp</text>
<text text-anchor="middle" x="821" y="-271" font-family="Helvetica,sans-Serif" font-size="10.00">/sparse/utils.hpp</text>
</a>
</g>
</g>
<!-- Node2&#45;&gt;Node12 -->
<g id="edge14" class="edge">
<title>Node2&#45;&gt;Node12</title>
<path fill="none" stroke="#63b8ff" d="M555.57,-404.74C599.45,-394.59 649.91,-381.51 670,-371 694.86,-357.99 694.52,-345.36 718,-330 739.62,-315.85 765.85,-303.18 786.42,-294.13"/>
<polygon fill="#63b8ff" stroke="#63b8ff" points="554.71,-401.34 545.75,-406.98 556.28,-408.16 554.71,-401.34"/>
</g>
<!-- Node13 -->
<g id="node13" class="node">
<title>Node13</title>
<g id="a_node13"><a xlink:href="sparse_2workspace_8hpp.html" target="_top" xlink:title=" ">
<polygon fill="white" stroke="#666666" points="792.5,-228 655.5,-228 655.5,-198 792.5,-198 792.5,-228"/>
<text text-anchor="start" x="663.5" y="-216" font-family="Helvetica,sans-Serif" font-size="10.00">include/proxsuite/proxqp</text>
<text text-anchor="middle" x="724" y="-205" font-family="Helvetica,sans-Serif" font-size="10.00">/sparse/workspace.hpp</text>
</a>
</g>
</g>
<!-- Node2&#45;&gt;Node13 -->
<g id="edge22" class="edge">
<title>Node2&#45;&gt;Node13</title>
<path fill="none" stroke="#63b8ff" d="M558.38,-406.81C583.84,-399.33 610.92,-388.02 632,-371 680.91,-331.5 709.37,-258.54 719.62,-228.01"/>
<polygon fill="#63b8ff" stroke="#63b8ff" points="557.43,-403.44 548.73,-409.49 559.3,-410.19 557.43,-403.44"/>
</g>
<!-- Node14 -->
<g id="node14" class="node">
<title>Node14</title>
<g id="a_node14"><a xlink:href="sparse_2views_8hpp.html" target="_top" xlink:title=" ">
<polygon fill="white" stroke="#666666" points="897.5,-365.5 760.5,-365.5 760.5,-335.5 897.5,-335.5 897.5,-365.5"/>
<text text-anchor="start" x="768.5" y="-353.5" font-family="Helvetica,sans-Serif" font-size="10.00">include/proxsuite/proxqp</text>
<text text-anchor="middle" x="829" y="-342.5" font-family="Helvetica,sans-Serif" font-size="10.00">/sparse/views.hpp</text>
</a>
</g>
</g>
<!-- Node2&#45;&gt;Node14 -->
<g id="edge18" class="edge">
<title>Node2&#45;&gt;Node14</title>
<path fill="none" stroke="#63b8ff" d="M558.45,-405.38C619.11,-393.3 702.27,-376.74 760.32,-365.18"/>
<polygon fill="#63b8ff" stroke="#63b8ff" points="557.66,-401.97 548.53,-407.35 559.03,-408.83 557.66,-401.97"/>
</g>
<!-- Node4 -->
<g id="node4" class="node">
<title>Node4</title>
<g id="a_node4"><a xlink:href="dense_2solver_8hpp.html" target="_top" xlink:title=" ">
<polygon fill="white" stroke="#666666" points="405.5,-294 268.5,-294 268.5,-264 405.5,-264 405.5,-294"/>
<text text-anchor="start" x="276.5" y="-282" font-family="Helvetica,sans-Serif" font-size="10.00">include/proxsuite/proxqp</text>
<text text-anchor="middle" x="337" y="-271" font-family="Helvetica,sans-Serif" font-size="10.00">/dense/solver.hpp</text>
</a>
</g>
</g>
<!-- Node3&#45;&gt;Node4 -->
<g id="edge3" class="edge">
<title>Node3&#45;&gt;Node4</title>
<path fill="none" stroke="#63b8ff" d="M245.38,-330.53C266.28,-319.01 292.51,-304.54 311.54,-294.04"/>
<polygon fill="#63b8ff" stroke="#63b8ff" points="243.56,-327.54 236.5,-335.44 246.94,-333.67 243.56,-327.54"/>
</g>
<!-- Node5 -->
<g id="node5" class="node">
<title>Node5</title>
<g id="a_node5"><a xlink:href="dense_2wrapper_8hpp.html" target="_top" xlink:title=" ">
<polygon fill="white" stroke="#666666" points="370.5,-228 233.5,-228 233.5,-198 370.5,-198 370.5,-228"/>
<text text-anchor="start" x="241.5" y="-216" font-family="Helvetica,sans-Serif" font-size="10.00">include/proxsuite/proxqp</text>
<text text-anchor="middle" x="302" y="-205" font-family="Helvetica,sans-Serif" font-size="10.00">/dense/wrapper.hpp</text>
</a>
</g>
</g>
<!-- Node3&#45;&gt;Node5 -->
<g id="edge6" class="edge">
<title>Node3&#45;&gt;Node5</title>
<path fill="none" stroke="#63b8ff" d="M222.78,-326.43C232.1,-308.82 245.87,-284.24 260,-264 268.83,-251.36 280.13,-238.04 288.78,-228.33"/>
<polygon fill="#63b8ff" stroke="#63b8ff" points="219.61,-324.93 218.08,-335.42 225.81,-328.17 219.61,-324.93"/>
</g>
<!-- Node4&#45;&gt;Node5 -->
<g id="edge4" class="edge">
<title>Node4&#45;&gt;Node5</title>
<path fill="none" stroke="#63b8ff" d="M324.4,-254.96C319.5,-246 314.05,-236.03 309.75,-228.16"/>
<polygon fill="#63b8ff" stroke="#63b8ff" points="321.36,-256.7 329.23,-263.8 327.5,-253.34 321.36,-256.7"/>
</g>
<!-- Node6 -->
<g id="node6" class="node">
<title>Node6</title>
<g id="a_node6"><a xlink:href="dense_8hpp.html" target="_top" xlink:title=" ">
<polygon fill="white" stroke="#666666" points="370.5,-162 233.5,-162 233.5,-132 370.5,-132 370.5,-162"/>
<text text-anchor="start" x="241.5" y="-150" font-family="Helvetica,sans-Serif" font-size="10.00">include/proxsuite/proxqp</text>
<text text-anchor="middle" x="302" y="-139" font-family="Helvetica,sans-Serif" font-size="10.00">/dense/dense.hpp</text>
</a>
</g>
</g>
<!-- Node5&#45;&gt;Node6 -->
<g id="edge5" class="edge">
<title>Node5&#45;&gt;Node6</title>
<path fill="none" stroke="#63b8ff" d="M302,-187.54C302,-178.96 302,-169.61 302,-162.16"/>
<polygon fill="#63b8ff" stroke="#63b8ff" points="298.5,-187.8 302,-197.8 305.5,-187.8 298.5,-187.8"/>
</g>
<!-- Node7&#45;&gt;Node4 -->
<g id="edge8" class="edge">
<title>Node7&#45;&gt;Node4</title>
<path fill="none" stroke="#63b8ff" d="M474.04,-331.76C443.04,-320.05 402.97,-304.92 374.18,-294.04"/>
<polygon fill="#63b8ff" stroke="#63b8ff" points="473.17,-335.18 483.76,-335.44 475.65,-328.63 473.17,-335.18"/>
</g>
<!-- Node8&#45;&gt;Node4 -->
<g id="edge10" class="edge">
<title>Node8&#45;&gt;Node4</title>
<path fill="none" stroke="#63b8ff" d="M356.15,-325.9C351.74,-315.31 346.67,-303.18 342.86,-294.04"/>
<polygon fill="#63b8ff" stroke="#63b8ff" points="353.05,-327.55 360.13,-335.44 359.51,-324.86 353.05,-327.55"/>
</g>
<!-- Node9&#45;&gt;Node10 -->
<g id="edge12" class="edge">
<title>Node9&#45;&gt;Node10</title>
<path fill="none" stroke="#63b8ff" d="M741.9,-132.95C671.26,-121.3 568.85,-104.41 501.6,-93.32"/>
<polygon fill="#63b8ff" stroke="#63b8ff" points="741.64,-136.46 752.08,-134.63 742.78,-129.55 741.64,-136.46"/>
</g>
<!-- Node11 -->
<g id="node11" class="node">
<title>Node11</title>
<g id="a_node11"><a xlink:href="sparse_8hpp.html" target="_top" xlink:title=" ">
<polygon fill="white" stroke="#666666" points="501.5,-30 364.5,-30 364.5,0 501.5,0 501.5,-30"/>
<text text-anchor="start" x="372.5" y="-18" font-family="Helvetica,sans-Serif" font-size="10.00">include/proxsuite/proxqp</text>
<text text-anchor="middle" x="433" y="-7" font-family="Helvetica,sans-Serif" font-size="10.00">/sparse/sparse.hpp</text>
</a>
</g>
</g>
<!-- Node10&#45;&gt;Node11 -->
<g id="edge13" class="edge">
<title>Node10&#45;&gt;Node11</title>
<path fill="none" stroke="#63b8ff" d="M433,-55.54C433,-46.96 433,-37.61 433,-30.16"/>
<polygon fill="#63b8ff" stroke="#63b8ff" points="429.5,-55.8 433,-65.8 436.5,-55.8 429.5,-55.8"/>
</g>
<!-- Node12&#45;&gt;Node9 -->
<g id="edge15" class="edge">
<title>Node12&#45;&gt;Node9</title>
<path fill="none" stroke="#63b8ff" d="M821,-253.68C821,-226.7 821,-184.11 821,-162.14"/>
<polygon fill="#63b8ff" stroke="#63b8ff" points="817.5,-253.84 821,-263.84 824.5,-253.84 817.5,-253.84"/>
</g>
<!-- Node12&#45;&gt;Node13 -->
<g id="edge16" class="edge">
<title>Node12&#45;&gt;Node13</title>
<path fill="none" stroke="#63b8ff" d="M790.73,-258.03C776.05,-248.34 758.77,-236.94 745.47,-228.16"/>
<polygon fill="#63b8ff" stroke="#63b8ff" points="789.2,-261.21 799.47,-263.8 793.05,-255.37 789.2,-261.21"/>
</g>
<!-- Node13&#45;&gt;Node9 -->
<g id="edge17" class="edge">
<title>Node13&#45;&gt;Node9</title>
<path fill="none" stroke="#63b8ff" d="M754.27,-192.03C768.95,-182.34 786.23,-170.94 799.53,-162.16"/>
<polygon fill="#63b8ff" stroke="#63b8ff" points="751.95,-189.37 745.53,-197.8 755.8,-195.21 751.95,-189.37"/>
</g>
<!-- Node14&#45;&gt;Node9 -->
<g id="edge19" class="edge">
<title>Node14&#45;&gt;Node9</title>
<path fill="none" stroke="#63b8ff" d="M865.63,-329.87C878.66,-320.82 891.86,-308.78 899,-294 904.8,-282 902.89,-276.75 899,-264 886.4,-222.68 853.61,-182.74 834.8,-162.24"/>
<polygon fill="#63b8ff" stroke="#63b8ff" points="863.64,-326.99 857.16,-335.37 867.45,-332.86 863.64,-326.99"/>
</g>
<!-- Node14&#45;&gt;Node12 -->
<g id="edge20" class="edge">
<title>Node14&#45;&gt;Node12</title>
<path fill="none" stroke="#63b8ff" d="M826.21,-325.25C825.01,-314.81 823.65,-302.99 822.62,-294.04"/>
<polygon fill="#63b8ff" stroke="#63b8ff" points="822.76,-325.9 827.38,-335.44 829.71,-325.1 822.76,-325.9"/>
</g>
<!-- Node14&#45;&gt;Node13 -->
<g id="edge21" class="edge">
<title>Node14&#45;&gt;Node13</title>
<path fill="none" stroke="#63b8ff" d="M786.88,-330.38C771.32,-321.39 754.85,-309.24 744,-294 729.8,-274.06 725.65,-245.06 724.45,-228.01"/>
<polygon fill="#63b8ff" stroke="#63b8ff" points="785.44,-333.58 795.89,-335.31 788.8,-327.44 785.44,-333.58"/>
</g>
<!-- Node15&#45;&gt;Node2 -->
<g id="edge28" class="edge">
<title>Node15&#45;&gt;Node2</title>
<path fill="none" stroke="#63b8ff" d="M413.27,-467.03C427.95,-457.34 445.23,-445.94 458.53,-437.16"/>
<polygon fill="#63b8ff" stroke="#63b8ff" points="410.95,-464.37 404.53,-472.8 414.8,-470.21 410.95,-464.37"/>
</g>
<!-- Node15&#45;&gt;Node3 -->
<g id="edge25" class="edge">
<title>Node15&#45;&gt;Node3</title>
<path fill="none" stroke="#63b8ff" d="M356.96,-466.49C321.61,-438.64 259.33,-389.58 228.84,-365.55"/>
<polygon fill="#63b8ff" stroke="#63b8ff" points="354.9,-469.32 364.92,-472.76 359.23,-463.82 354.9,-469.32"/>
</g>
<!-- Node15&#45;&gt;Node7 -->
<g id="edge26" class="edge">
<title>Node15&#45;&gt;Node7</title>
<path fill="none" stroke="#63b8ff" d="M383.72,-462.55C385.41,-445.31 390.17,-422.6 403,-407 419.25,-387.24 444.14,-374.11 466.88,-365.61"/>
<polygon fill="#63b8ff" stroke="#63b8ff" points="380.2,-462.74 383,-472.96 387.18,-463.22 380.2,-462.74"/>
</g>
<!-- Node15&#45;&gt;Node8 -->
<g id="edge27" class="edge">
<title>Node15&#45;&gt;Node8</title>
<path fill="none" stroke="#63b8ff" d="M375.06,-463.1C372.68,-454.92 370.34,-445.64 369,-437 365.13,-412.05 365.07,-382.53 365.48,-365.52"/>
<polygon fill="#63b8ff" stroke="#63b8ff" points="371.75,-464.23 378.04,-472.76 378.44,-462.17 371.75,-464.23"/>
</g>
<!-- Node15&#45;&gt;Node9 -->
<g id="edge29" class="edge">
<title>Node15&#45;&gt;Node9</title>
<path fill="none" stroke="#63b8ff" d="M304.46,-485.09C213.5,-478.22 76,-451.31 76,-351.5 76,-351.5 76,-351.5 76,-278 76,-202.84 152.94,-219.36 225,-198 322.13,-169.2 617.44,-155.26 752.4,-150.25"/>
<polygon fill="#63b8ff" stroke="#63b8ff" points="304.27,-488.59 314.49,-485.79 304.75,-481.61 304.27,-488.59"/>
</g>
<!-- Node15&#45;&gt;Node10 -->
<g id="edge33" class="edge">
<title>Node15&#45;&gt;Node10</title>
<path fill="none" stroke="#63b8ff" d="M304.05,-485.38C243.53,-481.37 159.42,-469.66 93,-437 42.62,-412.22 0,-407.65 0,-351.5 0,-351.5 0,-351.5 0,-212 0,-161.08 36.32,-154.48 82,-132 130.33,-108.22 276.6,-93.59 364.33,-86.71"/>
<polygon fill="#63b8ff" stroke="#63b8ff" points="304.11,-488.89 314.3,-486 304.53,-481.9 304.11,-488.89"/>
</g>
<!-- Node15&#45;&gt;Node12 -->
<g id="edge30" class="edge">
<title>Node15&#45;&gt;Node12</title>
<path fill="none" stroke="#63b8ff" d="M461.77,-484.16C546.96,-479.54 675.62,-467.59 713,-437 752.17,-404.94 721.5,-370.4 752,-330 763.23,-315.12 780.12,-302.78 794.38,-294.08"/>
<polygon fill="#63b8ff" stroke="#63b8ff" points="461.41,-480.67 451.61,-484.69 461.77,-487.66 461.41,-480.67"/>
</g>
<!-- Node15&#45;&gt;Node13 -->
<g id="edge32" class="edge">
<title>Node15&#45;&gt;Node13</title>
<path fill="none" stroke="#63b8ff" d="M304.42,-471.42C215.54,-449.87 88.67,-404.91 134,-330 187.54,-241.52 511.59,-220.52 655.38,-215.54"/>
<polygon fill="#63b8ff" stroke="#63b8ff" points="303.71,-474.85 314.25,-473.75 305.32,-468.04 303.71,-474.85"/>
</g>
<!-- Node15&#45;&gt;Node14 -->
<g id="edge31" class="edge">
<title>Node15&#45;&gt;Node14</title>
<path fill="none" stroke="#63b8ff" d="M461.84,-482.15C553.3,-475.48 697.72,-461.44 746,-437 779.04,-420.28 806.45,-385.14 819.96,-365.51"/>
<polygon fill="#63b8ff" stroke="#63b8ff" points="461.51,-478.66 451.79,-482.86 462.01,-485.64 461.51,-478.66"/>
</g>
<!-- Node16&#45;&gt;Node10 -->
<g id="edge35" class="edge">
<title>Node16&#45;&gt;Node10</title>
<path fill="none" stroke="#63b8ff" d="M1472.37,-529.15C1463.83,-503.34 1452,-460.8 1452,-423 1452,-423 1452,-423 1452,-212 1452,-115.97 730.75,-89.51 501.84,-83.53"/>
<polygon fill="#63b8ff" stroke="#63b8ff" points="1469.13,-530.48 1475.68,-538.8 1475.75,-528.21 1469.13,-530.48"/>
</g>
<!-- Node17&#45;&gt;Node9 -->
<g id="edge41" class="edge">
<title>Node17&#45;&gt;Node9</title>
<path fill="none" stroke="#63b8ff" d="M1108.83,-467.14C1142.51,-443.97 1190,-402.3 1190,-351.5 1190,-351.5 1190,-351.5 1190,-278 1190,-215 996.25,-175.04 889.54,-157.81"/>
<polygon fill="#63b8ff" stroke="#63b8ff" points="1106.56,-464.44 1100.18,-472.9 1110.44,-470.27 1106.56,-464.44"/>
</g>
<!-- Node17&#45;&gt;Node12 -->
<g id="edge42" class="edge">
<title>Node17&#45;&gt;Node12</title>
<path fill="none" stroke="#63b8ff" d="M1088.34,-463.86C1104.35,-430.3 1126.69,-368 1095,-330 1069.33,-299.22 962.04,-287.34 889.58,-282.79"/>
<polygon fill="#63b8ff" stroke="#63b8ff" points="1085.16,-462.39 1083.85,-472.9 1091.43,-465.51 1085.16,-462.39"/>
</g>
<!-- Node17&#45;&gt;Node13 -->
<g id="edge44" class="edge">
<title>Node17&#45;&gt;Node13</title>
<path fill="none" stroke="#63b8ff" d="M1098.9,-465.71C1106.13,-457.52 1113.22,-447.57 1117,-437 1124.22,-416.8 1133.03,-352.68 1116,-330 1077.1,-278.22 894.45,-241.31 792.77,-224.39"/>
<polygon fill="#63b8ff" stroke="#63b8ff" points="1096.35,-463.32 1092.03,-472.99 1101.44,-468.12 1096.35,-463.32"/>
</g>
<!-- Node17&#45;&gt;Node14 -->
<g id="edge43" class="edge">
<title>Node17&#45;&gt;Node14</title>
<path fill="none" stroke="#63b8ff" d="M1041.15,-467.88C990.87,-440.3 899.15,-389.98 854.62,-365.55"/>
<polygon fill="#63b8ff" stroke="#63b8ff" points="1039.58,-471.01 1050.03,-472.76 1042.95,-464.88 1039.58,-471.01"/>
</g>
<!-- Node18 -->
<g id="node18" class="node">
<title>Node18</title>
<g id="a_node18"><a xlink:href="dense_2model_8hpp.html" target="_top" xlink:title=" ">
<polygon fill="white" stroke="#666666" points="703.5,-437 566.5,-437 566.5,-407 703.5,-407 703.5,-437"/>
<text text-anchor="start" x="574.5" y="-425" font-family="Helvetica,sans-Serif" font-size="10.00">include/proxsuite/proxqp</text>
<text text-anchor="middle" x="635" y="-414" font-family="Helvetica,sans-Serif" font-size="10.00">/dense/model.hpp</text>
</a>
</g>
</g>
<!-- Node17&#45;&gt;Node18 -->
<g id="edge37" class="edge">
<title>Node17&#45;&gt;Node18</title>
<path fill="none" stroke="#63b8ff" d="M997.15,-475.56C913.68,-463.44 783.23,-444.51 703.79,-432.98"/>
<polygon fill="#63b8ff" stroke="#63b8ff" points="996.69,-479.03 1007.09,-477 997.7,-472.1 996.69,-479.03"/>
</g>
<!-- Node19 -->
<g id="node19" class="node">
<title>Node19</title>
<g id="a_node19"><a xlink:href="random__qp__problems_8hpp.html" target="_top" xlink:title=" ">
<polygon fill="white" stroke="#666666" points="1086,-365.5 916,-365.5 916,-335.5 1086,-335.5 1086,-365.5"/>
<text text-anchor="start" x="924" y="-353.5" font-family="Helvetica,sans-Serif" font-size="10.00">include/proxsuite/proxqp</text>
<text text-anchor="middle" x="1001" y="-342.5" font-family="Helvetica,sans-Serif" font-size="10.00">/utils/random_qp_problems.hpp</text>
</a>
</g>
</g>
<!-- Node17&#45;&gt;Node19 -->
<g id="edge45" class="edge">
<title>Node17&#45;&gt;Node19</title>
<path fill="none" stroke="#63b8ff" d="M1063.25,-463.97C1047.64,-435.76 1021.68,-388.87 1008.78,-365.55"/>
<polygon fill="#63b8ff" stroke="#63b8ff" points="1060.21,-465.7 1068.12,-472.76 1066.33,-462.31 1060.21,-465.7"/>
</g>
<!-- Node18&#45;&gt;Node7 -->
<g id="edge38" class="edge">
<title>Node18&#45;&gt;Node7</title>
<path fill="none" stroke="#63b8ff" d="M603.38,-401.72C584.56,-390.25 561.1,-375.95 544.04,-365.54"/>
<polygon fill="#63b8ff" stroke="#63b8ff" points="601.57,-404.72 611.93,-406.94 605.21,-398.74 601.57,-404.72"/>
</g>
<!-- Node18&#45;&gt;Node8 -->
<g id="edge39" class="edge">
<title>Node18&#45;&gt;Node8</title>
<path fill="none" stroke="#63b8ff" d="M570.72,-404.39C524.84,-392.54 463.81,-376.77 420.36,-365.54"/>
<polygon fill="#63b8ff" stroke="#63b8ff" points="570.01,-407.82 580.56,-406.94 571.76,-401.05 570.01,-407.82"/>
</g>
<!-- Node18&#45;&gt;Node19 -->
<g id="edge40" class="edge">
<title>Node18&#45;&gt;Node19</title>
<path fill="none" stroke="#63b8ff" d="M713.47,-407.06C767.85,-397.29 841.9,-383.73 907,-371 915.83,-369.27 925.12,-367.41 934.28,-365.54"/>
<polygon fill="#63b8ff" stroke="#63b8ff" points="712.77,-403.63 703.55,-408.84 714.01,-410.52 712.77,-403.63"/>
</g>
<!-- Node20&#45;&gt;Node9 -->
<g id="edge47" class="edge">
<title>Node20&#45;&gt;Node9</title>
<path fill="none" stroke="#63b8ff" d="M1279.65,-320.13C1269.18,-284.89 1246.36,-226.96 1204,-198 1154.32,-164.03 986.01,-153.12 889.85,-149.63"/>
<polygon fill="#63b8ff" stroke="#63b8ff" points="1276.31,-321.18 1282.39,-329.85 1283.04,-319.27 1276.31,-321.18"/>
</g>
<!-- Node20&#45;&gt;Node12 -->
<g id="edge48" class="edge">
<title>Node20&#45;&gt;Node12</title>
<path fill="none" stroke="#63b8ff" d="M1208.16,-337.74C1118.8,-324.41 974.57,-302.9 889.66,-290.24"/>
<polygon fill="#63b8ff" stroke="#63b8ff" points="1207.83,-341.23 1218.24,-339.25 1208.87,-334.31 1207.83,-341.23"/>
</g>
<!-- Node21&#45;&gt;Node2 -->
<g id="edge52" class="edge">
<title>Node21&#45;&gt;Node2</title>
<path fill="none" stroke="#63b8ff" d="M480,-528.68C480,-501.7 480,-459.11 480,-437.14"/>
<polygon fill="#63b8ff" stroke="#63b8ff" points="476.5,-528.84 480,-538.84 483.5,-528.84 476.5,-528.84"/>
</g>
<!-- Node21&#45;&gt;Node3 -->
<g id="edge51" class="edge">
<title>Node21&#45;&gt;Node3</title>
<path fill="none" stroke="#63b8ff" d="M401.42,-542.98C369.41,-535.87 333.54,-523.73 306,-503 256.89,-466.03 226.92,-395.62 215.86,-365.61"/>
<polygon fill="#63b8ff" stroke="#63b8ff" points="400.71,-546.41 411.22,-545.03 402.15,-539.56 400.71,-546.41"/>
</g>
<!-- Node21&#45;&gt;Node15 -->
<g id="edge53" class="edge">
<title>Node21&#45;&gt;Node15</title>
<path fill="none" stroke="#63b8ff" d="M449.73,-533.03C435.05,-523.34 417.77,-511.94 404.47,-503.16"/>
<polygon fill="#63b8ff" stroke="#63b8ff" points="448.2,-536.21 458.47,-538.8 452.05,-530.37 448.2,-536.21"/>
</g>
</g>
</svg>
