<?xml version="1.0" encoding="UTF-8" standalone="no"?>
<!DOCTYPE svg PUBLIC "-//W3C//DTD SVG 1.1//EN"
 "http://www.w3.org/Graphics/SVG/1.1/DTD/svg11.dtd">
<!-- Generated by graphviz version 8.1.0 (20230707.2238)
 -->
<!-- Title: include/proxsuite/proxqp/dense/fwd.hpp Pages: 1 -->
<svg width="919pt" height="389pt"
 viewBox="0.00 0.00 918.88 389.00" xmlns="http://www.w3.org/2000/svg" xmlns:xlink="http://www.w3.org/1999/xlink">
<g id="graph0" class="graph" transform="scale(1 1) rotate(0) translate(4 385)">
<title>include/proxsuite/proxqp/dense/fwd.hpp</title>
<!-- Node1 -->
<g id="Node000001" class="node">
<title>Node1</title>
<g id="a_Node000001"><a xlink:title=" ">
<polygon fill="#999999" stroke="#666666" points="305.75,-381 169,-381 169,-347.5 305.75,-347.5 305.75,-381"/>
<text text-anchor="start" x="177" y="-367.5" font-family="Helvetica,sans-Serif" font-size="10.00">include/proxsuite/proxqp</text>
<text text-anchor="middle" x="237.38" y="-354.75" font-family="Helvetica,sans-Serif" font-size="10.00">/dense/fwd.hpp</text>
</a>
</g>
</g>
<!-- Node2 -->
<g id="Node000002" class="node">
<title>Node2</title>
<g id="a_Node000002"><a xlink:href="dense_2helpers_8hpp.html" target="_top" xlink:title=" ">
<polygon fill="white" stroke="#666666" points="195.75,-242 59,-242 59,-208.5 195.75,-208.5 195.75,-242"/>
<text text-anchor="start" x="67" y="-228.5" font-family="Helvetica,sans-Serif" font-size="10.00">include/proxsuite/proxqp</text>
<text text-anchor="middle" x="127.38" y="-215.75" font-family="Helvetica,sans-Serif" font-size="10.00">/dense/helpers.hpp</text>
</a>
</g>
</g>
<!-- Node1&#45;&gt;Node2 -->
<g id="edge1_Node000001_Node000002" class="edge">
<title>Node1&#45;&gt;Node2</title>
<g id="a_edge1_Node000001_Node000002"><a xlink:title=" ">
<path fill="none" stroke="#63b8ff" d="M183.4,-342.19C169.53,-334.44 155.85,-324.33 146.38,-311.5 131.23,-291.01 127.78,-260.7 127.2,-242.28"/>
<polygon fill="#63b8ff" stroke="#63b8ff" points="181.51,-345.67 192,-347.19 184.74,-339.46 181.51,-345.67"/>
</a>
</g>
</g>
<!-- Node8 -->
<g id="Node000008" class="node">
<title>Node8</title>
<g id="a_Node000008"><a xlink:href="proxqp_2dense_2model_8hpp.html" target="_top" xlink:title=" ">
<polygon fill="white" stroke="#666666" points="542.75,-311.5 406,-311.5 406,-278 542.75,-278 542.75,-311.5"/>
<text text-anchor="start" x="414" y="-298" font-family="Helvetica,sans-Serif" font-size="10.00">include/proxsuite/proxqp</text>
<text text-anchor="middle" x="474.38" y="-285.25" font-family="Helvetica,sans-Serif" font-size="10.00">/dense/model.hpp</text>
</a>
</g>
</g>
<!-- Node1&#45;&gt;Node8 -->
<g id="edge8_Node000001_Node000008" class="edge">
<title>Node1&#45;&gt;Node8</title>
<g id="a_edge8_Node000001_Node000008"><a xlink:title=" ">
<path fill="none" stroke="#63b8ff" d="M304.48,-344.14C340.2,-333.97 383.64,-321.59 417.66,-311.9"/>
<polygon fill="#63b8ff" stroke="#63b8ff" points="303.8,-340.98 295.14,-347.08 305.72,-347.71 303.8,-340.98"/>
</a>
</g>
</g>
<!-- Node13 -->
<g id="Node000013" class="node">
<title>Node13</title>
<g id="a_Node000013"><a xlink:href="dense_2preconditioner_2ruiz_8hpp.html" target="_top" xlink:title=" ">
<polygon fill="white" stroke="#666666" points="319.25,-311.5 155.5,-311.5 155.5,-278 319.25,-278 319.25,-311.5"/>
<text text-anchor="start" x="163.5" y="-298" font-family="Helvetica,sans-Serif" font-size="10.00">include/proxsuite/proxqp</text>
<text text-anchor="middle" x="237.38" y="-285.25" font-family="Helvetica,sans-Serif" font-size="10.00">/dense/preconditioner/ruiz.hpp</text>
</a>
</g>
</g>
<!-- Node1&#45;&gt;Node13 -->
<g id="edge15_Node000001_Node000013" class="edge">
<title>Node1&#45;&gt;Node13</title>
<g id="a_edge15_Node000001_Node000013"><a xlink:title=" ">
<path fill="none" stroke="#63b8ff" d="M237.38,-336.39C237.38,-328 237.38,-319.01 237.38,-311.63"/>
<polygon fill="#63b8ff" stroke="#63b8ff" points="233.88,-336.25 237.38,-346.25 240.88,-336.25 233.88,-336.25"/>
</a>
</g>
</g>
<!-- Node3 -->
<g id="Node000003" class="node">
<title>Node3</title>
<g id="a_Node000003"><a xlink:href="dense_2solver_8hpp.html" target="_top" xlink:title=" ">
<polygon fill="white" stroke="#666666" points="387.75,-172.5 251,-172.5 251,-139 387.75,-139 387.75,-172.5"/>
<text text-anchor="start" x="259" y="-159" font-family="Helvetica,sans-Serif" font-size="10.00">include/proxsuite/proxqp</text>
<text text-anchor="middle" x="319.38" y="-146.25" font-family="Helvetica,sans-Serif" font-size="10.00">/dense/solver.hpp</text>
</a>
</g>
</g>
<!-- Node2&#45;&gt;Node3 -->
<g id="edge2_Node000002_Node000003" class="edge">
<title>Node2&#45;&gt;Node3</title>
<g id="a_edge2_Node000002_Node000003"><a xlink:title=" ">
<path fill="none" stroke="#63b8ff" d="M183.61,-204.48C212.18,-194.44 246.46,-182.38 273.43,-172.9"/>
<polygon fill="#63b8ff" stroke="#63b8ff" points="182.64,-201.46 174.36,-208.08 184.96,-208.07 182.64,-201.46"/>
</a>
</g>
</g>
<!-- Node4 -->
<g id="Node000004" class="node">
<title>Node4</title>
<g id="a_Node000004"><a xlink:href="proxqp_2dense_2wrapper_8hpp.html" target="_top" xlink:title=" ">
<polygon fill="white" stroke="#666666" points="291.75,-103 155,-103 155,-69.5 291.75,-69.5 291.75,-103"/>
<text text-anchor="start" x="163" y="-89.5" font-family="Helvetica,sans-Serif" font-size="10.00">include/proxsuite/proxqp</text>
<text text-anchor="middle" x="223.38" y="-76.75" font-family="Helvetica,sans-Serif" font-size="10.00">/dense/wrapper.hpp</text>
</a>
</g>
</g>
<!-- Node2&#45;&gt;Node4 -->
<g id="edge7_Node000002_Node000004" class="edge">
<title>Node2&#45;&gt;Node4</title>
<g id="a_edge7_Node000002_Node000004"><a xlink:title=" ">
<path fill="none" stroke="#63b8ff" d="M144.74,-199.47C164.34,-171.49 195.67,-126.79 212.25,-103.13"/>
<polygon fill="#63b8ff" stroke="#63b8ff" points="141.45,-197.07 138.58,-207.27 147.18,-201.09 141.45,-197.07"/>
</a>
</g>
</g>
<!-- Node3&#45;&gt;Node4 -->
<g id="edge3_Node000003_Node000004" class="edge">
<title>Node3&#45;&gt;Node4</title>
<g id="a_edge3_Node000003_Node000004"><a xlink:title=" ">
<path fill="none" stroke="#63b8ff" d="M287.64,-132.44C274.13,-122.94 258.67,-112.06 246.3,-103.37"/>
<polygon fill="#63b8ff" stroke="#63b8ff" points="285.43,-135.86 295.62,-138.75 289.46,-130.14 285.43,-135.86"/>
</a>
</g>
</g>
<!-- Node5 -->
<g id="Node000005" class="node">
<title>Node5</title>
<g id="a_Node000005"><a xlink:href="dense_8hpp.html" target="_top" xlink:title=" ">
<polygon fill="white" stroke="#666666" points="136.75,-33.5 0,-33.5 0,0 136.75,0 136.75,-33.5"/>
<text text-anchor="start" x="8" y="-20" font-family="Helvetica,sans-Serif" font-size="10.00">include/proxsuite/proxqp</text>
<text text-anchor="middle" x="68.38" y="-7.25" font-family="Helvetica,sans-Serif" font-size="10.00">/dense/dense.hpp</text>
</a>
</g>
</g>
<!-- Node4&#45;&gt;Node5 -->
<g id="edge4_Node000004_Node000005" class="edge">
<title>Node4&#45;&gt;Node5</title>
<g id="a_edge4_Node000004_Node000005"><a xlink:title=" ">
<path fill="none" stroke="#63b8ff" d="M176.45,-64.82C153.7,-54.91 126.76,-43.18 105.47,-33.9"/>
<polygon fill="#63b8ff" stroke="#63b8ff" points="174.68,-68.3 185.25,-69.08 177.48,-61.88 174.68,-68.3"/>
</a>
</g>
</g>
<!-- Node6 -->
<g id="Node000006" class="node">
<title>Node6</title>
<g id="a_Node000006"><a xlink:href="qp__solve_8hpp.html" target="_top" xlink:title=" ">
<polygon fill="white" stroke="#666666" points="291.75,-33.5 155,-33.5 155,0 291.75,0 291.75,-33.5"/>
<text text-anchor="start" x="163" y="-20" font-family="Helvetica,sans-Serif" font-size="10.00">include/proxsuite/proxqp</text>
<text text-anchor="middle" x="223.38" y="-7.25" font-family="Helvetica,sans-Serif" font-size="10.00">/parallel/qp_solve.hpp</text>
</a>
</g>
</g>
<!-- Node4&#45;&gt;Node6 -->
<g id="edge5_Node000004_Node000006" class="edge">
<title>Node4&#45;&gt;Node6</title>
<g id="a_edge5_Node000004_Node000006"><a xlink:title=" ">
<path fill="none" stroke="#63b8ff" d="M223.38,-58.39C223.38,-50 223.38,-41.01 223.38,-33.63"/>
<polygon fill="#63b8ff" stroke="#63b8ff" points="219.88,-58.25 223.38,-68.25 226.88,-58.25 219.88,-58.25"/>
</a>
</g>
</g>
<!-- Node7 -->
<g id="Node000007" class="node">
<title>Node7</title>
<g id="a_Node000007"><a xlink:href="serialization_2wrapper_8hpp.html" target="_top" xlink:title=" ">
<polygon fill="white" stroke="#666666" points="472.88,-33.5 309.88,-33.5 309.88,0 472.88,0 472.88,-33.5"/>
<text text-anchor="start" x="317.88" y="-20" font-family="Helvetica,sans-Serif" font-size="10.00">include/proxsuite/serialization</text>
<text text-anchor="middle" x="391.38" y="-7.25" font-family="Helvetica,sans-Serif" font-size="10.00">/wrapper.hpp</text>
</a>
</g>
</g>
<!-- Node4&#45;&gt;Node7 -->
<g id="edge6_Node000004_Node000007" class="edge">
<title>Node4&#45;&gt;Node7</title>
<g id="a_edge6_Node000004_Node000007"><a xlink:title=" ">
<path fill="none" stroke="#63b8ff" d="M273.57,-65.08C298.37,-55.12 327.89,-43.26 351.17,-33.9"/>
<polygon fill="#63b8ff" stroke="#63b8ff" points="272.59,-62.11 264.62,-69.08 275.2,-68.6 272.59,-62.11"/>
</a>
</g>
</g>
<!-- Node9 -->
<g id="Node000009" class="node">
<title>Node9</title>
<g id="a_Node000009"><a xlink:href="linesearch_8hpp.html" target="_top" xlink:title=" ">
<polygon fill="white" stroke="#666666" points="542.75,-242 406,-242 406,-208.5 542.75,-208.5 542.75,-242"/>
<text text-anchor="start" x="414" y="-228.5" font-family="Helvetica,sans-Serif" font-size="10.00">include/proxsuite/proxqp</text>
<text text-anchor="middle" x="474.38" y="-215.75" font-family="Helvetica,sans-Serif" font-size="10.00">/dense/linesearch.hpp</text>
</a>
</g>
</g>
<!-- Node8&#45;&gt;Node9 -->
<g id="edge9_Node000008_Node000009" class="edge">
<title>Node8&#45;&gt;Node9</title>
<g id="a_edge9_Node000008_Node000009"><a xlink:title=" ">
<path fill="none" stroke="#63b8ff" d="M474.38,-266.89C474.38,-258.5 474.38,-249.51 474.38,-242.13"/>
<polygon fill="#63b8ff" stroke="#63b8ff" points="470.88,-266.75 474.38,-276.75 477.88,-266.75 470.88,-266.75"/>
</a>
</g>
</g>
<!-- Node10 -->
<g id="Node000010" class="node">
<title>Node10</title>
<g id="a_Node000010"><a xlink:href="dense_2utils_8hpp.html" target="_top" xlink:title=" ">
<polygon fill="white" stroke="#666666" points="387.75,-242 251,-242 251,-208.5 387.75,-208.5 387.75,-242"/>
<text text-anchor="start" x="259" y="-228.5" font-family="Helvetica,sans-Serif" font-size="10.00">include/proxsuite/proxqp</text>
<text text-anchor="middle" x="319.38" y="-215.75" font-family="Helvetica,sans-Serif" font-size="10.00">/dense/utils.hpp</text>
</a>
</g>
</g>
<!-- Node8&#45;&gt;Node10 -->
<g id="edge11_Node000008_Node000010" class="edge">
<title>Node8&#45;&gt;Node10</title>
<g id="a_edge11_Node000008_Node000010"><a xlink:title=" ">
<path fill="none" stroke="#63b8ff" d="M427.45,-273.32C404.7,-263.41 377.76,-251.68 356.47,-242.4"/>
<polygon fill="#63b8ff" stroke="#63b8ff" points="425.68,-276.8 436.25,-277.58 428.48,-270.38 425.68,-276.8"/>
</a>
</g>
</g>
<!-- Node11 -->
<g id="Node000011" class="node">
<title>Node11</title>
<g id="a_Node000011"><a xlink:href="random__qp__problems_8hpp.html" target="_top" xlink:title=" ">
<polygon fill="white" stroke="#666666" points="730.25,-242 560.5,-242 560.5,-208.5 730.25,-208.5 730.25,-242"/>
<text text-anchor="start" x="568.5" y="-228.5" font-family="Helvetica,sans-Serif" font-size="10.00">include/proxsuite/proxqp</text>
<text text-anchor="middle" x="645.38" y="-215.75" font-family="Helvetica,sans-Serif" font-size="10.00">/utils/random_qp_problems.hpp</text>
</a>
</g>
</g>
<!-- Node8&#45;&gt;Node11 -->
<g id="edge13_Node000008_Node000011" class="edge">
<title>Node8&#45;&gt;Node11</title>
<g id="a_edge13_Node000008_Node000011"><a xlink:title=" ">
<path fill="none" stroke="#63b8ff" d="M525.46,-273.58C550.71,-263.62 580.75,-251.76 604.45,-242.4"/>
<polygon fill="#63b8ff" stroke="#63b8ff" points="524.35,-270.65 516.33,-277.58 526.92,-277.17 524.35,-270.65"/>
</a>
</g>
</g>
<!-- Node12 -->
<g id="Node000012" class="node">
<title>Node12</title>
<g id="a_Node000012"><a xlink:href="serialization_2model_8hpp.html" target="_top" xlink:title=" ">
<polygon fill="white" stroke="#666666" points="910.88,-242 747.88,-242 747.88,-208.5 910.88,-208.5 910.88,-242"/>
<text text-anchor="start" x="755.88" y="-228.5" font-family="Helvetica,sans-Serif" font-size="10.00">include/proxsuite/serialization</text>
<text text-anchor="middle" x="829.38" y="-215.75" font-family="Helvetica,sans-Serif" font-size="10.00">/model.hpp</text>
</a>
</g>
</g>
<!-- Node8&#45;&gt;Node12 -->
<g id="edge14_Node000008_Node000012" class="edge">
<title>Node8&#45;&gt;Node12</title>
<g id="a_edge14_Node000008_Node000012"><a xlink:title=" ">
<path fill="none" stroke="#63b8ff" d="M553.78,-278.65C611.49,-267.68 689.37,-252.87 747.62,-241.79"/>
<polygon fill="#63b8ff" stroke="#63b8ff" points="553.41,-275.35 544.24,-280.66 554.72,-282.23 553.41,-275.35"/>
</a>
</g>
</g>
<!-- Node9&#45;&gt;Node3 -->
<g id="edge10_Node000009_Node000003" class="edge">
<title>Node9&#45;&gt;Node3</title>
<g id="a_edge10_Node000009_Node000003"><a xlink:title=" ">
<path fill="none" stroke="#63b8ff" d="M427.45,-203.82C404.7,-193.91 377.76,-182.18 356.47,-172.9"/>
<polygon fill="#63b8ff" stroke="#63b8ff" points="425.68,-207.3 436.25,-208.08 428.48,-200.88 425.68,-207.3"/>
</a>
</g>
</g>
<!-- Node10&#45;&gt;Node3 -->
<g id="edge12_Node000010_Node000003" class="edge">
<title>Node10&#45;&gt;Node3</title>
<g id="a_edge12_Node000010_Node000003"><a xlink:title=" ">
<path fill="none" stroke="#63b8ff" d="M319.38,-197.39C319.38,-189 319.38,-180.01 319.38,-172.63"/>
<polygon fill="#63b8ff" stroke="#63b8ff" points="315.88,-197.25 319.38,-207.25 322.88,-197.25 315.88,-197.25"/>
</a>
</g>
</g>
<!-- Node13&#45;&gt;Node2 -->
<g id="edge16_Node000013_Node000002" class="edge">
<title>Node13&#45;&gt;Node2</title>
<g id="a_edge16_Node000013_Node000002"><a xlink:title=" ">
<path fill="none" stroke="#63b8ff" d="M202.07,-272.09C186.3,-262.41 168.03,-251.2 153.51,-242.29"/>
<polygon fill="#63b8ff" stroke="#63b8ff" points="199.67,-275.33 210.03,-277.58 203.33,-269.37 199.67,-275.33"/>
</a>
</g>
</g>
<!-- Node13&#45;&gt;Node4 -->
<g id="edge18_Node000013_Node000004" class="edge">
<title>Node13&#45;&gt;Node4</title>
<g id="a_edge18_Node000013_Node000004"><a xlink:title=" ">
<path fill="none" stroke="#63b8ff" d="M235.54,-266.65C232.58,-223.06 226.86,-138.67 224.47,-103.38"/>
<polygon fill="#63b8ff" stroke="#63b8ff" points="232.11,-266.81 236.28,-276.55 239.09,-266.33 232.11,-266.81"/>
</a>
</g>
</g>
<!-- Node13&#45;&gt;Node10 -->
<g id="edge17_Node000013_Node000010" class="edge">
<title>Node13&#45;&gt;Node10</title>
<g id="a_edge17_Node000013_Node000010"><a xlink:title=" ">
<path fill="none" stroke="#63b8ff" d="M265.15,-270.89C276.53,-261.52 289.43,-250.9 299.8,-242.37"/>
<polygon fill="#63b8ff" stroke="#63b8ff" points="263.3,-268.7 257.81,-277.75 267.75,-274.1 263.3,-268.7"/>
</a>
</g>
</g>
</g>
</svg>
