<?xml version="1.0" encoding="UTF-8" standalone="no"?>
<!DOCTYPE svg PUBLIC "-//W3C//DTD SVG 1.1//EN"
 "http://www.w3.org/Graphics/SVG/1.1/DTD/svg11.dtd">
<!-- Generated by graphviz version 8.0.4 (20230426.1303)
 -->
<!-- Title: include/proxsuite/proxqp/results.hpp Pages: 1 -->
<svg width="971pt" height="459pt"
 viewBox="0.00 0.00 970.88 458.50" xmlns="http://www.w3.org/2000/svg" xmlns:xlink="http://www.w3.org/1999/xlink">
<g id="graph0" class="graph" transform="scale(1 1) rotate(0) translate(4 454.5)">
<title>include/proxsuite/proxqp/results.hpp</title>
<!-- Node1 -->
<g id="node1" class="node">
<title>Node1</title>
<g id="a_node1"><a xlink:title=" ">
<polygon fill="#999999" stroke="#666666" points="609.75,-450.5 473,-450.5 473,-417 609.75,-417 609.75,-450.5"/>
<text text-anchor="start" x="481" y="-437" font-family="Helvetica,sans-Serif" font-size="10.00">include/proxsuite/proxqp</text>
<text text-anchor="middle" x="541.38" y="-424.25" font-family="Helvetica,sans-Serif" font-size="10.00">/results.hpp</text>
</a>
</g>
</g>
<!-- Node2 -->
<g id="node2" class="node">
<title>Node2</title>
<g id="a_node2"><a xlink:href="dense_2helpers_8hpp.html" target="_top" xlink:title=" ">
<polygon fill="white" stroke="#666666" points="136.75,-381 0,-381 0,-347.5 136.75,-347.5 136.75,-381"/>
<text text-anchor="start" x="8" y="-367.5" font-family="Helvetica,sans-Serif" font-size="10.00">include/proxsuite/proxqp</text>
<text text-anchor="middle" x="68.38" y="-354.75" font-family="Helvetica,sans-Serif" font-size="10.00">/dense/helpers.hpp</text>
</a>
</g>
</g>
<!-- Node1&#45;&gt;Node2 -->
<g id="edge1" class="edge">
<title>Node1&#45;&gt;Node2</title>
<path fill="none" stroke="#63b8ff" d="M462.18,-424C382.26,-414.79 255.42,-399.13 146.38,-381 143.38,-380.5 140.32,-379.97 137.23,-379.42"/>
<polygon fill="#63b8ff" stroke="#63b8ff" points="461.32,-427.54 471.66,-425.2 462.12,-420.59 461.32,-427.54"/>
</g>
<!-- Node7 -->
<g id="node7" class="node">
<title>Node7</title>
<g id="a_node7"><a xlink:href="linesearch_8hpp.html" target="_top" xlink:title=" ">
<polygon fill="white" stroke="#666666" points="446.75,-381 310,-381 310,-347.5 446.75,-347.5 446.75,-381"/>
<text text-anchor="start" x="318" y="-367.5" font-family="Helvetica,sans-Serif" font-size="10.00">include/proxsuite/proxqp</text>
<text text-anchor="middle" x="378.38" y="-354.75" font-family="Helvetica,sans-Serif" font-size="10.00">/dense/linesearch.hpp</text>
</a>
</g>
</g>
<!-- Node1&#45;&gt;Node7 -->
<g id="edge7" class="edge">
<title>Node1&#45;&gt;Node7</title>
<path fill="none" stroke="#63b8ff" d="M492.35,-412.45C468.36,-402.51 439.87,-390.72 417.38,-381.4"/>
<polygon fill="#63b8ff" stroke="#63b8ff" points="490.75,-415.99 501.33,-416.58 493.43,-409.52 490.75,-415.99"/>
</g>
<!-- Node8 -->
<g id="node8" class="node">
<title>Node8</title>
<g id="a_node8"><a xlink:href="dense_2utils_8hpp.html" target="_top" xlink:title=" ">
<polygon fill="white" stroke="#666666" points="291.75,-381 155,-381 155,-347.5 291.75,-347.5 291.75,-381"/>
<text text-anchor="start" x="163" y="-367.5" font-family="Helvetica,sans-Serif" font-size="10.00">include/proxsuite/proxqp</text>
<text text-anchor="middle" x="223.38" y="-354.75" font-family="Helvetica,sans-Serif" font-size="10.00">/dense/utils.hpp</text>
</a>
</g>
</g>
<!-- Node1&#45;&gt;Node8 -->
<g id="edge9" class="edge">
<title>Node1&#45;&gt;Node8</title>
<path fill="none" stroke="#63b8ff" d="M462.2,-415.94C409.93,-404.85 342.14,-390.46 292.14,-379.85"/>
<polygon fill="#63b8ff" stroke="#63b8ff" points="461.26,-419.53 471.77,-418.19 462.71,-412.69 461.26,-419.53"/>
</g>
<!-- Node9 -->
<g id="node9" class="node">
<title>Node9</title>
<g id="a_node9"><a xlink:href="sparse_2solver_8hpp.html" target="_top" xlink:title=" ">
<polygon fill="white" stroke="#666666" points="695.75,-172.5 559,-172.5 559,-139 695.75,-139 695.75,-172.5"/>
<text text-anchor="start" x="567" y="-159" font-family="Helvetica,sans-Serif" font-size="10.00">include/proxsuite/proxqp</text>
<text text-anchor="middle" x="627.38" y="-146.25" font-family="Helvetica,sans-Serif" font-size="10.00">/sparse/solver.hpp</text>
</a>
</g>
</g>
<!-- Node1&#45;&gt;Node9 -->
<g id="edge11" class="edge">
<title>Node1&#45;&gt;Node9</title>
<path fill="none" stroke="#63b8ff" d="M620.89,-423.48C673.59,-415.5 735.96,-401.93 752.38,-381 780.85,-344.7 800.1,-312.39 722.38,-208.5 710.45,-192.56 692.11,-180.95 674.72,-172.81"/>
<polygon fill="#63b8ff" stroke="#63b8ff" points="620.54,-420.14 611.15,-425.04 621.55,-427.06 620.54,-420.14"/>
</g>
<!-- Node10 -->
<g id="node10" class="node">
<title>Node10</title>
<g id="a_node10"><a xlink:href="proxqp_2sparse_2wrapper_8hpp.html" target="_top" xlink:title=" ">
<polygon fill="white" stroke="#666666" points="609.75,-103 473,-103 473,-69.5 609.75,-69.5 609.75,-103"/>
<text text-anchor="start" x="481" y="-89.5" font-family="Helvetica,sans-Serif" font-size="10.00">include/proxsuite/proxqp</text>
<text text-anchor="middle" x="541.38" y="-76.75" font-family="Helvetica,sans-Serif" font-size="10.00">/sparse/wrapper.hpp</text>
</a>
</g>
</g>
<!-- Node1&#45;&gt;Node10 -->
<g id="edge24" class="edge">
<title>Node1&#45;&gt;Node10</title>
<path fill="none" stroke="#63b8ff" d="M519.98,-408.43C501.17,-385.32 475.18,-348.66 464.38,-311.5 441.39,-232.45 501.32,-140.04 528.63,-103.4"/>
<polygon fill="#63b8ff" stroke="#63b8ff" points="517.69,-410.16 526.79,-415.6 523.07,-405.68 517.69,-410.16"/>
</g>
<!-- Node12 -->
<g id="node12" class="node">
<title>Node12</title>
<g id="a_node12"><a xlink:href="sparse_2utils_8hpp.html" target="_top" xlink:title=" ">
<polygon fill="white" stroke="#666666" points="609.75,-311.5 473,-311.5 473,-278 609.75,-278 609.75,-311.5"/>
<text text-anchor="start" x="481" y="-298" font-family="Helvetica,sans-Serif" font-size="10.00">include/proxsuite/proxqp</text>
<text text-anchor="middle" x="541.38" y="-285.25" font-family="Helvetica,sans-Serif" font-size="10.00">/sparse/utils.hpp</text>
</a>
</g>
</g>
<!-- Node1&#45;&gt;Node12 -->
<g id="edge14" class="edge">
<title>Node1&#45;&gt;Node12</title>
<path fill="none" stroke="#63b8ff" d="M541.38,-406.12C541.38,-378.06 541.38,-334.77 541.38,-311.63"/>
<polygon fill="#63b8ff" stroke="#63b8ff" points="537.88,-405.77 541.38,-415.77 544.88,-405.77 537.88,-405.77"/>
</g>
<!-- Node13 -->
<g id="node13" class="node">
<title>Node13</title>
<g id="a_node13"><a xlink:href="sparse_2workspace_8hpp.html" target="_top" xlink:title=" ">
<polygon fill="white" stroke="#666666" points="695.75,-242 559,-242 559,-208.5 695.75,-208.5 695.75,-242"/>
<text text-anchor="start" x="567" y="-228.5" font-family="Helvetica,sans-Serif" font-size="10.00">include/proxsuite/proxqp</text>
<text text-anchor="middle" x="627.38" y="-215.75" font-family="Helvetica,sans-Serif" font-size="10.00">/sparse/workspace.hpp</text>
</a>
</g>
</g>
<!-- Node1&#45;&gt;Node13 -->
<g id="edge23" class="edge">
<title>Node1&#45;&gt;Node13</title>
<path fill="none" stroke="#63b8ff" d="M557.97,-407.98C579.5,-375.63 614.75,-321.89 618.38,-311.5 626.41,-288.45 627.84,-259.95 627.84,-242.44"/>
<polygon fill="#63b8ff" stroke="#63b8ff" points="554.67,-405.61 552.04,-415.87 560.5,-409.49 554.67,-405.61"/>
</g>
<!-- Node14 -->
<g id="node14" class="node">
<title>Node14</title>
<g id="a_node14"><a xlink:href="sparse_2views_8hpp.html" target="_top" xlink:title=" ">
<polygon fill="white" stroke="#666666" points="743.75,-381 607,-381 607,-347.5 743.75,-347.5 743.75,-381"/>
<text text-anchor="start" x="615" y="-367.5" font-family="Helvetica,sans-Serif" font-size="10.00">include/proxsuite/proxqp</text>
<text text-anchor="middle" x="675.38" y="-354.75" font-family="Helvetica,sans-Serif" font-size="10.00">/sparse/views.hpp</text>
</a>
</g>
</g>
<!-- Node1&#45;&gt;Node14 -->
<g id="edge19" class="edge">
<title>Node1&#45;&gt;Node14</title>
<path fill="none" stroke="#63b8ff" d="M583.04,-411.76C602.55,-401.93 625.44,-390.41 643.54,-381.29"/>
<polygon fill="#63b8ff" stroke="#63b8ff" points="581.83,-408.96 574.47,-416.58 584.98,-415.21 581.83,-408.96"/>
</g>
<!-- Node15 -->
<g id="node15" class="node">
<title>Node15</title>
<g id="a_node15"><a xlink:href="serialization_2results_8hpp.html" target="_top" xlink:title=" ">
<polygon fill="white" stroke="#666666" points="962.88,-381 799.88,-381 799.88,-347.5 962.88,-347.5 962.88,-381"/>
<text text-anchor="start" x="807.88" y="-367.5" font-family="Helvetica,sans-Serif" font-size="10.00">include/proxsuite/serialization</text>
<text text-anchor="middle" x="881.38" y="-354.75" font-family="Helvetica,sans-Serif" font-size="10.00">/results.hpp</text>
</a>
</g>
</g>
<!-- Node1&#45;&gt;Node15 -->
<g id="edge25" class="edge">
<title>Node1&#45;&gt;Node15</title>
<path fill="none" stroke="#63b8ff" d="M620.71,-417C674.53,-406.31 745.5,-392.22 799.8,-381.45"/>
<polygon fill="#63b8ff" stroke="#63b8ff" points="620.31,-413.71 611.18,-419.09 621.67,-420.58 620.31,-413.71"/>
</g>
<!-- Node3 -->
<g id="node3" class="node">
<title>Node3</title>
<g id="a_node3"><a xlink:href="dense_2solver_8hpp.html" target="_top" xlink:title=" ">
<polygon fill="white" stroke="#666666" points="263.75,-311.5 127,-311.5 127,-278 263.75,-278 263.75,-311.5"/>
<text text-anchor="start" x="135" y="-298" font-family="Helvetica,sans-Serif" font-size="10.00">include/proxsuite/proxqp</text>
<text text-anchor="middle" x="195.38" y="-285.25" font-family="Helvetica,sans-Serif" font-size="10.00">/dense/solver.hpp</text>
</a>
</g>
</g>
<!-- Node2&#45;&gt;Node3 -->
<g id="edge2" class="edge">
<title>Node2&#45;&gt;Node3</title>
<path fill="none" stroke="#63b8ff" d="M108.37,-341.99C126.75,-332.22 148.2,-320.82 165.2,-311.79"/>
<polygon fill="#63b8ff" stroke="#63b8ff" points="106.98,-339.3 99.79,-347.08 110.27,-345.48 106.98,-339.3"/>
</g>
<!-- Node4 -->
<g id="node4" class="node">
<title>Node4</title>
<g id="a_node4"><a xlink:href="proxqp_2dense_2wrapper_8hpp.html" target="_top" xlink:title=" ">
<polygon fill="white" stroke="#666666" points="208.75,-242 72,-242 72,-208.5 208.75,-208.5 208.75,-242"/>
<text text-anchor="start" x="80" y="-228.5" font-family="Helvetica,sans-Serif" font-size="10.00">include/proxsuite/proxqp</text>
<text text-anchor="middle" x="140.38" y="-215.75" font-family="Helvetica,sans-Serif" font-size="10.00">/dense/wrapper.hpp</text>
</a>
</g>
</g>
<!-- Node2&#45;&gt;Node4 -->
<g id="edge6" class="edge">
<title>Node2&#45;&gt;Node4</title>
<path fill="none" stroke="#63b8ff" d="M81.78,-337.74C96.51,-309.72 119.7,-265.58 132.03,-242.13"/>
<polygon fill="#63b8ff" stroke="#63b8ff" points="78.33,-335.79 76.78,-346.27 84.53,-339.04 78.33,-335.79"/>
</g>
<!-- Node3&#45;&gt;Node4 -->
<g id="edge3" class="edge">
<title>Node3&#45;&gt;Node4</title>
<path fill="none" stroke="#63b8ff" d="M175.57,-269.44C168.16,-260.35 159.94,-250.27 153.32,-242.13"/>
<polygon fill="#63b8ff" stroke="#63b8ff" points="173.31,-271.21 182.34,-276.75 178.74,-266.79 173.31,-271.21"/>
</g>
<!-- Node5 -->
<g id="node5" class="node">
<title>Node5</title>
<g id="a_node5"><a xlink:href="dense_8hpp.html" target="_top" xlink:title=" ">
<polygon fill="white" stroke="#666666" points="194.75,-172.5 58,-172.5 58,-139 194.75,-139 194.75,-172.5"/>
<text text-anchor="start" x="66" y="-159" font-family="Helvetica,sans-Serif" font-size="10.00">include/proxsuite/proxqp</text>
<text text-anchor="middle" x="126.38" y="-146.25" font-family="Helvetica,sans-Serif" font-size="10.00">/dense/dense.hpp</text>
</a>
</g>
</g>
<!-- Node4&#45;&gt;Node5 -->
<g id="edge4" class="edge">
<title>Node4&#45;&gt;Node5</title>
<path fill="none" stroke="#63b8ff" d="M134.86,-197.67C133.11,-189.2 131.22,-180.1 129.67,-172.63"/>
<polygon fill="#63b8ff" stroke="#63b8ff" points="131.6,-198.17 137.06,-207.25 138.45,-196.75 131.6,-198.17"/>
</g>
<!-- Node6 -->
<g id="node6" class="node">
<title>Node6</title>
<g id="a_node6"><a xlink:href="serialization_2wrapper_8hpp.html" target="_top" xlink:title=" ">
<polygon fill="white" stroke="#666666" points="375.88,-172.5 212.88,-172.5 212.88,-139 375.88,-139 375.88,-172.5"/>
<text text-anchor="start" x="220.88" y="-159" font-family="Helvetica,sans-Serif" font-size="10.00">include/proxsuite/serialization</text>
<text text-anchor="middle" x="294.38" y="-146.25" font-family="Helvetica,sans-Serif" font-size="10.00">/wrapper.hpp</text>
</a>
</g>
</g>
<!-- Node4&#45;&gt;Node6 -->
<g id="edge5" class="edge">
<title>Node4&#45;&gt;Node6</title>
<path fill="none" stroke="#63b8ff" d="M187.3,-203.68C209.84,-193.8 236.46,-182.13 257.52,-172.9"/>
<polygon fill="#63b8ff" stroke="#63b8ff" points="186.02,-200.86 178.26,-208.08 188.83,-207.27 186.02,-200.86"/>
</g>
<!-- Node7&#45;&gt;Node3 -->
<g id="edge8" class="edge">
<title>Node7&#45;&gt;Node3</title>
<path fill="none" stroke="#63b8ff" d="M324.42,-343.35C297.26,-333.33 264.76,-321.34 239.17,-311.9"/>
<polygon fill="#63b8ff" stroke="#63b8ff" points="322.95,-346.91 333.54,-347.08 325.37,-340.34 322.95,-346.91"/>
</g>
<!-- Node8&#45;&gt;Node3 -->
<g id="edge10" class="edge">
<title>Node8&#45;&gt;Node3</title>
<path fill="none" stroke="#63b8ff" d="M212.59,-337.24C209.01,-328.61 205.13,-319.26 201.96,-311.63"/>
<polygon fill="#63b8ff" stroke="#63b8ff" points="209.67,-338.36 216.74,-346.25 216.14,-335.68 209.67,-338.36"/>
</g>
<!-- Node9&#45;&gt;Node10 -->
<g id="edge12" class="edge">
<title>Node9&#45;&gt;Node10</title>
<path fill="none" stroke="#63b8ff" d="M598.6,-132.16C586.58,-122.73 572.88,-111.98 561.91,-103.37"/>
<polygon fill="#63b8ff" stroke="#63b8ff" points="595.97,-135.33 605.99,-138.75 600.29,-129.83 595.97,-135.33"/>
</g>
<!-- Node11 -->
<g id="node11" class="node">
<title>Node11</title>
<g id="a_node11"><a xlink:href="sparse_8hpp.html" target="_top" xlink:title=" ">
<polygon fill="white" stroke="#666666" points="609.75,-33.5 473,-33.5 473,0 609.75,0 609.75,-33.5"/>
<text text-anchor="start" x="481" y="-20" font-family="Helvetica,sans-Serif" font-size="10.00">include/proxsuite/proxqp</text>
<text text-anchor="middle" x="541.38" y="-7.25" font-family="Helvetica,sans-Serif" font-size="10.00">/sparse/sparse.hpp</text>
</a>
</g>
</g>
<!-- Node10&#45;&gt;Node11 -->
<g id="edge13" class="edge">
<title>Node10&#45;&gt;Node11</title>
<path fill="none" stroke="#63b8ff" d="M541.38,-58.39C541.38,-50 541.38,-41.01 541.38,-33.63"/>
<polygon fill="#63b8ff" stroke="#63b8ff" points="537.88,-58.25 541.38,-68.25 544.88,-58.25 537.88,-58.25"/>
</g>
<!-- Node12&#45;&gt;Node9 -->
<g id="edge15" class="edge">
<title>Node12&#45;&gt;Node9</title>
<path fill="none" stroke="#63b8ff" d="M538.58,-266.93C538.02,-249.15 539.86,-225.96 550.38,-208.5 559.68,-193.05 575.58,-181.21 590.53,-172.78"/>
<polygon fill="#63b8ff" stroke="#63b8ff" points="535.14,-266.95 539.23,-276.72 542.12,-266.53 535.14,-266.95"/>
</g>
<!-- Node12&#45;&gt;Node13 -->
<g id="edge16" class="edge">
<title>Node12&#45;&gt;Node13</title>
<path fill="none" stroke="#63b8ff" d="M564.07,-270.89C575.44,-261.52 589.16,-250.9 600.99,-242.37"/>
<polygon fill="#63b8ff" stroke="#63b8ff" points="562.31,-268.64 556.92,-277.75 566.82,-273.99 562.31,-268.64"/>
</g>
<!-- Node13&#45;&gt;Node9 -->
<g id="edge17" class="edge">
<title>Node13&#45;&gt;Node9</title>
<path fill="none" stroke="#63b8ff" d="M627.38,-197.39C627.38,-189 627.38,-180.01 627.38,-172.63"/>
<polygon fill="#63b8ff" stroke="#63b8ff" points="623.88,-197.25 627.38,-207.25 630.88,-197.25 623.88,-197.25"/>
</g>
<!-- Node13&#45;&gt;Node12 -->
<g id="edge18" class="edge">
<title>Node13&#45;&gt;Node12</title>
<path fill="none" stroke="#63b8ff" d="M604.52,-249.24C593.13,-258.62 579.4,-269.24 567.6,-277.75"/>
<polygon fill="#63b8ff" stroke="#63b8ff" points="606.29,-251.48 611.7,-242.37 601.79,-246.12 606.29,-251.48"/>
</g>
<!-- Node14&#45;&gt;Node9 -->
<g id="edge20" class="edge">
<title>Node14&#45;&gt;Node9</title>
<path fill="none" stroke="#63b8ff" d="M689.74,-337.8C705.71,-305.81 726.53,-250.08 704.38,-208.5 696.04,-192.86 680.66,-181.11 665.81,-172.79"/>
<polygon fill="#63b8ff" stroke="#63b8ff" points="686.3,-335.81 684.78,-346.3 692.51,-339.05 686.3,-335.81"/>
</g>
<!-- Node14&#45;&gt;Node12 -->
<g id="edge21" class="edge">
<title>Node14&#45;&gt;Node12</title>
<path fill="none" stroke="#63b8ff" d="M633.71,-342.26C614.2,-332.43 591.31,-320.91 573.21,-311.79"/>
<polygon fill="#63b8ff" stroke="#63b8ff" points="631.77,-345.71 642.28,-347.08 634.92,-339.46 631.77,-345.71"/>
</g>
<!-- Node14&#45;&gt;Node13 -->
<g id="edge22" class="edge">
<title>Node14&#45;&gt;Node13</title>
<path fill="none" stroke="#63b8ff" d="M669.14,-336.99C664.81,-319.95 658.55,-297.4 651.38,-278 646.84,-265.74 640.6,-252.36 635.62,-242.28"/>
<polygon fill="#63b8ff" stroke="#63b8ff" points="665.89,-337.43 671.69,-346.3 672.69,-335.75 665.89,-337.43"/>
</g>
</g>
</svg>
