<?xml version="1.0" encoding="UTF-8" standalone="no"?>
<!DOCTYPE svg PUBLIC "-//W3C//DTD SVG 1.1//EN"
 "http://www.w3.org/Graphics/SVG/1.1/DTD/svg11.dtd">
<!-- Generated by graphviz version 12.2.1 (20250203.1708)
 -->
<!-- Title: include/proxsuite/proxqp/dense/fwd.hpp Pages: 1 -->
<svg width="1028pt" height="528pt"
 viewBox="0.00 0.00 1027.55 528.00" xmlns="http://www.w3.org/2000/svg" xmlns:xlink="http://www.w3.org/1999/xlink">
<g id="graph0" class="graph" transform="scale(1 1) rotate(0) translate(4 524)">
<title>include/proxsuite/proxqp/dense/fwd.hpp</title>
<!-- Node1 -->
<g id="Node000001" class="node">
<title>Node1</title>
<g id="a_Node000001"><a xlink:title=" ">
<polygon fill="#999999" stroke="#666666" points="656.25,-520 519.5,-520 519.5,-486.5 656.25,-486.5 656.25,-520"/>
<text text-anchor="start" x="527.5" y="-506.5" font-family="Helvetica,sans-Serif" font-size="10.00">include/proxsuite/proxqp</text>
<text text-anchor="middle" x="587.88" y="-493.75" font-family="Helvetica,sans-Serif" font-size="10.00">/dense/fwd.hpp</text>
</a>
</g>
</g>
<!-- Node2 -->
<g id="Node000002" class="node">
<title>Node2</title>
<g id="a_Node000002"><a xlink:href="backward__data_8hpp.html" target="_top" xlink:title=" ">
<polygon fill="white" stroke="#666666" points="611.12,-450.5 464.62,-450.5 464.62,-417 611.12,-417 611.12,-450.5"/>
<text text-anchor="start" x="472.62" y="-437" font-family="Helvetica,sans-Serif" font-size="10.00">include/proxsuite/proxqp</text>
<text text-anchor="middle" x="537.88" y="-424.25" font-family="Helvetica,sans-Serif" font-size="10.00">/dense/backward_data.hpp</text>
</a>
</g>
</g>
<!-- Node1&#45;&gt;Node2 -->
<g id="edge1_Node000001_Node000002" class="edge">
<title>Node1&#45;&gt;Node2</title>
<g id="a_edge1_Node000001_Node000002"><a xlink:title=" ">
<path fill="none" stroke="#63b8ff" d="M569.24,-477.09C562.67,-468.23 555.48,-458.52 549.64,-450.63"/>
<polygon fill="#63b8ff" stroke="#63b8ff" points="566.36,-479.08 575.12,-485.04 571.98,-474.92 566.36,-479.08"/>
</a>
</g>
</g>
<!-- Node3 -->
<g id="Node000003" class="node">
<title>Node3</title>
<g id="a_Node000003"><a xlink:href="proxqp_2dense_2model_8hpp.html" target="_top" xlink:title=" ">
<polygon fill="white" stroke="#666666" points="505.25,-381 368.5,-381 368.5,-347.5 505.25,-347.5 505.25,-381"/>
<text text-anchor="start" x="376.5" y="-367.5" font-family="Helvetica,sans-Serif" font-size="10.00">include/proxsuite/proxqp</text>
<text text-anchor="middle" x="436.88" y="-354.75" font-family="Helvetica,sans-Serif" font-size="10.00">/dense/model.hpp</text>
</a>
</g>
</g>
<!-- Node1&#45;&gt;Node3 -->
<g id="edge17_Node000001_Node000003" class="edge">
<title>Node1&#45;&gt;Node3</title>
<g id="a_edge17_Node000001_Node000003"><a xlink:title=" ">
<path fill="none" stroke="#63b8ff" d="M508.51,-485.26C488.89,-477.59 469.58,-466.51 455.88,-450.5 439.21,-431.04 436.26,-400.12 436.19,-381.35"/>
<polygon fill="#63b8ff" stroke="#63b8ff" points="507.07,-488.47 517.66,-488.56 509.44,-481.88 507.07,-488.47"/>
</a>
</g>
</g>
<!-- Node14 -->
<g id="Node000014" class="node">
<title>Node14</title>
<g id="a_Node000014"><a xlink:href="dense_2helpers_8hpp.html" target="_top" xlink:title=" ">
<polygon fill="white" stroke="#666666" points="815.25,-311.5 678.5,-311.5 678.5,-278 815.25,-278 815.25,-311.5"/>
<text text-anchor="start" x="686.5" y="-298" font-family="Helvetica,sans-Serif" font-size="10.00">include/proxsuite/proxqp</text>
<text text-anchor="middle" x="746.88" y="-285.25" font-family="Helvetica,sans-Serif" font-size="10.00">/dense/helpers.hpp</text>
</a>
</g>
</g>
<!-- Node1&#45;&gt;Node14 -->
<g id="edge14_Node000001_Node000014" class="edge">
<title>Node1&#45;&gt;Node14</title>
<g id="a_edge14_Node000001_Node000014"><a xlink:title=" ">
<path fill="none" stroke="#63b8ff" d="M604.9,-476.99C610.07,-468.74 615.53,-459.41 619.88,-450.5 641.26,-406.64 626.49,-384.86 657.88,-347.5 670.75,-332.17 689.4,-320.35 706.3,-311.9"/>
<polygon fill="#63b8ff" stroke="#63b8ff" points="602.12,-474.84 599.64,-485.14 608.01,-478.63 602.12,-474.84"/>
</a>
</g>
</g>
<!-- Node15 -->
<g id="Node000015" class="node">
<title>Node15</title>
<g id="a_Node000015"><a xlink:href="proxqp_2dense_2preconditioner_2ruiz_8hpp.html" target="_top" xlink:title=" ">
<polygon fill="white" stroke="#666666" points="830.75,-381 667,-381 667,-347.5 830.75,-347.5 830.75,-381"/>
<text text-anchor="start" x="675" y="-367.5" font-family="Helvetica,sans-Serif" font-size="10.00">include/proxsuite/proxqp</text>
<text text-anchor="middle" x="748.88" y="-354.75" font-family="Helvetica,sans-Serif" font-size="10.00">/dense/preconditioner/ruiz.hpp</text>
</a>
</g>
</g>
<!-- Node1&#45;&gt;Node15 -->
<g id="edge18_Node000001_Node000015" class="edge">
<title>Node1&#45;&gt;Node15</title>
<g id="a_edge18_Node000001_Node000015"><a xlink:title=" ">
<path fill="none" stroke="#63b8ff" d="M617.55,-479.17C628.73,-470.33 641.49,-460.07 652.88,-450.5 680.85,-426.97 712.38,-398.6 731.43,-381.25"/>
<polygon fill="#63b8ff" stroke="#63b8ff" points="615.48,-476.34 609.79,-485.28 619.81,-481.85 615.48,-476.34"/>
</a>
</g>
</g>
<!-- Node2&#45;&gt;Node3 -->
<g id="edge2_Node000002_Node000003" class="edge">
<title>Node2&#45;&gt;Node3</title>
<g id="a_edge2_Node000002_Node000003"><a xlink:title=" ">
<path fill="none" stroke="#63b8ff" d="M504.24,-410.27C490.04,-400.78 473.83,-389.95 460.87,-381.29"/>
<polygon fill="#63b8ff" stroke="#63b8ff" points="502.17,-413.09 512.42,-415.74 506.06,-407.27 502.17,-413.09"/>
</a>
</g>
</g>
<!-- Node4 -->
<g id="Node000004" class="node">
<title>Node4</title>
<g id="a_Node000004"><a xlink:href="linesearch_8hpp.html" target="_top" xlink:title=" ">
<polygon fill="white" stroke="#666666" points="505.25,-311.5 368.5,-311.5 368.5,-278 505.25,-278 505.25,-311.5"/>
<text text-anchor="start" x="376.5" y="-298" font-family="Helvetica,sans-Serif" font-size="10.00">include/proxsuite/proxqp</text>
<text text-anchor="middle" x="436.88" y="-285.25" font-family="Helvetica,sans-Serif" font-size="10.00">/dense/linesearch.hpp</text>
</a>
</g>
</g>
<!-- Node3&#45;&gt;Node4 -->
<g id="edge3_Node000003_Node000004" class="edge">
<title>Node3&#45;&gt;Node4</title>
<g id="a_edge3_Node000003_Node000004"><a xlink:title=" ">
<path fill="none" stroke="#63b8ff" d="M436.88,-335.81C436.88,-327.59 436.88,-318.84 436.88,-311.63"/>
<polygon fill="#63b8ff" stroke="#63b8ff" points="433.38,-335.74 436.88,-345.74 440.38,-335.74 433.38,-335.74"/>
</a>
</g>
</g>
<!-- Node11 -->
<g id="Node000011" class="node">
<title>Node11</title>
<g id="a_Node000011"><a xlink:href="dense_2utils_8hpp.html" target="_top" xlink:title=" ">
<polygon fill="white" stroke="#666666" points="660.25,-311.5 523.5,-311.5 523.5,-278 660.25,-278 660.25,-311.5"/>
<text text-anchor="start" x="531.5" y="-298" font-family="Helvetica,sans-Serif" font-size="10.00">include/proxsuite/proxqp</text>
<text text-anchor="middle" x="591.88" y="-285.25" font-family="Helvetica,sans-Serif" font-size="10.00">/dense/utils.hpp</text>
</a>
</g>
</g>
<!-- Node3&#45;&gt;Node11 -->
<g id="edge10_Node000003_Node000011" class="edge">
<title>Node3&#45;&gt;Node11</title>
<g id="a_edge10_Node000003_Node000011"><a xlink:title=" ">
<path fill="none" stroke="#63b8ff" d="M484.41,-342.55C507.03,-332.7 533.68,-321.09 554.78,-311.9"/>
<polygon fill="#63b8ff" stroke="#63b8ff" points="483.16,-339.28 475.39,-346.48 485.95,-345.69 483.16,-339.28"/>
</a>
</g>
</g>
<!-- Node12 -->
<g id="Node000012" class="node">
<title>Node12</title>
<g id="a_Node000012"><a xlink:href="random__qp__problems_8hpp.html" target="_top" xlink:title=" ">
<polygon fill="white" stroke="#666666" points="169.75,-311.5 0,-311.5 0,-278 169.75,-278 169.75,-311.5"/>
<text text-anchor="start" x="8" y="-298" font-family="Helvetica,sans-Serif" font-size="10.00">include/proxsuite/proxqp</text>
<text text-anchor="middle" x="84.88" y="-285.25" font-family="Helvetica,sans-Serif" font-size="10.00">/utils/random_qp_problems.hpp</text>
</a>
</g>
</g>
<!-- Node3&#45;&gt;Node12 -->
<g id="edge12_Node000003_Node000012" class="edge">
<title>Node3&#45;&gt;Node12</title>
<g id="a_edge12_Node000003_Node000012"><a xlink:title=" ">
<path fill="none" stroke="#63b8ff" d="M356.89,-347.91C301,-337.19 226.48,-322.9 169.57,-311.99"/>
<polygon fill="#63b8ff" stroke="#63b8ff" points="356.2,-351.34 366.68,-349.79 357.52,-344.47 356.2,-351.34"/>
</a>
</g>
</g>
<!-- Node13 -->
<g id="Node000013" class="node">
<title>Node13</title>
<g id="a_Node000013"><a xlink:href="serialization_2model_8hpp.html" target="_top" xlink:title=" ">
<polygon fill="white" stroke="#666666" points="350.38,-311.5 187.38,-311.5 187.38,-278 350.38,-278 350.38,-311.5"/>
<text text-anchor="start" x="195.38" y="-298" font-family="Helvetica,sans-Serif" font-size="10.00">include/proxsuite/serialization</text>
<text text-anchor="middle" x="268.88" y="-285.25" font-family="Helvetica,sans-Serif" font-size="10.00">/model.hpp</text>
</a>
</g>
</g>
<!-- Node3&#45;&gt;Node13 -->
<g id="edge13_Node000003_Node000013" class="edge">
<title>Node3&#45;&gt;Node13</title>
<g id="a_edge13_Node000003_Node000013"><a xlink:title=" ">
<path fill="none" stroke="#63b8ff" d="M386.02,-342.82C361.36,-332.91 332.16,-321.18 309.08,-311.9"/>
<polygon fill="#63b8ff" stroke="#63b8ff" points="384.65,-346.04 395.23,-346.52 387.26,-339.54 384.65,-346.04"/>
</a>
</g>
</g>
<!-- Node5 -->
<g id="Node000005" class="node">
<title>Node5</title>
<g id="a_Node000005"><a xlink:href="dense_2solver_8hpp.html" target="_top" xlink:title=" ">
<polygon fill="white" stroke="#666666" points="690.25,-242 553.5,-242 553.5,-208.5 690.25,-208.5 690.25,-242"/>
<text text-anchor="start" x="561.5" y="-228.5" font-family="Helvetica,sans-Serif" font-size="10.00">include/proxsuite/proxqp</text>
<text text-anchor="middle" x="621.88" y="-215.75" font-family="Helvetica,sans-Serif" font-size="10.00">/dense/solver.hpp</text>
</a>
</g>
</g>
<!-- Node4&#45;&gt;Node5 -->
<g id="edge4_Node000004_Node000005" class="edge">
<title>Node4&#45;&gt;Node5</title>
<g id="a_edge4_Node000004_Node000005"><a xlink:title=" ">
<path fill="none" stroke="#63b8ff" d="M491.78,-273.72C519.17,-263.72 551.85,-251.8 577.6,-242.4"/>
<polygon fill="#63b8ff" stroke="#63b8ff" points="490.8,-270.35 482.61,-277.06 493.2,-276.92 490.8,-270.35"/>
</a>
</g>
</g>
<!-- Node6 -->
<g id="Node000006" class="node">
<title>Node6</title>
<g id="a_Node000006"><a xlink:href="proxqp_2dense_2wrapper_8hpp.html" target="_top" xlink:title=" ">
<polygon fill="white" stroke="#666666" points="815.25,-172.5 678.5,-172.5 678.5,-139 815.25,-139 815.25,-172.5"/>
<text text-anchor="start" x="686.5" y="-159" font-family="Helvetica,sans-Serif" font-size="10.00">include/proxsuite/proxqp</text>
<text text-anchor="middle" x="746.88" y="-146.25" font-family="Helvetica,sans-Serif" font-size="10.00">/dense/wrapper.hpp</text>
</a>
</g>
</g>
<!-- Node5&#45;&gt;Node6 -->
<g id="edge5_Node000005_Node000006" class="edge">
<title>Node5&#45;&gt;Node6</title>
<g id="a_edge5_Node000005_Node000006"><a xlink:title=" ">
<path fill="none" stroke="#63b8ff" d="M661.74,-202.72C679.72,-193.01 700.6,-181.74 717.18,-172.79"/>
<polygon fill="#63b8ff" stroke="#63b8ff" points="660.28,-199.53 653.15,-207.36 663.61,-205.69 660.28,-199.53"/>
</a>
</g>
</g>
<!-- Node7 -->
<g id="Node000007" class="node">
<title>Node7</title>
<g id="a_Node000007"><a xlink:href="compute__ECJ_8hpp.html" target="_top" xlink:title=" ">
<polygon fill="white" stroke="#666666" points="660.25,-103 523.5,-103 523.5,-69.5 660.25,-69.5 660.25,-103"/>
<text text-anchor="start" x="531.5" y="-89.5" font-family="Helvetica,sans-Serif" font-size="10.00">include/proxsuite/proxqp</text>
<text text-anchor="middle" x="591.88" y="-76.75" font-family="Helvetica,sans-Serif" font-size="10.00">/dense/compute_ECJ.hpp</text>
</a>
</g>
</g>
<!-- Node6&#45;&gt;Node7 -->
<g id="edge6_Node000006_Node000007" class="edge">
<title>Node6&#45;&gt;Node7</title>
<g id="a_edge6_Node000006_Node000007"><a xlink:title=" ">
<path fill="none" stroke="#63b8ff" d="M699.34,-134.05C676.72,-124.2 650.07,-112.59 628.97,-103.4"/>
<polygon fill="#63b8ff" stroke="#63b8ff" points="697.8,-137.19 708.36,-137.98 700.59,-130.78 697.8,-137.19"/>
</a>
</g>
</g>
<!-- Node9 -->
<g id="Node000009" class="node">
<title>Node9</title>
<g id="a_Node000009"><a xlink:href="dense_8hpp.html" target="_top" xlink:title=" ">
<polygon fill="white" stroke="#666666" points="815.25,-103 678.5,-103 678.5,-69.5 815.25,-69.5 815.25,-103"/>
<text text-anchor="start" x="686.5" y="-89.5" font-family="Helvetica,sans-Serif" font-size="10.00">include/proxsuite/proxqp</text>
<text text-anchor="middle" x="746.88" y="-76.75" font-family="Helvetica,sans-Serif" font-size="10.00">/dense/dense.hpp</text>
</a>
</g>
</g>
<!-- Node6&#45;&gt;Node9 -->
<g id="edge8_Node000006_Node000009" class="edge">
<title>Node6&#45;&gt;Node9</title>
<g id="a_edge8_Node000006_Node000009"><a xlink:title=" ">
<path fill="none" stroke="#63b8ff" d="M746.88,-127.31C746.88,-119.09 746.88,-110.34 746.88,-103.13"/>
<polygon fill="#63b8ff" stroke="#63b8ff" points="743.38,-127.24 746.88,-137.24 750.38,-127.24 743.38,-127.24"/>
</a>
</g>
</g>
<!-- Node10 -->
<g id="Node000010" class="node">
<title>Node10</title>
<g id="a_Node000010"><a xlink:href="serialization_2wrapper_8hpp.html" target="_top" xlink:title=" ">
<polygon fill="white" stroke="#666666" points="996.38,-103 833.38,-103 833.38,-69.5 996.38,-69.5 996.38,-103"/>
<text text-anchor="start" x="841.38" y="-89.5" font-family="Helvetica,sans-Serif" font-size="10.00">include/proxsuite/serialization</text>
<text text-anchor="middle" x="914.88" y="-76.75" font-family="Helvetica,sans-Serif" font-size="10.00">/wrapper.hpp</text>
</a>
</g>
</g>
<!-- Node6&#45;&gt;Node10 -->
<g id="edge9_Node000006_Node000010" class="edge">
<title>Node6&#45;&gt;Node10</title>
<g id="a_edge9_Node000006_Node000010"><a xlink:title=" ">
<path fill="none" stroke="#63b8ff" d="M797.73,-134.32C822.39,-124.41 851.59,-112.68 874.67,-103.4"/>
<polygon fill="#63b8ff" stroke="#63b8ff" points="796.49,-131.04 788.52,-138.02 799.1,-137.54 796.49,-131.04"/>
</a>
</g>
</g>
<!-- Node8 -->
<g id="Node000008" class="node">
<title>Node8</title>
<g id="a_Node000008"><a xlink:href="qp__solve_8hpp.html" target="_top" xlink:title=" ">
<polygon fill="white" stroke="#666666" points="660.25,-33.5 523.5,-33.5 523.5,0 660.25,0 660.25,-33.5"/>
<text text-anchor="start" x="531.5" y="-20" font-family="Helvetica,sans-Serif" font-size="10.00">include/proxsuite/proxqp</text>
<text text-anchor="middle" x="591.88" y="-7.25" font-family="Helvetica,sans-Serif" font-size="10.00">/parallel/qp_solve.hpp</text>
</a>
</g>
</g>
<!-- Node7&#45;&gt;Node8 -->
<g id="edge7_Node000007_Node000008" class="edge">
<title>Node7&#45;&gt;Node8</title>
<g id="a_edge7_Node000007_Node000008"><a xlink:title=" ">
<path fill="none" stroke="#63b8ff" d="M591.88,-57.81C591.88,-49.59 591.88,-40.84 591.88,-33.63"/>
<polygon fill="#63b8ff" stroke="#63b8ff" points="588.38,-57.74 591.88,-67.74 595.38,-57.74 588.38,-57.74"/>
</a>
</g>
</g>
<!-- Node11&#45;&gt;Node5 -->
<g id="edge11_Node000011_Node000005" class="edge">
<title>Node11&#45;&gt;Node5</title>
<g id="a_edge11_Node000011_Node000005"><a xlink:title=" ">
<path fill="none" stroke="#63b8ff" d="M603.56,-267.46C607.36,-258.91 611.46,-249.68 614.82,-242.13"/>
<polygon fill="#63b8ff" stroke="#63b8ff" points="600.46,-265.81 599.6,-276.37 606.86,-268.65 600.46,-265.81"/>
</a>
</g>
</g>
<!-- Node14&#45;&gt;Node5 -->
<g id="edge15_Node000014_Node000005" class="edge">
<title>Node14&#45;&gt;Node5</title>
<g id="a_edge15_Node000014_Node000005"><a xlink:title=" ">
<path fill="none" stroke="#63b8ff" d="M707.01,-272.22C689.03,-262.51 668.15,-251.24 651.57,-242.29"/>
<polygon fill="#63b8ff" stroke="#63b8ff" points="705.14,-275.19 715.6,-276.86 708.47,-269.03 705.14,-275.19"/>
</a>
</g>
</g>
<!-- Node14&#45;&gt;Node6 -->
<g id="edge16_Node000014_Node000006" class="edge">
<title>Node14&#45;&gt;Node6</title>
<g id="a_edge16_Node000014_Node000006"><a xlink:title=" ">
<path fill="none" stroke="#63b8ff" d="M746.88,-266.37C746.88,-238.29 746.88,-195.57 746.88,-172.63"/>
<polygon fill="#63b8ff" stroke="#63b8ff" points="743.38,-266.25 746.88,-276.25 750.38,-266.25 743.38,-266.25"/>
</a>
</g>
</g>
<!-- Node15&#45;&gt;Node6 -->
<g id="edge21_Node000015_Node000006" class="edge">
<title>Node15&#45;&gt;Node6</title>
<g id="a_edge21_Node000015_Node000006"><a xlink:title=" ">
<path fill="none" stroke="#63b8ff" d="M842.23,-356.68C906.99,-349.96 985.2,-336.76 1005.88,-311.5 1066.02,-238.04 911.17,-191.03 815.61,-169.84"/>
<polygon fill="#63b8ff" stroke="#63b8ff" points="842.25,-353.16 832.64,-357.64 842.94,-360.13 842.25,-353.16"/>
</a>
</g>
</g>
<!-- Node15&#45;&gt;Node11 -->
<g id="edge20_Node000015_Node000011" class="edge">
<title>Node15&#45;&gt;Node11</title>
<g id="a_edge20_Node000015_Node000011"><a xlink:title=" ">
<path fill="none" stroke="#63b8ff" d="M700.73,-342.55C677.81,-332.7 650.82,-321.09 629.45,-311.9"/>
<polygon fill="#63b8ff" stroke="#63b8ff" points="699.31,-345.75 709.88,-346.48 702.07,-339.32 699.31,-345.75"/>
</a>
</g>
</g>
<!-- Node15&#45;&gt;Node14 -->
<g id="edge19_Node000015_Node000014" class="edge">
<title>Node15&#45;&gt;Node14</title>
<g id="a_edge19_Node000015_Node000014"><a xlink:title=" ">
<path fill="none" stroke="#63b8ff" d="M748.06,-335.81C747.82,-327.59 747.56,-318.84 747.35,-311.63"/>
<polygon fill="#63b8ff" stroke="#63b8ff" points="744.56,-335.85 748.36,-345.74 751.56,-335.64 744.56,-335.85"/>
</a>
</g>
</g>
<!-- Node16 -->
<g id="Node000016" class="node">
<title>Node16</title>
<g id="a_Node000016"><a xlink:href="serialization_2ruiz_8hpp.html" target="_top" xlink:title=" ">
<polygon fill="white" stroke="#666666" points="996.38,-311.5 833.38,-311.5 833.38,-278 996.38,-278 996.38,-311.5"/>
<text text-anchor="start" x="841.38" y="-298" font-family="Helvetica,sans-Serif" font-size="10.00">include/proxsuite/serialization</text>
<text text-anchor="middle" x="914.88" y="-285.25" font-family="Helvetica,sans-Serif" font-size="10.00">/ruiz.hpp</text>
</a>
</g>
</g>
<!-- Node15&#45;&gt;Node16 -->
<g id="edge22_Node000015_Node000016" class="edge">
<title>Node15&#45;&gt;Node16</title>
<g id="a_edge22_Node000015_Node000016"><a xlink:title=" ">
<path fill="none" stroke="#63b8ff" d="M799.13,-342.82C823.49,-332.91 852.35,-321.18 875.15,-311.9"/>
<polygon fill="#63b8ff" stroke="#63b8ff" points="797.98,-339.5 790.04,-346.51 800.62,-345.99 797.98,-339.5"/>
</a>
</g>
</g>
</g>
</svg>
