<?xml version="1.0" encoding="UTF-8" standalone="no"?>
<!DOCTYPE svg PUBLIC "-//W3C//DTD SVG 1.1//EN"
 "http://www.w3.org/Graphics/SVG/1.1/DTD/svg11.dtd">
<!-- Generated by graphviz version 7.1.0 (20230122.1345)
 -->
<!-- Title: include/proxsuite/proxqp/sparse/fwd.hpp Pages: 1 -->
<svg width="1795pt" height="643pt"
 viewBox="0.00 0.00 1795.00 643.00" xmlns="http://www.w3.org/2000/svg" xmlns:xlink="http://www.w3.org/1999/xlink">
<g id="graph0" class="graph" transform="scale(1 1) rotate(0) translate(4 639)">
<title>include/proxsuite/proxqp/sparse/fwd.hpp</title>
<!-- Node1 -->
<g id="node1" class="node">
<title>Node1</title>
<g id="a_node1"><a xlink:title=" ">
<polygon fill="#999999" stroke="#666666" points="869.5,-635 732.5,-635 732.5,-605 869.5,-605 869.5,-635"/>
<text text-anchor="start" x="740.5" y="-623" font-family="Helvetica,sans-Serif" font-size="10.00">include/proxsuite/proxqp</text>
<text text-anchor="middle" x="801" y="-612" font-family="Helvetica,sans-Serif" font-size="10.00">/sparse/fwd.hpp</text>
</a>
</g>
</g>
<!-- Node2 -->
<g id="node2" class="node">
<title>Node2</title>
<g id="a_node2"><a xlink:href="proxqp_2results_8hpp.html" target="_top" xlink:title=" ">
<polygon fill="white" stroke="#666666" points="675.5,-437 538.5,-437 538.5,-407 675.5,-407 675.5,-437"/>
<text text-anchor="start" x="546.5" y="-425" font-family="Helvetica,sans-Serif" font-size="10.00">include/proxsuite/proxqp</text>
<text text-anchor="middle" x="607" y="-414" font-family="Helvetica,sans-Serif" font-size="10.00">/results.hpp</text>
</a>
</g>
</g>
<!-- Node1&#45;&gt;Node2 -->
<g id="edge1" class="edge">
<title>Node1&#45;&gt;Node2</title>
<path fill="none" stroke="#63b8ff" d="M778.86,-596.63C738.67,-556.03 654.8,-471.29 621.29,-437.43"/>
<polygon fill="#63b8ff" stroke="#63b8ff" points="776.15,-598.87 785.67,-603.51 781.12,-593.94 776.15,-598.87"/>
</g>
<!-- Node10 -->
<g id="node10" class="node">
<title>Node10</title>
<g id="a_node10"><a xlink:href="sparse_2solver_8hpp.html" target="_top" xlink:title=" ">
<polygon fill="white" stroke="#666666" points="1236.5,-162 1099.5,-162 1099.5,-132 1236.5,-132 1236.5,-162"/>
<text text-anchor="start" x="1107.5" y="-150" font-family="Helvetica,sans-Serif" font-size="10.00">include/proxsuite/proxqp</text>
<text text-anchor="middle" x="1168" y="-139" font-family="Helvetica,sans-Serif" font-size="10.00">/sparse/solver.hpp</text>
</a>
</g>
</g>
<!-- Node1&#45;&gt;Node10 -->
<g id="edge54" class="edge">
<title>Node1&#45;&gt;Node10</title>
<path fill="none" stroke="#63b8ff" d="M881.13,-616.82C1116.12,-609.38 1787,-580.15 1787,-489 1787,-489 1787,-489 1787,-278 1787,-166.61 1398.25,-150.13 1236.91,-148.08"/>
<polygon fill="#63b8ff" stroke="#63b8ff" points="881.34,-613.31 871.45,-617.12 881.56,-620.31 881.34,-613.31"/>
</g>
<!-- Node17 -->
<g id="node17" class="node">
<title>Node17</title>
<g id="a_node17"><a xlink:href="proxqp_2settings_8hpp.html" target="_top" xlink:title=" ">
<polygon fill="white" stroke="#666666" points="869.5,-503 732.5,-503 732.5,-473 869.5,-473 869.5,-503"/>
<text text-anchor="start" x="740.5" y="-491" font-family="Helvetica,sans-Serif" font-size="10.00">include/proxsuite/proxqp</text>
<text text-anchor="middle" x="801" y="-480" font-family="Helvetica,sans-Serif" font-size="10.00">/settings.hpp</text>
</a>
</g>
</g>
<!-- Node1&#45;&gt;Node17 -->
<g id="edge27" class="edge">
<title>Node1&#45;&gt;Node17</title>
<path fill="none" stroke="#63b8ff" d="M801,-593.38C801,-566.49 801,-525.18 801,-503.47"/>
<polygon fill="#63b8ff" stroke="#63b8ff" points="797.5,-593.08 801,-603.08 804.5,-593.08 797.5,-593.08"/>
</g>
<!-- Node19 -->
<g id="node19" class="node">
<title>Node19</title>
<g id="a_node19"><a xlink:href="sparse_2helpers_8hpp.html" target="_top" xlink:title=" ">
<polygon fill="white" stroke="#666666" points="294.5,-569 157.5,-569 157.5,-539 294.5,-539 294.5,-569"/>
<text text-anchor="start" x="165.5" y="-557" font-family="Helvetica,sans-Serif" font-size="10.00">include/proxsuite/proxqp</text>
<text text-anchor="middle" x="226" y="-546" font-family="Helvetica,sans-Serif" font-size="10.00">/sparse/helpers.hpp</text>
</a>
</g>
</g>
<!-- Node1&#45;&gt;Node19 -->
<g id="edge38" class="edge">
<title>Node1&#45;&gt;Node19</title>
<path fill="none" stroke="#63b8ff" d="M720.86,-610.08C607.39,-597.45 401.84,-574.57 294.87,-562.67"/>
<polygon fill="#63b8ff" stroke="#63b8ff" points="720.38,-613.55 730.71,-611.18 721.16,-606.59 720.38,-613.55"/>
</g>
<!-- Node20 -->
<g id="node20" class="node">
<title>Node20</title>
<g id="a_node20"><a xlink:href="proxqp_2sparse_2model_8hpp.html" target="_top" xlink:title=" ">
<polygon fill="white" stroke="#666666" points="1509.5,-503 1372.5,-503 1372.5,-473 1509.5,-473 1509.5,-503"/>
<text text-anchor="start" x="1380.5" y="-491" font-family="Helvetica,sans-Serif" font-size="10.00">include/proxsuite/proxqp</text>
<text text-anchor="middle" x="1441" y="-480" font-family="Helvetica,sans-Serif" font-size="10.00">/sparse/model.hpp</text>
</a>
</g>
</g>
<!-- Node1&#45;&gt;Node20 -->
<g id="edge40" class="edge">
<title>Node1&#45;&gt;Node20</title>
<path fill="none" stroke="#63b8ff" d="M880.94,-602.76C1007.7,-577.01 1252.65,-527.26 1372.11,-502.99"/>
<polygon fill="#63b8ff" stroke="#63b8ff" points="880.38,-599.3 871.28,-604.72 881.77,-606.16 880.38,-599.3"/>
</g>
<!-- Node24 -->
<g id="node24" class="node">
<title>Node24</title>
<g id="a_node24"><a xlink:href="sparse_2preconditioner_2ruiz_8hpp.html" target="_top" xlink:title=" ">
<polygon fill="white" stroke="#666666" points="1758.5,-371 1621.5,-371 1621.5,-330 1758.5,-330 1758.5,-371"/>
<text text-anchor="start" x="1629.5" y="-359" font-family="Helvetica,sans-Serif" font-size="10.00">include/proxsuite/proxqp</text>
<text text-anchor="start" x="1629.5" y="-348" font-family="Helvetica,sans-Serif" font-size="10.00">/sparse/preconditioner</text>
<text text-anchor="middle" x="1690" y="-337" font-family="Helvetica,sans-Serif" font-size="10.00">/ruiz.hpp</text>
</a>
</g>
</g>
<!-- Node1&#45;&gt;Node24 -->
<g id="edge51" class="edge">
<title>Node1&#45;&gt;Node24</title>
<path fill="none" stroke="#63b8ff" d="M881.05,-618.65C1017.54,-615.36 1301.6,-596.68 1519,-503 1587.66,-473.41 1647.92,-405.26 1674.92,-371.37"/>
<polygon fill="#63b8ff" stroke="#63b8ff" points="881.33,-615.14 871.41,-618.86 881.48,-622.14 881.33,-615.14"/>
</g>
<!-- Node25 -->
<g id="node25" class="node">
<title>Node25</title>
<g id="a_node25"><a xlink:href="status_8hpp.html" target="_top" xlink:title=" ">
<polygon fill="white" stroke="#666666" points="675.5,-569 538.5,-569 538.5,-539 675.5,-539 675.5,-569"/>
<text text-anchor="start" x="546.5" y="-557" font-family="Helvetica,sans-Serif" font-size="10.00">include/proxsuite/proxqp</text>
<text text-anchor="middle" x="607" y="-546" font-family="Helvetica,sans-Serif" font-size="10.00">/status.hpp</text>
</a>
</g>
</g>
<!-- Node1&#45;&gt;Node25 -->
<g id="edge55" class="edge">
<title>Node1&#45;&gt;Node25</title>
<path fill="none" stroke="#63b8ff" d="M746.64,-601.07C716.35,-591.07 679.12,-578.79 650.73,-569.43"/>
<polygon fill="#63b8ff" stroke="#63b8ff" points="745.43,-604.35 756.03,-604.16 747.63,-597.71 745.43,-604.35"/>
</g>
<!-- Node3 -->
<g id="node3" class="node">
<title>Node3</title>
<g id="a_node3"><a xlink:href="dense_2helpers_8hpp.html" target="_top" xlink:title=" ">
<polygon fill="white" stroke="#666666" points="165.5,-365.5 28.5,-365.5 28.5,-335.5 165.5,-335.5 165.5,-365.5"/>
<text text-anchor="start" x="36.5" y="-353.5" font-family="Helvetica,sans-Serif" font-size="10.00">include/proxsuite/proxqp</text>
<text text-anchor="middle" x="97" y="-342.5" font-family="Helvetica,sans-Serif" font-size="10.00">/dense/helpers.hpp</text>
</a>
</g>
</g>
<!-- Node2&#45;&gt;Node3 -->
<g id="edge2" class="edge">
<title>Node2&#45;&gt;Node3</title>
<path fill="none" stroke="#63b8ff" d="M526.75,-414.85C439.66,-407.44 296.74,-393.17 175,-371 167.17,-369.57 158.96,-367.82 150.93,-365.95"/>
<polygon fill="#63b8ff" stroke="#63b8ff" points="526.37,-418.33 536.63,-415.68 526.95,-411.35 526.37,-418.33"/>
</g>
<!-- Node8 -->
<g id="node8" class="node">
<title>Node8</title>
<g id="a_node8"><a xlink:href="linesearch_8hpp.html" target="_top" xlink:title=" ">
<polygon fill="white" stroke="#666666" points="320.5,-365.5 183.5,-365.5 183.5,-335.5 320.5,-335.5 320.5,-365.5"/>
<text text-anchor="start" x="191.5" y="-353.5" font-family="Helvetica,sans-Serif" font-size="10.00">include/proxsuite/proxqp</text>
<text text-anchor="middle" x="252" y="-342.5" font-family="Helvetica,sans-Serif" font-size="10.00">/dense/linesearch.hpp</text>
</a>
</g>
</g>
<!-- Node2&#45;&gt;Node8 -->
<g id="edge8" class="edge">
<title>Node2&#45;&gt;Node8</title>
<path fill="none" stroke="#63b8ff" d="M526.99,-408.01C471.52,-398.64 396.04,-385.2 330,-371 322.77,-369.44 315.19,-367.7 307.71,-365.91"/>
<polygon fill="#63b8ff" stroke="#63b8ff" points="526.23,-411.43 536.67,-409.63 527.39,-404.52 526.23,-411.43"/>
</g>
<!-- Node9 -->
<g id="node9" class="node">
<title>Node9</title>
<g id="a_node9"><a xlink:href="dense_2utils_8hpp.html" target="_top" xlink:title=" ">
<polygon fill="white" stroke="#666666" points="810.5,-365.5 673.5,-365.5 673.5,-335.5 810.5,-335.5 810.5,-365.5"/>
<text text-anchor="start" x="681.5" y="-353.5" font-family="Helvetica,sans-Serif" font-size="10.00">include/proxsuite/proxqp</text>
<text text-anchor="middle" x="742" y="-342.5" font-family="Helvetica,sans-Serif" font-size="10.00">/dense/utils.hpp</text>
</a>
</g>
</g>
<!-- Node2&#45;&gt;Node9 -->
<g id="edge10" class="edge">
<title>Node2&#45;&gt;Node9</title>
<path fill="none" stroke="#63b8ff" d="M644.96,-401.46C666.92,-390.15 694.07,-376.17 714.06,-365.88"/>
<polygon fill="#63b8ff" stroke="#63b8ff" points="643.61,-398.22 636.32,-405.91 646.81,-404.44 643.61,-398.22"/>
</g>
<!-- Node2&#45;&gt;Node10 -->
<g id="edge12" class="edge">
<title>Node2&#45;&gt;Node10</title>
<path fill="none" stroke="#63b8ff" d="M599.19,-395.52C594.84,-376.51 592.08,-350.41 602,-330 622.75,-287.3 643.27,-284.7 686,-264 823.69,-197.31 1002.55,-167.31 1099.02,-155.19"/>
<polygon fill="#63b8ff" stroke="#63b8ff" points="595.79,-396.34 601.7,-405.13 602.56,-394.57 595.79,-396.34"/>
</g>
<!-- Node11 -->
<g id="node11" class="node">
<title>Node11</title>
<g id="a_node11"><a xlink:href="proxqp_2sparse_2wrapper_8hpp.html" target="_top" xlink:title=" ">
<polygon fill="white" stroke="#666666" points="637.5,-96 500.5,-96 500.5,-66 637.5,-66 637.5,-96"/>
<text text-anchor="start" x="508.5" y="-84" font-family="Helvetica,sans-Serif" font-size="10.00">include/proxsuite/proxqp</text>
<text text-anchor="middle" x="569" y="-73" font-family="Helvetica,sans-Serif" font-size="10.00">/sparse/wrapper.hpp</text>
</a>
</g>
</g>
<!-- Node2&#45;&gt;Node11 -->
<g id="edge25" class="edge">
<title>Node2&#45;&gt;Node11</title>
<path fill="none" stroke="#63b8ff" d="M585.58,-398.27C563.1,-371.95 531,-326.27 531,-280 531,-280 531,-280 531,-212 531,-168.5 550.84,-119.98 561.85,-96.41"/>
<polygon fill="#63b8ff" stroke="#63b8ff" points="582.82,-400.43 592.06,-405.61 588.06,-395.79 582.82,-400.43"/>
</g>
<!-- Node13 -->
<g id="node13" class="node">
<title>Node13</title>
<g id="a_node13"><a xlink:href="sparse_2utils_8hpp.html" target="_top" xlink:title=" ">
<polygon fill="white" stroke="#666666" points="1158.5,-294 1021.5,-294 1021.5,-264 1158.5,-264 1158.5,-294"/>
<text text-anchor="start" x="1029.5" y="-282" font-family="Helvetica,sans-Serif" font-size="10.00">include/proxsuite/proxqp</text>
<text text-anchor="middle" x="1090" y="-271" font-family="Helvetica,sans-Serif" font-size="10.00">/sparse/utils.hpp</text>
</a>
</g>
</g>
<!-- Node2&#45;&gt;Node13 -->
<g id="edge15" class="edge">
<title>Node2&#45;&gt;Node13</title>
<path fill="none" stroke="#63b8ff" d="M615.75,-396.24C624.65,-374.93 640.65,-345.27 665,-330 722.82,-293.73 916.6,-283.77 1021.37,-281.03"/>
<polygon fill="#63b8ff" stroke="#63b8ff" points="612.55,-394.79 612.17,-405.37 619.07,-397.34 612.55,-394.79"/>
</g>
<!-- Node14 -->
<g id="node14" class="node">
<title>Node14</title>
<g id="a_node14"><a xlink:href="sparse_2workspace_8hpp.html" target="_top" xlink:title=" ">
<polygon fill="white" stroke="#666666" points="1139.5,-228 1002.5,-228 1002.5,-198 1139.5,-198 1139.5,-228"/>
<text text-anchor="start" x="1010.5" y="-216" font-family="Helvetica,sans-Serif" font-size="10.00">include/proxsuite/proxqp</text>
<text text-anchor="middle" x="1071" y="-205" font-family="Helvetica,sans-Serif" font-size="10.00">/sparse/workspace.hpp</text>
</a>
</g>
</g>
<!-- Node2&#45;&gt;Node14 -->
<g id="edge24" class="edge">
<title>Node2&#45;&gt;Node14</title>
<path fill="none" stroke="#63b8ff" d="M604.93,-395.19C604.77,-374.97 607.97,-347.45 624,-330 674.71,-274.79 889.85,-238.35 1002.14,-222.71"/>
<polygon fill="#63b8ff" stroke="#63b8ff" points="601.43,-395.3 605.32,-405.16 608.43,-395.03 601.43,-395.3"/>
</g>
<!-- Node15 -->
<g id="node15" class="node">
<title>Node15</title>
<g id="a_node15"><a xlink:href="sparse_2views_8hpp.html" target="_top" xlink:title=" ">
<polygon fill="white" stroke="#666666" points="1042.5,-365.5 905.5,-365.5 905.5,-335.5 1042.5,-335.5 1042.5,-365.5"/>
<text text-anchor="start" x="913.5" y="-353.5" font-family="Helvetica,sans-Serif" font-size="10.00">include/proxsuite/proxqp</text>
<text text-anchor="middle" x="974" y="-342.5" font-family="Helvetica,sans-Serif" font-size="10.00">/sparse/views.hpp</text>
</a>
</g>
</g>
<!-- Node2&#45;&gt;Node15 -->
<g id="edge20" class="edge">
<title>Node2&#45;&gt;Node15</title>
<path fill="none" stroke="#63b8ff" d="M686.64,-405.92C751.81,-393.58 843.05,-376.3 905.11,-364.55"/>
<polygon fill="#63b8ff" stroke="#63b8ff" points="686.26,-402.43 677.09,-407.73 687.56,-409.31 686.26,-402.43"/>
</g>
<!-- Node16 -->
<g id="node16" class="node">
<title>Node16</title>
<g id="a_node16"><a xlink:href="serialization_2results_8hpp.html" target="_top" xlink:title=" ">
<polygon fill="white" stroke="#666666" points="503,-365.5 339,-365.5 339,-335.5 503,-335.5 503,-365.5"/>
<text text-anchor="start" x="347" y="-353.5" font-family="Helvetica,sans-Serif" font-size="10.00">include/proxsuite/serialization</text>
<text text-anchor="middle" x="421" y="-342.5" font-family="Helvetica,sans-Serif" font-size="10.00">/results.hpp</text>
</a>
</g>
</g>
<!-- Node2&#45;&gt;Node16 -->
<g id="edge26" class="edge">
<title>Node2&#45;&gt;Node16</title>
<path fill="none" stroke="#63b8ff" d="M557.95,-402.67C527.16,-391.17 488.03,-376.55 459.49,-365.88"/>
<polygon fill="#63b8ff" stroke="#63b8ff" points="556.45,-405.85 567.04,-406.07 558.9,-399.29 556.45,-405.85"/>
</g>
<!-- Node4 -->
<g id="node4" class="node">
<title>Node4</title>
<g id="a_node4"><a xlink:href="dense_2solver_8hpp.html" target="_top" xlink:title=" ">
<polygon fill="white" stroke="#666666" points="306.5,-294 169.5,-294 169.5,-264 306.5,-264 306.5,-294"/>
<text text-anchor="start" x="177.5" y="-282" font-family="Helvetica,sans-Serif" font-size="10.00">include/proxsuite/proxqp</text>
<text text-anchor="middle" x="238" y="-271" font-family="Helvetica,sans-Serif" font-size="10.00">/dense/solver.hpp</text>
</a>
</g>
</g>
<!-- Node3&#45;&gt;Node4 -->
<g id="edge3" class="edge">
<title>Node3&#45;&gt;Node4</title>
<path fill="none" stroke="#63b8ff" d="M136.34,-330.11C159.33,-318.78 187.85,-304.72 208.82,-294.38"/>
<polygon fill="#63b8ff" stroke="#63b8ff" points="135,-326.87 127.57,-334.43 138.09,-333.15 135,-326.87"/>
</g>
<!-- Node5 -->
<g id="node5" class="node">
<title>Node5</title>
<g id="a_node5"><a xlink:href="proxqp_2dense_2wrapper_8hpp.html" target="_top" xlink:title=" ">
<polygon fill="white" stroke="#666666" points="267.5,-228 130.5,-228 130.5,-198 267.5,-198 267.5,-228"/>
<text text-anchor="start" x="138.5" y="-216" font-family="Helvetica,sans-Serif" font-size="10.00">include/proxsuite/proxqp</text>
<text text-anchor="middle" x="199" y="-205" font-family="Helvetica,sans-Serif" font-size="10.00">/dense/wrapper.hpp</text>
</a>
</g>
</g>
<!-- Node3&#45;&gt;Node5 -->
<g id="edge7" class="edge">
<title>Node3&#45;&gt;Node5</title>
<path fill="none" stroke="#63b8ff" d="M114.18,-326.46C127.04,-309.23 145.08,-285.11 161,-264 170.06,-251.99 180.39,-238.4 188,-228.42"/>
<polygon fill="#63b8ff" stroke="#63b8ff" points="111.69,-323.93 108.52,-334.04 117.3,-328.12 111.69,-323.93"/>
</g>
<!-- Node4&#45;&gt;Node5 -->
<g id="edge4" class="edge">
<title>Node4&#45;&gt;Node5</title>
<path fill="none" stroke="#63b8ff" d="M223.44,-254.11C218.12,-245.38 212.27,-235.78 207.63,-228.16"/>
<polygon fill="#63b8ff" stroke="#63b8ff" points="220.36,-255.79 228.56,-262.5 226.34,-252.14 220.36,-255.79"/>
</g>
<!-- Node6 -->
<g id="node6" class="node">
<title>Node6</title>
<g id="a_node6"><a xlink:href="dense_8hpp.html" target="_top" xlink:title=" ">
<polygon fill="white" stroke="#666666" points="190.5,-162 53.5,-162 53.5,-132 190.5,-132 190.5,-162"/>
<text text-anchor="start" x="61.5" y="-150" font-family="Helvetica,sans-Serif" font-size="10.00">include/proxsuite/proxqp</text>
<text text-anchor="middle" x="122" y="-139" font-family="Helvetica,sans-Serif" font-size="10.00">/dense/dense.hpp</text>
</a>
</g>
</g>
<!-- Node5&#45;&gt;Node6 -->
<g id="edge5" class="edge">
<title>Node5&#45;&gt;Node6</title>
<path fill="none" stroke="#63b8ff" d="M173.37,-190.7C162.18,-181.4 149.35,-170.73 139.31,-162.39"/>
<polygon fill="#63b8ff" stroke="#63b8ff" points="170.82,-193.13 180.75,-196.83 175.29,-187.75 170.82,-193.13"/>
</g>
<!-- Node7 -->
<g id="node7" class="node">
<title>Node7</title>
<g id="a_node7"><a xlink:href="serialization_2wrapper_8hpp.html" target="_top" xlink:title=" ">
<polygon fill="white" stroke="#666666" points="373,-162 209,-162 209,-132 373,-132 373,-162"/>
<text text-anchor="start" x="217" y="-150" font-family="Helvetica,sans-Serif" font-size="10.00">include/proxsuite/serialization</text>
<text text-anchor="middle" x="291" y="-139" font-family="Helvetica,sans-Serif" font-size="10.00">/wrapper.hpp</text>
</a>
</g>
</g>
<!-- Node5&#45;&gt;Node7 -->
<g id="edge6" class="edge">
<title>Node5&#45;&gt;Node7</title>
<path fill="none" stroke="#63b8ff" d="M228.83,-191.25C242.39,-181.82 258.09,-170.9 270.32,-162.39"/>
<polygon fill="#63b8ff" stroke="#63b8ff" points="226.87,-188.35 220.66,-196.93 230.87,-194.09 226.87,-188.35"/>
</g>
<!-- Node8&#45;&gt;Node4 -->
<g id="edge9" class="edge">
<title>Node8&#45;&gt;Node4</title>
<path fill="none" stroke="#63b8ff" d="M246.88,-324.08C244.86,-314.08 242.62,-302.95 240.9,-294.38"/>
<polygon fill="#63b8ff" stroke="#63b8ff" points="243.39,-324.5 248.8,-333.62 250.26,-323.12 243.39,-324.5"/>
</g>
<!-- Node9&#45;&gt;Node4 -->
<g id="edge11" class="edge">
<title>Node9&#45;&gt;Node4</title>
<path fill="none" stroke="#63b8ff" d="M661.91,-338.46C563.8,-324.93 399.26,-302.24 306.67,-289.47"/>
<polygon fill="#63b8ff" stroke="#63b8ff" points="661.36,-341.91 671.74,-339.81 662.31,-334.98 661.36,-341.91"/>
</g>
<!-- Node10&#45;&gt;Node11 -->
<g id="edge13" class="edge">
<title>Node10&#45;&gt;Node11</title>
<path fill="none" stroke="#63b8ff" d="M1088.15,-137.47C969.73,-124.82 749.55,-101.29 637.83,-89.35"/>
<polygon fill="#63b8ff" stroke="#63b8ff" points="1087.47,-140.92 1097.78,-138.5 1088.21,-133.95 1087.47,-140.92"/>
</g>
<!-- Node12 -->
<g id="node12" class="node">
<title>Node12</title>
<g id="a_node12"><a xlink:href="sparse_8hpp.html" target="_top" xlink:title=" ">
<polygon fill="white" stroke="#666666" points="637.5,-30 500.5,-30 500.5,0 637.5,0 637.5,-30"/>
<text text-anchor="start" x="508.5" y="-18" font-family="Helvetica,sans-Serif" font-size="10.00">include/proxsuite/proxqp</text>
<text text-anchor="middle" x="569" y="-7" font-family="Helvetica,sans-Serif" font-size="10.00">/sparse/sparse.hpp</text>
</a>
</g>
</g>
<!-- Node11&#45;&gt;Node12 -->
<g id="edge14" class="edge">
<title>Node11&#45;&gt;Node12</title>
<path fill="none" stroke="#63b8ff" d="M569,-54.39C569,-46.13 569,-37.28 569,-30.16"/>
<polygon fill="#63b8ff" stroke="#63b8ff" points="565.5,-54.28 569,-64.28 572.5,-54.28 565.5,-54.28"/>
</g>
<!-- Node13&#45;&gt;Node10 -->
<g id="edge16" class="edge">
<title>Node13&#45;&gt;Node10</title>
<path fill="none" stroke="#63b8ff" d="M1122.29,-256.81C1132.18,-248.86 1142.22,-239.04 1149,-228 1161.62,-207.44 1165.86,-179.16 1167.28,-162.31"/>
<polygon fill="#63b8ff" stroke="#63b8ff" points="1120.42,-253.83 1114.55,-262.66 1124.64,-259.42 1120.42,-253.83"/>
</g>
<!-- Node13&#45;&gt;Node14 -->
<g id="edge17" class="edge">
<title>Node13&#45;&gt;Node14</title>
<path fill="none" stroke="#63b8ff" d="M1076.06,-253.25C1073.16,-244.75 1070.72,-235.53 1069.49,-228.16"/>
<polygon fill="#63b8ff" stroke="#63b8ff" points="1072.7,-254.28 1079.53,-262.38 1079.25,-251.79 1072.7,-254.28"/>
</g>
<!-- Node14&#45;&gt;Node10 -->
<g id="edge18" class="edge">
<title>Node14&#45;&gt;Node10</title>
<path fill="none" stroke="#63b8ff" d="M1102.03,-191.52C1116.42,-182.03 1133.17,-170.98 1146.2,-162.39"/>
<polygon fill="#63b8ff" stroke="#63b8ff" points="1100.21,-188.53 1093.79,-196.96 1104.07,-194.38 1100.21,-188.53"/>
</g>
<!-- Node14&#45;&gt;Node13 -->
<g id="edge19" class="edge">
<title>Node14&#45;&gt;Node13</title>
<path fill="none" stroke="#63b8ff" d="M1084.92,-238.7C1087.82,-247.2 1090.27,-256.42 1091.5,-263.8"/>
<polygon fill="#63b8ff" stroke="#63b8ff" points="1088.28,-237.68 1081.46,-229.58 1081.74,-240.17 1088.28,-237.68"/>
</g>
<!-- Node15&#45;&gt;Node10 -->
<g id="edge21" class="edge">
<title>Node15&#45;&gt;Node10</title>
<path fill="none" stroke="#63b8ff" d="M969.67,-324.42C965.49,-291.36 963.62,-233.27 994,-198 1019.95,-167.88 1062.74,-155.31 1099.39,-150.31"/>
<polygon fill="#63b8ff" stroke="#63b8ff" points="966.14,-324.49 971.04,-333.88 973.07,-323.48 966.14,-324.49"/>
</g>
<!-- Node15&#45;&gt;Node13 -->
<g id="edge22" class="edge">
<title>Node15&#45;&gt;Node13</title>
<path fill="none" stroke="#63b8ff" d="M1007.91,-329.18C1026.54,-318.02 1049.2,-304.44 1066,-294.38"/>
<polygon fill="#63b8ff" stroke="#63b8ff" points="1006.11,-326.18 999.33,-334.32 1009.71,-332.18 1006.11,-326.18"/>
</g>
<!-- Node15&#45;&gt;Node14 -->
<g id="edge23" class="edge">
<title>Node15&#45;&gt;Node14</title>
<path fill="none" stroke="#63b8ff" d="M982.17,-324.42C988.75,-306.5 999.19,-282.41 1013,-264 1023.37,-250.18 1038.17,-237.5 1050.22,-228.37"/>
<polygon fill="#63b8ff" stroke="#63b8ff" points="978.9,-323.15 978.9,-333.75 985.51,-325.46 978.9,-323.15"/>
</g>
<!-- Node17&#45;&gt;Node2 -->
<g id="edge31" class="edge">
<title>Node17&#45;&gt;Node2</title>
<path fill="none" stroke="#63b8ff" d="M746.64,-469.07C716.35,-459.07 679.12,-446.79 650.73,-437.43"/>
<polygon fill="#63b8ff" stroke="#63b8ff" points="745.43,-472.35 756.03,-472.16 747.63,-465.71 745.43,-472.35"/>
</g>
<!-- Node17&#45;&gt;Node3 -->
<g id="edge28" class="edge">
<title>Node17&#45;&gt;Node3</title>
<path fill="none" stroke="#63b8ff" d="M720.91,-479.62C643.08,-471.72 521.77,-457.5 418,-437 319.13,-417.47 205.67,-384.76 143.6,-365.97"/>
<polygon fill="#63b8ff" stroke="#63b8ff" points="720.26,-483.07 730.56,-480.59 720.96,-476.11 720.26,-483.07"/>
</g>
<!-- Node17&#45;&gt;Node8 -->
<g id="edge29" class="edge">
<title>Node17&#45;&gt;Node8</title>
<path fill="none" stroke="#63b8ff" d="M720.76,-474.7C666.55,-465.78 593.55,-452.58 530,-437 444.91,-416.14 347.47,-384.28 293.5,-365.92"/>
<polygon fill="#63b8ff" stroke="#63b8ff" points="720.11,-478.14 730.54,-476.3 721.23,-471.24 720.11,-478.14"/>
</g>
<!-- Node17&#45;&gt;Node9 -->
<g id="edge30" class="edge">
<title>Node17&#45;&gt;Node9</title>
<path fill="none" stroke="#63b8ff" d="M782.04,-463.41C776.27,-455.38 770.32,-446.12 766,-437 754.78,-413.31 747.88,-383.38 744.51,-365.94"/>
<polygon fill="#63b8ff" stroke="#63b8ff" points="779.16,-465.4 787.96,-471.29 784.75,-461.19 779.16,-465.4"/>
</g>
<!-- Node17&#45;&gt;Node10 -->
<g id="edge32" class="edge">
<title>Node17&#45;&gt;Node10</title>
<path fill="none" stroke="#63b8ff" d="M881.01,-486.36C1042.04,-483.08 1395.47,-465.08 1460,-371 1530.36,-268.43 1324.11,-192.73 1221.82,-162.48"/>
<polygon fill="#63b8ff" stroke="#63b8ff" points="881.2,-482.86 871.26,-486.55 881.33,-489.86 881.2,-482.86"/>
</g>
<!-- Node17&#45;&gt;Node11 -->
<g id="edge36" class="edge">
<title>Node17&#45;&gt;Node11</title>
<path fill="none" stroke="#63b8ff" d="M806.34,-461.79C811.01,-438.39 817.44,-402.52 820,-371 821.48,-352.84 827.02,-346.81 820,-330 772.89,-217.23 646.77,-129.61 593.4,-96.43"/>
<polygon fill="#63b8ff" stroke="#63b8ff" points="802.97,-460.82 804.39,-471.32 809.83,-462.23 802.97,-460.82"/>
</g>
<!-- Node17&#45;&gt;Node13 -->
<g id="edge33" class="edge">
<title>Node17&#45;&gt;Node13</title>
<path fill="none" stroke="#63b8ff" d="M881.06,-478.32C939.48,-470.46 1012.27,-457.03 1035,-437 1078.13,-399.01 1087.44,-325.21 1089.45,-294.23"/>
<polygon fill="#63b8ff" stroke="#63b8ff" points="880.92,-474.81 871.46,-479.57 881.83,-481.75 880.92,-474.81"/>
</g>
<!-- Node17&#45;&gt;Node14 -->
<g id="edge35" class="edge">
<title>Node17&#45;&gt;Node14</title>
<path fill="none" stroke="#63b8ff" d="M810.31,-462.33C816.86,-446.11 826.33,-424.7 837,-407 885.21,-327 913.15,-315.61 991,-264 1009.7,-251.6 1031.3,-238.15 1047.34,-228.33"/>
<polygon fill="#63b8ff" stroke="#63b8ff" points="807.22,-460.62 806.82,-471.21 813.74,-463.18 807.22,-460.62"/>
</g>
<!-- Node17&#45;&gt;Node15 -->
<g id="edge34" class="edge">
<title>Node17&#45;&gt;Node15</title>
<path fill="none" stroke="#63b8ff" d="M880.93,-479.05C935.79,-471.75 1001.71,-458.7 1019,-437 1036.98,-414.43 1010.48,-383.59 991.16,-365.79"/>
<polygon fill="#63b8ff" stroke="#63b8ff" points="880.74,-475.55 871.26,-480.29 881.63,-482.49 880.74,-475.55"/>
</g>
<!-- Node18 -->
<g id="node18" class="node">
<title>Node18</title>
<g id="a_node18"><a xlink:href="serialization_2settings_8hpp.html" target="_top" xlink:title=" ">
<polygon fill="white" stroke="#666666" points="1010,-437 846,-437 846,-407 1010,-407 1010,-437"/>
<text text-anchor="start" x="854" y="-425" font-family="Helvetica,sans-Serif" font-size="10.00">include/proxsuite/serialization</text>
<text text-anchor="middle" x="928" y="-414" font-family="Helvetica,sans-Serif" font-size="10.00">/settings.hpp</text>
</a>
</g>
</g>
<!-- Node17&#45;&gt;Node18 -->
<g id="edge37" class="edge">
<title>Node17&#45;&gt;Node18</title>
<path fill="none" stroke="#63b8ff" d="M839.52,-467.59C858.86,-457.84 881.88,-446.24 899.59,-437.31"/>
<polygon fill="#63b8ff" stroke="#63b8ff" points="838.21,-464.33 830.85,-471.96 841.36,-470.58 838.21,-464.33"/>
</g>
<!-- Node19&#45;&gt;Node11 -->
<g id="edge39" class="edge">
<title>Node19&#45;&gt;Node11</title>
<path fill="none" stroke="#63b8ff" d="M146.16,-540.55C81.12,-525.33 0,-492.42 0,-423 0,-423 0,-423 0,-212 0,-171.42 10.09,-154.29 44,-132 81.3,-107.48 366.39,-91.31 500.13,-84.99"/>
<polygon fill="#63b8ff" stroke="#63b8ff" points="145.27,-543.93 155.79,-542.69 146.79,-537.1 145.27,-543.93"/>
</g>
<!-- Node20&#45;&gt;Node10 -->
<g id="edge46" class="edge">
<title>Node20&#45;&gt;Node10</title>
<path fill="none" stroke="#63b8ff" d="M1489.35,-467.87C1533.85,-446.71 1593,-407.96 1593,-351.5 1593,-351.5 1593,-351.5 1593,-278 1593,-240.88 1597.35,-221.96 1569,-198 1520.24,-156.79 1338.13,-148.9 1236.93,-147.79"/>
<polygon fill="#63b8ff" stroke="#63b8ff" points="1487.98,-464.65 1480.34,-471.99 1490.89,-471.01 1487.98,-464.65"/>
</g>
<!-- Node20&#45;&gt;Node13 -->
<g id="edge47" class="edge">
<title>Node20&#45;&gt;Node13</title>
<path fill="none" stroke="#63b8ff" d="M1453.99,-462.79C1470.25,-428.79 1492.28,-366.94 1460,-330 1440.51,-307.7 1260.29,-291.76 1158.76,-284.46"/>
<polygon fill="#63b8ff" stroke="#63b8ff" points="1451.01,-460.92 1449.67,-471.42 1457.27,-464.05 1451.01,-460.92"/>
</g>
<!-- Node20&#45;&gt;Node14 -->
<g id="edge49" class="edge">
<title>Node20&#45;&gt;Node14</title>
<path fill="none" stroke="#63b8ff" d="M1465.69,-464.42C1472.66,-456.5 1479.34,-447.06 1483,-437 1490.36,-416.8 1499.39,-352.66 1482,-330 1440.43,-275.81 1245.8,-239.53 1139.96,-223.46"/>
<polygon fill="#63b8ff" stroke="#63b8ff" points="1463.25,-461.9 1458.89,-471.55 1468.32,-466.73 1463.25,-461.9"/>
</g>
<!-- Node20&#45;&gt;Node15 -->
<g id="edge48" class="edge">
<title>Node20&#45;&gt;Node15</title>
<path fill="none" stroke="#63b8ff" d="M1360.62,-481.19C1297.65,-474.91 1208.52,-462.2 1134,-437 1081.34,-419.19 1025.24,-385.3 995.47,-365.96"/>
<polygon fill="#63b8ff" stroke="#63b8ff" points="1360.27,-484.67 1370.56,-482.14 1360.94,-477.7 1360.27,-484.67"/>
</g>
<!-- Node21 -->
<g id="node21" class="node">
<title>Node21</title>
<g id="a_node21"><a xlink:href="proxqp_2dense_2model_8hpp.html" target="_top" xlink:title=" ">
<polygon fill="white" stroke="#666666" points="1279.5,-437 1142.5,-437 1142.5,-407 1279.5,-407 1279.5,-437"/>
<text text-anchor="start" x="1150.5" y="-425" font-family="Helvetica,sans-Serif" font-size="10.00">include/proxsuite/proxqp</text>
<text text-anchor="middle" x="1211" y="-414" font-family="Helvetica,sans-Serif" font-size="10.00">/dense/model.hpp</text>
</a>
</g>
</g>
<!-- Node20&#45;&gt;Node21 -->
<g id="edge41" class="edge">
<title>Node20&#45;&gt;Node21</title>
<path fill="none" stroke="#63b8ff" d="M1378.15,-469.51C1341.91,-459.43 1296.89,-446.9 1262.71,-437.39"/>
<polygon fill="#63b8ff" stroke="#63b8ff" points="1377.07,-472.84 1387.64,-472.15 1378.94,-466.1 1377.07,-472.84"/>
</g>
<!-- Node22 -->
<g id="node22" class="node">
<title>Node22</title>
<g id="a_node22"><a xlink:href="random__qp__problems_8hpp.html" target="_top" xlink:title=" ">
<polygon fill="white" stroke="#666666" points="1451,-365.5 1281,-365.5 1281,-335.5 1451,-335.5 1451,-365.5"/>
<text text-anchor="start" x="1289" y="-353.5" font-family="Helvetica,sans-Serif" font-size="10.00">include/proxsuite/proxqp</text>
<text text-anchor="middle" x="1366" y="-342.5" font-family="Helvetica,sans-Serif" font-size="10.00">/utils/random_qp_problems.hpp</text>
</a>
</g>
</g>
<!-- Node20&#45;&gt;Node22 -->
<g id="edge50" class="edge">
<title>Node20&#45;&gt;Node22</title>
<path fill="none" stroke="#63b8ff" d="M1427.67,-462.91C1412.09,-434.77 1386.82,-389.12 1374,-365.96"/>
<polygon fill="#63b8ff" stroke="#63b8ff" points="1424.48,-464.38 1432.38,-471.43 1430.6,-460.99 1424.48,-464.38"/>
</g>
<!-- Node21&#45;&gt;Node8 -->
<g id="edge42" class="edge">
<title>Node21&#45;&gt;Node8</title>
<path fill="none" stroke="#63b8ff" d="M1130.74,-414.78C1096.34,-412.21 1055.71,-409.3 1019,-407 712.96,-387.85 633.26,-416.4 330,-371 321.44,-369.72 312.45,-367.91 303.75,-365.92"/>
<polygon fill="#63b8ff" stroke="#63b8ff" points="1130.41,-418.26 1140.64,-415.52 1130.93,-411.28 1130.41,-418.26"/>
</g>
<!-- Node21&#45;&gt;Node9 -->
<g id="edge43" class="edge">
<title>Node21&#45;&gt;Node9</title>
<path fill="none" stroke="#63b8ff" d="M1130.8,-409.11C1040.7,-395.76 895.95,-374.31 810.8,-361.7"/>
<polygon fill="#63b8ff" stroke="#63b8ff" points="1130.15,-412.56 1140.55,-410.56 1131.17,-405.63 1130.15,-412.56"/>
</g>
<!-- Node21&#45;&gt;Node22 -->
<g id="edge44" class="edge">
<title>Node21&#45;&gt;Node22</title>
<path fill="none" stroke="#63b8ff" d="M1253.57,-401.91C1278.95,-390.53 1310.66,-376.31 1333.93,-365.88"/>
<polygon fill="#63b8ff" stroke="#63b8ff" points="1252.19,-398.7 1244.5,-405.98 1255.05,-405.08 1252.19,-398.7"/>
</g>
<!-- Node23 -->
<g id="node23" class="node">
<title>Node23</title>
<g id="a_node23"><a xlink:href="serialization_2model_8hpp.html" target="_top" xlink:title=" ">
<polygon fill="white" stroke="#666666" points="1263,-365.5 1099,-365.5 1099,-335.5 1263,-335.5 1263,-365.5"/>
<text text-anchor="start" x="1107" y="-353.5" font-family="Helvetica,sans-Serif" font-size="10.00">include/proxsuite/serialization</text>
<text text-anchor="middle" x="1181" y="-342.5" font-family="Helvetica,sans-Serif" font-size="10.00">/model.hpp</text>
</a>
</g>
</g>
<!-- Node21&#45;&gt;Node23 -->
<g id="edge45" class="edge">
<title>Node21&#45;&gt;Node23</title>
<path fill="none" stroke="#63b8ff" d="M1200.31,-396.23C1195.92,-386.06 1190.99,-374.64 1187.21,-365.88"/>
<polygon fill="#63b8ff" stroke="#63b8ff" points="1197.01,-397.42 1204.18,-405.21 1203.43,-394.64 1197.01,-397.42"/>
</g>
<!-- Node24&#45;&gt;Node10 -->
<g id="edge52" class="edge">
<title>Node24&#45;&gt;Node10</title>
<path fill="none" stroke="#63b8ff" d="M1682.45,-319.1C1671.94,-283.67 1649.23,-226.37 1607,-198 1548.1,-158.43 1345.07,-149.94 1236.98,-148.27"/>
<polygon fill="#63b8ff" stroke="#63b8ff" points="1678.97,-319.63 1685.04,-328.31 1685.71,-317.73 1678.97,-319.63"/>
</g>
<!-- Node24&#45;&gt;Node13 -->
<g id="edge53" class="edge">
<title>Node24&#45;&gt;Node13</title>
<path fill="none" stroke="#63b8ff" d="M1610.02,-340.24C1491.4,-326.5 1270.85,-300.95 1158.95,-287.99"/>
<polygon fill="#63b8ff" stroke="#63b8ff" points="1609.33,-343.68 1619.67,-341.35 1610.14,-336.73 1609.33,-343.68"/>
</g>
<!-- Node25&#45;&gt;Node2 -->
<g id="edge57" class="edge">
<title>Node25&#45;&gt;Node2</title>
<path fill="none" stroke="#63b8ff" d="M607,-527.38C607,-500.49 607,-459.18 607,-437.47"/>
<polygon fill="#63b8ff" stroke="#63b8ff" points="603.5,-527.08 607,-537.08 610.5,-527.08 603.5,-527.08"/>
</g>
<!-- Node25&#45;&gt;Node3 -->
<g id="edge56" class="edge">
<title>Node25&#45;&gt;Node3</title>
<path fill="none" stroke="#63b8ff" d="M553.92,-534.9C490.44,-512.96 381.18,-474.29 289,-437 231.33,-413.67 165.31,-383.49 127.64,-365.93"/>
<polygon fill="#63b8ff" stroke="#63b8ff" points="552.44,-538.09 563.03,-538.04 554.72,-531.47 552.44,-538.09"/>
</g>
<!-- Node25&#45;&gt;Node17 -->
<g id="edge58" class="edge">
<title>Node25&#45;&gt;Node17</title>
<path fill="none" stroke="#63b8ff" d="M661.36,-535.07C691.65,-525.07 728.88,-512.79 757.27,-503.43"/>
<polygon fill="#63b8ff" stroke="#63b8ff" points="660.37,-531.71 651.97,-538.16 662.57,-538.35 660.37,-531.71"/>
</g>
</g>
</svg>
