<?xml version="1.0" encoding="UTF-8" standalone="no"?>
<!DOCTYPE svg PUBLIC "-//W3C//DTD SVG 1.1//EN"
 "http://www.w3.org/Graphics/SVG/1.1/DTD/svg11.dtd">
<!-- Generated by graphviz version 12.0.0 (20240803.0821)
 -->
<!-- Title: include/proxsuite/proxqp/results.hpp Pages: 1 -->
<svg width="942pt" height="598pt"
 viewBox="0.00 0.00 941.88 597.50" xmlns="http://www.w3.org/2000/svg" xmlns:xlink="http://www.w3.org/1999/xlink">
<g id="graph0" class="graph" transform="scale(1 1) rotate(0) translate(4 593.5)">
<title>include/proxsuite/proxqp/results.hpp</title>
<!-- Node1 -->
<g id="Node000001" class="node">
<title>Node1</title>
<g id="a_Node000001"><a xlink:title=" ">
<polygon fill="#999999" stroke="#666666" points="580.75,-589.5 444,-589.5 444,-556 580.75,-556 580.75,-589.5"/>
<text text-anchor="start" x="452" y="-576" font-family="Helvetica,sans-Serif" font-size="10.00">include/proxsuite/proxqp</text>
<text text-anchor="middle" x="512.38" y="-563.25" font-family="Helvetica,sans-Serif" font-size="10.00">/results.hpp</text>
</a>
</g>
</g>
<!-- Node2 -->
<g id="Node000002" class="node">
<title>Node2</title>
<g id="a_Node000002"><a xlink:href="dense_2helpers_8hpp.html" target="_top" xlink:title=" ">
<polygon fill="white" stroke="#666666" points="446.75,-520 310,-520 310,-486.5 446.75,-486.5 446.75,-520"/>
<text text-anchor="start" x="318" y="-506.5" font-family="Helvetica,sans-Serif" font-size="10.00">include/proxsuite/proxqp</text>
<text text-anchor="middle" x="378.38" y="-493.75" font-family="Helvetica,sans-Serif" font-size="10.00">/dense/helpers.hpp</text>
</a>
</g>
</g>
<!-- Node1&#45;&gt;Node2 -->
<g id="edge1_Node000001_Node000002" class="edge">
<title>Node1&#45;&gt;Node2</title>
<g id="a_edge1_Node000001_Node000002"><a xlink:title=" ">
<path fill="none" stroke="#63b8ff" d="M470.18,-550.49C450.78,-540.72 428.15,-529.32 410.21,-520.29"/>
<polygon fill="#63b8ff" stroke="#63b8ff" points="468.42,-553.53 478.93,-554.9 471.57,-547.28 468.42,-553.53"/>
</a>
</g>
</g>
<!-- Node9 -->
<g id="Node000009" class="node">
<title>Node9</title>
<g id="a_Node000009"><a xlink:href="linesearch_8hpp.html" target="_top" xlink:title=" ">
<polygon fill="white" stroke="#666666" points="291.75,-520 155,-520 155,-486.5 291.75,-486.5 291.75,-520"/>
<text text-anchor="start" x="163" y="-506.5" font-family="Helvetica,sans-Serif" font-size="10.00">include/proxsuite/proxqp</text>
<text text-anchor="middle" x="223.38" y="-493.75" font-family="Helvetica,sans-Serif" font-size="10.00">/dense/linesearch.hpp</text>
</a>
</g>
</g>
<!-- Node1&#45;&gt;Node9 -->
<g id="edge9_Node000001_Node000009" class="edge">
<title>Node1&#45;&gt;Node9</title>
<g id="a_edge9_Node000001_Node000009"><a xlink:title=" ">
<path fill="none" stroke="#63b8ff" d="M432.55,-553.11C388.51,-542.82 334.37,-530.17 292.2,-520.33"/>
<polygon fill="#63b8ff" stroke="#63b8ff" points="431.51,-556.46 442.05,-555.32 433.1,-549.64 431.51,-556.46"/>
</a>
</g>
</g>
<!-- Node10 -->
<g id="Node000010" class="node">
<title>Node10</title>
<g id="a_Node000010"><a xlink:href="dense_2utils_8hpp.html" target="_top" xlink:title=" ">
<polygon fill="white" stroke="#666666" points="136.75,-520 0,-520 0,-486.5 136.75,-486.5 136.75,-520"/>
<text text-anchor="start" x="8" y="-506.5" font-family="Helvetica,sans-Serif" font-size="10.00">include/proxsuite/proxqp</text>
<text text-anchor="middle" x="68.38" y="-493.75" font-family="Helvetica,sans-Serif" font-size="10.00">/dense/utils.hpp</text>
</a>
</g>
</g>
<!-- Node1&#45;&gt;Node10 -->
<g id="edge11_Node000001_Node000010" class="edge">
<title>Node1&#45;&gt;Node10</title>
<g id="a_edge11_Node000001_Node000010"><a xlink:title=" ">
<path fill="none" stroke="#63b8ff" d="M432.6,-561.84C358.31,-552.29 244.59,-536.84 146.38,-520 143.38,-519.49 140.32,-518.94 137.24,-518.38"/>
<polygon fill="#63b8ff" stroke="#63b8ff" points="431.86,-565.28 442.22,-563.07 432.74,-558.33 431.86,-565.28"/>
</a>
</g>
</g>
<!-- Node11 -->
<g id="Node000011" class="node">
<title>Node11</title>
<g id="a_Node000011"><a xlink:href="sparse_2solver_8hpp.html" target="_top" xlink:title=" ">
<polygon fill="white" stroke="#666666" points="657.75,-311.5 521,-311.5 521,-278 657.75,-278 657.75,-311.5"/>
<text text-anchor="start" x="529" y="-298" font-family="Helvetica,sans-Serif" font-size="10.00">include/proxsuite/proxqp</text>
<text text-anchor="middle" x="589.38" y="-285.25" font-family="Helvetica,sans-Serif" font-size="10.00">/sparse/solver.hpp</text>
</a>
</g>
</g>
<!-- Node1&#45;&gt;Node11 -->
<g id="edge13_Node000001_Node000011" class="edge">
<title>Node1&#45;&gt;Node11</title>
<g id="a_edge13_Node000001_Node000011"><a xlink:title=" ">
<path fill="none" stroke="#63b8ff" d="M517.91,-544.43C521.45,-527.64 526.32,-505.73 531.38,-486.5 548.55,-421.22 573.21,-344.72 583.99,-311.96"/>
<polygon fill="#63b8ff" stroke="#63b8ff" points="514.5,-543.65 515.89,-554.15 521.35,-545.07 514.5,-543.65"/>
</a>
</g>
</g>
<!-- Node12 -->
<g id="Node000012" class="node">
<title>Node12</title>
<g id="a_Node000012"><a xlink:href="proxqp_2sparse_2wrapper_8hpp.html" target="_top" xlink:title=" ">
<polygon fill="white" stroke="#666666" points="561.75,-242 425,-242 425,-208.5 561.75,-208.5 561.75,-242"/>
<text text-anchor="start" x="433" y="-228.5" font-family="Helvetica,sans-Serif" font-size="10.00">include/proxsuite/proxqp</text>
<text text-anchor="middle" x="493.38" y="-215.75" font-family="Helvetica,sans-Serif" font-size="10.00">/sparse/wrapper.hpp</text>
</a>
</g>
</g>
<!-- Node1&#45;&gt;Node12 -->
<g id="edge28_Node000001_Node000012" class="edge">
<title>Node1&#45;&gt;Node12</title>
<g id="a_edge28_Node000001_Node000012"><a xlink:title=" ">
<path fill="none" stroke="#63b8ff" d="M500.38,-545.13C489.24,-517.95 474.38,-474.27 474.38,-434.75 474.38,-434.75 474.38,-434.75 474.38,-363.25 474.38,-319.07 484.19,-267.62 489.71,-242.18"/>
<polygon fill="#63b8ff" stroke="#63b8ff" points="497.15,-546.47 504.28,-554.31 503.59,-543.74 497.15,-546.47"/>
</a>
</g>
</g>
<!-- Node14 -->
<g id="Node000014" class="node">
<title>Node14</title>
<g id="a_Node000014"><a xlink:href="sparse_2utils_8hpp.html" target="_top" xlink:title=" ">
<polygon fill="white" stroke="#666666" points="849.75,-450.5 713,-450.5 713,-417 849.75,-417 849.75,-450.5"/>
<text text-anchor="start" x="721" y="-437" font-family="Helvetica,sans-Serif" font-size="10.00">include/proxsuite/proxqp</text>
<text text-anchor="middle" x="781.38" y="-424.25" font-family="Helvetica,sans-Serif" font-size="10.00">/sparse/utils.hpp</text>
</a>
</g>
</g>
<!-- Node1&#45;&gt;Node14 -->
<g id="edge18_Node000001_Node000014" class="edge">
<title>Node1&#45;&gt;Node14</title>
<g id="a_edge18_Node000001_Node000014"><a xlink:title=" ">
<path fill="none" stroke="#63b8ff" d="M592.32,-564.57C632.8,-557.87 681.13,-544.95 718.38,-520 744.52,-502.49 763.85,-470.33 773.8,-450.91"/>
<polygon fill="#63b8ff" stroke="#63b8ff" points="591.97,-561.08 582.62,-566.06 593.04,-568 591.97,-561.08"/>
</a>
</g>
</g>
<!-- Node15 -->
<g id="Node000015" class="node">
<title>Node15</title>
<g id="a_Node000015"><a xlink:href="proxqp_2sparse_2workspace_8hpp.html" target="_top" xlink:title=" ">
<polygon fill="white" stroke="#666666" points="753.75,-381 617,-381 617,-347.5 753.75,-347.5 753.75,-381"/>
<text text-anchor="start" x="625" y="-367.5" font-family="Helvetica,sans-Serif" font-size="10.00">include/proxsuite/proxqp</text>
<text text-anchor="middle" x="685.38" y="-354.75" font-family="Helvetica,sans-Serif" font-size="10.00">/sparse/workspace.hpp</text>
</a>
</g>
</g>
<!-- Node1&#45;&gt;Node15 -->
<g id="edge27_Node000001_Node000015" class="edge">
<title>Node1&#45;&gt;Node15</title>
<g id="a_edge27_Node000001_Node000015"><a xlink:title=" ">
<path fill="none" stroke="#63b8ff" d="M592.08,-557.46C631.7,-548.56 673.61,-535.8 685.38,-520 716.34,-478.41 700.62,-411.57 691,-381.2"/>
<polygon fill="#63b8ff" stroke="#63b8ff" points="591.5,-554 582.47,-559.54 592.98,-560.84 591.5,-554"/>
</a>
</g>
</g>
<!-- Node16 -->
<g id="Node000016" class="node">
<title>Node16</title>
<g id="a_Node000016"><a xlink:href="sparse_2views_8hpp.html" target="_top" xlink:title=" ">
<polygon fill="white" stroke="#666666" points="676.75,-520 540,-520 540,-486.5 676.75,-486.5 676.75,-520"/>
<text text-anchor="start" x="548" y="-506.5" font-family="Helvetica,sans-Serif" font-size="10.00">include/proxsuite/proxqp</text>
<text text-anchor="middle" x="608.38" y="-493.75" font-family="Helvetica,sans-Serif" font-size="10.00">/sparse/views.hpp</text>
</a>
</g>
</g>
<!-- Node1&#45;&gt;Node16 -->
<g id="edge23_Node000001_Node000016" class="edge">
<title>Node1&#45;&gt;Node16</title>
<g id="a_edge23_Node000001_Node000016"><a xlink:title=" ">
<path fill="none" stroke="#63b8ff" d="M544.5,-549.16C557.92,-539.73 573.2,-528.98 585.45,-520.37"/>
<polygon fill="#63b8ff" stroke="#63b8ff" points="542.53,-546.27 536.36,-554.88 546.56,-551.99 542.53,-546.27"/>
</a>
</g>
</g>
<!-- Node17 -->
<g id="Node000017" class="node">
<title>Node17</title>
<g id="a_Node000017"><a xlink:href="serialization_2results_8hpp.html" target="_top" xlink:title=" ">
<polygon fill="white" stroke="#666666" points="933.88,-520 770.88,-520 770.88,-486.5 933.88,-486.5 933.88,-520"/>
<text text-anchor="start" x="778.88" y="-506.5" font-family="Helvetica,sans-Serif" font-size="10.00">include/proxsuite/serialization</text>
<text text-anchor="middle" x="852.38" y="-493.75" font-family="Helvetica,sans-Serif" font-size="10.00">/results.hpp</text>
</a>
</g>
</g>
<!-- Node1&#45;&gt;Node17 -->
<g id="edge29_Node000001_Node000017" class="edge">
<title>Node1&#45;&gt;Node17</title>
<g id="a_edge29_Node000001_Node000017"><a xlink:title=" ">
<path fill="none" stroke="#63b8ff" d="M592.38,-555.87C646.12,-545.2 716.73,-531.18 770.8,-520.45"/>
<polygon fill="#63b8ff" stroke="#63b8ff" points="591.79,-552.42 582.66,-557.8 593.15,-559.28 591.79,-552.42"/>
</a>
</g>
</g>
<!-- Node3 -->
<g id="Node000003" class="node">
<title>Node3</title>
<g id="a_Node000003"><a xlink:href="dense_2solver_8hpp.html" target="_top" xlink:title=" ">
<polygon fill="white" stroke="#666666" points="308.75,-450.5 172,-450.5 172,-417 308.75,-417 308.75,-450.5"/>
<text text-anchor="start" x="180" y="-437" font-family="Helvetica,sans-Serif" font-size="10.00">include/proxsuite/proxqp</text>
<text text-anchor="middle" x="240.38" y="-424.25" font-family="Helvetica,sans-Serif" font-size="10.00">/dense/solver.hpp</text>
</a>
</g>
</g>
<!-- Node2&#45;&gt;Node3 -->
<g id="edge2_Node000002_Node000003" class="edge">
<title>Node2&#45;&gt;Node3</title>
<g id="a_edge2_Node000002_Node000003"><a xlink:title=" ">
<path fill="none" stroke="#63b8ff" d="M335.19,-481.13C315.15,-471.33 291.72,-459.86 273.16,-450.79"/>
<polygon fill="#63b8ff" stroke="#63b8ff" points="333.44,-484.17 343.96,-485.42 336.52,-477.88 333.44,-484.17"/>
</a>
</g>
</g>
<!-- Node4 -->
<g id="Node000004" class="node">
<title>Node4</title>
<g id="a_Node000004"><a xlink:href="proxqp_2dense_2wrapper_8hpp.html" target="_top" xlink:title=" ">
<polygon fill="white" stroke="#666666" points="399.75,-172.5 263,-172.5 263,-139 399.75,-139 399.75,-172.5"/>
<text text-anchor="start" x="271" y="-159" font-family="Helvetica,sans-Serif" font-size="10.00">include/proxsuite/proxqp</text>
<text text-anchor="middle" x="331.38" y="-146.25" font-family="Helvetica,sans-Serif" font-size="10.00">/dense/wrapper.hpp</text>
</a>
</g>
</g>
<!-- Node2&#45;&gt;Node4 -->
<g id="edge8_Node000002_Node000004" class="edge">
<title>Node2&#45;&gt;Node4</title>
<g id="a_edge8_Node000002_Node000004"><a xlink:title=" ">
<path fill="none" stroke="#63b8ff" d="M370.82,-475.35C363.78,-447.9 354.38,-403.95 354.38,-365.25 354.38,-365.25 354.38,-365.25 354.38,-293.75 354.38,-249.37 342.49,-198.01 335.81,-172.63"/>
<polygon fill="#63b8ff" stroke="#63b8ff" points="367.41,-476.15 373.36,-484.92 374.18,-474.35 367.41,-476.15"/>
</a>
</g>
</g>
<!-- Node3&#45;&gt;Node4 -->
<g id="edge3_Node000003_Node000004" class="edge">
<title>Node3&#45;&gt;Node4</title>
<g id="a_edge3_Node000003_Node000004"><a xlink:title=" ">
<path fill="none" stroke="#63b8ff" d="M249.15,-406.12C267.83,-349.49 311.01,-218.52 326.07,-172.83"/>
<polygon fill="#63b8ff" stroke="#63b8ff" points="245.94,-404.69 246.13,-415.28 252.59,-406.88 245.94,-404.69"/>
</a>
</g>
</g>
<!-- Node5 -->
<g id="Node000005" class="node">
<title>Node5</title>
<g id="a_Node000005"><a xlink:href="compute__ECJ_8hpp.html" target="_top" xlink:title=" ">
<polygon fill="white" stroke="#666666" points="231.75,-103 95,-103 95,-69.5 231.75,-69.5 231.75,-103"/>
<text text-anchor="start" x="103" y="-89.5" font-family="Helvetica,sans-Serif" font-size="10.00">include/proxsuite/proxqp</text>
<text text-anchor="middle" x="163.38" y="-76.75" font-family="Helvetica,sans-Serif" font-size="10.00">/dense/compute_ECJ.hpp</text>
</a>
</g>
</g>
<!-- Node4&#45;&gt;Node5 -->
<g id="edge4_Node000004_Node000005" class="edge">
<title>Node4&#45;&gt;Node5</title>
<g id="a_edge4_Node000004_Node000005"><a xlink:title=" ">
<path fill="none" stroke="#63b8ff" d="M280.52,-134.32C255.86,-124.41 226.66,-112.68 203.58,-103.4"/>
<polygon fill="#63b8ff" stroke="#63b8ff" points="279.15,-137.54 289.73,-138.02 281.76,-131.04 279.15,-137.54"/>
</a>
</g>
</g>
<!-- Node7 -->
<g id="Node000007" class="node">
<title>Node7</title>
<g id="a_Node000007"><a xlink:href="dense_8hpp.html" target="_top" xlink:title=" ">
<polygon fill="white" stroke="#666666" points="386.75,-103 250,-103 250,-69.5 386.75,-69.5 386.75,-103"/>
<text text-anchor="start" x="258" y="-89.5" font-family="Helvetica,sans-Serif" font-size="10.00">include/proxsuite/proxqp</text>
<text text-anchor="middle" x="318.38" y="-76.75" font-family="Helvetica,sans-Serif" font-size="10.00">/dense/dense.hpp</text>
</a>
</g>
</g>
<!-- Node4&#45;&gt;Node7 -->
<g id="edge6_Node000004_Node000007" class="edge">
<title>Node4&#45;&gt;Node7</title>
<g id="a_edge6_Node000004_Node000007"><a xlink:title=" ">
<path fill="none" stroke="#63b8ff" d="M326.15,-127.6C324.55,-119.29 322.84,-110.43 321.43,-103.13"/>
<polygon fill="#63b8ff" stroke="#63b8ff" points="322.68,-128.11 328.01,-137.27 329.55,-126.79 322.68,-128.11"/>
</a>
</g>
</g>
<!-- Node8 -->
<g id="Node000008" class="node">
<title>Node8</title>
<g id="a_Node000008"><a xlink:href="serialization_2wrapper_8hpp.html" target="_top" xlink:title=" ">
<polygon fill="white" stroke="#666666" points="567.88,-103 404.88,-103 404.88,-69.5 567.88,-69.5 567.88,-103"/>
<text text-anchor="start" x="412.88" y="-89.5" font-family="Helvetica,sans-Serif" font-size="10.00">include/proxsuite/serialization</text>
<text text-anchor="middle" x="486.38" y="-76.75" font-family="Helvetica,sans-Serif" font-size="10.00">/wrapper.hpp</text>
</a>
</g>
</g>
<!-- Node4&#45;&gt;Node8 -->
<g id="edge7_Node000004_Node000008" class="edge">
<title>Node4&#45;&gt;Node8</title>
<g id="a_edge7_Node000004_Node000008"><a xlink:title=" ">
<path fill="none" stroke="#63b8ff" d="M378.91,-134.05C401.53,-124.2 428.18,-112.59 449.28,-103.4"/>
<polygon fill="#63b8ff" stroke="#63b8ff" points="377.66,-130.78 369.89,-137.98 380.45,-137.19 377.66,-130.78"/>
</a>
</g>
</g>
<!-- Node6 -->
<g id="Node000006" class="node">
<title>Node6</title>
<g id="a_Node000006"><a xlink:href="qp__solve_8hpp.html" target="_top" xlink:title=" ">
<polygon fill="white" stroke="#666666" points="447.75,-33.5 311,-33.5 311,0 447.75,0 447.75,-33.5"/>
<text text-anchor="start" x="319" y="-20" font-family="Helvetica,sans-Serif" font-size="10.00">include/proxsuite/proxqp</text>
<text text-anchor="middle" x="379.38" y="-7.25" font-family="Helvetica,sans-Serif" font-size="10.00">/parallel/qp_solve.hpp</text>
</a>
</g>
</g>
<!-- Node5&#45;&gt;Node6 -->
<g id="edge5_Node000005_Node000006" class="edge">
<title>Node5&#45;&gt;Node6</title>
<g id="a_edge5_Node000005_Node000006"><a xlink:title=" ">
<path fill="none" stroke="#63b8ff" d="M225.79,-65.74C258.1,-55.65 297.08,-43.47 327.69,-33.9"/>
<polygon fill="#63b8ff" stroke="#63b8ff" points="225.06,-62.31 216.56,-68.63 227.15,-68.99 225.06,-62.31"/>
</a>
</g>
</g>
<!-- Node9&#45;&gt;Node3 -->
<g id="edge10_Node000009_Node000003" class="edge">
<title>Node9&#45;&gt;Node3</title>
<g id="a_edge10_Node000009_Node000003"><a xlink:title=" ">
<path fill="none" stroke="#63b8ff" d="M230.21,-475.1C232.31,-466.79 234.54,-457.93 236.38,-450.63"/>
<polygon fill="#63b8ff" stroke="#63b8ff" points="226.82,-474.23 227.77,-484.79 233.61,-475.94 226.82,-474.23"/>
</a>
</g>
</g>
<!-- Node10&#45;&gt;Node3 -->
<g id="edge12_Node000010_Node000003" class="edge">
<title>Node10&#45;&gt;Node3</title>
<g id="a_edge12_Node000010_Node000003"><a xlink:title=" ">
<path fill="none" stroke="#63b8ff" d="M120.1,-481.95C145.42,-472.01 175.48,-460.22 199.22,-450.9"/>
<polygon fill="#63b8ff" stroke="#63b8ff" points="119.01,-478.62 110.98,-485.53 121.57,-485.13 119.01,-478.62"/>
</a>
</g>
</g>
<!-- Node11&#45;&gt;Node12 -->
<g id="edge14_Node000011_Node000012" class="edge">
<title>Node11&#45;&gt;Node12</title>
<g id="a_edge14_Node000011_Node000012"><a xlink:title=" ">
<path fill="none" stroke="#63b8ff" d="M557.25,-271.16C543.83,-261.73 528.55,-250.98 516.3,-242.37"/>
<polygon fill="#63b8ff" stroke="#63b8ff" points="555.19,-273.99 565.39,-276.88 559.22,-268.27 555.19,-273.99"/>
</a>
</g>
</g>
<!-- Node12&#45;&gt;Node4 -->
<g id="edge15_Node000012_Node000004" class="edge">
<title>Node12&#45;&gt;Node4</title>
<g id="a_edge15_Node000012_Node000004"><a xlink:title=" ">
<path fill="none" stroke="#63b8ff" d="M444.02,-203.68C420.3,-193.8 392.3,-182.13 370.14,-172.9"/>
<polygon fill="#63b8ff" stroke="#63b8ff" points="442.6,-206.88 453.17,-207.5 445.29,-200.42 442.6,-206.88"/>
</a>
</g>
</g>
<!-- Node12&#45;&gt;Node6 -->
<g id="edge16_Node000012_Node000006" class="edge">
<title>Node12&#45;&gt;Node6</title>
<g id="a_edge16_Node000012_Node000006"><a xlink:title=" ">
<path fill="none" stroke="#63b8ff" d="M540.44,-202.01C552.05,-194.28 563.2,-184.48 570.38,-172.5 593.95,-133.14 605.42,-105.82 577.38,-69.5 561.44,-48.87 498.71,-34.88 448.07,-26.71"/>
<polygon fill="#63b8ff" stroke="#63b8ff" points="538.64,-199.01 531.95,-207.22 542.3,-204.97 538.64,-199.01"/>
</a>
</g>
</g>
<!-- Node13 -->
<g id="Node000013" class="node">
<title>Node13</title>
<g id="a_Node000013"><a xlink:href="sparse_8hpp.html" target="_top" xlink:title=" ">
<polygon fill="white" stroke="#666666" points="561.75,-172.5 425,-172.5 425,-139 561.75,-139 561.75,-172.5"/>
<text text-anchor="start" x="433" y="-159" font-family="Helvetica,sans-Serif" font-size="10.00">include/proxsuite/proxqp</text>
<text text-anchor="middle" x="493.38" y="-146.25" font-family="Helvetica,sans-Serif" font-size="10.00">/sparse/sparse.hpp</text>
</a>
</g>
</g>
<!-- Node12&#45;&gt;Node13 -->
<g id="edge17_Node000012_Node000013" class="edge">
<title>Node12&#45;&gt;Node13</title>
<g id="a_edge17_Node000012_Node000013"><a xlink:title=" ">
<path fill="none" stroke="#63b8ff" d="M493.38,-196.81C493.38,-188.59 493.38,-179.84 493.38,-172.63"/>
<polygon fill="#63b8ff" stroke="#63b8ff" points="489.88,-196.74 493.38,-206.74 496.88,-196.74 489.88,-196.74"/>
</a>
</g>
</g>
<!-- Node14&#45;&gt;Node11 -->
<g id="edge19_Node000014_Node000011" class="edge">
<title>Node14&#45;&gt;Node11</title>
<g id="a_edge19_Node000014_Node000011"><a xlink:title=" ">
<path fill="none" stroke="#63b8ff" d="M782.11,-405.45C781.13,-386.89 776.78,-362.98 762.38,-347.5 735.67,-318.82 693.8,-305.81 657.94,-300"/>
<polygon fill="#63b8ff" stroke="#63b8ff" points="778.6,-405.3 782.3,-415.23 785.6,-405.16 778.6,-405.3"/>
</a>
</g>
</g>
<!-- Node14&#45;&gt;Node15 -->
<g id="edge20_Node000014_Node000015" class="edge">
<title>Node14&#45;&gt;Node15</title>
<g id="a_edge20_Node000014_Node000015"><a xlink:title=" ">
<path fill="none" stroke="#63b8ff" d="M743,-410.27C728.9,-400.78 713.68,-389.95 702.34,-381.29"/>
<polygon fill="#63b8ff" stroke="#63b8ff" points="740.99,-413.14 751.26,-415.75 744.86,-407.3 740.99,-413.14"/>
</a>
</g>
</g>
<!-- Node15&#45;&gt;Node11 -->
<g id="edge21_Node000015_Node000011" class="edge">
<title>Node15&#45;&gt;Node11</title>
<g id="a_edge21_Node000015_Node000011"><a xlink:title=" ">
<path fill="none" stroke="#63b8ff" d="M653.25,-340.66C639.83,-331.23 624.55,-320.48 612.3,-311.87"/>
<polygon fill="#63b8ff" stroke="#63b8ff" points="651.19,-343.49 661.39,-346.38 655.22,-337.77 651.19,-343.49"/>
</a>
</g>
</g>
<!-- Node15&#45;&gt;Node14 -->
<g id="edge22_Node000015_Node000014" class="edge">
<title>Node15&#45;&gt;Node14</title>
<g id="a_edge22_Node000015_Node000014"><a xlink:title=" ">
<path fill="none" stroke="#63b8ff" d="M723.69,-387.69C737.83,-397.21 753.1,-408.07 764.46,-416.75"/>
<polygon fill="#63b8ff" stroke="#63b8ff" points="725.68,-384.81 715.41,-382.2 721.81,-390.64 725.68,-384.81"/>
</a>
</g>
</g>
<!-- Node16&#45;&gt;Node11 -->
<g id="edge24_Node000016_Node000011" class="edge">
<title>Node16&#45;&gt;Node11</title>
<g id="a_edge24_Node000016_Node000011"><a xlink:title=" ">
<path fill="none" stroke="#63b8ff" d="M605.83,-474.59C601.8,-430.84 594.09,-347.02 590.86,-311.88"/>
<polygon fill="#63b8ff" stroke="#63b8ff" points="602.34,-474.9 606.75,-484.54 609.31,-474.26 602.34,-474.9"/>
</a>
</g>
</g>
<!-- Node16&#45;&gt;Node14 -->
<g id="edge25_Node000016_Node000014" class="edge">
<title>Node16&#45;&gt;Node14</title>
<g id="a_edge25_Node000016_Node000014"><a xlink:title=" ">
<path fill="none" stroke="#63b8ff" d="M660.4,-481.95C685.87,-472.01 716.1,-460.22 739.98,-450.9"/>
<polygon fill="#63b8ff" stroke="#63b8ff" points="659.27,-478.64 651.22,-485.53 661.81,-485.16 659.27,-478.64"/>
</a>
</g>
</g>
<!-- Node16&#45;&gt;Node15 -->
<g id="edge26_Node000016_Node000015" class="edge">
<title>Node16&#45;&gt;Node15</title>
<g id="a_edge26_Node000016_Node000015"><a xlink:title=" ">
<path fill="none" stroke="#63b8ff" d="M622.92,-476.37C638.68,-448.33 663.33,-404.48 676.45,-381.13"/>
<polygon fill="#63b8ff" stroke="#63b8ff" points="619.95,-474.51 618.1,-484.95 626.05,-477.94 619.95,-474.51"/>
</a>
</g>
</g>
</g>
</svg>
