<?xml version="1.0" encoding="UTF-8" standalone="no"?>
<!DOCTYPE svg PUBLIC "-//W3C//DTD SVG 1.1//EN"
 "http://www.w3.org/Graphics/SVG/1.1/DTD/svg11.dtd">
<!-- Generated by graphviz version 9.0.0 (20231125.0833)
 -->
<!-- Title: include/proxsuite/proxqp/sparse/fwd.hpp Pages: 1 -->
<svg width="2318pt" height="819pt"
 viewBox="0.00 0.00 2318.45 818.75" xmlns="http://www.w3.org/2000/svg" xmlns:xlink="http://www.w3.org/1999/xlink">
<g id="graph0" class="graph" transform="scale(1 1) rotate(0) translate(4 814.75)">
<title>include/proxsuite/proxqp/sparse/fwd.hpp</title>
<!-- Node1 -->
<g id="Node000001" class="node">
<title>Node1</title>
<g id="a_Node000001"><a xlink:title=" ">
<polygon fill="#999999" stroke="#666666" points="641.75,-810.75 505,-810.75 505,-777.25 641.75,-777.25 641.75,-810.75"/>
<text text-anchor="start" x="513" y="-797.25" font-family="Helvetica,sans-Serif" font-size="10.00">include/proxsuite/proxqp</text>
<text text-anchor="middle" x="573.38" y="-784.5" font-family="Helvetica,sans-Serif" font-size="10.00">/sparse/fwd.hpp</text>
</a>
</g>
</g>
<!-- Node2 -->
<g id="Node000002" class="node">
<title>Node2</title>
<g id="a_Node000002"><a xlink:href="proxqp_2results_8hpp.html" target="_top" xlink:title=" ">
<polygon fill="white" stroke="#666666" points="1260.75,-602.25 1124,-602.25 1124,-568.75 1260.75,-568.75 1260.75,-602.25"/>
<text text-anchor="start" x="1132" y="-588.75" font-family="Helvetica,sans-Serif" font-size="10.00">include/proxsuite/proxqp</text>
<text text-anchor="middle" x="1192.38" y="-576" font-family="Helvetica,sans-Serif" font-size="10.00">/results.hpp</text>
</a>
</g>
</g>
<!-- Node1&#45;&gt;Node2 -->
<g id="edge1_Node000001_Node000002" class="edge">
<title>Node1&#45;&gt;Node2</title>
<g id="a_edge1_Node000001_Node000002"><a xlink:title=" ">
<path fill="none" stroke="#63b8ff" d="M632.56,-773.26C754.55,-732.56 1031.93,-640.03 1144.03,-602.63"/>
<polygon fill="#63b8ff" stroke="#63b8ff" points="631.76,-769.83 623.38,-776.32 633.98,-776.47 631.76,-769.83"/>
</a>
</g>
</g>
<!-- Node12 -->
<g id="Node000012" class="node">
<title>Node12</title>
<g id="a_Node000012"><a xlink:href="sparse_2solver_8hpp.html" target="_top" xlink:title=" ">
<polygon fill="white" stroke="#666666" points="898.75,-311.5 762,-311.5 762,-278 898.75,-278 898.75,-311.5"/>
<text text-anchor="start" x="770" y="-298" font-family="Helvetica,sans-Serif" font-size="10.00">include/proxsuite/proxqp</text>
<text text-anchor="middle" x="830.38" y="-285.25" font-family="Helvetica,sans-Serif" font-size="10.00">/sparse/solver.hpp</text>
</a>
</g>
</g>
<!-- Node1&#45;&gt;Node12 -->
<g id="edge67_Node000001_Node000012" class="edge">
<title>Node1&#45;&gt;Node12</title>
<g id="a_edge67_Node000001_Node000012"><a xlink:title=" ">
<path fill="none" stroke="#63b8ff" d="M493.7,-782.81C374.7,-765.34 164.38,-724.74 164.38,-656 164.38,-656 164.38,-656 164.38,-432.75 164.38,-372.25 591.45,-320.79 761.61,-302.69"/>
<polygon fill="#63b8ff" stroke="#63b8ff" points="493.02,-786.25 503.42,-784.22 494.02,-779.32 493.02,-786.25"/>
</a>
</g>
</g>
<!-- Node19 -->
<g id="Node000019" class="node">
<title>Node19</title>
<g id="a_Node000019"><a xlink:href="proxqp_2settings_8hpp.html" target="_top" xlink:title=" ">
<polygon fill="white" stroke="#666666" points="1410.75,-671.75 1274,-671.75 1274,-638.25 1410.75,-638.25 1410.75,-671.75"/>
<text text-anchor="start" x="1282" y="-658.25" font-family="Helvetica,sans-Serif" font-size="10.00">include/proxsuite/proxqp</text>
<text text-anchor="middle" x="1342.38" y="-645.5" font-family="Helvetica,sans-Serif" font-size="10.00">/settings.hpp</text>
</a>
</g>
</g>
<!-- Node1&#45;&gt;Node19 -->
<g id="edge31_Node000001_Node000019" class="edge">
<title>Node1&#45;&gt;Node19</title>
<g id="a_edge31_Node000001_Node000019"><a xlink:title=" ">
<path fill="none" stroke="#63b8ff" d="M652.98,-778.82C804.29,-751.86 1131,-693.66 1273.53,-668.26"/>
<polygon fill="#63b8ff" stroke="#63b8ff" points="652.68,-775.32 643.45,-780.52 653.91,-782.21 652.68,-775.32"/>
</a>
</g>
</g>
<!-- Node25 -->
<g id="Node000025" class="node">
<title>Node25</title>
<g id="a_Node000025"><a xlink:href="sparse_2helpers_8hpp.html" target="_top" xlink:title=" ">
<polygon fill="white" stroke="#666666" points="136.75,-381 0,-381 0,-347.5 136.75,-347.5 136.75,-381"/>
<text text-anchor="start" x="8" y="-367.5" font-family="Helvetica,sans-Serif" font-size="10.00">include/proxsuite/proxqp</text>
<text text-anchor="middle" x="68.38" y="-354.75" font-family="Helvetica,sans-Serif" font-size="10.00">/sparse/helpers.hpp</text>
</a>
</g>
</g>
<!-- Node1&#45;&gt;Node25 -->
<g id="edge51_Node000001_Node000025" class="edge">
<title>Node1&#45;&gt;Node25</title>
<g id="a_edge51_Node000001_Node000025"><a xlink:title=" ">
<path fill="none" stroke="#63b8ff" d="M493.25,-791.33C386.75,-787.74 205.58,-776.49 150.38,-741.25 112.77,-717.24 97.38,-700.61 97.38,-656 97.38,-656 97.38,-656 97.38,-508.62 97.38,-461.64 82.23,-407.69 73.83,-381.38"/>
<polygon fill="#63b8ff" stroke="#63b8ff" points="492.96,-794.82 503.07,-791.64 493.18,-787.82 492.96,-794.82"/>
</a>
</g>
</g>
<!-- Node26 -->
<g id="Node000026" class="node">
<title>Node26</title>
<g id="a_Node000026"><a xlink:href="proxqp_2sparse_2model_8hpp.html" target="_top" xlink:title=" ">
<polygon fill="white" stroke="#666666" points="641.75,-671.75 505,-671.75 505,-638.25 641.75,-638.25 641.75,-671.75"/>
<text text-anchor="start" x="513" y="-658.25" font-family="Helvetica,sans-Serif" font-size="10.00">include/proxsuite/proxqp</text>
<text text-anchor="middle" x="573.38" y="-645.5" font-family="Helvetica,sans-Serif" font-size="10.00">/sparse/model.hpp</text>
</a>
</g>
</g>
<!-- Node1&#45;&gt;Node26 -->
<g id="edge53_Node000001_Node000026" class="edge">
<title>Node1&#45;&gt;Node26</title>
<g id="a_edge53_Node000001_Node000026"><a xlink:title=" ">
<path fill="none" stroke="#63b8ff" d="M573.38,-765.62C573.38,-737.54 573.38,-694.82 573.38,-671.88"/>
<polygon fill="#63b8ff" stroke="#63b8ff" points="569.88,-765.5 573.38,-775.5 576.88,-765.5 569.88,-765.5"/>
</a>
</g>
</g>
<!-- Node30 -->
<g id="Node000030" class="node">
<title>Node30</title>
<g id="a_Node000030"><a xlink:href="proxqp_2sparse_2preconditioner_2ruiz_8hpp.html" target="_top" xlink:title=" ">
<polygon fill="white" stroke="#666666" points="366.75,-532.75 230,-532.75 230,-486.5 366.75,-486.5 366.75,-532.75"/>
<text text-anchor="start" x="238" y="-519.25" font-family="Helvetica,sans-Serif" font-size="10.00">include/proxsuite/proxqp</text>
<text text-anchor="start" x="238" y="-506.5" font-family="Helvetica,sans-Serif" font-size="10.00">/sparse/preconditioner</text>
<text text-anchor="middle" x="298.38" y="-493.75" font-family="Helvetica,sans-Serif" font-size="10.00">/ruiz.hpp</text>
</a>
</g>
</g>
<!-- Node1&#45;&gt;Node30 -->
<g id="edge64_Node000001_Node000030" class="edge">
<title>Node1&#45;&gt;Node30</title>
<g id="a_edge64_Node000001_Node000030"><a xlink:title=" ">
<path fill="none" stroke="#63b8ff" d="M550.06,-769.06C497.72,-715.32 371.5,-585.71 320.4,-533.24"/>
<polygon fill="#63b8ff" stroke="#63b8ff" points="547.26,-771.2 556.75,-775.92 552.28,-766.32 547.26,-771.2"/>
</a>
</g>
</g>
<!-- Node31 -->
<g id="Node000031" class="node">
<title>Node31</title>
<g id="a_Node000031"><a xlink:href="status_8hpp.html" target="_top" xlink:title=" ">
<polygon fill="white" stroke="#666666" points="1344.75,-741.25 1208,-741.25 1208,-707.75 1344.75,-707.75 1344.75,-741.25"/>
<text text-anchor="start" x="1216" y="-727.75" font-family="Helvetica,sans-Serif" font-size="10.00">include/proxsuite/proxqp</text>
<text text-anchor="middle" x="1276.38" y="-715" font-family="Helvetica,sans-Serif" font-size="10.00">/status.hpp</text>
</a>
</g>
</g>
<!-- Node1&#45;&gt;Node31 -->
<g id="edge68_Node000001_Node000031" class="edge">
<title>Node1&#45;&gt;Node31</title>
<g id="a_edge68_Node000001_Node000031"><a xlink:title=" ">
<path fill="none" stroke="#63b8ff" d="M653.45,-785.31C792.65,-771.95 1076.85,-744.66 1207.67,-732.1"/>
<polygon fill="#63b8ff" stroke="#63b8ff" points="653.19,-781.82 643.57,-786.26 653.86,-788.79 653.19,-781.82"/>
</a>
</g>
</g>
<!-- Node3 -->
<g id="Node000003" class="node">
<title>Node3</title>
<g id="a_Node000003"><a xlink:href="dense_2helpers_8hpp.html" target="_top" xlink:title=" ">
<polygon fill="white" stroke="#666666" points="2097.75,-526.38 1961,-526.38 1961,-492.88 2097.75,-492.88 2097.75,-526.38"/>
<text text-anchor="start" x="1969" y="-512.88" font-family="Helvetica,sans-Serif" font-size="10.00">include/proxsuite/proxqp</text>
<text text-anchor="middle" x="2029.38" y="-500.12" font-family="Helvetica,sans-Serif" font-size="10.00">/dense/helpers.hpp</text>
</a>
</g>
</g>
<!-- Node2&#45;&gt;Node3 -->
<g id="edge2_Node000002_Node000003" class="edge">
<title>Node2&#45;&gt;Node3</title>
<g id="a_edge2_Node000002_Node000003"><a xlink:title=" ">
<path fill="none" stroke="#63b8ff" d="M1272.38,-568.49C1572.92,-531.46 1656.25,-582.43 1952.38,-532.75 1961.15,-531.28 1970.36,-529.16 1979.22,-526.81"/>
<polygon fill="#63b8ff" stroke="#63b8ff" points="1272.12,-565 1262.64,-569.72 1273,-571.94 1272.12,-565"/>
</a>
</g>
</g>
<!-- Node10 -->
<g id="Node000010" class="node">
<title>Node10</title>
<g id="a_Node000010"><a xlink:href="linesearch_8hpp.html" target="_top" xlink:title=" ">
<polygon fill="white" stroke="#666666" points="1606.75,-526.38 1470,-526.38 1470,-492.88 1606.75,-492.88 1606.75,-526.38"/>
<text text-anchor="start" x="1478" y="-512.88" font-family="Helvetica,sans-Serif" font-size="10.00">include/proxsuite/proxqp</text>
<text text-anchor="middle" x="1538.38" y="-500.12" font-family="Helvetica,sans-Serif" font-size="10.00">/dense/linesearch.hpp</text>
</a>
</g>
</g>
<!-- Node2&#45;&gt;Node10 -->
<g id="edge10_Node000002_Node000010" class="edge">
<title>Node2&#45;&gt;Node10</title>
<g id="a_edge10_Node000002_Node000010"><a xlink:title=" ">
<path fill="none" stroke="#63b8ff" d="M1272.05,-567.49C1331.82,-554.73 1412.81,-537.43 1469.73,-525.28"/>
<polygon fill="#63b8ff" stroke="#63b8ff" points="1271.68,-563.99 1262.63,-569.5 1273.14,-570.84 1271.68,-563.99"/>
</a>
</g>
</g>
<!-- Node11 -->
<g id="Node000011" class="node">
<title>Node11</title>
<g id="a_Node000011"><a xlink:href="dense_2utils_8hpp.html" target="_top" xlink:title=" ">
<polygon fill="white" stroke="#666666" points="1761.75,-526.38 1625,-526.38 1625,-492.88 1761.75,-492.88 1761.75,-526.38"/>
<text text-anchor="start" x="1633" y="-512.88" font-family="Helvetica,sans-Serif" font-size="10.00">include/proxsuite/proxqp</text>
<text text-anchor="middle" x="1693.38" y="-500.12" font-family="Helvetica,sans-Serif" font-size="10.00">/dense/utils.hpp</text>
</a>
</g>
</g>
<!-- Node2&#45;&gt;Node11 -->
<g id="edge12_Node000002_Node000011" class="edge">
<title>Node2&#45;&gt;Node11</title>
<g id="a_edge12_Node000002_Node000011"><a xlink:title=" ">
<path fill="none" stroke="#63b8ff" d="M1272.29,-568.4C1424.18,-545.99 1467.11,-561.27 1615.38,-532.75 1623.67,-531.15 1632.36,-529.09 1640.81,-526.87"/>
<polygon fill="#63b8ff" stroke="#63b8ff" points="1272.02,-564.9 1262.66,-569.86 1273.07,-571.82 1272.02,-564.9"/>
</a>
</g>
</g>
<!-- Node2&#45;&gt;Node12 -->
<g id="edge14_Node000002_Node000012" class="edge">
<title>Node2&#45;&gt;Node12</title>
<g id="a_edge14_Node000002_Node000012"><a xlink:title=" ">
<path fill="none" stroke="#63b8ff" d="M1264.45,-564.94C1292.28,-555.81 1319.37,-544.4 1327.38,-532.75 1339.02,-515.81 1337.02,-504.65 1327.38,-486.5 1245.71,-332.87 1015.4,-302.04 899.22,-296.48"/>
<polygon fill="#63b8ff" stroke="#63b8ff" points="1263.7,-561.51 1255.23,-567.87 1265.82,-568.18 1263.7,-561.51"/>
</a>
</g>
</g>
<!-- Node13 -->
<g id="Node000013" class="node">
<title>Node13</title>
<g id="a_Node000013"><a xlink:href="proxqp_2sparse_2wrapper_8hpp.html" target="_top" xlink:title=" ">
<polygon fill="white" stroke="#666666" points="1477.75,-242 1341,-242 1341,-208.5 1477.75,-208.5 1477.75,-242"/>
<text text-anchor="start" x="1349" y="-228.5" font-family="Helvetica,sans-Serif" font-size="10.00">include/proxsuite/proxqp</text>
<text text-anchor="middle" x="1409.38" y="-215.75" font-family="Helvetica,sans-Serif" font-size="10.00">/sparse/wrapper.hpp</text>
</a>
</g>
</g>
<!-- Node2&#45;&gt;Node13 -->
<g id="edge29_Node000002_Node000013" class="edge">
<title>Node2&#45;&gt;Node13</title>
<g id="a_edge29_Node000002_Node000013"><a xlink:title=" ">
<path fill="none" stroke="#63b8ff" d="M1265.44,-565.22C1298.55,-555.43 1333.22,-543.4 1346.38,-532.75 1385.72,-500.91 1404.38,-485.36 1404.38,-434.75 1404.38,-434.75 1404.38,-434.75 1404.38,-363.25 1404.38,-319.46 1406.96,-267.84 1408.41,-242.27"/>
<polygon fill="#63b8ff" stroke="#63b8ff" points="1264.85,-561.74 1256.22,-567.89 1266.8,-568.47 1264.85,-561.74"/>
</a>
</g>
</g>
<!-- Node15 -->
<g id="Node000015" class="node">
<title>Node15</title>
<g id="a_Node000015"><a xlink:href="sparse_2utils_8hpp.html" target="_top" xlink:title=" ">
<polygon fill="white" stroke="#666666" points="946.75,-450.5 810,-450.5 810,-417 946.75,-417 946.75,-450.5"/>
<text text-anchor="start" x="818" y="-437" font-family="Helvetica,sans-Serif" font-size="10.00">include/proxsuite/proxqp</text>
<text text-anchor="middle" x="878.38" y="-424.25" font-family="Helvetica,sans-Serif" font-size="10.00">/sparse/utils.hpp</text>
</a>
</g>
</g>
<!-- Node2&#45;&gt;Node15 -->
<g id="edge19_Node000002_Node000015" class="edge">
<title>Node2&#45;&gt;Node15</title>
<g id="a_edge19_Node000002_Node000015"><a xlink:title=" ">
<path fill="none" stroke="#63b8ff" d="M1164.93,-561.45C1137.64,-539.54 1093.84,-506.96 1051.38,-486.5 1018.47,-470.65 979.69,-458.5 947.19,-449.98"/>
<polygon fill="#63b8ff" stroke="#63b8ff" points="1162.38,-563.89 1172.35,-567.49 1166.8,-558.46 1162.38,-563.89"/>
</a>
</g>
</g>
<!-- Node16 -->
<g id="Node000016" class="node">
<title>Node16</title>
<g id="a_Node000016"><a xlink:href="proxqp_2sparse_2workspace_8hpp.html" target="_top" xlink:title=" ">
<polygon fill="white" stroke="#666666" points="994.75,-381 858,-381 858,-347.5 994.75,-347.5 994.75,-381"/>
<text text-anchor="start" x="866" y="-367.5" font-family="Helvetica,sans-Serif" font-size="10.00">include/proxsuite/proxqp</text>
<text text-anchor="middle" x="926.38" y="-354.75" font-family="Helvetica,sans-Serif" font-size="10.00">/sparse/workspace.hpp</text>
</a>
</g>
</g>
<!-- Node2&#45;&gt;Node16 -->
<g id="edge28_Node000002_Node000016" class="edge">
<title>Node2&#45;&gt;Node16</title>
<g id="a_edge28_Node000002_Node000016"><a xlink:title=" ">
<path fill="none" stroke="#63b8ff" d="M1271.47,-563.96C1286.08,-556.52 1299.5,-546.43 1308.38,-532.75 1319.56,-515.51 1320.51,-503.09 1308.38,-486.5 1271.09,-435.54 1094.66,-395.89 995.13,-377.13"/>
<polygon fill="#63b8ff" stroke="#63b8ff" points="1270.2,-560.69 1262.58,-568.06 1273.13,-567.05 1270.2,-560.69"/>
</a>
</g>
</g>
<!-- Node17 -->
<g id="Node000017" class="node">
<title>Node17</title>
<g id="a_Node000017"><a xlink:href="sparse_2views_8hpp.html" target="_top" xlink:title=" ">
<polygon fill="white" stroke="#666666" points="1042.75,-526.38 906,-526.38 906,-492.88 1042.75,-492.88 1042.75,-526.38"/>
<text text-anchor="start" x="914" y="-512.88" font-family="Helvetica,sans-Serif" font-size="10.00">include/proxsuite/proxqp</text>
<text text-anchor="middle" x="974.38" y="-500.12" font-family="Helvetica,sans-Serif" font-size="10.00">/sparse/views.hpp</text>
</a>
</g>
</g>
<!-- Node2&#45;&gt;Node17 -->
<g id="edge24_Node000002_Node000017" class="edge">
<title>Node2&#45;&gt;Node17</title>
<g id="a_edge24_Node000002_Node000017"><a xlink:title=" ">
<path fill="none" stroke="#63b8ff" d="M1133.98,-564.71C1098.97,-552.85 1055.02,-537.95 1022.1,-526.8"/>
<polygon fill="#63b8ff" stroke="#63b8ff" points="1132.51,-567.91 1143.1,-567.8 1134.75,-561.28 1132.51,-567.91"/>
</a>
</g>
</g>
<!-- Node18 -->
<g id="Node000018" class="node">
<title>Node18</title>
<g id="a_Node000018"><a xlink:href="serialization_2results_8hpp.html" target="_top" xlink:title=" ">
<polygon fill="white" stroke="#666666" points="1299.88,-526.38 1136.88,-526.38 1136.88,-492.88 1299.88,-492.88 1299.88,-526.38"/>
<text text-anchor="start" x="1144.88" y="-512.88" font-family="Helvetica,sans-Serif" font-size="10.00">include/proxsuite/serialization</text>
<text text-anchor="middle" x="1218.38" y="-500.12" font-family="Helvetica,sans-Serif" font-size="10.00">/results.hpp</text>
</a>
</g>
</g>
<!-- Node2&#45;&gt;Node18 -->
<g id="edge30_Node000002_Node000018" class="edge">
<title>Node2&#45;&gt;Node18</title>
<g id="a_edge30_Node000002_Node000018"><a xlink:title=" ">
<path fill="none" stroke="#63b8ff" d="M1201.78,-557.78C1205.45,-547.34 1209.54,-535.72 1212.74,-526.62"/>
<polygon fill="#63b8ff" stroke="#63b8ff" points="1198.54,-556.45 1198.52,-567.04 1205.14,-558.77 1198.54,-556.45"/>
</a>
</g>
</g>
<!-- Node4 -->
<g id="Node000004" class="node">
<title>Node4</title>
<g id="a_Node000004"><a xlink:href="dense_2solver_8hpp.html" target="_top" xlink:title=" ">
<polygon fill="white" stroke="#666666" points="1761.75,-450.5 1625,-450.5 1625,-417 1761.75,-417 1761.75,-450.5"/>
<text text-anchor="start" x="1633" y="-437" font-family="Helvetica,sans-Serif" font-size="10.00">include/proxsuite/proxqp</text>
<text text-anchor="middle" x="1693.38" y="-424.25" font-family="Helvetica,sans-Serif" font-size="10.00">/dense/solver.hpp</text>
</a>
</g>
</g>
<!-- Node3&#45;&gt;Node4 -->
<g id="edge3_Node000003_Node000004" class="edge">
<title>Node3&#45;&gt;Node4</title>
<g id="a_edge3_Node000003_Node000004"><a xlink:title=" ">
<path fill="none" stroke="#63b8ff" d="M1964.45,-489.56C1960.37,-488.49 1956.32,-487.46 1952.38,-486.5 1888.33,-470.93 1814.54,-456.53 1762.15,-446.89"/>
<polygon fill="#63b8ff" stroke="#63b8ff" points="1963.23,-492.85 1973.8,-492.07 1965.05,-486.1 1963.23,-492.85"/>
</a>
</g>
</g>
<!-- Node5 -->
<g id="Node000005" class="node">
<title>Node5</title>
<g id="a_Node000005"><a xlink:href="proxqp_2dense_2wrapper_8hpp.html" target="_top" xlink:title=" ">
<polygon fill="white" stroke="#666666" points="1761.75,-172.5 1625,-172.5 1625,-139 1761.75,-139 1761.75,-172.5"/>
<text text-anchor="start" x="1633" y="-159" font-family="Helvetica,sans-Serif" font-size="10.00">include/proxsuite/proxqp</text>
<text text-anchor="middle" x="1693.38" y="-146.25" font-family="Helvetica,sans-Serif" font-size="10.00">/dense/wrapper.hpp</text>
</a>
</g>
</g>
<!-- Node3&#45;&gt;Node5 -->
<g id="edge9_Node000003_Node000005" class="edge">
<title>Node3&#45;&gt;Node5</title>
<g id="a_edge9_Node000003_Node000005"><a xlink:title=" ">
<path fill="none" stroke="#63b8ff" d="M1993.03,-486.32C1957.71,-461.54 1909.38,-417.99 1909.38,-365.25 1909.38,-365.25 1909.38,-365.25 1909.38,-293.75 1909.38,-222.81 1825.26,-187.06 1762.02,-170.2"/>
<polygon fill="#63b8ff" stroke="#63b8ff" points="1990.65,-488.93 2000.89,-491.65 1994.59,-483.14 1990.65,-488.93"/>
</a>
</g>
</g>
<!-- Node4&#45;&gt;Node5 -->
<g id="edge4_Node000004_Node000005" class="edge">
<title>Node4&#45;&gt;Node5</title>
<g id="a_edge4_Node000004_Node000005"><a xlink:title=" ">
<path fill="none" stroke="#63b8ff" d="M1693.38,-405.41C1693.38,-348.39 1693.38,-218.33 1693.38,-172.83"/>
<polygon fill="#63b8ff" stroke="#63b8ff" points="1689.88,-405.2 1693.38,-415.2 1696.88,-405.2 1689.88,-405.2"/>
</a>
</g>
</g>
<!-- Node6 -->
<g id="Node000006" class="node">
<title>Node6</title>
<g id="a_Node000006"><a xlink:href="compute__ECJ_8hpp.html" target="_top" xlink:title=" ">
<polygon fill="white" stroke="#666666" points="1592.75,-103 1456,-103 1456,-69.5 1592.75,-69.5 1592.75,-103"/>
<text text-anchor="start" x="1464" y="-89.5" font-family="Helvetica,sans-Serif" font-size="10.00">include/proxsuite/proxqp</text>
<text text-anchor="middle" x="1524.38" y="-76.75" font-family="Helvetica,sans-Serif" font-size="10.00">/dense/compute_ECJ.hpp</text>
</a>
</g>
</g>
<!-- Node5&#45;&gt;Node6 -->
<g id="edge5_Node000005_Node000006" class="edge">
<title>Node5&#45;&gt;Node6</title>
<g id="a_edge5_Node000005_Node000006"><a xlink:title=" ">
<path fill="none" stroke="#63b8ff" d="M1642.22,-134.32C1617.41,-124.41 1588.03,-112.68 1564.82,-103.4"/>
<polygon fill="#63b8ff" stroke="#63b8ff" points="1640.9,-137.56 1651.49,-138.02 1643.5,-131.06 1640.9,-137.56"/>
</a>
</g>
</g>
<!-- Node8 -->
<g id="Node000008" class="node">
<title>Node8</title>
<g id="a_Node000008"><a xlink:href="dense_8hpp.html" target="_top" xlink:title=" ">
<polygon fill="white" stroke="#666666" points="1756.75,-103 1620,-103 1620,-69.5 1756.75,-69.5 1756.75,-103"/>
<text text-anchor="start" x="1628" y="-89.5" font-family="Helvetica,sans-Serif" font-size="10.00">include/proxsuite/proxqp</text>
<text text-anchor="middle" x="1688.38" y="-76.75" font-family="Helvetica,sans-Serif" font-size="10.00">/dense/dense.hpp</text>
</a>
</g>
</g>
<!-- Node5&#45;&gt;Node8 -->
<g id="edge7_Node000005_Node000008" class="edge">
<title>Node5&#45;&gt;Node8</title>
<g id="a_edge7_Node000005_Node000008"><a xlink:title=" ">
<path fill="none" stroke="#63b8ff" d="M1691.34,-127.31C1690.73,-119.09 1690.09,-110.34 1689.55,-103.13"/>
<polygon fill="#63b8ff" stroke="#63b8ff" points="1687.85,-127.53 1692.08,-137.24 1694.83,-127.01 1687.85,-127.53"/>
</a>
</g>
</g>
<!-- Node9 -->
<g id="Node000009" class="node">
<title>Node9</title>
<g id="a_Node000009"><a xlink:href="serialization_2wrapper_8hpp.html" target="_top" xlink:title=" ">
<polygon fill="white" stroke="#666666" points="1937.88,-103 1774.88,-103 1774.88,-69.5 1937.88,-69.5 1937.88,-103"/>
<text text-anchor="start" x="1782.88" y="-89.5" font-family="Helvetica,sans-Serif" font-size="10.00">include/proxsuite/serialization</text>
<text text-anchor="middle" x="1856.38" y="-76.75" font-family="Helvetica,sans-Serif" font-size="10.00">/wrapper.hpp</text>
</a>
</g>
</g>
<!-- Node5&#45;&gt;Node9 -->
<g id="edge8_Node000005_Node000009" class="edge">
<title>Node5&#45;&gt;Node9</title>
<g id="a_edge8_Node000005_Node000009"><a xlink:title=" ">
<path fill="none" stroke="#63b8ff" d="M1743.04,-134.18C1766.9,-124.3 1795.08,-112.63 1817.37,-103.4"/>
<polygon fill="#63b8ff" stroke="#63b8ff" points="1741.72,-130.94 1733.82,-138 1744.39,-137.41 1741.72,-130.94"/>
</a>
</g>
</g>
<!-- Node7 -->
<g id="Node000007" class="node">
<title>Node7</title>
<g id="a_Node000007"><a xlink:href="qp__solve_8hpp.html" target="_top" xlink:title=" ">
<polygon fill="white" stroke="#666666" points="1525.75,-33.5 1389,-33.5 1389,0 1525.75,0 1525.75,-33.5"/>
<text text-anchor="start" x="1397" y="-20" font-family="Helvetica,sans-Serif" font-size="10.00">include/proxsuite/proxqp</text>
<text text-anchor="middle" x="1457.38" y="-7.25" font-family="Helvetica,sans-Serif" font-size="10.00">/parallel/qp_solve.hpp</text>
</a>
</g>
</g>
<!-- Node6&#45;&gt;Node7 -->
<g id="edge6_Node000006_Node000007" class="edge">
<title>Node6&#45;&gt;Node7</title>
<g id="a_edge6_Node000006_Node000007"><a xlink:title=" ">
<path fill="none" stroke="#63b8ff" d="M1500.52,-61.22C1491.43,-52.06 1481.3,-41.85 1473.14,-33.63"/>
<polygon fill="#63b8ff" stroke="#63b8ff" points="1497.9,-63.55 1507.43,-68.18 1502.87,-58.62 1497.9,-63.55"/>
</a>
</g>
</g>
<!-- Node10&#45;&gt;Node4 -->
<g id="edge11_Node000010_Node000004" class="edge">
<title>Node10&#45;&gt;Node4</title>
<g id="a_edge11_Node000010_Node000004"><a xlink:title=" ">
<path fill="none" stroke="#63b8ff" d="M1582.49,-487.6C1606.93,-475.95 1636.84,-461.69 1659.44,-450.92"/>
<polygon fill="#63b8ff" stroke="#63b8ff" points="1581.28,-484.3 1573.76,-491.76 1584.29,-490.62 1581.28,-484.3"/>
</a>
</g>
</g>
<!-- Node11&#45;&gt;Node4 -->
<g id="edge13_Node000011_Node000004" class="edge">
<title>Node11&#45;&gt;Node4</title>
<g id="a_edge13_Node000011_Node000004"><a xlink:title=" ">
<path fill="none" stroke="#63b8ff" d="M1693.38,-481.24C1693.38,-470.97 1693.38,-459.65 1693.38,-450.75"/>
<polygon fill="#63b8ff" stroke="#63b8ff" points="1689.88,-481.08 1693.38,-491.08 1696.88,-481.08 1689.88,-481.08"/>
</a>
</g>
</g>
<!-- Node12&#45;&gt;Node13 -->
<g id="edge15_Node000012_Node000013" class="edge">
<title>Node12&#45;&gt;Node13</title>
<g id="a_edge15_Node000012_Node000013"><a xlink:title=" ">
<path fill="none" stroke="#63b8ff" d="M910.17,-284.45C1024.5,-271.12 1232.98,-246.81 1340.77,-234.25"/>
<polygon fill="#63b8ff" stroke="#63b8ff" points="910.1,-280.93 900.57,-285.57 910.91,-287.88 910.1,-280.93"/>
</a>
</g>
</g>
<!-- Node13&#45;&gt;Node5 -->
<g id="edge16_Node000013_Node000005" class="edge">
<title>Node13&#45;&gt;Node5</title>
<g id="a_edge16_Node000013_Node000005"><a xlink:title=" ">
<path fill="none" stroke="#63b8ff" d="M1488.41,-205.47C1531.47,-195.23 1584.21,-182.7 1625.41,-172.9"/>
<polygon fill="#63b8ff" stroke="#63b8ff" points="1487.79,-202.01 1478.87,-207.73 1489.41,-208.82 1487.79,-202.01"/>
</a>
</g>
</g>
<!-- Node13&#45;&gt;Node7 -->
<g id="edge17_Node000013_Node000007" class="edge">
<title>Node13&#45;&gt;Node7</title>
<g id="a_edge17_Node000013_Node000007"><a xlink:title=" ">
<path fill="none" stroke="#63b8ff" d="M1415.33,-197.03C1419.02,-180.28 1423.9,-158.38 1428.38,-139 1437.1,-101.25 1447.8,-57.01 1453.45,-33.81"/>
<polygon fill="#63b8ff" stroke="#63b8ff" points="1411.93,-196.21 1413.2,-206.73 1418.76,-197.71 1411.93,-196.21"/>
</a>
</g>
</g>
<!-- Node14 -->
<g id="Node000014" class="node">
<title>Node14</title>
<g id="a_Node000014"><a xlink:href="sparse_8hpp.html" target="_top" xlink:title=" ">
<polygon fill="white" stroke="#666666" points="1573.75,-172.5 1437,-172.5 1437,-139 1573.75,-139 1573.75,-172.5"/>
<text text-anchor="start" x="1445" y="-159" font-family="Helvetica,sans-Serif" font-size="10.00">include/proxsuite/proxqp</text>
<text text-anchor="middle" x="1505.38" y="-146.25" font-family="Helvetica,sans-Serif" font-size="10.00">/sparse/sparse.hpp</text>
</a>
</g>
</g>
<!-- Node13&#45;&gt;Node14 -->
<g id="edge18_Node000013_Node000014" class="edge">
<title>Node13&#45;&gt;Node14</title>
<g id="a_edge18_Node000013_Node000014"><a xlink:title=" ">
<path fill="none" stroke="#63b8ff" d="M1441.5,-201.66C1454.92,-192.23 1470.2,-181.48 1482.45,-172.87"/>
<polygon fill="#63b8ff" stroke="#63b8ff" points="1439.53,-198.77 1433.36,-207.38 1443.56,-204.49 1439.53,-198.77"/>
</a>
</g>
</g>
<!-- Node15&#45;&gt;Node12 -->
<g id="edge20_Node000015_Node000012" class="edge">
<title>Node15&#45;&gt;Node12</title>
<g id="a_edge20_Node000015_Node000012"><a xlink:title=" ">
<path fill="none" stroke="#63b8ff" d="M861.84,-406.72C857.29,-398.7 852.7,-389.7 849.38,-381 840.5,-357.77 835.2,-329.32 832.53,-311.87"/>
<polygon fill="#63b8ff" stroke="#63b8ff" points="858.8,-408.46 866.92,-415.27 864.82,-404.88 858.8,-408.46"/>
</a>
</g>
</g>
<!-- Node15&#45;&gt;Node16 -->
<g id="edge21_Node000015_Node000016" class="edge">
<title>Node15&#45;&gt;Node16</title>
<g id="a_edge21_Node000015_Node000016"><a xlink:title=" ">
<path fill="none" stroke="#63b8ff" d="M889.9,-407.31C895.75,-398.52 902.82,-388.93 909.25,-381.13"/>
<polygon fill="#63b8ff" stroke="#63b8ff" points="887.12,-405.16 884.72,-415.48 893.03,-408.91 887.12,-405.16"/>
</a>
</g>
</g>
<!-- Node16&#45;&gt;Node12 -->
<g id="edge22_Node000016_Node000012" class="edge">
<title>Node16&#45;&gt;Node12</title>
<g id="a_edge22_Node000016_Node000012"><a xlink:title=" ">
<path fill="none" stroke="#63b8ff" d="M894.25,-340.66C880.83,-331.23 865.55,-320.48 853.3,-311.87"/>
<polygon fill="#63b8ff" stroke="#63b8ff" points="892.19,-343.49 902.39,-346.38 896.22,-337.77 892.19,-343.49"/>
</a>
</g>
</g>
<!-- Node16&#45;&gt;Node15 -->
<g id="edge23_Node000016_Node000015" class="edge">
<title>Node16&#45;&gt;Node15</title>
<g id="a_edge23_Node000016_Node000015"><a xlink:title=" ">
<path fill="none" stroke="#63b8ff" d="M914.75,-390.84C908.95,-399.55 901.97,-409.02 895.59,-416.75"/>
<polygon fill="#63b8ff" stroke="#63b8ff" points="917.7,-392.73 920.1,-382.41 911.78,-388.98 917.7,-392.73"/>
</a>
</g>
</g>
<!-- Node17&#45;&gt;Node12 -->
<g id="edge25_Node000017_Node000012" class="edge">
<title>Node17&#45;&gt;Node12</title>
<g id="a_edge25_Node000017_Node000012"><a xlink:title=" ">
<path fill="none" stroke="#63b8ff" d="M989.91,-482.9C1008.39,-448.6 1033.22,-387.58 1003.38,-347.5 990.5,-330.21 941.55,-316.57 898.99,-307.64"/>
<polygon fill="#63b8ff" stroke="#63b8ff" points="987.03,-480.88 985.19,-491.31 993.14,-484.31 987.03,-480.88"/>
</a>
</g>
</g>
<!-- Node17&#45;&gt;Node15 -->
<g id="edge26_Node000017_Node000015" class="edge">
<title>Node17&#45;&gt;Node15</title>
<g id="a_edge26_Node000017_Node000015"><a xlink:title=" ">
<path fill="none" stroke="#63b8ff" d="M944.76,-485.84C930,-474.47 912.49,-461 899.16,-450.75"/>
<polygon fill="#63b8ff" stroke="#63b8ff" points="942.29,-488.35 952.34,-491.67 946.55,-482.8 942.29,-488.35"/>
</a>
</g>
</g>
<!-- Node17&#45;&gt;Node16 -->
<g id="edge27_Node000017_Node000016" class="edge">
<title>Node17&#45;&gt;Node16</title>
<g id="a_edge27_Node000017_Node000016"><a xlink:title=" ">
<path fill="none" stroke="#63b8ff" d="M970.98,-481.48C968.12,-462.92 963.21,-437.97 955.38,-417 950.69,-404.46 943.28,-391.31 937.13,-381.4"/>
<polygon fill="#63b8ff" stroke="#63b8ff" points="967.48,-481.75 972.36,-491.15 974.41,-480.76 967.48,-481.75"/>
</a>
</g>
</g>
<!-- Node19&#45;&gt;Node2 -->
<g id="edge44_Node000019_Node000002" class="edge">
<title>Node19&#45;&gt;Node2</title>
<g id="a_edge44_Node000019_Node000002"><a xlink:title=" ">
<path fill="none" stroke="#63b8ff" d="M1296.08,-633.17C1274.25,-623.34 1248.6,-611.8 1228.27,-602.65"/>
<polygon fill="#63b8ff" stroke="#63b8ff" points="1294.51,-636.3 1305.07,-637.21 1297.38,-629.92 1294.51,-636.3"/>
</a>
</g>
</g>
<!-- Node19&#45;&gt;Node3 -->
<g id="edge32_Node000019_Node000003" class="edge">
<title>Node19&#45;&gt;Node3</title>
<g id="a_edge32_Node000019_Node000003"><a xlink:title=" ">
<path fill="none" stroke="#63b8ff" d="M1422.31,-648.52C1505.52,-641.75 1639.26,-627.84 1752.38,-602.25 1838.34,-582.8 1935.41,-547.46 1988.78,-526.82"/>
<polygon fill="#63b8ff" stroke="#63b8ff" points="1422.11,-645.03 1412.42,-649.31 1422.66,-652 1422.11,-645.03"/>
</a>
</g>
</g>
<!-- Node19&#45;&gt;Node10 -->
<g id="edge33_Node000019_Node000010" class="edge">
<title>Node19&#45;&gt;Node10</title>
<g id="a_edge33_Node000019_Node000010"><a xlink:title=" ">
<path fill="none" stroke="#63b8ff" d="M1421.62,-635.83C1443.6,-628.08 1466.35,-617.25 1484.38,-602.25 1508.93,-581.82 1524.96,-547.16 1532.77,-526.83"/>
<polygon fill="#63b8ff" stroke="#63b8ff" points="1420.74,-632.43 1412.36,-638.91 1422.95,-639.08 1420.74,-632.43"/>
</a>
</g>
</g>
<!-- Node19&#45;&gt;Node11 -->
<g id="edge39_Node000019_Node000011" class="edge">
<title>Node19&#45;&gt;Node11</title>
<g id="a_edge39_Node000019_Node000011"><a xlink:title=" ">
<path fill="none" stroke="#63b8ff" d="M1415.58,-634.72C1445.94,-625.96 1481.27,-614.75 1512.38,-602.25 1568.26,-579.8 1630.24,-546.46 1665.25,-526.79"/>
<polygon fill="#63b8ff" stroke="#63b8ff" points="1414.76,-631.32 1406.1,-637.43 1416.67,-638.05 1414.76,-631.32"/>
</a>
</g>
</g>
<!-- Node19&#45;&gt;Node12 -->
<g id="edge45_Node000019_Node000012" class="edge">
<title>Node19&#45;&gt;Node12</title>
<g id="a_edge45_Node000019_Node000012"><a xlink:title=" ">
<path fill="none" stroke="#63b8ff" d="M1262.53,-651.39C1104.05,-645.65 761.03,-630.14 715.38,-602.25 674.45,-577.25 658.38,-558.58 658.38,-510.62 658.38,-510.62 658.38,-510.62 658.38,-432.75 658.38,-370.14 728.96,-331.53 779.7,-311.86"/>
<polygon fill="#63b8ff" stroke="#63b8ff" points="1261.99,-654.88 1272.11,-651.74 1262.24,-647.88 1261.99,-654.88"/>
</a>
</g>
</g>
<!-- Node19&#45;&gt;Node13 -->
<g id="edge49_Node000019_Node000013" class="edge">
<title>Node19&#45;&gt;Node13</title>
<g id="a_edge49_Node000019_Node000013"><a xlink:title=" ">
<path fill="none" stroke="#63b8ff" d="M1415.4,-632.83C1429.27,-625.41 1442.04,-615.49 1450.38,-602.25 1458.31,-589.65 1450.82,-583.63 1450.38,-568.75 1448.6,-509.11 1442.38,-494.41 1442.38,-434.75 1442.38,-434.75 1442.38,-434.75 1442.38,-363.25 1442.38,-318.48 1425.51,-267.71 1415.89,-242.4"/>
<polygon fill="#63b8ff" stroke="#63b8ff" points="1413.99,-629.63 1406.52,-637.14 1417.04,-635.93 1413.99,-629.63"/>
</a>
</g>
</g>
<!-- Node19&#45;&gt;Node15 -->
<g id="edge46_Node000019_Node000015" class="edge">
<title>Node19&#45;&gt;Node15</title>
<g id="a_edge46_Node000019_Node000015"><a xlink:title=" ">
<path fill="none" stroke="#63b8ff" d="M1262.17,-649.83C1194.44,-644.33 1095.75,-631.61 1014.38,-602.25 957.48,-581.72 932.18,-582.22 897.38,-532.75 880.02,-508.09 877.48,-471.68 877.63,-450.88"/>
<polygon fill="#63b8ff" stroke="#63b8ff" points="1261.86,-653.32 1272.1,-650.6 1262.4,-646.34 1261.86,-653.32"/>
</a>
</g>
</g>
<!-- Node19&#45;&gt;Node16 -->
<g id="edge48_Node000019_Node000016" class="edge">
<title>Node19&#45;&gt;Node16</title>
<g id="a_edge48_Node000019_Node000016"><a xlink:title=" ">
<path fill="none" stroke="#63b8ff" d="M1262.33,-651.72C1215.48,-646.74 1157.45,-633.9 1115.38,-602.25 1068.4,-566.91 1087.08,-533.2 1051.38,-486.5 1019.24,-444.47 972.62,-403.24 946.35,-381.36"/>
<polygon fill="#63b8ff" stroke="#63b8ff" points="1261.89,-655.19 1272.17,-652.65 1262.55,-648.22 1261.89,-655.19"/>
</a>
</g>
</g>
<!-- Node19&#45;&gt;Node17 -->
<g id="edge47_Node000019_Node000017" class="edge">
<title>Node19&#45;&gt;Node17</title>
<g id="a_edge47_Node000019_Node000017"><a xlink:title=" ">
<path fill="none" stroke="#63b8ff" d="M1262.43,-653.31C1202.33,-649.65 1119.78,-637.71 1056.38,-602.25 1023.77,-584.02 997.42,-547.9 984.02,-526.86"/>
<polygon fill="#63b8ff" stroke="#63b8ff" points="1262.07,-656.8 1272.25,-653.84 1262.45,-649.81 1262.07,-656.8"/>
</a>
</g>
</g>
<!-- Node20 -->
<g id="Node000020" class="node">
<title>Node20</title>
<g id="a_Node000020"><a xlink:href="proxqp_2dense_2preconditioner_2ruiz_8hpp.html" target="_top" xlink:title=" ">
<polygon fill="white" stroke="#666666" points="2111.25,-602.25 1947.5,-602.25 1947.5,-568.75 2111.25,-568.75 2111.25,-602.25"/>
<text text-anchor="start" x="1955.5" y="-588.75" font-family="Helvetica,sans-Serif" font-size="10.00">include/proxsuite/proxqp</text>
<text text-anchor="middle" x="2029.38" y="-576" font-family="Helvetica,sans-Serif" font-size="10.00">/dense/preconditioner/ruiz.hpp</text>
</a>
</g>
</g>
<!-- Node19&#45;&gt;Node20 -->
<g id="edge34_Node000019_Node000020" class="edge">
<title>Node19&#45;&gt;Node20</title>
<g id="a_edge34_Node000019_Node000020"><a xlink:title=" ">
<path fill="none" stroke="#63b8ff" d="M1422.23,-646.15C1553.63,-633.24 1814.1,-607.65 1947.08,-594.59"/>
<polygon fill="#63b8ff" stroke="#63b8ff" points="1422.19,-642.64 1412.58,-647.1 1422.88,-649.61 1422.19,-642.64"/>
</a>
</g>
</g>
<!-- Node22 -->
<g id="Node000022" class="node">
<title>Node22</title>
<g id="a_Node000022"><a xlink:href="proxqp_2dense_2workspace_8hpp.html" target="_top" xlink:title=" ">
<polygon fill="white" stroke="#666666" points="1743.75,-602.25 1607,-602.25 1607,-568.75 1743.75,-568.75 1743.75,-602.25"/>
<text text-anchor="start" x="1615" y="-588.75" font-family="Helvetica,sans-Serif" font-size="10.00">include/proxsuite/proxqp</text>
<text text-anchor="middle" x="1675.38" y="-576" font-family="Helvetica,sans-Serif" font-size="10.00">/dense/workspace.hpp</text>
</a>
</g>
</g>
<!-- Node19&#45;&gt;Node22 -->
<g id="edge40_Node000019_Node000022" class="edge">
<title>Node19&#45;&gt;Node22</title>
<g id="a_edge40_Node000019_Node000022"><a xlink:title=" ">
<path fill="none" stroke="#63b8ff" d="M1421.97,-637.87C1478.23,-626.46 1552.9,-611.33 1606.58,-600.44"/>
<polygon fill="#63b8ff" stroke="#63b8ff" points="1421.56,-634.38 1412.45,-639.8 1422.95,-641.24 1421.56,-634.38"/>
</a>
</g>
</g>
<!-- Node24 -->
<g id="Node000024" class="node">
<title>Node24</title>
<g id="a_Node000024"><a xlink:href="serialization_2settings_8hpp.html" target="_top" xlink:title=" ">
<polygon fill="white" stroke="#666666" points="1441.88,-602.25 1278.88,-602.25 1278.88,-568.75 1441.88,-568.75 1441.88,-602.25"/>
<text text-anchor="start" x="1286.88" y="-588.75" font-family="Helvetica,sans-Serif" font-size="10.00">include/proxsuite/serialization</text>
<text text-anchor="middle" x="1360.38" y="-576" font-family="Helvetica,sans-Serif" font-size="10.00">/settings.hpp</text>
</a>
</g>
</g>
<!-- Node19&#45;&gt;Node24 -->
<g id="edge50_Node000019_Node000024" class="edge">
<title>Node19&#45;&gt;Node24</title>
<g id="a_edge50_Node000019_Node000024"><a xlink:title=" ">
<path fill="none" stroke="#63b8ff" d="M1349.54,-627.14C1351.78,-618.75 1354.17,-609.76 1356.14,-602.38"/>
<polygon fill="#63b8ff" stroke="#63b8ff" points="1346.23,-625.98 1347.03,-636.54 1352.99,-627.78 1346.23,-625.98"/>
</a>
</g>
</g>
<!-- Node20&#45;&gt;Node3 -->
<g id="edge35_Node000020_Node000003" class="edge">
<title>Node20&#45;&gt;Node3</title>
<g id="a_edge35_Node000020_Node000003"><a xlink:title=" ">
<path fill="none" stroke="#63b8ff" d="M2029.38,-557.11C2029.38,-546.85 2029.38,-535.52 2029.38,-526.62"/>
<polygon fill="#63b8ff" stroke="#63b8ff" points="2025.88,-556.96 2029.38,-566.96 2032.88,-556.96 2025.88,-556.96"/>
</a>
</g>
</g>
<!-- Node20&#45;&gt;Node5 -->
<g id="edge37_Node000020_Node000005" class="edge">
<title>Node20&#45;&gt;Node5</title>
<g id="a_edge37_Node000020_Node000005"><a xlink:title=" ">
<path fill="none" stroke="#63b8ff" d="M2123.13,-576.69C2187.5,-569.36 2265.31,-555.95 2288.38,-532.75 2319.66,-501.29 2307.38,-479.12 2307.38,-434.75 2307.38,-434.75 2307.38,-434.75 2307.38,-293.75 2307.38,-183.03 1922.24,-161.76 1762.02,-157.7"/>
<polygon fill="#63b8ff" stroke="#63b8ff" points="2122.76,-573.21 2113.2,-577.78 2123.53,-580.17 2122.76,-573.21"/>
</a>
</g>
</g>
<!-- Node20&#45;&gt;Node11 -->
<g id="edge36_Node000020_Node000011" class="edge">
<title>Node20&#45;&gt;Node11</title>
<g id="a_edge36_Node000020_Node000011"><a xlink:title=" ">
<path fill="none" stroke="#63b8ff" d="M1935.84,-567.57C1886.68,-558.21 1825.55,-545.84 1771.38,-532.75 1763.85,-530.93 1755.96,-528.87 1748.2,-526.76"/>
<polygon fill="#63b8ff" stroke="#63b8ff" points="1935.13,-571 1945.61,-569.42 1936.43,-564.12 1935.13,-571"/>
</a>
</g>
</g>
<!-- Node21 -->
<g id="Node000021" class="node">
<title>Node21</title>
<g id="a_Node000021"><a xlink:href="serialization_2ruiz_8hpp.html" target="_top" xlink:title=" ">
<polygon fill="white" stroke="#666666" points="2278.88,-526.38 2115.88,-526.38 2115.88,-492.88 2278.88,-492.88 2278.88,-526.38"/>
<text text-anchor="start" x="2123.88" y="-512.88" font-family="Helvetica,sans-Serif" font-size="10.00">include/proxsuite/serialization</text>
<text text-anchor="middle" x="2197.38" y="-500.12" font-family="Helvetica,sans-Serif" font-size="10.00">/ruiz.hpp</text>
</a>
</g>
</g>
<!-- Node20&#45;&gt;Node21 -->
<g id="edge38_Node000020_Node000021" class="edge">
<title>Node20&#45;&gt;Node21</title>
<g id="a_edge38_Node000020_Node000021"><a xlink:title=" ">
<path fill="none" stroke="#63b8ff" d="M2076.48,-563.78C2103.1,-552.08 2135.88,-537.66 2160.59,-526.8"/>
<polygon fill="#63b8ff" stroke="#63b8ff" points="2075.37,-560.45 2067.63,-567.68 2078.19,-566.86 2075.37,-560.45"/>
</a>
</g>
</g>
<!-- Node22&#45;&gt;Node10 -->
<g id="edge41_Node000022_Node000010" class="edge">
<title>Node22&#45;&gt;Node10</title>
<g id="a_edge41_Node000022_Node000010"><a xlink:title=" ">
<path fill="none" stroke="#63b8ff" d="M1635.22,-562.85C1613.84,-551.32 1587.99,-537.38 1568.37,-526.8"/>
<polygon fill="#63b8ff" stroke="#63b8ff" points="1633.51,-565.9 1643.98,-567.57 1636.84,-559.74 1633.51,-565.9"/>
</a>
</g>
</g>
<!-- Node22&#45;&gt;Node11 -->
<g id="edge42_Node000022_Node000011" class="edge">
<title>Node22&#45;&gt;Node11</title>
<g id="a_edge42_Node000022_Node000011"><a xlink:title=" ">
<path fill="none" stroke="#63b8ff" d="M1681.97,-557.45C1684.49,-547.09 1687.28,-535.62 1689.48,-526.62"/>
<polygon fill="#63b8ff" stroke="#63b8ff" points="1678.61,-556.46 1679.64,-567 1685.41,-558.11 1678.61,-556.46"/>
</a>
</g>
</g>
<!-- Node23 -->
<g id="Node000023" class="node">
<title>Node23</title>
<g id="a_Node000023"><a xlink:href="serialization_2workspace_8hpp.html" target="_top" xlink:title=" ">
<polygon fill="white" stroke="#666666" points="1942.88,-526.38 1779.88,-526.38 1779.88,-492.88 1942.88,-492.88 1942.88,-526.38"/>
<text text-anchor="start" x="1787.88" y="-512.88" font-family="Helvetica,sans-Serif" font-size="10.00">include/proxsuite/serialization</text>
<text text-anchor="middle" x="1861.38" y="-500.12" font-family="Helvetica,sans-Serif" font-size="10.00">/workspace.hpp</text>
</a>
</g>
</g>
<!-- Node22&#45;&gt;Node23 -->
<g id="edge43_Node000022_Node000023" class="edge">
<title>Node22&#45;&gt;Node23</title>
<g id="a_edge43_Node000022_Node000023"><a xlink:title=" ">
<path fill="none" stroke="#63b8ff" d="M1726.75,-564.09C1756.36,-552.34 1793.05,-537.76 1820.65,-526.8"/>
<polygon fill="#63b8ff" stroke="#63b8ff" points="1725.6,-560.78 1717.6,-567.73 1728.19,-567.29 1725.6,-560.78"/>
</a>
</g>
</g>
<!-- Node25&#45;&gt;Node13 -->
<g id="edge52_Node000025_Node000013" class="edge">
<title>Node25&#45;&gt;Node13</title>
<g id="a_edge52_Node000025_Node000013"><a xlink:title=" ">
<path fill="none" stroke="#63b8ff" d="M148.35,-347.81C149.03,-347.71 149.7,-347.6 150.38,-347.5 601.83,-278.23 1150.81,-241.48 1340.8,-230.13"/>
<polygon fill="#63b8ff" stroke="#63b8ff" points="148.01,-344.32 138.7,-349.4 149.14,-351.23 148.01,-344.32"/>
</a>
</g>
</g>
<!-- Node26&#45;&gt;Node12 -->
<g id="edge59_Node000026_Node000012" class="edge">
<title>Node26&#45;&gt;Node12</title>
<g id="a_edge59_Node000026_Node000012"><a xlink:title=" ">
<path fill="none" stroke="#63b8ff" d="M493.5,-646.8C369.37,-632.23 151.35,-591.25 221.38,-486.5 282.53,-395.03 615.4,-330.67 761.53,-306.42"/>
<polygon fill="#63b8ff" stroke="#63b8ff" points="493,-650.26 503.33,-647.91 493.79,-643.31 493,-650.26"/>
</a>
</g>
</g>
<!-- Node26&#45;&gt;Node15 -->
<g id="edge60_Node000026_Node000015" class="edge">
<title>Node26&#45;&gt;Node15</title>
<g id="a_edge60_Node000026_Node000015"><a xlink:title=" ">
<path fill="none" stroke="#63b8ff" d="M527.15,-632.98C464.31,-601.64 364.98,-540.58 413.38,-486.5 439.31,-457.52 686.64,-442.94 809.63,-437.43"/>
<polygon fill="#63b8ff" stroke="#63b8ff" points="525.4,-636.01 535.92,-637.26 528.47,-629.73 525.4,-636.01"/>
</a>
</g>
</g>
<!-- Node26&#45;&gt;Node16 -->
<g id="edge62_Node000026_Node000016" class="edge">
<title>Node26&#45;&gt;Node16</title>
<g id="a_edge62_Node000026_Node000016"><a xlink:title=" ">
<path fill="none" stroke="#63b8ff" d="M584.54,-627.78C600.74,-592.21 633.66,-528.3 677.38,-486.5 732.72,-433.58 815.56,-399.58 870.28,-381.44"/>
<polygon fill="#63b8ff" stroke="#63b8ff" points="581.54,-625.92 580.67,-636.48 587.94,-628.76 581.54,-625.92"/>
</a>
</g>
</g>
<!-- Node26&#45;&gt;Node17 -->
<g id="edge61_Node000026_Node000017" class="edge">
<title>Node26&#45;&gt;Node17</title>
<g id="a_edge61_Node000026_Node000017"><a xlink:title=" ">
<path fill="none" stroke="#63b8ff" d="M604.51,-631.29C632.31,-612.02 674.78,-585 715.38,-568.75 749.39,-555.14 841.06,-536.01 905.65,-523.47"/>
<polygon fill="#63b8ff" stroke="#63b8ff" points="602.73,-628.27 596.56,-636.88 606.75,-633.99 602.73,-628.27"/>
</a>
</g>
</g>
<!-- Node27 -->
<g id="Node000027" class="node">
<title>Node27</title>
<g id="a_Node000027"><a xlink:href="proxqp_2dense_2model_8hpp.html" target="_top" xlink:title=" ">
<polygon fill="white" stroke="#666666" points="860.75,-602.25 724,-602.25 724,-568.75 860.75,-568.75 860.75,-602.25"/>
<text text-anchor="start" x="732" y="-588.75" font-family="Helvetica,sans-Serif" font-size="10.00">include/proxsuite/proxqp</text>
<text text-anchor="middle" x="792.38" y="-576" font-family="Helvetica,sans-Serif" font-size="10.00">/dense/model.hpp</text>
</a>
</g>
</g>
<!-- Node26&#45;&gt;Node27 -->
<g id="edge54_Node000026_Node000027" class="edge">
<title>Node26&#45;&gt;Node27</title>
<g id="a_edge54_Node000026_Node000027"><a xlink:title=" ">
<path fill="none" stroke="#63b8ff" d="M636.66,-634.49C669.42,-624.4 708.94,-612.22 739.97,-602.65"/>
<polygon fill="#63b8ff" stroke="#63b8ff" points="635.8,-631.1 627.28,-637.39 637.86,-637.79 635.8,-631.1"/>
</a>
</g>
</g>
<!-- Node28 -->
<g id="Node000028" class="node">
<title>Node28</title>
<g id="a_Node000028"><a xlink:href="random__qp__problems_8hpp.html" target="_top" xlink:title=" ">
<polygon fill="white" stroke="#666666" points="592.25,-526.38 422.5,-526.38 422.5,-492.88 592.25,-492.88 592.25,-526.38"/>
<text text-anchor="start" x="430.5" y="-512.88" font-family="Helvetica,sans-Serif" font-size="10.00">include/proxsuite/proxqp</text>
<text text-anchor="middle" x="507.38" y="-500.12" font-family="Helvetica,sans-Serif" font-size="10.00">/utils/random_qp_problems.hpp</text>
</a>
</g>
</g>
<!-- Node26&#45;&gt;Node28 -->
<g id="edge63_Node000026_Node000028" class="edge">
<title>Node26&#45;&gt;Node28</title>
<g id="a_edge63_Node000026_Node000028"><a xlink:title=" ">
<path fill="none" stroke="#63b8ff" d="M561.14,-627.41C547.5,-597.8 525.91,-550.89 514.69,-526.52"/>
<polygon fill="#63b8ff" stroke="#63b8ff" points="557.94,-628.84 565.3,-636.46 564.3,-625.91 557.94,-628.84"/>
</a>
</g>
</g>
<!-- Node27&#45;&gt;Node10 -->
<g id="edge55_Node000027_Node000010" class="edge">
<title>Node27&#45;&gt;Node10</title>
<g id="a_edge55_Node000027_Node000010"><a xlink:title=" ">
<path fill="none" stroke="#63b8ff" d="M872.39,-576.58C1019.69,-561.99 1331.33,-531.13 1469.7,-517.43"/>
<polygon fill="#63b8ff" stroke="#63b8ff" points="872.33,-573.06 862.73,-577.53 873.02,-580.03 872.33,-573.06"/>
</a>
</g>
</g>
<!-- Node27&#45;&gt;Node11 -->
<g id="edge56_Node000027_Node000011" class="edge">
<title>Node27&#45;&gt;Node11</title>
<g id="a_edge56_Node000027_Node000011"><a xlink:title=" ">
<path fill="none" stroke="#63b8ff" d="M872.35,-580.45C1064.87,-570.55 1543.51,-545.06 1615.38,-532.75 1624.12,-531.25 1633.28,-529.15 1642.13,-526.84"/>
<polygon fill="#63b8ff" stroke="#63b8ff" points="872.24,-576.95 862.43,-580.95 872.6,-583.94 872.24,-576.95"/>
</a>
</g>
</g>
<!-- Node27&#45;&gt;Node28 -->
<g id="edge57_Node000027_Node000028" class="edge">
<title>Node27&#45;&gt;Node28</title>
<g id="a_edge57_Node000027_Node000028"><a xlink:title=" ">
<path fill="none" stroke="#63b8ff" d="M718.97,-565.47C672.75,-553.49 613.73,-538.19 569.77,-526.8"/>
<polygon fill="#63b8ff" stroke="#63b8ff" points="717.81,-568.79 728.37,-567.91 719.56,-562.01 717.81,-568.79"/>
</a>
</g>
</g>
<!-- Node29 -->
<g id="Node000029" class="node">
<title>Node29</title>
<g id="a_Node000029"><a xlink:href="serialization_2model_8hpp.html" target="_top" xlink:title=" ">
<polygon fill="white" stroke="#666666" points="849.88,-526.38 686.88,-526.38 686.88,-492.88 849.88,-492.88 849.88,-526.38"/>
<text text-anchor="start" x="694.88" y="-512.88" font-family="Helvetica,sans-Serif" font-size="10.00">include/proxsuite/serialization</text>
<text text-anchor="middle" x="768.38" y="-500.12" font-family="Helvetica,sans-Serif" font-size="10.00">/model.hpp</text>
</a>
</g>
</g>
<!-- Node27&#45;&gt;Node29 -->
<g id="edge58_Node000027_Node000029" class="edge">
<title>Node27&#45;&gt;Node29</title>
<g id="a_edge58_Node000027_Node000029"><a xlink:title=" ">
<path fill="none" stroke="#63b8ff" d="M783.69,-557.78C780.3,-547.34 776.53,-535.72 773.57,-526.62"/>
<polygon fill="#63b8ff" stroke="#63b8ff" points="780.28,-558.6 786.7,-567.03 786.94,-556.44 780.28,-558.6"/>
</a>
</g>
</g>
<!-- Node30&#45;&gt;Node12 -->
<g id="edge65_Node000030_Node000012" class="edge">
<title>Node30&#45;&gt;Node12</title>
<g id="a_edge65_Node000030_Node000012"><a xlink:title=" ">
<path fill="none" stroke="#63b8ff" d="M350.68,-480.95C417.46,-446.41 537.2,-387.06 644.38,-347.5 682.58,-333.4 726.42,-321.03 761.94,-311.92"/>
<polygon fill="#63b8ff" stroke="#63b8ff" points="349.43,-477.66 342.17,-485.37 352.66,-483.87 349.43,-477.66"/>
</a>
</g>
</g>
<!-- Node30&#45;&gt;Node15 -->
<g id="edge66_Node000030_Node000015" class="edge">
<title>Node30&#45;&gt;Node15</title>
<g id="a_edge66_Node000030_Node000015"><a xlink:title=" ">
<path fill="none" stroke="#63b8ff" d="M378.33,-486.89C379.01,-486.76 379.7,-486.63 380.38,-486.5 532.29,-458.3 713.33,-444.31 809.81,-438.4"/>
<polygon fill="#63b8ff" stroke="#63b8ff" points="377.65,-483.45 368.57,-488.92 379.08,-490.31 377.65,-483.45"/>
</a>
</g>
</g>
<!-- Node31&#45;&gt;Node2 -->
<g id="edge70_Node000031_Node000002" class="edge">
<title>Node31&#45;&gt;Node2</title>
<g id="a_edge70_Node000031_Node000002"><a xlink:title=" ">
<path fill="none" stroke="#63b8ff" d="M1260.73,-697.99C1243.55,-669.97 1216.49,-625.83 1202.11,-602.38"/>
<polygon fill="#63b8ff" stroke="#63b8ff" points="1257.57,-699.53 1265.78,-706.23 1263.54,-695.87 1257.57,-699.53"/>
</a>
</g>
</g>
<!-- Node31&#45;&gt;Node3 -->
<g id="edge69_Node000031_Node000003" class="edge">
<title>Node31&#45;&gt;Node3</title>
<g id="a_edge69_Node000031_Node000003"><a xlink:title=" ">
<path fill="none" stroke="#63b8ff" d="M1356.01,-711.01C1463.71,-692.95 1660.98,-655.76 1823.38,-602.25 1887.5,-581.12 1958.74,-546.86 1998.39,-526.76"/>
<polygon fill="#63b8ff" stroke="#63b8ff" points="1355.7,-707.51 1346.41,-712.6 1356.85,-714.42 1355.7,-707.51"/>
</a>
</g>
</g>
<!-- Node31&#45;&gt;Node19 -->
<g id="edge71_Node000031_Node000019" class="edge">
<title>Node31&#45;&gt;Node19</title>
<g id="a_edge71_Node000031_Node000019"><a xlink:title=" ">
<path fill="none" stroke="#63b8ff" d="M1299.87,-699.47C1308.83,-690.31 1318.81,-680.1 1326.85,-671.88"/>
<polygon fill="#63b8ff" stroke="#63b8ff" points="1297.56,-696.82 1293.07,-706.42 1302.57,-701.72 1297.56,-696.82"/>
</a>
</g>
</g>
</g>
</svg>
