<?xml version="1.0" encoding="UTF-8" standalone="no"?>
<!DOCTYPE svg PUBLIC "-//W3C//DTD SVG 1.1//EN"
 "http://www.w3.org/Graphics/SVG/1.1/DTD/svg11.dtd">
<!-- Generated by graphviz version 7.1.0 (20230122.1345)
 -->
<!-- Title: include/proxsuite/proxqp/settings.hpp Pages: 1 -->
<svg width="1280pt" height="500pt"
 viewBox="0.00 0.00 1279.50 500.00" xmlns="http://www.w3.org/2000/svg" xmlns:xlink="http://www.w3.org/1999/xlink">
<g id="graph0" class="graph" transform="scale(1 1) rotate(0) translate(4 496)">
<title>include/proxsuite/proxqp/settings.hpp</title>
<!-- Node1 -->
<g id="node1" class="node">
<title>Node1</title>
<g id="a_node1"><a xlink:title=" ">
<polygon fill="#999999" stroke="#666666" points="926,-492 789,-492 789,-462 926,-462 926,-492"/>
<text text-anchor="start" x="797" y="-480" font-family="Helvetica,sans-Serif" font-size="10.00">include/proxsuite/proxqp</text>
<text text-anchor="middle" x="857.5" y="-469" font-family="Helvetica,sans-Serif" font-size="10.00">/settings.hpp</text>
</a>
</g>
</g>
<!-- Node2 -->
<g id="node2" class="node">
<title>Node2</title>
<g id="a_node2"><a xlink:href="dense_2helpers_8hpp.html" target="_top" xlink:title=" ">
<polygon fill="white" stroke="#666666" points="447,-360 310,-360 310,-330 447,-330 447,-360"/>
<text text-anchor="start" x="318" y="-348" font-family="Helvetica,sans-Serif" font-size="10.00">include/proxsuite/proxqp</text>
<text text-anchor="middle" x="378.5" y="-337" font-family="Helvetica,sans-Serif" font-size="10.00">/dense/helpers.hpp</text>
</a>
</g>
</g>
<!-- Node1&#45;&gt;Node2 -->
<g id="edge1" class="edge">
<title>Node1&#45;&gt;Node2</title>
<path fill="none" stroke="#63b8ff" d="M777.29,-472.43C676.3,-466.84 509.35,-453.67 454.5,-426 424.57,-410.9 400.04,-379.06 387.52,-360.42"/>
<polygon fill="#63b8ff" stroke="#63b8ff" points="776.98,-475.92 787.15,-472.96 777.36,-468.93 776.98,-475.92"/>
</g>
<!-- Node7 -->
<g id="node7" class="node">
<title>Node7</title>
<g id="a_node7"><a xlink:href="linesearch_8hpp.html" target="_top" xlink:title=" ">
<polygon fill="white" stroke="#666666" points="292,-360 155,-360 155,-330 292,-330 292,-360"/>
<text text-anchor="start" x="163" y="-348" font-family="Helvetica,sans-Serif" font-size="10.00">include/proxsuite/proxqp</text>
<text text-anchor="middle" x="223.5" y="-337" font-family="Helvetica,sans-Serif" font-size="10.00">/dense/linesearch.hpp</text>
</a>
</g>
</g>
<!-- Node1&#45;&gt;Node7 -->
<g id="edge7" class="edge">
<title>Node1&#45;&gt;Node7</title>
<path fill="none" stroke="#63b8ff" d="M777.22,-473.85C687.32,-469.85 537.89,-458.47 413.5,-426 353.07,-410.23 286.74,-378.79 250.64,-360.37"/>
<polygon fill="#63b8ff" stroke="#63b8ff" points="777.04,-477.34 787.18,-474.27 777.34,-470.35 777.04,-477.34"/>
</g>
<!-- Node8 -->
<g id="node8" class="node">
<title>Node8</title>
<g id="a_node8"><a xlink:href="dense_2utils_8hpp.html" target="_top" xlink:title=" ">
<polygon fill="white" stroke="#666666" points="137,-360 0,-360 0,-330 137,-330 137,-360"/>
<text text-anchor="start" x="8" y="-348" font-family="Helvetica,sans-Serif" font-size="10.00">include/proxsuite/proxqp</text>
<text text-anchor="middle" x="68.5" y="-337" font-family="Helvetica,sans-Serif" font-size="10.00">/dense/utils.hpp</text>
</a>
</g>
</g>
<!-- Node1&#45;&gt;Node8 -->
<g id="edge9" class="edge">
<title>Node1&#45;&gt;Node8</title>
<path fill="none" stroke="#63b8ff" d="M777.24,-473.7C672.26,-469.5 483.03,-457.84 324.5,-426 245.06,-410.05 155.35,-378.82 106.02,-360.46"/>
<polygon fill="#63b8ff" stroke="#63b8ff" points="777.04,-477.19 787.17,-474.08 777.31,-470.2 777.04,-477.19"/>
</g>
<!-- Node9 -->
<g id="node9" class="node">
<title>Node9</title>
<g id="a_node9"><a xlink:href="proxqp_2results_8hpp.html" target="_top" xlink:title=" ">
<polygon fill="white" stroke="#666666" points="601,-426 464,-426 464,-396 601,-396 601,-426"/>
<text text-anchor="start" x="472" y="-414" font-family="Helvetica,sans-Serif" font-size="10.00">include/proxsuite/proxqp</text>
<text text-anchor="middle" x="532.5" y="-403" font-family="Helvetica,sans-Serif" font-size="10.00">/results.hpp</text>
</a>
</g>
</g>
<!-- Node1&#45;&gt;Node9 -->
<g id="edge11" class="edge">
<title>Node1&#45;&gt;Node9</title>
<path fill="none" stroke="#63b8ff" d="M777.31,-460.21C723.3,-449.57 652.79,-435.69 601.32,-425.55"/>
<polygon fill="#63b8ff" stroke="#63b8ff" points="776.6,-463.64 787.09,-462.13 777.96,-456.77 776.6,-463.64"/>
</g>
<!-- Node10 -->
<g id="node10" class="node">
<title>Node10</title>
<g id="a_node10"><a xlink:href="sparse_2solver_8hpp.html" target="_top" xlink:title=" ">
<polygon fill="white" stroke="#666666" points="937,-162 800,-162 800,-132 937,-132 937,-162"/>
<text text-anchor="start" x="808" y="-150" font-family="Helvetica,sans-Serif" font-size="10.00">include/proxsuite/proxqp</text>
<text text-anchor="middle" x="868.5" y="-139" font-family="Helvetica,sans-Serif" font-size="10.00">/sparse/solver.hpp</text>
</a>
</g>
</g>
<!-- Node1&#45;&gt;Node10 -->
<g id="edge30" class="edge">
<title>Node1&#45;&gt;Node10</title>
<path fill="none" stroke="#63b8ff" d="M925.61,-457.91C978,-439.4 1041.5,-404.82 1041.5,-346 1041.5,-346 1041.5,-346 1041.5,-278 1041.5,-216.39 970.5,-180.36 919.47,-162.43"/>
<polygon fill="#63b8ff" stroke="#63b8ff" points="924.75,-454.51 916.4,-461.03 926.99,-461.14 924.75,-454.51"/>
</g>
<!-- Node11 -->
<g id="node11" class="node">
<title>Node11</title>
<g id="a_node11"><a xlink:href="proxqp_2sparse_2wrapper_8hpp.html" target="_top" xlink:title=" ">
<polygon fill="white" stroke="#666666" points="937,-96 800,-96 800,-66 937,-66 937,-96"/>
<text text-anchor="start" x="808" y="-84" font-family="Helvetica,sans-Serif" font-size="10.00">include/proxsuite/proxqp</text>
<text text-anchor="middle" x="868.5" y="-73" font-family="Helvetica,sans-Serif" font-size="10.00">/sparse/wrapper.hpp</text>
</a>
</g>
</g>
<!-- Node1&#45;&gt;Node11 -->
<g id="edge34" class="edge">
<title>Node1&#45;&gt;Node11</title>
<path fill="none" stroke="#63b8ff" d="M937.11,-462.81C1000.79,-447.18 1079.5,-414.08 1079.5,-346 1079.5,-346 1079.5,-346 1079.5,-212 1079.5,-143.91 998.87,-110.33 937.3,-94.6"/>
<polygon fill="#63b8ff" stroke="#63b8ff" points="936.64,-459.33 927.7,-465.01 938.23,-466.14 936.64,-459.33"/>
</g>
<!-- Node13 -->
<g id="node13" class="node">
<title>Node13</title>
<g id="a_node13"><a xlink:href="sparse_2utils_8hpp.html" target="_top" xlink:title=" ">
<polygon fill="white" stroke="#666666" points="899,-294 762,-294 762,-264 899,-264 899,-294"/>
<text text-anchor="start" x="770" y="-282" font-family="Helvetica,sans-Serif" font-size="10.00">include/proxsuite/proxqp</text>
<text text-anchor="middle" x="830.5" y="-271" font-family="Helvetica,sans-Serif" font-size="10.00">/sparse/utils.hpp</text>
</a>
</g>
</g>
<!-- Node1&#45;&gt;Node13 -->
<g id="edge31" class="edge">
<title>Node1&#45;&gt;Node13</title>
<path fill="none" stroke="#63b8ff" d="M849.52,-450.58C842.65,-427.28 833.27,-391.71 829.5,-360 827.92,-346.76 829.37,-343.33 829.5,-330 829.62,-318.02 829.9,-304.43 830.13,-294.44"/>
<polygon fill="#63b8ff" stroke="#63b8ff" points="846.16,-451.55 852.4,-460.1 852.86,-449.52 846.16,-451.55"/>
</g>
<!-- Node14 -->
<g id="node14" class="node">
<title>Node14</title>
<g id="a_node14"><a xlink:href="sparse_2workspace_8hpp.html" target="_top" xlink:title=" ">
<polygon fill="white" stroke="#666666" points="937,-228 800,-228 800,-198 937,-198 937,-228"/>
<text text-anchor="start" x="808" y="-216" font-family="Helvetica,sans-Serif" font-size="10.00">include/proxsuite/proxqp</text>
<text text-anchor="middle" x="868.5" y="-205" font-family="Helvetica,sans-Serif" font-size="10.00">/sparse/workspace.hpp</text>
</a>
</g>
</g>
<!-- Node1&#45;&gt;Node14 -->
<g id="edge33" class="edge">
<title>Node1&#45;&gt;Node14</title>
<path fill="none" stroke="#63b8ff" d="M892.9,-455.59C923.59,-435.64 965.91,-402.16 984.5,-360 1008.8,-304.9 936.55,-252.8 895.23,-228.42"/>
<polygon fill="#63b8ff" stroke="#63b8ff" points="891.27,-452.48 884.67,-460.77 895,-458.4 891.27,-452.48"/>
</g>
<!-- Node15 -->
<g id="node15" class="node">
<title>Node15</title>
<g id="a_node15"><a xlink:href="sparse_2views_8hpp.html" target="_top" xlink:title=" ">
<polygon fill="white" stroke="#666666" points="975,-360 838,-360 838,-330 975,-330 975,-360"/>
<text text-anchor="start" x="846" y="-348" font-family="Helvetica,sans-Serif" font-size="10.00">include/proxsuite/proxqp</text>
<text text-anchor="middle" x="906.5" y="-337" font-family="Helvetica,sans-Serif" font-size="10.00">/sparse/views.hpp</text>
</a>
</g>
</g>
<!-- Node1&#45;&gt;Node15 -->
<g id="edge32" class="edge">
<title>Node1&#45;&gt;Node15</title>
<path fill="none" stroke="#63b8ff" d="M866.89,-451.1C877.01,-424.24 892.79,-382.38 901.04,-360.47"/>
<polygon fill="#63b8ff" stroke="#63b8ff" points="863.72,-449.58 863.46,-460.17 870.27,-452.05 863.72,-449.58"/>
</g>
<!-- Node17 -->
<g id="node17" class="node">
<title>Node17</title>
<g id="a_node17"><a xlink:href="serialization_2settings_8hpp.html" target="_top" xlink:title=" ">
<polygon fill="white" stroke="#666666" points="1271.5,-426 1107.5,-426 1107.5,-396 1271.5,-396 1271.5,-426"/>
<text text-anchor="start" x="1115.5" y="-414" font-family="Helvetica,sans-Serif" font-size="10.00">include/proxsuite/serialization</text>
<text text-anchor="middle" x="1189.5" y="-403" font-family="Helvetica,sans-Serif" font-size="10.00">/settings.hpp</text>
</a>
</g>
</g>
<!-- Node1&#45;&gt;Node17 -->
<g id="edge35" class="edge">
<title>Node1&#45;&gt;Node17</title>
<path fill="none" stroke="#63b8ff" d="M937.5,-460.58C991.29,-450.21 1061.72,-436.63 1114.44,-426.47"/>
<polygon fill="#63b8ff" stroke="#63b8ff" points="936.93,-457.12 927.78,-462.45 938.26,-464 936.93,-457.12"/>
</g>
<!-- Node3 -->
<g id="node3" class="node">
<title>Node3</title>
<g id="a_node3"><a xlink:href="dense_2solver_8hpp.html" target="_top" xlink:title=" ">
<polygon fill="white" stroke="#666666" points="307,-294 170,-294 170,-264 307,-264 307,-294"/>
<text text-anchor="start" x="178" y="-282" font-family="Helvetica,sans-Serif" font-size="10.00">include/proxsuite/proxqp</text>
<text text-anchor="middle" x="238.5" y="-271" font-family="Helvetica,sans-Serif" font-size="10.00">/dense/solver.hpp</text>
</a>
</g>
</g>
<!-- Node2&#45;&gt;Node3 -->
<g id="edge2" class="edge">
<title>Node2&#45;&gt;Node3</title>
<path fill="none" stroke="#63b8ff" d="M336.62,-324.86C315.18,-315.05 289.52,-303.32 269.81,-294.31"/>
<polygon fill="#63b8ff" stroke="#63b8ff" points="335.15,-328.03 345.7,-329.01 338.07,-321.67 335.15,-328.03"/>
</g>
<!-- Node4 -->
<g id="node4" class="node">
<title>Node4</title>
<g id="a_node4"><a xlink:href="proxqp_2dense_2wrapper_8hpp.html" target="_top" xlink:title=" ">
<polygon fill="white" stroke="#666666" points="355,-228 218,-228 218,-198 355,-198 355,-228"/>
<text text-anchor="start" x="226" y="-216" font-family="Helvetica,sans-Serif" font-size="10.00">include/proxsuite/proxqp</text>
<text text-anchor="middle" x="286.5" y="-205" font-family="Helvetica,sans-Serif" font-size="10.00">/dense/wrapper.hpp</text>
</a>
</g>
</g>
<!-- Node2&#45;&gt;Node4 -->
<g id="edge6" class="edge">
<title>Node2&#45;&gt;Node4</title>
<path fill="none" stroke="#63b8ff" d="M361.89,-320.52C342.93,-293.74 312.52,-250.77 296.74,-228.47"/>
<polygon fill="#63b8ff" stroke="#63b8ff" points="358.79,-322.21 367.43,-328.36 364.51,-318.17 358.79,-322.21"/>
</g>
<!-- Node3&#45;&gt;Node4 -->
<g id="edge3" class="edge">
<title>Node3&#45;&gt;Node4</title>
<path fill="none" stroke="#63b8ff" d="M255.99,-254.68C262.65,-245.79 270.04,-235.95 275.88,-228.16"/>
<polygon fill="#63b8ff" stroke="#63b8ff" points="253.26,-252.49 250.06,-262.59 258.86,-256.69 253.26,-252.49"/>
</g>
<!-- Node5 -->
<g id="node5" class="node">
<title>Node5</title>
<g id="a_node5"><a xlink:href="dense_8hpp.html" target="_top" xlink:title=" ">
<polygon fill="white" stroke="#666666" points="423,-162 286,-162 286,-132 423,-132 423,-162"/>
<text text-anchor="start" x="294" y="-150" font-family="Helvetica,sans-Serif" font-size="10.00">include/proxsuite/proxqp</text>
<text text-anchor="middle" x="354.5" y="-139" font-family="Helvetica,sans-Serif" font-size="10.00">/dense/dense.hpp</text>
</a>
</g>
</g>
<!-- Node4&#45;&gt;Node5 -->
<g id="edge4" class="edge">
<title>Node4&#45;&gt;Node5</title>
<path fill="none" stroke="#63b8ff" d="M309.78,-190.09C319.6,-180.85 330.74,-170.36 339.45,-162.16"/>
<polygon fill="#63b8ff" stroke="#63b8ff" points="307.58,-187.36 302.69,-196.76 312.37,-192.45 307.58,-187.36"/>
</g>
<!-- Node6 -->
<g id="node6" class="node">
<title>Node6</title>
<g id="a_node6"><a xlink:href="serialization_2wrapper_8hpp.html" target="_top" xlink:title=" ">
<polygon fill="white" stroke="#666666" points="267.5,-162 103.5,-162 103.5,-132 267.5,-132 267.5,-162"/>
<text text-anchor="start" x="111.5" y="-150" font-family="Helvetica,sans-Serif" font-size="10.00">include/proxsuite/serialization</text>
<text text-anchor="middle" x="185.5" y="-139" font-family="Helvetica,sans-Serif" font-size="10.00">/wrapper.hpp</text>
</a>
</g>
</g>
<!-- Node4&#45;&gt;Node6 -->
<g id="edge5" class="edge">
<title>Node4&#45;&gt;Node6</title>
<path fill="none" stroke="#63b8ff" d="M254.37,-191.64C239.31,-182.09 221.72,-170.95 208.09,-162.31"/>
<polygon fill="#63b8ff" stroke="#63b8ff" points="252.23,-194.43 262.56,-196.83 255.98,-188.52 252.23,-194.43"/>
</g>
<!-- Node7&#45;&gt;Node3 -->
<g id="edge8" class="edge">
<title>Node7&#45;&gt;Node3</title>
<path fill="none" stroke="#63b8ff" d="M229.43,-318.68C231.39,-310.34 233.49,-301.37 235.18,-294.16"/>
<polygon fill="#63b8ff" stroke="#63b8ff" points="226.05,-317.79 227.17,-328.32 232.86,-319.39 226.05,-317.79"/>
</g>
<!-- Node8&#45;&gt;Node3 -->
<g id="edge10" class="edge">
<title>Node8&#45;&gt;Node3</title>
<path fill="none" stroke="#63b8ff" d="M117.18,-325.67C143.54,-315.75 175.63,-303.67 200.18,-294.43"/>
<polygon fill="#63b8ff" stroke="#63b8ff" points="116.19,-322.3 108.07,-329.1 118.66,-328.86 116.19,-322.3"/>
</g>
<!-- Node9&#45;&gt;Node2 -->
<g id="edge12" class="edge">
<title>Node9&#45;&gt;Node2</title>
<path fill="none" stroke="#63b8ff" d="M487.44,-391.27C463.75,-381.43 435.16,-369.55 413.21,-360.43"/>
<polygon fill="#63b8ff" stroke="#63b8ff" points="485.96,-394.45 496.54,-395.06 488.65,-387.99 485.96,-394.45"/>
</g>
<!-- Node9&#45;&gt;Node7 -->
<g id="edge13" class="edge">
<title>Node9&#45;&gt;Node7</title>
<path fill="none" stroke="#63b8ff" d="M452.51,-393.43C402.84,-383.15 339.66,-370.06 292.25,-360.24"/>
<polygon fill="#63b8ff" stroke="#63b8ff" points="451.55,-396.81 462.06,-395.41 452.97,-389.95 451.55,-396.81"/>
</g>
<!-- Node9&#45;&gt;Node8 -->
<g id="edge14" class="edge">
<title>Node9&#45;&gt;Node8</title>
<path fill="none" stroke="#63b8ff" d="M452.61,-400.89C374.24,-391.67 251.42,-376.46 145.5,-360 142.81,-359.58 140.08,-359.15 137.32,-358.69"/>
<polygon fill="#63b8ff" stroke="#63b8ff" points="452,-404.35 462.34,-402.03 452.81,-397.39 452,-404.35"/>
</g>
<!-- Node9&#45;&gt;Node10 -->
<g id="edge15" class="edge">
<title>Node9&#45;&gt;Node10</title>
<path fill="none" stroke="#63b8ff" d="M530.79,-384.4C530.91,-367.57 533.59,-345.81 544.5,-330 609.35,-236.01 739.41,-184.98 813.51,-162.45"/>
<polygon fill="#63b8ff" stroke="#63b8ff" points="527.28,-384.21 531.03,-394.12 534.28,-384.04 527.28,-384.21"/>
</g>
<!-- Node9&#45;&gt;Node11 -->
<g id="edge28" class="edge">
<title>Node9&#45;&gt;Node11</title>
<path fill="none" stroke="#63b8ff" d="M515,-386.31C498.25,-361.23 475.5,-319.85 475.5,-280 475.5,-280 475.5,-280 475.5,-212 475.5,-144.54 686.88,-106.1 799.59,-90.41"/>
<polygon fill="#63b8ff" stroke="#63b8ff" points="512.07,-388.23 520.65,-394.45 517.83,-384.24 512.07,-388.23"/>
</g>
<!-- Node9&#45;&gt;Node13 -->
<g id="edge18" class="edge">
<title>Node9&#45;&gt;Node13</title>
<path fill="none" stroke="#63b8ff" d="M538.04,-384.77C543.33,-366.76 553.14,-343.43 570.5,-330 599.76,-307.35 695.05,-293.41 761.75,-286.19"/>
<polygon fill="#63b8ff" stroke="#63b8ff" points="534.72,-383.65 535.57,-394.21 541.49,-385.42 534.72,-383.65"/>
</g>
<!-- Node9&#45;&gt;Node14 -->
<g id="edge27" class="edge">
<title>Node9&#45;&gt;Node14</title>
<path fill="none" stroke="#63b8ff" d="M612.54,-402.17C667.98,-394.91 734.87,-381.85 752.5,-360 779.29,-326.79 729.92,-299.56 753.5,-264 764.69,-247.13 782.93,-235.91 801.61,-228.48"/>
<polygon fill="#63b8ff" stroke="#63b8ff" points="612.25,-398.68 602.77,-403.4 613.13,-405.63 612.25,-398.68"/>
</g>
<!-- Node9&#45;&gt;Node15 -->
<g id="edge23" class="edge">
<title>Node9&#45;&gt;Node15</title>
<path fill="none" stroke="#63b8ff" d="M612.43,-396.32C679.42,-384.86 774.05,-368.67 837.71,-357.77"/>
<polygon fill="#63b8ff" stroke="#63b8ff" points="611.86,-392.87 602.59,-398.01 613.04,-399.77 611.86,-392.87"/>
</g>
<!-- Node16 -->
<g id="node16" class="node">
<title>Node16</title>
<g id="a_node16"><a xlink:href="serialization_2results_8hpp.html" target="_top" xlink:title=" ">
<polygon fill="white" stroke="#666666" points="743.5,-360 579.5,-360 579.5,-330 743.5,-330 743.5,-360"/>
<text text-anchor="start" x="587.5" y="-348" font-family="Helvetica,sans-Serif" font-size="10.00">include/proxsuite/serialization</text>
<text text-anchor="middle" x="661.5" y="-337" font-family="Helvetica,sans-Serif" font-size="10.00">/results.hpp</text>
</a>
</g>
</g>
<!-- Node9&#45;&gt;Node16 -->
<g id="edge29" class="edge">
<title>Node9&#45;&gt;Node16</title>
<path fill="none" stroke="#63b8ff" d="M571.63,-390.59C591.27,-380.84 614.66,-369.24 632.65,-360.31"/>
<polygon fill="#63b8ff" stroke="#63b8ff" points="570.21,-387.38 562.81,-394.96 573.32,-393.66 570.21,-387.38"/>
</g>
<!-- Node10&#45;&gt;Node11 -->
<g id="edge16" class="edge">
<title>Node10&#45;&gt;Node11</title>
<path fill="none" stroke="#63b8ff" d="M868.5,-120.39C868.5,-112.13 868.5,-103.28 868.5,-96.16"/>
<polygon fill="#63b8ff" stroke="#63b8ff" points="865,-120.28 868.5,-130.28 872,-120.28 865,-120.28"/>
</g>
<!-- Node12 -->
<g id="node12" class="node">
<title>Node12</title>
<g id="a_node12"><a xlink:href="sparse_8hpp.html" target="_top" xlink:title=" ">
<polygon fill="white" stroke="#666666" points="937,-30 800,-30 800,0 937,0 937,-30"/>
<text text-anchor="start" x="808" y="-18" font-family="Helvetica,sans-Serif" font-size="10.00">include/proxsuite/proxqp</text>
<text text-anchor="middle" x="868.5" y="-7" font-family="Helvetica,sans-Serif" font-size="10.00">/sparse/sparse.hpp</text>
</a>
</g>
</g>
<!-- Node11&#45;&gt;Node12 -->
<g id="edge17" class="edge">
<title>Node11&#45;&gt;Node12</title>
<path fill="none" stroke="#63b8ff" d="M868.5,-54.39C868.5,-46.13 868.5,-37.28 868.5,-30.16"/>
<polygon fill="#63b8ff" stroke="#63b8ff" points="865,-54.28 868.5,-64.28 872,-54.28 865,-54.28"/>
</g>
<!-- Node13&#45;&gt;Node10 -->
<g id="edge19" class="edge">
<title>Node13&#45;&gt;Node10</title>
<path fill="none" stroke="#63b8ff" d="M807.39,-255.34C793.82,-239.17 781.17,-217.02 791.5,-198 800.17,-182.03 816.39,-170.37 831.71,-162.35"/>
<polygon fill="#63b8ff" stroke="#63b8ff" points="804.58,-257.44 813.88,-262.52 809.78,-252.75 804.58,-257.44"/>
</g>
<!-- Node13&#45;&gt;Node14 -->
<g id="edge20" class="edge">
<title>Node13&#45;&gt;Node14</title>
<path fill="none" stroke="#63b8ff" d="M838.44,-253.54C843.14,-244.96 848.98,-235.61 854.38,-228.16"/>
<polygon fill="#63b8ff" stroke="#63b8ff" points="835.32,-251.95 833.9,-262.45 841.56,-255.13 835.32,-251.95"/>
</g>
<!-- Node14&#45;&gt;Node10 -->
<g id="edge21" class="edge">
<title>Node14&#45;&gt;Node10</title>
<path fill="none" stroke="#63b8ff" d="M868.5,-186.39C868.5,-178.13 868.5,-169.28 868.5,-162.16"/>
<polygon fill="#63b8ff" stroke="#63b8ff" points="865,-186.28 868.5,-196.28 872,-186.28 865,-186.28"/>
</g>
<!-- Node14&#45;&gt;Node13 -->
<g id="edge22" class="edge">
<title>Node14&#45;&gt;Node13</title>
<path fill="none" stroke="#63b8ff" d="M860.58,-238.41C855.88,-246.99 850.05,-256.34 844.65,-263.8"/>
<polygon fill="#63b8ff" stroke="#63b8ff" points="863.7,-240.01 865.12,-229.51 857.46,-236.83 863.7,-240.01"/>
</g>
<!-- Node15&#45;&gt;Node10 -->
<g id="edge24" class="edge">
<title>Node15&#45;&gt;Node10</title>
<path fill="none" stroke="#63b8ff" d="M923.13,-320.7C942.26,-290.79 968.36,-237.98 946.5,-198 937.78,-182.05 921.56,-170.44 906.16,-162.45"/>
<polygon fill="#63b8ff" stroke="#63b8ff" points="920.47,-318.39 917.84,-328.65 926.29,-322.27 920.47,-318.39"/>
</g>
<!-- Node15&#45;&gt;Node13 -->
<g id="edge25" class="edge">
<title>Node15&#45;&gt;Node13</title>
<path fill="none" stroke="#63b8ff" d="M880.88,-322.42C869.91,-313.18 857.39,-302.65 847.58,-294.39"/>
<polygon fill="#63b8ff" stroke="#63b8ff" points="878.57,-325.06 888.48,-328.82 883.08,-319.7 878.57,-325.06"/>
</g>
<!-- Node15&#45;&gt;Node14 -->
<g id="edge26" class="edge">
<title>Node15&#45;&gt;Node14</title>
<path fill="none" stroke="#63b8ff" d="M911.67,-318.45C913.84,-302.37 914.62,-281.45 908.5,-264 903.64,-250.15 893.16,-237.29 884.14,-228.08"/>
<polygon fill="#63b8ff" stroke="#63b8ff" points="908.24,-317.73 910.09,-328.16 915.15,-318.86 908.24,-317.73"/>
</g>
</g>
</svg>
