<?xml version="1.0" encoding="UTF-8" standalone="no"?>
<!DOCTYPE svg PUBLIC "-//W3C//DTD SVG 1.1//EN"
 "http://www.w3.org/Graphics/SVG/1.1/DTD/svg11.dtd">
<!-- Generated by graphviz version 8.1.0 (20230707.2238)
 -->
<!-- Title: include/proxsuite/proxqp/dense/fwd.hpp Pages: 1 -->
<svg width="1028pt" height="528pt"
 viewBox="0.00 0.00 1027.55 528.00" xmlns="http://www.w3.org/2000/svg" xmlns:xlink="http://www.w3.org/1999/xlink">
<g id="graph0" class="graph" transform="scale(1 1) rotate(0) translate(4 524)">
<title>include/proxsuite/proxqp/dense/fwd.hpp</title>
<!-- Node1 -->
<g id="Node000001" class="node">
<title>Node1</title>
<g id="a_Node000001"><a xlink:title=" ">
<polygon fill="#999999" stroke="#666666" points="656.25,-520 519.5,-520 519.5,-486.5 656.25,-486.5 656.25,-520"/>
<text text-anchor="start" x="527.5" y="-506.5" font-family="Helvetica,sans-Serif" font-size="10.00">include/proxsuite/proxqp</text>
<text text-anchor="middle" x="587.88" y="-493.75" font-family="Helvetica,sans-Serif" font-size="10.00">/dense/fwd.hpp</text>
</a>
</g>
</g>
<!-- Node2 -->
<g id="Node000002" class="node">
<title>Node2</title>
<g id="a_Node000002"><a xlink:href="backward__data_8hpp.html" target="_top" xlink:title=" ">
<polygon fill="white" stroke="#666666" points="611.12,-450.5 464.62,-450.5 464.62,-417 611.12,-417 611.12,-450.5"/>
<text text-anchor="start" x="472.62" y="-437" font-family="Helvetica,sans-Serif" font-size="10.00">include/proxsuite/proxqp</text>
<text text-anchor="middle" x="537.88" y="-424.25" font-family="Helvetica,sans-Serif" font-size="10.00">/dense/backward_data.hpp</text>
</a>
</g>
</g>
<!-- Node1&#45;&gt;Node2 -->
<g id="edge1_Node000001_Node000002" class="edge">
<title>Node1&#45;&gt;Node2</title>
<g id="a_edge1_Node000001_Node000002"><a xlink:title=" ">
<path fill="none" stroke="#63b8ff" d="M569.66,-477.66C562.98,-468.64 555.6,-458.68 549.64,-450.63"/>
<polygon fill="#63b8ff" stroke="#63b8ff" points="567.26,-479.3 576.03,-485.25 572.89,-475.13 567.26,-479.3"/>
</a>
</g>
</g>
<!-- Node3 -->
<g id="Node000003" class="node">
<title>Node3</title>
<g id="a_Node000003"><a xlink:href="proxqp_2dense_2model_8hpp.html" target="_top" xlink:title=" ">
<polygon fill="white" stroke="#666666" points="505.25,-381 368.5,-381 368.5,-347.5 505.25,-347.5 505.25,-381"/>
<text text-anchor="start" x="376.5" y="-367.5" font-family="Helvetica,sans-Serif" font-size="10.00">include/proxsuite/proxqp</text>
<text text-anchor="middle" x="436.88" y="-354.75" font-family="Helvetica,sans-Serif" font-size="10.00">/dense/model.hpp</text>
</a>
</g>
</g>
<!-- Node1&#45;&gt;Node3 -->
<g id="edge17_Node000001_Node000003" class="edge">
<title>Node1&#45;&gt;Node3</title>
<g id="a_edge17_Node000001_Node000003"><a xlink:title=" ">
<path fill="none" stroke="#63b8ff" d="M508.78,-485.37C489.06,-477.7 469.65,-466.58 455.88,-450.5 439.21,-431.04 436.26,-400.12 436.19,-381.35"/>
<polygon fill="#63b8ff" stroke="#63b8ff" points="507.49,-488.99 518.09,-489.08 509.86,-482.4 507.49,-488.99"/>
</a>
</g>
</g>
<!-- Node14 -->
<g id="Node000014" class="node">
<title>Node14</title>
<g id="a_Node000014"><a xlink:href="dense_2helpers_8hpp.html" target="_top" xlink:title=" ">
<polygon fill="white" stroke="#666666" points="815.25,-311.5 678.5,-311.5 678.5,-278 815.25,-278 815.25,-311.5"/>
<text text-anchor="start" x="686.5" y="-298" font-family="Helvetica,sans-Serif" font-size="10.00">include/proxsuite/proxqp</text>
<text text-anchor="middle" x="746.88" y="-285.25" font-family="Helvetica,sans-Serif" font-size="10.00">/dense/helpers.hpp</text>
</a>
</g>
</g>
<!-- Node1&#45;&gt;Node14 -->
<g id="edge14_Node000001_Node000014" class="edge">
<title>Node1&#45;&gt;Node14</title>
<g id="a_edge14_Node000001_Node000014"><a xlink:title=" ">
<path fill="none" stroke="#63b8ff" d="M604.73,-477.26C609.95,-468.95 615.48,-459.51 619.88,-450.5 641.26,-406.64 626.49,-384.86 657.88,-347.5 670.75,-332.17 689.4,-320.35 706.3,-311.9"/>
<polygon fill="#63b8ff" stroke="#63b8ff" points="601.31,-475.11 598.82,-485.41 607.19,-478.9 601.31,-475.11"/>
</a>
</g>
</g>
<!-- Node15 -->
<g id="Node000015" class="node">
<title>Node15</title>
<g id="a_Node000015"><a xlink:href="proxqp_2dense_2preconditioner_2ruiz_8hpp.html" target="_top" xlink:title=" ">
<polygon fill="white" stroke="#666666" points="830.75,-381 667,-381 667,-347.5 830.75,-347.5 830.75,-381"/>
<text text-anchor="start" x="675" y="-367.5" font-family="Helvetica,sans-Serif" font-size="10.00">include/proxsuite/proxqp</text>
<text text-anchor="middle" x="748.88" y="-354.75" font-family="Helvetica,sans-Serif" font-size="10.00">/dense/preconditioner/ruiz.hpp</text>
</a>
</g>
</g>
<!-- Node1&#45;&gt;Node15 -->
<g id="edge18_Node000001_Node000015" class="edge">
<title>Node1&#45;&gt;Node15</title>
<g id="a_edge18_Node000001_Node000015"><a xlink:title=" ">
<path fill="none" stroke="#63b8ff" d="M617.22,-479.44C628.48,-470.54 641.38,-460.17 652.88,-450.5 680.85,-426.97 712.38,-398.6 731.43,-381.25"/>
<polygon fill="#63b8ff" stroke="#63b8ff" points="615.29,-477.28 609.6,-486.21 619.62,-482.78 615.29,-477.28"/>
</a>
</g>
</g>
<!-- Node2&#45;&gt;Node3 -->
<g id="edge2_Node000002_Node000003" class="edge">
<title>Node2&#45;&gt;Node3</title>
<g id="a_edge2_Node000002_Node000003"><a xlink:title=" ">
<path fill="none" stroke="#63b8ff" d="M504.65,-410.54C490.35,-400.99 473.95,-390.03 460.87,-381.29"/>
<polygon fill="#63b8ff" stroke="#63b8ff" points="502.42,-413.94 512.68,-416.58 506.31,-408.12 502.42,-413.94"/>
</a>
</g>
</g>
<!-- Node4 -->
<g id="Node000004" class="node">
<title>Node4</title>
<g id="a_Node000004"><a xlink:href="linesearch_8hpp.html" target="_top" xlink:title=" ">
<polygon fill="white" stroke="#666666" points="505.25,-311.5 368.5,-311.5 368.5,-278 505.25,-278 505.25,-311.5"/>
<text text-anchor="start" x="376.5" y="-298" font-family="Helvetica,sans-Serif" font-size="10.00">include/proxsuite/proxqp</text>
<text text-anchor="middle" x="436.88" y="-285.25" font-family="Helvetica,sans-Serif" font-size="10.00">/dense/linesearch.hpp</text>
</a>
</g>
</g>
<!-- Node3&#45;&gt;Node4 -->
<g id="edge3_Node000003_Node000004" class="edge">
<title>Node3&#45;&gt;Node4</title>
<g id="a_edge3_Node000003_Node000004"><a xlink:title=" ">
<path fill="none" stroke="#63b8ff" d="M436.88,-336.39C436.88,-328 436.88,-319.01 436.88,-311.63"/>
<polygon fill="#63b8ff" stroke="#63b8ff" points="433.38,-336.25 436.88,-346.25 440.38,-336.25 433.38,-336.25"/>
</a>
</g>
</g>
<!-- Node11 -->
<g id="Node000011" class="node">
<title>Node11</title>
<g id="a_Node000011"><a xlink:href="dense_2utils_8hpp.html" target="_top" xlink:title=" ">
<polygon fill="white" stroke="#666666" points="660.25,-311.5 523.5,-311.5 523.5,-278 660.25,-278 660.25,-311.5"/>
<text text-anchor="start" x="531.5" y="-298" font-family="Helvetica,sans-Serif" font-size="10.00">include/proxsuite/proxqp</text>
<text text-anchor="middle" x="591.88" y="-285.25" font-family="Helvetica,sans-Serif" font-size="10.00">/dense/utils.hpp</text>
</a>
</g>
</g>
<!-- Node3&#45;&gt;Node11 -->
<g id="edge10_Node000003_Node000011" class="edge">
<title>Node3&#45;&gt;Node11</title>
<g id="a_edge10_Node000003_Node000011"><a xlink:title=" ">
<path fill="none" stroke="#63b8ff" d="M483.8,-342.82C506.55,-332.91 533.49,-321.18 554.78,-311.9"/>
<polygon fill="#63b8ff" stroke="#63b8ff" points="482.77,-339.88 475,-347.08 485.57,-346.3 482.77,-339.88"/>
</a>
</g>
</g>
<!-- Node12 -->
<g id="Node000012" class="node">
<title>Node12</title>
<g id="a_Node000012"><a xlink:href="random__qp__problems_8hpp.html" target="_top" xlink:title=" ">
<polygon fill="white" stroke="#666666" points="169.75,-311.5 0,-311.5 0,-278 169.75,-278 169.75,-311.5"/>
<text text-anchor="start" x="8" y="-298" font-family="Helvetica,sans-Serif" font-size="10.00">include/proxsuite/proxqp</text>
<text text-anchor="middle" x="84.88" y="-285.25" font-family="Helvetica,sans-Serif" font-size="10.00">/utils/random_qp_problems.hpp</text>
</a>
</g>
</g>
<!-- Node3&#45;&gt;Node12 -->
<g id="edge12_Node000003_Node000012" class="edge">
<title>Node3&#45;&gt;Node12</title>
<g id="a_edge12_Node000003_Node000012"><a xlink:title=" ">
<path fill="none" stroke="#63b8ff" d="M357.59,-348.05C301.62,-337.31 226.72,-322.95 169.57,-311.99"/>
<polygon fill="#63b8ff" stroke="#63b8ff" points="356.69,-351.63 367.17,-350.08 358.01,-344.75 356.69,-351.63"/>
</a>
</g>
</g>
<!-- Node13 -->
<g id="Node000013" class="node">
<title>Node13</title>
<g id="a_Node000013"><a xlink:href="serialization_2model_8hpp.html" target="_top" xlink:title=" ">
<polygon fill="white" stroke="#666666" points="350.38,-311.5 187.38,-311.5 187.38,-278 350.38,-278 350.38,-311.5"/>
<text text-anchor="start" x="195.38" y="-298" font-family="Helvetica,sans-Serif" font-size="10.00">include/proxsuite/serialization</text>
<text text-anchor="middle" x="268.88" y="-285.25" font-family="Helvetica,sans-Serif" font-size="10.00">/model.hpp</text>
</a>
</g>
</g>
<!-- Node3&#45;&gt;Node13 -->
<g id="edge13_Node000003_Node000013" class="edge">
<title>Node3&#45;&gt;Node13</title>
<g id="a_edge13_Node000003_Node000013"><a xlink:title=" ">
<path fill="none" stroke="#63b8ff" d="M386.68,-343.08C361.88,-333.12 332.36,-321.26 309.08,-311.9"/>
<polygon fill="#63b8ff" stroke="#63b8ff" points="385.05,-346.6 395.63,-347.08 387.66,-340.11 385.05,-346.6"/>
</a>
</g>
</g>
<!-- Node5 -->
<g id="Node000005" class="node">
<title>Node5</title>
<g id="a_Node000005"><a xlink:href="dense_2solver_8hpp.html" target="_top" xlink:title=" ">
<polygon fill="white" stroke="#666666" points="690.25,-242 553.5,-242 553.5,-208.5 690.25,-208.5 690.25,-242"/>
<text text-anchor="start" x="561.5" y="-228.5" font-family="Helvetica,sans-Serif" font-size="10.00">include/proxsuite/proxqp</text>
<text text-anchor="middle" x="621.88" y="-215.75" font-family="Helvetica,sans-Serif" font-size="10.00">/dense/solver.hpp</text>
</a>
</g>
</g>
<!-- Node4&#45;&gt;Node5 -->
<g id="edge4_Node000004_Node000005" class="edge">
<title>Node4&#45;&gt;Node5</title>
<g id="a_edge4_Node000004_Node000005"><a xlink:title=" ">
<path fill="none" stroke="#63b8ff" d="M491.42,-273.85C518.88,-263.83 551.73,-251.84 577.6,-242.4"/>
<polygon fill="#63b8ff" stroke="#63b8ff" points="490.38,-270.87 482.19,-277.58 492.78,-277.44 490.38,-270.87"/>
</a>
</g>
</g>
<!-- Node6 -->
<g id="Node000006" class="node">
<title>Node6</title>
<g id="a_Node000006"><a xlink:href="proxqp_2dense_2wrapper_8hpp.html" target="_top" xlink:title=" ">
<polygon fill="white" stroke="#666666" points="815.25,-172.5 678.5,-172.5 678.5,-139 815.25,-139 815.25,-172.5"/>
<text text-anchor="start" x="686.5" y="-159" font-family="Helvetica,sans-Serif" font-size="10.00">include/proxsuite/proxqp</text>
<text text-anchor="middle" x="746.88" y="-146.25" font-family="Helvetica,sans-Serif" font-size="10.00">/dense/wrapper.hpp</text>
</a>
</g>
</g>
<!-- Node5&#45;&gt;Node6 -->
<g id="edge5_Node000005_Node000006" class="edge">
<title>Node5&#45;&gt;Node6</title>
<g id="a_edge5_Node000005_Node000006"><a xlink:title=" ">
<path fill="none" stroke="#63b8ff" d="M661.49,-202.86C679.53,-193.12 700.52,-181.78 717.18,-172.79"/>
<polygon fill="#63b8ff" stroke="#63b8ff" points="659.95,-200.25 652.82,-208.08 663.28,-206.41 659.95,-200.25"/>
</a>
</g>
</g>
<!-- Node7 -->
<g id="Node000007" class="node">
<title>Node7</title>
<g id="a_Node000007"><a xlink:href="compute__ECJ_8hpp.html" target="_top" xlink:title=" ">
<polygon fill="white" stroke="#666666" points="660.25,-103 523.5,-103 523.5,-69.5 660.25,-69.5 660.25,-103"/>
<text text-anchor="start" x="531.5" y="-89.5" font-family="Helvetica,sans-Serif" font-size="10.00">include/proxsuite/proxqp</text>
<text text-anchor="middle" x="591.88" y="-76.75" font-family="Helvetica,sans-Serif" font-size="10.00">/dense/compute_ECJ.hpp</text>
</a>
</g>
</g>
<!-- Node6&#45;&gt;Node7 -->
<g id="edge6_Node000006_Node000007" class="edge">
<title>Node6&#45;&gt;Node7</title>
<g id="a_edge6_Node000006_Node000007"><a xlink:title=" ">
<path fill="none" stroke="#63b8ff" d="M699.95,-134.32C677.2,-124.41 650.26,-112.68 628.97,-103.4"/>
<polygon fill="#63b8ff" stroke="#63b8ff" points="698.18,-137.8 708.75,-138.58 700.98,-131.38 698.18,-137.8"/>
</a>
</g>
</g>
<!-- Node9 -->
<g id="Node000009" class="node">
<title>Node9</title>
<g id="a_Node000009"><a xlink:href="dense_8hpp.html" target="_top" xlink:title=" ">
<polygon fill="white" stroke="#666666" points="815.25,-103 678.5,-103 678.5,-69.5 815.25,-69.5 815.25,-103"/>
<text text-anchor="start" x="686.5" y="-89.5" font-family="Helvetica,sans-Serif" font-size="10.00">include/proxsuite/proxqp</text>
<text text-anchor="middle" x="746.88" y="-76.75" font-family="Helvetica,sans-Serif" font-size="10.00">/dense/dense.hpp</text>
</a>
</g>
</g>
<!-- Node6&#45;&gt;Node9 -->
<g id="edge8_Node000006_Node000009" class="edge">
<title>Node6&#45;&gt;Node9</title>
<g id="a_edge8_Node000006_Node000009"><a xlink:title=" ">
<path fill="none" stroke="#63b8ff" d="M746.88,-127.89C746.88,-119.5 746.88,-110.51 746.88,-103.13"/>
<polygon fill="#63b8ff" stroke="#63b8ff" points="743.38,-127.75 746.88,-137.75 750.38,-127.75 743.38,-127.75"/>
</a>
</g>
</g>
<!-- Node10 -->
<g id="Node000010" class="node">
<title>Node10</title>
<g id="a_Node000010"><a xlink:href="serialization_2wrapper_8hpp.html" target="_top" xlink:title=" ">
<polygon fill="white" stroke="#666666" points="996.38,-103 833.38,-103 833.38,-69.5 996.38,-69.5 996.38,-103"/>
<text text-anchor="start" x="841.38" y="-89.5" font-family="Helvetica,sans-Serif" font-size="10.00">include/proxsuite/serialization</text>
<text text-anchor="middle" x="914.88" y="-76.75" font-family="Helvetica,sans-Serif" font-size="10.00">/wrapper.hpp</text>
</a>
</g>
</g>
<!-- Node6&#45;&gt;Node10 -->
<g id="edge9_Node000006_Node000010" class="edge">
<title>Node6&#45;&gt;Node10</title>
<g id="a_edge9_Node000006_Node000010"><a xlink:title=" ">
<path fill="none" stroke="#63b8ff" d="M797.07,-134.58C821.87,-124.62 851.39,-112.76 874.67,-103.4"/>
<polygon fill="#63b8ff" stroke="#63b8ff" points="796.09,-131.61 788.12,-138.58 798.7,-138.1 796.09,-131.61"/>
</a>
</g>
</g>
<!-- Node8 -->
<g id="Node000008" class="node">
<title>Node8</title>
<g id="a_Node000008"><a xlink:href="qp__solve_8hpp.html" target="_top" xlink:title=" ">
<polygon fill="white" stroke="#666666" points="660.25,-33.5 523.5,-33.5 523.5,0 660.25,0 660.25,-33.5"/>
<text text-anchor="start" x="531.5" y="-20" font-family="Helvetica,sans-Serif" font-size="10.00">include/proxsuite/proxqp</text>
<text text-anchor="middle" x="591.88" y="-7.25" font-family="Helvetica,sans-Serif" font-size="10.00">/parallel/qp_solve.hpp</text>
</a>
</g>
</g>
<!-- Node7&#45;&gt;Node8 -->
<g id="edge7_Node000007_Node000008" class="edge">
<title>Node7&#45;&gt;Node8</title>
<g id="a_edge7_Node000007_Node000008"><a xlink:title=" ">
<path fill="none" stroke="#63b8ff" d="M591.88,-58.39C591.88,-50 591.88,-41.01 591.88,-33.63"/>
<polygon fill="#63b8ff" stroke="#63b8ff" points="588.38,-58.25 591.88,-68.25 595.38,-58.25 588.38,-58.25"/>
</a>
</g>
</g>
<!-- Node11&#45;&gt;Node5 -->
<g id="edge11_Node000011_Node000005" class="edge">
<title>Node11&#45;&gt;Node5</title>
<g id="a_edge11_Node000011_Node000005"><a xlink:title=" ">
<path fill="none" stroke="#63b8ff" d="M603.43,-267.74C607.27,-259.11 611.42,-249.76 614.82,-242.13"/>
<polygon fill="#63b8ff" stroke="#63b8ff" points="599.85,-266.19 598.98,-276.75 606.24,-269.04 599.85,-266.19"/>
</a>
</g>
</g>
<!-- Node14&#45;&gt;Node5 -->
<g id="edge15_Node000014_Node000005" class="edge">
<title>Node14&#45;&gt;Node5</title>
<g id="a_edge15_Node000014_Node000005"><a xlink:title=" ">
<path fill="none" stroke="#63b8ff" d="M707.26,-272.36C689.22,-262.62 668.23,-251.28 651.57,-242.29"/>
<polygon fill="#63b8ff" stroke="#63b8ff" points="705.47,-275.91 715.93,-277.58 708.8,-269.75 705.47,-275.91"/>
</a>
</g>
</g>
<!-- Node14&#45;&gt;Node6 -->
<g id="edge16_Node000014_Node000006" class="edge">
<title>Node14&#45;&gt;Node6</title>
<g id="a_edge16_Node000014_Node000006"><a xlink:title=" ">
<path fill="none" stroke="#63b8ff" d="M746.88,-267.12C746.88,-239.06 746.88,-195.77 746.88,-172.63"/>
<polygon fill="#63b8ff" stroke="#63b8ff" points="743.38,-266.77 746.88,-276.77 750.38,-266.77 743.38,-266.77"/>
</a>
</g>
</g>
<!-- Node15&#45;&gt;Node6 -->
<g id="edge21_Node000015_Node000006" class="edge">
<title>Node15&#45;&gt;Node6</title>
<g id="a_edge21_Node000015_Node000006"><a xlink:title=" ">
<path fill="none" stroke="#63b8ff" d="M841.83,-356.73C906.67,-350.01 985.15,-336.81 1005.88,-311.5 1066.02,-238.04 911.17,-191.03 815.61,-169.84"/>
<polygon fill="#63b8ff" stroke="#63b8ff" points="841.74,-353.32 832.14,-357.79 842.43,-360.28 841.74,-353.32"/>
</a>
</g>
</g>
<!-- Node15&#45;&gt;Node11 -->
<g id="edge20_Node000015_Node000011" class="edge">
<title>Node15&#45;&gt;Node11</title>
<g id="a_edge20_Node000015_Node000011"><a xlink:title=" ">
<path fill="none" stroke="#63b8ff" d="M701.35,-342.82C678.3,-332.91 651.01,-321.18 629.45,-311.9"/>
<polygon fill="#63b8ff" stroke="#63b8ff" points="699.7,-346.35 710.27,-347.08 702.47,-339.92 699.7,-346.35"/>
</a>
</g>
</g>
<!-- Node15&#45;&gt;Node14 -->
<g id="edge19_Node000015_Node000014" class="edge">
<title>Node15&#45;&gt;Node14</title>
<g id="a_edge19_Node000015_Node000014"><a xlink:title=" ">
<path fill="none" stroke="#63b8ff" d="M748.08,-336.39C747.83,-328 747.56,-319.01 747.35,-311.63"/>
<polygon fill="#63b8ff" stroke="#63b8ff" points="744.61,-336.36 748.4,-346.25 751.6,-336.15 744.61,-336.36"/>
</a>
</g>
</g>
<!-- Node16 -->
<g id="Node000016" class="node">
<title>Node16</title>
<g id="a_Node000016"><a xlink:href="serialization_2ruiz_8hpp.html" target="_top" xlink:title=" ">
<polygon fill="white" stroke="#666666" points="996.38,-311.5 833.38,-311.5 833.38,-278 996.38,-278 996.38,-311.5"/>
<text text-anchor="start" x="841.38" y="-298" font-family="Helvetica,sans-Serif" font-size="10.00">include/proxsuite/serialization</text>
<text text-anchor="middle" x="914.88" y="-285.25" font-family="Helvetica,sans-Serif" font-size="10.00">/ruiz.hpp</text>
</a>
</g>
</g>
<!-- Node15&#45;&gt;Node16 -->
<g id="edge22_Node000015_Node000016" class="edge">
<title>Node15&#45;&gt;Node16</title>
<g id="a_edge22_Node000015_Node000016"><a xlink:title=" ">
<path fill="none" stroke="#63b8ff" d="M798.8,-342.95C823.23,-333.01 852.25,-321.22 875.15,-311.9"/>
<polygon fill="#63b8ff" stroke="#63b8ff" points="797.58,-340.07 789.64,-347.08 800.22,-346.56 797.58,-340.07"/>
</a>
</g>
</g>
</g>
</svg>
