<?xml version="1.0" encoding="UTF-8" standalone="no"?>
<!DOCTYPE svg PUBLIC "-//W3C//DTD SVG 1.1//EN"
 "http://www.w3.org/Graphics/SVG/1.1/DTD/svg11.dtd">
<!-- Generated by graphviz version 8.1.0 (20230707.2238)
 -->
<!-- Title: include/proxsuite/proxqp/settings.hpp Pages: 1 -->
<svg width="1290pt" height="528pt"
 viewBox="0.00 0.00 1289.65 528.00" xmlns="http://www.w3.org/2000/svg" xmlns:xlink="http://www.w3.org/1999/xlink">
<g id="graph0" class="graph" transform="scale(1 1) rotate(0) translate(4 524)">
<title>include/proxsuite/proxqp/settings.hpp</title>
<!-- Node1 -->
<g id="Node000001" class="node">
<title>Node1</title>
<g id="a_Node000001"><a xlink:title=" ">
<polygon fill="#999999" stroke="#666666" points="761.52,-520 624.77,-520 624.77,-486.5 761.52,-486.5 761.52,-520"/>
<text text-anchor="start" x="632.77" y="-506.5" font-family="Helvetica,sans-Serif" font-size="10.00">include/proxsuite/proxqp</text>
<text text-anchor="middle" x="693.15" y="-493.75" font-family="Helvetica,sans-Serif" font-size="10.00">/settings.hpp</text>
</a>
</g>
</g>
<!-- Node2 -->
<g id="Node000002" class="node">
<title>Node2</title>
<g id="a_Node000002"><a xlink:href="dense_2helpers_8hpp.html" target="_top" xlink:title=" ">
<polygon fill="white" stroke="#666666" points="150.52,-381 13.77,-381 13.77,-347.5 150.52,-347.5 150.52,-381"/>
<text text-anchor="start" x="21.77" y="-367.5" font-family="Helvetica,sans-Serif" font-size="10.00">include/proxsuite/proxqp</text>
<text text-anchor="middle" x="82.15" y="-354.75" font-family="Helvetica,sans-Serif" font-size="10.00">/dense/helpers.hpp</text>
</a>
</g>
</g>
<!-- Node1&#45;&gt;Node2 -->
<g id="edge1_Node000001_Node000002" class="edge">
<title>Node1&#45;&gt;Node2</title>
<g id="a_edge1_Node000001_Node000002"><a xlink:title=" ">
<path fill="none" stroke="#63b8ff" d="M613.29,-500.49C525.21,-496.77 380.06,-485.35 260.15,-450.5 230.7,-441.94 155.41,-403.67 112.78,-381.43"/>
<polygon fill="#63b8ff" stroke="#63b8ff" points="613.14,-504.03 623.27,-500.93 613.42,-497.03 613.14,-504.03"/>
</a>
</g>
</g>
<!-- Node8 -->
<g id="Node000008" class="node">
<title>Node8</title>
<g id="a_Node000008"><a xlink:href="linesearch_8hpp.html" target="_top" xlink:title=" ">
<polygon fill="white" stroke="#666666" points="460.52,-381 323.77,-381 323.77,-347.5 460.52,-347.5 460.52,-381"/>
<text text-anchor="start" x="331.77" y="-367.5" font-family="Helvetica,sans-Serif" font-size="10.00">include/proxsuite/proxqp</text>
<text text-anchor="middle" x="392.15" y="-354.75" font-family="Helvetica,sans-Serif" font-size="10.00">/dense/linesearch.hpp</text>
</a>
</g>
</g>
<!-- Node1&#45;&gt;Node8 -->
<g id="edge8_Node000001_Node000008" class="edge">
<title>Node1&#45;&gt;Node8</title>
<g id="a_edge8_Node000001_Node000008"><a xlink:title=" ">
<path fill="none" stroke="#63b8ff" d="M613.58,-491.54C573.92,-483.94 526.22,-471.28 487.15,-450.5 484.9,-449.3 436.8,-405.79 409.93,-381.4"/>
<polygon fill="#63b8ff" stroke="#63b8ff" points="612.81,-495.14 623.27,-493.51 614.07,-488.26 612.81,-495.14"/>
</a>
</g>
</g>
<!-- Node9 -->
<g id="Node000009" class="node">
<title>Node9</title>
<g id="a_Node000009"><a xlink:href="dense_2preconditioner_2ruiz_8hpp.html" target="_top" xlink:title=" ">
<polygon fill="white" stroke="#666666" points="170.02,-450.5 6.27,-450.5 6.27,-417 170.02,-417 170.02,-450.5"/>
<text text-anchor="start" x="14.27" y="-437" font-family="Helvetica,sans-Serif" font-size="10.00">include/proxsuite/proxqp</text>
<text text-anchor="middle" x="88.15" y="-424.25" font-family="Helvetica,sans-Serif" font-size="10.00">/dense/preconditioner/ruiz.hpp</text>
</a>
</g>
</g>
<!-- Node1&#45;&gt;Node9 -->
<g id="edge10_Node000001_Node000009" class="edge">
<title>Node1&#45;&gt;Node9</title>
<g id="a_edge10_Node000001_Node000009"><a xlink:title=" ">
<path fill="none" stroke="#63b8ff" d="M613.45,-494.39C517.12,-484.75 350.13,-467.57 207.15,-450.5 195.25,-449.08 182.69,-447.5 170.37,-445.91"/>
<polygon fill="#63b8ff" stroke="#63b8ff" points="612.97,-497.96 623.27,-495.47 613.67,-491 612.97,-497.96"/>
</a>
</g>
</g>
<!-- Node10 -->
<g id="Node000010" class="node">
<title>Node10</title>
<g id="a_Node000010"><a xlink:href="dense_2utils_8hpp.html" target="_top" xlink:title=" ">
<polygon fill="white" stroke="#666666" points="305.52,-381 168.77,-381 168.77,-347.5 305.52,-347.5 305.52,-381"/>
<text text-anchor="start" x="176.77" y="-367.5" font-family="Helvetica,sans-Serif" font-size="10.00">include/proxsuite/proxqp</text>
<text text-anchor="middle" x="237.15" y="-354.75" font-family="Helvetica,sans-Serif" font-size="10.00">/dense/utils.hpp</text>
</a>
</g>
</g>
<!-- Node1&#45;&gt;Node10 -->
<g id="edge15_Node000001_Node000010" class="edge">
<title>Node1&#45;&gt;Node10</title>
<g id="a_edge15_Node000001_Node000010"><a xlink:title=" ">
<path fill="none" stroke="#63b8ff" d="M613.8,-499.55C513.31,-494.84 346.97,-482.37 295.15,-450.5 268.77,-434.28 251.55,-401.05 243.17,-381.21"/>
<polygon fill="#63b8ff" stroke="#63b8ff" points="613.36,-503.08 623.51,-500.03 613.68,-496.08 613.36,-503.08"/>
</a>
</g>
</g>
<!-- Node11 -->
<g id="Node000011" class="node">
<title>Node11</title>
<g id="a_Node000011"><a xlink:href="dense_2workspace_8hpp.html" target="_top" xlink:title=" ">
<polygon fill="white" stroke="#666666" points="440.52,-450.5 303.77,-450.5 303.77,-417 440.52,-417 440.52,-450.5"/>
<text text-anchor="start" x="311.77" y="-437" font-family="Helvetica,sans-Serif" font-size="10.00">include/proxsuite/proxqp</text>
<text text-anchor="middle" x="372.15" y="-424.25" font-family="Helvetica,sans-Serif" font-size="10.00">/dense/workspace.hpp</text>
</a>
</g>
</g>
<!-- Node1&#45;&gt;Node11 -->
<g id="edge16_Node000001_Node000011" class="edge">
<title>Node1&#45;&gt;Node11</title>
<g id="a_edge16_Node000001_Node000011"><a xlink:title=" ">
<path fill="none" stroke="#63b8ff" d="M613.56,-485.51C560.53,-474.36 491.54,-459.86 440.9,-449.21"/>
<polygon fill="#63b8ff" stroke="#63b8ff" points="612.78,-489.14 623.28,-487.77 614.22,-482.29 612.78,-489.14"/>
</a>
</g>
</g>
<!-- Node12 -->
<g id="Node000012" class="node">
<title>Node12</title>
<g id="a_Node000012"><a xlink:href="proxqp_2results_8hpp.html" target="_top" xlink:title=" ">
<polygon fill="white" stroke="#666666" points="632.52,-450.5 495.77,-450.5 495.77,-417 632.52,-417 632.52,-450.5"/>
<text text-anchor="start" x="503.77" y="-437" font-family="Helvetica,sans-Serif" font-size="10.00">include/proxsuite/proxqp</text>
<text text-anchor="middle" x="564.15" y="-424.25" font-family="Helvetica,sans-Serif" font-size="10.00">/results.hpp</text>
</a>
</g>
</g>
<!-- Node1&#45;&gt;Node12 -->
<g id="edge19_Node000001_Node000012" class="edge">
<title>Node1&#45;&gt;Node12</title>
<g id="a_edge19_Node000001_Node000012"><a xlink:title=" ">
<path fill="none" stroke="#63b8ff" d="M652.52,-480.99C633.85,-471.22 612.06,-459.82 594.79,-450.79"/>
<polygon fill="#63b8ff" stroke="#63b8ff" points="650.77,-484.55 661.25,-486.08 654.01,-478.34 650.77,-484.55"/>
</a>
</g>
</g>
<!-- Node13 -->
<g id="Node000013" class="node">
<title>Node13</title>
<g id="a_Node000013"><a xlink:href="sparse_2solver_8hpp.html" target="_top" xlink:title=" ">
<polygon fill="white" stroke="#666666" points="881.52,-172.5 744.77,-172.5 744.77,-139 881.52,-139 881.52,-172.5"/>
<text text-anchor="start" x="752.77" y="-159" font-family="Helvetica,sans-Serif" font-size="10.00">include/proxsuite/proxqp</text>
<text text-anchor="middle" x="813.15" y="-146.25" font-family="Helvetica,sans-Serif" font-size="10.00">/sparse/solver.hpp</text>
</a>
</g>
</g>
<!-- Node1&#45;&gt;Node13 -->
<g id="edge39_Node000001_Node000013" class="edge">
<title>Node1&#45;&gt;Node13</title>
<g id="a_edge39_Node000001_Node000013"><a xlink:title=" ">
<path fill="none" stroke="#63b8ff" d="M772.68,-497.94C827.29,-492.36 900.1,-479.6 958.15,-450.5 1008.57,-425.22 1052.15,-421.65 1052.15,-365.25 1052.15,-365.25 1052.15,-365.25 1052.15,-293.75 1052.15,-214.72 952.56,-180.63 881.96,-166.4"/>
<polygon fill="#63b8ff" stroke="#63b8ff" points="772.63,-494.53 763.01,-498.97 773.3,-501.5 772.63,-494.53"/>
</a>
</g>
</g>
<!-- Node14 -->
<g id="Node000014" class="node">
<title>Node14</title>
<g id="a_Node000014"><a xlink:href="proxqp_2sparse_2wrapper_8hpp.html" target="_top" xlink:title=" ">
<polygon fill="white" stroke="#666666" points="733.52,-103 596.77,-103 596.77,-69.5 733.52,-69.5 733.52,-103"/>
<text text-anchor="start" x="604.77" y="-89.5" font-family="Helvetica,sans-Serif" font-size="10.00">include/proxsuite/proxqp</text>
<text text-anchor="middle" x="665.15" y="-76.75" font-family="Helvetica,sans-Serif" font-size="10.00">/sparse/wrapper.hpp</text>
</a>
</g>
</g>
<!-- Node1&#45;&gt;Node14 -->
<g id="edge43_Node000001_Node000014" class="edge">
<title>Node1&#45;&gt;Node14</title>
<g id="a_edge43_Node000001_Node000014"><a xlink:title=" ">
<path fill="none" stroke="#63b8ff" d="M772.41,-502.34C838.11,-499.41 932.21,-488.07 1005.15,-450.5 1052.71,-426 1090.15,-418.75 1090.15,-365.25 1090.15,-365.25 1090.15,-365.25 1090.15,-224.25 1090.15,-150.31 854.19,-110.5 733.9,-95"/>
<polygon fill="#63b8ff" stroke="#63b8ff" points="772.57,-498.87 762.71,-502.76 772.84,-505.87 772.57,-498.87"/>
</a>
</g>
</g>
<!-- Node16 -->
<g id="Node000016" class="node">
<title>Node16</title>
<g id="a_Node000016"><a xlink:href="sparse_2utils_8hpp.html" target="_top" xlink:title=" ">
<polygon fill="white" stroke="#666666" points="910.52,-311.5 773.77,-311.5 773.77,-278 910.52,-278 910.52,-311.5"/>
<text text-anchor="start" x="781.77" y="-298" font-family="Helvetica,sans-Serif" font-size="10.00">include/proxsuite/proxqp</text>
<text text-anchor="middle" x="842.15" y="-285.25" font-family="Helvetica,sans-Serif" font-size="10.00">/sparse/utils.hpp</text>
</a>
</g>
</g>
<!-- Node1&#45;&gt;Node16 -->
<g id="edge40_Node000001_Node000016" class="edge">
<title>Node1&#45;&gt;Node16</title>
<g id="a_edge40_Node000001_Node000016"><a xlink:title=" ">
<path fill="none" stroke="#63b8ff" d="M716.93,-478.31C739.51,-454.81 773.57,-417.3 798.15,-381 813.55,-358.24 827.38,-329.41 835.26,-311.78"/>
<polygon fill="#63b8ff" stroke="#63b8ff" points="714.9,-475.4 710.45,-485.02 719.93,-480.28 714.9,-475.4"/>
</a>
</g>
</g>
<!-- Node17 -->
<g id="Node000017" class="node">
<title>Node17</title>
<g id="a_Node000017"><a xlink:href="sparse_2workspace_8hpp.html" target="_top" xlink:title=" ">
<polygon fill="white" stroke="#666666" points="929.52,-242 792.77,-242 792.77,-208.5 929.52,-208.5 929.52,-242"/>
<text text-anchor="start" x="800.77" y="-228.5" font-family="Helvetica,sans-Serif" font-size="10.00">include/proxsuite/proxqp</text>
<text text-anchor="middle" x="861.15" y="-215.75" font-family="Helvetica,sans-Serif" font-size="10.00">/sparse/workspace.hpp</text>
</a>
</g>
</g>
<!-- Node1&#45;&gt;Node17 -->
<g id="edge42_Node000001_Node000017" class="edge">
<title>Node1&#45;&gt;Node17</title>
<g id="a_edge42_Node000001_Node000017"><a xlink:title=" ">
<path fill="none" stroke="#63b8ff" d="M772.44,-496.29C845.7,-485.95 949.83,-457.74 995.15,-381 1028.58,-324.39 943.71,-268.78 894.07,-242.29"/>
<polygon fill="#63b8ff" stroke="#63b8ff" points="772.32,-492.91 762.86,-497.69 773.24,-499.85 772.32,-492.91"/>
</a>
</g>
</g>
<!-- Node18 -->
<g id="Node000018" class="node">
<title>Node18</title>
<g id="a_Node000018"><a xlink:href="sparse_2views_8hpp.html" target="_top" xlink:title=" ">
<polygon fill="white" stroke="#666666" points="986.52,-381 849.77,-381 849.77,-347.5 986.52,-347.5 986.52,-381"/>
<text text-anchor="start" x="857.77" y="-367.5" font-family="Helvetica,sans-Serif" font-size="10.00">include/proxsuite/proxqp</text>
<text text-anchor="middle" x="918.15" y="-354.75" font-family="Helvetica,sans-Serif" font-size="10.00">/sparse/views.hpp</text>
</a>
</g>
</g>
<!-- Node1&#45;&gt;Node18 -->
<g id="edge41_Node000001_Node000018" class="edge">
<title>Node1&#45;&gt;Node18</title>
<g id="a_edge41_Node000001_Node000018"><a xlink:title=" ">
<path fill="none" stroke="#63b8ff" d="M767.08,-482.68C790.25,-474.7 815.22,-464.09 836.15,-450.5 865.42,-431.48 891.98,-400.13 906.51,-381.21"/>
<polygon fill="#63b8ff" stroke="#63b8ff" points="766.32,-479.58 757.93,-486.05 768.53,-486.22 766.32,-479.58"/>
</a>
</g>
</g>
<!-- Node20 -->
<g id="Node000020" class="node">
<title>Node20</title>
<g id="a_Node000020"><a xlink:href="serialization_2settings_8hpp.html" target="_top" xlink:title=" ">
<polygon fill="white" stroke="#666666" points="1281.65,-450.5 1118.65,-450.5 1118.65,-417 1281.65,-417 1281.65,-450.5"/>
<text text-anchor="start" x="1126.65" y="-437" font-family="Helvetica,sans-Serif" font-size="10.00">include/proxsuite/serialization</text>
<text text-anchor="middle" x="1200.15" y="-424.25" font-family="Helvetica,sans-Serif" font-size="10.00">/settings.hpp</text>
</a>
</g>
</g>
<!-- Node1&#45;&gt;Node20 -->
<g id="edge44_Node000001_Node000020" class="edge">
<title>Node1&#45;&gt;Node20</title>
<g id="a_edge44_Node000001_Node000020"><a xlink:title=" ">
<path fill="none" stroke="#63b8ff" d="M772.83,-493.11C855.71,-483.4 989.2,-467.16 1104.15,-450.5 1108.74,-449.83 1113.46,-449.13 1118.22,-448.4"/>
<polygon fill="#63b8ff" stroke="#63b8ff" points="772.5,-489.74 762.97,-494.38 773.31,-496.7 772.5,-489.74"/>
</a>
</g>
</g>
<!-- Node3 -->
<g id="Node000003" class="node">
<title>Node3</title>
<g id="a_Node000003"><a xlink:href="dense_2solver_8hpp.html" target="_top" xlink:title=" ">
<polygon fill="white" stroke="#666666" points="276.52,-311.5 139.77,-311.5 139.77,-278 276.52,-278 276.52,-311.5"/>
<text text-anchor="start" x="147.77" y="-298" font-family="Helvetica,sans-Serif" font-size="10.00">include/proxsuite/proxqp</text>
<text text-anchor="middle" x="208.15" y="-285.25" font-family="Helvetica,sans-Serif" font-size="10.00">/dense/solver.hpp</text>
</a>
</g>
</g>
<!-- Node2&#45;&gt;Node3 -->
<g id="edge2_Node000002_Node000003" class="edge">
<title>Node2&#45;&gt;Node3</title>
<g id="a_edge2_Node000002_Node000003"><a xlink:title=" ">
<path fill="none" stroke="#63b8ff" d="M121.83,-341.99C140.07,-332.22 161.35,-320.82 178.21,-311.79"/>
<polygon fill="#63b8ff" stroke="#63b8ff" points="120.49,-339.27 113.33,-347.08 123.79,-345.44 120.49,-339.27"/>
</a>
</g>
</g>
<!-- Node4 -->
<g id="Node000004" class="node">
<title>Node4</title>
<g id="a_Node000004"><a xlink:href="proxqp_2dense_2wrapper_8hpp.html" target="_top" xlink:title=" ">
<polygon fill="white" stroke="#666666" points="211.52,-242 74.77,-242 74.77,-208.5 211.52,-208.5 211.52,-242"/>
<text text-anchor="start" x="82.77" y="-228.5" font-family="Helvetica,sans-Serif" font-size="10.00">include/proxsuite/proxqp</text>
<text text-anchor="middle" x="143.15" y="-215.75" font-family="Helvetica,sans-Serif" font-size="10.00">/dense/wrapper.hpp</text>
</a>
</g>
</g>
<!-- Node2&#45;&gt;Node4 -->
<g id="edge7_Node000002_Node000004" class="edge">
<title>Node2&#45;&gt;Node4</title>
<g id="a_edge7_Node000002_Node000004"><a xlink:title=" ">
<path fill="none" stroke="#63b8ff" d="M93.67,-337.37C106.16,-309.33 125.68,-265.48 136.08,-242.13"/>
<polygon fill="#63b8ff" stroke="#63b8ff" points="90.13,-335.71 89.26,-346.27 96.53,-338.55 90.13,-335.71"/>
</a>
</g>
</g>
<!-- Node3&#45;&gt;Node4 -->
<g id="edge3_Node000003_Node000004" class="edge">
<title>Node3&#45;&gt;Node4</title>
<g id="a_edge3_Node000003_Node000004"><a xlink:title=" ">
<path fill="none" stroke="#63b8ff" d="M185.28,-270C176.39,-260.77 166.44,-250.44 158.44,-242.13"/>
<polygon fill="#63b8ff" stroke="#63b8ff" points="182.29,-271.98 191.74,-276.75 187.33,-267.12 182.29,-271.98"/>
</a>
</g>
</g>
<!-- Node5 -->
<g id="Node000005" class="node">
<title>Node5</title>
<g id="a_Node000005"><a xlink:href="dense_8hpp.html" target="_top" xlink:title=" ">
<polygon fill="white" stroke="#666666" points="179.52,-172.5 42.77,-172.5 42.77,-139 179.52,-139 179.52,-172.5"/>
<text text-anchor="start" x="50.77" y="-159" font-family="Helvetica,sans-Serif" font-size="10.00">include/proxsuite/proxqp</text>
<text text-anchor="middle" x="111.15" y="-146.25" font-family="Helvetica,sans-Serif" font-size="10.00">/dense/dense.hpp</text>
</a>
</g>
</g>
<!-- Node4&#45;&gt;Node5 -->
<g id="edge4_Node000004_Node000005" class="edge">
<title>Node4&#45;&gt;Node5</title>
<g id="a_edge4_Node000004_Node000005"><a xlink:title=" ">
<path fill="none" stroke="#63b8ff" d="M130.95,-198.53C126.82,-189.82 122.33,-180.35 118.68,-172.63"/>
<polygon fill="#63b8ff" stroke="#63b8ff" points="128.12,-199.72 135.56,-207.25 134.44,-196.72 128.12,-199.72"/>
</a>
</g>
</g>
<!-- Node6 -->
<g id="Node000006" class="node">
<title>Node6</title>
<g id="a_Node000006"><a xlink:href="qp__solve_8hpp.html" target="_top" xlink:title=" ">
<polygon fill="white" stroke="#666666" points="515.52,-33.5 378.77,-33.5 378.77,0 515.52,0 515.52,-33.5"/>
<text text-anchor="start" x="386.77" y="-20" font-family="Helvetica,sans-Serif" font-size="10.00">include/proxsuite/proxqp</text>
<text text-anchor="middle" x="447.15" y="-7.25" font-family="Helvetica,sans-Serif" font-size="10.00">/parallel/qp_solve.hpp</text>
</a>
</g>
</g>
<!-- Node4&#45;&gt;Node6 -->
<g id="edge5_Node000004_Node000006" class="edge">
<title>Node4&#45;&gt;Node6</title>
<g id="a_edge5_Node000004_Node000006"><a xlink:title=" ">
<path fill="none" stroke="#63b8ff" d="M163.47,-199.73C179.33,-181.56 202.55,-156.95 226.15,-139 285.71,-93.69 364.31,-54.81 409.93,-33.99"/>
<polygon fill="#63b8ff" stroke="#63b8ff" points="160.17,-197.21 156.31,-207.08 165.48,-201.77 160.17,-197.21"/>
</a>
</g>
</g>
<!-- Node7 -->
<g id="Node000007" class="node">
<title>Node7</title>
<g id="a_Node000007"><a xlink:href="serialization_2wrapper_8hpp.html" target="_top" xlink:title=" ">
<polygon fill="white" stroke="#666666" points="398.65,-172.5 235.65,-172.5 235.65,-139 398.65,-139 398.65,-172.5"/>
<text text-anchor="start" x="243.65" y="-159" font-family="Helvetica,sans-Serif" font-size="10.00">include/proxsuite/serialization</text>
<text text-anchor="middle" x="317.15" y="-146.25" font-family="Helvetica,sans-Serif" font-size="10.00">/wrapper.hpp</text>
</a>
</g>
</g>
<!-- Node4&#45;&gt;Node7 -->
<g id="edge6_Node000004_Node000007" class="edge">
<title>Node4&#45;&gt;Node7</title>
<g id="a_edge6_Node000004_Node000007"><a xlink:title=" ">
<path fill="none" stroke="#63b8ff" d="M194.79,-204.22C220.55,-194.22 251.28,-182.3 275.51,-172.9"/>
<polygon fill="#63b8ff" stroke="#63b8ff" points="193.88,-201.2 185.82,-208.08 196.41,-207.73 193.88,-201.2"/>
</a>
</g>
</g>
<!-- Node8&#45;&gt;Node3 -->
<g id="edge9_Node000008_Node000003" class="edge">
<title>Node8&#45;&gt;Node3</title>
<g id="a_edge9_Node000008_Node000003"><a xlink:title=" ">
<path fill="none" stroke="#63b8ff" d="M337.9,-343.35C310.59,-333.33 277.91,-321.34 252.18,-311.9"/>
<polygon fill="#63b8ff" stroke="#63b8ff" points="336.48,-346.92 347.07,-347.08 338.89,-340.35 336.48,-346.92"/>
</a>
</g>
</g>
<!-- Node9&#45;&gt;Node2 -->
<g id="edge11_Node000009_Node000002" class="edge">
<title>Node9&#45;&gt;Node2</title>
<g id="a_edge11_Node000009_Node000002"><a xlink:title=" ">
<path fill="none" stroke="#63b8ff" d="M85.76,-405.89C85.01,-397.5 84.21,-388.51 83.56,-381.13"/>
<polygon fill="#63b8ff" stroke="#63b8ff" points="82.35,-406.1 86.73,-415.75 89.33,-405.48 82.35,-406.1"/>
</a>
</g>
</g>
<!-- Node9&#45;&gt;Node4 -->
<g id="edge14_Node000009_Node000004" class="edge">
<title>Node9&#45;&gt;Node4</title>
<g id="a_edge14_Node000009_Node000004"><a xlink:title=" ">
<path fill="none" stroke="#63b8ff" d="M36.01,-411.29C23.73,-403.63 12.17,-393.66 5.15,-381 -2.08,-367.98 -0.99,-361.06 5.15,-347.5 27.11,-298.98 79.14,-262.16 112.67,-242.43"/>
<polygon fill="#63b8ff" stroke="#63b8ff" points="34.07,-414.78 44.49,-416.71 37.54,-408.71 34.07,-414.78"/>
</a>
</g>
</g>
<!-- Node9&#45;&gt;Node10 -->
<g id="edge12_Node000009_Node000010" class="edge">
<title>Node9&#45;&gt;Node10</title>
<g id="a_edge12_Node000009_Node000010"><a xlink:title=" ">
<path fill="none" stroke="#63b8ff" d="M133.84,-412.05C155.59,-402.2 181.21,-390.59 201.49,-381.4"/>
<polygon fill="#63b8ff" stroke="#63b8ff" points="132.5,-409.27 124.84,-416.58 135.39,-415.64 132.5,-409.27"/>
</a>
</g>
</g>
<!-- Node10&#45;&gt;Node3 -->
<g id="edge13_Node000010_Node000003" class="edge">
<title>Node10&#45;&gt;Node3</title>
<g id="a_edge13_Node000010_Node000003"><a xlink:title=" ">
<path fill="none" stroke="#63b8ff" d="M225.97,-337.24C222.26,-328.61 218.25,-319.26 214.97,-311.63"/>
<polygon fill="#63b8ff" stroke="#63b8ff" points="223.11,-338.45 230.27,-346.25 229.54,-335.68 223.11,-338.45"/>
</a>
</g>
</g>
<!-- Node11&#45;&gt;Node8 -->
<g id="edge17_Node000011_Node000008" class="edge">
<title>Node11&#45;&gt;Node8</title>
<g id="a_edge17_Node000011_Node000008"><a xlink:title=" ">
<path fill="none" stroke="#63b8ff" d="M379.94,-406.46C382.47,-397.91 385.2,-388.68 387.44,-381.13"/>
<polygon fill="#63b8ff" stroke="#63b8ff" points="376.37,-405.17 376.89,-415.75 383.08,-407.16 376.37,-405.17"/>
</a>
</g>
</g>
<!-- Node11&#45;&gt;Node10 -->
<g id="edge18_Node000011_Node000010" class="edge">
<title>Node11&#45;&gt;Node10</title>
<g id="a_edge18_Node000011_Node000010"><a xlink:title=" ">
<path fill="none" stroke="#63b8ff" d="M330.17,-411.76C310.51,-401.93 287.46,-390.41 269.22,-381.29"/>
<polygon fill="#63b8ff" stroke="#63b8ff" points="328.3,-415.24 338.81,-416.58 331.43,-408.98 328.3,-415.24"/>
</a>
</g>
</g>
<!-- Node12&#45;&gt;Node2 -->
<g id="edge20_Node000012_Node000002" class="edge">
<title>Node12&#45;&gt;Node2</title>
<g id="a_edge20_Node000012_Node000002"><a xlink:title=" ">
<path fill="none" stroke="#63b8ff" d="M484.62,-421.73C472.73,-420.12 460.62,-418.5 449.15,-417 320.8,-400.22 287.9,-401.82 160.15,-381 157.15,-380.51 154.09,-379.99 151,-379.45"/>
<polygon fill="#63b8ff" stroke="#63b8ff" points="484.07,-425.32 494.45,-423.2 485.01,-418.39 484.07,-425.32"/>
</a>
</g>
</g>
<!-- Node12&#45;&gt;Node8 -->
<g id="edge21_Node000012_Node000008" class="edge">
<title>Node12&#45;&gt;Node8</title>
<g id="a_edge21_Node000012_Node000008"><a xlink:title=" ">
<path fill="none" stroke="#63b8ff" d="M512.76,-412.58C487.37,-402.62 457.15,-390.76 433.31,-381.4"/>
<polygon fill="#63b8ff" stroke="#63b8ff" points="511.36,-416.19 521.95,-416.58 513.92,-409.67 511.36,-416.19"/>
</a>
</g>
</g>
<!-- Node12&#45;&gt;Node10 -->
<g id="edge22_Node000012_Node000010" class="edge">
<title>Node12&#45;&gt;Node10</title>
<g id="a_edge22_Node000012_Node000010"><a xlink:title=" ">
<path fill="none" stroke="#63b8ff" d="M484.9,-416.39C430.19,-405.1 358.17,-390.23 305.89,-379.44"/>
<polygon fill="#63b8ff" stroke="#63b8ff" points="484.1,-420.01 494.6,-418.6 485.51,-413.15 484.1,-420.01"/>
</a>
</g>
</g>
<!-- Node12&#45;&gt;Node13 -->
<g id="edge23_Node000012_Node000013" class="edge">
<title>Node12&#45;&gt;Node13</title>
<g id="a_edge23_Node000012_Node000013"><a xlink:title=" ">
<path fill="none" stroke="#63b8ff" d="M557.35,-406.07C554.33,-388.53 553.19,-365.56 562.15,-347.5 606.41,-258.26 714.6,-199.5 773.45,-172.98"/>
<polygon fill="#63b8ff" stroke="#63b8ff" points="554.1,-406.62 559.53,-415.71 560.96,-405.21 554.1,-406.62"/>
</a>
</g>
</g>
<!-- Node12&#45;&gt;Node14 -->
<g id="edge37_Node000012_Node000014" class="edge">
<title>Node12&#45;&gt;Node14</title>
<g id="a_edge37_Node000012_Node000014"><a xlink:title=" ">
<path fill="none" stroke="#63b8ff" d="M540.82,-408.59C518.48,-382.82 488.15,-339.74 488.15,-295.75 488.15,-295.75 488.15,-295.75 488.15,-224.25 488.15,-161.1 559.47,-122.92 611.56,-103.46"/>
<polygon fill="#63b8ff" stroke="#63b8ff" points="537.75,-410.53 547.03,-415.64 542.96,-405.86 537.75,-410.53"/>
</a>
</g>
</g>
<!-- Node12&#45;&gt;Node16 -->
<g id="edge27_Node000012_Node000016" class="edge">
<title>Node12&#45;&gt;Node16</title>
<g id="a_edge27_Node000012_Node000016"><a xlink:title=" ">
<path fill="none" stroke="#63b8ff" d="M563.29,-405.87C564.2,-386.97 568.68,-362.47 584.15,-347.5 610.65,-321.84 706.39,-307.96 773.47,-301.21"/>
<polygon fill="#63b8ff" stroke="#63b8ff" points="559.78,-405.72 563.12,-415.78 566.78,-405.83 559.78,-405.72"/>
</a>
</g>
</g>
<!-- Node12&#45;&gt;Node17 -->
<g id="edge36_Node000012_Node000017" class="edge">
<title>Node12&#45;&gt;Node17</title>
<g id="a_edge36_Node000012_Node000017"><a xlink:title=" ">
<path fill="none" stroke="#63b8ff" d="M643.56,-422.36C692.99,-414.09 749.95,-400.6 765.15,-381 793.19,-344.82 741.68,-317.31 765.15,-278 774.8,-261.82 791.46,-250.4 808.21,-242.49"/>
<polygon fill="#63b8ff" stroke="#63b8ff" points="643.14,-419.05 633.82,-424.1 644.25,-425.96 643.14,-419.05"/>
</a>
</g>
</g>
<!-- Node12&#45;&gt;Node18 -->
<g id="edge32_Node000012_Node000018" class="edge">
<title>Node12&#45;&gt;Node18</title>
<g id="a_edge32_Node000012_Node000018"><a xlink:title=" ">
<path fill="none" stroke="#63b8ff" d="M643.32,-417.65C705.19,-405.86 790.31,-389.63 849.36,-378.37"/>
<polygon fill="#63b8ff" stroke="#63b8ff" points="642.99,-414.34 633.82,-419.66 644.3,-421.22 642.99,-414.34"/>
</a>
</g>
</g>
<!-- Node19 -->
<g id="Node000019" class="node">
<title>Node19</title>
<g id="a_Node000019"><a xlink:href="serialization_2results_8hpp.html" target="_top" xlink:title=" ">
<polygon fill="white" stroke="#666666" points="755.65,-381 592.65,-381 592.65,-347.5 755.65,-347.5 755.65,-381"/>
<text text-anchor="start" x="600.65" y="-367.5" font-family="Helvetica,sans-Serif" font-size="10.00">include/proxsuite/serialization</text>
<text text-anchor="middle" x="674.15" y="-354.75" font-family="Helvetica,sans-Serif" font-size="10.00">/results.hpp</text>
</a>
</g>
</g>
<!-- Node12&#45;&gt;Node19 -->
<g id="edge38_Node000012_Node000019" class="edge">
<title>Node12&#45;&gt;Node19</title>
<g id="a_edge38_Node000012_Node000019"><a xlink:title=" ">
<path fill="none" stroke="#63b8ff" d="M599.45,-411.09C615.22,-401.41 633.49,-390.2 648.01,-381.29"/>
<polygon fill="#63b8ff" stroke="#63b8ff" points="598.19,-408.37 591.49,-416.58 601.85,-414.33 598.19,-408.37"/>
</a>
</g>
</g>
<!-- Node13&#45;&gt;Node14 -->
<g id="edge24_Node000013_Node000014" class="edge">
<title>Node13&#45;&gt;Node14</title>
<g id="a_edge24_Node000013_Node000014"><a xlink:title=" ">
<path fill="none" stroke="#63b8ff" d="M767.76,-134.05C746.16,-124.2 720.71,-112.59 700.56,-103.4"/>
<polygon fill="#63b8ff" stroke="#63b8ff" points="766.15,-137.62 776.7,-138.58 769.05,-131.25 766.15,-137.62"/>
</a>
</g>
</g>
<!-- Node14&#45;&gt;Node6 -->
<g id="edge25_Node000014_Node000006" class="edge">
<title>Node14&#45;&gt;Node6</title>
<g id="a_edge25_Node000014_Node000006"><a xlink:title=" ">
<path fill="none" stroke="#63b8ff" d="M602.58,-65.88C569.88,-55.75 530.34,-43.51 499.31,-33.9"/>
<polygon fill="#63b8ff" stroke="#63b8ff" points="601.34,-69.47 611.93,-69.08 603.41,-62.78 601.34,-69.47"/>
</a>
</g>
</g>
<!-- Node15 -->
<g id="Node000015" class="node">
<title>Node15</title>
<g id="a_Node000015"><a xlink:href="sparse_8hpp.html" target="_top" xlink:title=" ">
<polygon fill="white" stroke="#666666" points="733.52,-33.5 596.77,-33.5 596.77,0 733.52,0 733.52,-33.5"/>
<text text-anchor="start" x="604.77" y="-20" font-family="Helvetica,sans-Serif" font-size="10.00">include/proxsuite/proxqp</text>
<text text-anchor="middle" x="665.15" y="-7.25" font-family="Helvetica,sans-Serif" font-size="10.00">/sparse/sparse.hpp</text>
</a>
</g>
</g>
<!-- Node14&#45;&gt;Node15 -->
<g id="edge26_Node000014_Node000015" class="edge">
<title>Node14&#45;&gt;Node15</title>
<g id="a_edge26_Node000014_Node000015"><a xlink:title=" ">
<path fill="none" stroke="#63b8ff" d="M665.15,-58.39C665.15,-50 665.15,-41.01 665.15,-33.63"/>
<polygon fill="#63b8ff" stroke="#63b8ff" points="661.65,-58.25 665.15,-68.25 668.65,-58.25 661.65,-58.25"/>
</a>
</g>
</g>
<!-- Node16&#45;&gt;Node13 -->
<g id="edge28_Node000016_Node000013" class="edge">
<title>Node16&#45;&gt;Node13</title>
<g id="a_edge28_Node000016_Node000013"><a xlink:title=" ">
<path fill="none" stroke="#63b8ff" d="M806.98,-270.76C797.82,-262.84 789.13,-253.13 784.15,-242 773.67,-218.6 788.52,-190.2 800.54,-172.8"/>
<polygon fill="#63b8ff" stroke="#63b8ff" points="804.43,-274.01 814.43,-277.52 808.8,-268.54 804.43,-274.01"/>
</a>
</g>
</g>
<!-- Node16&#45;&gt;Node17 -->
<g id="edge29_Node000016_Node000017" class="edge">
<title>Node16&#45;&gt;Node17</title>
<g id="a_edge29_Node000016_Node000017"><a xlink:title=" ">
<path fill="none" stroke="#63b8ff" d="M843.02,-267.17C845.07,-258.7 847.9,-249.6 850.85,-242.13"/>
<polygon fill="#63b8ff" stroke="#63b8ff" points="839.42,-266.25 840.81,-276.75 846.28,-267.68 839.42,-266.25"/>
</a>
</g>
</g>
<!-- Node17&#45;&gt;Node13 -->
<g id="edge30_Node000017_Node000013" class="edge">
<title>Node17&#45;&gt;Node13</title>
<g id="a_edge30_Node000017_Node000013"><a xlink:title=" ">
<path fill="none" stroke="#63b8ff" d="M843.46,-199.38C837.1,-190.44 830.11,-180.6 824.44,-172.63"/>
<polygon fill="#63b8ff" stroke="#63b8ff" points="841.12,-201.13 849.77,-207.25 846.83,-197.08 841.12,-201.13"/>
</a>
</g>
</g>
<!-- Node17&#45;&gt;Node16 -->
<g id="edge31_Node000017_Node000016" class="edge">
<title>Node17&#45;&gt;Node16</title>
<g id="a_edge31_Node000017_Node000016"><a xlink:title=" ">
<path fill="none" stroke="#63b8ff" d="M860.31,-252.7C858.26,-261.16 855.44,-270.27 852.49,-277.75"/>
<polygon fill="#63b8ff" stroke="#63b8ff" points="863.9,-253.63 862.5,-243.13 857.04,-252.21 863.9,-253.63"/>
</a>
</g>
</g>
<!-- Node18&#45;&gt;Node13 -->
<g id="edge33_Node000018_Node000013" class="edge">
<title>Node18&#45;&gt;Node13</title>
<g id="a_edge33_Node000018_Node000013"><a xlink:title=" ">
<path fill="none" stroke="#63b8ff" d="M931.24,-337.43C945.85,-304.6 964.23,-247.52 938.15,-208.5 925.23,-189.17 903.61,-177.05 881.95,-169.45"/>
<polygon fill="#63b8ff" stroke="#63b8ff" points="927.75,-335.64 926.69,-346.18 934.09,-338.6 927.75,-335.64"/>
</a>
</g>
</g>
<!-- Node18&#45;&gt;Node16 -->
<g id="edge34_Node000018_Node000016" class="edge">
<title>Node18&#45;&gt;Node16</title>
<g id="a_edge34_Node000018_Node000016"><a xlink:title=" ">
<path fill="none" stroke="#63b8ff" d="M892.1,-340.11C881.62,-330.81 869.8,-320.31 860.29,-311.87"/>
<polygon fill="#63b8ff" stroke="#63b8ff" points="889.33,-342.23 899.14,-346.25 893.98,-337 889.33,-342.23"/>
</a>
</g>
</g>
<!-- Node18&#45;&gt;Node17 -->
<g id="edge35_Node000018_Node000017" class="edge">
<title>Node18&#45;&gt;Node17</title>
<g id="a_edge35_Node000018_Node000017"><a xlink:title=" ">
<path fill="none" stroke="#63b8ff" d="M924.06,-336.48C926.59,-319.06 927.34,-296.28 919.15,-278 912.64,-263.47 899.81,-251.34 887.86,-242.48"/>
<polygon fill="#63b8ff" stroke="#63b8ff" points="920.49,-335.59 922.22,-346.04 927.38,-336.79 920.49,-335.59"/>
</a>
</g>
</g>
</g>
</svg>
