<?xml version="1.0" encoding="UTF-8" standalone="no"?>
<!DOCTYPE svg PUBLIC "-//W3C//DTD SVG 1.1//EN"
 "http://www.w3.org/Graphics/SVG/1.1/DTD/svg11.dtd">
<!-- Generated by graphviz version 8.0.4 (20230426.1303)
 -->
<!-- Title: include/proxsuite/proxqp/dense/fwd.hpp Pages: 1 -->
<svg width="272pt" height="155pt"
 viewBox="0.00 0.00 272.25 155.00" xmlns="http://www.w3.org/2000/svg" xmlns:xlink="http://www.w3.org/1999/xlink">
<g id="graph0" class="graph" transform="scale(1 1) rotate(0) translate(4 151)">
<title>include/proxsuite/proxqp/dense/fwd.hpp</title>
<!-- Node1 -->
<g id="node1" class="node">
<title>Node1</title>
<g id="a_node1"><a xlink:title=" ">
<polygon fill="#999999" stroke="#666666" points="177.88,-147 41.12,-147 41.12,-113.5 177.88,-113.5 177.88,-147"/>
<text text-anchor="start" x="49.12" y="-133.5" font-family="Helvetica,sans-Serif" font-size="10.00">include/proxsuite/proxqp</text>
<text text-anchor="middle" x="109.5" y="-120.75" font-family="Helvetica,sans-Serif" font-size="10.00">/dense/fwd.hpp</text>
</a>
</g>
</g>
<!-- Node2 -->
<g id="node2" class="node">
<title>Node2</title>
<g id="a_node2"><a xlink:title=" ">
<polygon fill="#e0e0e0" stroke="#999999" points="79,-77.5 0,-77.5 0,-56.75 79,-56.75 79,-77.5"/>
<text text-anchor="middle" x="39.5" y="-64" font-family="Helvetica,sans-Serif" font-size="10.00">Eigen/Sparse</text>
</a>
</g>
</g>
<!-- Node1&#45;&gt;Node2 -->
<g id="edge1" class="edge">
<title>Node1&#45;&gt;Node2</title>
<path fill="none" stroke="#63b8ff" d="M91.11,-113.19C81.21,-104.55 69,-93.88 58.94,-85.1"/>
<polygon fill="#63b8ff" stroke="#63b8ff" points="61.61,-81.91 51.77,-77.97 57,-87.18 61.61,-81.91"/>
</g>
<!-- Node3 -->
<g id="node3" class="node">
<title>Node3</title>
<g id="a_node3"><a xlink:href="common_8hpp.html" target="_top" xlink:title=" ">
<polygon fill="white" stroke="#666666" points="264.25,-77.5 96.75,-77.5 96.75,-56.75 264.25,-56.75 264.25,-77.5"/>
<text text-anchor="middle" x="180.5" y="-64" font-family="Helvetica,sans-Serif" font-size="10.00">proxsuite/helpers/common.hpp</text>
</a>
</g>
</g>
<!-- Node1&#45;&gt;Node3 -->
<g id="edge2" class="edge">
<title>Node1&#45;&gt;Node3</title>
<path fill="none" stroke="#63b8ff" d="M128.15,-113.19C138.2,-104.55 150.58,-93.88 160.78,-85.1"/>
<polygon fill="#63b8ff" stroke="#63b8ff" points="162.77,-87.14 168.07,-77.97 158.21,-81.84 162.77,-87.14"/>
</g>
<!-- Node4 -->
<g id="node4" class="node">
<title>Node4</title>
<g id="a_node4"><a xlink:title=" ">
<polygon fill="#e0e0e0" stroke="#999999" points="189,-20.75 74,-20.75 74,0 189,0 189,-20.75"/>
<text text-anchor="middle" x="131.5" y="-7.25" font-family="Helvetica,sans-Serif" font-size="10.00">proxsuite/config.hpp</text>
</a>
</g>
</g>
<!-- Node3&#45;&gt;Node4 -->
<g id="edge3" class="edge">
<title>Node3&#45;&gt;Node4</title>
<path fill="none" stroke="#63b8ff" d="M171.74,-56.34C164.98,-48.78 155.45,-38.14 147.36,-29.1"/>
<polygon fill="#63b8ff" stroke="#63b8ff" points="150.46,-27.2 141.18,-22.08 145.25,-31.86 150.46,-27.2"/>
</g>
<!-- Node5 -->
<g id="node5" class="node">
<title>Node5</title>
<g id="a_node5"><a xlink:title=" ">
<polygon fill="#e0e0e0" stroke="#999999" points="250.38,-20.75 206.62,-20.75 206.62,0 250.38,0 250.38,-20.75"/>
<text text-anchor="middle" x="228.5" y="-7.25" font-family="Helvetica,sans-Serif" font-size="10.00">limits</text>
</a>
</g>
</g>
<!-- Node3&#45;&gt;Node5 -->
<g id="edge4" class="edge">
<title>Node3&#45;&gt;Node5</title>
<path fill="none" stroke="#63b8ff" d="M189.08,-56.34C195.7,-48.78 205.04,-38.14 212.96,-29.1"/>
<polygon fill="#63b8ff" stroke="#63b8ff" points="216.03,-31.91 219.99,-22.08 210.77,-27.29 216.03,-31.91"/>
</g>
</g>
</svg>
