<?xml version="1.0" encoding="UTF-8" standalone="no"?>
<!DOCTYPE svg PUBLIC "-//W3C//DTD SVG 1.1//EN"
 "http://www.w3.org/Graphics/SVG/1.1/DTD/svg11.dtd">
<!-- Generated by graphviz version 9.0.0 (20231125.0833)
 -->
<!-- Title: include/proxsuite/linalg/veg/ref.hpp Pages: 1 -->
<svg width="981pt" height="446pt"
 viewBox="0.00 0.00 981.41 445.75" xmlns="http://www.w3.org/2000/svg" xmlns:xlink="http://www.w3.org/1999/xlink">
<g id="graph0" class="graph" transform="scale(1 1) rotate(0) translate(4 441.75)">
<title>include/proxsuite/linalg/veg/ref.hpp</title>
<!-- Node1 -->
<g id="Node000001" class="node">
<title>Node1</title>
<g id="a_Node000001"><a xlink:title=" ">
<polygon fill="#999999" stroke="#666666" points="481,-437.75 351,-437.75 351,-404.25 481,-404.25 481,-437.75"/>
<text text-anchor="start" x="359" y="-424.25" font-family="Helvetica,sans-Serif" font-size="10.00">include/proxsuite/linalg</text>
<text text-anchor="middle" x="416" y="-411.5" font-family="Helvetica,sans-Serif" font-size="10.00">/veg/ref.hpp</text>
</a>
</g>
</g>
<!-- Node2 -->
<g id="Node000002" class="node">
<title>Node2</title>
<g id="a_Node000002"><a xlink:href="tags_8hpp.html" target="_top" xlink:title=" ">
<polygon fill="white" stroke="#666666" points="474.25,-368.25 357.75,-368.25 357.75,-334.75 474.25,-334.75 474.25,-368.25"/>
<text text-anchor="start" x="365.75" y="-354.75" font-family="Helvetica,sans-Serif" font-size="10.00">proxsuite/linalg/veg</text>
<text text-anchor="middle" x="416" y="-342" font-family="Helvetica,sans-Serif" font-size="10.00">/type_traits/tags.hpp</text>
</a>
</g>
</g>
<!-- Node1&#45;&gt;Node2 -->
<g id="edge1_Node000001_Node000002" class="edge">
<title>Node1&#45;&gt;Node2</title>
<g id="a_edge1_Node000001_Node000002"><a xlink:title=" ">
<path fill="none" stroke="#63b8ff" d="M416,-404C416,-396.77 416,-388.03 416,-379.81"/>
<polygon fill="#63b8ff" stroke="#63b8ff" points="419.5,-379.9 416,-369.9 412.5,-379.9 419.5,-379.9"/>
</a>
</g>
</g>
<!-- Node11 -->
<g id="Node000011" class="node">
<title>Node11</title>
<g id="a_Node000011"><a xlink:href="prologue_8hpp.html" target="_top" xlink:title=" ">
<polygon fill="white" stroke="#666666" points="857.62,-90.25 734.38,-90.25 734.38,-56.75 857.62,-56.75 857.62,-90.25"/>
<text text-anchor="start" x="742.38" y="-76.75" font-family="Helvetica,sans-Serif" font-size="10.00">proxsuite/linalg/veg</text>
<text text-anchor="middle" x="796" y="-64" font-family="Helvetica,sans-Serif" font-size="10.00">/internal/prologue.hpp</text>
</a>
</g>
</g>
<!-- Node1&#45;&gt;Node11 -->
<g id="edge36_Node000001_Node000011" class="edge">
<title>Node1&#45;&gt;Node11</title>
<g id="a_edge36_Node000001_Node000011"><a xlink:title=" ">
<path fill="none" stroke="#63b8ff" d="M481.4,-410.97C587.17,-394.78 787.7,-356.98 825,-298.75 864.63,-236.89 830.82,-145.63 809.77,-101.02"/>
<polygon fill="#63b8ff" stroke="#63b8ff" points="812.94,-99.54 805.41,-92.09 806.65,-102.61 812.94,-99.54"/>
</a>
</g>
</g>
<!-- Node14 -->
<g id="Node000014" class="node">
<title>Node14</title>
<g id="a_Node000014"><a xlink:href="epilogue_8hpp.html" target="_top" xlink:title=" ">
<polygon fill="white" stroke="#666666" points="159.25,-90.25 36.75,-90.25 36.75,-56.75 159.25,-56.75 159.25,-90.25"/>
<text text-anchor="start" x="44.75" y="-76.75" font-family="Helvetica,sans-Serif" font-size="10.00">proxsuite/linalg/veg</text>
<text text-anchor="middle" x="98" y="-64" font-family="Helvetica,sans-Serif" font-size="10.00">/internal/epilogue.hpp</text>
</a>
</g>
</g>
<!-- Node1&#45;&gt;Node14 -->
<g id="edge37_Node000001_Node000014" class="edge">
<title>Node1&#45;&gt;Node14</title>
<g id="a_edge37_Node000001_Node000014"><a xlink:title=" ">
<path fill="none" stroke="#63b8ff" d="M350.54,-412.22C233.39,-396.46 0,-355.9 0,-283 0,-283 0,-283 0,-211.5 0,-164.33 38.91,-122.21 67.7,-97.5"/>
<polygon fill="#63b8ff" stroke="#63b8ff" points="69.62,-100.45 75.09,-91.37 65.15,-95.06 69.62,-100.45"/>
</a>
</g>
</g>
<!-- Node15 -->
<g id="Node000015" class="node">
<title>Node15</title>
<g id="a_Node000015"><a xlink:href="constructible_8hpp.html" target="_top" xlink:title=" ">
<polygon fill="white" stroke="#666666" points="298.25,-368.25 139.75,-368.25 139.75,-334.75 298.25,-334.75 298.25,-368.25"/>
<text text-anchor="start" x="147.75" y="-354.75" font-family="Helvetica,sans-Serif" font-size="10.00">proxsuite/linalg/veg</text>
<text text-anchor="middle" x="219" y="-342" font-family="Helvetica,sans-Serif" font-size="10.00">/type_traits/constructible.hpp</text>
</a>
</g>
</g>
<!-- Node1&#45;&gt;Node15 -->
<g id="edge22_Node000001_Node000015" class="edge">
<title>Node1&#45;&gt;Node15</title>
<g id="a_edge22_Node000001_Node000015"><a xlink:title=" ">
<path fill="none" stroke="#63b8ff" d="M368.81,-403.83C341.14,-394.35 305.96,-382.3 276.65,-372.25"/>
<polygon fill="#63b8ff" stroke="#63b8ff" points="278.17,-369.07 267.57,-369.14 275.9,-375.7 278.17,-369.07"/>
</a>
</g>
</g>
<!-- Node18 -->
<g id="Node000018" class="node">
<title>Node18</title>
<g id="a_Node000018"><a xlink:href="address_8hpp.html" target="_top" xlink:title=" ">
<polygon fill="white" stroke="#666666" points="665.25,-368.25 542.75,-368.25 542.75,-334.75 665.25,-334.75 665.25,-368.25"/>
<text text-anchor="start" x="550.75" y="-354.75" font-family="Helvetica,sans-Serif" font-size="10.00">proxsuite/linalg/veg</text>
<text text-anchor="middle" x="604" y="-342" font-family="Helvetica,sans-Serif" font-size="10.00">/memory/address.hpp</text>
</a>
</g>
</g>
<!-- Node1&#45;&gt;Node18 -->
<g id="edge28_Node000001_Node000018" class="edge">
<title>Node1&#45;&gt;Node18</title>
<g id="a_edge28_Node000001_Node000018"><a xlink:title=" ">
<path fill="none" stroke="#63b8ff" d="M461.03,-403.83C487.21,-394.43 520.42,-382.51 548.25,-372.52"/>
<polygon fill="#63b8ff" stroke="#63b8ff" points="549.36,-375.84 557.59,-369.16 546.99,-369.25 549.36,-375.84"/>
</a>
</g>
</g>
<!-- Node3 -->
<g id="Node000003" class="node">
<title>Node3</title>
<g id="a_Node000003"><a xlink:href="veg_2type__traits_2core_8hpp.html" target="_top" xlink:title=" ">
<polygon fill="white" stroke="#666666" points="474.25,-298.75 357.75,-298.75 357.75,-265.25 474.25,-265.25 474.25,-298.75"/>
<text text-anchor="start" x="365.75" y="-285.25" font-family="Helvetica,sans-Serif" font-size="10.00">proxsuite/linalg/veg</text>
<text text-anchor="middle" x="416" y="-272.5" font-family="Helvetica,sans-Serif" font-size="10.00">/type_traits/core.hpp</text>
</a>
</g>
</g>
<!-- Node2&#45;&gt;Node3 -->
<g id="edge2_Node000002_Node000003" class="edge">
<title>Node2&#45;&gt;Node3</title>
<g id="a_edge2_Node000002_Node000003"><a xlink:title=" ">
<path fill="none" stroke="#63b8ff" d="M416,-334.5C416,-327.27 416,-318.53 416,-310.31"/>
<polygon fill="#63b8ff" stroke="#63b8ff" points="419.5,-310.4 416,-300.4 412.5,-310.4 419.5,-310.4"/>
</a>
</g>
</g>
<!-- Node2&#45;&gt;Node11 -->
<g id="edge20_Node000002_Node000011" class="edge">
<title>Node2&#45;&gt;Node11</title>
<g id="a_edge20_Node000002_Node000011"><a xlink:title=" ">
<path fill="none" stroke="#63b8ff" d="M467.94,-334.28C522.21,-315.44 607.68,-280.3 668,-229.25 714.31,-190.06 756.8,-132.65 779.27,-99.9"/>
<polygon fill="#63b8ff" stroke="#63b8ff" points="782.03,-102.07 784.73,-91.82 776.23,-98.14 782.03,-102.07"/>
</a>
</g>
</g>
<!-- Node2&#45;&gt;Node14 -->
<g id="edge21_Node000002_Node000014" class="edge">
<title>Node2&#45;&gt;Node14</title>
<g id="a_edge21_Node000002_Node000014"><a xlink:title=" ">
<path fill="none" stroke="#63b8ff" d="M394.66,-334.46C381.39,-324.38 364.04,-311 349,-298.75 263.4,-229.05 167.46,-140.11 123.05,-98.27"/>
<polygon fill="#63b8ff" stroke="#63b8ff" points="125.64,-95.91 115.97,-91.59 120.84,-101 125.64,-95.91"/>
</a>
</g>
</g>
<!-- Node4 -->
<g id="Node000004" class="node">
<title>Node4</title>
<g id="a_Node000004"><a xlink:href="typedefs_8hpp.html" target="_top" xlink:title=" ">
<polygon fill="white" stroke="#666666" points="300.62,-90.25 177.38,-90.25 177.38,-56.75 300.62,-56.75 300.62,-90.25"/>
<text text-anchor="start" x="185.38" y="-76.75" font-family="Helvetica,sans-Serif" font-size="10.00">proxsuite/linalg/veg</text>
<text text-anchor="middle" x="239" y="-64" font-family="Helvetica,sans-Serif" font-size="10.00">/internal/typedefs.hpp</text>
</a>
</g>
</g>
<!-- Node3&#45;&gt;Node4 -->
<g id="edge3_Node000003_Node000004" class="edge">
<title>Node3&#45;&gt;Node4</title>
<g id="a_edge3_Node000003_Node000004"><a xlink:title=" ">
<path fill="none" stroke="#63b8ff" d="M402.11,-264.8C371.29,-228.83 296.98,-142.15 260.27,-99.31"/>
<polygon fill="#63b8ff" stroke="#63b8ff" points="262.97,-97.09 253.81,-91.78 257.66,-101.65 262.97,-97.09"/>
</a>
</g>
</g>
<!-- Node7 -->
<g id="Node000007" class="node">
<title>Node7</title>
<g id="a_Node000007"><a xlink:href="integer__seq_8hpp.html" target="_top" xlink:title=" ">
<polygon fill="white" stroke="#666666" points="533.75,-229.25 396.25,-229.25 396.25,-195.75 533.75,-195.75 533.75,-229.25"/>
<text text-anchor="start" x="404.25" y="-215.75" font-family="Helvetica,sans-Serif" font-size="10.00">proxsuite/linalg/veg</text>
<text text-anchor="middle" x="465" y="-203" font-family="Helvetica,sans-Serif" font-size="10.00">/internal/integer_seq.hpp</text>
</a>
</g>
</g>
<!-- Node3&#45;&gt;Node7 -->
<g id="edge6_Node000003_Node000007" class="edge">
<title>Node3&#45;&gt;Node7</title>
<g id="a_edge6_Node000003_Node000007"><a xlink:title=" ">
<path fill="none" stroke="#63b8ff" d="M427.61,-265C433.35,-257.1 440.4,-247.38 446.83,-238.53"/>
<polygon fill="#63b8ff" stroke="#63b8ff" points="449.54,-240.76 452.58,-230.61 443.87,-236.64 449.54,-240.76"/>
</a>
</g>
</g>
<!-- Node3&#45;&gt;Node11 -->
<g id="edge18_Node000003_Node000011" class="edge">
<title>Node3&#45;&gt;Node11</title>
<g id="a_edge18_Node000003_Node000011"><a xlink:title=" ">
<path fill="none" stroke="#63b8ff" d="M469.84,-264.84C493.47,-256.33 520.81,-244.47 543,-229.25 594.86,-193.68 586.99,-160.07 640,-126.25 654.92,-116.73 692.02,-104.28 726.3,-93.98"/>
<polygon fill="#63b8ff" stroke="#63b8ff" points="727.26,-97.35 735.85,-91.15 725.27,-90.64 727.26,-97.35"/>
</a>
</g>
</g>
<!-- Node3&#45;&gt;Node14 -->
<g id="edge19_Node000003_Node000014" class="edge">
<title>Node3&#45;&gt;Node14</title>
<g id="a_edge19_Node000003_Node000014"><a xlink:title=" ">
<path fill="none" stroke="#63b8ff" d="M360.99,-264.75C339.43,-256.52 315.49,-244.89 297,-229.25 255.31,-193.98 272.33,-160.75 230,-126.25 212.7,-112.15 191.09,-101.54 170.39,-93.72"/>
<polygon fill="#63b8ff" stroke="#63b8ff" points="171.7,-90.48 161.11,-90.4 169.34,-97.07 171.7,-90.48"/>
</a>
</g>
</g>
<!-- Node5 -->
<g id="Node000005" class="node">
<title>Node5</title>
<g id="a_Node000005"><a xlink:title=" ">
<polygon fill="#e0e0e0" stroke="#999999" points="671.5,-20.75 622.5,-20.75 622.5,0 671.5,0 671.5,-20.75"/>
<text text-anchor="middle" x="647" y="-7.25" font-family="Helvetica,sans-Serif" font-size="10.00">cstdint</text>
</a>
</g>
</g>
<!-- Node4&#45;&gt;Node5 -->
<g id="edge4_Node000004_Node000005" class="edge">
<title>Node4&#45;&gt;Node5</title>
<g id="a_edge4_Node000004_Node000005"><a xlink:title=" ">
<path fill="none" stroke="#63b8ff" d="M300.89,-58.45C303.97,-57.85 307.02,-57.28 310,-56.75 418.98,-37.36 549.1,-22.03 610.93,-15.22"/>
<polygon fill="#63b8ff" stroke="#63b8ff" points="611.3,-18.7 620.86,-14.13 610.54,-11.74 611.3,-18.7"/>
</a>
</g>
</g>
<!-- Node6 -->
<g id="Node000006" class="node">
<title>Node6</title>
<g id="a_Node000006"><a xlink:title=" ">
<polygon fill="#e0e0e0" stroke="#999999" points="265,-20.75 213,-20.75 213,0 265,0 265,-20.75"/>
<text text-anchor="middle" x="239" y="-7.25" font-family="Helvetica,sans-Serif" font-size="10.00">cstddef</text>
</a>
</g>
</g>
<!-- Node4&#45;&gt;Node6 -->
<g id="edge5_Node000004_Node000006" class="edge">
<title>Node4&#45;&gt;Node6</title>
<g id="a_edge5_Node000004_Node000006"><a xlink:title=" ">
<path fill="none" stroke="#63b8ff" d="M239,-56.44C239,-49.1 239,-40.32 239,-32.46"/>
<polygon fill="#63b8ff" stroke="#63b8ff" points="242.5,-32.73 239,-22.73 235.5,-32.73 242.5,-32.73"/>
</a>
</g>
</g>
<!-- Node7&#45;&gt;Node4 -->
<g id="edge7_Node000007_Node000004" class="edge">
<title>Node7&#45;&gt;Node4</title>
<g id="a_edge7_Node000007_Node000004"><a xlink:title=" ">
<path fill="none" stroke="#63b8ff" d="M453.18,-195.55C438.43,-176.63 411.51,-145.29 382,-126.25 360.65,-112.47 335.13,-101.74 311.61,-93.71"/>
<polygon fill="#63b8ff" stroke="#63b8ff" points="312.99,-90.48 302.4,-90.68 310.8,-97.13 312.99,-90.48"/>
</a>
</g>
</g>
<!-- Node8 -->
<g id="Node000008" class="node">
<title>Node8</title>
<g id="a_Node000008"><a xlink:href="macros_8hpp.html" target="_top" xlink:title=" ">
<polygon fill="white" stroke="#666666" points="550.25,-159.75 433.75,-159.75 433.75,-126.25 550.25,-126.25 550.25,-159.75"/>
<text text-anchor="start" x="441.75" y="-146.25" font-family="Helvetica,sans-Serif" font-size="10.00">proxsuite/linalg/veg</text>
<text text-anchor="middle" x="492" y="-133.5" font-family="Helvetica,sans-Serif" font-size="10.00">/internal/macros.hpp</text>
</a>
</g>
</g>
<!-- Node7&#45;&gt;Node8 -->
<g id="edge8_Node000007_Node000008" class="edge">
<title>Node7&#45;&gt;Node8</title>
<g id="a_edge8_Node000007_Node000008"><a xlink:title=" ">
<path fill="none" stroke="#63b8ff" d="M471.4,-195.5C474.39,-188.02 478.03,-178.91 481.42,-170.45"/>
<polygon fill="#63b8ff" stroke="#63b8ff" points="484.62,-171.87 485.09,-161.29 478.12,-169.27 484.62,-171.87"/>
</a>
</g>
</g>
<!-- Node7&#45;&gt;Node11 -->
<g id="edge16_Node000007_Node000011" class="edge">
<title>Node7&#45;&gt;Node11</title>
<g id="a_edge16_Node000007_Node000011"><a xlink:title=" ">
<path fill="none" stroke="#63b8ff" d="M497.07,-195.46C515.59,-185.81 539.09,-172.87 559,-159.75 579.23,-146.42 580.31,-137.03 602,-126.25 623.34,-115.64 677.22,-101.61 722.8,-90.83"/>
<polygon fill="#63b8ff" stroke="#63b8ff" points="723.47,-94.26 732.41,-88.58 721.87,-87.45 723.47,-94.26"/>
</a>
</g>
</g>
<!-- Node7&#45;&gt;Node14 -->
<g id="edge17_Node000007_Node000014" class="edge">
<title>Node7&#45;&gt;Node14</title>
<g id="a_edge17_Node000007_Node000014"><a xlink:title=" ">
<path fill="none" stroke="#63b8ff" d="M439.5,-195.25C408.86,-176.35 355.39,-145.29 306,-126.25 293.13,-121.29 225.38,-104.71 170.65,-91.64"/>
<polygon fill="#63b8ff" stroke="#63b8ff" points="171.56,-88.26 161.02,-89.34 169.93,-95.07 171.56,-88.26"/>
</a>
</g>
</g>
<!-- Node8&#45;&gt;Node4 -->
<g id="edge10_Node000008_Node000004" class="edge">
<title>Node8&#45;&gt;Node4</title>
<g id="a_edge10_Node000008_Node000004"><a xlink:title=" ">
<path fill="none" stroke="#63b8ff" d="M433.32,-126.34C396.63,-116.55 349.13,-103.88 310.27,-93.52"/>
<polygon fill="#63b8ff" stroke="#63b8ff" points="311.59,-90.24 301.02,-91.05 309.78,-97.01 311.59,-90.24"/>
</a>
</g>
</g>
<!-- Node9 -->
<g id="Node000009" class="node">
<title>Node9</title>
<g id="a_Node000009"><a xlink:href="hedley_8ext_8hpp.html" target="_top" xlink:title=" ">
<polygon fill="white" stroke="#666666" points="716.12,-90.25 541.88,-90.25 541.88,-56.75 716.12,-56.75 716.12,-90.25"/>
<text text-anchor="start" x="549.88" y="-76.75" font-family="Helvetica,sans-Serif" font-size="10.00">proxsuite/linalg/veg</text>
<text text-anchor="middle" x="629" y="-64" font-family="Helvetica,sans-Serif" font-size="10.00">/internal/external/hedley.ext.hpp</text>
</a>
</g>
</g>
<!-- Node8&#45;&gt;Node9 -->
<g id="edge9_Node000008_Node000009" class="edge">
<title>Node8&#45;&gt;Node9</title>
<g id="a_edge9_Node000008_Node000009"><a xlink:title=" ">
<path fill="none" stroke="#63b8ff" d="M524.81,-125.83C543.2,-116.77 566.34,-105.37 586.15,-95.61"/>
<polygon fill="#63b8ff" stroke="#63b8ff" points="587.67,-98.76 595.1,-91.2 584.58,-92.49 587.67,-98.76"/>
</a>
</g>
</g>
<!-- Node10 -->
<g id="Node000010" class="node">
<title>Node10</title>
<g id="a_Node000010"><a xlink:href="preprocessor_8hpp.html" target="_top" xlink:title=" ">
<polygon fill="white" stroke="#666666" points="461.38,-90.25 318.62,-90.25 318.62,-56.75 461.38,-56.75 461.38,-90.25"/>
<text text-anchor="start" x="326.62" y="-76.75" font-family="Helvetica,sans-Serif" font-size="10.00">proxsuite/linalg/veg</text>
<text text-anchor="middle" x="390" y="-64" font-family="Helvetica,sans-Serif" font-size="10.00">/internal/preprocessor.hpp</text>
</a>
</g>
</g>
<!-- Node8&#45;&gt;Node10 -->
<g id="edge11_Node000008_Node000010" class="edge">
<title>Node8&#45;&gt;Node10</title>
<g id="a_edge11_Node000008_Node000010"><a xlink:title=" ">
<path fill="none" stroke="#63b8ff" d="M467.57,-125.83C454.45,-117.15 438.07,-106.31 423.75,-96.84"/>
<polygon fill="#63b8ff" stroke="#63b8ff" points="425.77,-93.97 415.49,-91.37 421.9,-99.81 425.77,-93.97"/>
</a>
</g>
</g>
<!-- Node8&#45;&gt;Node11 -->
<g id="edge12_Node000008_Node000011" class="edge">
<title>Node8&#45;&gt;Node11</title>
<g id="a_edge12_Node000008_Node000011"><a xlink:title=" ">
<path fill="none" stroke="#63b8ff" d="M550.61,-128.99C599.74,-118.08 670.12,-102.45 722.92,-90.73"/>
<polygon fill="#63b8ff" stroke="#63b8ff" points="723.43,-94.2 732.43,-88.61 721.91,-87.37 723.43,-94.2"/>
</a>
</g>
</g>
<!-- Node12 -->
<g id="Node000012" class="node">
<title>Node12</title>
<g id="a_Node000012"><a xlink:title=" ">
<polygon fill="#e0e0e0" stroke="#999999" points="958,-83.88 876,-83.88 876,-63.12 958,-63.12 958,-83.88"/>
<text text-anchor="middle" x="917" y="-70.38" font-family="Helvetica,sans-Serif" font-size="10.00">initializer_list</text>
</a>
</g>
</g>
<!-- Node8&#45;&gt;Node12 -->
<g id="edge13_Node000008_Node000012" class="edge">
<title>Node8&#45;&gt;Node12</title>
<g id="a_edge13_Node000008_Node000012"><a xlink:title=" ">
<path fill="none" stroke="#63b8ff" d="M550.68,-136.98C624.96,-129.93 756.55,-115.08 867,-90.25 870.55,-89.45 874.21,-88.52 877.87,-87.51"/>
<polygon fill="#63b8ff" stroke="#63b8ff" points="878.61,-90.94 887.22,-84.76 876.64,-84.22 878.61,-90.94"/>
</a>
</g>
</g>
<!-- Node13 -->
<g id="Node000013" class="node">
<title>Node13</title>
<g id="a_Node000013"><a xlink:title=" ">
<polygon fill="#e0e0e0" stroke="#999999" points="524.25,-83.88 479.75,-83.88 479.75,-63.12 524.25,-63.12 524.25,-83.88"/>
<text text-anchor="middle" x="502" y="-70.38" font-family="Helvetica,sans-Serif" font-size="10.00">utility</text>
</a>
</g>
</g>
<!-- Node8&#45;&gt;Node13 -->
<g id="edge14_Node000008_Node000013" class="edge">
<title>Node8&#45;&gt;Node13</title>
<g id="a_edge14_Node000008_Node000013"><a xlink:title=" ">
<path fill="none" stroke="#63b8ff" d="M494.37,-126C495.72,-116.9 497.42,-105.39 498.88,-95.57"/>
<polygon fill="#63b8ff" stroke="#63b8ff" points="502.32,-96.22 500.32,-85.82 495.4,-95.2 502.32,-96.22"/>
</a>
</g>
</g>
<!-- Node8&#45;&gt;Node14 -->
<g id="edge15_Node000008_Node000014" class="edge">
<title>Node8&#45;&gt;Node14</title>
<g id="a_edge15_Node000008_Node000014"><a xlink:title=" ">
<path fill="none" stroke="#63b8ff" d="M433.27,-133.76C370.63,-124.71 268.25,-109.19 170.67,-90.7"/>
<polygon fill="#63b8ff" stroke="#63b8ff" points="171.38,-87.27 160.9,-88.83 170.07,-94.15 171.38,-87.27"/>
</a>
</g>
</g>
<!-- Node15&#45;&gt;Node3 -->
<g id="edge23_Node000015_Node000003" class="edge">
<title>Node15&#45;&gt;Node3</title>
<g id="a_edge23_Node000015_Node000003"><a xlink:title=" ">
<path fill="none" stroke="#63b8ff" d="M266.19,-334.33C293.86,-324.85 329.04,-312.8 358.35,-302.75"/>
<polygon fill="#63b8ff" stroke="#63b8ff" points="359.1,-306.2 367.43,-299.64 356.83,-299.57 359.1,-306.2"/>
</a>
</g>
</g>
<!-- Node15&#45;&gt;Node11 -->
<g id="edge24_Node000015_Node000011" class="edge">
<title>Node15&#45;&gt;Node11</title>
<g id="a_edge24_Node000015_Node000011"><a xlink:title=" ">
<path fill="none" stroke="#63b8ff" d="M298.5,-338.73C363.74,-328.38 450.47,-312.8 483,-298.75 544.56,-272.17 701.88,-149.51 767.05,-97.7"/>
<polygon fill="#63b8ff" stroke="#63b8ff" points="769.15,-100.5 774.79,-91.53 764.79,-95.03 769.15,-100.5"/>
</a>
</g>
</g>
<!-- Node15&#45;&gt;Node14 -->
<g id="edge27_Node000015_Node000014" class="edge">
<title>Node15&#45;&gt;Node14</title>
<g id="a_edge27_Node000015_Node000014"><a xlink:title=" ">
<path fill="none" stroke="#63b8ff" d="M211.97,-334.47C191.92,-288.74 134.31,-157.32 109.54,-100.83"/>
<polygon fill="#63b8ff" stroke="#63b8ff" points="112.88,-99.72 105.66,-91.96 106.47,-102.53 112.88,-99.72"/>
</a>
</g>
</g>
<!-- Node16 -->
<g id="Node000016" class="node">
<title>Node16</title>
<g id="a_Node000016"><a xlink:title=" ">
<polygon fill="#e0e0e0" stroke="#999999" points="64.12,-292.38 27.88,-292.38 27.88,-271.62 64.12,-271.62 64.12,-292.38"/>
<text text-anchor="middle" x="46" y="-278.88" font-family="Helvetica,sans-Serif" font-size="10.00">new</text>
</a>
</g>
</g>
<!-- Node15&#45;&gt;Node16 -->
<g id="edge25_Node000015_Node000016" class="edge">
<title>Node15&#45;&gt;Node16</title>
<g id="a_edge25_Node000015_Node000016"><a xlink:title=" ">
<path fill="none" stroke="#63b8ff" d="M165.68,-334.27C137.6,-325.06 102.88,-312.61 73,-298.75 72.53,-298.53 72.06,-298.31 71.59,-298.08"/>
<polygon fill="#63b8ff" stroke="#63b8ff" points="73.53,-295.15 63.06,-293.55 70.25,-301.33 73.53,-295.15"/>
</a>
</g>
</g>
<!-- Node17 -->
<g id="Node000017" class="node">
<title>Node17</title>
<g id="a_Node000017"><a xlink:title=" ">
<polygon fill="#e0e0e0" stroke="#999999" points="150.25,-292.38 81.75,-292.38 81.75,-271.62 150.25,-271.62 150.25,-292.38"/>
<text text-anchor="middle" x="116" y="-278.88" font-family="Helvetica,sans-Serif" font-size="10.00">type_traits</text>
</a>
</g>
</g>
<!-- Node15&#45;&gt;Node17 -->
<g id="edge26_Node000015_Node000017" class="edge">
<title>Node15&#45;&gt;Node17</title>
<g id="a_edge26_Node000015_Node000017"><a xlink:title=" ">
<path fill="none" stroke="#63b8ff" d="M194.33,-334.33C177.97,-323.61 156.59,-309.6 140.3,-298.93"/>
<polygon fill="#63b8ff" stroke="#63b8ff" points="142.46,-296.15 132.18,-293.6 138.62,-302.01 142.46,-296.15"/>
</a>
</g>
</g>
<!-- Node18&#45;&gt;Node3 -->
<g id="edge29_Node000018_Node000003" class="edge">
<title>Node18&#45;&gt;Node3</title>
<g id="a_edge29_Node000018_Node000003"><a xlink:title=" ">
<path fill="none" stroke="#63b8ff" d="M558.97,-334.33C532.79,-324.93 499.58,-313.01 471.75,-303.02"/>
<polygon fill="#63b8ff" stroke="#63b8ff" points="473.01,-299.75 462.41,-299.66 470.64,-306.34 473.01,-299.75"/>
</a>
</g>
</g>
<!-- Node18&#45;&gt;Node11 -->
<g id="edge33_Node000018_Node000011" class="edge">
<title>Node18&#45;&gt;Node11</title>
<g id="a_edge33_Node000018_Node000011"><a xlink:title=" ">
<path fill="none" stroke="#63b8ff" d="M652.59,-334.35C671.29,-326.14 691.58,-314.49 706,-298.75 759.06,-240.81 782.65,-147.64 791.49,-101.79"/>
<polygon fill="#63b8ff" stroke="#63b8ff" points="794.9,-102.64 793.25,-92.18 788.01,-101.38 794.9,-102.64"/>
</a>
</g>
</g>
<!-- Node18&#45;&gt;Node14 -->
<g id="edge35_Node000018_Node000014" class="edge">
<title>Node18&#45;&gt;Node14</title>
<g id="a_edge35_Node000018_Node000014"><a xlink:title=" ">
<path fill="none" stroke="#63b8ff" d="M584.47,-334.36C561.35,-315.83 521.17,-285.43 483,-265.25 442.71,-243.95 426.67,-251.67 387,-229.25 322.82,-192.98 321.96,-161.09 257,-126.25 230.13,-111.83 198.53,-100.54 170.62,-92.22"/>
<polygon fill="#63b8ff" stroke="#63b8ff" points="171.75,-88.91 161.17,-89.49 169.8,-95.63 171.75,-88.91"/>
</a>
</g>
</g>
<!-- Node19 -->
<g id="Node000019" class="node">
<title>Node19</title>
<g id="a_Node000019"><a xlink:href="std_8hpp.html" target="_top" xlink:title=" ">
<polygon fill="white" stroke="#666666" points="973.38,-159.75 860.62,-159.75 860.62,-126.25 973.38,-126.25 973.38,-159.75"/>
<text text-anchor="start" x="868.62" y="-146.25" font-family="Helvetica,sans-Serif" font-size="10.00">proxsuite/linalg/veg</text>
<text text-anchor="middle" x="917" y="-133.5" font-family="Helvetica,sans-Serif" font-size="10.00">/internal/std.hpp</text>
</a>
</g>
</g>
<!-- Node18&#45;&gt;Node19 -->
<g id="edge30_Node000018_Node000019" class="edge">
<title>Node18&#45;&gt;Node19</title>
<g id="a_edge30_Node000018_Node000019"><a xlink:title=" ">
<path fill="none" stroke="#63b8ff" d="M665.64,-348.88C713.23,-344.8 778.59,-332.75 825,-298.75 869.17,-266.39 895.97,-205.85 908.49,-170.85"/>
<polygon fill="#63b8ff" stroke="#63b8ff" points="911.78,-172.06 911.7,-161.47 905.15,-169.8 911.78,-172.06"/>
</a>
</g>
</g>
<!-- Node20 -->
<g id="Node000020" class="node">
<title>Node20</title>
<g id="a_Node000020"><a xlink:title=" ">
<polygon fill="#e0e0e0" stroke="#999999" points="815.62,-292.38 758.38,-292.38 758.38,-271.62 815.62,-271.62 815.62,-292.38"/>
<text text-anchor="middle" x="787" y="-278.88" font-family="Helvetica,sans-Serif" font-size="10.00">memory</text>
</a>
</g>
</g>
<!-- Node18&#45;&gt;Node20 -->
<g id="edge34_Node000018_Node000020" class="edge">
<title>Node18&#45;&gt;Node20</title>
<g id="a_edge34_Node000018_Node000020"><a xlink:title=" ">
<path fill="none" stroke="#63b8ff" d="M647.83,-334.33C678.87,-322.88 720.05,-307.69 749.55,-296.81"/>
<polygon fill="#63b8ff" stroke="#63b8ff" points="750.65,-300.14 758.82,-293.39 748.23,-293.57 750.65,-300.14"/>
</a>
</g>
</g>
<!-- Node19&#45;&gt;Node5 -->
<g id="edge31_Node000019_Node000005" class="edge">
<title>Node19&#45;&gt;Node5</title>
<g id="a_edge31_Node000019_Node000005"><a xlink:title=" ">
<path fill="none" stroke="#63b8ff" d="M938.12,-125.77C959.11,-107.72 985.67,-78.26 967,-56.75 930.51,-14.72 758.4,-10.58 682.78,-10.85"/>
<polygon fill="#63b8ff" stroke="#63b8ff" points="683,-7.35 673.02,-10.91 683.05,-14.35 683,-7.35"/>
</a>
</g>
</g>
<!-- Node19&#45;&gt;Node12 -->
<g id="edge32_Node000019_Node000012" class="edge">
<title>Node19&#45;&gt;Node12</title>
<g id="a_edge32_Node000019_Node000012"><a xlink:title=" ">
<path fill="none" stroke="#63b8ff" d="M917,-126C917,-116.9 917,-105.39 917,-95.57"/>
<polygon fill="#63b8ff" stroke="#63b8ff" points="920.5,-95.84 917,-85.84 913.5,-95.84 920.5,-95.84"/>
</a>
</g>
</g>
</g>
</svg>
