<?xml version="1.0" encoding="UTF-8" standalone="no"?>
<!DOCTYPE svg PUBLIC "-//W3C//DTD SVG 1.1//EN"
 "http://www.w3.org/Graphics/SVG/1.1/DTD/svg11.dtd">
<!-- Generated by graphviz version 6.0.2 (20221126.1951)
 -->
<!-- Title: include/proxsuite/linalg/veg/ref.hpp Pages: 1 -->
<svg width="951pt" height="423pt"
 viewBox="0.00 0.00 950.50 423.00" xmlns="http://www.w3.org/2000/svg" xmlns:xlink="http://www.w3.org/1999/xlink">
<g id="graph0" class="graph" transform="scale(1 1) rotate(0) translate(4 419)">
<title>include/proxsuite/linalg/veg/ref.hpp</title>
<!-- Node1 -->
<g id="node1" class="node">
<title>Node1</title>
<g id="a_node1"><a xlink:title=" ">
<polygon fill="#999999" stroke="#666666" points="533.5,-415 402.5,-415 402.5,-385 533.5,-385 533.5,-415"/>
<text text-anchor="start" x="410.5" y="-403" font-family="Helvetica,sans-Serif" font-size="10.00">include/proxsuite/linalg</text>
<text text-anchor="middle" x="468" y="-392" font-family="Helvetica,sans-Serif" font-size="10.00">/veg/ref.hpp</text>
</a>
</g>
</g>
<!-- Node2 -->
<g id="node2" class="node">
<title>Node2</title>
<g id="a_node2"><a xlink:href="tags_8hpp.html" target="_top" xlink:title=" ">
<polygon fill="white" stroke="#666666" points="420.5,-349 303.5,-349 303.5,-319 420.5,-319 420.5,-349"/>
<text text-anchor="start" x="311.5" y="-337" font-family="Helvetica,sans-Serif" font-size="10.00">proxsuite/linalg/veg</text>
<text text-anchor="middle" x="362" y="-326" font-family="Helvetica,sans-Serif" font-size="10.00">/type_traits/tags.hpp</text>
</a>
</g>
</g>
<!-- Node1&#45;&gt;Node2 -->
<g id="edge1" class="edge">
<title>Node1&#45;&gt;Node2</title>
<path fill="none" stroke="#63b8ff" d="M444.74,-384.95C429.83,-375.95 410.27,-364.14 393.91,-354.27"/>
<polygon fill="#63b8ff" stroke="#63b8ff" points="395.58,-351.18 385.21,-349.01 391.96,-357.18 395.58,-351.18"/>
</g>
<!-- Node11 -->
<g id="node11" class="node">
<title>Node11</title>
<g id="a_node11"><a xlink:href="prologue_8hpp.html" target="_top" xlink:title=" ">
<polygon fill="white" stroke="#666666" points="124,-85 0,-85 0,-55 124,-55 124,-85"/>
<text text-anchor="start" x="8" y="-73" font-family="Helvetica,sans-Serif" font-size="10.00">proxsuite/linalg/veg</text>
<text text-anchor="middle" x="62" y="-62" font-family="Helvetica,sans-Serif" font-size="10.00">/internal/prologue.hpp</text>
</a>
</g>
</g>
<!-- Node1&#45;&gt;Node11 -->
<g id="edge35" class="edge">
<title>Node1&#45;&gt;Node11</title>
<path fill="none" stroke="#63b8ff" d="M402.09,-394.16C274.9,-382.99 8,-349.91 8,-269 8,-269 8,-269 8,-201 8,-160.73 30.37,-118.45 46.31,-93.42"/>
<polygon fill="#63b8ff" stroke="#63b8ff" points="49.27,-95.3 51.84,-85.02 43.42,-91.45 49.27,-95.3"/>
</g>
<!-- Node13 -->
<g id="node13" class="node">
<title>Node13</title>
<g id="a_node13"><a xlink:href="epilogue_8hpp.html" target="_top" xlink:title=" ">
<polygon fill="white" stroke="#666666" points="761.5,-85 638.5,-85 638.5,-55 761.5,-55 761.5,-85"/>
<text text-anchor="start" x="646.5" y="-73" font-family="Helvetica,sans-Serif" font-size="10.00">proxsuite/linalg/veg</text>
<text text-anchor="middle" x="700" y="-62" font-family="Helvetica,sans-Serif" font-size="10.00">/internal/epilogue.hpp</text>
</a>
</g>
</g>
<!-- Node1&#45;&gt;Node13 -->
<g id="edge36" class="edge">
<title>Node1&#45;&gt;Node13</title>
<path fill="none" stroke="#63b8ff" d="M466.62,-384.71C464.63,-357.33 463.5,-296.37 487,-253 528.34,-176.71 615.5,-118.36 664.54,-90"/>
<polygon fill="#63b8ff" stroke="#63b8ff" points="666.28,-93.04 673.24,-85.06 662.81,-86.96 666.28,-93.04"/>
</g>
<!-- Node14 -->
<g id="node14" class="node">
<title>Node14</title>
<g id="a_node14"><a xlink:href="constructible_8hpp.html" target="_top" xlink:title=" ">
<polygon fill="white" stroke="#666666" points="654.5,-349 495.5,-349 495.5,-319 654.5,-319 654.5,-349"/>
<text text-anchor="start" x="503.5" y="-337" font-family="Helvetica,sans-Serif" font-size="10.00">proxsuite/linalg/veg</text>
<text text-anchor="middle" x="575" y="-326" font-family="Helvetica,sans-Serif" font-size="10.00">/type_traits/constructible.hpp</text>
</a>
</g>
</g>
<!-- Node1&#45;&gt;Node14 -->
<g id="edge21" class="edge">
<title>Node1&#45;&gt;Node14</title>
<path fill="none" stroke="#63b8ff" d="M491.48,-384.95C506.53,-375.95 526.27,-364.14 542.78,-354.27"/>
<polygon fill="#63b8ff" stroke="#63b8ff" points="544.79,-357.15 551.57,-349.01 541.19,-351.14 544.79,-357.15"/>
</g>
<!-- Node17 -->
<g id="node17" class="node">
<title>Node17</title>
<g id="a_node17"><a xlink:href="address_8hpp.html" target="_top" xlink:title=" ">
<polygon fill="white" stroke="#666666" points="800.5,-349 677.5,-349 677.5,-319 800.5,-319 800.5,-349"/>
<text text-anchor="start" x="685.5" y="-337" font-family="Helvetica,sans-Serif" font-size="10.00">proxsuite/linalg/veg</text>
<text text-anchor="middle" x="739" y="-326" font-family="Helvetica,sans-Serif" font-size="10.00">/memory/address.hpp</text>
</a>
</g>
</g>
<!-- Node1&#45;&gt;Node17 -->
<g id="edge27" class="edge">
<title>Node1&#45;&gt;Node17</title>
<path fill="none" stroke="#63b8ff" d="M527.47,-384.95C569.48,-375.03 625.9,-361.71 669.91,-351.32"/>
<polygon fill="#63b8ff" stroke="#63b8ff" points="670.74,-354.72 679.67,-349.01 669.13,-347.9 670.74,-354.72"/>
</g>
<!-- Node3 -->
<g id="node3" class="node">
<title>Node3</title>
<g id="a_node3"><a xlink:href="veg_2type__traits_2core_8hpp.html" target="_top" xlink:title=" ">
<polygon fill="white" stroke="#666666" points="401.5,-283 284.5,-283 284.5,-253 401.5,-253 401.5,-283"/>
<text text-anchor="start" x="292.5" y="-271" font-family="Helvetica,sans-Serif" font-size="10.00">proxsuite/linalg/veg</text>
<text text-anchor="middle" x="343" y="-260" font-family="Helvetica,sans-Serif" font-size="10.00">/type_traits/core.hpp</text>
</a>
</g>
</g>
<!-- Node2&#45;&gt;Node3 -->
<g id="edge2" class="edge">
<title>Node2&#45;&gt;Node3</title>
<path fill="none" stroke="#63b8ff" d="M357.78,-318.8C355.52,-311.17 352.67,-301.57 350.08,-292.84"/>
<polygon fill="#63b8ff" stroke="#63b8ff" points="353.41,-291.75 347.2,-283.16 346.7,-293.75 353.41,-291.75"/>
</g>
<!-- Node2&#45;&gt;Node11 -->
<g id="edge19" class="edge">
<title>Node2&#45;&gt;Node11</title>
<path fill="none" stroke="#63b8ff" d="M303.34,-331.39C227.02,-327.94 99.87,-317.09 70,-283 23.59,-230.02 42.05,-137.89 54.36,-94.67"/>
<polygon fill="#63b8ff" stroke="#63b8ff" points="57.74,-95.61 57.25,-85.02 51.03,-93.6 57.74,-95.61"/>
</g>
<!-- Node2&#45;&gt;Node13 -->
<g id="edge20" class="edge">
<title>Node2&#45;&gt;Node13</title>
<path fill="none" stroke="#63b8ff" d="M376.09,-318.77C385.78,-308.88 398.86,-295.32 410,-283 473.45,-212.85 469.49,-173.74 548,-121 572.13,-104.79 601.93,-93.48 628.74,-85.77"/>
<polygon fill="#63b8ff" stroke="#63b8ff" points="629.75,-89.12 638.46,-83.09 627.89,-82.37 629.75,-89.12"/>
</g>
<!-- Node4 -->
<g id="node4" class="node">
<title>Node4</title>
<g id="a_node4"><a xlink:href="typedefs_8hpp.html" target="_top" xlink:title=" ">
<polygon fill="white" stroke="#666666" points="266,-85 142,-85 142,-55 266,-55 266,-85"/>
<text text-anchor="start" x="150" y="-73" font-family="Helvetica,sans-Serif" font-size="10.00">proxsuite/linalg/veg</text>
<text text-anchor="middle" x="204" y="-62" font-family="Helvetica,sans-Serif" font-size="10.00">/internal/typedefs.hpp</text>
</a>
</g>
</g>
<!-- Node3&#45;&gt;Node4 -->
<g id="edge3" class="edge">
<title>Node3&#45;&gt;Node4</title>
<path fill="none" stroke="#63b8ff" d="M312.02,-252.81C296.22,-244.29 277.72,-232.15 265,-217 234.35,-180.48 217.22,-126.38 209.37,-95.32"/>
<polygon fill="#63b8ff" stroke="#63b8ff" points="212.72,-94.26 206.97,-85.36 205.91,-95.9 212.72,-94.26"/>
</g>
<!-- Node7 -->
<g id="node7" class="node">
<title>Node7</title>
<g id="a_node7"><a xlink:href="integer__seq_8hpp.html" target="_top" xlink:title=" ">
<polygon fill="white" stroke="#666666" points="412,-217 274,-217 274,-187 412,-187 412,-217"/>
<text text-anchor="start" x="282" y="-205" font-family="Helvetica,sans-Serif" font-size="10.00">proxsuite/linalg/veg</text>
<text text-anchor="middle" x="343" y="-194" font-family="Helvetica,sans-Serif" font-size="10.00">/internal/integer_seq.hpp</text>
</a>
</g>
</g>
<!-- Node3&#45;&gt;Node7 -->
<g id="edge6" class="edge">
<title>Node3&#45;&gt;Node7</title>
<path fill="none" stroke="#63b8ff" d="M343,-252.8C343,-245.34 343,-235.99 343,-227.41"/>
<polygon fill="#63b8ff" stroke="#63b8ff" points="346.5,-227.16 343,-217.16 339.5,-227.16 346.5,-227.16"/>
</g>
<!-- Node3&#45;&gt;Node11 -->
<g id="edge17" class="edge">
<title>Node3&#45;&gt;Node11</title>
<path fill="none" stroke="#63b8ff" d="M284.14,-260.73C247.19,-254.44 200.07,-241.91 165,-217 122.58,-186.87 128.09,-163.45 98,-121 91.66,-112.06 84.64,-102.27 78.48,-93.74"/>
<polygon fill="#63b8ff" stroke="#63b8ff" points="81.15,-91.46 72.45,-85.4 75.47,-95.56 81.15,-91.46"/>
</g>
<!-- Node3&#45;&gt;Node13 -->
<g id="edge18" class="edge">
<title>Node3&#45;&gt;Node13</title>
<path fill="none" stroke="#63b8ff" d="M368.35,-252.97C384.18,-243.69 404.59,-230.73 421,-217 465.63,-179.67 460.11,-150.93 510,-121 530.06,-108.97 583.14,-95.48 628.12,-85.55"/>
<polygon fill="#63b8ff" stroke="#63b8ff" points="629.14,-88.91 638.17,-83.36 627.65,-82.07 629.14,-88.91"/>
</g>
<!-- Node5 -->
<g id="node5" class="node">
<title>Node5</title>
<g id="a_node5"><a xlink:title=" ">
<polygon fill="#e0e0e0" stroke="#999999" points="607,-19 557,-19 557,0 607,0 607,-19"/>
<text text-anchor="middle" x="582" y="-7" font-family="Helvetica,sans-Serif" font-size="10.00">cstdint</text>
</a>
</g>
</g>
<!-- Node4&#45;&gt;Node5 -->
<g id="edge4" class="edge">
<title>Node4&#45;&gt;Node5</title>
<path fill="none" stroke="#63b8ff" d="M266.31,-56.53C269.24,-56 272.15,-55.49 275,-55 373.2,-38.21 489.78,-22.45 546.91,-15"/>
<polygon fill="#63b8ff" stroke="#63b8ff" points="547.4,-18.46 556.86,-13.7 546.49,-11.52 547.4,-18.46"/>
</g>
<!-- Node6 -->
<g id="node6" class="node">
<title>Node6</title>
<g id="a_node6"><a xlink:title=" ">
<polygon fill="#e0e0e0" stroke="#999999" points="230.5,-19 177.5,-19 177.5,0 230.5,0 230.5,-19"/>
<text text-anchor="middle" x="204" y="-7" font-family="Helvetica,sans-Serif" font-size="10.00">cstddef</text>
</a>
</g>
</g>
<!-- Node4&#45;&gt;Node6 -->
<g id="edge5" class="edge">
<title>Node4&#45;&gt;Node6</title>
<path fill="none" stroke="#63b8ff" d="M204,-54.84C204,-47.21 204,-37.7 204,-29.45"/>
<polygon fill="#63b8ff" stroke="#63b8ff" points="207.5,-29.27 204,-19.27 200.5,-29.27 207.5,-29.27"/>
</g>
<!-- Node7&#45;&gt;Node4 -->
<g id="edge7" class="edge">
<title>Node7&#45;&gt;Node4</title>
<path fill="none" stroke="#63b8ff" d="M327.86,-186.84C303.42,-163.98 255.14,-118.82 226.61,-92.14"/>
<polygon fill="#63b8ff" stroke="#63b8ff" points="228.82,-89.42 219.12,-85.14 224.03,-94.53 228.82,-89.42"/>
</g>
<!-- Node8 -->
<g id="node8" class="node">
<title>Node8</title>
<g id="a_node8"><a xlink:href="macros_8hpp.html" target="_top" xlink:title=" ">
<polygon fill="white" stroke="#666666" points="419.5,-151 302.5,-151 302.5,-121 419.5,-121 419.5,-151"/>
<text text-anchor="start" x="310.5" y="-139" font-family="Helvetica,sans-Serif" font-size="10.00">proxsuite/linalg/veg</text>
<text text-anchor="middle" x="361" y="-128" font-family="Helvetica,sans-Serif" font-size="10.00">/internal/macros.hpp</text>
</a>
</g>
</g>
<!-- Node7&#45;&gt;Node8 -->
<g id="edge8" class="edge">
<title>Node7&#45;&gt;Node8</title>
<path fill="none" stroke="#63b8ff" d="M346.99,-186.8C349.14,-179.17 351.84,-169.57 354.29,-160.84"/>
<polygon fill="#63b8ff" stroke="#63b8ff" points="357.68,-161.74 357.02,-151.16 350.94,-159.84 357.68,-161.74"/>
</g>
<!-- Node7&#45;&gt;Node11 -->
<g id="edge15" class="edge">
<title>Node7&#45;&gt;Node11</title>
<path fill="none" stroke="#63b8ff" d="M313.78,-186.93C280.16,-170.79 223.25,-143.65 174,-121 150.68,-110.28 124.49,-98.57 103.3,-89.18"/>
<polygon fill="#63b8ff" stroke="#63b8ff" points="104.51,-85.88 93.95,-85.04 101.68,-92.28 104.51,-85.88"/>
</g>
<!-- Node7&#45;&gt;Node13 -->
<g id="edge16" class="edge">
<title>Node7&#45;&gt;Node13</title>
<path fill="none" stroke="#63b8ff" d="M367.81,-186.99C384.91,-177.19 408.05,-163.65 428,-151 447.99,-138.33 450.27,-130.37 472,-121 486.43,-114.78 567.08,-97.74 628.4,-85.28"/>
<polygon fill="#63b8ff" stroke="#63b8ff" points="629.35,-88.66 638.45,-83.24 627.96,-81.8 629.35,-88.66"/>
</g>
<!-- Node8&#45;&gt;Node4 -->
<g id="edge10" class="edge">
<title>Node8&#45;&gt;Node4</title>
<path fill="none" stroke="#63b8ff" d="M326.55,-120.95C303.44,-111.53 272.8,-99.04 247.94,-88.91"/>
<polygon fill="#63b8ff" stroke="#63b8ff" points="248.96,-85.55 238.37,-85.01 246.31,-92.03 248.96,-85.55"/>
</g>
<!-- Node9 -->
<g id="node9" class="node">
<title>Node9</title>
<g id="a_node9"><a xlink:href="hedley_8ext_8hpp.html" target="_top" xlink:title=" ">
<polygon fill="white" stroke="#666666" points="620.5,-85 445.5,-85 445.5,-55 620.5,-55 620.5,-85"/>
<text text-anchor="start" x="453.5" y="-73" font-family="Helvetica,sans-Serif" font-size="10.00">proxsuite/linalg/veg</text>
<text text-anchor="middle" x="533" y="-62" font-family="Helvetica,sans-Serif" font-size="10.00">/internal/external/hedley.ext.hpp</text>
</a>
</g>
</g>
<!-- Node8&#45;&gt;Node9 -->
<g id="edge9" class="edge">
<title>Node8&#45;&gt;Node9</title>
<path fill="none" stroke="#63b8ff" d="M398.75,-120.95C424.4,-111.41 458.52,-98.71 485.95,-88.51"/>
<polygon fill="#63b8ff" stroke="#63b8ff" points="487.19,-91.78 495.34,-85.01 484.75,-85.22 487.19,-91.78"/>
</g>
<!-- Node10 -->
<g id="node10" class="node">
<title>Node10</title>
<g id="a_node10"><a xlink:href="preprocessor_8hpp.html" target="_top" xlink:title=" ">
<polygon fill="white" stroke="#666666" points="427.5,-85 284.5,-85 284.5,-55 427.5,-55 427.5,-85"/>
<text text-anchor="start" x="292.5" y="-73" font-family="Helvetica,sans-Serif" font-size="10.00">proxsuite/linalg/veg</text>
<text text-anchor="middle" x="356" y="-62" font-family="Helvetica,sans-Serif" font-size="10.00">/internal/preprocessor.hpp</text>
</a>
</g>
</g>
<!-- Node8&#45;&gt;Node10 -->
<g id="edge11" class="edge">
<title>Node8&#45;&gt;Node10</title>
<path fill="none" stroke="#63b8ff" d="M359.89,-120.8C359.31,-113.34 358.58,-103.99 357.91,-95.41"/>
<polygon fill="#63b8ff" stroke="#63b8ff" points="361.37,-94.86 357.11,-85.16 354.4,-95.41 361.37,-94.86"/>
</g>
<!-- Node8&#45;&gt;Node11 -->
<g id="edge12" class="edge">
<title>Node8&#45;&gt;Node11</title>
<path fill="none" stroke="#63b8ff" d="M302.28,-122.43C254.13,-112.13 185.76,-97.49 134.25,-86.47"/>
<polygon fill="#63b8ff" stroke="#63b8ff" points="134.7,-82.98 124.19,-84.31 133.23,-89.83 134.7,-82.98"/>
</g>
<!-- Node12 -->
<g id="node12" class="node">
<title>Node12</title>
<g id="a_node12"><a xlink:title=" ">
<polygon fill="#e0e0e0" stroke="#999999" points="862.5,-79.5 779.5,-79.5 779.5,-60.5 862.5,-60.5 862.5,-79.5"/>
<text text-anchor="middle" x="821" y="-67.5" font-family="Helvetica,sans-Serif" font-size="10.00">initializer_list</text>
</a>
</g>
</g>
<!-- Node8&#45;&gt;Node12 -->
<g id="edge13" class="edge">
<title>Node8&#45;&gt;Node12</title>
<path fill="none" stroke="#63b8ff" d="M419.67,-130.54C499.48,-123.86 646.48,-109.37 770,-85 774.21,-84.17 778.57,-83.18 782.9,-82.11"/>
<polygon fill="#63b8ff" stroke="#63b8ff" points="784.06,-85.43 792.85,-79.52 782.29,-78.65 784.06,-85.43"/>
</g>
<!-- Node8&#45;&gt;Node13 -->
<g id="edge14" class="edge">
<title>Node8&#45;&gt;Node13</title>
<path fill="none" stroke="#63b8ff" d="M419.56,-123.73C424.45,-122.8 429.31,-121.88 434,-121 517.57,-105.27 540.82,-101.76 628.58,-85.07"/>
<polygon fill="#63b8ff" stroke="#63b8ff" points="629.27,-88.5 638.44,-83.19 627.96,-81.62 629.27,-88.5"/>
</g>
<!-- Node14&#45;&gt;Node3 -->
<g id="edge22" class="edge">
<title>Node14&#45;&gt;Node3</title>
<path fill="none" stroke="#63b8ff" d="M524.09,-318.95C488.58,-309.16 441.04,-296.05 403.58,-285.71"/>
<polygon fill="#63b8ff" stroke="#63b8ff" points="404.37,-282.3 393.79,-283.01 402.5,-289.05 404.37,-282.3"/>
</g>
<!-- Node14&#45;&gt;Node11 -->
<g id="edge23" class="edge">
<title>Node14&#45;&gt;Node11</title>
<path fill="none" stroke="#63b8ff" d="M495.36,-325.53C434.13,-318.41 347.95,-305.36 275,-283 207.69,-262.37 181.62,-265.93 131,-217 95.5,-182.69 76.19,-126.5 67.6,-94.76"/>
<polygon fill="#63b8ff" stroke="#63b8ff" points="70.97,-93.82 65.08,-85.01 64.19,-95.56 70.97,-93.82"/>
</g>
<!-- Node14&#45;&gt;Node13 -->
<g id="edge26" class="edge">
<title>Node14&#45;&gt;Node13</title>
<path fill="none" stroke="#63b8ff" d="M594.56,-318.93C605.99,-309.82 619.92,-297.06 629,-283 668.53,-221.79 688.27,-136.35 695.98,-95.13"/>
<polygon fill="#63b8ff" stroke="#63b8ff" points="699.44,-95.65 697.76,-85.19 692.55,-94.42 699.44,-95.65"/>
</g>
<!-- Node15 -->
<g id="node15" class="node">
<title>Node15</title>
<g id="a_node15"><a xlink:title=" ">
<polygon fill="#e0e0e0" stroke="#999999" points="533.5,-277.5 496.5,-277.5 496.5,-258.5 533.5,-258.5 533.5,-277.5"/>
<text text-anchor="middle" x="515" y="-265.5" font-family="Helvetica,sans-Serif" font-size="10.00">new</text>
</a>
</g>
</g>
<!-- Node14&#45;&gt;Node15 -->
<g id="edge24" class="edge">
<title>Node14&#45;&gt;Node15</title>
<path fill="none" stroke="#63b8ff" d="M561.68,-318.8C552.42,-308.92 540.05,-295.72 530.37,-285.39"/>
<polygon fill="#63b8ff" stroke="#63b8ff" points="532.68,-282.75 523.29,-277.84 527.58,-287.53 532.68,-282.75"/>
</g>
<!-- Node16 -->
<g id="node16" class="node">
<title>Node16</title>
<g id="a_node16"><a xlink:title=" ">
<polygon fill="#e0e0e0" stroke="#999999" points="620.5,-277.5 551.5,-277.5 551.5,-258.5 620.5,-258.5 620.5,-277.5"/>
<text text-anchor="middle" x="586" y="-265.5" font-family="Helvetica,sans-Serif" font-size="10.00">type_traits</text>
</a>
</g>
</g>
<!-- Node14&#45;&gt;Node16 -->
<g id="edge25" class="edge">
<title>Node14&#45;&gt;Node16</title>
<path fill="none" stroke="#63b8ff" d="M577.44,-318.8C579,-309.7 581.05,-297.79 582.75,-287.9"/>
<polygon fill="#63b8ff" stroke="#63b8ff" points="586.24,-288.29 584.48,-277.84 579.34,-287.11 586.24,-288.29"/>
</g>
<!-- Node17&#45;&gt;Node3 -->
<g id="edge28" class="edge">
<title>Node17&#45;&gt;Node3</title>
<path fill="none" stroke="#63b8ff" d="M677.22,-321.48C672.41,-320.62 667.63,-319.79 663,-319 576.58,-304.29 476.73,-288.95 411.87,-279.21"/>
<polygon fill="#63b8ff" stroke="#63b8ff" points="412.17,-275.71 401.76,-277.69 411.13,-282.64 412.17,-275.71"/>
</g>
<!-- Node17&#45;&gt;Node11 -->
<g id="edge32" class="edge">
<title>Node17&#45;&gt;Node11</title>
<path fill="none" stroke="#63b8ff" d="M724.87,-318.78C705.27,-300.05 667.84,-267.78 629,-253 477.07,-195.17 417.09,-274.43 265,-217 226.19,-202.35 132.2,-128.21 87.04,-91.56"/>
<polygon fill="#63b8ff" stroke="#63b8ff" points="89.16,-88.78 79.2,-85.18 84.74,-94.21 89.16,-88.78"/>
</g>
<!-- Node17&#45;&gt;Node13 -->
<g id="edge34" class="edge">
<title>Node17&#45;&gt;Node13</title>
<path fill="none" stroke="#63b8ff" d="M756.23,-318.73C765.82,-309.63 776.82,-296.96 782,-283 786.64,-270.5 784.8,-266.04 782,-253 768.96,-192.3 734.01,-127.42 714.2,-93.94"/>
<polygon fill="#63b8ff" stroke="#63b8ff" points="717.2,-92.13 709.05,-85.36 711.2,-95.74 717.2,-92.13"/>
</g>
<!-- Node18 -->
<g id="node18" class="node">
<title>Node18</title>
<g id="a_node18"><a xlink:href="std_8hpp.html" target="_top" xlink:title=" ">
<polygon fill="white" stroke="#666666" points="942.5,-151 829.5,-151 829.5,-121 942.5,-121 942.5,-151"/>
<text text-anchor="start" x="837.5" y="-139" font-family="Helvetica,sans-Serif" font-size="10.00">proxsuite/linalg/veg</text>
<text text-anchor="middle" x="886" y="-128" font-family="Helvetica,sans-Serif" font-size="10.00">/internal/std.hpp</text>
</a>
</g>
</g>
<!-- Node17&#45;&gt;Node18 -->
<g id="edge29" class="edge">
<title>Node17&#45;&gt;Node18</title>
<path fill="none" stroke="#63b8ff" d="M767.73,-318.98C783.25,-310.3 801.87,-297.95 815,-283 847.42,-246.09 868.61,-191.76 878.83,-160.84"/>
<polygon fill="#63b8ff" stroke="#63b8ff" points="882.16,-161.9 881.87,-151.31 875.49,-159.77 882.16,-161.9"/>
</g>
<!-- Node19 -->
<g id="node19" class="node">
<title>Node19</title>
<g id="a_node19"><a xlink:title=" ">
<polygon fill="#e0e0e0" stroke="#999999" points="773,-277.5 715,-277.5 715,-258.5 773,-258.5 773,-277.5"/>
<text text-anchor="middle" x="744" y="-265.5" font-family="Helvetica,sans-Serif" font-size="10.00">memory</text>
</a>
</g>
</g>
<!-- Node17&#45;&gt;Node19 -->
<g id="edge33" class="edge">
<title>Node17&#45;&gt;Node19</title>
<path fill="none" stroke="#63b8ff" d="M740.11,-318.8C740.82,-309.7 741.75,-297.79 742.52,-287.9"/>
<polygon fill="#63b8ff" stroke="#63b8ff" points="746.02,-288.09 743.31,-277.84 739.04,-287.54 746.02,-288.09"/>
</g>
<!-- Node18&#45;&gt;Node5 -->
<g id="edge30" class="edge">
<title>Node18&#45;&gt;Node5</title>
<path fill="none" stroke="#63b8ff" d="M888.01,-120.92C889.7,-102.95 889.53,-72.17 872,-55 836.5,-20.24 686.73,-12.62 617.44,-10.96"/>
<polygon fill="#63b8ff" stroke="#63b8ff" points="617.11,-7.45 607.04,-10.74 616.96,-14.45 617.11,-7.45"/>
</g>
<!-- Node18&#45;&gt;Node12 -->
<g id="edge31" class="edge">
<title>Node18&#45;&gt;Node12</title>
<path fill="none" stroke="#63b8ff" d="M871.57,-120.8C861.44,-110.82 847.87,-97.46 837.34,-87.09"/>
<polygon fill="#63b8ff" stroke="#63b8ff" points="839.56,-84.37 829.98,-79.84 834.65,-89.35 839.56,-84.37"/>
</g>
</g>
</svg>
