<?xml version="1.0" encoding="UTF-8" standalone="no"?>
<!DOCTYPE svg PUBLIC "-//W3C//DTD SVG 1.1//EN"
 "http://www.w3.org/Graphics/SVG/1.1/DTD/svg11.dtd">
<!-- Generated by graphviz version 5.0.0 (20220707.2338)
 -->
<!-- Title: include/proxsuite/linalg/veg/ref.hpp Pages: 1 -->
<svg width="934pt" height="430pt"
 viewBox="0.00 0.00 933.50 430.00" xmlns="http://www.w3.org/2000/svg" xmlns:xlink="http://www.w3.org/1999/xlink">
<g id="graph0" class="graph" transform="scale(1 1) rotate(0) translate(4 426)">
<title>include/proxsuite/linalg/veg/ref.hpp</title>
<!-- Node1 -->
<g id="node1" class="node">
<title>Node1</title>
<g id="a_node1"><a xlink:title=" ">
<polygon fill="#bfbfbf" stroke="black" points="457.5,-391.5 457.5,-421.5 588.5,-421.5 588.5,-391.5 457.5,-391.5"/>
<text text-anchor="start" x="465.5" y="-409.5" font-family="Helvetica,sans-Serif" font-size="10.00">include/proxsuite/linalg</text>
<text text-anchor="middle" x="523" y="-398.5" font-family="Helvetica,sans-Serif" font-size="10.00">/veg/ref.hpp</text>
</a>
</g>
</g>
<!-- Node2 -->
<g id="node2" class="node">
<title>Node2</title>
<g id="a_node2"><a xlink:href="tags_8hpp.html" target="_top" xlink:title=" ">
<polygon fill="none" stroke="black" points="464.5,-324.5 464.5,-354.5 581.5,-354.5 581.5,-324.5 464.5,-324.5"/>
<text text-anchor="start" x="472.5" y="-342.5" font-family="Helvetica,sans-Serif" font-size="10.00">proxsuite/linalg/veg</text>
<text text-anchor="middle" x="523" y="-331.5" font-family="Helvetica,sans-Serif" font-size="10.00">/type_traits/tags.hpp</text>
</a>
</g>
</g>
<!-- Node1&#45;&gt;Node2 -->
<g id="edge1" class="edge">
<title>Node1&#45;&gt;Node2</title>
<path fill="none" stroke="midnightblue" d="M523,-391.4C523,-383.64 523,-373.81 523,-364.86"/>
<polygon fill="midnightblue" stroke="midnightblue" points="526.5,-364.58 523,-354.58 519.5,-364.58 526.5,-364.58"/>
</g>
<!-- Node11 -->
<g id="node11" class="node">
<title>Node11</title>
<g id="a_node11"><a xlink:href="prologue_8hpp.html" target="_top" xlink:title=" ">
<polygon fill="none" stroke="black" points="0,-56.5 0,-86.5 124,-86.5 124,-56.5 0,-56.5"/>
<text text-anchor="start" x="8" y="-74.5" font-family="Helvetica,sans-Serif" font-size="10.00">proxsuite/linalg/veg</text>
<text text-anchor="middle" x="62" y="-63.5" font-family="Helvetica,sans-Serif" font-size="10.00">/internal/prologue.hpp</text>
</a>
</g>
</g>
<!-- Node1&#45;&gt;Node11 -->
<g id="edge34" class="edge">
<title>Node1&#45;&gt;Node11</title>
<path fill="none" stroke="midnightblue" d="M457.4,-401.16C326.22,-390.67 44,-358.25 44,-273.5 44,-273.5 44,-273.5 44,-204.5 44,-166.49 51.42,-122.88 56.73,-96.52"/>
<polygon fill="midnightblue" stroke="midnightblue" points="60.17,-97.18 58.78,-86.67 53.32,-95.75 60.17,-97.18"/>
</g>
<!-- Node13 -->
<g id="node13" class="node">
<title>Node13</title>
<g id="a_node13"><a xlink:href="epilogue_8hpp.html" target="_top" xlink:title=" ">
<polygon fill="none" stroke="black" points="639.5,-56.5 639.5,-86.5 762.5,-86.5 762.5,-56.5 639.5,-56.5"/>
<text text-anchor="start" x="647.5" y="-74.5" font-family="Helvetica,sans-Serif" font-size="10.00">proxsuite/linalg/veg</text>
<text text-anchor="middle" x="701" y="-63.5" font-family="Helvetica,sans-Serif" font-size="10.00">/internal/epilogue.hpp</text>
</a>
</g>
</g>
<!-- Node1&#45;&gt;Node13 -->
<g id="edge35" class="edge">
<title>Node1&#45;&gt;Node13</title>
<path fill="none" stroke="midnightblue" d="M588.8,-402.91C661.64,-395.84 772.79,-371.25 803,-288 829.63,-214.62 761.67,-132.41 724.03,-94.2"/>
<polygon fill="midnightblue" stroke="midnightblue" points="726.07,-91.29 716.51,-86.73 721.14,-96.26 726.07,-91.29"/>
</g>
<!-- Node14 -->
<g id="node14" class="node">
<title>Node14</title>
<g id="a_node14"><a xlink:href="constructible_8hpp.html" target="_top" xlink:title=" ">
<polygon fill="none" stroke="black" points="287.5,-324.5 287.5,-354.5 446.5,-354.5 446.5,-324.5 287.5,-324.5"/>
<text text-anchor="start" x="295.5" y="-342.5" font-family="Helvetica,sans-Serif" font-size="10.00">proxsuite/linalg/veg</text>
<text text-anchor="middle" x="367" y="-331.5" font-family="Helvetica,sans-Serif" font-size="10.00">/type_traits/constructible.hpp</text>
</a>
</g>
</g>
<!-- Node1&#45;&gt;Node14 -->
<g id="edge21" class="edge">
<title>Node1&#45;&gt;Node14</title>
<path fill="none" stroke="midnightblue" d="M489.15,-391.4C465.95,-381.73 434.97,-368.82 410.02,-358.43"/>
<polygon fill="midnightblue" stroke="midnightblue" points="411.36,-355.19 400.78,-354.58 408.67,-361.65 411.36,-355.19"/>
</g>
<!-- Node16 -->
<g id="node16" class="node">
<title>Node16</title>
<g id="a_node16"><a xlink:href="address_8hpp.html" target="_top" xlink:title=" ">
<polygon fill="none" stroke="black" points="615.5,-324.5 615.5,-354.5 738.5,-354.5 738.5,-324.5 615.5,-324.5"/>
<text text-anchor="start" x="623.5" y="-342.5" font-family="Helvetica,sans-Serif" font-size="10.00">proxsuite/linalg/veg</text>
<text text-anchor="middle" x="677" y="-331.5" font-family="Helvetica,sans-Serif" font-size="10.00">/memory/address.hpp</text>
</a>
</g>
</g>
<!-- Node1&#45;&gt;Node16 -->
<g id="edge26" class="edge">
<title>Node1&#45;&gt;Node16</title>
<path fill="none" stroke="midnightblue" d="M556.42,-391.4C579.22,-381.77 609.63,-368.94 634.2,-358.56"/>
<polygon fill="midnightblue" stroke="midnightblue" points="635.8,-361.69 643.65,-354.58 633.08,-355.24 635.8,-361.69"/>
</g>
<!-- Node3 -->
<g id="node3" class="node">
<title>Node3</title>
<g id="a_node3"><a xlink:href="veg_2type__traits_2core_8hpp.html" target="_top" xlink:title=" ">
<polygon fill="none" stroke="black" points="448.5,-257.5 448.5,-287.5 565.5,-287.5 565.5,-257.5 448.5,-257.5"/>
<text text-anchor="start" x="456.5" y="-275.5" font-family="Helvetica,sans-Serif" font-size="10.00">proxsuite/linalg/veg</text>
<text text-anchor="middle" x="507" y="-264.5" font-family="Helvetica,sans-Serif" font-size="10.00">/type_traits/core.hpp</text>
</a>
</g>
</g>
<!-- Node2&#45;&gt;Node3 -->
<g id="edge2" class="edge">
<title>Node2&#45;&gt;Node3</title>
<path fill="none" stroke="midnightblue" d="M519.53,-324.4C517.6,-316.56 515.15,-306.6 512.92,-297.57"/>
<polygon fill="midnightblue" stroke="midnightblue" points="516.25,-296.45 510.46,-287.58 509.46,-298.12 516.25,-296.45"/>
</g>
<!-- Node2&#45;&gt;Node11 -->
<g id="edge19" class="edge">
<title>Node2&#45;&gt;Node11</title>
<path fill="none" stroke="midnightblue" d="M485,-324.39C433.04,-304.43 337.64,-265.4 262,-221 194.67,-181.47 122.84,-123.85 86.34,-93.3"/>
<polygon fill="midnightblue" stroke="midnightblue" points="88.17,-90.27 78.27,-86.5 83.66,-95.62 88.17,-90.27"/>
</g>
<!-- Node2&#45;&gt;Node13 -->
<g id="edge20" class="edge">
<title>Node2&#45;&gt;Node13</title>
<path fill="none" stroke="midnightblue" d="M555.2,-324.4C572.36,-315.72 592.98,-303.32 608,-288 662.43,-232.46 687.39,-139.98 696.57,-96.49"/>
<polygon fill="midnightblue" stroke="midnightblue" points="700.03,-97.04 698.57,-86.54 693.17,-95.65 700.03,-97.04"/>
</g>
<!-- Node4 -->
<g id="node4" class="node">
<title>Node4</title>
<g id="a_node4"><a xlink:href="typedefs_8hpp.html" target="_top" xlink:title=" ">
<polygon fill="none" stroke="black" points="497,-56.5 497,-86.5 621,-86.5 621,-56.5 497,-56.5"/>
<text text-anchor="start" x="505" y="-74.5" font-family="Helvetica,sans-Serif" font-size="10.00">proxsuite/linalg/veg</text>
<text text-anchor="middle" x="559" y="-63.5" font-family="Helvetica,sans-Serif" font-size="10.00">/internal/typedefs.hpp</text>
</a>
</g>
</g>
<!-- Node3&#45;&gt;Node4 -->
<g id="edge3" class="edge">
<title>Node3&#45;&gt;Node4</title>
<path fill="none" stroke="midnightblue" d="M517.53,-257.23C524.18,-247.5 532.35,-234.07 537,-221 551.93,-179.01 556.73,-126.86 558.27,-96.85"/>
<polygon fill="midnightblue" stroke="midnightblue" points="561.77,-97 558.71,-86.86 554.77,-96.7 561.77,-97"/>
</g>
<!-- Node7 -->
<g id="node7" class="node">
<title>Node7</title>
<g id="a_node7"><a xlink:href="integer__seq_8hpp.html" target="_top" xlink:title=" ">
<polygon fill="none" stroke="black" points="390,-190.5 390,-220.5 528,-220.5 528,-190.5 390,-190.5"/>
<text text-anchor="start" x="398" y="-208.5" font-family="Helvetica,sans-Serif" font-size="10.00">proxsuite/linalg/veg</text>
<text text-anchor="middle" x="459" y="-197.5" font-family="Helvetica,sans-Serif" font-size="10.00">/internal/integer_seq.hpp</text>
</a>
</g>
</g>
<!-- Node3&#45;&gt;Node7 -->
<g id="edge6" class="edge">
<title>Node3&#45;&gt;Node7</title>
<path fill="none" stroke="midnightblue" d="M496.58,-257.4C490.42,-249.05 482.47,-238.29 475.48,-228.81"/>
<polygon fill="midnightblue" stroke="midnightblue" points="478.15,-226.54 469.39,-220.58 472.52,-230.7 478.15,-226.54"/>
</g>
<!-- Node3&#45;&gt;Node11 -->
<g id="edge17" class="edge">
<title>Node3&#45;&gt;Node11</title>
<path fill="none" stroke="midnightblue" d="M448.27,-265.92C405.19,-259.79 346.52,-247.1 301,-221 248.38,-190.82 257.1,-155.69 206,-123 183.24,-108.44 155.77,-97.47 130.95,-89.54"/>
<polygon fill="midnightblue" stroke="midnightblue" points="131.81,-86.14 121.22,-86.54 129.75,-92.83 131.81,-86.14"/>
</g>
<!-- Node3&#45;&gt;Node13 -->
<g id="edge18" class="edge">
<title>Node3&#45;&gt;Node13</title>
<path fill="none" stroke="midnightblue" d="M522.43,-257.22C532.53,-247.49 545.72,-234.05 556,-221 587.89,-180.51 581.24,-159.12 618,-123 630.65,-110.57 646.92,-99.83 661.69,-91.49"/>
<polygon fill="midnightblue" stroke="midnightblue" points="663.54,-94.46 670.65,-86.61 660.2,-88.31 663.54,-94.46"/>
</g>
<!-- Node5 -->
<g id="node5" class="node">
<title>Node5</title>
<g id="a_node5"><a xlink:title=" ">
<polygon fill="none" stroke="#bfbfbf" points="735,-0.5 735,-19.5 785,-19.5 785,-0.5 735,-0.5"/>
<text text-anchor="middle" x="760" y="-7.5" font-family="Helvetica,sans-Serif" font-size="10.00">cstdint</text>
</a>
</g>
</g>
<!-- Node4&#45;&gt;Node5 -->
<g id="edge4" class="edge">
<title>Node4&#45;&gt;Node5</title>
<path fill="none" stroke="midnightblue" d="M606.38,-56.47C642.88,-45.67 692.49,-30.98 725.34,-21.26"/>
<polygon fill="midnightblue" stroke="midnightblue" points="726.37,-24.6 734.97,-18.41 724.39,-17.89 726.37,-24.6"/>
</g>
<!-- Node6 -->
<g id="node6" class="node">
<title>Node6</title>
<g id="a_node6"><a xlink:title=" ">
<polygon fill="none" stroke="#bfbfbf" points="532.5,-0.5 532.5,-19.5 585.5,-19.5 585.5,-0.5 532.5,-0.5"/>
<text text-anchor="middle" x="559" y="-7.5" font-family="Helvetica,sans-Serif" font-size="10.00">cstddef</text>
</a>
</g>
</g>
<!-- Node4&#45;&gt;Node6 -->
<g id="edge5" class="edge">
<title>Node4&#45;&gt;Node6</title>
<path fill="none" stroke="midnightblue" d="M559,-56.4C559,-48.47 559,-38.46 559,-29.86"/>
<polygon fill="midnightblue" stroke="midnightblue" points="562.5,-29.66 559,-19.66 555.5,-29.66 562.5,-29.66"/>
</g>
<!-- Node7&#45;&gt;Node4 -->
<g id="edge7" class="edge">
<title>Node7&#45;&gt;Node4</title>
<path fill="none" stroke="midnightblue" d="M465.07,-190.4C472.75,-173.45 487.02,-144.6 504,-123 512.39,-112.33 523.11,-101.94 532.86,-93.39"/>
<polygon fill="midnightblue" stroke="midnightblue" points="535.4,-95.82 540.75,-86.67 530.87,-90.49 535.4,-95.82"/>
</g>
<!-- Node8 -->
<g id="node8" class="node">
<title>Node8</title>
<g id="a_node8"><a xlink:href="macros_8hpp.html" target="_top" xlink:title=" ">
<polygon fill="none" stroke="black" points="334.5,-123.5 334.5,-153.5 451.5,-153.5 451.5,-123.5 334.5,-123.5"/>
<text text-anchor="start" x="342.5" y="-141.5" font-family="Helvetica,sans-Serif" font-size="10.00">proxsuite/linalg/veg</text>
<text text-anchor="middle" x="393" y="-130.5" font-family="Helvetica,sans-Serif" font-size="10.00">/internal/macros.hpp</text>
</a>
</g>
</g>
<!-- Node7&#45;&gt;Node8 -->
<g id="edge8" class="edge">
<title>Node7&#45;&gt;Node8</title>
<path fill="none" stroke="midnightblue" d="M444.68,-190.4C435.86,-181.71 424.38,-170.4 414.48,-160.66"/>
<polygon fill="midnightblue" stroke="midnightblue" points="416.87,-158.1 407.29,-153.58 411.96,-163.09 416.87,-158.1"/>
</g>
<!-- Node7&#45;&gt;Node11 -->
<g id="edge15" class="edge">
<title>Node7&#45;&gt;Node11</title>
<path fill="none" stroke="midnightblue" d="M412.72,-190.43C386.28,-181.57 352.93,-168.99 325,-154 304.24,-142.86 303.46,-132.72 282,-123 268.4,-116.84 192.99,-100.11 134.21,-87.58"/>
<polygon fill="midnightblue" stroke="midnightblue" points="134.7,-84.11 124.19,-85.46 133.24,-90.96 134.7,-84.11"/>
</g>
<!-- Node7&#45;&gt;Node13 -->
<g id="edge16" class="edge">
<title>Node7&#45;&gt;Node13</title>
<path fill="none" stroke="midnightblue" d="M477.55,-190.3C500.69,-173 541.87,-143.54 580,-123 603.15,-110.53 630.04,-99.04 652.58,-90.17"/>
<polygon fill="midnightblue" stroke="midnightblue" points="653.9,-93.42 661.95,-86.54 651.37,-86.89 653.9,-93.42"/>
</g>
<!-- Node8&#45;&gt;Node4 -->
<g id="edge10" class="edge">
<title>Node8&#45;&gt;Node4</title>
<path fill="none" stroke="midnightblue" d="M429.02,-123.4C453.82,-113.69 486.96,-100.71 513.57,-90.29"/>
<polygon fill="midnightblue" stroke="midnightblue" points="515.02,-93.48 523.05,-86.58 512.46,-86.96 515.02,-93.48"/>
</g>
<!-- Node9 -->
<g id="node9" class="node">
<title>Node9</title>
<g id="a_node9"><a xlink:href="hedley_8ext_8hpp.html" target="_top" xlink:title=" ">
<polygon fill="none" stroke="black" points="303.5,-56.5 303.5,-86.5 478.5,-86.5 478.5,-56.5 303.5,-56.5"/>
<text text-anchor="start" x="311.5" y="-74.5" font-family="Helvetica,sans-Serif" font-size="10.00">proxsuite/linalg/veg</text>
<text text-anchor="middle" x="391" y="-63.5" font-family="Helvetica,sans-Serif" font-size="10.00">/internal/external/hedley.ext.hpp</text>
</a>
</g>
</g>
<!-- Node8&#45;&gt;Node9 -->
<g id="edge9" class="edge">
<title>Node8&#45;&gt;Node9</title>
<path fill="none" stroke="midnightblue" d="M392.57,-123.4C392.33,-115.64 392.02,-105.81 391.75,-96.86"/>
<polygon fill="midnightblue" stroke="midnightblue" points="395.24,-96.46 391.43,-86.58 388.24,-96.68 395.24,-96.46"/>
</g>
<!-- Node10 -->
<g id="node10" class="node">
<title>Node10</title>
<g id="a_node10"><a xlink:href="preprocessor_8hpp.html" target="_top" xlink:title=" ">
<polygon fill="none" stroke="black" points="142.5,-56.5 142.5,-86.5 285.5,-86.5 285.5,-56.5 142.5,-56.5"/>
<text text-anchor="start" x="150.5" y="-74.5" font-family="Helvetica,sans-Serif" font-size="10.00">proxsuite/linalg/veg</text>
<text text-anchor="middle" x="214" y="-63.5" font-family="Helvetica,sans-Serif" font-size="10.00">/internal/preprocessor.hpp</text>
</a>
</g>
</g>
<!-- Node8&#45;&gt;Node10 -->
<g id="edge11" class="edge">
<title>Node8&#45;&gt;Node10</title>
<path fill="none" stroke="midnightblue" d="M354.16,-123.4C327.18,-113.6 291.06,-100.48 262.23,-90.02"/>
<polygon fill="midnightblue" stroke="midnightblue" points="263.36,-86.7 252.76,-86.58 260.97,-93.28 263.36,-86.7"/>
</g>
<!-- Node8&#45;&gt;Node11 -->
<g id="edge12" class="edge">
<title>Node8&#45;&gt;Node11</title>
<path fill="none" stroke="midnightblue" d="M334.44,-125.84C329.55,-124.87 324.69,-123.92 320,-123 240.02,-107.36 217.66,-103.73 134.25,-87.24"/>
<polygon fill="midnightblue" stroke="midnightblue" points="134.82,-83.78 124.33,-85.27 133.46,-90.65 134.82,-83.78"/>
</g>
<!-- Node12 -->
<g id="node12" class="node">
<title>Node12</title>
<g id="a_node12"><a xlink:title=" ">
<polygon fill="none" stroke="#bfbfbf" points="780.5,-62 780.5,-81 863.5,-81 863.5,-62 780.5,-62"/>
<text text-anchor="middle" x="822" y="-69" font-family="Helvetica,sans-Serif" font-size="10.00">initializer_list</text>
</a>
</g>
</g>
<!-- Node8&#45;&gt;Node12 -->
<g id="edge13" class="edge">
<title>Node8&#45;&gt;Node12</title>
<path fill="none" stroke="midnightblue" d="M451.72,-132.3C526.43,-125.09 659.18,-110.24 771,-87 775.48,-86.07 780.14,-84.95 784.75,-83.76"/>
<polygon fill="midnightblue" stroke="midnightblue" points="785.93,-87.07 794.65,-81.06 784.08,-80.31 785.93,-87.07"/>
</g>
<!-- Node8&#45;&gt;Node13 -->
<g id="edge14" class="edge">
<title>Node8&#45;&gt;Node13</title>
<path fill="none" stroke="midnightblue" d="M451.66,-125.12C502.27,-114.44 575.52,-98.98 629.54,-87.58"/>
<polygon fill="midnightblue" stroke="midnightblue" points="630.33,-90.99 639.39,-85.5 628.89,-84.14 630.33,-90.99"/>
</g>
<!-- Node14&#45;&gt;Node3 -->
<g id="edge22" class="edge">
<title>Node14&#45;&gt;Node3</title>
<path fill="none" stroke="midnightblue" d="M397.38,-324.4C417.93,-314.86 445.26,-302.16 467.5,-291.84"/>
<polygon fill="midnightblue" stroke="midnightblue" points="469.09,-294.96 476.68,-287.58 466.14,-288.61 469.09,-294.96"/>
</g>
<!-- Node14&#45;&gt;Node11 -->
<g id="edge23" class="edge">
<title>Node14&#45;&gt;Node11</title>
<path fill="none" stroke="midnightblue" d="M287.43,-333.2C218.75,-326.93 126.65,-313.87 101,-288 74.5,-261.27 65.66,-147.01 63.02,-96.58"/>
<polygon fill="midnightblue" stroke="midnightblue" points="66.51,-96.39 62.53,-86.57 59.52,-96.73 66.51,-96.39"/>
</g>
<!-- Node14&#45;&gt;Node13 -->
<g id="edge25" class="edge">
<title>Node14&#45;&gt;Node13</title>
<path fill="none" stroke="midnightblue" d="M435.87,-324.48C491.62,-312.67 562.7,-296.39 574,-288 608.73,-262.21 666.32,-146.05 690.15,-95.8"/>
<polygon fill="midnightblue" stroke="midnightblue" points="693.36,-97.21 694.45,-86.67 687.03,-94.22 693.36,-97.21"/>
</g>
<!-- Node15 -->
<g id="node15" class="node">
<title>Node15</title>
<g id="a_node15"><a xlink:title=" ">
<polygon fill="none" stroke="#bfbfbf" points="110.5,-263 110.5,-282 179.5,-282 179.5,-263 110.5,-263"/>
<text text-anchor="middle" x="145" y="-270" font-family="Helvetica,sans-Serif" font-size="10.00">type_traits</text>
</a>
</g>
</g>
<!-- Node14&#45;&gt;Node15 -->
<g id="edge24" class="edge">
<title>Node14&#45;&gt;Node15</title>
<path fill="none" stroke="midnightblue" d="M318.51,-324.4C283.83,-314.3 236.03,-300.35 194,-288 190.62,-287.01 187.11,-285.97 183.59,-284.93"/>
<polygon fill="midnightblue" stroke="midnightblue" points="184.34,-281.51 173.75,-282.03 182.35,-288.22 184.34,-281.51"/>
</g>
<!-- Node16&#45;&gt;Node3 -->
<g id="edge27" class="edge">
<title>Node16&#45;&gt;Node3</title>
<path fill="none" stroke="midnightblue" d="M640.11,-324.4C614.61,-314.64 580.48,-301.59 553.17,-291.15"/>
<polygon fill="midnightblue" stroke="midnightblue" points="554.41,-287.88 543.82,-287.58 551.91,-294.42 554.41,-287.88"/>
</g>
<!-- Node16&#45;&gt;Node11 -->
<g id="edge31" class="edge">
<title>Node16&#45;&gt;Node11</title>
<path fill="none" stroke="midnightblue" d="M663.81,-324.47C645.52,-305.91 610.53,-273.62 574,-257 494.57,-220.87 461.72,-254.15 381,-221 331.85,-200.82 325.88,-183.96 282,-154 261.94,-140.31 258.95,-133.39 237,-123 204.49,-107.61 166.33,-95.93 133.95,-87.7"/>
<polygon fill="midnightblue" stroke="midnightblue" points="134.65,-84.27 124.1,-85.25 132.96,-91.06 134.65,-84.27"/>
</g>
<!-- Node16&#45;&gt;Node13 -->
<g id="edge33" class="edge">
<title>Node16&#45;&gt;Node13</title>
<path fill="none" stroke="midnightblue" d="M679.18,-324.38C680.69,-314.27 682.66,-300.32 684,-288 691.52,-218.77 697.07,-136.68 699.56,-96.75"/>
<polygon fill="midnightblue" stroke="midnightblue" points="703.06,-96.84 700.17,-86.65 696.07,-96.41 703.06,-96.84"/>
</g>
<!-- Node17 -->
<g id="node17" class="node">
<title>Node17</title>
<g id="a_node17"><a xlink:href="std_8hpp.html" target="_top" xlink:title=" ">
<polygon fill="none" stroke="black" points="812.5,-123.5 812.5,-153.5 925.5,-153.5 925.5,-123.5 812.5,-123.5"/>
<text text-anchor="start" x="820.5" y="-141.5" font-family="Helvetica,sans-Serif" font-size="10.00">proxsuite/linalg/veg</text>
<text text-anchor="middle" x="869" y="-130.5" font-family="Helvetica,sans-Serif" font-size="10.00">/internal/std.hpp</text>
</a>
</g>
</g>
<!-- Node16&#45;&gt;Node17 -->
<g id="edge28" class="edge">
<title>Node16&#45;&gt;Node17</title>
<path fill="none" stroke="midnightblue" d="M738.2,-324.44C760.78,-316.75 785.18,-305.17 803,-288 838.77,-253.53 856.56,-196.22 864.18,-163.8"/>
<polygon fill="midnightblue" stroke="midnightblue" points="867.64,-164.34 866.38,-153.83 860.81,-162.83 867.64,-164.34"/>
</g>
<!-- Node18 -->
<g id="node18" class="node">
<title>Node18</title>
<g id="a_node18"><a xlink:title=" ">
<polygon fill="none" stroke="#bfbfbf" points="736,-263 736,-282 794,-282 794,-263 736,-263"/>
<text text-anchor="middle" x="765" y="-270" font-family="Helvetica,sans-Serif" font-size="10.00">memory</text>
</a>
</g>
</g>
<!-- Node16&#45;&gt;Node18 -->
<g id="edge32" class="edge">
<title>Node16&#45;&gt;Node18</title>
<path fill="none" stroke="midnightblue" d="M696.09,-324.4C710.58,-313.7 730.43,-299.03 745.11,-288.19"/>
<polygon fill="midnightblue" stroke="midnightblue" points="747.52,-290.76 753.48,-282.01 743.36,-285.13 747.52,-290.76"/>
</g>
<!-- Node17&#45;&gt;Node5 -->
<g id="edge29" class="edge">
<title>Node17&#45;&gt;Node5</title>
<path fill="none" stroke="midnightblue" d="M874.43,-123.45C880.17,-106.02 886.68,-76.17 873,-56 855.74,-30.54 821.53,-19.49 795.26,-14.69"/>
<polygon fill="midnightblue" stroke="midnightblue" points="795.7,-11.21 785.27,-13.08 794.59,-18.12 795.7,-11.21"/>
</g>
<!-- Node17&#45;&gt;Node12 -->
<g id="edge30" class="edge">
<title>Node17&#45;&gt;Node12</title>
<path fill="none" stroke="midnightblue" d="M858.8,-123.4C851.62,-113.46 841.96,-100.11 834.34,-89.57"/>
<polygon fill="midnightblue" stroke="midnightblue" points="836.98,-87.25 828.29,-81.19 831.31,-91.35 836.98,-87.25"/>
</g>
</g>
</svg>
