<?xml version="1.0" encoding="UTF-8" standalone="no"?>
<!DOCTYPE svg PUBLIC "-//W3C//DTD SVG 1.1//EN"
 "http://www.w3.org/Graphics/SVG/1.1/DTD/svg11.dtd">
<!-- Generated by graphviz version 6.0.1 (20220911.2005)
 -->
<!-- Title: include/proxsuite/linalg/veg/ref.hpp Pages: 1 -->
<svg width="934pt" height="423pt"
 viewBox="0.00 0.00 933.50 423.00" xmlns="http://www.w3.org/2000/svg" xmlns:xlink="http://www.w3.org/1999/xlink">
<g id="graph0" class="graph" transform="scale(1 1) rotate(0) translate(4 419)">
<title>include/proxsuite/linalg/veg/ref.hpp</title>
<!-- Node1 -->
<g id="node1" class="node">
<title>Node1</title>
<g id="a_node1"><a xlink:title=" ">
<polygon fill="#999999" stroke="#666666" points="588.5,-415 457.5,-415 457.5,-385 588.5,-385 588.5,-415"/>
<text text-anchor="start" x="465.5" y="-403" font-family="Helvetica,sans-Serif" font-size="10.00">include/proxsuite/linalg</text>
<text text-anchor="middle" x="523" y="-392" font-family="Helvetica,sans-Serif" font-size="10.00">/veg/ref.hpp</text>
</a>
</g>
</g>
<!-- Node2 -->
<g id="node2" class="node">
<title>Node2</title>
<g id="a_node2"><a xlink:href="tags_8hpp.html" target="_top" xlink:title=" ">
<polygon fill="white" stroke="#666666" points="581.5,-349 464.5,-349 464.5,-319 581.5,-319 581.5,-349"/>
<text text-anchor="start" x="472.5" y="-337" font-family="Helvetica,sans-Serif" font-size="10.00">proxsuite/linalg/veg</text>
<text text-anchor="middle" x="523" y="-326" font-family="Helvetica,sans-Serif" font-size="10.00">/type_traits/tags.hpp</text>
</a>
</g>
</g>
<!-- Node1&#45;&gt;Node2 -->
<g id="edge1" class="edge">
<title>Node1&#45;&gt;Node2</title>
<path fill="none" stroke="#63b8ff" d="M523,-384.8C523,-377.34 523,-367.99 523,-359.41"/>
<polygon fill="#63b8ff" stroke="#63b8ff" points="526.5,-359.16 523,-349.16 519.5,-359.16 526.5,-359.16"/>
</g>
<!-- Node11 -->
<g id="node11" class="node">
<title>Node11</title>
<g id="a_node11"><a xlink:href="prologue_8hpp.html" target="_top" xlink:title=" ">
<polygon fill="white" stroke="#666666" points="124,-85 0,-85 0,-55 124,-55 124,-85"/>
<text text-anchor="start" x="8" y="-73" font-family="Helvetica,sans-Serif" font-size="10.00">proxsuite/linalg/veg</text>
<text text-anchor="middle" x="62" y="-62" font-family="Helvetica,sans-Serif" font-size="10.00">/internal/prologue.hpp</text>
</a>
</g>
</g>
<!-- Node1&#45;&gt;Node11 -->
<g id="edge34" class="edge">
<title>Node1&#45;&gt;Node11</title>
<path fill="none" stroke="#63b8ff" d="M457.4,-394.92C326.22,-384.95 44,-353.66 44,-269 44,-269 44,-269 44,-201 44,-163.92 51.28,-121.44 56.57,-95.42"/>
<polygon fill="#63b8ff" stroke="#63b8ff" points="60.06,-95.84 58.7,-85.34 53.21,-94.4 60.06,-95.84"/>
</g>
<!-- Node13 -->
<g id="node13" class="node">
<title>Node13</title>
<g id="a_node13"><a xlink:href="epilogue_8hpp.html" target="_top" xlink:title=" ">
<polygon fill="white" stroke="#666666" points="762.5,-85 639.5,-85 639.5,-55 762.5,-55 762.5,-85"/>
<text text-anchor="start" x="647.5" y="-73" font-family="Helvetica,sans-Serif" font-size="10.00">proxsuite/linalg/veg</text>
<text text-anchor="middle" x="701" y="-62" font-family="Helvetica,sans-Serif" font-size="10.00">/internal/epilogue.hpp</text>
</a>
</g>
</g>
<!-- Node1&#45;&gt;Node13 -->
<g id="edge35" class="edge">
<title>Node1&#45;&gt;Node13</title>
<path fill="none" stroke="#63b8ff" d="M588.71,-396.72C661.47,-390.01 772.54,-365.98 803,-283 829.48,-210.87 761.96,-130.27 724.3,-92.6"/>
<polygon fill="#63b8ff" stroke="#63b8ff" points="726.35,-89.72 716.76,-85.23 721.46,-94.72 726.35,-89.72"/>
</g>
<!-- Node14 -->
<g id="node14" class="node">
<title>Node14</title>
<g id="a_node14"><a xlink:href="constructible_8hpp.html" target="_top" xlink:title=" ">
<polygon fill="white" stroke="#666666" points="446.5,-349 287.5,-349 287.5,-319 446.5,-319 446.5,-349"/>
<text text-anchor="start" x="295.5" y="-337" font-family="Helvetica,sans-Serif" font-size="10.00">proxsuite/linalg/veg</text>
<text text-anchor="middle" x="367" y="-326" font-family="Helvetica,sans-Serif" font-size="10.00">/type_traits/constructible.hpp</text>
</a>
</g>
</g>
<!-- Node1&#45;&gt;Node14 -->
<g id="edge21" class="edge">
<title>Node1&#45;&gt;Node14</title>
<path fill="none" stroke="#63b8ff" d="M488.77,-384.95C465.8,-375.53 435.36,-363.04 410.66,-352.91"/>
<polygon fill="#63b8ff" stroke="#63b8ff" points="411.74,-349.57 401.16,-349.01 409.08,-356.05 411.74,-349.57"/>
</g>
<!-- Node16 -->
<g id="node16" class="node">
<title>Node16</title>
<g id="a_node16"><a xlink:href="address_8hpp.html" target="_top" xlink:title=" ">
<polygon fill="white" stroke="#666666" points="738.5,-349 615.5,-349 615.5,-319 738.5,-319 738.5,-349"/>
<text text-anchor="start" x="623.5" y="-337" font-family="Helvetica,sans-Serif" font-size="10.00">proxsuite/linalg/veg</text>
<text text-anchor="middle" x="677" y="-326" font-family="Helvetica,sans-Serif" font-size="10.00">/memory/address.hpp</text>
</a>
</g>
</g>
<!-- Node1&#45;&gt;Node16 -->
<g id="edge26" class="edge">
<title>Node1&#45;&gt;Node16</title>
<path fill="none" stroke="#63b8ff" d="M556.8,-384.95C579.46,-375.53 609.52,-363.04 633.9,-352.91"/>
<polygon fill="#63b8ff" stroke="#63b8ff" points="635.39,-356.08 643.28,-349.01 632.71,-349.62 635.39,-356.08"/>
</g>
<!-- Node3 -->
<g id="node3" class="node">
<title>Node3</title>
<g id="a_node3"><a xlink:href="veg_2type__traits_2core_8hpp.html" target="_top" xlink:title=" ">
<polygon fill="white" stroke="#666666" points="565.5,-283 448.5,-283 448.5,-253 565.5,-253 565.5,-283"/>
<text text-anchor="start" x="456.5" y="-271" font-family="Helvetica,sans-Serif" font-size="10.00">proxsuite/linalg/veg</text>
<text text-anchor="middle" x="507" y="-260" font-family="Helvetica,sans-Serif" font-size="10.00">/type_traits/core.hpp</text>
</a>
</g>
</g>
<!-- Node2&#45;&gt;Node3 -->
<g id="edge2" class="edge">
<title>Node2&#45;&gt;Node3</title>
<path fill="none" stroke="#63b8ff" d="M519.45,-318.8C517.56,-311.26 515.2,-301.78 513.03,-293.13"/>
<polygon fill="#63b8ff" stroke="#63b8ff" points="516.36,-292.02 510.54,-283.16 509.57,-293.71 516.36,-292.02"/>
</g>
<!-- Node2&#45;&gt;Node11 -->
<g id="edge19" class="edge">
<title>Node2&#45;&gt;Node11</title>
<path fill="none" stroke="#63b8ff" d="M484.6,-318.9C432.58,-299.14 337.54,-260.7 262,-217 195.17,-178.34 123.67,-122.07 86.95,-91.92"/>
<polygon fill="#63b8ff" stroke="#63b8ff" points="88.75,-88.86 78.81,-85.19 84.29,-94.26 88.75,-88.86"/>
</g>
<!-- Node2&#45;&gt;Node13 -->
<g id="edge20" class="edge">
<title>Node2&#45;&gt;Node13</title>
<path fill="none" stroke="#63b8ff" d="M555.57,-318.86C572.65,-310.28 593.06,-298.08 608,-283 661.85,-228.65 687.04,-137.9 696.41,-94.94"/>
<polygon fill="#63b8ff" stroke="#63b8ff" points="699.85,-95.6 698.47,-85.1 693,-94.18 699.85,-95.6"/>
</g>
<!-- Node4 -->
<g id="node4" class="node">
<title>Node4</title>
<g id="a_node4"><a xlink:href="typedefs_8hpp.html" target="_top" xlink:title=" ">
<polygon fill="white" stroke="#666666" points="621,-85 497,-85 497,-55 621,-55 621,-85"/>
<text text-anchor="start" x="505" y="-73" font-family="Helvetica,sans-Serif" font-size="10.00">proxsuite/linalg/veg</text>
<text text-anchor="middle" x="559" y="-62" font-family="Helvetica,sans-Serif" font-size="10.00">/internal/typedefs.hpp</text>
</a>
</g>
</g>
<!-- Node3&#45;&gt;Node4 -->
<g id="edge3" class="edge">
<title>Node3&#45;&gt;Node4</title>
<path fill="none" stroke="#63b8ff" d="M517.53,-252.88C524.17,-243.26 532.34,-229.96 537,-217 551.76,-175.93 556.62,-124.91 558.22,-95.35"/>
<polygon fill="#63b8ff" stroke="#63b8ff" points="561.72,-95.28 558.68,-85.13 554.73,-94.96 561.72,-95.28"/>
</g>
<!-- Node7 -->
<g id="node7" class="node">
<title>Node7</title>
<g id="a_node7"><a xlink:href="integer__seq_8hpp.html" target="_top" xlink:title=" ">
<polygon fill="white" stroke="#666666" points="528,-217 390,-217 390,-187 528,-187 528,-217"/>
<text text-anchor="start" x="398" y="-205" font-family="Helvetica,sans-Serif" font-size="10.00">proxsuite/linalg/veg</text>
<text text-anchor="middle" x="459" y="-194" font-family="Helvetica,sans-Serif" font-size="10.00">/internal/integer_seq.hpp</text>
</a>
</g>
</g>
<!-- Node3&#45;&gt;Node7 -->
<g id="edge6" class="edge">
<title>Node3&#45;&gt;Node7</title>
<path fill="none" stroke="#63b8ff" d="M496.35,-252.8C490.32,-244.76 482.64,-234.53 475.82,-225.43"/>
<polygon fill="#63b8ff" stroke="#63b8ff" points="478.42,-223.06 469.62,-217.16 472.82,-227.26 478.42,-223.06"/>
</g>
<!-- Node3&#45;&gt;Node11 -->
<g id="edge17" class="edge">
<title>Node3&#45;&gt;Node11</title>
<path fill="none" stroke="#63b8ff" d="M448.35,-261.45C405.31,-255.37 346.66,-242.8 301,-217 248.74,-187.47 256.78,-153.01 206,-121 183.27,-106.67 155.92,-95.85 131.19,-88"/>
<polygon fill="#63b8ff" stroke="#63b8ff" points="132.09,-84.61 121.5,-85.03 130.04,-91.3 132.09,-84.61"/>
</g>
<!-- Node3&#45;&gt;Node13 -->
<g id="edge18" class="edge">
<title>Node3&#45;&gt;Node13</title>
<path fill="none" stroke="#63b8ff" d="M522.4,-252.85C532.49,-243.22 545.68,-229.91 556,-217 587.71,-177.33 581.53,-156.35 618,-121 630.6,-108.78 646.72,-98.22 661.4,-89.99"/>
<polygon fill="#63b8ff" stroke="#63b8ff" points="663.17,-93.01 670.3,-85.17 659.84,-86.85 663.17,-93.01"/>
</g>
<!-- Node5 -->
<g id="node5" class="node">
<title>Node5</title>
<g id="a_node5"><a xlink:title=" ">
<polygon fill="#e0e0e0" stroke="#999999" points="785,-19 735,-19 735,0 785,0 785,-19"/>
<text text-anchor="middle" x="760" y="-7" font-family="Helvetica,sans-Serif" font-size="10.00">cstdint</text>
</a>
</g>
</g>
<!-- Node4&#45;&gt;Node5 -->
<g id="edge4" class="edge">
<title>Node4&#45;&gt;Node5</title>
<path fill="none" stroke="#63b8ff" d="M607.14,-54.99C643.4,-44.43 692.28,-30.21 724.9,-20.71"/>
<polygon fill="#63b8ff" stroke="#63b8ff" points="726.26,-23.96 734.89,-17.81 724.31,-17.24 726.26,-23.96"/>
</g>
<!-- Node6 -->
<g id="node6" class="node">
<title>Node6</title>
<g id="a_node6"><a xlink:title=" ">
<polygon fill="#e0e0e0" stroke="#999999" points="585.5,-19 532.5,-19 532.5,0 585.5,0 585.5,-19"/>
<text text-anchor="middle" x="559" y="-7" font-family="Helvetica,sans-Serif" font-size="10.00">cstddef</text>
</a>
</g>
</g>
<!-- Node4&#45;&gt;Node6 -->
<g id="edge5" class="edge">
<title>Node4&#45;&gt;Node6</title>
<path fill="none" stroke="#63b8ff" d="M559,-54.84C559,-47.21 559,-37.7 559,-29.45"/>
<polygon fill="#63b8ff" stroke="#63b8ff" points="562.5,-29.27 559,-19.27 555.5,-29.27 562.5,-29.27"/>
</g>
<!-- Node7&#45;&gt;Node4 -->
<g id="edge7" class="edge">
<title>Node7&#45;&gt;Node4</title>
<path fill="none" stroke="#63b8ff" d="M465.25,-186.86C472.98,-170.18 487.22,-142.06 504,-121 512.42,-110.43 523.15,-100.15 532.89,-91.68"/>
<polygon fill="#63b8ff" stroke="#63b8ff" points="535.39,-94.15 540.77,-85.03 530.87,-88.8 535.39,-94.15"/>
</g>
<!-- Node8 -->
<g id="node8" class="node">
<title>Node8</title>
<g id="a_node8"><a xlink:href="macros_8hpp.html" target="_top" xlink:title=" ">
<polygon fill="white" stroke="#666666" points="451.5,-151 334.5,-151 334.5,-121 451.5,-121 451.5,-151"/>
<text text-anchor="start" x="342.5" y="-139" font-family="Helvetica,sans-Serif" font-size="10.00">proxsuite/linalg/veg</text>
<text text-anchor="middle" x="393" y="-128" font-family="Helvetica,sans-Serif" font-size="10.00">/internal/macros.hpp</text>
</a>
</g>
</g>
<!-- Node7&#45;&gt;Node8 -->
<g id="edge8" class="edge">
<title>Node7&#45;&gt;Node8</title>
<path fill="none" stroke="#63b8ff" d="M444.35,-186.8C435.72,-178.43 424.64,-167.68 414.98,-158.31"/>
<polygon fill="#63b8ff" stroke="#63b8ff" points="417.22,-155.61 407.61,-151.16 412.35,-160.64 417.22,-155.61"/>
</g>
<!-- Node7&#45;&gt;Node11 -->
<g id="edge15" class="edge">
<title>Node7&#45;&gt;Node11</title>
<path fill="none" stroke="#63b8ff" d="M412.8,-186.97C386.38,-178.17 353.04,-165.71 325,-151 304.36,-140.17 303.31,-130.42 282,-121 268.35,-114.96 192.95,-98.39 134.19,-85.97"/>
<polygon fill="#63b8ff" stroke="#63b8ff" points="134.67,-82.49 124.17,-83.85 133.23,-89.34 134.67,-82.49"/>
</g>
<!-- Node7&#45;&gt;Node13 -->
<g id="edge16" class="edge">
<title>Node7&#45;&gt;Node13</title>
<path fill="none" stroke="#63b8ff" d="M477.99,-186.78C501.24,-169.76 542.19,-141.07 580,-121 603.1,-108.74 629.88,-97.4 652.36,-88.63"/>
<polygon fill="#63b8ff" stroke="#63b8ff" points="653.64,-91.89 661.71,-85.03 651.12,-85.35 653.64,-91.89"/>
</g>
<!-- Node8&#45;&gt;Node4 -->
<g id="edge10" class="edge">
<title>Node8&#45;&gt;Node4</title>
<path fill="none" stroke="#63b8ff" d="M429.43,-120.95C454.08,-111.45 486.83,-98.82 513.24,-88.64"/>
<polygon fill="#63b8ff" stroke="#63b8ff" points="514.58,-91.88 522.66,-85.01 512.07,-85.34 514.58,-91.88"/>
</g>
<!-- Node9 -->
<g id="node9" class="node">
<title>Node9</title>
<g id="a_node9"><a xlink:href="hedley_8ext_8hpp.html" target="_top" xlink:title=" ">
<polygon fill="white" stroke="#666666" points="478.5,-85 303.5,-85 303.5,-55 478.5,-55 478.5,-85"/>
<text text-anchor="start" x="311.5" y="-73" font-family="Helvetica,sans-Serif" font-size="10.00">proxsuite/linalg/veg</text>
<text text-anchor="middle" x="391" y="-62" font-family="Helvetica,sans-Serif" font-size="10.00">/internal/external/hedley.ext.hpp</text>
</a>
</g>
</g>
<!-- Node8&#45;&gt;Node9 -->
<g id="edge9" class="edge">
<title>Node8&#45;&gt;Node9</title>
<path fill="none" stroke="#63b8ff" d="M392.56,-120.8C392.32,-113.34 392.03,-103.99 391.76,-95.41"/>
<polygon fill="#63b8ff" stroke="#63b8ff" points="395.25,-95.05 391.44,-85.16 388.26,-95.27 395.25,-95.05"/>
</g>
<!-- Node10 -->
<g id="node10" class="node">
<title>Node10</title>
<g id="a_node10"><a xlink:href="preprocessor_8hpp.html" target="_top" xlink:title=" ">
<polygon fill="white" stroke="#666666" points="285.5,-85 142.5,-85 142.5,-55 285.5,-55 285.5,-85"/>
<text text-anchor="start" x="150.5" y="-73" font-family="Helvetica,sans-Serif" font-size="10.00">proxsuite/linalg/veg</text>
<text text-anchor="middle" x="214" y="-62" font-family="Helvetica,sans-Serif" font-size="10.00">/internal/preprocessor.hpp</text>
</a>
</g>
</g>
<!-- Node8&#45;&gt;Node10 -->
<g id="edge11" class="edge">
<title>Node8&#45;&gt;Node10</title>
<path fill="none" stroke="#63b8ff" d="M353.72,-120.95C327.02,-111.41 291.51,-98.71 262.97,-88.51"/>
<polygon fill="#63b8ff" stroke="#63b8ff" points="263.79,-85.08 253.19,-85.01 261.43,-91.67 263.79,-85.08"/>
</g>
<!-- Node8&#45;&gt;Node11 -->
<g id="edge12" class="edge">
<title>Node8&#45;&gt;Node11</title>
<path fill="none" stroke="#63b8ff" d="M334.24,-123.73C274.12,-112.2 183.69,-94.84 134.24,-85.23"/>
<polygon fill="#63b8ff" stroke="#63b8ff" points="134.82,-81.78 124.33,-83.31 133.48,-88.65 134.82,-81.78"/>
</g>
<!-- Node12 -->
<g id="node12" class="node">
<title>Node12</title>
<g id="a_node12"><a xlink:title=" ">
<polygon fill="#e0e0e0" stroke="#999999" points="863.5,-79.5 780.5,-79.5 780.5,-60.5 863.5,-60.5 863.5,-79.5"/>
<text text-anchor="middle" x="822" y="-67.5" font-family="Helvetica,sans-Serif" font-size="10.00">initializer_list</text>
</a>
</g>
</g>
<!-- Node8&#45;&gt;Node12 -->
<g id="edge13" class="edge">
<title>Node8&#45;&gt;Node12</title>
<path fill="none" stroke="#63b8ff" d="M451.69,-129.74C526.36,-122.48 659.08,-107.65 771,-85 775.15,-84.16 779.46,-83.17 783.74,-82.11"/>
<polygon fill="#63b8ff" stroke="#63b8ff" points="784.78,-85.45 793.57,-79.54 783.01,-78.68 784.78,-85.45"/>
</g>
<!-- Node8&#45;&gt;Node13 -->
<g id="edge14" class="edge">
<title>Node8&#45;&gt;Node13</title>
<path fill="none" stroke="#63b8ff" d="M451.66,-122.81C502.27,-112.3 575.52,-97.07 629.54,-85.85"/>
<polygon fill="#63b8ff" stroke="#63b8ff" points="630.32,-89.26 639.39,-83.8 628.89,-82.41 630.32,-89.26"/>
</g>
<!-- Node14&#45;&gt;Node3 -->
<g id="edge22" class="edge">
<title>Node14&#45;&gt;Node3</title>
<path fill="none" stroke="#63b8ff" d="M397.72,-318.95C418.15,-309.62 445.17,-297.27 467.23,-287.18"/>
<polygon fill="#63b8ff" stroke="#63b8ff" points="468.71,-290.35 476.35,-283.01 465.8,-283.99 468.71,-290.35"/>
</g>
<!-- Node14&#45;&gt;Node11 -->
<g id="edge23" class="edge">
<title>Node14&#45;&gt;Node11</title>
<path fill="none" stroke="#63b8ff" d="M287.46,-327.84C218.79,-321.69 126.7,-308.8 101,-283 74.97,-256.87 65.91,-145.31 63.11,-95.36"/>
<polygon fill="#63b8ff" stroke="#63b8ff" points="66.59,-94.95 62.58,-85.14 59.6,-95.31 66.59,-94.95"/>
</g>
<!-- Node14&#45;&gt;Node13 -->
<g id="edge25" class="edge">
<title>Node14&#45;&gt;Node13</title>
<path fill="none" stroke="#63b8ff" d="M446.65,-320.31C495.96,-311.22 553.63,-297.98 574,-283 608.35,-257.74 665.91,-143.92 689.94,-94.28"/>
<polygon fill="#63b8ff" stroke="#63b8ff" points="693.1,-95.78 694.28,-85.25 686.79,-92.74 693.1,-95.78"/>
</g>
<!-- Node15 -->
<g id="node15" class="node">
<title>Node15</title>
<g id="a_node15"><a xlink:title=" ">
<polygon fill="#e0e0e0" stroke="#999999" points="179.5,-277.5 110.5,-277.5 110.5,-258.5 179.5,-258.5 179.5,-277.5"/>
<text text-anchor="middle" x="145" y="-265.5" font-family="Helvetica,sans-Serif" font-size="10.00">type_traits</text>
</a>
</g>
</g>
<!-- Node14&#45;&gt;Node15 -->
<g id="edge24" class="edge">
<title>Node14&#45;&gt;Node15</title>
<path fill="none" stroke="#63b8ff" d="M318.28,-318.95C278.15,-307.38 221.95,-291.18 184.56,-280.41"/>
<polygon fill="#63b8ff" stroke="#63b8ff" points="185.12,-276.92 174.54,-277.52 183.18,-283.65 185.12,-276.92"/>
</g>
<!-- Node16&#45;&gt;Node3 -->
<g id="edge27" class="edge">
<title>Node16&#45;&gt;Node3</title>
<path fill="none" stroke="#63b8ff" d="M639.69,-318.95C614.45,-309.45 580.91,-296.82 553.86,-286.64"/>
<polygon fill="#63b8ff" stroke="#63b8ff" points="554.81,-283.26 544.22,-283.01 552.35,-289.81 554.81,-283.26"/>
</g>
<!-- Node16&#45;&gt;Node11 -->
<g id="edge31" class="edge">
<title>Node16&#45;&gt;Node11</title>
<path fill="none" stroke="#63b8ff" d="M663.45,-318.92C645,-300.66 610.14,-269.24 574,-253 494.41,-217.23 461.83,-249.87 381,-217 380.44,-216.77 237.55,-121.25 237,-121 204.38,-105.92 166.2,-94.37 133.85,-86.19"/>
<polygon fill="#63b8ff" stroke="#63b8ff" points="134.55,-82.76 124,-83.76 132.87,-89.55 134.55,-82.76"/>
</g>
<!-- Node16&#45;&gt;Node13 -->
<g id="edge33" class="edge">
<title>Node16&#45;&gt;Node13</title>
<path fill="none" stroke="#63b8ff" d="M679.25,-318.59C680.75,-308.61 682.68,-295.02 684,-283 691.46,-215.21 697,-134.88 699.51,-95.4"/>
<polygon fill="#63b8ff" stroke="#63b8ff" points="703.02,-95.37 700.15,-85.17 696.04,-94.93 703.02,-95.37"/>
</g>
<!-- Node17 -->
<g id="node17" class="node">
<title>Node17</title>
<g id="a_node17"><a xlink:href="std_8hpp.html" target="_top" xlink:title=" ">
<polygon fill="white" stroke="#666666" points="925.5,-151 812.5,-151 812.5,-121 925.5,-121 925.5,-151"/>
<text text-anchor="start" x="820.5" y="-139" font-family="Helvetica,sans-Serif" font-size="10.00">proxsuite/linalg/veg</text>
<text text-anchor="middle" x="869" y="-128" font-family="Helvetica,sans-Serif" font-size="10.00">/internal/std.hpp</text>
</a>
</g>
</g>
<!-- Node16&#45;&gt;Node17 -->
<g id="edge28" class="edge">
<title>Node16&#45;&gt;Node17</title>
<path fill="none" stroke="#63b8ff" d="M738.78,-318.92C761.18,-311.32 785.29,-299.9 803,-283 838.44,-249.18 856.35,-192.81 864.08,-160.91"/>
<polygon fill="#63b8ff" stroke="#63b8ff" points="867.51,-161.63 866.32,-151.1 860.68,-160.07 867.51,-161.63"/>
</g>
<!-- Node18 -->
<g id="node18" class="node">
<title>Node18</title>
<g id="a_node18"><a xlink:title=" ">
<polygon fill="#e0e0e0" stroke="#999999" points="794,-277.5 736,-277.5 736,-258.5 794,-258.5 794,-277.5"/>
<text text-anchor="middle" x="765" y="-265.5" font-family="Helvetica,sans-Serif" font-size="10.00">memory</text>
</a>
</g>
</g>
<!-- Node16&#45;&gt;Node18 -->
<g id="edge32" class="edge">
<title>Node16&#45;&gt;Node18</title>
<path fill="none" stroke="#63b8ff" d="M696.53,-318.8C710.87,-308.37 730.3,-294.24 744.79,-283.69"/>
<polygon fill="#63b8ff" stroke="#63b8ff" points="747.07,-286.37 753.09,-277.66 742.95,-280.71 747.07,-286.37"/>
</g>
<!-- Node17&#45;&gt;Node5 -->
<g id="edge29" class="edge">
<title>Node17&#45;&gt;Node5</title>
<path fill="none" stroke="#63b8ff" d="M874.46,-120.9C880.1,-103.75 886.38,-74.66 873,-55 855.71,-29.61 821.51,-18.71 795.25,-14.03"/>
<polygon fill="#63b8ff" stroke="#63b8ff" points="795.68,-10.55 785.26,-12.47 794.6,-17.47 795.68,-10.55"/>
</g>
<!-- Node17&#45;&gt;Node12 -->
<g id="edge30" class="edge">
<title>Node17&#45;&gt;Node12</title>
<path fill="none" stroke="#63b8ff" d="M858.57,-120.8C851.46,-111.11 842,-98.24 834.49,-88.01"/>
<polygon fill="#63b8ff" stroke="#63b8ff" points="837.24,-85.83 828.5,-79.84 831.59,-89.98 837.24,-85.83"/>
</g>
</g>
</svg>
