<?xml version="1.0" encoding="UTF-8" standalone="no"?>
<!DOCTYPE svg PUBLIC "-//W3C//DTD SVG 1.1//EN"
 "http://www.w3.org/Graphics/SVG/1.1/DTD/svg11.dtd">
<!-- Generated by graphviz version 8.1.0 (20230707.2238)
 -->
<!-- Title: include/proxsuite/linalg/sparse/rowmod.hpp Pages: 1 -->
<svg width="366pt" height="459pt"
 viewBox="0.00 0.00 365.75 458.50" xmlns="http://www.w3.org/2000/svg" xmlns:xlink="http://www.w3.org/1999/xlink">
<g id="graph0" class="graph" transform="scale(1 1) rotate(0) translate(4 454.5)">
<title>include/proxsuite/linalg/sparse/rowmod.hpp</title>
<!-- Node1 -->
<g id="Node000001" class="node">
<title>Node1</title>
<g id="a_Node000001"><a xlink:title=" ">
<polygon fill="#999999" stroke="#666666" points="210.38,-450.5 80.38,-450.5 80.38,-417 210.38,-417 210.38,-450.5"/>
<text text-anchor="start" x="88.38" y="-437" font-family="Helvetica,sans-Serif" font-size="10.00">include/proxsuite/linalg</text>
<text text-anchor="middle" x="145.38" y="-424.25" font-family="Helvetica,sans-Serif" font-size="10.00">/sparse/rowmod.hpp</text>
</a>
</g>
</g>
<!-- Node2 -->
<g id="Node000002" class="node">
<title>Node2</title>
<g id="a_Node000002"><a xlink:href="sparse_2solver_8hpp.html" target="_top" xlink:title=" ">
<polygon fill="white" stroke="#666666" points="213.75,-172.5 77,-172.5 77,-139 213.75,-139 213.75,-172.5"/>
<text text-anchor="start" x="85" y="-159" font-family="Helvetica,sans-Serif" font-size="10.00">include/proxsuite/proxqp</text>
<text text-anchor="middle" x="145.38" y="-146.25" font-family="Helvetica,sans-Serif" font-size="10.00">/sparse/solver.hpp</text>
</a>
</g>
</g>
<!-- Node1&#45;&gt;Node2 -->
<g id="edge1_Node000001_Node000002" class="edge">
<title>Node1&#45;&gt;Node2</title>
<g id="a_edge1_Node000001_Node000002"><a xlink:title=" ">
<path fill="none" stroke="#63b8ff" d="M70.02,-417.6C50.63,-409.93 31.99,-398.38 20.38,-381 -29.53,-306.33 76.57,-210.27 124.01,-172.76"/>
<polygon fill="#63b8ff" stroke="#63b8ff" points="68.59,-421.17 79.19,-421.27 70.97,-414.58 68.59,-421.17"/>
</a>
</g>
</g>
<!-- Node6 -->
<g id="Node000006" class="node">
<title>Node6</title>
<g id="a_Node000006"><a xlink:href="sparse_2utils_8hpp.html" target="_top" xlink:title=" ">
<polygon fill="white" stroke="#666666" points="357.75,-311.5 221,-311.5 221,-278 357.75,-278 357.75,-311.5"/>
<text text-anchor="start" x="229" y="-298" font-family="Helvetica,sans-Serif" font-size="10.00">include/proxsuite/proxqp</text>
<text text-anchor="middle" x="289.38" y="-285.25" font-family="Helvetica,sans-Serif" font-size="10.00">/sparse/utils.hpp</text>
</a>
</g>
</g>
<!-- Node1&#45;&gt;Node6 -->
<g id="edge5_Node000001_Node000006" class="edge">
<title>Node1&#45;&gt;Node6</title>
<g id="a_edge5_Node000001_Node000006"><a xlink:title=" ">
<path fill="none" stroke="#63b8ff" d="M174.47,-409.57C185.05,-400.86 196.96,-390.71 207.38,-381 232.01,-358.04 258.74,-329.51 274.76,-311.97"/>
<polygon fill="#63b8ff" stroke="#63b8ff" points="172.5,-407.48 166.96,-416.51 176.92,-412.91 172.5,-407.48"/>
</a>
</g>
</g>
<!-- Node7 -->
<g id="Node000007" class="node">
<title>Node7</title>
<g id="a_Node000007"><a xlink:href="sparse_2workspace_8hpp.html" target="_top" xlink:title=" ">
<polygon fill="white" stroke="#666666" points="261.75,-242 125,-242 125,-208.5 261.75,-208.5 261.75,-242"/>
<text text-anchor="start" x="133" y="-228.5" font-family="Helvetica,sans-Serif" font-size="10.00">include/proxsuite/proxqp</text>
<text text-anchor="middle" x="193.38" y="-215.75" font-family="Helvetica,sans-Serif" font-size="10.00">/sparse/workspace.hpp</text>
</a>
</g>
</g>
<!-- Node1&#45;&gt;Node7 -->
<g id="edge14_Node000001_Node000007" class="edge">
<title>Node1&#45;&gt;Node7</title>
<g id="a_edge14_Node000001_Node000007"><a xlink:title=" ">
<path fill="none" stroke="#63b8ff" d="M162.14,-407.44C166.81,-399.31 171.41,-390.05 174.38,-381 190.38,-332.12 193.09,-270.56 193.43,-242.06"/>
<polygon fill="#63b8ff" stroke="#63b8ff" points="158.7,-405.36 156.51,-415.73 164.68,-408.99 158.7,-405.36"/>
</a>
</g>
</g>
<!-- Node8 -->
<g id="Node000008" class="node">
<title>Node8</title>
<g id="a_Node000008"><a xlink:href="sparse_2views_8hpp.html" target="_top" xlink:title=" ">
<polygon fill="white" stroke="#666666" points="165.75,-381 29,-381 29,-347.5 165.75,-347.5 165.75,-381"/>
<text text-anchor="start" x="37" y="-367.5" font-family="Helvetica,sans-Serif" font-size="10.00">include/proxsuite/proxqp</text>
<text text-anchor="middle" x="97.38" y="-354.75" font-family="Helvetica,sans-Serif" font-size="10.00">/sparse/views.hpp</text>
</a>
</g>
</g>
<!-- Node1&#45;&gt;Node8 -->
<g id="edge10_Node000001_Node000008" class="edge">
<title>Node1&#45;&gt;Node8</title>
<g id="a_edge10_Node000001_Node000008"><a xlink:title=" ">
<path fill="none" stroke="#63b8ff" d="M127.69,-407.88C121.33,-398.94 114.33,-389.1 108.67,-381.13"/>
<polygon fill="#63b8ff" stroke="#63b8ff" points="125.35,-409.63 134,-415.75 131.06,-405.58 125.35,-409.63"/>
</a>
</g>
</g>
<!-- Node3 -->
<g id="Node000003" class="node">
<title>Node3</title>
<g id="a_Node000003"><a xlink:href="proxqp_2sparse_2wrapper_8hpp.html" target="_top" xlink:title=" ">
<polygon fill="white" stroke="#666666" points="213.75,-103 77,-103 77,-69.5 213.75,-69.5 213.75,-103"/>
<text text-anchor="start" x="85" y="-89.5" font-family="Helvetica,sans-Serif" font-size="10.00">include/proxsuite/proxqp</text>
<text text-anchor="middle" x="145.38" y="-76.75" font-family="Helvetica,sans-Serif" font-size="10.00">/sparse/wrapper.hpp</text>
</a>
</g>
</g>
<!-- Node2&#45;&gt;Node3 -->
<g id="edge2_Node000002_Node000003" class="edge">
<title>Node2&#45;&gt;Node3</title>
<g id="a_edge2_Node000002_Node000003"><a xlink:title=" ">
<path fill="none" stroke="#63b8ff" d="M145.38,-127.89C145.38,-119.5 145.38,-110.51 145.38,-103.13"/>
<polygon fill="#63b8ff" stroke="#63b8ff" points="141.88,-127.75 145.38,-137.75 148.88,-127.75 141.88,-127.75"/>
</a>
</g>
</g>
<!-- Node4 -->
<g id="Node000004" class="node">
<title>Node4</title>
<g id="a_Node000004"><a xlink:href="qp__solve_8hpp.html" target="_top" xlink:title=" ">
<polygon fill="white" stroke="#666666" points="136.75,-33.5 0,-33.5 0,0 136.75,0 136.75,-33.5"/>
<text text-anchor="start" x="8" y="-20" font-family="Helvetica,sans-Serif" font-size="10.00">include/proxsuite/proxqp</text>
<text text-anchor="middle" x="68.38" y="-7.25" font-family="Helvetica,sans-Serif" font-size="10.00">/parallel/qp_solve.hpp</text>
</a>
</g>
</g>
<!-- Node3&#45;&gt;Node4 -->
<g id="edge3_Node000003_Node000004" class="edge">
<title>Node3&#45;&gt;Node4</title>
<g id="a_edge3_Node000003_Node000004"><a xlink:title=" ">
<path fill="none" stroke="#63b8ff" d="M118.98,-62.11C108.37,-52.81 96.4,-42.31 86.76,-33.87"/>
<polygon fill="#63b8ff" stroke="#63b8ff" points="116.3,-65.29 126.13,-69.25 120.91,-60.03 116.3,-65.29"/>
</a>
</g>
</g>
<!-- Node5 -->
<g id="Node000005" class="node">
<title>Node5</title>
<g id="a_Node000005"><a xlink:href="sparse_8hpp.html" target="_top" xlink:title=" ">
<polygon fill="white" stroke="#666666" points="291.75,-33.5 155,-33.5 155,0 291.75,0 291.75,-33.5"/>
<text text-anchor="start" x="163" y="-20" font-family="Helvetica,sans-Serif" font-size="10.00">include/proxsuite/proxqp</text>
<text text-anchor="middle" x="223.38" y="-7.25" font-family="Helvetica,sans-Serif" font-size="10.00">/sparse/sparse.hpp</text>
</a>
</g>
</g>
<!-- Node3&#45;&gt;Node5 -->
<g id="edge4_Node000003_Node000005" class="edge">
<title>Node3&#45;&gt;Node5</title>
<g id="a_edge4_Node000003_Node000005"><a xlink:title=" ">
<path fill="none" stroke="#63b8ff" d="M172.11,-62.11C182.86,-52.81 194.99,-42.31 204.75,-33.87"/>
<polygon fill="#63b8ff" stroke="#63b8ff" points="170.13,-60.06 164.86,-69.25 174.71,-65.36 170.13,-60.06"/>
</a>
</g>
</g>
<!-- Node6&#45;&gt;Node2 -->
<g id="edge6_Node000006_Node000002" class="edge">
<title>Node6&#45;&gt;Node2</title>
<g id="a_edge6_Node000006_Node000002"><a xlink:title=" ">
<path fill="none" stroke="#63b8ff" d="M289.6,-266.83C288.39,-248.48 283.96,-224.67 270.38,-208.5 255.95,-191.33 234.89,-179.76 214.15,-172.02"/>
<polygon fill="#63b8ff" stroke="#63b8ff" points="286.13,-266.84 290,-276.7 293.13,-266.58 286.13,-266.84"/>
</a>
</g>
</g>
<!-- Node6&#45;&gt;Node7 -->
<g id="edge7_Node000006_Node000007" class="edge">
<title>Node6&#45;&gt;Node7</title>
<g id="a_edge7_Node000006_Node000007"><a xlink:title=" ">
<path fill="none" stroke="#63b8ff" d="M251.41,-271.54C237.19,-261.99 221.79,-251.03 210.34,-242.29"/>
<polygon fill="#63b8ff" stroke="#63b8ff" points="249.25,-274.98 259.52,-277.58 253.12,-269.14 249.25,-274.98"/>
</a>
</g>
</g>
<!-- Node7&#45;&gt;Node2 -->
<g id="edge8_Node000007_Node000002" class="edge">
<title>Node7&#45;&gt;Node2</title>
<g id="a_edge8_Node000007_Node000002"><a xlink:title=" ">
<path fill="none" stroke="#63b8ff" d="M175.69,-199.38C169.33,-190.44 162.33,-180.6 156.67,-172.63"/>
<polygon fill="#63b8ff" stroke="#63b8ff" points="173.35,-201.13 182,-207.25 179.06,-197.08 173.35,-201.13"/>
</a>
</g>
</g>
<!-- Node7&#45;&gt;Node6 -->
<g id="edge9_Node000007_Node000006" class="edge">
<title>Node7&#45;&gt;Node6</title>
<g id="a_edge9_Node000007_Node000006"><a xlink:title=" ">
<path fill="none" stroke="#63b8ff" d="M231.29,-248.42C245.54,-258 260.99,-268.99 272.46,-277.75"/>
<polygon fill="#63b8ff" stroke="#63b8ff" points="233.42,-244.97 223.15,-242.37 229.55,-250.81 233.42,-244.97"/>
</a>
</g>
</g>
<!-- Node8&#45;&gt;Node2 -->
<g id="edge11_Node000008_Node000002" class="edge">
<title>Node8&#45;&gt;Node2</title>
<g id="a_edge11_Node000008_Node000002"><a xlink:title=" ">
<path fill="none" stroke="#63b8ff" d="M97.54,-336.55C98.44,-305.16 102.18,-251.84 116.38,-208.5 120.54,-195.78 127.95,-182.63 134.24,-172.77"/>
<polygon fill="#63b8ff" stroke="#63b8ff" points="94.02,-336.37 97.32,-346.44 101.02,-336.52 94.02,-336.37"/>
</a>
</g>
</g>
<!-- Node8&#45;&gt;Node6 -->
<g id="edge12_Node000008_Node000006" class="edge">
<title>Node8&#45;&gt;Node6</title>
<g id="a_edge12_Node000008_Node000006"><a xlink:title=" ">
<path fill="none" stroke="#63b8ff" d="M153.61,-343.48C182.18,-333.44 216.46,-321.38 243.43,-311.9"/>
<polygon fill="#63b8ff" stroke="#63b8ff" points="152.64,-340.46 144.36,-347.08 154.96,-347.07 152.64,-340.46"/>
</a>
</g>
</g>
<!-- Node8&#45;&gt;Node7 -->
<g id="edge13_Node000008_Node000007" class="edge">
<title>Node8&#45;&gt;Node7</title>
<g id="a_edge13_Node000008_Node000007"><a xlink:title=" ">
<path fill="none" stroke="#63b8ff" d="M114.74,-338.47C134.34,-310.49 165.67,-265.79 182.25,-242.13"/>
<polygon fill="#63b8ff" stroke="#63b8ff" points="111.45,-336.07 108.58,-346.27 117.18,-340.09 111.45,-336.07"/>
</a>
</g>
</g>
</g>
</svg>
