<?xml version="1.0" encoding="UTF-8" standalone="no"?>
<!DOCTYPE svg PUBLIC "-//W3C//DTD SVG 1.1//EN"
 "http://www.w3.org/Graphics/SVG/1.1/DTD/svg11.dtd">
<!-- Generated by graphviz version 5.0.0 (20220707.2338)
 -->
<!-- Title: include/proxsuite/proxqp/sparse/fwd.hpp Pages: 1 -->
<svg width="1567pt" height="586pt"
 viewBox="0.00 0.00 1567.00 586.00" xmlns="http://www.w3.org/2000/svg" xmlns:xlink="http://www.w3.org/1999/xlink">
<g id="graph0" class="graph" transform="scale(1 1) rotate(0) translate(4 582)">
<title>include/proxsuite/proxqp/sparse/fwd.hpp</title>
<!-- Node1 -->
<g id="node1" class="node">
<title>Node1</title>
<g id="a_node1"><a xlink:title=" ">
<polygon fill="#bfbfbf" stroke="black" points="707,-547.5 707,-577.5 844,-577.5 844,-547.5 707,-547.5"/>
<text text-anchor="start" x="715" y="-565.5" font-family="Helvetica,sans-Serif" font-size="10.00">include/proxsuite/proxqp</text>
<text text-anchor="middle" x="775.5" y="-554.5" font-family="Helvetica,sans-Serif" font-size="10.00">/sparse/fwd.hpp</text>
</a>
</g>
</g>
<!-- Node2 -->
<g id="node2" class="node">
<title>Node2</title>
<g id="a_node2"><a xlink:href="results_8hpp.html" target="_top" xlink:title=" ">
<polygon fill="none" stroke="black" points="1036,-413.5 1036,-443.5 1173,-443.5 1173,-413.5 1036,-413.5"/>
<text text-anchor="start" x="1044" y="-431.5" font-family="Helvetica,sans-Serif" font-size="10.00">include/proxsuite/proxqp</text>
<text text-anchor="middle" x="1104.5" y="-420.5" font-family="Helvetica,sans-Serif" font-size="10.00">/results.hpp</text>
</a>
</g>
</g>
<!-- Node1&#45;&gt;Node2 -->
<g id="edge1" class="edge">
<title>Node1&#45;&gt;Node2</title>
<path fill="none" stroke="midnightblue" d="M854.6,-548.35C893.26,-540.33 939.88,-528.23 979.5,-511 1020.84,-493.02 1063.73,-461.83 1086.96,-443.7"/>
<polygon fill="midnightblue" stroke="midnightblue" points="853.55,-544.99 844.44,-550.4 854.93,-551.85 853.55,-544.99"/>
</g>
<!-- Node9 -->
<g id="node9" class="node">
<title>Node9</title>
<g id="a_node9"><a xlink:href="sparse_2solver_8hpp.html" target="_top" xlink:title=" ">
<polygon fill="none" stroke="black" points="475,-134.5 475,-164.5 612,-164.5 612,-134.5 475,-134.5"/>
<text text-anchor="start" x="483" y="-152.5" font-family="Helvetica,sans-Serif" font-size="10.00">include/proxsuite/proxqp</text>
<text text-anchor="middle" x="543.5" y="-141.5" font-family="Helvetica,sans-Serif" font-size="10.00">/sparse/solver.hpp</text>
</a>
</g>
</g>
<!-- Node1&#45;&gt;Node9 -->
<g id="edge48" class="edge">
<title>Node1&#45;&gt;Node9</title>
<path fill="none" stroke="midnightblue" d="M696.62,-560.78C531.69,-557.14 165.5,-536.96 165.5,-429.5 165.5,-429.5 165.5,-429.5 165.5,-282.5 165.5,-230.48 203.13,-224.57 249.5,-201 320.72,-164.81 412.85,-153.9 474.84,-150.94"/>
<polygon fill="midnightblue" stroke="midnightblue" points="696.64,-564.28 706.71,-560.99 696.79,-557.28 696.64,-564.28"/>
</g>
<!-- Node15 -->
<g id="node15" class="node">
<title>Node15</title>
<g id="a_node15"><a xlink:href="settings_8hpp.html" target="_top" xlink:title=" ">
<polygon fill="none" stroke="black" points="707,-413.5 707,-443.5 844,-443.5 844,-413.5 707,-413.5"/>
<text text-anchor="start" x="715" y="-431.5" font-family="Helvetica,sans-Serif" font-size="10.00">include/proxsuite/proxqp</text>
<text text-anchor="middle" x="775.5" y="-420.5" font-family="Helvetica,sans-Serif" font-size="10.00">/settings.hpp</text>
</a>
</g>
</g>
<!-- Node1&#45;&gt;Node15 -->
<g id="edge24" class="edge">
<title>Node1&#45;&gt;Node15</title>
<path fill="none" stroke="midnightblue" d="M775.5,-537.02C775.5,-509.51 775.5,-465.79 775.5,-443.52"/>
<polygon fill="midnightblue" stroke="midnightblue" points="772,-537.37 775.5,-547.37 779,-537.37 772,-537.37"/>
</g>
<!-- Node16 -->
<g id="node16" class="node">
<title>Node16</title>
<g id="a_node16"><a xlink:href="sparse_2helpers_8hpp.html" target="_top" xlink:title=" ">
<polygon fill="none" stroke="black" points="1422,-268.5 1422,-298.5 1559,-298.5 1559,-268.5 1422,-268.5"/>
<text text-anchor="start" x="1430" y="-286.5" font-family="Helvetica,sans-Serif" font-size="10.00">include/proxsuite/proxqp</text>
<text text-anchor="middle" x="1490.5" y="-275.5" font-family="Helvetica,sans-Serif" font-size="10.00">/sparse/helpers.hpp</text>
</a>
</g>
</g>
<!-- Node1&#45;&gt;Node16 -->
<g id="edge33" class="edge">
<title>Node1&#45;&gt;Node16</title>
<path fill="none" stroke="midnightblue" d="M854.24,-553.72C980.41,-538.1 1231.56,-493.78 1407.5,-377 1439.68,-355.64 1467.44,-318.93 1481.22,-298.77"/>
<polygon fill="midnightblue" stroke="midnightblue" points="853.77,-550.25 844.27,-554.93 854.61,-557.2 853.77,-550.25"/>
</g>
<!-- Node17 -->
<g id="node17" class="node">
<title>Node17</title>
<g id="a_node17"><a xlink:href="sparse_2model_8hpp.html" target="_top" xlink:title=" ">
<polygon fill="none" stroke="black" points="324,-480.5 324,-510.5 461,-510.5 461,-480.5 324,-480.5"/>
<text text-anchor="start" x="332" y="-498.5" font-family="Helvetica,sans-Serif" font-size="10.00">include/proxsuite/proxqp</text>
<text text-anchor="middle" x="392.5" y="-487.5" font-family="Helvetica,sans-Serif" font-size="10.00">/sparse/model.hpp</text>
</a>
</g>
</g>
<!-- Node1&#45;&gt;Node17 -->
<g id="edge35" class="edge">
<title>Node1&#45;&gt;Node17</title>
<path fill="none" stroke="midnightblue" d="M696.58,-548.11C627.22,-536.33 527.31,-519.38 461.18,-508.16"/>
<polygon fill="midnightblue" stroke="midnightblue" points="696.14,-551.58 706.58,-549.8 697.31,-544.68 696.14,-551.58"/>
</g>
<!-- Node20 -->
<g id="node20" class="node">
<title>Node20</title>
<g id="a_node20"><a xlink:href="sparse_2preconditioner_2ruiz_8hpp.html" target="_top" xlink:title=" ">
<polygon fill="none" stroke="black" points="0,-335.5 0,-376.5 137,-376.5 137,-335.5 0,-335.5"/>
<text text-anchor="start" x="8" y="-364.5" font-family="Helvetica,sans-Serif" font-size="10.00">include/proxsuite/proxqp</text>
<text text-anchor="start" x="8" y="-353.5" font-family="Helvetica,sans-Serif" font-size="10.00">/sparse/preconditioner</text>
<text text-anchor="middle" x="68.5" y="-342.5" font-family="Helvetica,sans-Serif" font-size="10.00">/ruiz.hpp</text>
</a>
</g>
</g>
<!-- Node1&#45;&gt;Node20 -->
<g id="edge45" class="edge">
<title>Node1&#45;&gt;Node20</title>
<path fill="none" stroke="midnightblue" d="M696.84,-559.3C539.28,-554.3 196.16,-540.17 151.5,-511 103.44,-479.61 81.1,-410.63 72.7,-376.67"/>
<polygon fill="midnightblue" stroke="midnightblue" points="696.84,-562.8 706.95,-559.62 697.06,-555.81 696.84,-562.8"/>
</g>
<!-- Node21 -->
<g id="node21" class="node">
<title>Node21</title>
<g id="a_node21"><a xlink:href="status_8hpp.html" target="_top" xlink:title=" ">
<polygon fill="none" stroke="black" points="833,-480.5 833,-510.5 970,-510.5 970,-480.5 833,-480.5"/>
<text text-anchor="start" x="841" y="-498.5" font-family="Helvetica,sans-Serif" font-size="10.00">include/proxsuite/proxqp</text>
<text text-anchor="middle" x="901.5" y="-487.5" font-family="Helvetica,sans-Serif" font-size="10.00">/status.hpp</text>
</a>
</g>
</g>
<!-- Node1&#45;&gt;Node21 -->
<g id="edge49" class="edge">
<title>Node1&#45;&gt;Node21</title>
<path fill="none" stroke="midnightblue" d="M811.92,-542.71C831.79,-532.46 855.98,-519.98 874.21,-510.58"/>
<polygon fill="midnightblue" stroke="midnightblue" points="810.12,-539.7 802.84,-547.4 813.33,-545.92 810.12,-539.7"/>
</g>
<!-- Node3 -->
<g id="node3" class="node">
<title>Node3</title>
<g id="a_node3"><a xlink:href="dense_2helpers_8hpp.html" target="_top" xlink:title=" ">
<polygon fill="none" stroke="black" points="1114,-341 1114,-371 1251,-371 1251,-341 1114,-341"/>
<text text-anchor="start" x="1122" y="-359" font-family="Helvetica,sans-Serif" font-size="10.00">include/proxsuite/proxqp</text>
<text text-anchor="middle" x="1182.5" y="-348" font-family="Helvetica,sans-Serif" font-size="10.00">/dense/helpers.hpp</text>
</a>
</g>
</g>
<!-- Node2&#45;&gt;Node3 -->
<g id="edge2" class="edge">
<title>Node2&#45;&gt;Node3</title>
<path fill="none" stroke="midnightblue" d="M1127.77,-406.46C1140.45,-395 1155.8,-381.14 1167.01,-371"/>
<polygon fill="midnightblue" stroke="midnightblue" points="1125.36,-403.93 1120.28,-413.23 1130.05,-409.12 1125.36,-403.93"/>
</g>
<!-- Node7 -->
<g id="node7" class="node">
<title>Node7</title>
<g id="a_node7"><a xlink:href="linesearch_8hpp.html" target="_top" xlink:title=" ">
<polygon fill="none" stroke="black" points="804,-341 804,-371 941,-371 941,-341 804,-341"/>
<text text-anchor="start" x="812" y="-359" font-family="Helvetica,sans-Serif" font-size="10.00">include/proxsuite/proxqp</text>
<text text-anchor="middle" x="872.5" y="-348" font-family="Helvetica,sans-Serif" font-size="10.00">/dense/linesearch.hpp</text>
</a>
</g>
</g>
<!-- Node2&#45;&gt;Node7 -->
<g id="edge7" class="edge">
<title>Node2&#45;&gt;Node7</title>
<path fill="none" stroke="midnightblue" d="M1048.6,-410.51C1008.92,-398.46 956.28,-382.46 918.92,-371.11"/>
<polygon fill="midnightblue" stroke="midnightblue" points="1047.8,-413.93 1058.39,-413.49 1049.84,-407.23 1047.8,-413.93"/>
</g>
<!-- Node8 -->
<g id="node8" class="node">
<title>Node8</title>
<g id="a_node8"><a xlink:href="dense_2utils_8hpp.html" target="_top" xlink:title=" ">
<polygon fill="none" stroke="black" points="959,-341 959,-371 1096,-371 1096,-341 959,-341"/>
<text text-anchor="start" x="967" y="-359" font-family="Helvetica,sans-Serif" font-size="10.00">include/proxsuite/proxqp</text>
<text text-anchor="middle" x="1027.5" y="-348" font-family="Helvetica,sans-Serif" font-size="10.00">/dense/utils.hpp</text>
</a>
</g>
</g>
<!-- Node2&#45;&gt;Node8 -->
<g id="edge9" class="edge">
<title>Node2&#45;&gt;Node8</title>
<path fill="none" stroke="midnightblue" d="M1081.52,-406.46C1069.01,-395 1053.86,-381.14 1042.8,-371"/>
<polygon fill="midnightblue" stroke="midnightblue" points="1079.18,-409.06 1088.92,-413.23 1083.91,-403.9 1079.18,-409.06"/>
</g>
<!-- Node2&#45;&gt;Node9 -->
<g id="edge11" class="edge">
<title>Node2&#45;&gt;Node9</title>
<path fill="none" stroke="midnightblue" d="M1183.1,-416.54C1229.33,-408.31 1281.42,-395.29 1295.5,-377 1341.62,-317.1 1281.9,-239.74 1221.5,-201 1171.08,-168.66 774.3,-155.85 612.16,-151.94"/>
<polygon fill="midnightblue" stroke="midnightblue" points="1182.29,-413.13 1173.03,-418.28 1183.48,-420.03 1182.29,-413.13"/>
</g>
<!-- Node10 -->
<g id="node10" class="node">
<title>Node10</title>
<g id="a_node10"><a xlink:href="sparse_2wrapper_8hpp.html" target="_top" xlink:title=" ">
<polygon fill="none" stroke="black" points="1016,-67.5 1016,-97.5 1153,-97.5 1153,-67.5 1016,-67.5"/>
<text text-anchor="start" x="1024" y="-85.5" font-family="Helvetica,sans-Serif" font-size="10.00">include/proxsuite/proxqp</text>
<text text-anchor="middle" x="1084.5" y="-74.5" font-family="Helvetica,sans-Serif" font-size="10.00">/sparse/wrapper.hpp</text>
</a>
</g>
</g>
<!-- Node2&#45;&gt;Node10 -->
<g id="edge23" class="edge">
<title>Node2&#45;&gt;Node10</title>
<path fill="none" stroke="midnightblue" d="M1183.33,-421.78C1268.9,-410.78 1393.5,-378.6 1393.5,-284.5 1393.5,-284.5 1393.5,-284.5 1393.5,-215.5 1393.5,-111.66 1244.11,-88.41 1153.08,-83.88"/>
<polygon fill="midnightblue" stroke="midnightblue" points="1182.86,-418.31 1173.36,-422.99 1183.7,-425.26 1182.86,-418.31"/>
</g>
<!-- Node12 -->
<g id="node12" class="node">
<title>Node12</title>
<g id="a_node12"><a xlink:href="sparse_2utils_8hpp.html" target="_top" xlink:title=" ">
<polygon fill="none" stroke="black" points="378,-268.5 378,-298.5 515,-298.5 515,-268.5 378,-268.5"/>
<text text-anchor="start" x="386" y="-286.5" font-family="Helvetica,sans-Serif" font-size="10.00">include/proxsuite/proxqp</text>
<text text-anchor="middle" x="446.5" y="-275.5" font-family="Helvetica,sans-Serif" font-size="10.00">/sparse/utils.hpp</text>
</a>
</g>
</g>
<!-- Node2&#45;&gt;Node12 -->
<g id="edge14" class="edge">
<title>Node2&#45;&gt;Node12</title>
<path fill="none" stroke="midnightblue" d="M1183.02,-421.19C1212.19,-414.58 1242.52,-401.72 1260.5,-377 1271.48,-361.9 1273.28,-348.6 1260.5,-335 1235.12,-308 706.76,-291.38 515.14,-286.23"/>
<polygon fill="midnightblue" stroke="midnightblue" points="1182.29,-417.77 1173.19,-423.2 1183.69,-424.63 1182.29,-417.77"/>
</g>
<!-- Node13 -->
<g id="node13" class="node">
<title>Node13</title>
<g id="a_node13"><a xlink:href="sparse_2workspace_8hpp.html" target="_top" xlink:title=" ">
<polygon fill="none" stroke="black" points="475,-201.5 475,-231.5 612,-231.5 612,-201.5 475,-201.5"/>
<text text-anchor="start" x="483" y="-219.5" font-family="Helvetica,sans-Serif" font-size="10.00">include/proxsuite/proxqp</text>
<text text-anchor="middle" x="543.5" y="-208.5" font-family="Helvetica,sans-Serif" font-size="10.00">/sparse/workspace.hpp</text>
</a>
</g>
</g>
<!-- Node2&#45;&gt;Node13 -->
<g id="edge22" class="edge">
<title>Node2&#45;&gt;Node13</title>
<path fill="none" stroke="midnightblue" d="M1182.92,-414.22C1223.26,-405.62 1266.46,-393.03 1278.5,-377 1289.71,-362.07 1287.09,-351.57 1278.5,-335 1254.72,-289.13 1232.1,-285.55 1183.5,-268 1079.98,-230.62 755.27,-220.86 612.27,-218.35"/>
<polygon fill="midnightblue" stroke="midnightblue" points="1182.1,-410.81 1173.02,-416.26 1183.52,-417.67 1182.1,-410.81"/>
</g>
<!-- Node14 -->
<g id="node14" class="node">
<title>Node14</title>
<g id="a_node14"><a xlink:href="sparse_2views_8hpp.html" target="_top" xlink:title=" ">
<polygon fill="none" stroke="black" points="572,-341 572,-371 709,-371 709,-341 572,-341"/>
<text text-anchor="start" x="580" y="-359" font-family="Helvetica,sans-Serif" font-size="10.00">include/proxsuite/proxqp</text>
<text text-anchor="middle" x="640.5" y="-348" font-family="Helvetica,sans-Serif" font-size="10.00">/sparse/views.hpp</text>
</a>
</g>
</g>
<!-- Node2&#45;&gt;Node14 -->
<g id="edge18" class="edge">
<title>Node2&#45;&gt;Node14</title>
<path fill="none" stroke="midnightblue" d="M1025.76,-415.54C936.87,-402.03 793.68,-380.27 709.17,-367.43"/>
<polygon fill="midnightblue" stroke="midnightblue" points="1025.37,-419.02 1035.79,-417.06 1026.42,-412.1 1025.37,-419.02"/>
</g>
<!-- Node4 -->
<g id="node4" class="node">
<title>Node4</title>
<g id="a_node4"><a xlink:href="dense_2solver_8hpp.html" target="_top" xlink:title=" ">
<polygon fill="none" stroke="black" points="1037,-268.5 1037,-298.5 1174,-298.5 1174,-268.5 1037,-268.5"/>
<text text-anchor="start" x="1045" y="-286.5" font-family="Helvetica,sans-Serif" font-size="10.00">include/proxsuite/proxqp</text>
<text text-anchor="middle" x="1105.5" y="-275.5" font-family="Helvetica,sans-Serif" font-size="10.00">/dense/solver.hpp</text>
</a>
</g>
</g>
<!-- Node3&#45;&gt;Node4 -->
<g id="edge3" class="edge">
<title>Node3&#45;&gt;Node4</title>
<path fill="none" stroke="midnightblue" d="M1159.52,-333.96C1147.01,-322.5 1131.86,-308.64 1120.8,-298.5"/>
<polygon fill="midnightblue" stroke="midnightblue" points="1157.18,-336.56 1166.92,-340.73 1161.91,-331.4 1157.18,-336.56"/>
</g>
<!-- Node5 -->
<g id="node5" class="node">
<title>Node5</title>
<g id="a_node5"><a xlink:href="dense_2wrapper_8hpp.html" target="_top" xlink:title=" ">
<polygon fill="none" stroke="black" points="1075,-201.5 1075,-231.5 1212,-231.5 1212,-201.5 1075,-201.5"/>
<text text-anchor="start" x="1083" y="-219.5" font-family="Helvetica,sans-Serif" font-size="10.00">include/proxsuite/proxqp</text>
<text text-anchor="middle" x="1143.5" y="-208.5" font-family="Helvetica,sans-Serif" font-size="10.00">/dense/wrapper.hpp</text>
</a>
</g>
</g>
<!-- Node3&#45;&gt;Node5 -->
<g id="edge6" class="edge">
<title>Node3&#45;&gt;Node5</title>
<path fill="none" stroke="midnightblue" d="M1187.06,-331.08C1189.45,-313.19 1190.61,-288.42 1183.5,-268 1178.65,-254.06 1168.16,-241.07 1159.15,-231.75"/>
<polygon fill="midnightblue" stroke="midnightblue" points="1183.6,-330.55 1185.51,-340.97 1190.51,-331.63 1183.6,-330.55"/>
</g>
<!-- Node4&#45;&gt;Node5 -->
<g id="edge4" class="edge">
<title>Node4&#45;&gt;Node5</title>
<path fill="none" stroke="midnightblue" d="M1118.9,-259.58C1124.36,-250.24 1130.49,-239.75 1135.27,-231.58"/>
<polygon fill="midnightblue" stroke="midnightblue" points="1115.77,-258 1113.75,-268.4 1121.81,-261.53 1115.77,-258"/>
</g>
<!-- Node6 -->
<g id="node6" class="node">
<title>Node6</title>
<g id="a_node6"><a xlink:href="dense_8hpp.html" target="_top" xlink:title=" ">
<polygon fill="none" stroke="black" points="1075,-134.5 1075,-164.5 1212,-164.5 1212,-134.5 1075,-134.5"/>
<text text-anchor="start" x="1083" y="-152.5" font-family="Helvetica,sans-Serif" font-size="10.00">include/proxsuite/proxqp</text>
<text text-anchor="middle" x="1143.5" y="-141.5" font-family="Helvetica,sans-Serif" font-size="10.00">/dense/dense.hpp</text>
</a>
</g>
</g>
<!-- Node5&#45;&gt;Node6 -->
<g id="edge5" class="edge">
<title>Node5&#45;&gt;Node6</title>
<path fill="none" stroke="midnightblue" d="M1143.5,-191.11C1143.5,-182.15 1143.5,-172.32 1143.5,-164.58"/>
<polygon fill="midnightblue" stroke="midnightblue" points="1140,-191.4 1143.5,-201.4 1147,-191.4 1140,-191.4"/>
</g>
<!-- Node7&#45;&gt;Node4 -->
<g id="edge8" class="edge">
<title>Node7&#45;&gt;Node4</title>
<path fill="none" stroke="midnightblue" d="M928.39,-338.09C968.27,-326.02 1021.27,-309.98 1058.88,-298.61"/>
<polygon fill="midnightblue" stroke="midnightblue" points="927.37,-334.74 918.81,-340.99 929.4,-341.44 927.37,-334.74"/>
</g>
<!-- Node8&#45;&gt;Node4 -->
<g id="edge10" class="edge">
<title>Node8&#45;&gt;Node4</title>
<path fill="none" stroke="midnightblue" d="M1050.77,-333.96C1063.45,-322.5 1078.8,-308.64 1090.01,-298.5"/>
<polygon fill="midnightblue" stroke="midnightblue" points="1048.36,-331.43 1043.28,-340.73 1053.05,-336.62 1048.36,-331.43"/>
</g>
<!-- Node9&#45;&gt;Node10 -->
<g id="edge12" class="edge">
<title>Node9&#45;&gt;Node10</title>
<path fill="none" stroke="midnightblue" d="M622.01,-139.07C727.95,-126.34 914.98,-103.87 1015.69,-91.77"/>
<polygon fill="midnightblue" stroke="midnightblue" points="621.53,-135.6 612.02,-140.27 622.36,-142.55 621.53,-135.6"/>
</g>
<!-- Node11 -->
<g id="node11" class="node">
<title>Node11</title>
<g id="a_node11"><a xlink:href="sparse_8hpp.html" target="_top" xlink:title=" ">
<polygon fill="none" stroke="black" points="1016,-0.5 1016,-30.5 1153,-30.5 1153,-0.5 1016,-0.5"/>
<text text-anchor="start" x="1024" y="-18.5" font-family="Helvetica,sans-Serif" font-size="10.00">include/proxsuite/proxqp</text>
<text text-anchor="middle" x="1084.5" y="-7.5" font-family="Helvetica,sans-Serif" font-size="10.00">/sparse/sparse.hpp</text>
</a>
</g>
</g>
<!-- Node10&#45;&gt;Node11 -->
<g id="edge13" class="edge">
<title>Node10&#45;&gt;Node11</title>
<path fill="none" stroke="midnightblue" d="M1084.5,-57.11C1084.5,-48.15 1084.5,-38.32 1084.5,-30.58"/>
<polygon fill="midnightblue" stroke="midnightblue" points="1081,-57.4 1084.5,-67.4 1088,-57.4 1081,-57.4"/>
</g>
<!-- Node12&#45;&gt;Node9 -->
<g id="edge15" class="edge">
<title>Node12&#45;&gt;Node9</title>
<path fill="none" stroke="midnightblue" d="M447.45,-257.82C449.2,-240.54 453.78,-217.67 465.5,-201 476.63,-185.16 494.47,-173.08 510.27,-164.7"/>
<polygon fill="midnightblue" stroke="midnightblue" points="443.93,-258 446.67,-268.23 450.91,-258.53 443.93,-258"/>
</g>
<!-- Node12&#45;&gt;Node13 -->
<g id="edge16" class="edge">
<title>Node12&#45;&gt;Node13</title>
<path fill="none" stroke="midnightblue" d="M476,-262.73C491.01,-252.68 508.9,-240.68 522.49,-231.58"/>
<polygon fill="midnightblue" stroke="midnightblue" points="473.91,-259.92 467.55,-268.4 477.8,-265.74 473.91,-259.92"/>
</g>
<!-- Node13&#45;&gt;Node9 -->
<g id="edge17" class="edge">
<title>Node13&#45;&gt;Node9</title>
<path fill="none" stroke="midnightblue" d="M543.5,-191.11C543.5,-182.15 543.5,-172.32 543.5,-164.58"/>
<polygon fill="midnightblue" stroke="midnightblue" points="540,-191.4 543.5,-201.4 547,-191.4 540,-191.4"/>
</g>
<!-- Node14&#45;&gt;Node9 -->
<g id="edge19" class="edge">
<title>Node14&#45;&gt;Node9</title>
<path fill="none" stroke="midnightblue" d="M643.27,-330.69C645.7,-298.48 645.6,-241.06 620.5,-201 610.4,-184.88 593.05,-172.83 577.38,-164.56"/>
<polygon fill="midnightblue" stroke="midnightblue" points="639.76,-330.69 642.34,-340.97 646.73,-331.32 639.76,-330.69"/>
</g>
<!-- Node14&#45;&gt;Node12 -->
<g id="edge20" class="edge">
<title>Node14&#45;&gt;Node12</title>
<path fill="none" stroke="midnightblue" d="M592.25,-337.46C559.22,-325.46 516,-309.76 485.23,-298.57"/>
<polygon fill="midnightblue" stroke="midnightblue" points="591.11,-340.78 601.71,-340.9 593.5,-334.2 591.11,-340.78"/>
</g>
<!-- Node14&#45;&gt;Node13 -->
<g id="edge21" class="edge">
<title>Node14&#45;&gt;Node13</title>
<path fill="none" stroke="midnightblue" d="M624.48,-332.29C604.36,-303.76 570.44,-255.69 553.61,-231.83"/>
<polygon fill="midnightblue" stroke="midnightblue" points="621.86,-334.65 630.48,-340.8 627.58,-330.61 621.86,-334.65"/>
</g>
<!-- Node15&#45;&gt;Node3 -->
<g id="edge25" class="edge">
<title>Node15&#45;&gt;Node3</title>
<path fill="none" stroke="midnightblue" d="M854.2,-417.76C921.31,-408.91 1020.19,-394.56 1105.5,-377 1113.89,-375.27 1122.73,-373.21 1131.31,-371.07"/>
<polygon fill="midnightblue" stroke="midnightblue" points="853.58,-414.31 844.12,-419.08 854.49,-421.25 853.58,-414.31"/>
</g>
<!-- Node15&#45;&gt;Node7 -->
<g id="edge26" class="edge">
<title>Node15&#45;&gt;Node7</title>
<path fill="none" stroke="midnightblue" d="M803.55,-407.11C819.49,-395.53 839.03,-381.33 853.23,-371"/>
<polygon fill="midnightblue" stroke="midnightblue" points="801.16,-404.52 795.13,-413.23 805.28,-410.19 801.16,-404.52"/>
</g>
<!-- Node15&#45;&gt;Node8 -->
<g id="edge27" class="edge">
<title>Node15&#45;&gt;Node8</title>
<path fill="none" stroke="midnightblue" d="M835.4,-410.74C878.59,-398.66 936.23,-382.53 977.08,-371.11"/>
<polygon fill="midnightblue" stroke="midnightblue" points="834.28,-407.42 825.59,-413.49 836.16,-414.16 834.28,-407.42"/>
</g>
<!-- Node15&#45;&gt;Node9 -->
<g id="edge28" class="edge">
<title>Node15&#45;&gt;Node9</title>
<path fill="none" stroke="midnightblue" d="M766.79,-404.07C749.22,-359.49 705.64,-261.5 641.5,-201 624.65,-185.11 601.84,-172.96 582.46,-164.56"/>
<polygon fill="midnightblue" stroke="midnightblue" points="763.56,-405.41 770.43,-413.47 770.09,-402.89 763.56,-405.41"/>
</g>
<!-- Node15&#45;&gt;Node10 -->
<g id="edge32" class="edge">
<title>Node15&#45;&gt;Node10</title>
<path fill="none" stroke="midnightblue" d="M775.5,-403.07C775.5,-374.61 775.5,-326.14 775.5,-284.5 775.5,-284.5 775.5,-284.5 775.5,-215.5 775.5,-111.66 924.89,-88.41 1015.92,-83.88"/>
<polygon fill="midnightblue" stroke="midnightblue" points="772,-403.29 775.5,-413.29 779,-403.29 772,-403.29"/>
</g>
<!-- Node15&#45;&gt;Node12 -->
<g id="edge29" class="edge">
<title>Node15&#45;&gt;Node12</title>
<path fill="none" stroke="midnightblue" d="M696.82,-413.89C630.49,-402 544.09,-385.37 529.5,-377 512,-366.96 475.78,-322.23 457.53,-298.85"/>
<polygon fill="midnightblue" stroke="midnightblue" points="696.4,-417.37 706.86,-415.68 697.63,-410.48 696.4,-417.37"/>
</g>
<!-- Node15&#45;&gt;Node13 -->
<g id="edge31" class="edge">
<title>Node15&#45;&gt;Node13</title>
<path fill="none" stroke="midnightblue" d="M696.69,-413.32C639.92,-402.37 571.75,-387.37 562.5,-377 525.56,-335.58 534.57,-262.18 540.41,-231.54"/>
<polygon fill="midnightblue" stroke="midnightblue" points="696.3,-416.81 706.77,-415.25 697.61,-409.94 696.3,-416.81"/>
</g>
<!-- Node15&#45;&gt;Node14 -->
<g id="edge30" class="edge">
<title>Node15&#45;&gt;Node14</title>
<path fill="none" stroke="midnightblue" d="M739.53,-408.72C716.88,-396.89 688.13,-381.87 667.45,-371.07"/>
<polygon fill="midnightblue" stroke="midnightblue" points="738.02,-411.88 748.51,-413.4 741.26,-405.67 738.02,-411.88"/>
</g>
<!-- Node16&#45;&gt;Node10 -->
<g id="edge34" class="edge">
<title>Node16&#45;&gt;Node10</title>
<path fill="none" stroke="midnightblue" d="M1484.21,-258.29C1474.09,-224.55 1450.81,-164.15 1407.5,-134 1367.44,-106.11 1235.4,-92.9 1153.07,-87.24"/>
<polygon fill="midnightblue" stroke="midnightblue" points="1480.94,-259.57 1487.04,-268.23 1487.67,-257.65 1480.94,-259.57"/>
</g>
<!-- Node17&#45;&gt;Node9 -->
<g id="edge40" class="edge">
<title>Node17&#45;&gt;Node9</title>
<path fill="none" stroke="midnightblue" d="M329.14,-477.15C274.22,-457.8 203.5,-420.54 203.5,-357 203.5,-357 203.5,-357 203.5,-282.5 203.5,-224.88 375.35,-182.47 474.7,-162.77"/>
<polygon fill="midnightblue" stroke="midnightblue" points="328.25,-480.54 338.85,-480.44 330.5,-473.91 328.25,-480.54"/>
</g>
<!-- Node17&#45;&gt;Node12 -->
<g id="edge41" class="edge">
<title>Node17&#45;&gt;Node12</title>
<path fill="none" stroke="midnightblue" d="M364.49,-473.78C325.85,-442.65 264.6,-382.39 298.5,-335 316.67,-309.61 348.38,-296.84 377.8,-290.47"/>
<polygon fill="midnightblue" stroke="midnightblue" points="362.8,-476.9 372.82,-480.33 367.12,-471.4 362.8,-476.9"/>
</g>
<!-- Node17&#45;&gt;Node13 -->
<g id="edge43" class="edge">
<title>Node17&#45;&gt;Node13</title>
<path fill="none" stroke="midnightblue" d="M343.92,-475.8C329.08,-467.98 313.94,-457.5 303.5,-444 273.45,-405.17 264.33,-379.3 285.5,-335 319.24,-264.39 410.6,-236.17 474.98,-224.91"/>
<polygon fill="midnightblue" stroke="midnightblue" points="342.56,-479.03 353.08,-480.33 345.67,-472.76 342.56,-479.03"/>
</g>
<!-- Node17&#45;&gt;Node14 -->
<g id="edge42" class="edge">
<title>Node17&#45;&gt;Node14</title>
<path fill="none" stroke="midnightblue" d="M421.03,-474.59C446.33,-457.32 484.58,-432.17 519.5,-413 548.31,-397.18 582.39,-381.68 607.03,-371.02"/>
<polygon fill="midnightblue" stroke="midnightblue" points="418.91,-471.8 412.65,-480.34 422.87,-477.57 418.91,-471.8"/>
</g>
<!-- Node18 -->
<g id="node18" class="node">
<title>Node18</title>
<g id="a_node18"><a xlink:href="dense_2model_8hpp.html" target="_top" xlink:title=" ">
<polygon fill="none" stroke="black" points="529,-413.5 529,-443.5 666,-443.5 666,-413.5 529,-413.5"/>
<text text-anchor="start" x="537" y="-431.5" font-family="Helvetica,sans-Serif" font-size="10.00">include/proxsuite/proxqp</text>
<text text-anchor="middle" x="597.5" y="-420.5" font-family="Helvetica,sans-Serif" font-size="10.00">/dense/model.hpp</text>
</a>
</g>
</g>
<!-- Node17&#45;&gt;Node18 -->
<g id="edge36" class="edge">
<title>Node17&#45;&gt;Node18</title>
<path fill="none" stroke="midnightblue" d="M446.29,-477.44C479.52,-466.91 521.65,-453.55 553,-443.61"/>
<polygon fill="midnightblue" stroke="midnightblue" points="445.2,-474.12 436.73,-480.48 447.32,-480.79 445.2,-474.12"/>
</g>
<!-- Node19 -->
<g id="node19" class="node">
<title>Node19</title>
<g id="a_node19"><a xlink:href="random__qp__problems_8hpp.html" target="_top" xlink:title=" ">
<polygon fill="none" stroke="black" points="307.5,-341 307.5,-371 477.5,-371 477.5,-341 307.5,-341"/>
<text text-anchor="start" x="315.5" y="-359" font-family="Helvetica,sans-Serif" font-size="10.00">include/proxsuite/proxqp</text>
<text text-anchor="middle" x="392.5" y="-348" font-family="Helvetica,sans-Serif" font-size="10.00">/utils/random_qp_problems.hpp</text>
</a>
</g>
</g>
<!-- Node17&#45;&gt;Node19 -->
<g id="edge44" class="edge">
<title>Node17&#45;&gt;Node19</title>
<path fill="none" stroke="midnightblue" d="M392.5,-470.29C392.5,-441.61 392.5,-394.78 392.5,-371.33"/>
<polygon fill="midnightblue" stroke="midnightblue" points="389,-470.3 392.5,-480.3 396,-470.3 389,-470.3"/>
</g>
<!-- Node18&#45;&gt;Node7 -->
<g id="edge37" class="edge">
<title>Node18&#45;&gt;Node7</title>
<path fill="none" stroke="midnightblue" d="M661.98,-410.97C709.21,-398.86 772.62,-382.6 817.47,-371.11"/>
<polygon fill="midnightblue" stroke="midnightblue" points="660.98,-407.61 652.16,-413.49 662.72,-414.39 660.98,-407.61"/>
</g>
<!-- Node18&#45;&gt;Node8 -->
<g id="edge38" class="edge">
<title>Node18&#45;&gt;Node8</title>
<path fill="none" stroke="midnightblue" d="M675.99,-416.1C683.26,-415.05 690.52,-414 697.5,-413 809.92,-396.85 839.14,-399.31 950.5,-377 959.03,-375.29 968.03,-373.21 976.74,-371.05"/>
<polygon fill="midnightblue" stroke="midnightblue" points="675.48,-412.64 666.08,-417.53 676.48,-419.56 675.48,-412.64"/>
</g>
<!-- Node18&#45;&gt;Node19 -->
<g id="edge39" class="edge">
<title>Node18&#45;&gt;Node19</title>
<path fill="none" stroke="midnightblue" d="M546.96,-410.12C512,-398.1 466.08,-382.31 433.42,-371.07"/>
<polygon fill="midnightblue" stroke="midnightblue" points="545.91,-413.46 556.51,-413.4 548.19,-406.84 545.91,-413.46"/>
</g>
<!-- Node20&#45;&gt;Node9 -->
<g id="edge46" class="edge">
<title>Node20&#45;&gt;Node9</title>
<path fill="none" stroke="midnightblue" d="M75.62,-325.43C85.9,-289.64 108.56,-230.52 151.5,-201 202.53,-165.92 376.48,-155.2 474.64,-151.93"/>
<polygon fill="midnightblue" stroke="midnightblue" points="72.18,-324.72 72.93,-335.29 78.94,-326.56 72.18,-324.72"/>
</g>
<!-- Node20&#45;&gt;Node12 -->
<g id="edge47" class="edge">
<title>Node20&#45;&gt;Node12</title>
<path fill="none" stroke="midnightblue" d="M147.64,-340.24C215.7,-327.55 312.9,-309.42 377.76,-297.32"/>
<polygon fill="midnightblue" stroke="midnightblue" points="146.58,-336.88 137.39,-342.15 147.86,-343.76 146.58,-336.88"/>
</g>
<!-- Node21&#45;&gt;Node2 -->
<g id="edge51" class="edge">
<title>Node21&#45;&gt;Node2</title>
<path fill="none" stroke="midnightblue" d="M955.44,-477.23C988.28,-466.71 1029.7,-453.45 1060.54,-443.58"/>
<polygon fill="midnightblue" stroke="midnightblue" points="954,-474.01 945.55,-480.4 956.14,-480.68 954,-474.01"/>
</g>
<!-- Node21&#45;&gt;Node3 -->
<g id="edge50" class="edge">
<title>Node21&#45;&gt;Node3</title>
<path fill="none" stroke="midnightblue" d="M928.52,-474.44C953.33,-456.65 991.59,-430.81 1027.5,-413 1062.23,-395.77 1103.62,-381.09 1134.89,-371.09"/>
<polygon fill="midnightblue" stroke="midnightblue" points="926.38,-471.67 920.33,-480.37 930.48,-477.34 926.38,-471.67"/>
</g>
<!-- Node21&#45;&gt;Node15 -->
<g id="edge52" class="edge">
<title>Node21&#45;&gt;Node15</title>
<path fill="none" stroke="midnightblue" d="M865.08,-475.71C845.21,-465.46 821.02,-452.98 802.79,-443.58"/>
<polygon fill="midnightblue" stroke="midnightblue" points="863.67,-478.92 874.16,-480.4 866.88,-472.7 863.67,-478.92"/>
</g>
</g>
</svg>
