<?xml version="1.0" encoding="UTF-8" standalone="no"?>
<!DOCTYPE svg PUBLIC "-//W3C//DTD SVG 1.1//EN"
 "http://www.w3.org/Graphics/SVG/1.1/DTD/svg11.dtd">
<!-- Generated by graphviz version 8.1.0 (20230707.2238)
 -->
<!-- Title: include/proxsuite/linalg/sparse/core.hpp Pages: 1 -->
<svg width="1363pt" height="598pt"
 viewBox="0.00 0.00 1363.38 597.50" xmlns="http://www.w3.org/2000/svg" xmlns:xlink="http://www.w3.org/1999/xlink">
<g id="graph0" class="graph" transform="scale(1 1) rotate(0) translate(4 593.5)">
<title>include/proxsuite/linalg/sparse/core.hpp</title>
<!-- Node1 -->
<g id="Node000001" class="node">
<title>Node1</title>
<g id="a_Node000001"><a xlink:title=" ">
<polygon fill="#999999" stroke="#666666" points="441,-589.5 311,-589.5 311,-556 441,-556 441,-589.5"/>
<text text-anchor="start" x="319" y="-576" font-family="Helvetica,sans-Serif" font-size="10.00">include/proxsuite/linalg</text>
<text text-anchor="middle" x="376" y="-563.25" font-family="Helvetica,sans-Serif" font-size="10.00">/sparse/core.hpp</text>
</a>
</g>
</g>
<!-- Node2 -->
<g id="Node000002" class="node">
<title>Node2</title>
<g id="a_Node000002"><a xlink:href="sparse_2factorize_8hpp.html" target="_top" xlink:title=" ">
<polygon fill="white" stroke="#666666" points="534,-450.5 404,-450.5 404,-417 534,-417 534,-450.5"/>
<text text-anchor="start" x="412" y="-437" font-family="Helvetica,sans-Serif" font-size="10.00">include/proxsuite/linalg</text>
<text text-anchor="middle" x="469" y="-424.25" font-family="Helvetica,sans-Serif" font-size="10.00">/sparse/factorize.hpp</text>
</a>
</g>
</g>
<!-- Node1&#45;&gt;Node2 -->
<g id="edge1_Node000001_Node000002" class="edge">
<title>Node1&#45;&gt;Node2</title>
<g id="a_edge1_Node000001_Node000002"><a xlink:title=" ">
<path fill="none" stroke="#63b8ff" d="M392.82,-546.97C411.81,-518.99 442.16,-474.29 458.22,-450.63"/>
<polygon fill="#63b8ff" stroke="#63b8ff" points="389.57,-544.53 386.85,-554.77 395.36,-548.46 389.57,-544.53"/>
</a>
</g>
</g>
<!-- Node3 -->
<g id="Node000003" class="node">
<title>Node3</title>
<g id="a_Node000003"><a xlink:href="sparse_2solver_8hpp.html" target="_top" xlink:title=" ">
<polygon fill="white" stroke="#666666" points="465.38,-172.5 328.62,-172.5 328.62,-139 465.38,-139 465.38,-172.5"/>
<text text-anchor="start" x="336.62" y="-159" font-family="Helvetica,sans-Serif" font-size="10.00">include/proxsuite/proxqp</text>
<text text-anchor="middle" x="397" y="-146.25" font-family="Helvetica,sans-Serif" font-size="10.00">/sparse/solver.hpp</text>
</a>
</g>
</g>
<!-- Node1&#45;&gt;Node3 -->
<g id="edge43_Node000001_Node000003" class="edge">
<title>Node1&#45;&gt;Node3</title>
<g id="a_edge43_Node000001_Node000003"><a xlink:title=" ">
<path fill="none" stroke="#63b8ff" d="M299.8,-559.86C189.92,-540.52 0,-497.95 0,-434.75 0,-434.75 0,-434.75 0,-293.75 0,-238.65 40.7,-233.09 90,-208.5 165.7,-170.75 263.57,-159.81 328.22,-157.02"/>
<polygon fill="#63b8ff" stroke="#63b8ff" points="299.05,-563.45 309.51,-561.71 300.25,-556.55 299.05,-563.45"/>
</a>
</g>
</g>
<!-- Node7 -->
<g id="Node000007" class="node">
<title>Node7</title>
<g id="a_Node000007"><a xlink:href="sparse_2utils_8hpp.html" target="_top" xlink:title=" ">
<polygon fill="white" stroke="#666666" points="430.38,-311.5 293.62,-311.5 293.62,-278 430.38,-278 430.38,-311.5"/>
<text text-anchor="start" x="301.62" y="-298" font-family="Helvetica,sans-Serif" font-size="10.00">include/proxsuite/proxqp</text>
<text text-anchor="middle" x="362" y="-285.25" font-family="Helvetica,sans-Serif" font-size="10.00">/sparse/utils.hpp</text>
</a>
</g>
</g>
<!-- Node1&#45;&gt;Node7 -->
<g id="edge44_Node000001_Node000007" class="edge">
<title>Node1&#45;&gt;Node7</title>
<g id="a_edge44_Node000001_Node000007"><a xlink:title=" ">
<path fill="none" stroke="#63b8ff" d="M374.63,-544.77C371.75,-487.94 365.13,-357.42 362.82,-311.83"/>
<polygon fill="#63b8ff" stroke="#63b8ff" points="371.18,-544.91 375.19,-554.72 378.18,-544.55 371.18,-544.91"/>
</a>
</g>
</g>
<!-- Node8 -->
<g id="Node000008" class="node">
<title>Node8</title>
<g id="a_Node000008"><a xlink:href="sparse_2workspace_8hpp.html" target="_top" xlink:title=" ">
<polygon fill="white" stroke="#666666" points="369.38,-242 232.62,-242 232.62,-208.5 369.38,-208.5 369.38,-242"/>
<text text-anchor="start" x="240.62" y="-228.5" font-family="Helvetica,sans-Serif" font-size="10.00">include/proxsuite/proxqp</text>
<text text-anchor="middle" x="301" y="-215.75" font-family="Helvetica,sans-Serif" font-size="10.00">/sparse/workspace.hpp</text>
</a>
</g>
</g>
<!-- Node1&#45;&gt;Node8 -->
<g id="edge46_Node000001_Node000008" class="edge">
<title>Node1&#45;&gt;Node8</title>
<g id="a_edge46_Node000001_Node000008"><a xlink:title=" ">
<path fill="none" stroke="#63b8ff" d="M300.05,-565.93C258.79,-559.65 208.66,-546.7 171,-520 140.78,-498.58 135.68,-485.97 125,-450.5 101.11,-371.11 132.72,-331.57 196,-278 213.76,-262.96 236.64,-251.03 256.5,-242.42"/>
<polygon fill="#63b8ff" stroke="#63b8ff" points="299.5,-569.52 309.89,-567.45 300.47,-562.59 299.5,-569.52"/>
</a>
</g>
</g>
<!-- Node9 -->
<g id="Node000009" class="node">
<title>Node9</title>
<g id="a_Node000009"><a xlink:href="sparse_2views_8hpp.html" target="_top" xlink:title=" ">
<polygon fill="white" stroke="#666666" points="544.38,-381 407.62,-381 407.62,-347.5 544.38,-347.5 544.38,-381"/>
<text text-anchor="start" x="415.62" y="-367.5" font-family="Helvetica,sans-Serif" font-size="10.00">include/proxsuite/proxqp</text>
<text text-anchor="middle" x="476" y="-354.75" font-family="Helvetica,sans-Serif" font-size="10.00">/sparse/views.hpp</text>
</a>
</g>
</g>
<!-- Node1&#45;&gt;Node9 -->
<g id="edge45_Node000001_Node000009" class="edge">
<title>Node1&#45;&gt;Node9</title>
<g id="a_edge45_Node000001_Node000009"><a xlink:title=" ">
<path fill="none" stroke="#63b8ff" d="M426.15,-550.97C465.92,-531.49 518.7,-498.17 543,-450.5 549.76,-437.23 549.56,-430.36 543,-417 535.61,-401.96 521.52,-390.05 508.16,-381.47"/>
<polygon fill="#63b8ff" stroke="#63b8ff" points="424.88,-548.18 417.35,-555.63 427.89,-554.5 424.88,-548.18"/>
</a>
</g>
</g>
<!-- Node10 -->
<g id="Node000010" class="node">
<title>Node10</title>
<g id="a_Node000010"><a xlink:href="sparse_2update_8hpp.html" target="_top" xlink:title=" ">
<polygon fill="white" stroke="#666666" points="310,-520 180,-520 180,-486.5 310,-486.5 310,-520"/>
<text text-anchor="start" x="188" y="-506.5" font-family="Helvetica,sans-Serif" font-size="10.00">include/proxsuite/linalg</text>
<text text-anchor="middle" x="245" y="-493.75" font-family="Helvetica,sans-Serif" font-size="10.00">/sparse/update.hpp</text>
</a>
</g>
</g>
<!-- Node1&#45;&gt;Node10 -->
<g id="edge16_Node000001_Node000010" class="edge">
<title>Node1&#45;&gt;Node10</title>
<g id="a_edge16_Node000001_Node000010"><a xlink:title=" ">
<path fill="none" stroke="#63b8ff" d="M335.01,-550.63C315.99,-540.83 293.74,-529.36 276.12,-520.29"/>
<polygon fill="#63b8ff" stroke="#63b8ff" points="333.13,-554.11 343.62,-555.58 336.34,-547.89 333.13,-554.11"/>
</a>
</g>
</g>
<!-- Node12 -->
<g id="Node000012" class="node">
<title>Node12</title>
<g id="a_Node000012"><a xlink:href="proxqp_2sparse_2model_8hpp.html" target="_top" xlink:title=" ">
<polygon fill="white" stroke="#666666" points="726.38,-450.5 589.62,-450.5 589.62,-417 726.38,-417 726.38,-450.5"/>
<text text-anchor="start" x="597.62" y="-437" font-family="Helvetica,sans-Serif" font-size="10.00">include/proxsuite/proxqp</text>
<text text-anchor="middle" x="658" y="-424.25" font-family="Helvetica,sans-Serif" font-size="10.00">/sparse/model.hpp</text>
</a>
</g>
</g>
<!-- Node1&#45;&gt;Node12 -->
<g id="edge26_Node000001_Node000012" class="edge">
<title>Node1&#45;&gt;Node12</title>
<g id="a_edge26_Node000001_Node000012"><a xlink:title=" ">
<path fill="none" stroke="#63b8ff" d="M451.95,-562.21C491.01,-554.88 538.22,-542.09 576,-520 606.32,-502.28 632.72,-470.19 646.91,-450.84"/>
<polygon fill="#63b8ff" stroke="#63b8ff" points="451.39,-558.94 442.16,-564.14 452.62,-565.83 451.39,-558.94"/>
</a>
</g>
</g>
<!-- Node2&#45;&gt;Node3 -->
<g id="edge2_Node000002_Node000003" class="edge">
<title>Node2&#45;&gt;Node3</title>
<g id="a_edge2_Node000002_Node000003"><a xlink:title=" ">
<path fill="none" stroke="#63b8ff" d="M522.1,-411.2C534.4,-403.56 545.95,-393.63 553,-381 560.26,-368 557.53,-361.68 553,-347.5 528.25,-270.08 454.31,-202.51 417.82,-172.81"/>
<polygon fill="#63b8ff" stroke="#63b8ff" points="520.57,-408.61 513.6,-416.6 524.03,-414.7 520.57,-408.61"/>
</a>
</g>
</g>
<!-- Node2&#45;&gt;Node7 -->
<g id="edge6_Node000002_Node000007" class="edge">
<title>Node2&#45;&gt;Node7</title>
<g id="a_edge6_Node000002_Node000007"><a xlink:title=" ">
<path fill="none" stroke="#63b8ff" d="M431.54,-410.55C420,-402.36 407.98,-392.29 399,-381 382.23,-359.91 371.59,-330.06 366.23,-311.85"/>
<polygon fill="#63b8ff" stroke="#63b8ff" points="429.38,-413.99 439.63,-416.7 433.31,-408.19 429.38,-413.99"/>
</a>
</g>
</g>
<!-- Node2&#45;&gt;Node8 -->
<g id="edge15_Node000002_Node000008" class="edge">
<title>Node2&#45;&gt;Node8</title>
<g id="a_edge15_Node000002_Node000008"><a xlink:title=" ">
<path fill="none" stroke="#63b8ff" d="M409.61,-412.46C365.74,-393.87 309.57,-361.51 285,-311.5 274.04,-289.2 283.86,-260.23 292.22,-242.45"/>
<polygon fill="#63b8ff" stroke="#63b8ff" points="408.03,-416.01 418.61,-416.56 410.68,-409.53 408.03,-416.01"/>
</a>
</g>
</g>
<!-- Node2&#45;&gt;Node9 -->
<g id="edge11_Node000002_Node000009" class="edge">
<title>Node2&#45;&gt;Node9</title>
<g id="a_edge11_Node000002_Node000009"><a xlink:title=" ">
<path fill="none" stroke="#63b8ff" d="M471.79,-405.89C472.66,-397.5 473.59,-388.51 474.35,-381.13"/>
<polygon fill="#63b8ff" stroke="#63b8ff" points="468.21,-405.45 470.66,-415.75 475.17,-406.17 468.21,-405.45"/>
</a>
</g>
</g>
<!-- Node4 -->
<g id="Node000004" class="node">
<title>Node4</title>
<g id="a_Node000004"><a xlink:href="proxqp_2sparse_2wrapper_8hpp.html" target="_top" xlink:title=" ">
<polygon fill="white" stroke="#666666" points="679.38,-103 542.62,-103 542.62,-69.5 679.38,-69.5 679.38,-103"/>
<text text-anchor="start" x="550.62" y="-89.5" font-family="Helvetica,sans-Serif" font-size="10.00">include/proxsuite/proxqp</text>
<text text-anchor="middle" x="611" y="-76.75" font-family="Helvetica,sans-Serif" font-size="10.00">/sparse/wrapper.hpp</text>
</a>
</g>
</g>
<!-- Node3&#45;&gt;Node4 -->
<g id="edge3_Node000003_Node000004" class="edge">
<title>Node3&#45;&gt;Node4</title>
<g id="a_edge3_Node000003_Node000004"><a xlink:title=" ">
<path fill="none" stroke="#63b8ff" d="M458.42,-135.38C490.52,-125.25 529.34,-113.01 559.79,-103.4"/>
<polygon fill="#63b8ff" stroke="#63b8ff" points="457.74,-132.24 449.26,-138.58 459.85,-138.91 457.74,-132.24"/>
</a>
</g>
</g>
<!-- Node5 -->
<g id="Node000005" class="node">
<title>Node5</title>
<g id="a_Node000005"><a xlink:href="qp__solve_8hpp.html" target="_top" xlink:title=" ">
<polygon fill="white" stroke="#666666" points="973.38,-33.5 836.62,-33.5 836.62,0 973.38,0 973.38,-33.5"/>
<text text-anchor="start" x="844.62" y="-20" font-family="Helvetica,sans-Serif" font-size="10.00">include/proxsuite/proxqp</text>
<text text-anchor="middle" x="905" y="-7.25" font-family="Helvetica,sans-Serif" font-size="10.00">/parallel/qp_solve.hpp</text>
</a>
</g>
</g>
<!-- Node4&#45;&gt;Node5 -->
<g id="edge4_Node000004_Node000005" class="edge">
<title>Node4&#45;&gt;Node5</title>
<g id="a_edge4_Node000004_Node000005"><a xlink:title=" ">
<path fill="none" stroke="#63b8ff" d="M690.01,-67.11C735.67,-56.63 792.55,-43.57 836.33,-33.52"/>
<polygon fill="#63b8ff" stroke="#63b8ff" points="689.52,-63.86 680.56,-69.51 691.09,-70.68 689.52,-63.86"/>
</a>
</g>
</g>
<!-- Node6 -->
<g id="Node000006" class="node">
<title>Node6</title>
<g id="a_Node000006"><a xlink:href="sparse_8hpp.html" target="_top" xlink:title=" ">
<polygon fill="white" stroke="#666666" points="679.38,-33.5 542.62,-33.5 542.62,0 679.38,0 679.38,-33.5"/>
<text text-anchor="start" x="550.62" y="-20" font-family="Helvetica,sans-Serif" font-size="10.00">include/proxsuite/proxqp</text>
<text text-anchor="middle" x="611" y="-7.25" font-family="Helvetica,sans-Serif" font-size="10.00">/sparse/sparse.hpp</text>
</a>
</g>
</g>
<!-- Node4&#45;&gt;Node6 -->
<g id="edge5_Node000004_Node000006" class="edge">
<title>Node4&#45;&gt;Node6</title>
<g id="a_edge5_Node000004_Node000006"><a xlink:title=" ">
<path fill="none" stroke="#63b8ff" d="M611,-58.39C611,-50 611,-41.01 611,-33.63"/>
<polygon fill="#63b8ff" stroke="#63b8ff" points="607.5,-58.25 611,-68.25 614.5,-58.25 607.5,-58.25"/>
</a>
</g>
</g>
<!-- Node7&#45;&gt;Node3 -->
<g id="edge7_Node000007_Node000003" class="edge">
<title>Node7&#45;&gt;Node3</title>
<g id="a_edge7_Node000007_Node000003"><a xlink:title=" ">
<path fill="none" stroke="#63b8ff" d="M370.66,-267.21C373.16,-259.15 375.81,-250.25 378,-242 384.34,-218.11 390.31,-190.08 393.81,-172.87"/>
<polygon fill="#63b8ff" stroke="#63b8ff" points="367.07,-265.94 367.38,-276.53 373.74,-268.06 367.07,-265.94"/>
</a>
</g>
</g>
<!-- Node7&#45;&gt;Node8 -->
<g id="edge8_Node000007_Node000008" class="edge">
<title>Node7&#45;&gt;Node8</title>
<g id="a_edge8_Node000007_Node000008"><a xlink:title=" ">
<path fill="none" stroke="#63b8ff" d="M334.06,-270C325.2,-260.77 316.08,-250.44 309.53,-242.13"/>
<polygon fill="#63b8ff" stroke="#63b8ff" points="331.19,-272.09 340.7,-276.75 336.17,-267.18 331.19,-272.09"/>
</a>
</g>
</g>
<!-- Node8&#45;&gt;Node3 -->
<g id="edge9_Node000008_Node000003" class="edge">
<title>Node8&#45;&gt;Node3</title>
<g id="a_edge9_Node000008_Node000003"><a xlink:title=" ">
<path fill="none" stroke="#63b8ff" d="M332.73,-201.94C346.24,-192.44 361.71,-181.56 374.08,-172.87"/>
<polygon fill="#63b8ff" stroke="#63b8ff" points="330.92,-199.64 324.75,-208.25 334.94,-205.36 330.92,-199.64"/>
</a>
</g>
</g>
<!-- Node8&#45;&gt;Node7 -->
<g id="edge10_Node000008_Node000007" class="edge">
<title>Node8&#45;&gt;Node7</title>
<g id="a_edge10_Node000008_Node000007"><a xlink:title=" ">
<path fill="none" stroke="#63b8ff" d="M328.82,-249.87C337.68,-259.1 346.8,-269.43 353.38,-277.75"/>
<polygon fill="#63b8ff" stroke="#63b8ff" points="331.7,-247.79 322.18,-243.13 326.71,-252.71 331.7,-247.79"/>
</a>
</g>
</g>
<!-- Node9&#45;&gt;Node3 -->
<g id="edge12_Node000009_Node000003" class="edge">
<title>Node9&#45;&gt;Node3</title>
<g id="a_edge12_Node000009_Node000003"><a xlink:title=" ">
<path fill="none" stroke="#63b8ff" d="M474.72,-336.28C473.3,-319.21 470.31,-296.89 464,-278 450.51,-237.62 423.65,-195.12 408.35,-172.73"/>
<polygon fill="#63b8ff" stroke="#63b8ff" points="471.29,-336.41 475.47,-346.14 478.27,-335.92 471.29,-336.41"/>
</a>
</g>
</g>
<!-- Node9&#45;&gt;Node7 -->
<g id="edge13_Node000009_Node000007" class="edge">
<title>Node9&#45;&gt;Node7</title>
<g id="a_edge13_Node000009_Node000007"><a xlink:title=" ">
<path fill="none" stroke="#63b8ff" d="M439.41,-341.59C423.06,-331.91 404.13,-320.7 389.08,-311.79"/>
<polygon fill="#63b8ff" stroke="#63b8ff" points="437.31,-345 447.69,-347.08 440.87,-338.98 437.31,-345"/>
</a>
</g>
</g>
<!-- Node9&#45;&gt;Node8 -->
<g id="edge14_Node000009_Node000008" class="edge">
<title>Node9&#45;&gt;Node8</title>
<g id="a_edge14_Node000009_Node000008"><a xlink:title=" ">
<path fill="none" stroke="#63b8ff" d="M470.34,-336.76C465.1,-318.1 455.54,-293.72 439,-278 419.99,-259.93 394.08,-248.03 369.84,-240.27"/>
<polygon fill="#63b8ff" stroke="#63b8ff" points="467.15,-337.42 473.01,-346.25 473.94,-335.69 467.15,-337.42"/>
</a>
</g>
</g>
<!-- Node10&#45;&gt;Node3 -->
<g id="edge22_Node000010_Node000003" class="edge">
<title>Node10&#45;&gt;Node3</title>
<g id="a_edge22_Node000010_Node000003"><a xlink:title=" ">
<path fill="none" stroke="#63b8ff" d="M177.41,-481.96C158.99,-474.19 140,-463.88 125,-450.5 92.38,-421.42 76,-408.95 76,-365.25 76,-365.25 76,-365.25 76,-293.75 76,-184.99 233.82,-161.39 328.14,-157"/>
<polygon fill="#63b8ff" stroke="#63b8ff" points="175.98,-485.56 186.56,-486.02 178.58,-479.06 175.98,-485.56"/>
</a>
</g>
</g>
<!-- Node10&#45;&gt;Node7 -->
<g id="edge23_Node000010_Node000007" class="edge">
<title>Node10&#45;&gt;Node7</title>
<g id="a_edge23_Node000010_Node000007"><a xlink:title=" ">
<path fill="none" stroke="#63b8ff" d="M263.53,-477.55C269.45,-469.17 275.8,-459.62 281,-450.5 305.91,-406.78 303.67,-391.55 328,-347.5 334.86,-335.08 343.69,-321.71 350.63,-311.67"/>
<polygon fill="#63b8ff" stroke="#63b8ff" points="260.14,-475.27 257.12,-485.42 265.81,-479.36 260.14,-475.27"/>
</a>
</g>
</g>
<!-- Node10&#45;&gt;Node8 -->
<g id="edge25_Node000010_Node000008" class="edge">
<title>Node10&#45;&gt;Node8</title>
<g id="a_edge25_Node000010_Node000008"><a xlink:title=" ">
<path fill="none" stroke="#63b8ff" d="M169.93,-481.9C155.31,-474.42 141.8,-464.27 133,-450.5 124.98,-437.96 128.4,-431.16 133,-417 158.78,-337.68 238.06,-271.51 277.8,-242.31"/>
<polygon fill="#63b8ff" stroke="#63b8ff" points="168.11,-485.38 178.66,-486.44 171.07,-479.04 168.11,-485.38"/>
</a>
</g>
</g>
<!-- Node10&#45;&gt;Node9 -->
<g id="edge24_Node000010_Node000009" class="edge">
<title>Node10&#45;&gt;Node9</title>
<g id="a_edge24_Node000010_Node000009"><a xlink:title=" ">
<path fill="none" stroke="#63b8ff" d="M281.35,-480.69C327.84,-453.12 407.31,-405.99 448.86,-381.34"/>
<polygon fill="#63b8ff" stroke="#63b8ff" points="279.77,-478.15 272.95,-486.27 283.34,-484.18 279.77,-478.15"/>
</a>
</g>
</g>
<!-- Node11 -->
<g id="Node000011" class="node">
<title>Node11</title>
<g id="a_Node000011"><a xlink:href="rowmod_8hpp.html" target="_top" xlink:title=" ">
<polygon fill="white" stroke="#666666" points="272,-450.5 142,-450.5 142,-417 272,-417 272,-450.5"/>
<text text-anchor="start" x="150" y="-437" font-family="Helvetica,sans-Serif" font-size="10.00">include/proxsuite/linalg</text>
<text text-anchor="middle" x="207" y="-424.25" font-family="Helvetica,sans-Serif" font-size="10.00">/sparse/rowmod.hpp</text>
</a>
</g>
</g>
<!-- Node10&#45;&gt;Node11 -->
<g id="edge17_Node000010_Node000011" class="edge">
<title>Node10&#45;&gt;Node11</title>
<g id="a_edge17_Node000010_Node000011"><a xlink:title=" ">
<path fill="none" stroke="#63b8ff" d="M230.68,-476.81C225.73,-468.02 220.33,-458.43 215.94,-450.63"/>
<polygon fill="#63b8ff" stroke="#63b8ff" points="228.04,-478.26 235.99,-485.25 234.14,-474.82 228.04,-478.26"/>
</a>
</g>
</g>
<!-- Node11&#45;&gt;Node3 -->
<g id="edge18_Node000011_Node000003" class="edge">
<title>Node11&#45;&gt;Node3</title>
<g id="a_edge18_Node000011_Node000003"><a xlink:title=" ">
<path fill="none" stroke="#63b8ff" d="M200.28,-406.16C190.4,-360.3 177.74,-265.76 224,-208.5 249.02,-177.53 291.79,-164.55 328.55,-159.34"/>
<polygon fill="#63b8ff" stroke="#63b8ff" points="197.05,-406.75 202.7,-415.72 203.88,-405.19 197.05,-406.75"/>
</a>
</g>
</g>
<!-- Node11&#45;&gt;Node7 -->
<g id="edge19_Node000011_Node000007" class="edge">
<title>Node11&#45;&gt;Node7</title>
<g id="a_edge19_Node000011_Node000007"><a xlink:title=" ">
<path fill="none" stroke="#63b8ff" d="M228.57,-408.4C244.73,-390.71 267.81,-366.61 290,-347.5 304.93,-334.64 322.93,-321.7 337.2,-311.98"/>
<polygon fill="#63b8ff" stroke="#63b8ff" points="226.33,-405.76 222.22,-415.52 231.52,-410.46 226.33,-405.76"/>
</a>
</g>
</g>
<!-- Node11&#45;&gt;Node8 -->
<g id="edge21_Node000011_Node000008" class="edge">
<title>Node11&#45;&gt;Node8</title>
<g id="a_edge21_Node000011_Node000008"><a xlink:title=" ">
<path fill="none" stroke="#63b8ff" d="M210.8,-406.12C216.25,-374.04 228.33,-319.29 252,-278 259.75,-264.48 271.74,-251.73 281.92,-242.27"/>
<polygon fill="#63b8ff" stroke="#63b8ff" points="207.21,-405.43 209.09,-415.85 214.12,-406.53 207.21,-405.43"/>
</a>
</g>
</g>
<!-- Node11&#45;&gt;Node9 -->
<g id="edge20_Node000011_Node000009" class="edge">
<title>Node11&#45;&gt;Node9</title>
<g id="a_edge20_Node000011_Node000009"><a xlink:title=" ">
<path fill="none" stroke="#63b8ff" d="M281.86,-413.97C322.65,-403.73 372.6,-391.2 411.63,-381.4"/>
<polygon fill="#63b8ff" stroke="#63b8ff" points="281.28,-410.75 272.43,-416.58 282.98,-417.54 281.28,-410.75"/>
</a>
</g>
</g>
<!-- Node12&#45;&gt;Node3 -->
<g id="edge38_Node000012_Node000003" class="edge">
<title>Node12&#45;&gt;Node3</title>
<g id="a_edge38_Node000012_Node000003"><a xlink:title=" ">
<path fill="none" stroke="#63b8ff" d="M648.95,-406.44C642.3,-388.95 632.31,-365.91 620,-347.5 572.64,-276.68 555.09,-261.01 488,-208.5 470.4,-194.72 448.7,-182.24 430.91,-172.98"/>
<polygon fill="#63b8ff" stroke="#63b8ff" points="645.91,-407.33 652.64,-415.52 652.49,-404.92 645.91,-407.33"/>
</a>
</g>
</g>
<!-- Node12&#45;&gt;Node7 -->
<g id="edge39_Node000012_Node000007" class="edge">
<title>Node12&#45;&gt;Node7</title>
<g id="a_edge39_Node000012_Node000007"><a xlink:title=" ">
<path fill="none" stroke="#63b8ff" d="M634.79,-409.04C614.77,-389.86 584.23,-363.49 553,-347.5 514.78,-327.93 468.34,-315.13 430.83,-307.16"/>
<polygon fill="#63b8ff" stroke="#63b8ff" points="631.84,-411.03 641.44,-415.51 636.73,-406.02 631.84,-411.03"/>
</a>
</g>
</g>
<!-- Node12&#45;&gt;Node8 -->
<g id="edge41_Node000012_Node000008" class="edge">
<title>Node12&#45;&gt;Node8</title>
<g id="a_edge41_Node000012_Node000008"><a xlink:title=" ">
<path fill="none" stroke="#63b8ff" d="M642.21,-407.52C629.89,-389.25 611.46,-364.83 591,-347.5 526.14,-292.57 432.86,-259.6 369.75,-242.2"/>
<polygon fill="#63b8ff" stroke="#63b8ff" points="639.83,-409.27 648.25,-415.7 645.68,-405.42 639.83,-409.27"/>
</a>
</g>
</g>
<!-- Node12&#45;&gt;Node9 -->
<g id="edge40_Node000012_Node000009" class="edge">
<title>Node12&#45;&gt;Node9</title>
<g id="a_edge40_Node000012_Node000009"><a xlink:title=" ">
<path fill="none" stroke="#63b8ff" d="M604.34,-412.85C577.33,-402.83 545,-390.84 519.55,-381.4"/>
<polygon fill="#63b8ff" stroke="#63b8ff" points="602.81,-416.39 613.41,-416.58 605.25,-409.82 602.81,-416.39"/>
</a>
</g>
</g>
<!-- Node13 -->
<g id="Node000013" class="node">
<title>Node13</title>
<g id="a_Node000013"><a xlink:href="proxqp_2dense_2model_8hpp.html" target="_top" xlink:title=" ">
<polygon fill="white" stroke="#666666" points="1032.38,-381 895.62,-381 895.62,-347.5 1032.38,-347.5 1032.38,-381"/>
<text text-anchor="start" x="903.62" y="-367.5" font-family="Helvetica,sans-Serif" font-size="10.00">include/proxsuite/proxqp</text>
<text text-anchor="middle" x="964" y="-354.75" font-family="Helvetica,sans-Serif" font-size="10.00">/dense/model.hpp</text>
</a>
</g>
</g>
<!-- Node12&#45;&gt;Node13 -->
<g id="edge27_Node000012_Node000013" class="edge">
<title>Node12&#45;&gt;Node13</title>
<g id="a_edge27_Node000012_Node000013"><a xlink:title=" ">
<path fill="none" stroke="#63b8ff" d="M737.23,-415.27C786.19,-404.47 848.42,-390.75 895.29,-380.41"/>
<polygon fill="#63b8ff" stroke="#63b8ff" points="736.68,-412.03 727.67,-417.6 738.19,-418.87 736.68,-412.03"/>
</a>
</g>
</g>
<!-- Node20 -->
<g id="Node000020" class="node">
<title>Node20</title>
<g id="a_Node000020"><a xlink:href="random__qp__problems_8hpp.html" target="_top" xlink:title=" ">
<polygon fill="white" stroke="#666666" points="864.88,-311.5 695.12,-311.5 695.12,-278 864.88,-278 864.88,-311.5"/>
<text text-anchor="start" x="703.12" y="-298" font-family="Helvetica,sans-Serif" font-size="10.00">include/proxsuite/proxqp</text>
<text text-anchor="middle" x="780" y="-285.25" font-family="Helvetica,sans-Serif" font-size="10.00">/utils/random_qp_problems.hpp</text>
</a>
</g>
</g>
<!-- Node12&#45;&gt;Node20 -->
<g id="edge42_Node000012_Node000020" class="edge">
<title>Node12&#45;&gt;Node20</title>
<g id="a_edge42_Node000012_Node000020"><a xlink:title=" ">
<path fill="none" stroke="#63b8ff" d="M679.42,-408.7C704.29,-380.77 744.61,-335.49 765.86,-311.63"/>
<polygon fill="#63b8ff" stroke="#63b8ff" points="677.27,-405.97 673.23,-415.77 682.5,-410.63 677.27,-405.97"/>
</a>
</g>
</g>
<!-- Node14 -->
<g id="Node000014" class="node">
<title>Node14</title>
<g id="a_Node000014"><a xlink:href="linesearch_8hpp.html" target="_top" xlink:title=" ">
<polygon fill="white" stroke="#666666" points="1355.38,-311.5 1218.62,-311.5 1218.62,-278 1355.38,-278 1355.38,-311.5"/>
<text text-anchor="start" x="1226.62" y="-298" font-family="Helvetica,sans-Serif" font-size="10.00">include/proxsuite/proxqp</text>
<text text-anchor="middle" x="1287" y="-285.25" font-family="Helvetica,sans-Serif" font-size="10.00">/dense/linesearch.hpp</text>
</a>
</g>
</g>
<!-- Node13&#45;&gt;Node14 -->
<g id="edge28_Node000013_Node000014" class="edge">
<title>Node13&#45;&gt;Node14</title>
<g id="a_edge28_Node000013_Node000014"><a xlink:title=" ">
<path fill="none" stroke="#63b8ff" d="M1043,-346.74C1096.68,-335.52 1166.98,-320.83 1218.32,-310.1"/>
<polygon fill="#63b8ff" stroke="#63b8ff" points="1042.57,-343.46 1033.5,-348.93 1044,-350.32 1042.57,-343.46"/>
</a>
</g>
</g>
<!-- Node19 -->
<g id="Node000019" class="node">
<title>Node19</title>
<g id="a_Node000019"><a xlink:href="dense_2utils_8hpp.html" target="_top" xlink:title=" ">
<polygon fill="white" stroke="#666666" points="1200.38,-311.5 1063.62,-311.5 1063.62,-278 1200.38,-278 1200.38,-311.5"/>
<text text-anchor="start" x="1071.62" y="-298" font-family="Helvetica,sans-Serif" font-size="10.00">include/proxsuite/proxqp</text>
<text text-anchor="middle" x="1132" y="-285.25" font-family="Helvetica,sans-Serif" font-size="10.00">/dense/utils.hpp</text>
</a>
</g>
</g>
<!-- Node13&#45;&gt;Node19 -->
<g id="edge34_Node000013_Node000019" class="edge">
<title>Node13&#45;&gt;Node19</title>
<g id="a_edge34_Node000013_Node000019"><a xlink:title=" ">
<path fill="none" stroke="#63b8ff" d="M1014.19,-343.08C1038.99,-333.12 1068.51,-321.26 1091.8,-311.9"/>
<polygon fill="#63b8ff" stroke="#63b8ff" points="1013.21,-340.11 1005.24,-347.08 1015.82,-346.6 1013.21,-340.11"/>
</a>
</g>
</g>
<!-- Node13&#45;&gt;Node20 -->
<g id="edge36_Node000013_Node000020" class="edge">
<title>Node13&#45;&gt;Node20</title>
<g id="a_edge36_Node000013_Node000020"><a xlink:title=" ">
<path fill="none" stroke="#63b8ff" d="M909.75,-343.35C882.44,-333.33 849.76,-321.34 824.03,-311.9"/>
<polygon fill="#63b8ff" stroke="#63b8ff" points="908.33,-346.92 918.93,-347.08 910.74,-340.35 908.33,-346.92"/>
</a>
</g>
</g>
<!-- Node21 -->
<g id="Node000021" class="node">
<title>Node21</title>
<g id="a_Node000021"><a xlink:href="serialization_2model_8hpp.html" target="_top" xlink:title=" ">
<polygon fill="white" stroke="#666666" points="1045.5,-311.5 882.5,-311.5 882.5,-278 1045.5,-278 1045.5,-311.5"/>
<text text-anchor="start" x="890.5" y="-298" font-family="Helvetica,sans-Serif" font-size="10.00">include/proxsuite/serialization</text>
<text text-anchor="middle" x="964" y="-285.25" font-family="Helvetica,sans-Serif" font-size="10.00">/model.hpp</text>
</a>
</g>
</g>
<!-- Node13&#45;&gt;Node21 -->
<g id="edge37_Node000013_Node000021" class="edge">
<title>Node13&#45;&gt;Node21</title>
<g id="a_edge37_Node000013_Node000021"><a xlink:title=" ">
<path fill="none" stroke="#63b8ff" d="M964,-336.39C964,-328 964,-319.01 964,-311.63"/>
<polygon fill="#63b8ff" stroke="#63b8ff" points="960.5,-336.25 964,-346.25 967.5,-336.25 960.5,-336.25"/>
</a>
</g>
</g>
<!-- Node15 -->
<g id="Node000015" class="node">
<title>Node15</title>
<g id="a_Node000015"><a xlink:href="dense_2solver_8hpp.html" target="_top" xlink:title=" ">
<polygon fill="white" stroke="#666666" points="1200.38,-242 1063.62,-242 1063.62,-208.5 1200.38,-208.5 1200.38,-242"/>
<text text-anchor="start" x="1071.62" y="-228.5" font-family="Helvetica,sans-Serif" font-size="10.00">include/proxsuite/proxqp</text>
<text text-anchor="middle" x="1132" y="-215.75" font-family="Helvetica,sans-Serif" font-size="10.00">/dense/solver.hpp</text>
</a>
</g>
</g>
<!-- Node14&#45;&gt;Node15 -->
<g id="edge29_Node000014_Node000015" class="edge">
<title>Node14&#45;&gt;Node15</title>
<g id="a_edge29_Node000014_Node000015"><a xlink:title=" ">
<path fill="none" stroke="#63b8ff" d="M1240.08,-273.32C1217.33,-263.41 1190.38,-251.68 1169.09,-242.4"/>
<polygon fill="#63b8ff" stroke="#63b8ff" points="1238.31,-276.8 1248.87,-277.58 1241.1,-270.38 1238.31,-276.8"/>
</a>
</g>
</g>
<!-- Node16 -->
<g id="Node000016" class="node">
<title>Node16</title>
<g id="a_Node000016"><a xlink:href="proxqp_2dense_2wrapper_8hpp.html" target="_top" xlink:title=" ">
<polygon fill="white" stroke="#666666" points="1164.38,-172.5 1027.62,-172.5 1027.62,-139 1164.38,-139 1164.38,-172.5"/>
<text text-anchor="start" x="1035.62" y="-159" font-family="Helvetica,sans-Serif" font-size="10.00">include/proxsuite/proxqp</text>
<text text-anchor="middle" x="1096" y="-146.25" font-family="Helvetica,sans-Serif" font-size="10.00">/dense/wrapper.hpp</text>
</a>
</g>
</g>
<!-- Node15&#45;&gt;Node16 -->
<g id="edge30_Node000015_Node000016" class="edge">
<title>Node15&#45;&gt;Node16</title>
<g id="a_edge30_Node000015_Node000016"><a xlink:title=" ">
<path fill="none" stroke="#63b8ff" d="M1118.43,-198.81C1113.74,-190.02 1108.63,-180.43 1104.47,-172.63"/>
<polygon fill="#63b8ff" stroke="#63b8ff" points="1115.67,-200.08 1123.47,-207.25 1121.85,-196.78 1115.67,-200.08"/>
</a>
</g>
</g>
<!-- Node16&#45;&gt;Node5 -->
<g id="edge32_Node000016_Node000005" class="edge">
<title>Node16&#45;&gt;Node5</title>
<g id="a_edge32_Node000016_Node000005"><a xlink:title=" ">
<path fill="none" stroke="#63b8ff" d="M1119.07,-130.28C1133.32,-112.13 1146.38,-87.52 1132,-69.5 1112.43,-44.97 1033.11,-31.16 973.71,-24.09"/>
<polygon fill="#63b8ff" stroke="#63b8ff" points="1115.83,-127.69 1112.09,-137.61 1121.2,-132.19 1115.83,-127.69"/>
</a>
</g>
</g>
<!-- Node17 -->
<g id="Node000017" class="node">
<title>Node17</title>
<g id="a_Node000017"><a xlink:href="dense_8hpp.html" target="_top" xlink:title=" ">
<polygon fill="white" stroke="#666666" points="941.38,-103 804.62,-103 804.62,-69.5 941.38,-69.5 941.38,-103"/>
<text text-anchor="start" x="812.62" y="-89.5" font-family="Helvetica,sans-Serif" font-size="10.00">include/proxsuite/proxqp</text>
<text text-anchor="middle" x="873" y="-76.75" font-family="Helvetica,sans-Serif" font-size="10.00">/dense/dense.hpp</text>
</a>
</g>
</g>
<!-- Node16&#45;&gt;Node17 -->
<g id="edge31_Node000016_Node000017" class="edge">
<title>Node16&#45;&gt;Node17</title>
<g id="a_edge31_Node000016_Node000017"><a xlink:title=" ">
<path fill="none" stroke="#63b8ff" d="M1032.43,-135.51C998.9,-125.36 958.23,-113.05 926.36,-103.4"/>
<polygon fill="#63b8ff" stroke="#63b8ff" points="1031,-139.03 1041.59,-138.58 1033.03,-132.34 1031,-139.03"/>
</a>
</g>
</g>
<!-- Node18 -->
<g id="Node000018" class="node">
<title>Node18</title>
<g id="a_Node000018"><a xlink:href="serialization_2wrapper_8hpp.html" target="_top" xlink:title=" ">
<polygon fill="white" stroke="#666666" points="1122.5,-103 959.5,-103 959.5,-69.5 1122.5,-69.5 1122.5,-103"/>
<text text-anchor="start" x="967.5" y="-89.5" font-family="Helvetica,sans-Serif" font-size="10.00">include/proxsuite/serialization</text>
<text text-anchor="middle" x="1041" y="-76.75" font-family="Helvetica,sans-Serif" font-size="10.00">/wrapper.hpp</text>
</a>
</g>
</g>
<!-- Node16&#45;&gt;Node18 -->
<g id="edge33_Node000016_Node000018" class="edge">
<title>Node16&#45;&gt;Node18</title>
<g id="a_edge33_Node000016_Node000018"><a xlink:title=" ">
<path fill="none" stroke="#63b8ff" d="M1076.19,-130.44C1068.79,-121.35 1060.57,-111.27 1053.94,-103.13"/>
<polygon fill="#63b8ff" stroke="#63b8ff" points="1073.94,-132.21 1082.97,-137.75 1079.36,-127.79 1073.94,-132.21"/>
</a>
</g>
</g>
<!-- Node19&#45;&gt;Node15 -->
<g id="edge35_Node000019_Node000015" class="edge">
<title>Node19&#45;&gt;Node15</title>
<g id="a_edge35_Node000019_Node000015"><a xlink:title=" ">
<path fill="none" stroke="#63b8ff" d="M1132,-266.89C1132,-258.5 1132,-249.51 1132,-242.13"/>
<polygon fill="#63b8ff" stroke="#63b8ff" points="1128.5,-266.75 1132,-276.75 1135.5,-266.75 1128.5,-266.75"/>
</a>
</g>
</g>
</g>
</svg>
