<?xml version="1.0" encoding="UTF-8" standalone="no"?>
<!DOCTYPE svg PUBLIC "-//W3C//DTD SVG 1.1//EN"
 "http://www.w3.org/Graphics/SVG/1.1/DTD/svg11.dtd">
<!-- Generated by graphviz version 8.1.0 (20230707.2238)
 -->
<!-- Title: include/proxsuite/linalg/sparse/update.hpp Pages: 1 -->
<svg width="348pt" height="528pt"
 viewBox="0.00 0.00 348.49 528.00" xmlns="http://www.w3.org/2000/svg" xmlns:xlink="http://www.w3.org/1999/xlink">
<g id="graph0" class="graph" transform="scale(1 1) rotate(0) translate(4 524)">
<title>include/proxsuite/linalg/sparse/update.hpp</title>
<!-- Node1 -->
<g id="Node000001" class="node">
<title>Node1</title>
<g id="a_Node000001"><a xlink:title=" ">
<polygon fill="#999999" stroke="#666666" points="199,-520 69,-520 69,-486.5 199,-486.5 199,-520"/>
<text text-anchor="start" x="77" y="-506.5" font-family="Helvetica,sans-Serif" font-size="10.00">include/proxsuite/linalg</text>
<text text-anchor="middle" x="134" y="-493.75" font-family="Helvetica,sans-Serif" font-size="10.00">/sparse/update.hpp</text>
</a>
</g>
</g>
<!-- Node2 -->
<g id="Node000002" class="node">
<title>Node2</title>
<g id="a_Node000002"><a xlink:href="rowmod_8hpp.html" target="_top" xlink:title=" ">
<polygon fill="white" stroke="#666666" points="295,-450.5 165,-450.5 165,-417 295,-417 295,-450.5"/>
<text text-anchor="start" x="173" y="-437" font-family="Helvetica,sans-Serif" font-size="10.00">include/proxsuite/linalg</text>
<text text-anchor="middle" x="230" y="-424.25" font-family="Helvetica,sans-Serif" font-size="10.00">/sparse/rowmod.hpp</text>
</a>
</g>
</g>
<!-- Node1&#45;&gt;Node2 -->
<g id="edge1_Node000001_Node000002" class="edge">
<title>Node1&#45;&gt;Node2</title>
<g id="a_edge1_Node000001_Node000002"><a xlink:title=" ">
<path fill="none" stroke="#63b8ff" d="M165.73,-479.94C179.24,-470.44 194.71,-459.56 207.08,-450.87"/>
<polygon fill="#63b8ff" stroke="#63b8ff" points="163.92,-477.64 157.75,-486.25 167.94,-483.36 163.92,-477.64"/>
</a>
</g>
</g>
<!-- Node3 -->
<g id="Node000003" class="node">
<title>Node3</title>
<g id="a_Node000003"><a xlink:href="sparse_2solver_8hpp.html" target="_top" xlink:title=" ">
<polygon fill="white" stroke="#666666" points="230.38,-172.5 93.62,-172.5 93.62,-139 230.38,-139 230.38,-172.5"/>
<text text-anchor="start" x="101.62" y="-159" font-family="Helvetica,sans-Serif" font-size="10.00">include/proxsuite/proxqp</text>
<text text-anchor="middle" x="162" y="-146.25" font-family="Helvetica,sans-Serif" font-size="10.00">/sparse/solver.hpp</text>
</a>
</g>
</g>
<!-- Node1&#45;&gt;Node3 -->
<g id="edge16_Node000001_Node000003" class="edge">
<title>Node1&#45;&gt;Node3</title>
<g id="a_edge16_Node000001_Node000003"><a xlink:title=" ">
<path fill="none" stroke="#63b8ff" d="M91.04,-481.03C51.84,-458.31 0,-418.23 0,-365.25 0,-365.25 0,-365.25 0,-293.75 0,-232.61 68.12,-193.15 116.01,-172.97"/>
<polygon fill="#63b8ff" stroke="#63b8ff" points="88.75,-484.33 99.19,-486.16 92.18,-478.22 88.75,-484.33"/>
</a>
</g>
</g>
<!-- Node7 -->
<g id="Node000007" class="node">
<title>Node7</title>
<g id="a_Node000007"><a xlink:href="sparse_2utils_8hpp.html" target="_top" xlink:title=" ">
<polygon fill="white" stroke="#666666" points="326.38,-311.5 189.62,-311.5 189.62,-278 326.38,-278 326.38,-311.5"/>
<text text-anchor="start" x="197.62" y="-298" font-family="Helvetica,sans-Serif" font-size="10.00">include/proxsuite/proxqp</text>
<text text-anchor="middle" x="258" y="-285.25" font-family="Helvetica,sans-Serif" font-size="10.00">/sparse/utils.hpp</text>
</a>
</g>
</g>
<!-- Node1&#45;&gt;Node7 -->
<g id="edge17_Node000001_Node000007" class="edge">
<title>Node1&#45;&gt;Node7</title>
<g id="a_edge17_Node000001_Node000007"><a xlink:title=" ">
<path fill="none" stroke="#63b8ff" d="M209.82,-498.89C244.35,-493.09 282.28,-479.82 304,-450.5 336.04,-407.26 294.14,-341.83 271.19,-311.82"/>
<polygon fill="#63b8ff" stroke="#63b8ff" points="209.61,-495.53 200.23,-500.46 210.63,-502.45 209.61,-495.53"/>
</a>
</g>
</g>
<!-- Node8 -->
<g id="Node000008" class="node">
<title>Node8</title>
<g id="a_Node000008"><a xlink:href="sparse_2workspace_8hpp.html" target="_top" xlink:title=" ">
<polygon fill="white" stroke="#666666" points="230.38,-242 93.62,-242 93.62,-208.5 230.38,-208.5 230.38,-242"/>
<text text-anchor="start" x="101.62" y="-228.5" font-family="Helvetica,sans-Serif" font-size="10.00">include/proxsuite/proxqp</text>
<text text-anchor="middle" x="162" y="-215.75" font-family="Helvetica,sans-Serif" font-size="10.00">/sparse/workspace.hpp</text>
</a>
</g>
</g>
<!-- Node1&#45;&gt;Node8 -->
<g id="edge19_Node000001_Node000008" class="edge">
<title>Node1&#45;&gt;Node8</title>
<g id="a_edge19_Node000001_Node000008"><a xlink:title=" ">
<path fill="none" stroke="#63b8ff" d="M108.21,-478.26C79.42,-448.43 39.08,-395.56 57,-347.5 73.73,-302.62 115.38,-263.31 140.91,-242.35"/>
<polygon fill="#63b8ff" stroke="#63b8ff" points="105.42,-480.43 114.96,-485.04 110.38,-475.49 105.42,-480.43"/>
</a>
</g>
</g>
<!-- Node9 -->
<g id="Node000009" class="node">
<title>Node9</title>
<g id="a_Node000009"><a xlink:href="sparse_2views_8hpp.html" target="_top" xlink:title=" ">
<polygon fill="white" stroke="#666666" points="202.38,-381 65.62,-381 65.62,-347.5 202.38,-347.5 202.38,-381"/>
<text text-anchor="start" x="73.62" y="-367.5" font-family="Helvetica,sans-Serif" font-size="10.00">include/proxsuite/proxqp</text>
<text text-anchor="middle" x="134" y="-354.75" font-family="Helvetica,sans-Serif" font-size="10.00">/sparse/views.hpp</text>
</a>
</g>
</g>
<!-- Node1&#45;&gt;Node9 -->
<g id="edge18_Node000001_Node000009" class="edge">
<title>Node1&#45;&gt;Node9</title>
<g id="a_edge18_Node000001_Node000009"><a xlink:title=" ">
<path fill="none" stroke="#63b8ff" d="M134,-475.62C134,-447.56 134,-404.27 134,-381.13"/>
<polygon fill="#63b8ff" stroke="#63b8ff" points="130.5,-475.27 134,-485.27 137.5,-475.27 130.5,-475.27"/>
</a>
</g>
</g>
<!-- Node2&#45;&gt;Node3 -->
<g id="edge2_Node000002_Node000003" class="edge">
<title>Node2&#45;&gt;Node3</title>
<g id="a_edge2_Node000002_Node000003"><a xlink:title=" ">
<path fill="none" stroke="#63b8ff" d="M263.41,-410.46C301.97,-381.72 357.41,-329.31 335,-278 311.74,-224.72 250.96,-190.94 208.04,-172.93"/>
<polygon fill="#63b8ff" stroke="#63b8ff" points="262.03,-407.86 255.99,-416.56 266.14,-413.53 262.03,-407.86"/>
</a>
</g>
</g>
<!-- Node2&#45;&gt;Node7 -->
<g id="edge6_Node000002_Node000007" class="edge">
<title>Node2&#45;&gt;Node7</title>
<g id="a_edge6_Node000002_Node000007"><a xlink:title=" ">
<path fill="none" stroke="#63b8ff" d="M237.73,-406.22C239.93,-398.16 242.21,-389.25 244,-381 249.18,-357.11 253.44,-329.08 255.85,-311.87"/>
<polygon fill="#63b8ff" stroke="#63b8ff" points="234.17,-404.97 234.84,-415.54 240.91,-406.85 234.17,-404.97"/>
</a>
</g>
</g>
<!-- Node2&#45;&gt;Node8 -->
<g id="edge15_Node000002_Node000008" class="edge">
<title>Node2&#45;&gt;Node8</title>
<g id="a_edge15_Node000002_Node000008"><a xlink:title=" ">
<path fill="none" stroke="#63b8ff" d="M227.35,-406.07C224.85,-388.69 220.06,-365.92 211,-347.5 201.81,-328.81 190.19,-330.19 181,-311.5 169.96,-289.05 165.26,-260.12 163.31,-242.4"/>
<polygon fill="#63b8ff" stroke="#63b8ff" points="223.96,-406.12 228.69,-415.6 230.9,-405.24 223.96,-406.12"/>
</a>
</g>
</g>
<!-- Node2&#45;&gt;Node9 -->
<g id="edge11_Node000002_Node000009" class="edge">
<title>Node2&#45;&gt;Node9</title>
<g id="a_edge11_Node000002_Node000009"><a xlink:title=" ">
<path fill="none" stroke="#63b8ff" d="M198.27,-410.44C184.76,-400.94 169.29,-390.06 156.92,-381.37"/>
<polygon fill="#63b8ff" stroke="#63b8ff" points="196.06,-413.86 206.25,-416.75 200.08,-408.14 196.06,-413.86"/>
</a>
</g>
</g>
<!-- Node4 -->
<g id="Node000004" class="node">
<title>Node4</title>
<g id="a_Node000004"><a xlink:href="proxqp_2sparse_2wrapper_8hpp.html" target="_top" xlink:title=" ">
<polygon fill="white" stroke="#666666" points="230.38,-103 93.62,-103 93.62,-69.5 230.38,-69.5 230.38,-103"/>
<text text-anchor="start" x="101.62" y="-89.5" font-family="Helvetica,sans-Serif" font-size="10.00">include/proxsuite/proxqp</text>
<text text-anchor="middle" x="162" y="-76.75" font-family="Helvetica,sans-Serif" font-size="10.00">/sparse/wrapper.hpp</text>
</a>
</g>
</g>
<!-- Node3&#45;&gt;Node4 -->
<g id="edge3_Node000003_Node000004" class="edge">
<title>Node3&#45;&gt;Node4</title>
<g id="a_edge3_Node000003_Node000004"><a xlink:title=" ">
<path fill="none" stroke="#63b8ff" d="M162,-127.89C162,-119.5 162,-110.51 162,-103.13"/>
<polygon fill="#63b8ff" stroke="#63b8ff" points="158.5,-127.75 162,-137.75 165.5,-127.75 158.5,-127.75"/>
</a>
</g>
</g>
<!-- Node5 -->
<g id="Node000005" class="node">
<title>Node5</title>
<g id="a_Node000005"><a xlink:href="qp__solve_8hpp.html" target="_top" xlink:title=" ">
<polygon fill="white" stroke="#666666" points="153.38,-33.5 16.62,-33.5 16.62,0 153.38,0 153.38,-33.5"/>
<text text-anchor="start" x="24.62" y="-20" font-family="Helvetica,sans-Serif" font-size="10.00">include/proxsuite/proxqp</text>
<text text-anchor="middle" x="85" y="-7.25" font-family="Helvetica,sans-Serif" font-size="10.00">/parallel/qp_solve.hpp</text>
</a>
</g>
</g>
<!-- Node4&#45;&gt;Node5 -->
<g id="edge4_Node000004_Node000005" class="edge">
<title>Node4&#45;&gt;Node5</title>
<g id="a_edge4_Node000004_Node000005"><a xlink:title=" ">
<path fill="none" stroke="#63b8ff" d="M135.61,-62.11C125,-52.81 113.02,-42.31 103.38,-33.87"/>
<polygon fill="#63b8ff" stroke="#63b8ff" points="132.93,-65.29 142.75,-69.25 137.54,-60.03 132.93,-65.29"/>
</a>
</g>
</g>
<!-- Node6 -->
<g id="Node000006" class="node">
<title>Node6</title>
<g id="a_Node000006"><a xlink:href="sparse_8hpp.html" target="_top" xlink:title=" ">
<polygon fill="white" stroke="#666666" points="308.38,-33.5 171.62,-33.5 171.62,0 308.38,0 308.38,-33.5"/>
<text text-anchor="start" x="179.62" y="-20" font-family="Helvetica,sans-Serif" font-size="10.00">include/proxsuite/proxqp</text>
<text text-anchor="middle" x="240" y="-7.25" font-family="Helvetica,sans-Serif" font-size="10.00">/sparse/sparse.hpp</text>
</a>
</g>
</g>
<!-- Node4&#45;&gt;Node6 -->
<g id="edge5_Node000004_Node000006" class="edge">
<title>Node4&#45;&gt;Node6</title>
<g id="a_edge5_Node000004_Node000006"><a xlink:title=" ">
<path fill="none" stroke="#63b8ff" d="M188.74,-62.11C199.48,-52.81 211.62,-42.31 221.38,-33.87"/>
<polygon fill="#63b8ff" stroke="#63b8ff" points="186.76,-60.06 181.48,-69.25 191.34,-65.36 186.76,-60.06"/>
</a>
</g>
</g>
<!-- Node7&#45;&gt;Node3 -->
<g id="edge7_Node000007_Node000003" class="edge">
<title>Node7&#45;&gt;Node3</title>
<g id="a_edge7_Node000007_Node000003"><a xlink:title=" ">
<path fill="none" stroke="#63b8ff" d="M257.09,-266.73C255.33,-248.86 250.72,-225.65 239,-208.5 228.64,-193.34 212.24,-181.42 197.23,-172.86"/>
<polygon fill="#63b8ff" stroke="#63b8ff" points="253.67,-266.87 257.89,-276.59 260.65,-266.36 253.67,-266.87"/>
</a>
</g>
</g>
<!-- Node7&#45;&gt;Node8 -->
<g id="edge8_Node000007_Node000008" class="edge">
<title>Node7&#45;&gt;Node8</title>
<g id="a_edge8_Node000007_Node000008"><a xlink:title=" ">
<path fill="none" stroke="#63b8ff" d="M220.03,-271.54C205.82,-261.99 190.41,-251.03 178.96,-242.29"/>
<polygon fill="#63b8ff" stroke="#63b8ff" points="217.88,-274.98 228.15,-277.58 221.74,-269.14 217.88,-274.98"/>
</a>
</g>
</g>
<!-- Node8&#45;&gt;Node3 -->
<g id="edge9_Node000008_Node000003" class="edge">
<title>Node8&#45;&gt;Node3</title>
<g id="a_edge9_Node000008_Node000003"><a xlink:title=" ">
<path fill="none" stroke="#63b8ff" d="M162,-197.39C162,-189 162,-180.01 162,-172.63"/>
<polygon fill="#63b8ff" stroke="#63b8ff" points="158.5,-197.25 162,-207.25 165.5,-197.25 158.5,-197.25"/>
</a>
</g>
</g>
<!-- Node8&#45;&gt;Node7 -->
<g id="edge10_Node000008_Node000007" class="edge">
<title>Node8&#45;&gt;Node7</title>
<g id="a_edge10_Node000008_Node000007"><a xlink:title=" ">
<path fill="none" stroke="#63b8ff" d="M199.91,-248.42C214.16,-258 229.62,-268.99 241.09,-277.75"/>
<polygon fill="#63b8ff" stroke="#63b8ff" points="202.04,-244.97 191.77,-242.37 198.18,-250.81 202.04,-244.97"/>
</a>
</g>
</g>
<!-- Node9&#45;&gt;Node3 -->
<g id="edge12_Node000009_Node000003" class="edge">
<title>Node9&#45;&gt;Node3</title>
<g id="a_edge12_Node000009_Node000003"><a xlink:title=" ">
<path fill="none" stroke="#63b8ff" d="M114.63,-338.53C92.49,-307.03 62.09,-251.51 85,-208.5 93.33,-192.86 108.72,-181.11 123.56,-172.79"/>
<polygon fill="#63b8ff" stroke="#63b8ff" points="112.17,-340.1 120.89,-346.12 117.83,-335.98 112.17,-340.1"/>
</a>
</g>
</g>
<!-- Node9&#45;&gt;Node7 -->
<g id="edge13_Node000009_Node000007" class="edge">
<title>Node9&#45;&gt;Node7</title>
<g id="a_edge13_Node000009_Node000007"><a xlink:title=" ">
<path fill="none" stroke="#63b8ff" d="M173.3,-341.86C191.19,-332.12 212.02,-320.78 228.54,-311.79"/>
<polygon fill="#63b8ff" stroke="#63b8ff" points="171.81,-339.23 164.7,-347.08 175.16,-345.38 171.81,-339.23"/>
</a>
</g>
</g>
<!-- Node9&#45;&gt;Node8 -->
<g id="edge14_Node000009_Node000008" class="edge">
<title>Node9&#45;&gt;Node8</title>
<g id="a_edge14_Node000009_Node000008"><a xlink:title=" ">
<path fill="none" stroke="#63b8ff" d="M137.69,-336.41C140.19,-319.56 143.79,-297.41 148,-278 150.6,-265.99 154.24,-252.61 157.16,-242.46"/>
<polygon fill="#63b8ff" stroke="#63b8ff" points="134.11,-335.73 136.15,-346.13 141.04,-336.73 134.11,-335.73"/>
</a>
</g>
</g>
</g>
</svg>
