<?xml version="1.0" encoding="UTF-8" standalone="no"?>
<!DOCTYPE svg PUBLIC "-//W3C//DTD SVG 1.1//EN"
 "http://www.w3.org/Graphics/SVG/1.1/DTD/svg11.dtd">
<!-- Generated by graphviz version 5.0.0 (20220707.2338)
 -->
<!-- Title: include/proxsuite/proxqp/sparse/views.hpp Pages: 1 -->
<svg width="242pt" height="374pt"
 viewBox="0.00 0.00 242.00 374.00" xmlns="http://www.w3.org/2000/svg" xmlns:xlink="http://www.w3.org/1999/xlink">
<g id="graph0" class="graph" transform="scale(1 1) rotate(0) translate(4 370)">
<title>include/proxsuite/proxqp/sparse/views.hpp</title>
<!-- Node1 -->
<g id="node1" class="node">
<title>Node1</title>
<g id="a_node1"><a xlink:title=" ">
<polygon fill="#bfbfbf" stroke="black" points="30,-335.5 30,-365.5 167,-365.5 167,-335.5 30,-335.5"/>
<text text-anchor="start" x="38" y="-353.5" font-family="Helvetica,sans-Serif" font-size="10.00">include/proxsuite/proxqp</text>
<text text-anchor="middle" x="98.5" y="-342.5" font-family="Helvetica,sans-Serif" font-size="10.00">/sparse/views.hpp</text>
</a>
</g>
</g>
<!-- Node2 -->
<g id="node2" class="node">
<title>Node2</title>
<g id="a_node2"><a xlink:href="sparse_2solver_8hpp.html" target="_top" xlink:title=" ">
<polygon fill="none" stroke="black" points="0,-134.5 0,-164.5 137,-164.5 137,-134.5 0,-134.5"/>
<text text-anchor="start" x="8" y="-152.5" font-family="Helvetica,sans-Serif" font-size="10.00">include/proxsuite/proxqp</text>
<text text-anchor="middle" x="68.5" y="-141.5" font-family="Helvetica,sans-Serif" font-size="10.00">/sparse/solver.hpp</text>
</a>
</g>
</g>
<!-- Node1&#45;&gt;Node2 -->
<g id="edge1" class="edge">
<title>Node1&#45;&gt;Node2</title>
<path fill="none" stroke="midnightblue" d="M53.13,-330.49C40.25,-322.72 27.76,-312.36 20.5,-299 -4.48,-253.06 35.49,-191.99 56.67,-164.71"/>
<polygon fill="midnightblue" stroke="midnightblue" points="51.61,-333.65 62.05,-335.46 55.02,-327.54 51.61,-333.65"/>
</g>
<!-- Node5 -->
<g id="node5" class="node">
<title>Node5</title>
<g id="a_node5"><a xlink:href="sparse_2utils_8hpp.html" target="_top" xlink:title=" ">
<polygon fill="none" stroke="black" points="30,-268.5 30,-298.5 167,-298.5 167,-268.5 30,-268.5"/>
<text text-anchor="start" x="38" y="-286.5" font-family="Helvetica,sans-Serif" font-size="10.00">include/proxsuite/proxqp</text>
<text text-anchor="middle" x="98.5" y="-275.5" font-family="Helvetica,sans-Serif" font-size="10.00">/sparse/utils.hpp</text>
</a>
</g>
</g>
<!-- Node1&#45;&gt;Node5 -->
<g id="edge4" class="edge">
<title>Node1&#45;&gt;Node5</title>
<path fill="none" stroke="midnightblue" d="M98.5,-325.11C98.5,-316.15 98.5,-306.32 98.5,-298.58"/>
<polygon fill="midnightblue" stroke="midnightblue" points="95,-325.4 98.5,-335.4 102,-325.4 95,-325.4"/>
</g>
<!-- Node6 -->
<g id="node6" class="node">
<title>Node6</title>
<g id="a_node6"><a xlink:href="sparse_2workspace_8hpp.html" target="_top" xlink:title=" ">
<polygon fill="none" stroke="black" points="97,-201.5 97,-231.5 234,-231.5 234,-201.5 97,-201.5"/>
<text text-anchor="start" x="105" y="-219.5" font-family="Helvetica,sans-Serif" font-size="10.00">include/proxsuite/proxqp</text>
<text text-anchor="middle" x="165.5" y="-208.5" font-family="Helvetica,sans-Serif" font-size="10.00">/sparse/workspace.hpp</text>
</a>
</g>
</g>
<!-- Node1&#45;&gt;Node6 -->
<g id="edge8" class="edge">
<title>Node1&#45;&gt;Node6</title>
<path fill="none" stroke="midnightblue" d="M143.87,-330.49C156.75,-322.72 169.24,-312.36 176.5,-299 188.1,-277.68 179.44,-248.73 172.32,-231.69"/>
<polygon fill="midnightblue" stroke="midnightblue" points="141.98,-327.54 134.95,-335.46 145.39,-333.65 141.98,-327.54"/>
</g>
<!-- Node3 -->
<g id="node3" class="node">
<title>Node3</title>
<g id="a_node3"><a xlink:href="sparse_2wrapper_8hpp.html" target="_top" xlink:title=" ">
<polygon fill="none" stroke="black" points="0,-67.5 0,-97.5 137,-97.5 137,-67.5 0,-67.5"/>
<text text-anchor="start" x="8" y="-85.5" font-family="Helvetica,sans-Serif" font-size="10.00">include/proxsuite/proxqp</text>
<text text-anchor="middle" x="68.5" y="-74.5" font-family="Helvetica,sans-Serif" font-size="10.00">/sparse/wrapper.hpp</text>
</a>
</g>
</g>
<!-- Node2&#45;&gt;Node3 -->
<g id="edge2" class="edge">
<title>Node2&#45;&gt;Node3</title>
<path fill="none" stroke="midnightblue" d="M68.5,-124.11C68.5,-115.15 68.5,-105.32 68.5,-97.58"/>
<polygon fill="midnightblue" stroke="midnightblue" points="65,-124.4 68.5,-134.4 72,-124.4 65,-124.4"/>
</g>
<!-- Node4 -->
<g id="node4" class="node">
<title>Node4</title>
<g id="a_node4"><a xlink:href="sparse_8hpp.html" target="_top" xlink:title=" ">
<polygon fill="none" stroke="black" points="0,-0.5 0,-30.5 137,-30.5 137,-0.5 0,-0.5"/>
<text text-anchor="start" x="8" y="-18.5" font-family="Helvetica,sans-Serif" font-size="10.00">include/proxsuite/proxqp</text>
<text text-anchor="middle" x="68.5" y="-7.5" font-family="Helvetica,sans-Serif" font-size="10.00">/sparse/sparse.hpp</text>
</a>
</g>
</g>
<!-- Node3&#45;&gt;Node4 -->
<g id="edge3" class="edge">
<title>Node3&#45;&gt;Node4</title>
<path fill="none" stroke="midnightblue" d="M68.5,-57.11C68.5,-48.15 68.5,-38.32 68.5,-30.58"/>
<polygon fill="midnightblue" stroke="midnightblue" points="65,-57.4 68.5,-67.4 72,-57.4 65,-57.4"/>
</g>
<!-- Node5&#45;&gt;Node2 -->
<g id="edge5" class="edge">
<title>Node5&#45;&gt;Node2</title>
<path fill="none" stroke="midnightblue" d="M93.02,-258.39C86.77,-230.9 76.77,-186.89 71.69,-164.52"/>
<polygon fill="midnightblue" stroke="midnightblue" points="89.66,-259.4 95.29,-268.37 96.49,-257.85 89.66,-259.4"/>
</g>
<!-- Node5&#45;&gt;Node6 -->
<g id="edge6" class="edge">
<title>Node5&#45;&gt;Node6</title>
<path fill="none" stroke="midnightblue" d="M120.34,-261.31C130.39,-251.56 142.04,-240.26 150.99,-231.58"/>
<polygon fill="midnightblue" stroke="midnightblue" points="117.78,-258.92 113.04,-268.4 122.65,-263.94 117.78,-258.92"/>
</g>
<!-- Node6&#45;&gt;Node2 -->
<g id="edge7" class="edge">
<title>Node6&#45;&gt;Node2</title>
<path fill="none" stroke="midnightblue" d="M136,-195.73C120.99,-185.68 103.1,-173.68 89.51,-164.58"/>
<polygon fill="midnightblue" stroke="midnightblue" points="134.2,-198.74 144.45,-201.4 138.09,-192.92 134.2,-198.74"/>
</g>
</g>
</svg>
