<?xml version="1.0" encoding="UTF-8" standalone="no"?>
<!DOCTYPE svg PUBLIC "-//W3C//DTD SVG 1.1//EN"
 "http://www.w3.org/Graphics/SVG/1.1/DTD/svg11.dtd">
<!-- Generated by graphviz version 7.0.6 (20230107.1202)
 -->
<!-- Title: include/proxsuite/linalg/sparse/core.hpp Pages: 1 -->
<svg width="1394pt" height="566pt"
 viewBox="0.00 0.00 1393.50 566.00" xmlns="http://www.w3.org/2000/svg" xmlns:xlink="http://www.w3.org/1999/xlink">
<g id="graph0" class="graph" transform="scale(1 1) rotate(0) translate(4 562)">
<title>include/proxsuite/linalg/sparse/core.hpp</title>
<!-- Node1 -->
<g id="node1" class="node">
<title>Node1</title>
<g id="a_node1"><a xlink:title=" ">
<polygon fill="#999999" stroke="#666666" points="443.5,-558 312.5,-558 312.5,-528 443.5,-528 443.5,-558"/>
<text text-anchor="start" x="320.5" y="-546" font-family="Helvetica,sans-Serif" font-size="10.00">include/proxsuite/linalg</text>
<text text-anchor="middle" x="378" y="-535" font-family="Helvetica,sans-Serif" font-size="10.00">/sparse/core.hpp</text>
</a>
</g>
</g>
<!-- Node2 -->
<g id="node2" class="node">
<title>Node2</title>
<g id="a_node2"><a xlink:href="sparse_2factorize_8hpp.html" target="_top" xlink:title=" ">
<polygon fill="white" stroke="#666666" points="537.5,-426 406.5,-426 406.5,-396 537.5,-396 537.5,-426"/>
<text text-anchor="start" x="414.5" y="-414" font-family="Helvetica,sans-Serif" font-size="10.00">include/proxsuite/linalg</text>
<text text-anchor="middle" x="472" y="-403" font-family="Helvetica,sans-Serif" font-size="10.00">/sparse/factorize.hpp</text>
</a>
</g>
</g>
<!-- Node1&#45;&gt;Node2 -->
<g id="edge1" class="edge">
<title>Node1&#45;&gt;Node2</title>
<path fill="none" stroke="#63b8ff" d="M394.98,-518.52C414.34,-491.74 445.41,-448.77 461.53,-426.47"/>
<polygon fill="#63b8ff" stroke="#63b8ff" points="392.33,-516.21 389.31,-526.36 398,-520.31 392.33,-516.21"/>
</g>
<!-- Node3 -->
<g id="node3" class="node">
<title>Node3</title>
<g id="a_node3"><a xlink:href="sparse_2solver_8hpp.html" target="_top" xlink:title=" ">
<polygon fill="white" stroke="#666666" points="382.5,-162 245.5,-162 245.5,-132 382.5,-132 382.5,-162"/>
<text text-anchor="start" x="253.5" y="-150" font-family="Helvetica,sans-Serif" font-size="10.00">include/proxsuite/proxqp</text>
<text text-anchor="middle" x="314" y="-139" font-family="Helvetica,sans-Serif" font-size="10.00">/sparse/solver.hpp</text>
</a>
</g>
</g>
<!-- Node1&#45;&gt;Node3 -->
<g id="edge41" class="edge">
<title>Node1&#45;&gt;Node3</title>
<path fill="none" stroke="#63b8ff" d="M301.06,-531.45C190.55,-514.11 0,-475.07 0,-412 0,-412 0,-412 0,-278 0,-172.68 152.66,-151.03 245.09,-147.57"/>
<polygon fill="#63b8ff" stroke="#63b8ff" points="300.25,-534.87 310.66,-532.93 301.31,-527.95 300.25,-534.87"/>
</g>
<!-- Node6 -->
<g id="node6" class="node">
<title>Node6</title>
<g id="a_node6"><a xlink:href="sparse_2utils_8hpp.html" target="_top" xlink:title=" ">
<polygon fill="white" stroke="#666666" points="431.5,-294 294.5,-294 294.5,-264 431.5,-264 431.5,-294"/>
<text text-anchor="start" x="302.5" y="-282" font-family="Helvetica,sans-Serif" font-size="10.00">include/proxsuite/proxqp</text>
<text text-anchor="middle" x="363" y="-271" font-family="Helvetica,sans-Serif" font-size="10.00">/sparse/utils.hpp</text>
</a>
</g>
</g>
<!-- Node1&#45;&gt;Node6 -->
<g id="edge42" class="edge">
<title>Node1&#45;&gt;Node6</title>
<path fill="none" stroke="#63b8ff" d="M376.52,-516.18C373.41,-461.77 366.25,-336.85 363.83,-294.41"/>
<polygon fill="#63b8ff" stroke="#63b8ff" points="373.02,-516.25 377.09,-526.03 380.01,-515.85 373.02,-516.25"/>
</g>
<!-- Node7 -->
<g id="node7" class="node">
<title>Node7</title>
<g id="a_node7"><a xlink:href="sparse_2workspace_8hpp.html" target="_top" xlink:title=" ">
<polygon fill="white" stroke="#666666" points="334.5,-228 197.5,-228 197.5,-198 334.5,-198 334.5,-228"/>
<text text-anchor="start" x="205.5" y="-216" font-family="Helvetica,sans-Serif" font-size="10.00">include/proxsuite/proxqp</text>
<text text-anchor="middle" x="266" y="-205" font-family="Helvetica,sans-Serif" font-size="10.00">/sparse/workspace.hpp</text>
</a>
</g>
</g>
<!-- Node1&#45;&gt;Node7 -->
<g id="edge44" class="edge">
<title>Node1&#45;&gt;Node7</title>
<path fill="none" stroke="#63b8ff" d="M300.87,-536.61C259.43,-530.62 209.16,-518.08 171,-492 141.48,-471.82 135.71,-460.11 125,-426 101.85,-352.3 133.17,-318.42 188,-264 202.5,-249.61 221.81,-237.19 237.59,-228.33"/>
<polygon fill="#63b8ff" stroke="#63b8ff" points="300.15,-540.05 310.53,-537.9 301.08,-533.11 300.15,-540.05"/>
</g>
<!-- Node8 -->
<g id="node8" class="node">
<title>Node8</title>
<g id="a_node8"><a xlink:href="sparse_2views_8hpp.html" target="_top" xlink:title=" ">
<polygon fill="white" stroke="#666666" points="545.5,-360 408.5,-360 408.5,-330 545.5,-330 545.5,-360"/>
<text text-anchor="start" x="416.5" y="-348" font-family="Helvetica,sans-Serif" font-size="10.00">include/proxsuite/proxqp</text>
<text text-anchor="middle" x="477" y="-337" font-family="Helvetica,sans-Serif" font-size="10.00">/sparse/views.hpp</text>
</a>
</g>
</g>
<!-- Node1&#45;&gt;Node8 -->
<g id="edge43" class="edge">
<title>Node1&#45;&gt;Node8</title>
<path fill="none" stroke="#63b8ff" d="M428.44,-522.97C468.65,-504.78 522.19,-473.12 547,-426 553.21,-414.2 553.1,-407.86 547,-396 539,-380.46 523.7,-368.68 509.43,-360.47"/>
<polygon fill="#63b8ff" stroke="#63b8ff" points="427.16,-519.7 419.39,-526.91 429.96,-526.12 427.16,-519.7"/>
</g>
<!-- Node9 -->
<g id="node9" class="node">
<title>Node9</title>
<g id="a_node9"><a xlink:href="sparse_2update_8hpp.html" target="_top" xlink:title=" ">
<polygon fill="white" stroke="#666666" points="311.5,-492 180.5,-492 180.5,-462 311.5,-462 311.5,-492"/>
<text text-anchor="start" x="188.5" y="-480" font-family="Helvetica,sans-Serif" font-size="10.00">include/proxsuite/linalg</text>
<text text-anchor="middle" x="246" y="-469" font-family="Helvetica,sans-Serif" font-size="10.00">/sparse/update.hpp</text>
</a>
</g>
</g>
<!-- Node1&#45;&gt;Node9 -->
<g id="edge15" class="edge">
<title>Node1&#45;&gt;Node9</title>
<path fill="none" stroke="#63b8ff" d="M338.24,-522.72C318.08,-512.95 294.02,-501.28 275.52,-492.31"/>
<polygon fill="#63b8ff" stroke="#63b8ff" points="336.49,-525.76 347.01,-526.98 339.54,-519.46 336.49,-525.76"/>
</g>
<!-- Node11 -->
<g id="node11" class="node">
<title>Node11</title>
<g id="a_node11"><a xlink:href="proxqp_2sparse_2model_8hpp.html" target="_top" xlink:title=" ">
<polygon fill="white" stroke="#666666" points="731.5,-426 594.5,-426 594.5,-396 731.5,-396 731.5,-426"/>
<text text-anchor="start" x="602.5" y="-414" font-family="Helvetica,sans-Serif" font-size="10.00">include/proxsuite/proxqp</text>
<text text-anchor="middle" x="663" y="-403" font-family="Helvetica,sans-Serif" font-size="10.00">/sparse/model.hpp</text>
</a>
</g>
</g>
<!-- Node1&#45;&gt;Node11 -->
<g id="edge25" class="edge">
<title>Node1&#45;&gt;Node11</title>
<path fill="none" stroke="#63b8ff" d="M455.05,-532.64C494.28,-525.53 541.64,-513.2 580,-492 610.3,-475.25 637.56,-444.61 652.04,-426.49"/>
<polygon fill="#63b8ff" stroke="#63b8ff" points="454.71,-529.15 445.45,-534.3 455.9,-536.05 454.71,-529.15"/>
</g>
<!-- Node2&#45;&gt;Node3 -->
<g id="edge2" class="edge">
<title>Node2&#45;&gt;Node3</title>
<path fill="none" stroke="#63b8ff" d="M522.71,-390.43C535.51,-382.93 547.68,-372.95 555,-360 561.56,-348.39 559.83,-342.43 555,-330 526.15,-255.83 499.15,-243.71 434,-198 412.11,-182.64 384.77,-170.79 361.72,-162.48"/>
<polygon fill="#63b8ff" stroke="#63b8ff" points="521.38,-387.18 514.21,-394.98 524.68,-393.35 521.38,-387.18"/>
</g>
<!-- Node2&#45;&gt;Node6 -->
<g id="edge5" class="edge">
<title>Node2&#45;&gt;Node6</title>
<path fill="none" stroke="#63b8ff" d="M434.77,-389.58C422.56,-381.55 409.65,-371.5 400,-360 383.27,-340.08 372.44,-311.34 367.06,-294.27"/>
<polygon fill="#63b8ff" stroke="#63b8ff" points="432.73,-392.43 443.06,-394.76 436.44,-386.49 432.73,-392.43"/>
</g>
<!-- Node2&#45;&gt;Node7 -->
<g id="edge14" class="edge">
<title>Node2&#45;&gt;Node7</title>
<path fill="none" stroke="#63b8ff" d="M419.4,-391.23C376.53,-373.11 318.01,-341.39 286,-294 272.46,-273.95 268.08,-245.51 266.67,-228.49"/>
<polygon fill="#63b8ff" stroke="#63b8ff" points="417.96,-394.42 428.54,-394.97 420.61,-387.95 417.96,-394.42"/>
</g>
<!-- Node2&#45;&gt;Node8 -->
<g id="edge10" class="edge">
<title>Node2&#45;&gt;Node8</title>
<path fill="none" stroke="#63b8ff" d="M474,-384.39C474.65,-376.13 475.34,-367.28 475.89,-360.16"/>
<polygon fill="#63b8ff" stroke="#63b8ff" points="470.52,-384.05 473.23,-394.29 477.5,-384.59 470.52,-384.05"/>
</g>
<!-- Node4 -->
<g id="node4" class="node">
<title>Node4</title>
<g id="a_node4"><a xlink:href="proxqp_2sparse_2wrapper_8hpp.html" target="_top" xlink:title=" ">
<polygon fill="white" stroke="#666666" points="382.5,-96 245.5,-96 245.5,-66 382.5,-66 382.5,-96"/>
<text text-anchor="start" x="253.5" y="-84" font-family="Helvetica,sans-Serif" font-size="10.00">include/proxsuite/proxqp</text>
<text text-anchor="middle" x="314" y="-73" font-family="Helvetica,sans-Serif" font-size="10.00">/sparse/wrapper.hpp</text>
</a>
</g>
</g>
<!-- Node3&#45;&gt;Node4 -->
<g id="edge3" class="edge">
<title>Node3&#45;&gt;Node4</title>
<path fill="none" stroke="#63b8ff" d="M314,-120.39C314,-112.13 314,-103.28 314,-96.16"/>
<polygon fill="#63b8ff" stroke="#63b8ff" points="310.5,-120.28 314,-130.28 317.5,-120.28 310.5,-120.28"/>
</g>
<!-- Node5 -->
<g id="node5" class="node">
<title>Node5</title>
<g id="a_node5"><a xlink:href="sparse_8hpp.html" target="_top" xlink:title=" ">
<polygon fill="white" stroke="#666666" points="382.5,-30 245.5,-30 245.5,0 382.5,0 382.5,-30"/>
<text text-anchor="start" x="253.5" y="-18" font-family="Helvetica,sans-Serif" font-size="10.00">include/proxsuite/proxqp</text>
<text text-anchor="middle" x="314" y="-7" font-family="Helvetica,sans-Serif" font-size="10.00">/sparse/sparse.hpp</text>
</a>
</g>
</g>
<!-- Node4&#45;&gt;Node5 -->
<g id="edge4" class="edge">
<title>Node4&#45;&gt;Node5</title>
<path fill="none" stroke="#63b8ff" d="M314,-54.39C314,-46.13 314,-37.28 314,-30.16"/>
<polygon fill="#63b8ff" stroke="#63b8ff" points="310.5,-54.28 314,-64.28 317.5,-54.28 310.5,-54.28"/>
</g>
<!-- Node6&#45;&gt;Node3 -->
<g id="edge6" class="edge">
<title>Node6&#45;&gt;Node3</title>
<path fill="none" stroke="#63b8ff" d="M359.02,-252.55C356.02,-236.51 351.17,-215.59 344,-198 338.81,-185.25 330.66,-171.94 324.17,-162.25"/>
<polygon fill="#63b8ff" stroke="#63b8ff" points="355.54,-252.98 360.71,-262.23 362.44,-251.78 355.54,-252.98"/>
</g>
<!-- Node6&#45;&gt;Node7 -->
<g id="edge7" class="edge">
<title>Node6&#45;&gt;Node7</title>
<path fill="none" stroke="#63b8ff" d="M325.8,-257.64C310.63,-248.09 293.94,-236.95 281.96,-228.31"/>
<polygon fill="#63b8ff" stroke="#63b8ff" points="323.86,-260.55 334.2,-262.84 327.54,-254.6 323.86,-260.55"/>
</g>
<!-- Node7&#45;&gt;Node3 -->
<g id="edge8" class="edge">
<title>Node7&#45;&gt;Node3</title>
<path fill="none" stroke="#63b8ff" d="M283.49,-188.68C290.15,-179.79 297.54,-169.95 303.38,-162.16"/>
<polygon fill="#63b8ff" stroke="#63b8ff" points="280.76,-186.49 277.56,-196.59 286.36,-190.69 280.76,-186.49"/>
</g>
<!-- Node7&#45;&gt;Node6 -->
<g id="edge9" class="edge">
<title>Node7&#45;&gt;Node6</title>
<path fill="none" stroke="#63b8ff" d="M303.26,-234.4C318.48,-243.98 335.22,-255.16 347.19,-263.8"/>
<polygon fill="#63b8ff" stroke="#63b8ff" points="305.18,-231.47 294.83,-229.18 301.49,-237.42 305.18,-231.47"/>
</g>
<!-- Node8&#45;&gt;Node3 -->
<g id="edge11" class="edge">
<title>Node8&#45;&gt;Node3</title>
<path fill="none" stroke="#63b8ff" d="M477.95,-318.59C477.47,-302 474.69,-280.46 465,-264 436.65,-215.86 379.92,-180.73 344.64,-162.41"/>
<polygon fill="#63b8ff" stroke="#63b8ff" points="474.45,-318.14 477.96,-328.13 481.45,-318.13 474.45,-318.14"/>
</g>
<!-- Node8&#45;&gt;Node6 -->
<g id="edge12" class="edge">
<title>Node8&#45;&gt;Node6</title>
<path fill="none" stroke="#63b8ff" d="M441.7,-324.18C424.49,-314.52 404.18,-303.12 388.5,-294.31"/>
<polygon fill="#63b8ff" stroke="#63b8ff" points="439.66,-327.05 450.1,-328.9 443.09,-320.95 439.66,-327.05"/>
</g>
<!-- Node8&#45;&gt;Node7 -->
<g id="edge13" class="edge">
<title>Node8&#45;&gt;Node7</title>
<path fill="none" stroke="#63b8ff" d="M471.59,-318.67C466.54,-300.97 457.27,-278.07 441,-264 411.61,-238.57 370.06,-226.04 334.82,-219.88"/>
<polygon fill="#63b8ff" stroke="#63b8ff" points="468.16,-319.36 474.01,-328.19 474.94,-317.64 468.16,-319.36"/>
</g>
<!-- Node9&#45;&gt;Node3 -->
<g id="edge21" class="edge">
<title>Node9&#45;&gt;Node3</title>
<path fill="none" stroke="#63b8ff" d="M180.74,-457.65C161.36,-450.03 141.05,-439.7 125,-426 93.29,-398.93 76,-387.69 76,-346 76,-346 76,-346 76,-278 76,-200.32 174.87,-168.77 245.16,-156.15"/>
<polygon fill="#63b8ff" stroke="#63b8ff" points="179.37,-460.87 189.96,-461.07 181.81,-454.31 179.37,-460.87"/>
</g>
<!-- Node9&#45;&gt;Node6 -->
<g id="edge22" class="edge">
<title>Node9&#45;&gt;Node6</title>
<path fill="none" stroke="#63b8ff" d="M264.74,-452.7C270.92,-444.5 277.59,-435.07 283,-426 307.13,-385.53 304.4,-370.79 328,-330 335.22,-317.53 344.64,-304.2 351.9,-294.44"/>
<polygon fill="#63b8ff" stroke="#63b8ff" points="262.08,-450.41 258.74,-460.46 267.62,-454.69 262.08,-450.41"/>
</g>
<!-- Node9&#45;&gt;Node7 -->
<g id="edge24" class="edge">
<title>Node9&#45;&gt;Node7</title>
<path fill="none" stroke="#63b8ff" d="M170.38,-456.98C155.6,-449.72 141.94,-439.73 133,-426 125.73,-414.83 128.86,-408.68 133,-396 156.56,-323.83 220.79,-256.52 250.52,-228.15"/>
<polygon fill="#63b8ff" stroke="#63b8ff" points="168.79,-460.1 179.35,-460.96 171.63,-453.7 168.79,-460.1"/>
</g>
<!-- Node9&#45;&gt;Node8 -->
<g id="edge23" class="edge">
<title>Node9&#45;&gt;Node8</title>
<path fill="none" stroke="#63b8ff" d="M281.63,-455.95C328.55,-429.55 409.93,-383.75 451.28,-360.47"/>
<polygon fill="#63b8ff" stroke="#63b8ff" points="279.92,-452.89 272.92,-460.85 283.35,-458.99 279.92,-452.89"/>
</g>
<!-- Node10 -->
<g id="node10" class="node">
<title>Node10</title>
<g id="a_node10"><a xlink:href="rowmod_8hpp.html" target="_top" xlink:title=" ">
<polygon fill="white" stroke="#666666" points="273.5,-426 142.5,-426 142.5,-396 273.5,-396 273.5,-426"/>
<text text-anchor="start" x="150.5" y="-414" font-family="Helvetica,sans-Serif" font-size="10.00">include/proxsuite/linalg</text>
<text text-anchor="middle" x="208" y="-403" font-family="Helvetica,sans-Serif" font-size="10.00">/sparse/rowmod.hpp</text>
</a>
</g>
</g>
<!-- Node9&#45;&gt;Node10 -->
<g id="edge16" class="edge">
<title>Node9&#45;&gt;Node10</title>
<path fill="none" stroke="#63b8ff" d="M231.82,-452.11C226.63,-443.38 220.93,-433.78 216.41,-426.16"/>
<polygon fill="#63b8ff" stroke="#63b8ff" points="228.68,-453.68 236.79,-460.49 234.7,-450.11 228.68,-453.68"/>
</g>
<!-- Node10&#45;&gt;Node3 -->
<g id="edge17" class="edge">
<title>Node10&#45;&gt;Node3</title>
<path fill="none" stroke="#63b8ff" d="M196.19,-385.1C177.98,-342.68 149,-255.43 188,-198 201.15,-178.63 223.12,-166.76 245.06,-159.49"/>
<polygon fill="#63b8ff" stroke="#63b8ff" points="192.98,-386.49 200.25,-394.19 199.37,-383.64 192.98,-386.49"/>
</g>
<!-- Node10&#45;&gt;Node6 -->
<g id="edge18" class="edge">
<title>Node10&#45;&gt;Node6</title>
<path fill="none" stroke="#63b8ff" d="M228.95,-387.56C244.98,-370.9 268,-348.04 290,-330 305.92,-316.95 325.17,-303.86 339.91,-294.35"/>
<polygon fill="#63b8ff" stroke="#63b8ff" points="226.65,-384.9 222.29,-394.55 231.72,-389.73 226.65,-384.9"/>
</g>
<!-- Node10&#45;&gt;Node7 -->
<g id="edge20" class="edge">
<title>Node10&#45;&gt;Node7</title>
<path fill="none" stroke="#63b8ff" d="M215.47,-384.76C227.78,-343.16 251.94,-261.51 261.73,-228.43"/>
<polygon fill="#63b8ff" stroke="#63b8ff" points="212.18,-383.55 212.69,-394.14 218.89,-385.54 212.18,-383.55"/>
</g>
<!-- Node10&#45;&gt;Node8 -->
<g id="edge19" class="edge">
<title>Node10&#45;&gt;Node8</title>
<path fill="none" stroke="#63b8ff" d="M279.87,-392.9C322.53,-382.75 376.02,-370.02 416.52,-360.39"/>
<polygon fill="#63b8ff" stroke="#63b8ff" points="279.1,-389.49 270.18,-395.21 280.72,-396.3 279.1,-389.49"/>
</g>
<!-- Node11&#45;&gt;Node3 -->
<g id="edge36" class="edge">
<title>Node11&#45;&gt;Node3</title>
<path fill="none" stroke="#63b8ff" d="M652.93,-385.23C645.5,-368.66 634.4,-346.87 621,-330 565.15,-259.67 546.25,-242.07 468,-198 439.96,-182.21 406.19,-170.54 377.43,-162.46"/>
<polygon fill="#63b8ff" stroke="#63b8ff" points="649.69,-386.56 656.86,-394.36 656.12,-383.8 649.69,-386.56"/>
</g>
<!-- Node11&#45;&gt;Node6 -->
<g id="edge37" class="edge">
<title>Node11&#45;&gt;Node6</title>
<path fill="none" stroke="#63b8ff" d="M639.32,-388.23C618.52,-370.2 586.72,-345.17 555,-330 516.16,-311.42 469.47,-299.06 431.86,-291.28"/>
<polygon fill="#63b8ff" stroke="#63b8ff" points="636.84,-390.72 646.65,-394.72 641.48,-385.47 636.84,-390.72"/>
</g>
<!-- Node11&#45;&gt;Node7 -->
<g id="edge39" class="edge">
<title>Node11&#45;&gt;Node7</title>
<path fill="none" stroke="#63b8ff" d="M646.08,-386.7C632.76,-369.52 613.01,-346.38 592,-330 515.36,-270.26 405.43,-239.7 334.86,-225.3"/>
<polygon fill="#63b8ff" stroke="#63b8ff" points="643.04,-388.48 651.86,-394.34 648.62,-384.26 643.04,-388.48"/>
</g>
<!-- Node11&#45;&gt;Node8 -->
<g id="edge38" class="edge">
<title>Node11&#45;&gt;Node8</title>
<path fill="none" stroke="#63b8ff" d="M610.5,-391.94C581.53,-381.97 546.03,-369.75 518.92,-360.43"/>
<polygon fill="#63b8ff" stroke="#63b8ff" points="609.23,-395.2 619.83,-395.14 611.51,-388.58 609.23,-395.2"/>
</g>
<!-- Node12 -->
<g id="node12" class="node">
<title>Node12</title>
<g id="a_node12"><a xlink:href="proxqp_2dense_2model_8hpp.html" target="_top" xlink:title=" ">
<polygon fill="white" stroke="#666666" points="1054.5,-360 917.5,-360 917.5,-330 1054.5,-330 1054.5,-360"/>
<text text-anchor="start" x="925.5" y="-348" font-family="Helvetica,sans-Serif" font-size="10.00">include/proxsuite/proxqp</text>
<text text-anchor="middle" x="986" y="-337" font-family="Helvetica,sans-Serif" font-size="10.00">/dense/model.hpp</text>
</a>
</g>
</g>
<!-- Node11&#45;&gt;Node12 -->
<g id="edge26" class="edge">
<title>Node11&#45;&gt;Node12</title>
<path fill="none" stroke="#63b8ff" d="M743.05,-394.14C796.56,-383.54 866.21,-369.74 917.21,-359.63"/>
<polygon fill="#63b8ff" stroke="#63b8ff" points="742.51,-390.68 733.38,-396.05 743.87,-397.54 742.51,-390.68"/>
</g>
<!-- Node19 -->
<g id="node19" class="node">
<title>Node19</title>
<g id="a_node19"><a xlink:href="random__qp__problems_8hpp.html" target="_top" xlink:title=" ">
<polygon fill="white" stroke="#666666" points="886,-294 716,-294 716,-264 886,-264 886,-294"/>
<text text-anchor="start" x="724" y="-282" font-family="Helvetica,sans-Serif" font-size="10.00">include/proxsuite/proxqp</text>
<text text-anchor="middle" x="801" y="-271" font-family="Helvetica,sans-Serif" font-size="10.00">/utils/random_qp_problems.hpp</text>
</a>
</g>
</g>
<!-- Node11&#45;&gt;Node19 -->
<g id="edge40" class="edge">
<title>Node11&#45;&gt;Node19</title>
<path fill="none" stroke="#63b8ff" d="M686.44,-387.92C714.75,-361.25 761.55,-317.16 785.64,-294.47"/>
<polygon fill="#63b8ff" stroke="#63b8ff" points="684.28,-385.15 679.4,-394.55 689.08,-390.24 684.28,-385.15"/>
</g>
<!-- Node13 -->
<g id="node13" class="node">
<title>Node13</title>
<g id="a_node13"><a xlink:href="linesearch_8hpp.html" target="_top" xlink:title=" ">
<polygon fill="white" stroke="#666666" points="1378.5,-294 1241.5,-294 1241.5,-264 1378.5,-264 1378.5,-294"/>
<text text-anchor="start" x="1249.5" y="-282" font-family="Helvetica,sans-Serif" font-size="10.00">include/proxsuite/proxqp</text>
<text text-anchor="middle" x="1310" y="-271" font-family="Helvetica,sans-Serif" font-size="10.00">/dense/linesearch.hpp</text>
</a>
</g>
</g>
<!-- Node12&#45;&gt;Node13 -->
<g id="edge27" class="edge">
<title>Node12&#45;&gt;Node13</title>
<path fill="none" stroke="#63b8ff" d="M1065.92,-328.21C1119.68,-317.59 1189.82,-303.74 1241.11,-293.61"/>
<polygon fill="#63b8ff" stroke="#63b8ff" points="1065.33,-324.76 1056.2,-330.13 1066.69,-331.63 1065.33,-324.76"/>
</g>
<!-- Node18 -->
<g id="node18" class="node">
<title>Node18</title>
<g id="a_node18"><a xlink:href="dense_2utils_8hpp.html" target="_top" xlink:title=" ">
<polygon fill="white" stroke="#666666" points="1223.5,-294 1086.5,-294 1086.5,-264 1223.5,-264 1223.5,-294"/>
<text text-anchor="start" x="1094.5" y="-282" font-family="Helvetica,sans-Serif" font-size="10.00">include/proxsuite/proxqp</text>
<text text-anchor="middle" x="1155" y="-271" font-family="Helvetica,sans-Serif" font-size="10.00">/dense/utils.hpp</text>
</a>
</g>
</g>
<!-- Node12&#45;&gt;Node18 -->
<g id="edge32" class="edge">
<title>Node12&#45;&gt;Node18</title>
<path fill="none" stroke="#63b8ff" d="M1034.4,-325.67C1060.6,-315.75 1092.5,-303.67 1116.91,-294.43"/>
<polygon fill="#63b8ff" stroke="#63b8ff" points="1033.45,-322.29 1025.34,-329.1 1035.93,-328.83 1033.45,-322.29"/>
</g>
<!-- Node12&#45;&gt;Node19 -->
<g id="edge34" class="edge">
<title>Node12&#45;&gt;Node19</title>
<path fill="none" stroke="#63b8ff" d="M933.78,-325.94C904.96,-315.97 869.66,-303.75 842.7,-294.43"/>
<polygon fill="#63b8ff" stroke="#63b8ff" points="932.46,-329.18 943.05,-329.14 934.75,-322.57 932.46,-329.18"/>
</g>
<!-- Node20 -->
<g id="node20" class="node">
<title>Node20</title>
<g id="a_node20"><a xlink:href="serialization_2model_8hpp.html" target="_top" xlink:title=" ">
<polygon fill="white" stroke="#666666" points="1068,-294 904,-294 904,-264 1068,-264 1068,-294"/>
<text text-anchor="start" x="912" y="-282" font-family="Helvetica,sans-Serif" font-size="10.00">include/proxsuite/serialization</text>
<text text-anchor="middle" x="986" y="-271" font-family="Helvetica,sans-Serif" font-size="10.00">/model.hpp</text>
</a>
</g>
</g>
<!-- Node12&#45;&gt;Node20 -->
<g id="edge35" class="edge">
<title>Node12&#45;&gt;Node20</title>
<path fill="none" stroke="#63b8ff" d="M986,-318.39C986,-310.13 986,-301.28 986,-294.16"/>
<polygon fill="#63b8ff" stroke="#63b8ff" points="982.5,-318.28 986,-328.28 989.5,-318.28 982.5,-318.28"/>
</g>
<!-- Node14 -->
<g id="node14" class="node">
<title>Node14</title>
<g id="a_node14"><a xlink:href="dense_2solver_8hpp.html" target="_top" xlink:title=" ">
<polygon fill="white" stroke="#666666" points="1300.5,-228 1163.5,-228 1163.5,-198 1300.5,-198 1300.5,-228"/>
<text text-anchor="start" x="1171.5" y="-216" font-family="Helvetica,sans-Serif" font-size="10.00">include/proxsuite/proxqp</text>
<text text-anchor="middle" x="1232" y="-205" font-family="Helvetica,sans-Serif" font-size="10.00">/dense/solver.hpp</text>
</a>
</g>
</g>
<!-- Node13&#45;&gt;Node14 -->
<g id="edge28" class="edge">
<title>Node13&#45;&gt;Node14</title>
<path fill="none" stroke="#63b8ff" d="M1284.04,-256.7C1272.7,-247.4 1259.7,-236.73 1249.53,-228.39"/>
<polygon fill="#63b8ff" stroke="#63b8ff" points="1281.57,-259.2 1291.52,-262.84 1286.01,-253.79 1281.57,-259.2"/>
</g>
<!-- Node15 -->
<g id="node15" class="node">
<title>Node15</title>
<g id="a_node15"><a xlink:href="proxqp_2dense_2wrapper_8hpp.html" target="_top" xlink:title=" ">
<polygon fill="white" stroke="#666666" points="1300.5,-162 1163.5,-162 1163.5,-132 1300.5,-132 1300.5,-162"/>
<text text-anchor="start" x="1171.5" y="-150" font-family="Helvetica,sans-Serif" font-size="10.00">include/proxsuite/proxqp</text>
<text text-anchor="middle" x="1232" y="-139" font-family="Helvetica,sans-Serif" font-size="10.00">/dense/wrapper.hpp</text>
</a>
</g>
</g>
<!-- Node14&#45;&gt;Node15 -->
<g id="edge29" class="edge">
<title>Node14&#45;&gt;Node15</title>
<path fill="none" stroke="#63b8ff" d="M1232,-186.39C1232,-178.13 1232,-169.28 1232,-162.16"/>
<polygon fill="#63b8ff" stroke="#63b8ff" points="1228.5,-186.28 1232,-196.28 1235.5,-186.28 1228.5,-186.28"/>
</g>
<!-- Node16 -->
<g id="node16" class="node">
<title>Node16</title>
<g id="a_node16"><a xlink:href="dense_8hpp.html" target="_top" xlink:title=" ">
<polygon fill="white" stroke="#666666" points="1385.5,-96 1248.5,-96 1248.5,-66 1385.5,-66 1385.5,-96"/>
<text text-anchor="start" x="1256.5" y="-84" font-family="Helvetica,sans-Serif" font-size="10.00">include/proxsuite/proxqp</text>
<text text-anchor="middle" x="1317" y="-73" font-family="Helvetica,sans-Serif" font-size="10.00">/dense/dense.hpp</text>
</a>
</g>
</g>
<!-- Node15&#45;&gt;Node16 -->
<g id="edge30" class="edge">
<title>Node15&#45;&gt;Node16</title>
<path fill="none" stroke="#63b8ff" d="M1259.92,-124.97C1272.37,-115.61 1286.7,-104.81 1297.89,-96.39"/>
<polygon fill="#63b8ff" stroke="#63b8ff" points="1257.96,-122.07 1252.07,-130.89 1262.17,-127.67 1257.96,-122.07"/>
</g>
<!-- Node17 -->
<g id="node17" class="node">
<title>Node17</title>
<g id="a_node17"><a xlink:href="serialization_2wrapper_8hpp.html" target="_top" xlink:title=" ">
<polygon fill="white" stroke="#666666" points="1230,-96 1066,-96 1066,-66 1230,-66 1230,-96"/>
<text text-anchor="start" x="1074" y="-84" font-family="Helvetica,sans-Serif" font-size="10.00">include/proxsuite/serialization</text>
<text text-anchor="middle" x="1148" y="-73" font-family="Helvetica,sans-Serif" font-size="10.00">/wrapper.hpp</text>
</a>
</g>
</g>
<!-- Node15&#45;&gt;Node17 -->
<g id="edge31" class="edge">
<title>Node15&#45;&gt;Node17</title>
<path fill="none" stroke="#63b8ff" d="M1204.4,-124.97C1192.11,-115.61 1177.94,-104.81 1166.88,-96.39"/>
<polygon fill="#63b8ff" stroke="#63b8ff" points="1202.08,-127.6 1212.15,-130.88 1206.32,-122.03 1202.08,-127.6"/>
</g>
<!-- Node18&#45;&gt;Node14 -->
<g id="edge33" class="edge">
<title>Node18&#45;&gt;Node14</title>
<path fill="none" stroke="#63b8ff" d="M1180.63,-256.7C1191.82,-247.4 1204.65,-236.73 1214.69,-228.39"/>
<polygon fill="#63b8ff" stroke="#63b8ff" points="1178.71,-253.75 1173.25,-262.83 1183.18,-259.13 1178.71,-253.75"/>
</g>
</g>
</svg>
