<?xml version="1.0" encoding="UTF-8" standalone="no"?>
<!DOCTYPE svg PUBLIC "-//W3C//DTD SVG 1.1//EN"
 "http://www.w3.org/Graphics/SVG/1.1/DTD/svg11.dtd">
<!-- Generated by graphviz version 8.1.0 (20230707.2238)
 -->
<!-- Title: include/proxsuite/proxqp/sparse/solver.hpp Pages: 1 -->
<svg width="674pt" height="320pt"
 viewBox="0.00 0.00 673.75 319.50" xmlns="http://www.w3.org/2000/svg" xmlns:xlink="http://www.w3.org/1999/xlink">
<g id="graph0" class="graph" transform="scale(1 1) rotate(0) translate(4 315.5)">
<title>include/proxsuite/proxqp/sparse/solver.hpp</title>
<!-- Node1 -->
<g id="Node000001" class="node">
<title>Node1</title>
<g id="a_Node000001"><a xlink:title=" ">
<polygon fill="#999999" stroke="#666666" points="569.75,-311.5 433,-311.5 433,-278 569.75,-278 569.75,-311.5"/>
<text text-anchor="start" x="441" y="-298" font-family="Helvetica,sans-Serif" font-size="10.00">include/proxsuite/proxqp</text>
<text text-anchor="middle" x="501.38" y="-285.25" font-family="Helvetica,sans-Serif" font-size="10.00">/sparse/solver.hpp</text>
</a>
</g>
</g>
<!-- Node2 -->
<g id="Node000002" class="node">
<title>Node2</title>
<g id="a_Node000002"><a xlink:href="proxqp_2sparse_2wrapper_8hpp.html" target="_top" xlink:title=" ">
<polygon fill="white" stroke="#666666" points="569.75,-242 433,-242 433,-208.5 569.75,-208.5 569.75,-242"/>
<text text-anchor="start" x="441" y="-228.5" font-family="Helvetica,sans-Serif" font-size="10.00">include/proxsuite/proxqp</text>
<text text-anchor="middle" x="501.38" y="-215.75" font-family="Helvetica,sans-Serif" font-size="10.00">/sparse/wrapper.hpp</text>
</a>
</g>
</g>
<!-- Node1&#45;&gt;Node2 -->
<g id="edge1_Node000001_Node000002" class="edge">
<title>Node1&#45;&gt;Node2</title>
<g id="a_edge1_Node000001_Node000002"><a xlink:title=" ">
<path fill="none" stroke="#63b8ff" d="M501.38,-266.89C501.38,-258.5 501.38,-249.51 501.38,-242.13"/>
<polygon fill="#63b8ff" stroke="#63b8ff" points="497.88,-266.75 501.38,-276.75 504.88,-266.75 497.88,-266.75"/>
</a>
</g>
</g>
<!-- Node3 -->
<g id="Node000003" class="node">
<title>Node3</title>
<g id="a_Node000003"><a xlink:href="proxqp_2dense_2wrapper_8hpp.html" target="_top" xlink:title=" ">
<polygon fill="white" stroke="#666666" points="375.75,-172.5 239,-172.5 239,-139 375.75,-139 375.75,-172.5"/>
<text text-anchor="start" x="247" y="-159" font-family="Helvetica,sans-Serif" font-size="10.00">include/proxsuite/proxqp</text>
<text text-anchor="middle" x="307.38" y="-146.25" font-family="Helvetica,sans-Serif" font-size="10.00">/dense/wrapper.hpp</text>
</a>
</g>
</g>
<!-- Node2&#45;&gt;Node3 -->
<g id="edge2_Node000002_Node000003" class="edge">
<title>Node2&#45;&gt;Node3</title>
<g id="a_edge2_Node000002_Node000003"><a xlink:title=" ">
<path fill="none" stroke="#63b8ff" d="M444.56,-204.48C415.69,-194.44 381.05,-182.38 353.8,-172.9"/>
<polygon fill="#63b8ff" stroke="#63b8ff" points="443.31,-208.1 453.91,-208.08 445.61,-201.49 443.31,-208.1"/>
</a>
</g>
</g>
<!-- Node5 -->
<g id="Node000005" class="node">
<title>Node5</title>
<g id="a_Node000005"><a xlink:href="qp__solve_8hpp.html" target="_top" xlink:title=" ">
<polygon fill="white" stroke="#666666" points="352.75,-33.5 216,-33.5 216,0 352.75,0 352.75,-33.5"/>
<text text-anchor="start" x="224" y="-20" font-family="Helvetica,sans-Serif" font-size="10.00">include/proxsuite/proxqp</text>
<text text-anchor="middle" x="284.38" y="-7.25" font-family="Helvetica,sans-Serif" font-size="10.00">/parallel/qp_solve.hpp</text>
</a>
</g>
</g>
<!-- Node2&#45;&gt;Node5 -->
<g id="edge7_Node000002_Node000005" class="edge">
<title>Node2&#45;&gt;Node5</title>
<g id="a_edge7_Node000002_Node000005"><a xlink:title=" ">
<path fill="none" stroke="#63b8ff" d="M506.3,-197.87C511.01,-163.9 513.44,-105.01 482.38,-69.5 465.3,-49.98 403.3,-35.89 353.17,-27.39"/>
<polygon fill="#63b8ff" stroke="#63b8ff" points="502.74,-196.95 504.66,-207.37 509.66,-198.03 502.74,-196.95"/>
</a>
</g>
</g>
<!-- Node8 -->
<g id="Node000008" class="node">
<title>Node8</title>
<g id="a_Node000008"><a xlink:href="sparse_8hpp.html" target="_top" xlink:title=" ">
<polygon fill="white" stroke="#666666" points="665.75,-172.5 529,-172.5 529,-139 665.75,-139 665.75,-172.5"/>
<text text-anchor="start" x="537" y="-159" font-family="Helvetica,sans-Serif" font-size="10.00">include/proxsuite/proxqp</text>
<text text-anchor="middle" x="597.38" y="-146.25" font-family="Helvetica,sans-Serif" font-size="10.00">/sparse/sparse.hpp</text>
</a>
</g>
</g>
<!-- Node2&#45;&gt;Node8 -->
<g id="edge8_Node000002_Node000008" class="edge">
<title>Node2&#45;&gt;Node8</title>
<g id="a_edge8_Node000002_Node000008"><a xlink:title=" ">
<path fill="none" stroke="#63b8ff" d="M533.11,-201.94C546.62,-192.44 562.08,-181.56 574.45,-172.87"/>
<polygon fill="#63b8ff" stroke="#63b8ff" points="531.29,-199.64 525.13,-208.25 535.32,-205.36 531.29,-199.64"/>
</a>
</g>
</g>
<!-- Node4 -->
<g id="Node000004" class="node">
<title>Node4</title>
<g id="a_Node000004"><a xlink:href="compute__ECJ_8hpp.html" target="_top" xlink:title=" ">
<polygon fill="white" stroke="#666666" points="136.75,-103 0,-103 0,-69.5 136.75,-69.5 136.75,-103"/>
<text text-anchor="start" x="8" y="-89.5" font-family="Helvetica,sans-Serif" font-size="10.00">include/proxsuite/proxqp</text>
<text text-anchor="middle" x="68.38" y="-76.75" font-family="Helvetica,sans-Serif" font-size="10.00">/dense/compute_ECJ.hpp</text>
</a>
</g>
</g>
<!-- Node3&#45;&gt;Node4 -->
<g id="edge3_Node000003_Node000004" class="edge">
<title>Node3&#45;&gt;Node4</title>
<g id="a_edge3_Node000003_Node000004"><a xlink:title=" ">
<path fill="none" stroke="#63b8ff" d="M239.71,-135.64C203.69,-125.47 159.87,-113.09 125.57,-103.4"/>
<polygon fill="#63b8ff" stroke="#63b8ff" points="238.55,-139.23 249.13,-138.58 240.46,-132.5 238.55,-139.23"/>
</a>
</g>
</g>
<!-- Node6 -->
<g id="Node000006" class="node">
<title>Node6</title>
<g id="a_Node000006"><a xlink:href="dense_8hpp.html" target="_top" xlink:title=" ">
<polygon fill="white" stroke="#666666" points="291.75,-103 155,-103 155,-69.5 291.75,-69.5 291.75,-103"/>
<text text-anchor="start" x="163" y="-89.5" font-family="Helvetica,sans-Serif" font-size="10.00">include/proxsuite/proxqp</text>
<text text-anchor="middle" x="223.38" y="-76.75" font-family="Helvetica,sans-Serif" font-size="10.00">/dense/dense.hpp</text>
</a>
</g>
</g>
<!-- Node3&#45;&gt;Node6 -->
<g id="edge5_Node000003_Node000006" class="edge">
<title>Node3&#45;&gt;Node6</title>
<g id="a_edge5_Node000003_Node000006"><a xlink:title=" ">
<path fill="none" stroke="#63b8ff" d="M278.93,-131.89C267.27,-122.52 254.05,-111.9 243.43,-103.37"/>
<polygon fill="#63b8ff" stroke="#63b8ff" points="276.48,-135.22 286.47,-138.75 280.87,-129.76 276.48,-135.22"/>
</a>
</g>
</g>
<!-- Node7 -->
<g id="Node000007" class="node">
<title>Node7</title>
<g id="a_Node000007"><a xlink:href="serialization_2wrapper_8hpp.html" target="_top" xlink:title=" ">
<polygon fill="white" stroke="#666666" points="472.88,-103 309.88,-103 309.88,-69.5 472.88,-69.5 472.88,-103"/>
<text text-anchor="start" x="317.88" y="-89.5" font-family="Helvetica,sans-Serif" font-size="10.00">include/proxsuite/serialization</text>
<text text-anchor="middle" x="391.38" y="-76.75" font-family="Helvetica,sans-Serif" font-size="10.00">/wrapper.hpp</text>
</a>
</g>
</g>
<!-- Node3&#45;&gt;Node7 -->
<g id="edge6_Node000003_Node000007" class="edge">
<title>Node3&#45;&gt;Node7</title>
<g id="a_edge6_Node000003_Node000007"><a xlink:title=" ">
<path fill="none" stroke="#63b8ff" d="M335.82,-131.89C347.48,-122.52 360.7,-111.9 371.32,-103.37"/>
<polygon fill="#63b8ff" stroke="#63b8ff" points="333.88,-129.76 328.28,-138.75 338.27,-135.22 333.88,-129.76"/>
</a>
</g>
</g>
<!-- Node4&#45;&gt;Node5 -->
<g id="edge4_Node000004_Node000005" class="edge">
<title>Node4&#45;&gt;Node5</title>
<g id="a_edge4_Node000004_Node000005"><a xlink:title=" ">
<path fill="none" stroke="#63b8ff" d="M130.37,-65.88C162.77,-55.75 201.95,-43.51 232.69,-33.9"/>
<polygon fill="#63b8ff" stroke="#63b8ff" points="129.61,-62.76 121.11,-69.08 131.7,-69.44 129.61,-62.76"/>
</a>
</g>
</g>
</g>
</svg>
