<?xml version="1.0" encoding="UTF-8" standalone="no"?>
<!DOCTYPE svg PUBLIC "-//W3C//DTD SVG 1.1//EN"
 "http://www.w3.org/Graphics/SVG/1.1/DTD/svg11.dtd">
<!-- Generated by graphviz version 6.0.2 (20221126.1951)
 -->
<!-- Title: include/proxsuite/proxqp/sparse/model.hpp Pages: 1 -->
<svg width="852pt" height="434pt"
 viewBox="0.00 0.00 851.86 434.00" xmlns="http://www.w3.org/2000/svg" xmlns:xlink="http://www.w3.org/1999/xlink">
<g id="graph0" class="graph" transform="scale(1 1) rotate(0) translate(4 430)">
<title>include/proxsuite/proxqp/sparse/model.hpp</title>
<!-- Node1 -->
<g id="node1" class="node">
<title>Node1</title>
<g id="a_node1"><a xlink:title=" ">
<polygon fill="#999999" stroke="#666666" points="684,-426 547,-426 547,-396 684,-396 684,-426"/>
<text text-anchor="start" x="555" y="-414" font-family="Helvetica,sans-Serif" font-size="10.00">include/proxsuite/proxqp</text>
<text text-anchor="middle" x="615.5" y="-403" font-family="Helvetica,sans-Serif" font-size="10.00">/sparse/model.hpp</text>
</a>
</g>
</g>
<!-- Node2 -->
<g id="node2" class="node">
<title>Node2</title>
<g id="a_node2"><a xlink:href="dense_2model_8hpp.html" target="_top" xlink:title=" ">
<polygon fill="white" stroke="#666666" points="378,-360 241,-360 241,-330 378,-330 378,-360"/>
<text text-anchor="start" x="249" y="-348" font-family="Helvetica,sans-Serif" font-size="10.00">include/proxsuite/proxqp</text>
<text text-anchor="middle" x="309.5" y="-337" font-family="Helvetica,sans-Serif" font-size="10.00">/dense/model.hpp</text>
</a>
</g>
</g>
<!-- Node1&#45;&gt;Node2 -->
<g id="edge1" class="edge">
<title>Node1&#45;&gt;Node2</title>
<path fill="none" stroke="#63b8ff" d="M538.26,-393.84C488.4,-383.42 424.19,-369.99 376.5,-360.01"/>
<polygon fill="#63b8ff" stroke="#63b8ff" points="537.84,-397.33 548.35,-395.95 539.28,-390.48 537.84,-397.33"/>
</g>
<!-- Node8 -->
<g id="node8" class="node">
<title>Node8</title>
<g id="a_node8"><a xlink:href="random__qp__problems_8hpp.html" target="_top" xlink:title=" ">
<polygon fill="white" stroke="#666666" points="480.5,-294 310.5,-294 310.5,-264 480.5,-264 480.5,-294"/>
<text text-anchor="start" x="318.5" y="-282" font-family="Helvetica,sans-Serif" font-size="10.00">include/proxsuite/proxqp</text>
<text text-anchor="middle" x="395.5" y="-271" font-family="Helvetica,sans-Serif" font-size="10.00">/utils/random_qp_problems.hpp</text>
</a>
</g>
</g>
<!-- Node1&#45;&gt;Node8 -->
<g id="edge21" class="edge">
<title>Node1&#45;&gt;Node8</title>
<path fill="none" stroke="#63b8ff" d="M582.82,-390.69C538.13,-364.28 459,-317.53 419.43,-294.14"/>
<polygon fill="#63b8ff" stroke="#63b8ff" points="581.15,-393.77 591.54,-395.84 584.71,-387.74 581.15,-393.77"/>
</g>
<!-- Node9 -->
<g id="node9" class="node">
<title>Node9</title>
<g id="a_node9"><a xlink:href="sparse_2solver_8hpp.html" target="_top" xlink:title=" ">
<polygon fill="white" stroke="#666666" points="781,-162 644,-162 644,-132 781,-132 781,-162"/>
<text text-anchor="start" x="652" y="-150" font-family="Helvetica,sans-Serif" font-size="10.00">include/proxsuite/proxqp</text>
<text text-anchor="middle" x="712.5" y="-139" font-family="Helvetica,sans-Serif" font-size="10.00">/sparse/solver.hpp</text>
</a>
</g>
</g>
<!-- Node1&#45;&gt;Node9 -->
<g id="edge9" class="edge">
<title>Node1&#45;&gt;Node9</title>
<path fill="none" stroke="#63b8ff" d="M694.24,-394.82C718.34,-387.32 743.69,-376.25 763.5,-360 815.84,-317.06 822.02,-293.4 839.5,-228 842.94,-215.12 847.01,-209.02 839.5,-198 826.1,-178.32 803.64,-166.38 781.31,-159.15"/>
<polygon fill="#63b8ff" stroke="#63b8ff" points="692.98,-391.54 684.37,-397.71 694.95,-398.25 692.98,-391.54"/>
</g>
<!-- Node12 -->
<g id="node12" class="node">
<title>Node12</title>
<g id="a_node12"><a xlink:href="sparse_2utils_8hpp.html" target="_top" xlink:title=" ">
<polygon fill="white" stroke="#666666" points="636,-294 499,-294 499,-264 636,-264 636,-294"/>
<text text-anchor="start" x="507" y="-282" font-family="Helvetica,sans-Serif" font-size="10.00">include/proxsuite/proxqp</text>
<text text-anchor="middle" x="567.5" y="-271" font-family="Helvetica,sans-Serif" font-size="10.00">/sparse/utils.hpp</text>
</a>
</g>
</g>
<!-- Node1&#45;&gt;Node12 -->
<g id="edge12" class="edge">
<title>Node1&#45;&gt;Node12</title>
<path fill="none" stroke="#63b8ff" d="M600.9,-386.93C596.12,-378.67 591.13,-369.14 587.5,-360 578.68,-337.78 572.86,-310.5 569.87,-294.23"/>
<polygon fill="#63b8ff" stroke="#63b8ff" points="597.96,-388.85 606.1,-395.63 603.97,-385.25 597.96,-388.85"/>
</g>
<!-- Node13 -->
<g id="node13" class="node">
<title>Node13</title>
<g id="a_node13"><a xlink:href="sparse_2workspace_8hpp.html" target="_top" xlink:title=" ">
<polygon fill="white" stroke="#666666" points="830,-228 693,-228 693,-198 830,-198 830,-228"/>
<text text-anchor="start" x="701" y="-216" font-family="Helvetica,sans-Serif" font-size="10.00">include/proxsuite/proxqp</text>
<text text-anchor="middle" x="761.5" y="-205" font-family="Helvetica,sans-Serif" font-size="10.00">/sparse/workspace.hpp</text>
</a>
</g>
</g>
<!-- Node1&#45;&gt;Node13 -->
<g id="edge20" class="edge">
<title>Node1&#45;&gt;Node13</title>
<path fill="none" stroke="#63b8ff" d="M693.7,-393.94C712.26,-386.54 730.22,-375.74 742.5,-360 773.16,-320.7 768.14,-256.56 764,-228.22"/>
<polygon fill="#63b8ff" stroke="#63b8ff" points="692.44,-390.67 684.26,-397.41 694.85,-397.24 692.44,-390.67"/>
</g>
<!-- Node14 -->
<g id="node14" class="node">
<title>Node14</title>
<g id="a_node14"><a xlink:href="sparse_2views_8hpp.html" target="_top" xlink:title=" ">
<polygon fill="white" stroke="#666666" points="733,-360 596,-360 596,-330 733,-330 733,-360"/>
<text text-anchor="start" x="604" y="-348" font-family="Helvetica,sans-Serif" font-size="10.00">include/proxsuite/proxqp</text>
<text text-anchor="middle" x="664.5" y="-337" font-family="Helvetica,sans-Serif" font-size="10.00">/sparse/views.hpp</text>
</a>
</g>
</g>
<!-- Node1&#45;&gt;Node14 -->
<g id="edge16" class="edge">
<title>Node1&#45;&gt;Node14</title>
<path fill="none" stroke="#63b8ff" d="M632.49,-387.81C639.51,-378.64 647.44,-368.28 653.66,-360.16"/>
<polygon fill="#63b8ff" stroke="#63b8ff" points="629.67,-385.73 626.37,-395.8 635.23,-389.98 629.67,-385.73"/>
</g>
<!-- Node3 -->
<g id="node3" class="node">
<title>Node3</title>
<g id="a_node3"><a xlink:href="linesearch_8hpp.html" target="_top" xlink:title=" ">
<polygon fill="white" stroke="#666666" points="137,-294 0,-294 0,-264 137,-264 137,-294"/>
<text text-anchor="start" x="8" y="-282" font-family="Helvetica,sans-Serif" font-size="10.00">include/proxsuite/proxqp</text>
<text text-anchor="middle" x="68.5" y="-271" font-family="Helvetica,sans-Serif" font-size="10.00">/dense/linesearch.hpp</text>
</a>
</g>
</g>
<!-- Node2&#45;&gt;Node3 -->
<g id="edge2" class="edge">
<title>Node2&#45;&gt;Node3</title>
<path fill="none" stroke="#63b8ff" d="M246.94,-327.39C207.92,-317.03 158.28,-303.84 121.27,-294.01"/>
<polygon fill="#63b8ff" stroke="#63b8ff" points="246.05,-330.77 256.61,-329.95 247.84,-324.01 246.05,-330.77"/>
</g>
<!-- Node7 -->
<g id="node7" class="node">
<title>Node7</title>
<g id="a_node7"><a xlink:href="dense_2utils_8hpp.html" target="_top" xlink:title=" ">
<polygon fill="white" stroke="#666666" points="292,-294 155,-294 155,-264 292,-264 292,-294"/>
<text text-anchor="start" x="163" y="-282" font-family="Helvetica,sans-Serif" font-size="10.00">include/proxsuite/proxqp</text>
<text text-anchor="middle" x="223.5" y="-271" font-family="Helvetica,sans-Serif" font-size="10.00">/dense/utils.hpp</text>
</a>
</g>
</g>
<!-- Node2&#45;&gt;Node7 -->
<g id="edge6" class="edge">
<title>Node2&#45;&gt;Node7</title>
<path fill="none" stroke="#63b8ff" d="M282.29,-323.75C269.36,-314.13 254.21,-302.86 242.53,-294.16"/>
<polygon fill="#63b8ff" stroke="#63b8ff" points="280.3,-326.63 290.41,-329.8 284.48,-321.02 280.3,-326.63"/>
</g>
<!-- Node2&#45;&gt;Node8 -->
<g id="edge8" class="edge">
<title>Node2&#45;&gt;Node8</title>
<path fill="none" stroke="#63b8ff" d="M336.71,-323.75C349.64,-314.13 364.79,-302.86 376.47,-294.16"/>
<polygon fill="#63b8ff" stroke="#63b8ff" points="334.52,-321.02 328.59,-329.8 338.7,-326.63 334.52,-321.02"/>
</g>
<!-- Node4 -->
<g id="node4" class="node">
<title>Node4</title>
<g id="a_node4"><a xlink:href="dense_2solver_8hpp.html" target="_top" xlink:title=" ">
<polygon fill="white" stroke="#666666" points="215,-228 78,-228 78,-198 215,-198 215,-228"/>
<text text-anchor="start" x="86" y="-216" font-family="Helvetica,sans-Serif" font-size="10.00">include/proxsuite/proxqp</text>
<text text-anchor="middle" x="146.5" y="-205" font-family="Helvetica,sans-Serif" font-size="10.00">/dense/solver.hpp</text>
</a>
</g>
</g>
<!-- Node3&#45;&gt;Node4 -->
<g id="edge3" class="edge">
<title>Node3&#45;&gt;Node4</title>
<path fill="none" stroke="#63b8ff" d="M93.85,-257.2C105.43,-247.7 118.85,-236.69 129.24,-228.16"/>
<polygon fill="#63b8ff" stroke="#63b8ff" points="91.32,-254.75 85.81,-263.8 95.76,-260.16 91.32,-254.75"/>
</g>
<!-- Node5 -->
<g id="node5" class="node">
<title>Node5</title>
<g id="a_node5"><a xlink:href="dense_2wrapper_8hpp.html" target="_top" xlink:title=" ">
<polygon fill="white" stroke="#666666" points="215,-162 78,-162 78,-132 215,-132 215,-162"/>
<text text-anchor="start" x="86" y="-150" font-family="Helvetica,sans-Serif" font-size="10.00">include/proxsuite/proxqp</text>
<text text-anchor="middle" x="146.5" y="-139" font-family="Helvetica,sans-Serif" font-size="10.00">/dense/wrapper.hpp</text>
</a>
</g>
</g>
<!-- Node4&#45;&gt;Node5 -->
<g id="edge4" class="edge">
<title>Node4&#45;&gt;Node5</title>
<path fill="none" stroke="#63b8ff" d="M146.5,-187.54C146.5,-178.96 146.5,-169.61 146.5,-162.16"/>
<polygon fill="#63b8ff" stroke="#63b8ff" points="143,-187.8 146.5,-197.8 150,-187.8 143,-187.8"/>
</g>
<!-- Node6 -->
<g id="node6" class="node">
<title>Node6</title>
<g id="a_node6"><a xlink:href="dense_8hpp.html" target="_top" xlink:title=" ">
<polygon fill="white" stroke="#666666" points="215,-96 78,-96 78,-66 215,-66 215,-96"/>
<text text-anchor="start" x="86" y="-84" font-family="Helvetica,sans-Serif" font-size="10.00">include/proxsuite/proxqp</text>
<text text-anchor="middle" x="146.5" y="-73" font-family="Helvetica,sans-Serif" font-size="10.00">/dense/dense.hpp</text>
</a>
</g>
</g>
<!-- Node5&#45;&gt;Node6 -->
<g id="edge5" class="edge">
<title>Node5&#45;&gt;Node6</title>
<path fill="none" stroke="#63b8ff" d="M146.5,-121.54C146.5,-112.96 146.5,-103.61 146.5,-96.16"/>
<polygon fill="#63b8ff" stroke="#63b8ff" points="143,-121.8 146.5,-131.8 150,-121.8 143,-121.8"/>
</g>
<!-- Node7&#45;&gt;Node4 -->
<g id="edge7" class="edge">
<title>Node7&#45;&gt;Node4</title>
<path fill="none" stroke="#63b8ff" d="M198.48,-257.2C187.05,-247.7 173.8,-236.69 163.54,-228.16"/>
<polygon fill="#63b8ff" stroke="#63b8ff" points="196.48,-260.1 206.41,-263.8 200.96,-254.71 196.48,-260.1"/>
</g>
<!-- Node10 -->
<g id="node10" class="node">
<title>Node10</title>
<g id="a_node10"><a xlink:href="sparse_2wrapper_8hpp.html" target="_top" xlink:title=" ">
<polygon fill="white" stroke="#666666" points="781,-96 644,-96 644,-66 781,-66 781,-96"/>
<text text-anchor="start" x="652" y="-84" font-family="Helvetica,sans-Serif" font-size="10.00">include/proxsuite/proxqp</text>
<text text-anchor="middle" x="712.5" y="-73" font-family="Helvetica,sans-Serif" font-size="10.00">/sparse/wrapper.hpp</text>
</a>
</g>
</g>
<!-- Node9&#45;&gt;Node10 -->
<g id="edge10" class="edge">
<title>Node9&#45;&gt;Node10</title>
<path fill="none" stroke="#63b8ff" d="M712.5,-121.54C712.5,-112.96 712.5,-103.61 712.5,-96.16"/>
<polygon fill="#63b8ff" stroke="#63b8ff" points="709,-121.8 712.5,-131.8 716,-121.8 709,-121.8"/>
</g>
<!-- Node11 -->
<g id="node11" class="node">
<title>Node11</title>
<g id="a_node11"><a xlink:href="sparse_8hpp.html" target="_top" xlink:title=" ">
<polygon fill="white" stroke="#666666" points="781,-30 644,-30 644,0 781,0 781,-30"/>
<text text-anchor="start" x="652" y="-18" font-family="Helvetica,sans-Serif" font-size="10.00">include/proxsuite/proxqp</text>
<text text-anchor="middle" x="712.5" y="-7" font-family="Helvetica,sans-Serif" font-size="10.00">/sparse/sparse.hpp</text>
</a>
</g>
</g>
<!-- Node10&#45;&gt;Node11 -->
<g id="edge11" class="edge">
<title>Node10&#45;&gt;Node11</title>
<path fill="none" stroke="#63b8ff" d="M712.5,-55.54C712.5,-46.96 712.5,-37.61 712.5,-30.16"/>
<polygon fill="#63b8ff" stroke="#63b8ff" points="709,-55.8 712.5,-65.8 716,-55.8 709,-55.8"/>
</g>
<!-- Node12&#45;&gt;Node9 -->
<g id="edge13" class="edge">
<title>Node12&#45;&gt;Node9</title>
<path fill="none" stroke="#63b8ff" d="M589.02,-256.24C605.49,-239.84 628.96,-217 650.5,-198 664.81,-185.38 681.71,-171.83 694.25,-162.03"/>
<polygon fill="#63b8ff" stroke="#63b8ff" points="586.12,-254.18 581.53,-263.73 591.08,-259.13 586.12,-254.18"/>
</g>
<!-- Node12&#45;&gt;Node13 -->
<g id="edge14" class="edge">
<title>Node12&#45;&gt;Node13</title>
<path fill="none" stroke="#63b8ff" d="M619.87,-260.72C650.96,-250.47 689.86,-237.63 719.03,-228.01"/>
<polygon fill="#63b8ff" stroke="#63b8ff" points="618.47,-257.5 610.07,-263.95 620.67,-264.15 618.47,-257.5"/>
</g>
<!-- Node13&#45;&gt;Node9 -->
<g id="edge15" class="edge">
<title>Node13&#45;&gt;Node9</title>
<path fill="none" stroke="#63b8ff" d="M744.51,-189.81C737.49,-180.64 729.56,-170.28 723.34,-162.16"/>
<polygon fill="#63b8ff" stroke="#63b8ff" points="741.77,-191.98 750.63,-197.8 747.33,-187.73 741.77,-191.98"/>
</g>
<!-- Node14&#45;&gt;Node9 -->
<g id="edge17" class="edge">
<title>Node14&#45;&gt;Node9</title>
<path fill="none" stroke="#63b8ff" d="M665.07,-319.73C666.38,-290.24 670.66,-239.3 684.5,-198 688.8,-185.17 696.43,-171.86 702.64,-162.2"/>
<polygon fill="#63b8ff" stroke="#63b8ff" points="661.57,-319.8 664.7,-329.92 668.56,-320.05 661.57,-319.8"/>
</g>
<!-- Node14&#45;&gt;Node12 -->
<g id="edge18" class="edge">
<title>Node14&#45;&gt;Node12</title>
<path fill="none" stroke="#63b8ff" d="M634.23,-324.03C619.55,-314.34 602.27,-302.94 588.97,-294.16"/>
<polygon fill="#63b8ff" stroke="#63b8ff" points="632.7,-327.21 642.97,-329.8 636.55,-321.37 632.7,-327.21"/>
</g>
<!-- Node14&#45;&gt;Node13 -->
<g id="edge19" class="edge">
<title>Node14&#45;&gt;Node13</title>
<path fill="none" stroke="#63b8ff" d="M681.06,-321.8C701.07,-294.99 734.12,-250.7 750.95,-228.14"/>
<polygon fill="#63b8ff" stroke="#63b8ff" points="678.24,-319.73 675.07,-329.84 683.85,-323.92 678.24,-319.73"/>
</g>
</g>
</svg>
