<?xml version="1.0" encoding="UTF-8" standalone="no"?>
<!DOCTYPE svg PUBLIC "-//W3C//DTD SVG 1.1//EN"
 "http://www.w3.org/Graphics/SVG/1.1/DTD/svg11.dtd">
<!-- Generated by graphviz version 5.0.0 (20220707.2338)
 -->
<!-- Title: include/proxsuite/proxqp/sparse/model.hpp Pages: 1 -->
<svg width="852pt" height="441pt"
 viewBox="0.00 0.00 851.98 441.00" xmlns="http://www.w3.org/2000/svg" xmlns:xlink="http://www.w3.org/1999/xlink">
<g id="graph0" class="graph" transform="scale(1 1) rotate(0) translate(4 437)">
<title>include/proxsuite/proxqp/sparse/model.hpp</title>
<!-- Node1 -->
<g id="node1" class="node">
<title>Node1</title>
<g id="a_node1"><a xlink:title=" ">
<polygon fill="#bfbfbf" stroke="black" points="547,-402.5 547,-432.5 684,-432.5 684,-402.5 547,-402.5"/>
<text text-anchor="start" x="555" y="-420.5" font-family="Helvetica,sans-Serif" font-size="10.00">include/proxsuite/proxqp</text>
<text text-anchor="middle" x="615.5" y="-409.5" font-family="Helvetica,sans-Serif" font-size="10.00">/sparse/model.hpp</text>
</a>
</g>
</g>
<!-- Node2 -->
<g id="node2" class="node">
<title>Node2</title>
<g id="a_node2"><a xlink:href="dense_2model_8hpp.html" target="_top" xlink:title=" ">
<polygon fill="none" stroke="black" points="241,-335.5 241,-365.5 378,-365.5 378,-335.5 241,-335.5"/>
<text text-anchor="start" x="249" y="-353.5" font-family="Helvetica,sans-Serif" font-size="10.00">include/proxsuite/proxqp</text>
<text text-anchor="middle" x="309.5" y="-342.5" font-family="Helvetica,sans-Serif" font-size="10.00">/dense/model.hpp</text>
</a>
</g>
</g>
<!-- Node1&#45;&gt;Node2 -->
<g id="edge1" class="edge">
<title>Node1&#45;&gt;Node2</title>
<path fill="none" stroke="midnightblue" d="M539.62,-400.38C489.29,-389.69 423.88,-375.8 375.67,-365.55"/>
<polygon fill="midnightblue" stroke="midnightblue" points="538.97,-403.82 549.48,-402.48 540.42,-396.97 538.97,-403.82"/>
</g>
<!-- Node8 -->
<g id="node8" class="node">
<title>Node8</title>
<g id="a_node8"><a xlink:href="random__qp__problems_8hpp.html" target="_top" xlink:title=" ">
<polygon fill="none" stroke="black" points="310.5,-268.5 310.5,-298.5 480.5,-298.5 480.5,-268.5 310.5,-268.5"/>
<text text-anchor="start" x="318.5" y="-286.5" font-family="Helvetica,sans-Serif" font-size="10.00">include/proxsuite/proxqp</text>
<text text-anchor="middle" x="395.5" y="-275.5" font-family="Helvetica,sans-Serif" font-size="10.00">/utils/random_qp_problems.hpp</text>
</a>
</g>
</g>
<!-- Node1&#45;&gt;Node8 -->
<g id="edge21" class="edge">
<title>Node1&#45;&gt;Node8</title>
<path fill="none" stroke="midnightblue" d="M583.22,-397.13C538.39,-370.24 458.37,-322.22 418.87,-298.52"/>
<polygon fill="midnightblue" stroke="midnightblue" points="581.58,-400.23 591.96,-402.37 585.18,-394.23 581.58,-400.23"/>
</g>
<!-- Node9 -->
<g id="node9" class="node">
<title>Node9</title>
<g id="a_node9"><a xlink:href="sparse_2solver_8hpp.html" target="_top" xlink:title=" ">
<polygon fill="none" stroke="black" points="644,-134.5 644,-164.5 781,-164.5 781,-134.5 644,-134.5"/>
<text text-anchor="start" x="652" y="-152.5" font-family="Helvetica,sans-Serif" font-size="10.00">include/proxsuite/proxqp</text>
<text text-anchor="middle" x="712.5" y="-141.5" font-family="Helvetica,sans-Serif" font-size="10.00">/sparse/solver.hpp</text>
</a>
</g>
</g>
<!-- Node1&#45;&gt;Node9 -->
<g id="edge9" class="edge">
<title>Node1&#45;&gt;Node9</title>
<path fill="none" stroke="midnightblue" d="M693.98,-401.21C718.18,-393.63 743.66,-382.44 763.5,-366 816.22,-322.32 822.03,-298.2 839.5,-232 843.01,-218.68 847.24,-212.4 839.5,-201 826.11,-181.27 803.66,-169.24 781.33,-161.92"/>
<polygon fill="midnightblue" stroke="midnightblue" points="692.66,-397.95 684.06,-404.14 694.64,-404.66 692.66,-397.95"/>
</g>
<!-- Node12 -->
<g id="node12" class="node">
<title>Node12</title>
<g id="a_node12"><a xlink:href="sparse_2utils_8hpp.html" target="_top" xlink:title=" ">
<polygon fill="none" stroke="black" points="499,-268.5 499,-298.5 636,-298.5 636,-268.5 499,-268.5"/>
<text text-anchor="start" x="507" y="-286.5" font-family="Helvetica,sans-Serif" font-size="10.00">include/proxsuite/proxqp</text>
<text text-anchor="middle" x="567.5" y="-275.5" font-family="Helvetica,sans-Serif" font-size="10.00">/sparse/utils.hpp</text>
</a>
</g>
</g>
<!-- Node1&#45;&gt;Node12 -->
<g id="edge12" class="edge">
<title>Node1&#45;&gt;Node12</title>
<path fill="none" stroke="midnightblue" d="M601.09,-393.56C596.26,-385.13 591.17,-375.36 587.5,-366 578.57,-343.21 572.75,-315.23 569.8,-298.69"/>
<polygon fill="midnightblue" stroke="midnightblue" points="598.24,-395.61 606.35,-402.41 604.25,-392.03 598.24,-395.61"/>
</g>
<!-- Node13 -->
<g id="node13" class="node">
<title>Node13</title>
<g id="a_node13"><a xlink:href="sparse_2workspace_8hpp.html" target="_top" xlink:title=" ">
<polygon fill="none" stroke="black" points="693,-201.5 693,-231.5 830,-231.5 830,-201.5 693,-201.5"/>
<text text-anchor="start" x="701" y="-219.5" font-family="Helvetica,sans-Serif" font-size="10.00">include/proxsuite/proxqp</text>
<text text-anchor="middle" x="761.5" y="-208.5" font-family="Helvetica,sans-Serif" font-size="10.00">/sparse/workspace.hpp</text>
</a>
</g>
</g>
<!-- Node1&#45;&gt;Node13 -->
<g id="edge20" class="edge">
<title>Node1&#45;&gt;Node13</title>
<path fill="none" stroke="midnightblue" d="M693.73,-400.14C712.3,-392.67 730.24,-381.8 742.5,-366 773.73,-325.75 768.27,-260.08 764,-231.52"/>
<polygon fill="midnightblue" stroke="midnightblue" points="692.45,-396.88 684.3,-403.65 694.89,-403.44 692.45,-396.88"/>
</g>
<!-- Node14 -->
<g id="node14" class="node">
<title>Node14</title>
<g id="a_node14"><a xlink:href="sparse_2views_8hpp.html" target="_top" xlink:title=" ">
<polygon fill="none" stroke="black" points="596,-335.5 596,-365.5 733,-365.5 733,-335.5 596,-335.5"/>
<text text-anchor="start" x="604" y="-353.5" font-family="Helvetica,sans-Serif" font-size="10.00">include/proxsuite/proxqp</text>
<text text-anchor="middle" x="664.5" y="-342.5" font-family="Helvetica,sans-Serif" font-size="10.00">/sparse/views.hpp</text>
</a>
</g>
</g>
<!-- Node1&#45;&gt;Node14 -->
<g id="edge16" class="edge">
<title>Node1&#45;&gt;Node14</title>
<path fill="none" stroke="midnightblue" d="M632.34,-394.16C639.49,-384.68 647.6,-373.92 653.89,-365.58"/>
<polygon fill="midnightblue" stroke="midnightblue" points="629.36,-392.3 626.13,-402.4 634.95,-396.52 629.36,-392.3"/>
</g>
<!-- Node3 -->
<g id="node3" class="node">
<title>Node3</title>
<g id="a_node3"><a xlink:href="linesearch_8hpp.html" target="_top" xlink:title=" ">
<polygon fill="none" stroke="black" points="0,-268.5 0,-298.5 137,-298.5 137,-268.5 0,-268.5"/>
<text text-anchor="start" x="8" y="-286.5" font-family="Helvetica,sans-Serif" font-size="10.00">include/proxsuite/proxqp</text>
<text text-anchor="middle" x="68.5" y="-275.5" font-family="Helvetica,sans-Serif" font-size="10.00">/dense/linesearch.hpp</text>
</a>
</g>
</g>
<!-- Node2&#45;&gt;Node3 -->
<g id="edge2" class="edge">
<title>Node2&#45;&gt;Node3</title>
<path fill="none" stroke="midnightblue" d="M247.77,-332.85C208.47,-322.25 158.14,-308.68 120.82,-298.61"/>
<polygon fill="midnightblue" stroke="midnightblue" points="246.94,-336.25 257.5,-335.48 248.76,-329.49 246.94,-336.25"/>
</g>
<!-- Node7 -->
<g id="node7" class="node">
<title>Node7</title>
<g id="a_node7"><a xlink:href="dense_2utils_8hpp.html" target="_top" xlink:title=" ">
<polygon fill="none" stroke="black" points="155,-268.5 155,-298.5 292,-298.5 292,-268.5 155,-268.5"/>
<text text-anchor="start" x="163" y="-286.5" font-family="Helvetica,sans-Serif" font-size="10.00">include/proxsuite/proxqp</text>
<text text-anchor="middle" x="223.5" y="-275.5" font-family="Helvetica,sans-Serif" font-size="10.00">/dense/utils.hpp</text>
</a>
</g>
</g>
<!-- Node2&#45;&gt;Node7 -->
<g id="edge6" class="edge">
<title>Node2&#45;&gt;Node7</title>
<path fill="none" stroke="midnightblue" d="M282.6,-329.17C269.45,-319.23 253.95,-307.51 242.12,-298.58"/>
<polygon fill="midnightblue" stroke="midnightblue" points="280.75,-332.16 290.84,-335.4 284.97,-326.57 280.75,-332.16"/>
</g>
<!-- Node2&#45;&gt;Node8 -->
<g id="edge8" class="edge">
<title>Node2&#45;&gt;Node8</title>
<path fill="none" stroke="midnightblue" d="M336.4,-329.17C349.55,-319.23 365.05,-307.51 376.88,-298.58"/>
<polygon fill="midnightblue" stroke="midnightblue" points="334.03,-326.57 328.16,-335.4 338.25,-332.16 334.03,-326.57"/>
</g>
<!-- Node4 -->
<g id="node4" class="node">
<title>Node4</title>
<g id="a_node4"><a xlink:href="dense_2solver_8hpp.html" target="_top" xlink:title=" ">
<polygon fill="none" stroke="black" points="78,-201.5 78,-231.5 215,-231.5 215,-201.5 78,-201.5"/>
<text text-anchor="start" x="86" y="-219.5" font-family="Helvetica,sans-Serif" font-size="10.00">include/proxsuite/proxqp</text>
<text text-anchor="middle" x="146.5" y="-208.5" font-family="Helvetica,sans-Serif" font-size="10.00">/dense/solver.hpp</text>
</a>
</g>
</g>
<!-- Node3&#45;&gt;Node4 -->
<g id="edge3" class="edge">
<title>Node3&#45;&gt;Node4</title>
<path fill="none" stroke="midnightblue" d="M93.24,-261.88C105.09,-252.01 118.98,-240.43 129.61,-231.58"/>
<polygon fill="midnightblue" stroke="midnightblue" points="90.87,-259.31 85.42,-268.4 95.35,-264.68 90.87,-259.31"/>
</g>
<!-- Node5 -->
<g id="node5" class="node">
<title>Node5</title>
<g id="a_node5"><a xlink:href="dense_2wrapper_8hpp.html" target="_top" xlink:title=" ">
<polygon fill="none" stroke="black" points="78,-134.5 78,-164.5 215,-164.5 215,-134.5 78,-134.5"/>
<text text-anchor="start" x="86" y="-152.5" font-family="Helvetica,sans-Serif" font-size="10.00">include/proxsuite/proxqp</text>
<text text-anchor="middle" x="146.5" y="-141.5" font-family="Helvetica,sans-Serif" font-size="10.00">/dense/wrapper.hpp</text>
</a>
</g>
</g>
<!-- Node4&#45;&gt;Node5 -->
<g id="edge4" class="edge">
<title>Node4&#45;&gt;Node5</title>
<path fill="none" stroke="midnightblue" d="M146.5,-191.11C146.5,-182.15 146.5,-172.32 146.5,-164.58"/>
<polygon fill="midnightblue" stroke="midnightblue" points="143,-191.4 146.5,-201.4 150,-191.4 143,-191.4"/>
</g>
<!-- Node6 -->
<g id="node6" class="node">
<title>Node6</title>
<g id="a_node6"><a xlink:href="dense_8hpp.html" target="_top" xlink:title=" ">
<polygon fill="none" stroke="black" points="78,-67.5 78,-97.5 215,-97.5 215,-67.5 78,-67.5"/>
<text text-anchor="start" x="86" y="-85.5" font-family="Helvetica,sans-Serif" font-size="10.00">include/proxsuite/proxqp</text>
<text text-anchor="middle" x="146.5" y="-74.5" font-family="Helvetica,sans-Serif" font-size="10.00">/dense/dense.hpp</text>
</a>
</g>
</g>
<!-- Node5&#45;&gt;Node6 -->
<g id="edge5" class="edge">
<title>Node5&#45;&gt;Node6</title>
<path fill="none" stroke="midnightblue" d="M146.5,-124.11C146.5,-115.15 146.5,-105.32 146.5,-97.58"/>
<polygon fill="midnightblue" stroke="midnightblue" points="143,-124.4 146.5,-134.4 150,-124.4 143,-124.4"/>
</g>
<!-- Node7&#45;&gt;Node4 -->
<g id="edge7" class="edge">
<title>Node7&#45;&gt;Node4</title>
<path fill="none" stroke="midnightblue" d="M199.08,-261.88C187.38,-252.01 173.66,-240.43 163.18,-231.58"/>
<polygon fill="midnightblue" stroke="midnightblue" points="196.89,-264.62 206.79,-268.4 201.41,-259.27 196.89,-264.62"/>
</g>
<!-- Node10 -->
<g id="node10" class="node">
<title>Node10</title>
<g id="a_node10"><a xlink:href="sparse_2wrapper_8hpp.html" target="_top" xlink:title=" ">
<polygon fill="none" stroke="black" points="644,-67.5 644,-97.5 781,-97.5 781,-67.5 644,-67.5"/>
<text text-anchor="start" x="652" y="-85.5" font-family="Helvetica,sans-Serif" font-size="10.00">include/proxsuite/proxqp</text>
<text text-anchor="middle" x="712.5" y="-74.5" font-family="Helvetica,sans-Serif" font-size="10.00">/sparse/wrapper.hpp</text>
</a>
</g>
</g>
<!-- Node9&#45;&gt;Node10 -->
<g id="edge10" class="edge">
<title>Node9&#45;&gt;Node10</title>
<path fill="none" stroke="midnightblue" d="M712.5,-124.11C712.5,-115.15 712.5,-105.32 712.5,-97.58"/>
<polygon fill="midnightblue" stroke="midnightblue" points="709,-124.4 712.5,-134.4 716,-124.4 709,-124.4"/>
</g>
<!-- Node11 -->
<g id="node11" class="node">
<title>Node11</title>
<g id="a_node11"><a xlink:href="sparse_8hpp.html" target="_top" xlink:title=" ">
<polygon fill="none" stroke="black" points="644,-0.5 644,-30.5 781,-30.5 781,-0.5 644,-0.5"/>
<text text-anchor="start" x="652" y="-18.5" font-family="Helvetica,sans-Serif" font-size="10.00">include/proxsuite/proxqp</text>
<text text-anchor="middle" x="712.5" y="-7.5" font-family="Helvetica,sans-Serif" font-size="10.00">/sparse/sparse.hpp</text>
</a>
</g>
</g>
<!-- Node10&#45;&gt;Node11 -->
<g id="edge11" class="edge">
<title>Node10&#45;&gt;Node11</title>
<path fill="none" stroke="midnightblue" d="M712.5,-57.11C712.5,-48.15 712.5,-38.32 712.5,-30.58"/>
<polygon fill="midnightblue" stroke="midnightblue" points="709,-57.4 712.5,-67.4 716,-57.4 709,-57.4"/>
</g>
<!-- Node12&#45;&gt;Node9 -->
<g id="edge13" class="edge">
<title>Node12&#45;&gt;Node9</title>
<path fill="none" stroke="midnightblue" d="M588.24,-261.07C604.72,-244.3 628.57,-220.62 650.5,-201 664.78,-188.23 681.68,-174.55 694.23,-164.65"/>
<polygon fill="midnightblue" stroke="midnightblue" points="585.71,-258.65 581.22,-268.25 590.71,-263.55 585.71,-258.65"/>
</g>
<!-- Node12&#45;&gt;Node13 -->
<g id="edge14" class="edge">
<title>Node12&#45;&gt;Node13</title>
<path fill="none" stroke="midnightblue" d="M619.46,-265.09C650.77,-254.6 690.14,-241.41 719.49,-231.58"/>
<polygon fill="midnightblue" stroke="midnightblue" points="617.97,-261.9 609.6,-268.4 620.19,-268.54 617.97,-261.9"/>
</g>
<!-- Node13&#45;&gt;Node9 -->
<g id="edge15" class="edge">
<title>Node13&#45;&gt;Node9</title>
<path fill="none" stroke="midnightblue" d="M744.66,-193.16C737.51,-183.68 729.4,-172.92 723.11,-164.58"/>
<polygon fill="midnightblue" stroke="midnightblue" points="742.05,-195.52 750.87,-201.4 747.64,-191.3 742.05,-195.52"/>
</g>
<!-- Node14&#45;&gt;Node9 -->
<g id="edge17" class="edge">
<title>Node14&#45;&gt;Node9</title>
<path fill="none" stroke="midnightblue" d="M665.04,-324.83C666.32,-294.84 670.57,-243.04 684.5,-201 688.79,-188.06 696.42,-174.62 702.64,-164.86"/>
<polygon fill="midnightblue" stroke="midnightblue" points="661.53,-325.07 664.68,-335.19 668.52,-325.31 661.53,-325.07"/>
</g>
<!-- Node14&#45;&gt;Node12 -->
<g id="edge18" class="edge">
<title>Node14&#45;&gt;Node12</title>
<path fill="none" stroke="midnightblue" d="M635,-329.73C619.99,-319.68 602.1,-307.68 588.51,-298.58"/>
<polygon fill="midnightblue" stroke="midnightblue" points="633.2,-332.74 643.45,-335.4 637.09,-326.92 633.2,-332.74"/>
</g>
<!-- Node14&#45;&gt;Node13 -->
<g id="edge19" class="edge">
<title>Node14&#45;&gt;Node13</title>
<path fill="none" stroke="midnightblue" d="M680.89,-327.19C700.98,-299.86 734.4,-254.38 751.19,-231.52"/>
<polygon fill="midnightblue" stroke="midnightblue" points="677.98,-325.24 674.88,-335.37 683.62,-329.39 677.98,-325.24"/>
</g>
</g>
</svg>
