<?xml version="1.0" encoding="UTF-8" standalone="no"?>
<!DOCTYPE svg PUBLIC "-//W3C//DTD SVG 1.1//EN"
 "http://www.w3.org/Graphics/SVG/1.1/DTD/svg11.dtd">
<!-- Generated by graphviz version 5.0.1 (20220821.0811)
 -->
<!-- Title: include/proxsuite/proxqp/status.hpp Pages: 1 -->
<svg width="897pt" height="500pt"
 viewBox="0.00 0.00 897.00 500.00" xmlns="http://www.w3.org/2000/svg" xmlns:xlink="http://www.w3.org/1999/xlink">
<g id="graph0" class="graph" transform="scale(1 1) rotate(0) translate(4 496)">
<title>include/proxsuite/proxqp/status.hpp</title>
<!-- Node1 -->
<g id="node1" class="node">
<title>Node1</title>
<g id="a_node1"><a xlink:title=" ">
<polygon fill="#999999" stroke="#666666" points="652.5,-492 515.5,-492 515.5,-462 652.5,-462 652.5,-492"/>
<text text-anchor="start" x="523.5" y="-480" font-family="Helvetica,sans-Serif" font-size="10.00">include/proxsuite/proxqp</text>
<text text-anchor="middle" x="584" y="-469" font-family="Helvetica,sans-Serif" font-size="10.00">/status.hpp</text>
</a>
</g>
</g>
<!-- Node2 -->
<g id="node2" class="node">
<title>Node2</title>
<g id="a_node2"><a xlink:href="dense_2helpers_8hpp.html" target="_top" xlink:title=" ">
<polygon fill="white" stroke="#666666" points="822.5,-360 685.5,-360 685.5,-330 822.5,-330 822.5,-360"/>
<text text-anchor="start" x="693.5" y="-348" font-family="Helvetica,sans-Serif" font-size="10.00">include/proxsuite/proxqp</text>
<text text-anchor="middle" x="754" y="-337" font-family="Helvetica,sans-Serif" font-size="10.00">/dense/helpers.hpp</text>
</a>
</g>
</g>
<!-- Node1&#45;&gt;Node2 -->
<g id="edge1" class="edge">
<title>Node1&#45;&gt;Node2</title>
<path fill="none" stroke="#63b8ff" d="M616.35,-456.74C630.66,-447.84 647.5,-436.86 662,-426 690.63,-404.55 721.55,-376.56 739.27,-360.01"/>
<polygon fill="#63b8ff" stroke="#63b8ff" points="614.5,-453.77 607.81,-461.99 618.16,-459.73 614.5,-453.77"/>
</g>
<!-- Node6 -->
<g id="node6" class="node">
<title>Node6</title>
<g id="a_node6"><a xlink:href="results_8hpp.html" target="_top" xlink:title=" ">
<polygon fill="white" stroke="#666666" points="652.5,-426 515.5,-426 515.5,-396 652.5,-396 652.5,-426"/>
<text text-anchor="start" x="523.5" y="-414" font-family="Helvetica,sans-Serif" font-size="10.00">include/proxsuite/proxqp</text>
<text text-anchor="middle" x="584" y="-403" font-family="Helvetica,sans-Serif" font-size="10.00">/results.hpp</text>
</a>
</g>
</g>
<!-- Node1&#45;&gt;Node6 -->
<g id="edge6" class="edge">
<title>Node1&#45;&gt;Node6</title>
<path fill="none" stroke="#63b8ff" d="M584,-451.54C584,-442.96 584,-433.61 584,-426.16"/>
<polygon fill="#63b8ff" stroke="#63b8ff" points="580.5,-451.8 584,-461.8 587.5,-451.8 580.5,-451.8"/>
</g>
<!-- Node15 -->
<g id="node15" class="node">
<title>Node15</title>
<g id="a_node15"><a xlink:href="settings_8hpp.html" target="_top" xlink:title=" ">
<polygon fill="white" stroke="#666666" points="279.5,-426 142.5,-426 142.5,-396 279.5,-396 279.5,-426"/>
<text text-anchor="start" x="150.5" y="-414" font-family="Helvetica,sans-Serif" font-size="10.00">include/proxsuite/proxqp</text>
<text text-anchor="middle" x="211" y="-403" font-family="Helvetica,sans-Serif" font-size="10.00">/settings.hpp</text>
</a>
</g>
</g>
<!-- Node1&#45;&gt;Node15 -->
<g id="edge25" class="edge">
<title>Node1&#45;&gt;Node15</title>
<path fill="none" stroke="#63b8ff" d="M505.09,-462.46C438.29,-451 343.51,-434.74 279.76,-423.8"/>
<polygon fill="#63b8ff" stroke="#63b8ff" points="504.7,-465.95 515.15,-464.19 505.89,-459.05 504.7,-465.95"/>
</g>
<!-- Node3 -->
<g id="node3" class="node">
<title>Node3</title>
<g id="a_node3"><a xlink:href="dense_2solver_8hpp.html" target="_top" xlink:title=" ">
<polygon fill="white" stroke="#666666" points="725.5,-294 588.5,-294 588.5,-264 725.5,-264 725.5,-294"/>
<text text-anchor="start" x="596.5" y="-282" font-family="Helvetica,sans-Serif" font-size="10.00">include/proxsuite/proxqp</text>
<text text-anchor="middle" x="657" y="-271" font-family="Helvetica,sans-Serif" font-size="10.00">/dense/solver.hpp</text>
</a>
</g>
</g>
<!-- Node2&#45;&gt;Node3 -->
<g id="edge2" class="edge">
<title>Node2&#45;&gt;Node3</title>
<path fill="none" stroke="#63b8ff" d="M723.73,-324.03C709.05,-314.34 691.77,-302.94 678.47,-294.16"/>
<polygon fill="#63b8ff" stroke="#63b8ff" points="722.2,-327.21 732.47,-329.8 726.05,-321.37 722.2,-327.21"/>
</g>
<!-- Node4 -->
<g id="node4" class="node">
<title>Node4</title>
<g id="a_node4"><a xlink:href="dense_2wrapper_8hpp.html" target="_top" xlink:title=" ">
<polygon fill="white" stroke="#666666" points="774.5,-228 637.5,-228 637.5,-198 774.5,-198 774.5,-228"/>
<text text-anchor="start" x="645.5" y="-216" font-family="Helvetica,sans-Serif" font-size="10.00">include/proxsuite/proxqp</text>
<text text-anchor="middle" x="706" y="-205" font-family="Helvetica,sans-Serif" font-size="10.00">/dense/wrapper.hpp</text>
</a>
</g>
</g>
<!-- Node2&#45;&gt;Node4 -->
<g id="edge5" class="edge">
<title>Node2&#45;&gt;Node4</title>
<path fill="none" stroke="#63b8ff" d="M750.11,-319.52C747.08,-303.39 742.17,-281.99 735,-264 729.95,-251.32 722.08,-238 715.81,-228.3"/>
<polygon fill="#63b8ff" stroke="#63b8ff" points="746.73,-320.5 751.91,-329.75 753.62,-319.29 746.73,-320.5"/>
</g>
<!-- Node3&#45;&gt;Node4 -->
<g id="edge3" class="edge">
<title>Node3&#45;&gt;Node4</title>
<path fill="none" stroke="#63b8ff" d="M673.99,-255.81C681.01,-246.64 688.94,-236.28 695.16,-228.16"/>
<polygon fill="#63b8ff" stroke="#63b8ff" points="671.17,-253.73 667.87,-263.8 676.73,-257.98 671.17,-253.73"/>
</g>
<!-- Node5 -->
<g id="node5" class="node">
<title>Node5</title>
<g id="a_node5"><a xlink:href="dense_8hpp.html" target="_top" xlink:title=" ">
<polygon fill="white" stroke="#666666" points="774.5,-162 637.5,-162 637.5,-132 774.5,-132 774.5,-162"/>
<text text-anchor="start" x="645.5" y="-150" font-family="Helvetica,sans-Serif" font-size="10.00">include/proxsuite/proxqp</text>
<text text-anchor="middle" x="706" y="-139" font-family="Helvetica,sans-Serif" font-size="10.00">/dense/dense.hpp</text>
</a>
</g>
</g>
<!-- Node4&#45;&gt;Node5 -->
<g id="edge4" class="edge">
<title>Node4&#45;&gt;Node5</title>
<path fill="none" stroke="#63b8ff" d="M706,-187.54C706,-178.96 706,-169.61 706,-162.16"/>
<polygon fill="#63b8ff" stroke="#63b8ff" points="702.5,-187.8 706,-197.8 709.5,-187.8 702.5,-187.8"/>
</g>
<!-- Node6&#45;&gt;Node2 -->
<g id="edge7" class="edge">
<title>Node6&#45;&gt;Node2</title>
<path fill="none" stroke="#63b8ff" d="M630.96,-392.32C658.01,-382.14 691.55,-369.51 716.78,-360.01"/>
<polygon fill="#63b8ff" stroke="#63b8ff" points="629.43,-389.16 621.31,-395.95 631.9,-395.71 629.43,-389.16"/>
</g>
<!-- Node7 -->
<g id="node7" class="node">
<title>Node7</title>
<g id="a_node7"><a xlink:href="linesearch_8hpp.html" target="_top" xlink:title=" ">
<polygon fill="white" stroke="#666666" points="473.5,-360 336.5,-360 336.5,-330 473.5,-330 473.5,-360"/>
<text text-anchor="start" x="344.5" y="-348" font-family="Helvetica,sans-Serif" font-size="10.00">include/proxsuite/proxqp</text>
<text text-anchor="middle" x="405" y="-337" font-family="Helvetica,sans-Serif" font-size="10.00">/dense/linesearch.hpp</text>
</a>
</g>
</g>
<!-- Node6&#45;&gt;Node7 -->
<g id="edge8" class="edge">
<title>Node6&#45;&gt;Node7</title>
<path fill="none" stroke="#63b8ff" d="M534.93,-392.46C506.38,-382.25 470.87,-369.55 444.19,-360.01"/>
<polygon fill="#63b8ff" stroke="#63b8ff" points="534.12,-395.88 544.72,-395.95 536.48,-389.29 534.12,-395.88"/>
</g>
<!-- Node8 -->
<g id="node8" class="node">
<title>Node8</title>
<g id="a_node8"><a xlink:href="dense_2utils_8hpp.html" target="_top" xlink:title=" ">
<polygon fill="white" stroke="#666666" points="628.5,-360 491.5,-360 491.5,-330 628.5,-330 628.5,-360"/>
<text text-anchor="start" x="499.5" y="-348" font-family="Helvetica,sans-Serif" font-size="10.00">include/proxsuite/proxqp</text>
<text text-anchor="middle" x="560" y="-337" font-family="Helvetica,sans-Serif" font-size="10.00">/dense/utils.hpp</text>
</a>
</g>
</g>
<!-- Node6&#45;&gt;Node8 -->
<g id="edge10" class="edge">
<title>Node6&#45;&gt;Node8</title>
<path fill="none" stroke="#63b8ff" d="M575.15,-386.39C571.84,-377.59 568.2,-367.86 565.31,-360.16"/>
<polygon fill="#63b8ff" stroke="#63b8ff" points="571.89,-387.66 578.67,-395.8 578.44,-385.2 571.89,-387.66"/>
</g>
<!-- Node9 -->
<g id="node9" class="node">
<title>Node9</title>
<g id="a_node9"><a xlink:href="sparse_2solver_8hpp.html" target="_top" xlink:title=" ">
<polygon fill="white" stroke="#666666" points="424.5,-162 287.5,-162 287.5,-132 424.5,-132 424.5,-162"/>
<text text-anchor="start" x="295.5" y="-150" font-family="Helvetica,sans-Serif" font-size="10.00">include/proxsuite/proxqp</text>
<text text-anchor="middle" x="356" y="-139" font-family="Helvetica,sans-Serif" font-size="10.00">/sparse/solver.hpp</text>
</a>
</g>
</g>
<!-- Node6&#45;&gt;Node9 -->
<g id="edge12" class="edge">
<title>Node6&#45;&gt;Node9</title>
<path fill="none" stroke="#63b8ff" d="M662.92,-404.75C727.27,-398.63 810.84,-385.85 832,-360 868.64,-315.24 886.98,-279.44 784,-198 756.42,-176.19 538.53,-159.45 424.71,-152.09"/>
<polygon fill="#63b8ff" stroke="#63b8ff" points="662.41,-401.28 652.77,-405.68 663.05,-408.25 662.41,-401.28"/>
</g>
<!-- Node10 -->
<g id="node10" class="node">
<title>Node10</title>
<g id="a_node10"><a xlink:href="sparse_2wrapper_8hpp.html" target="_top" xlink:title=" ">
<polygon fill="white" stroke="#666666" points="424.5,-96 287.5,-96 287.5,-66 424.5,-66 424.5,-96"/>
<text text-anchor="start" x="295.5" y="-84" font-family="Helvetica,sans-Serif" font-size="10.00">include/proxsuite/proxqp</text>
<text text-anchor="middle" x="356" y="-73" font-family="Helvetica,sans-Serif" font-size="10.00">/sparse/wrapper.hpp</text>
</a>
</g>
</g>
<!-- Node6&#45;&gt;Node10 -->
<g id="edge24" class="edge">
<title>Node6&#45;&gt;Node10</title>
<path fill="none" stroke="#63b8ff" d="M662.66,-403.87C732.17,-396.99 826.88,-383.58 856,-360 885.89,-335.8 889,-318.46 889,-280 889,-280 889,-280 889,-212 889,-153.33 838.4,-153.96 784,-132 720.44,-106.34 528.57,-91.8 424.65,-85.6"/>
<polygon fill="#63b8ff" stroke="#63b8ff" points="662.22,-400.4 652.6,-404.84 662.89,-407.36 662.22,-400.4"/>
</g>
<!-- Node12 -->
<g id="node12" class="node">
<title>Node12</title>
<g id="a_node12"><a xlink:href="sparse_2utils_8hpp.html" target="_top" xlink:title=" ">
<polygon fill="white" stroke="#666666" points="376.5,-294 239.5,-294 239.5,-264 376.5,-264 376.5,-294"/>
<text text-anchor="start" x="247.5" y="-282" font-family="Helvetica,sans-Serif" font-size="10.00">include/proxsuite/proxqp</text>
<text text-anchor="middle" x="308" y="-271" font-family="Helvetica,sans-Serif" font-size="10.00">/sparse/utils.hpp</text>
</a>
</g>
</g>
<!-- Node6&#45;&gt;Node12 -->
<g id="edge15" class="edge">
<title>Node6&#45;&gt;Node12</title>
<path fill="none" stroke="#63b8ff" d="M505,-403.79C439.46,-397.02 353.1,-383.82 328,-360 309.93,-342.85 307.19,-312.06 307.28,-294.09"/>
<polygon fill="#63b8ff" stroke="#63b8ff" points="505.03,-407.31 515.33,-404.82 505.72,-400.35 505.03,-407.31"/>
</g>
<!-- Node13 -->
<g id="node13" class="node">
<title>Node13</title>
<g id="a_node13"><a xlink:href="sparse_2workspace_8hpp.html" target="_top" xlink:title=" ">
<polygon fill="white" stroke="#666666" points="327.5,-228 190.5,-228 190.5,-198 327.5,-198 327.5,-228"/>
<text text-anchor="start" x="198.5" y="-216" font-family="Helvetica,sans-Serif" font-size="10.00">include/proxsuite/proxqp</text>
<text text-anchor="middle" x="259" y="-205" font-family="Helvetica,sans-Serif" font-size="10.00">/sparse/workspace.hpp</text>
</a>
</g>
</g>
<!-- Node6&#45;&gt;Node13 -->
<g id="edge23" class="edge">
<title>Node6&#45;&gt;Node13</title>
<path fill="none" stroke="#63b8ff" d="M613.09,-389.54C632.73,-373.17 652.63,-349.77 638,-330 618.59,-303.76 419.73,-252.69 318.11,-228.01"/>
<polygon fill="#63b8ff" stroke="#63b8ff" points="610.75,-386.92 605.08,-395.87 615.09,-392.42 610.75,-386.92"/>
</g>
<!-- Node14 -->
<g id="node14" class="node">
<title>Node14</title>
<g id="a_node14"><a xlink:href="sparse_2views_8hpp.html" target="_top" xlink:title=" ">
<polygon fill="white" stroke="#666666" points="279.5,-360 142.5,-360 142.5,-330 279.5,-330 279.5,-360"/>
<text text-anchor="start" x="150.5" y="-348" font-family="Helvetica,sans-Serif" font-size="10.00">include/proxsuite/proxqp</text>
<text text-anchor="middle" x="211" y="-337" font-family="Helvetica,sans-Serif" font-size="10.00">/sparse/views.hpp</text>
</a>
</g>
</g>
<!-- Node6&#45;&gt;Node14 -->
<g id="edge19" class="edge">
<title>Node6&#45;&gt;Node14</title>
<path fill="none" stroke="#63b8ff" d="M505.09,-396.46C438.29,-385 343.51,-368.74 279.76,-357.8"/>
<polygon fill="#63b8ff" stroke="#63b8ff" points="504.7,-399.95 515.15,-398.19 505.89,-393.05 504.7,-399.95"/>
</g>
<!-- Node7&#45;&gt;Node3 -->
<g id="edge9" class="edge">
<title>Node7&#45;&gt;Node3</title>
<path fill="none" stroke="#63b8ff" d="M470.16,-327.45C510.99,-317.08 563.04,-303.86 601.83,-294.01"/>
<polygon fill="#63b8ff" stroke="#63b8ff" points="469.13,-324.1 460.3,-329.95 470.86,-330.89 469.13,-324.1"/>
</g>
<!-- Node8&#45;&gt;Node3 -->
<g id="edge11" class="edge">
<title>Node8&#45;&gt;Node3</title>
<path fill="none" stroke="#63b8ff" d="M590.27,-324.03C604.95,-314.34 622.23,-302.94 635.53,-294.16"/>
<polygon fill="#63b8ff" stroke="#63b8ff" points="587.95,-321.37 581.53,-329.8 591.8,-327.21 587.95,-321.37"/>
</g>
<!-- Node9&#45;&gt;Node10 -->
<g id="edge13" class="edge">
<title>Node9&#45;&gt;Node10</title>
<path fill="none" stroke="#63b8ff" d="M356,-121.54C356,-112.96 356,-103.61 356,-96.16"/>
<polygon fill="#63b8ff" stroke="#63b8ff" points="352.5,-121.8 356,-131.8 359.5,-121.8 352.5,-121.8"/>
</g>
<!-- Node11 -->
<g id="node11" class="node">
<title>Node11</title>
<g id="a_node11"><a xlink:href="sparse_8hpp.html" target="_top" xlink:title=" ">
<polygon fill="white" stroke="#666666" points="424.5,-30 287.5,-30 287.5,0 424.5,0 424.5,-30"/>
<text text-anchor="start" x="295.5" y="-18" font-family="Helvetica,sans-Serif" font-size="10.00">include/proxsuite/proxqp</text>
<text text-anchor="middle" x="356" y="-7" font-family="Helvetica,sans-Serif" font-size="10.00">/sparse/sparse.hpp</text>
</a>
</g>
</g>
<!-- Node10&#45;&gt;Node11 -->
<g id="edge14" class="edge">
<title>Node10&#45;&gt;Node11</title>
<path fill="none" stroke="#63b8ff" d="M356,-55.54C356,-46.96 356,-37.61 356,-30.16"/>
<polygon fill="#63b8ff" stroke="#63b8ff" points="352.5,-55.8 356,-65.8 359.5,-55.8 352.5,-55.8"/>
</g>
<!-- Node12&#45;&gt;Node9 -->
<g id="edge16" class="edge">
<title>Node12&#45;&gt;Node9</title>
<path fill="none" stroke="#63b8ff" d="M323.22,-255.01C328.17,-246.76 333.33,-237.21 337,-228 345.83,-205.86 351.22,-178.56 353.91,-162.25"/>
<polygon fill="#63b8ff" stroke="#63b8ff" points="320.13,-253.36 317.81,-263.7 326.07,-257.06 320.13,-253.36"/>
</g>
<!-- Node12&#45;&gt;Node13 -->
<g id="edge17" class="edge">
<title>Node12&#45;&gt;Node13</title>
<path fill="none" stroke="#63b8ff" d="M291.01,-255.81C283.99,-246.64 276.06,-236.28 269.84,-228.16"/>
<polygon fill="#63b8ff" stroke="#63b8ff" points="288.27,-257.98 297.13,-263.8 293.83,-253.73 288.27,-257.98"/>
</g>
<!-- Node13&#45;&gt;Node9 -->
<g id="edge18" class="edge">
<title>Node13&#45;&gt;Node9</title>
<path fill="none" stroke="#63b8ff" d="M289.27,-192.03C303.95,-182.34 321.23,-170.94 334.53,-162.16"/>
<polygon fill="#63b8ff" stroke="#63b8ff" points="286.95,-189.37 280.53,-197.8 290.8,-195.21 286.95,-189.37"/>
</g>
<!-- Node14&#45;&gt;Node9 -->
<g id="edge20" class="edge">
<title>Node14&#45;&gt;Node9</title>
<path fill="none" stroke="#63b8ff" d="M289.85,-331.01C330.42,-322.54 373.87,-310.08 386,-294 416.39,-253.72 383.07,-190.09 365.47,-162.06"/>
<polygon fill="#63b8ff" stroke="#63b8ff" points="289.01,-327.61 279.9,-333.02 290.39,-334.47 289.01,-327.61"/>
</g>
<!-- Node14&#45;&gt;Node12 -->
<g id="edge21" class="edge">
<title>Node14&#45;&gt;Node12</title>
<path fill="none" stroke="#63b8ff" d="M241.27,-324.03C255.95,-314.34 273.23,-302.94 286.53,-294.16"/>
<polygon fill="#63b8ff" stroke="#63b8ff" points="238.95,-321.37 232.53,-329.8 242.8,-327.21 238.95,-321.37"/>
</g>
<!-- Node14&#45;&gt;Node13 -->
<g id="edge22" class="edge">
<title>Node14&#45;&gt;Node13</title>
<path fill="none" stroke="#63b8ff" d="M215.35,-319.56C218.65,-303.45 223.84,-282.06 231,-264 235.99,-251.42 243.58,-238.1 249.6,-228.37"/>
<polygon fill="#63b8ff" stroke="#63b8ff" points="211.84,-319.29 213.37,-329.77 218.71,-320.62 211.84,-319.29"/>
</g>
<!-- Node15&#45;&gt;Node2 -->
<g id="edge26" class="edge">
<title>Node15&#45;&gt;Node2</title>
<path fill="none" stroke="#63b8ff" d="M289.96,-400.84C375.67,-390.87 516.57,-374.44 638,-360 653.31,-358.18 669.75,-356.21 685.31,-354.33"/>
<polygon fill="#63b8ff" stroke="#63b8ff" points="289.32,-397.39 279.79,-402.02 290.12,-404.34 289.32,-397.39"/>
</g>
<!-- Node15&#45;&gt;Node7 -->
<g id="edge27" class="edge">
<title>Node15&#45;&gt;Node7</title>
<path fill="none" stroke="#63b8ff" d="M263.37,-392.72C294.46,-382.47 333.36,-369.63 362.53,-360.01"/>
<polygon fill="#63b8ff" stroke="#63b8ff" points="261.97,-389.5 253.57,-395.95 264.17,-396.15 261.97,-389.5"/>
</g>
<!-- Node15&#45;&gt;Node8 -->
<g id="edge28" class="edge">
<title>Node15&#45;&gt;Node8</title>
<path fill="none" stroke="#63b8ff" d="M289.45,-395.61C350.11,-384.49 433.27,-369.24 491.32,-358.59"/>
<polygon fill="#63b8ff" stroke="#63b8ff" points="288.74,-392.19 279.53,-397.43 290,-399.07 288.74,-392.19"/>
</g>
<!-- Node15&#45;&gt;Node9 -->
<g id="edge29" class="edge">
<title>Node15&#45;&gt;Node9</title>
<path fill="none" stroke="#63b8ff" d="M151.99,-391.32C137.77,-383.9 124.3,-373.74 116,-360 92.96,-321.84 125.35,-304 145,-264 159.73,-234.01 154.91,-218.88 181,-198 211.1,-173.91 252.25,-161.43 287.09,-154.96"/>
<polygon fill="#63b8ff" stroke="#63b8ff" points="150.86,-394.67 161.39,-395.82 153.88,-388.35 150.86,-394.67"/>
</g>
<!-- Node15&#45;&gt;Node10 -->
<g id="edge33" class="edge">
<title>Node15&#45;&gt;Node10</title>
<path fill="none" stroke="#63b8ff" d="M132.6,-394.84C72.58,-378.14 0,-344.6 0,-280 0,-280 0,-280 0,-212 0,-151.47 183.91,-110.79 287.36,-92.7"/>
<polygon fill="#63b8ff" stroke="#63b8ff" points="131.93,-398.28 142.49,-397.47 133.73,-391.51 131.93,-398.28"/>
</g>
<!-- Node15&#45;&gt;Node12 -->
<g id="edge30" class="edge">
<title>Node15&#45;&gt;Node12</title>
<path fill="none" stroke="#63b8ff" d="M165.31,-391.07C152.55,-383.41 140.21,-373.19 133,-360 126.6,-348.3 124.97,-340.64 133,-330 146.13,-312.59 195.96,-299.42 239.1,-290.98"/>
<polygon fill="#63b8ff" stroke="#63b8ff" points="163.71,-394.19 174.16,-395.98 167.11,-388.07 163.71,-394.19"/>
</g>
<!-- Node15&#45;&gt;Node13 -->
<g id="edge32" class="edge">
<title>Node15&#45;&gt;Node13</title>
<path fill="none" stroke="#63b8ff" d="M158.71,-391.37C145.01,-383.83 131.87,-373.61 124,-360 117.32,-348.46 118.44,-342.12 124,-330 145.99,-282.12 198.57,-246.56 231.24,-228.15"/>
<polygon fill="#63b8ff" stroke="#63b8ff" points="157.25,-394.55 167.75,-395.95 160.41,-388.31 157.25,-394.55"/>
</g>
<!-- Node15&#45;&gt;Node14 -->
<g id="edge31" class="edge">
<title>Node15&#45;&gt;Node14</title>
<path fill="none" stroke="#63b8ff" d="M211,-385.54C211,-376.96 211,-367.61 211,-360.16"/>
<polygon fill="#63b8ff" stroke="#63b8ff" points="207.5,-385.8 211,-395.8 214.5,-385.8 207.5,-385.8"/>
</g>
</g>
</svg>
