<?xml version="1.0" encoding="UTF-8" standalone="no"?>
<!DOCTYPE svg PUBLIC "-//W3C//DTD SVG 1.1//EN"
 "http://www.w3.org/Graphics/SVG/1.1/DTD/svg11.dtd">
<!-- Generated by graphviz version 6.0.2 (20221126.1951)
 -->
<!-- Title: include/proxsuite/proxqp/status.hpp Pages: 1 -->
<svg width="906pt" height="566pt"
 viewBox="0.00 0.00 905.50 566.00" xmlns="http://www.w3.org/2000/svg" xmlns:xlink="http://www.w3.org/1999/xlink">
<g id="graph0" class="graph" transform="scale(1 1) rotate(0) translate(4 562)">
<title>include/proxsuite/proxqp/status.hpp</title>
<!-- Node1 -->
<g id="node1" class="node">
<title>Node1</title>
<g id="a_node1"><a xlink:title=" ">
<polygon fill="#999999" stroke="#666666" points="582,-558 445,-558 445,-528 582,-528 582,-558"/>
<text text-anchor="start" x="453" y="-546" font-family="Helvetica,sans-Serif" font-size="10.00">include/proxsuite/proxqp</text>
<text text-anchor="middle" x="513.5" y="-535" font-family="Helvetica,sans-Serif" font-size="10.00">/status.hpp</text>
</a>
</g>
</g>
<!-- Node2 -->
<g id="node2" class="node">
<title>Node2</title>
<g id="a_node2"><a xlink:href="dense_2helpers_8hpp.html" target="_top" xlink:title=" ">
<polygon fill="white" stroke="#666666" points="137,-360 0,-360 0,-330 137,-330 137,-360"/>
<text text-anchor="start" x="8" y="-348" font-family="Helvetica,sans-Serif" font-size="10.00">include/proxsuite/proxqp</text>
<text text-anchor="middle" x="68.5" y="-337" font-family="Helvetica,sans-Serif" font-size="10.00">/dense/helpers.hpp</text>
</a>
</g>
</g>
<!-- Node1&#45;&gt;Node2 -->
<g id="edge1" class="edge">
<title>Node1&#45;&gt;Node2</title>
<path fill="none" stroke="#63b8ff" d="M462.52,-524.53C402.32,-503.37 299.61,-465.62 214.5,-426 170.09,-405.32 120.48,-376.96 92.03,-360.15"/>
<polygon fill="#63b8ff" stroke="#63b8ff" points="461.57,-527.9 472.17,-527.9 463.88,-521.3 461.57,-527.9"/>
</g>
<!-- Node6 -->
<g id="node6" class="node">
<title>Node6</title>
<g id="a_node6"><a xlink:href="results_8hpp.html" target="_top" xlink:title=" ">
<polygon fill="white" stroke="#666666" points="582,-426 445,-426 445,-396 582,-396 582,-426"/>
<text text-anchor="start" x="453" y="-414" font-family="Helvetica,sans-Serif" font-size="10.00">include/proxsuite/proxqp</text>
<text text-anchor="middle" x="513.5" y="-403" font-family="Helvetica,sans-Serif" font-size="10.00">/results.hpp</text>
</a>
</g>
</g>
<!-- Node1&#45;&gt;Node6 -->
<g id="edge6" class="edge">
<title>Node1&#45;&gt;Node6</title>
<path fill="none" stroke="#63b8ff" d="M513.5,-517.68C513.5,-490.7 513.5,-448.11 513.5,-426.14"/>
<polygon fill="#63b8ff" stroke="#63b8ff" points="510,-517.84 513.5,-527.84 517,-517.84 510,-517.84"/>
</g>
<!-- Node15 -->
<g id="node15" class="node">
<title>Node15</title>
<g id="a_node15"><a xlink:href="settings_8hpp.html" target="_top" xlink:title=" ">
<polygon fill="white" stroke="#666666" points="687,-492 550,-492 550,-462 687,-462 687,-492"/>
<text text-anchor="start" x="558" y="-480" font-family="Helvetica,sans-Serif" font-size="10.00">include/proxsuite/proxqp</text>
<text text-anchor="middle" x="618.5" y="-469" font-family="Helvetica,sans-Serif" font-size="10.00">/settings.hpp</text>
</a>
</g>
</g>
<!-- Node1&#45;&gt;Node15 -->
<g id="edge25" class="edge">
<title>Node1&#45;&gt;Node15</title>
<path fill="none" stroke="#63b8ff" d="M545.17,-522.69C561.38,-512.82 580.75,-501.01 595.51,-492.01"/>
<polygon fill="#63b8ff" stroke="#63b8ff" points="543.26,-519.76 536.54,-527.95 546.9,-525.74 543.26,-519.76"/>
</g>
<!-- Node3 -->
<g id="node3" class="node">
<title>Node3</title>
<g id="a_node3"><a xlink:href="dense_2solver_8hpp.html" target="_top" xlink:title=" ">
<polygon fill="white" stroke="#666666" points="263,-294 126,-294 126,-264 263,-264 263,-294"/>
<text text-anchor="start" x="134" y="-282" font-family="Helvetica,sans-Serif" font-size="10.00">include/proxsuite/proxqp</text>
<text text-anchor="middle" x="194.5" y="-271" font-family="Helvetica,sans-Serif" font-size="10.00">/dense/solver.hpp</text>
</a>
</g>
</g>
<!-- Node2&#45;&gt;Node3 -->
<g id="edge2" class="edge">
<title>Node2&#45;&gt;Node3</title>
<path fill="none" stroke="#63b8ff" d="M105.16,-325.38C124.88,-315.36 148.79,-303.22 166.91,-294.01"/>
<polygon fill="#63b8ff" stroke="#63b8ff" points="103.48,-322.31 96.15,-329.95 106.65,-328.55 103.48,-322.31"/>
</g>
<!-- Node4 -->
<g id="node4" class="node">
<title>Node4</title>
<g id="a_node4"><a xlink:href="dense_2wrapper_8hpp.html" target="_top" xlink:title=" ">
<polygon fill="white" stroke="#666666" points="208,-228 71,-228 71,-198 208,-198 208,-228"/>
<text text-anchor="start" x="79" y="-216" font-family="Helvetica,sans-Serif" font-size="10.00">include/proxsuite/proxqp</text>
<text text-anchor="middle" x="139.5" y="-205" font-family="Helvetica,sans-Serif" font-size="10.00">/dense/wrapper.hpp</text>
</a>
</g>
</g>
<!-- Node2&#45;&gt;Node4 -->
<g id="edge5" class="edge">
<title>Node2&#45;&gt;Node4</title>
<path fill="none" stroke="#63b8ff" d="M81.2,-320.75C95.89,-293.84 119.62,-250.4 131.78,-228.14"/>
<polygon fill="#63b8ff" stroke="#63b8ff" points="77.95,-319.39 76.23,-329.84 84.1,-322.74 77.95,-319.39"/>
</g>
<!-- Node3&#45;&gt;Node4 -->
<g id="edge3" class="edge">
<title>Node3&#45;&gt;Node4</title>
<path fill="none" stroke="#63b8ff" d="M175.67,-256.09C167.73,-246.85 158.72,-236.36 151.67,-228.16"/>
<polygon fill="#63b8ff" stroke="#63b8ff" points="173.12,-258.49 182.29,-263.8 178.43,-253.93 173.12,-258.49"/>
</g>
<!-- Node5 -->
<g id="node5" class="node">
<title>Node5</title>
<g id="a_node5"><a xlink:href="dense_8hpp.html" target="_top" xlink:title=" ">
<polygon fill="white" stroke="#666666" points="208,-162 71,-162 71,-132 208,-132 208,-162"/>
<text text-anchor="start" x="79" y="-150" font-family="Helvetica,sans-Serif" font-size="10.00">include/proxsuite/proxqp</text>
<text text-anchor="middle" x="139.5" y="-139" font-family="Helvetica,sans-Serif" font-size="10.00">/dense/dense.hpp</text>
</a>
</g>
</g>
<!-- Node4&#45;&gt;Node5 -->
<g id="edge4" class="edge">
<title>Node4&#45;&gt;Node5</title>
<path fill="none" stroke="#63b8ff" d="M139.5,-187.54C139.5,-178.96 139.5,-169.61 139.5,-162.16"/>
<polygon fill="#63b8ff" stroke="#63b8ff" points="136,-187.8 139.5,-197.8 143,-187.8 136,-187.8"/>
</g>
<!-- Node6&#45;&gt;Node2 -->
<g id="edge7" class="edge">
<title>Node6&#45;&gt;Node2</title>
<path fill="none" stroke="#63b8ff" d="M434.61,-400.32C359.99,-390.92 244.94,-375.79 145.5,-360 142.82,-359.57 140.08,-359.13 137.32,-358.67"/>
<polygon fill="#63b8ff" stroke="#63b8ff" points="434.5,-403.83 444.86,-401.61 435.38,-396.89 434.5,-403.83"/>
</g>
<!-- Node7 -->
<g id="node7" class="node">
<title>Node7</title>
<g id="a_node7"><a xlink:href="linesearch_8hpp.html" target="_top" xlink:title=" ">
<polygon fill="white" stroke="#666666" points="447,-360 310,-360 310,-330 447,-330 447,-360"/>
<text text-anchor="start" x="318" y="-348" font-family="Helvetica,sans-Serif" font-size="10.00">include/proxsuite/proxqp</text>
<text text-anchor="middle" x="378.5" y="-337" font-family="Helvetica,sans-Serif" font-size="10.00">/dense/linesearch.hpp</text>
</a>
</g>
</g>
<!-- Node6&#45;&gt;Node7 -->
<g id="edge8" class="edge">
<title>Node6&#45;&gt;Node7</title>
<path fill="none" stroke="#63b8ff" d="M474.79,-391.65C453.56,-381.58 427.65,-369.3 408.06,-360.01"/>
<polygon fill="#63b8ff" stroke="#63b8ff" points="473.34,-394.83 483.87,-395.95 476.34,-388.51 473.34,-394.83"/>
</g>
<!-- Node8 -->
<g id="node8" class="node">
<title>Node8</title>
<g id="a_node8"><a xlink:href="dense_2utils_8hpp.html" target="_top" xlink:title=" ">
<polygon fill="white" stroke="#666666" points="292,-360 155,-360 155,-330 292,-330 292,-360"/>
<text text-anchor="start" x="163" y="-348" font-family="Helvetica,sans-Serif" font-size="10.00">include/proxsuite/proxqp</text>
<text text-anchor="middle" x="223.5" y="-337" font-family="Helvetica,sans-Serif" font-size="10.00">/dense/utils.hpp</text>
</a>
</g>
</g>
<!-- Node6&#45;&gt;Node8 -->
<g id="edge10" class="edge">
<title>Node6&#45;&gt;Node8</title>
<path fill="none" stroke="#63b8ff" d="M440,-393.78C392.79,-383.36 332.1,-369.97 286.99,-360.01"/>
<polygon fill="#63b8ff" stroke="#63b8ff" points="439.34,-397.22 449.86,-395.95 440.85,-390.38 439.34,-397.22"/>
</g>
<!-- Node9 -->
<g id="node9" class="node">
<title>Node9</title>
<g id="a_node9"><a xlink:href="sparse_2solver_8hpp.html" target="_top" xlink:title=" ">
<polygon fill="white" stroke="#666666" points="793,-162 656,-162 656,-132 793,-132 793,-162"/>
<text text-anchor="start" x="664" y="-150" font-family="Helvetica,sans-Serif" font-size="10.00">include/proxsuite/proxqp</text>
<text text-anchor="middle" x="724.5" y="-139" font-family="Helvetica,sans-Serif" font-size="10.00">/sparse/solver.hpp</text>
</a>
</g>
</g>
<!-- Node6&#45;&gt;Node9 -->
<g id="edge12" class="edge">
<title>Node6&#45;&gt;Node9</title>
<path fill="none" stroke="#63b8ff" d="M514.14,-385.39C516.09,-354.39 523.33,-300.74 549.5,-264 585.03,-214.12 649.29,-179.75 689.28,-162.02"/>
<polygon fill="#63b8ff" stroke="#63b8ff" points="510.63,-385.56 513.64,-395.72 517.62,-385.9 510.63,-385.56"/>
</g>
<!-- Node10 -->
<g id="node10" class="node">
<title>Node10</title>
<g id="a_node10"><a xlink:href="sparse_2wrapper_8hpp.html" target="_top" xlink:title=" ">
<polygon fill="white" stroke="#666666" points="793,-96 656,-96 656,-66 793,-66 793,-96"/>
<text text-anchor="start" x="664" y="-84" font-family="Helvetica,sans-Serif" font-size="10.00">include/proxsuite/proxqp</text>
<text text-anchor="middle" x="724.5" y="-73" font-family="Helvetica,sans-Serif" font-size="10.00">/sparse/wrapper.hpp</text>
</a>
</g>
</g>
<!-- Node6&#45;&gt;Node10 -->
<g id="edge24" class="edge">
<title>Node6&#45;&gt;Node10</title>
<path fill="none" stroke="#63b8ff" d="M502.35,-386.73C491.13,-361.17 475.5,-318.61 475.5,-280 475.5,-280 475.5,-280 475.5,-212 475.5,-130.32 582.1,-99.87 655.8,-88.58"/>
<polygon fill="#63b8ff" stroke="#63b8ff" points="499.21,-388.3 506.53,-395.97 505.59,-385.41 499.21,-388.3"/>
</g>
<!-- Node12 -->
<g id="node12" class="node">
<title>Node12</title>
<g id="a_node12"><a xlink:href="sparse_2utils_8hpp.html" target="_top" xlink:title=" ">
<polygon fill="white" stroke="#666666" points="717,-294 580,-294 580,-264 717,-264 717,-294"/>
<text text-anchor="start" x="588" y="-282" font-family="Helvetica,sans-Serif" font-size="10.00">include/proxsuite/proxqp</text>
<text text-anchor="middle" x="648.5" y="-271" font-family="Helvetica,sans-Serif" font-size="10.00">/sparse/utils.hpp</text>
</a>
</g>
</g>
<!-- Node6&#45;&gt;Node12 -->
<g id="edge15" class="edge">
<title>Node6&#45;&gt;Node12</title>
<path fill="none" stroke="#63b8ff" d="M535.42,-388.93C544.7,-380.01 555.63,-369.5 565.5,-360 589.43,-336.96 617.23,-310.16 633.81,-294.17"/>
<polygon fill="#63b8ff" stroke="#63b8ff" points="532.86,-386.54 528.07,-396 537.71,-391.59 532.86,-386.54"/>
</g>
<!-- Node13 -->
<g id="node13" class="node">
<title>Node13</title>
<g id="a_node13"><a xlink:href="sparse_2workspace_8hpp.html" target="_top" xlink:title=" ">
<polygon fill="white" stroke="#666666" points="793,-228 656,-228 656,-198 793,-198 793,-228"/>
<text text-anchor="start" x="664" y="-216" font-family="Helvetica,sans-Serif" font-size="10.00">include/proxsuite/proxqp</text>
<text text-anchor="middle" x="724.5" y="-205" font-family="Helvetica,sans-Serif" font-size="10.00">/sparse/workspace.hpp</text>
</a>
</g>
</g>
<!-- Node6&#45;&gt;Node13 -->
<g id="edge23" class="edge">
<title>Node6&#45;&gt;Node13</title>
<path fill="none" stroke="#63b8ff" d="M520.19,-385.84C530.85,-348.98 552.31,-281.16 570.5,-264 593.61,-242.2 626.32,-229.91 655.66,-222.97"/>
<polygon fill="#63b8ff" stroke="#63b8ff" points="516.74,-385.19 517.37,-395.77 523.47,-387.11 516.74,-385.19"/>
</g>
<!-- Node14 -->
<g id="node14" class="node">
<title>Node14</title>
<g id="a_node14"><a xlink:href="sparse_2views_8hpp.html" target="_top" xlink:title=" ">
<polygon fill="white" stroke="#666666" points="793,-360 656,-360 656,-330 793,-330 793,-360"/>
<text text-anchor="start" x="664" y="-348" font-family="Helvetica,sans-Serif" font-size="10.00">include/proxsuite/proxqp</text>
<text text-anchor="middle" x="724.5" y="-337" font-family="Helvetica,sans-Serif" font-size="10.00">/sparse/views.hpp</text>
</a>
</g>
</g>
<!-- Node6&#45;&gt;Node14 -->
<g id="edge19" class="edge">
<title>Node6&#45;&gt;Node14</title>
<path fill="none" stroke="#63b8ff" d="M569.58,-392.99C603.53,-382.69 646.31,-369.72 678.3,-360.01"/>
<polygon fill="#63b8ff" stroke="#63b8ff" points="568.36,-389.7 559.8,-395.95 570.39,-396.4 568.36,-389.7"/>
</g>
<!-- Node7&#45;&gt;Node3 -->
<g id="edge9" class="edge">
<title>Node7&#45;&gt;Node3</title>
<path fill="none" stroke="#63b8ff" d="M328.45,-326.59C299.03,-316.36 262.33,-303.59 234.79,-294.01"/>
<polygon fill="#63b8ff" stroke="#63b8ff" points="327.53,-329.98 338.12,-329.95 329.83,-323.36 327.53,-329.98"/>
</g>
<!-- Node8&#45;&gt;Node3 -->
<g id="edge11" class="edge">
<title>Node8&#45;&gt;Node3</title>
<path fill="none" stroke="#63b8ff" d="M212.93,-320.68C208.91,-311.79 204.44,-301.95 200.92,-294.16"/>
<polygon fill="#63b8ff" stroke="#63b8ff" points="209.75,-322.13 217.06,-329.8 216.12,-319.24 209.75,-322.13"/>
</g>
<!-- Node9&#45;&gt;Node10 -->
<g id="edge13" class="edge">
<title>Node9&#45;&gt;Node10</title>
<path fill="none" stroke="#63b8ff" d="M724.5,-121.54C724.5,-112.96 724.5,-103.61 724.5,-96.16"/>
<polygon fill="#63b8ff" stroke="#63b8ff" points="721,-121.8 724.5,-131.8 728,-121.8 721,-121.8"/>
</g>
<!-- Node11 -->
<g id="node11" class="node">
<title>Node11</title>
<g id="a_node11"><a xlink:href="sparse_8hpp.html" target="_top" xlink:title=" ">
<polygon fill="white" stroke="#666666" points="793,-30 656,-30 656,0 793,0 793,-30"/>
<text text-anchor="start" x="664" y="-18" font-family="Helvetica,sans-Serif" font-size="10.00">include/proxsuite/proxqp</text>
<text text-anchor="middle" x="724.5" y="-7" font-family="Helvetica,sans-Serif" font-size="10.00">/sparse/sparse.hpp</text>
</a>
</g>
</g>
<!-- Node10&#45;&gt;Node11 -->
<g id="edge14" class="edge">
<title>Node10&#45;&gt;Node11</title>
<path fill="none" stroke="#63b8ff" d="M724.5,-55.54C724.5,-46.96 724.5,-37.61 724.5,-30.16"/>
<polygon fill="#63b8ff" stroke="#63b8ff" points="721,-55.8 724.5,-65.8 728,-55.8 721,-55.8"/>
</g>
<!-- Node12&#45;&gt;Node9 -->
<g id="edge16" class="edge">
<title>Node12&#45;&gt;Node9</title>
<path fill="none" stroke="#63b8ff" d="M641.85,-253.92C638.63,-237.22 637.2,-215 646.5,-198 655.37,-181.77 672.02,-170.03 687.66,-162.02"/>
<polygon fill="#63b8ff" stroke="#63b8ff" points="638.51,-255.02 644.14,-264 645.34,-253.47 638.51,-255.02"/>
</g>
<!-- Node12&#45;&gt;Node13 -->
<g id="edge17" class="edge">
<title>Node12&#45;&gt;Node13</title>
<path fill="none" stroke="#63b8ff" d="M673.2,-257.2C684.48,-247.7 697.55,-236.69 707.68,-228.16"/>
<polygon fill="#63b8ff" stroke="#63b8ff" points="670.76,-254.68 665.37,-263.8 675.27,-260.03 670.76,-254.68"/>
</g>
<!-- Node13&#45;&gt;Node9 -->
<g id="edge18" class="edge">
<title>Node13&#45;&gt;Node9</title>
<path fill="none" stroke="#63b8ff" d="M724.5,-187.54C724.5,-178.96 724.5,-169.61 724.5,-162.16"/>
<polygon fill="#63b8ff" stroke="#63b8ff" points="721,-187.8 724.5,-197.8 728,-187.8 721,-187.8"/>
</g>
<!-- Node14&#45;&gt;Node9 -->
<g id="edge20" class="edge">
<title>Node14&#45;&gt;Node9</title>
<path fill="none" stroke="#63b8ff" d="M745.18,-322.07C764.28,-300.19 791.33,-264.64 802.5,-228 806.39,-215.25 808.9,-209.7 802.5,-198 793.63,-181.77 776.98,-170.03 761.34,-162.02"/>
<polygon fill="#63b8ff" stroke="#63b8ff" points="742.36,-319.98 738.3,-329.76 747.58,-324.65 742.36,-319.98"/>
</g>
<!-- Node14&#45;&gt;Node12 -->
<g id="edge21" class="edge">
<title>Node14&#45;&gt;Node12</title>
<path fill="none" stroke="#63b8ff" d="M699.8,-323.2C688.52,-313.7 675.45,-302.69 665.32,-294.16"/>
<polygon fill="#63b8ff" stroke="#63b8ff" points="697.73,-326.03 707.63,-329.8 702.24,-320.68 697.73,-326.03"/>
</g>
<!-- Node14&#45;&gt;Node13 -->
<g id="edge22" class="edge">
<title>Node14&#45;&gt;Node13</title>
<path fill="none" stroke="#63b8ff" d="M725.08,-319.93C725.25,-311.7 725.42,-302.45 725.5,-294 725.63,-280.67 725.63,-277.33 725.5,-264 725.38,-251.85 725.09,-238.03 724.86,-228.01"/>
<polygon fill="#63b8ff" stroke="#63b8ff" points="721.58,-319.92 724.86,-329.99 728.58,-320.07 721.58,-319.92"/>
</g>
<!-- Node15&#45;&gt;Node2 -->
<g id="edge26" class="edge">
<title>Node15&#45;&gt;Node2</title>
<path fill="none" stroke="#63b8ff" d="M539.86,-465.56C480.32,-456.95 396.72,-443.34 324.5,-426 246.62,-407.3 157.83,-377.61 107.95,-360.15"/>
<polygon fill="#63b8ff" stroke="#63b8ff" points="539.56,-469.05 549.95,-467 540.55,-462.12 539.56,-469.05"/>
</g>
<!-- Node15&#45;&gt;Node6 -->
<g id="edge29" class="edge">
<title>Node15&#45;&gt;Node6</title>
<path fill="none" stroke="#63b8ff" d="M586.83,-456.69C570.62,-446.82 551.25,-435.01 536.49,-426.01"/>
<polygon fill="#63b8ff" stroke="#63b8ff" points="585.1,-459.74 595.46,-461.95 588.74,-453.76 585.1,-459.74"/>
</g>
<!-- Node15&#45;&gt;Node7 -->
<g id="edge27" class="edge">
<title>Node15&#45;&gt;Node7</title>
<path fill="none" stroke="#63b8ff" d="M539.85,-466.62C505.47,-459.6 466.11,-447.36 435.5,-426 411.17,-409.02 393.58,-378.16 384.81,-360.14"/>
<polygon fill="#63b8ff" stroke="#63b8ff" points="539.39,-470.09 549.87,-468.55 540.71,-463.22 539.39,-470.09"/>
</g>
<!-- Node15&#45;&gt;Node8 -->
<g id="edge28" class="edge">
<title>Node15&#45;&gt;Node8</title>
<path fill="none" stroke="#63b8ff" d="M539.83,-461.44C498.69,-452.9 447.81,-440.85 403.5,-426 347.73,-407.31 285.65,-377.62 250.91,-360.15"/>
<polygon fill="#63b8ff" stroke="#63b8ff" points="539.3,-464.91 549.8,-463.49 540.7,-458.05 539.3,-464.91"/>
</g>
<!-- Node15&#45;&gt;Node9 -->
<g id="edge30" class="edge">
<title>Node15&#45;&gt;Node9</title>
<path fill="none" stroke="#63b8ff" d="M697.44,-466.45C767.72,-453.02 859.5,-421.1 859.5,-346 859.5,-346 859.5,-346 859.5,-278 859.5,-237.84 845.76,-226.54 817.5,-198 802.02,-182.37 780.62,-170.41 762.25,-162.11"/>
<polygon fill="#63b8ff" stroke="#63b8ff" points="696.45,-463.07 687.24,-468.3 697.7,-469.96 696.45,-463.07"/>
</g>
<!-- Node15&#45;&gt;Node10 -->
<g id="edge34" class="edge">
<title>Node15&#45;&gt;Node10</title>
<path fill="none" stroke="#63b8ff" d="M697.24,-472.04C779.75,-463.14 897.5,-434.87 897.5,-346 897.5,-346 897.5,-346 897.5,-212 897.5,-150.01 825.63,-113.92 774.54,-96.1"/>
<polygon fill="#63b8ff" stroke="#63b8ff" points="696.71,-468.57 687.11,-473.05 697.41,-475.54 696.71,-468.57"/>
</g>
<!-- Node15&#45;&gt;Node12 -->
<g id="edge31" class="edge">
<title>Node15&#45;&gt;Node12</title>
<path fill="none" stroke="#63b8ff" d="M622.19,-451.89C628.51,-410.58 641.23,-327.48 646.32,-294.23"/>
<polygon fill="#63b8ff" stroke="#63b8ff" points="618.71,-451.49 620.66,-461.9 625.63,-452.55 618.71,-451.49"/>
</g>
<!-- Node15&#45;&gt;Node13 -->
<g id="edge33" class="edge">
<title>Node15&#45;&gt;Node13</title>
<path fill="none" stroke="#63b8ff" d="M672.95,-458.31C716.67,-440.9 775.14,-409.59 802.5,-360 829.01,-311.94 772.55,-254.32 742.16,-228.16"/>
<polygon fill="#63b8ff" stroke="#63b8ff" points="671.65,-455.06 663.58,-461.93 674.17,-461.59 671.65,-455.06"/>
</g>
<!-- Node15&#45;&gt;Node14 -->
<g id="edge32" class="edge">
<title>Node15&#45;&gt;Node14</title>
<path fill="none" stroke="#63b8ff" d="M636.6,-453.8C658.46,-426.99 694.58,-382.7 712.97,-360.14"/>
<polygon fill="#63b8ff" stroke="#63b8ff" points="633.65,-451.88 630.05,-461.84 639.08,-456.3 633.65,-451.88"/>
</g>
</g>
</svg>
