<?xml version="1.0" encoding="UTF-8" standalone="no"?>
<!DOCTYPE svg PUBLIC "-//W3C//DTD SVG 1.1//EN"
 "http://www.w3.org/Graphics/SVG/1.1/DTD/svg11.dtd">
<!-- Generated by graphviz version 6.0.1 (20220911.2005)
 -->
<!-- Title: proxsuite::linalg::sparse::MatMut&lt; T, I &gt; Pages: 1 -->
<svg width="166pt" height="192pt"
 viewBox="0.00 0.00 166.00 192.00" xmlns="http://www.w3.org/2000/svg" xmlns:xlink="http://www.w3.org/1999/xlink">
<g id="graph0" class="graph" transform="scale(1 1) rotate(0) translate(4 188)">
<title>proxsuite::linalg::sparse::MatMut&lt; T, I &gt;</title>
<!-- Node1 -->
<g id="node1" class="node">
<title>Node1</title>
<g id="a_node1"><a xlink:title=" ">
<polygon fill="#999999" stroke="#666666" points="144,-30 14,-30 14,0 144,0 144,-30"/>
<text text-anchor="start" x="22" y="-18" font-family="Helvetica,sans-Serif" font-size="10.00">proxsuite::linalg::</text>
<text text-anchor="middle" x="79" y="-7" font-family="Helvetica,sans-Serif" font-size="10.00">sparse::MatMut&lt; T, I &gt;</text>
</a>
</g>
</g>
<!-- Node2 -->
<g id="node2" class="node">
<title>Node2</title>
<g id="a_node2"><a xlink:href="structproxsuite_1_1linalg_1_1sparse_1_1__detail_1_1SymbolicMatMutInterface.html" target="_top" xlink:title=" ">
<polygon fill="white" stroke="#666666" points="158,-107 0,-107 0,-66 158,-66 158,-107"/>
<text text-anchor="start" x="8" y="-95" font-family="Helvetica,sans-Serif" font-size="10.00">proxsuite::linalg::</text>
<text text-anchor="start" x="8" y="-84" font-family="Helvetica,sans-Serif" font-size="10.00">sparse::_detail::SymbolicMat</text>
<text text-anchor="middle" x="79" y="-73" font-family="Helvetica,sans-Serif" font-size="10.00">MutInterface&lt; D, I &gt;</text>
</a>
</g>
</g>
<!-- Node2&#45;&gt;Node1 -->
<g id="edge1" class="edge">
<title>Node2&#45;&gt;Node1</title>
<path fill="none" stroke="#63b8ff" d="M79,-55.66C79,-46.76 79,-37.42 79,-30.04"/>
<polygon fill="#63b8ff" stroke="#63b8ff" points="75.5,-55.77 79,-65.77 82.5,-55.77 75.5,-55.77"/>
</g>
<!-- Node3 -->
<g id="node3" class="node">
<title>Node3</title>
<g id="a_node3"><a xlink:href="structproxsuite_1_1linalg_1_1sparse_1_1__detail_1_1SymbolicMatRefInterface.html" target="_top" xlink:title=" ">
<polygon fill="white" stroke="#666666" points="158,-184 0,-184 0,-143 158,-143 158,-184"/>
<text text-anchor="start" x="8" y="-172" font-family="Helvetica,sans-Serif" font-size="10.00">proxsuite::linalg::</text>
<text text-anchor="start" x="8" y="-161" font-family="Helvetica,sans-Serif" font-size="10.00">sparse::_detail::SymbolicMat</text>
<text text-anchor="middle" x="79" y="-150" font-family="Helvetica,sans-Serif" font-size="10.00">RefInterface&lt; D, I &gt;</text>
</a>
</g>
</g>
<!-- Node3&#45;&gt;Node2 -->
<g id="edge2" class="edge">
<title>Node3&#45;&gt;Node2</title>
<path fill="none" stroke="#63b8ff" d="M79,-132.69C79,-124.08 79,-114.9 79,-107.07"/>
<polygon fill="#63b8ff" stroke="#63b8ff" points="75.5,-132.79 79,-142.79 82.5,-132.79 75.5,-132.79"/>
</g>
</g>
</svg>
