<?xml version="1.0" encoding="UTF-8" standalone="no"?>
<!DOCTYPE svg PUBLIC "-//W3C//DTD SVG 1.1//EN"
 "http://www.w3.org/Graphics/SVG/1.1/DTD/svg11.dtd">
<!-- Generated by graphviz version 5.0.0 (20220707.2338)
 -->
<!-- Title: proxsuite::linalg::veg::_detail::_mem::has_member_addr&lt; T &gt; Pages: 1 -->
<svg width="350pt" height="110pt"
 viewBox="0.00 0.00 350.00 110.00" xmlns="http://www.w3.org/2000/svg" xmlns:xlink="http://www.w3.org/1999/xlink">
<g id="graph0" class="graph" transform="scale(1 1) rotate(0) translate(4 106)">
<title>proxsuite::linalg::veg::_detail::_mem::has_member_addr&lt; T &gt;</title>
<!-- Node1 -->
<g id="node1" class="node">
<title>Node1</title>
<g id="a_node1"><a xlink:title=" ">
<polygon fill="#bfbfbf" stroke="black" points="206,-30.5 206,-71.5 342,-71.5 342,-30.5 206,-30.5"/>
<text text-anchor="start" x="214" y="-59.5" font-family="Helvetica,sans-Serif" font-size="10.00">proxsuite::linalg::</text>
<text text-anchor="start" x="214" y="-48.5" font-family="Helvetica,sans-Serif" font-size="10.00">veg::_detail::_mem::</text>
<text text-anchor="middle" x="274" y="-37.5" font-family="Helvetica,sans-Serif" font-size="10.00">has_member_addr&lt; T &gt;</text>
</a>
</g>
</g>
<!-- Node2 -->
<g id="node2" class="node">
<title>Node2</title>
<g id="a_node2"><a xlink:href="structproxsuite_1_1linalg_1_1veg_1_1meta_1_1constant.html" target="_top" xlink:title=" ">
<polygon fill="none" stroke="black" points="0,-60.5 0,-101.5 170,-101.5 170,-60.5 0,-60.5"/>
<text text-anchor="start" x="8" y="-89.5" font-family="Helvetica,sans-Serif" font-size="10.00">meta::bool_constant</text>
<text text-anchor="start" x="8" y="-78.5" font-family="Helvetica,sans-Serif" font-size="10.00">&lt; VEG_CONCEPT(detected</text>
<text text-anchor="middle" x="85" y="-67.5" font-family="Helvetica,sans-Serif" font-size="10.00">&lt; member_addr::type, T &amp; &gt;)&gt;</text>
</a>
</g>
</g>
<!-- Node2&#45;&gt;Node1 -->
<g id="edge1" class="edge">
<title>Node2&#45;&gt;Node1</title>
<path fill="none" stroke="midnightblue" d="M180.29,-65.87C188.9,-64.49 197.5,-63.11 205.8,-61.78"/>
<polygon fill="midnightblue" stroke="midnightblue" points="179.52,-62.45 170.2,-67.49 180.63,-69.36 179.52,-62.45"/>
</g>
<!-- Node3 -->
<g id="node3" class="node">
<title>Node3</title>
<g id="a_node3"><a xlink:href="structproxsuite_1_1linalg_1_1veg_1_1__detail_1_1__mem_1_1member__addr.html" target="_top" xlink:title=" ">
<polygon fill="none" stroke="black" points="27,-0.5 27,-41.5 143,-41.5 143,-0.5 27,-0.5"/>
<text text-anchor="start" x="35" y="-29.5" font-family="Helvetica,sans-Serif" font-size="10.00">proxsuite::linalg::</text>
<text text-anchor="start" x="35" y="-18.5" font-family="Helvetica,sans-Serif" font-size="10.00">veg::_detail::_mem::</text>
<text text-anchor="middle" x="85" y="-7.5" font-family="Helvetica,sans-Serif" font-size="10.00">member_addr</text>
</a>
</g>
</g>
<!-- Node3&#45;&gt;Node1 -->
<g id="edge2" class="edge">
<title>Node3&#45;&gt;Node1</title>
<path fill="none" stroke="midnightblue" d="M153.04,-31.75C170.16,-34.5 188.58,-37.46 205.72,-40.21"/>
<polygon fill="midnightblue" stroke="midnightblue" points="153.55,-28.29 143.12,-30.16 152.44,-35.2 153.55,-28.29"/>
</g>
</g>
</svg>
