<?xml version="1.0" encoding="UTF-8" standalone="no"?>
<!DOCTYPE svg PUBLIC "-//W3C//DTD SVG 1.1//EN"
 "http://www.w3.org/Graphics/SVG/1.1/DTD/svg11.dtd">
<!-- Generated by graphviz version 8.0.4 (20230426.1303)
 -->
<!-- Title: tl::detail::optional_move_base&lt; T, false &gt; Pages: 1 -->
<svg width="150pt" height="250pt"
 viewBox="0.00 0.00 150.00 250.00" xmlns="http://www.w3.org/2000/svg" xmlns:xlink="http://www.w3.org/1999/xlink">
<g id="graph0" class="graph" transform="scale(1 1) rotate(0) translate(4 246)">
<title>tl::detail::optional_move_base&lt; T, false &gt;</title>
<!-- Node1 -->
<g id="node1" class="node">
<title>Node1</title>
<g id="a_node1"><a xlink:title=" ">
<polygon fill="#999999" stroke="#666666" points="139,-33.5 3,-33.5 3,0 139,0 139,-33.5"/>
<text text-anchor="start" x="11" y="-20" font-family="Helvetica,sans-Serif" font-size="10.00">tl::detail::optional</text>
<text text-anchor="middle" x="71" y="-7.25" font-family="Helvetica,sans-Serif" font-size="10.00">_move_base&lt; T, false &gt;</text>
</a>
</g>
</g>
<!-- Node2 -->
<g id="node2" class="node">
<title>Node2</title>
<g id="a_node2"><a xlink:href="structtl_1_1detail_1_1optional__copy__base.html" target="_top" xlink:title=" ">
<polygon fill="white" stroke="#666666" points="135.25,-103 6.75,-103 6.75,-69.5 135.25,-69.5 135.25,-103"/>
<text text-anchor="start" x="14.75" y="-89.5" font-family="Helvetica,sans-Serif" font-size="10.00">tl::detail::optional</text>
<text text-anchor="middle" x="71" y="-76.75" font-family="Helvetica,sans-Serif" font-size="10.00">_copy_base&lt; T, bool &gt;</text>
</a>
</g>
</g>
<!-- Node2&#45;&gt;Node1 -->
<g id="edge1" class="edge">
<title>Node2&#45;&gt;Node1</title>
<path fill="none" stroke="#63b8ff" d="M71,-58.39C71,-50 71,-41.01 71,-33.63"/>
<polygon fill="#63b8ff" stroke="#63b8ff" points="67.5,-58.25 71,-68.25 74.5,-58.25 67.5,-58.25"/>
</g>
<!-- Node3 -->
<g id="node3" class="node">
<title>Node3</title>
<g id="a_node3"><a xlink:href="structtl_1_1detail_1_1optional__operations__base.html" target="_top" xlink:title=" ">
<polygon fill="white" stroke="#666666" points="136,-172.5 6,-172.5 6,-139 136,-139 136,-172.5"/>
<text text-anchor="start" x="14" y="-159" font-family="Helvetica,sans-Serif" font-size="10.00">tl::detail::optional</text>
<text text-anchor="middle" x="71" y="-146.25" font-family="Helvetica,sans-Serif" font-size="10.00">_operations_base&lt; T &gt;</text>
</a>
</g>
</g>
<!-- Node3&#45;&gt;Node2 -->
<g id="edge2" class="edge">
<title>Node3&#45;&gt;Node2</title>
<path fill="none" stroke="#63b8ff" d="M71,-127.89C71,-119.5 71,-110.51 71,-103.13"/>
<polygon fill="#63b8ff" stroke="#63b8ff" points="67.5,-127.75 71,-137.75 74.5,-127.75 67.5,-127.75"/>
</g>
<!-- Node4 -->
<g id="node4" class="node">
<title>Node4</title>
<g id="a_node4"><a xlink:href="structtl_1_1detail_1_1optional__storage__base.html" target="_top" xlink:title=" ">
<polygon fill="white" stroke="#666666" points="142,-242 0,-242 0,-208.5 142,-208.5 142,-242"/>
<text text-anchor="start" x="8" y="-228.5" font-family="Helvetica,sans-Serif" font-size="10.00">tl::detail::optional</text>
<text text-anchor="middle" x="71" y="-215.75" font-family="Helvetica,sans-Serif" font-size="10.00">_storage_base&lt; T, bool &gt;</text>
</a>
</g>
</g>
<!-- Node4&#45;&gt;Node3 -->
<g id="edge3" class="edge">
<title>Node4&#45;&gt;Node3</title>
<path fill="none" stroke="#63b8ff" d="M71,-197.39C71,-189 71,-180.01 71,-172.63"/>
<polygon fill="#63b8ff" stroke="#63b8ff" points="67.5,-197.25 71,-207.25 74.5,-197.25 67.5,-197.25"/>
</g>
</g>
</svg>
