<?xml version="1.0" encoding="UTF-8" standalone="no"?>
<!DOCTYPE svg PUBLIC "-//W3C//DTD SVG 1.1//EN"
 "http://www.w3.org/Graphics/SVG/1.1/DTD/svg11.dtd">
<!-- Generated by graphviz version 11.0.0 (20240519.1550)
 -->
<!-- Title: proxsuite::proxqp::sparse::QpViewMut&lt; T, I &gt; Pages: 1 -->
<svg width="752pt" height="109pt"
 viewBox="0.00 0.00 751.50 108.88" xmlns="http://www.w3.org/2000/svg" xmlns:xlink="http://www.w3.org/1999/xlink">
<g id="graph0" class="graph" transform="scale(1 1) rotate(0) translate(4 104.88)">
<title>proxsuite::proxqp::sparse::QpViewMut&lt; T, I &gt;</title>
<!-- Node1 -->
<g id="Node000001" class="node">
<title>Node1</title>
<g id="a_Node000001"><a xlink:title=" ">
<polygon fill="#999999" stroke="#666666" points="743.5,-57.12 595.5,-57.12 595.5,-23.62 743.5,-23.62 743.5,-57.12"/>
<text text-anchor="start" x="603.5" y="-43.62" font-family="Helvetica,sans-Serif" font-size="10.00">proxsuite::proxqp::</text>
<text text-anchor="middle" x="669.5" y="-30.88" font-family="Helvetica,sans-Serif" font-size="10.00">sparse::QpViewMut&lt; T, I &gt;</text>
</a>
</g>
</g>
<!-- Node2 -->
<g id="Node000002" class="node">
<title>Node2</title>
<g id="a_Node000002"><a xlink:href="structproxsuite_1_1linalg_1_1sparse_1_1MatMut.html" target="_top" xlink:title=" ">
<polygon fill="white" stroke="#666666" points="544.5,-57.12 415.25,-57.12 415.25,-23.62 544.5,-23.62 544.5,-57.12"/>
<text text-anchor="start" x="423.25" y="-43.62" font-family="Helvetica,sans-Serif" font-size="10.00">proxsuite::linalg::</text>
<text text-anchor="middle" x="479.88" y="-30.88" font-family="Helvetica,sans-Serif" font-size="10.00">sparse::MatMut&lt; T, I &gt;</text>
</a>
</g>
</g>
<!-- Node2&#45;&gt;Node1 -->
<g id="edge1_Node000001_Node000002" class="edge">
<title>Node2&#45;&gt;Node1</title>
<g id="a_edge1_Node000001_Node000002"><a xlink:title=" ">
<path fill="none" stroke="#9a32cd" stroke-dasharray="5,2" d="M556.06,-40.38C568.92,-40.38 582.25,-40.38 595.06,-40.38"/>
<polygon fill="#9a32cd" stroke="#9a32cd" points="556.43,-36.88 546.43,-40.38 556.43,-43.88 556.43,-36.88"/>
</a>
</g>
<text text-anchor="middle" x="570" y="-69.12" font-family="Helvetica,sans-Serif" font-size="10.00" fill="grey"> AT</text>
<text text-anchor="middle" x="570" y="-56.38" font-family="Helvetica,sans-Serif" font-size="10.00" fill="grey">CT</text>
<text text-anchor="middle" x="570" y="-43.62" font-family="Helvetica,sans-Serif" font-size="10.00" fill="grey">H</text>
</g>
<!-- Node3 -->
<g id="Node000003" class="node">
<title>Node3</title>
<g id="a_Node000003"><a xlink:href="structproxsuite_1_1linalg_1_1sparse_1_1__detail_1_1SymbolicMatMutInterface.html" target="_top" xlink:title=" ">
<polygon fill="white" stroke="#666666" points="350,-100.88 193,-100.88 193,-41.88 350,-41.88 350,-100.88"/>
<text text-anchor="start" x="201" y="-87.38" font-family="Helvetica,sans-Serif" font-size="10.00">proxsuite::linalg::</text>
<text text-anchor="start" x="201" y="-74.62" font-family="Helvetica,sans-Serif" font-size="10.00">sparse::_detail::SymbolicMat</text>
<text text-anchor="start" x="201" y="-61.88" font-family="Helvetica,sans-Serif" font-size="10.00">MutInterface&lt; MatMut&lt; T,</text>
<text text-anchor="middle" x="271.5" y="-49.12" font-family="Helvetica,sans-Serif" font-size="10.00"> I &gt;, I &gt;</text>
</a>
</g>
</g>
<!-- Node3&#45;&gt;Node2 -->
<g id="edge2_Node000002_Node000003" class="edge">
<title>Node3&#45;&gt;Node2</title>
<g id="a_edge2_Node000002_Node000003"><a xlink:title=" ">
<path fill="none" stroke="#63b8ff" d="M361.36,-58.03C379.4,-55.32 398.04,-52.52 415,-49.97"/>
<polygon fill="#63b8ff" stroke="#63b8ff" points="361.09,-54.53 351.72,-59.47 362.13,-61.45 361.09,-54.53"/>
</a>
</g>
</g>
<!-- Node4 -->
<g id="Node000004" class="node">
<title>Node4</title>
<g id="a_Node000004"><a xlink:href="structproxsuite_1_1linalg_1_1sparse_1_1__detail_1_1SymbolicMatRefInterface.html" target="_top" xlink:title=" ">
<polygon fill="white" stroke="#666666" points="157,-94.5 0,-94.5 0,-48.25 157,-48.25 157,-94.5"/>
<text text-anchor="start" x="8" y="-81" font-family="Helvetica,sans-Serif" font-size="10.00">proxsuite::linalg::</text>
<text text-anchor="start" x="8" y="-68.25" font-family="Helvetica,sans-Serif" font-size="10.00">sparse::_detail::SymbolicMat</text>
<text text-anchor="middle" x="78.5" y="-55.5" font-family="Helvetica,sans-Serif" font-size="10.00">RefInterface&lt; D, I &gt;</text>
</a>
</g>
</g>
<!-- Node4&#45;&gt;Node3 -->
<g id="edge3_Node000003_Node000004" class="edge">
<title>Node4&#45;&gt;Node3</title>
<g id="a_edge3_Node000003_Node000004"><a xlink:title=" ">
<path fill="none" stroke="#63b8ff" d="M168.75,-71.38C176.78,-71.38 184.87,-71.38 192.79,-71.38"/>
<polygon fill="#63b8ff" stroke="#63b8ff" points="168.98,-67.88 158.98,-71.38 168.98,-74.88 168.98,-67.88"/>
</a>
</g>
</g>
<!-- Node5 -->
<g id="Node000005" class="node">
<title>Node5</title>
<g id="a_Node000005"><a xlink:title=" ">
<polygon fill="white" stroke="#666666" points="290.75,-20.75 252.25,-20.75 252.25,0 290.75,0 290.75,-20.75"/>
<text text-anchor="middle" x="271.5" y="-7.25" font-family="Helvetica,sans-Serif" font-size="10.00">isize</text>
</a>
</g>
</g>
<!-- Node5&#45;&gt;Node2 -->
<g id="edge4_Node000002_Node000005" class="edge">
<title>Node5&#45;&gt;Node2</title>
<g id="a_edge4_Node000002_Node000005"><a xlink:title=" ">
<path fill="none" stroke="#9a32cd" stroke-dasharray="5,2" d="M302.3,-7.76C327.73,-6.19 365.18,-5.45 397.25,-11.12 411.33,-13.62 426.2,-18.29 439.34,-23.17"/>
<polygon fill="#9a32cd" stroke="#9a32cd" points="302.09,-4.26 292.36,-8.46 302.59,-11.24 302.09,-4.26"/>
</a>
</g>
<text text-anchor="middle" x="382.62" y="-39.12" font-family="Helvetica,sans-Serif" font-size="10.00" fill="grey"> ncols</text>
<text text-anchor="middle" x="382.62" y="-26.38" font-family="Helvetica,sans-Serif" font-size="10.00" fill="grey">nnz</text>
<text text-anchor="middle" x="382.62" y="-13.62" font-family="Helvetica,sans-Serif" font-size="10.00" fill="grey">nrows</text>
</g>
</g>
</svg>
