<?xml version="1.0" encoding="UTF-8" standalone="no"?>
<!DOCTYPE svg PUBLIC "-//W3C//DTD SVG 1.1//EN"
 "http://www.w3.org/Graphics/SVG/1.1/DTD/svg11.dtd">
<!-- Generated by graphviz version 11.0.0 (20240519.1550)
 -->
<!-- Title: proxsuite::linalg::veg::_detail::_collections::Cleanup&lt; T, A, C &gt; Pages: 1 -->
<svg width="236pt" height="206pt"
 viewBox="0.00 0.00 235.50 206.00" xmlns="http://www.w3.org/2000/svg" xmlns:xlink="http://www.w3.org/1999/xlink">
<g id="graph0" class="graph" transform="scale(1 1) rotate(0) translate(4 202)">
<title>proxsuite::linalg::veg::_detail::_collections::Cleanup&lt; T, A, C &gt;</title>
<!-- Node1 -->
<g id="Node000001" class="node">
<title>Node1</title>
<g id="a_Node000001"><a xlink:title=" ">
<polygon fill="#999999" stroke="#666666" points="181.62,-46.25 44.88,-46.25 44.88,0 181.62,0 181.62,-46.25"/>
<text text-anchor="start" x="52.88" y="-32.75" font-family="Helvetica,sans-Serif" font-size="10.00">proxsuite::linalg::</text>
<text text-anchor="start" x="52.88" y="-20" font-family="Helvetica,sans-Serif" font-size="10.00">veg::_detail::_collections</text>
<text text-anchor="middle" x="113.25" y="-7.25" font-family="Helvetica,sans-Serif" font-size="10.00">::Cleanup&lt; T, A, C &gt;</text>
</a>
</g>
</g>
<!-- Node2 -->
<g id="Node000002" class="node">
<title>Node2</title>
<g id="a_Node000002"><a xlink:href="structproxsuite_1_1linalg_1_1veg_1_1RefMut.html" target="_top" xlink:title=" ">
<polygon fill="white" stroke="#666666" points="104.5,-128.5 0,-128.5 0,-95 104.5,-95 104.5,-128.5"/>
<text text-anchor="start" x="8" y="-115" font-family="Helvetica,sans-Serif" font-size="10.00">proxsuite::linalg::</text>
<text text-anchor="middle" x="52.25" y="-102.25" font-family="Helvetica,sans-Serif" font-size="10.00">veg::RefMut&lt; A &gt;</text>
</a>
</g>
</g>
<!-- Node2&#45;&gt;Node1 -->
<g id="edge1_Node000001_Node000002" class="edge">
<title>Node2&#45;&gt;Node1</title>
<g id="a_edge1_Node000001_Node000002"><a xlink:title=" ">
<path fill="none" stroke="#9a32cd" stroke-dasharray="5,2" d="M69.99,-85.55C78.71,-73.18 89.12,-58.4 97.54,-46.44"/>
<polygon fill="#9a32cd" stroke="#9a32cd" points="67.21,-83.43 64.31,-93.62 72.93,-87.46 67.21,-83.43"/>
</a>
</g>
<text text-anchor="middle" x="98.38" y="-67.5" font-family="Helvetica,sans-Serif" font-size="10.00" fill="grey"> alloc</text>
</g>
<!-- Node3 -->
<g id="Node000003" class="node">
<title>Node3</title>
<g id="a_Node000003"><a xlink:href="structproxsuite_1_1linalg_1_1veg_1_1cmp_1_1mut_1_1RefMutBase.html" target="_top" xlink:title=" ">
<polygon fill="white" stroke="#666666" points="189.12,-198 37.38,-198 37.38,-164.5 189.12,-164.5 189.12,-198"/>
<text text-anchor="start" x="45.38" y="-184.5" font-family="Helvetica,sans-Serif" font-size="10.00">proxsuite::linalg::</text>
<text text-anchor="middle" x="113.25" y="-171.75" font-family="Helvetica,sans-Serif" font-size="10.00">veg::cmp::mut::RefMutBase</text>
</a>
</g>
</g>
<!-- Node3&#45;&gt;Node2 -->
<g id="edge2_Node000002_Node000003" class="edge">
<title>Node3&#45;&gt;Node2</title>
<g id="a_edge2_Node000002_Node000003"><a xlink:title=" ">
<path fill="none" stroke="#63b8ff" d="M91.28,-155.94C83.07,-146.85 73.95,-136.77 66.6,-128.63"/>
<polygon fill="#63b8ff" stroke="#63b8ff" points="88.48,-158.06 97.78,-163.13 93.67,-153.36 88.48,-158.06"/>
</a>
</g>
</g>
<!-- Node4 -->
<g id="Node000004" class="node">
<title>Node4</title>
<g id="a_Node000004"><a xlink:href="structproxsuite_1_1linalg_1_1veg_1_1RefMut.html" target="_top" xlink:title=" ">
<polygon fill="white" stroke="#666666" points="227.5,-128.5 123,-128.5 123,-95 227.5,-95 227.5,-128.5"/>
<text text-anchor="start" x="131" y="-115" font-family="Helvetica,sans-Serif" font-size="10.00">proxsuite::linalg::</text>
<text text-anchor="middle" x="175.25" y="-102.25" font-family="Helvetica,sans-Serif" font-size="10.00">veg::RefMut&lt; C &gt;</text>
</a>
</g>
</g>
<!-- Node3&#45;&gt;Node4 -->
<g id="edge4_Node000004_Node000003" class="edge">
<title>Node3&#45;&gt;Node4</title>
<g id="a_edge4_Node000004_Node000003"><a xlink:title=" ">
<path fill="none" stroke="#63b8ff" d="M135.58,-155.94C143.93,-146.85 153.19,-136.77 160.66,-128.63"/>
<polygon fill="#63b8ff" stroke="#63b8ff" points="133.15,-153.41 128.97,-163.14 138.31,-158.14 133.15,-153.41"/>
</a>
</g>
</g>
<!-- Node4&#45;&gt;Node1 -->
<g id="edge3_Node000001_Node000004" class="edge">
<title>Node4&#45;&gt;Node1</title>
<g id="a_edge3_Node000001_Node000004"><a xlink:title=" ">
<path fill="none" stroke="#9a32cd" stroke-dasharray="5,2" d="M157.22,-85.55C148.36,-73.18 137.78,-58.4 129.22,-46.44"/>
<polygon fill="#9a32cd" stroke="#9a32cd" points="154.33,-87.54 163,-93.63 160.02,-83.46 154.33,-87.54"/>
</a>
</g>
<text text-anchor="middle" x="165.75" y="-67.5" font-family="Helvetica,sans-Serif" font-size="10.00" fill="grey"> cloner</text>
</g>
</g>
</svg>
