<?xml version="1.0" encoding="UTF-8" standalone="no"?>
<!DOCTYPE svg PUBLIC "-//W3C//DTD SVG 1.1//EN"
 "http://www.w3.org/Graphics/SVG/1.1/DTD/svg11.dtd">
<!-- Generated by graphviz version 12.2.1 (20250203.1708)
 -->
<!-- Title: proxsuite::linalg::veg::_detail::_mem::ManagedAlloc&lt; A &gt; Pages: 1 -->
<svg width="259pt" height="207pt"
 viewBox="0.00 0.00 259.12 207.00" xmlns="http://www.w3.org/2000/svg" xmlns:xlink="http://www.w3.org/1999/xlink">
<g id="graph0" class="graph" transform="scale(1 1) rotate(0) translate(4 203)">
<title>proxsuite::linalg::veg::_detail::_mem::ManagedAlloc&lt; A &gt;</title>
<!-- Node1 -->
<g id="Node000001" class="node">
<title>Node1</title>
<g id="a_Node000001"><a xlink:title=" ">
<polygon fill="#999999" stroke="#666666" points="138.12,-46.25 22.38,-46.25 22.38,0 138.12,0 138.12,-46.25"/>
<text text-anchor="start" x="30.38" y="-32.75" font-family="Helvetica,sans-Serif" font-size="10.00">proxsuite::linalg::</text>
<text text-anchor="start" x="30.38" y="-20" font-family="Helvetica,sans-Serif" font-size="10.00">veg::_detail::_mem::</text>
<text text-anchor="middle" x="80.25" y="-7.25" font-family="Helvetica,sans-Serif" font-size="10.00">ManagedAlloc&lt; A &gt;</text>
</a>
</g>
</g>
<!-- Node2 -->
<g id="Node000002" class="node">
<title>Node2</title>
<g id="a_Node000002"><a xlink:href="structproxsuite_1_1linalg_1_1veg_1_1mem_1_1Layout.html" target="_top" xlink:title=" ">
<polygon fill="white" stroke="#666666" points="104.5,-128.5 0,-128.5 0,-95 104.5,-95 104.5,-128.5"/>
<text text-anchor="start" x="8" y="-115" font-family="Helvetica,sans-Serif" font-size="10.00">proxsuite::linalg::</text>
<text text-anchor="middle" x="52.25" y="-102.25" font-family="Helvetica,sans-Serif" font-size="10.00">veg::mem::Layout</text>
</a>
</g>
</g>
<!-- Node2&#45;&gt;Node1 -->
<g id="edge1_Node000001_Node000002" class="edge">
<title>Node2&#45;&gt;Node1</title>
<g id="a_edge1_Node000001_Node000002"><a xlink:title=" ">
<path fill="none" stroke="#9a32cd" stroke-dasharray="5,2" d="M60.87,-84.07C64.77,-72.01 69.32,-57.92 73.04,-46.44"/>
<polygon fill="#9a32cd" stroke="#9a32cd" points="57.6,-82.83 57.85,-93.42 64.26,-84.98 57.6,-82.83"/>
</a>
</g>
<text text-anchor="middle" x="83.96" y="-67.5" font-family="Helvetica,sans-Serif" font-size="10.00" fill="grey"> layout</text>
</g>
<!-- Node3 -->
<g id="Node000003" class="node">
<title>Node3</title>
<g id="a_Node000003"><a xlink:href="structproxsuite_1_1linalg_1_1veg_1_1RefMut.html" target="_top" xlink:title=" ">
<polygon fill="white" stroke="#666666" points="227.5,-128.5 123,-128.5 123,-95 227.5,-95 227.5,-128.5"/>
<text text-anchor="start" x="131" y="-115" font-family="Helvetica,sans-Serif" font-size="10.00">proxsuite::linalg::</text>
<text text-anchor="middle" x="175.25" y="-102.25" font-family="Helvetica,sans-Serif" font-size="10.00">veg::RefMut&lt; A &gt;</text>
</a>
</g>
</g>
<!-- Node3&#45;&gt;Node1 -->
<g id="edge2_Node000001_Node000003" class="edge">
<title>Node3&#45;&gt;Node1</title>
<g id="a_edge2_Node000001_Node000003"><a xlink:title=" ">
<path fill="none" stroke="#9a32cd" stroke-dasharray="5,2" d="M149.61,-87.37C135.66,-74.65 118.49,-58.99 104.72,-46.44"/>
<polygon fill="#9a32cd" stroke="#9a32cd" points="146.96,-89.69 156.71,-93.84 151.68,-84.52 146.96,-89.69"/>
</a>
</g>
<text text-anchor="middle" x="149.38" y="-67.5" font-family="Helvetica,sans-Serif" font-size="10.00" fill="grey"> alloc</text>
</g>
<!-- Node4 -->
<g id="Node000004" class="node">
<title>Node4</title>
<g id="a_Node000004"><a xlink:href="structproxsuite_1_1linalg_1_1veg_1_1cmp_1_1mut_1_1RefMutBase.html" target="_top" xlink:title=" ">
<polygon fill="white" stroke="#666666" points="251.12,-199 99.38,-199 99.38,-165.5 251.12,-165.5 251.12,-199"/>
<text text-anchor="start" x="107.38" y="-185.5" font-family="Helvetica,sans-Serif" font-size="10.00">proxsuite::linalg::</text>
<text text-anchor="middle" x="175.25" y="-172.75" font-family="Helvetica,sans-Serif" font-size="10.00">veg::cmp::mut::RefMutBase</text>
</a>
</g>
</g>
<!-- Node4&#45;&gt;Node3 -->
<g id="edge3_Node000003_Node000004" class="edge">
<title>Node4&#45;&gt;Node3</title>
<g id="a_edge3_Node000003_Node000004"><a xlink:title=" ">
<path fill="none" stroke="#63b8ff" d="M175.25,-153.7C175.25,-145.27 175.25,-136.27 175.25,-128.87"/>
<polygon fill="#63b8ff" stroke="#63b8ff" points="171.75,-153.5 175.25,-163.5 178.75,-153.5 171.75,-153.5"/>
</a>
</g>
</g>
</g>
</svg>
