<?xml version="1.0" encoding="UTF-8" standalone="no"?>
<!DOCTYPE svg PUBLIC "-//W3C//DTD SVG 1.1//EN"
 "http://www.w3.org/Graphics/SVG/1.1/DTD/svg11.dtd">
<!-- Generated by graphviz version 5.0.1 (20220821.0811)
 -->
<!-- Title: proxsuite::linalg::veg::_detail::_collections::AllocCleanup&lt; A &gt; Pages: 1 -->
<svg width="260pt" height="196pt"
 viewBox="0.00 0.00 259.50 196.00" xmlns="http://www.w3.org/2000/svg" xmlns:xlink="http://www.w3.org/1999/xlink">
<g id="graph0" class="graph" transform="scale(1 1) rotate(0) translate(4 192)">
<title>proxsuite::linalg::veg::_detail::_collections::AllocCleanup&lt; A &gt;</title>
<!-- Node1 -->
<g id="node1" class="node">
<title>Node1</title>
<g id="a_node1"><a xlink:title=" ">
<polygon fill="#bfbfbf" stroke="black" points="99.5,-0.5 99.5,-41.5 236.5,-41.5 236.5,-0.5 99.5,-0.5"/>
<text text-anchor="start" x="107.5" y="-29.5" font-family="Helvetica,sans-Serif" font-size="10.00">proxsuite::linalg::</text>
<text text-anchor="start" x="107.5" y="-18.5" font-family="Helvetica,sans-Serif" font-size="10.00">veg::_detail::_collections</text>
<text text-anchor="middle" x="168" y="-7.5" font-family="Helvetica,sans-Serif" font-size="10.00">::AllocCleanup&lt; A &gt;</text>
</a>
</g>
</g>
<!-- Node2 -->
<g id="node2" class="node">
<title>Node2</title>
<g id="a_node2"><a xlink:href="structproxsuite_1_1linalg_1_1veg_1_1RefMut.html" target="_top" xlink:title=" ">
<polygon fill="none" stroke="black" points="23.5,-89.5 23.5,-119.5 128.5,-119.5 128.5,-89.5 23.5,-89.5"/>
<text text-anchor="start" x="31.5" y="-107.5" font-family="Helvetica,sans-Serif" font-size="10.00">proxsuite::linalg::</text>
<text text-anchor="middle" x="76" y="-96.5" font-family="Helvetica,sans-Serif" font-size="10.00">veg::RefMut&lt; A &gt;</text>
</a>
</g>
</g>
<!-- Node2&#45;&gt;Node1 -->
<g id="edge1" class="edge">
<title>Node2&#45;&gt;Node1</title>
<path fill="none" stroke="#9a32cd" stroke-dasharray="5,2" d="M99.52,-82.66C113.81,-70 131.94,-53.94 145.96,-41.53"/>
<polygon fill="#9a32cd" stroke="#9a32cd" points="97.19,-80.05 92.03,-89.3 101.83,-85.29 97.19,-80.05"/>
<text text-anchor="middle" x="138.5" y="-63" font-family="Helvetica,sans-Serif" font-size="10.00"> alloc</text>
</g>
<!-- Node3 -->
<g id="node3" class="node">
<title>Node3</title>
<g id="a_node3"><a xlink:href="structproxsuite_1_1linalg_1_1veg_1_1cmp_1_1mut_1_1RefMutBase.html" target="_top" xlink:title=" ">
<polygon fill="none" stroke="black" points="0,-157.5 0,-187.5 152,-187.5 152,-157.5 0,-157.5"/>
<text text-anchor="start" x="8" y="-175.5" font-family="Helvetica,sans-Serif" font-size="10.00">proxsuite::linalg::</text>
<text text-anchor="middle" x="76" y="-164.5" font-family="Helvetica,sans-Serif" font-size="10.00">veg::cmp::mut::RefMutBase</text>
</a>
</g>
</g>
<!-- Node3&#45;&gt;Node2 -->
<g id="edge2" class="edge">
<title>Node3&#45;&gt;Node2</title>
<path fill="none" stroke="midnightblue" d="M76,-147.03C76,-137.86 76,-127.74 76,-119.79"/>
<polygon fill="midnightblue" stroke="midnightblue" points="72.5,-147.18 76,-157.18 79.5,-147.18 72.5,-147.18"/>
</g>
<!-- Node4 -->
<g id="node4" class="node">
<title>Node4</title>
<g id="a_node4"><a xlink:href="structproxsuite_1_1linalg_1_1veg_1_1mem_1_1Layout.html" target="_top" xlink:title=" ">
<polygon fill="none" stroke="black" points="146.5,-89.5 146.5,-119.5 251.5,-119.5 251.5,-89.5 146.5,-89.5"/>
<text text-anchor="start" x="154.5" y="-107.5" font-family="Helvetica,sans-Serif" font-size="10.00">proxsuite::linalg::</text>
<text text-anchor="middle" x="199" y="-96.5" font-family="Helvetica,sans-Serif" font-size="10.00">veg::mem::Layout</text>
</a>
</g>
</g>
<!-- Node4&#45;&gt;Node1 -->
<g id="edge3" class="edge">
<title>Node4&#45;&gt;Node1</title>
<path fill="none" stroke="#9a32cd" stroke-dasharray="5,2" d="M189.98,-79.8C185.36,-67.65 179.8,-53.02 175.43,-41.53"/>
<polygon fill="#9a32cd" stroke="#9a32cd" points="186.77,-81.2 193.6,-89.3 193.32,-78.71 186.77,-81.2"/>
<text text-anchor="middle" x="203" y="-63" font-family="Helvetica,sans-Serif" font-size="10.00"> layout</text>
</g>
</g>
</svg>
