<?xml version="1.0" encoding="UTF-8" standalone="no"?>
<!DOCTYPE svg PUBLIC "-//W3C//DTD SVG 1.1//EN"
 "http://www.w3.org/Graphics/SVG/1.1/DTD/svg11.dtd">
<!-- Generated by graphviz version 11.0.0 (20240519.1550)
 -->
<!-- Title: proxsuite::proxqp::sparse::QpView&lt; T, I &gt; Pages: 1 -->
<svg width="538pt" height="109pt"
 viewBox="0.00 0.00 537.50 108.88" xmlns="http://www.w3.org/2000/svg" xmlns:xlink="http://www.w3.org/1999/xlink">
<g id="graph0" class="graph" transform="scale(1 1) rotate(0) translate(4 104.88)">
<title>proxsuite::proxqp::sparse::QpView&lt; T, I &gt;</title>
<!-- Node1 -->
<g id="Node000001" class="node">
<title>Node1</title>
<g id="a_Node000001"><a xlink:title=" ">
<polygon fill="#999999" stroke="#666666" points="529.5,-57.12 400.25,-57.12 400.25,-23.62 529.5,-23.62 529.5,-57.12"/>
<text text-anchor="start" x="408.25" y="-43.62" font-family="Helvetica,sans-Serif" font-size="10.00">proxsuite::proxqp::</text>
<text text-anchor="middle" x="464.88" y="-30.88" font-family="Helvetica,sans-Serif" font-size="10.00">sparse::QpView&lt; T, I &gt;</text>
</a>
</g>
</g>
<!-- Node2 -->
<g id="Node000002" class="node">
<title>Node2</title>
<g id="a_Node000002"><a xlink:href="structproxsuite_1_1linalg_1_1sparse_1_1MatRef.html" target="_top" xlink:title=" ">
<polygon fill="white" stroke="#666666" points="349.25,-57.12 222.25,-57.12 222.25,-23.62 349.25,-23.62 349.25,-57.12"/>
<text text-anchor="start" x="230.25" y="-43.62" font-family="Helvetica,sans-Serif" font-size="10.00">proxsuite::linalg::</text>
<text text-anchor="middle" x="285.75" y="-30.88" font-family="Helvetica,sans-Serif" font-size="10.00">sparse::MatRef&lt; T, I &gt;</text>
</a>
</g>
</g>
<!-- Node2&#45;&gt;Node1 -->
<g id="edge1_Node000001_Node000002" class="edge">
<title>Node2&#45;&gt;Node1</title>
<g id="a_edge1_Node000001_Node000002"><a xlink:title=" ">
<path fill="none" stroke="#9a32cd" stroke-dasharray="5,2" d="M360.95,-40.38C373.91,-40.38 387.28,-40.38 399.94,-40.38"/>
<polygon fill="#9a32cd" stroke="#9a32cd" points="361.21,-36.88 351.21,-40.38 361.21,-43.88 361.21,-36.88"/>
</a>
</g>
<text text-anchor="middle" x="374.75" y="-69.12" font-family="Helvetica,sans-Serif" font-size="10.00" fill="grey"> AT</text>
<text text-anchor="middle" x="374.75" y="-56.38" font-family="Helvetica,sans-Serif" font-size="10.00" fill="grey">CT</text>
<text text-anchor="middle" x="374.75" y="-43.62" font-family="Helvetica,sans-Serif" font-size="10.00" fill="grey">H</text>
</g>
<!-- Node3 -->
<g id="Node000003" class="node">
<title>Node3</title>
<g id="a_Node000003"><a xlink:href="structproxsuite_1_1linalg_1_1sparse_1_1__detail_1_1SymbolicMatRefInterface.html" target="_top" xlink:title=" ">
<polygon fill="white" stroke="#666666" points="157,-100.88 0,-100.88 0,-41.88 157,-41.88 157,-100.88"/>
<text text-anchor="start" x="8" y="-87.38" font-family="Helvetica,sans-Serif" font-size="10.00">proxsuite::linalg::</text>
<text text-anchor="start" x="8" y="-74.62" font-family="Helvetica,sans-Serif" font-size="10.00">sparse::_detail::SymbolicMat</text>
<text text-anchor="start" x="8" y="-61.88" font-family="Helvetica,sans-Serif" font-size="10.00">RefInterface&lt; MatRef&lt; T,</text>
<text text-anchor="middle" x="78.5" y="-49.12" font-family="Helvetica,sans-Serif" font-size="10.00"> I &gt;, I &gt;</text>
</a>
</g>
</g>
<!-- Node3&#45;&gt;Node2 -->
<g id="edge2_Node000002_Node000003" class="edge">
<title>Node3&#45;&gt;Node2</title>
<g id="a_edge2_Node000002_Node000003"><a xlink:title=" ">
<path fill="none" stroke="#63b8ff" d="M168.75,-57.89C186.66,-55.19 205.12,-52.4 221.91,-49.87"/>
<polygon fill="#63b8ff" stroke="#63b8ff" points="168.25,-54.43 158.89,-59.38 169.3,-61.35 168.25,-54.43"/>
</a>
</g>
</g>
<!-- Node4 -->
<g id="Node000004" class="node">
<title>Node4</title>
<g id="a_Node000004"><a xlink:title=" ">
<polygon fill="white" stroke="#666666" points="97.75,-20.75 59.25,-20.75 59.25,0 97.75,0 97.75,-20.75"/>
<text text-anchor="middle" x="78.5" y="-7.25" font-family="Helvetica,sans-Serif" font-size="10.00">isize</text>
</a>
</g>
</g>
<!-- Node4&#45;&gt;Node2 -->
<g id="edge3_Node000002_Node000004" class="edge">
<title>Node4&#45;&gt;Node2</title>
<g id="a_edge3_Node000002_Node000004"><a xlink:title=" ">
<path fill="none" stroke="#9a32cd" stroke-dasharray="5,2" d="M109.31,-7.72C134.74,-6.13 172.19,-5.38 204.25,-11.12 218.15,-13.62 232.83,-18.29 245.78,-23.18"/>
<polygon fill="#9a32cd" stroke="#9a32cd" points="109.09,-4.23 99.37,-8.44 109.59,-11.21 109.09,-4.23"/>
</a>
</g>
<text text-anchor="middle" x="189.62" y="-39.12" font-family="Helvetica,sans-Serif" font-size="10.00" fill="grey"> ncols</text>
<text text-anchor="middle" x="189.62" y="-26.38" font-family="Helvetica,sans-Serif" font-size="10.00" fill="grey">nnz</text>
<text text-anchor="middle" x="189.62" y="-13.62" font-family="Helvetica,sans-Serif" font-size="10.00" fill="grey">nrows</text>
</g>
</g>
</svg>
