<?xml version="1.0" encoding="UTF-8" standalone="no"?>
<!DOCTYPE svg PUBLIC "-//W3C//DTD SVG 1.1//EN"
 "http://www.w3.org/Graphics/SVG/1.1/DTD/svg11.dtd">
<!-- Generated by graphviz version 12.2.1 (20250203.1708)
 -->
<!-- Title: proxsuite::linalg::veg::dynstack::DynStackArray&lt; T &gt; Pages: 1 -->
<svg width="817pt" height="147pt"
 viewBox="0.00 0.00 817.25 147.25" xmlns="http://www.w3.org/2000/svg" xmlns:xlink="http://www.w3.org/1999/xlink">
<g id="graph0" class="graph" transform="scale(1 1) rotate(0) translate(4 143.25)">
<title>proxsuite::linalg::veg::dynstack::DynStackArray&lt; T &gt;</title>
<!-- Node1 -->
<g id="Node000001" class="node">
<title>Node1</title>
<g id="a_Node000001"><a xlink:title=" ">
<polygon fill="#999999" stroke="#666666" points="809.25,-58.25 617.75,-58.25 617.75,-24.75 809.25,-24.75 809.25,-58.25"/>
<text text-anchor="start" x="625.75" y="-44.75" font-family="Helvetica,sans-Serif" font-size="10.00">proxsuite::linalg::</text>
<text text-anchor="middle" x="713.5" y="-32" font-family="Helvetica,sans-Serif" font-size="10.00">veg::dynstack::DynStackArray&lt; T &gt;</text>
</a>
</g>
</g>
<!-- Node2 -->
<g id="Node000002" class="node">
<title>Node2</title>
<g id="a_Node000002"><a xlink:href="structproxsuite_1_1linalg_1_1veg_1_1dynstack_1_1DynStackAlloc.html" target="_top" xlink:title=" ">
<polygon fill="white" stroke="#666666" points="580.75,-110.25 391.5,-110.25 391.5,-76.75 580.75,-76.75 580.75,-110.25"/>
<text text-anchor="start" x="399.5" y="-96.75" font-family="Helvetica,sans-Serif" font-size="10.00">proxsuite::linalg::</text>
<text text-anchor="middle" x="486.12" y="-84" font-family="Helvetica,sans-Serif" font-size="10.00">veg::dynstack::DynStackAlloc&lt; T &gt;</text>
</a>
</g>
</g>
<!-- Node2&#45;&gt;Node1 -->
<g id="edge1_Node000001_Node000002" class="edge">
<title>Node2&#45;&gt;Node1</title>
<g id="a_edge1_Node000001_Node000002"><a xlink:title=" ">
<path fill="none" stroke="#8b1a1a" d="M572.92,-73.71C594.34,-68.76 617.14,-63.5 637.97,-58.7"/>
<polygon fill="#8b1a1a" stroke="#8b1a1a" points="572.29,-70.26 563.33,-75.92 573.86,-77.08 572.29,-70.26"/>
</a>
</g>
</g>
<!-- Node3 -->
<g id="Node000003" class="node">
<title>Node3</title>
<g id="a_Node000003"><a xlink:href="structproxsuite_1_1linalg_1_1veg_1_1__detail_1_1__dynstack_1_1DynAllocBase.html" target="_top" xlink:title=" ">
<polygon fill="white" stroke="#666666" points="354.5,-116.62 226,-116.62 226,-70.38 354.5,-70.38 354.5,-116.62"/>
<text text-anchor="start" x="234" y="-103.12" font-family="Helvetica,sans-Serif" font-size="10.00">proxsuite::linalg::</text>
<text text-anchor="start" x="234" y="-90.38" font-family="Helvetica,sans-Serif" font-size="10.00">veg::_detail::_dynstack</text>
<text text-anchor="middle" x="290.25" y="-77.62" font-family="Helvetica,sans-Serif" font-size="10.00">::DynAllocBase</text>
</a>
</g>
</g>
<!-- Node3&#45;&gt;Node2 -->
<g id="edge2_Node000002_Node000003" class="edge">
<title>Node3&#45;&gt;Node2</title>
<g id="a_edge2_Node000002_Node000003"><a xlink:title=" ">
<path fill="none" stroke="#63b8ff" d="M366.18,-93.5C374.41,-93.5 382.85,-93.5 391.27,-93.5"/>
<polygon fill="#63b8ff" stroke="#63b8ff" points="366.25,-90 356.25,-93.5 366.25,-97 366.25,-90"/>
</a>
</g>
</g>
<!-- Node4 -->
<g id="Node000004" class="node">
<title>Node4</title>
<g id="a_Node000004"><a xlink:href="structproxsuite_1_1linalg_1_1veg_1_1dynstack_1_1DynStackMut.html" target="_top" xlink:title=" ">
<polygon fill="white" stroke="#666666" points="155.5,-139.25 0,-139.25 0,-105.75 155.5,-105.75 155.5,-139.25"/>
<text text-anchor="start" x="8" y="-125.75" font-family="Helvetica,sans-Serif" font-size="10.00">proxsuite::linalg::</text>
<text text-anchor="middle" x="77.75" y="-113" font-family="Helvetica,sans-Serif" font-size="10.00">veg::dynstack::DynStackMut</text>
</a>
</g>
</g>
<!-- Node4&#45;&gt;Node3 -->
<g id="edge3_Node000003_Node000004" class="edge">
<title>Node4&#45;&gt;Node3</title>
<g id="a_edge3_Node000003_Node000004"><a xlink:title=" ">
<path fill="none" stroke="#9a32cd" stroke-dasharray="5,2" d="M167.33,-110.3C186.87,-107.6 207.2,-104.8 225.53,-102.28"/>
<polygon fill="#9a32cd" stroke="#9a32cd" points="166.87,-106.83 157.44,-111.66 167.82,-113.76 166.87,-106.83"/>
</a>
</g>
<text text-anchor="middle" x="190.75" y="-112.12" font-family="Helvetica,sans-Serif" font-size="10.00" fill="grey"> parent</text>
</g>
<!-- Node5 -->
<g id="Node000005" class="node">
<title>Node5</title>
<g id="a_Node000005"><a xlink:href="structproxsuite_1_1linalg_1_1veg_1_1__detail_1_1__meta_1_1make__signed.html" target="_top" xlink:title=" ">
<polygon fill="white" stroke="#666666" points="145,-87.62 10.5,-87.62 10.5,-41.38 145,-41.38 145,-87.62"/>
<text text-anchor="start" x="18.5" y="-74.12" font-family="Helvetica,sans-Serif" font-size="10.00">proxsuite::linalg::</text>
<text text-anchor="start" x="18.5" y="-61.38" font-family="Helvetica,sans-Serif" font-size="10.00">veg::_detail::_meta</text>
<text text-anchor="middle" x="77.75" y="-48.62" font-family="Helvetica,sans-Serif" font-size="10.00">::make_signed&lt; usize &gt;</text>
</a>
</g>
</g>
<!-- Node5&#45;&gt;Node3 -->
<g id="edge4_Node000003_Node000005" class="edge">
<title>Node5&#45;&gt;Node3</title>
<g id="a_edge4_Node000003_Node000005"><a xlink:title=" ">
<path fill="none" stroke="#9a32cd" stroke-dasharray="5,2" d="M156.68,-75.24C179.37,-78.36 203.89,-81.74 225.59,-84.73"/>
<polygon fill="#9a32cd" stroke="#9a32cd" points="157.24,-71.78 146.85,-73.88 156.28,-78.71 157.24,-71.78"/>
</a>
</g>
<text text-anchor="middle" x="190.75" y="-84.85" font-family="Helvetica,sans-Serif" font-size="10.00" fill="grey"> len</text>
</g>
<!-- Node6 -->
<g id="Node000006" class="node">
<title>Node6</title>
<g id="a_Node000006"><a xlink:href="structproxsuite_1_1linalg_1_1veg_1_1__detail_1_1__dynstack_1_1DynStackArrayDtor.html" target="_top" xlink:title=" ">
<polygon fill="white" stroke="#666666" points="554.12,-59 418.12,-59 418.12,0 554.12,0 554.12,-59"/>
<text text-anchor="start" x="426.12" y="-45.5" font-family="Helvetica,sans-Serif" font-size="10.00">proxsuite::linalg::</text>
<text text-anchor="start" x="426.12" y="-32.75" font-family="Helvetica,sans-Serif" font-size="10.00">veg::_detail::_dynstack</text>
<text text-anchor="start" x="426.12" y="-20" font-family="Helvetica,sans-Serif" font-size="10.00">::DynStackArrayDtor&lt; T,</text>
<text text-anchor="middle" x="486.12" y="-7.25" font-family="Helvetica,sans-Serif" font-size="10.00"> bool &gt;</text>
</a>
</g>
</g>
<!-- Node6&#45;&gt;Node1 -->
<g id="edge5_Node000001_Node000006" class="edge">
<title>Node6&#45;&gt;Node1</title>
<g id="a_edge5_Node000001_Node000006"><a xlink:title=" ">
<path fill="none" stroke="#63b8ff" d="M565.82,-33.69C582.54,-34.58 600.37,-35.53 617.62,-36.45"/>
<polygon fill="#63b8ff" stroke="#63b8ff" points="566.12,-30.2 555.95,-33.16 565.75,-37.19 566.12,-30.2"/>
</a>
</g>
</g>
</g>
</svg>
