<?xml version="1.0" encoding="UTF-8" standalone="no"?>
<!DOCTYPE svg PUBLIC "-//W3C//DTD SVG 1.1//EN"
 "http://www.w3.org/Graphics/SVG/1.1/DTD/svg11.dtd">
<!-- Generated by graphviz version 7.0.6 (20230107.1202)
 -->
<!-- Title: proxsuite::linalg::veg::_detail::_slice::adl::AdlBase Pages: 1 -->
<svg width="239pt" height="181pt"
 viewBox="0.00 0.00 239.00 181.00" xmlns="http://www.w3.org/2000/svg" xmlns:xlink="http://www.w3.org/1999/xlink">
<g id="graph0" class="graph" transform="scale(1 1) rotate(0) translate(4 177)">
<title>proxsuite::linalg::veg::_detail::_slice::adl::AdlBase</title>
<!-- Node1 -->
<g id="node1" class="node">
<title>Node1</title>
<g id="a_node1"><a xlink:title=" ">
<polygon fill="#999999" stroke="#666666" points="168,-173 61,-173 61,-132 168,-132 168,-173"/>
<text text-anchor="start" x="69" y="-161" font-family="Helvetica,sans-Serif" font-size="10.00">proxsuite::linalg::</text>
<text text-anchor="start" x="69" y="-150" font-family="Helvetica,sans-Serif" font-size="10.00">veg::_detail::_slice</text>
<text text-anchor="middle" x="114.5" y="-139" font-family="Helvetica,sans-Serif" font-size="10.00">::adl::AdlBase</text>
</a>
</g>
</g>
<!-- Node2 -->
<g id="node2" class="node">
<title>Node2</title>
<g id="a_node2"><a xlink:href="structproxsuite_1_1linalg_1_1veg_1_1Slice.html" target="_top" xlink:title=" ">
<polygon fill="white" stroke="#666666" points="107,-96 0,-96 0,-66 107,-66 107,-96"/>
<text text-anchor="start" x="8" y="-84" font-family="Helvetica,sans-Serif" font-size="10.00">proxsuite::linalg::</text>
<text text-anchor="middle" x="53.5" y="-73" font-family="Helvetica,sans-Serif" font-size="10.00">veg::Slice&lt; bool &gt;</text>
</a>
</g>
</g>
<!-- Node1&#45;&gt;Node2 -->
<g id="edge1" class="edge">
<title>Node1&#45;&gt;Node2</title>
<path fill="none" stroke="#63b8ff" d="M89.69,-123.24C81.63,-114.05 73.01,-104.22 66.2,-96.47"/>
<polygon fill="#63b8ff" stroke="#63b8ff" points="86.96,-125.43 96.18,-130.63 92.22,-120.81 86.96,-125.43"/>
</g>
<!-- Node3 -->
<g id="node3" class="node">
<title>Node3</title>
<g id="a_node3"><a xlink:href="structproxsuite_1_1linalg_1_1veg_1_1Slice.html" target="_top" xlink:title=" ">
<polygon fill="white" stroke="#666666" points="226,-96 125,-96 125,-66 226,-66 226,-96"/>
<text text-anchor="start" x="133" y="-84" font-family="Helvetica,sans-Serif" font-size="10.00">proxsuite::linalg::</text>
<text text-anchor="middle" x="175.5" y="-73" font-family="Helvetica,sans-Serif" font-size="10.00">veg::Slice&lt; T &gt;</text>
</a>
</g>
</g>
<!-- Node1&#45;&gt;Node3 -->
<g id="edge2" class="edge">
<title>Node1&#45;&gt;Node3</title>
<path fill="none" stroke="#63b8ff" d="M139.31,-123.24C147.37,-114.05 155.99,-104.22 162.8,-96.47"/>
<polygon fill="#63b8ff" stroke="#63b8ff" points="136.78,-120.81 132.82,-130.63 142.04,-125.43 136.78,-120.81"/>
</g>
<!-- Node4 -->
<g id="node4" class="node">
<title>Node4</title>
<g id="a_node4"><a xlink:href="structproxsuite_1_1linalg_1_1veg_1_1SliceMut.html" target="_top" xlink:title=" ">
<polygon fill="white" stroke="#666666" points="231,-30 120,-30 120,0 231,0 231,-30"/>
<text text-anchor="start" x="128" y="-18" font-family="Helvetica,sans-Serif" font-size="10.00">proxsuite::linalg::</text>
<text text-anchor="middle" x="175.5" y="-7" font-family="Helvetica,sans-Serif" font-size="10.00">veg::SliceMut&lt; T &gt;</text>
</a>
</g>
</g>
<!-- Node3&#45;&gt;Node4 -->
<g id="edge3" class="edge">
<title>Node3&#45;&gt;Node4</title>
<path fill="none" stroke="#8b1a1a" d="M175.5,-54.39C175.5,-46.13 175.5,-37.28 175.5,-30.16"/>
<polygon fill="#8b1a1a" stroke="#8b1a1a" points="172,-54.28 175.5,-64.28 179,-54.28 172,-54.28"/>
</g>
</g>
</svg>
