<?xml version="1.0" encoding="UTF-8" standalone="no"?>
<!DOCTYPE svg PUBLIC "-//W3C//DTD SVG 1.1//EN"
 "http://www.w3.org/Graphics/SVG/1.1/DTD/svg11.dtd">
<!-- Generated by graphviz version 7.0.6 (20230107.1202)
 -->
<!-- Title: proxsuite::linalg::veg::mem::MonotonicAlloc&lt; MaxAlign &gt; Pages: 1 -->
<svg width="178pt" height="203pt"
 viewBox="0.00 0.00 178.00 203.00" xmlns="http://www.w3.org/2000/svg" xmlns:xlink="http://www.w3.org/1999/xlink">
<g id="graph0" class="graph" transform="scale(1 1) rotate(0) translate(4 199)">
<title>proxsuite::linalg::veg::mem::MonotonicAlloc&lt; MaxAlign &gt;</title>
<!-- Node1 -->
<g id="node1" class="node">
<title>Node1</title>
<g id="a_node1"><a xlink:title=" ">
<polygon fill="#999999" stroke="#666666" points="158.5,-41 11.5,-41 11.5,0 158.5,0 158.5,-41"/>
<text text-anchor="start" x="19.5" y="-29" font-family="Helvetica,sans-Serif" font-size="10.00">proxsuite::linalg::</text>
<text text-anchor="start" x="19.5" y="-18" font-family="Helvetica,sans-Serif" font-size="10.00">veg::mem::MonotonicAlloc</text>
<text text-anchor="middle" x="85" y="-7" font-family="Helvetica,sans-Serif" font-size="10.00">&lt; MaxAlign &gt;</text>
</a>
</g>
</g>
<!-- Node2 -->
<g id="node2" class="node">
<title>Node2</title>
<g id="a_node2"><a xlink:href="structproxsuite_1_1linalg_1_1veg_1_1mem_1_1BumpAlloc.html" target="_top" xlink:title=" ">
<polygon fill="white" stroke="#666666" points="147.5,-118 22.5,-118 22.5,-77 147.5,-77 147.5,-118"/>
<text text-anchor="start" x="30.5" y="-106" font-family="Helvetica,sans-Serif" font-size="10.00">proxsuite::linalg::</text>
<text text-anchor="start" x="30.5" y="-95" font-family="Helvetica,sans-Serif" font-size="10.00">veg::mem::BumpAlloc</text>
<text text-anchor="middle" x="85" y="-84" font-family="Helvetica,sans-Serif" font-size="10.00">&lt; MaxAlign &gt;</text>
</a>
</g>
</g>
<!-- Node2&#45;&gt;Node1 -->
<g id="edge1" class="edge">
<title>Node2&#45;&gt;Node1</title>
<path fill="none" stroke="#8b1a1a" d="M85,-65.36C85,-57.24 85,-48.7 85,-41.33"/>
<polygon fill="#8b1a1a" stroke="#8b1a1a" points="81.5,-65.28 85,-75.28 88.5,-65.28 81.5,-65.28"/>
</g>
<!-- Node3 -->
<g id="node3" class="node">
<title>Node3</title>
<g id="a_node3"><a xlink:href="structproxsuite_1_1linalg_1_1veg_1_1__detail_1_1__mem_1_1BumpAllocLayout.html" target="_top" xlink:title=" ">
<polygon fill="white" stroke="#666666" points="170,-195 0,-195 0,-154 170,-154 170,-195"/>
<text text-anchor="start" x="8" y="-183" font-family="Helvetica,sans-Serif" font-size="10.00">proxsuite::linalg::</text>
<text text-anchor="start" x="8" y="-172" font-family="Helvetica,sans-Serif" font-size="10.00">veg::_detail::_mem::</text>
<text text-anchor="middle" x="85" y="-161" font-family="Helvetica,sans-Serif" font-size="10.00">BumpAllocLayout&lt; MaxAlign &gt;</text>
</a>
</g>
</g>
<!-- Node3&#45;&gt;Node2 -->
<g id="edge2" class="edge">
<title>Node3&#45;&gt;Node2</title>
<path fill="none" stroke="#8b1a1a" d="M85,-142.36C85,-134.24 85,-125.7 85,-118.33"/>
<polygon fill="#8b1a1a" stroke="#8b1a1a" points="81.5,-142.28 85,-152.28 88.5,-142.28 81.5,-142.28"/>
</g>
</g>
</svg>
