<?xml version="1.0" encoding="UTF-8" standalone="no"?>
<!DOCTYPE svg PUBLIC "-//W3C//DTD SVG 1.1//EN"
 "http://www.w3.org/Graphics/SVG/1.1/DTD/svg11.dtd">
<!-- Generated by graphviz version 12.2.1 (20250203.1708)
 -->
<!-- Title: tl::detail::optional_move_base&lt; T, bool &gt; Pages: 1 -->
<svg width="1141pt" height="209pt"
 viewBox="0.00 0.00 1140.75 208.50" xmlns="http://www.w3.org/2000/svg" xmlns:xlink="http://www.w3.org/1999/xlink">
<g id="graph0" class="graph" transform="scale(1 1) rotate(0) translate(4 204.5)">
<title>tl::detail::optional_move_base&lt; T, bool &gt;</title>
<!-- Node1 -->
<g id="Node000001" class="node">
<title>Node1</title>
<g id="a_Node000001"><a xlink:title=" ">
<polygon fill="#999999" stroke="#666666" points="641.5,-194.12 508.5,-194.12 508.5,-160.62 641.5,-160.62 641.5,-194.12"/>
<text text-anchor="start" x="516.5" y="-180.62" font-family="Helvetica,sans-Serif" font-size="10.00">tl::detail::optional</text>
<text text-anchor="middle" x="575" y="-167.88" font-family="Helvetica,sans-Serif" font-size="10.00">_move_base&lt; T, bool &gt;</text>
</a>
</g>
</g>
<!-- Node5 -->
<g id="Node000005" class="node">
<title>Node5</title>
<g id="a_Node000005"><a xlink:href="structtl_1_1detail_1_1optional__copy__assign__base_3_01T_00_01false_01_4.html" target="_top" xlink:title=" ">
<polygon fill="white" stroke="#666666" points="807.5,-200.5 677.5,-200.5 677.5,-154.25 807.5,-154.25 807.5,-200.5"/>
<text text-anchor="start" x="685.5" y="-187" font-family="Helvetica,sans-Serif" font-size="10.00">tl::detail::optional</text>
<text text-anchor="start" x="685.5" y="-174.25" font-family="Helvetica,sans-Serif" font-size="10.00">_copy_assign_base&lt; T,</text>
<text text-anchor="middle" x="742.5" y="-161.5" font-family="Helvetica,sans-Serif" font-size="10.00"> false &gt;</text>
</a>
</g>
</g>
<!-- Node1&#45;&gt;Node5 -->
<g id="edge4_Node000001_Node000005" class="edge">
<title>Node1&#45;&gt;Node5</title>
<g id="a_edge4_Node000001_Node000005"><a xlink:title=" ">
<path fill="none" stroke="#63b8ff" d="M653.17,-170.64C661.21,-170.6 669.32,-170.65 677.19,-170.78"/>
<polygon fill="#63b8ff" stroke="#63b8ff" points="653.36,-167.14 643.4,-170.74 653.43,-174.14 653.36,-167.14"/>
</a>
</g>
</g>
<!-- Node1&#45;&gt;Node5 -->
<g id="edge12_Node000001_Node000005" class="edge">
<title>Node1&#45;&gt;Node5</title>
<g id="a_edge12_Node000001_Node000005"><a xlink:title=" ">
<path fill="none" stroke="#63b8ff" d="M653.17,-184.11C661.21,-184.15 669.32,-184.1 677.19,-183.97"/>
<polygon fill="#63b8ff" stroke="#63b8ff" points="653.43,-180.61 643.4,-184.01 653.36,-187.61 653.43,-180.61"/>
</a>
</g>
</g>
<!-- Node6 -->
<g id="Node000006" class="node">
<title>Node6</title>
<g id="a_Node000006"><a xlink:href="structtl_1_1detail_1_1optional__copy__assign__base.html" target="_top" xlink:title=" ">
<polygon fill="white" stroke="#666666" points="807.5,-136.5 677.5,-136.5 677.5,-90.25 807.5,-90.25 807.5,-136.5"/>
<text text-anchor="start" x="685.5" y="-123" font-family="Helvetica,sans-Serif" font-size="10.00">tl::detail::optional</text>
<text text-anchor="start" x="685.5" y="-110.25" font-family="Helvetica,sans-Serif" font-size="10.00">_copy_assign_base&lt; T,</text>
<text text-anchor="middle" x="742.5" y="-97.5" font-family="Helvetica,sans-Serif" font-size="10.00"> bool &gt;</text>
</a>
</g>
</g>
<!-- Node1&#45;&gt;Node6 -->
<g id="edge5_Node000001_Node000006" class="edge">
<title>Node1&#45;&gt;Node6</title>
<g id="a_edge5_Node000001_Node000006"><a xlink:title=" ">
<path fill="none" stroke="#63b8ff" d="M631.06,-156.08C646.93,-149.95 664.33,-143.22 680.54,-136.95"/>
<polygon fill="#63b8ff" stroke="#63b8ff" points="629.83,-152.81 621.76,-159.68 632.35,-159.34 629.83,-152.81"/>
</a>
</g>
</g>
<!-- Node2 -->
<g id="Node000002" class="node">
<title>Node2</title>
<g id="a_Node000002"><a xlink:href="structtl_1_1detail_1_1optional__copy__base.html" target="_top" xlink:title=" ">
<polygon fill="white" stroke="#666666" points="472.5,-194.12 344,-194.12 344,-160.62 472.5,-160.62 472.5,-194.12"/>
<text text-anchor="start" x="352" y="-180.62" font-family="Helvetica,sans-Serif" font-size="10.00">tl::detail::optional</text>
<text text-anchor="middle" x="408.25" y="-167.88" font-family="Helvetica,sans-Serif" font-size="10.00">_copy_base&lt; T, bool &gt;</text>
</a>
</g>
</g>
<!-- Node2&#45;&gt;Node1 -->
<g id="edge1_Node000001_Node000002" class="edge">
<title>Node2&#45;&gt;Node1</title>
<g id="a_edge1_Node000001_Node000002"><a xlink:title=" ">
<path fill="none" stroke="#63b8ff" d="M484.4,-177.38C492.28,-177.38 500.25,-177.38 508.02,-177.38"/>
<polygon fill="#63b8ff" stroke="#63b8ff" points="484.46,-173.88 474.46,-177.38 484.46,-180.88 484.46,-173.88"/>
</a>
</g>
</g>
<!-- Node3 -->
<g id="Node000003" class="node">
<title>Node3</title>
<g id="a_Node000003"><a xlink:href="structtl_1_1detail_1_1optional__operations__base.html" target="_top" xlink:title=" ">
<polygon fill="white" stroke="#666666" points="308,-194.12 178,-194.12 178,-160.62 308,-160.62 308,-194.12"/>
<text text-anchor="start" x="186" y="-180.62" font-family="Helvetica,sans-Serif" font-size="10.00">tl::detail::optional</text>
<text text-anchor="middle" x="243" y="-167.88" font-family="Helvetica,sans-Serif" font-size="10.00">_operations_base&lt; T &gt;</text>
</a>
</g>
</g>
<!-- Node3&#45;&gt;Node2 -->
<g id="edge2_Node000002_Node000003" class="edge">
<title>Node3&#45;&gt;Node2</title>
<g id="a_edge2_Node000002_Node000003"><a xlink:title=" ">
<path fill="none" stroke="#63b8ff" d="M319.42,-177.38C327.52,-177.38 335.71,-177.38 343.65,-177.38"/>
<polygon fill="#63b8ff" stroke="#63b8ff" points="319.57,-173.88 309.57,-177.38 319.57,-180.88 319.57,-173.88"/>
</a>
</g>
</g>
<!-- Node4 -->
<g id="Node000004" class="node">
<title>Node4</title>
<g id="a_Node000004"><a xlink:href="structtl_1_1detail_1_1optional__storage__base.html" target="_top" xlink:title=" ">
<polygon fill="white" stroke="#666666" points="142,-194.12 0,-194.12 0,-160.62 142,-160.62 142,-194.12"/>
<text text-anchor="start" x="8" y="-180.62" font-family="Helvetica,sans-Serif" font-size="10.00">tl::detail::optional</text>
<text text-anchor="middle" x="71" y="-167.88" font-family="Helvetica,sans-Serif" font-size="10.00">_storage_base&lt; T, bool &gt;</text>
</a>
</g>
</g>
<!-- Node4&#45;&gt;Node3 -->
<g id="edge3_Node000003_Node000004" class="edge">
<title>Node4&#45;&gt;Node3</title>
<g id="a_edge3_Node000003_Node000004"><a xlink:title=" ">
<path fill="none" stroke="#63b8ff" d="M153.55,-177.38C161.68,-177.38 169.85,-177.38 177.76,-177.38"/>
<polygon fill="#63b8ff" stroke="#63b8ff" points="153.64,-173.88 143.64,-177.38 153.64,-180.88 153.64,-173.88"/>
</a>
</g>
</g>
<!-- Node7 -->
<g id="Node000007" class="node">
<title>Node7</title>
<g id="a_Node000007"><a xlink:href="structtl_1_1detail_1_1optional__move__assign__base_3_01T_00_01false_01_4.html" target="_top" xlink:title=" ">
<polygon fill="white" stroke="#666666" points="978,-136.5 843.5,-136.5 843.5,-90.25 978,-90.25 978,-136.5"/>
<text text-anchor="start" x="851.5" y="-123" font-family="Helvetica,sans-Serif" font-size="10.00">tl::detail::optional</text>
<text text-anchor="start" x="851.5" y="-110.25" font-family="Helvetica,sans-Serif" font-size="10.00">_move_assign_base&lt; T,</text>
<text text-anchor="middle" x="910.75" y="-97.5" font-family="Helvetica,sans-Serif" font-size="10.00"> false &gt;</text>
</a>
</g>
</g>
<!-- Node6&#45;&gt;Node7 -->
<g id="edge6_Node000006_Node000007" class="edge">
<title>Node6&#45;&gt;Node7</title>
<g id="a_edge6_Node000006_Node000007"><a xlink:title=" ">
<path fill="none" stroke="#63b8ff" d="M819.05,-106.65C827.1,-106.6 835.24,-106.63 843.17,-106.75"/>
<polygon fill="#63b8ff" stroke="#63b8ff" points="819.25,-103.15 809.29,-106.76 819.33,-110.15 819.25,-103.15"/>
</a>
</g>
</g>
<!-- Node6&#45;&gt;Node7 -->
<g id="edge11_Node000006_Node000007" class="edge">
<title>Node6&#45;&gt;Node7</title>
<g id="a_edge11_Node000006_Node000007"><a xlink:title=" ">
<path fill="none" stroke="#63b8ff" d="M819.05,-120.1C827.1,-120.15 835.24,-120.12 843.17,-120"/>
<polygon fill="#63b8ff" stroke="#63b8ff" points="819.33,-116.6 809.29,-119.99 819.25,-123.6 819.33,-116.6"/>
</a>
</g>
</g>
<!-- Node8 -->
<g id="Node000008" class="node">
<title>Node8</title>
<g id="a_Node000008"><a xlink:href="structtl_1_1detail_1_1optional__move__assign__base.html" target="_top" xlink:title=" ">
<polygon fill="white" stroke="#666666" points="978,-72.5 843.5,-72.5 843.5,-26.25 978,-26.25 978,-72.5"/>
<text text-anchor="start" x="851.5" y="-59" font-family="Helvetica,sans-Serif" font-size="10.00">tl::detail::optional</text>
<text text-anchor="start" x="851.5" y="-46.25" font-family="Helvetica,sans-Serif" font-size="10.00">_move_assign_base&lt; T,</text>
<text text-anchor="middle" x="910.75" y="-33.5" font-family="Helvetica,sans-Serif" font-size="10.00"> bool &gt;</text>
</a>
</g>
</g>
<!-- Node6&#45;&gt;Node8 -->
<g id="edge7_Node000006_Node000008" class="edge">
<title>Node6&#45;&gt;Node8</title>
<g id="a_edge7_Node000006_Node000008"><a xlink:title=" ">
<path fill="none" stroke="#63b8ff" d="M815.04,-85.84C826.19,-81.54 837.62,-77.14 848.52,-72.95"/>
<polygon fill="#63b8ff" stroke="#63b8ff" points="813.95,-82.5 805.87,-89.36 816.46,-89.04 813.95,-82.5"/>
</a>
</g>
</g>
<!-- Node9 -->
<g id="Node000009" class="node">
<title>Node9</title>
<g id="a_Node000009"><a xlink:href="classtl_1_1optional.html" target="_top" xlink:title=" ">
<polygon fill="white" stroke="#666666" points="1132.75,-124.5 1014,-124.5 1014,-78.25 1132.75,-78.25 1132.75,-124.5"/>
<text text-anchor="start" x="1022" y="-111" font-family="Helvetica,sans-Serif" font-size="10.00">tl::optional&lt; fixup</text>
<text text-anchor="start" x="1022" y="-98.25" font-family="Helvetica,sans-Serif" font-size="10.00">_void&lt; invoke_result</text>
<text text-anchor="middle" x="1073.38" y="-85.5" font-family="Helvetica,sans-Serif" font-size="10.00">_t&lt; F, U &gt; &gt; &gt;</text>
</a>
</g>
</g>
<!-- Node8&#45;&gt;Node9 -->
<g id="edge8_Node000008_Node000009" class="edge">
<title>Node8&#45;&gt;Node9</title>
<g id="a_edge8_Node000008_Node000009"><a xlink:title=" ">
<path fill="none" stroke="#8b1a1a" d="M989.19,-74.45C997.38,-77.1 1005.61,-79.76 1013.54,-82.33"/>
<polygon fill="#8b1a1a" stroke="#8b1a1a" points="990.51,-71.19 979.91,-71.44 988.35,-77.85 990.51,-71.19"/>
</a>
</g>
</g>
<!-- Node10 -->
<g id="Node000010" class="node">
<title>Node10</title>
<g id="a_Node000010"><a xlink:href="classtl_1_1optional_3_01T_01_6_01_4.html" target="_top" xlink:title=" ">
<polygon fill="white" stroke="#666666" points="1127.12,-59.75 1019.62,-59.75 1019.62,-39 1127.12,-39 1127.12,-59.75"/>
<text text-anchor="middle" x="1073.38" y="-46.25" font-family="Helvetica,sans-Serif" font-size="10.00">tl::optional&lt; T &amp; &gt;</text>
</a>
</g>
</g>
<!-- Node8&#45;&gt;Node10 -->
<g id="edge9_Node000008_Node000010" class="edge">
<title>Node8&#45;&gt;Node10</title>
<g id="a_edge9_Node000008_Node000010"><a xlink:title=" ">
<path fill="none" stroke="#8b1a1a" d="M989.73,-49.38C999.75,-49.38 1009.82,-49.38 1019.31,-49.38"/>
<polygon fill="#8b1a1a" stroke="#8b1a1a" points="989.99,-45.88 979.99,-49.38 989.99,-52.88 989.99,-45.88"/>
</a>
</g>
</g>
<!-- Node11 -->
<g id="Node000011" class="node">
<title>Node11</title>
<g id="a_Node000011"><a xlink:href="classtl_1_1optional.html" target="_top" xlink:title=" ">
<polygon fill="white" stroke="#666666" points="1121.88,-20.75 1024.88,-20.75 1024.88,0 1121.88,0 1121.88,-20.75"/>
<text text-anchor="middle" x="1073.38" y="-7.25" font-family="Helvetica,sans-Serif" font-size="10.00">tl::optional&lt; T &gt;</text>
</a>
</g>
</g>
<!-- Node8&#45;&gt;Node11 -->
<g id="edge10_Node000008_Node000011" class="edge">
<title>Node8&#45;&gt;Node11</title>
<g id="a_edge10_Node000008_Node000011"><a xlink:title=" ">
<path fill="none" stroke="#8b1a1a" d="M989.53,-30.49C1002.76,-27.28 1016.08,-24.04 1028.05,-21.14"/>
<polygon fill="#8b1a1a" stroke="#8b1a1a" points="988.84,-27.06 979.94,-32.82 990.49,-33.86 988.84,-27.06"/>
</a>
</g>
</g>
</g>
</svg>
