<?xml version="1.0" encoding="UTF-8" standalone="no"?>
<!DOCTYPE svg PUBLIC "-//W3C//DTD SVG 1.1//EN"
 "http://www.w3.org/Graphics/SVG/1.1/DTD/svg11.dtd">
<!-- Generated by graphviz version 8.1.0 (20230707.2238)
 -->
<!-- Title: proxsuite::linalg::veg::_detail::_mem::adl_addr Pages: 1 -->
<svg width="124pt" height="219pt"
 viewBox="0.00 0.00 123.75 218.75" xmlns="http://www.w3.org/2000/svg" xmlns:xlink="http://www.w3.org/1999/xlink">
<g id="graph0" class="graph" transform="scale(1 1) rotate(0) translate(4 214.75)">
<title>proxsuite::linalg::veg::_detail::_mem::adl_addr</title>
<!-- Node1 -->
<g id="Node000001" class="node">
<title>Node1</title>
<g id="a_Node000001"><a xlink:title=" ">
<polygon fill="#999999" stroke="#666666" points="115.75,-128.5 0,-128.5 0,-82.25 115.75,-82.25 115.75,-128.5"/>
<text text-anchor="start" x="8" y="-115" font-family="Helvetica,sans-Serif" font-size="10.00">proxsuite::linalg::</text>
<text text-anchor="start" x="8" y="-102.25" font-family="Helvetica,sans-Serif" font-size="10.00">veg::_detail::_mem::</text>
<text text-anchor="middle" x="57.88" y="-89.5" font-family="Helvetica,sans-Serif" font-size="10.00">adl_addr</text>
</a>
</g>
</g>
<!-- Node3 -->
<g id="Node000003" class="node">
<title>Node3</title>
<g id="a_Node000003"><a xlink:href="structproxsuite_1_1linalg_1_1veg_1_1__detail_1_1__mem_1_1has__adl__addr.html" target="_top" xlink:title=" ">
<polygon fill="white" stroke="#666666" points="115.75,-46.25 0,-46.25 0,0 115.75,0 115.75,-46.25"/>
<text text-anchor="start" x="8" y="-32.75" font-family="Helvetica,sans-Serif" font-size="10.00">proxsuite::linalg::</text>
<text text-anchor="start" x="8" y="-20" font-family="Helvetica,sans-Serif" font-size="10.00">veg::_detail::_mem::</text>
<text text-anchor="middle" x="57.88" y="-7.25" font-family="Helvetica,sans-Serif" font-size="10.00">has_adl_addr&lt; T &gt;</text>
</a>
</g>
</g>
<!-- Node1&#45;&gt;Node3 -->
<g id="edge2_Node000001_Node000003" class="edge">
<title>Node1&#45;&gt;Node3</title>
<g id="a_edge2_Node000001_Node000003"><a xlink:title=" ">
<path fill="none" stroke="#63b8ff" d="M57.88,-71.15C57.88,-62.9 57.88,-54.24 57.88,-46.64"/>
<polygon fill="#63b8ff" stroke="#63b8ff" points="54.38,-71.02 57.88,-81.02 61.38,-71.02 54.38,-71.02"/>
</a>
</g>
</g>
<!-- Node2 -->
<g id="Node000002" class="node">
<title>Node2</title>
<g id="a_Node000002"><a xlink:href="structproxsuite_1_1linalg_1_1veg_1_1__detail_1_1__mem_1_1member__addr.html" target="_top" xlink:title=" ">
<polygon fill="white" stroke="#666666" points="115.75,-210.75 0,-210.75 0,-164.5 115.75,-164.5 115.75,-210.75"/>
<text text-anchor="start" x="8" y="-197.25" font-family="Helvetica,sans-Serif" font-size="10.00">proxsuite::linalg::</text>
<text text-anchor="start" x="8" y="-184.5" font-family="Helvetica,sans-Serif" font-size="10.00">veg::_detail::_mem::</text>
<text text-anchor="middle" x="57.88" y="-171.75" font-family="Helvetica,sans-Serif" font-size="10.00">member_addr</text>
</a>
</g>
</g>
<!-- Node2&#45;&gt;Node1 -->
<g id="edge1_Node000001_Node000002" class="edge">
<title>Node2&#45;&gt;Node1</title>
<g id="a_edge1_Node000001_Node000002"><a xlink:title=" ">
<path fill="none" stroke="#63b8ff" d="M57.88,-153.4C57.88,-145.15 57.88,-136.49 57.88,-128.89"/>
<polygon fill="#63b8ff" stroke="#63b8ff" points="54.38,-153.27 57.88,-163.27 61.38,-153.27 54.38,-153.27"/>
</a>
</g>
</g>
</g>
</svg>
