<?xml version="1.0" encoding="UTF-8" standalone="no"?>
<!DOCTYPE svg PUBLIC "-//W3C//DTD SVG 1.1//EN"
 "http://www.w3.org/Graphics/SVG/1.1/DTD/svg11.dtd">
<!-- Generated by graphviz version 7.0.6 (20230107.1202)
 -->
<!-- Title: proxsuite::proxqp::sparse::preconditioner::RuizEquilibration&lt; T, I &gt; Pages: 1 -->
<svg width="219pt" height="294pt"
 viewBox="0.00 0.00 218.50 294.00" xmlns="http://www.w3.org/2000/svg" xmlns:xlink="http://www.w3.org/1999/xlink">
<g id="graph0" class="graph" transform="scale(1 1) rotate(0) translate(4 290)">
<title>proxsuite::proxqp::sparse::preconditioner::RuizEquilibration&lt; T, I &gt;</title>
<!-- Node1 -->
<g id="node1" class="node">
<title>Node1</title>
<g id="a_node1"><a xlink:title=" ">
<polygon fill="#999999" stroke="#666666" points="145,-41 2,-41 2,0 145,0 145,-41"/>
<text text-anchor="start" x="10" y="-29" font-family="Helvetica,sans-Serif" font-size="10.00">proxsuite::proxqp::</text>
<text text-anchor="start" x="10" y="-18" font-family="Helvetica,sans-Serif" font-size="10.00">sparse::preconditioner</text>
<text text-anchor="middle" x="73.5" y="-7" font-family="Helvetica,sans-Serif" font-size="10.00">::RuizEquilibration&lt; T, I &gt;</text>
</a>
</g>
</g>
<!-- Node2 -->
<g id="node2" class="node">
<title>Node2</title>
<g id="a_node2"><a xlink:title=" ">
<polygon fill="white" stroke="#666666" points="39,-107 0,-107 0,-88 39,-88 39,-107"/>
<text text-anchor="middle" x="19.5" y="-95" font-family="Helvetica,sans-Serif" font-size="10.00">isize</text>
</a>
</g>
</g>
<!-- Node2&#45;&gt;Node1 -->
<g id="edge1" class="edge">
<title>Node2&#45;&gt;Node1</title>
<path fill="none" stroke="#9a32cd" stroke-dasharray="5,2" d="M32.54,-78.4C40.59,-67.21 50.93,-52.85 59.21,-41.35"/>
<polygon fill="#9a32cd" stroke="#9a32cd" points="29.79,-76.21 26.79,-86.37 35.47,-80.3 29.79,-76.21"/>
<text text-anchor="middle" x="51.5" y="-62" font-family="Helvetica,sans-Serif" font-size="10.00"> n</text>
</g>
<!-- Node3 -->
<g id="node3" class="node">
<title>Node3</title>
<g id="a_node3"><a xlink:title=" ">
<polygon fill="white" stroke="#666666" points="89.5,-107 57.5,-107 57.5,-88 89.5,-88 89.5,-107"/>
<text text-anchor="middle" x="73.5" y="-95" font-family="Helvetica,sans-Serif" font-size="10.00">i64</text>
</a>
</g>
</g>
<!-- Node3&#45;&gt;Node1 -->
<g id="edge2" class="edge">
<title>Node3&#45;&gt;Node1</title>
<path fill="none" stroke="#9a32cd" stroke-dasharray="5,2" d="M73.5,-76.31C73.5,-65.46 73.5,-52.14 73.5,-41.35"/>
<polygon fill="#9a32cd" stroke="#9a32cd" points="70,-76.09 73.5,-86.09 77,-76.09 70,-76.09"/>
<text text-anchor="middle" x="97" y="-62" font-family="Helvetica,sans-Serif" font-size="10.00"> max_iter</text>
</g>
<!-- Node4 -->
<g id="node4" class="node">
<title>Node4</title>
<g id="a_node4"><a xlink:title=" ">
<polygon fill="white" stroke="#666666" points="185.5,-107 107.5,-107 107.5,-88 185.5,-88 185.5,-107"/>
<text text-anchor="middle" x="146.5" y="-95" font-family="Helvetica,sans-Serif" font-size="10.00">std::ostream</text>
</a>
</g>
</g>
<!-- Node4&#45;&gt;Node1 -->
<g id="edge3" class="edge">
<title>Node4&#45;&gt;Node1</title>
<path fill="none" stroke="#9a32cd" stroke-dasharray="5,2" d="M136.3,-77.78C132.41,-71.47 127.66,-64.61 122.5,-59 116.7,-52.69 109.74,-46.66 102.91,-41.36"/>
<polygon fill="#9a32cd" stroke="#9a32cd" points="133.15,-79.34 141.19,-86.25 139.22,-75.84 133.15,-79.34"/>
<text text-anchor="middle" x="157" y="-62" font-family="Helvetica,sans-Serif" font-size="10.00"> logger_ptr</text>
</g>
<!-- Node5 -->
<g id="node5" class="node">
<title>Node5</title>
<g id="a_node5"><a xlink:title=" ">
<polygon fill="white" stroke="#666666" points="201,-174 92,-174 92,-144 201,-144 201,-174"/>
<text text-anchor="start" x="100" y="-162" font-family="Helvetica,sans-Serif" font-size="10.00">std::basic_ostream</text>
<text text-anchor="middle" x="146.5" y="-151" font-family="Helvetica,sans-Serif" font-size="10.00">&lt; Char &gt;</text>
</a>
</g>
</g>
<!-- Node5&#45;&gt;Node4 -->
<g id="edge4" class="edge">
<title>Node5&#45;&gt;Node4</title>
<path fill="none" stroke="#63b8ff" d="M146.5,-132.13C146.5,-123.29 146.5,-113.99 146.5,-107.42"/>
<polygon fill="#63b8ff" stroke="#63b8ff" points="143,-132.08 146.5,-142.08 150,-132.08 143,-132.08"/>
</g>
<!-- Node6 -->
<g id="node6" class="node">
<title>Node6</title>
<g id="a_node6"><a xlink:title=" ">
<polygon fill="white" stroke="#666666" points="210.5,-230 82.5,-230 82.5,-211 210.5,-211 210.5,-230"/>
<text text-anchor="middle" x="146.5" y="-218" font-family="Helvetica,sans-Serif" font-size="10.00">std::basic_ios&lt; Char &gt;</text>
</a>
</g>
</g>
<!-- Node6&#45;&gt;Node5 -->
<g id="edge5" class="edge">
<title>Node6&#45;&gt;Node5</title>
<path fill="none" stroke="#63b8ff" d="M146.5,-199.46C146.5,-191.23 146.5,-181.89 146.5,-174.36"/>
<polygon fill="#63b8ff" stroke="#63b8ff" points="143,-199.21 146.5,-209.21 150,-199.21 143,-199.21"/>
</g>
<!-- Node7 -->
<g id="node7" class="node">
<title>Node7</title>
<g id="a_node7"><a xlink:title=" ">
<polygon fill="white" stroke="#666666" points="186.5,-286 106.5,-286 106.5,-267 186.5,-267 186.5,-286"/>
<text text-anchor="middle" x="146.5" y="-274" font-family="Helvetica,sans-Serif" font-size="10.00">std::ios_base</text>
</a>
</g>
</g>
<!-- Node7&#45;&gt;Node6 -->
<g id="edge6" class="edge">
<title>Node7&#45;&gt;Node6</title>
<path fill="none" stroke="#63b8ff" d="M146.5,-255.11C146.5,-246.52 146.5,-236.97 146.5,-230.25"/>
<polygon fill="#63b8ff" stroke="#63b8ff" points="143,-255.07 146.5,-265.07 150,-255.07 143,-255.07"/>
</g>
</g>
</svg>
