<?xml version="1.0" encoding="UTF-8" standalone="no"?>
<!DOCTYPE svg PUBLIC "-//W3C//DTD SVG 1.1//EN"
 "http://www.w3.org/Graphics/SVG/1.1/DTD/svg11.dtd">
<!-- Generated by graphviz version 7.0.6 (20230107.1202)
 -->
<!-- Title: tl::detail::optional_copy_base&lt; T, bool &gt; Pages: 1 -->
<svg width="1128pt" height="150pt"
 viewBox="0.00 0.00 1128.00 149.50" xmlns="http://www.w3.org/2000/svg" xmlns:xlink="http://www.w3.org/1999/xlink">
<g id="graph0" class="graph" transform="scale(1 1) rotate(0) translate(4 145.5)">
<title>tl::detail::optional_copy_base&lt; T, bool &gt;</title>
<!-- Node1 -->
<g id="node1" class="node">
<title>Node1</title>
<g id="a_node1"><a xlink:title=" ">
<polygon fill="#999999" stroke="#666666" points="475,-54 346,-54 346,-24 475,-24 475,-54"/>
<text text-anchor="start" x="354" y="-42" font-family="Helvetica,sans-Serif" font-size="10.00">tl::detail::optional</text>
<text text-anchor="middle" x="410.5" y="-31" font-family="Helvetica,sans-Serif" font-size="10.00">_copy_base&lt; T, bool &gt;</text>
</a>
</g>
</g>
<!-- Node4 -->
<g id="node4" class="node">
<title>Node4</title>
<g id="a_node4"><a xlink:href="structtl_1_1detail_1_1optional__move__base.html" target="_top" xlink:title=" ">
<polygon fill="white" stroke="#666666" points="646.5,-78 512.5,-78 512.5,-48 646.5,-48 646.5,-78"/>
<text text-anchor="start" x="520.5" y="-66" font-family="Helvetica,sans-Serif" font-size="10.00">tl::detail::optional</text>
<text text-anchor="middle" x="579.5" y="-55" font-family="Helvetica,sans-Serif" font-size="10.00">_move_base&lt; T, bool &gt;</text>
</a>
</g>
</g>
<!-- Node1&#45;&gt;Node4 -->
<g id="edge3" class="edge">
<title>Node1&#45;&gt;Node4</title>
<path fill="none" stroke="#63b8ff" d="M486.28,-49.75C494.86,-50.98 503.56,-52.23 512.01,-53.44"/>
<polygon fill="#63b8ff" stroke="#63b8ff" points="487.01,-46.32 476.61,-48.36 486.01,-53.24 487.01,-46.32"/>
</g>
<!-- Node10 -->
<g id="node10" class="node">
<title>Node10</title>
<g id="a_node10"><a xlink:href="structtl_1_1detail_1_1optional__move__base_3_01T_00_01false_01_4.html" target="_top" xlink:title=" ">
<polygon fill="white" stroke="#666666" points="648,-30 511,-30 511,0 648,0 648,-30"/>
<text text-anchor="start" x="519" y="-18" font-family="Helvetica,sans-Serif" font-size="10.00">tl::detail::optional</text>
<text text-anchor="middle" x="579.5" y="-7" font-family="Helvetica,sans-Serif" font-size="10.00">_move_base&lt; T, false &gt;</text>
</a>
</g>
</g>
<!-- Node1&#45;&gt;Node10 -->
<g id="edge9" class="edge">
<title>Node1&#45;&gt;Node10</title>
<path fill="none" stroke="#63b8ff" d="M486.41,-28.23C494.47,-27.08 502.64,-25.9 510.62,-24.76"/>
<polygon fill="#63b8ff" stroke="#63b8ff" points="486.01,-24.76 476.61,-29.64 487.01,-31.68 486.01,-24.76"/>
</g>
<!-- Node2 -->
<g id="node2" class="node">
<title>Node2</title>
<g id="a_node2"><a xlink:href="structtl_1_1detail_1_1optional__operations__base.html" target="_top" xlink:title=" ">
<polygon fill="white" stroke="#666666" points="310,-54 179,-54 179,-24 310,-24 310,-54"/>
<text text-anchor="start" x="187" y="-42" font-family="Helvetica,sans-Serif" font-size="10.00">tl::detail::optional</text>
<text text-anchor="middle" x="244.5" y="-31" font-family="Helvetica,sans-Serif" font-size="10.00">_operations_base&lt; T &gt;</text>
</a>
</g>
</g>
<!-- Node2&#45;&gt;Node1 -->
<g id="edge1" class="edge">
<title>Node2&#45;&gt;Node1</title>
<path fill="none" stroke="#63b8ff" d="M321.62,-39C329.67,-39 337.8,-39 345.69,-39"/>
<polygon fill="#63b8ff" stroke="#63b8ff" points="321.83,-35.5 311.83,-39 321.83,-42.5 321.83,-35.5"/>
</g>
<!-- Node3 -->
<g id="node3" class="node">
<title>Node3</title>
<g id="a_node3"><a xlink:href="structtl_1_1detail_1_1optional__storage__base.html" target="_top" xlink:title=" ">
<polygon fill="white" stroke="#666666" points="143,-54 0,-54 0,-24 143,-24 143,-54"/>
<text text-anchor="start" x="8" y="-42" font-family="Helvetica,sans-Serif" font-size="10.00">tl::detail::optional</text>
<text text-anchor="middle" x="71.5" y="-31" font-family="Helvetica,sans-Serif" font-size="10.00">_storage_base&lt; T, bool &gt;</text>
</a>
</g>
</g>
<!-- Node3&#45;&gt;Node2 -->
<g id="edge2" class="edge">
<title>Node3&#45;&gt;Node2</title>
<path fill="none" stroke="#63b8ff" d="M154.45,-39C162.55,-39 170.71,-39 178.61,-39"/>
<polygon fill="#63b8ff" stroke="#63b8ff" points="154.55,-35.5 144.55,-39 154.55,-42.5 154.55,-35.5"/>
</g>
<!-- Node5 -->
<g id="node5" class="node">
<title>Node5</title>
<g id="a_node5"><a xlink:href="structtl_1_1detail_1_1optional__copy__assign__base.html" target="_top" xlink:title=" ">
<polygon fill="white" stroke="#666666" points="815,-112.5 684,-112.5 684,-71.5 815,-71.5 815,-112.5"/>
<text text-anchor="start" x="692" y="-100.5" font-family="Helvetica,sans-Serif" font-size="10.00">tl::detail::optional</text>
<text text-anchor="start" x="692" y="-89.5" font-family="Helvetica,sans-Serif" font-size="10.00">_copy_assign_base&lt; T,</text>
<text text-anchor="middle" x="749.5" y="-78.5" font-family="Helvetica,sans-Serif" font-size="10.00"> bool &gt;</text>
</a>
</g>
</g>
<!-- Node4&#45;&gt;Node5 -->
<g id="edge4" class="edge">
<title>Node4&#45;&gt;Node5</title>
<path fill="none" stroke="#63b8ff" d="M658.08,-76.39C666.64,-77.87 675.3,-79.36 683.68,-80.81"/>
<polygon fill="#63b8ff" stroke="#63b8ff" points="658.84,-72.97 648.39,-74.72 657.65,-79.87 658.84,-72.97"/>
</g>
<!-- Node9 -->
<g id="node9" class="node">
<title>Node9</title>
<g id="a_node9"><a xlink:href="structtl_1_1detail_1_1optional__copy__assign__base_3_01T_00_01false_01_4.html" target="_top" xlink:title=" ">
<polygon fill="white" stroke="#666666" points="815,-53.5 684,-53.5 684,-12.5 815,-12.5 815,-53.5"/>
<text text-anchor="start" x="692" y="-41.5" font-family="Helvetica,sans-Serif" font-size="10.00">tl::detail::optional</text>
<text text-anchor="start" x="692" y="-30.5" font-family="Helvetica,sans-Serif" font-size="10.00">_copy_assign_base&lt; T,</text>
<text text-anchor="middle" x="749.5" y="-19.5" font-family="Helvetica,sans-Serif" font-size="10.00"> false &gt;</text>
</a>
</g>
</g>
<!-- Node4&#45;&gt;Node9 -->
<g id="edge8" class="edge">
<title>Node4&#45;&gt;Node9</title>
<path fill="none" stroke="#63b8ff" d="M658.08,-49.15C666.64,-47.62 675.3,-46.07 683.68,-44.57"/>
<polygon fill="#63b8ff" stroke="#63b8ff" points="657.62,-45.67 648.39,-50.88 658.85,-52.56 657.62,-45.67"/>
</g>
<!-- Node6 -->
<g id="node6" class="node">
<title>Node6</title>
<g id="a_node6"><a xlink:href="structtl_1_1detail_1_1optional__move__assign__base.html" target="_top" xlink:title=" ">
<polygon fill="white" stroke="#666666" points="986,-141.5 851,-141.5 851,-100.5 986,-100.5 986,-141.5"/>
<text text-anchor="start" x="859" y="-129.5" font-family="Helvetica,sans-Serif" font-size="10.00">tl::detail::optional</text>
<text text-anchor="start" x="859" y="-118.5" font-family="Helvetica,sans-Serif" font-size="10.00">_move_assign_base&lt; T,</text>
<text text-anchor="middle" x="918.5" y="-107.5" font-family="Helvetica,sans-Serif" font-size="10.00"> bool &gt;</text>
</a>
</g>
</g>
<!-- Node5&#45;&gt;Node6 -->
<g id="edge5" class="edge">
<title>Node5&#45;&gt;Node6</title>
<path fill="none" stroke="#63b8ff" d="M826.4,-105.18C834.48,-106.58 842.65,-108 850.62,-109.39"/>
<polygon fill="#63b8ff" stroke="#63b8ff" points="827.01,-101.73 816.56,-103.47 825.81,-108.63 827.01,-101.73"/>
</g>
<!-- Node8 -->
<g id="node8" class="node">
<title>Node8</title>
<g id="a_node8"><a xlink:href="structtl_1_1detail_1_1optional__move__assign__base_3_01T_00_01false_01_4.html" target="_top" xlink:title=" ">
<polygon fill="white" stroke="#666666" points="986,-82.5 851,-82.5 851,-41.5 986,-41.5 986,-82.5"/>
<text text-anchor="start" x="859" y="-70.5" font-family="Helvetica,sans-Serif" font-size="10.00">tl::detail::optional</text>
<text text-anchor="start" x="859" y="-59.5" font-family="Helvetica,sans-Serif" font-size="10.00">_move_assign_base&lt; T,</text>
<text text-anchor="middle" x="918.5" y="-48.5" font-family="Helvetica,sans-Serif" font-size="10.00"> false &gt;</text>
</a>
</g>
</g>
<!-- Node5&#45;&gt;Node8 -->
<g id="edge7" class="edge">
<title>Node5&#45;&gt;Node8</title>
<path fill="none" stroke="#63b8ff" d="M826.4,-78.37C834.48,-76.91 842.65,-75.45 850.62,-74.01"/>
<polygon fill="#63b8ff" stroke="#63b8ff" points="825.78,-74.92 816.56,-80.13 827.02,-81.81 825.78,-74.92"/>
</g>
<!-- Node7 -->
<g id="node7" class="node">
<title>Node7</title>
<g id="a_node7"><a xlink:href="classtl_1_1optional.html" target="_top" xlink:title=" ">
<polygon fill="white" stroke="#666666" points="1120,-130.5 1022,-130.5 1022,-111.5 1120,-111.5 1120,-130.5"/>
<text text-anchor="middle" x="1071" y="-118.5" font-family="Helvetica,sans-Serif" font-size="10.00">tl::optional&lt; T &gt;</text>
</a>
</g>
</g>
<!-- Node6&#45;&gt;Node7 -->
<g id="edge6" class="edge">
<title>Node6&#45;&gt;Node7</title>
<path fill="none" stroke="#8b1a1a" d="M997.62,-121C1005.86,-121 1014.06,-121 1021.82,-121"/>
<polygon fill="#8b1a1a" stroke="#8b1a1a" points="997.9,-117.5 987.9,-121 997.9,-124.5 997.9,-117.5"/>
</g>
</g>
</svg>
