<?xml version="1.0" encoding="UTF-8" standalone="no"?>
<!DOCTYPE svg PUBLIC "-//W3C//DTD SVG 1.1//EN"
 "http://www.w3.org/Graphics/SVG/1.1/DTD/svg11.dtd">
<!-- Generated by graphviz version 5.0.1 (20220821.0811)
 -->
<!-- Title: proxsuite::linalg::veg::_detail::_meta::has_adl_get&lt; I, T &gt; Pages: 1 -->
<svg width="309pt" height="120pt"
 viewBox="0.00 0.00 309.00 119.50" xmlns="http://www.w3.org/2000/svg" xmlns:xlink="http://www.w3.org/1999/xlink">
<g id="graph0" class="graph" transform="scale(1 1) rotate(0) translate(4 115.5)">
<title>proxsuite::linalg::veg::_detail::_meta::has_adl_get&lt; I, T &gt;</title>
<!-- Node1 -->
<g id="node1" class="node">
<title>Node1</title>
<g id="a_node1"><a xlink:title=" ">
<polygon fill="#999999" stroke="#666666" points="301,-73 182,-73 182,-32 301,-32 301,-73"/>
<text text-anchor="start" x="190" y="-61" font-family="Helvetica,sans-Serif" font-size="10.00">proxsuite::linalg::</text>
<text text-anchor="start" x="190" y="-50" font-family="Helvetica,sans-Serif" font-size="10.00">veg::_detail::_meta</text>
<text text-anchor="middle" x="241.5" y="-39" font-family="Helvetica,sans-Serif" font-size="10.00">::has_adl_get&lt; I, T &gt;</text>
</a>
</g>
</g>
<!-- Node2 -->
<g id="node2" class="node">
<title>Node2</title>
<g id="a_node2"><a xlink:href="structproxsuite_1_1linalg_1_1veg_1_1meta_1_1constant.html" target="_top" xlink:title=" ">
<polygon fill="white" stroke="#666666" points="146,-111.5 0,-111.5 0,-59.5 146,-59.5 146,-111.5"/>
<text text-anchor="start" x="8" y="-99.5" font-family="Helvetica,sans-Serif" font-size="10.00">bool_constant&lt; VEG</text>
<text text-anchor="start" x="8" y="-88.5" font-family="Helvetica,sans-Serif" font-size="10.00">_CONCEPT(detected&lt; adl</text>
<text text-anchor="start" x="8" y="-77.5" font-family="Helvetica,sans-Serif" font-size="10.00">_get::result_type, constant</text>
<text text-anchor="middle" x="73" y="-66.5" font-family="Helvetica,sans-Serif" font-size="10.00">&lt; usize, I &gt;, T &amp;&amp; &gt;)&gt;</text>
</a>
</g>
</g>
<!-- Node2&#45;&gt;Node1 -->
<g id="edge1" class="edge">
<title>Node2&#45;&gt;Node1</title>
<path fill="none" stroke="#63b8ff" d="M155.92,-69.26C164.67,-67.53 173.44,-65.79 181.85,-64.12"/>
<polygon fill="#63b8ff" stroke="#63b8ff" points="155.19,-65.84 146.06,-71.22 156.55,-72.71 155.19,-65.84"/>
</g>
<!-- Node3 -->
<g id="node3" class="node">
<title>Node3</title>
<g id="a_node3"><a xlink:href="structproxsuite_1_1linalg_1_1veg_1_1__detail_1_1__meta_1_1adl__get.html" target="_top" xlink:title=" ">
<polygon fill="white" stroke="#666666" points="128,-41 18,-41 18,0 128,0 128,-41"/>
<text text-anchor="start" x="26" y="-29" font-family="Helvetica,sans-Serif" font-size="10.00">proxsuite::linalg::</text>
<text text-anchor="start" x="26" y="-18" font-family="Helvetica,sans-Serif" font-size="10.00">veg::_detail::_meta</text>
<text text-anchor="middle" x="73" y="-7" font-family="Helvetica,sans-Serif" font-size="10.00">::adl_get</text>
</a>
</g>
</g>
<!-- Node3&#45;&gt;Node1 -->
<g id="edge2" class="edge">
<title>Node3&#45;&gt;Node1</title>
<path fill="none" stroke="#63b8ff" d="M137.9,-32.78C152.35,-35.56 167.61,-38.49 181.83,-41.22"/>
<polygon fill="#63b8ff" stroke="#63b8ff" points="138.54,-29.34 128.06,-30.89 137.22,-36.21 138.54,-29.34"/>
</g>
</g>
</svg>
