<?xml version="1.0" encoding="UTF-8" standalone="no"?>
<!DOCTYPE svg PUBLIC "-//W3C//DTD SVG 1.1//EN"
 "http://www.w3.org/Graphics/SVG/1.1/DTD/svg11.dtd">
<!-- Generated by graphviz version 12.0.0 (20240803.0821)
 -->
<!-- Title: proxsuite::proxqp::sparse::BatchQP&lt; T, I &gt; Pages: 1 -->
<svg width="141pt" height="206pt"
 viewBox="0.00 0.00 141.00 206.00" xmlns="http://www.w3.org/2000/svg" xmlns:xlink="http://www.w3.org/1999/xlink">
<g id="graph0" class="graph" transform="scale(1 1) rotate(0) translate(4 202)">
<title>proxsuite::proxqp::sparse::BatchQP&lt; T, I &gt;</title>
<!-- Node1 -->
<g id="Node000001" class="node">
<title>Node1</title>
<g id="a_Node000001"><a xlink:title=" ">
<polygon fill="#999999" stroke="#666666" points="133,-33.5 0,-33.5 0,0 133,0 133,-33.5"/>
<text text-anchor="start" x="8" y="-20" font-family="Helvetica,sans-Serif" font-size="10.00">proxsuite::proxqp::</text>
<text text-anchor="middle" x="66.5" y="-7.25" font-family="Helvetica,sans-Serif" font-size="10.00">sparse::BatchQP&lt; T, I &gt;</text>
</a>
</g>
</g>
<!-- Node2 -->
<g id="Node000002" class="node">
<title>Node2</title>
<g id="a_Node000002"><a xlink:title=" ">
<polygon fill="white" stroke="#666666" points="128.88,-128.5 4.13,-128.5 4.13,-82.25 128.88,-82.25 128.88,-128.5"/>
<text text-anchor="start" x="12.12" y="-115" font-family="Helvetica,sans-Serif" font-size="10.00">std::vector&lt; proxsuite</text>
<text text-anchor="start" x="12.12" y="-102.25" font-family="Helvetica,sans-Serif" font-size="10.00">::proxqp::sparse::QP&lt;</text>
<text text-anchor="middle" x="66.5" y="-89.5" font-family="Helvetica,sans-Serif" font-size="10.00"> T, I &gt; &gt;</text>
</a>
</g>
</g>
<!-- Node2&#45;&gt;Node1 -->
<g id="edge1_Node000001_Node000002" class="edge">
<title>Node2&#45;&gt;Node1</title>
<g id="a_edge1_Node000001_Node000002"><a xlink:title=" ">
<path fill="none" stroke="#9a32cd" stroke-dasharray="5,2" d="M66.5,-70.89C66.5,-58.21 66.5,-44.35 66.5,-33.96"/>
<polygon fill="#9a32cd" stroke="#9a32cd" points="63,-70.55 66.5,-80.55 70,-70.55 63,-70.55"/>
</a>
</g>
<text text-anchor="middle" x="92" y="-54.75" font-family="Helvetica,sans-Serif" font-size="10.00" fill="grey"> qp_vector</text>
</g>
<!-- Node3 -->
<g id="Node000003" class="node">
<title>Node3</title>
<g id="a_Node000003"><a xlink:title=" ">
<polygon fill="white" stroke="#666666" points="80.9,-198 52.1,-198 52.1,-177.25 80.9,-177.25 80.9,-198"/>
<text text-anchor="middle" x="66.5" y="-184.5" font-family="Helvetica,sans-Serif" font-size="10.00">T</text>
</a>
</g>
</g>
<!-- Node3&#45;&gt;Node2 -->
<g id="edge2_Node000002_Node000003" class="edge">
<title>Node3&#45;&gt;Node2</title>
<g id="a_edge2_Node000002_Node000003"><a xlink:title=" ">
<path fill="none" stroke="#9a32cd" stroke-dasharray="5,2" d="M66.5,-165.4C66.5,-154.1 66.5,-140.22 66.5,-128.76"/>
<polygon fill="#9a32cd" stroke="#9a32cd" points="63,-165.27 66.5,-175.27 70,-165.27 63,-165.27"/>
</a>
</g>
<text text-anchor="middle" x="90.88" y="-149.75" font-family="Helvetica,sans-Serif" font-size="10.00" fill="grey"> elements</text>
</g>
</g>
</svg>
