<?xml version="1.0" encoding="UTF-8" standalone="no"?>
<!DOCTYPE svg PUBLIC "-//W3C//DTD SVG 1.1//EN"
 "http://www.w3.org/Graphics/SVG/1.1/DTD/svg11.dtd">
<!-- Generated by graphviz version 5.0.1 (20220821.0811)
 -->
<!-- Title: proxsuite::linalg::veg::SliceMut&lt; T &gt; Pages: 1 -->
<svg width="119pt" height="184pt"
 viewBox="0.00 0.00 119.00 184.00" xmlns="http://www.w3.org/2000/svg" xmlns:xlink="http://www.w3.org/1999/xlink">
<g id="graph0" class="graph" transform="scale(1 1) rotate(0) translate(4 180)">
<title>proxsuite::linalg::veg::SliceMut&lt; T &gt;</title>
<!-- Node1 -->
<g id="node1" class="node">
<title>Node1</title>
<g id="a_node1"><a xlink:title=" ">
<polygon fill="#bfbfbf" stroke="black" points="0,-0.5 0,-30.5 111,-30.5 111,-0.5 0,-0.5"/>
<text text-anchor="start" x="8" y="-18.5" font-family="Helvetica,sans-Serif" font-size="10.00">proxsuite::linalg::</text>
<text text-anchor="middle" x="55.5" y="-7.5" font-family="Helvetica,sans-Serif" font-size="10.00">veg::SliceMut&lt; T &gt;</text>
</a>
</g>
</g>
<!-- Node2 -->
<g id="node2" class="node">
<title>Node2</title>
<g id="a_node2"><a xlink:href="structproxsuite_1_1linalg_1_1veg_1_1Slice.html" target="_top" xlink:title=" ">
<polygon fill="none" stroke="black" points="5,-67.5 5,-97.5 106,-97.5 106,-67.5 5,-67.5"/>
<text text-anchor="start" x="13" y="-85.5" font-family="Helvetica,sans-Serif" font-size="10.00">proxsuite::linalg::</text>
<text text-anchor="middle" x="55.5" y="-74.5" font-family="Helvetica,sans-Serif" font-size="10.00">veg::Slice&lt; T &gt;</text>
</a>
</g>
</g>
<!-- Node2&#45;&gt;Node1 -->
<g id="edge1" class="edge">
<title>Node2&#45;&gt;Node1</title>
<path fill="none" stroke="#8b1a1a" d="M55.5,-57.11C55.5,-48.15 55.5,-38.32 55.5,-30.58"/>
<polygon fill="#8b1a1a" stroke="#8b1a1a" points="52,-57.4 55.5,-67.4 59,-57.4 52,-57.4"/>
</g>
<!-- Node3 -->
<g id="node3" class="node">
<title>Node3</title>
<g id="a_node3"><a xlink:href="structproxsuite_1_1linalg_1_1veg_1_1__detail_1_1__slice_1_1adl_1_1AdlBase.html" target="_top" xlink:title=" ">
<polygon fill="none" stroke="black" points="2,-134.5 2,-175.5 109,-175.5 109,-134.5 2,-134.5"/>
<text text-anchor="start" x="10" y="-163.5" font-family="Helvetica,sans-Serif" font-size="10.00">proxsuite::linalg::</text>
<text text-anchor="start" x="10" y="-152.5" font-family="Helvetica,sans-Serif" font-size="10.00">veg::_detail::_slice</text>
<text text-anchor="middle" x="55.5" y="-141.5" font-family="Helvetica,sans-Serif" font-size="10.00">::adl::AdlBase</text>
</a>
</g>
</g>
<!-- Node3&#45;&gt;Node2 -->
<g id="edge2" class="edge">
<title>Node3&#45;&gt;Node2</title>
<path fill="none" stroke="midnightblue" d="M55.5,-124.08C55.5,-115.01 55.5,-105.45 55.5,-97.89"/>
<polygon fill="midnightblue" stroke="midnightblue" points="52,-124.36 55.5,-134.36 59,-124.36 52,-124.36"/>
</g>
</g>
</svg>
