<?xml version="1.0" encoding="UTF-8" standalone="no"?>
<!DOCTYPE svg PUBLIC "-//W3C//DTD SVG 1.1//EN"
 "http://www.w3.org/Graphics/SVG/1.1/DTD/svg11.dtd">
<!-- Generated by graphviz version 5.0.1 (20220821.0811)
 -->
<!-- Title: proxsuite::proxqp::dense::QpViewBoxMut&lt; Scalar &gt; Pages: 1 -->
<svg width="458pt" height="103pt"
 viewBox="0.00 0.00 458.00 102.50" xmlns="http://www.w3.org/2000/svg" xmlns:xlink="http://www.w3.org/1999/xlink">
<g id="graph0" class="graph" transform="scale(1 1) rotate(0) translate(4 98.5)">
<title>proxsuite::proxqp::dense::QpViewBoxMut&lt; Scalar &gt;</title>
<!-- Node1 -->
<g id="node1" class="node">
<title>Node1</title>
<g id="a_node1"><a xlink:title=" ">
<polygon fill="#bfbfbf" stroke="black" points="323,-22 323,-63 450,-63 450,-22 323,-22"/>
<text text-anchor="start" x="331" y="-51" font-family="Helvetica,sans-Serif" font-size="10.00">proxsuite::proxqp::</text>
<text text-anchor="start" x="331" y="-40" font-family="Helvetica,sans-Serif" font-size="10.00">dense::QpViewBoxMut</text>
<text text-anchor="middle" x="386.5" y="-29" font-family="Helvetica,sans-Serif" font-size="10.00">&lt; Scalar &gt;</text>
</a>
</g>
</g>
<!-- Node2 -->
<g id="node2" class="node">
<title>Node2</title>
<g id="a_node2"><a xlink:href="structproxsuite_1_1proxqp_1_1MatrixViewMut.html" target="_top" xlink:title=" ">
<polygon fill="none" stroke="black" points="138,-53 138,-94 273,-94 273,-53 138,-53"/>
<text text-anchor="start" x="146" y="-82" font-family="Helvetica,sans-Serif" font-size="10.00">proxsuite::proxqp::</text>
<text text-anchor="start" x="146" y="-71" font-family="Helvetica,sans-Serif" font-size="10.00">MatrixViewMut&lt; Scalar,</text>
<text text-anchor="middle" x="205.5" y="-60" font-family="Helvetica,sans-Serif" font-size="10.00"> layout &gt;</text>
</a>
</g>
</g>
<!-- Node2&#45;&gt;Node1 -->
<g id="edge1" class="edge">
<title>Node2&#45;&gt;Node1</title>
<path fill="none" stroke="#9a32cd" stroke-dasharray="5,2" d="M283.2,-60.22C296.46,-57.92 310.11,-55.56 322.94,-53.33"/>
<polygon fill="#9a32cd" stroke="#9a32cd" points="282.41,-56.8 273.15,-61.96 283.6,-63.7 282.41,-56.8"/>
<text text-anchor="middle" x="300" y="-82.5" font-family="Helvetica,sans-Serif" font-size="10.00"> A</text>
<text text-anchor="middle" x="300" y="-71.5" font-family="Helvetica,sans-Serif" font-size="10.00">C</text>
<text text-anchor="middle" x="300" y="-60.5" font-family="Helvetica,sans-Serif" font-size="10.00">H</text>
</g>
<!-- Node3 -->
<g id="node3" class="node">
<title>Node3</title>
<g id="a_node3"><a xlink:title=" ">
<polygon fill="none" stroke="black" points="0,-33 0,-52 39,-52 39,-33 0,-33"/>
<text text-anchor="middle" x="19.5" y="-40" font-family="Helvetica,sans-Serif" font-size="10.00">isize</text>
</a>
</g>
</g>
<!-- Node3&#45;&gt;Node2 -->
<g id="edge2" class="edge">
<title>Node3&#45;&gt;Node2</title>
<path fill="none" stroke="#9a32cd" stroke-dasharray="5,2" d="M49.2,-47.33C72.82,-51.31 107.26,-57.12 137.7,-62.25"/>
<polygon fill="#9a32cd" stroke="#9a32cd" points="49.6,-43.85 39.16,-45.64 48.44,-50.76 49.6,-43.85"/>
<text text-anchor="middle" x="86.5" y="-82.5" font-family="Helvetica,sans-Serif" font-size="10.00"> cols</text>
<text text-anchor="middle" x="86.5" y="-71.5" font-family="Helvetica,sans-Serif" font-size="10.00">outer_stride</text>
<text text-anchor="middle" x="86.5" y="-60.5" font-family="Helvetica,sans-Serif" font-size="10.00">rows</text>
</g>
<!-- Node4 -->
<g id="node4" class="node">
<title>Node4</title>
<g id="a_node4"><a xlink:href="structproxsuite_1_1proxqp_1_1VectorViewMut.html" target="_top" xlink:title=" ">
<polygon fill="none" stroke="black" points="134,-0.5 134,-30.5 277,-30.5 277,-0.5 134,-0.5"/>
<text text-anchor="start" x="142" y="-18.5" font-family="Helvetica,sans-Serif" font-size="10.00">proxsuite::proxqp::</text>
<text text-anchor="middle" x="205.5" y="-7.5" font-family="Helvetica,sans-Serif" font-size="10.00">VectorViewMut&lt; Scalar &gt;</text>
</a>
</g>
</g>
<!-- Node3&#45;&gt;Node4 -->
<g id="edge4" class="edge">
<title>Node3&#45;&gt;Node4</title>
<path fill="none" stroke="#9a32cd" stroke-dasharray="5,2" d="M48.91,-33.39C51.63,-32.68 54.35,-32.04 57,-31.5 81.86,-26.45 109.43,-22.92 133.94,-20.48"/>
<polygon fill="#9a32cd" stroke="#9a32cd" points="47.94,-30.02 39.27,-36.12 49.85,-36.76 47.94,-30.02"/>
<text text-anchor="middle" x="86.5" y="-34.5" font-family="Helvetica,sans-Serif" font-size="10.00"> dim</text>
</g>
<!-- Node4&#45;&gt;Node1 -->
<g id="edge3" class="edge">
<title>Node4&#45;&gt;Node1</title>
<path fill="none" stroke="#9a32cd" stroke-dasharray="5,2" d="M287.2,-8.26C293.25,-8.68 299.24,-9.4 305,-10.5 317.56,-12.9 330.65,-17.24 342.54,-21.96"/>
<polygon fill="#9a32cd" stroke="#9a32cd" points="287.14,-4.76 277,-7.83 286.85,-11.75 287.14,-4.76"/>
<text text-anchor="middle" x="300" y="-46.5" font-family="Helvetica,sans-Serif" font-size="10.00"> b</text>
<text text-anchor="middle" x="300" y="-35.5" font-family="Helvetica,sans-Serif" font-size="10.00">g</text>
<text text-anchor="middle" x="300" y="-24.5" font-family="Helvetica,sans-Serif" font-size="10.00">l</text>
<text text-anchor="middle" x="300" y="-13.5" font-family="Helvetica,sans-Serif" font-size="10.00">u</text>
</g>
</g>
</svg>
