<?xml version="1.0" encoding="UTF-8" standalone="no"?>
<!DOCTYPE svg PUBLIC "-//W3C//DTD SVG 1.1//EN"
 "http://www.w3.org/Graphics/SVG/1.1/DTD/svg11.dtd">
<!-- Generated by graphviz version 6.0.2 (20221126.1951)
 -->
<!-- Title: proxsuite::linalg::veg::mem::BumpAlloc&lt; MaxAlign &gt; Pages: 1 -->
<svg width="522pt" height="108pt"
 viewBox="0.00 0.00 522.00 108.00" xmlns="http://www.w3.org/2000/svg" xmlns:xlink="http://www.w3.org/1999/xlink">
<g id="graph0" class="graph" transform="scale(1 1) rotate(0) translate(4 104)">
<title>proxsuite::linalg::veg::mem::BumpAlloc&lt; MaxAlign &gt;</title>
<!-- Node1 -->
<g id="node1" class="node">
<title>Node1</title>
<g id="a_node1"><a xlink:title=" ">
<polygon fill="#999999" stroke="#666666" points="331,-70 206,-70 206,-29 331,-29 331,-70"/>
<text text-anchor="start" x="214" y="-58" font-family="Helvetica,sans-Serif" font-size="10.00">proxsuite::linalg::</text>
<text text-anchor="start" x="214" y="-47" font-family="Helvetica,sans-Serif" font-size="10.00">veg::mem::BumpAlloc</text>
<text text-anchor="middle" x="268.5" y="-36" font-family="Helvetica,sans-Serif" font-size="10.00">&lt; MaxAlign &gt;</text>
</a>
</g>
</g>
<!-- Node3 -->
<g id="node3" class="node">
<title>Node3</title>
<g id="a_node3"><a xlink:href="structproxsuite_1_1linalg_1_1veg_1_1mem_1_1MonotonicAlloc.html" target="_top" xlink:title=" ">
<polygon fill="white" stroke="#666666" points="514,-100 367,-100 367,-59 514,-59 514,-100"/>
<text text-anchor="start" x="375" y="-88" font-family="Helvetica,sans-Serif" font-size="10.00">proxsuite::linalg::</text>
<text text-anchor="start" x="375" y="-77" font-family="Helvetica,sans-Serif" font-size="10.00">veg::mem::MonotonicAlloc</text>
<text text-anchor="middle" x="440.5" y="-66" font-family="Helvetica,sans-Serif" font-size="10.00">&lt; MaxAlign &gt;</text>
</a>
</g>
</g>
<!-- Node1&#45;&gt;Node3 -->
<g id="edge2" class="edge">
<title>Node1&#45;&gt;Node3</title>
<path fill="none" stroke="#8b1a1a" d="M341.45,-62.2C349.81,-63.67 358.34,-65.18 366.72,-66.66"/>
<polygon fill="#8b1a1a" stroke="#8b1a1a" points="341.81,-58.71 331.35,-60.42 340.59,-65.6 341.81,-58.71"/>
</g>
<!-- Node4 -->
<g id="node4" class="node">
<title>Node4</title>
<g id="a_node4"><a xlink:href="structproxsuite_1_1linalg_1_1veg_1_1mem_1_1StackAlloc.html" target="_top" xlink:title=" ">
<polygon fill="white" stroke="#666666" points="502,-41 379,-41 379,0 502,0 502,-41"/>
<text text-anchor="start" x="387" y="-29" font-family="Helvetica,sans-Serif" font-size="10.00">proxsuite::linalg::</text>
<text text-anchor="start" x="387" y="-18" font-family="Helvetica,sans-Serif" font-size="10.00">veg::mem::StackAlloc</text>
<text text-anchor="middle" x="440.5" y="-7" font-family="Helvetica,sans-Serif" font-size="10.00">&lt; MaxAlign &gt;</text>
</a>
</g>
</g>
<!-- Node1&#45;&gt;Node4 -->
<g id="edge3" class="edge">
<title>Node1&#45;&gt;Node4</title>
<path fill="none" stroke="#8b1a1a" d="M341.27,-37.26C353.77,-35.12 366.66,-32.93 378.83,-30.85"/>
<polygon fill="#8b1a1a" stroke="#8b1a1a" points="340.62,-33.82 331.35,-38.95 341.8,-40.72 340.62,-33.82"/>
</g>
<!-- Node2 -->
<g id="node2" class="node">
<title>Node2</title>
<g id="a_node2"><a xlink:href="structproxsuite_1_1linalg_1_1veg_1_1__detail_1_1__mem_1_1BumpAllocLayout.html" target="_top" xlink:title=" ">
<polygon fill="white" stroke="#666666" points="170,-70 0,-70 0,-29 170,-29 170,-70"/>
<text text-anchor="start" x="8" y="-58" font-family="Helvetica,sans-Serif" font-size="10.00">proxsuite::linalg::</text>
<text text-anchor="start" x="8" y="-47" font-family="Helvetica,sans-Serif" font-size="10.00">veg::_detail::_mem::</text>
<text text-anchor="middle" x="85" y="-36" font-family="Helvetica,sans-Serif" font-size="10.00">BumpAllocLayout&lt; MaxAlign &gt;</text>
</a>
</g>
</g>
<!-- Node2&#45;&gt;Node1 -->
<g id="edge1" class="edge">
<title>Node2&#45;&gt;Node1</title>
<path fill="none" stroke="#8b1a1a" d="M180.3,-49.5C188.98,-49.5 197.61,-49.5 205.89,-49.5"/>
<polygon fill="#8b1a1a" stroke="#8b1a1a" points="180.11,-46 170.11,-49.5 180.11,-53 180.11,-46"/>
</g>
</g>
</svg>
