<?xml version="1.0" encoding="UTF-8" standalone="no"?>
<!DOCTYPE svg PUBLIC "-//W3C//DTD SVG 1.1//EN"
 "http://www.w3.org/Graphics/SVG/1.1/DTD/svg11.dtd">
<!-- Generated by graphviz version 6.0.1 (20220911.2005)
 -->
<!-- Title: proxsuite::linalg::veg::_detail::_dynstack::DynAllocBase Pages: 1 -->
<svg width="364pt" height="98pt"
 viewBox="0.00 0.00 364.00 97.50" xmlns="http://www.w3.org/2000/svg" xmlns:xlink="http://www.w3.org/1999/xlink">
<g id="graph0" class="graph" transform="scale(1 1) rotate(0) translate(4 93.5)">
<title>proxsuite::linalg::veg::_detail::_dynstack::DynAllocBase</title>
<!-- Node1 -->
<g id="node1" class="node">
<title>Node1</title>
<g id="a_node1"><a xlink:title=" ">
<polygon fill="#999999" stroke="#666666" points="356,-68 227,-68 227,-27 356,-27 356,-68"/>
<text text-anchor="start" x="235" y="-56" font-family="Helvetica,sans-Serif" font-size="10.00">proxsuite::linalg::</text>
<text text-anchor="start" x="235" y="-45" font-family="Helvetica,sans-Serif" font-size="10.00">veg::_detail::_dynstack</text>
<text text-anchor="middle" x="291.5" y="-34" font-family="Helvetica,sans-Serif" font-size="10.00">::DynAllocBase</text>
</a>
</g>
</g>
<!-- Node2 -->
<g id="node2" class="node">
<title>Node2</title>
<g id="a_node2"><a xlink:href="structproxsuite_1_1linalg_1_1veg_1_1dynstack_1_1DynStackMut.html" target="_top" xlink:title=" ">
<polygon fill="white" stroke="#666666" points="156,-89.5 0,-89.5 0,-59.5 156,-59.5 156,-89.5"/>
<text text-anchor="start" x="8" y="-77.5" font-family="Helvetica,sans-Serif" font-size="10.00">proxsuite::linalg::</text>
<text text-anchor="middle" x="78" y="-66.5" font-family="Helvetica,sans-Serif" font-size="10.00">veg::dynstack::DynStackMut</text>
</a>
</g>
</g>
<!-- Node2&#45;&gt;Node1 -->
<g id="edge1" class="edge">
<title>Node2&#45;&gt;Node1</title>
<path fill="none" stroke="#9a32cd" stroke-dasharray="5,2" d="M166.44,-63.34C186.73,-60.75 207.95,-58.04 226.98,-55.61"/>
<polygon fill="#9a32cd" stroke="#9a32cd" points="165.73,-59.9 156.25,-64.64 166.62,-66.84 165.73,-59.9"/>
<text text-anchor="middle" x="191.5" y="-64.5" font-family="Helvetica,sans-Serif" font-size="10.00"> parent</text>
</g>
<!-- Node3 -->
<g id="node3" class="node">
<title>Node3</title>
<g id="a_node3"><a xlink:href="structproxsuite_1_1linalg_1_1veg_1_1__detail_1_1__meta_1_1make__signed.html" target="_top" xlink:title=" ">
<polygon fill="white" stroke="#666666" points="145.5,-41 10.5,-41 10.5,0 145.5,0 145.5,-41"/>
<text text-anchor="start" x="18.5" y="-29" font-family="Helvetica,sans-Serif" font-size="10.00">proxsuite::linalg::</text>
<text text-anchor="start" x="18.5" y="-18" font-family="Helvetica,sans-Serif" font-size="10.00">veg::_detail::_meta</text>
<text text-anchor="middle" x="78" y="-7" font-family="Helvetica,sans-Serif" font-size="10.00">::make_signed&lt; usize &gt;</text>
</a>
</g>
</g>
<!-- Node3&#45;&gt;Node1 -->
<g id="edge2" class="edge">
<title>Node3&#45;&gt;Node1</title>
<path fill="none" stroke="#9a32cd" stroke-dasharray="5,2" d="M155.82,-30.31C179.1,-33.28 204.41,-36.51 226.73,-39.36"/>
<polygon fill="#9a32cd" stroke="#9a32cd" points="155.99,-26.8 145.63,-29.01 155.11,-33.74 155.99,-26.8"/>
<text text-anchor="middle" x="191.5" y="-39.5" font-family="Helvetica,sans-Serif" font-size="10.00"> len</text>
</g>
</g>
</svg>
