<?xml version="1.0" encoding="UTF-8" standalone="no"?>
<!DOCTYPE svg PUBLIC "-//W3C//DTD SVG 1.1//EN"
 "http://www.w3.org/Graphics/SVG/1.1/DTD/svg11.dtd">
<!-- Generated by graphviz version 8.0.4 (20230426.1303)
 -->
<!-- Title: tl::detail::optional_copy_assign_base&lt; T, bool &gt; Pages: 1 -->
<svg width="1119pt" height="118pt"
 viewBox="0.00 0.00 1119.00 118.25" xmlns="http://www.w3.org/2000/svg" xmlns:xlink="http://www.w3.org/1999/xlink">
<g id="graph0" class="graph" transform="scale(1 1) rotate(0) translate(4 114.25)">
<title>tl::detail::optional_copy_assign_base&lt; T, bool &gt;</title>
<!-- Node1 -->
<g id="node1" class="node">
<title>Node1</title>
<g id="a_node1"><a xlink:title=" ">
<polygon fill="#999999" stroke="#666666" points="807.5,-78.25 677.5,-78.25 677.5,-32 807.5,-32 807.5,-78.25"/>
<text text-anchor="start" x="685.5" y="-64.75" font-family="Helvetica,sans-Serif" font-size="10.00">tl::detail::optional</text>
<text text-anchor="start" x="685.5" y="-52" font-family="Helvetica,sans-Serif" font-size="10.00">_copy_assign_base&lt; T,</text>
<text text-anchor="middle" x="742.5" y="-39.25" font-family="Helvetica,sans-Serif" font-size="10.00"> bool &gt;</text>
</a>
</g>
</g>
<!-- Node6 -->
<g id="node6" class="node">
<title>Node6</title>
<g id="a_node6"><a xlink:href="structtl_1_1detail_1_1optional__move__assign__base.html" target="_top" xlink:title=" ">
<polygon fill="white" stroke="#666666" points="978,-110.25 843.5,-110.25 843.5,-64 978,-64 978,-110.25"/>
<text text-anchor="start" x="851.5" y="-96.75" font-family="Helvetica,sans-Serif" font-size="10.00">tl::detail::optional</text>
<text text-anchor="start" x="851.5" y="-84" font-family="Helvetica,sans-Serif" font-size="10.00">_move_assign_base&lt; T,</text>
<text text-anchor="middle" x="910.75" y="-71.25" font-family="Helvetica,sans-Serif" font-size="10.00"> bool &gt;</text>
</a>
</g>
</g>
<!-- Node1&#45;&gt;Node6 -->
<g id="edge5" class="edge">
<title>Node1&#45;&gt;Node6</title>
<path fill="none" stroke="#63b8ff" d="M818.5,-69.56C826.73,-71.14 835.06,-72.75 843.17,-74.31"/>
<polygon fill="#63b8ff" stroke="#63b8ff" points="819.26,-65.95 808.78,-67.5 817.93,-72.82 819.26,-65.95"/>
</g>
<!-- Node8 -->
<g id="node8" class="node">
<title>Node8</title>
<g id="a_node8"><a xlink:href="structtl_1_1detail_1_1optional__move__assign__base_3_01T_00_01false_01_4.html" target="_top" xlink:title=" ">
<polygon fill="white" stroke="#666666" points="978,-46.25 843.5,-46.25 843.5,0 978,0 978,-46.25"/>
<text text-anchor="start" x="851.5" y="-32.75" font-family="Helvetica,sans-Serif" font-size="10.00">tl::detail::optional</text>
<text text-anchor="start" x="851.5" y="-20" font-family="Helvetica,sans-Serif" font-size="10.00">_move_assign_base&lt; T,</text>
<text text-anchor="middle" x="910.75" y="-7.25" font-family="Helvetica,sans-Serif" font-size="10.00"> false &gt;</text>
</a>
</g>
</g>
<!-- Node1&#45;&gt;Node8 -->
<g id="edge7" class="edge">
<title>Node1&#45;&gt;Node8</title>
<path fill="none" stroke="#63b8ff" d="M818.5,-40.69C826.73,-39.11 835.06,-37.5 843.17,-35.94"/>
<polygon fill="#63b8ff" stroke="#63b8ff" points="817.93,-37.43 808.78,-42.75 819.26,-44.3 817.93,-37.43"/>
</g>
<!-- Node2 -->
<g id="node2" class="node">
<title>Node2</title>
<g id="a_node2"><a xlink:href="structtl_1_1detail_1_1optional__move__base.html" target="_top" xlink:title=" ">
<polygon fill="white" stroke="#666666" points="641.5,-71.88 508.5,-71.88 508.5,-38.38 641.5,-38.38 641.5,-71.88"/>
<text text-anchor="start" x="516.5" y="-58.38" font-family="Helvetica,sans-Serif" font-size="10.00">tl::detail::optional</text>
<text text-anchor="middle" x="575" y="-45.62" font-family="Helvetica,sans-Serif" font-size="10.00">_move_base&lt; T, bool &gt;</text>
</a>
</g>
</g>
<!-- Node2&#45;&gt;Node1 -->
<g id="edge1" class="edge">
<title>Node2&#45;&gt;Node1</title>
<path fill="none" stroke="#63b8ff" d="M652.62,-55.12C660.84,-55.12 669.14,-55.12 677.19,-55.12"/>
<polygon fill="#63b8ff" stroke="#63b8ff" points="652.89,-51.63 642.89,-55.12 652.89,-58.63 652.89,-51.63"/>
</g>
<!-- Node3 -->
<g id="node3" class="node">
<title>Node3</title>
<g id="a_node3"><a xlink:href="structtl_1_1detail_1_1optional__copy__base.html" target="_top" xlink:title=" ">
<polygon fill="white" stroke="#666666" points="472.5,-71.88 344,-71.88 344,-38.38 472.5,-38.38 472.5,-71.88"/>
<text text-anchor="start" x="352" y="-58.38" font-family="Helvetica,sans-Serif" font-size="10.00">tl::detail::optional</text>
<text text-anchor="middle" x="408.25" y="-45.62" font-family="Helvetica,sans-Serif" font-size="10.00">_copy_base&lt; T, bool &gt;</text>
</a>
</g>
</g>
<!-- Node3&#45;&gt;Node2 -->
<g id="edge2" class="edge">
<title>Node3&#45;&gt;Node2</title>
<path fill="none" stroke="#63b8ff" d="M483.85,-55.12C491.91,-55.12 500.07,-55.12 508.02,-55.12"/>
<polygon fill="#63b8ff" stroke="#63b8ff" points="483.95,-51.63 473.95,-55.12 483.95,-58.63 483.95,-51.63"/>
</g>
<!-- Node4 -->
<g id="node4" class="node">
<title>Node4</title>
<g id="a_node4"><a xlink:href="structtl_1_1detail_1_1optional__operations__base.html" target="_top" xlink:title=" ">
<polygon fill="white" stroke="#666666" points="308,-71.88 178,-71.88 178,-38.38 308,-38.38 308,-71.88"/>
<text text-anchor="start" x="186" y="-58.38" font-family="Helvetica,sans-Serif" font-size="10.00">tl::detail::optional</text>
<text text-anchor="middle" x="243" y="-45.62" font-family="Helvetica,sans-Serif" font-size="10.00">_operations_base&lt; T &gt;</text>
</a>
</g>
</g>
<!-- Node4&#45;&gt;Node3 -->
<g id="edge3" class="edge">
<title>Node4&#45;&gt;Node3</title>
<path fill="none" stroke="#63b8ff" d="M318.86,-55.12C327.14,-55.12 335.52,-55.12 343.65,-55.12"/>
<polygon fill="#63b8ff" stroke="#63b8ff" points="319.05,-51.63 309.05,-55.12 319.05,-58.63 319.05,-51.63"/>
</g>
<!-- Node5 -->
<g id="node5" class="node">
<title>Node5</title>
<g id="a_node5"><a xlink:href="structtl_1_1detail_1_1optional__storage__base.html" target="_top" xlink:title=" ">
<polygon fill="white" stroke="#666666" points="142,-71.88 0,-71.88 0,-38.38 142,-38.38 142,-71.88"/>
<text text-anchor="start" x="8" y="-58.38" font-family="Helvetica,sans-Serif" font-size="10.00">tl::detail::optional</text>
<text text-anchor="middle" x="71" y="-45.62" font-family="Helvetica,sans-Serif" font-size="10.00">_storage_base&lt; T, bool &gt;</text>
</a>
</g>
</g>
<!-- Node5&#45;&gt;Node4 -->
<g id="edge4" class="edge">
<title>Node5&#45;&gt;Node4</title>
<path fill="none" stroke="#63b8ff" d="M152.99,-55.12C161.3,-55.12 169.67,-55.12 177.76,-55.12"/>
<polygon fill="#63b8ff" stroke="#63b8ff" points="153.13,-51.63 143.13,-55.12 153.13,-58.63 153.13,-51.63"/>
</g>
<!-- Node7 -->
<g id="node7" class="node">
<title>Node7</title>
<g id="a_node7"><a xlink:href="classtl_1_1optional.html" target="_top" xlink:title=" ">
<polygon fill="white" stroke="#666666" points="1111,-97.5 1014,-97.5 1014,-76.75 1111,-76.75 1111,-97.5"/>
<text text-anchor="middle" x="1062.5" y="-84" font-family="Helvetica,sans-Serif" font-size="10.00">tl::optional&lt; T &gt;</text>
</a>
</g>
</g>
<!-- Node6&#45;&gt;Node7 -->
<g id="edge6" class="edge">
<title>Node6&#45;&gt;Node7</title>
<path fill="none" stroke="#8b1a1a" d="M989.2,-87.12C997.5,-87.12 1005.75,-87.12 1013.56,-87.12"/>
<polygon fill="#8b1a1a" stroke="#8b1a1a" points="989.3,-83.63 979.3,-87.12 989.3,-90.63 989.3,-83.63"/>
</g>
</g>
</svg>
