<?xml version="1.0" encoding="UTF-8" standalone="no"?>
<!DOCTYPE svg PUBLIC "-//W3C//DTD SVG 1.1//EN"
 "http://www.w3.org/Graphics/SVG/1.1/DTD/svg11.dtd">
<!-- Generated by graphviz version 9.0.0 (20231125.0833)
 -->
<!-- Title: proxsuite::proxqp::dense::Workspace&lt; T &gt; Pages: 1 -->
<svg width="629pt" height="264pt"
 viewBox="0.00 0.00 628.50 263.50" xmlns="http://www.w3.org/2000/svg" xmlns:xlink="http://www.w3.org/1999/xlink">
<g id="graph0" class="graph" transform="scale(1 1) rotate(0) translate(4 259.5)">
<title>proxsuite::proxqp::dense::Workspace&lt; T &gt;</title>
<!-- Node1 -->
<g id="Node000001" class="node">
<title>Node1</title>
<g id="a_Node000001"><a xlink:title="This class defines the workspace of the dense solver.">
<polygon fill="#999999" stroke="#666666" points="620.5,-66.12 487.5,-66.12 487.5,-32.62 620.5,-32.62 620.5,-66.12"/>
<text text-anchor="start" x="495.5" y="-52.62" font-family="Helvetica,sans-Serif" font-size="10.00">proxsuite::proxqp::</text>
<text text-anchor="middle" x="554" y="-39.88" font-family="Helvetica,sans-Serif" font-size="10.00">dense::Workspace&lt; T &gt;</text>
</a>
</g>
</g>
<!-- Node2 -->
<g id="Node000002" class="node">
<title>Node2</title>
<g id="a_Node000002"><a xlink:href="structproxsuite_1_1linalg_1_1veg_1_1Vec.html" target="_top" xlink:title=" ">
<polygon fill="white" stroke="#666666" points="369,-178.12 221,-178.12 221,-144.62 369,-144.62 369,-178.12"/>
<text text-anchor="start" x="229" y="-164.62" font-family="Helvetica,sans-Serif" font-size="10.00">proxsuite::linalg::</text>
<text text-anchor="middle" x="295" y="-151.88" font-family="Helvetica,sans-Serif" font-size="10.00">veg::Vec&lt; unsigned char &gt;</text>
</a>
</g>
</g>
<!-- Node2&#45;&gt;Node1 -->
<g id="edge1_Node000001_Node000002" class="edge">
<title>Node2&#45;&gt;Node1</title>
<g id="a_edge1_Node000001_Node000002"><a xlink:title=" ">
<path fill="none" stroke="#9a32cd" stroke-dasharray="5,2" d="M380.5,-162.29C409.98,-159.66 442.44,-153.27 469.5,-139.38 502.3,-122.53 528.9,-87.35 542.7,-66.31"/>
<polygon fill="#9a32cd" stroke="#9a32cd" points="380.58,-158.78 370.87,-163.01 381.1,-165.76 380.58,-158.78"/>
</a>
</g>
<text text-anchor="middle" x="428.25" y="-164.62" font-family="Helvetica,sans-Serif" font-size="10.00" fill="grey"> ldl_stack</text>
</g>
<!-- Node3 -->
<g id="Node000003" class="node">
<title>Node3</title>
<g id="a_Node000003"><a xlink:href="structproxsuite_1_1linalg_1_1veg_1_1__detail_1_1__vector_1_1adl_1_1AdlBase.html" target="_top" xlink:title=" ">
<polygon fill="white" stroke="#666666" points="149.5,-255.5 34.5,-255.5 34.5,-209.25 149.5,-209.25 149.5,-255.5"/>
<text text-anchor="start" x="42.5" y="-242" font-family="Helvetica,sans-Serif" font-size="10.00">proxsuite::linalg::</text>
<text text-anchor="start" x="42.5" y="-229.25" font-family="Helvetica,sans-Serif" font-size="10.00">veg::_detail::_vector</text>
<text text-anchor="middle" x="92" y="-216.5" font-family="Helvetica,sans-Serif" font-size="10.00">::adl::AdlBase</text>
</a>
</g>
</g>
<!-- Node3&#45;&gt;Node2 -->
<g id="edge2_Node000002_Node000003" class="edge">
<title>Node3&#45;&gt;Node2</title>
<g id="a_edge2_Node000002_Node000003"><a xlink:title=" ">
<path fill="none" stroke="#8b1a1a" d="M160.53,-208.65C168.44,-205.86 176.4,-203.06 184,-200.38 204.16,-193.26 226.38,-185.38 245.55,-178.58"/>
<polygon fill="#8b1a1a" stroke="#8b1a1a" points="159.5,-205.3 151.23,-211.92 161.83,-211.9 159.5,-205.3"/>
</a>
</g>
</g>
<!-- Node4 -->
<g id="Node000004" class="node">
<title>Node4</title>
<g id="a_Node000004"><a xlink:title=" ">
<polygon fill="white" stroke="#666666" points="184,-190.88 0,-190.88 0,-131.88 184,-131.88 184,-190.88"/>
<text text-anchor="start" x="8" y="-177.38" font-family="Helvetica,sans-Serif" font-size="10.00">meta::if_t&lt; mem::CopyAvailable</text>
<text text-anchor="start" x="8" y="-164.62" font-family="Helvetica,sans-Serif" font-size="10.00">For&lt;unsigned char &gt;::value</text>
<text text-anchor="start" x="8" y="-151.88" font-family="Helvetica,sans-Serif" font-size="10.00"> ==mem::CopyAvailable::no,</text>
<text text-anchor="middle" x="92" y="-139.12" font-family="Helvetica,sans-Serif" font-size="10.00"> _detail::NoCopy, _detail::Empty &gt;</text>
</a>
</g>
</g>
<!-- Node4&#45;&gt;Node2 -->
<g id="edge3_Node000002_Node000004" class="edge">
<title>Node4&#45;&gt;Node2</title>
<g id="a_edge3_Node000002_Node000004"><a xlink:title=" ">
<path fill="none" stroke="#8b1a1a" d="M195.79,-161.38C204.16,-161.38 212.51,-161.38 220.61,-161.38"/>
<polygon fill="#8b1a1a" stroke="#8b1a1a" points="195.9,-157.88 185.9,-161.38 195.9,-164.88 195.9,-157.88"/>
</a>
</g>
</g>
<!-- Node5 -->
<g id="Node000005" class="node">
<title>Node5</title>
<g id="a_Node000005"><a xlink:href="structproxsuite_1_1linalg_1_1veg_1_1__detail_1_1__collections_1_1VecImpl.html" target="_top" xlink:title=" ">
<polygon fill="white" stroke="#666666" points="172,-113.5 12,-113.5 12,-67.25 172,-67.25 172,-113.5"/>
<text text-anchor="start" x="20" y="-100" font-family="Helvetica,sans-Serif" font-size="10.00">proxsuite::linalg::</text>
<text text-anchor="start" x="20" y="-87.25" font-family="Helvetica,sans-Serif" font-size="10.00">veg::_detail::_collections</text>
<text text-anchor="middle" x="92" y="-74.5" font-family="Helvetica,sans-Serif" font-size="10.00">::VecImpl&lt; T, A, Dtor, Copy &gt;</text>
</a>
</g>
</g>
<!-- Node5&#45;&gt;Node2 -->
<g id="edge4_Node000002_Node000005" class="edge">
<title>Node5&#45;&gt;Node2</title>
<g id="a_edge4_Node000002_Node000005"><a xlink:title=" ">
<path fill="none" stroke="#63b8ff" d="M170.32,-117.69C195.54,-126.6 222.83,-136.24 245.34,-144.19"/>
<polygon fill="#63b8ff" stroke="#63b8ff" points="171.67,-114.45 161.08,-114.42 169.34,-121.05 171.67,-114.45"/>
</a>
</g>
</g>
<!-- Node6 -->
<g id="Node000006" class="node">
<title>Node6</title>
<g id="a_Node000006"><a xlink:title=" ">
<polygon fill="white" stroke="#666666" points="309.4,-59.75 280.6,-59.75 280.6,-39 309.4,-39 309.4,-59.75"/>
<text text-anchor="middle" x="295" y="-46.25" font-family="Helvetica,sans-Serif" font-size="10.00">T</text>
</a>
</g>
</g>
<!-- Node6&#45;&gt;Node1 -->
<g id="edge5_Node000001_Node000006" class="edge">
<title>Node6&#45;&gt;Node1</title>
<g id="a_edge5_Node000001_Node000006"><a xlink:title=" ">
<path fill="none" stroke="#9a32cd" stroke-dasharray="5,2" d="M320.85,-49.38C358.93,-49.38 433.01,-49.38 487.29,-49.38"/>
<polygon fill="#9a32cd" stroke="#9a32cd" points="321.33,-45.88 311.33,-49.38 321.33,-52.88 321.33,-45.88"/>
</a>
</g>
<text text-anchor="middle" x="428.25" y="-129.12" font-family="Helvetica,sans-Serif" font-size="10.00" fill="grey"> alpha</text>
<text text-anchor="start" x="387" y="-116.38" font-family="Helvetica,sans-Serif" font-size="10.00" fill="grey">correction_guess</text>
<text text-anchor="middle" x="428.25" y="-103.62" font-family="Helvetica,sans-Serif" font-size="10.00" fill="grey">_rhs_b</text>
<text text-anchor="start" x="387" y="-90.88" font-family="Helvetica,sans-Serif" font-size="10.00" fill="grey">correction_guess</text>
<text text-anchor="middle" x="428.25" y="-78.12" font-family="Helvetica,sans-Serif" font-size="10.00" fill="grey">_rhs_g</text>
<text text-anchor="start" x="387" y="-65.38" font-family="Helvetica,sans-Serif" font-size="10.00" fill="grey">dual_feasibility</text>
<text text-anchor="middle" x="428.25" y="-52.62" font-family="Helvetica,sans-Serif" font-size="10.00" fill="grey">_rhs_2</text>
</g>
<!-- Node7 -->
<g id="Node000007" class="node">
<title>Node7</title>
<g id="a_Node000007"><a xlink:title=" ">
<polygon fill="white" stroke="#666666" points="314.25,-20.75 275.75,-20.75 275.75,0 314.25,0 314.25,-20.75"/>
<text text-anchor="middle" x="295" y="-7.25" font-family="Helvetica,sans-Serif" font-size="10.00">isize</text>
</a>
</g>
</g>
<!-- Node7&#45;&gt;Node1 -->
<g id="edge6_Node000001_Node000007" class="edge">
<title>Node7&#45;&gt;Node1</title>
<g id="a_edge6_Node000001_Node000007"><a xlink:title=" ">
<path fill="none" stroke="#9a32cd" stroke-dasharray="5,2" d="M325.73,-13.54C360.36,-17.38 419.24,-24.37 469.5,-32.62 475.34,-33.58 481.39,-34.65 487.44,-35.77"/>
<polygon fill="#9a32cd" stroke="#9a32cd" points="326.38,-10.09 316.05,-12.48 325.61,-17.05 326.38,-10.09"/>
</a>
</g>
<text text-anchor="middle" x="428.25" y="-36.62" font-family="Helvetica,sans-Serif" font-size="10.00" fill="grey"> n_c</text>
</g>
</g>
</svg>
