<?xml version="1.0" encoding="UTF-8" standalone="no"?>
<!DOCTYPE svg PUBLIC "-//W3C//DTD SVG 1.1//EN"
 "http://www.w3.org/Graphics/SVG/1.1/DTD/svg11.dtd">
<!-- Generated by graphviz version 5.0.0 (20220707.2338)
 -->
<!-- Title: proxsuite::linalg::veg::cpo::is_trivially_relocatable&lt; Vec&lt; T, A &gt; &gt; Pages: 1 -->
<svg width="553pt" height="94pt"
 viewBox="0.00 0.00 553.00 94.00" xmlns="http://www.w3.org/2000/svg" xmlns:xlink="http://www.w3.org/1999/xlink">
<g id="graph0" class="graph" transform="scale(1 1) rotate(0) translate(4 90)">
<title>proxsuite::linalg::veg::cpo::is_trivially_relocatable&lt; Vec&lt; T, A &gt; &gt;</title>
<!-- Node1 -->
<g id="node1" class="node">
<title>Node1</title>
<g id="a_node1"><a xlink:title=" ">
<polygon fill="#bfbfbf" stroke="black" points="387,-22.5 387,-63.5 545,-63.5 545,-22.5 387,-22.5"/>
<text text-anchor="start" x="395" y="-51.5" font-family="Helvetica,sans-Serif" font-size="10.00">proxsuite::linalg::</text>
<text text-anchor="start" x="395" y="-40.5" font-family="Helvetica,sans-Serif" font-size="10.00">veg::cpo::is_trivially</text>
<text text-anchor="middle" x="466" y="-29.5" font-family="Helvetica,sans-Serif" font-size="10.00">_relocatable&lt; Vec&lt; T, A &gt; &gt;</text>
</a>
</g>
</g>
<!-- Node2 -->
<g id="node2" class="node">
<title>Node2</title>
<g id="a_node2"><a xlink:href="structproxsuite_1_1linalg_1_1veg_1_1cpo_1_1is__trivially__relocatable.html" target="_top" xlink:title=" ">
<polygon fill="none" stroke="black" points="236,-22.5 236,-63.5 351,-63.5 351,-22.5 236,-22.5"/>
<text text-anchor="start" x="244" y="-51.5" font-family="Helvetica,sans-Serif" font-size="10.00">proxsuite::linalg::</text>
<text text-anchor="start" x="244" y="-40.5" font-family="Helvetica,sans-Serif" font-size="10.00">veg::cpo::is_trivially</text>
<text text-anchor="middle" x="293.5" y="-29.5" font-family="Helvetica,sans-Serif" font-size="10.00">_relocatable&lt; A &gt;</text>
</a>
</g>
</g>
<!-- Node2&#45;&gt;Node1 -->
<g id="edge1" class="edge">
<title>Node2&#45;&gt;Node1</title>
<path fill="none" stroke="midnightblue" d="M361.36,-43C369.74,-43 378.38,-43 386.92,-43"/>
<polygon fill="midnightblue" stroke="midnightblue" points="361.27,-39.5 351.27,-43 361.27,-46.5 361.27,-39.5"/>
</g>
<!-- Node3 -->
<g id="node3" class="node">
<title>Node3</title>
<g id="a_node3"><a xlink:title=" ">
<polygon fill="none" stroke="black" points="0,-0.5 0,-85.5 200,-85.5 200,-0.5 0,-0.5"/>
<text text-anchor="start" x="8" y="-73.5" font-family="Helvetica,sans-Serif" font-size="10.00">meta::if_t&lt; VEG_CONCEPT</text>
<text text-anchor="start" x="8" y="-62.5" font-family="Helvetica,sans-Serif" font-size="10.00">(trivially_copyable&lt; A</text>
<text text-anchor="start" x="8" y="-51.5" font-family="Helvetica,sans-Serif" font-size="10.00"> &gt;) &amp;&amp;VEG_CONCEPT(trivially</text>
<text text-anchor="start" x="8" y="-40.5" font-family="Helvetica,sans-Serif" font-size="10.00">_move_constructible&lt; A &gt;),</text>
<text text-anchor="start" x="8" y="-29.5" font-family="Helvetica,sans-Serif" font-size="10.00"> meta::true_type, _detail::</text>
<text text-anchor="start" x="8" y="-18.5" font-family="Helvetica,sans-Serif" font-size="10.00">_cpo::extract_members_deduce</text>
<text text-anchor="middle" x="100" y="-7.5" font-family="Helvetica,sans-Serif" font-size="10.00">_trait&lt; is_trivially_relocatable, A &gt; &gt;</text>
</a>
</g>
</g>
<!-- Node3&#45;&gt;Node2 -->
<g id="edge2" class="edge">
<title>Node3&#45;&gt;Node2</title>
<path fill="none" stroke="midnightblue" d="M210.4,-43C219.11,-43 227.67,-43 235.78,-43"/>
<polygon fill="midnightblue" stroke="midnightblue" points="210.12,-39.5 200.12,-43 210.12,-46.5 210.12,-39.5"/>
</g>
</g>
</svg>
