<?xml version="1.0" encoding="UTF-8" standalone="no"?>
<!DOCTYPE svg PUBLIC "-//W3C//DTD SVG 1.1//EN"
 "http://www.w3.org/Graphics/SVG/1.1/DTD/svg11.dtd">
<!-- Generated by graphviz version 9.0.0 (20231125.0833)
 -->
<!-- Title: proxsuite::proxqp::dense::QpView&lt; T &gt; Pages: 1 -->
<svg width="145pt" height="244pt"
 viewBox="0.00 0.00 144.75 244.25" xmlns="http://www.w3.org/2000/svg" xmlns:xlink="http://www.w3.org/1999/xlink">
<g id="graph0" class="graph" transform="scale(1 1) rotate(0) translate(4 240.25)">
<title>proxsuite::proxqp::dense::QpView&lt; T &gt;</title>
<!-- Node1 -->
<g id="Node000001" class="node">
<title>Node1</title>
<g id="a_Node000001"><a xlink:title=" ">
<polygon fill="#999999" stroke="#666666" points="127,-33.5 9.75,-33.5 9.75,0 127,0 127,-33.5"/>
<text text-anchor="start" x="17.75" y="-20" font-family="Helvetica,sans-Serif" font-size="10.00">proxsuite::proxqp::</text>
<text text-anchor="middle" x="68.38" y="-7.25" font-family="Helvetica,sans-Serif" font-size="10.00">dense::QpView&lt; T &gt;</text>
</a>
</g>
</g>
<!-- Node2 -->
<g id="Node000002" class="node">
<title>Node2</title>
<g id="a_Node000002"><a xlink:href="structproxsuite_1_1proxqp_1_1MatrixView.html" target="_top" xlink:title=" ">
<polygon fill="white" stroke="#666666" points="136.75,-141.25 0,-141.25 0,-107.75 136.75,-107.75 136.75,-141.25"/>
<text text-anchor="start" x="8" y="-127.75" font-family="Helvetica,sans-Serif" font-size="10.00">proxsuite::proxqp::</text>
<text text-anchor="middle" x="68.38" y="-115" font-family="Helvetica,sans-Serif" font-size="10.00">MatrixView&lt; T, layout &gt;</text>
</a>
</g>
</g>
<!-- Node2&#45;&gt;Node1 -->
<g id="edge1_Node000001_Node000002" class="edge">
<title>Node2&#45;&gt;Node1</title>
<g id="a_edge1_Node000001_Node000002"><a xlink:title=" ">
<path fill="none" stroke="#9a32cd" stroke-dasharray="5,2" d="M68.38,-96.11C68.38,-76.4 68.38,-50.48 68.38,-33.96"/>
<polygon fill="#9a32cd" stroke="#9a32cd" points="64.88,-95.93 68.38,-105.93 71.88,-95.93 64.88,-95.93"/>
</a>
</g>
<text text-anchor="middle" x="73.25" y="-80.25" font-family="Helvetica,sans-Serif" font-size="10.00" fill="grey"> A</text>
<text text-anchor="middle" x="73.25" y="-67.5" font-family="Helvetica,sans-Serif" font-size="10.00" fill="grey">C</text>
<text text-anchor="middle" x="73.25" y="-54.75" font-family="Helvetica,sans-Serif" font-size="10.00" fill="grey">H</text>
</g>
<!-- Node3 -->
<g id="Node000003" class="node">
<title>Node3</title>
<g id="a_Node000003"><a xlink:title=" ">
<polygon fill="white" stroke="#666666" points="87.62,-236.25 49.12,-236.25 49.12,-215.5 87.62,-215.5 87.62,-236.25"/>
<text text-anchor="middle" x="68.38" y="-222.75" font-family="Helvetica,sans-Serif" font-size="10.00">isize</text>
</a>
</g>
</g>
<!-- Node3&#45;&gt;Node2 -->
<g id="edge2_Node000002_Node000003" class="edge">
<title>Node3&#45;&gt;Node2</title>
<g id="a_edge2_Node000002_Node000003"><a xlink:title=" ">
<path fill="none" stroke="#9a32cd" stroke-dasharray="5,2" d="M68.38,-204.03C68.38,-185.46 68.38,-158.68 68.38,-141.69"/>
<polygon fill="#9a32cd" stroke="#9a32cd" points="64.88,-203.83 68.38,-213.83 71.88,-203.83 64.88,-203.83"/>
</a>
</g>
<text text-anchor="middle" x="97.62" y="-188" font-family="Helvetica,sans-Serif" font-size="10.00" fill="grey"> cols</text>
<text text-anchor="middle" x="97.62" y="-175.25" font-family="Helvetica,sans-Serif" font-size="10.00" fill="grey">outer_stride</text>
<text text-anchor="middle" x="97.62" y="-162.5" font-family="Helvetica,sans-Serif" font-size="10.00" fill="grey">rows</text>
</g>
</g>
</svg>
