<?xml version="1.0" encoding="UTF-8" standalone="no"?>
<!DOCTYPE svg PUBLIC "-//W3C//DTD SVG 1.1//EN"
 "http://www.w3.org/Graphics/SVG/1.1/DTD/svg11.dtd">
<!-- Generated by graphviz version 12.2.1 (20250203.1708)
 -->
<!-- Title: tl::detail::conjunction&lt; B, Bs... &gt; Pages: 1 -->
<svg width="236pt" height="124pt"
 viewBox="0.00 0.00 235.50 123.75" xmlns="http://www.w3.org/2000/svg" xmlns:xlink="http://www.w3.org/1999/xlink">
<g id="graph0" class="graph" transform="scale(1 1) rotate(0) translate(4 119.75)">
<title>tl::detail::conjunction&lt; B, Bs... &gt;</title>
<!-- Node1 -->
<g id="Node000001" class="node">
<title>Node1</title>
<g id="a_Node000001"><a xlink:title=" ">
<polygon fill="#999999" stroke="#666666" points="162.12,-33.5 43.38,-33.5 43.38,0 162.12,0 162.12,-33.5"/>
<text text-anchor="start" x="51.38" y="-20" font-family="Helvetica,sans-Serif" font-size="10.00">tl::detail::conjunction</text>
<text text-anchor="middle" x="102.75" y="-7.25" font-family="Helvetica,sans-Serif" font-size="10.00">&lt; B, Bs... &gt;</text>
</a>
</g>
</g>
<!-- Node2 -->
<g id="Node000002" class="node">
<title>Node2</title>
<g id="a_Node000002"><a xlink:title=" ">
<polygon fill="white" stroke="#666666" points="83.5,-103 0,-103 0,-82.25 83.5,-82.25 83.5,-103"/>
<text text-anchor="middle" x="41.75" y="-89.5" font-family="Helvetica,sans-Serif" font-size="10.00">std::true_type</text>
</a>
</g>
</g>
<!-- Node2&#45;&gt;Node1 -->
<g id="edge1_Node000001_Node000002" class="edge">
<title>Node2&#45;&gt;Node1</title>
<g id="a_edge1_Node000001_Node000002"><a xlink:title=" ">
<path fill="none" stroke="#63b8ff" d="M56.97,-73.19C66.94,-61.12 79.84,-45.49 89.41,-33.91"/>
<polygon fill="#63b8ff" stroke="#63b8ff" points="54.36,-70.86 50.69,-80.8 59.75,-75.32 54.36,-70.86"/>
</a>
</g>
</g>
<!-- Node3 -->
<g id="Node000003" class="node">
<title>Node3</title>
<g id="a_Node000003"><a xlink:title=" ">
<polygon fill="white" stroke="#666666" points="227.5,-115.75 102,-115.75 102,-69.5 227.5,-69.5 227.5,-115.75"/>
<text text-anchor="start" x="110" y="-102.25" font-family="Helvetica,sans-Serif" font-size="10.00">std::conditional&lt; bool</text>
<text text-anchor="start" x="110" y="-89.5" font-family="Helvetica,sans-Serif" font-size="10.00">(B::value), conjunction</text>
<text text-anchor="middle" x="164.75" y="-76.75" font-family="Helvetica,sans-Serif" font-size="10.00">&lt; Bs... &gt;, B &gt;::type</text>
</a>
</g>
</g>
<!-- Node3&#45;&gt;Node1 -->
<g id="edge2_Node000001_Node000003" class="edge">
<title>Node3&#45;&gt;Node1</title>
<g id="a_edge2_Node000001_Node000003"><a xlink:title=" ">
<path fill="none" stroke="#63b8ff" d="M138.62,-60.49C130.93,-51.32 122.82,-41.67 116.27,-33.85"/>
<polygon fill="#63b8ff" stroke="#63b8ff" points="135.73,-62.49 144.84,-67.9 141.09,-57.99 135.73,-62.49"/>
</a>
</g>
</g>
</g>
</svg>
