<?xml version="1.0" encoding="UTF-8" standalone="no"?>
<!DOCTYPE svg PUBLIC "-//W3C//DTD SVG 1.1//EN"
 "http://www.w3.org/Graphics/SVG/1.1/DTD/svg11.dtd">
<!-- Generated by graphviz version 12.0.0 (20240803.0821)
 -->
<!-- Title: proxsuite::proxqp::dense::QpViewBoxMut&lt; Scalar &gt; Pages: 1 -->
<svg width="342pt" height="160pt"
 viewBox="0.00 0.00 341.50 160.00" xmlns="http://www.w3.org/2000/svg" xmlns:xlink="http://www.w3.org/1999/xlink">
<g id="graph0" class="graph" transform="scale(1 1) rotate(0) translate(4 156)">
<title>proxsuite::proxqp::dense::QpViewBoxMut&lt; Scalar &gt;</title>
<!-- Node1 -->
<g id="Node000001" class="node">
<title>Node1</title>
<g id="a_Node000001"><a xlink:title=" ">
<polygon fill="#999999" stroke="#666666" points="333.5,-95.88 207.25,-95.88 207.25,-49.62 333.5,-49.62 333.5,-95.88"/>
<text text-anchor="start" x="215.25" y="-82.38" font-family="Helvetica,sans-Serif" font-size="10.00">proxsuite::proxqp::</text>
<text text-anchor="start" x="215.25" y="-69.62" font-family="Helvetica,sans-Serif" font-size="10.00">dense::QpViewBoxMut</text>
<text text-anchor="middle" x="270.38" y="-56.88" font-family="Helvetica,sans-Serif" font-size="10.00">&lt; Scalar &gt;</text>
</a>
</g>
</g>
<!-- Node2 -->
<g id="Node000002" class="node">
<title>Node2</title>
<g id="a_Node000002"><a xlink:href="structproxsuite_1_1proxqp_1_1MatrixViewMut.html" target="_top" xlink:title=" ">
<polygon fill="white" stroke="#666666" points="138.25,-151.88 3.75,-151.88 3.75,-105.62 138.25,-105.62 138.25,-151.88"/>
<text text-anchor="start" x="11.75" y="-138.38" font-family="Helvetica,sans-Serif" font-size="10.00">proxsuite::proxqp::</text>
<text text-anchor="start" x="11.75" y="-125.62" font-family="Helvetica,sans-Serif" font-size="10.00">MatrixViewMut&lt; Scalar,</text>
<text text-anchor="middle" x="71" y="-112.88" font-family="Helvetica,sans-Serif" font-size="10.00"> layout &gt;</text>
</a>
</g>
</g>
<!-- Node2&#45;&gt;Node1 -->
<g id="edge1_Node000001_Node000002" class="edge">
<title>Node2&#45;&gt;Node1</title>
<g id="a_edge1_Node000001_Node000002"><a xlink:title=" ">
<path fill="none" stroke="#9a32cd" stroke-dasharray="5,2" d="M149.72,-116.61C163.03,-113.84 176.63,-110.56 189.25,-106.75 198.8,-103.87 208.75,-100.21 218.26,-96.37"/>
<polygon fill="#9a32cd" stroke="#9a32cd" points="149.25,-113.14 140.13,-118.53 150.62,-120 149.25,-113.14"/>
</a>
</g>
<text text-anchor="middle" x="174.62" y="-142.5" font-family="Helvetica,sans-Serif" font-size="10.00" fill="grey"> A</text>
<text text-anchor="middle" x="174.62" y="-129.75" font-family="Helvetica,sans-Serif" font-size="10.00" fill="grey">C</text>
<text text-anchor="middle" x="174.62" y="-117" font-family="Helvetica,sans-Serif" font-size="10.00" fill="grey">H</text>
</g>
<!-- Node3 -->
<g id="Node000003" class="node">
<title>Node3</title>
<g id="a_Node000003"><a xlink:href="structproxsuite_1_1proxqp_1_1VectorViewMut.html" target="_top" xlink:title=" ">
<polygon fill="white" stroke="#666666" points="142,-33.5 0,-33.5 0,0 142,0 142,-33.5"/>
<text text-anchor="start" x="8" y="-20" font-family="Helvetica,sans-Serif" font-size="10.00">proxsuite::proxqp::</text>
<text text-anchor="middle" x="71" y="-7.25" font-family="Helvetica,sans-Serif" font-size="10.00">VectorViewMut&lt; Scalar &gt;</text>
</a>
</g>
</g>
<!-- Node3&#45;&gt;Node1 -->
<g id="edge2_Node000001_Node000003" class="edge">
<title>Node3&#45;&gt;Node1</title>
<g id="a_edge2_Node000001_Node000003"><a xlink:title=" ">
<path fill="none" stroke="#9a32cd" stroke-dasharray="5,2" d="M153.43,-7.27C165.64,-7.91 177.92,-9.77 189.25,-13.5 210.78,-20.59 231.25,-35.94 246.12,-49.24"/>
<polygon fill="#9a32cd" stroke="#9a32cd" points="153.87,-3.78 143.79,-7.04 153.7,-10.78 153.87,-3.78"/>
</a>
</g>
<text text-anchor="middle" x="174.62" y="-93.5" font-family="Helvetica,sans-Serif" font-size="10.00" fill="grey"> I</text>
<text text-anchor="middle" x="174.62" y="-80.75" font-family="Helvetica,sans-Serif" font-size="10.00" fill="grey">b</text>
<text text-anchor="middle" x="174.62" y="-68" font-family="Helvetica,sans-Serif" font-size="10.00" fill="grey">g</text>
<text text-anchor="middle" x="174.62" y="-55.25" font-family="Helvetica,sans-Serif" font-size="10.00" fill="grey">l</text>
<text text-anchor="middle" x="174.62" y="-42.5" font-family="Helvetica,sans-Serif" font-size="10.00" fill="grey">l_box</text>
<text text-anchor="middle" x="174.62" y="-29.75" font-family="Helvetica,sans-Serif" font-size="10.00" fill="grey">u</text>
<text text-anchor="middle" x="174.62" y="-17" font-family="Helvetica,sans-Serif" font-size="10.00" fill="grey">u_box</text>
</g>
</g>
</svg>
