<?xml version="1.0" encoding="UTF-8" standalone="no"?>
<!DOCTYPE svg PUBLIC "-//W3C//DTD SVG 1.1//EN"
 "http://www.w3.org/Graphics/SVG/1.1/DTD/svg11.dtd">
<!-- Generated by graphviz version 8.1.0 (20230707.2238)
 -->
<!-- Title: proxsuite::linalg::veg::_detail::_vector::adl::AdlBase Pages: 1 -->
<svg width="380pt" height="441pt"
 viewBox="0.00 0.00 379.75 440.75" xmlns="http://www.w3.org/2000/svg" xmlns:xlink="http://www.w3.org/1999/xlink">
<g id="graph0" class="graph" transform="scale(1 1) rotate(0) translate(4 436.75)">
<title>proxsuite::linalg::veg::_detail::_vector::adl::AdlBase</title>
<!-- Node1 -->
<g id="Node000001" class="node">
<title>Node1</title>
<g id="a_Node000001"><a xlink:title=" ">
<polygon fill="#999999" stroke="#666666" points="115,-220.25 0,-220.25 0,-174 115,-174 115,-220.25"/>
<text text-anchor="start" x="8" y="-206.75" font-family="Helvetica,sans-Serif" font-size="10.00">proxsuite::linalg::</text>
<text text-anchor="start" x="8" y="-194" font-family="Helvetica,sans-Serif" font-size="10.00">veg::_detail::_vector</text>
<text text-anchor="middle" x="57.5" y="-181.25" font-family="Helvetica,sans-Serif" font-size="10.00">::adl::AdlBase</text>
</a>
</g>
</g>
<!-- Node2 -->
<g id="Node000002" class="node">
<title>Node2</title>
<g id="a_Node000002"><a xlink:href="structproxsuite_1_1linalg_1_1veg_1_1Vec.html" target="_top" xlink:title=" ">
<polygon fill="white" stroke="#666666" points="371.75,-432.75 151,-432.75 151,-335.5 371.75,-335.5 371.75,-432.75"/>
<text text-anchor="start" x="159" y="-419.25" font-family="Helvetica,sans-Serif" font-size="10.00">proxsuite::linalg::</text>
<text text-anchor="start" x="159" y="-406.5" font-family="Helvetica,sans-Serif" font-size="10.00">veg::Vec&lt; T, proxsuite</text>
<text text-anchor="start" x="159" y="-393.75" font-family="Helvetica,sans-Serif" font-size="10.00">::linalg::veg::meta::if</text>
<text text-anchor="start" x="159" y="-381" font-family="Helvetica,sans-Serif" font-size="10.00">_t&lt; _detail::should_vectorize</text>
<text text-anchor="start" x="159" y="-368.25" font-family="Helvetica,sans-Serif" font-size="10.00">&lt; T &gt;::value, _detail::SimdAlignedSystem</text>
<text text-anchor="start" x="159" y="-355.5" font-family="Helvetica,sans-Serif" font-size="10.00">Alloc, proxsuite::linalg::veg::mem</text>
<text text-anchor="middle" x="261.38" y="-342.75" font-family="Helvetica,sans-Serif" font-size="10.00">::SystemAlloc &gt; &gt;</text>
</a>
</g>
</g>
<!-- Node1&#45;&gt;Node2 -->
<g id="edge1_Node000001_Node000002" class="edge">
<title>Node1&#45;&gt;Node2</title>
<g id="a_edge1_Node000001_Node000002"><a xlink:title=" ">
<path fill="none" stroke="#8b1a1a" d="M75.86,-229.83C92.25,-258.31 119.04,-299.3 151,-327.12 154.15,-329.87 157.45,-332.52 160.87,-335.09"/>
<polygon fill="#8b1a1a" stroke="#8b1a1a" points="78.46,-228.31 70.51,-221.32 72.36,-231.75 78.46,-228.31"/>
</a>
</g>
</g>
<!-- Node3 -->
<g id="Node000003" class="node">
<title>Node3</title>
<g id="a_Node000003"><a xlink:href="structproxsuite_1_1linalg_1_1veg_1_1Vec.html" target="_top" xlink:title=" ">
<polygon fill="white" stroke="#666666" points="312.5,-317.88 210.25,-317.88 210.25,-284.38 312.5,-284.38 312.5,-317.88"/>
<text text-anchor="start" x="218.25" y="-304.38" font-family="Helvetica,sans-Serif" font-size="10.00">proxsuite::linalg::</text>
<text text-anchor="middle" x="261.38" y="-291.62" font-family="Helvetica,sans-Serif" font-size="10.00">veg::Vec&lt; isize &gt;</text>
</a>
</g>
</g>
<!-- Node1&#45;&gt;Node3 -->
<g id="edge2_Node000001_Node000003" class="edge">
<title>Node1&#45;&gt;Node3</title>
<g id="a_edge2_Node000001_Node000003"><a xlink:title=" ">
<path fill="none" stroke="#8b1a1a" d="M87.65,-227.92C104.68,-244.21 127.41,-263.23 151,-275.12 169.21,-284.31 190.78,-290.33 209.93,-294.23"/>
<polygon fill="#8b1a1a" stroke="#8b1a1a" points="90.84,-226.17 81.25,-221.67 85.94,-231.17 90.84,-226.17"/>
</a>
</g>
</g>
<!-- Node4 -->
<g id="Node000004" class="node">
<title>Node4</title>
<g id="a_Node000004"><a xlink:href="structproxsuite_1_1linalg_1_1veg_1_1Vec.html" target="_top" xlink:title=" ">
<polygon fill="white" stroke="#666666" points="311.75,-265.88 211,-265.88 211,-232.38 311.75,-232.38 311.75,-265.88"/>
<text text-anchor="start" x="219" y="-252.38" font-family="Helvetica,sans-Serif" font-size="10.00">proxsuite::linalg::</text>
<text text-anchor="middle" x="261.38" y="-239.62" font-family="Helvetica,sans-Serif" font-size="10.00">veg::Vec&lt; bool &gt;</text>
</a>
</g>
</g>
<!-- Node1&#45;&gt;Node4 -->
<g id="edge3_Node000001_Node000004" class="edge">
<title>Node1&#45;&gt;Node4</title>
<g id="a_edge3_Node000001_Node000004"><a xlink:title=" ">
<path fill="none" stroke="#8b1a1a" d="M125.51,-216.31C134.08,-218.66 142.73,-220.98 151,-223.12 170.46,-228.17 191.97,-233.36 210.72,-237.77"/>
<polygon fill="#8b1a1a" stroke="#8b1a1a" points="126.72,-212.73 116.15,-213.44 124.85,-219.48 126.72,-212.73"/>
</a>
</g>
</g>
<!-- Node5 -->
<g id="Node000005" class="node">
<title>Node5</title>
<g id="a_Node000005"><a xlink:href="structproxsuite_1_1linalg_1_1veg_1_1Vec.html" target="_top" xlink:title=" ">
<polygon fill="white" stroke="#666666" points="335.38,-213.88 187.38,-213.88 187.38,-180.38 335.38,-180.38 335.38,-213.88"/>
<text text-anchor="start" x="195.38" y="-200.38" font-family="Helvetica,sans-Serif" font-size="10.00">proxsuite::linalg::</text>
<text text-anchor="middle" x="261.38" y="-187.62" font-family="Helvetica,sans-Serif" font-size="10.00">veg::Vec&lt; unsigned char &gt;</text>
</a>
</g>
</g>
<!-- Node1&#45;&gt;Node5 -->
<g id="edge4_Node000001_Node000005" class="edge">
<title>Node1&#45;&gt;Node5</title>
<g id="a_edge4_Node000001_Node000005"><a xlink:title=" ">
<path fill="none" stroke="#8b1a1a" d="M126.22,-197.12C145.77,-197.12 167.18,-197.12 187.05,-197.12"/>
<polygon fill="#8b1a1a" stroke="#8b1a1a" points="126.27,-193.63 116.27,-197.12 126.27,-200.63 126.27,-193.63"/>
</a>
</g>
</g>
<!-- Node6 -->
<g id="Node000006" class="node">
<title>Node6</title>
<g id="a_Node000006"><a xlink:href="structproxsuite_1_1linalg_1_1veg_1_1Vec.html" target="_top" xlink:title=" ">
<polygon fill="white" stroke="#666666" points="311.75,-161.88 211,-161.88 211,-128.38 311.75,-128.38 311.75,-161.88"/>
<text text-anchor="start" x="219" y="-148.38" font-family="Helvetica,sans-Serif" font-size="10.00">proxsuite::linalg::</text>
<text text-anchor="middle" x="261.38" y="-135.62" font-family="Helvetica,sans-Serif" font-size="10.00">veg::Vec&lt; I &gt;</text>
</a>
</g>
</g>
<!-- Node1&#45;&gt;Node6 -->
<g id="edge5_Node000001_Node000006" class="edge">
<title>Node1&#45;&gt;Node6</title>
<g id="a_edge5_Node000001_Node000006"><a xlink:title=" ">
<path fill="none" stroke="#8b1a1a" d="M125.51,-177.94C134.08,-175.59 142.73,-173.27 151,-171.12 170.46,-166.08 191.97,-160.89 210.72,-156.48"/>
<polygon fill="#8b1a1a" stroke="#8b1a1a" points="124.85,-174.77 116.15,-180.81 126.72,-181.52 124.85,-174.77"/>
</a>
</g>
</g>
<!-- Node7 -->
<g id="Node000007" class="node">
<title>Node7</title>
<g id="a_Node000007"><a xlink:href="structproxsuite_1_1linalg_1_1veg_1_1Vec.html" target="_top" xlink:title=" ">
<polygon fill="white" stroke="#666666" points="333.12,-110.25 189.62,-110.25 189.62,-64 333.12,-64 333.12,-110.25"/>
<text text-anchor="start" x="197.62" y="-96.75" font-family="Helvetica,sans-Serif" font-size="10.00">proxsuite::linalg::</text>
<text text-anchor="start" x="197.62" y="-84" font-family="Helvetica,sans-Serif" font-size="10.00">veg::Vec&lt; proxsuite</text>
<text text-anchor="middle" x="261.38" y="-71.25" font-family="Helvetica,sans-Serif" font-size="10.00">::linalg::veg::mem::byte &gt;</text>
</a>
</g>
</g>
<!-- Node1&#45;&gt;Node7 -->
<g id="edge6_Node000001_Node000007" class="edge">
<title>Node1&#45;&gt;Node7</title>
<g id="a_edge6_Node000001_Node000007"><a xlink:title=" ">
<path fill="none" stroke="#8b1a1a" d="M88.71,-166.03C105.72,-150.05 128.1,-131.42 151,-119.12 162.85,-112.76 176.13,-107.52 189.23,-103.26"/>
<polygon fill="#8b1a1a" stroke="#8b1a1a" points="86.6,-163.16 81.82,-172.61 91.45,-168.21 86.6,-163.16"/>
</a>
</g>
</g>
<!-- Node8 -->
<g id="Node000008" class="node">
<title>Node8</title>
<g id="a_Node000008"><a xlink:href="structproxsuite_1_1linalg_1_1veg_1_1Vec.html" target="_top" xlink:title=" ">
<polygon fill="white" stroke="#666666" points="320,-46.25 202.75,-46.25 202.75,0 320,0 320,-46.25"/>
<text text-anchor="start" x="210.75" y="-32.75" font-family="Helvetica,sans-Serif" font-size="10.00">proxsuite::linalg::</text>
<text text-anchor="start" x="210.75" y="-20" font-family="Helvetica,sans-Serif" font-size="10.00">veg::Vec&lt; T, A, Dtor,</text>
<text text-anchor="middle" x="261.38" y="-7.25" font-family="Helvetica,sans-Serif" font-size="10.00"> Copy &gt;</text>
</a>
</g>
</g>
<!-- Node1&#45;&gt;Node8 -->
<g id="edge7_Node000001_Node000008" class="edge">
<title>Node1&#45;&gt;Node8</title>
<g id="a_edge7_Node000001_Node000008"><a xlink:title=" ">
<path fill="none" stroke="#8b1a1a" d="M72.03,-163.59C86.77,-131.21 113.39,-83.07 151,-55.12 165.93,-44.03 184.64,-36.77 202.34,-32.02"/>
<polygon fill="#8b1a1a" stroke="#8b1a1a" points="68.49,-161.95 67.66,-172.51 74.9,-164.77 68.49,-161.95"/>
</a>
</g>
</g>
</g>
</svg>
