<?xml version="1.0" encoding="UTF-8" standalone="no"?>
<!DOCTYPE svg PUBLIC "-//W3C//DTD SVG 1.1//EN"
 "http://www.w3.org/Graphics/SVG/1.1/DTD/svg11.dtd">
<!-- Generated by graphviz version 7.1.0 (20230122.1345)
 -->
<!-- Title: proxsuite::proxqp::sparse::QpViewMut&lt; T, I &gt; Pages: 1 -->
<svg width="758pt" height="98pt"
 viewBox="0.00 0.00 758.00 97.50" xmlns="http://www.w3.org/2000/svg" xmlns:xlink="http://www.w3.org/1999/xlink">
<g id="graph0" class="graph" transform="scale(1 1) rotate(0) translate(4 93.5)">
<title>proxsuite::proxqp::sparse::QpViewMut&lt; T, I &gt;</title>
<!-- Node1 -->
<g id="node1" class="node">
<title>Node1</title>
<g id="a_node1"><a xlink:title=" ">
<polygon fill="#999999" stroke="#666666" points="750,-48.5 601,-48.5 601,-18.5 750,-18.5 750,-48.5"/>
<text text-anchor="start" x="609" y="-36.5" font-family="Helvetica,sans-Serif" font-size="10.00">proxsuite::proxqp::</text>
<text text-anchor="middle" x="675.5" y="-25.5" font-family="Helvetica,sans-Serif" font-size="10.00">sparse::QpViewMut&lt; T, I &gt;</text>
</a>
</g>
</g>
<!-- Node2 -->
<g id="node2" class="node">
<title>Node2</title>
<g id="a_node2"><a xlink:href="structproxsuite_1_1linalg_1_1sparse_1_1MatMut.html" target="_top" xlink:title=" ">
<polygon fill="white" stroke="#666666" points="549,-48.5 419,-48.5 419,-18.5 549,-18.5 549,-48.5"/>
<text text-anchor="start" x="427" y="-36.5" font-family="Helvetica,sans-Serif" font-size="10.00">proxsuite::linalg::</text>
<text text-anchor="middle" x="484" y="-25.5" font-family="Helvetica,sans-Serif" font-size="10.00">sparse::MatMut&lt; T, I &gt;</text>
</a>
</g>
</g>
<!-- Node2&#45;&gt;Node1 -->
<g id="edge1" class="edge">
<title>Node2&#45;&gt;Node1</title>
<path fill="none" stroke="#9a32cd" stroke-dasharray="5,2" d="M560.84,-33.5C574.01,-33.5 587.68,-33.5 600.8,-33.5"/>
<polygon fill="#9a32cd" stroke="#9a32cd" points="560.93,-30 550.93,-33.5 560.93,-37 560.93,-30"/>
<text text-anchor="middle" x="575" y="-58.5" font-family="Helvetica,sans-Serif" font-size="10.00"> AT</text>
<text text-anchor="middle" x="575" y="-47.5" font-family="Helvetica,sans-Serif" font-size="10.00">CT</text>
<text text-anchor="middle" x="575" y="-36.5" font-family="Helvetica,sans-Serif" font-size="10.00">H</text>
</g>
<!-- Node3 -->
<g id="node3" class="node">
<title>Node3</title>
<g id="a_node3"><a xlink:href="structproxsuite_1_1linalg_1_1sparse_1_1__detail_1_1SymbolicMatMutInterface.html" target="_top" xlink:title=" ">
<polygon fill="white" stroke="#666666" points="353,-89.5 195,-89.5 195,-37.5 353,-37.5 353,-89.5"/>
<text text-anchor="start" x="203" y="-77.5" font-family="Helvetica,sans-Serif" font-size="10.00">proxsuite::linalg::</text>
<text text-anchor="start" x="203" y="-66.5" font-family="Helvetica,sans-Serif" font-size="10.00">sparse::_detail::SymbolicMat</text>
<text text-anchor="start" x="203" y="-55.5" font-family="Helvetica,sans-Serif" font-size="10.00">MutInterface&lt; MatMut&lt; T,</text>
<text text-anchor="middle" x="274" y="-44.5" font-family="Helvetica,sans-Serif" font-size="10.00"> I &gt;, I &gt;</text>
</a>
</g>
</g>
<!-- Node3&#45;&gt;Node2 -->
<g id="edge2" class="edge">
<title>Node3&#45;&gt;Node2</title>
<path fill="none" stroke="#63b8ff" d="M364.53,-51.68C376.79,-49.99 389.21,-48.23 401,-46.5 406.7,-45.66 412.63,-44.77 418.56,-43.86"/>
<polygon fill="#63b8ff" stroke="#63b8ff" points="364.27,-48.18 354.84,-53.01 365.23,-55.12 364.27,-48.18"/>
</g>
<!-- Node4 -->
<g id="node4" class="node">
<title>Node4</title>
<g id="a_node4"><a xlink:href="structproxsuite_1_1linalg_1_1sparse_1_1__detail_1_1SymbolicMatRefInterface.html" target="_top" xlink:title=" ">
<polygon fill="white" stroke="#666666" points="158,-84 0,-84 0,-43 158,-43 158,-84"/>
<text text-anchor="start" x="8" y="-72" font-family="Helvetica,sans-Serif" font-size="10.00">proxsuite::linalg::</text>
<text text-anchor="start" x="8" y="-61" font-family="Helvetica,sans-Serif" font-size="10.00">sparse::_detail::SymbolicMat</text>
<text text-anchor="middle" x="79" y="-50" font-family="Helvetica,sans-Serif" font-size="10.00">RefInterface&lt; D, I &gt;</text>
</a>
</g>
</g>
<!-- Node4&#45;&gt;Node3 -->
<g id="edge3" class="edge">
<title>Node4&#45;&gt;Node3</title>
<path fill="none" stroke="#63b8ff" d="M169.58,-63.5C177.96,-63.5 186.4,-63.5 194.67,-63.5"/>
<polygon fill="#63b8ff" stroke="#63b8ff" points="169.74,-60 159.74,-63.5 169.74,-67 169.74,-60"/>
</g>
<!-- Node5 -->
<g id="node5" class="node">
<title>Node5</title>
<g id="a_node5"><a xlink:title=" ">
<polygon fill="white" stroke="#666666" points="293.5,-19 254.5,-19 254.5,0 293.5,0 293.5,-19"/>
<text text-anchor="middle" x="274" y="-7" font-family="Helvetica,sans-Serif" font-size="10.00">isize</text>
</a>
</g>
</g>
<!-- Node5&#45;&gt;Node2 -->
<g id="edge4" class="edge">
<title>Node5&#45;&gt;Node2</title>
<path fill="none" stroke="#9a32cd" stroke-dasharray="5,2" d="M305.08,-8.71C330.7,-8.45 368.43,-9.06 401,-13.5 409.28,-14.63 417.93,-16.25 426.39,-18.08"/>
<polygon fill="#9a32cd" stroke="#9a32cd" points="305.34,-5.21 295.4,-8.86 305.45,-12.2 305.34,-5.21"/>
<text text-anchor="middle" x="386" y="-38.5" font-family="Helvetica,sans-Serif" font-size="10.00"> ncols</text>
<text text-anchor="middle" x="386" y="-27.5" font-family="Helvetica,sans-Serif" font-size="10.00">nnz</text>
<text text-anchor="middle" x="386" y="-16.5" font-family="Helvetica,sans-Serif" font-size="10.00">nrows</text>
</g>
</g>
</svg>
