<?xml version="1.0" encoding="UTF-8" standalone="no"?>
<!DOCTYPE svg PUBLIC "-//W3C//DTD SVG 1.1//EN"
 "http://www.w3.org/Graphics/SVG/1.1/DTD/svg11.dtd">
<!-- Generated by graphviz version 7.1.0 (20230122.1345)
 -->
<!-- Title: proxsuite::linalg::veg::tuple::TupleLeafImpl&lt; T, bool &gt; Pages: 1 -->
<svg width="476pt" height="114pt"
 viewBox="0.00 0.00 476.00 113.50" xmlns="http://www.w3.org/2000/svg" xmlns:xlink="http://www.w3.org/1999/xlink">
<g id="graph0" class="graph" transform="scale(1 1) rotate(0) translate(4 109.5)">
<title>proxsuite::linalg::veg::tuple::TupleLeafImpl&lt; T, bool &gt;</title>
<!-- Node1 -->
<g id="node1" class="node">
<title>Node1</title>
<g id="a_node1"><a xlink:title=" ">
<polygon fill="#999999" stroke="#666666" points="140,-70 0,-70 0,-29 140,-29 140,-70"/>
<text text-anchor="start" x="8" y="-58" font-family="Helvetica,sans-Serif" font-size="10.00">proxsuite::linalg::</text>
<text text-anchor="start" x="8" y="-47" font-family="Helvetica,sans-Serif" font-size="10.00">veg::tuple::TupleLeafImpl</text>
<text text-anchor="middle" x="70" y="-36" font-family="Helvetica,sans-Serif" font-size="10.00">&lt; T, bool &gt;</text>
</a>
</g>
</g>
<!-- Node2 -->
<g id="node2" class="node">
<title>Node2</title>
<g id="a_node2"><a xlink:href="structproxsuite_1_1linalg_1_1veg_1_1tuple_1_1TupleLeaf.html" target="_top" xlink:title=" ">
<polygon fill="white" stroke="#666666" points="294,-100 176,-100 176,-59 294,-59 294,-100"/>
<text text-anchor="start" x="184" y="-88" font-family="Helvetica,sans-Serif" font-size="10.00">proxsuite::linalg::</text>
<text text-anchor="start" x="184" y="-77" font-family="Helvetica,sans-Serif" font-size="10.00">veg::tuple::TupleLeaf</text>
<text text-anchor="middle" x="235" y="-66" font-family="Helvetica,sans-Serif" font-size="10.00">&lt; Is, Ts &gt;</text>
</a>
</g>
</g>
<!-- Node1&#45;&gt;Node2 -->
<g id="edge1" class="edge">
<title>Node1&#45;&gt;Node2</title>
<path fill="none" stroke="#63b8ff" d="M151.26,-64.27C159.46,-65.78 167.67,-67.29 175.57,-68.75"/>
<polygon fill="#63b8ff" stroke="#63b8ff" points="152.08,-60.86 141.62,-62.5 150.82,-67.75 152.08,-60.86"/>
</g>
<!-- Node4 -->
<g id="node4" class="node">
<title>Node4</title>
<g id="a_node4"><a xlink:href="structproxsuite_1_1linalg_1_1veg_1_1tuple_1_1TupleLeaf.html" target="_top" xlink:title=" ">
<polygon fill="white" stroke="#666666" points="294,-41 176,-41 176,0 294,0 294,-41"/>
<text text-anchor="start" x="184" y="-29" font-family="Helvetica,sans-Serif" font-size="10.00">proxsuite::linalg::</text>
<text text-anchor="start" x="184" y="-18" font-family="Helvetica,sans-Serif" font-size="10.00">veg::tuple::TupleLeaf</text>
<text text-anchor="middle" x="235" y="-7" font-family="Helvetica,sans-Serif" font-size="10.00">&lt; I, T &gt;</text>
</a>
</g>
</g>
<!-- Node1&#45;&gt;Node4 -->
<g id="edge3" class="edge">
<title>Node1&#45;&gt;Node4</title>
<path fill="none" stroke="#63b8ff" d="M151.26,-35.22C159.46,-33.76 167.67,-32.3 175.57,-30.9"/>
<polygon fill="#63b8ff" stroke="#63b8ff" points="150.85,-31.74 141.62,-36.94 152.08,-38.63 150.85,-31.74"/>
</g>
<!-- Node3 -->
<g id="node3" class="node">
<title>Node3</title>
<g id="a_node3"><a xlink:href="structproxsuite_1_1linalg_1_1veg_1_1tuple_1_1IndexedTuple_3_01meta_1_1index__sequence_3_01Is_8_8cbd6a50d8df9d5526ea9acd312613c29.html" target="_top" xlink:title=" ">
<polygon fill="white" stroke="#666666" points="468,-105.5 330,-105.5 330,-53.5 468,-53.5 468,-105.5"/>
<text text-anchor="start" x="338" y="-93.5" font-family="Helvetica,sans-Serif" font-size="10.00">proxsuite::linalg::</text>
<text text-anchor="start" x="338" y="-82.5" font-family="Helvetica,sans-Serif" font-size="10.00">veg::tuple::IndexedTuple</text>
<text text-anchor="start" x="338" y="-71.5" font-family="Helvetica,sans-Serif" font-size="10.00">&lt; meta::index_sequence</text>
<text text-anchor="middle" x="399" y="-60.5" font-family="Helvetica,sans-Serif" font-size="10.00">&lt; Is... &gt;, Ts... &gt;::_</text>
</a>
</g>
</g>
<!-- Node2&#45;&gt;Node3 -->
<g id="edge2" class="edge">
<title>Node2&#45;&gt;Node3</title>
<path fill="none" stroke="#63b8ff" d="M305.9,-79.5C313.79,-79.5 321.81,-79.5 329.68,-79.5"/>
<polygon fill="#63b8ff" stroke="#63b8ff" points="306,-76 296,-79.5 306,-83 306,-76"/>
</g>
</g>
</svg>
