<?xml version="1.0" encoding="UTF-8" standalone="no"?>
<!DOCTYPE svg PUBLIC "-//W3C//DTD SVG 1.1//EN"
 "http://www.w3.org/Graphics/SVG/1.1/DTD/svg11.dtd">
<!-- Generated by graphviz version 8.1.0 (20230707.2238)
 -->
<!-- Title: proxsuite::proxqp::dense::Workspace&lt; T &gt; Pages: 1 -->
<svg width="593pt" height="196pt"
 viewBox="0.00 0.00 592.50 196.25" xmlns="http://www.w3.org/2000/svg" xmlns:xlink="http://www.w3.org/1999/xlink">
<g id="graph0" class="graph" transform="scale(1 1) rotate(0) translate(4 192.25)">
<title>proxsuite::proxqp::dense::Workspace&lt; T &gt;</title>
<!-- Node1 -->
<g id="Node000001" class="node">
<title>Node1</title>
<g id="a_Node000001"><a xlink:title="This class defines the workspace of the dense solver.">
<polygon fill="#999999" stroke="#666666" points="584.5,-83.88 451.5,-83.88 451.5,-50.38 584.5,-50.38 584.5,-83.88"/>
<text text-anchor="start" x="459.5" y="-70.38" font-family="Helvetica,sans-Serif" font-size="10.00">proxsuite::proxqp::</text>
<text text-anchor="middle" x="518" y="-57.62" font-family="Helvetica,sans-Serif" font-size="10.00">dense::Workspace&lt; T &gt;</text>
</a>
</g>
</g>
<!-- Node2 -->
<g id="Node000002" class="node">
<title>Node2</title>
<g id="a_Node000002"><a xlink:href="structproxsuite_1_1linalg_1_1veg_1_1Vec.html" target="_top" xlink:title=" ">
<polygon fill="white" stroke="#666666" points="369,-110.88 221,-110.88 221,-77.38 369,-77.38 369,-110.88"/>
<text text-anchor="start" x="229" y="-97.38" font-family="Helvetica,sans-Serif" font-size="10.00">proxsuite::linalg::</text>
<text text-anchor="middle" x="295" y="-84.62" font-family="Helvetica,sans-Serif" font-size="10.00">veg::Vec&lt; unsigned char &gt;</text>
</a>
</g>
</g>
<!-- Node2&#45;&gt;Node1 -->
<g id="edge1_Node000001_Node000002" class="edge">
<title>Node2&#45;&gt;Node1</title>
<g id="a_edge1_Node000001_Node000002"><a xlink:title=" ">
<path fill="none" stroke="#9a32cd" stroke-dasharray="5,2" d="M380,-83.86C403.63,-80.98 428.97,-77.88 451.36,-75.14"/>
<polygon fill="#9a32cd" stroke="#9a32cd" points="379.78,-80.48 370.28,-85.17 380.63,-87.43 379.78,-80.48"/>
</a>
</g>
<text text-anchor="middle" x="410.25" y="-85.38" font-family="Helvetica,sans-Serif" font-size="10.00" fill="grey"> ldl_stack</text>
</g>
<!-- Node3 -->
<g id="Node000003" class="node">
<title>Node3</title>
<g id="a_Node000003"><a xlink:href="structproxsuite_1_1linalg_1_1veg_1_1__detail_1_1__vector_1_1adl_1_1AdlBase.html" target="_top" xlink:title=" ">
<polygon fill="white" stroke="#666666" points="149.5,-188.25 34.5,-188.25 34.5,-142 149.5,-142 149.5,-188.25"/>
<text text-anchor="start" x="42.5" y="-174.75" font-family="Helvetica,sans-Serif" font-size="10.00">proxsuite::linalg::</text>
<text text-anchor="start" x="42.5" y="-162" font-family="Helvetica,sans-Serif" font-size="10.00">veg::_detail::_vector</text>
<text text-anchor="middle" x="92" y="-149.25" font-family="Helvetica,sans-Serif" font-size="10.00">::adl::AdlBase</text>
</a>
</g>
</g>
<!-- Node3&#45;&gt;Node2 -->
<g id="edge2_Node000002_Node000003" class="edge">
<title>Node3&#45;&gt;Node2</title>
<g id="a_edge2_Node000002_Node000003"><a xlink:title=" ">
<path fill="none" stroke="#8b1a1a" d="M159.99,-141.59C168.08,-138.74 176.23,-135.87 184,-133.12 204.16,-126.01 226.38,-118.13 245.55,-111.33"/>
<polygon fill="#8b1a1a" stroke="#8b1a1a" points="159.07,-138.55 150.8,-145.18 161.4,-145.16 159.07,-138.55"/>
</a>
</g>
</g>
<!-- Node4 -->
<g id="Node000004" class="node">
<title>Node4</title>
<g id="a_Node000004"><a xlink:title=" ">
<polygon fill="white" stroke="#666666" points="184,-123.62 0,-123.62 0,-64.62 184,-64.62 184,-123.62"/>
<text text-anchor="start" x="8" y="-110.12" font-family="Helvetica,sans-Serif" font-size="10.00">meta::if_t&lt; mem::CopyAvailable</text>
<text text-anchor="start" x="8" y="-97.38" font-family="Helvetica,sans-Serif" font-size="10.00">For&lt;unsigned char &gt;::value</text>
<text text-anchor="start" x="8" y="-84.62" font-family="Helvetica,sans-Serif" font-size="10.00"> ==mem::CopyAvailable::no,</text>
<text text-anchor="middle" x="92" y="-71.88" font-family="Helvetica,sans-Serif" font-size="10.00"> _detail::NoCopy, _detail::Empty &gt;</text>
</a>
</g>
</g>
<!-- Node4&#45;&gt;Node2 -->
<g id="edge3_Node000002_Node000004" class="edge">
<title>Node4&#45;&gt;Node2</title>
<g id="a_edge3_Node000002_Node000004"><a xlink:title=" ">
<path fill="none" stroke="#8b1a1a" d="M195.22,-94.12C203.78,-94.12 212.33,-94.12 220.61,-94.12"/>
<polygon fill="#8b1a1a" stroke="#8b1a1a" points="195.38,-90.63 185.38,-94.12 195.38,-97.63 195.38,-90.63"/>
</a>
</g>
</g>
<!-- Node5 -->
<g id="Node000005" class="node">
<title>Node5</title>
<g id="a_Node000005"><a xlink:href="structproxsuite_1_1linalg_1_1veg_1_1__detail_1_1__collections_1_1VecImpl.html" target="_top" xlink:title=" ">
<polygon fill="white" stroke="#666666" points="172,-46.25 12,-46.25 12,0 172,0 172,-46.25"/>
<text text-anchor="start" x="20" y="-32.75" font-family="Helvetica,sans-Serif" font-size="10.00">proxsuite::linalg::</text>
<text text-anchor="start" x="20" y="-20" font-family="Helvetica,sans-Serif" font-size="10.00">veg::_detail::_collections</text>
<text text-anchor="middle" x="92" y="-7.25" font-family="Helvetica,sans-Serif" font-size="10.00">::VecImpl&lt; T, A, Dtor, Copy &gt;</text>
</a>
</g>
</g>
<!-- Node5&#45;&gt;Node2 -->
<g id="edge4_Node000002_Node000005" class="edge">
<title>Node5&#45;&gt;Node2</title>
<g id="a_edge4_Node000002_Node000005"><a xlink:title=" ">
<path fill="none" stroke="#63b8ff" d="M169.98,-50.32C195.3,-59.26 222.73,-68.95 245.34,-76.94"/>
<polygon fill="#63b8ff" stroke="#63b8ff" points="171.25,-46.7 160.65,-46.67 168.91,-53.3 171.25,-46.7"/>
</a>
</g>
</g>
<!-- Node6 -->
<g id="Node000006" class="node">
<title>Node6</title>
<g id="a_Node000006"><a xlink:title=" ">
<polygon fill="white" stroke="#666666" points="314.25,-59.5 275.75,-59.5 275.75,-38.75 314.25,-38.75 314.25,-59.5"/>
<text text-anchor="middle" x="295" y="-46" font-family="Helvetica,sans-Serif" font-size="10.00">isize</text>
</a>
</g>
</g>
<!-- Node6&#45;&gt;Node1 -->
<g id="edge5_Node000001_Node000006" class="edge">
<title>Node6&#45;&gt;Node1</title>
<g id="a_edge5_Node000001_Node000006"><a xlink:title=" ">
<path fill="none" stroke="#9a32cd" stroke-dasharray="5,2" d="M325.7,-49.29C353.59,-49.67 396.46,-50.85 433.5,-54.38 439.34,-54.93 445.39,-55.62 451.45,-56.4"/>
<polygon fill="#9a32cd" stroke="#9a32cd" points="325.76,-45.78 315.73,-49.17 325.69,-52.78 325.76,-45.78"/>
</a>
</g>
<text text-anchor="middle" x="410.25" y="-57.38" font-family="Helvetica,sans-Serif" font-size="10.00" fill="grey"> n_c</text>
</g>
</g>
</svg>
