<?xml version="1.0" encoding="UTF-8" standalone="no"?>
<!DOCTYPE svg PUBLIC "-//W3C//DTD SVG 1.1//EN"
 "http://www.w3.org/Graphics/SVG/1.1/DTD/svg11.dtd">
<!-- Generated by graphviz version 12.2.1 (20250203.1708)
 -->
<!-- Title: proxsuite::linalg::veg::_detail::_meta::is_pointer&lt; T * &gt; Pages: 1 -->
<svg width="339pt" height="124pt"
 viewBox="0.00 0.00 338.75 123.75" xmlns="http://www.w3.org/2000/svg" xmlns:xlink="http://www.w3.org/1999/xlink">
<g id="graph0" class="graph" transform="scale(1 1) rotate(0) translate(4 119.75)">
<title>proxsuite::linalg::veg::_detail::_meta::is_pointer&lt; T * &gt;</title>
<!-- Node1 -->
<g id="Node000001" class="node">
<title>Node1</title>
<g id="a_Node000001"><a xlink:title=" ">
<polygon fill="#999999" stroke="#666666" points="222.38,-46.25 112.62,-46.25 112.62,0 222.38,0 222.38,-46.25"/>
<text text-anchor="start" x="120.62" y="-32.75" font-family="Helvetica,sans-Serif" font-size="10.00">proxsuite::linalg::</text>
<text text-anchor="start" x="120.62" y="-20" font-family="Helvetica,sans-Serif" font-size="10.00">veg::_detail::_meta</text>
<text text-anchor="middle" x="167.5" y="-7.25" font-family="Helvetica,sans-Serif" font-size="10.00">::is_pointer&lt; T * &gt;</text>
</a>
</g>
</g>
<!-- Node2 -->
<g id="Node000002" class="node">
<title>Node2</title>
<g id="a_Node000002"><a xlink:href="structproxsuite_1_1linalg_1_1veg_1_1meta_1_1constant.html" target="_top" xlink:title=" ">
<polygon fill="white" stroke="#666666" points="67,-109.38 0,-109.38 0,-88.62 67,-88.62 67,-109.38"/>
<text text-anchor="middle" x="33.5" y="-95.88" font-family="Helvetica,sans-Serif" font-size="10.00">false_type</text>
</a>
</g>
</g>
<!-- Node2&#45;&gt;Node1 -->
<g id="edge1_Node000001_Node000002" class="edge">
<title>Node2&#45;&gt;Node1</title>
<g id="a_edge1_Node000001_Node000002"><a xlink:title=" ">
<path fill="none" stroke="#63b8ff" d="M61.3,-82.67C80.14,-72.29 105.35,-58.39 126.48,-46.74"/>
<polygon fill="#63b8ff" stroke="#63b8ff" points="59.69,-79.57 52.62,-87.46 63.07,-85.7 59.69,-79.57"/>
</a>
</g>
</g>
<!-- Node3 -->
<g id="Node000003" class="node">
<title>Node3</title>
<g id="a_Node000003"><a xlink:href="structproxsuite_1_1linalg_1_1veg_1_1meta_1_1type__identity.html" target="_top" xlink:title=" ">
<polygon fill="white" stroke="#666666" points="249.75,-115.75 85.25,-115.75 85.25,-82.25 249.75,-82.25 249.75,-115.75"/>
<text text-anchor="start" x="93.25" y="-102.25" font-family="Helvetica,sans-Serif" font-size="10.00">proxsuite::linalg::</text>
<text text-anchor="middle" x="167.5" y="-89.5" font-family="Helvetica,sans-Serif" font-size="10.00">veg::meta::type_identity&lt; T &gt;</text>
</a>
</g>
</g>
<!-- Node3&#45;&gt;Node1 -->
<g id="edge2_Node000001_Node000003" class="edge">
<title>Node3&#45;&gt;Node1</title>
<g id="a_edge2_Node000001_Node000003"><a xlink:title=" ">
<path fill="none" stroke="#63b8ff" d="M160.96,-70.64C160.61,-62.71 160.7,-54.16 161.23,-46.57"/>
<polygon fill="#63b8ff" stroke="#63b8ff" points="157.45,-70.76 161.71,-80.46 164.43,-70.22 157.45,-70.76"/>
</a>
</g>
</g>
<!-- Node3&#45;&gt;Node1 -->
<g id="edge4_Node000001_Node000003" class="edge">
<title>Node3&#45;&gt;Node1</title>
<g id="a_edge4_Node000001_Node000003"><a xlink:title=" ">
<path fill="none" stroke="#63b8ff" d="M174.04,-70.64C174.39,-62.71 174.3,-54.16 173.77,-46.57"/>
<polygon fill="#63b8ff" stroke="#63b8ff" points="170.57,-70.22 173.29,-80.46 177.55,-70.76 170.57,-70.22"/>
</a>
</g>
</g>
<!-- Node4 -->
<g id="Node000004" class="node">
<title>Node4</title>
<g id="a_Node000004"><a xlink:href="structproxsuite_1_1linalg_1_1veg_1_1meta_1_1constant.html" target="_top" xlink:title=" ">
<polygon fill="white" stroke="#666666" points="330.75,-109.38 268.25,-109.38 268.25,-88.62 330.75,-88.62 330.75,-109.38"/>
<text text-anchor="middle" x="299.5" y="-95.88" font-family="Helvetica,sans-Serif" font-size="10.00">true_type</text>
</a>
</g>
</g>
<!-- Node4&#45;&gt;Node1 -->
<g id="edge3_Node000001_Node000004" class="edge">
<title>Node4&#45;&gt;Node1</title>
<g id="a_edge3_Node000001_Node000004"><a xlink:title=" ">
<path fill="none" stroke="#63b8ff" d="M272.11,-82.67C253.56,-72.29 228.72,-58.39 207.91,-46.74"/>
<polygon fill="#63b8ff" stroke="#63b8ff" points="270.21,-85.62 280.65,-87.45 273.63,-79.51 270.21,-85.62"/>
</a>
</g>
</g>
</g>
</svg>
