<?xml version="1.0" encoding="UTF-8" standalone="no"?>
<!DOCTYPE svg PUBLIC "-//W3C//DTD SVG 1.1//EN"
 "http://www.w3.org/Graphics/SVG/1.1/DTD/svg11.dtd">
<!-- Generated by graphviz version 8.1.0 (20230707.2238)
 -->
<!-- Title: proxsuite::linalg::veg::dynstack::DynStackAlloc&lt; T &gt; Pages: 1 -->
<svg width="589pt" height="106pt"
 viewBox="0.00 0.00 588.75 105.88" xmlns="http://www.w3.org/2000/svg" xmlns:xlink="http://www.w3.org/1999/xlink">
<g id="graph0" class="graph" transform="scale(1 1) rotate(0) translate(4 101.88)">
<title>proxsuite::linalg::veg::dynstack::DynStackAlloc&lt; T &gt;</title>
<!-- Node1 -->
<g id="Node000001" class="node">
<title>Node1</title>
<g id="a_Node000001"><a xlink:title=" ">
<polygon fill="#999999" stroke="#666666" points="580.75,-68.88 391.5,-68.88 391.5,-35.38 580.75,-35.38 580.75,-68.88"/>
<text text-anchor="start" x="399.5" y="-55.38" font-family="Helvetica,sans-Serif" font-size="10.00">proxsuite::linalg::</text>
<text text-anchor="middle" x="486.12" y="-42.62" font-family="Helvetica,sans-Serif" font-size="10.00">veg::dynstack::DynStackAlloc&lt; T &gt;</text>
</a>
</g>
</g>
<!-- Node2 -->
<g id="Node000002" class="node">
<title>Node2</title>
<g id="a_Node000002"><a xlink:href="structproxsuite_1_1linalg_1_1veg_1_1__detail_1_1__dynstack_1_1DynAllocBase.html" target="_top" xlink:title=" ">
<polygon fill="white" stroke="#666666" points="354.5,-75.25 226,-75.25 226,-29 354.5,-29 354.5,-75.25"/>
<text text-anchor="start" x="234" y="-61.75" font-family="Helvetica,sans-Serif" font-size="10.00">proxsuite::linalg::</text>
<text text-anchor="start" x="234" y="-49" font-family="Helvetica,sans-Serif" font-size="10.00">veg::_detail::_dynstack</text>
<text text-anchor="middle" x="290.25" y="-36.25" font-family="Helvetica,sans-Serif" font-size="10.00">::DynAllocBase</text>
</a>
</g>
</g>
<!-- Node2&#45;&gt;Node1 -->
<g id="edge1_Node000001_Node000002" class="edge">
<title>Node2&#45;&gt;Node1</title>
<g id="a_edge1_Node000001_Node000002"><a xlink:title=" ">
<path fill="none" stroke="#63b8ff" d="M365.62,-52.12C374.02,-52.12 382.66,-52.12 391.27,-52.12"/>
<polygon fill="#63b8ff" stroke="#63b8ff" points="365.73,-48.63 355.73,-52.12 365.73,-55.63 365.73,-48.63"/>
</a>
</g>
</g>
<!-- Node3 -->
<g id="Node000003" class="node">
<title>Node3</title>
<g id="a_Node000003"><a xlink:href="structproxsuite_1_1linalg_1_1veg_1_1dynstack_1_1DynStackMut.html" target="_top" xlink:title=" ">
<polygon fill="white" stroke="#666666" points="155.5,-97.88 0,-97.88 0,-64.38 155.5,-64.38 155.5,-97.88"/>
<text text-anchor="start" x="8" y="-84.38" font-family="Helvetica,sans-Serif" font-size="10.00">proxsuite::linalg::</text>
<text text-anchor="middle" x="77.75" y="-71.62" font-family="Helvetica,sans-Serif" font-size="10.00">veg::dynstack::DynStackMut</text>
</a>
</g>
</g>
<!-- Node3&#45;&gt;Node2 -->
<g id="edge2_Node000002_Node000003" class="edge">
<title>Node3&#45;&gt;Node2</title>
<g id="a_edge2_Node000002_Node000003"><a xlink:title=" ">
<path fill="none" stroke="#9a32cd" stroke-dasharray="5,2" d="M166.78,-69C186.49,-66.28 207.03,-63.45 225.53,-60.9"/>
<polygon fill="#9a32cd" stroke="#9a32cd" points="166.37,-65.66 156.94,-70.49 167.32,-72.59 166.37,-65.66"/>
</a>
</g>
<text text-anchor="middle" x="190.75" y="-70.38" font-family="Helvetica,sans-Serif" font-size="10.00" fill="grey"> parent</text>
</g>
<!-- Node4 -->
<g id="Node000004" class="node">
<title>Node4</title>
<g id="a_Node000004"><a xlink:href="structproxsuite_1_1linalg_1_1veg_1_1__detail_1_1__meta_1_1make__signed.html" target="_top" xlink:title=" ">
<polygon fill="white" stroke="#666666" points="145,-46.25 10.5,-46.25 10.5,0 145,0 145,-46.25"/>
<text text-anchor="start" x="18.5" y="-32.75" font-family="Helvetica,sans-Serif" font-size="10.00">proxsuite::linalg::</text>
<text text-anchor="start" x="18.5" y="-20" font-family="Helvetica,sans-Serif" font-size="10.00">veg::_detail::_meta</text>
<text text-anchor="middle" x="77.75" y="-7.25" font-family="Helvetica,sans-Serif" font-size="10.00">::make_signed&lt; usize &gt;</text>
</a>
</g>
</g>
<!-- Node4&#45;&gt;Node2 -->
<g id="edge3_Node000002_Node000004" class="edge">
<title>Node4&#45;&gt;Node2</title>
<g id="a_edge3_Node000002_Node000004"><a xlink:title=" ">
<path fill="none" stroke="#9a32cd" stroke-dasharray="5,2" d="M156.06,-33.78C178.93,-36.93 203.69,-40.34 225.59,-43.36"/>
<polygon fill="#9a32cd" stroke="#9a32cd" points="156.74,-30.2 146.35,-32.3 155.78,-37.13 156.74,-30.2"/>
</a>
</g>
<text text-anchor="middle" x="190.75" y="-44.38" font-family="Helvetica,sans-Serif" font-size="10.00" fill="grey"> len</text>
</g>
</g>
</svg>
