<?xml version="1.0" encoding="UTF-8" standalone="no"?>
<!DOCTYPE svg PUBLIC "-//W3C//DTD SVG 1.1//EN"
 "http://www.w3.org/Graphics/SVG/1.1/DTD/svg11.dtd">
<!-- Generated by graphviz version 12.2.1 (20250203.1708)
 -->
<!-- Title: proxsuite::proxqp::sparse::detail::AugmentedKkt&lt; T, I &gt; Pages: 1 -->
<svg width="830pt" height="169pt"
 viewBox="0.00 0.00 829.75 168.88" xmlns="http://www.w3.org/2000/svg" xmlns:xlink="http://www.w3.org/1999/xlink">
<g id="graph0" class="graph" transform="scale(1 1) rotate(0) translate(4 164.88)">
<title>proxsuite::proxqp::sparse::detail::AugmentedKkt&lt; T, I &gt;</title>
<!-- Node1 -->
<g id="Node000001" class="node">
<title>Node1</title>
<g id="a_Node000001"><a xlink:title=" ">
<polygon fill="#999999" stroke="#666666" points="821.75,-123.5 661,-123.5 661,-77.25 821.75,-77.25 821.75,-123.5"/>
<text text-anchor="start" x="669" y="-110" font-family="Helvetica,sans-Serif" font-size="10.00">proxsuite::proxqp::</text>
<text text-anchor="start" x="669" y="-97.25" font-family="Helvetica,sans-Serif" font-size="10.00">sparse::detail::AugmentedKkt</text>
<text text-anchor="middle" x="741.38" y="-84.5" font-family="Helvetica,sans-Serif" font-size="10.00">&lt; T, I &gt;</text>
</a>
</g>
</g>
<!-- Node2 -->
<g id="Node000002" class="node">
<title>Node2</title>
<g id="a_Node000002"><a xlink:title=" ">
<polygon fill="white" stroke="#666666" points="616.75,-146.12 449.25,-146.12 449.25,-112.62 616.75,-112.62 616.75,-146.12"/>
<text text-anchor="start" x="457.25" y="-132.62" font-family="Helvetica,sans-Serif" font-size="10.00">Eigen::EigenBase&lt; Augmented</text>
<text text-anchor="middle" x="533" y="-119.88" font-family="Helvetica,sans-Serif" font-size="10.00">Kkt&lt; T, I &gt; &gt;</text>
</a>
</g>
</g>
<!-- Node2&#45;&gt;Node1 -->
<g id="edge1_Node000001_Node000002" class="edge">
<title>Node2&#45;&gt;Node1</title>
<g id="a_edge1_Node000001_Node000002"><a xlink:title=" ">
<path fill="none" stroke="#63b8ff" d="M628.22,-116.13C639.01,-114.62 649.94,-113.08 660.51,-111.6"/>
<polygon fill="#63b8ff" stroke="#63b8ff" points="627.96,-112.64 618.55,-117.49 628.94,-119.57 627.96,-112.64"/>
</a>
</g>
</g>
<!-- Node3 -->
<g id="Node000003" class="node">
<title>Node3</title>
<g id="a_Node000003"><a xlink:href="structproxsuite_1_1proxqp_1_1sparse_1_1detail_1_1AugmentedKkt_1_1Raw.html" target="_top" xlink:title=" ">
<polygon fill="white" stroke="#666666" points="613.38,-94.5 452.62,-94.5 452.62,-48.25 613.38,-48.25 613.38,-94.5"/>
<text text-anchor="start" x="460.62" y="-81" font-family="Helvetica,sans-Serif" font-size="10.00">proxsuite::proxqp::</text>
<text text-anchor="start" x="460.62" y="-68.25" font-family="Helvetica,sans-Serif" font-size="10.00">sparse::detail::AugmentedKkt</text>
<text text-anchor="middle" x="533" y="-55.5" font-family="Helvetica,sans-Serif" font-size="10.00">&lt; T, I &gt;::Raw</text>
</a>
</g>
</g>
<!-- Node3&#45;&gt;Node1 -->
<g id="edge2_Node000001_Node000003" class="edge">
<title>Node3&#45;&gt;Node1</title>
<g id="a_edge2_Node000001_Node000003"><a xlink:title=" ">
<path fill="none" stroke="#9a32cd" stroke-dasharray="5,2" d="M625.11,-84.18C637,-85.85 649.11,-87.55 660.8,-89.19"/>
<polygon fill="#9a32cd" stroke="#9a32cd" points="625.68,-80.72 615.29,-82.8 624.7,-87.66 625.68,-80.72"/>
</a>
</g>
<text text-anchor="middle" x="638.88" y="-89.12" font-family="Helvetica,sans-Serif" font-size="10.00" fill="grey"> _</text>
</g>
<!-- Node4 -->
<g id="Node000004" class="node">
<title>Node4</title>
<g id="a_Node000004"><a xlink:href="structproxsuite_1_1linalg_1_1sparse_1_1MatRef.html" target="_top" xlink:title=" ">
<polygon fill="white" stroke="#666666" points="321,-141.12 194,-141.12 194,-107.62 321,-107.62 321,-141.12"/>
<text text-anchor="start" x="202" y="-127.62" font-family="Helvetica,sans-Serif" font-size="10.00">proxsuite::linalg::</text>
<text text-anchor="middle" x="257.5" y="-114.88" font-family="Helvetica,sans-Serif" font-size="10.00">sparse::MatRef&lt; T, I &gt;</text>
</a>
</g>
</g>
<!-- Node4&#45;&gt;Node3 -->
<g id="edge3_Node000003_Node000004" class="edge">
<title>Node4&#45;&gt;Node3</title>
<g id="a_edge3_Node000003_Node000004"><a xlink:title=" ">
<path fill="none" stroke="#9a32cd" stroke-dasharray="5,2" d="M332.49,-110.04C369.58,-102.85 414.53,-94.14 452.37,-86.81"/>
<polygon fill="#9a32cd" stroke="#9a32cd" points="331.88,-106.59 322.73,-111.93 333.22,-113.46 331.88,-106.59"/>
</a>
</g>
<text text-anchor="middle" x="385.12" y="-111.96" font-family="Helvetica,sans-Serif" font-size="10.00" fill="grey"> kkt_active</text>
</g>
<!-- Node5 -->
<g id="Node000005" class="node">
<title>Node5</title>
<g id="a_Node000005"><a xlink:href="structproxsuite_1_1linalg_1_1sparse_1_1__detail_1_1SymbolicMatRefInterface.html" target="_top" xlink:title=" ">
<polygon fill="white" stroke="#666666" points="157,-160.88 0,-160.88 0,-101.88 157,-101.88 157,-160.88"/>
<text text-anchor="start" x="8" y="-147.38" font-family="Helvetica,sans-Serif" font-size="10.00">proxsuite::linalg::</text>
<text text-anchor="start" x="8" y="-134.62" font-family="Helvetica,sans-Serif" font-size="10.00">sparse::_detail::SymbolicMat</text>
<text text-anchor="start" x="8" y="-121.88" font-family="Helvetica,sans-Serif" font-size="10.00">RefInterface&lt; MatRef&lt; T,</text>
<text text-anchor="middle" x="78.5" y="-109.12" font-family="Helvetica,sans-Serif" font-size="10.00"> I &gt;, I &gt;</text>
</a>
</g>
</g>
<!-- Node5&#45;&gt;Node4 -->
<g id="edge4_Node000004_Node000005" class="edge">
<title>Node5&#45;&gt;Node4</title>
<g id="a_edge4_Node000004_Node000005"><a xlink:title=" ">
<path fill="none" stroke="#63b8ff" d="M168.83,-127.84C177.24,-127.51 185.64,-127.18 193.72,-126.86"/>
<polygon fill="#63b8ff" stroke="#63b8ff" points="168.76,-124.34 158.9,-128.23 169.04,-131.34 168.76,-124.34"/>
</a>
</g>
</g>
<!-- Node6 -->
<g id="Node000006" class="node">
<title>Node6</title>
<g id="a_Node000006"><a xlink:href="structproxsuite_1_1linalg_1_1veg_1_1Slice.html" target="_top" xlink:title=" ">
<polygon fill="white" stroke="#666666" points="310.88,-80.12 204.12,-80.12 204.12,-46.62 310.88,-46.62 310.88,-80.12"/>
<text text-anchor="start" x="212.12" y="-66.62" font-family="Helvetica,sans-Serif" font-size="10.00">proxsuite::linalg::</text>
<text text-anchor="middle" x="257.5" y="-53.88" font-family="Helvetica,sans-Serif" font-size="10.00">veg::Slice&lt; bool &gt;</text>
</a>
</g>
</g>
<!-- Node6&#45;&gt;Node3 -->
<g id="edge5_Node000003_Node000006" class="edge">
<title>Node6&#45;&gt;Node3</title>
<g id="a_edge5_Node000003_Node000006"><a xlink:title=" ">
<path fill="none" stroke="#9a32cd" stroke-dasharray="5,2" d="M322.37,-65.24C361.11,-66.38 410.89,-67.83 452.21,-69.04"/>
<polygon fill="#9a32cd" stroke="#9a32cd" points="322.84,-61.76 312.75,-64.96 322.64,-68.75 322.84,-61.76"/>
</a>
</g>
<text text-anchor="middle" x="385.12" y="-71.58" font-family="Helvetica,sans-Serif" font-size="10.00" fill="grey"> active_constraints</text>
</g>
<!-- Node7 -->
<g id="Node000007" class="node">
<title>Node7</title>
<g id="a_Node000007"><a xlink:href="structproxsuite_1_1linalg_1_1veg_1_1__detail_1_1__slice_1_1adl_1_1AdlBase.html" target="_top" xlink:title=" ">
<polygon fill="white" stroke="#666666" points="131.88,-83.5 25.12,-83.5 25.12,-37.25 131.88,-37.25 131.88,-83.5"/>
<text text-anchor="start" x="33.12" y="-70" font-family="Helvetica,sans-Serif" font-size="10.00">proxsuite::linalg::</text>
<text text-anchor="start" x="33.12" y="-57.25" font-family="Helvetica,sans-Serif" font-size="10.00">veg::_detail::_slice</text>
<text text-anchor="middle" x="78.5" y="-44.5" font-family="Helvetica,sans-Serif" font-size="10.00">::adl::AdlBase</text>
</a>
</g>
</g>
<!-- Node7&#45;&gt;Node6 -->
<g id="edge6_Node000006_Node000007" class="edge">
<title>Node7&#45;&gt;Node6</title>
<g id="a_edge6_Node000006_Node000007"><a xlink:title=" ">
<path fill="none" stroke="#63b8ff" d="M143.53,-61.46C163.31,-61.8 184.85,-62.16 203.77,-62.48"/>
<polygon fill="#63b8ff" stroke="#63b8ff" points="143.7,-57.96 133.64,-61.29 143.58,-64.96 143.7,-57.96"/>
</a>
</g>
</g>
<!-- Node8 -->
<g id="Node000008" class="node">
<title>Node8</title>
<g id="a_Node000008"><a xlink:title=" ">
<polygon fill="white" stroke="#666666" points="271.9,-20.75 243.1,-20.75 243.1,0 271.9,0 271.9,-20.75"/>
<text text-anchor="middle" x="257.5" y="-7.25" font-family="Helvetica,sans-Serif" font-size="10.00">T</text>
</a>
</g>
</g>
<!-- Node8&#45;&gt;Node3 -->
<g id="edge7_Node000003_Node000008" class="edge">
<title>Node8&#45;&gt;Node3</title>
<g id="a_edge7_Node000003_Node000008"><a xlink:title=" ">
<path fill="none" stroke="#9a32cd" stroke-dasharray="5,2" d="M283.38,-9.35C317.39,-8.59 380,-9.48 431.25,-23.12 452.05,-28.66 473.76,-38.47 491.67,-47.8"/>
<polygon fill="#9a32cd" stroke="#9a32cd" points="283.63,-5.84 273.74,-9.64 283.84,-12.84 283.63,-5.84"/>
</a>
</g>
<text text-anchor="middle" x="385.12" y="-51.88" font-family="Helvetica,sans-Serif" font-size="10.00" fill="grey"> mu_eq</text>
<text text-anchor="middle" x="385.12" y="-39.12" font-family="Helvetica,sans-Serif" font-size="10.00" fill="grey">mu_in</text>
<text text-anchor="middle" x="385.12" y="-26.38" font-family="Helvetica,sans-Serif" font-size="10.00" fill="grey">rho</text>
</g>
</g>
</svg>
