<?xml version="1.0" encoding="UTF-8" standalone="no"?>
<!DOCTYPE svg PUBLIC "-//W3C//DTD SVG 1.1//EN"
 "http://www.w3.org/Graphics/SVG/1.1/DTD/svg11.dtd">
<!-- Generated by graphviz version 5.0.0 (20220707.2338)
 -->
<!-- Title: proxsuite::proxqp::Results&lt; T &gt; Pages: 1 -->
<svg width="578pt" height="215pt"
 viewBox="0.00 0.00 578.00 214.50" xmlns="http://www.w3.org/2000/svg" xmlns:xlink="http://www.w3.org/1999/xlink">
<g id="graph0" class="graph" transform="scale(1 1) rotate(0) translate(4 210.5)">
<title>proxsuite::proxqp::Results&lt; T &gt;</title>
<!-- Node1 -->
<g id="node1" class="node">
<title>Node1</title>
<g id="a_node1"><a xlink:title="This class stores all the results of PROXQP solvers with sparse and dense backends.">
<polygon fill="#bfbfbf" stroke="black" points="462,-104.5 462,-134.5 570,-134.5 570,-104.5 462,-104.5"/>
<text text-anchor="start" x="470" y="-122.5" font-family="Helvetica,sans-Serif" font-size="10.00">proxsuite::proxqp::</text>
<text text-anchor="middle" x="516" y="-111.5" font-family="Helvetica,sans-Serif" font-size="10.00">Results&lt; T &gt;</text>
</a>
</g>
</g>
<!-- Node2 -->
<g id="node2" class="node">
<title>Node2</title>
<g id="a_node2"><a xlink:href="structproxsuite_1_1linalg_1_1veg_1_1Vec.html" target="_top" xlink:title=" ">
<polygon fill="none" stroke="black" points="232,-104.5 232,-134.5 333,-134.5 333,-104.5 232,-104.5"/>
<text text-anchor="start" x="240" y="-122.5" font-family="Helvetica,sans-Serif" font-size="10.00">proxsuite::linalg::</text>
<text text-anchor="middle" x="282.5" y="-111.5" font-family="Helvetica,sans-Serif" font-size="10.00">veg::Vec&lt; bool &gt;</text>
</a>
</g>
</g>
<!-- Node2&#45;&gt;Node1 -->
<g id="edge1" class="edge">
<title>Node2&#45;&gt;Node1</title>
<path fill="none" stroke="#9a32cd" stroke-dasharray="5,2" d="M343.22,-119.5C379.87,-119.5 426.41,-119.5 461.79,-119.5"/>
<polygon fill="#9a32cd" stroke="#9a32cd" points="343.16,-116 333.16,-119.5 343.16,-123 343.16,-116"/>
<text text-anchor="middle" x="397.5" y="-122.5" font-family="Helvetica,sans-Serif" font-size="10.00"> active_constraints</text>
</g>
<!-- Node3 -->
<g id="node3" class="node">
<title>Node3</title>
<g id="a_node3"><a xlink:href="structproxsuite_1_1linalg_1_1veg_1_1__detail_1_1__vector_1_1adl_1_1AdlBase.html" target="_top" xlink:title=" ">
<polygon fill="none" stroke="black" points="39.5,-165 39.5,-206 155.5,-206 155.5,-165 39.5,-165"/>
<text text-anchor="start" x="47.5" y="-194" font-family="Helvetica,sans-Serif" font-size="10.00">proxsuite::linalg::</text>
<text text-anchor="start" x="47.5" y="-183" font-family="Helvetica,sans-Serif" font-size="10.00">veg::_detail::_vector</text>
<text text-anchor="middle" x="97.5" y="-172" font-family="Helvetica,sans-Serif" font-size="10.00">::adl::AdlBase</text>
</a>
</g>
</g>
<!-- Node3&#45;&gt;Node2 -->
<g id="edge2" class="edge">
<title>Node3&#45;&gt;Node2</title>
<path fill="none" stroke="#8b1a1a" d="M165.23,-165.64C175.26,-162.4 185.44,-158.97 195,-155.5 212.43,-149.18 231.49,-141.35 247.27,-134.61"/>
<polygon fill="#8b1a1a" stroke="#8b1a1a" points="164.15,-162.31 155.69,-168.68 166.28,-168.98 164.15,-162.31"/>
</g>
<!-- Node4 -->
<g id="node4" class="node">
<title>Node4</title>
<g id="a_node4"><a xlink:title=" ">
<polygon fill="none" stroke="black" points="9.5,-93.5 9.5,-145.5 185.5,-145.5 185.5,-93.5 9.5,-93.5"/>
<text text-anchor="start" x="17.5" y="-133.5" font-family="Helvetica,sans-Serif" font-size="10.00">meta::if_t&lt; mem::CopyAvailable</text>
<text text-anchor="start" x="17.5" y="-122.5" font-family="Helvetica,sans-Serif" font-size="10.00">For&lt;bool &gt;::value ==mem::</text>
<text text-anchor="start" x="17.5" y="-111.5" font-family="Helvetica,sans-Serif" font-size="10.00">CopyAvailable::no, _detail</text>
<text text-anchor="middle" x="97.5" y="-100.5" font-family="Helvetica,sans-Serif" font-size="10.00">::NoCopy, _detail::Empty &gt;</text>
</a>
</g>
</g>
<!-- Node4&#45;&gt;Node2 -->
<g id="edge3" class="edge">
<title>Node4&#45;&gt;Node2</title>
<path fill="none" stroke="#8b1a1a" d="M195.74,-119.5C208.22,-119.5 220.56,-119.5 231.83,-119.5"/>
<polygon fill="#8b1a1a" stroke="#8b1a1a" points="195.71,-116 185.71,-119.5 195.71,-123 195.71,-116"/>
</g>
<!-- Node5 -->
<g id="node5" class="node">
<title>Node5</title>
<g id="a_node5"><a xlink:href="structproxsuite_1_1linalg_1_1veg_1_1__detail_1_1__collections_1_1VecImpl.html" target="_top" xlink:title=" ">
<polygon fill="none" stroke="black" points="0,-0.5 0,-74.5 195,-74.5 195,-0.5 0,-0.5"/>
<text text-anchor="start" x="8" y="-62.5" font-family="Helvetica,sans-Serif" font-size="10.00">proxsuite::linalg::</text>
<text text-anchor="start" x="8" y="-51.5" font-family="Helvetica,sans-Serif" font-size="10.00">veg::_detail::_collections</text>
<text text-anchor="start" x="8" y="-40.5" font-family="Helvetica,sans-Serif" font-size="10.00">::VecImpl&lt; bool, mem::SystemAlloc,</text>
<text text-anchor="start" x="8" y="-29.5" font-family="Helvetica,sans-Serif" font-size="10.00"> mem::DtorAvailableFor&lt; bool &gt;</text>
<text text-anchor="start" x="8" y="-18.5" font-family="Helvetica,sans-Serif" font-size="10.00">::value, mem::CopyAvailableFor</text>
<text text-anchor="middle" x="97.5" y="-7.5" font-family="Helvetica,sans-Serif" font-size="10.00">&lt; bool &gt;::value &gt;</text>
</a>
</g>
</g>
<!-- Node5&#45;&gt;Node2 -->
<g id="edge4" class="edge">
<title>Node5&#45;&gt;Node2</title>
<path fill="none" stroke="midnightblue" d="M190.55,-78.75C211.01,-87.91 231.43,-97.06 247.72,-104.36"/>
<polygon fill="midnightblue" stroke="midnightblue" points="191.72,-75.44 181.17,-74.54 188.86,-81.82 191.72,-75.44"/>
</g>
</g>
</svg>
