<?xml version="1.0" encoding="UTF-8" standalone="no"?>
<!DOCTYPE svg PUBLIC "-//W3C//DTD SVG 1.1//EN"
 "http://www.w3.org/Graphics/SVG/1.1/DTD/svg11.dtd">
<!-- Generated by graphviz version 8.1.0 (20230707.2238)
 -->
<!-- Title: tl::detail::optional_copy_assign_base&lt; T, false &gt; Pages: 1 -->
<svg width="150pt" height="332pt"
 viewBox="0.00 0.00 150.00 332.25" xmlns="http://www.w3.org/2000/svg" xmlns:xlink="http://www.w3.org/1999/xlink">
<g id="graph0" class="graph" transform="scale(1 1) rotate(0) translate(4 328.25)">
<title>tl::detail::optional_copy_assign_base&lt; T, false &gt;</title>
<!-- Node1 -->
<g id="Node000001" class="node">
<title>Node1</title>
<g id="a_Node000001"><a xlink:title=" ">
<polygon fill="#999999" stroke="#666666" points="136,-46.25 6,-46.25 6,0 136,0 136,-46.25"/>
<text text-anchor="start" x="14" y="-32.75" font-family="Helvetica,sans-Serif" font-size="10.00">tl::detail::optional</text>
<text text-anchor="start" x="14" y="-20" font-family="Helvetica,sans-Serif" font-size="10.00">_copy_assign_base&lt; T,</text>
<text text-anchor="middle" x="71" y="-7.25" font-family="Helvetica,sans-Serif" font-size="10.00"> false &gt;</text>
</a>
</g>
</g>
<!-- Node2 -->
<g id="Node000002" class="node">
<title>Node2</title>
<g id="a_Node000002"><a xlink:href="structtl_1_1detail_1_1optional__move__base.html" target="_top" xlink:title=" ">
<polygon fill="white" stroke="#666666" points="137.5,-115.75 4.5,-115.75 4.5,-82.25 137.5,-82.25 137.5,-115.75"/>
<text text-anchor="start" x="12.5" y="-102.25" font-family="Helvetica,sans-Serif" font-size="10.00">tl::detail::optional</text>
<text text-anchor="middle" x="71" y="-89.5" font-family="Helvetica,sans-Serif" font-size="10.00">_move_base&lt; T, bool &gt;</text>
</a>
</g>
</g>
<!-- Node2&#45;&gt;Node1 -->
<g id="edge1_Node000001_Node000002" class="edge">
<title>Node2&#45;&gt;Node1</title>
<g id="a_edge1_Node000001_Node000002"><a xlink:title=" ">
<path fill="none" stroke="#63b8ff" d="M71,-71.19C71,-63.11 71,-54.33 71,-46.57"/>
<polygon fill="#63b8ff" stroke="#63b8ff" points="67.5,-70.97 71,-80.97 74.5,-70.97 67.5,-70.97"/>
</a>
</g>
</g>
<!-- Node3 -->
<g id="Node000003" class="node">
<title>Node3</title>
<g id="a_Node000003"><a xlink:href="structtl_1_1detail_1_1optional__copy__base.html" target="_top" xlink:title=" ">
<polygon fill="white" stroke="#666666" points="135.25,-185.25 6.75,-185.25 6.75,-151.75 135.25,-151.75 135.25,-185.25"/>
<text text-anchor="start" x="14.75" y="-171.75" font-family="Helvetica,sans-Serif" font-size="10.00">tl::detail::optional</text>
<text text-anchor="middle" x="71" y="-159" font-family="Helvetica,sans-Serif" font-size="10.00">_copy_base&lt; T, bool &gt;</text>
</a>
</g>
</g>
<!-- Node3&#45;&gt;Node2 -->
<g id="edge2_Node000002_Node000003" class="edge">
<title>Node3&#45;&gt;Node2</title>
<g id="a_edge2_Node000002_Node000003"><a xlink:title=" ">
<path fill="none" stroke="#63b8ff" d="M71,-140.64C71,-132.25 71,-123.26 71,-115.88"/>
<polygon fill="#63b8ff" stroke="#63b8ff" points="67.5,-140.5 71,-150.5 74.5,-140.5 67.5,-140.5"/>
</a>
</g>
</g>
<!-- Node4 -->
<g id="Node000004" class="node">
<title>Node4</title>
<g id="a_Node000004"><a xlink:href="structtl_1_1detail_1_1optional__operations__base.html" target="_top" xlink:title=" ">
<polygon fill="white" stroke="#666666" points="136,-254.75 6,-254.75 6,-221.25 136,-221.25 136,-254.75"/>
<text text-anchor="start" x="14" y="-241.25" font-family="Helvetica,sans-Serif" font-size="10.00">tl::detail::optional</text>
<text text-anchor="middle" x="71" y="-228.5" font-family="Helvetica,sans-Serif" font-size="10.00">_operations_base&lt; T &gt;</text>
</a>
</g>
</g>
<!-- Node4&#45;&gt;Node3 -->
<g id="edge3_Node000003_Node000004" class="edge">
<title>Node4&#45;&gt;Node3</title>
<g id="a_edge3_Node000003_Node000004"><a xlink:title=" ">
<path fill="none" stroke="#63b8ff" d="M71,-210.14C71,-201.75 71,-192.76 71,-185.38"/>
<polygon fill="#63b8ff" stroke="#63b8ff" points="67.5,-210 71,-220 74.5,-210 67.5,-210"/>
</a>
</g>
</g>
<!-- Node5 -->
<g id="Node000005" class="node">
<title>Node5</title>
<g id="a_Node000005"><a xlink:href="structtl_1_1detail_1_1optional__storage__base.html" target="_top" xlink:title=" ">
<polygon fill="white" stroke="#666666" points="142,-324.25 0,-324.25 0,-290.75 142,-290.75 142,-324.25"/>
<text text-anchor="start" x="8" y="-310.75" font-family="Helvetica,sans-Serif" font-size="10.00">tl::detail::optional</text>
<text text-anchor="middle" x="71" y="-298" font-family="Helvetica,sans-Serif" font-size="10.00">_storage_base&lt; T, bool &gt;</text>
</a>
</g>
</g>
<!-- Node5&#45;&gt;Node4 -->
<g id="edge4_Node000004_Node000005" class="edge">
<title>Node5&#45;&gt;Node4</title>
<g id="a_edge4_Node000004_Node000005"><a xlink:title=" ">
<path fill="none" stroke="#63b8ff" d="M71,-279.64C71,-271.25 71,-262.26 71,-254.88"/>
<polygon fill="#63b8ff" stroke="#63b8ff" points="67.5,-279.5 71,-289.5 74.5,-279.5 67.5,-279.5"/>
</a>
</g>
</g>
</g>
</svg>
