<?xml version="1.0" encoding="UTF-8" standalone="no"?>
<!DOCTYPE svg PUBLIC "-//W3C//DTD SVG 1.1//EN"
 "http://www.w3.org/Graphics/SVG/1.1/DTD/svg11.dtd">
<!-- Generated by graphviz version 5.0.0 (20220707.2338)
 -->
<!-- Title: proxsuite::linalg::veg::_detail::_dynstack::DynAllocBase Pages: 1 -->
<svg width="200pt" height="184pt"
 viewBox="0.00 0.00 200.00 184.00" xmlns="http://www.w3.org/2000/svg" xmlns:xlink="http://www.w3.org/1999/xlink">
<g id="graph0" class="graph" transform="scale(1 1) rotate(0) translate(4 180)">
<title>proxsuite::linalg::veg::_detail::_dynstack::DynAllocBase</title>
<!-- Node1 -->
<g id="node1" class="node">
<title>Node1</title>
<g id="a_node1"><a xlink:title=" ">
<polygon fill="#bfbfbf" stroke="black" points="31.5,-134.5 31.5,-175.5 160.5,-175.5 160.5,-134.5 31.5,-134.5"/>
<text text-anchor="start" x="39.5" y="-163.5" font-family="Helvetica,sans-Serif" font-size="10.00">proxsuite::linalg::</text>
<text text-anchor="start" x="39.5" y="-152.5" font-family="Helvetica,sans-Serif" font-size="10.00">veg::_detail::_dynstack</text>
<text text-anchor="middle" x="96" y="-141.5" font-family="Helvetica,sans-Serif" font-size="10.00">::DynAllocBase</text>
</a>
</g>
</g>
<!-- Node2 -->
<g id="node2" class="node">
<title>Node2</title>
<g id="a_node2"><a xlink:href="structproxsuite_1_1linalg_1_1veg_1_1dynstack_1_1DynStackAlloc.html" target="_top" xlink:title=" ">
<polygon fill="none" stroke="black" points="1,-67.5 1,-97.5 191,-97.5 191,-67.5 1,-67.5"/>
<text text-anchor="start" x="9" y="-85.5" font-family="Helvetica,sans-Serif" font-size="10.00">proxsuite::linalg::</text>
<text text-anchor="middle" x="96" y="-74.5" font-family="Helvetica,sans-Serif" font-size="10.00">veg::dynstack::DynStackAlloc&lt; T &gt;</text>
</a>
</g>
</g>
<!-- Node1&#45;&gt;Node2 -->
<g id="edge1" class="edge">
<title>Node1&#45;&gt;Node2</title>
<path fill="none" stroke="midnightblue" d="M96,-124.08C96,-115.01 96,-105.45 96,-97.89"/>
<polygon fill="midnightblue" stroke="midnightblue" points="92.5,-124.36 96,-134.36 99.5,-124.36 92.5,-124.36"/>
</g>
<!-- Node3 -->
<g id="node3" class="node">
<title>Node3</title>
<g id="a_node3"><a xlink:href="structproxsuite_1_1linalg_1_1veg_1_1dynstack_1_1DynStackArray.html" target="_top" xlink:title=" ">
<polygon fill="none" stroke="black" points="0,-0.5 0,-30.5 192,-30.5 192,-0.5 0,-0.5"/>
<text text-anchor="start" x="8" y="-18.5" font-family="Helvetica,sans-Serif" font-size="10.00">proxsuite::linalg::</text>
<text text-anchor="middle" x="96" y="-7.5" font-family="Helvetica,sans-Serif" font-size="10.00">veg::dynstack::DynStackArray&lt; T &gt;</text>
</a>
</g>
</g>
<!-- Node2&#45;&gt;Node3 -->
<g id="edge2" class="edge">
<title>Node2&#45;&gt;Node3</title>
<path fill="none" stroke="#8b1a1a" d="M96,-57.11C96,-48.15 96,-38.32 96,-30.58"/>
<polygon fill="#8b1a1a" stroke="#8b1a1a" points="92.5,-57.4 96,-67.4 99.5,-57.4 92.5,-57.4"/>
</g>
</g>
</svg>
