<?xml version="1.0" encoding="UTF-8" standalone="no"?>
<!DOCTYPE svg PUBLIC "-//W3C//DTD SVG 1.1//EN"
 "http://www.w3.org/Graphics/SVG/1.1/DTD/svg11.dtd">
<!-- Generated by graphviz version 8.1.0 (20230707.2238)
 -->
<!-- Title: proxsuite::proxqp::sparse::preconditioner::RuizEquilibration&lt; T, I &gt; Pages: 1 -->
<svg width="216pt" height="310pt"
 viewBox="0.00 0.00 215.75 309.75" xmlns="http://www.w3.org/2000/svg" xmlns:xlink="http://www.w3.org/1999/xlink">
<g id="graph0" class="graph" transform="scale(1 1) rotate(0) translate(4 305.75)">
<title>proxsuite::proxqp::sparse::preconditioner::RuizEquilibration&lt; T, I &gt;</title>
<!-- Node1 -->
<g id="Node000001" class="node">
<title>Node1</title>
<g id="a_Node000001"><a xlink:title=" ">
<polygon fill="#999999" stroke="#666666" points="143.25,-46.25 1.25,-46.25 1.25,0 143.25,0 143.25,-46.25"/>
<text text-anchor="start" x="9.25" y="-32.75" font-family="Helvetica,sans-Serif" font-size="10.00">proxsuite::proxqp::</text>
<text text-anchor="start" x="9.25" y="-20" font-family="Helvetica,sans-Serif" font-size="10.00">sparse::preconditioner</text>
<text text-anchor="middle" x="72.25" y="-7.25" font-family="Helvetica,sans-Serif" font-size="10.00">::RuizEquilibration&lt; T, I &gt;</text>
</a>
</g>
</g>
<!-- Node2 -->
<g id="Node000002" class="node">
<title>Node2</title>
<g id="a_Node000002"><a xlink:title=" ">
<polygon fill="white" stroke="#666666" points="38.5,-115.75 0,-115.75 0,-95 38.5,-95 38.5,-115.75"/>
<text text-anchor="middle" x="19.25" y="-102.25" font-family="Helvetica,sans-Serif" font-size="10.00">isize</text>
</a>
</g>
</g>
<!-- Node2&#45;&gt;Node1 -->
<g id="edge1_Node000001_Node000002" class="edge">
<title>Node2&#45;&gt;Node1</title>
<g id="a_edge1_Node000001_Node000002"><a xlink:title=" ">
<path fill="none" stroke="#9a32cd" stroke-dasharray="5,2" d="M31.61,-85.65C39.34,-73.96 49.33,-58.83 57.47,-46.51"/>
<polygon fill="#9a32cd" stroke="#9a32cd" points="28.34,-83.26 25.75,-93.53 34.18,-87.12 28.34,-83.26"/>
</a>
</g>
<text text-anchor="middle" x="50.75" y="-67.5" font-family="Helvetica,sans-Serif" font-size="10.00" fill="grey"> n</text>
</g>
<!-- Node3 -->
<g id="Node000003" class="node">
<title>Node3</title>
<g id="a_Node000003"><a xlink:title=" ">
<polygon fill="white" stroke="#666666" points="87.75,-115.75 56.75,-115.75 56.75,-95 87.75,-95 87.75,-115.75"/>
<text text-anchor="middle" x="72.25" y="-102.25" font-family="Helvetica,sans-Serif" font-size="10.00">i64</text>
</a>
</g>
</g>
<!-- Node3&#45;&gt;Node1 -->
<g id="edge2_Node000001_Node000003" class="edge">
<title>Node3&#45;&gt;Node1</title>
<g id="a_edge2_Node000001_Node000003"><a xlink:title=" ">
<path fill="none" stroke="#9a32cd" stroke-dasharray="5,2" d="M72.25,-83.87C72.25,-72.45 72.25,-58.22 72.25,-46.51"/>
<polygon fill="#9a32cd" stroke="#9a32cd" points="68.75,-83.53 72.25,-93.53 75.75,-83.53 68.75,-83.53"/>
</a>
</g>
<text text-anchor="middle" x="95.5" y="-67.5" font-family="Helvetica,sans-Serif" font-size="10.00" fill="grey"> max_iter</text>
</g>
<!-- Node4 -->
<g id="Node000004" class="node">
<title>Node4</title>
<g id="a_Node000004"><a xlink:title=" ">
<polygon fill="white" stroke="#666666" points="183,-115.75 105.5,-115.75 105.5,-95 183,-95 183,-115.75"/>
<text text-anchor="middle" x="144.25" y="-102.25" font-family="Helvetica,sans-Serif" font-size="10.00">std::ostream</text>
</a>
</g>
</g>
<!-- Node4&#45;&gt;Node1 -->
<g id="edge3_Node000001_Node000004" class="edge">
<title>Node4&#45;&gt;Node1</title>
<g id="a_edge3_Node000001_Node000004"><a xlink:title=" ">
<path fill="none" stroke="#9a32cd" stroke-dasharray="5,2" d="M135.05,-85.09C131.28,-78.16 126.55,-70.51 121.25,-64.25 115.99,-58.04 109.68,-52.07 103.36,-46.71"/>
<polygon fill="#9a32cd" stroke="#9a32cd" points="132.19,-86.18 139.85,-93.5 138.43,-83 132.19,-86.18"/>
</a>
</g>
<text text-anchor="middle" x="155.5" y="-67.5" font-family="Helvetica,sans-Serif" font-size="10.00" fill="grey"> logger_ptr</text>
</g>
<!-- Node5 -->
<g id="Node000005" class="node">
<title>Node5</title>
<g id="a_Node000005"><a xlink:title=" ">
<polygon fill="white" stroke="#666666" points="198.38,-186.25 90.12,-186.25 90.12,-152.75 198.38,-152.75 198.38,-186.25"/>
<text text-anchor="start" x="98.12" y="-172.75" font-family="Helvetica,sans-Serif" font-size="10.00">std::basic_ostream</text>
<text text-anchor="middle" x="144.25" y="-160" font-family="Helvetica,sans-Serif" font-size="10.00">&lt; Char &gt;</text>
</a>
</g>
</g>
<!-- Node5&#45;&gt;Node4 -->
<g id="edge4_Node000004_Node000005" class="edge">
<title>Node5&#45;&gt;Node4</title>
<g id="a_edge4_Node000004_Node000005"><a xlink:title=" ">
<path fill="none" stroke="#63b8ff" d="M144.25,-141.53C144.25,-132.48 144.25,-122.96 144.25,-116.12"/>
<polygon fill="#63b8ff" stroke="#63b8ff" points="140.75,-141.5 144.25,-151.5 147.75,-141.5 140.75,-141.5"/>
</a>
</g>
</g>
<!-- Node6 -->
<g id="Node000006" class="node">
<title>Node6</title>
<g id="a_Node000006"><a xlink:title=" ">
<polygon fill="white" stroke="#666666" points="207.75,-244 80.75,-244 80.75,-223.25 207.75,-223.25 207.75,-244"/>
<text text-anchor="middle" x="144.25" y="-230.5" font-family="Helvetica,sans-Serif" font-size="10.00">std::basic_ios&lt; Char &gt;</text>
</a>
</g>
</g>
<!-- Node6&#45;&gt;Node5 -->
<g id="edge5_Node000005_Node000006" class="edge">
<title>Node6&#45;&gt;Node5</title>
<g id="a_edge5_Node000005_Node000006"><a xlink:title=" ">
<path fill="none" stroke="#63b8ff" d="M144.25,-211.96C144.25,-203.72 144.25,-194.39 144.25,-186.66"/>
<polygon fill="#63b8ff" stroke="#63b8ff" points="140.75,-211.92 144.25,-221.92 147.75,-211.92 140.75,-211.92"/>
</a>
</g>
</g>
<!-- Node7 -->
<g id="Node000007" class="node">
<title>Node7</title>
<g id="a_Node000007"><a xlink:title=" ">
<polygon fill="white" stroke="#666666" points="184.12,-301.75 104.38,-301.75 104.38,-281 184.12,-281 184.12,-301.75"/>
<text text-anchor="middle" x="144.25" y="-288.25" font-family="Helvetica,sans-Serif" font-size="10.00">std::ios_base</text>
</a>
</g>
</g>
<!-- Node7&#45;&gt;Node6 -->
<g id="edge6_Node000006_Node000007" class="edge">
<title>Node7&#45;&gt;Node6</title>
<g id="a_edge6_Node000006_Node000007"><a xlink:title=" ">
<path fill="none" stroke="#63b8ff" d="M144.25,-269.73C144.25,-260.99 144.25,-251.23 144.25,-244.22"/>
<polygon fill="#63b8ff" stroke="#63b8ff" points="140.75,-269.66 144.25,-279.66 147.75,-269.66 140.75,-269.66"/>
</a>
</g>
</g>
</g>
</svg>
