<?xml version="1.0" encoding="UTF-8" standalone="no"?>
<!DOCTYPE svg PUBLIC "-//W3C//DTD SVG 1.1//EN"
 "http://www.w3.org/Graphics/SVG/1.1/DTD/svg11.dtd">
<!-- Generated by graphviz version 12.2.1 (20250203.1708)
 -->
<!-- Title: proxsuite::linalg::veg::meta::array_extent&lt; T[N]&gt; Pages: 1 -->
<svg width="291pt" height="118pt"
 viewBox="0.00 0.00 291.25 118.25" xmlns="http://www.w3.org/2000/svg" xmlns:xlink="http://www.w3.org/1999/xlink">
<g id="graph0" class="graph" transform="scale(1 1) rotate(0) translate(4 114.25)">
<title>proxsuite::linalg::veg::meta::array_extent&lt; T[N]&gt;</title>
<!-- Node1 -->
<g id="Node000001" class="node">
<title>Node1</title>
<g id="a_Node000001"><a xlink:title=" ">
<polygon fill="#999999" stroke="#666666" points="283.25,-78.25 149.5,-78.25 149.5,-32 283.25,-32 283.25,-78.25"/>
<text text-anchor="start" x="157.5" y="-64.75" font-family="Helvetica,sans-Serif" font-size="10.00">proxsuite::linalg::</text>
<text text-anchor="start" x="157.5" y="-52" font-family="Helvetica,sans-Serif" font-size="10.00">veg::meta::array_extent</text>
<text text-anchor="middle" x="216.38" y="-39.25" font-family="Helvetica,sans-Serif" font-size="10.00">&lt; T[N]&gt;</text>
</a>
</g>
</g>
<!-- Node2 -->
<g id="Node000002" class="node">
<title>Node2</title>
<g id="a_Node000002"><a xlink:href="structproxsuite_1_1linalg_1_1veg_1_1meta_1_1constant.html" target="_top" xlink:title=" ">
<polygon fill="white" stroke="#666666" points="113.5,-110.25 0,-110.25 0,-64 113.5,-64 113.5,-110.25"/>
<text text-anchor="start" x="8" y="-96.75" font-family="Helvetica,sans-Serif" font-size="10.00">proxsuite::linalg::</text>
<text text-anchor="start" x="8" y="-84" font-family="Helvetica,sans-Serif" font-size="10.00">veg::meta::constant</text>
<text text-anchor="middle" x="56.75" y="-71.25" font-family="Helvetica,sans-Serif" font-size="10.00">&lt; usize, 0 &gt;</text>
</a>
</g>
</g>
<!-- Node2&#45;&gt;Node1 -->
<g id="edge1_Node000001_Node000002" class="edge">
<title>Node2&#45;&gt;Node1</title>
<g id="a_edge1_Node000001_Node000002"><a xlink:title=" ">
<path fill="none" stroke="#63b8ff" d="M124.92,-73.49C132.9,-71.87 141.05,-70.21 149.03,-68.59"/>
<polygon fill="#63b8ff" stroke="#63b8ff" points="124.35,-70.03 115.25,-75.45 125.75,-76.89 124.35,-70.03"/>
</a>
</g>
</g>
<!-- Node3 -->
<g id="Node000003" class="node">
<title>Node3</title>
<g id="a_Node000003"><a xlink:href="structproxsuite_1_1linalg_1_1veg_1_1meta_1_1constant.html" target="_top" xlink:title=" ">
<polygon fill="white" stroke="#666666" points="113.5,-46.25 0,-46.25 0,0 113.5,0 113.5,-46.25"/>
<text text-anchor="start" x="8" y="-32.75" font-family="Helvetica,sans-Serif" font-size="10.00">proxsuite::linalg::</text>
<text text-anchor="start" x="8" y="-20" font-family="Helvetica,sans-Serif" font-size="10.00">veg::meta::constant</text>
<text text-anchor="middle" x="56.75" y="-7.25" font-family="Helvetica,sans-Serif" font-size="10.00">&lt; usize, N &gt;</text>
</a>
</g>
</g>
<!-- Node3&#45;&gt;Node1 -->
<g id="edge2_Node000001_Node000003" class="edge">
<title>Node3&#45;&gt;Node1</title>
<g id="a_edge2_Node000001_Node000003"><a xlink:title=" ">
<path fill="none" stroke="#63b8ff" d="M124.92,-36.76C132.9,-38.38 141.05,-40.04 149.03,-41.66"/>
<polygon fill="#63b8ff" stroke="#63b8ff" points="125.75,-33.36 115.25,-34.8 124.35,-40.22 125.75,-33.36"/>
</a>
</g>
</g>
</g>
</svg>
