<?xml version="1.0" encoding="UTF-8" standalone="no"?>
<!DOCTYPE svg PUBLIC "-//W3C//DTD SVG 1.1//EN"
 "http://www.w3.org/Graphics/SVG/1.1/DTD/svg11.dtd">
<!-- Generated by graphviz version 8.1.0 (20230707.2238)
 -->
<!-- Title: proxsuite::linalg::veg::mem::BumpAlloc&lt; MaxAlign &gt; Pages: 1 -->
<svg width="520pt" height="118pt"
 viewBox="0.00 0.00 520.25 118.25" xmlns="http://www.w3.org/2000/svg" xmlns:xlink="http://www.w3.org/1999/xlink">
<g id="graph0" class="graph" transform="scale(1 1) rotate(0) translate(4 114.25)">
<title>proxsuite::linalg::veg::mem::BumpAlloc&lt; MaxAlign &gt;</title>
<!-- Node1 -->
<g id="Node000001" class="node">
<title>Node1</title>
<g id="a_Node000001"><a xlink:title=" ">
<polygon fill="#999999" stroke="#666666" points="329.75,-78.25 205.75,-78.25 205.75,-32 329.75,-32 329.75,-78.25"/>
<text text-anchor="start" x="213.75" y="-64.75" font-family="Helvetica,sans-Serif" font-size="10.00">proxsuite::linalg::</text>
<text text-anchor="start" x="213.75" y="-52" font-family="Helvetica,sans-Serif" font-size="10.00">veg::mem::BumpAlloc</text>
<text text-anchor="middle" x="267.75" y="-39.25" font-family="Helvetica,sans-Serif" font-size="10.00">&lt; MaxAlign &gt;</text>
</a>
</g>
</g>
<!-- Node3 -->
<g id="Node000003" class="node">
<title>Node3</title>
<g id="a_Node000003"><a xlink:href="structproxsuite_1_1linalg_1_1veg_1_1mem_1_1MonotonicAlloc.html" target="_top" xlink:title=" ">
<polygon fill="white" stroke="#666666" points="512.25,-110.25 365.75,-110.25 365.75,-64 512.25,-64 512.25,-110.25"/>
<text text-anchor="start" x="373.75" y="-96.75" font-family="Helvetica,sans-Serif" font-size="10.00">proxsuite::linalg::</text>
<text text-anchor="start" x="373.75" y="-84" font-family="Helvetica,sans-Serif" font-size="10.00">veg::mem::MonotonicAlloc</text>
<text text-anchor="middle" x="439" y="-71.25" font-family="Helvetica,sans-Serif" font-size="10.00">&lt; MaxAlign &gt;</text>
</a>
</g>
</g>
<!-- Node1&#45;&gt;Node3 -->
<g id="edge2_Node000001_Node000003" class="edge">
<title>Node1&#45;&gt;Node3</title>
<g id="a_edge2_Node000001_Node000003"><a xlink:title=" ">
<path fill="none" stroke="#8b1a1a" d="M340.56,-68.7C348.8,-70.26 357.21,-71.85 365.46,-73.41"/>
<polygon fill="#8b1a1a" stroke="#8b1a1a" points="341.33,-65.1 330.85,-66.68 340.03,-71.97 341.33,-65.1"/>
</a>
</g>
</g>
<!-- Node4 -->
<g id="Node000004" class="node">
<title>Node4</title>
<g id="a_Node000004"><a xlink:href="structproxsuite_1_1linalg_1_1veg_1_1mem_1_1StackAlloc.html" target="_top" xlink:title=" ">
<polygon fill="white" stroke="#666666" points="500.25,-46.25 377.75,-46.25 377.75,0 500.25,0 500.25,-46.25"/>
<text text-anchor="start" x="385.75" y="-32.75" font-family="Helvetica,sans-Serif" font-size="10.00">proxsuite::linalg::</text>
<text text-anchor="start" x="385.75" y="-20" font-family="Helvetica,sans-Serif" font-size="10.00">veg::mem::StackAlloc</text>
<text text-anchor="middle" x="439" y="-7.25" font-family="Helvetica,sans-Serif" font-size="10.00">&lt; MaxAlign &gt;</text>
</a>
</g>
</g>
<!-- Node1&#45;&gt;Node4 -->
<g id="edge3_Node000001_Node000004" class="edge">
<title>Node1&#45;&gt;Node4</title>
<g id="a_edge3_Node000001_Node000004"><a xlink:title=" ">
<path fill="none" stroke="#8b1a1a" d="M340.49,-41.56C352.74,-39.25 365.35,-36.86 377.27,-34.61"/>
<polygon fill="#8b1a1a" stroke="#8b1a1a" points="340.03,-38.28 330.85,-43.57 341.33,-45.15 340.03,-38.28"/>
</a>
</g>
</g>
<!-- Node2 -->
<g id="Node000002" class="node">
<title>Node2</title>
<g id="a_Node000002"><a xlink:href="structproxsuite_1_1linalg_1_1veg_1_1__detail_1_1__mem_1_1BumpAllocLayout.html" target="_top" xlink:title=" ">
<polygon fill="white" stroke="#666666" points="169.75,-78.25 0,-78.25 0,-32 169.75,-32 169.75,-78.25"/>
<text text-anchor="start" x="8" y="-64.75" font-family="Helvetica,sans-Serif" font-size="10.00">proxsuite::linalg::</text>
<text text-anchor="start" x="8" y="-52" font-family="Helvetica,sans-Serif" font-size="10.00">veg::_detail::_mem::</text>
<text text-anchor="middle" x="84.88" y="-39.25" font-family="Helvetica,sans-Serif" font-size="10.00">BumpAllocLayout&lt; MaxAlign &gt;</text>
</a>
</g>
</g>
<!-- Node2&#45;&gt;Node1 -->
<g id="edge1_Node000001_Node000002" class="edge">
<title>Node2&#45;&gt;Node1</title>
<g id="a_edge1_Node000001_Node000002"><a xlink:title=" ">
<path fill="none" stroke="#8b1a1a" d="M181.1,-55.12C189.37,-55.12 197.58,-55.12 205.46,-55.12"/>
<polygon fill="#8b1a1a" stroke="#8b1a1a" points="181.22,-51.63 171.22,-55.12 181.22,-58.63 181.22,-51.63"/>
</a>
</g>
</g>
</g>
</svg>
