<?xml version="1.0" encoding="UTF-8" standalone="no"?>
<!DOCTYPE svg PUBLIC "-//W3C//DTD SVG 1.1//EN"
 "http://www.w3.org/Graphics/SVG/1.1/DTD/svg11.dtd">
<!-- Generated by graphviz version 8.0.4 (20230426.1303)
 -->
<!-- Title: proxsuite::proxqp::dense::QpView&lt; T &gt; Pages: 1 -->
<svg width="145pt" height="244pt"
 viewBox="0.00 0.00 144.75 244.25" xmlns="http://www.w3.org/2000/svg" xmlns:xlink="http://www.w3.org/1999/xlink">
<g id="graph0" class="graph" transform="scale(1 1) rotate(0) translate(4 240.25)">
<title>proxsuite::proxqp::dense::QpView&lt; T &gt;</title>
<!-- Node1 -->
<g id="node1" class="node">
<title>Node1</title>
<g id="a_node1"><a xlink:title=" ">
<polygon fill="#999999" stroke="#666666" points="127,-33.5 9.75,-33.5 9.75,0 127,0 127,-33.5"/>
<text text-anchor="start" x="17.75" y="-20" font-family="Helvetica,sans-Serif" font-size="10.00">proxsuite::proxqp::</text>
<text text-anchor="middle" x="68.38" y="-7.25" font-family="Helvetica,sans-Serif" font-size="10.00">dense::QpView&lt; T &gt;</text>
</a>
</g>
</g>
<!-- Node2 -->
<g id="node2" class="node">
<title>Node2</title>
<g id="a_node2"><a xlink:href="structproxsuite_1_1proxqp_1_1MatrixView.html" target="_top" xlink:title=" ">
<polygon fill="white" stroke="#666666" points="136.75,-141.25 0,-141.25 0,-107.75 136.75,-107.75 136.75,-141.25"/>
<text text-anchor="start" x="8" y="-127.75" font-family="Helvetica,sans-Serif" font-size="10.00">proxsuite::proxqp::</text>
<text text-anchor="middle" x="68.38" y="-115" font-family="Helvetica,sans-Serif" font-size="10.00">MatrixView&lt; T, layout &gt;</text>
</a>
</g>
</g>
<!-- Node2&#45;&gt;Node1 -->
<g id="edge1" class="edge">
<title>Node2&#45;&gt;Node1</title>
<path fill="none" stroke="#9a32cd" stroke-dasharray="5,2" d="M68.38,-96.66C68.38,-76.89 68.38,-50.64 68.38,-33.96"/>
<polygon fill="#9a32cd" stroke="#9a32cd" points="64.88,-96.44 68.38,-106.44 71.88,-96.44 64.88,-96.44"/>
<text text-anchor="middle" x="73.25" y="-80.25" font-family="Helvetica,sans-Serif" font-size="10.00"> A</text>
<text text-anchor="middle" x="73.25" y="-67.5" font-family="Helvetica,sans-Serif" font-size="10.00">C</text>
<text text-anchor="middle" x="73.25" y="-54.75" font-family="Helvetica,sans-Serif" font-size="10.00">H</text>
</g>
<!-- Node3 -->
<g id="node3" class="node">
<title>Node3</title>
<g id="a_node3"><a xlink:title=" ">
<polygon fill="white" stroke="#666666" points="87.62,-236.25 49.12,-236.25 49.12,-215.5 87.62,-215.5 87.62,-236.25"/>
<text text-anchor="middle" x="68.38" y="-222.75" font-family="Helvetica,sans-Serif" font-size="10.00">isize</text>
</a>
</g>
</g>
<!-- Node3&#45;&gt;Node2 -->
<g id="edge2" class="edge">
<title>Node3&#45;&gt;Node2</title>
<path fill="none" stroke="#9a32cd" stroke-dasharray="5,2" d="M68.38,-204.56C68.38,-185.98 68.38,-158.84 68.38,-141.69"/>
<polygon fill="#9a32cd" stroke="#9a32cd" points="64.88,-204.35 68.38,-214.35 71.88,-204.35 64.88,-204.35"/>
<text text-anchor="middle" x="97.62" y="-188" font-family="Helvetica,sans-Serif" font-size="10.00"> cols</text>
<text text-anchor="middle" x="97.62" y="-175.25" font-family="Helvetica,sans-Serif" font-size="10.00">outer_stride</text>
<text text-anchor="middle" x="97.62" y="-162.5" font-family="Helvetica,sans-Serif" font-size="10.00">rows</text>
</g>
</g>
</svg>
