<?xml version="1.0" encoding="UTF-8" standalone="no"?>
<!DOCTYPE svg PUBLIC "-//W3C//DTD SVG 1.1//EN"
 "http://www.w3.org/Graphics/SVG/1.1/DTD/svg11.dtd">
<!-- Generated by graphviz version 11.0.0 (20240519.1550)
 -->
<!-- Title: proxsuite::proxqp::sparse::preconditioner::RuizEquilibration&lt; T, I &gt; Pages: 1 -->
<svg width="273pt" height="320pt"
 viewBox="0.00 0.00 272.75 319.50" xmlns="http://www.w3.org/2000/svg" xmlns:xlink="http://www.w3.org/1999/xlink">
<g id="graph0" class="graph" transform="scale(1 1) rotate(0) translate(4 315.5)">
<title>proxsuite::proxqp::sparse::preconditioner::RuizEquilibration&lt; T, I &gt;</title>
<!-- Node1 -->
<g id="Node000001" class="node">
<title>Node1</title>
<g id="a_Node000001"><a xlink:title=" ">
<polygon fill="#999999" stroke="#666666" points="171.25,-46.25 29.25,-46.25 29.25,0 171.25,0 171.25,-46.25"/>
<text text-anchor="start" x="37.25" y="-32.75" font-family="Helvetica,sans-Serif" font-size="10.00">proxsuite::proxqp::</text>
<text text-anchor="start" x="37.25" y="-20" font-family="Helvetica,sans-Serif" font-size="10.00">sparse::preconditioner</text>
<text text-anchor="middle" x="100.25" y="-7.25" font-family="Helvetica,sans-Serif" font-size="10.00">::RuizEquilibration&lt; T, I &gt;</text>
</a>
</g>
</g>
<!-- Node2 -->
<g id="Node000002" class="node">
<title>Node2</title>
<g id="a_Node000002"><a xlink:title=" ">
<polygon fill="white" stroke="#666666" points="38.5,-128.5 0,-128.5 0,-107.75 38.5,-107.75 38.5,-128.5"/>
<text text-anchor="middle" x="19.25" y="-115" font-family="Helvetica,sans-Serif" font-size="10.00">isize</text>
</a>
</g>
</g>
<!-- Node2&#45;&gt;Node1 -->
<g id="edge1_Node000001_Node000002" class="edge">
<title>Node2&#45;&gt;Node1</title>
<g id="a_edge1_Node000001_Node000002"><a xlink:title=" ">
<path fill="none" stroke="#9a32cd" stroke-dasharray="5,2" d="M30.98,-97.5C37.55,-87.17 46.23,-74.53 55.25,-64.25 60.63,-58.11 66.92,-51.99 73.05,-46.44"/>
<polygon fill="#9a32cd" stroke="#9a32cd" points="28.03,-95.62 25.76,-105.96 33.99,-99.29 28.03,-95.62"/>
</a>
</g>
<text text-anchor="middle" x="59.75" y="-73.88" font-family="Helvetica,sans-Serif" font-size="10.00" fill="grey"> n</text>
</g>
<!-- Node3 -->
<g id="Node000003" class="node">
<title>Node3</title>
<g id="a_Node000003"><a xlink:title=" ">
<polygon fill="white" stroke="#666666" points="85.65,-128.5 56.85,-128.5 56.85,-107.75 85.65,-107.75 85.65,-128.5"/>
<text text-anchor="middle" x="71.25" y="-115" font-family="Helvetica,sans-Serif" font-size="10.00">T</text>
</a>
</g>
</g>
<!-- Node3&#45;&gt;Node1 -->
<g id="edge2_Node000001_Node000003" class="edge">
<title>Node3&#45;&gt;Node1</title>
<g id="a_edge2_Node000001_Node000003"><a xlink:title=" ">
<path fill="none" stroke="#9a32cd" stroke-dasharray="5,2" d="M68.74,-96.25C68.24,-86.33 68.69,-74.44 72,-64.25 74,-58.09 77.3,-52.05 80.96,-46.61"/>
<polygon fill="#9a32cd" stroke="#9a32cd" points="65.23,-96.32 69.59,-105.98 72.2,-95.71 65.23,-96.32"/>
</a>
</g>
<text text-anchor="middle" x="88.88" y="-80.25" font-family="Helvetica,sans-Serif" font-size="10.00" fill="grey"> c</text>
<text text-anchor="middle" x="88.88" y="-67.5" font-family="Helvetica,sans-Serif" font-size="10.00" fill="grey">epsilon</text>
</g>
<!-- Node4 -->
<g id="Node000004" class="node">
<title>Node4</title>
<g id="a_Node000004"><a xlink:title=" ">
<polygon fill="white" stroke="#666666" points="144.75,-128.5 113.75,-128.5 113.75,-107.75 144.75,-107.75 144.75,-128.5"/>
<text text-anchor="middle" x="129.25" y="-115" font-family="Helvetica,sans-Serif" font-size="10.00">i64</text>
</a>
</g>
</g>
<!-- Node4&#45;&gt;Node1 -->
<g id="edge3_Node000001_Node000004" class="edge">
<title>Node4&#45;&gt;Node1</title>
<g id="a_edge3_Node000001_Node000004"><a xlink:title=" ">
<path fill="none" stroke="#9a32cd" stroke-dasharray="5,2" d="M122.96,-96.94C118.32,-82.07 112.01,-61.85 107.22,-46.49"/>
<polygon fill="#9a32cd" stroke="#9a32cd" points="119.49,-97.57 125.81,-106.08 126.17,-95.49 119.49,-97.57"/>
</a>
</g>
<text text-anchor="middle" x="143.5" y="-73.88" font-family="Helvetica,sans-Serif" font-size="10.00" fill="grey"> max_iter</text>
</g>
<!-- Node5 -->
<g id="Node000005" class="node">
<title>Node5</title>
<g id="a_Node000005"><a xlink:title=" ">
<polygon fill="white" stroke="#666666" points="240,-128.5 162.5,-128.5 162.5,-107.75 240,-107.75 240,-128.5"/>
<text text-anchor="middle" x="201.25" y="-115" font-family="Helvetica,sans-Serif" font-size="10.00">std::ostream</text>
</a>
</g>
</g>
<!-- Node5&#45;&gt;Node1 -->
<g id="edge4_Node000001_Node000005" class="edge">
<title>Node5&#45;&gt;Node1</title>
<g id="a_edge4_Node000001_Node000005"><a xlink:title=" ">
<path fill="none" stroke="#9a32cd" stroke-dasharray="5,2" d="M193.04,-97.04C187.94,-86.36 180.57,-73.56 171.25,-64.25 164.64,-57.65 156.71,-51.78 148.6,-46.71"/>
<polygon fill="#9a32cd" stroke="#9a32cd" points="189.81,-98.41 197.06,-106.14 196.22,-95.58 189.81,-98.41"/>
</a>
</g>
<text text-anchor="middle" x="215.5" y="-73.88" font-family="Helvetica,sans-Serif" font-size="10.00" fill="grey"> logger_ptr</text>
</g>
<!-- Node6 -->
<g id="Node000006" class="node">
<title>Node6</title>
<g id="a_Node000006"><a xlink:title=" ">
<polygon fill="white" stroke="#666666" points="255.38,-198 147.12,-198 147.12,-164.5 255.38,-164.5 255.38,-198"/>
<text text-anchor="start" x="155.12" y="-184.5" font-family="Helvetica,sans-Serif" font-size="10.00">std::basic_ostream</text>
<text text-anchor="middle" x="201.25" y="-171.75" font-family="Helvetica,sans-Serif" font-size="10.00">&lt; Char &gt;</text>
</a>
</g>
</g>
<!-- Node6&#45;&gt;Node5 -->
<g id="edge5_Node000005_Node000006" class="edge">
<title>Node6&#45;&gt;Node5</title>
<g id="a_edge5_Node000005_Node000006"><a xlink:title=" ">
<path fill="none" stroke="#63b8ff" d="M201.25,-152.69C201.25,-144.21 201.25,-135.42 201.25,-128.97"/>
<polygon fill="#63b8ff" stroke="#63b8ff" points="197.75,-152.68 201.25,-162.68 204.75,-152.68 197.75,-152.68"/>
</a>
</g>
</g>
<!-- Node7 -->
<g id="Node000007" class="node">
<title>Node7</title>
<g id="a_Node000007"><a xlink:title=" ">
<polygon fill="white" stroke="#666666" points="264.75,-254.75 137.75,-254.75 137.75,-234 264.75,-234 264.75,-254.75"/>
<text text-anchor="middle" x="201.25" y="-241.25" font-family="Helvetica,sans-Serif" font-size="10.00">std::basic_ios&lt; Char &gt;</text>
</a>
</g>
</g>
<!-- Node7&#45;&gt;Node6 -->
<g id="edge6_Node000006_Node000007" class="edge">
<title>Node7&#45;&gt;Node6</title>
<g id="a_edge6_Node000006_Node000007"><a xlink:title=" ">
<path fill="none" stroke="#63b8ff" d="M201.25,-222.09C201.25,-214.35 201.25,-205.72 201.25,-198.48"/>
<polygon fill="#63b8ff" stroke="#63b8ff" points="197.75,-222.04 201.25,-232.04 204.75,-222.04 197.75,-222.04"/>
</a>
</g>
</g>
<!-- Node8 -->
<g id="Node000008" class="node">
<title>Node8</title>
<g id="a_Node000008"><a xlink:title=" ">
<polygon fill="white" stroke="#666666" points="241.12,-311.5 161.38,-311.5 161.38,-290.75 241.12,-290.75 241.12,-311.5"/>
<text text-anchor="middle" x="201.25" y="-298" font-family="Helvetica,sans-Serif" font-size="10.00">std::ios_base</text>
</a>
</g>
</g>
<!-- Node8&#45;&gt;Node7 -->
<g id="edge7_Node000007_Node000008" class="edge">
<title>Node8&#45;&gt;Node7</title>
<g id="a_edge7_Node000007_Node000008"><a xlink:title=" ">
<path fill="none" stroke="#63b8ff" d="M201.25,-278.88C201.25,-270.66 201.25,-261.68 201.25,-255.08"/>
<polygon fill="#63b8ff" stroke="#63b8ff" points="197.75,-278.82 201.25,-288.82 204.75,-278.82 197.75,-278.82"/>
</a>
</g>
</g>
</g>
</svg>
