<?xml version="1.0" encoding="UTF-8" standalone="no"?>
<!DOCTYPE svg PUBLIC "-//W3C//DTD SVG 1.1//EN"
 "http://www.w3.org/Graphics/SVG/1.1/DTD/svg11.dtd">
<!-- Generated by graphviz version 8.1.0 (20230707.2238)
 -->
<!-- Title: proxsuite::linalg::veg::_detail::_meta::is_pointer&lt; T &gt; Pages: 1 -->
<svg width="258pt" height="124pt"
 viewBox="0.00 0.00 257.75 123.75" xmlns="http://www.w3.org/2000/svg" xmlns:xlink="http://www.w3.org/1999/xlink">
<g id="graph0" class="graph" transform="scale(1 1) rotate(0) translate(4 119.75)">
<title>proxsuite::linalg::veg::_detail::_meta::is_pointer&lt; T &gt;</title>
<!-- Node1 -->
<g id="Node000001" class="node">
<title>Node1</title>
<g id="a_Node000001"><a xlink:title=" ">
<polygon fill="#999999" stroke="#666666" points="155.38,-46.25 45.63,-46.25 45.63,0 155.38,0 155.38,-46.25"/>
<text text-anchor="start" x="53.62" y="-32.75" font-family="Helvetica,sans-Serif" font-size="10.00">proxsuite::linalg::</text>
<text text-anchor="start" x="53.62" y="-20" font-family="Helvetica,sans-Serif" font-size="10.00">veg::_detail::_meta</text>
<text text-anchor="middle" x="100.5" y="-7.25" font-family="Helvetica,sans-Serif" font-size="10.00">::is_pointer&lt; T &gt;</text>
</a>
</g>
</g>
<!-- Node2 -->
<g id="Node000002" class="node">
<title>Node2</title>
<g id="a_Node000002"><a xlink:href="structproxsuite_1_1linalg_1_1veg_1_1meta_1_1constant.html" target="_top" xlink:title=" ">
<polygon fill="white" stroke="#666666" points="67,-109.38 0,-109.38 0,-88.62 67,-88.62 67,-109.38"/>
<text text-anchor="middle" x="33.5" y="-95.88" font-family="Helvetica,sans-Serif" font-size="10.00">false_type</text>
</a>
</g>
</g>
<!-- Node2&#45;&gt;Node1 -->
<g id="edge1_Node000001_Node000002" class="edge">
<title>Node2&#45;&gt;Node1</title>
<g id="a_edge1_Node000001_Node000002"><a xlink:title=" ">
<path fill="none" stroke="#63b8ff" d="M49.6,-80.25C58.78,-70.12 70.38,-57.33 80.18,-46.52"/>
<polygon fill="#63b8ff" stroke="#63b8ff" points="47.38,-77.58 43.26,-87.34 52.57,-82.29 47.38,-77.58"/>
</a>
</g>
</g>
<!-- Node3 -->
<g id="Node000003" class="node">
<title>Node3</title>
<g id="a_Node000003"><a xlink:href="structproxsuite_1_1linalg_1_1veg_1_1meta_1_1type__identity.html" target="_top" xlink:title=" ">
<polygon fill="white" stroke="#666666" points="249.75,-115.75 85.25,-115.75 85.25,-82.25 249.75,-82.25 249.75,-115.75"/>
<text text-anchor="start" x="93.25" y="-102.25" font-family="Helvetica,sans-Serif" font-size="10.00">proxsuite::linalg::</text>
<text text-anchor="middle" x="167.5" y="-89.5" font-family="Helvetica,sans-Serif" font-size="10.00">veg::meta::type_identity&lt; T &gt;</text>
</a>
</g>
</g>
<!-- Node3&#45;&gt;Node1 -->
<g id="edge2_Node000001_Node000003" class="edge">
<title>Node3&#45;&gt;Node1</title>
<g id="a_edge2_Node000001_Node000003"><a xlink:title=" ">
<path fill="none" stroke="#63b8ff" d="M145.69,-73.95C137.7,-65.15 128.71,-55.23 120.86,-46.57"/>
<polygon fill="#63b8ff" stroke="#63b8ff" points="142.65,-75.91 151.96,-80.97 147.84,-71.21 142.65,-75.91"/>
</a>
</g>
</g>
</g>
</svg>
