<?xml version="1.0" encoding="UTF-8" standalone="no"?>
<!DOCTYPE svg PUBLIC "-//W3C//DTD SVG 1.1//EN"
 "http://www.w3.org/Graphics/SVG/1.1/DTD/svg11.dtd">
<!-- Generated by graphviz version 7.1.0 (20230122.1345)
 -->
<!-- Title: proxsuite::proxqp::Settings&lt; T &gt; Pages: 1 -->
<svg width="180pt" height="159pt"
 viewBox="0.00 0.00 180.00 159.00" xmlns="http://www.w3.org/2000/svg" xmlns:xlink="http://www.w3.org/1999/xlink">
<g id="graph0" class="graph" transform="scale(1 1) rotate(0) translate(4 155)">
<title>proxsuite::proxqp::Settings&lt; T &gt;</title>
<!-- Node1 -->
<g id="node1" class="node">
<title>Node1</title>
<g id="a_node1"><a xlink:title="This class defines the settings of PROXQP solvers with sparse and dense backends.">
<polygon fill="#999999" stroke="#666666" points="108,-30 0,-30 0,0 108,0 108,-30"/>
<text text-anchor="start" x="8" y="-18" font-family="Helvetica,sans-Serif" font-size="10.00">proxsuite::proxqp::</text>
<text text-anchor="middle" x="54" y="-7" font-family="Helvetica,sans-Serif" font-size="10.00">Settings&lt; T &gt;</text>
</a>
</g>
</g>
<!-- Node2 -->
<g id="node2" class="node">
<title>Node2</title>
<g id="a_node2"><a xlink:title=" ">
<polygon fill="white" stroke="#666666" points="73.5,-151 34.5,-151 34.5,-132 73.5,-132 73.5,-151"/>
<text text-anchor="middle" x="54" y="-139" font-family="Helvetica,sans-Serif" font-size="10.00">isize</text>
</a>
</g>
</g>
<!-- Node2&#45;&gt;Node1 -->
<g id="edge1" class="edge">
<title>Node2&#45;&gt;Node1</title>
<path fill="none" stroke="#9a32cd" stroke-dasharray="5,2" d="M54,-120.11C54,-94.88 54,-52.56 54,-30.45"/>
<polygon fill="#9a32cd" stroke="#9a32cd" points="50.5,-120.03 54,-130.03 57.5,-120.03 50.5,-120.03"/>
<text text-anchor="middle" x="113" y="-106" font-family="Helvetica,sans-Serif" font-size="10.00"> max_iter</text>
<text text-anchor="middle" x="113" y="-95" font-family="Helvetica,sans-Serif" font-size="10.00">max_iter_in</text>
<text text-anchor="middle" x="113" y="-84" font-family="Helvetica,sans-Serif" font-size="10.00">nb_iterative_refinement</text>
<text text-anchor="start" x="54" y="-73" font-family="Helvetica,sans-Serif" font-size="10.00">preconditioner_max</text>
<text text-anchor="middle" x="113" y="-62" font-family="Helvetica,sans-Serif" font-size="10.00">_iter</text>
<text text-anchor="middle" x="113" y="-51" font-family="Helvetica,sans-Serif" font-size="10.00">safe_guard</text>
</g>
</g>
</svg>
