<?xml version="1.0" encoding="UTF-8" standalone="no"?>
<!DOCTYPE svg PUBLIC "-//W3C//DTD SVG 1.1//EN"
 "http://www.w3.org/Graphics/SVG/1.1/DTD/svg11.dtd">
<!-- Generated by graphviz version 7.0.6 (20230107.1202)
 -->
<!-- Title: proxsuite::linalg::veg::_detail::_meta::is_pointer&lt; T &gt; Pages: 1 -->
<svg width="260pt" height="115pt"
 viewBox="0.00 0.00 259.50 115.00" xmlns="http://www.w3.org/2000/svg" xmlns:xlink="http://www.w3.org/1999/xlink">
<g id="graph0" class="graph" transform="scale(1 1) rotate(0) translate(4 111)">
<title>proxsuite::linalg::veg::_detail::_meta::is_pointer&lt; T &gt;</title>
<!-- Node1 -->
<g id="node1" class="node">
<title>Node1</title>
<g id="a_node1"><a xlink:title=" ">
<polygon fill="#999999" stroke="#666666" points="156,-41 46,-41 46,0 156,0 156,-41"/>
<text text-anchor="start" x="54" y="-29" font-family="Helvetica,sans-Serif" font-size="10.00">proxsuite::linalg::</text>
<text text-anchor="start" x="54" y="-18" font-family="Helvetica,sans-Serif" font-size="10.00">veg::_detail::_meta</text>
<text text-anchor="middle" x="101" y="-7" font-family="Helvetica,sans-Serif" font-size="10.00">::is_pointer&lt; T &gt;</text>
</a>
</g>
</g>
<!-- Node2 -->
<g id="node2" class="node">
<title>Node2</title>
<g id="a_node2"><a xlink:href="structproxsuite_1_1linalg_1_1veg_1_1meta_1_1constant.html" target="_top" xlink:title=" ">
<polygon fill="white" stroke="#666666" points="68,-101.5 0,-101.5 0,-82.5 68,-82.5 68,-101.5"/>
<text text-anchor="middle" x="34" y="-89.5" font-family="Helvetica,sans-Serif" font-size="10.00">false_type</text>
</a>
</g>
</g>
<!-- Node2&#45;&gt;Node1 -->
<g id="edge1" class="edge">
<title>Node2&#45;&gt;Node1</title>
<path fill="none" stroke="#63b8ff" d="M50.39,-74C59.92,-64.11 71.97,-51.62 81.92,-41.29"/>
<polygon fill="#63b8ff" stroke="#63b8ff" points="47.96,-71.48 43.54,-81.11 53,-76.34 47.96,-71.48"/>
</g>
<!-- Node3 -->
<g id="node3" class="node">
<title>Node3</title>
<g id="a_node3"><a xlink:href="structproxsuite_1_1linalg_1_1veg_1_1meta_1_1type__identity.html" target="_top" xlink:title=" ">
<polygon fill="white" stroke="#666666" points="251.5,-107 86.5,-107 86.5,-77 251.5,-77 251.5,-107"/>
<text text-anchor="start" x="94.5" y="-95" font-family="Helvetica,sans-Serif" font-size="10.00">proxsuite::linalg::</text>
<text text-anchor="middle" x="169" y="-84" font-family="Helvetica,sans-Serif" font-size="10.00">veg::meta::type_identity&lt; T &gt;</text>
</a>
</g>
</g>
<!-- Node3&#45;&gt;Node1 -->
<g id="edge2" class="edge">
<title>Node3&#45;&gt;Node1</title>
<path fill="none" stroke="#63b8ff" d="M146.88,-68.39C138.37,-59.69 128.73,-49.84 120.49,-41.42"/>
<polygon fill="#63b8ff" stroke="#63b8ff" points="144.36,-70.82 153.85,-75.52 149.36,-65.92 144.36,-70.82"/>
</g>
</g>
</svg>
