<?xml version="1.0" encoding="UTF-8" standalone="no"?>
<!DOCTYPE svg PUBLIC "-//W3C//DTD SVG 1.1//EN"
 "http://www.w3.org/Graphics/SVG/1.1/DTD/svg11.dtd">
<!-- Generated by graphviz version 5.0.0 (20220707.2338)
 -->
<!-- Title: proxsuite::proxqp::sparse::Ldlt&lt; T, I &gt; Pages: 1 -->
<svg width="558pt" height="203pt"
 viewBox="0.00 0.00 558.00 202.50" xmlns="http://www.w3.org/2000/svg" xmlns:xlink="http://www.w3.org/1999/xlink">
<g id="graph0" class="graph" transform="scale(1 1) rotate(0) translate(4 198.5)">
<title>proxsuite::proxqp::sparse::Ldlt&lt; T, I &gt;</title>
<!-- Node1 -->
<g id="node1" class="node">
<title>Node1</title>
<g id="a_node1"><a xlink:title=" ">
<polygon fill="#bfbfbf" stroke="black" points="440,-98.5 440,-128.5 550,-128.5 550,-98.5 440,-98.5"/>
<text text-anchor="start" x="448" y="-116.5" font-family="Helvetica,sans-Serif" font-size="10.00">proxsuite::proxqp::</text>
<text text-anchor="middle" x="495" y="-105.5" font-family="Helvetica,sans-Serif" font-size="10.00">sparse::Ldlt&lt; T, I &gt;</text>
</a>
</g>
</g>
<!-- Node2 -->
<g id="node2" class="node">
<title>Node2</title>
<g id="a_node2"><a xlink:href="structproxsuite_1_1linalg_1_1veg_1_1Vec.html" target="_top" xlink:title=" ">
<polygon fill="none" stroke="black" points="245,-98.5 245,-128.5 346,-128.5 346,-98.5 245,-98.5"/>
<text text-anchor="start" x="253" y="-116.5" font-family="Helvetica,sans-Serif" font-size="10.00">proxsuite::linalg::</text>
<text text-anchor="middle" x="295.5" y="-105.5" font-family="Helvetica,sans-Serif" font-size="10.00">veg::Vec&lt; I &gt;</text>
</a>
</g>
</g>
<!-- Node2&#45;&gt;Node1 -->
<g id="edge1" class="edge">
<title>Node2&#45;&gt;Node1</title>
<path fill="none" stroke="#9a32cd" stroke-dasharray="5,2" d="M356.41,-113.5C382.98,-113.5 414.02,-113.5 439.88,-113.5"/>
<polygon fill="#9a32cd" stroke="#9a32cd" points="356.08,-110 346.08,-113.5 356.08,-117 356.08,-110"/>
<text text-anchor="middle" x="393" y="-171.5" font-family="Helvetica,sans-Serif" font-size="10.00"> col_ptrs</text>
<text text-anchor="middle" x="393" y="-160.5" font-family="Helvetica,sans-Serif" font-size="10.00">etree</text>
<text text-anchor="middle" x="393" y="-149.5" font-family="Helvetica,sans-Serif" font-size="10.00">nnz_counts</text>
<text text-anchor="middle" x="393" y="-138.5" font-family="Helvetica,sans-Serif" font-size="10.00">perm</text>
<text text-anchor="middle" x="393" y="-127.5" font-family="Helvetica,sans-Serif" font-size="10.00">perm_inv</text>
<text text-anchor="middle" x="393" y="-116.5" font-family="Helvetica,sans-Serif" font-size="10.00">row_indices</text>
</g>
<!-- Node3 -->
<g id="node3" class="node">
<title>Node3</title>
<g id="a_node3"><a xlink:href="structproxsuite_1_1linalg_1_1veg_1_1__detail_1_1__vector_1_1adl_1_1AdlBase.html" target="_top" xlink:title=" ">
<polygon fill="none" stroke="black" points="46,-153 46,-194 162,-194 162,-153 46,-153"/>
<text text-anchor="start" x="54" y="-182" font-family="Helvetica,sans-Serif" font-size="10.00">proxsuite::linalg::</text>
<text text-anchor="start" x="54" y="-171" font-family="Helvetica,sans-Serif" font-size="10.00">veg::_detail::_vector</text>
<text text-anchor="middle" x="104" y="-160" font-family="Helvetica,sans-Serif" font-size="10.00">::adl::AdlBase</text>
</a>
</g>
</g>
<!-- Node3&#45;&gt;Node2 -->
<g id="edge2" class="edge">
<title>Node3&#45;&gt;Node2</title>
<path fill="none" stroke="#8b1a1a" d="M171.7,-154.61C183.81,-151.02 196.31,-147.23 208,-143.5 222.54,-138.86 238.34,-133.49 252.41,-128.58"/>
<polygon fill="#8b1a1a" stroke="#8b1a1a" points="170.7,-151.25 162.09,-157.43 172.67,-157.97 170.7,-151.25"/>
</g>
<!-- Node4 -->
<g id="node4" class="node">
<title>Node4</title>
<g id="a_node4"><a xlink:title=" ">
<polygon fill="none" stroke="black" points="0,-93 0,-134 208,-134 208,-93 0,-93"/>
<text text-anchor="start" x="8" y="-122" font-family="Helvetica,sans-Serif" font-size="10.00">meta::if_t&lt; mem::CopyAvailable</text>
<text text-anchor="start" x="8" y="-111" font-family="Helvetica,sans-Serif" font-size="10.00">For&lt;I &gt;::value ==mem::CopyAvailable</text>
<text text-anchor="middle" x="104" y="-100" font-family="Helvetica,sans-Serif" font-size="10.00">::no, _detail::NoCopy, _detail::Empty &gt;</text>
</a>
</g>
</g>
<!-- Node4&#45;&gt;Node2 -->
<g id="edge3" class="edge">
<title>Node4&#45;&gt;Node2</title>
<path fill="none" stroke="#8b1a1a" d="M218.11,-113.5C227.29,-113.5 236.23,-113.5 244.57,-113.5"/>
<polygon fill="#8b1a1a" stroke="#8b1a1a" points="218.07,-110 208.07,-113.5 218.07,-117 218.07,-110"/>
</g>
<!-- Node5 -->
<g id="node5" class="node">
<title>Node5</title>
<g id="a_node5"><a xlink:href="structproxsuite_1_1linalg_1_1veg_1_1__detail_1_1__collections_1_1VecImpl.html" target="_top" xlink:title=" ">
<polygon fill="none" stroke="black" points="15.5,-0.5 15.5,-74.5 192.5,-74.5 192.5,-0.5 15.5,-0.5"/>
<text text-anchor="start" x="23.5" y="-62.5" font-family="Helvetica,sans-Serif" font-size="10.00">proxsuite::linalg::</text>
<text text-anchor="start" x="23.5" y="-51.5" font-family="Helvetica,sans-Serif" font-size="10.00">veg::_detail::_collections</text>
<text text-anchor="start" x="23.5" y="-40.5" font-family="Helvetica,sans-Serif" font-size="10.00">::VecImpl&lt; I, mem::SystemAlloc,</text>
<text text-anchor="start" x="23.5" y="-29.5" font-family="Helvetica,sans-Serif" font-size="10.00"> mem::DtorAvailableFor&lt; I &gt;</text>
<text text-anchor="start" x="23.5" y="-18.5" font-family="Helvetica,sans-Serif" font-size="10.00">::value, mem::CopyAvailableFor</text>
<text text-anchor="middle" x="104" y="-7.5" font-family="Helvetica,sans-Serif" font-size="10.00">&lt; I &gt;::value &gt;</text>
</a>
</g>
</g>
<!-- Node5&#45;&gt;Node2 -->
<g id="edge4" class="edge">
<title>Node5&#45;&gt;Node2</title>
<path fill="none" stroke="midnightblue" d="M201.86,-76.35C221.5,-84.22 241.02,-92.05 257.03,-98.47"/>
<polygon fill="midnightblue" stroke="midnightblue" points="203.12,-73.08 192.54,-72.61 200.52,-79.58 203.12,-73.08"/>
</g>
</g>
</svg>
