<?xml version="1.0" encoding="UTF-8" standalone="no"?>
<!DOCTYPE svg PUBLIC "-//W3C//DTD SVG 1.1//EN"
 "http://www.w3.org/Graphics/SVG/1.1/DTD/svg11.dtd">
<!-- Generated by graphviz version 8.0.4 (20230426.1303)
 -->
<!-- Title: proxsuite::linalg::sparse::SymbolicMatMut&lt; I &gt; Pages: 1 -->
<svg width="170pt" height="206pt"
 viewBox="0.00 0.00 170.25 206.00" xmlns="http://www.w3.org/2000/svg" xmlns:xlink="http://www.w3.org/1999/xlink">
<g id="graph0" class="graph" transform="scale(1 1) rotate(0) translate(4 202)">
<title>proxsuite::linalg::sparse::SymbolicMatMut&lt; I &gt;</title>
<!-- Node1 -->
<g id="node1" class="node">
<title>Node1</title>
<g id="a_node1"><a xlink:title=" ">
<polygon fill="#999999" stroke="#666666" points="162.25,-33.5 0,-33.5 0,0 162.25,0 162.25,-33.5"/>
<text text-anchor="start" x="8" y="-20" font-family="Helvetica,sans-Serif" font-size="10.00">proxsuite::linalg::</text>
<text text-anchor="middle" x="81.12" y="-7.25" font-family="Helvetica,sans-Serif" font-size="10.00">sparse::SymbolicMatMut&lt; I &gt;</text>
</a>
</g>
</g>
<!-- Node2 -->
<g id="node2" class="node">
<title>Node2</title>
<g id="a_node2"><a xlink:href="structproxsuite_1_1linalg_1_1sparse_1_1__detail_1_1SymbolicMatMutInterface.html" target="_top" xlink:title=" ">
<polygon fill="white" stroke="#666666" points="159.62,-115.75 2.62,-115.75 2.62,-69.5 159.62,-69.5 159.62,-115.75"/>
<text text-anchor="start" x="10.62" y="-102.25" font-family="Helvetica,sans-Serif" font-size="10.00">proxsuite::linalg::</text>
<text text-anchor="start" x="10.62" y="-89.5" font-family="Helvetica,sans-Serif" font-size="10.00">sparse::_detail::SymbolicMat</text>
<text text-anchor="middle" x="81.12" y="-76.75" font-family="Helvetica,sans-Serif" font-size="10.00">MutInterface&lt; D, I &gt;</text>
</a>
</g>
</g>
<!-- Node2&#45;&gt;Node1 -->
<g id="edge1" class="edge">
<title>Node2&#45;&gt;Node1</title>
<path fill="none" stroke="#63b8ff" d="M81.12,-58.22C81.12,-49.74 81.12,-41.02 81.12,-33.85"/>
<polygon fill="#63b8ff" stroke="#63b8ff" points="77.63,-58.06 81.12,-68.06 84.63,-58.06 77.63,-58.06"/>
</g>
<!-- Node3 -->
<g id="node3" class="node">
<title>Node3</title>
<g id="a_node3"><a xlink:href="structproxsuite_1_1linalg_1_1sparse_1_1__detail_1_1SymbolicMatRefInterface.html" target="_top" xlink:title=" ">
<polygon fill="white" stroke="#666666" points="159.62,-198 2.62,-198 2.62,-151.75 159.62,-151.75 159.62,-198"/>
<text text-anchor="start" x="10.62" y="-184.5" font-family="Helvetica,sans-Serif" font-size="10.00">proxsuite::linalg::</text>
<text text-anchor="start" x="10.62" y="-171.75" font-family="Helvetica,sans-Serif" font-size="10.00">sparse::_detail::SymbolicMat</text>
<text text-anchor="middle" x="81.12" y="-159" font-family="Helvetica,sans-Serif" font-size="10.00">RefInterface&lt; D, I &gt;</text>
</a>
</g>
</g>
<!-- Node3&#45;&gt;Node2 -->
<g id="edge2" class="edge">
<title>Node3&#45;&gt;Node2</title>
<path fill="none" stroke="#63b8ff" d="M81.12,-140.65C81.12,-132.4 81.12,-123.74 81.12,-116.14"/>
<polygon fill="#63b8ff" stroke="#63b8ff" points="77.63,-140.52 81.12,-150.52 84.63,-140.52 77.63,-140.52"/>
</g>
</g>
</svg>
