<?xml version="1.0" encoding="UTF-8" standalone="no"?>
<!DOCTYPE svg PUBLIC "-//W3C//DTD SVG 1.1//EN"
 "http://www.w3.org/Graphics/SVG/1.1/DTD/svg11.dtd">
<!-- Generated by graphviz version 7.1.0 (20230122.1345)
 -->
<!-- Title: proxsuite::linalg::veg::_detail::_collections::AllocCleanup&lt; A &gt; Pages: 1 -->
<svg width="260pt" height="193pt"
 viewBox="0.00 0.00 259.50 193.00" xmlns="http://www.w3.org/2000/svg" xmlns:xlink="http://www.w3.org/1999/xlink">
<g id="graph0" class="graph" transform="scale(1 1) rotate(0) translate(4 189)">
<title>proxsuite::linalg::veg::_detail::_collections::AllocCleanup&lt; A &gt;</title>
<!-- Node1 -->
<g id="node1" class="node">
<title>Node1</title>
<g id="a_node1"><a xlink:title=" ">
<polygon fill="#999999" stroke="#666666" points="236.5,-41 99.5,-41 99.5,0 236.5,0 236.5,-41"/>
<text text-anchor="start" x="107.5" y="-29" font-family="Helvetica,sans-Serif" font-size="10.00">proxsuite::linalg::</text>
<text text-anchor="start" x="107.5" y="-18" font-family="Helvetica,sans-Serif" font-size="10.00">veg::_detail::_collections</text>
<text text-anchor="middle" x="168" y="-7" font-family="Helvetica,sans-Serif" font-size="10.00">::AllocCleanup&lt; A &gt;</text>
</a>
</g>
</g>
<!-- Node2 -->
<g id="node2" class="node">
<title>Node2</title>
<g id="a_node2"><a xlink:href="structproxsuite_1_1linalg_1_1veg_1_1RefMut.html" target="_top" xlink:title=" ">
<polygon fill="white" stroke="#666666" points="128.5,-118 23.5,-118 23.5,-88 128.5,-88 128.5,-118"/>
<text text-anchor="start" x="31.5" y="-106" font-family="Helvetica,sans-Serif" font-size="10.00">proxsuite::linalg::</text>
<text text-anchor="middle" x="76" y="-95" font-family="Helvetica,sans-Serif" font-size="10.00">veg::RefMut&lt; A &gt;</text>
</a>
</g>
</g>
<!-- Node2&#45;&gt;Node1 -->
<g id="edge1" class="edge">
<title>Node2&#45;&gt;Node1</title>
<path fill="none" stroke="#9a32cd" stroke-dasharray="5,2" d="M101.03,-80.1C114.9,-67.96 132.02,-52.98 145.47,-41.21"/>
<polygon fill="#9a32cd" stroke="#9a32cd" points="98.81,-77.39 93.59,-86.61 103.42,-82.66 98.81,-77.39"/>
<text text-anchor="middle" x="138.5" y="-62" font-family="Helvetica,sans-Serif" font-size="10.00"> alloc</text>
</g>
<!-- Node3 -->
<g id="node3" class="node">
<title>Node3</title>
<g id="a_node3"><a xlink:href="structproxsuite_1_1linalg_1_1veg_1_1cmp_1_1mut_1_1RefMutBase.html" target="_top" xlink:title=" ">
<polygon fill="white" stroke="#666666" points="152,-185 0,-185 0,-155 152,-155 152,-185"/>
<text text-anchor="start" x="8" y="-173" font-family="Helvetica,sans-Serif" font-size="10.00">proxsuite::linalg::</text>
<text text-anchor="middle" x="76" y="-162" font-family="Helvetica,sans-Serif" font-size="10.00">veg::cmp::mut::RefMutBase</text>
</a>
</g>
</g>
<!-- Node3&#45;&gt;Node2 -->
<g id="edge2" class="edge">
<title>Node3&#45;&gt;Node2</title>
<path fill="none" stroke="#63b8ff" d="M76,-143.28C76,-134.81 76,-125.7 76,-118.39"/>
<polygon fill="#63b8ff" stroke="#63b8ff" points="72.5,-143.06 76,-153.06 79.5,-143.06 72.5,-143.06"/>
</g>
<!-- Node4 -->
<g id="node4" class="node">
<title>Node4</title>
<g id="a_node4"><a xlink:href="structproxsuite_1_1linalg_1_1veg_1_1mem_1_1Layout.html" target="_top" xlink:title=" ">
<polygon fill="white" stroke="#666666" points="251.5,-118 146.5,-118 146.5,-88 251.5,-88 251.5,-118"/>
<text text-anchor="start" x="154.5" y="-106" font-family="Helvetica,sans-Serif" font-size="10.00">proxsuite::linalg::</text>
<text text-anchor="middle" x="199" y="-95" font-family="Helvetica,sans-Serif" font-size="10.00">veg::mem::Layout</text>
</a>
</g>
</g>
<!-- Node4&#45;&gt;Node1 -->
<g id="edge3" class="edge">
<title>Node4&#45;&gt;Node1</title>
<path fill="none" stroke="#9a32cd" stroke-dasharray="5,2" d="M189.34,-76.92C184.91,-65.42 179.74,-51.97 175.59,-41.21"/>
<polygon fill="#9a32cd" stroke="#9a32cd" points="186.05,-78.12 192.91,-86.2 192.59,-75.61 186.05,-78.12"/>
<text text-anchor="middle" x="203" y="-62" font-family="Helvetica,sans-Serif" font-size="10.00"> layout</text>
</g>
</g>
</svg>
