<?xml version="1.0" encoding="UTF-8" standalone="no"?>
<!DOCTYPE svg PUBLIC "-//W3C//DTD SVG 1.1//EN"
 "http://www.w3.org/Graphics/SVG/1.1/DTD/svg11.dtd">
<!-- Generated by graphviz version 5.0.0 (20220707.2338)
 -->
<!-- Title: proxsuite::linalg::veg::_detail::_vector::adl::AdlBase Pages: 1 -->
<svg width="381pt" height="411pt"
 viewBox="0.00 0.00 381.00 411.00" xmlns="http://www.w3.org/2000/svg" xmlns:xlink="http://www.w3.org/1999/xlink">
<g id="graph0" class="graph" transform="scale(1 1) rotate(0) translate(4 407)">
<title>proxsuite::linalg::veg::_detail::_vector::adl::AdlBase</title>
<!-- Node1 -->
<g id="node1" class="node">
<title>Node1</title>
<g id="a_node1"><a xlink:title=" ">
<polygon fill="#bfbfbf" stroke="black" points="0,-164.5 0,-205.5 116,-205.5 116,-164.5 0,-164.5"/>
<text text-anchor="start" x="8" y="-193.5" font-family="Helvetica,sans-Serif" font-size="10.00">proxsuite::linalg::</text>
<text text-anchor="start" x="8" y="-182.5" font-family="Helvetica,sans-Serif" font-size="10.00">veg::_detail::_vector</text>
<text text-anchor="middle" x="58" y="-171.5" font-family="Helvetica,sans-Serif" font-size="10.00">::adl::AdlBase</text>
</a>
</g>
</g>
<!-- Node2 -->
<g id="node2" class="node">
<title>Node2</title>
<g id="a_node2"><a xlink:href="structproxsuite_1_1linalg_1_1veg_1_1Vec.html" target="_top" xlink:title=" ">
<polygon fill="none" stroke="black" points="152,-317.5 152,-402.5 373,-402.5 373,-317.5 152,-317.5"/>
<text text-anchor="start" x="160" y="-390.5" font-family="Helvetica,sans-Serif" font-size="10.00">proxsuite::linalg::</text>
<text text-anchor="start" x="160" y="-379.5" font-family="Helvetica,sans-Serif" font-size="10.00">veg::Vec&lt; T, proxsuite</text>
<text text-anchor="start" x="160" y="-368.5" font-family="Helvetica,sans-Serif" font-size="10.00">::linalg::veg::meta::if</text>
<text text-anchor="start" x="160" y="-357.5" font-family="Helvetica,sans-Serif" font-size="10.00">_t&lt; _detail::should_vectorize</text>
<text text-anchor="start" x="160" y="-346.5" font-family="Helvetica,sans-Serif" font-size="10.00">&lt; T &gt;::value, _detail::SimdAlignedSystem</text>
<text text-anchor="start" x="160" y="-335.5" font-family="Helvetica,sans-Serif" font-size="10.00">Alloc, proxsuite::linalg::veg::mem</text>
<text text-anchor="middle" x="262.5" y="-324.5" font-family="Helvetica,sans-Serif" font-size="10.00">::SystemAlloc &gt; &gt;</text>
</a>
</g>
</g>
<!-- Node1&#45;&gt;Node2 -->
<g id="edge1" class="edge">
<title>Node1&#45;&gt;Node2</title>
<path fill="none" stroke="#8b1a1a" d="M75.56,-214.4C92.05,-241.56 119.55,-281.57 152,-308 156,-311.26 160.23,-314.36 164.63,-317.32"/>
<polygon fill="#8b1a1a" stroke="#8b1a1a" points="78.52,-212.53 70.39,-205.72 72.5,-216.11 78.52,-212.53"/>
</g>
<!-- Node3 -->
<g id="node3" class="node">
<title>Node3</title>
<g id="a_node3"><a xlink:href="structproxsuite_1_1linalg_1_1veg_1_1Vec.html" target="_top" xlink:title=" ">
<polygon fill="none" stroke="black" points="211,-268 211,-298 314,-298 314,-268 211,-268"/>
<text text-anchor="start" x="219" y="-286" font-family="Helvetica,sans-Serif" font-size="10.00">proxsuite::linalg::</text>
<text text-anchor="middle" x="262.5" y="-275" font-family="Helvetica,sans-Serif" font-size="10.00">veg::Vec&lt; isize &gt;</text>
</a>
</g>
</g>
<!-- Node1&#45;&gt;Node3 -->
<g id="edge2" class="edge">
<title>Node1&#45;&gt;Node3</title>
<path fill="none" stroke="#8b1a1a" d="M86.77,-212.73C104.14,-228.55 127.76,-247.47 152,-259 170.28,-267.69 191.78,-273.28 210.86,-276.86"/>
<polygon fill="#8b1a1a" stroke="#8b1a1a" points="88.95,-209.98 79.25,-205.72 84.18,-215.1 88.95,-209.98"/>
</g>
<!-- Node4 -->
<g id="node4" class="node">
<title>Node4</title>
<g id="a_node4"><a xlink:href="structproxsuite_1_1linalg_1_1veg_1_1Vec.html" target="_top" xlink:title=" ">
<polygon fill="none" stroke="black" points="212,-219 212,-249 313,-249 313,-219 212,-219"/>
<text text-anchor="start" x="220" y="-237" font-family="Helvetica,sans-Serif" font-size="10.00">proxsuite::linalg::</text>
<text text-anchor="middle" x="262.5" y="-226" font-family="Helvetica,sans-Serif" font-size="10.00">veg::Vec&lt; bool &gt;</text>
</a>
</g>
</g>
<!-- Node1&#45;&gt;Node4 -->
<g id="edge3" class="edge">
<title>Node1&#45;&gt;Node4</title>
<path fill="none" stroke="#8b1a1a" d="M126.17,-203.46C134.84,-205.72 143.62,-207.96 152,-210 171.47,-214.75 193,-219.56 211.78,-223.62"/>
<polygon fill="#8b1a1a" stroke="#8b1a1a" points="127,-200.06 116.44,-200.89 125.22,-206.82 127,-200.06"/>
</g>
<!-- Node5 -->
<g id="node5" class="node">
<title>Node5</title>
<g id="a_node5"><a xlink:href="structproxsuite_1_1linalg_1_1veg_1_1Vec.html" target="_top" xlink:title=" ">
<polygon fill="none" stroke="black" points="188,-170 188,-200 337,-200 337,-170 188,-170"/>
<text text-anchor="start" x="196" y="-188" font-family="Helvetica,sans-Serif" font-size="10.00">proxsuite::linalg::</text>
<text text-anchor="middle" x="262.5" y="-177" font-family="Helvetica,sans-Serif" font-size="10.00">veg::Vec&lt; unsigned char &gt;</text>
</a>
</g>
</g>
<!-- Node1&#45;&gt;Node5 -->
<g id="edge4" class="edge">
<title>Node1&#45;&gt;Node5</title>
<path fill="none" stroke="#8b1a1a" d="M126.33,-185C146.03,-185 167.67,-185 187.76,-185"/>
<polygon fill="#8b1a1a" stroke="#8b1a1a" points="126.22,-181.5 116.22,-185 126.22,-188.5 126.22,-181.5"/>
</g>
<!-- Node6 -->
<g id="node6" class="node">
<title>Node6</title>
<g id="a_node6"><a xlink:href="structproxsuite_1_1linalg_1_1veg_1_1Vec.html" target="_top" xlink:title=" ">
<polygon fill="none" stroke="black" points="212,-121 212,-151 313,-151 313,-121 212,-121"/>
<text text-anchor="start" x="220" y="-139" font-family="Helvetica,sans-Serif" font-size="10.00">proxsuite::linalg::</text>
<text text-anchor="middle" x="262.5" y="-128" font-family="Helvetica,sans-Serif" font-size="10.00">veg::Vec&lt; I &gt;</text>
</a>
</g>
</g>
<!-- Node1&#45;&gt;Node6 -->
<g id="edge5" class="edge">
<title>Node1&#45;&gt;Node6</title>
<path fill="none" stroke="#8b1a1a" d="M126.21,-167.42C134.88,-165.22 143.64,-163.03 152,-161 171.52,-156.25 193.05,-151.28 211.83,-147.03"/>
<polygon fill="#8b1a1a" stroke="#8b1a1a" points="125.31,-164.03 116.48,-169.9 127.04,-170.82 125.31,-164.03"/>
</g>
<!-- Node7 -->
<g id="node7" class="node">
<title>Node7</title>
<g id="a_node7"><a xlink:href="structproxsuite_1_1linalg_1_1veg_1_1Vec.html" target="_top" xlink:title=" ">
<polygon fill="none" stroke="black" points="190.5,-60.5 190.5,-101.5 334.5,-101.5 334.5,-60.5 190.5,-60.5"/>
<text text-anchor="start" x="198.5" y="-89.5" font-family="Helvetica,sans-Serif" font-size="10.00">proxsuite::linalg::</text>
<text text-anchor="start" x="198.5" y="-78.5" font-family="Helvetica,sans-Serif" font-size="10.00">veg::Vec&lt; proxsuite</text>
<text text-anchor="middle" x="262.5" y="-67.5" font-family="Helvetica,sans-Serif" font-size="10.00">::linalg::veg::mem::byte &gt;</text>
</a>
</g>
</g>
<!-- Node1&#45;&gt;Node7 -->
<g id="edge6" class="edge">
<title>Node1&#45;&gt;Node7</title>
<path fill="none" stroke="#8b1a1a" d="M87.8,-157.56C105.21,-142.26 128.52,-123.95 152,-112 163.97,-105.91 177.31,-100.86 190.45,-96.74"/>
<polygon fill="#8b1a1a" stroke="#8b1a1a" points="85.34,-155.06 80.23,-164.34 90.02,-160.27 85.34,-155.06"/>
</g>
<!-- Node8 -->
<g id="node8" class="node">
<title>Node8</title>
<g id="a_node8"><a xlink:href="structproxsuite_1_1linalg_1_1veg_1_1Vec.html" target="_top" xlink:title=" ">
<polygon fill="none" stroke="black" points="203.5,-0.5 203.5,-41.5 321.5,-41.5 321.5,-0.5 203.5,-0.5"/>
<text text-anchor="start" x="211.5" y="-29.5" font-family="Helvetica,sans-Serif" font-size="10.00">proxsuite::linalg::</text>
<text text-anchor="start" x="211.5" y="-18.5" font-family="Helvetica,sans-Serif" font-size="10.00">veg::Vec&lt; T, A, Dtor,</text>
<text text-anchor="middle" x="262.5" y="-7.5" font-family="Helvetica,sans-Serif" font-size="10.00"> Copy &gt;</text>
</a>
</g>
</g>
<!-- Node1&#45;&gt;Node8 -->
<g id="edge7" class="edge">
<title>Node1&#45;&gt;Node8</title>
<path fill="none" stroke="#8b1a1a" d="M72.14,-155.02C87.11,-124.36 114.45,-77.56 152,-51 167.04,-40.36 185.71,-33.48 203.34,-29.05"/>
<polygon fill="#8b1a1a" stroke="#8b1a1a" points="68.84,-153.83 67.72,-164.37 75.16,-156.83 68.84,-153.83"/>
</g>
</g>
</svg>
