<?xml version="1.0" encoding="UTF-8" standalone="no"?>
<!DOCTYPE svg PUBLIC "-//W3C//DTD SVG 1.1//EN"
 "http://www.w3.org/Graphics/SVG/1.1/DTD/svg11.dtd">
<!-- Generated by graphviz version 7.0.6 (20230107.1202)
 -->
<!-- Title: proxsuite::linalg::veg::_detail::_mem::ManagedAlloc&lt; A &gt; Pages: 1 -->
<svg width="260pt" height="193pt"
 viewBox="0.00 0.00 259.50 193.00" xmlns="http://www.w3.org/2000/svg" xmlns:xlink="http://www.w3.org/1999/xlink">
<g id="graph0" class="graph" transform="scale(1 1) rotate(0) translate(4 189)">
<title>proxsuite::linalg::veg::_detail::_mem::ManagedAlloc&lt; A &gt;</title>
<!-- Node1 -->
<g id="node1" class="node">
<title>Node1</title>
<g id="a_node1"><a xlink:title=" ">
<polygon fill="#999999" stroke="#666666" points="155.5,-41 39.5,-41 39.5,0 155.5,0 155.5,-41"/>
<text text-anchor="start" x="47.5" y="-29" font-family="Helvetica,sans-Serif" font-size="10.00">proxsuite::linalg::</text>
<text text-anchor="start" x="47.5" y="-18" font-family="Helvetica,sans-Serif" font-size="10.00">veg::_detail::_mem::</text>
<text text-anchor="middle" x="97.5" y="-7" font-family="Helvetica,sans-Serif" font-size="10.00">ManagedAlloc&lt; A &gt;</text>
</a>
</g>
</g>
<!-- Node2 -->
<g id="node2" class="node">
<title>Node2</title>
<g id="a_node2"><a xlink:href="structproxsuite_1_1linalg_1_1veg_1_1mem_1_1Layout.html" target="_top" xlink:title=" ">
<polygon fill="white" stroke="#666666" points="105,-118 0,-118 0,-88 105,-88 105,-118"/>
<text text-anchor="start" x="8" y="-106" font-family="Helvetica,sans-Serif" font-size="10.00">proxsuite::linalg::</text>
<text text-anchor="middle" x="52.5" y="-95" font-family="Helvetica,sans-Serif" font-size="10.00">veg::mem::Layout</text>
</a>
</g>
</g>
<!-- Node2&#45;&gt;Node1 -->
<g id="edge1" class="edge">
<title>Node2&#45;&gt;Node1</title>
<path fill="none" stroke="#9a32cd" stroke-dasharray="5,2" d="M66.12,-77.64C72.64,-65.98 80.34,-52.2 86.48,-41.21"/>
<polygon fill="#9a32cd" stroke="#9a32cd" points="63.11,-75.85 61.28,-86.29 69.22,-79.27 63.11,-75.85"/>
<text text-anchor="middle" x="92.5" y="-62" font-family="Helvetica,sans-Serif" font-size="10.00"> layout</text>
</g>
<!-- Node3 -->
<g id="node3" class="node">
<title>Node3</title>
<g id="a_node3"><a xlink:href="structproxsuite_1_1linalg_1_1veg_1_1RefMut.html" target="_top" xlink:title=" ">
<polygon fill="white" stroke="#666666" points="228,-118 123,-118 123,-88 228,-88 228,-118"/>
<text text-anchor="start" x="131" y="-106" font-family="Helvetica,sans-Serif" font-size="10.00">proxsuite::linalg::</text>
<text text-anchor="middle" x="175.5" y="-95" font-family="Helvetica,sans-Serif" font-size="10.00">veg::RefMut&lt; A &gt;</text>
</a>
</g>
</g>
<!-- Node3&#45;&gt;Node1 -->
<g id="edge2" class="edge">
<title>Node3&#45;&gt;Node1</title>
<path fill="none" stroke="#9a32cd" stroke-dasharray="5,2" d="M153.61,-79.4C141.97,-67.39 127.79,-52.76 116.6,-41.21"/>
<polygon fill="#9a32cd" stroke="#9a32cd" points="151.03,-81.78 160.5,-86.52 156.06,-76.9 151.03,-81.78"/>
<text text-anchor="middle" x="156" y="-62" font-family="Helvetica,sans-Serif" font-size="10.00"> alloc</text>
</g>
<!-- Node4 -->
<g id="node4" class="node">
<title>Node4</title>
<g id="a_node4"><a xlink:href="structproxsuite_1_1linalg_1_1veg_1_1cmp_1_1mut_1_1RefMutBase.html" target="_top" xlink:title=" ">
<polygon fill="white" stroke="#666666" points="251.5,-185 99.5,-185 99.5,-155 251.5,-155 251.5,-185"/>
<text text-anchor="start" x="107.5" y="-173" font-family="Helvetica,sans-Serif" font-size="10.00">proxsuite::linalg::</text>
<text text-anchor="middle" x="175.5" y="-162" font-family="Helvetica,sans-Serif" font-size="10.00">veg::cmp::mut::RefMutBase</text>
</a>
</g>
</g>
<!-- Node4&#45;&gt;Node3 -->
<g id="edge3" class="edge">
<title>Node4&#45;&gt;Node3</title>
<path fill="none" stroke="#63b8ff" d="M175.5,-143.28C175.5,-134.81 175.5,-125.7 175.5,-118.39"/>
<polygon fill="#63b8ff" stroke="#63b8ff" points="172,-143.06 175.5,-153.06 179,-143.06 172,-143.06"/>
</g>
</g>
</svg>
