<?xml version="1.0" encoding="UTF-8" standalone="no"?>
<!DOCTYPE svg PUBLIC "-//W3C//DTD SVG 1.1//EN"
 "http://www.w3.org/Graphics/SVG/1.1/DTD/svg11.dtd">
<!-- Generated by graphviz version 7.0.6 (20230107.1202)
 -->
<!-- Title: proxsuite::linalg::veg::_detail::_meta::has_member_get&lt; I, T &gt; Pages: 1 -->
<svg width="356pt" height="120pt"
 viewBox="0.00 0.00 356.00 119.50" xmlns="http://www.w3.org/2000/svg" xmlns:xlink="http://www.w3.org/1999/xlink">
<g id="graph0" class="graph" transform="scale(1 1) rotate(0) translate(4 115.5)">
<title>proxsuite::linalg::veg::_detail::_meta::has_member_get&lt; I, T &gt;</title>
<!-- Node1 -->
<g id="node1" class="node">
<title>Node1</title>
<g id="a_node1"><a xlink:title=" ">
<polygon fill="#999999" stroke="#666666" points="348,-73 203,-73 203,-32 348,-32 348,-73"/>
<text text-anchor="start" x="211" y="-61" font-family="Helvetica,sans-Serif" font-size="10.00">proxsuite::linalg::</text>
<text text-anchor="start" x="211" y="-50" font-family="Helvetica,sans-Serif" font-size="10.00">veg::_detail::_meta</text>
<text text-anchor="middle" x="275.5" y="-39" font-family="Helvetica,sans-Serif" font-size="10.00">::has_member_get&lt; I, T &gt;</text>
</a>
</g>
</g>
<!-- Node2 -->
<g id="node2" class="node">
<title>Node2</title>
<g id="a_node2"><a xlink:href="structproxsuite_1_1linalg_1_1veg_1_1meta_1_1constant.html" target="_top" xlink:title=" ">
<polygon fill="white" stroke="#666666" points="167,-111.5 0,-111.5 0,-59.5 167,-59.5 167,-111.5"/>
<text text-anchor="start" x="8" y="-99.5" font-family="Helvetica,sans-Serif" font-size="10.00">bool_constant&lt; VEG</text>
<text text-anchor="start" x="8" y="-88.5" font-family="Helvetica,sans-Serif" font-size="10.00">_CONCEPT(detected&lt; member</text>
<text text-anchor="start" x="8" y="-77.5" font-family="Helvetica,sans-Serif" font-size="10.00">_get::result_type, constant</text>
<text text-anchor="middle" x="83.5" y="-66.5" font-family="Helvetica,sans-Serif" font-size="10.00">&lt; usize, I &gt;, T &amp;&amp; &gt;)&gt;</text>
</a>
</g>
</g>
<!-- Node2&#45;&gt;Node1 -->
<g id="edge1" class="edge">
<title>Node2&#45;&gt;Node1</title>
<path fill="none" stroke="#63b8ff" d="M178.4,-69.19C186.57,-67.77 194.75,-66.35 202.71,-64.97"/>
<polygon fill="#63b8ff" stroke="#63b8ff" points="178.03,-65.7 168.78,-70.86 179.23,-72.6 178.03,-65.7"/>
</g>
<!-- Node3 -->
<g id="node3" class="node">
<title>Node3</title>
<g id="a_node3"><a xlink:href="structproxsuite_1_1linalg_1_1veg_1_1__detail_1_1__meta_1_1member__get.html" target="_top" xlink:title=" ">
<polygon fill="white" stroke="#666666" points="138.5,-41 28.5,-41 28.5,0 138.5,0 138.5,-41"/>
<text text-anchor="start" x="36.5" y="-29" font-family="Helvetica,sans-Serif" font-size="10.00">proxsuite::linalg::</text>
<text text-anchor="start" x="36.5" y="-18" font-family="Helvetica,sans-Serif" font-size="10.00">veg::_detail::_meta</text>
<text text-anchor="middle" x="83.5" y="-7" font-family="Helvetica,sans-Serif" font-size="10.00">::member_get</text>
</a>
</g>
</g>
<!-- Node3&#45;&gt;Node1 -->
<g id="edge2" class="edge">
<title>Node3&#45;&gt;Node1</title>
<path fill="none" stroke="#63b8ff" d="M149.9,-31.51C166.92,-34.38 185.35,-37.48 202.68,-40.4"/>
<polygon fill="#63b8ff" stroke="#63b8ff" points="150.88,-28.13 140.44,-29.92 149.72,-35.03 150.88,-28.13"/>
</g>
</g>
</svg>
