<?xml version="1.0" encoding="UTF-8" standalone="no"?>
<!DOCTYPE svg PUBLIC "-//W3C//DTD SVG 1.1//EN"
 "http://www.w3.org/Graphics/SVG/1.1/DTD/svg11.dtd">
<!-- Generated by graphviz version 6.0.2 (20221126.1951)
 -->
<!-- Title: proxsuite::linalg::veg::dynstack::DynStackArray&lt; T &gt; Pages: 1 -->
<svg width="591pt" height="114pt"
 viewBox="0.00 0.00 591.00 113.50" xmlns="http://www.w3.org/2000/svg" xmlns:xlink="http://www.w3.org/1999/xlink">
<g id="graph0" class="graph" transform="scale(1 1) rotate(0) translate(4 109.5)">
<title>proxsuite::linalg::veg::dynstack::DynStackArray&lt; T &gt;</title>
<!-- Node1 -->
<g id="node1" class="node">
<title>Node1</title>
<g id="a_node1"><a xlink:title=" ">
<polygon fill="#999999" stroke="#666666" points="583,-70 391,-70 391,-40 583,-40 583,-70"/>
<text text-anchor="start" x="399" y="-58" font-family="Helvetica,sans-Serif" font-size="10.00">proxsuite::linalg::</text>
<text text-anchor="middle" x="487" y="-47" font-family="Helvetica,sans-Serif" font-size="10.00">veg::dynstack::DynStackArray&lt; T &gt;</text>
</a>
</g>
</g>
<!-- Node2 -->
<g id="node2" class="node">
<title>Node2</title>
<g id="a_node2"><a xlink:href="structproxsuite_1_1linalg_1_1veg_1_1dynstack_1_1DynStackAlloc.html" target="_top" xlink:title=" ">
<polygon fill="white" stroke="#666666" points="355,-100 165,-100 165,-70 355,-70 355,-100"/>
<text text-anchor="start" x="173" y="-88" font-family="Helvetica,sans-Serif" font-size="10.00">proxsuite::linalg::</text>
<text text-anchor="middle" x="260" y="-77" font-family="Helvetica,sans-Serif" font-size="10.00">veg::dynstack::DynStackAlloc&lt; T &gt;</text>
</a>
</g>
</g>
<!-- Node2&#45;&gt;Node1 -->
<g id="edge1" class="edge">
<title>Node2&#45;&gt;Node1</title>
<path fill="none" stroke="#8b1a1a" d="M365.13,-71.12C373.69,-69.97 382.32,-68.82 390.81,-67.69"/>
<polygon fill="#8b1a1a" stroke="#8b1a1a" points="364.57,-67.66 355.12,-72.45 365.49,-74.6 364.57,-67.66"/>
</g>
<!-- Node3 -->
<g id="node3" class="node">
<title>Node3</title>
<g id="a_node3"><a xlink:href="structproxsuite_1_1linalg_1_1veg_1_1__detail_1_1__dynstack_1_1DynAllocBase.html" target="_top" xlink:title=" ">
<polygon fill="white" stroke="#666666" points="129,-105.5 0,-105.5 0,-64.5 129,-64.5 129,-105.5"/>
<text text-anchor="start" x="8" y="-93.5" font-family="Helvetica,sans-Serif" font-size="10.00">proxsuite::linalg::</text>
<text text-anchor="start" x="8" y="-82.5" font-family="Helvetica,sans-Serif" font-size="10.00">veg::_detail::_dynstack</text>
<text text-anchor="middle" x="64.5" y="-71.5" font-family="Helvetica,sans-Serif" font-size="10.00">::DynAllocBase</text>
</a>
</g>
</g>
<!-- Node3&#45;&gt;Node2 -->
<g id="edge2" class="edge">
<title>Node3&#45;&gt;Node2</title>
<path fill="none" stroke="#63b8ff" d="M139.22,-85C147.61,-85 156.24,-85 164.85,-85"/>
<polygon fill="#63b8ff" stroke="#63b8ff" points="139.13,-81.5 129.13,-85 139.13,-88.5 139.13,-81.5"/>
</g>
<!-- Node4 -->
<g id="node4" class="node">
<title>Node4</title>
<g id="a_node4"><a xlink:href="structproxsuite_1_1linalg_1_1veg_1_1__detail_1_1__dynstack_1_1DynStackArrayDtor.html" target="_top" xlink:title=" ">
<polygon fill="white" stroke="#666666" points="328.5,-52 191.5,-52 191.5,0 328.5,0 328.5,-52"/>
<text text-anchor="start" x="199.5" y="-40" font-family="Helvetica,sans-Serif" font-size="10.00">proxsuite::linalg::</text>
<text text-anchor="start" x="199.5" y="-29" font-family="Helvetica,sans-Serif" font-size="10.00">veg::_detail::_dynstack</text>
<text text-anchor="start" x="199.5" y="-18" font-family="Helvetica,sans-Serif" font-size="10.00">::DynStackArrayDtor&lt; T,</text>
<text text-anchor="middle" x="260" y="-7" font-family="Helvetica,sans-Serif" font-size="10.00"> bool &gt;</text>
</a>
</g>
</g>
<!-- Node4&#45;&gt;Node1 -->
<g id="edge3" class="edge">
<title>Node4&#45;&gt;Node1</title>
<path fill="none" stroke="#63b8ff" d="M338.76,-36.02C355.49,-38.18 373.36,-40.48 390.67,-42.71"/>
<polygon fill="#63b8ff" stroke="#63b8ff" points="338.87,-32.51 328.51,-34.7 337.98,-39.45 338.87,-32.51"/>
</g>
</g>
</svg>
