<?xml version="1.0" encoding="UTF-8" standalone="no"?>
<!DOCTYPE svg PUBLIC "-//W3C//DTD SVG 1.1//EN"
 "http://www.w3.org/Graphics/SVG/1.1/DTD/svg11.dtd">
<!-- Generated by graphviz version 12.0.0 (20240803.0821)
 -->
<!-- Title: tl::detail::optional_copy_base&lt; T, bool &gt; Pages: 1 -->
<svg width="1122pt" height="164pt"
 viewBox="0.00 0.00 1122.00 163.88" xmlns="http://www.w3.org/2000/svg" xmlns:xlink="http://www.w3.org/1999/xlink">
<g id="graph0" class="graph" transform="scale(1 1) rotate(0) translate(4 159.88)">
<title>tl::detail::optional_copy_base&lt; T, bool &gt;</title>
<!-- Node1 -->
<g id="Node000001" class="node">
<title>Node1</title>
<g id="a_Node000001"><a xlink:title=" ">
<polygon fill="#999999" stroke="#666666" points="472.5,-59.5 344,-59.5 344,-26 472.5,-26 472.5,-59.5"/>
<text text-anchor="start" x="352" y="-46" font-family="Helvetica,sans-Serif" font-size="10.00">tl::detail::optional</text>
<text text-anchor="middle" x="408.25" y="-33.25" font-family="Helvetica,sans-Serif" font-size="10.00">_copy_base&lt; T, bool &gt;</text>
</a>
</g>
</g>
<!-- Node4 -->
<g id="Node000004" class="node">
<title>Node4</title>
<g id="a_Node000004"><a xlink:href="structtl_1_1detail_1_1optional__move__base.html" target="_top" xlink:title=" ">
<polygon fill="white" stroke="#666666" points="643,-85.5 510,-85.5 510,-52 643,-52 643,-85.5"/>
<text text-anchor="start" x="518" y="-72" font-family="Helvetica,sans-Serif" font-size="10.00">tl::detail::optional</text>
<text text-anchor="middle" x="576.5" y="-59.25" font-family="Helvetica,sans-Serif" font-size="10.00">_move_base&lt; T, bool &gt;</text>
</a>
</g>
</g>
<!-- Node1&#45;&gt;Node4 -->
<g id="edge3_Node000001_Node000004" class="edge">
<title>Node1&#45;&gt;Node4</title>
<g id="a_edge3_Node000001_Node000004"><a xlink:title=" ">
<path fill="none" stroke="#63b8ff" d="M483.78,-54.41C492.38,-55.75 501.11,-57.12 509.59,-58.44"/>
<polygon fill="#63b8ff" stroke="#63b8ff" points="484.49,-50.97 474.07,-52.89 483.41,-57.89 484.49,-50.97"/>
</a>
</g>
</g>
<!-- Node10 -->
<g id="Node000010" class="node">
<title>Node10</title>
<g id="a_Node000010"><a xlink:href="structtl_1_1detail_1_1optional__move__base_3_01T_00_01false_01_4.html" target="_top" xlink:title=" ">
<polygon fill="white" stroke="#666666" points="644.5,-33.5 508.5,-33.5 508.5,0 644.5,0 644.5,-33.5"/>
<text text-anchor="start" x="516.5" y="-20" font-family="Helvetica,sans-Serif" font-size="10.00">tl::detail::optional</text>
<text text-anchor="middle" x="576.5" y="-7.25" font-family="Helvetica,sans-Serif" font-size="10.00">_move_base&lt; T, false &gt;</text>
</a>
</g>
</g>
<!-- Node1&#45;&gt;Node10 -->
<g id="edge9_Node000001_Node000010" class="edge">
<title>Node1&#45;&gt;Node10</title>
<g id="a_edge9_Node000001_Node000010"><a xlink:title=" ">
<path fill="none" stroke="#63b8ff" d="M483.91,-31.07C492,-29.81 500.2,-28.53 508.2,-27.27"/>
<polygon fill="#63b8ff" stroke="#63b8ff" points="483.41,-27.61 474.07,-32.61 484.49,-34.53 483.41,-27.61"/>
</a>
</g>
</g>
<!-- Node2 -->
<g id="Node000002" class="node">
<title>Node2</title>
<g id="a_Node000002"><a xlink:href="structtl_1_1detail_1_1optional__operations__base.html" target="_top" xlink:title=" ">
<polygon fill="white" stroke="#666666" points="308,-59.5 178,-59.5 178,-26 308,-26 308,-59.5"/>
<text text-anchor="start" x="186" y="-46" font-family="Helvetica,sans-Serif" font-size="10.00">tl::detail::optional</text>
<text text-anchor="middle" x="243" y="-33.25" font-family="Helvetica,sans-Serif" font-size="10.00">_operations_base&lt; T &gt;</text>
</a>
</g>
</g>
<!-- Node2&#45;&gt;Node1 -->
<g id="edge1_Node000001_Node000002" class="edge">
<title>Node2&#45;&gt;Node1</title>
<g id="a_edge1_Node000001_Node000002"><a xlink:title=" ">
<path fill="none" stroke="#63b8ff" d="M319.42,-42.75C327.52,-42.75 335.71,-42.75 343.65,-42.75"/>
<polygon fill="#63b8ff" stroke="#63b8ff" points="319.57,-39.25 309.57,-42.75 319.57,-46.25 319.57,-39.25"/>
</a>
</g>
</g>
<!-- Node3 -->
<g id="Node000003" class="node">
<title>Node3</title>
<g id="a_Node000003"><a xlink:href="structtl_1_1detail_1_1optional__storage__base.html" target="_top" xlink:title=" ">
<polygon fill="white" stroke="#666666" points="142,-59.5 0,-59.5 0,-26 142,-26 142,-59.5"/>
<text text-anchor="start" x="8" y="-46" font-family="Helvetica,sans-Serif" font-size="10.00">tl::detail::optional</text>
<text text-anchor="middle" x="71" y="-33.25" font-family="Helvetica,sans-Serif" font-size="10.00">_storage_base&lt; T, bool &gt;</text>
</a>
</g>
</g>
<!-- Node3&#45;&gt;Node2 -->
<g id="edge2_Node000002_Node000003" class="edge">
<title>Node3&#45;&gt;Node2</title>
<g id="a_edge2_Node000002_Node000003"><a xlink:title=" ">
<path fill="none" stroke="#63b8ff" d="M153.55,-42.75C161.68,-42.75 169.85,-42.75 177.76,-42.75"/>
<polygon fill="#63b8ff" stroke="#63b8ff" points="153.64,-39.25 143.64,-42.75 153.64,-46.25 153.64,-39.25"/>
</a>
</g>
</g>
<!-- Node5 -->
<g id="Node000005" class="node">
<title>Node5</title>
<g id="a_Node000005"><a xlink:href="structtl_1_1detail_1_1optional__copy__assign__base.html" target="_top" xlink:title=" ">
<polygon fill="white" stroke="#666666" points="810.5,-123.88 680.5,-123.88 680.5,-77.62 810.5,-77.62 810.5,-123.88"/>
<text text-anchor="start" x="688.5" y="-110.38" font-family="Helvetica,sans-Serif" font-size="10.00">tl::detail::optional</text>
<text text-anchor="start" x="688.5" y="-97.62" font-family="Helvetica,sans-Serif" font-size="10.00">_copy_assign_base&lt; T,</text>
<text text-anchor="middle" x="745.5" y="-84.88" font-family="Helvetica,sans-Serif" font-size="10.00"> bool &gt;</text>
</a>
</g>
</g>
<!-- Node4&#45;&gt;Node5 -->
<g id="edge4_Node000004_Node000005" class="edge">
<title>Node4&#45;&gt;Node5</title>
<g id="a_edge4_Node000004_Node000005"><a xlink:title=" ">
<path fill="none" stroke="#63b8ff" d="M654.04,-83.42C662.81,-85.1 671.68,-86.8 680.26,-88.44"/>
<polygon fill="#63b8ff" stroke="#63b8ff" points="654.99,-80.03 644.51,-81.59 653.67,-86.91 654.99,-80.03"/>
</a>
</g>
</g>
<!-- Node9 -->
<g id="Node000009" class="node">
<title>Node9</title>
<g id="a_Node000009"><a xlink:href="structtl_1_1detail_1_1optional__copy__assign__base_3_01T_00_01false_01_4.html" target="_top" xlink:title=" ">
<polygon fill="white" stroke="#666666" points="810.5,-59.88 680.5,-59.88 680.5,-13.62 810.5,-13.62 810.5,-59.88"/>
<text text-anchor="start" x="688.5" y="-46.38" font-family="Helvetica,sans-Serif" font-size="10.00">tl::detail::optional</text>
<text text-anchor="start" x="688.5" y="-33.62" font-family="Helvetica,sans-Serif" font-size="10.00">_copy_assign_base&lt; T,</text>
<text text-anchor="middle" x="745.5" y="-20.88" font-family="Helvetica,sans-Serif" font-size="10.00"> false &gt;</text>
</a>
</g>
</g>
<!-- Node4&#45;&gt;Node9 -->
<g id="edge8_Node000004_Node000009" class="edge">
<title>Node4&#45;&gt;Node9</title>
<g id="a_edge8_Node000004_Node000009"><a xlink:title=" ">
<path fill="none" stroke="#63b8ff" d="M654.04,-54.08C662.81,-52.4 671.68,-50.7 680.26,-49.06"/>
<polygon fill="#63b8ff" stroke="#63b8ff" points="653.67,-50.59 644.51,-55.91 654.99,-57.47 653.67,-50.59"/>
</a>
</g>
</g>
<!-- Node6 -->
<g id="Node000006" class="node">
<title>Node6</title>
<g id="a_Node000006"><a xlink:href="structtl_1_1detail_1_1optional__move__assign__base.html" target="_top" xlink:title=" ">
<polygon fill="white" stroke="#666666" points="981,-155.88 846.5,-155.88 846.5,-109.62 981,-109.62 981,-155.88"/>
<text text-anchor="start" x="854.5" y="-142.38" font-family="Helvetica,sans-Serif" font-size="10.00">tl::detail::optional</text>
<text text-anchor="start" x="854.5" y="-129.62" font-family="Helvetica,sans-Serif" font-size="10.00">_move_assign_base&lt; T,</text>
<text text-anchor="middle" x="913.75" y="-116.88" font-family="Helvetica,sans-Serif" font-size="10.00"> bool &gt;</text>
</a>
</g>
</g>
<!-- Node5&#45;&gt;Node6 -->
<g id="edge5_Node000005_Node000006" class="edge">
<title>Node5&#45;&gt;Node6</title>
<g id="a_edge5_Node000005_Node000006"><a xlink:title=" ">
<path fill="none" stroke="#63b8ff" d="M822.05,-115.29C830.1,-116.84 838.24,-118.41 846.17,-119.93"/>
<polygon fill="#63b8ff" stroke="#63b8ff" points="822.74,-111.86 812.26,-113.41 821.42,-118.74 822.74,-111.86"/>
</a>
</g>
</g>
<!-- Node8 -->
<g id="Node000008" class="node">
<title>Node8</title>
<g id="a_Node000008"><a xlink:href="structtl_1_1detail_1_1optional__move__assign__base_3_01T_00_01false_01_4.html" target="_top" xlink:title=" ">
<polygon fill="white" stroke="#666666" points="981,-91.88 846.5,-91.88 846.5,-45.62 981,-45.62 981,-91.88"/>
<text text-anchor="start" x="854.5" y="-78.38" font-family="Helvetica,sans-Serif" font-size="10.00">tl::detail::optional</text>
<text text-anchor="start" x="854.5" y="-65.62" font-family="Helvetica,sans-Serif" font-size="10.00">_move_assign_base&lt; T,</text>
<text text-anchor="middle" x="913.75" y="-52.88" font-family="Helvetica,sans-Serif" font-size="10.00"> false &gt;</text>
</a>
</g>
</g>
<!-- Node5&#45;&gt;Node8 -->
<g id="edge7_Node000005_Node000008" class="edge">
<title>Node5&#45;&gt;Node8</title>
<g id="a_edge7_Node000005_Node000008"><a xlink:title=" ">
<path fill="none" stroke="#63b8ff" d="M822.05,-86.21C830.1,-84.66 838.24,-83.09 846.17,-81.57"/>
<polygon fill="#63b8ff" stroke="#63b8ff" points="821.42,-82.76 812.26,-88.09 822.74,-89.64 821.42,-82.76"/>
</a>
</g>
</g>
<!-- Node7 -->
<g id="Node000007" class="node">
<title>Node7</title>
<g id="a_Node000007"><a xlink:href="classtl_1_1optional.html" target="_top" xlink:title=" ">
<polygon fill="white" stroke="#666666" points="1114,-143.12 1017,-143.12 1017,-122.38 1114,-122.38 1114,-143.12"/>
<text text-anchor="middle" x="1065.5" y="-129.62" font-family="Helvetica,sans-Serif" font-size="10.00">tl::optional&lt; T &gt;</text>
</a>
</g>
</g>
<!-- Node6&#45;&gt;Node7 -->
<g id="edge6_Node000006_Node000007" class="edge">
<title>Node6&#45;&gt;Node7</title>
<g id="a_edge6_Node000006_Node000007"><a xlink:title=" ">
<path fill="none" stroke="#8b1a1a" d="M992.76,-132.75C1000.87,-132.75 1008.93,-132.75 1016.56,-132.75"/>
<polygon fill="#8b1a1a" stroke="#8b1a1a" points="992.82,-129.25 982.82,-132.75 992.82,-136.25 992.82,-129.25"/>
</a>
</g>
</g>
</g>
</svg>
