<?xml version="1.0" encoding="UTF-8" standalone="no"?>
<!DOCTYPE svg PUBLIC "-//W3C//DTD SVG 1.1//EN"
 "http://www.w3.org/Graphics/SVG/1.1/DTD/svg11.dtd">
<!-- Generated by graphviz version 7.0.6 (20230107.1202)
 -->
<!-- Title: proxsuite::proxqp::dense::QpViewBox&lt; Scalar &gt; Pages: 1 -->
<svg width="473pt" height="101pt"
 viewBox="0.00 0.00 473.00 100.50" xmlns="http://www.w3.org/2000/svg" xmlns:xlink="http://www.w3.org/1999/xlink">
<g id="graph0" class="graph" transform="scale(1 1) rotate(0) translate(4 96.5)">
<title>proxsuite::proxqp::dense::QpViewBox&lt; Scalar &gt;</title>
<!-- Node1 -->
<g id="node1" class="node">
<title>Node1</title>
<g id="a_node1"><a xlink:title=" ">
<polygon fill="#999999" stroke="#666666" points="465,-57 304,-57 304,-27 465,-27 465,-57"/>
<text text-anchor="start" x="312" y="-45" font-family="Helvetica,sans-Serif" font-size="10.00">proxsuite::proxqp::</text>
<text text-anchor="middle" x="384.5" y="-34" font-family="Helvetica,sans-Serif" font-size="10.00">dense::QpViewBox&lt; Scalar &gt;</text>
</a>
</g>
</g>
<!-- Node2 -->
<g id="node2" class="node">
<title>Node2</title>
<g id="a_node2"><a xlink:href="structproxsuite_1_1proxqp_1_1MatrixView.html" target="_top" xlink:title=" ">
<polygon fill="white" stroke="#666666" points="254,-92.5 138,-92.5 138,-51.5 254,-51.5 254,-92.5"/>
<text text-anchor="start" x="146" y="-80.5" font-family="Helvetica,sans-Serif" font-size="10.00">proxsuite::proxqp::</text>
<text text-anchor="start" x="146" y="-69.5" font-family="Helvetica,sans-Serif" font-size="10.00">MatrixView&lt; Scalar,</text>
<text text-anchor="middle" x="196" y="-58.5" font-family="Helvetica,sans-Serif" font-size="10.00"> layout &gt;</text>
</a>
</g>
</g>
<!-- Node2&#45;&gt;Node1 -->
<g id="edge1" class="edge">
<title>Node2&#45;&gt;Node1</title>
<path fill="none" stroke="#9a32cd" stroke-dasharray="5,2" d="M265.62,-60.96C277.97,-58.98 290.94,-56.89 303.58,-54.86"/>
<polygon fill="#9a32cd" stroke="#9a32cd" points="265.29,-57.47 255.97,-62.51 266.4,-64.38 265.29,-57.47"/>
<text text-anchor="middle" x="281" y="-83" font-family="Helvetica,sans-Serif" font-size="10.00"> A</text>
<text text-anchor="middle" x="281" y="-72" font-family="Helvetica,sans-Serif" font-size="10.00">C</text>
<text text-anchor="middle" x="281" y="-61" font-family="Helvetica,sans-Serif" font-size="10.00">H</text>
</g>
<!-- Node3 -->
<g id="node3" class="node">
<title>Node3</title>
<g id="a_node3"><a xlink:title=" ">
<polygon fill="white" stroke="#666666" points="39,-51.5 0,-51.5 0,-32.5 39,-32.5 39,-51.5"/>
<text text-anchor="middle" x="19.5" y="-39.5" font-family="Helvetica,sans-Serif" font-size="10.00">isize</text>
</a>
</g>
</g>
<!-- Node3&#45;&gt;Node2 -->
<g id="edge2" class="edge">
<title>Node3&#45;&gt;Node2</title>
<path fill="none" stroke="#9a32cd" stroke-dasharray="5,2" d="M50.35,-47.13C74.31,-51.25 108.64,-57.15 137.85,-62.17"/>
<polygon fill="#9a32cd" stroke="#9a32cd" points="51.11,-43.71 40.67,-45.47 49.93,-50.61 51.11,-43.71"/>
<text text-anchor="middle" x="86.5" y="-82" font-family="Helvetica,sans-Serif" font-size="10.00"> cols</text>
<text text-anchor="middle" x="86.5" y="-71" font-family="Helvetica,sans-Serif" font-size="10.00">outer_stride</text>
<text text-anchor="middle" x="86.5" y="-60" font-family="Helvetica,sans-Serif" font-size="10.00">rows</text>
</g>
<!-- Node4 -->
<g id="node4" class="node">
<title>Node4</title>
<g id="a_node4"><a xlink:href="structproxsuite_1_1proxqp_1_1VectorView.html" target="_top" xlink:title=" ">
<polygon fill="white" stroke="#666666" points="258,-30 134,-30 134,0 258,0 258,-30"/>
<text text-anchor="start" x="142" y="-18" font-family="Helvetica,sans-Serif" font-size="10.00">proxsuite::proxqp::</text>
<text text-anchor="middle" x="196" y="-7" font-family="Helvetica,sans-Serif" font-size="10.00">VectorView&lt; Scalar &gt;</text>
</a>
</g>
</g>
<!-- Node3&#45;&gt;Node4 -->
<g id="edge4" class="edge">
<title>Node3&#45;&gt;Node4</title>
<path fill="none" stroke="#9a32cd" stroke-dasharray="5,2" d="M50.32,-32.55C52.57,-31.98 54.81,-31.45 57,-31 81.92,-25.84 109.73,-22.22 133.83,-19.74"/>
<polygon fill="#9a32cd" stroke="#9a32cd" points="49.42,-29.16 40.74,-35.24 51.31,-35.9 49.42,-29.16"/>
<text text-anchor="middle" x="86.5" y="-34" font-family="Helvetica,sans-Serif" font-size="10.00"> dim</text>
</g>
<!-- Node4&#45;&gt;Node1 -->
<g id="edge3" class="edge">
<title>Node4&#45;&gt;Node1</title>
<path fill="none" stroke="#9a32cd" stroke-dasharray="5,2" d="M269.7,-10.22C271.82,-10.14 273.93,-10.07 276,-10 280.44,-9.86 281.61,-9.3 286,-10 306.23,-13.24 327.96,-20.02 345.76,-26.52"/>
<polygon fill="#9a32cd" stroke="#9a32cd" points="269.57,-6.73 259.74,-10.67 269.88,-13.72 269.57,-6.73"/>
<text text-anchor="middle" x="281" y="-46" font-family="Helvetica,sans-Serif" font-size="10.00"> b</text>
<text text-anchor="middle" x="281" y="-35" font-family="Helvetica,sans-Serif" font-size="10.00">g</text>
<text text-anchor="middle" x="281" y="-24" font-family="Helvetica,sans-Serif" font-size="10.00">l</text>
<text text-anchor="middle" x="281" y="-13" font-family="Helvetica,sans-Serif" font-size="10.00">u</text>
</g>
</g>
</svg>
