<?xml version="1.0" encoding="UTF-8" standalone="no"?>
<!DOCTYPE svg PUBLIC "-//W3C//DTD SVG 1.1//EN"
 "http://www.w3.org/Graphics/SVG/1.1/DTD/svg11.dtd">
<!-- Generated by graphviz version 7.1.0 (20230122.1345)
 -->
<!-- Title: proxsuite::proxqp::sparse::detail::AugmentedKkt&lt; T, I &gt;::Raw Pages: 1 -->
<svg width="650pt" height="187pt"
 viewBox="0.00 0.00 650.00 186.50" xmlns="http://www.w3.org/2000/svg" xmlns:xlink="http://www.w3.org/1999/xlink">
<g id="graph0" class="graph" transform="scale(1 1) rotate(0) translate(4 182.5)">
<title>proxsuite::proxqp::sparse::detail::AugmentedKkt&lt; T, I &gt;::Raw</title>
<!-- Node1 -->
<g id="node1" class="node">
<title>Node1</title>
<g id="a_node1"><a xlink:title=" ">
<polygon fill="#999999" stroke="#666666" points="642,-92 481,-92 481,-51 642,-51 642,-92"/>
<text text-anchor="start" x="489" y="-80" font-family="Helvetica,sans-Serif" font-size="10.00">proxsuite::proxqp::</text>
<text text-anchor="start" x="489" y="-69" font-family="Helvetica,sans-Serif" font-size="10.00">sparse::detail::AugmentedKkt</text>
<text text-anchor="middle" x="561.5" y="-58" font-family="Helvetica,sans-Serif" font-size="10.00">&lt; T, I &gt;::Raw</text>
</a>
</g>
</g>
<!-- Node2 -->
<g id="node2" class="node">
<title>Node2</title>
<g id="a_node2"><a xlink:href="structproxsuite_1_1linalg_1_1sparse_1_1MatRef.html" target="_top" xlink:title=" ">
<polygon fill="white" stroke="#666666" points="352,-152.5 224,-152.5 224,-122.5 352,-122.5 352,-152.5"/>
<text text-anchor="start" x="232" y="-140.5" font-family="Helvetica,sans-Serif" font-size="10.00">proxsuite::linalg::</text>
<text text-anchor="middle" x="288" y="-129.5" font-family="Helvetica,sans-Serif" font-size="10.00">sparse::MatRef&lt; T, I &gt;</text>
</a>
</g>
</g>
<!-- Node2&#45;&gt;Node1 -->
<g id="edge1" class="edge">
<title>Node2&#45;&gt;Node1</title>
<path fill="none" stroke="#9a32cd" stroke-dasharray="5,2" d="M363.34,-119.43C399.67,-110.6 443.45,-99.95 480.52,-90.94"/>
<polygon fill="#9a32cd" stroke="#9a32cd" points="362.67,-115.99 353.78,-121.75 364.33,-122.79 362.67,-115.99"/>
<text text-anchor="middle" x="416.5" y="-118.5" font-family="Helvetica,sans-Serif" font-size="10.00"> kkt_active</text>
</g>
<!-- Node3 -->
<g id="node3" class="node">
<title>Node3</title>
<g id="a_node3"><a xlink:href="structproxsuite_1_1linalg_1_1sparse_1_1__detail_1_1SymbolicMatRefInterface.html" target="_top" xlink:title=" ">
<polygon fill="white" stroke="#666666" points="158,-178.5 0,-178.5 0,-126.5 158,-126.5 158,-178.5"/>
<text text-anchor="start" x="8" y="-166.5" font-family="Helvetica,sans-Serif" font-size="10.00">proxsuite::linalg::</text>
<text text-anchor="start" x="8" y="-155.5" font-family="Helvetica,sans-Serif" font-size="10.00">sparse::_detail::SymbolicMat</text>
<text text-anchor="start" x="8" y="-144.5" font-family="Helvetica,sans-Serif" font-size="10.00">RefInterface&lt; MatRef&lt; T,</text>
<text text-anchor="middle" x="79" y="-133.5" font-family="Helvetica,sans-Serif" font-size="10.00"> I &gt;, I &gt;</text>
</a>
</g>
</g>
<!-- Node3&#45;&gt;Node2 -->
<g id="edge2" class="edge">
<title>Node3&#45;&gt;Node2</title>
<path fill="none" stroke="#63b8ff" d="M169.53,-146.01C187.8,-144.69 206.65,-143.32 223.77,-142.08"/>
<polygon fill="#63b8ff" stroke="#63b8ff" points="169.49,-142.51 159.77,-146.72 169.99,-149.49 169.49,-142.51"/>
</g>
<!-- Node4 -->
<g id="node4" class="node">
<title>Node4</title>
<g id="a_node4"><a xlink:title=" ">
<polygon fill="white" stroke="#666666" points="98.5,-95 59.5,-95 59.5,-76 98.5,-76 98.5,-95"/>
<text text-anchor="middle" x="79" y="-83" font-family="Helvetica,sans-Serif" font-size="10.00">isize</text>
</a>
</g>
</g>
<!-- Node4&#45;&gt;Node1 -->
<g id="edge6" class="edge">
<title>Node4&#45;&gt;Node1</title>
<path fill="none" stroke="#9a32cd" stroke-dasharray="5,2" d="M110.06,-84.39C139.19,-83.32 184.62,-81.71 224,-80.5 311.77,-77.8 412.42,-75.17 480.61,-73.46"/>
<polygon fill="#9a32cd" stroke="#9a32cd" points="110.02,-80.89 100.15,-84.75 110.27,-87.88 110.02,-80.89"/>
<text text-anchor="middle" x="288" y="-105.5" font-family="Helvetica,sans-Serif" font-size="10.00"> n</text>
<text text-anchor="middle" x="288" y="-94.5" font-family="Helvetica,sans-Serif" font-size="10.00">n_eq</text>
<text text-anchor="middle" x="288" y="-83.5" font-family="Helvetica,sans-Serif" font-size="10.00">n_in</text>
</g>
<!-- Node4&#45;&gt;Node2 -->
<g id="edge3" class="edge">
<title>Node4&#45;&gt;Node2</title>
<path fill="none" stroke="#9a32cd" stroke-dasharray="5,2" d="M109.86,-88.76C135.62,-91.98 173.67,-97.71 206,-106.5 221.11,-110.61 237.31,-116.49 251.23,-122.03"/>
<polygon fill="#9a32cd" stroke="#9a32cd" points="110.46,-85.31 100.12,-87.6 109.63,-92.26 110.46,-85.31"/>
<text text-anchor="middle" x="191" y="-131.5" font-family="Helvetica,sans-Serif" font-size="10.00"> ncols</text>
<text text-anchor="middle" x="191" y="-120.5" font-family="Helvetica,sans-Serif" font-size="10.00">nnz</text>
<text text-anchor="middle" x="191" y="-109.5" font-family="Helvetica,sans-Serif" font-size="10.00">nrows</text>
</g>
<!-- Node5 -->
<g id="node5" class="node">
<title>Node5</title>
<g id="a_node5"><a xlink:href="structproxsuite_1_1linalg_1_1veg_1_1Slice.html" target="_top" xlink:title=" ">
<polygon fill="white" stroke="#666666" points="341.5,-35.5 234.5,-35.5 234.5,-5.5 341.5,-5.5 341.5,-35.5"/>
<text text-anchor="start" x="242.5" y="-23.5" font-family="Helvetica,sans-Serif" font-size="10.00">proxsuite::linalg::</text>
<text text-anchor="middle" x="288" y="-12.5" font-family="Helvetica,sans-Serif" font-size="10.00">veg::Slice&lt; bool &gt;</text>
</a>
</g>
</g>
<!-- Node5&#45;&gt;Node1 -->
<g id="edge4" class="edge">
<title>Node5&#45;&gt;Node1</title>
<path fill="none" stroke="#9a32cd" stroke-dasharray="5,2" d="M353.1,-28.48C386.08,-32.98 426.85,-39.18 463,-46.5 469.08,-47.73 475.35,-49.1 481.64,-50.55"/>
<polygon fill="#9a32cd" stroke="#9a32cd" points="353.66,-25.02 343.28,-27.16 352.73,-31.96 353.66,-25.02"/>
<text text-anchor="middle" x="416.5" y="-49.5" font-family="Helvetica,sans-Serif" font-size="10.00"> active_constraints</text>
</g>
<!-- Node6 -->
<g id="node6" class="node">
<title>Node6</title>
<g id="a_node6"><a xlink:href="structproxsuite_1_1linalg_1_1veg_1_1__detail_1_1__slice_1_1adl_1_1AdlBase.html" target="_top" xlink:title=" ">
<polygon fill="white" stroke="#666666" points="132.5,-41 25.5,-41 25.5,0 132.5,0 132.5,-41"/>
<text text-anchor="start" x="33.5" y="-29" font-family="Helvetica,sans-Serif" font-size="10.00">proxsuite::linalg::</text>
<text text-anchor="start" x="33.5" y="-18" font-family="Helvetica,sans-Serif" font-size="10.00">veg::_detail::_slice</text>
<text text-anchor="middle" x="79" y="-7" font-family="Helvetica,sans-Serif" font-size="10.00">::adl::AdlBase</text>
</a>
</g>
</g>
<!-- Node6&#45;&gt;Node5 -->
<g id="edge5" class="edge">
<title>Node6&#45;&gt;Node5</title>
<path fill="none" stroke="#63b8ff" d="M144.03,-20.5C173.01,-20.5 206.85,-20.5 234.33,-20.5"/>
<polygon fill="#63b8ff" stroke="#63b8ff" points="144.28,-17 134.28,-20.5 144.28,-24 144.28,-17"/>
</g>
</g>
</svg>
