<?xml version="1.0" encoding="UTF-8" standalone="no"?>
<!DOCTYPE svg PUBLIC "-//W3C//DTD SVG 1.1//EN"
 "http://www.w3.org/Graphics/SVG/1.1/DTD/svg11.dtd">
<!-- Generated by graphviz version 5.0.0 (20220707.2338)
 -->
<!-- Title: proxsuite::proxqp::dense::QpViewMut&lt; T &gt; Pages: 1 -->
<svg width="164pt" height="228pt"
 viewBox="0.00 0.00 164.00 228.00" xmlns="http://www.w3.org/2000/svg" xmlns:xlink="http://www.w3.org/1999/xlink">
<g id="graph0" class="graph" transform="scale(1 1) rotate(0) translate(4 224)">
<title>proxsuite::proxqp::dense::QpViewMut&lt; T &gt;</title>
<!-- Node1 -->
<g id="node1" class="node">
<title>Node1</title>
<g id="a_node1"><a xlink:title=" ">
<polygon fill="#bfbfbf" stroke="black" points="9.5,-0.5 9.5,-30.5 146.5,-30.5 146.5,-0.5 9.5,-0.5"/>
<text text-anchor="start" x="17.5" y="-18.5" font-family="Helvetica,sans-Serif" font-size="10.00">proxsuite::proxqp::</text>
<text text-anchor="middle" x="78" y="-7.5" font-family="Helvetica,sans-Serif" font-size="10.00">dense::QpViewMut&lt; T &gt;</text>
</a>
</g>
</g>
<!-- Node2 -->
<g id="node2" class="node">
<title>Node2</title>
<g id="a_node2"><a xlink:href="structproxsuite_1_1proxqp_1_1MatrixViewMut.html" target="_top" xlink:title=" ">
<polygon fill="none" stroke="black" points="0,-100.5 0,-130.5 156,-130.5 156,-100.5 0,-100.5"/>
<text text-anchor="start" x="8" y="-118.5" font-family="Helvetica,sans-Serif" font-size="10.00">proxsuite::proxqp::</text>
<text text-anchor="middle" x="78" y="-107.5" font-family="Helvetica,sans-Serif" font-size="10.00">MatrixViewMut&lt; T, layout &gt;</text>
</a>
</g>
</g>
<!-- Node2&#45;&gt;Node1 -->
<g id="edge1" class="edge">
<title>Node2&#45;&gt;Node1</title>
<path fill="none" stroke="#9a32cd" stroke-dasharray="5,2" d="M78,-90.28C78,-71.48 78,-46.08 78,-30.51"/>
<polygon fill="#9a32cd" stroke="#9a32cd" points="74.5,-90.46 78,-100.46 81.5,-90.46 74.5,-90.46"/>
<text text-anchor="middle" x="83" y="-74" font-family="Helvetica,sans-Serif" font-size="10.00"> A</text>
<text text-anchor="middle" x="83" y="-63" font-family="Helvetica,sans-Serif" font-size="10.00">C</text>
<text text-anchor="middle" x="83" y="-52" font-family="Helvetica,sans-Serif" font-size="10.00">H</text>
</g>
<!-- Node3 -->
<g id="node3" class="node">
<title>Node3</title>
<g id="a_node3"><a xlink:title=" ">
<polygon fill="none" stroke="black" points="58.5,-200.5 58.5,-219.5 97.5,-219.5 97.5,-200.5 58.5,-200.5"/>
<text text-anchor="middle" x="78" y="-207.5" font-family="Helvetica,sans-Serif" font-size="10.00">isize</text>
</a>
</g>
</g>
<!-- Node3&#45;&gt;Node2 -->
<g id="edge2" class="edge">
<title>Node3&#45;&gt;Node2</title>
<path fill="none" stroke="#9a32cd" stroke-dasharray="5,2" d="M78,-190.29C78,-172.67 78,-146.67 78,-130.7"/>
<polygon fill="#9a32cd" stroke="#9a32cd" points="74.5,-190.46 78,-200.46 81.5,-190.46 74.5,-190.46"/>
<text text-anchor="middle" x="107.5" y="-174" font-family="Helvetica,sans-Serif" font-size="10.00"> cols</text>
<text text-anchor="middle" x="107.5" y="-163" font-family="Helvetica,sans-Serif" font-size="10.00">outer_stride</text>
<text text-anchor="middle" x="107.5" y="-152" font-family="Helvetica,sans-Serif" font-size="10.00">rows</text>
</g>
</g>
</svg>
