<?xml version="1.0" encoding="UTF-8" standalone="no"?>
<!DOCTYPE svg PUBLIC "-//W3C//DTD SVG 1.1//EN"
 "http://www.w3.org/Graphics/SVG/1.1/DTD/svg11.dtd">
<!-- Generated by graphviz version 6.0.1 (20220911.2005)
 -->
<!-- Title: proxsuite::linalg::veg::_detail::_collections::VecImpl&lt; T, A, Dtor, Copy &gt; Pages: 1 -->
<svg width="426pt" height="404pt"
 viewBox="0.00 0.00 426.00 404.00" xmlns="http://www.w3.org/2000/svg" xmlns:xlink="http://www.w3.org/1999/xlink">
<g id="graph0" class="graph" transform="scale(1 1) rotate(0) translate(4 400)">
<title>proxsuite::linalg::veg::_detail::_collections::VecImpl&lt; T, A, Dtor, Copy &gt;</title>
<!-- Node1 -->
<g id="node1" class="node">
<title>Node1</title>
<g id="a_node1"><a xlink:title=" ">
<polygon fill="#999999" stroke="#666666" points="161,-202 0,-202 0,-161 161,-161 161,-202"/>
<text text-anchor="start" x="8" y="-190" font-family="Helvetica,sans-Serif" font-size="10.00">proxsuite::linalg::</text>
<text text-anchor="start" x="8" y="-179" font-family="Helvetica,sans-Serif" font-size="10.00">veg::_detail::_collections</text>
<text text-anchor="middle" x="80.5" y="-168" font-family="Helvetica,sans-Serif" font-size="10.00">::VecImpl&lt; T, A, Dtor, Copy &gt;</text>
</a>
</g>
</g>
<!-- Node2 -->
<g id="node2" class="node">
<title>Node2</title>
<g id="a_node2"><a xlink:href="structproxsuite_1_1linalg_1_1veg_1_1Vec.html" target="_top" xlink:title=" ">
<polygon fill="white" stroke="#666666" points="418,-396 197,-396 197,-311 418,-311 418,-396"/>
<text text-anchor="start" x="205" y="-384" font-family="Helvetica,sans-Serif" font-size="10.00">proxsuite::linalg::</text>
<text text-anchor="start" x="205" y="-373" font-family="Helvetica,sans-Serif" font-size="10.00">veg::Vec&lt; T, proxsuite</text>
<text text-anchor="start" x="205" y="-362" font-family="Helvetica,sans-Serif" font-size="10.00">::linalg::veg::meta::if</text>
<text text-anchor="start" x="205" y="-351" font-family="Helvetica,sans-Serif" font-size="10.00">_t&lt; _detail::should_vectorize</text>
<text text-anchor="start" x="205" y="-340" font-family="Helvetica,sans-Serif" font-size="10.00">&lt; T &gt;::value, _detail::SimdAlignedSystem</text>
<text text-anchor="start" x="205" y="-329" font-family="Helvetica,sans-Serif" font-size="10.00">Alloc, proxsuite::linalg::veg::mem</text>
<text text-anchor="middle" x="307.5" y="-318" font-family="Helvetica,sans-Serif" font-size="10.00">::SystemAlloc &gt; &gt;</text>
</a>
</g>
</g>
<!-- Node1&#45;&gt;Node2 -->
<g id="edge1" class="edge">
<title>Node1&#45;&gt;Node2</title>
<path fill="none" stroke="#63b8ff" d="M104.18,-210.47C125.87,-236.75 160.58,-275.28 197,-301.5 201.53,-304.76 206.29,-307.9 211.19,-310.91"/>
<polygon fill="#63b8ff" stroke="#63b8ff" points="106.64,-207.94 97.61,-202.4 101.21,-212.36 106.64,-207.94"/>
</g>
<!-- Node3 -->
<g id="node3" class="node">
<title>Node3</title>
<g id="a_node3"><a xlink:href="structproxsuite_1_1linalg_1_1veg_1_1Vec.html" target="_top" xlink:title=" ">
<polygon fill="white" stroke="#666666" points="359,-292.5 256,-292.5 256,-262.5 359,-262.5 359,-292.5"/>
<text text-anchor="start" x="264" y="-280.5" font-family="Helvetica,sans-Serif" font-size="10.00">proxsuite::linalg::</text>
<text text-anchor="middle" x="307.5" y="-269.5" font-family="Helvetica,sans-Serif" font-size="10.00">veg::Vec&lt; isize &gt;</text>
</a>
</g>
</g>
<!-- Node1&#45;&gt;Node3 -->
<g id="edge2" class="edge">
<title>Node1&#45;&gt;Node3</title>
<path fill="none" stroke="#63b8ff" d="M116.89,-208.01C138.91,-223.35 168.41,-241.86 197,-253.5 215.57,-261.06 236.92,-266.42 255.81,-270.13"/>
<polygon fill="#63b8ff" stroke="#63b8ff" points="118.71,-205.01 108.53,-202.09 114.67,-210.73 118.71,-205.01"/>
</g>
<!-- Node4 -->
<g id="node4" class="node">
<title>Node4</title>
<g id="a_node4"><a xlink:href="structproxsuite_1_1linalg_1_1veg_1_1Vec.html" target="_top" xlink:title=" ">
<polygon fill="white" stroke="#666666" points="358,-244.5 257,-244.5 257,-214.5 358,-214.5 358,-244.5"/>
<text text-anchor="start" x="265" y="-232.5" font-family="Helvetica,sans-Serif" font-size="10.00">proxsuite::linalg::</text>
<text text-anchor="middle" x="307.5" y="-221.5" font-family="Helvetica,sans-Serif" font-size="10.00">veg::Vec&lt; bool &gt;</text>
</a>
</g>
</g>
<!-- Node1&#45;&gt;Node4 -->
<g id="edge3" class="edge">
<title>Node1&#45;&gt;Node4</title>
<path fill="none" stroke="#63b8ff" d="M170.96,-200.58C200.17,-206.82 231.56,-213.51 256.76,-218.89"/>
<polygon fill="#63b8ff" stroke="#63b8ff" points="171.65,-197.15 161.14,-198.49 170.19,-204 171.65,-197.15"/>
</g>
<!-- Node5 -->
<g id="node5" class="node">
<title>Node5</title>
<g id="a_node5"><a xlink:href="structproxsuite_1_1linalg_1_1veg_1_1Vec.html" target="_top" xlink:title=" ">
<polygon fill="white" stroke="#666666" points="382,-196.5 233,-196.5 233,-166.5 382,-166.5 382,-196.5"/>
<text text-anchor="start" x="241" y="-184.5" font-family="Helvetica,sans-Serif" font-size="10.00">proxsuite::linalg::</text>
<text text-anchor="middle" x="307.5" y="-173.5" font-family="Helvetica,sans-Serif" font-size="10.00">veg::Vec&lt; unsigned char &gt;</text>
</a>
</g>
</g>
<!-- Node1&#45;&gt;Node5 -->
<g id="edge4" class="edge">
<title>Node1&#45;&gt;Node5</title>
<path fill="none" stroke="#63b8ff" d="M171.4,-181.5C191.84,-181.5 213.32,-181.5 232.98,-181.5"/>
<polygon fill="#63b8ff" stroke="#63b8ff" points="171.14,-178 161.14,-181.5 171.14,-185 171.14,-178"/>
</g>
<!-- Node6 -->
<g id="node6" class="node">
<title>Node6</title>
<g id="a_node6"><a xlink:href="structproxsuite_1_1linalg_1_1veg_1_1Vec.html" target="_top" xlink:title=" ">
<polygon fill="white" stroke="#666666" points="358,-148.5 257,-148.5 257,-118.5 358,-118.5 358,-148.5"/>
<text text-anchor="start" x="265" y="-136.5" font-family="Helvetica,sans-Serif" font-size="10.00">proxsuite::linalg::</text>
<text text-anchor="middle" x="307.5" y="-125.5" font-family="Helvetica,sans-Serif" font-size="10.00">veg::Vec&lt; I &gt;</text>
</a>
</g>
</g>
<!-- Node1&#45;&gt;Node6 -->
<g id="edge5" class="edge">
<title>Node1&#45;&gt;Node6</title>
<path fill="none" stroke="#63b8ff" d="M170.96,-162.42C200.17,-156.18 231.56,-149.49 256.76,-144.11"/>
<polygon fill="#63b8ff" stroke="#63b8ff" points="170.19,-159 161.14,-164.51 171.65,-165.85 170.19,-159"/>
</g>
<!-- Node7 -->
<g id="node7" class="node">
<title>Node7</title>
<g id="a_node7"><a xlink:href="structproxsuite_1_1linalg_1_1veg_1_1Vec.html" target="_top" xlink:title=" ">
<polygon fill="white" stroke="#666666" points="379.5,-100 235.5,-100 235.5,-59 379.5,-59 379.5,-100"/>
<text text-anchor="start" x="243.5" y="-88" font-family="Helvetica,sans-Serif" font-size="10.00">proxsuite::linalg::</text>
<text text-anchor="start" x="243.5" y="-77" font-family="Helvetica,sans-Serif" font-size="10.00">veg::Vec&lt; proxsuite</text>
<text text-anchor="middle" x="307.5" y="-66" font-family="Helvetica,sans-Serif" font-size="10.00">::linalg::veg::mem::byte &gt;</text>
</a>
</g>
</g>
<!-- Node1&#45;&gt;Node7 -->
<g id="edge6" class="edge">
<title>Node1&#45;&gt;Node7</title>
<path fill="none" stroke="#63b8ff" d="M118.01,-154.9C140.01,-139.87 169.1,-121.71 197,-109.5 209.1,-104.21 222.37,-99.63 235.36,-95.76"/>
<polygon fill="#63b8ff" stroke="#63b8ff" points="115.87,-152.13 109.64,-160.7 119.86,-157.88 115.87,-152.13"/>
</g>
<!-- Node8 -->
<g id="node8" class="node">
<title>Node8</title>
<g id="a_node8"><a xlink:href="structproxsuite_1_1linalg_1_1veg_1_1Vec.html" target="_top" xlink:title=" ">
<polygon fill="white" stroke="#666666" points="366.5,-41 248.5,-41 248.5,0 366.5,0 366.5,-41"/>
<text text-anchor="start" x="256.5" y="-29" font-family="Helvetica,sans-Serif" font-size="10.00">proxsuite::linalg::</text>
<text text-anchor="start" x="256.5" y="-18" font-family="Helvetica,sans-Serif" font-size="10.00">veg::Vec&lt; T, A, Dtor,</text>
<text text-anchor="middle" x="307.5" y="-7" font-family="Helvetica,sans-Serif" font-size="10.00"> Copy &gt;</text>
</a>
</g>
</g>
<!-- Node1&#45;&gt;Node8 -->
<g id="edge7" class="edge">
<title>Node1&#45;&gt;Node8</title>
<path fill="none" stroke="#63b8ff" d="M99.58,-152.51C119.75,-122.57 155.09,-76.65 197,-50.5 212.47,-40.85 231.06,-34.26 248.49,-29.77"/>
<polygon fill="#63b8ff" stroke="#63b8ff" points="96.65,-150.6 94.06,-160.87 102.49,-154.45 96.65,-150.6"/>
</g>
</g>
</svg>
