<?xml version="1.0" encoding="UTF-8" standalone="no"?>
<!DOCTYPE svg PUBLIC "-//W3C//DTD SVG 1.1//EN"
 "http://www.w3.org/Graphics/SVG/1.1/DTD/svg11.dtd">
<!-- Generated by graphviz version 8.0.4 (20230426.1303)
 -->
<!-- Title: proxsuite::linalg::veg::collections::relocate_pointer&lt; T &gt; Pages: 1 -->
<svg width="165pt" height="219pt"
 viewBox="0.00 0.00 165.00 218.75" xmlns="http://www.w3.org/2000/svg" xmlns:xlink="http://www.w3.org/1999/xlink">
<g id="graph0" class="graph" transform="scale(1 1) rotate(0) translate(4 214.75)">
<title>proxsuite::linalg::veg::collections::relocate_pointer&lt; T &gt;</title>
<!-- Node1 -->
<g id="node1" class="node">
<title>Node1</title>
<g id="a_node1"><a xlink:title=" ">
<polygon fill="#999999" stroke="#666666" points="147.62,-46.25 9.38,-46.25 9.38,0 147.62,0 147.62,-46.25"/>
<text text-anchor="start" x="17.38" y="-32.75" font-family="Helvetica,sans-Serif" font-size="10.00">proxsuite::linalg::</text>
<text text-anchor="start" x="17.38" y="-20" font-family="Helvetica,sans-Serif" font-size="10.00">veg::collections::relocate</text>
<text text-anchor="middle" x="78.5" y="-7.25" font-family="Helvetica,sans-Serif" font-size="10.00">_pointer&lt; T &gt;</text>
</a>
</g>
</g>
<!-- Node2 -->
<g id="node2" class="node">
<title>Node2</title>
<g id="a_node2"><a xlink:href="structproxsuite_1_1linalg_1_1veg_1_1__detail_1_1__collections_1_1relocate__pointer.html" target="_top" xlink:title=" ">
<polygon fill="white" stroke="#666666" points="157,-128.5 0,-128.5 0,-82.25 157,-82.25 157,-128.5"/>
<text text-anchor="start" x="8" y="-115" font-family="Helvetica,sans-Serif" font-size="10.00">proxsuite::linalg::</text>
<text text-anchor="start" x="8" y="-102.25" font-family="Helvetica,sans-Serif" font-size="10.00">veg::_detail::_collections</text>
<text text-anchor="middle" x="78.5" y="-89.5" font-family="Helvetica,sans-Serif" font-size="10.00">::relocate_pointer&lt; T, bool &gt;</text>
</a>
</g>
</g>
<!-- Node2&#45;&gt;Node1 -->
<g id="edge1" class="edge">
<title>Node2&#45;&gt;Node1</title>
<path fill="none" stroke="#63b8ff" d="M78.5,-71.15C78.5,-62.9 78.5,-54.24 78.5,-46.64"/>
<polygon fill="#63b8ff" stroke="#63b8ff" points="75,-71.02 78.5,-81.02 82,-71.02 75,-71.02"/>
</g>
<!-- Node3 -->
<g id="node3" class="node">
<title>Node3</title>
<g id="a_node3"><a xlink:href="structproxsuite_1_1linalg_1_1veg_1_1__detail_1_1__collections_1_1relocate__pointer__trivial.html" target="_top" xlink:title=" ">
<polygon fill="white" stroke="#666666" points="146.88,-210.75 10.12,-210.75 10.12,-164.5 146.88,-164.5 146.88,-210.75"/>
<text text-anchor="start" x="18.12" y="-197.25" font-family="Helvetica,sans-Serif" font-size="10.00">proxsuite::linalg::</text>
<text text-anchor="start" x="18.12" y="-184.5" font-family="Helvetica,sans-Serif" font-size="10.00">veg::_detail::_collections</text>
<text text-anchor="middle" x="78.5" y="-171.75" font-family="Helvetica,sans-Serif" font-size="10.00">::relocate_pointer_trivial</text>
</a>
</g>
</g>
<!-- Node3&#45;&gt;Node2 -->
<g id="edge2" class="edge">
<title>Node3&#45;&gt;Node2</title>
<path fill="none" stroke="#63b8ff" d="M78.5,-153.4C78.5,-145.15 78.5,-136.49 78.5,-128.89"/>
<polygon fill="#63b8ff" stroke="#63b8ff" points="75,-153.27 78.5,-163.27 82,-153.27 75,-153.27"/>
</g>
</g>
</svg>
