<?xml version="1.0" encoding="UTF-8" standalone="no"?>
<!DOCTYPE svg PUBLIC "-//W3C//DTD SVG 1.1//EN"
 "http://www.w3.org/Graphics/SVG/1.1/DTD/svg11.dtd">
<!-- Generated by graphviz version 8.1.0 (20230707.2238)
 -->
<!-- Title: proxsuite::linalg::veg::Tuple&lt; Ts &gt; Pages: 1 -->
<svg width="571pt" height="568pt"
 viewBox="0.00 0.00 571.25 568.00" xmlns="http://www.w3.org/2000/svg" xmlns:xlink="http://www.w3.org/1999/xlink">
<g id="graph0" class="graph" transform="scale(1 1) rotate(0) translate(4 564)">
<title>proxsuite::linalg::veg::Tuple&lt; Ts &gt;</title>
<!-- Node1 -->
<g id="Node000001" class="node">
<title>Node1</title>
<g id="a_Node000001"><a xlink:title=" ">
<polygon fill="#999999" stroke="#666666" points="306.5,-277.62 205.75,-277.62 205.75,-244.12 306.5,-244.12 306.5,-277.62"/>
<text text-anchor="start" x="213.75" y="-264.12" font-family="Helvetica,sans-Serif" font-size="10.00">proxsuite::linalg::</text>
<text text-anchor="middle" x="256.12" y="-251.38" font-family="Helvetica,sans-Serif" font-size="10.00">veg::Tuple&lt; Ts &gt;</text>
</a>
</g>
</g>
<!-- Node3 -->
<g id="Node000003" class="node">
<title>Node3</title>
<g id="a_Node000003"><a xlink:href="structproxsuite_1_1linalg_1_1veg_1_1__detail_1_1__vector_1_1VecAlloc.html" target="_top" xlink:title=" ">
<polygon fill="white" stroke="#666666" points="547.88,-560 357.88,-560 357.88,-513.75 547.88,-513.75 547.88,-560"/>
<text text-anchor="start" x="365.88" y="-546.5" font-family="Helvetica,sans-Serif" font-size="10.00">proxsuite::linalg::</text>
<text text-anchor="start" x="365.88" y="-533.75" font-family="Helvetica,sans-Serif" font-size="10.00">veg::_detail::_vector</text>
<text text-anchor="middle" x="452.88" y="-521" font-family="Helvetica,sans-Serif" font-size="10.00">::VecAlloc&lt; T, mem::SystemAlloc &gt;</text>
</a>
</g>
</g>
<!-- Node1&#45;&gt;Node3 -->
<g id="edge2_Node000001_Node000003" class="edge">
<title>Node1&#45;&gt;Node3</title>
<g id="a_edge2_Node000001_Node000003"><a xlink:title=" ">
<path fill="none" stroke="#63b8ff" d="M258.81,-288.57C263.39,-338.95 280.3,-445.82 342.5,-504.88 347.02,-509.17 352.08,-512.89 357.49,-516.11"/>
<polygon fill="#63b8ff" stroke="#63b8ff" points="262.24,-288.57 257.95,-278.88 255.26,-289.13 262.24,-288.57"/>
</a>
</g>
</g>
<!-- Node4 -->
<g id="Node000004" class="node">
<title>Node4</title>
<g id="a_Node000004"><a xlink:href="structproxsuite_1_1linalg_1_1veg_1_1__detail_1_1__vector_1_1VecAlloc.html" target="_top" xlink:title=" ">
<polygon fill="white" stroke="#666666" points="563.25,-495.88 342.5,-495.88 342.5,-385.88 563.25,-385.88 563.25,-495.88"/>
<text text-anchor="start" x="350.5" y="-482.38" font-family="Helvetica,sans-Serif" font-size="10.00">proxsuite::linalg::</text>
<text text-anchor="start" x="350.5" y="-469.62" font-family="Helvetica,sans-Serif" font-size="10.00">veg::_detail::_vector</text>
<text text-anchor="start" x="350.5" y="-456.88" font-family="Helvetica,sans-Serif" font-size="10.00">::VecAlloc&lt; T, proxsuite</text>
<text text-anchor="start" x="350.5" y="-444.12" font-family="Helvetica,sans-Serif" font-size="10.00">::linalg::veg::meta::if</text>
<text text-anchor="start" x="350.5" y="-431.38" font-family="Helvetica,sans-Serif" font-size="10.00">_t&lt; _detail::should_vectorize</text>
<text text-anchor="start" x="350.5" y="-418.62" font-family="Helvetica,sans-Serif" font-size="10.00">&lt; T &gt;::value, _detail::SimdAlignedSystem</text>
<text text-anchor="start" x="350.5" y="-405.88" font-family="Helvetica,sans-Serif" font-size="10.00">Alloc, proxsuite::linalg::veg::mem</text>
<text text-anchor="middle" x="452.88" y="-393.12" font-family="Helvetica,sans-Serif" font-size="10.00">::SystemAlloc &gt; &gt;</text>
</a>
</g>
</g>
<!-- Node1&#45;&gt;Node4 -->
<g id="edge3_Node000001_Node000004" class="edge">
<title>Node1&#45;&gt;Node4</title>
<g id="a_edge3_Node000001_Node000004"><a xlink:title=" ">
<path fill="none" stroke="#63b8ff" d="M272.16,-287.23C287.49,-312.44 313.13,-350.44 342.5,-376.88 345.77,-379.82 349.2,-382.69 352.74,-385.49"/>
<polygon fill="#63b8ff" stroke="#63b8ff" points="274.74,-285.72 266.62,-278.92 268.73,-289.3 274.74,-285.72"/>
</a>
</g>
</g>
<!-- Node5 -->
<g id="Node000005" class="node">
<title>Node5</title>
<g id="a_Node000005"><a xlink:href="structproxsuite_1_1linalg_1_1veg_1_1__detail_1_1__vector_1_1VecAlloc.html" target="_top" xlink:title=" ">
<polygon fill="white" stroke="#666666" points="517.12,-367.38 388.62,-367.38 388.62,-308.38 517.12,-308.38 517.12,-367.38"/>
<text text-anchor="start" x="396.62" y="-353.88" font-family="Helvetica,sans-Serif" font-size="10.00">proxsuite::linalg::</text>
<text text-anchor="start" x="396.62" y="-341.12" font-family="Helvetica,sans-Serif" font-size="10.00">veg::_detail::_vector</text>
<text text-anchor="start" x="396.62" y="-328.38" font-family="Helvetica,sans-Serif" font-size="10.00">::VecAlloc&lt; isize, mem</text>
<text text-anchor="middle" x="452.88" y="-315.62" font-family="Helvetica,sans-Serif" font-size="10.00">::SystemAlloc &gt;</text>
</a>
</g>
</g>
<!-- Node1&#45;&gt;Node5 -->
<g id="edge4_Node000001_Node000005" class="edge">
<title>Node1&#45;&gt;Node5</title>
<g id="a_edge4_Node000001_Node000005"><a xlink:title=" ">
<path fill="none" stroke="#63b8ff" d="M302.51,-282.57C315.33,-288.43 329.37,-294.61 342.5,-299.88 357.15,-305.75 373.09,-311.59 388.17,-316.88"/>
<polygon fill="#63b8ff" stroke="#63b8ff" points="304.07,-278.97 293.52,-277.95 301.13,-285.32 304.07,-278.97"/>
</a>
</g>
</g>
<!-- Node6 -->
<g id="Node000006" class="node">
<title>Node6</title>
<g id="a_Node000006"><a xlink:href="structproxsuite_1_1linalg_1_1veg_1_1__detail_1_1__vector_1_1VecAlloc.html" target="_top" xlink:title=" ">
<polygon fill="white" stroke="#666666" points="516.38,-290.38 389.38,-290.38 389.38,-231.38 516.38,-231.38 516.38,-290.38"/>
<text text-anchor="start" x="397.38" y="-276.88" font-family="Helvetica,sans-Serif" font-size="10.00">proxsuite::linalg::</text>
<text text-anchor="start" x="397.38" y="-264.12" font-family="Helvetica,sans-Serif" font-size="10.00">veg::_detail::_vector</text>
<text text-anchor="start" x="397.38" y="-251.38" font-family="Helvetica,sans-Serif" font-size="10.00">::VecAlloc&lt; bool, mem</text>
<text text-anchor="middle" x="452.88" y="-238.62" font-family="Helvetica,sans-Serif" font-size="10.00">::SystemAlloc &gt;</text>
</a>
</g>
</g>
<!-- Node1&#45;&gt;Node6 -->
<g id="edge5_Node000001_Node000006" class="edge">
<title>Node1&#45;&gt;Node6</title>
<g id="a_edge5_Node000001_Node000006"><a xlink:title=" ">
<path fill="none" stroke="#63b8ff" d="M317.63,-260.88C340.32,-260.88 366.14,-260.88 389.03,-260.88"/>
<polygon fill="#63b8ff" stroke="#63b8ff" points="317.77,-257.38 307.77,-260.88 317.77,-264.38 317.77,-257.38"/>
</a>
</g>
</g>
<!-- Node7 -->
<g id="Node000007" class="node">
<title>Node7</title>
<g id="a_Node000007"><a xlink:href="structproxsuite_1_1linalg_1_1veg_1_1__detail_1_1__vector_1_1VecAlloc.html" target="_top" xlink:title=" ">
<polygon fill="white" stroke="#666666" points="525.75,-213.38 380,-213.38 380,-154.38 525.75,-154.38 525.75,-213.38"/>
<text text-anchor="start" x="388" y="-199.88" font-family="Helvetica,sans-Serif" font-size="10.00">proxsuite::linalg::</text>
<text text-anchor="start" x="388" y="-187.12" font-family="Helvetica,sans-Serif" font-size="10.00">veg::_detail::_vector</text>
<text text-anchor="start" x="388" y="-174.38" font-family="Helvetica,sans-Serif" font-size="10.00">::VecAlloc&lt; unsigned char,</text>
<text text-anchor="middle" x="452.88" y="-161.62" font-family="Helvetica,sans-Serif" font-size="10.00"> mem::SystemAlloc &gt;</text>
</a>
</g>
</g>
<!-- Node1&#45;&gt;Node7 -->
<g id="edge6_Node000001_Node000007" class="edge">
<title>Node1&#45;&gt;Node7</title>
<g id="a_edge6_Node000001_Node000007"><a xlink:title=" ">
<path fill="none" stroke="#63b8ff" d="M302.51,-239.18C315.33,-233.32 329.37,-227.14 342.5,-221.88 354.44,-217.09 367.25,-212.32 379.74,-207.86"/>
<polygon fill="#63b8ff" stroke="#63b8ff" points="301.13,-236.43 293.52,-243.8 304.07,-242.78 301.13,-236.43"/>
</a>
</g>
</g>
<!-- Node8 -->
<g id="Node000008" class="node">
<title>Node8</title>
<g id="a_Node000008"><a xlink:href="structproxsuite_1_1linalg_1_1veg_1_1__detail_1_1__vector_1_1VecAlloc.html" target="_top" xlink:title=" ">
<polygon fill="white" stroke="#666666" points="546.38,-136 359.38,-136 359.38,-89.75 546.38,-89.75 546.38,-136"/>
<text text-anchor="start" x="367.38" y="-122.5" font-family="Helvetica,sans-Serif" font-size="10.00">proxsuite::linalg::</text>
<text text-anchor="start" x="367.38" y="-109.75" font-family="Helvetica,sans-Serif" font-size="10.00">veg::_detail::_vector</text>
<text text-anchor="middle" x="452.88" y="-97" font-family="Helvetica,sans-Serif" font-size="10.00">::VecAlloc&lt; I, mem::SystemAlloc &gt;</text>
</a>
</g>
</g>
<!-- Node1&#45;&gt;Node8 -->
<g id="edge7_Node000001_Node000008" class="edge">
<title>Node1&#45;&gt;Node8</title>
<g id="a_edge7_Node000001_Node000008"><a xlink:title=" ">
<path fill="none" stroke="#63b8ff" d="M269.94,-234.53C284.13,-208.07 309.43,-168.01 342.5,-144.88 347.69,-141.25 353.29,-138.02 359.11,-135.16"/>
<polygon fill="#63b8ff" stroke="#63b8ff" points="266.56,-232.45 265.05,-242.94 272.77,-235.68 266.56,-232.45"/>
</a>
</g>
</g>
<!-- Node9 -->
<g id="Node000009" class="node">
<title>Node9</title>
<g id="a_Node000009"><a xlink:href="structproxsuite_1_1linalg_1_1veg_1_1__detail_1_1__vector_1_1VecAlloc.html" target="_top" xlink:title=" ">
<polygon fill="white" stroke="#666666" points="520.5,-71.75 385.25,-71.75 385.25,0 520.5,0 520.5,-71.75"/>
<text text-anchor="start" x="393.25" y="-58.25" font-family="Helvetica,sans-Serif" font-size="10.00">proxsuite::linalg::</text>
<text text-anchor="start" x="393.25" y="-45.5" font-family="Helvetica,sans-Serif" font-size="10.00">veg::_detail::_vector</text>
<text text-anchor="start" x="393.25" y="-32.75" font-family="Helvetica,sans-Serif" font-size="10.00">::VecAlloc&lt; proxsuite</text>
<text text-anchor="start" x="393.25" y="-20" font-family="Helvetica,sans-Serif" font-size="10.00">::linalg::veg::mem::byte,</text>
<text text-anchor="middle" x="452.88" y="-7.25" font-family="Helvetica,sans-Serif" font-size="10.00"> mem::SystemAlloc &gt;</text>
</a>
</g>
</g>
<!-- Node1&#45;&gt;Node9 -->
<g id="edge8_Node000001_Node000009" class="edge">
<title>Node1&#45;&gt;Node9</title>
<g id="a_edge8_Node000001_Node000009"><a xlink:title=" ">
<path fill="none" stroke="#63b8ff" d="M263.49,-233.28C273.78,-194.39 297.63,-123.45 342.5,-80.88 354.42,-69.57 369.57,-60.93 384.76,-54.41"/>
<polygon fill="#63b8ff" stroke="#63b8ff" points="259.88,-232.25 260.83,-242.81 266.67,-233.97 259.88,-232.25"/>
</a>
</g>
</g>
<!-- Node2 -->
<g id="Node000002" class="node">
<title>Node2</title>
<g id="a_Node000002"><a xlink:href="structproxsuite_1_1linalg_1_1veg_1_1tuple_1_1IndexedTuple.html" target="_top" xlink:title=" ">
<polygon fill="white" stroke="#666666" points="169.75,-290.38 0,-290.38 0,-231.38 169.75,-231.38 169.75,-290.38"/>
<text text-anchor="start" x="8" y="-276.88" font-family="Helvetica,sans-Serif" font-size="10.00">proxsuite::linalg::</text>
<text text-anchor="start" x="8" y="-264.12" font-family="Helvetica,sans-Serif" font-size="10.00">veg::tuple::IndexedTuple</text>
<text text-anchor="start" x="8" y="-251.38" font-family="Helvetica,sans-Serif" font-size="10.00">&lt; meta::make_index_sequence</text>
<text text-anchor="middle" x="84.88" y="-238.62" font-family="Helvetica,sans-Serif" font-size="10.00">&lt; sizeof...(Ts)&gt;, Ts... &gt;</text>
</a>
</g>
</g>
<!-- Node2&#45;&gt;Node1 -->
<g id="edge1_Node000001_Node000002" class="edge">
<title>Node2&#45;&gt;Node1</title>
<g id="a_edge1_Node000001_Node000002"><a xlink:title=" ">
<path fill="none" stroke="#63b8ff" d="M180.77,-260.88C189.23,-260.88 197.55,-260.88 205.39,-260.88"/>
<polygon fill="#63b8ff" stroke="#63b8ff" points="181,-257.38 171,-260.88 181,-264.38 181,-257.38"/>
</a>
</g>
</g>
</g>
</svg>
