<?xml version="1.0" encoding="UTF-8" standalone="no"?>
<!DOCTYPE svg PUBLIC "-//W3C//DTD SVG 1.1//EN"
 "http://www.w3.org/Graphics/SVG/1.1/DTD/svg11.dtd">
<!-- Generated by graphviz version 7.0.6 (20230107.1202)
 -->
<!-- Title: tl::detail::optional_copy_assign_base&lt; T, bool &gt; Pages: 1 -->
<svg width="1125pt" height="108pt"
 viewBox="0.00 0.00 1125.00 108.00" xmlns="http://www.w3.org/2000/svg" xmlns:xlink="http://www.w3.org/1999/xlink">
<g id="graph0" class="graph" transform="scale(1 1) rotate(0) translate(4 104)">
<title>tl::detail::optional_copy_assign_base&lt; T, bool &gt;</title>
<!-- Node1 -->
<g id="node1" class="node">
<title>Node1</title>
<g id="a_node1"><a xlink:title=" ">
<polygon fill="#999999" stroke="#666666" points="812,-70 681,-70 681,-29 812,-29 812,-70"/>
<text text-anchor="start" x="689" y="-58" font-family="Helvetica,sans-Serif" font-size="10.00">tl::detail::optional</text>
<text text-anchor="start" x="689" y="-47" font-family="Helvetica,sans-Serif" font-size="10.00">_copy_assign_base&lt; T,</text>
<text text-anchor="middle" x="746.5" y="-36" font-family="Helvetica,sans-Serif" font-size="10.00"> bool &gt;</text>
</a>
</g>
</g>
<!-- Node6 -->
<g id="node6" class="node">
<title>Node6</title>
<g id="a_node6"><a xlink:href="structtl_1_1detail_1_1optional__move__assign__base.html" target="_top" xlink:title=" ">
<polygon fill="white" stroke="#666666" points="983,-100 848,-100 848,-59 983,-59 983,-100"/>
<text text-anchor="start" x="856" y="-88" font-family="Helvetica,sans-Serif" font-size="10.00">tl::detail::optional</text>
<text text-anchor="start" x="856" y="-77" font-family="Helvetica,sans-Serif" font-size="10.00">_move_assign_base&lt; T,</text>
<text text-anchor="middle" x="915.5" y="-66" font-family="Helvetica,sans-Serif" font-size="10.00"> bool &gt;</text>
</a>
</g>
</g>
<!-- Node1&#45;&gt;Node6 -->
<g id="edge5" class="edge">
<title>Node1&#45;&gt;Node6</title>
<path fill="none" stroke="#63b8ff" d="M823.4,-63.13C831.48,-64.59 839.65,-66.05 847.62,-67.49"/>
<polygon fill="#63b8ff" stroke="#63b8ff" points="824.02,-59.69 813.56,-61.37 822.78,-66.58 824.02,-59.69"/>
</g>
<!-- Node8 -->
<g id="node8" class="node">
<title>Node8</title>
<g id="a_node8"><a xlink:href="structtl_1_1detail_1_1optional__move__assign__base_3_01T_00_01false_01_4.html" target="_top" xlink:title=" ">
<polygon fill="white" stroke="#666666" points="983,-41 848,-41 848,0 983,0 983,-41"/>
<text text-anchor="start" x="856" y="-29" font-family="Helvetica,sans-Serif" font-size="10.00">tl::detail::optional</text>
<text text-anchor="start" x="856" y="-18" font-family="Helvetica,sans-Serif" font-size="10.00">_move_assign_base&lt; T,</text>
<text text-anchor="middle" x="915.5" y="-7" font-family="Helvetica,sans-Serif" font-size="10.00"> false &gt;</text>
</a>
</g>
</g>
<!-- Node1&#45;&gt;Node8 -->
<g id="edge7" class="edge">
<title>Node1&#45;&gt;Node8</title>
<path fill="none" stroke="#63b8ff" d="M823.4,-36.32C831.48,-34.92 839.65,-33.5 847.62,-32.11"/>
<polygon fill="#63b8ff" stroke="#63b8ff" points="822.81,-32.87 813.56,-38.03 824.01,-39.77 822.81,-32.87"/>
</g>
<!-- Node2 -->
<g id="node2" class="node">
<title>Node2</title>
<g id="a_node2"><a xlink:href="structtl_1_1detail_1_1optional__move__base.html" target="_top" xlink:title=" ">
<polygon fill="white" stroke="#666666" points="645,-64.5 511,-64.5 511,-34.5 645,-34.5 645,-64.5"/>
<text text-anchor="start" x="519" y="-52.5" font-family="Helvetica,sans-Serif" font-size="10.00">tl::detail::optional</text>
<text text-anchor="middle" x="578" y="-41.5" font-family="Helvetica,sans-Serif" font-size="10.00">_move_base&lt; T, bool &gt;</text>
</a>
</g>
</g>
<!-- Node2&#45;&gt;Node1 -->
<g id="edge1" class="edge">
<title>Node2&#45;&gt;Node1</title>
<path fill="none" stroke="#63b8ff" d="M656.55,-49.5C664.57,-49.5 672.67,-49.5 680.53,-49.5"/>
<polygon fill="#63b8ff" stroke="#63b8ff" points="656.8,-46 646.8,-49.5 656.8,-53 656.8,-46"/>
</g>
<!-- Node3 -->
<g id="node3" class="node">
<title>Node3</title>
<g id="a_node3"><a xlink:href="structtl_1_1detail_1_1optional__copy__base.html" target="_top" xlink:title=" ">
<polygon fill="white" stroke="#666666" points="475,-64.5 346,-64.5 346,-34.5 475,-34.5 475,-64.5"/>
<text text-anchor="start" x="354" y="-52.5" font-family="Helvetica,sans-Serif" font-size="10.00">tl::detail::optional</text>
<text text-anchor="middle" x="410.5" y="-41.5" font-family="Helvetica,sans-Serif" font-size="10.00">_copy_base&lt; T, bool &gt;</text>
</a>
</g>
</g>
<!-- Node3&#45;&gt;Node2 -->
<g id="edge2" class="edge">
<title>Node3&#45;&gt;Node2</title>
<path fill="none" stroke="#63b8ff" d="M486.99,-49.5C494.91,-49.5 502.92,-49.5 510.72,-49.5"/>
<polygon fill="#63b8ff" stroke="#63b8ff" points="487,-46 477,-49.5 487,-53 487,-46"/>
</g>
<!-- Node4 -->
<g id="node4" class="node">
<title>Node4</title>
<g id="a_node4"><a xlink:href="structtl_1_1detail_1_1optional__operations__base.html" target="_top" xlink:title=" ">
<polygon fill="white" stroke="#666666" points="310,-64.5 179,-64.5 179,-34.5 310,-34.5 310,-64.5"/>
<text text-anchor="start" x="187" y="-52.5" font-family="Helvetica,sans-Serif" font-size="10.00">tl::detail::optional</text>
<text text-anchor="middle" x="244.5" y="-41.5" font-family="Helvetica,sans-Serif" font-size="10.00">_operations_base&lt; T &gt;</text>
</a>
</g>
</g>
<!-- Node4&#45;&gt;Node3 -->
<g id="edge3" class="edge">
<title>Node4&#45;&gt;Node3</title>
<path fill="none" stroke="#63b8ff" d="M321.62,-49.5C329.67,-49.5 337.8,-49.5 345.69,-49.5"/>
<polygon fill="#63b8ff" stroke="#63b8ff" points="321.83,-46 311.83,-49.5 321.83,-53 321.83,-46"/>
</g>
<!-- Node5 -->
<g id="node5" class="node">
<title>Node5</title>
<g id="a_node5"><a xlink:href="structtl_1_1detail_1_1optional__storage__base.html" target="_top" xlink:title=" ">
<polygon fill="white" stroke="#666666" points="143,-64.5 0,-64.5 0,-34.5 143,-34.5 143,-64.5"/>
<text text-anchor="start" x="8" y="-52.5" font-family="Helvetica,sans-Serif" font-size="10.00">tl::detail::optional</text>
<text text-anchor="middle" x="71.5" y="-41.5" font-family="Helvetica,sans-Serif" font-size="10.00">_storage_base&lt; T, bool &gt;</text>
</a>
</g>
</g>
<!-- Node5&#45;&gt;Node4 -->
<g id="edge4" class="edge">
<title>Node5&#45;&gt;Node4</title>
<path fill="none" stroke="#63b8ff" d="M154.45,-49.5C162.55,-49.5 170.71,-49.5 178.61,-49.5"/>
<polygon fill="#63b8ff" stroke="#63b8ff" points="154.55,-46 144.55,-49.5 154.55,-53 154.55,-46"/>
</g>
<!-- Node7 -->
<g id="node7" class="node">
<title>Node7</title>
<g id="a_node7"><a xlink:href="classtl_1_1optional.html" target="_top" xlink:title=" ">
<polygon fill="white" stroke="#666666" points="1117,-89 1019,-89 1019,-70 1117,-70 1117,-89"/>
<text text-anchor="middle" x="1068" y="-77" font-family="Helvetica,sans-Serif" font-size="10.00">tl::optional&lt; T &gt;</text>
</a>
</g>
</g>
<!-- Node6&#45;&gt;Node7 -->
<g id="edge6" class="edge">
<title>Node6&#45;&gt;Node7</title>
<path fill="none" stroke="#8b1a1a" d="M994.62,-79.5C1002.86,-79.5 1011.06,-79.5 1018.82,-79.5"/>
<polygon fill="#8b1a1a" stroke="#8b1a1a" points="994.9,-76 984.9,-79.5 994.9,-83 994.9,-76"/>
</g>
</g>
</svg>
