<?xml version="1.0" encoding="UTF-8" standalone="no"?>
<!DOCTYPE svg PUBLIC "-//W3C//DTD SVG 1.1//EN"
 "http://www.w3.org/Graphics/SVG/1.1/DTD/svg11.dtd">
<!-- Generated by graphviz version 5.0.1 (20220821.0811)
 -->
<!-- Title: proxsuite::linalg::veg::_detail::_dynstack::cleanup Pages: 1 -->
<svg width="405pt" height="100pt"
 viewBox="0.00 0.00 405.00 99.50" xmlns="http://www.w3.org/2000/svg" xmlns:xlink="http://www.w3.org/1999/xlink">
<g id="graph0" class="graph" transform="scale(1 1) rotate(0) translate(4 95.5)">
<title>proxsuite::linalg::veg::_detail::_dynstack::cleanup</title>
<!-- Node1 -->
<g id="node1" class="node">
<title>Node1</title>
<g id="a_node1"><a xlink:title=" ">
<polygon fill="#bfbfbf" stroke="black" points="268,-27.5 268,-68.5 397,-68.5 397,-27.5 268,-27.5"/>
<text text-anchor="start" x="276" y="-56.5" font-family="Helvetica,sans-Serif" font-size="10.00">proxsuite::linalg::</text>
<text text-anchor="start" x="276" y="-45.5" font-family="Helvetica,sans-Serif" font-size="10.00">veg::_detail::_dynstack</text>
<text text-anchor="middle" x="332.5" y="-34.5" font-family="Helvetica,sans-Serif" font-size="10.00">::cleanup</text>
</a>
</g>
</g>
<!-- Node2 -->
<g id="node2" class="node">
<title>Node2</title>
<g id="a_node2"><a xlink:href="structproxsuite_1_1linalg_1_1veg_1_1dynstack_1_1DynStackMut.html" target="_top" xlink:title=" ">
<polygon fill="none" stroke="black" points="0,-61 0,-91 156,-91 156,-61 0,-61"/>
<text text-anchor="start" x="8" y="-79" font-family="Helvetica,sans-Serif" font-size="10.00">proxsuite::linalg::</text>
<text text-anchor="middle" x="78" y="-68" font-family="Helvetica,sans-Serif" font-size="10.00">veg::dynstack::DynStackMut</text>
</a>
</g>
</g>
<!-- Node2&#45;&gt;Node1 -->
<g id="edge1" class="edge">
<title>Node2&#45;&gt;Node1</title>
<path fill="none" stroke="#9a32cd" stroke-dasharray="5,2" d="M166.36,-66.31C199.77,-62.61 237.21,-58.46 267.98,-55.04"/>
<polygon fill="#9a32cd" stroke="#9a32cd" points="165.68,-62.87 156.13,-67.45 166.46,-69.82 165.68,-62.87"/>
<text text-anchor="middle" x="212" y="-68" font-family="Helvetica,sans-Serif" font-size="10.00"> parent</text>
</g>
<!-- Node3 -->
<g id="node3" class="node">
<title>Node3</title>
<g id="a_node3"><a xlink:href="structproxsuite_1_1linalg_1_1veg_1_1__detail_1_1__meta_1_1make__signed.html" target="_top" xlink:title=" ">
<polygon fill="none" stroke="black" points="10.5,-0.5 10.5,-41.5 145.5,-41.5 145.5,-0.5 10.5,-0.5"/>
<text text-anchor="start" x="18.5" y="-29.5" font-family="Helvetica,sans-Serif" font-size="10.00">proxsuite::linalg::</text>
<text text-anchor="start" x="18.5" y="-18.5" font-family="Helvetica,sans-Serif" font-size="10.00">veg::_detail::_meta</text>
<text text-anchor="middle" x="78" y="-7.5" font-family="Helvetica,sans-Serif" font-size="10.00">::make_signed&lt; usize &gt;</text>
</a>
</g>
</g>
<!-- Node3&#45;&gt;Node1 -->
<g id="edge2" class="edge">
<title>Node3&#45;&gt;Node1</title>
<path fill="none" stroke="#9a32cd" stroke-dasharray="5,2" d="M155.62,-29.19C191.54,-33.03 233.83,-37.56 267.94,-41.2"/>
<polygon fill="#9a32cd" stroke="#9a32cd" points="155.99,-25.71 145.67,-28.13 155.24,-32.67 155.99,-25.71"/>
<text text-anchor="middle" x="212" y="-43" font-family="Helvetica,sans-Serif" font-size="10.00"> old_rem_bytes</text>
</g>
</g>
</svg>
