<?xml version="1.0" encoding="UTF-8" standalone="no"?>
<!DOCTYPE svg PUBLIC "-//W3C//DTD SVG 1.1//EN"
 "http://www.w3.org/Graphics/SVG/1.1/DTD/svg11.dtd">
<!-- Generated by graphviz version 7.0.6 (20230107.1202)
 -->
<!-- Title: tl::detail::optional_move_base&lt; T, bool &gt; Pages: 1 -->
<svg width="1125pt" height="137pt"
 viewBox="0.00 0.00 1125.00 137.00" xmlns="http://www.w3.org/2000/svg" xmlns:xlink="http://www.w3.org/1999/xlink">
<g id="graph0" class="graph" transform="scale(1 1) rotate(0) translate(4 133)">
<title>tl::detail::optional_move_base&lt; T, bool &gt;</title>
<!-- Node1 -->
<g id="node1" class="node">
<title>Node1</title>
<g id="a_node1"><a xlink:title=" ">
<polygon fill="#999999" stroke="#666666" points="645,-64.5 511,-64.5 511,-34.5 645,-34.5 645,-64.5"/>
<text text-anchor="start" x="519" y="-52.5" font-family="Helvetica,sans-Serif" font-size="10.00">tl::detail::optional</text>
<text text-anchor="middle" x="578" y="-41.5" font-family="Helvetica,sans-Serif" font-size="10.00">_move_base&lt; T, bool &gt;</text>
</a>
</g>
</g>
<!-- Node5 -->
<g id="node5" class="node">
<title>Node5</title>
<g id="a_node5"><a xlink:href="structtl_1_1detail_1_1optional__copy__assign__base.html" target="_top" xlink:title=" ">
<polygon fill="white" stroke="#666666" points="812,-100 681,-100 681,-59 812,-59 812,-100"/>
<text text-anchor="start" x="689" y="-88" font-family="Helvetica,sans-Serif" font-size="10.00">tl::detail::optional</text>
<text text-anchor="start" x="689" y="-77" font-family="Helvetica,sans-Serif" font-size="10.00">_copy_assign_base&lt; T,</text>
<text text-anchor="middle" x="746.5" y="-66" font-family="Helvetica,sans-Serif" font-size="10.00"> bool &gt;</text>
</a>
</g>
</g>
<!-- Node1&#45;&gt;Node5 -->
<g id="edge4" class="edge">
<title>Node1&#45;&gt;Node5</title>
<path fill="none" stroke="#63b8ff" d="M656.55,-63.47C664.57,-64.92 672.67,-66.38 680.53,-67.79"/>
<polygon fill="#63b8ff" stroke="#63b8ff" points="657.24,-60.04 646.77,-61.71 655.99,-66.93 657.24,-60.04"/>
</g>
<!-- Node9 -->
<g id="node9" class="node">
<title>Node9</title>
<g id="a_node9"><a xlink:href="structtl_1_1detail_1_1optional__copy__assign__base_3_01T_00_01false_01_4.html" target="_top" xlink:title=" ">
<polygon fill="white" stroke="#666666" points="812,-41 681,-41 681,0 812,0 812,-41"/>
<text text-anchor="start" x="689" y="-29" font-family="Helvetica,sans-Serif" font-size="10.00">tl::detail::optional</text>
<text text-anchor="start" x="689" y="-18" font-family="Helvetica,sans-Serif" font-size="10.00">_copy_assign_base&lt; T,</text>
<text text-anchor="middle" x="746.5" y="-7" font-family="Helvetica,sans-Serif" font-size="10.00"> false &gt;</text>
</a>
</g>
</g>
<!-- Node1&#45;&gt;Node9 -->
<g id="edge8" class="edge">
<title>Node1&#45;&gt;Node9</title>
<path fill="none" stroke="#63b8ff" d="M656.55,-35.99C664.57,-34.6 672.67,-33.19 680.53,-31.82"/>
<polygon fill="#63b8ff" stroke="#63b8ff" points="656.03,-32.53 646.77,-37.7 657.23,-39.43 656.03,-32.53"/>
</g>
<!-- Node2 -->
<g id="node2" class="node">
<title>Node2</title>
<g id="a_node2"><a xlink:href="structtl_1_1detail_1_1optional__copy__base.html" target="_top" xlink:title=" ">
<polygon fill="white" stroke="#666666" points="475,-64.5 346,-64.5 346,-34.5 475,-34.5 475,-64.5"/>
<text text-anchor="start" x="354" y="-52.5" font-family="Helvetica,sans-Serif" font-size="10.00">tl::detail::optional</text>
<text text-anchor="middle" x="410.5" y="-41.5" font-family="Helvetica,sans-Serif" font-size="10.00">_copy_base&lt; T, bool &gt;</text>
</a>
</g>
</g>
<!-- Node2&#45;&gt;Node1 -->
<g id="edge1" class="edge">
<title>Node2&#45;&gt;Node1</title>
<path fill="none" stroke="#63b8ff" d="M486.99,-49.5C494.91,-49.5 502.92,-49.5 510.72,-49.5"/>
<polygon fill="#63b8ff" stroke="#63b8ff" points="487,-46 477,-49.5 487,-53 487,-46"/>
</g>
<!-- Node3 -->
<g id="node3" class="node">
<title>Node3</title>
<g id="a_node3"><a xlink:href="structtl_1_1detail_1_1optional__operations__base.html" target="_top" xlink:title=" ">
<polygon fill="white" stroke="#666666" points="310,-64.5 179,-64.5 179,-34.5 310,-34.5 310,-64.5"/>
<text text-anchor="start" x="187" y="-52.5" font-family="Helvetica,sans-Serif" font-size="10.00">tl::detail::optional</text>
<text text-anchor="middle" x="244.5" y="-41.5" font-family="Helvetica,sans-Serif" font-size="10.00">_operations_base&lt; T &gt;</text>
</a>
</g>
</g>
<!-- Node3&#45;&gt;Node2 -->
<g id="edge2" class="edge">
<title>Node3&#45;&gt;Node2</title>
<path fill="none" stroke="#63b8ff" d="M321.62,-49.5C329.67,-49.5 337.8,-49.5 345.69,-49.5"/>
<polygon fill="#63b8ff" stroke="#63b8ff" points="321.83,-46 311.83,-49.5 321.83,-53 321.83,-46"/>
</g>
<!-- Node4 -->
<g id="node4" class="node">
<title>Node4</title>
<g id="a_node4"><a xlink:href="structtl_1_1detail_1_1optional__storage__base.html" target="_top" xlink:title=" ">
<polygon fill="white" stroke="#666666" points="143,-64.5 0,-64.5 0,-34.5 143,-34.5 143,-64.5"/>
<text text-anchor="start" x="8" y="-52.5" font-family="Helvetica,sans-Serif" font-size="10.00">tl::detail::optional</text>
<text text-anchor="middle" x="71.5" y="-41.5" font-family="Helvetica,sans-Serif" font-size="10.00">_storage_base&lt; T, bool &gt;</text>
</a>
</g>
</g>
<!-- Node4&#45;&gt;Node3 -->
<g id="edge3" class="edge">
<title>Node4&#45;&gt;Node3</title>
<path fill="none" stroke="#63b8ff" d="M154.45,-49.5C162.55,-49.5 170.71,-49.5 178.61,-49.5"/>
<polygon fill="#63b8ff" stroke="#63b8ff" points="154.55,-46 144.55,-49.5 154.55,-53 154.55,-46"/>
</g>
<!-- Node6 -->
<g id="node6" class="node">
<title>Node6</title>
<g id="a_node6"><a xlink:href="structtl_1_1detail_1_1optional__move__assign__base.html" target="_top" xlink:title=" ">
<polygon fill="white" stroke="#666666" points="983,-129 848,-129 848,-88 983,-88 983,-129"/>
<text text-anchor="start" x="856" y="-117" font-family="Helvetica,sans-Serif" font-size="10.00">tl::detail::optional</text>
<text text-anchor="start" x="856" y="-106" font-family="Helvetica,sans-Serif" font-size="10.00">_move_assign_base&lt; T,</text>
<text text-anchor="middle" x="915.5" y="-95" font-family="Helvetica,sans-Serif" font-size="10.00"> bool &gt;</text>
</a>
</g>
</g>
<!-- Node5&#45;&gt;Node6 -->
<g id="edge5" class="edge">
<title>Node5&#45;&gt;Node6</title>
<path fill="none" stroke="#63b8ff" d="M823.4,-92.68C831.48,-94.08 839.65,-95.5 847.62,-96.89"/>
<polygon fill="#63b8ff" stroke="#63b8ff" points="824.01,-89.23 813.56,-90.97 822.81,-96.13 824.01,-89.23"/>
</g>
<!-- Node8 -->
<g id="node8" class="node">
<title>Node8</title>
<g id="a_node8"><a xlink:href="structtl_1_1detail_1_1optional__move__assign__base_3_01T_00_01false_01_4.html" target="_top" xlink:title=" ">
<polygon fill="white" stroke="#666666" points="983,-70 848,-70 848,-29 983,-29 983,-70"/>
<text text-anchor="start" x="856" y="-58" font-family="Helvetica,sans-Serif" font-size="10.00">tl::detail::optional</text>
<text text-anchor="start" x="856" y="-47" font-family="Helvetica,sans-Serif" font-size="10.00">_move_assign_base&lt; T,</text>
<text text-anchor="middle" x="915.5" y="-36" font-family="Helvetica,sans-Serif" font-size="10.00"> false &gt;</text>
</a>
</g>
</g>
<!-- Node5&#45;&gt;Node8 -->
<g id="edge7" class="edge">
<title>Node5&#45;&gt;Node8</title>
<path fill="none" stroke="#63b8ff" d="M823.4,-65.87C831.48,-64.41 839.65,-62.95 847.62,-61.51"/>
<polygon fill="#63b8ff" stroke="#63b8ff" points="822.78,-62.42 813.56,-67.63 824.02,-69.31 822.78,-62.42"/>
</g>
<!-- Node7 -->
<g id="node7" class="node">
<title>Node7</title>
<g id="a_node7"><a xlink:href="classtl_1_1optional.html" target="_top" xlink:title=" ">
<polygon fill="white" stroke="#666666" points="1117,-118 1019,-118 1019,-99 1117,-99 1117,-118"/>
<text text-anchor="middle" x="1068" y="-106" font-family="Helvetica,sans-Serif" font-size="10.00">tl::optional&lt; T &gt;</text>
</a>
</g>
</g>
<!-- Node6&#45;&gt;Node7 -->
<g id="edge6" class="edge">
<title>Node6&#45;&gt;Node7</title>
<path fill="none" stroke="#8b1a1a" d="M994.62,-108.5C1002.86,-108.5 1011.06,-108.5 1018.82,-108.5"/>
<polygon fill="#8b1a1a" stroke="#8b1a1a" points="994.9,-105 984.9,-108.5 994.9,-112 994.9,-105"/>
</g>
</g>
</svg>
