<?xml version="1.0" encoding="UTF-8" standalone="no"?>
<!DOCTYPE svg PUBLIC "-//W3C//DTD SVG 1.1//EN"
 "http://www.w3.org/Graphics/SVG/1.1/DTD/svg11.dtd">
<!-- Generated by graphviz version 6.0.2 (20221126.1951)
 -->
<!-- Title: proxsuite::proxqp::dense::QpViewMut&lt; T &gt; Pages: 1 -->
<svg width="164pt" height="225pt"
 viewBox="0.00 0.00 164.00 225.00" xmlns="http://www.w3.org/2000/svg" xmlns:xlink="http://www.w3.org/1999/xlink">
<g id="graph0" class="graph" transform="scale(1 1) rotate(0) translate(4 221)">
<title>proxsuite::proxqp::dense::QpViewMut&lt; T &gt;</title>
<!-- Node1 -->
<g id="node1" class="node">
<title>Node1</title>
<g id="a_node1"><a xlink:title=" ">
<polygon fill="#999999" stroke="#666666" points="146.5,-30 9.5,-30 9.5,0 146.5,0 146.5,-30"/>
<text text-anchor="start" x="17.5" y="-18" font-family="Helvetica,sans-Serif" font-size="10.00">proxsuite::proxqp::</text>
<text text-anchor="middle" x="78" y="-7" font-family="Helvetica,sans-Serif" font-size="10.00">dense::QpViewMut&lt; T &gt;</text>
</a>
</g>
</g>
<!-- Node2 -->
<g id="node2" class="node">
<title>Node2</title>
<g id="a_node2"><a xlink:href="structproxsuite_1_1proxqp_1_1MatrixViewMut.html" target="_top" xlink:title=" ">
<polygon fill="white" stroke="#666666" points="156,-129 0,-129 0,-99 156,-99 156,-129"/>
<text text-anchor="start" x="8" y="-117" font-family="Helvetica,sans-Serif" font-size="10.00">proxsuite::proxqp::</text>
<text text-anchor="middle" x="78" y="-106" font-family="Helvetica,sans-Serif" font-size="10.00">MatrixViewMut&lt; T, layout &gt;</text>
</a>
</g>
</g>
<!-- Node2&#45;&gt;Node1 -->
<g id="edge1" class="edge">
<title>Node2&#45;&gt;Node1</title>
<path fill="none" stroke="#9a32cd" stroke-dasharray="5,2" d="M78,-88.64C78,-70.15 78,-45.37 78,-30.06"/>
<polygon fill="#9a32cd" stroke="#9a32cd" points="74.5,-88.69 78,-98.69 81.5,-88.69 74.5,-88.69"/>
<text text-anchor="middle" x="83" y="-73" font-family="Helvetica,sans-Serif" font-size="10.00"> A</text>
<text text-anchor="middle" x="83" y="-62" font-family="Helvetica,sans-Serif" font-size="10.00">C</text>
<text text-anchor="middle" x="83" y="-51" font-family="Helvetica,sans-Serif" font-size="10.00">H</text>
</g>
<!-- Node3 -->
<g id="node3" class="node">
<title>Node3</title>
<g id="a_node3"><a xlink:title=" ">
<polygon fill="white" stroke="#666666" points="97.5,-217 58.5,-217 58.5,-198 97.5,-198 97.5,-217"/>
<text text-anchor="middle" x="78" y="-205" font-family="Helvetica,sans-Serif" font-size="10.00">isize</text>
</a>
</g>
</g>
<!-- Node3&#45;&gt;Node2 -->
<g id="edge2" class="edge">
<title>Node3&#45;&gt;Node2</title>
<path fill="none" stroke="#9a32cd" stroke-dasharray="5,2" d="M78,-187.67C78,-170.32 78,-144.96 78,-129.25"/>
<polygon fill="#9a32cd" stroke="#9a32cd" points="74.5,-187.73 78,-197.73 81.5,-187.73 74.5,-187.73"/>
<text text-anchor="middle" x="107.5" y="-172" font-family="Helvetica,sans-Serif" font-size="10.00"> cols</text>
<text text-anchor="middle" x="107.5" y="-161" font-family="Helvetica,sans-Serif" font-size="10.00">outer_stride</text>
<text text-anchor="middle" x="107.5" y="-150" font-family="Helvetica,sans-Serif" font-size="10.00">rows</text>
</g>
</g>
</svg>
