<?xml version="1.0" encoding="UTF-8" standalone="no"?>
<!DOCTYPE svg PUBLIC "-//W3C//DTD SVG 1.1//EN"
 "http://www.w3.org/Graphics/SVG/1.1/DTD/svg11.dtd">
<!-- Generated by graphviz version 12.2.1 (20250203.1708)
 -->
<!-- Title: proxsuite::proxqp::dense::Workspace&lt; T &gt; Pages: 1 -->
<svg width="629pt" height="227pt"
 viewBox="0.00 0.00 628.50 227.23" xmlns="http://www.w3.org/2000/svg" xmlns:xlink="http://www.w3.org/1999/xlink">
<g id="graph0" class="graph" transform="scale(1 1) rotate(0) translate(4 223.23)">
<title>proxsuite::proxqp::dense::Workspace&lt; T &gt;</title>
<!-- Node1 -->
<g id="Node000001" class="node">
<title>Node1</title>
<g id="a_Node000001"><a xlink:title="This class defines the workspace of the dense solver.">
<polygon fill="#999999" stroke="#666666" points="620.5,-85.86 487.5,-85.86 487.5,-52.36 620.5,-52.36 620.5,-85.86"/>
<text text-anchor="start" x="495.5" y="-72.36" font-family="Helvetica,sans-Serif" font-size="10.00">proxsuite::proxqp::</text>
<text text-anchor="middle" x="554" y="-59.61" font-family="Helvetica,sans-Serif" font-size="10.00">dense::Workspace&lt; T &gt;</text>
</a>
</g>
</g>
<!-- Node2 -->
<g id="Node000002" class="node">
<title>Node2</title>
<g id="a_Node000002"><a xlink:href="structproxsuite_1_1linalg_1_1veg_1_1Vec.html" target="_top" xlink:title=" ">
<polygon fill="white" stroke="#666666" points="369,-141.86 221,-141.86 221,-108.36 369,-108.36 369,-141.86"/>
<text text-anchor="start" x="229" y="-128.36" font-family="Helvetica,sans-Serif" font-size="10.00">proxsuite::linalg::</text>
<text text-anchor="middle" x="295" y="-115.61" font-family="Helvetica,sans-Serif" font-size="10.00">veg::Vec&lt; unsigned char &gt;</text>
</a>
</g>
</g>
<!-- Node2&#45;&gt;Node1 -->
<g id="edge1_Node000001_Node000002" class="edge">
<title>Node2&#45;&gt;Node1</title>
<g id="a_edge1_Node000001_Node000002"><a xlink:title=" ">
<path fill="none" stroke="#9a32cd" stroke-dasharray="5,2" d="M380.58,-118.84C409.13,-115.55 440.98,-110.58 469.5,-103.11 485.4,-98.94 502.3,-92.47 516.71,-86.29"/>
<polygon fill="#9a32cd" stroke="#9a32cd" points="380.47,-115.33 370.91,-119.9 381.23,-122.29 380.47,-115.33"/>
</a>
</g>
<text text-anchor="middle" x="428.25" y="-121.02" font-family="Helvetica,sans-Serif" font-size="10.00" fill="grey"> ldl_stack</text>
</g>
<!-- Node3 -->
<g id="Node000003" class="node">
<title>Node3</title>
<g id="a_Node000003"><a xlink:href="structproxsuite_1_1linalg_1_1veg_1_1__detail_1_1__vector_1_1adl_1_1AdlBase.html" target="_top" xlink:title=" ">
<polygon fill="white" stroke="#666666" points="149.5,-219.23 34.5,-219.23 34.5,-172.98 149.5,-172.98 149.5,-219.23"/>
<text text-anchor="start" x="42.5" y="-205.73" font-family="Helvetica,sans-Serif" font-size="10.00">proxsuite::linalg::</text>
<text text-anchor="start" x="42.5" y="-192.98" font-family="Helvetica,sans-Serif" font-size="10.00">veg::_detail::_vector</text>
<text text-anchor="middle" x="92" y="-180.23" font-family="Helvetica,sans-Serif" font-size="10.00">::adl::AdlBase</text>
</a>
</g>
</g>
<!-- Node3&#45;&gt;Node2 -->
<g id="edge2_Node000002_Node000003" class="edge">
<title>Node3&#45;&gt;Node2</title>
<g id="a_edge2_Node000002_Node000003"><a xlink:title=" ">
<path fill="none" stroke="#8b1a1a" d="M160.53,-172.38C168.44,-169.6 176.4,-166.79 184,-164.11 204.16,-156.99 226.38,-149.11 245.55,-142.32"/>
<polygon fill="#8b1a1a" stroke="#8b1a1a" points="159.5,-169.03 151.23,-175.65 161.83,-175.64 159.5,-169.03"/>
</a>
</g>
</g>
<!-- Node4 -->
<g id="Node000004" class="node">
<title>Node4</title>
<g id="a_Node000004"><a xlink:title=" ">
<polygon fill="white" stroke="#666666" points="184,-154.61 0,-154.61 0,-95.61 184,-95.61 184,-154.61"/>
<text text-anchor="start" x="8" y="-141.11" font-family="Helvetica,sans-Serif" font-size="10.00">meta::if_t&lt; mem::CopyAvailable</text>
<text text-anchor="start" x="8" y="-128.36" font-family="Helvetica,sans-Serif" font-size="10.00">For&lt;unsigned char&gt;::value</text>
<text text-anchor="start" x="8" y="-115.61" font-family="Helvetica,sans-Serif" font-size="10.00">==mem::CopyAvailable::no,</text>
<text text-anchor="middle" x="92" y="-102.86" font-family="Helvetica,sans-Serif" font-size="10.00"> _detail::NoCopy, _detail::Empty &gt;</text>
</a>
</g>
</g>
<!-- Node4&#45;&gt;Node2 -->
<g id="edge3_Node000002_Node000004" class="edge">
<title>Node4&#45;&gt;Node2</title>
<g id="a_edge3_Node000002_Node000004"><a xlink:title=" ">
<path fill="none" stroke="#8b1a1a" d="M195.79,-125.11C204.16,-125.11 212.51,-125.11 220.61,-125.11"/>
<polygon fill="#8b1a1a" stroke="#8b1a1a" points="195.9,-121.61 185.9,-125.11 195.9,-128.61 195.9,-121.61"/>
</a>
</g>
</g>
<!-- Node5 -->
<g id="Node000005" class="node">
<title>Node5</title>
<g id="a_Node000005"><a xlink:href="structproxsuite_1_1linalg_1_1veg_1_1__detail_1_1__collections_1_1VecImpl.html" target="_top" xlink:title=" ">
<polygon fill="white" stroke="#666666" points="172,-77.23 12,-77.23 12,-30.98 172,-30.98 172,-77.23"/>
<text text-anchor="start" x="20" y="-63.73" font-family="Helvetica,sans-Serif" font-size="10.00">proxsuite::linalg::</text>
<text text-anchor="start" x="20" y="-50.98" font-family="Helvetica,sans-Serif" font-size="10.00">veg::_detail::_collections</text>
<text text-anchor="middle" x="92" y="-38.23" font-family="Helvetica,sans-Serif" font-size="10.00">::VecImpl&lt; T, A, Dtor, Copy &gt;</text>
</a>
</g>
</g>
<!-- Node5&#45;&gt;Node2 -->
<g id="edge4_Node000002_Node000005" class="edge">
<title>Node5&#45;&gt;Node2</title>
<g id="a_edge4_Node000002_Node000005"><a xlink:title=" ">
<path fill="none" stroke="#63b8ff" d="M170.32,-81.42C195.54,-90.33 222.83,-99.97 245.34,-107.92"/>
<polygon fill="#63b8ff" stroke="#63b8ff" points="171.67,-78.18 161.08,-78.15 169.34,-84.78 171.67,-78.18"/>
</a>
</g>
</g>
<!-- Node6 -->
<g id="Node000006" class="node">
<title>Node6</title>
<g id="a_Node000006"><a xlink:title=" ">
<polygon fill="white" stroke="#666666" points="309.4,-23.48 280.6,-23.48 280.6,-2.73 309.4,-2.73 309.4,-23.48"/>
<text text-anchor="middle" x="295" y="-9.98" font-family="Helvetica,sans-Serif" font-size="10.00">T</text>
</a>
</g>
</g>
<!-- Node6&#45;&gt;Node1 -->
<g id="edge5_Node000001_Node000006" class="edge">
<title>Node6&#45;&gt;Node1</title>
<g id="a_edge5_Node000001_Node000006"><a xlink:title=" ">
<path fill="none" stroke="#9a32cd" stroke-dasharray="5,2" d="M320.72,-7.77C355.03,-1.44 418.63,6.36 469.5,-9.86 495.41,-18.12 520.18,-37.67 535.91,-52.06"/>
<polygon fill="#9a32cd" stroke="#9a32cd" points="320.1,-4.32 310.96,-9.69 321.45,-11.19 320.1,-4.32"/>
</a>
</g>
<text text-anchor="middle" x="428.25" y="-89.61" font-family="Helvetica,sans-Serif" font-size="10.00" fill="grey"> alpha</text>
<text text-anchor="start" x="387" y="-76.86" font-family="Helvetica,sans-Serif" font-size="10.00" fill="grey">correction_guess</text>
<text text-anchor="middle" x="428.25" y="-64.11" font-family="Helvetica,sans-Serif" font-size="10.00" fill="grey">_rhs_b</text>
<text text-anchor="start" x="387" y="-51.36" font-family="Helvetica,sans-Serif" font-size="10.00" fill="grey">correction_guess</text>
<text text-anchor="middle" x="428.25" y="-38.61" font-family="Helvetica,sans-Serif" font-size="10.00" fill="grey">_rhs_g</text>
<text text-anchor="start" x="387" y="-25.86" font-family="Helvetica,sans-Serif" font-size="10.00" fill="grey">dual_feasibility</text>
<text text-anchor="middle" x="428.25" y="-13.11" font-family="Helvetica,sans-Serif" font-size="10.00" fill="grey">_rhs_2</text>
</g>
</g>
</svg>
