<?xml version="1.0" encoding="UTF-8" standalone="no"?>
<!DOCTYPE svg PUBLIC "-//W3C//DTD SVG 1.1//EN"
 "http://www.w3.org/Graphics/SVG/1.1/DTD/svg11.dtd">
<!-- Generated by graphviz version 8.1.0 (20230707.2238)
 -->
<!-- Title: proxsuite::proxqp::dense::QpViewMut&lt; T &gt; Pages: 1 -->
<svg width="164pt" height="244pt"
 viewBox="0.00 0.00 163.50 244.25" xmlns="http://www.w3.org/2000/svg" xmlns:xlink="http://www.w3.org/1999/xlink">
<g id="graph0" class="graph" transform="scale(1 1) rotate(0) translate(4 240.25)">
<title>proxsuite::proxqp::dense::QpViewMut&lt; T &gt;</title>
<!-- Node1 -->
<g id="Node000001" class="node">
<title>Node1</title>
<g id="a_Node000001"><a xlink:title=" ">
<polygon fill="#999999" stroke="#666666" points="145.75,-33.5 9.75,-33.5 9.75,0 145.75,0 145.75,-33.5"/>
<text text-anchor="start" x="17.75" y="-20" font-family="Helvetica,sans-Serif" font-size="10.00">proxsuite::proxqp::</text>
<text text-anchor="middle" x="77.75" y="-7.25" font-family="Helvetica,sans-Serif" font-size="10.00">dense::QpViewMut&lt; T &gt;</text>
</a>
</g>
</g>
<!-- Node2 -->
<g id="Node000002" class="node">
<title>Node2</title>
<g id="a_Node000002"><a xlink:href="structproxsuite_1_1proxqp_1_1MatrixViewMut.html" target="_top" xlink:title=" ">
<polygon fill="white" stroke="#666666" points="155.5,-141.25 0,-141.25 0,-107.75 155.5,-107.75 155.5,-141.25"/>
<text text-anchor="start" x="8" y="-127.75" font-family="Helvetica,sans-Serif" font-size="10.00">proxsuite::proxqp::</text>
<text text-anchor="middle" x="77.75" y="-115" font-family="Helvetica,sans-Serif" font-size="10.00">MatrixViewMut&lt; T, layout &gt;</text>
</a>
</g>
</g>
<!-- Node2&#45;&gt;Node1 -->
<g id="edge1_Node000001_Node000002" class="edge">
<title>Node2&#45;&gt;Node1</title>
<g id="a_edge1_Node000001_Node000002"><a xlink:title=" ">
<path fill="none" stroke="#9a32cd" stroke-dasharray="5,2" d="M77.75,-96.66C77.75,-76.89 77.75,-50.64 77.75,-33.96"/>
<polygon fill="#9a32cd" stroke="#9a32cd" points="74.25,-96.44 77.75,-106.44 81.25,-96.44 74.25,-96.44"/>
</a>
</g>
<text text-anchor="middle" x="82.62" y="-80.25" font-family="Helvetica,sans-Serif" font-size="10.00" fill="grey"> A</text>
<text text-anchor="middle" x="82.62" y="-67.5" font-family="Helvetica,sans-Serif" font-size="10.00" fill="grey">C</text>
<text text-anchor="middle" x="82.62" y="-54.75" font-family="Helvetica,sans-Serif" font-size="10.00" fill="grey">H</text>
</g>
<!-- Node3 -->
<g id="Node000003" class="node">
<title>Node3</title>
<g id="a_Node000003"><a xlink:title=" ">
<polygon fill="white" stroke="#666666" points="97,-236.25 58.5,-236.25 58.5,-215.5 97,-215.5 97,-236.25"/>
<text text-anchor="middle" x="77.75" y="-222.75" font-family="Helvetica,sans-Serif" font-size="10.00">isize</text>
</a>
</g>
</g>
<!-- Node3&#45;&gt;Node2 -->
<g id="edge2_Node000002_Node000003" class="edge">
<title>Node3&#45;&gt;Node2</title>
<g id="a_edge2_Node000002_Node000003"><a xlink:title=" ">
<path fill="none" stroke="#9a32cd" stroke-dasharray="5,2" d="M77.75,-204.56C77.75,-185.98 77.75,-158.84 77.75,-141.69"/>
<polygon fill="#9a32cd" stroke="#9a32cd" points="74.25,-204.35 77.75,-214.35 81.25,-204.35 74.25,-204.35"/>
</a>
</g>
<text text-anchor="middle" x="107" y="-188" font-family="Helvetica,sans-Serif" font-size="10.00" fill="grey"> cols</text>
<text text-anchor="middle" x="107" y="-175.25" font-family="Helvetica,sans-Serif" font-size="10.00" fill="grey">outer_stride</text>
<text text-anchor="middle" x="107" y="-162.5" font-family="Helvetica,sans-Serif" font-size="10.00" fill="grey">rows</text>
</g>
</g>
</svg>
