<?xml version="1.0" encoding="UTF-8" standalone="no"?>
<!DOCTYPE svg PUBLIC "-//W3C//DTD SVG 1.1//EN"
 "http://www.w3.org/Graphics/SVG/1.1/DTD/svg11.dtd">
<!-- Generated by graphviz version 8.1.0 (20230707.2238)
 -->
<!-- Title: tl::detail::optional_move_base&lt; T, bool &gt; Pages: 1 -->
<svg width="200pt" height="348pt"
 viewBox="0.00 0.00 200.38 348.00" xmlns="http://www.w3.org/2000/svg" xmlns:xlink="http://www.w3.org/1999/xlink">
<g id="graph0" class="graph" transform="scale(1 1) rotate(0) translate(4 344)">
<title>tl::detail::optional_move_base&lt; T, bool &gt;</title>
<!-- Node1 -->
<g id="Node000001" class="node">
<title>Node1</title>
<g id="a_Node000001"><a xlink:title=" ">
<polygon fill="#999999" stroke="#666666" points="180.88,-33.5 47.88,-33.5 47.88,0 180.88,0 180.88,-33.5"/>
<text text-anchor="start" x="55.88" y="-20" font-family="Helvetica,sans-Serif" font-size="10.00">tl::detail::optional</text>
<text text-anchor="middle" x="114.38" y="-7.25" font-family="Helvetica,sans-Serif" font-size="10.00">_move_base&lt; T, bool &gt;</text>
</a>
</g>
</g>
<!-- Node2 -->
<g id="Node000002" class="node">
<title>Node2</title>
<g id="a_Node000002"><a xlink:href="structtl_1_1detail_1_1optional__copy__base.html" target="_top" xlink:title=" ">
<polygon fill="white" stroke="#666666" points="178.62,-104 50.12,-104 50.12,-70.5 178.62,-70.5 178.62,-104"/>
<text text-anchor="start" x="58.12" y="-90.5" font-family="Helvetica,sans-Serif" font-size="10.00">tl::detail::optional</text>
<text text-anchor="middle" x="114.38" y="-77.75" font-family="Helvetica,sans-Serif" font-size="10.00">_copy_base&lt; T, bool &gt;</text>
</a>
</g>
</g>
<!-- Node2&#45;&gt;Node1 -->
<g id="edge1_Node000001_Node000002" class="edge">
<title>Node2&#45;&gt;Node1</title>
<g id="a_edge1_Node000001_Node000002"><a xlink:title=" ">
<path fill="none" stroke="#63b8ff" d="M114.38,-59.28C114.38,-50.68 114.38,-41.44 114.38,-33.87"/>
<polygon fill="#63b8ff" stroke="#63b8ff" points="110.88,-59.02 114.38,-69.02 117.88,-59.02 110.88,-59.02"/>
</a>
</g>
</g>
<!-- Node3 -->
<g id="Node000003" class="node">
<title>Node3</title>
<g id="a_Node000003"><a xlink:href="structtl_1_1detail_1_1optional__operations__base.html" target="_top" xlink:title=" ">
<polygon fill="white" stroke="#666666" points="179.38,-174.5 49.38,-174.5 49.38,-141 179.38,-141 179.38,-174.5"/>
<text text-anchor="start" x="57.38" y="-161" font-family="Helvetica,sans-Serif" font-size="10.00">tl::detail::optional</text>
<text text-anchor="middle" x="114.38" y="-148.25" font-family="Helvetica,sans-Serif" font-size="10.00">_operations_base&lt; T &gt;</text>
</a>
</g>
</g>
<!-- Node3&#45;&gt;Node2 -->
<g id="edge2_Node000002_Node000003" class="edge">
<title>Node3&#45;&gt;Node2</title>
<g id="a_edge2_Node000002_Node000003"><a xlink:title=" ">
<path fill="none" stroke="#63b8ff" d="M114.38,-129.78C114.38,-121.18 114.38,-111.94 114.38,-104.37"/>
<polygon fill="#63b8ff" stroke="#63b8ff" points="110.88,-129.52 114.38,-139.52 117.88,-129.52 110.88,-129.52"/>
</a>
</g>
</g>
<!-- Node4 -->
<g id="Node000004" class="node">
<title>Node4</title>
<g id="a_Node000004"><a xlink:href="structtl_1_1detail_1_1optional__storage__base.html" target="_top" xlink:title=" ">
<polygon fill="white" stroke="#666666" points="185.38,-245 43.38,-245 43.38,-211.5 185.38,-211.5 185.38,-245"/>
<text text-anchor="start" x="51.38" y="-231.5" font-family="Helvetica,sans-Serif" font-size="10.00">tl::detail::optional</text>
<text text-anchor="middle" x="114.38" y="-218.75" font-family="Helvetica,sans-Serif" font-size="10.00">_storage_base&lt; T, bool &gt;</text>
</a>
</g>
</g>
<!-- Node4&#45;&gt;Node3 -->
<g id="edge3_Node000003_Node000004" class="edge">
<title>Node4&#45;&gt;Node3</title>
<g id="a_edge3_Node000003_Node000004"><a xlink:title=" ">
<path fill="none" stroke="#63b8ff" d="M114.38,-200.28C114.38,-191.68 114.38,-182.44 114.38,-174.87"/>
<polygon fill="#63b8ff" stroke="#63b8ff" points="110.88,-200.02 114.38,-210.02 117.88,-200.02 110.88,-200.02"/>
</a>
</g>
</g>
<!-- Node5 -->
<g id="Node000005" class="node">
<title>Node5</title>
<g id="a_Node000005"><a xlink:href="structtl_1_1detail_1_1optional__storage__base_1_1dummy.html" target="_top" xlink:title=" ">
<polygon fill="white" stroke="#666666" points="130.75,-340 0,-340 0,-293.75 130.75,-293.75 130.75,-340"/>
<text text-anchor="start" x="8" y="-326.5" font-family="Helvetica,sans-Serif" font-size="10.00">tl::detail::optional</text>
<text text-anchor="start" x="8" y="-313.75" font-family="Helvetica,sans-Serif" font-size="10.00">_storage_base&lt; T, bool</text>
<text text-anchor="middle" x="65.38" y="-301" font-family="Helvetica,sans-Serif" font-size="10.00"> &gt;::dummy</text>
</a>
</g>
</g>
<!-- Node5&#45;&gt;Node4 -->
<g id="edge4_Node000004_Node000005" class="edge">
<title>Node5&#45;&gt;Node4</title>
<g id="a_edge4_Node000004_Node000005"><a xlink:title=" ">
<path fill="none" stroke="#9a32cd" stroke-dasharray="5,2" d="M75.95,-283.55C78.76,-276.57 82.09,-269.37 85.88,-263 89.55,-256.8 94.37,-250.6 99,-245.24"/>
<polygon fill="#9a32cd" stroke="#9a32cd" points="72.45,-281.92 72.2,-292.51 79,-284.38 72.45,-281.92"/>
</a>
</g>
<text text-anchor="middle" x="113.12" y="-266.25" font-family="Helvetica,sans-Serif" font-size="10.00" fill="grey"> m_dummy</text>
</g>
<!-- Node6 -->
<g id="Node000006" class="node">
<title>Node6</title>
<g id="a_Node000006"><a xlink:title=" ">
<polygon fill="white" stroke="#666666" points="177.78,-327.25 148.97,-327.25 148.97,-306.5 177.78,-306.5 177.78,-327.25"/>
<text text-anchor="middle" x="163.38" y="-313.75" font-family="Helvetica,sans-Serif" font-size="10.00">T</text>
</a>
</g>
</g>
<!-- Node6&#45;&gt;Node4 -->
<g id="edge5_Node000004_Node000006" class="edge">
<title>Node6&#45;&gt;Node4</title>
<g id="a_edge5_Node000004_Node000006"><a xlink:title=" ">
<path fill="none" stroke="#9a32cd" stroke-dasharray="5,2" d="M156.55,-295.81C152.72,-285.65 147.48,-273.32 141.38,-263 137.78,-256.93 133.19,-250.77 128.81,-245.4"/>
<polygon fill="#9a32cd" stroke="#9a32cd" points="153.58,-296.9 160.25,-305.13 160.17,-294.54 153.58,-296.9"/>
</a>
</g>
<text text-anchor="middle" x="169.88" y="-266.25" font-family="Helvetica,sans-Serif" font-size="10.00" fill="grey"> m_value</text>
</g>
</g>
</svg>
