<?xml version="1.0" encoding="UTF-8" standalone="no"?>
<!DOCTYPE svg PUBLIC "-//W3C//DTD SVG 1.1//EN"
 "http://www.w3.org/Graphics/SVG/1.1/DTD/svg11.dtd">
<!-- Generated by graphviz version 8.0.4 (20230426.1303)
 -->
<!-- Title: proxsuite::linalg::veg::_detail::_vector::adl::AdlBase Pages: 1 -->
<svg width="380pt" height="441pt"
 viewBox="0.00 0.00 379.75 440.75" xmlns="http://www.w3.org/2000/svg" xmlns:xlink="http://www.w3.org/1999/xlink">
<g id="graph0" class="graph" transform="scale(1 1) rotate(0) translate(4 436.75)">
<title>proxsuite::linalg::veg::_detail::_vector::adl::AdlBase</title>
<!-- Node1 -->
<g id="node1" class="node">
<title>Node1</title>
<g id="a_node1"><a xlink:title=" ">
<polygon fill="#999999" stroke="#666666" points="115,-220.25 0,-220.25 0,-174 115,-174 115,-220.25"/>
<text text-anchor="start" x="8" y="-206.75" font-family="Helvetica,sans-Serif" font-size="10.00">proxsuite::linalg::</text>
<text text-anchor="start" x="8" y="-194" font-family="Helvetica,sans-Serif" font-size="10.00">veg::_detail::_vector</text>
<text text-anchor="middle" x="57.5" y="-181.25" font-family="Helvetica,sans-Serif" font-size="10.00">::adl::AdlBase</text>
</a>
</g>
</g>
<!-- Node2 -->
<g id="node2" class="node">
<title>Node2</title>
<g id="a_node2"><a xlink:href="structproxsuite_1_1linalg_1_1veg_1_1Vec.html" target="_top" xlink:title=" ">
<polygon fill="white" stroke="#666666" points="371.75,-432.75 151,-432.75 151,-335.5 371.75,-335.5 371.75,-432.75"/>
<text text-anchor="start" x="159" y="-419.25" font-family="Helvetica,sans-Serif" font-size="10.00">proxsuite::linalg::</text>
<text text-anchor="start" x="159" y="-406.5" font-family="Helvetica,sans-Serif" font-size="10.00">veg::Vec&lt; T, proxsuite</text>
<text text-anchor="start" x="159" y="-393.75" font-family="Helvetica,sans-Serif" font-size="10.00">::linalg::veg::meta::if</text>
<text text-anchor="start" x="159" y="-381" font-family="Helvetica,sans-Serif" font-size="10.00">_t&lt; _detail::should_vectorize</text>
<text text-anchor="start" x="159" y="-368.25" font-family="Helvetica,sans-Serif" font-size="10.00">&lt; T &gt;::value, _detail::SimdAlignedSystem</text>
<text text-anchor="start" x="159" y="-355.5" font-family="Helvetica,sans-Serif" font-size="10.00">Alloc, proxsuite::linalg::veg::mem</text>
<text text-anchor="middle" x="261.38" y="-342.75" font-family="Helvetica,sans-Serif" font-size="10.00">::SystemAlloc &gt; &gt;</text>
</a>
</g>
</g>
<!-- Node1&#45;&gt;Node2 -->
<g id="edge1" class="edge">
<title>Node1&#45;&gt;Node2</title>
<path fill="none" stroke="#8b1a1a" d="M75.86,-229.83C92.25,-258.31 119.04,-299.3 151,-327.12 154.15,-329.87 157.45,-332.52 160.87,-335.09"/>
<polygon fill="#8b1a1a" stroke="#8b1a1a" points="78.46,-228.31 70.51,-221.32 72.36,-231.75 78.46,-228.31"/>
</g>
<!-- Node3 -->
<g id="node3" class="node">
<title>Node3</title>
<g id="a_node3"><a xlink:href="structproxsuite_1_1linalg_1_1veg_1_1Vec.html" target="_top" xlink:title=" ">
<polygon fill="white" stroke="#666666" points="312.5,-317.88 210.25,-317.88 210.25,-284.38 312.5,-284.38 312.5,-317.88"/>
<text text-anchor="start" x="218.25" y="-304.38" font-family="Helvetica,sans-Serif" font-size="10.00">proxsuite::linalg::</text>
<text text-anchor="middle" x="261.38" y="-291.62" font-family="Helvetica,sans-Serif" font-size="10.00">veg::Vec&lt; isize &gt;</text>
</a>
</g>
</g>
<!-- Node1&#45;&gt;Node3 -->
<g id="edge2" class="edge">
<title>Node1&#45;&gt;Node3</title>
<path fill="none" stroke="#8b1a1a" d="M87.65,-227.92C104.68,-244.21 127.41,-263.23 151,-275.12 169.21,-284.31 190.78,-290.33 209.93,-294.23"/>
<polygon fill="#8b1a1a" stroke="#8b1a1a" points="90.84,-226.17 81.25,-221.67 85.94,-231.17 90.84,-226.17"/>
</g>
<!-- Node4 -->
<g id="node4" class="node">
<title>Node4</title>
<g id="a_node4"><a xlink:href="structproxsuite_1_1linalg_1_1veg_1_1Vec.html" target="_top" xlink:title=" ">
<polygon fill="white" stroke="#666666" points="335.38,-265.88 187.38,-265.88 187.38,-232.38 335.38,-232.38 335.38,-265.88"/>
<text text-anchor="start" x="195.38" y="-252.38" font-family="Helvetica,sans-Serif" font-size="10.00">proxsuite::linalg::</text>
<text text-anchor="middle" x="261.38" y="-239.62" font-family="Helvetica,sans-Serif" font-size="10.00">veg::Vec&lt; unsigned char &gt;</text>
</a>
</g>
</g>
<!-- Node1&#45;&gt;Node4 -->
<g id="edge3" class="edge">
<title>Node1&#45;&gt;Node4</title>
<path fill="none" stroke="#8b1a1a" d="M125.51,-216.31C134.08,-218.66 142.73,-220.98 151,-223.12 162.62,-226.14 174.97,-229.2 187.03,-232.12"/>
<polygon fill="#8b1a1a" stroke="#8b1a1a" points="126.72,-212.73 116.15,-213.44 124.85,-219.48 126.72,-212.73"/>
</g>
<!-- Node5 -->
<g id="node5" class="node">
<title>Node5</title>
<g id="a_node5"><a xlink:href="structproxsuite_1_1linalg_1_1veg_1_1Vec.html" target="_top" xlink:title=" ">
<polygon fill="white" stroke="#666666" points="311.75,-213.88 211,-213.88 211,-180.38 311.75,-180.38 311.75,-213.88"/>
<text text-anchor="start" x="219" y="-200.38" font-family="Helvetica,sans-Serif" font-size="10.00">proxsuite::linalg::</text>
<text text-anchor="middle" x="261.38" y="-187.62" font-family="Helvetica,sans-Serif" font-size="10.00">veg::Vec&lt; I &gt;</text>
</a>
</g>
</g>
<!-- Node1&#45;&gt;Node5 -->
<g id="edge4" class="edge">
<title>Node1&#45;&gt;Node5</title>
<path fill="none" stroke="#8b1a1a" d="M126.05,-197.12C153.68,-197.12 185.07,-197.12 210.55,-197.12"/>
<polygon fill="#8b1a1a" stroke="#8b1a1a" points="126.27,-193.63 116.27,-197.12 126.27,-200.63 126.27,-193.63"/>
</g>
<!-- Node6 -->
<g id="node6" class="node">
<title>Node6</title>
<g id="a_node6"><a xlink:href="structproxsuite_1_1linalg_1_1veg_1_1Vec.html" target="_top" xlink:title=" ">
<polygon fill="white" stroke="#666666" points="333.12,-162.25 189.62,-162.25 189.62,-116 333.12,-116 333.12,-162.25"/>
<text text-anchor="start" x="197.62" y="-148.75" font-family="Helvetica,sans-Serif" font-size="10.00">proxsuite::linalg::</text>
<text text-anchor="start" x="197.62" y="-136" font-family="Helvetica,sans-Serif" font-size="10.00">veg::Vec&lt; proxsuite</text>
<text text-anchor="middle" x="261.38" y="-123.25" font-family="Helvetica,sans-Serif" font-size="10.00">::linalg::veg::mem::byte &gt;</text>
</a>
</g>
</g>
<!-- Node1&#45;&gt;Node6 -->
<g id="edge5" class="edge">
<title>Node1&#45;&gt;Node6</title>
<path fill="none" stroke="#8b1a1a" d="M125.73,-177.81C146.14,-171.95 168.62,-165.49 189.27,-159.55"/>
<polygon fill="#8b1a1a" stroke="#8b1a1a" points="124.92,-174.69 116.27,-180.81 126.85,-181.42 124.92,-174.69"/>
</g>
<!-- Node7 -->
<g id="node7" class="node">
<title>Node7</title>
<g id="a_node7"><a xlink:href="structproxsuite_1_1linalg_1_1veg_1_1Vec.html" target="_top" xlink:title=" ">
<polygon fill="white" stroke="#666666" points="311.75,-97.88 211,-97.88 211,-64.38 311.75,-64.38 311.75,-97.88"/>
<text text-anchor="start" x="219" y="-84.38" font-family="Helvetica,sans-Serif" font-size="10.00">proxsuite::linalg::</text>
<text text-anchor="middle" x="261.38" y="-71.62" font-family="Helvetica,sans-Serif" font-size="10.00">veg::Vec&lt; bool &gt;</text>
</a>
</g>
</g>
<!-- Node1&#45;&gt;Node7 -->
<g id="edge6" class="edge">
<title>Node1&#45;&gt;Node7</title>
<path fill="none" stroke="#8b1a1a" d="M83.52,-165.2C100.52,-145.62 124.66,-121.6 151,-107.12 169.22,-97.11 191.21,-90.93 210.68,-87.13"/>
<polygon fill="#8b1a1a" stroke="#8b1a1a" points="80.23,-162.67 76.45,-172.56 85.58,-167.19 80.23,-162.67"/>
</g>
<!-- Node8 -->
<g id="node8" class="node">
<title>Node8</title>
<g id="a_node8"><a xlink:href="structproxsuite_1_1linalg_1_1veg_1_1Vec.html" target="_top" xlink:title=" ">
<polygon fill="white" stroke="#666666" points="320,-46.25 202.75,-46.25 202.75,0 320,0 320,-46.25"/>
<text text-anchor="start" x="210.75" y="-32.75" font-family="Helvetica,sans-Serif" font-size="10.00">proxsuite::linalg::</text>
<text text-anchor="start" x="210.75" y="-20" font-family="Helvetica,sans-Serif" font-size="10.00">veg::Vec&lt; T, A, Dtor,</text>
<text text-anchor="middle" x="261.38" y="-7.25" font-family="Helvetica,sans-Serif" font-size="10.00"> Copy &gt;</text>
</a>
</g>
</g>
<!-- Node1&#45;&gt;Node8 -->
<g id="edge7" class="edge">
<title>Node1&#45;&gt;Node8</title>
<path fill="none" stroke="#8b1a1a" d="M72.03,-163.59C86.77,-131.21 113.39,-83.07 151,-55.12 165.93,-44.03 184.64,-36.77 202.34,-32.02"/>
<polygon fill="#8b1a1a" stroke="#8b1a1a" points="68.49,-161.95 67.66,-172.51 74.9,-164.77 68.49,-161.95"/>
</g>
</g>
</svg>
