<?xml version="1.0" encoding="UTF-8" standalone="no"?>
<!DOCTYPE svg PUBLIC "-//W3C//DTD SVG 1.1//EN"
 "http://www.w3.org/Graphics/SVG/1.1/DTD/svg11.dtd">
<!-- Generated by graphviz version 7.0.6 (20230107.1202)
 -->
<!-- Title: tl::detail::optional_copy_base&lt; T, bool &gt; Pages: 1 -->
<svg width="201pt" height="260pt"
 viewBox="0.00 0.00 200.50 260.00" xmlns="http://www.w3.org/2000/svg" xmlns:xlink="http://www.w3.org/1999/xlink">
<g id="graph0" class="graph" transform="scale(1 1) rotate(0) translate(4 256)">
<title>tl::detail::optional_copy_base&lt; T, bool &gt;</title>
<!-- Node1 -->
<g id="node1" class="node">
<title>Node1</title>
<g id="a_node1"><a xlink:title=" ">
<polygon fill="#999999" stroke="#666666" points="179,-30 50,-30 50,0 179,0 179,-30"/>
<text text-anchor="start" x="58" y="-18" font-family="Helvetica,sans-Serif" font-size="10.00">tl::detail::optional</text>
<text text-anchor="middle" x="114.5" y="-7" font-family="Helvetica,sans-Serif" font-size="10.00">_copy_base&lt; T, bool &gt;</text>
</a>
</g>
</g>
<!-- Node2 -->
<g id="node2" class="node">
<title>Node2</title>
<g id="a_node2"><a xlink:href="structtl_1_1detail_1_1optional__operations__base.html" target="_top" xlink:title=" ">
<polygon fill="white" stroke="#666666" points="180,-97 49,-97 49,-67 180,-67 180,-97"/>
<text text-anchor="start" x="57" y="-85" font-family="Helvetica,sans-Serif" font-size="10.00">tl::detail::optional</text>
<text text-anchor="middle" x="114.5" y="-74" font-family="Helvetica,sans-Serif" font-size="10.00">_operations_base&lt; T &gt;</text>
</a>
</g>
</g>
<!-- Node2&#45;&gt;Node1 -->
<g id="edge1" class="edge">
<title>Node2&#45;&gt;Node1</title>
<path fill="none" stroke="#63b8ff" d="M114.5,-55.28C114.5,-46.81 114.5,-37.7 114.5,-30.39"/>
<polygon fill="#63b8ff" stroke="#63b8ff" points="111,-55.06 114.5,-65.06 118,-55.06 111,-55.06"/>
</g>
<!-- Node3 -->
<g id="node3" class="node">
<title>Node3</title>
<g id="a_node3"><a xlink:href="structtl_1_1detail_1_1optional__storage__base.html" target="_top" xlink:title=" ">
<polygon fill="white" stroke="#666666" points="186,-164 43,-164 43,-134 186,-134 186,-164"/>
<text text-anchor="start" x="51" y="-152" font-family="Helvetica,sans-Serif" font-size="10.00">tl::detail::optional</text>
<text text-anchor="middle" x="114.5" y="-141" font-family="Helvetica,sans-Serif" font-size="10.00">_storage_base&lt; T, bool &gt;</text>
</a>
</g>
</g>
<!-- Node3&#45;&gt;Node2 -->
<g id="edge2" class="edge">
<title>Node3&#45;&gt;Node2</title>
<path fill="none" stroke="#63b8ff" d="M114.5,-122.28C114.5,-113.81 114.5,-104.7 114.5,-97.39"/>
<polygon fill="#63b8ff" stroke="#63b8ff" points="111,-122.06 114.5,-132.06 118,-122.06 111,-122.06"/>
</g>
<!-- Node4 -->
<g id="node4" class="node">
<title>Node4</title>
<g id="a_node4"><a xlink:href="structtl_1_1detail_1_1optional__storage__base_1_1dummy.html" target="_top" xlink:title=" ">
<polygon fill="white" stroke="#666666" points="131,-252 0,-252 0,-211 131,-211 131,-252"/>
<text text-anchor="start" x="8" y="-240" font-family="Helvetica,sans-Serif" font-size="10.00">tl::detail::optional</text>
<text text-anchor="start" x="8" y="-229" font-family="Helvetica,sans-Serif" font-size="10.00">_storage_base&lt; T, bool</text>
<text text-anchor="middle" x="65.5" y="-218" font-family="Helvetica,sans-Serif" font-size="10.00"> &gt;::dummy</text>
</a>
</g>
</g>
<!-- Node4&#45;&gt;Node3 -->
<g id="edge3" class="edge">
<title>Node4&#45;&gt;Node3</title>
<path fill="none" stroke="#9a32cd" stroke-dasharray="5,2" d="M75.96,-200.53C78.68,-194.21 81.88,-187.72 85.5,-182 89.43,-175.79 94.6,-169.64 99.48,-164.42"/>
<polygon fill="#9a32cd" stroke="#9a32cd" points="72.85,-198.87 72.4,-209.46 79.35,-201.47 72.85,-198.87"/>
<text text-anchor="middle" x="113.5" y="-185" font-family="Helvetica,sans-Serif" font-size="10.00"> m_dummy</text>
</g>
<!-- Node5 -->
<g id="node5" class="node">
<title>Node5</title>
<g id="a_node5"><a xlink:title=" ">
<polygon fill="white" stroke="#666666" points="178,-241 149,-241 149,-222 178,-222 178,-241"/>
<text text-anchor="middle" x="163.5" y="-229" font-family="Helvetica,sans-Serif" font-size="10.00">T</text>
</a>
</g>
</g>
<!-- Node5&#45;&gt;Node3 -->
<g id="edge4" class="edge">
<title>Node5&#45;&gt;Node3</title>
<path fill="none" stroke="#9a32cd" stroke-dasharray="5,2" d="M156.04,-210.85C152.23,-201.77 147.2,-191.02 141.5,-182 137.62,-175.85 132.65,-169.63 128.03,-164.32"/>
<polygon fill="#9a32cd" stroke="#9a32cd" points="152.79,-212.14 159.73,-220.14 159.29,-209.55 152.79,-212.14"/>
<text text-anchor="middle" x="169.5" y="-185" font-family="Helvetica,sans-Serif" font-size="10.00"> m_value</text>
</g>
</g>
</svg>
