<?xml version="1.0" encoding="UTF-8" standalone="no"?>
<!DOCTYPE svg PUBLIC "-//W3C//DTD SVG 1.1//EN"
 "http://www.w3.org/Graphics/SVG/1.1/DTD/svg11.dtd">
<!-- Generated by graphviz version 7.1.0 (20230122.1345)
 -->
<!-- Title: proxsuite::linalg::veg::_detail::_vector::adl::AdlBase Pages: 1 -->
<svg width="381pt" height="405pt"
 viewBox="0.00 0.00 381.00 405.00" xmlns="http://www.w3.org/2000/svg" xmlns:xlink="http://www.w3.org/1999/xlink">
<g id="graph0" class="graph" transform="scale(1 1) rotate(0) translate(4 401)">
<title>proxsuite::linalg::veg::_detail::_vector::adl::AdlBase</title>
<!-- Node1 -->
<g id="node1" class="node">
<title>Node1</title>
<g id="a_node1"><a xlink:title=" ">
<polygon fill="#999999" stroke="#666666" points="116,-203 0,-203 0,-162 116,-162 116,-203"/>
<text text-anchor="start" x="8" y="-191" font-family="Helvetica,sans-Serif" font-size="10.00">proxsuite::linalg::</text>
<text text-anchor="start" x="8" y="-180" font-family="Helvetica,sans-Serif" font-size="10.00">veg::_detail::_vector</text>
<text text-anchor="middle" x="58" y="-169" font-family="Helvetica,sans-Serif" font-size="10.00">::adl::AdlBase</text>
</a>
</g>
</g>
<!-- Node2 -->
<g id="node2" class="node">
<title>Node2</title>
<g id="a_node2"><a xlink:href="structproxsuite_1_1linalg_1_1veg_1_1Vec.html" target="_top" xlink:title=" ">
<polygon fill="white" stroke="#666666" points="373,-397 152,-397 152,-312 373,-312 373,-397"/>
<text text-anchor="start" x="160" y="-385" font-family="Helvetica,sans-Serif" font-size="10.00">proxsuite::linalg::</text>
<text text-anchor="start" x="160" y="-374" font-family="Helvetica,sans-Serif" font-size="10.00">veg::Vec&lt; T, proxsuite</text>
<text text-anchor="start" x="160" y="-363" font-family="Helvetica,sans-Serif" font-size="10.00">::linalg::veg::meta::if</text>
<text text-anchor="start" x="160" y="-352" font-family="Helvetica,sans-Serif" font-size="10.00">_t&lt; _detail::should_vectorize</text>
<text text-anchor="start" x="160" y="-341" font-family="Helvetica,sans-Serif" font-size="10.00">&lt; T &gt;::value, _detail::SimdAlignedSystem</text>
<text text-anchor="start" x="160" y="-330" font-family="Helvetica,sans-Serif" font-size="10.00">Alloc, proxsuite::linalg::veg::mem</text>
<text text-anchor="middle" x="262.5" y="-319" font-family="Helvetica,sans-Serif" font-size="10.00">::SystemAlloc &gt; &gt;</text>
</a>
</g>
</g>
<!-- Node1&#45;&gt;Node2 -->
<g id="edge1" class="edge">
<title>Node1&#45;&gt;Node2</title>
<path fill="none" stroke="#8b1a1a" d="M76.66,-212.66C93.35,-239.1 120.49,-277.16 152,-302.5 155.94,-305.67 160.1,-308.7 164.4,-311.59"/>
<polygon fill="#8b1a1a" stroke="#8b1a1a" points="79.81,-211.11 71.58,-204.44 73.86,-214.79 79.81,-211.11"/>
</g>
<!-- Node3 -->
<g id="node3" class="node">
<title>Node3</title>
<g id="a_node3"><a xlink:href="structproxsuite_1_1linalg_1_1veg_1_1Vec.html" target="_top" xlink:title=" ">
<polygon fill="white" stroke="#666666" points="314,-293.5 211,-293.5 211,-263.5 314,-263.5 314,-293.5"/>
<text text-anchor="start" x="219" y="-281.5" font-family="Helvetica,sans-Serif" font-size="10.00">proxsuite::linalg::</text>
<text text-anchor="middle" x="262.5" y="-270.5" font-family="Helvetica,sans-Serif" font-size="10.00">veg::Vec&lt; isize &gt;</text>
</a>
</g>
</g>
<!-- Node1&#45;&gt;Node3 -->
<g id="edge2" class="edge">
<title>Node1&#45;&gt;Node3</title>
<path fill="none" stroke="#8b1a1a" d="M88.55,-210.9C105.79,-225.98 128.69,-243.6 152,-254.5 170.25,-263.03 191.64,-268.59 210.65,-272.18"/>
<polygon fill="#8b1a1a" stroke="#8b1a1a" points="90.98,-208.38 81.2,-204.31 86.3,-213.59 90.98,-208.38"/>
</g>
<!-- Node4 -->
<g id="node4" class="node">
<title>Node4</title>
<g id="a_node4"><a xlink:href="structproxsuite_1_1linalg_1_1veg_1_1Vec.html" target="_top" xlink:title=" ">
<polygon fill="white" stroke="#666666" points="337,-245.5 188,-245.5 188,-215.5 337,-215.5 337,-245.5"/>
<text text-anchor="start" x="196" y="-233.5" font-family="Helvetica,sans-Serif" font-size="10.00">proxsuite::linalg::</text>
<text text-anchor="middle" x="262.5" y="-222.5" font-family="Helvetica,sans-Serif" font-size="10.00">veg::Vec&lt; unsigned char &gt;</text>
</a>
</g>
</g>
<!-- Node1&#45;&gt;Node4 -->
<g id="edge3" class="edge">
<title>Node1&#45;&gt;Node4</title>
<path fill="none" stroke="#8b1a1a" d="M127.59,-200.5C135.8,-202.57 144.08,-204.61 152,-206.5 164.02,-209.37 176.82,-212.29 189.26,-215.06"/>
<polygon fill="#8b1a1a" stroke="#8b1a1a" points="128.49,-197.12 117.93,-198.05 126.76,-203.91 128.49,-197.12"/>
</g>
<!-- Node5 -->
<g id="node5" class="node">
<title>Node5</title>
<g id="a_node5"><a xlink:href="structproxsuite_1_1linalg_1_1veg_1_1Vec.html" target="_top" xlink:title=" ">
<polygon fill="white" stroke="#666666" points="313,-197.5 212,-197.5 212,-167.5 313,-167.5 313,-197.5"/>
<text text-anchor="start" x="220" y="-185.5" font-family="Helvetica,sans-Serif" font-size="10.00">proxsuite::linalg::</text>
<text text-anchor="middle" x="262.5" y="-174.5" font-family="Helvetica,sans-Serif" font-size="10.00">veg::Vec&lt; I &gt;</text>
</a>
</g>
</g>
<!-- Node1&#45;&gt;Node5 -->
<g id="edge4" class="edge">
<title>Node1&#45;&gt;Node5</title>
<path fill="none" stroke="#8b1a1a" d="M127.66,-182.5C155.25,-182.5 186.45,-182.5 211.78,-182.5"/>
<polygon fill="#8b1a1a" stroke="#8b1a1a" points="128,-179 118,-182.5 128,-186 128,-179"/>
</g>
<!-- Node6 -->
<g id="node6" class="node">
<title>Node6</title>
<g id="a_node6"><a xlink:href="structproxsuite_1_1linalg_1_1veg_1_1Vec.html" target="_top" xlink:title=" ">
<polygon fill="white" stroke="#666666" points="334.5,-149 190.5,-149 190.5,-108 334.5,-108 334.5,-149"/>
<text text-anchor="start" x="198.5" y="-137" font-family="Helvetica,sans-Serif" font-size="10.00">proxsuite::linalg::</text>
<text text-anchor="start" x="198.5" y="-126" font-family="Helvetica,sans-Serif" font-size="10.00">veg::Vec&lt; proxsuite</text>
<text text-anchor="middle" x="262.5" y="-115" font-family="Helvetica,sans-Serif" font-size="10.00">::linalg::veg::mem::byte &gt;</text>
</a>
</g>
</g>
<!-- Node1&#45;&gt;Node6 -->
<g id="edge5" class="edge">
<title>Node1&#45;&gt;Node6</title>
<path fill="none" stroke="#8b1a1a" d="M127.48,-164.24C147.66,-158.86 169.8,-152.95 190.16,-147.52"/>
<polygon fill="#8b1a1a" stroke="#8b1a1a" points="126.71,-160.82 117.95,-166.78 128.51,-167.59 126.71,-160.82"/>
</g>
<!-- Node7 -->
<g id="node7" class="node">
<title>Node7</title>
<g id="a_node7"><a xlink:href="structproxsuite_1_1linalg_1_1veg_1_1Vec.html" target="_top" xlink:title=" ">
<polygon fill="white" stroke="#666666" points="313,-89.5 212,-89.5 212,-59.5 313,-59.5 313,-89.5"/>
<text text-anchor="start" x="220" y="-77.5" font-family="Helvetica,sans-Serif" font-size="10.00">proxsuite::linalg::</text>
<text text-anchor="middle" x="262.5" y="-66.5" font-family="Helvetica,sans-Serif" font-size="10.00">veg::Vec&lt; bool &gt;</text>
</a>
</g>
</g>
<!-- Node1&#45;&gt;Node7 -->
<g id="edge6" class="edge">
<title>Node1&#45;&gt;Node7</title>
<path fill="none" stroke="#8b1a1a" d="M83.85,-153.84C101.18,-135.63 125.82,-113.02 152,-99.5 170.37,-90.02 192.3,-84.1 211.69,-80.43"/>
<polygon fill="#8b1a1a" stroke="#8b1a1a" points="81.68,-151.03 77.45,-160.74 86.82,-155.79 81.68,-151.03"/>
</g>
<!-- Node8 -->
<g id="node8" class="node">
<title>Node8</title>
<g id="a_node8"><a xlink:href="structproxsuite_1_1linalg_1_1veg_1_1Vec.html" target="_top" xlink:title=" ">
<polygon fill="white" stroke="#666666" points="321.5,-41 203.5,-41 203.5,0 321.5,0 321.5,-41"/>
<text text-anchor="start" x="211.5" y="-29" font-family="Helvetica,sans-Serif" font-size="10.00">proxsuite::linalg::</text>
<text text-anchor="start" x="211.5" y="-18" font-family="Helvetica,sans-Serif" font-size="10.00">veg::Vec&lt; T, A, Dtor,</text>
<text text-anchor="middle" x="262.5" y="-7" font-family="Helvetica,sans-Serif" font-size="10.00"> Copy &gt;</text>
</a>
</g>
</g>
<!-- Node1&#45;&gt;Node8 -->
<g id="edge7" class="edge">
<title>Node1&#45;&gt;Node8</title>
<path fill="none" stroke="#8b1a1a" d="M72.91,-151.68C88.1,-121.46 115.27,-76.3 152,-50.5 167,-39.97 185.55,-33.13 203.1,-28.69"/>
<polygon fill="#8b1a1a" stroke="#8b1a1a" points="69.93,-149.8 68.7,-160.32 76.22,-152.86 69.93,-149.8"/>
</g>
</g>
</svg>
