<?xml version="1.0" encoding="UTF-8" standalone="no"?>
<!DOCTYPE svg PUBLIC "-//W3C//DTD SVG 1.1//EN"
 "http://www.w3.org/Graphics/SVG/1.1/DTD/svg11.dtd">
<!-- Generated by graphviz version 7.1.0 (20230122.1345)
 -->
<!-- Title: proxsuite::proxqp::sparse::QpView&lt; T, I &gt; Pages: 1 -->
<svg width="542pt" height="98pt"
 viewBox="0.00 0.00 542.00 97.50" xmlns="http://www.w3.org/2000/svg" xmlns:xlink="http://www.w3.org/1999/xlink">
<g id="graph0" class="graph" transform="scale(1 1) rotate(0) translate(4 93.5)">
<title>proxsuite::proxqp::sparse::QpView&lt; T, I &gt;</title>
<!-- Node1 -->
<g id="node1" class="node">
<title>Node1</title>
<g id="a_node1"><a xlink:title=" ">
<polygon fill="#999999" stroke="#666666" points="534,-51.5 404,-51.5 404,-21.5 534,-21.5 534,-51.5"/>
<text text-anchor="start" x="412" y="-39.5" font-family="Helvetica,sans-Serif" font-size="10.00">proxsuite::proxqp::</text>
<text text-anchor="middle" x="469" y="-28.5" font-family="Helvetica,sans-Serif" font-size="10.00">sparse::QpView&lt; T, I &gt;</text>
</a>
</g>
</g>
<!-- Node2 -->
<g id="node2" class="node">
<title>Node2</title>
<g id="a_node2"><a xlink:href="structproxsuite_1_1linalg_1_1sparse_1_1MatRef.html" target="_top" xlink:title=" ">
<polygon fill="white" stroke="#666666" points="352,-51.5 224,-51.5 224,-21.5 352,-21.5 352,-51.5"/>
<text text-anchor="start" x="232" y="-39.5" font-family="Helvetica,sans-Serif" font-size="10.00">proxsuite::linalg::</text>
<text text-anchor="middle" x="288" y="-28.5" font-family="Helvetica,sans-Serif" font-size="10.00">sparse::MatRef&lt; T, I &gt;</text>
</a>
</g>
</g>
<!-- Node2&#45;&gt;Node1 -->
<g id="edge1" class="edge">
<title>Node2&#45;&gt;Node1</title>
<path fill="none" stroke="#9a32cd" stroke-dasharray="5,2" d="M363.81,-36.5C377.01,-36.5 390.64,-36.5 403.52,-36.5"/>
<polygon fill="#9a32cd" stroke="#9a32cd" points="363.87,-33 353.87,-36.5 363.87,-40 363.87,-33"/>
<text text-anchor="middle" x="378" y="-61.5" font-family="Helvetica,sans-Serif" font-size="10.00"> AT</text>
<text text-anchor="middle" x="378" y="-50.5" font-family="Helvetica,sans-Serif" font-size="10.00">CT</text>
<text text-anchor="middle" x="378" y="-39.5" font-family="Helvetica,sans-Serif" font-size="10.00">H</text>
</g>
<!-- Node3 -->
<g id="node3" class="node">
<title>Node3</title>
<g id="a_node3"><a xlink:href="structproxsuite_1_1linalg_1_1sparse_1_1__detail_1_1SymbolicMatRefInterface.html" target="_top" xlink:title=" ">
<polygon fill="white" stroke="#666666" points="158,-89.5 0,-89.5 0,-37.5 158,-37.5 158,-89.5"/>
<text text-anchor="start" x="8" y="-77.5" font-family="Helvetica,sans-Serif" font-size="10.00">proxsuite::linalg::</text>
<text text-anchor="start" x="8" y="-66.5" font-family="Helvetica,sans-Serif" font-size="10.00">sparse::_detail::SymbolicMat</text>
<text text-anchor="start" x="8" y="-55.5" font-family="Helvetica,sans-Serif" font-size="10.00">RefInterface&lt; MatRef&lt; T,</text>
<text text-anchor="middle" x="79" y="-44.5" font-family="Helvetica,sans-Serif" font-size="10.00"> I &gt;, I &gt;</text>
</a>
</g>
</g>
<!-- Node3&#45;&gt;Node2 -->
<g id="edge2" class="edge">
<title>Node3&#45;&gt;Node2</title>
<path fill="none" stroke="#63b8ff" d="M169.53,-51.82C187.8,-49.44 206.65,-46.98 223.77,-44.75"/>
<polygon fill="#63b8ff" stroke="#63b8ff" points="169.22,-48.33 159.76,-53.1 170.13,-55.27 169.22,-48.33"/>
</g>
<!-- Node4 -->
<g id="node4" class="node">
<title>Node4</title>
<g id="a_node4"><a xlink:title=" ">
<polygon fill="white" stroke="#666666" points="98.5,-19 59.5,-19 59.5,0 98.5,0 98.5,-19"/>
<text text-anchor="middle" x="79" y="-7" font-family="Helvetica,sans-Serif" font-size="10.00">isize</text>
</a>
</g>
</g>
<!-- Node4&#45;&gt;Node2 -->
<g id="edge3" class="edge">
<title>Node4&#45;&gt;Node2</title>
<path fill="none" stroke="#9a32cd" stroke-dasharray="5,2" d="M110.14,-7.6C135.8,-6.55 173.54,-6.34 206,-11.5 218.94,-13.56 232.67,-17.2 245.08,-21.09"/>
<polygon fill="#9a32cd" stroke="#9a32cd" points="110.26,-4.09 100.44,-8.07 110.6,-11.08 110.26,-4.09"/>
<text text-anchor="middle" x="191" y="-36.5" font-family="Helvetica,sans-Serif" font-size="10.00"> ncols</text>
<text text-anchor="middle" x="191" y="-25.5" font-family="Helvetica,sans-Serif" font-size="10.00">nnz</text>
<text text-anchor="middle" x="191" y="-14.5" font-family="Helvetica,sans-Serif" font-size="10.00">nrows</text>
</g>
</g>
</svg>
