<?xml version="1.0" encoding="UTF-8" standalone="no"?>
<!DOCTYPE svg PUBLIC "-//W3C//DTD SVG 1.1//EN"
 "http://www.w3.org/Graphics/SVG/1.1/DTD/svg11.dtd">
<!-- Generated by graphviz version 8.0.4 (20230426.1303)
 -->
<!-- Title: proxsuite::proxqp::sparse::detail::AugmentedKkt&lt; T, I &gt;::Raw Pages: 1 -->
<svg width="646pt" height="200pt"
 viewBox="0.00 0.00 646.25 199.62" xmlns="http://www.w3.org/2000/svg" xmlns:xlink="http://www.w3.org/1999/xlink">
<g id="graph0" class="graph" transform="scale(1 1) rotate(0) translate(4 195.62)">
<title>proxsuite::proxqp::sparse::detail::AugmentedKkt&lt; T, I &gt;::Raw</title>
<!-- Node1 -->
<g id="node1" class="node">
<title>Node1</title>
<g id="a_node1"><a xlink:title=" ">
<polygon fill="#999999" stroke="#666666" points="638.25,-99.25 477.5,-99.25 477.5,-53 638.25,-53 638.25,-99.25"/>
<text text-anchor="start" x="485.5" y="-85.75" font-family="Helvetica,sans-Serif" font-size="10.00">proxsuite::proxqp::</text>
<text text-anchor="start" x="485.5" y="-73" font-family="Helvetica,sans-Serif" font-size="10.00">sparse::detail::AugmentedKkt</text>
<text text-anchor="middle" x="557.88" y="-60.25" font-family="Helvetica,sans-Serif" font-size="10.00">&lt; T, I &gt;::Raw</text>
</a>
</g>
</g>
<!-- Node2 -->
<g id="node2" class="node">
<title>Node2</title>
<g id="a_node2"><a xlink:href="structproxsuite_1_1linalg_1_1sparse_1_1MatRef.html" target="_top" xlink:title=" ">
<polygon fill="white" stroke="#666666" points="349.25,-165.88 222.25,-165.88 222.25,-132.38 349.25,-132.38 349.25,-165.88"/>
<text text-anchor="start" x="230.25" y="-152.38" font-family="Helvetica,sans-Serif" font-size="10.00">proxsuite::linalg::</text>
<text text-anchor="middle" x="285.75" y="-139.62" font-family="Helvetica,sans-Serif" font-size="10.00">sparse::MatRef&lt; T, I &gt;</text>
</a>
</g>
</g>
<!-- Node2&#45;&gt;Node1 -->
<g id="edge1" class="edge">
<title>Node2&#45;&gt;Node1</title>
<path fill="none" stroke="#9a32cd" stroke-dasharray="5,2" d="M360.22,-129.27C396.39,-119.5 440.06,-107.69 477.05,-97.7"/>
<polygon fill="#9a32cd" stroke="#9a32cd" points="359.48,-126.11 350.74,-132.1 361.31,-132.87 359.48,-126.11"/>
<text text-anchor="middle" x="413.38" y="-128.38" font-family="Helvetica,sans-Serif" font-size="10.00"> kkt_active</text>
</g>
<!-- Node3 -->
<g id="node3" class="node">
<title>Node3</title>
<g id="a_node3"><a xlink:href="structproxsuite_1_1linalg_1_1sparse_1_1__detail_1_1SymbolicMatRefInterface.html" target="_top" xlink:title=" ">
<polygon fill="white" stroke="#666666" points="157,-191.62 0,-191.62 0,-132.62 157,-132.62 157,-191.62"/>
<text text-anchor="start" x="8" y="-178.12" font-family="Helvetica,sans-Serif" font-size="10.00">proxsuite::linalg::</text>
<text text-anchor="start" x="8" y="-165.38" font-family="Helvetica,sans-Serif" font-size="10.00">sparse::_detail::SymbolicMat</text>
<text text-anchor="start" x="8" y="-152.62" font-family="Helvetica,sans-Serif" font-size="10.00">RefInterface&lt; MatRef&lt; T,</text>
<text text-anchor="middle" x="78.5" y="-139.88" font-family="Helvetica,sans-Serif" font-size="10.00"> I &gt;, I &gt;</text>
</a>
</g>
</g>
<!-- Node3&#45;&gt;Node2 -->
<g id="edge2" class="edge">
<title>Node3&#45;&gt;Node2</title>
<path fill="none" stroke="#63b8ff" d="M168.24,-156.5C186.31,-155.36 204.96,-154.18 221.91,-153.11"/>
<polygon fill="#63b8ff" stroke="#63b8ff" points="168.15,-153.07 158.39,-157.19 168.59,-160.05 168.15,-153.07"/>
</g>
<!-- Node4 -->
<g id="node4" class="node">
<title>Node4</title>
<g id="a_node4"><a xlink:title=" ">
<polygon fill="white" stroke="#666666" points="97.75,-100.5 59.25,-100.5 59.25,-79.75 97.75,-79.75 97.75,-100.5"/>
<text text-anchor="middle" x="78.5" y="-87" font-family="Helvetica,sans-Serif" font-size="10.00">isize</text>
</a>
</g>
</g>
<!-- Node4&#45;&gt;Node1 -->
<g id="edge6" class="edge">
<title>Node4&#45;&gt;Node1</title>
<path fill="none" stroke="#9a32cd" stroke-dasharray="5,2" d="M108.91,-88.95C137.77,-87.82 183.04,-86.11 222.25,-84.88 309.38,-82.13 409.29,-79.6 477.09,-77.97"/>
<polygon fill="#9a32cd" stroke="#9a32cd" points="108.83,-85.49 98.98,-89.38 109.11,-92.49 108.83,-85.49"/>
<text text-anchor="middle" x="285.75" y="-112.88" font-family="Helvetica,sans-Serif" font-size="10.00"> n</text>
<text text-anchor="middle" x="285.75" y="-100.12" font-family="Helvetica,sans-Serif" font-size="10.00">n_eq</text>
<text text-anchor="middle" x="285.75" y="-87.38" font-family="Helvetica,sans-Serif" font-size="10.00">n_in</text>
</g>
<!-- Node4&#45;&gt;Node2 -->
<g id="edge3" class="edge">
<title>Node4&#45;&gt;Node2</title>
<path fill="none" stroke="#9a32cd" stroke-dasharray="5,2" d="M108.87,-93.06C134.48,-96.12 172.41,-101.92 204.25,-111.88 220.71,-117.02 238.18,-124.79 252.62,-131.91"/>
<polygon fill="#9a32cd" stroke="#9a32cd" points="109.37,-89.48 99.04,-91.83 108.58,-96.43 109.37,-89.48"/>
<text text-anchor="middle" x="189.62" y="-139.88" font-family="Helvetica,sans-Serif" font-size="10.00"> ncols</text>
<text text-anchor="middle" x="189.62" y="-127.12" font-family="Helvetica,sans-Serif" font-size="10.00">nnz</text>
<text text-anchor="middle" x="189.62" y="-114.38" font-family="Helvetica,sans-Serif" font-size="10.00">nrows</text>
</g>
<!-- Node5 -->
<g id="node5" class="node">
<title>Node5</title>
<g id="a_node5"><a xlink:href="structproxsuite_1_1linalg_1_1veg_1_1Slice.html" target="_top" xlink:title=" ">
<polygon fill="white" stroke="#666666" points="339.12,-39.88 232.38,-39.88 232.38,-6.38 339.12,-6.38 339.12,-39.88"/>
<text text-anchor="start" x="240.38" y="-26.38" font-family="Helvetica,sans-Serif" font-size="10.00">proxsuite::linalg::</text>
<text text-anchor="middle" x="285.75" y="-13.62" font-family="Helvetica,sans-Serif" font-size="10.00">veg::Slice&lt; bool &gt;</text>
</a>
</g>
</g>
<!-- Node5&#45;&gt;Node1 -->
<g id="edge4" class="edge">
<title>Node5&#45;&gt;Node1</title>
<path fill="none" stroke="#9a32cd" stroke-dasharray="5,2" d="M350.38,-30.98C383.15,-35.48 423.64,-41.75 459.5,-49.38 465.24,-50.6 471.15,-51.96 477.08,-53.4"/>
<polygon fill="#9a32cd" stroke="#9a32cd" points="350.96,-27.39 340.58,-29.52 350.02,-34.33 350.96,-27.39"/>
<text text-anchor="middle" x="413.38" y="-53.38" font-family="Helvetica,sans-Serif" font-size="10.00"> active_constraints</text>
</g>
<!-- Node6 -->
<g id="node6" class="node">
<title>Node6</title>
<g id="a_node6"><a xlink:href="structproxsuite_1_1linalg_1_1veg_1_1__detail_1_1__slice_1_1adl_1_1AdlBase.html" target="_top" xlink:title=" ">
<polygon fill="white" stroke="#666666" points="131.88,-46.25 25.12,-46.25 25.12,0 131.88,0 131.88,-46.25"/>
<text text-anchor="start" x="33.12" y="-32.75" font-family="Helvetica,sans-Serif" font-size="10.00">proxsuite::linalg::</text>
<text text-anchor="start" x="33.12" y="-20" font-family="Helvetica,sans-Serif" font-size="10.00">veg::_detail::_slice</text>
<text text-anchor="middle" x="78.5" y="-7.25" font-family="Helvetica,sans-Serif" font-size="10.00">::adl::AdlBase</text>
</a>
</g>
</g>
<!-- Node6&#45;&gt;Node5 -->
<g id="edge5" class="edge">
<title>Node6&#45;&gt;Node5</title>
<path fill="none" stroke="#63b8ff" d="M143.05,-23.12C171.61,-23.12 204.93,-23.12 232.07,-23.12"/>
<polygon fill="#63b8ff" stroke="#63b8ff" points="143.36,-19.63 133.36,-23.12 143.36,-26.63 143.36,-19.63"/>
</g>
</g>
</svg>
