<?xml version="1.0" encoding="UTF-8" standalone="no"?>
<!DOCTYPE svg PUBLIC "-//W3C//DTD SVG 1.1//EN"
 "http://www.w3.org/Graphics/SVG/1.1/DTD/svg11.dtd">
<!-- Generated by graphviz version 11.0.0 (20240519.1550)
 -->
<!-- Title: proxsuite::proxqp::sparse::Workspace&lt; T, I &gt; Pages: 1 -->
<svg width="765pt" height="575pt"
 viewBox="0.00 0.00 764.75 574.50" xmlns="http://www.w3.org/2000/svg" xmlns:xlink="http://www.w3.org/1999/xlink">
<g id="graph0" class="graph" transform="scale(1 1) rotate(0) translate(4 570.5)">
<title>proxsuite::proxqp::sparse::Workspace&lt; T, I &gt;</title>
<!-- Node1 -->
<g id="Node000001" class="node">
<title>Node1</title>
<g id="a_Node000001"><a xlink:title="This class defines the workspace of the sparse solver.">
<polygon fill="#999999" stroke="#666666" points="756.75,-184.12 611.75,-184.12 611.75,-150.62 756.75,-150.62 756.75,-184.12"/>
<text text-anchor="start" x="619.75" y="-170.62" font-family="Helvetica,sans-Serif" font-size="10.00">proxsuite::proxqp::</text>
<text text-anchor="middle" x="684.25" y="-157.88" font-family="Helvetica,sans-Serif" font-size="10.00">sparse::Workspace&lt; T, I &gt;</text>
</a>
</g>
</g>
<!-- Node2 -->
<g id="Node000002" class="node">
<title>Node2</title>
<g id="a_Node000002"><a xlink:href="structproxsuite_1_1linalg_1_1veg_1_1Vec.html" target="_top" xlink:title=" ">
<polygon fill="white" stroke="#666666" points="441.88,-239.5 298.38,-239.5 298.38,-193.25 441.88,-193.25 441.88,-239.5"/>
<text text-anchor="start" x="306.38" y="-226" font-family="Helvetica,sans-Serif" font-size="10.00">proxsuite::linalg::</text>
<text text-anchor="start" x="306.38" y="-213.25" font-family="Helvetica,sans-Serif" font-size="10.00">veg::Vec&lt; proxsuite</text>
<text text-anchor="middle" x="370.12" y="-200.5" font-family="Helvetica,sans-Serif" font-size="10.00">::linalg::veg::mem::byte &gt;</text>
</a>
</g>
</g>
<!-- Node2&#45;&gt;Node1 -->
<g id="edge1_Node000001_Node000002" class="edge">
<title>Node2&#45;&gt;Node1</title>
<g id="a_edge1_Node000001_Node000002"><a xlink:title=" ">
<path fill="none" stroke="#9a32cd" stroke-dasharray="5,2" d="M453.56,-203.43C502.59,-195.74 564.19,-186.07 611.26,-178.68"/>
<polygon fill="#9a32cd" stroke="#9a32cd" points="453.17,-199.95 443.84,-204.96 454.26,-206.87 453.17,-199.95"/>
</a>
</g>
<text text-anchor="middle" x="546.12" y="-198.62" font-family="Helvetica,sans-Serif" font-size="10.00" fill="grey"> storage</text>
</g>
<!-- Node3 -->
<g id="Node000003" class="node">
<title>Node3</title>
<g id="a_Node000003"><a xlink:href="structproxsuite_1_1linalg_1_1veg_1_1__detail_1_1__vector_1_1adl_1_1AdlBase.html" target="_top" xlink:title=" ">
<polygon fill="white" stroke="#666666" points="161.12,-438.5 46.12,-438.5 46.12,-392.25 161.12,-392.25 161.12,-438.5"/>
<text text-anchor="start" x="54.12" y="-425" font-family="Helvetica,sans-Serif" font-size="10.00">proxsuite::linalg::</text>
<text text-anchor="start" x="54.12" y="-412.25" font-family="Helvetica,sans-Serif" font-size="10.00">veg::_detail::_vector</text>
<text text-anchor="middle" x="103.62" y="-399.5" font-family="Helvetica,sans-Serif" font-size="10.00">::adl::AdlBase</text>
</a>
</g>
</g>
<!-- Node3&#45;&gt;Node2 -->
<g id="edge2_Node000002_Node000003" class="edge">
<title>Node3&#45;&gt;Node2</title>
<g id="a_edge2_Node000002_Node000003"><a xlink:title=" ">
<path fill="none" stroke="#8b1a1a" d="M172.21,-401.04C184.54,-396.6 196.79,-390.84 207.25,-383.38 228.34,-368.32 228.99,-358.93 241.75,-336.38 251.95,-318.34 246.77,-309.52 259.75,-293.38 277.28,-271.56 302.54,-253.22 324.37,-239.92"/>
<polygon fill="#8b1a1a" stroke="#8b1a1a" points="171.24,-397.68 162.84,-404.13 173.43,-404.32 171.24,-397.68"/>
</a>
</g>
</g>
<!-- Node6 -->
<g id="Node000006" class="node">
<title>Node6</title>
<g id="a_Node000006"><a xlink:href="structproxsuite_1_1linalg_1_1veg_1_1Vec.html" target="_top" xlink:title=" ">
<polygon fill="white" stroke="#666666" points="420.5,-474.12 319.75,-474.12 319.75,-440.62 420.5,-440.62 420.5,-474.12"/>
<text text-anchor="start" x="327.75" y="-460.62" font-family="Helvetica,sans-Serif" font-size="10.00">proxsuite::linalg::</text>
<text text-anchor="middle" x="370.12" y="-447.88" font-family="Helvetica,sans-Serif" font-size="10.00">veg::Vec&lt; I &gt;</text>
</a>
</g>
</g>
<!-- Node3&#45;&gt;Node6 -->
<g id="edge6_Node000006_Node000003" class="edge">
<title>Node3&#45;&gt;Node6</title>
<g id="a_edge6_Node000006_Node000003"><a xlink:title=" ">
<path fill="none" stroke="#8b1a1a" d="M172.73,-426.19C218.64,-433.48 278.17,-442.93 319.6,-449.51"/>
<polygon fill="#8b1a1a" stroke="#8b1a1a" points="173.29,-422.73 162.86,-424.62 172.19,-429.65 173.29,-422.73"/>
</a>
</g>
</g>
<!-- Node12 -->
<g id="Node000012" class="node">
<title>Node12</title>
<g id="a_Node000012"><a xlink:href="structproxsuite_1_1linalg_1_1veg_1_1Vec.html" target="_top" xlink:title=" ">
<polygon fill="white" stroke="#666666" points="420.5,-336.12 319.75,-336.12 319.75,-302.62 420.5,-302.62 420.5,-336.12"/>
<text text-anchor="start" x="327.75" y="-322.62" font-family="Helvetica,sans-Serif" font-size="10.00">proxsuite::linalg::</text>
<text text-anchor="middle" x="370.12" y="-309.88" font-family="Helvetica,sans-Serif" font-size="10.00">veg::Vec&lt; bool &gt;</text>
</a>
</g>
</g>
<!-- Node3&#45;&gt;Node12 -->
<g id="edge14_Node000012_Node000003" class="edge">
<title>Node3&#45;&gt;Node12</title>
<g id="a_edge14_Node000012_Node000003"><a xlink:title=" ">
<path fill="none" stroke="#8b1a1a" d="M172.25,-395.07C183.97,-391.33 196,-387.35 207.25,-383.38 248.85,-368.69 295.65,-349.94 328.19,-336.53"/>
<polygon fill="#8b1a1a" stroke="#8b1a1a" points="171.53,-391.63 163.05,-397.98 173.64,-398.3 171.53,-391.63"/>
</a>
</g>
</g>
<!-- Node4 -->
<g id="Node000004" class="node">
<title>Node4</title>
<g id="a_Node000004"><a xlink:title=" ">
<polygon fill="white" stroke="#666666" points="191.5,-168.25 15.75,-168.25 15.75,-96.5 191.5,-96.5 191.5,-168.25"/>
<text text-anchor="start" x="23.75" y="-154.75" font-family="Helvetica,sans-Serif" font-size="10.00">meta::if_t&lt; mem::CopyAvailable</text>
<text text-anchor="start" x="23.75" y="-142" font-family="Helvetica,sans-Serif" font-size="10.00">For&lt;proxsuite::linalg::veg</text>
<text text-anchor="start" x="23.75" y="-129.25" font-family="Helvetica,sans-Serif" font-size="10.00">::mem::byte &gt;::value ==mem</text>
<text text-anchor="start" x="23.75" y="-116.5" font-family="Helvetica,sans-Serif" font-size="10.00">::CopyAvailable::no, _detail</text>
<text text-anchor="middle" x="103.62" y="-103.75" font-family="Helvetica,sans-Serif" font-size="10.00">::NoCopy, _detail::Empty &gt;</text>
</a>
</g>
</g>
<!-- Node4&#45;&gt;Node2 -->
<g id="edge3_Node000002_Node000004" class="edge">
<title>Node4&#45;&gt;Node2</title>
<g id="a_edge3_Node000002_Node000004"><a xlink:title=" ">
<path fill="none" stroke="#8b1a1a" d="M202.54,-165.84C221.48,-172.13 241.2,-178.55 259.75,-184.38 272.11,-188.25 285.31,-192.24 298.11,-196.03"/>
<polygon fill="#8b1a1a" stroke="#8b1a1a" points="203.84,-162.58 193.24,-162.74 201.62,-169.22 203.84,-162.58"/>
</a>
</g>
</g>
<!-- Node5 -->
<g id="Node000005" class="node">
<title>Node5</title>
<g id="a_Node000005"><a xlink:href="structproxsuite_1_1linalg_1_1veg_1_1__detail_1_1__collections_1_1VecImpl.html" target="_top" xlink:title=" ">
<polygon fill="white" stroke="#666666" points="183.62,-232.5 23.62,-232.5 23.62,-186.25 183.62,-186.25 183.62,-232.5"/>
<text text-anchor="start" x="31.62" y="-219" font-family="Helvetica,sans-Serif" font-size="10.00">proxsuite::linalg::</text>
<text text-anchor="start" x="31.62" y="-206.25" font-family="Helvetica,sans-Serif" font-size="10.00">veg::_detail::_collections</text>
<text text-anchor="middle" x="103.62" y="-193.5" font-family="Helvetica,sans-Serif" font-size="10.00">::VecImpl&lt; T, A, Dtor, Copy &gt;</text>
</a>
</g>
</g>
<!-- Node5&#45;&gt;Node2 -->
<g id="edge4_Node000002_Node000005" class="edge">
<title>Node5&#45;&gt;Node2</title>
<g id="a_edge4_Node000002_Node000005"><a xlink:title=" ">
<path fill="none" stroke="#63b8ff" d="M195.2,-211.77C228.77,-212.66 266.32,-213.65 297.92,-214.49"/>
<polygon fill="#63b8ff" stroke="#63b8ff" points="195.59,-208.28 185.5,-211.52 195.4,-215.28 195.59,-208.28"/>
</a>
</g>
</g>
<!-- Node6&#45;&gt;Node1 -->
<g id="edge5_Node000001_Node000006" class="edge">
<title>Node6&#45;&gt;Node1</title>
<g id="a_edge5_Node000001_Node000006"><a xlink:title=" ">
<path fill="none" stroke="#9a32cd" stroke-dasharray="5,2" d="M403.33,-433.67C448.03,-400.14 530.53,-335.94 593.75,-273.38 623.37,-244.07 653.83,-205.96 670.47,-184.33"/>
<polygon fill="#9a32cd" stroke="#9a32cd" points="401.52,-430.66 395.6,-439.45 405.7,-436.27 401.52,-430.66"/>
</a>
</g>
<text text-anchor="middle" x="546.12" y="-360.62" font-family="Helvetica,sans-Serif" font-size="10.00" fill="grey"> kkt_nnz_counts</text>
</g>
<!-- Node7 -->
<g id="Node000007" class="node">
<title>Node7</title>
<g id="a_Node000007"><a xlink:title=" ">
<polygon fill="white" stroke="#666666" points="207.25,-566.5 0,-566.5 0,-520.25 207.25,-520.25 207.25,-566.5"/>
<text text-anchor="start" x="8" y="-553" font-family="Helvetica,sans-Serif" font-size="10.00">meta::if_t&lt; mem::CopyAvailable</text>
<text text-anchor="start" x="8" y="-540.25" font-family="Helvetica,sans-Serif" font-size="10.00">For&lt;I &gt;::value ==mem::CopyAvailable</text>
<text text-anchor="middle" x="103.62" y="-527.5" font-family="Helvetica,sans-Serif" font-size="10.00">::no, _detail::NoCopy, _detail::Empty &gt;</text>
</a>
</g>
</g>
<!-- Node7&#45;&gt;Node6 -->
<g id="edge7_Node000006_Node000007" class="edge">
<title>Node7&#45;&gt;Node6</title>
<g id="a_edge7_Node000006_Node000007"><a xlink:title=" ">
<path fill="none" stroke="#8b1a1a" d="M191.72,-516.35C196.98,-514.67 202.19,-513.01 207.25,-511.38 244.89,-499.23 287.29,-485.07 319.26,-474.29"/>
<polygon fill="#8b1a1a" stroke="#8b1a1a" points="190.81,-512.96 182.34,-519.32 192.93,-519.64 190.81,-512.96"/>
</a>
</g>
</g>
<!-- Node8 -->
<g id="Node000008" class="node">
<title>Node8</title>
<g id="a_Node000008"><a xlink:href="structproxsuite_1_1linalg_1_1veg_1_1__detail_1_1__collections_1_1VecImpl.html" target="_top" xlink:title=" ">
<polygon fill="white" stroke="#666666" points="183.62,-502.5 23.62,-502.5 23.62,-456.25 183.62,-456.25 183.62,-502.5"/>
<text text-anchor="start" x="31.62" y="-489" font-family="Helvetica,sans-Serif" font-size="10.00">proxsuite::linalg::</text>
<text text-anchor="start" x="31.62" y="-476.25" font-family="Helvetica,sans-Serif" font-size="10.00">veg::_detail::_collections</text>
<text text-anchor="middle" x="103.62" y="-463.5" font-family="Helvetica,sans-Serif" font-size="10.00">::VecImpl&lt; T, A, Dtor, Copy &gt;</text>
</a>
</g>
</g>
<!-- Node8&#45;&gt;Node6 -->
<g id="edge8_Node000006_Node000008" class="edge">
<title>Node8&#45;&gt;Node6</title>
<g id="a_edge8_Node000006_Node000008"><a xlink:title=" ">
<path fill="none" stroke="#63b8ff" d="M195.25,-471.84C236.81,-468.38 284.48,-464.42 319.38,-461.51"/>
<polygon fill="#63b8ff" stroke="#63b8ff" points="195.17,-468.33 185.49,-472.65 195.75,-475.31 195.17,-468.33"/>
</a>
</g>
</g>
<!-- Node9 -->
<g id="Node000009" class="node">
<title>Node9</title>
<g id="a_Node000009"><a xlink:title=" ">
<polygon fill="white" stroke="#666666" points="443,-85.5 297.25,-85.5 297.25,-39.25 443,-39.25 443,-85.5"/>
<text text-anchor="start" x="305.25" y="-72" font-family="Helvetica,sans-Serif" font-size="10.00">std::unique_ptr&lt; proxsuite</text>
<text text-anchor="start" x="305.25" y="-59.25" font-family="Helvetica,sans-Serif" font-size="10.00">::proxqp::sparse::detail</text>
<text text-anchor="middle" x="370.12" y="-46.5" font-family="Helvetica,sans-Serif" font-size="10.00">::AugmentedKkt&lt; T, I &gt; &gt;</text>
</a>
</g>
</g>
<!-- Node9&#45;&gt;Node1 -->
<g id="edge9_Node000001_Node000009" class="edge">
<title>Node9&#45;&gt;Node1</title>
<g id="a_edge9_Node000001_Node000009"><a xlink:title=" ">
<path fill="none" stroke="#9a32cd" stroke-dasharray="5,2" d="M454.18,-86.21C463.08,-88.9 471.99,-91.66 480.5,-94.38 531.25,-110.58 543.66,-115.5 593.75,-133.62 608.27,-138.88 624.06,-144.77 638.27,-150.14"/>
<polygon fill="#9a32cd" stroke="#9a32cd" points="455.38,-82.92 444.8,-83.4 453.37,-89.62 455.38,-82.92"/>
</a>
</g>
<text text-anchor="middle" x="546.12" y="-136.62" font-family="Helvetica,sans-Serif" font-size="10.00" fill="grey"> matrix_free_kkt</text>
</g>
<!-- Node10 -->
<g id="Node000010" class="node">
<title>Node10</title>
<g id="a_Node000010"><a xlink:title=" ">
<polygon fill="white" stroke="#666666" points="118.03,-76.75 89.22,-76.75 89.22,-56 118.03,-56 118.03,-76.75"/>
<text text-anchor="middle" x="103.62" y="-63.25" font-family="Helvetica,sans-Serif" font-size="10.00">T</text>
</a>
</g>
</g>
<!-- Node10&#45;&gt;Node9 -->
<g id="edge10_Node000009_Node000010" class="edge">
<title>Node10&#45;&gt;Node9</title>
<g id="a_edge10_Node000009_Node000010"><a xlink:title=" ">
<path fill="none" stroke="#9a32cd" stroke-dasharray="5,2" d="M129.79,-65.7C154.19,-65.07 192.25,-64.14 225.25,-63.62 248.6,-63.26 274.09,-62.99 297.04,-62.8"/>
<polygon fill="#9a32cd" stroke="#9a32cd" points="129.79,-62.2 119.89,-65.96 129.97,-69.19 129.79,-62.2"/>
</a>
</g>
<text text-anchor="middle" x="233.5" y="-66.62" font-family="Helvetica,sans-Serif" font-size="10.00" fill="grey"> ptr</text>
</g>
<!-- Node11 -->
<g id="Node000011" class="node">
<title>Node11</title>
<g id="a_Node000011"><a xlink:title=" ">
<polygon fill="white" stroke="#666666" points="480.5,-175.25 259.75,-175.25 259.75,-103.5 480.5,-103.5 480.5,-175.25"/>
<text text-anchor="start" x="267.75" y="-161.75" font-family="Helvetica,sans-Serif" font-size="10.00">std::unique_ptr&lt; Eigen</text>
<text text-anchor="start" x="267.75" y="-149" font-family="Helvetica,sans-Serif" font-size="10.00">::MINRES&lt; proxsuite::proxqp</text>
<text text-anchor="start" x="267.75" y="-136.25" font-family="Helvetica,sans-Serif" font-size="10.00">::sparse::detail::AugmentedKkt</text>
<text text-anchor="start" x="267.75" y="-123.5" font-family="Helvetica,sans-Serif" font-size="10.00">&lt; T, I &gt;, Eigen::Upper|Eigen</text>
<text text-anchor="middle" x="370.12" y="-110.75" font-family="Helvetica,sans-Serif" font-size="10.00">::Lower, Eigen::IdentityPreconditioner &gt; &gt;</text>
</a>
</g>
</g>
<!-- Node10&#45;&gt;Node11 -->
<g id="edge12_Node000011_Node000010" class="edge">
<title>Node10&#45;&gt;Node11</title>
<g id="a_edge12_Node000011_Node000010"><a xlink:title=" ">
<path fill="none" stroke="#9a32cd" stroke-dasharray="5,2" d="M129.42,-70.67C150.31,-74.47 180.93,-80.48 207.25,-87.38 224.95,-92.01 243.58,-97.46 261.63,-103.04"/>
<polygon fill="#9a32cd" stroke="#9a32cd" points="130.3,-67.27 119.84,-68.96 129.07,-74.16 130.3,-67.27"/>
</a>
</g>
<text text-anchor="middle" x="233.5" y="-98.62" font-family="Helvetica,sans-Serif" font-size="10.00" fill="grey"> ptr</text>
</g>
<!-- Node11&#45;&gt;Node1 -->
<g id="edge11_Node000001_Node000011" class="edge">
<title>Node11&#45;&gt;Node1</title>
<g id="a_edge11_Node000001_Node000011"><a xlink:title=" ">
<path fill="none" stroke="#9a32cd" stroke-dasharray="5,2" d="M492.02,-150.22C532.41,-153.84 576.1,-157.76 611.52,-160.94"/>
<polygon fill="#9a32cd" stroke="#9a32cd" points="492.51,-146.75 482.24,-149.34 491.88,-153.72 492.51,-146.75"/>
</a>
</g>
<text text-anchor="middle" x="546.12" y="-161.62" font-family="Helvetica,sans-Serif" font-size="10.00" fill="grey"> matrix_free_solver</text>
</g>
<!-- Node12&#45;&gt;Node1 -->
<g id="edge13_Node000001_Node000012" class="edge">
<title>Node12&#45;&gt;Node1</title>
<g id="a_edge13_Node000001_Node000012"><a xlink:title=" ">
<path fill="none" stroke="#9a32cd" stroke-dasharray="5,2" d="M417.82,-297.23C462.95,-275.76 533.18,-242.15 593.75,-212.38 612.17,-203.32 632.62,-193.05 649.32,-184.61"/>
<polygon fill="#9a32cd" stroke="#9a32cd" points="416.36,-294.05 408.83,-301.5 419.37,-300.37 416.36,-294.05"/>
</a>
</g>
<text text-anchor="middle" x="546.12" y="-259.62" font-family="Helvetica,sans-Serif" font-size="10.00" fill="grey"> active_inequalities</text>
</g>
<!-- Node13 -->
<g id="Node000013" class="node">
<title>Node13</title>
<g id="a_Node000013"><a xlink:title=" ">
<polygon fill="white" stroke="#666666" points="191.5,-373.88 15.75,-373.88 15.75,-314.88 191.5,-314.88 191.5,-373.88"/>
<text text-anchor="start" x="23.75" y="-360.38" font-family="Helvetica,sans-Serif" font-size="10.00">meta::if_t&lt; mem::CopyAvailable</text>
<text text-anchor="start" x="23.75" y="-347.62" font-family="Helvetica,sans-Serif" font-size="10.00">For&lt;bool &gt;::value ==mem::</text>
<text text-anchor="start" x="23.75" y="-334.88" font-family="Helvetica,sans-Serif" font-size="10.00">CopyAvailable::no, _detail</text>
<text text-anchor="middle" x="103.62" y="-322.12" font-family="Helvetica,sans-Serif" font-size="10.00">::NoCopy, _detail::Empty &gt;</text>
</a>
</g>
</g>
<!-- Node13&#45;&gt;Node12 -->
<g id="edge15_Node000012_Node000013" class="edge">
<title>Node13&#45;&gt;Node12</title>
<g id="a_edge15_Node000012_Node000013"><a xlink:title=" ">
<path fill="none" stroke="#8b1a1a" d="M203.26,-335.05C242.8,-331.32 286.63,-327.17 319.3,-324.08"/>
<polygon fill="#8b1a1a" stroke="#8b1a1a" points="203.1,-331.55 193.47,-335.98 203.76,-338.52 203.1,-331.55"/>
</a>
</g>
</g>
<!-- Node14 -->
<g id="Node000014" class="node">
<title>Node14</title>
<g id="a_Node000014"><a xlink:href="structproxsuite_1_1linalg_1_1veg_1_1__detail_1_1__collections_1_1VecImpl.html" target="_top" xlink:title=" ">
<polygon fill="white" stroke="#666666" points="183.62,-296.5 23.62,-296.5 23.62,-250.25 183.62,-250.25 183.62,-296.5"/>
<text text-anchor="start" x="31.62" y="-283" font-family="Helvetica,sans-Serif" font-size="10.00">proxsuite::linalg::</text>
<text text-anchor="start" x="31.62" y="-270.25" font-family="Helvetica,sans-Serif" font-size="10.00">veg::_detail::_collections</text>
<text text-anchor="middle" x="103.62" y="-257.5" font-family="Helvetica,sans-Serif" font-size="10.00">::VecImpl&lt; T, A, Dtor, Copy &gt;</text>
</a>
</g>
</g>
<!-- Node14&#45;&gt;Node12 -->
<g id="edge16_Node000012_Node000014" class="edge">
<title>Node14&#45;&gt;Node12</title>
<g id="a_edge16_Node000012_Node000014"><a xlink:title=" ">
<path fill="none" stroke="#63b8ff" d="M195.25,-289.14C236.81,-296.36 284.48,-304.65 319.38,-310.72"/>
<polygon fill="#63b8ff" stroke="#63b8ff" points="195.93,-285.7 185.47,-287.44 194.73,-292.6 195.93,-285.7"/>
</a>
</g>
</g>
<!-- Node15 -->
<g id="Node000015" class="node">
<title>Node15</title>
<g id="a_Node000015"><a xlink:title=" ">
<polygon fill="white" stroke="#666666" points="389.38,-20.75 350.88,-20.75 350.88,0 389.38,0 389.38,-20.75"/>
<text text-anchor="middle" x="370.12" y="-7.25" font-family="Helvetica,sans-Serif" font-size="10.00">isize</text>
</a>
</g>
</g>
<!-- Node15&#45;&gt;Node1 -->
<g id="edge17_Node000001_Node000015" class="edge">
<title>Node15&#45;&gt;Node1</title>
<g id="a_edge17_Node000001_Node000015"><a xlink:title=" ">
<path fill="none" stroke="#9a32cd" stroke-dasharray="5,2" d="M401.07,-13.73C423.34,-16.73 454.29,-21.97 480.5,-30.38 533.47,-47.35 547.72,-52.41 593.75,-83.62 622.63,-103.21 651.24,-132.07 668.07,-150.29"/>
<polygon fill="#9a32cd" stroke="#9a32cd" points="401.53,-10.26 391.17,-12.47 400.66,-17.2 401.53,-10.26"/>
</a>
</g>
<text text-anchor="middle" x="546.12" y="-86.62" font-family="Helvetica,sans-Serif" font-size="10.00" fill="grey"> lnnz</text>
</g>
</g>
</svg>
