<?xml version="1.0" encoding="UTF-8" standalone="no"?>
<!DOCTYPE svg PUBLIC "-//W3C//DTD SVG 1.1//EN"
 "http://www.w3.org/Graphics/SVG/1.1/DTD/svg11.dtd">
<!-- Generated by graphviz version 8.0.4 (20230426.1303)
 -->
<!-- Title: proxsuite::linalg::veg::cpo::is_trivially_relocatable&lt; Vec&lt; T, A &gt; &gt; Pages: 1 -->
<svg width="553pt" height="105pt"
 viewBox="0.00 0.00 553.25 105.25" xmlns="http://www.w3.org/2000/svg" xmlns:xlink="http://www.w3.org/1999/xlink">
<g id="graph0" class="graph" transform="scale(1 1) rotate(0) translate(4 101.25)">
<title>proxsuite::linalg::veg::cpo::is_trivially_relocatable&lt; Vec&lt; T, A &gt; &gt;</title>
<!-- Node1 -->
<g id="node1" class="node">
<title>Node1</title>
<g id="a_node1"><a xlink:title=" ">
<polygon fill="#999999" stroke="#666666" points="545.25,-71.75 388.25,-71.75 388.25,-25.5 545.25,-25.5 545.25,-71.75"/>
<text text-anchor="start" x="396.25" y="-58.25" font-family="Helvetica,sans-Serif" font-size="10.00">proxsuite::linalg::</text>
<text text-anchor="start" x="396.25" y="-45.5" font-family="Helvetica,sans-Serif" font-size="10.00">veg::cpo::is_trivially</text>
<text text-anchor="middle" x="466.75" y="-32.75" font-family="Helvetica,sans-Serif" font-size="10.00">_relocatable&lt; Vec&lt; T, A &gt; &gt;</text>
</a>
</g>
</g>
<!-- Node2 -->
<g id="node2" class="node">
<title>Node2</title>
<g id="a_node2"><a xlink:href="structproxsuite_1_1linalg_1_1veg_1_1cpo_1_1is__trivially__relocatable.html" target="_top" xlink:title=" ">
<polygon fill="white" stroke="#666666" points="352.25,-71.75 238,-71.75 238,-25.5 352.25,-25.5 352.25,-71.75"/>
<text text-anchor="start" x="246" y="-58.25" font-family="Helvetica,sans-Serif" font-size="10.00">proxsuite::linalg::</text>
<text text-anchor="start" x="246" y="-45.5" font-family="Helvetica,sans-Serif" font-size="10.00">veg::cpo::is_trivially</text>
<text text-anchor="middle" x="295.12" y="-32.75" font-family="Helvetica,sans-Serif" font-size="10.00">_relocatable&lt; A &gt;</text>
</a>
</g>
</g>
<!-- Node2&#45;&gt;Node1 -->
<g id="edge1" class="edge">
<title>Node2&#45;&gt;Node1</title>
<path fill="none" stroke="#63b8ff" d="M363.37,-48.62C371.39,-48.62 379.62,-48.62 387.77,-48.62"/>
<polygon fill="#63b8ff" stroke="#63b8ff" points="363.61,-45.13 353.61,-48.62 363.61,-52.13 363.61,-45.13"/>
</g>
<!-- Node3 -->
<g id="node3" class="node">
<title>Node3</title>
<g id="a_node3"><a xlink:title=" ">
<polygon fill="white" stroke="#666666" points="202,-97.25 0,-97.25 0,0 202,0 202,-97.25"/>
<text text-anchor="start" x="8" y="-83.75" font-family="Helvetica,sans-Serif" font-size="10.00">meta::if_t&lt; VEG_CONCEPT</text>
<text text-anchor="start" x="8" y="-71" font-family="Helvetica,sans-Serif" font-size="10.00">(trivially_copyable&lt; A</text>
<text text-anchor="start" x="8" y="-58.25" font-family="Helvetica,sans-Serif" font-size="10.00"> &#160;&gt;) &amp;&amp;VEG_CONCEPT(trivially</text>
<text text-anchor="start" x="8" y="-45.5" font-family="Helvetica,sans-Serif" font-size="10.00">_move_constructible&lt; A &#160;&gt;),</text>
<text text-anchor="start" x="8" y="-32.75" font-family="Helvetica,sans-Serif" font-size="10.00"> meta::true_type, _detail::</text>
<text text-anchor="start" x="8" y="-20" font-family="Helvetica,sans-Serif" font-size="10.00">_cpo::extract_members_deduce</text>
<text text-anchor="middle" x="101" y="-7.25" font-family="Helvetica,sans-Serif" font-size="10.00">_trait&lt; is_trivially_relocatable, A &#160;&gt; &gt;</text>
</a>
</g>
</g>
<!-- Node3&#45;&gt;Node2 -->
<g id="edge2" class="edge">
<title>Node3&#45;&gt;Node2</title>
<path fill="none" stroke="#63b8ff" d="M213.02,-48.62C221.44,-48.62 229.71,-48.62 237.55,-48.62"/>
<polygon fill="#63b8ff" stroke="#63b8ff" points="213.28,-45.13 203.28,-48.62 213.28,-52.13 213.28,-45.13"/>
</g>
</g>
</svg>
