<?xml version="1.0" encoding="UTF-8" standalone="no"?>
<!DOCTYPE svg PUBLIC "-//W3C//DTD SVG 1.1//EN"
 "http://www.w3.org/Graphics/SVG/1.1/DTD/svg11.dtd">
<!-- Generated by graphviz version 12.2.1 (20250203.1708)
 -->
<!-- Title: tl::detail::optional_move_assign_base&lt; T, bool &gt; Pages: 1 -->
<svg width="1141pt" height="133pt"
 viewBox="0.00 0.00 1140.75 132.50" xmlns="http://www.w3.org/2000/svg" xmlns:xlink="http://www.w3.org/1999/xlink">
<g id="graph0" class="graph" transform="scale(1 1) rotate(0) translate(4 128.5)">
<title>tl::detail::optional_move_assign_base&lt; T, bool &gt;</title>
<!-- Node1 -->
<g id="Node000001" class="node">
<title>Node1</title>
<g id="a_Node000001"><a xlink:title=" ">
<polygon fill="#999999" stroke="#666666" points="978,-72.5 843.5,-72.5 843.5,-26.25 978,-26.25 978,-72.5"/>
<text text-anchor="start" x="851.5" y="-59" font-family="Helvetica,sans-Serif" font-size="10.00">tl::detail::optional</text>
<text text-anchor="start" x="851.5" y="-46.25" font-family="Helvetica,sans-Serif" font-size="10.00">_move_assign_base&lt; T,</text>
<text text-anchor="middle" x="910.75" y="-33.5" font-family="Helvetica,sans-Serif" font-size="10.00"> bool &gt;</text>
</a>
</g>
</g>
<!-- Node7 -->
<g id="Node000007" class="node">
<title>Node7</title>
<g id="a_Node000007"><a xlink:href="classtl_1_1optional.html" target="_top" xlink:title=" ">
<polygon fill="white" stroke="#666666" points="1132.75,-124.5 1014,-124.5 1014,-78.25 1132.75,-78.25 1132.75,-124.5"/>
<text text-anchor="start" x="1022" y="-111" font-family="Helvetica,sans-Serif" font-size="10.00">tl::optional&lt; fixup</text>
<text text-anchor="start" x="1022" y="-98.25" font-family="Helvetica,sans-Serif" font-size="10.00">_void&lt; invoke_result</text>
<text text-anchor="middle" x="1073.38" y="-85.5" font-family="Helvetica,sans-Serif" font-size="10.00">_t&lt; F, U &gt; &gt; &gt;</text>
</a>
</g>
</g>
<!-- Node1&#45;&gt;Node7 -->
<g id="edge6_Node000001_Node000007" class="edge">
<title>Node1&#45;&gt;Node7</title>
<g id="a_edge6_Node000001_Node000007"><a xlink:title=" ">
<path fill="none" stroke="#8b1a1a" d="M989.19,-74.45C997.38,-77.1 1005.61,-79.76 1013.54,-82.33"/>
<polygon fill="#8b1a1a" stroke="#8b1a1a" points="990.51,-71.19 979.91,-71.44 988.35,-77.85 990.51,-71.19"/>
</a>
</g>
</g>
<!-- Node8 -->
<g id="Node000008" class="node">
<title>Node8</title>
<g id="a_Node000008"><a xlink:href="classtl_1_1optional_3_01T_01_6_01_4.html" target="_top" xlink:title=" ">
<polygon fill="white" stroke="#666666" points="1127.12,-59.75 1019.62,-59.75 1019.62,-39 1127.12,-39 1127.12,-59.75"/>
<text text-anchor="middle" x="1073.38" y="-46.25" font-family="Helvetica,sans-Serif" font-size="10.00">tl::optional&lt; T &amp; &gt;</text>
</a>
</g>
</g>
<!-- Node1&#45;&gt;Node8 -->
<g id="edge7_Node000001_Node000008" class="edge">
<title>Node1&#45;&gt;Node8</title>
<g id="a_edge7_Node000001_Node000008"><a xlink:title=" ">
<path fill="none" stroke="#8b1a1a" d="M989.73,-49.38C999.75,-49.38 1009.82,-49.38 1019.31,-49.38"/>
<polygon fill="#8b1a1a" stroke="#8b1a1a" points="989.99,-45.88 979.99,-49.38 989.99,-52.88 989.99,-45.88"/>
</a>
</g>
</g>
<!-- Node9 -->
<g id="Node000009" class="node">
<title>Node9</title>
<g id="a_Node000009"><a xlink:href="classtl_1_1optional.html" target="_top" xlink:title=" ">
<polygon fill="white" stroke="#666666" points="1121.88,-20.75 1024.88,-20.75 1024.88,0 1121.88,0 1121.88,-20.75"/>
<text text-anchor="middle" x="1073.38" y="-7.25" font-family="Helvetica,sans-Serif" font-size="10.00">tl::optional&lt; T &gt;</text>
</a>
</g>
</g>
<!-- Node1&#45;&gt;Node9 -->
<g id="edge8_Node000001_Node000009" class="edge">
<title>Node1&#45;&gt;Node9</title>
<g id="a_edge8_Node000001_Node000009"><a xlink:title=" ">
<path fill="none" stroke="#8b1a1a" d="M989.53,-30.49C1002.76,-27.28 1016.08,-24.04 1028.05,-21.14"/>
<polygon fill="#8b1a1a" stroke="#8b1a1a" points="988.84,-27.06 979.94,-32.82 990.49,-33.86 988.84,-27.06"/>
</a>
</g>
</g>
<!-- Node2 -->
<g id="Node000002" class="node">
<title>Node2</title>
<g id="a_Node000002"><a xlink:href="structtl_1_1detail_1_1optional__copy__assign__base.html" target="_top" xlink:title=" ">
<polygon fill="white" stroke="#666666" points="807.5,-72.5 677.5,-72.5 677.5,-26.25 807.5,-26.25 807.5,-72.5"/>
<text text-anchor="start" x="685.5" y="-59" font-family="Helvetica,sans-Serif" font-size="10.00">tl::detail::optional</text>
<text text-anchor="start" x="685.5" y="-46.25" font-family="Helvetica,sans-Serif" font-size="10.00">_copy_assign_base&lt; T,</text>
<text text-anchor="middle" x="742.5" y="-33.5" font-family="Helvetica,sans-Serif" font-size="10.00"> bool &gt;</text>
</a>
</g>
</g>
<!-- Node2&#45;&gt;Node1 -->
<g id="edge1_Node000001_Node000002" class="edge">
<title>Node2&#45;&gt;Node1</title>
<g id="a_edge1_Node000001_Node000002"><a xlink:title=" ">
<path fill="none" stroke="#63b8ff" d="M819.05,-49.38C827.1,-49.38 835.24,-49.38 843.17,-49.38"/>
<polygon fill="#63b8ff" stroke="#63b8ff" points="819.29,-45.88 809.29,-49.38 819.29,-52.88 819.29,-45.88"/>
</a>
</g>
</g>
<!-- Node3 -->
<g id="Node000003" class="node">
<title>Node3</title>
<g id="a_Node000003"><a xlink:href="structtl_1_1detail_1_1optional__move__base.html" target="_top" xlink:title=" ">
<polygon fill="white" stroke="#666666" points="641.5,-66.12 508.5,-66.12 508.5,-32.62 641.5,-32.62 641.5,-66.12"/>
<text text-anchor="start" x="516.5" y="-52.62" font-family="Helvetica,sans-Serif" font-size="10.00">tl::detail::optional</text>
<text text-anchor="middle" x="575" y="-39.88" font-family="Helvetica,sans-Serif" font-size="10.00">_move_base&lt; T, bool &gt;</text>
</a>
</g>
</g>
<!-- Node3&#45;&gt;Node2 -->
<g id="edge2_Node000002_Node000003" class="edge">
<title>Node3&#45;&gt;Node2</title>
<g id="a_edge2_Node000002_Node000003"><a xlink:title=" ">
<path fill="none" stroke="#63b8ff" d="M653.17,-49.38C661.21,-49.38 669.32,-49.38 677.19,-49.38"/>
<polygon fill="#63b8ff" stroke="#63b8ff" points="653.4,-45.88 643.4,-49.38 653.4,-52.88 653.4,-45.88"/>
</a>
</g>
</g>
<!-- Node4 -->
<g id="Node000004" class="node">
<title>Node4</title>
<g id="a_Node000004"><a xlink:href="structtl_1_1detail_1_1optional__copy__base.html" target="_top" xlink:title=" ">
<polygon fill="white" stroke="#666666" points="472.5,-66.12 344,-66.12 344,-32.62 472.5,-32.62 472.5,-66.12"/>
<text text-anchor="start" x="352" y="-52.62" font-family="Helvetica,sans-Serif" font-size="10.00">tl::detail::optional</text>
<text text-anchor="middle" x="408.25" y="-39.88" font-family="Helvetica,sans-Serif" font-size="10.00">_copy_base&lt; T, bool &gt;</text>
</a>
</g>
</g>
<!-- Node4&#45;&gt;Node3 -->
<g id="edge3_Node000003_Node000004" class="edge">
<title>Node4&#45;&gt;Node3</title>
<g id="a_edge3_Node000003_Node000004"><a xlink:title=" ">
<path fill="none" stroke="#63b8ff" d="M484.4,-49.38C492.28,-49.38 500.25,-49.38 508.02,-49.38"/>
<polygon fill="#63b8ff" stroke="#63b8ff" points="484.46,-45.88 474.46,-49.38 484.46,-52.88 484.46,-45.88"/>
</a>
</g>
</g>
<!-- Node5 -->
<g id="Node000005" class="node">
<title>Node5</title>
<g id="a_Node000005"><a xlink:href="structtl_1_1detail_1_1optional__operations__base.html" target="_top" xlink:title=" ">
<polygon fill="white" stroke="#666666" points="308,-66.12 178,-66.12 178,-32.62 308,-32.62 308,-66.12"/>
<text text-anchor="start" x="186" y="-52.62" font-family="Helvetica,sans-Serif" font-size="10.00">tl::detail::optional</text>
<text text-anchor="middle" x="243" y="-39.88" font-family="Helvetica,sans-Serif" font-size="10.00">_operations_base&lt; T &gt;</text>
</a>
</g>
</g>
<!-- Node5&#45;&gt;Node4 -->
<g id="edge4_Node000004_Node000005" class="edge">
<title>Node5&#45;&gt;Node4</title>
<g id="a_edge4_Node000004_Node000005"><a xlink:title=" ">
<path fill="none" stroke="#63b8ff" d="M319.42,-49.38C327.52,-49.38 335.71,-49.38 343.65,-49.38"/>
<polygon fill="#63b8ff" stroke="#63b8ff" points="319.57,-45.88 309.57,-49.38 319.57,-52.88 319.57,-45.88"/>
</a>
</g>
</g>
<!-- Node6 -->
<g id="Node000006" class="node">
<title>Node6</title>
<g id="a_Node000006"><a xlink:href="structtl_1_1detail_1_1optional__storage__base.html" target="_top" xlink:title=" ">
<polygon fill="white" stroke="#666666" points="142,-66.12 0,-66.12 0,-32.62 142,-32.62 142,-66.12"/>
<text text-anchor="start" x="8" y="-52.62" font-family="Helvetica,sans-Serif" font-size="10.00">tl::detail::optional</text>
<text text-anchor="middle" x="71" y="-39.88" font-family="Helvetica,sans-Serif" font-size="10.00">_storage_base&lt; T, bool &gt;</text>
</a>
</g>
</g>
<!-- Node6&#45;&gt;Node5 -->
<g id="edge5_Node000005_Node000006" class="edge">
<title>Node6&#45;&gt;Node5</title>
<g id="a_edge5_Node000005_Node000006"><a xlink:title=" ">
<path fill="none" stroke="#63b8ff" d="M153.55,-49.38C161.68,-49.38 169.85,-49.38 177.76,-49.38"/>
<polygon fill="#63b8ff" stroke="#63b8ff" points="153.64,-45.88 143.64,-49.38 153.64,-52.88 153.64,-45.88"/>
</a>
</g>
</g>
</g>
</svg>
