<?xml version="1.0" encoding="UTF-8" standalone="no"?>
<!DOCTYPE svg PUBLIC "-//W3C//DTD SVG 1.1//EN"
 "http://www.w3.org/Graphics/SVG/1.1/DTD/svg11.dtd">
<!-- Generated by graphviz version 8.1.0 (20230707.2238)
 -->
<!-- Title: tl::detail::optional_operations_base&lt; T &gt; Pages: 1 -->
<svg width="200pt" height="207pt"
 viewBox="0.00 0.00 200.38 207.00" xmlns="http://www.w3.org/2000/svg" xmlns:xlink="http://www.w3.org/1999/xlink">
<g id="graph0" class="graph" transform="scale(1 1) rotate(0) translate(4 203)">
<title>tl::detail::optional_operations_base&lt; T &gt;</title>
<!-- Node1 -->
<g id="Node000001" class="node">
<title>Node1</title>
<g id="a_Node000001"><a xlink:title=" ">
<polygon fill="#999999" stroke="#666666" points="179.38,-33.5 49.38,-33.5 49.38,0 179.38,0 179.38,-33.5"/>
<text text-anchor="start" x="57.38" y="-20" font-family="Helvetica,sans-Serif" font-size="10.00">tl::detail::optional</text>
<text text-anchor="middle" x="114.38" y="-7.25" font-family="Helvetica,sans-Serif" font-size="10.00">_operations_base&lt; T &gt;</text>
</a>
</g>
</g>
<!-- Node2 -->
<g id="Node000002" class="node">
<title>Node2</title>
<g id="a_Node000002"><a xlink:href="structtl_1_1detail_1_1optional__storage__base.html" target="_top" xlink:title=" ">
<polygon fill="white" stroke="#666666" points="185.38,-104 43.38,-104 43.38,-70.5 185.38,-70.5 185.38,-104"/>
<text text-anchor="start" x="51.38" y="-90.5" font-family="Helvetica,sans-Serif" font-size="10.00">tl::detail::optional</text>
<text text-anchor="middle" x="114.38" y="-77.75" font-family="Helvetica,sans-Serif" font-size="10.00">_storage_base&lt; T, bool &gt;</text>
</a>
</g>
</g>
<!-- Node2&#45;&gt;Node1 -->
<g id="edge1_Node000001_Node000002" class="edge">
<title>Node2&#45;&gt;Node1</title>
<g id="a_edge1_Node000001_Node000002"><a xlink:title=" ">
<path fill="none" stroke="#63b8ff" d="M114.38,-59.28C114.38,-50.68 114.38,-41.44 114.38,-33.87"/>
<polygon fill="#63b8ff" stroke="#63b8ff" points="110.88,-59.02 114.38,-69.02 117.88,-59.02 110.88,-59.02"/>
</a>
</g>
</g>
<!-- Node3 -->
<g id="Node000003" class="node">
<title>Node3</title>
<g id="a_Node000003"><a xlink:href="structtl_1_1detail_1_1optional__storage__base_1_1dummy.html" target="_top" xlink:title=" ">
<polygon fill="white" stroke="#666666" points="130.75,-199 0,-199 0,-152.75 130.75,-152.75 130.75,-199"/>
<text text-anchor="start" x="8" y="-185.5" font-family="Helvetica,sans-Serif" font-size="10.00">tl::detail::optional</text>
<text text-anchor="start" x="8" y="-172.75" font-family="Helvetica,sans-Serif" font-size="10.00">_storage_base&lt; T, bool</text>
<text text-anchor="middle" x="65.38" y="-160" font-family="Helvetica,sans-Serif" font-size="10.00"> &gt;::dummy</text>
</a>
</g>
</g>
<!-- Node3&#45;&gt;Node2 -->
<g id="edge2_Node000002_Node000003" class="edge">
<title>Node3&#45;&gt;Node2</title>
<g id="a_edge2_Node000002_Node000003"><a xlink:title=" ">
<path fill="none" stroke="#9a32cd" stroke-dasharray="5,2" d="M75.95,-142.55C78.76,-135.57 82.09,-128.37 85.88,-122 89.55,-115.8 94.37,-109.6 99,-104.24"/>
<polygon fill="#9a32cd" stroke="#9a32cd" points="72.45,-140.92 72.2,-151.51 79,-143.38 72.45,-140.92"/>
</a>
</g>
<text text-anchor="middle" x="113.12" y="-125.25" font-family="Helvetica,sans-Serif" font-size="10.00" fill="grey"> m_dummy</text>
</g>
<!-- Node4 -->
<g id="Node000004" class="node">
<title>Node4</title>
<g id="a_Node000004"><a xlink:title=" ">
<polygon fill="white" stroke="#666666" points="177.78,-186.25 148.97,-186.25 148.97,-165.5 177.78,-165.5 177.78,-186.25"/>
<text text-anchor="middle" x="163.38" y="-172.75" font-family="Helvetica,sans-Serif" font-size="10.00">T</text>
</a>
</g>
</g>
<!-- Node4&#45;&gt;Node2 -->
<g id="edge3_Node000002_Node000004" class="edge">
<title>Node4&#45;&gt;Node2</title>
<g id="a_edge3_Node000002_Node000004"><a xlink:title=" ">
<path fill="none" stroke="#9a32cd" stroke-dasharray="5,2" d="M156.55,-154.81C152.72,-144.65 147.48,-132.32 141.38,-122 137.78,-115.93 133.19,-109.77 128.81,-104.4"/>
<polygon fill="#9a32cd" stroke="#9a32cd" points="153.58,-155.9 160.25,-164.13 160.17,-153.54 153.58,-155.9"/>
</a>
</g>
<text text-anchor="middle" x="169.88" y="-125.25" font-family="Helvetica,sans-Serif" font-size="10.00" fill="grey"> m_value</text>
</g>
</g>
</svg>
