<?xml version="1.0" encoding="UTF-8" standalone="no"?>
<!DOCTYPE svg PUBLIC "-//W3C//DTD SVG 1.1//EN"
 "http://www.w3.org/Graphics/SVG/1.1/DTD/svg11.dtd">
<!-- Generated by graphviz version 12.0.0 (20240803.0821)
 -->
<!-- Title: tl::detail::optional_copy_base&lt; T, bool &gt; Pages: 1 -->
<svg width="200pt" height="278pt"
 viewBox="0.00 0.00 200.38 277.50" xmlns="http://www.w3.org/2000/svg" xmlns:xlink="http://www.w3.org/1999/xlink">
<g id="graph0" class="graph" transform="scale(1 1) rotate(0) translate(4 273.5)">
<title>tl::detail::optional_copy_base&lt; T, bool &gt;</title>
<!-- Node1 -->
<g id="Node000001" class="node">
<title>Node1</title>
<g id="a_Node000001"><a xlink:title=" ">
<polygon fill="#999999" stroke="#666666" points="178.62,-33.5 50.12,-33.5 50.12,0 178.62,0 178.62,-33.5"/>
<text text-anchor="start" x="58.12" y="-20" font-family="Helvetica,sans-Serif" font-size="10.00">tl::detail::optional</text>
<text text-anchor="middle" x="114.38" y="-7.25" font-family="Helvetica,sans-Serif" font-size="10.00">_copy_base&lt; T, bool &gt;</text>
</a>
</g>
</g>
<!-- Node2 -->
<g id="Node000002" class="node">
<title>Node2</title>
<g id="a_Node000002"><a xlink:href="structtl_1_1detail_1_1optional__operations__base.html" target="_top" xlink:title=" ">
<polygon fill="white" stroke="#666666" points="179.38,-104 49.38,-104 49.38,-70.5 179.38,-70.5 179.38,-104"/>
<text text-anchor="start" x="57.38" y="-90.5" font-family="Helvetica,sans-Serif" font-size="10.00">tl::detail::optional</text>
<text text-anchor="middle" x="114.38" y="-77.75" font-family="Helvetica,sans-Serif" font-size="10.00">_operations_base&lt; T &gt;</text>
</a>
</g>
</g>
<!-- Node2&#45;&gt;Node1 -->
<g id="edge1_Node000001_Node000002" class="edge">
<title>Node2&#45;&gt;Node1</title>
<g id="a_edge1_Node000001_Node000002"><a xlink:title=" ">
<path fill="none" stroke="#63b8ff" d="M114.38,-58.7C114.38,-50.27 114.38,-41.27 114.38,-33.87"/>
<polygon fill="#63b8ff" stroke="#63b8ff" points="110.88,-58.5 114.38,-68.5 117.88,-58.5 110.88,-58.5"/>
</a>
</g>
</g>
<!-- Node3 -->
<g id="Node000003" class="node">
<title>Node3</title>
<g id="a_Node000003"><a xlink:href="structtl_1_1detail_1_1optional__storage__base.html" target="_top" xlink:title=" ">
<polygon fill="white" stroke="#666666" points="185.38,-174.5 43.38,-174.5 43.38,-141 185.38,-141 185.38,-174.5"/>
<text text-anchor="start" x="51.38" y="-161" font-family="Helvetica,sans-Serif" font-size="10.00">tl::detail::optional</text>
<text text-anchor="middle" x="114.38" y="-148.25" font-family="Helvetica,sans-Serif" font-size="10.00">_storage_base&lt; T, bool &gt;</text>
</a>
</g>
</g>
<!-- Node3&#45;&gt;Node2 -->
<g id="edge2_Node000002_Node000003" class="edge">
<title>Node3&#45;&gt;Node2</title>
<g id="a_edge2_Node000002_Node000003"><a xlink:title=" ">
<path fill="none" stroke="#63b8ff" d="M114.38,-129.2C114.38,-120.77 114.38,-111.77 114.38,-104.37"/>
<polygon fill="#63b8ff" stroke="#63b8ff" points="110.88,-129 114.38,-139 117.88,-129 110.88,-129"/>
</a>
</g>
</g>
<!-- Node4 -->
<g id="Node000004" class="node">
<title>Node4</title>
<g id="a_Node000004"><a xlink:href="structtl_1_1detail_1_1optional__storage__base_1_1dummy.html" target="_top" xlink:title=" ">
<polygon fill="white" stroke="#666666" points="130.75,-269.5 0,-269.5 0,-223.25 130.75,-223.25 130.75,-269.5"/>
<text text-anchor="start" x="8" y="-256" font-family="Helvetica,sans-Serif" font-size="10.00">tl::detail::optional</text>
<text text-anchor="start" x="8" y="-243.25" font-family="Helvetica,sans-Serif" font-size="10.00">_storage_base&lt; T, bool</text>
<text text-anchor="middle" x="65.38" y="-230.5" font-family="Helvetica,sans-Serif" font-size="10.00"> &gt;::dummy</text>
</a>
</g>
</g>
<!-- Node4&#45;&gt;Node3 -->
<g id="edge3_Node000003_Node000004" class="edge">
<title>Node4&#45;&gt;Node3</title>
<g id="a_edge3_Node000003_Node000004"><a xlink:title=" ">
<path fill="none" stroke="#9a32cd" stroke-dasharray="5,2" d="M76.15,-212.56C78.92,-205.73 82.18,-198.72 85.88,-192.5 89.55,-186.3 94.37,-180.1 99,-174.74"/>
<polygon fill="#9a32cd" stroke="#9a32cd" points="72.99,-211 72.73,-221.59 79.54,-213.48 72.99,-211"/>
</a>
</g>
<text text-anchor="middle" x="113.12" y="-195.75" font-family="Helvetica,sans-Serif" font-size="10.00" fill="grey"> m_dummy</text>
</g>
<!-- Node5 -->
<g id="Node000005" class="node">
<title>Node5</title>
<g id="a_Node000005"><a xlink:title=" ">
<polygon fill="white" stroke="#666666" points="177.78,-256.75 148.97,-256.75 148.97,-236 177.78,-236 177.78,-256.75"/>
<text text-anchor="middle" x="163.38" y="-243.25" font-family="Helvetica,sans-Serif" font-size="10.00">T</text>
</a>
</g>
</g>
<!-- Node5&#45;&gt;Node3 -->
<g id="edge4_Node000003_Node000005" class="edge">
<title>Node5&#45;&gt;Node3</title>
<g id="a_edge4_Node000003_Node000005"><a xlink:title=" ">
<path fill="none" stroke="#9a32cd" stroke-dasharray="5,2" d="M156.43,-224.98C152.61,-214.89 147.42,-202.71 141.38,-192.5 137.78,-186.43 133.19,-180.27 128.81,-174.9"/>
<polygon fill="#9a32cd" stroke="#9a32cd" points="153.06,-225.98 159.74,-234.21 159.65,-223.61 153.06,-225.98"/>
</a>
</g>
<text text-anchor="middle" x="169.88" y="-195.75" font-family="Helvetica,sans-Serif" font-size="10.00" fill="grey"> m_value</text>
</g>
</g>
</svg>
