<?xml version="1.0" encoding="UTF-8" standalone="no"?>
<!DOCTYPE svg PUBLIC "-//W3C//DTD SVG 1.1//EN"
 "http://www.w3.org/Graphics/SVG/1.1/DTD/svg11.dtd">
<!-- Generated by graphviz version 5.0.0 (20220707.2338)
 -->
<!-- Title: proxsuite::linalg::veg::_detail::_cpo::extract_members_deduce_trait&lt; Trait, T &gt; Pages: 1 -->
<svg width="483pt" height="83pt"
 viewBox="0.00 0.00 483.00 83.00" xmlns="http://www.w3.org/2000/svg" xmlns:xlink="http://www.w3.org/1999/xlink">
<g id="graph0" class="graph" transform="scale(1 1) rotate(0) translate(4 79)">
<title>proxsuite::linalg::veg::_detail::_cpo::extract_members_deduce_trait&lt; Trait, T &gt;</title>
<!-- Node1 -->
<g id="node1" class="node">
<title>Node1</title>
<g id="a_node1"><a xlink:title=" ">
<polygon fill="#bfbfbf" stroke="black" points="332,-11.5 332,-63.5 475,-63.5 475,-11.5 332,-11.5"/>
<text text-anchor="start" x="340" y="-51.5" font-family="Helvetica,sans-Serif" font-size="10.00">proxsuite::linalg::</text>
<text text-anchor="start" x="340" y="-40.5" font-family="Helvetica,sans-Serif" font-size="10.00">veg::_detail::_cpo::</text>
<text text-anchor="start" x="340" y="-29.5" font-family="Helvetica,sans-Serif" font-size="10.00">extract_members_deduce</text>
<text text-anchor="middle" x="403.5" y="-18.5" font-family="Helvetica,sans-Serif" font-size="10.00">_trait&lt; Trait, T &gt;</text>
</a>
</g>
</g>
<!-- Node2 -->
<g id="node2" class="node">
<title>Node2</title>
<g id="a_node2"><a xlink:href="structproxsuite_1_1linalg_1_1veg_1_1__detail_1_1__cpo_1_1extract__members__deduce__trait__impl.html" target="_top" xlink:title=" ">
<polygon fill="none" stroke="black" points="135,-0.5 135,-74.5 296,-74.5 296,-0.5 135,-0.5"/>
<text text-anchor="start" x="143" y="-62.5" font-family="Helvetica,sans-Serif" font-size="10.00">proxsuite::linalg::</text>
<text text-anchor="start" x="143" y="-51.5" font-family="Helvetica,sans-Serif" font-size="10.00">veg::_detail::_cpo::</text>
<text text-anchor="start" x="143" y="-40.5" font-family="Helvetica,sans-Serif" font-size="10.00">extract_members_deduce</text>
<text text-anchor="start" x="143" y="-29.5" font-family="Helvetica,sans-Serif" font-size="10.00">_trait_impl&lt; _detail::member</text>
<text text-anchor="start" x="143" y="-18.5" font-family="Helvetica,sans-Serif" font-size="10.00">_extract_access&lt; T &gt;::value,</text>
<text text-anchor="middle" x="215.5" y="-7.5" font-family="Helvetica,sans-Serif" font-size="10.00"> Trait, T &gt;</text>
</a>
</g>
</g>
<!-- Node2&#45;&gt;Node1 -->
<g id="edge1" class="edge">
<title>Node2&#45;&gt;Node1</title>
<path fill="none" stroke="midnightblue" d="M306.23,-37.5C314.8,-37.5 323.42,-37.5 331.78,-37.5"/>
<polygon fill="midnightblue" stroke="midnightblue" points="306.19,-34 296.19,-37.5 306.19,-41 306.19,-34"/>
</g>
<!-- Node3 -->
<g id="node3" class="node">
<title>Node3</title>
<g id="a_node3"><a xlink:href="structproxsuite_1_1linalg_1_1veg_1_1meta_1_1constant.html" target="_top" xlink:title=" ">
<polygon fill="none" stroke="black" points="0,-28 0,-47 99,-47 99,-28 0,-28"/>
<text text-anchor="middle" x="49.5" y="-35" font-family="Helvetica,sans-Serif" font-size="10.00">meta::false_type</text>
</a>
</g>
</g>
<!-- Node3&#45;&gt;Node2 -->
<g id="edge2" class="edge">
<title>Node3&#45;&gt;Node2</title>
<path fill="none" stroke="midnightblue" d="M109.51,-37.5C117.76,-37.5 126.35,-37.5 134.9,-37.5"/>
<polygon fill="midnightblue" stroke="midnightblue" points="109.26,-34 99.26,-37.5 109.26,-41 109.26,-34"/>
</g>
</g>
</svg>
