<?xml version="1.0" encoding="UTF-8" standalone="no"?>
<!DOCTYPE svg PUBLIC "-//W3C//DTD SVG 1.1//EN"
 "http://www.w3.org/Graphics/SVG/1.1/DTD/svg11.dtd">
<!-- Generated by graphviz version 11.0.0 (20240519.1550)
 -->
<!-- Title: proxsuite::proxqp::dense::BatchQP&lt; T &gt; Pages: 1 -->
<svg width="219pt" height="193pt"
 viewBox="0.00 0.00 218.62 193.25" xmlns="http://www.w3.org/2000/svg" xmlns:xlink="http://www.w3.org/1999/xlink">
<g id="graph0" class="graph" transform="scale(1 1) rotate(0) translate(4 189.25)">
<title>proxsuite::proxqp::dense::BatchQP&lt; T &gt;</title>
<!-- Node1 -->
<g id="Node000001" class="node">
<title>Node1</title>
<g id="a_Node000001"><a xlink:title=" ">
<polygon fill="#999999" stroke="#666666" points="210.62,-33.5 89.62,-33.5 89.62,0 210.62,0 210.62,-33.5"/>
<text text-anchor="start" x="97.62" y="-20" font-family="Helvetica,sans-Serif" font-size="10.00">proxsuite::proxqp::</text>
<text text-anchor="middle" x="150.12" y="-7.25" font-family="Helvetica,sans-Serif" font-size="10.00">dense::BatchQP&lt; T &gt;</text>
</a>
</g>
</g>
<!-- Node2 -->
<g id="Node000002" class="node">
<title>Node2</title>
<g id="a_Node000002"><a xlink:title=" ">
<polygon fill="white" stroke="#666666" points="150.25,-115.75 0,-115.75 0,-82.25 150.25,-82.25 150.25,-115.75"/>
<text text-anchor="start" x="8" y="-102.25" font-family="Helvetica,sans-Serif" font-size="10.00">std::vector&lt; proxsuite</text>
<text text-anchor="middle" x="75.12" y="-89.5" font-family="Helvetica,sans-Serif" font-size="10.00">::proxqp::dense::QP&lt; T &gt; &gt;</text>
</a>
</g>
</g>
<!-- Node2&#45;&gt;Node1 -->
<g id="edge1_Node000001_Node000002" class="edge">
<title>Node2&#45;&gt;Node1</title>
<g id="a_edge1_Node000001_Node000002"><a xlink:title=" ">
<path fill="none" stroke="#9a32cd" stroke-dasharray="5,2" d="M92.94,-73.12C98.48,-65.9 104.81,-58.17 111.12,-51.5 116.91,-45.39 123.71,-39.21 129.99,-33.85"/>
<polygon fill="#9a32cd" stroke="#9a32cd" points="90.48,-70.55 87.29,-80.66 96.09,-74.75 90.48,-70.55"/>
</a>
</g>
<text text-anchor="middle" x="136.62" y="-54.75" font-family="Helvetica,sans-Serif" font-size="10.00" fill="grey"> qp_vector</text>
</g>
<!-- Node3 -->
<g id="Node000003" class="node">
<title>Node3</title>
<g id="a_Node000003"><a xlink:title=" ">
<polygon fill="white" stroke="#666666" points="89.53,-185.25 60.73,-185.25 60.73,-164.5 89.53,-164.5 89.53,-185.25"/>
<text text-anchor="middle" x="75.12" y="-171.75" font-family="Helvetica,sans-Serif" font-size="10.00">T</text>
</a>
</g>
</g>
<!-- Node3&#45;&gt;Node2 -->
<g id="edge2_Node000002_Node000003" class="edge">
<title>Node3&#45;&gt;Node2</title>
<g id="a_edge2_Node000002_Node000003"><a xlink:title=" ">
<path fill="none" stroke="#9a32cd" stroke-dasharray="5,2" d="M75.12,-152.88C75.12,-141.22 75.12,-126.94 75.12,-116.16"/>
<polygon fill="#9a32cd" stroke="#9a32cd" points="71.63,-152.7 75.13,-162.7 78.63,-152.7 71.63,-152.7"/>
</a>
</g>
<text text-anchor="middle" x="99.5" y="-137" font-family="Helvetica,sans-Serif" font-size="10.00" fill="grey"> elements</text>
</g>
<!-- Node4 -->
<g id="Node000004" class="node">
<title>Node4</title>
<g id="a_Node000004"><a xlink:title=" ">
<polygon fill="white" stroke="#666666" points="206.38,-109.38 167.88,-109.38 167.88,-88.62 206.38,-88.62 206.38,-109.38"/>
<text text-anchor="middle" x="187.12" y="-95.88" font-family="Helvetica,sans-Serif" font-size="10.00">isize</text>
</a>
</g>
</g>
<!-- Node4&#45;&gt;Node1 -->
<g id="edge3_Node000001_Node000004" class="edge">
<title>Node4&#45;&gt;Node1</title>
<g id="a_edge3_Node000001_Node000004"><a xlink:title=" ">
<path fill="none" stroke="#9a32cd" stroke-dasharray="5,2" d="M177.85,-77.88C171.56,-64.24 163.36,-46.45 157.51,-33.77"/>
<polygon fill="#9a32cd" stroke="#9a32cd" points="174.59,-79.17 181.95,-86.79 180.95,-76.24 174.59,-79.17"/>
</a>
</g>
<text text-anchor="middle" x="188.88" y="-54.75" font-family="Helvetica,sans-Serif" font-size="10.00" fill="grey"> m_size</text>
</g>
</g>
</svg>
