<?xml version="1.0" encoding="UTF-8" standalone="no"?>
<!DOCTYPE svg PUBLIC "-//W3C//DTD SVG 1.1//EN"
 "http://www.w3.org/Graphics/SVG/1.1/DTD/svg11.dtd">
<!-- Generated by graphviz version 6.0.2 (20221126.1951)
 -->
<!-- Title: proxsuite::proxqp::dense::preconditioner::RuizEquilibration&lt; T &gt; Pages: 1 -->
<svg width="219pt" height="294pt"
 viewBox="0.00 0.00 218.50 294.00" xmlns="http://www.w3.org/2000/svg" xmlns:xlink="http://www.w3.org/1999/xlink">
<g id="graph0" class="graph" transform="scale(1 1) rotate(0) translate(4 290)">
<title>proxsuite::proxqp::dense::preconditioner::RuizEquilibration&lt; T &gt;</title>
<!-- Node1 -->
<g id="node1" class="node">
<title>Node1</title>
<g id="a_node1"><a xlink:title=" ">
<polygon fill="#999999" stroke="#666666" points="140.5,-41 6.5,-41 6.5,0 140.5,0 140.5,-41"/>
<text text-anchor="start" x="14.5" y="-29" font-family="Helvetica,sans-Serif" font-size="10.00">proxsuite::proxqp::</text>
<text text-anchor="start" x="14.5" y="-18" font-family="Helvetica,sans-Serif" font-size="10.00">dense::preconditioner</text>
<text text-anchor="middle" x="73.5" y="-7" font-family="Helvetica,sans-Serif" font-size="10.00">::RuizEquilibration&lt; T &gt;</text>
</a>
</g>
</g>
<!-- Node2 -->
<g id="node2" class="node">
<title>Node2</title>
<g id="a_node2"><a xlink:title=" ">
<polygon fill="white" stroke="#666666" points="39,-107 0,-107 0,-88 39,-88 39,-107"/>
<text text-anchor="middle" x="19.5" y="-95" font-family="Helvetica,sans-Serif" font-size="10.00">isize</text>
</a>
</g>
</g>
<!-- Node2&#45;&gt;Node1 -->
<g id="edge1" class="edge">
<title>Node2&#45;&gt;Node1</title>
<path fill="none" stroke="#9a32cd" stroke-dasharray="5,2" d="M31.61,-79.68C39.82,-68.28 50.7,-53.17 59.31,-41.21"/>
<polygon fill="#9a32cd" stroke="#9a32cd" points="28.7,-77.74 25.69,-87.9 34.38,-81.83 28.7,-77.74"/>
<text text-anchor="middle" x="57.5" y="-62" font-family="Helvetica,sans-Serif" font-size="10.00"> dim</text>
</g>
<!-- Node3 -->
<g id="node3" class="node">
<title>Node3</title>
<g id="a_node3"><a xlink:title=" ">
<polygon fill="white" stroke="#666666" points="89.5,-107 57.5,-107 57.5,-88 89.5,-88 89.5,-107"/>
<text text-anchor="middle" x="73.5" y="-95" font-family="Helvetica,sans-Serif" font-size="10.00">i64</text>
</a>
</g>
</g>
<!-- Node3&#45;&gt;Node1 -->
<g id="edge2" class="edge">
<title>Node3&#45;&gt;Node1</title>
<path fill="none" stroke="#9a32cd" stroke-dasharray="5,2" d="M73.5,-77.61C73.5,-66.5 73.5,-52.46 73.5,-41.21"/>
<polygon fill="#9a32cd" stroke="#9a32cd" points="70,-77.9 73.5,-87.9 77,-77.9 70,-77.9"/>
<text text-anchor="middle" x="97" y="-62" font-family="Helvetica,sans-Serif" font-size="10.00"> max_iter</text>
</g>
<!-- Node4 -->
<g id="node4" class="node">
<title>Node4</title>
<g id="a_node4"><a xlink:title=" ">
<polygon fill="white" stroke="#666666" points="185.5,-107 107.5,-107 107.5,-88 185.5,-88 185.5,-107"/>
<text text-anchor="middle" x="146.5" y="-95" font-family="Helvetica,sans-Serif" font-size="10.00">std::ostream</text>
</a>
</g>
</g>
<!-- Node4&#45;&gt;Node1 -->
<g id="edge3" class="edge">
<title>Node4&#45;&gt;Node1</title>
<path fill="none" stroke="#9a32cd" stroke-dasharray="5,2" d="M137.01,-78.95C133,-72.33 127.98,-64.96 122.5,-59 116.63,-52.61 109.57,-46.51 102.65,-41.16"/>
<polygon fill="#9a32cd" stroke="#9a32cd" points="134.11,-80.92 142.11,-87.87 140.19,-77.45 134.11,-80.92"/>
<text text-anchor="middle" x="158" y="-62" font-family="Helvetica,sans-Serif" font-size="10.00"> logger_ptr</text>
</g>
<!-- Node5 -->
<g id="node5" class="node">
<title>Node5</title>
<g id="a_node5"><a xlink:title=" ">
<polygon fill="white" stroke="#666666" points="201,-174 92,-174 92,-144 201,-144 201,-174"/>
<text text-anchor="start" x="100" y="-162" font-family="Helvetica,sans-Serif" font-size="10.00">std::basic_ostream</text>
<text text-anchor="middle" x="146.5" y="-151" font-family="Helvetica,sans-Serif" font-size="10.00">&lt; Char &gt;</text>
</a>
</g>
</g>
<!-- Node5&#45;&gt;Node4 -->
<g id="edge4" class="edge">
<title>Node5&#45;&gt;Node4</title>
<path fill="none" stroke="#63b8ff" d="M146.5,-133.79C146.5,-124.36 146.5,-114.15 146.5,-107.16"/>
<polygon fill="#63b8ff" stroke="#63b8ff" points="143,-133.9 146.5,-143.9 150,-133.9 143,-133.9"/>
</g>
<!-- Node6 -->
<g id="node6" class="node">
<title>Node6</title>
<g id="a_node6"><a xlink:title=" ">
<polygon fill="white" stroke="#666666" points="210.5,-230 82.5,-230 82.5,-211 210.5,-211 210.5,-230"/>
<text text-anchor="middle" x="146.5" y="-218" font-family="Helvetica,sans-Serif" font-size="10.00">std::basic_ios&lt; Char &gt;</text>
</a>
</g>
</g>
<!-- Node6&#45;&gt;Node5 -->
<g id="edge5" class="edge">
<title>Node6&#45;&gt;Node5</title>
<path fill="none" stroke="#63b8ff" d="M146.5,-200.73C146.5,-192.09 146.5,-182 146.5,-174.02"/>
<polygon fill="#63b8ff" stroke="#63b8ff" points="143,-200.98 146.5,-210.98 150,-200.98 143,-200.98"/>
</g>
<!-- Node7 -->
<g id="node7" class="node">
<title>Node7</title>
<g id="a_node7"><a xlink:title=" ">
<polygon fill="white" stroke="#666666" points="186.5,-286 106.5,-286 106.5,-267 186.5,-267 186.5,-286"/>
<text text-anchor="middle" x="146.5" y="-274" font-family="Helvetica,sans-Serif" font-size="10.00">std::ios_base</text>
</a>
</g>
</g>
<!-- Node7&#45;&gt;Node6 -->
<g id="edge6" class="edge">
<title>Node7&#45;&gt;Node6</title>
<path fill="none" stroke="#63b8ff" d="M146.5,-256.3C146.5,-247.41 146.5,-237.28 146.5,-230.25"/>
<polygon fill="#63b8ff" stroke="#63b8ff" points="143,-256.58 146.5,-266.58 150,-256.58 143,-256.58"/>
</g>
</g>
</svg>
