<?xml version="1.0" encoding="UTF-8" standalone="no"?>
<!DOCTYPE svg PUBLIC "-//W3C//DTD SVG 1.1//EN"
 "http://www.w3.org/Graphics/SVG/1.1/DTD/svg11.dtd">
<!-- Generated by graphviz version 5.0.1 (20220821.0811)
 -->
<!-- Title: proxsuite::linalg::veg::_detail::_collections::CloneFn&lt; NoThrow, T, A, C &gt; Pages: 1 -->
<svg width="236pt" height="196pt"
 viewBox="0.00 0.00 236.00 196.00" xmlns="http://www.w3.org/2000/svg" xmlns:xlink="http://www.w3.org/1999/xlink">
<g id="graph0" class="graph" transform="scale(1 1) rotate(0) translate(4 192)">
<title>proxsuite::linalg::veg::_detail::_collections::CloneFn&lt; NoThrow, T, A, C &gt;</title>
<!-- Node1 -->
<g id="node1" class="node">
<title>Node1</title>
<g id="a_node1"><a xlink:title=" ">
<polygon fill="#bfbfbf" stroke="black" points="30.5,-0.5 30.5,-41.5 196.5,-41.5 196.5,-0.5 30.5,-0.5"/>
<text text-anchor="start" x="38.5" y="-29.5" font-family="Helvetica,sans-Serif" font-size="10.00">proxsuite::linalg::</text>
<text text-anchor="start" x="38.5" y="-18.5" font-family="Helvetica,sans-Serif" font-size="10.00">veg::_detail::_collections</text>
<text text-anchor="middle" x="113.5" y="-7.5" font-family="Helvetica,sans-Serif" font-size="10.00">::CloneFn&lt; NoThrow, T, A, C &gt;</text>
</a>
</g>
</g>
<!-- Node2 -->
<g id="node2" class="node">
<title>Node2</title>
<g id="a_node2"><a xlink:href="structproxsuite_1_1linalg_1_1veg_1_1RefMut.html" target="_top" xlink:title=" ">
<polygon fill="none" stroke="black" points="0,-89.5 0,-119.5 105,-119.5 105,-89.5 0,-89.5"/>
<text text-anchor="start" x="8" y="-107.5" font-family="Helvetica,sans-Serif" font-size="10.00">proxsuite::linalg::</text>
<text text-anchor="middle" x="52.5" y="-96.5" font-family="Helvetica,sans-Serif" font-size="10.00">veg::RefMut&lt; A &gt;</text>
</a>
</g>
</g>
<!-- Node2&#45;&gt;Node1 -->
<g id="edge1" class="edge">
<title>Node2&#45;&gt;Node1</title>
<path fill="none" stroke="#9a32cd" stroke-dasharray="5,2" d="M69.16,-81.24C78.46,-68.82 89.94,-53.48 98.88,-41.53"/>
<polygon fill="#9a32cd" stroke="#9a32cd" points="66.32,-79.2 63.13,-89.3 71.92,-83.4 66.32,-79.2"/>
<text text-anchor="middle" x="99" y="-63" font-family="Helvetica,sans-Serif" font-size="10.00"> alloc</text>
</g>
<!-- Node3 -->
<g id="node3" class="node">
<title>Node3</title>
<g id="a_node3"><a xlink:href="structproxsuite_1_1linalg_1_1veg_1_1cmp_1_1mut_1_1RefMutBase.html" target="_top" xlink:title=" ">
<polygon fill="none" stroke="black" points="37.5,-157.5 37.5,-187.5 189.5,-187.5 189.5,-157.5 37.5,-157.5"/>
<text text-anchor="start" x="45.5" y="-175.5" font-family="Helvetica,sans-Serif" font-size="10.00">proxsuite::linalg::</text>
<text text-anchor="middle" x="113.5" y="-164.5" font-family="Helvetica,sans-Serif" font-size="10.00">veg::cmp::mut::RefMutBase</text>
</a>
</g>
</g>
<!-- Node3&#45;&gt;Node2 -->
<g id="edge2" class="edge">
<title>Node3&#45;&gt;Node2</title>
<path fill="none" stroke="midnightblue" d="M93.35,-149.69C84.26,-139.86 73.78,-128.52 65.71,-119.79"/>
<polygon fill="midnightblue" stroke="midnightblue" points="90.91,-152.21 100.26,-157.18 96.05,-147.46 90.91,-152.21"/>
</g>
<!-- Node4 -->
<g id="node4" class="node">
<title>Node4</title>
<g id="a_node4"><a xlink:href="structproxsuite_1_1linalg_1_1veg_1_1RefMut.html" target="_top" xlink:title=" ">
<polygon fill="none" stroke="black" points="123,-89.5 123,-119.5 228,-119.5 228,-89.5 123,-89.5"/>
<text text-anchor="start" x="131" y="-107.5" font-family="Helvetica,sans-Serif" font-size="10.00">proxsuite::linalg::</text>
<text text-anchor="middle" x="175.5" y="-96.5" font-family="Helvetica,sans-Serif" font-size="10.00">veg::RefMut&lt; C &gt;</text>
</a>
</g>
</g>
<!-- Node3&#45;&gt;Node4 -->
<g id="edge4" class="edge">
<title>Node3&#45;&gt;Node4</title>
<path fill="none" stroke="midnightblue" d="M133.98,-149.69C143.22,-139.86 153.87,-128.52 162.07,-119.79"/>
<polygon fill="midnightblue" stroke="midnightblue" points="131.25,-147.49 126.95,-157.18 136.35,-152.29 131.25,-147.49"/>
</g>
<!-- Node4&#45;&gt;Node1 -->
<g id="edge3" class="edge">
<title>Node4&#45;&gt;Node1</title>
<path fill="none" stroke="#9a32cd" stroke-dasharray="5,2" d="M158.57,-81.24C149.12,-68.82 137.45,-53.48 128.36,-41.53"/>
<polygon fill="#9a32cd" stroke="#9a32cd" points="155.86,-83.46 164.7,-89.3 161.43,-79.23 155.86,-83.46"/>
<text text-anchor="middle" x="166.5" y="-63" font-family="Helvetica,sans-Serif" font-size="10.00"> cloner</text>
</g>
</g>
</svg>
