<?xml version="1.0" encoding="UTF-8" standalone="no"?>
<!DOCTYPE svg PUBLIC "-//W3C//DTD SVG 1.1//EN"
 "http://www.w3.org/Graphics/SVG/1.1/DTD/svg11.dtd">
<!-- Generated by graphviz version 7.1.0 (20230122.1345)
 -->
<!-- Title: proxsuite::linalg::veg::dynstack::DynStackArray&lt; T &gt; Pages: 1 -->
<svg width="820pt" height="135pt"
 viewBox="0.00 0.00 820.00 135.00" xmlns="http://www.w3.org/2000/svg" xmlns:xlink="http://www.w3.org/1999/xlink">
<g id="graph0" class="graph" transform="scale(1 1) rotate(0) translate(4 131)">
<title>proxsuite::linalg::veg::dynstack::DynStackArray&lt; T &gt;</title>
<!-- Node1 -->
<g id="node1" class="node">
<title>Node1</title>
<g id="a_node1"><a xlink:title=" ">
<polygon fill="#999999" stroke="#666666" points="812,-53 620,-53 620,-23 812,-23 812,-53"/>
<text text-anchor="start" x="628" y="-41" font-family="Helvetica,sans-Serif" font-size="10.00">proxsuite::linalg::</text>
<text text-anchor="middle" x="716" y="-30" font-family="Helvetica,sans-Serif" font-size="10.00">veg::dynstack::DynStackArray&lt; T &gt;</text>
</a>
</g>
</g>
<!-- Node2 -->
<g id="node2" class="node">
<title>Node2</title>
<g id="a_node2"><a xlink:href="structproxsuite_1_1linalg_1_1veg_1_1dynstack_1_1DynStackAlloc.html" target="_top" xlink:title=" ">
<polygon fill="white" stroke="#666666" points="583,-100 393,-100 393,-70 583,-70 583,-100"/>
<text text-anchor="start" x="401" y="-88" font-family="Helvetica,sans-Serif" font-size="10.00">proxsuite::linalg::</text>
<text text-anchor="middle" x="488" y="-77" font-family="Helvetica,sans-Serif" font-size="10.00">veg::dynstack::DynStackAlloc&lt; T &gt;</text>
</a>
</g>
</g>
<!-- Node2&#45;&gt;Node1 -->
<g id="edge1" class="edge">
<title>Node2&#45;&gt;Node1</title>
<path fill="none" stroke="#8b1a1a" d="M574.54,-67.21C596.29,-62.69 619.49,-57.86 640.64,-53.46"/>
<polygon fill="#8b1a1a" stroke="#8b1a1a" points="573.87,-63.77 564.8,-69.24 575.3,-70.63 573.87,-63.77"/>
</g>
<!-- Node3 -->
<g id="node3" class="node">
<title>Node3</title>
<g id="a_node3"><a xlink:href="structproxsuite_1_1linalg_1_1veg_1_1__detail_1_1__dynstack_1_1DynAllocBase.html" target="_top" xlink:title=" ">
<polygon fill="white" stroke="#666666" points="356,-105.5 227,-105.5 227,-64.5 356,-64.5 356,-105.5"/>
<text text-anchor="start" x="235" y="-93.5" font-family="Helvetica,sans-Serif" font-size="10.00">proxsuite::linalg::</text>
<text text-anchor="start" x="235" y="-82.5" font-family="Helvetica,sans-Serif" font-size="10.00">veg::_detail::_dynstack</text>
<text text-anchor="middle" x="291.5" y="-71.5" font-family="Helvetica,sans-Serif" font-size="10.00">::DynAllocBase</text>
</a>
</g>
</g>
<!-- Node3&#45;&gt;Node2 -->
<g id="edge2" class="edge">
<title>Node3&#45;&gt;Node2</title>
<path fill="none" stroke="#63b8ff" d="M367.82,-85C375.99,-85 384.36,-85 392.71,-85"/>
<polygon fill="#63b8ff" stroke="#63b8ff" points="367.97,-81.5 357.97,-85 367.97,-88.5 367.97,-81.5"/>
</g>
<!-- Node4 -->
<g id="node4" class="node">
<title>Node4</title>
<g id="a_node4"><a xlink:href="structproxsuite_1_1linalg_1_1veg_1_1dynstack_1_1DynStackMut.html" target="_top" xlink:title=" ">
<polygon fill="white" stroke="#666666" points="156,-127 0,-127 0,-97 156,-97 156,-127"/>
<text text-anchor="start" x="8" y="-115" font-family="Helvetica,sans-Serif" font-size="10.00">proxsuite::linalg::</text>
<text text-anchor="middle" x="78" y="-104" font-family="Helvetica,sans-Serif" font-size="10.00">veg::dynstack::DynStackMut</text>
</a>
</g>
</g>
<!-- Node4&#45;&gt;Node3 -->
<g id="edge3" class="edge">
<title>Node4&#45;&gt;Node3</title>
<path fill="none" stroke="#9a32cd" stroke-dasharray="5,2" d="M167.5,-100.7C187.35,-98.17 208.03,-95.53 226.64,-93.15"/>
<polygon fill="#9a32cd" stroke="#9a32cd" points="167.23,-97.21 157.76,-101.95 168.12,-104.15 167.23,-97.21"/>
<text text-anchor="middle" x="191.5" y="-102" font-family="Helvetica,sans-Serif" font-size="10.00"> parent</text>
</g>
<!-- Node5 -->
<g id="node5" class="node">
<title>Node5</title>
<g id="a_node5"><a xlink:href="structproxsuite_1_1linalg_1_1veg_1_1__detail_1_1__meta_1_1make__signed.html" target="_top" xlink:title=" ">
<polygon fill="white" stroke="#666666" points="145.5,-78.5 10.5,-78.5 10.5,-37.5 145.5,-37.5 145.5,-78.5"/>
<text text-anchor="start" x="18.5" y="-66.5" font-family="Helvetica,sans-Serif" font-size="10.00">proxsuite::linalg::</text>
<text text-anchor="start" x="18.5" y="-55.5" font-family="Helvetica,sans-Serif" font-size="10.00">veg::_detail::_meta</text>
<text text-anchor="middle" x="78" y="-44.5" font-family="Helvetica,sans-Serif" font-size="10.00">::make_signed&lt; usize &gt;</text>
</a>
</g>
</g>
<!-- Node5&#45;&gt;Node3 -->
<g id="edge4" class="edge">
<title>Node5&#45;&gt;Node3</title>
<path fill="none" stroke="#9a32cd" stroke-dasharray="5,2" d="M157.3,-68C180.1,-70.91 204.73,-74.05 226.54,-76.84"/>
<polygon fill="#9a32cd" stroke="#9a32cd" points="157.78,-64.53 147.42,-66.73 156.9,-71.47 157.78,-64.53"/>
<text text-anchor="middle" x="191.5" y="-77" font-family="Helvetica,sans-Serif" font-size="10.00"> len</text>
</g>
<!-- Node6 -->
<g id="node6" class="node">
<title>Node6</title>
<g id="a_node6"><a xlink:href="structproxsuite_1_1linalg_1_1veg_1_1__detail_1_1__dynstack_1_1DynStackArrayDtor.html" target="_top" xlink:title=" ">
<polygon fill="white" stroke="#666666" points="556.5,-52 419.5,-52 419.5,0 556.5,0 556.5,-52"/>
<text text-anchor="start" x="427.5" y="-40" font-family="Helvetica,sans-Serif" font-size="10.00">proxsuite::linalg::</text>
<text text-anchor="start" x="427.5" y="-29" font-family="Helvetica,sans-Serif" font-size="10.00">veg::_detail::_dynstack</text>
<text text-anchor="start" x="427.5" y="-18" font-family="Helvetica,sans-Serif" font-size="10.00">::DynStackArrayDtor&lt; T,</text>
<text text-anchor="middle" x="488" y="-7" font-family="Helvetica,sans-Serif" font-size="10.00"> bool &gt;</text>
</a>
</g>
</g>
<!-- Node6&#45;&gt;Node1 -->
<g id="edge5" class="edge">
<title>Node6&#45;&gt;Node1</title>
<path fill="none" stroke="#63b8ff" d="M568.14,-30.2C584.78,-31.09 602.5,-32.03 619.67,-32.94"/>
<polygon fill="#63b8ff" stroke="#63b8ff" points="568.49,-26.72 558.32,-29.68 568.12,-33.71 568.49,-26.72"/>
</g>
</g>
</svg>
