<?xml version="1.0" encoding="UTF-8" standalone="no"?>
<!DOCTYPE svg PUBLIC "-//W3C//DTD SVG 1.1//EN"
 "http://www.w3.org/Graphics/SVG/1.1/DTD/svg11.dtd">
<!-- Generated by graphviz version 11.0.0 (20240519.1550)
 -->
<!-- Title: proxsuite::proxqp::sparse::Model&lt; T, I &gt; Pages: 1 -->
<svg width="637pt" height="239pt"
 viewBox="0.00 0.00 637.25 238.62" xmlns="http://www.w3.org/2000/svg" xmlns:xlink="http://www.w3.org/1999/xlink">
<g id="graph0" class="graph" transform="scale(1 1) rotate(0) translate(4 234.62)">
<title>proxsuite::proxqp::sparse::Model&lt; T, I &gt;</title>
<!-- Node1 -->
<g id="Node000001" class="node">
<title>Node1</title>
<g id="a_Node000001"><a xlink:title="This class stores the model of the QP problem.">
<polygon fill="#999999" stroke="#666666" points="629.25,-140.88 507.5,-140.88 507.5,-107.38 629.25,-107.38 629.25,-140.88"/>
<text text-anchor="start" x="515.5" y="-127.38" font-family="Helvetica,sans-Serif" font-size="10.00">proxsuite::proxqp::</text>
<text text-anchor="middle" x="568.38" y="-114.62" font-family="Helvetica,sans-Serif" font-size="10.00">sparse::Model&lt; T, I &gt;</text>
</a>
</g>
</g>
<!-- Node2 -->
<g id="Node000002" class="node">
<title>Node2</title>
<g id="a_Node000002"><a xlink:title=" ">
<polygon fill="white" stroke="#666666" points="312.88,-171.5 274.38,-171.5 274.38,-150.75 312.88,-150.75 312.88,-171.5"/>
<text text-anchor="middle" x="293.62" y="-158" font-family="Helvetica,sans-Serif" font-size="10.00">isize</text>
</a>
</g>
</g>
<!-- Node2&#45;&gt;Node1 -->
<g id="edge1_Node000001_Node000002" class="edge">
<title>Node2&#45;&gt;Node1</title>
<g id="a_edge1_Node000001_Node000002"><a xlink:title=" ">
<path fill="none" stroke="#9a32cd" stroke-dasharray="5,2" d="M324.57,-158.47C362.91,-154.91 431.34,-148 489.5,-139.12 495.22,-138.25 501.15,-137.26 507.08,-136.22"/>
<polygon fill="#9a32cd" stroke="#9a32cd" points="324.38,-154.98 314.74,-159.37 325.01,-161.95 324.38,-154.98"/>
</a>
</g>
<text text-anchor="middle" x="425.75" y="-221.12" font-family="Helvetica,sans-Serif" font-size="10.00" fill="grey"> A_nnz</text>
<text text-anchor="middle" x="425.75" y="-208.38" font-family="Helvetica,sans-Serif" font-size="10.00" fill="grey">C_nnz</text>
<text text-anchor="middle" x="425.75" y="-195.62" font-family="Helvetica,sans-Serif" font-size="10.00" fill="grey">H_nnz</text>
<text text-anchor="middle" x="425.75" y="-182.88" font-family="Helvetica,sans-Serif" font-size="10.00" fill="grey">dim</text>
<text text-anchor="middle" x="425.75" y="-170.12" font-family="Helvetica,sans-Serif" font-size="10.00" fill="grey">n_eq</text>
<text text-anchor="middle" x="425.75" y="-157.38" font-family="Helvetica,sans-Serif" font-size="10.00" fill="grey">n_in</text>
</g>
<!-- Node3 -->
<g id="Node000003" class="node">
<title>Node3</title>
<g id="a_Node000003"><a xlink:href="structproxsuite_1_1linalg_1_1veg_1_1Vec.html" target="_top" xlink:title=" ">
<polygon fill="white" stroke="#666666" points="344,-103.88 243.25,-103.88 243.25,-70.38 344,-70.38 344,-103.88"/>
<text text-anchor="start" x="251.25" y="-90.38" font-family="Helvetica,sans-Serif" font-size="10.00">proxsuite::linalg::</text>
<text text-anchor="middle" x="293.62" y="-77.62" font-family="Helvetica,sans-Serif" font-size="10.00">veg::Vec&lt; I &gt;</text>
</a>
</g>
</g>
<!-- Node3&#45;&gt;Node1 -->
<g id="edge2_Node000001_Node000003" class="edge">
<title>Node3&#45;&gt;Node1</title>
<g id="a_edge2_Node000001_Node000003"><a xlink:title=" ">
<path fill="none" stroke="#9a32cd" stroke-dasharray="5,2" d="M355.62,-78.43C394.48,-74.78 445.59,-73.51 489.5,-84.12 507.97,-88.59 526.97,-98.23 541.58,-106.93"/>
<polygon fill="#9a32cd" stroke="#9a32cd" points="355.33,-74.94 345.74,-79.44 356.04,-81.9 355.33,-74.94"/>
</a>
</g>
<text text-anchor="middle" x="425.75" y="-125.62" font-family="Helvetica,sans-Serif" font-size="10.00" fill="grey"> kkt_col_ptrs</text>
<text text-anchor="middle" x="425.75" y="-112.88" font-family="Helvetica,sans-Serif" font-size="10.00" fill="grey">kkt_col_ptrs_unscaled</text>
<text text-anchor="middle" x="425.75" y="-100.12" font-family="Helvetica,sans-Serif" font-size="10.00" fill="grey">kkt_row_indices</text>
<text text-anchor="middle" x="425.75" y="-87.38" font-family="Helvetica,sans-Serif" font-size="10.00" fill="grey">kkt_row_indices_unscaled</text>
</g>
<!-- Node4 -->
<g id="Node000004" class="node">
<title>Node4</title>
<g id="a_Node000004"><a xlink:href="structproxsuite_1_1linalg_1_1veg_1_1__detail_1_1__vector_1_1adl_1_1AdlBase.html" target="_top" xlink:title=" ">
<polygon fill="white" stroke="#666666" points="161.12,-174.25 46.12,-174.25 46.12,-128 161.12,-128 161.12,-174.25"/>
<text text-anchor="start" x="54.12" y="-160.75" font-family="Helvetica,sans-Serif" font-size="10.00">proxsuite::linalg::</text>
<text text-anchor="start" x="54.12" y="-148" font-family="Helvetica,sans-Serif" font-size="10.00">veg::_detail::_vector</text>
<text text-anchor="middle" x="103.62" y="-135.25" font-family="Helvetica,sans-Serif" font-size="10.00">::adl::AdlBase</text>
</a>
</g>
</g>
<!-- Node4&#45;&gt;Node3 -->
<g id="edge3_Node000003_Node000004" class="edge">
<title>Node4&#45;&gt;Node3</title>
<g id="a_edge3_Node000003_Node000004"><a xlink:title=" ">
<path fill="none" stroke="#8b1a1a" d="M172.19,-130.65C183.92,-126.93 195.96,-123 207.25,-119.12 220.73,-114.5 235.28,-109.18 248.48,-104.21"/>
<polygon fill="#8b1a1a" stroke="#8b1a1a" points="171.47,-127.21 162.98,-133.55 173.57,-133.89 171.47,-127.21"/>
</a>
</g>
</g>
<!-- Node5 -->
<g id="Node000005" class="node">
<title>Node5</title>
<g id="a_Node000005"><a xlink:title=" ">
<polygon fill="white" stroke="#666666" points="207.25,-110.25 0,-110.25 0,-64 207.25,-64 207.25,-110.25"/>
<text text-anchor="start" x="8" y="-96.75" font-family="Helvetica,sans-Serif" font-size="10.00">meta::if_t&lt; mem::CopyAvailable</text>
<text text-anchor="start" x="8" y="-84" font-family="Helvetica,sans-Serif" font-size="10.00">For&lt;I &gt;::value ==mem::CopyAvailable</text>
<text text-anchor="middle" x="103.62" y="-71.25" font-family="Helvetica,sans-Serif" font-size="10.00">::no, _detail::NoCopy, _detail::Empty &gt;</text>
</a>
</g>
</g>
<!-- Node5&#45;&gt;Node3 -->
<g id="edge4_Node000003_Node000005" class="edge">
<title>Node5&#45;&gt;Node3</title>
<g id="a_edge4_Node000003_Node000005"><a xlink:title=" ">
<path fill="none" stroke="#8b1a1a" d="M219.16,-87.12C227.48,-87.12 235.57,-87.12 243.16,-87.12"/>
<polygon fill="#8b1a1a" stroke="#8b1a1a" points="219.21,-83.63 209.21,-87.13 219.21,-90.63 219.21,-83.63"/>
</a>
</g>
</g>
<!-- Node6 -->
<g id="Node000006" class="node">
<title>Node6</title>
<g id="a_Node000006"><a xlink:href="structproxsuite_1_1linalg_1_1veg_1_1__detail_1_1__collections_1_1VecImpl.html" target="_top" xlink:title=" ">
<polygon fill="white" stroke="#666666" points="183.62,-46.25 23.62,-46.25 23.62,0 183.62,0 183.62,-46.25"/>
<text text-anchor="start" x="31.62" y="-32.75" font-family="Helvetica,sans-Serif" font-size="10.00">proxsuite::linalg::</text>
<text text-anchor="start" x="31.62" y="-20" font-family="Helvetica,sans-Serif" font-size="10.00">veg::_detail::_collections</text>
<text text-anchor="middle" x="103.62" y="-7.25" font-family="Helvetica,sans-Serif" font-size="10.00">::VecImpl&lt; T, A, Dtor, Copy &gt;</text>
</a>
</g>
</g>
<!-- Node6&#45;&gt;Node3 -->
<g id="edge5_Node000003_Node000006" class="edge">
<title>Node6&#45;&gt;Node3</title>
<g id="a_edge5_Node000003_Node000006"><a xlink:title=" ">
<path fill="none" stroke="#63b8ff" d="M192.69,-50.23C197.62,-51.86 202.5,-53.5 207.25,-55.12 220.73,-59.75 235.28,-65.07 248.48,-70.04"/>
<polygon fill="#63b8ff" stroke="#63b8ff" points="193.86,-46.93 183.27,-47.15 191.69,-53.58 193.86,-46.93"/>
</a>
</g>
</g>
</g>
</svg>
