<?xml version="1.0" encoding="UTF-8" standalone="no"?>
<!DOCTYPE svg PUBLIC "-//W3C//DTD SVG 1.1//EN"
 "http://www.w3.org/Graphics/SVG/1.1/DTD/svg11.dtd">
<!-- Generated by graphviz version 6.0.2 (20221126.1951)
 -->
<!-- Title: proxsuite::proxqp::sparse::Workspace&lt; T, I &gt; Pages: 1 -->
<svg width="752pt" height="374pt"
 viewBox="0.00 0.00 752.00 374.00" xmlns="http://www.w3.org/2000/svg" xmlns:xlink="http://www.w3.org/1999/xlink">
<g id="graph0" class="graph" transform="scale(1 1) rotate(0) translate(4 370)">
<title>proxsuite::proxqp::sparse::Workspace&lt; T, I &gt;</title>
<!-- Node1 -->
<g id="node1" class="node">
<title>Node1</title>
<g id="a_node1"><a xlink:title="This class defines the workspace of the sparse solver.">
<polygon fill="#999999" stroke="#666666" points="744,-153.5 598,-153.5 598,-123.5 744,-123.5 744,-153.5"/>
<text text-anchor="start" x="606" y="-141.5" font-family="Helvetica,sans-Serif" font-size="10.00">proxsuite::proxqp::</text>
<text text-anchor="middle" x="671" y="-130.5" font-family="Helvetica,sans-Serif" font-size="10.00">sparse::Workspace&lt; T, I &gt;</text>
</a>
</g>
</g>
<!-- Node2 -->
<g id="node2" class="node">
<title>Node2</title>
<g id="a_node2"><a xlink:href="structproxsuite_1_1linalg_1_1veg_1_1Vec.html" target="_top" xlink:title=" ">
<polygon fill="white" stroke="#666666" points="427.5,-218 283.5,-218 283.5,-177 427.5,-177 427.5,-218"/>
<text text-anchor="start" x="291.5" y="-206" font-family="Helvetica,sans-Serif" font-size="10.00">proxsuite::linalg::</text>
<text text-anchor="start" x="291.5" y="-195" font-family="Helvetica,sans-Serif" font-size="10.00">veg::Vec&lt; proxsuite</text>
<text text-anchor="middle" x="355.5" y="-184" font-family="Helvetica,sans-Serif" font-size="10.00">::linalg::veg::mem::byte &gt;</text>
</a>
</g>
</g>
<!-- Node2&#45;&gt;Node1 -->
<g id="edge1" class="edge">
<title>Node2&#45;&gt;Node1</title>
<path fill="none" stroke="#9a32cd" stroke-dasharray="5,2" d="M437.68,-182.22C487.21,-172.9 549.98,-161.09 597.79,-152.09"/>
<polygon fill="#9a32cd" stroke="#9a32cd" points="436.82,-178.82 427.64,-184.11 438.11,-185.7 436.82,-178.82"/>
<text text-anchor="middle" x="532" y="-175.5" font-family="Helvetica,sans-Serif" font-size="10.00"> storage</text>
</g>
<!-- Node3 -->
<g id="node3" class="node">
<title>Node3</title>
<g id="a_node3"><a xlink:href="structproxsuite_1_1linalg_1_1veg_1_1__detail_1_1__vector_1_1adl_1_1AdlBase.html" target="_top" xlink:title=" ">
<polygon fill="white" stroke="#666666" points="162,-248 46,-248 46,-207 162,-207 162,-248"/>
<text text-anchor="start" x="54" y="-236" font-family="Helvetica,sans-Serif" font-size="10.00">proxsuite::linalg::</text>
<text text-anchor="start" x="54" y="-225" font-family="Helvetica,sans-Serif" font-size="10.00">veg::_detail::_vector</text>
<text text-anchor="middle" x="104" y="-214" font-family="Helvetica,sans-Serif" font-size="10.00">::adl::AdlBase</text>
</a>
</g>
</g>
<!-- Node3&#45;&gt;Node2 -->
<g id="edge2" class="edge">
<title>Node3&#45;&gt;Node2</title>
<path fill="none" stroke="#8b1a1a" d="M172.18,-219.42C206.53,-215.29 248.33,-210.27 283.25,-206.07"/>
<polygon fill="#8b1a1a" stroke="#8b1a1a" points="171.75,-215.95 162.24,-220.62 172.59,-222.9 171.75,-215.95"/>
</g>
<!-- Node6 -->
<g id="node6" class="node">
<title>Node6</title>
<g id="a_node6"><a xlink:href="structproxsuite_1_1linalg_1_1veg_1_1Vec.html" target="_top" xlink:title=" ">
<polygon fill="white" stroke="#666666" points="406,-284.5 305,-284.5 305,-254.5 406,-254.5 406,-284.5"/>
<text text-anchor="start" x="313" y="-272.5" font-family="Helvetica,sans-Serif" font-size="10.00">proxsuite::linalg::</text>
<text text-anchor="middle" x="355.5" y="-261.5" font-family="Helvetica,sans-Serif" font-size="10.00">veg::Vec&lt; I &gt;</text>
</a>
</g>
</g>
<!-- Node3&#45;&gt;Node6 -->
<g id="edge6" class="edge">
<title>Node3&#45;&gt;Node6</title>
<path fill="none" stroke="#8b1a1a" d="M172.32,-238.83C214.05,-245.86 266.73,-254.73 304.7,-261.12"/>
<polygon fill="#8b1a1a" stroke="#8b1a1a" points="172.68,-235.34 162.24,-237.14 171.52,-242.25 172.68,-235.34"/>
</g>
<!-- Node4 -->
<g id="node4" class="node">
<title>Node4</title>
<g id="a_node4"><a xlink:title=" ">
<polygon fill="white" stroke="#666666" points="192,-130 16,-130 16,-67 192,-67 192,-130"/>
<text text-anchor="start" x="24" y="-118" font-family="Helvetica,sans-Serif" font-size="10.00">meta::if_t&lt; mem::CopyAvailable</text>
<text text-anchor="start" x="24" y="-107" font-family="Helvetica,sans-Serif" font-size="10.00">For&lt;proxsuite::linalg::veg</text>
<text text-anchor="start" x="24" y="-96" font-family="Helvetica,sans-Serif" font-size="10.00">::mem::byte &gt;::value ==mem</text>
<text text-anchor="start" x="24" y="-85" font-family="Helvetica,sans-Serif" font-size="10.00">::CopyAvailable::no, _detail</text>
<text text-anchor="middle" x="104" y="-74" font-family="Helvetica,sans-Serif" font-size="10.00">::NoCopy, _detail::Empty &gt;</text>
</a>
</g>
</g>
<!-- Node4&#45;&gt;Node2 -->
<g id="edge3" class="edge">
<title>Node4&#45;&gt;Node2</title>
<path fill="none" stroke="#8b1a1a" d="M199.15,-134.65C202.16,-136.23 205.12,-137.85 208,-139.5 226.11,-149.91 226.3,-159.19 245,-168.5 256.97,-174.46 270.31,-179.3 283.44,-183.19"/>
<polygon fill="#8b1a1a" stroke="#8b1a1a" points="200.47,-131.4 189.96,-130.03 197.33,-137.65 200.47,-131.4"/>
</g>
<!-- Node5 -->
<g id="node5" class="node">
<title>Node5</title>
<g id="a_node5"><a xlink:href="structproxsuite_1_1linalg_1_1veg_1_1__detail_1_1__collections_1_1VecImpl.html" target="_top" xlink:title=" ">
<polygon fill="white" stroke="#666666" points="184.5,-189 23.5,-189 23.5,-148 184.5,-148 184.5,-189"/>
<text text-anchor="start" x="31.5" y="-177" font-family="Helvetica,sans-Serif" font-size="10.00">proxsuite::linalg::</text>
<text text-anchor="start" x="31.5" y="-166" font-family="Helvetica,sans-Serif" font-size="10.00">veg::_detail::_collections</text>
<text text-anchor="middle" x="104" y="-155" font-family="Helvetica,sans-Serif" font-size="10.00">::VecImpl&lt; T, A, Dtor, Copy &gt;</text>
</a>
</g>
</g>
<!-- Node5&#45;&gt;Node2 -->
<g id="edge4" class="edge">
<title>Node5&#45;&gt;Node2</title>
<path fill="none" stroke="#63b8ff" d="M194.78,-178.94C223.85,-182.31 255.68,-186.01 283.21,-189.21"/>
<polygon fill="#63b8ff" stroke="#63b8ff" points="194.97,-175.43 184.63,-177.76 194.16,-182.39 194.97,-175.43"/>
</g>
<!-- Node6&#45;&gt;Node1 -->
<g id="edge5" class="edge">
<title>Node6&#45;&gt;Node1</title>
<path fill="none" stroke="#9a32cd" stroke-dasharray="5,2" d="M413.26,-251.25C459,-235.94 524.58,-212.59 580,-187.5 602.37,-177.37 626.77,-163.93 644.52,-153.68"/>
<polygon fill="#9a32cd" stroke="#9a32cd" points="411.91,-248.01 403.53,-254.49 414.12,-254.65 411.91,-248.01"/>
<text text-anchor="middle" x="532" y="-226.5" font-family="Helvetica,sans-Serif" font-size="10.00"> kkt_nnz_counts</text>
</g>
<!-- Node7 -->
<g id="node7" class="node">
<title>Node7</title>
<g id="a_node7"><a xlink:title=" ">
<polygon fill="white" stroke="#666666" points="208,-366 0,-366 0,-325 208,-325 208,-366"/>
<text text-anchor="start" x="8" y="-354" font-family="Helvetica,sans-Serif" font-size="10.00">meta::if_t&lt; mem::CopyAvailable</text>
<text text-anchor="start" x="8" y="-343" font-family="Helvetica,sans-Serif" font-size="10.00">For&lt;I &gt;::value ==mem::CopyAvailable</text>
<text text-anchor="middle" x="104" y="-332" font-family="Helvetica,sans-Serif" font-size="10.00">::no, _detail::NoCopy, _detail::Empty &gt;</text>
</a>
</g>
</g>
<!-- Node7&#45;&gt;Node6 -->
<g id="edge7" class="edge">
<title>Node7&#45;&gt;Node6</title>
<path fill="none" stroke="#8b1a1a" d="M189.14,-322.08C195.53,-320.22 201.87,-318.35 208,-316.5 242.02,-306.26 280.23,-293.97 309.1,-284.53"/>
<polygon fill="#8b1a1a" stroke="#8b1a1a" points="187.71,-318.85 179.08,-324.99 189.66,-325.57 187.71,-318.85"/>
</g>
<!-- Node8 -->
<g id="node8" class="node">
<title>Node8</title>
<g id="a_node8"><a xlink:href="structproxsuite_1_1linalg_1_1veg_1_1__detail_1_1__collections_1_1VecImpl.html" target="_top" xlink:title=" ">
<polygon fill="white" stroke="#666666" points="184.5,-307 23.5,-307 23.5,-266 184.5,-266 184.5,-307"/>
<text text-anchor="start" x="31.5" y="-295" font-family="Helvetica,sans-Serif" font-size="10.00">proxsuite::linalg::</text>
<text text-anchor="start" x="31.5" y="-284" font-family="Helvetica,sans-Serif" font-size="10.00">veg::_detail::_collections</text>
<text text-anchor="middle" x="104" y="-273" font-family="Helvetica,sans-Serif" font-size="10.00">::VecImpl&lt; T, A, Dtor, Copy &gt;</text>
</a>
</g>
</g>
<!-- Node8&#45;&gt;Node6 -->
<g id="edge8" class="edge">
<title>Node8&#45;&gt;Node6</title>
<path fill="none" stroke="#63b8ff" d="M194.96,-280.37C232.03,-277.84 273.56,-275.01 304.96,-272.88"/>
<polygon fill="#63b8ff" stroke="#63b8ff" points="194.37,-276.9 184.63,-281.07 194.84,-283.89 194.37,-276.9"/>
</g>
<!-- Node9 -->
<g id="node9" class="node">
<title>Node9</title>
<g id="a_node9"><a xlink:title=" ">
<polygon fill="white" stroke="#666666" points="428.5,-159 282.5,-159 282.5,-118 428.5,-118 428.5,-159"/>
<text text-anchor="start" x="290.5" y="-147" font-family="Helvetica,sans-Serif" font-size="10.00">std::unique_ptr&lt; proxsuite</text>
<text text-anchor="start" x="290.5" y="-136" font-family="Helvetica,sans-Serif" font-size="10.00">::proxqp::sparse::detail</text>
<text text-anchor="middle" x="355.5" y="-125" font-family="Helvetica,sans-Serif" font-size="10.00">::AugmentedKkt&lt; T, I &gt; &gt;</text>
</a>
</g>
</g>
<!-- Node9&#45;&gt;Node1 -->
<g id="edge9" class="edge">
<title>Node9&#45;&gt;Node1</title>
<path fill="none" stroke="#9a32cd" stroke-dasharray="5,2" d="M438.83,-138.5C488.17,-138.5 550.34,-138.5 597.78,-138.5"/>
<polygon fill="#9a32cd" stroke="#9a32cd" points="438.82,-135 428.82,-138.5 438.82,-142 438.82,-135"/>
<text text-anchor="middle" x="532" y="-141.5" font-family="Helvetica,sans-Serif" font-size="10.00"> matrix_free_kkt</text>
</g>
<!-- Node10 -->
<g id="node10" class="node">
<title>Node10</title>
<g id="a_node10"><a xlink:title=" ">
<polygon fill="white" stroke="#666666" points="466,-100 245,-100 245,-37 466,-37 466,-100"/>
<text text-anchor="start" x="253" y="-88" font-family="Helvetica,sans-Serif" font-size="10.00">std::unique_ptr&lt; Eigen</text>
<text text-anchor="start" x="253" y="-77" font-family="Helvetica,sans-Serif" font-size="10.00">::MINRES&lt; proxsuite::proxqp</text>
<text text-anchor="start" x="253" y="-66" font-family="Helvetica,sans-Serif" font-size="10.00">::sparse::detail::AugmentedKkt</text>
<text text-anchor="start" x="253" y="-55" font-family="Helvetica,sans-Serif" font-size="10.00">&lt; T, I &gt;, Eigen::Upper|Eigen</text>
<text text-anchor="middle" x="355.5" y="-44" font-family="Helvetica,sans-Serif" font-size="10.00">::Lower, Eigen::IdentityPreconditioner &gt; &gt;</text>
</a>
</g>
</g>
<!-- Node10&#45;&gt;Node1 -->
<g id="edge10" class="edge">
<title>Node10&#45;&gt;Node1</title>
<path fill="none" stroke="#9a32cd" stroke-dasharray="5,2" d="M476.07,-95.2C518.86,-104.75 565.58,-115.18 602.44,-123.41"/>
<polygon fill="#9a32cd" stroke="#9a32cd" points="476.67,-91.75 466.15,-92.98 475.14,-98.58 476.67,-91.75"/>
<text text-anchor="middle" x="532" y="-120.5" font-family="Helvetica,sans-Serif" font-size="10.00"> matrix_free_solver</text>
</g>
<!-- Node11 -->
<g id="node11" class="node">
<title>Node11</title>
<g id="a_node11"><a xlink:title=" ">
<polygon fill="white" stroke="#666666" points="375,-19 336,-19 336,0 375,0 375,-19"/>
<text text-anchor="middle" x="355.5" y="-7" font-family="Helvetica,sans-Serif" font-size="10.00">isize</text>
</a>
</g>
</g>
<!-- Node11&#45;&gt;Node1 -->
<g id="edge11" class="edge">
<title>Node11&#45;&gt;Node1</title>
<path fill="none" stroke="#9a32cd" stroke-dasharray="5,2" d="M385.26,-12.01C407.64,-14.49 439.29,-19.16 466,-27.5 537.78,-49.91 613.24,-98.58 648.93,-123.35"/>
<polygon fill="#9a32cd" stroke="#9a32cd" points="385.38,-8.5 375.08,-10.96 384.66,-15.47 385.38,-8.5"/>
<text text-anchor="middle" x="532" y="-79.5" font-family="Helvetica,sans-Serif" font-size="10.00"> lnnz</text>
</g>
</g>
</svg>
