<?xml version="1.0" encoding="UTF-8" standalone="no"?>
<!DOCTYPE svg PUBLIC "-//W3C//DTD SVG 1.1//EN"
 "http://www.w3.org/Graphics/SVG/1.1/DTD/svg11.dtd">
<!-- Generated by graphviz version 5.0.1 (20220821.0811)
 -->
<!-- Title: proxsuite::linalg::sparse::SymbolicMatMut&lt; I &gt; Pages: 1 -->
<svg width="645pt" height="126pt"
 viewBox="0.00 0.00 645.00 125.50" xmlns="http://www.w3.org/2000/svg" xmlns:xlink="http://www.w3.org/1999/xlink">
<g id="graph0" class="graph" transform="scale(1 1) rotate(0) translate(4 121.5)">
<title>proxsuite::linalg::sparse::SymbolicMatMut&lt; I &gt;</title>
<!-- Node1 -->
<g id="node1" class="node">
<title>Node1</title>
<g id="a_node1"><a xlink:title=" ">
<polygon fill="#bfbfbf" stroke="black" points="474,-35 474,-65 637,-65 637,-35 474,-35"/>
<text text-anchor="start" x="482" y="-53" font-family="Helvetica,sans-Serif" font-size="10.00">proxsuite::linalg::</text>
<text text-anchor="middle" x="555.5" y="-42" font-family="Helvetica,sans-Serif" font-size="10.00">sparse::SymbolicMatMut&lt; I &gt;</text>
</a>
</g>
</g>
<!-- Node2 -->
<g id="node2" class="node">
<title>Node2</title>
<g id="a_node2"><a xlink:href="structproxsuite_1_1linalg_1_1sparse_1_1__detail_1_1SymbolicMatMutInterface.html" target="_top" xlink:title=" ">
<polygon fill="none" stroke="black" points="207,-65 207,-117 380,-117 380,-65 207,-65"/>
<text text-anchor="start" x="215" y="-105" font-family="Helvetica,sans-Serif" font-size="10.00">proxsuite::linalg::</text>
<text text-anchor="start" x="215" y="-94" font-family="Helvetica,sans-Serif" font-size="10.00">sparse::_detail::SymbolicMat</text>
<text text-anchor="start" x="215" y="-83" font-family="Helvetica,sans-Serif" font-size="10.00">MutInterface&lt; SymbolicMatMut</text>
<text text-anchor="middle" x="293.5" y="-72" font-family="Helvetica,sans-Serif" font-size="10.00">&lt; isize &gt;, isize &gt;</text>
</a>
</g>
</g>
<!-- Node2&#45;&gt;Node1 -->
<g id="edge1" class="edge">
<title>Node2&#45;&gt;Node1</title>
<path fill="none" stroke="midnightblue" d="M390.55,-85.55C412.18,-83.53 434.95,-80.76 456,-77 472.67,-74.02 490.61,-69.5 506.55,-65.02"/>
<polygon fill="midnightblue" stroke="midnightblue" points="390.02,-82.09 380.37,-86.46 390.64,-89.06 390.02,-82.09"/>
</g>
<!-- Node3 -->
<g id="node3" class="node">
<title>Node3</title>
<g id="a_node3"><a xlink:href="structproxsuite_1_1linalg_1_1sparse_1_1__detail_1_1SymbolicMatRefInterface.html" target="_top" xlink:title=" ">
<polygon fill="none" stroke="black" points="0,-65 0,-117 170,-117 170,-65 0,-65"/>
<text text-anchor="start" x="8" y="-105" font-family="Helvetica,sans-Serif" font-size="10.00">proxsuite::linalg::</text>
<text text-anchor="start" x="8" y="-94" font-family="Helvetica,sans-Serif" font-size="10.00">sparse::_detail::SymbolicMat</text>
<text text-anchor="start" x="8" y="-83" font-family="Helvetica,sans-Serif" font-size="10.00">RefInterface&lt; SymbolicMatMut</text>
<text text-anchor="middle" x="85" y="-72" font-family="Helvetica,sans-Serif" font-size="10.00">&lt; isize &gt;, isize &gt;</text>
</a>
</g>
</g>
<!-- Node3&#45;&gt;Node2 -->
<g id="edge2" class="edge">
<title>Node3&#45;&gt;Node2</title>
<path fill="none" stroke="midnightblue" d="M180.52,-91C189.28,-91 198.13,-91 206.81,-91"/>
<polygon fill="midnightblue" stroke="midnightblue" points="180.29,-87.5 170.29,-91 180.29,-94.5 180.29,-87.5"/>
</g>
<!-- Node4 -->
<g id="node4" class="node">
<title>Node4</title>
<g id="a_node4"><a xlink:title=" ">
<polygon fill="none" stroke="black" points="274,-0.5 274,-19.5 313,-19.5 313,-0.5 274,-0.5"/>
<text text-anchor="middle" x="293.5" y="-7.5" font-family="Helvetica,sans-Serif" font-size="10.00">isize</text>
</a>
</g>
</g>
<!-- Node4&#45;&gt;Node1 -->
<g id="edge3" class="edge">
<title>Node4&#45;&gt;Node1</title>
<path fill="none" stroke="#9a32cd" stroke-dasharray="5,2" d="M323.28,-7.01C355.83,-4.35 410.25,-2.13 456,-11 480.01,-15.66 505.66,-26 524.77,-34.87"/>
<polygon fill="#9a32cd" stroke="#9a32cd" points="322.78,-3.54 313.13,-7.91 323.4,-10.51 322.78,-3.54"/>
<text text-anchor="middle" x="427" y="-69" font-family="Helvetica,sans-Serif" font-size="10.00"> col</text>
<text text-anchor="middle" x="427" y="-58" font-family="Helvetica,sans-Serif" font-size="10.00">ncols</text>
<text text-anchor="middle" x="427" y="-47" font-family="Helvetica,sans-Serif" font-size="10.00">nnz</text>
<text text-anchor="middle" x="427" y="-36" font-family="Helvetica,sans-Serif" font-size="10.00">nnz_per_col</text>
<text text-anchor="middle" x="427" y="-25" font-family="Helvetica,sans-Serif" font-size="10.00">nrows</text>
<text text-anchor="middle" x="427" y="-14" font-family="Helvetica,sans-Serif" font-size="10.00">row</text>
</g>
</g>
</svg>
