<?xml version="1.0" encoding="UTF-8" standalone="no"?>
<!DOCTYPE svg PUBLIC "-//W3C//DTD SVG 1.1//EN"
 "http://www.w3.org/Graphics/SVG/1.1/DTD/svg11.dtd">
<!-- Generated by graphviz version 9.0.0 (20231125.0833)
 -->
<!-- Title: tl::detail::optional_copy_assign_base&lt; T, bool &gt; Pages: 1 -->
<svg width="1119pt" height="118pt"
 viewBox="0.00 0.00 1119.00 118.25" xmlns="http://www.w3.org/2000/svg" xmlns:xlink="http://www.w3.org/1999/xlink">
<g id="graph0" class="graph" transform="scale(1 1) rotate(0) translate(4 114.25)">
<title>tl::detail::optional_copy_assign_base&lt; T, bool &gt;</title>
<!-- Node1 -->
<g id="Node000001" class="node">
<title>Node1</title>
<g id="a_Node000001"><a xlink:title=" ">
<polygon fill="#999999" stroke="#666666" points="807.5,-78.25 677.5,-78.25 677.5,-32 807.5,-32 807.5,-78.25"/>
<text text-anchor="start" x="685.5" y="-64.75" font-family="Helvetica,sans-Serif" font-size="10.00">tl::detail::optional</text>
<text text-anchor="start" x="685.5" y="-52" font-family="Helvetica,sans-Serif" font-size="10.00">_copy_assign_base&lt; T,</text>
<text text-anchor="middle" x="742.5" y="-39.25" font-family="Helvetica,sans-Serif" font-size="10.00"> bool &gt;</text>
</a>
</g>
</g>
<!-- Node6 -->
<g id="Node000006" class="node">
<title>Node6</title>
<g id="a_Node000006"><a xlink:href="structtl_1_1detail_1_1optional__move__assign__base.html" target="_top" xlink:title=" ">
<polygon fill="white" stroke="#666666" points="978,-110.25 843.5,-110.25 843.5,-64 978,-64 978,-110.25"/>
<text text-anchor="start" x="851.5" y="-96.75" font-family="Helvetica,sans-Serif" font-size="10.00">tl::detail::optional</text>
<text text-anchor="start" x="851.5" y="-84" font-family="Helvetica,sans-Serif" font-size="10.00">_move_assign_base&lt; T,</text>
<text text-anchor="middle" x="910.75" y="-71.25" font-family="Helvetica,sans-Serif" font-size="10.00"> bool &gt;</text>
</a>
</g>
</g>
<!-- Node1&#45;&gt;Node6 -->
<g id="edge5_Node000001_Node000006" class="edge">
<title>Node1&#45;&gt;Node6</title>
<g id="a_edge5_Node000001_Node000006"><a xlink:title=" ">
<path fill="none" stroke="#63b8ff" d="M819.05,-69.67C827.1,-71.22 835.24,-72.78 843.17,-74.31"/>
<polygon fill="#63b8ff" stroke="#63b8ff" points="819.74,-66.24 809.26,-67.78 818.42,-73.11 819.74,-66.24"/>
</a>
</g>
</g>
<!-- Node8 -->
<g id="Node000008" class="node">
<title>Node8</title>
<g id="a_Node000008"><a xlink:href="structtl_1_1detail_1_1optional__move__assign__base_3_01T_00_01false_01_4.html" target="_top" xlink:title=" ">
<polygon fill="white" stroke="#666666" points="978,-46.25 843.5,-46.25 843.5,0 978,0 978,-46.25"/>
<text text-anchor="start" x="851.5" y="-32.75" font-family="Helvetica,sans-Serif" font-size="10.00">tl::detail::optional</text>
<text text-anchor="start" x="851.5" y="-20" font-family="Helvetica,sans-Serif" font-size="10.00">_move_assign_base&lt; T,</text>
<text text-anchor="middle" x="910.75" y="-7.25" font-family="Helvetica,sans-Serif" font-size="10.00"> false &gt;</text>
</a>
</g>
</g>
<!-- Node1&#45;&gt;Node8 -->
<g id="edge7_Node000001_Node000008" class="edge">
<title>Node1&#45;&gt;Node8</title>
<g id="a_edge7_Node000001_Node000008"><a xlink:title=" ">
<path fill="none" stroke="#63b8ff" d="M819.05,-40.58C827.1,-39.03 835.24,-37.47 843.17,-35.94"/>
<polygon fill="#63b8ff" stroke="#63b8ff" points="818.42,-37.14 809.26,-42.47 819.74,-44.01 818.42,-37.14"/>
</a>
</g>
</g>
<!-- Node2 -->
<g id="Node000002" class="node">
<title>Node2</title>
<g id="a_Node000002"><a xlink:href="structtl_1_1detail_1_1optional__move__base.html" target="_top" xlink:title=" ">
<polygon fill="white" stroke="#666666" points="641.5,-71.88 508.5,-71.88 508.5,-38.38 641.5,-38.38 641.5,-71.88"/>
<text text-anchor="start" x="516.5" y="-58.38" font-family="Helvetica,sans-Serif" font-size="10.00">tl::detail::optional</text>
<text text-anchor="middle" x="575" y="-45.62" font-family="Helvetica,sans-Serif" font-size="10.00">_move_base&lt; T, bool &gt;</text>
</a>
</g>
</g>
<!-- Node2&#45;&gt;Node1 -->
<g id="edge1_Node000001_Node000002" class="edge">
<title>Node2&#45;&gt;Node1</title>
<g id="a_edge1_Node000001_Node000002"><a xlink:title=" ">
<path fill="none" stroke="#63b8ff" d="M653.17,-55.12C661.21,-55.12 669.32,-55.12 677.19,-55.12"/>
<polygon fill="#63b8ff" stroke="#63b8ff" points="653.4,-51.63 643.4,-55.13 653.4,-58.63 653.4,-51.63"/>
</a>
</g>
</g>
<!-- Node3 -->
<g id="Node000003" class="node">
<title>Node3</title>
<g id="a_Node000003"><a xlink:href="structtl_1_1detail_1_1optional__copy__base.html" target="_top" xlink:title=" ">
<polygon fill="white" stroke="#666666" points="472.5,-71.88 344,-71.88 344,-38.38 472.5,-38.38 472.5,-71.88"/>
<text text-anchor="start" x="352" y="-58.38" font-family="Helvetica,sans-Serif" font-size="10.00">tl::detail::optional</text>
<text text-anchor="middle" x="408.25" y="-45.62" font-family="Helvetica,sans-Serif" font-size="10.00">_copy_base&lt; T, bool &gt;</text>
</a>
</g>
</g>
<!-- Node3&#45;&gt;Node2 -->
<g id="edge2_Node000002_Node000003" class="edge">
<title>Node3&#45;&gt;Node2</title>
<g id="a_edge2_Node000002_Node000003"><a xlink:title=" ">
<path fill="none" stroke="#63b8ff" d="M484.4,-55.12C492.28,-55.12 500.25,-55.12 508.02,-55.12"/>
<polygon fill="#63b8ff" stroke="#63b8ff" points="484.46,-51.63 474.46,-55.13 484.46,-58.63 484.46,-51.63"/>
</a>
</g>
</g>
<!-- Node4 -->
<g id="Node000004" class="node">
<title>Node4</title>
<g id="a_Node000004"><a xlink:href="structtl_1_1detail_1_1optional__operations__base.html" target="_top" xlink:title=" ">
<polygon fill="white" stroke="#666666" points="308,-71.88 178,-71.88 178,-38.38 308,-38.38 308,-71.88"/>
<text text-anchor="start" x="186" y="-58.38" font-family="Helvetica,sans-Serif" font-size="10.00">tl::detail::optional</text>
<text text-anchor="middle" x="243" y="-45.62" font-family="Helvetica,sans-Serif" font-size="10.00">_operations_base&lt; T &gt;</text>
</a>
</g>
</g>
<!-- Node4&#45;&gt;Node3 -->
<g id="edge3_Node000003_Node000004" class="edge">
<title>Node4&#45;&gt;Node3</title>
<g id="a_edge3_Node000003_Node000004"><a xlink:title=" ">
<path fill="none" stroke="#63b8ff" d="M319.42,-55.12C327.52,-55.12 335.71,-55.12 343.65,-55.12"/>
<polygon fill="#63b8ff" stroke="#63b8ff" points="319.57,-51.63 309.57,-55.13 319.57,-58.63 319.57,-51.63"/>
</a>
</g>
</g>
<!-- Node5 -->
<g id="Node000005" class="node">
<title>Node5</title>
<g id="a_Node000005"><a xlink:href="structtl_1_1detail_1_1optional__storage__base.html" target="_top" xlink:title=" ">
<polygon fill="white" stroke="#666666" points="142,-71.88 0,-71.88 0,-38.38 142,-38.38 142,-71.88"/>
<text text-anchor="start" x="8" y="-58.38" font-family="Helvetica,sans-Serif" font-size="10.00">tl::detail::optional</text>
<text text-anchor="middle" x="71" y="-45.62" font-family="Helvetica,sans-Serif" font-size="10.00">_storage_base&lt; T, bool &gt;</text>
</a>
</g>
</g>
<!-- Node5&#45;&gt;Node4 -->
<g id="edge4_Node000004_Node000005" class="edge">
<title>Node5&#45;&gt;Node4</title>
<g id="a_edge4_Node000004_Node000005"><a xlink:title=" ">
<path fill="none" stroke="#63b8ff" d="M153.55,-55.12C161.68,-55.12 169.85,-55.12 177.76,-55.12"/>
<polygon fill="#63b8ff" stroke="#63b8ff" points="153.64,-51.63 143.64,-55.13 153.64,-58.63 153.64,-51.63"/>
</a>
</g>
</g>
<!-- Node7 -->
<g id="Node000007" class="node">
<title>Node7</title>
<g id="a_Node000007"><a xlink:href="classtl_1_1optional.html" target="_top" xlink:title=" ">
<polygon fill="white" stroke="#666666" points="1111,-97.5 1014,-97.5 1014,-76.75 1111,-76.75 1111,-97.5"/>
<text text-anchor="middle" x="1062.5" y="-84" font-family="Helvetica,sans-Serif" font-size="10.00">tl::optional&lt; T &gt;</text>
</a>
</g>
</g>
<!-- Node6&#45;&gt;Node7 -->
<g id="edge6_Node000006_Node000007" class="edge">
<title>Node6&#45;&gt;Node7</title>
<g id="a_edge6_Node000006_Node000007"><a xlink:title=" ">
<path fill="none" stroke="#8b1a1a" d="M989.76,-87.12C997.87,-87.12 1005.93,-87.12 1013.56,-87.12"/>
<polygon fill="#8b1a1a" stroke="#8b1a1a" points="989.82,-83.63 979.82,-87.13 989.82,-90.63 989.82,-83.63"/>
</a>
</g>
</g>
</g>
</svg>
