<?xml version="1.0" encoding="UTF-8" standalone="no"?>
<!DOCTYPE svg PUBLIC "-//W3C//DTD SVG 1.1//EN"
 "http://www.w3.org/Graphics/SVG/1.1/DTD/svg11.dtd">
<!-- Generated by graphviz version 6.0.2 (20221126.1951)
 -->
<!-- Title: proxsuite::proxqp::Results&lt; T &gt; Pages: 1 -->
<svg width="559pt" height="179pt"
 viewBox="0.00 0.00 559.00 179.00" xmlns="http://www.w3.org/2000/svg" xmlns:xlink="http://www.w3.org/1999/xlink">
<g id="graph0" class="graph" transform="scale(1 1) rotate(0) translate(4 175)">
<title>proxsuite::proxqp::Results&lt; T &gt;</title>
<!-- Node1 -->
<g id="node1" class="node">
<title>Node1</title>
<g id="a_node1"><a xlink:title="This class stores all the results of PROXQP solvers with sparse and dense backends.">
<polygon fill="#999999" stroke="#666666" points="551,-100.5 443,-100.5 443,-70.5 551,-70.5 551,-100.5"/>
<text text-anchor="start" x="451" y="-88.5" font-family="Helvetica,sans-Serif" font-size="10.00">proxsuite::proxqp::</text>
<text text-anchor="middle" x="497" y="-77.5" font-family="Helvetica,sans-Serif" font-size="10.00">Results&lt; T &gt;</text>
</a>
</g>
</g>
<!-- Node2 -->
<g id="node2" class="node">
<title>Node2</title>
<g id="a_node2"><a xlink:href="structproxsuite_1_1linalg_1_1veg_1_1Vec.html" target="_top" xlink:title=" ">
<polygon fill="white" stroke="#666666" points="314,-100.5 213,-100.5 213,-70.5 314,-70.5 314,-100.5"/>
<text text-anchor="start" x="221" y="-88.5" font-family="Helvetica,sans-Serif" font-size="10.00">proxsuite::linalg::</text>
<text text-anchor="middle" x="263.5" y="-77.5" font-family="Helvetica,sans-Serif" font-size="10.00">veg::Vec&lt; bool &gt;</text>
</a>
</g>
</g>
<!-- Node2&#45;&gt;Node1 -->
<g id="edge1" class="edge">
<title>Node2&#45;&gt;Node1</title>
<path fill="none" stroke="#9a32cd" stroke-dasharray="5,2" d="M324.22,-85.5C360.87,-85.5 407.41,-85.5 442.79,-85.5"/>
<polygon fill="#9a32cd" stroke="#9a32cd" points="324.16,-82 314.16,-85.5 324.16,-89 324.16,-82"/>
<text text-anchor="middle" x="378.5" y="-88.5" font-family="Helvetica,sans-Serif" font-size="10.00"> active_constraints</text>
</g>
<!-- Node3 -->
<g id="node3" class="node">
<title>Node3</title>
<g id="a_node3"><a xlink:href="structproxsuite_1_1linalg_1_1veg_1_1__detail_1_1__vector_1_1adl_1_1AdlBase.html" target="_top" xlink:title=" ">
<polygon fill="white" stroke="#666666" points="146,-171 30,-171 30,-130 146,-130 146,-171"/>
<text text-anchor="start" x="38" y="-159" font-family="Helvetica,sans-Serif" font-size="10.00">proxsuite::linalg::</text>
<text text-anchor="start" x="38" y="-148" font-family="Helvetica,sans-Serif" font-size="10.00">veg::_detail::_vector</text>
<text text-anchor="middle" x="88" y="-137" font-family="Helvetica,sans-Serif" font-size="10.00">::adl::AdlBase</text>
</a>
</g>
</g>
<!-- Node3&#45;&gt;Node2 -->
<g id="edge2" class="edge">
<title>Node3&#45;&gt;Node2</title>
<path fill="none" stroke="#8b1a1a" d="M156.1,-127.76C162.84,-125.36 169.57,-122.91 176,-120.5 192.69,-114.25 211.01,-106.91 226.47,-100.57"/>
<polygon fill="#8b1a1a" stroke="#8b1a1a" points="154.51,-124.61 146.25,-131.24 156.84,-131.21 154.51,-124.61"/>
</g>
<!-- Node4 -->
<g id="node4" class="node">
<title>Node4</title>
<g id="a_node4"><a xlink:title=" ">
<polygon fill="white" stroke="#666666" points="176,-111.5 0,-111.5 0,-59.5 176,-59.5 176,-111.5"/>
<text text-anchor="start" x="8" y="-99.5" font-family="Helvetica,sans-Serif" font-size="10.00">meta::if_t&lt; mem::CopyAvailable</text>
<text text-anchor="start" x="8" y="-88.5" font-family="Helvetica,sans-Serif" font-size="10.00">For&lt;bool &gt;::value ==mem::</text>
<text text-anchor="start" x="8" y="-77.5" font-family="Helvetica,sans-Serif" font-size="10.00">CopyAvailable::no, _detail</text>
<text text-anchor="middle" x="88" y="-66.5" font-family="Helvetica,sans-Serif" font-size="10.00">::NoCopy, _detail::Empty &gt;</text>
</a>
</g>
</g>
<!-- Node4&#45;&gt;Node2 -->
<g id="edge3" class="edge">
<title>Node4&#45;&gt;Node2</title>
<path fill="none" stroke="#8b1a1a" d="M186.09,-85.5C195.34,-85.5 204.44,-85.5 212.95,-85.5"/>
<polygon fill="#8b1a1a" stroke="#8b1a1a" points="186,-82 176,-85.5 186,-89 186,-82"/>
</g>
<!-- Node5 -->
<g id="node5" class="node">
<title>Node5</title>
<g id="a_node5"><a xlink:href="structproxsuite_1_1linalg_1_1veg_1_1__detail_1_1__collections_1_1VecImpl.html" target="_top" xlink:title=" ">
<polygon fill="white" stroke="#666666" points="168.5,-41 7.5,-41 7.5,0 168.5,0 168.5,-41"/>
<text text-anchor="start" x="15.5" y="-29" font-family="Helvetica,sans-Serif" font-size="10.00">proxsuite::linalg::</text>
<text text-anchor="start" x="15.5" y="-18" font-family="Helvetica,sans-Serif" font-size="10.00">veg::_detail::_collections</text>
<text text-anchor="middle" x="88" y="-7" font-family="Helvetica,sans-Serif" font-size="10.00">::VecImpl&lt; T, A, Dtor, Copy &gt;</text>
</a>
</g>
</g>
<!-- Node5&#45;&gt;Node2 -->
<g id="edge4" class="edge">
<title>Node5&#45;&gt;Node2</title>
<path fill="none" stroke="#63b8ff" d="M159.45,-44.44C165.06,-46.45 170.63,-48.49 176,-50.5 192.69,-56.75 211.01,-64.09 226.47,-70.43"/>
<polygon fill="#63b8ff" stroke="#63b8ff" points="160.58,-41.13 149.99,-41.08 158.24,-47.72 160.58,-41.13"/>
</g>
</g>
</svg>
