<?xml version="1.0" encoding="UTF-8" standalone="no"?>
<!DOCTYPE svg PUBLIC "-//W3C//DTD SVG 1.1//EN"
 "http://www.w3.org/Graphics/SVG/1.1/DTD/svg11.dtd">
<!-- Generated by graphviz version 12.2.1 (20250203.1708)
 -->
<!-- Title: tl::detail::optional_delete_assign_base&lt; T, EnableCopy, EnableMove &gt; Pages: 1 -->
<svg width="329pt" height="133pt"
 viewBox="0.00 0.00 328.75 132.50" xmlns="http://www.w3.org/2000/svg" xmlns:xlink="http://www.w3.org/1999/xlink">
<g id="graph0" class="graph" transform="scale(1 1) rotate(0) translate(4 128.5)">
<title>tl::detail::optional_delete_assign_base&lt; T, EnableCopy, EnableMove &gt;</title>
<!-- Node1 -->
<g id="Node000001" class="node">
<title>Node1</title>
<g id="a_Node000001"><a xlink:title=" ">
<polygon fill="#999999" stroke="#666666" points="166,-72.5 0,-72.5 0,-26.25 166,-26.25 166,-72.5"/>
<text text-anchor="start" x="8" y="-59" font-family="Helvetica,sans-Serif" font-size="10.00">tl::detail::optional</text>
<text text-anchor="start" x="8" y="-46.25" font-family="Helvetica,sans-Serif" font-size="10.00">_delete_assign_base&lt;</text>
<text text-anchor="middle" x="83" y="-33.5" font-family="Helvetica,sans-Serif" font-size="10.00"> T, EnableCopy, EnableMove &gt;</text>
</a>
</g>
</g>
<!-- Node2 -->
<g id="Node000002" class="node">
<title>Node2</title>
<g id="a_Node000002"><a xlink:href="classtl_1_1optional.html" target="_top" xlink:title=" ">
<polygon fill="white" stroke="#666666" points="320.75,-124.5 202,-124.5 202,-78.25 320.75,-78.25 320.75,-124.5"/>
<text text-anchor="start" x="210" y="-111" font-family="Helvetica,sans-Serif" font-size="10.00">tl::optional&lt; fixup</text>
<text text-anchor="start" x="210" y="-98.25" font-family="Helvetica,sans-Serif" font-size="10.00">_void&lt; invoke_result</text>
<text text-anchor="middle" x="261.38" y="-85.5" font-family="Helvetica,sans-Serif" font-size="10.00">_t&lt; F, U &gt; &gt; &gt;</text>
</a>
</g>
</g>
<!-- Node1&#45;&gt;Node2 -->
<g id="edge1_Node000001_Node000002" class="edge">
<title>Node1&#45;&gt;Node2</title>
<g id="a_edge1_Node000001_Node000002"><a xlink:title=" ">
<path fill="none" stroke="#8b1a1a" d="M174.95,-76.19C183.99,-78.85 192.99,-81.51 201.57,-84.04"/>
<polygon fill="#8b1a1a" stroke="#8b1a1a" points="175.96,-72.84 165.38,-73.37 173.98,-79.55 175.96,-72.84"/>
</a>
</g>
</g>
<!-- Node3 -->
<g id="Node000003" class="node">
<title>Node3</title>
<g id="a_Node000003"><a xlink:href="classtl_1_1optional_3_01T_01_6_01_4.html" target="_top" xlink:title=" ">
<polygon fill="white" stroke="#666666" points="315.12,-59.75 207.62,-59.75 207.62,-39 315.12,-39 315.12,-59.75"/>
<text text-anchor="middle" x="261.38" y="-46.25" font-family="Helvetica,sans-Serif" font-size="10.00">tl::optional&lt; T &amp; &gt;</text>
</a>
</g>
</g>
<!-- Node1&#45;&gt;Node3 -->
<g id="edge2_Node000001_Node000003" class="edge">
<title>Node1&#45;&gt;Node3</title>
<g id="a_edge2_Node000001_Node000003"><a xlink:title=" ">
<path fill="none" stroke="#8b1a1a" d="M177.68,-49.38C187.8,-49.38 197.82,-49.38 207.21,-49.38"/>
<polygon fill="#8b1a1a" stroke="#8b1a1a" points="177.76,-45.88 167.76,-49.38 177.76,-52.88 177.76,-45.88"/>
</a>
</g>
</g>
<!-- Node4 -->
<g id="Node000004" class="node">
<title>Node4</title>
<g id="a_Node000004"><a xlink:href="classtl_1_1optional.html" target="_top" xlink:title=" ">
<polygon fill="white" stroke="#666666" points="309.88,-20.75 212.88,-20.75 212.88,0 309.88,0 309.88,-20.75"/>
<text text-anchor="middle" x="261.38" y="-7.25" font-family="Helvetica,sans-Serif" font-size="10.00">tl::optional&lt; T &gt;</text>
</a>
</g>
</g>
<!-- Node1&#45;&gt;Node4 -->
<g id="edge3_Node000001_Node000004" class="edge">
<title>Node1&#45;&gt;Node4</title>
<g id="a_edge3_Node000001_Node000004"><a xlink:title=" ">
<path fill="none" stroke="#8b1a1a" d="M177.38,-28.73C189.49,-26.05 201.46,-23.4 212.39,-20.99"/>
<polygon fill="#8b1a1a" stroke="#8b1a1a" points="176.74,-25.28 167.73,-30.86 178.25,-32.12 176.74,-25.28"/>
</a>
</g>
</g>
</g>
</svg>
