<?xml version="1.0" encoding="UTF-8" standalone="no"?>
<!DOCTYPE svg PUBLIC "-//W3C//DTD SVG 1.1//EN"
 "http://www.w3.org/Graphics/SVG/1.1/DTD/svg11.dtd">
<!-- Generated by graphviz version 12.0.0 (20240803.0821)
 -->
<!-- Title: proxsuite::proxqp::Results&lt; T &gt; Pages: 1 -->
<svg width="557pt" height="196pt"
 viewBox="0.00 0.00 557.25 196.25" xmlns="http://www.w3.org/2000/svg" xmlns:xlink="http://www.w3.org/1999/xlink">
<g id="graph0" class="graph" transform="scale(1 1) rotate(0) translate(4 192.25)">
<title>proxsuite::proxqp::Results&lt; T &gt;</title>
<!-- Node1 -->
<g id="Node000001" class="node">
<title>Node1</title>
<g id="a_Node000001"><a xlink:title="This class stores all the results of PROXQP solvers with sparse and dense backends.">
<polygon fill="#999999" stroke="#666666" points="549.25,-110.88 441.75,-110.88 441.75,-77.38 549.25,-77.38 549.25,-110.88"/>
<text text-anchor="start" x="449.75" y="-97.38" font-family="Helvetica,sans-Serif" font-size="10.00">proxsuite::proxqp::</text>
<text text-anchor="middle" x="495.5" y="-84.62" font-family="Helvetica,sans-Serif" font-size="10.00">Results&lt; T &gt;</text>
</a>
</g>
</g>
<!-- Node2 -->
<g id="Node000002" class="node">
<title>Node2</title>
<g id="a_Node000002"><a xlink:href="structproxsuite_1_1linalg_1_1veg_1_1Vec.html" target="_top" xlink:title=" ">
<polygon fill="white" stroke="#666666" points="313.5,-110.88 212.75,-110.88 212.75,-77.38 313.5,-77.38 313.5,-110.88"/>
<text text-anchor="start" x="220.75" y="-97.38" font-family="Helvetica,sans-Serif" font-size="10.00">proxsuite::linalg::</text>
<text text-anchor="middle" x="263.12" y="-84.62" font-family="Helvetica,sans-Serif" font-size="10.00">veg::Vec&lt; bool &gt;</text>
</a>
</g>
</g>
<!-- Node2&#45;&gt;Node1 -->
<g id="edge1_Node000001_Node000002" class="edge">
<title>Node2&#45;&gt;Node1</title>
<g id="a_edge1_Node000001_Node000002"><a xlink:title=" ">
<path fill="none" stroke="#9a32cd" stroke-dasharray="5,2" d="M325.21,-94.12C361.32,-94.12 406.62,-94.12 441.27,-94.12"/>
<polygon fill="#9a32cd" stroke="#9a32cd" points="325.34,-90.63 315.34,-94.13 325.34,-97.63 325.34,-90.63"/>
</a>
</g>
<text text-anchor="middle" x="377.62" y="-97.38" font-family="Helvetica,sans-Serif" font-size="10.00" fill="grey"> active_constraints</text>
</g>
<!-- Node3 -->
<g id="Node000003" class="node">
<title>Node3</title>
<g id="a_Node000003"><a xlink:href="structproxsuite_1_1linalg_1_1veg_1_1__detail_1_1__vector_1_1adl_1_1AdlBase.html" target="_top" xlink:title=" ">
<polygon fill="white" stroke="#666666" points="145.38,-188.25 30.38,-188.25 30.38,-142 145.38,-142 145.38,-188.25"/>
<text text-anchor="start" x="38.38" y="-174.75" font-family="Helvetica,sans-Serif" font-size="10.00">proxsuite::linalg::</text>
<text text-anchor="start" x="38.38" y="-162" font-family="Helvetica,sans-Serif" font-size="10.00">veg::_detail::_vector</text>
<text text-anchor="middle" x="87.88" y="-149.25" font-family="Helvetica,sans-Serif" font-size="10.00">::adl::AdlBase</text>
</a>
</g>
</g>
<!-- Node3&#45;&gt;Node2 -->
<g id="edge2_Node000002_Node000003" class="edge">
<title>Node3&#45;&gt;Node2</title>
<g id="a_edge2_Node000002_Node000003"><a xlink:title=" ">
<path fill="none" stroke="#8b1a1a" d="M156.1,-140.91C162.76,-138.34 169.4,-135.72 175.75,-133.12 192.35,-126.33 210.47,-118.25 225.81,-111.21"/>
<polygon fill="#8b1a1a" stroke="#8b1a1a" points="155.17,-137.52 147.06,-144.34 157.65,-144.06 155.17,-137.52"/>
</a>
</g>
</g>
<!-- Node4 -->
<g id="Node000004" class="node">
<title>Node4</title>
<g id="a_Node000004"><a xlink:title=" ">
<polygon fill="white" stroke="#666666" points="175.75,-123.62 0,-123.62 0,-64.62 175.75,-64.62 175.75,-123.62"/>
<text text-anchor="start" x="8" y="-110.12" font-family="Helvetica,sans-Serif" font-size="10.00">meta::if_t&lt; mem::CopyAvailable</text>
<text text-anchor="start" x="8" y="-97.38" font-family="Helvetica,sans-Serif" font-size="10.00">For&lt;bool &gt;::value ==mem::</text>
<text text-anchor="start" x="8" y="-84.62" font-family="Helvetica,sans-Serif" font-size="10.00">CopyAvailable::no, _detail</text>
<text text-anchor="middle" x="87.88" y="-71.88" font-family="Helvetica,sans-Serif" font-size="10.00">::NoCopy, _detail::Empty &gt;</text>
</a>
</g>
</g>
<!-- Node4&#45;&gt;Node2 -->
<g id="edge3_Node000002_Node000004" class="edge">
<title>Node4&#45;&gt;Node2</title>
<g id="a_edge3_Node000002_Node000004"><a xlink:title=" ">
<path fill="none" stroke="#8b1a1a" d="M187.37,-94.12C195.97,-94.12 204.41,-94.12 212.34,-94.12"/>
<polygon fill="#8b1a1a" stroke="#8b1a1a" points="187.52,-90.63 177.52,-94.13 187.52,-97.63 187.52,-90.63"/>
</a>
</g>
</g>
<!-- Node5 -->
<g id="Node000005" class="node">
<title>Node5</title>
<g id="a_Node000005"><a xlink:href="structproxsuite_1_1linalg_1_1veg_1_1__detail_1_1__collections_1_1VecImpl.html" target="_top" xlink:title=" ">
<polygon fill="white" stroke="#666666" points="167.88,-46.25 7.88,-46.25 7.88,0 167.88,0 167.88,-46.25"/>
<text text-anchor="start" x="15.88" y="-32.75" font-family="Helvetica,sans-Serif" font-size="10.00">proxsuite::linalg::</text>
<text text-anchor="start" x="15.88" y="-20" font-family="Helvetica,sans-Serif" font-size="10.00">veg::_detail::_collections</text>
<text text-anchor="middle" x="87.88" y="-7.25" font-family="Helvetica,sans-Serif" font-size="10.00">::VecImpl&lt; T, A, Dtor, Copy &gt;</text>
</a>
</g>
</g>
<!-- Node5&#45;&gt;Node2 -->
<g id="edge4_Node000002_Node000005" class="edge">
<title>Node5&#45;&gt;Node2</title>
<g id="a_edge4_Node000002_Node000005"><a xlink:title=" ">
<path fill="none" stroke="#63b8ff" d="M162.59,-50.83C167.05,-52.6 171.47,-54.37 175.75,-56.12 191.82,-62.71 209.39,-70.35 224.46,-77.05"/>
<polygon fill="#63b8ff" stroke="#63b8ff" points="164.13,-47.67 153.54,-47.27 161.57,-54.18 164.13,-47.67"/>
</a>
</g>
</g>
</g>
</svg>
