<?xml version="1.0" encoding="UTF-8" standalone="no"?>
<!DOCTYPE svg PUBLIC "-//W3C//DTD SVG 1.1//EN"
 "http://www.w3.org/Graphics/SVG/1.1/DTD/svg11.dtd">
<!-- Generated by graphviz version 12.0.0 (20240803.0821)
 -->
<!-- Title: proxsuite::linalg::veg::_detail::_collections::AllocCleanup&lt; A &gt; Pages: 1 -->
<svg width="259pt" height="207pt"
 viewBox="0.00 0.00 259.12 207.00" xmlns="http://www.w3.org/2000/svg" xmlns:xlink="http://www.w3.org/1999/xlink">
<g id="graph0" class="graph" transform="scale(1 1) rotate(0) translate(4 203)">
<title>proxsuite::linalg::veg::_detail::_collections::AllocCleanup&lt; A &gt;</title>
<!-- Node1 -->
<g id="Node000001" class="node">
<title>Node1</title>
<g id="a_Node000001"><a xlink:title=" ">
<polygon fill="#999999" stroke="#666666" points="205.25,-46.25 68.5,-46.25 68.5,0 205.25,0 205.25,-46.25"/>
<text text-anchor="start" x="76.5" y="-32.75" font-family="Helvetica,sans-Serif" font-size="10.00">proxsuite::linalg::</text>
<text text-anchor="start" x="76.5" y="-20" font-family="Helvetica,sans-Serif" font-size="10.00">veg::_detail::_collections</text>
<text text-anchor="middle" x="136.88" y="-7.25" font-family="Helvetica,sans-Serif" font-size="10.00">::AllocCleanup&lt; A &gt;</text>
</a>
</g>
</g>
<!-- Node2 -->
<g id="Node000002" class="node">
<title>Node2</title>
<g id="a_Node000002"><a xlink:href="structproxsuite_1_1linalg_1_1veg_1_1RefMut.html" target="_top" xlink:title=" ">
<polygon fill="white" stroke="#666666" points="128.12,-128.5 23.62,-128.5 23.62,-95 128.12,-95 128.12,-128.5"/>
<text text-anchor="start" x="31.62" y="-115" font-family="Helvetica,sans-Serif" font-size="10.00">proxsuite::linalg::</text>
<text text-anchor="middle" x="75.88" y="-102.25" font-family="Helvetica,sans-Serif" font-size="10.00">veg::RefMut&lt; A &gt;</text>
</a>
</g>
</g>
<!-- Node2&#45;&gt;Node1 -->
<g id="edge1_Node000001_Node000002" class="edge">
<title>Node2&#45;&gt;Node1</title>
<g id="a_edge1_Node000001_Node000002"><a xlink:title=" ">
<path fill="none" stroke="#9a32cd" stroke-dasharray="5,2" d="M93.62,-85.55C102.33,-73.18 112.74,-58.4 121.16,-46.44"/>
<polygon fill="#9a32cd" stroke="#9a32cd" points="90.83,-83.43 87.93,-93.62 96.55,-87.46 90.83,-83.43"/>
</a>
</g>
<text text-anchor="middle" x="122" y="-67.5" font-family="Helvetica,sans-Serif" font-size="10.00" fill="grey"> alloc</text>
</g>
<!-- Node3 -->
<g id="Node000003" class="node">
<title>Node3</title>
<g id="a_Node000003"><a xlink:href="structproxsuite_1_1linalg_1_1veg_1_1cmp_1_1mut_1_1RefMutBase.html" target="_top" xlink:title=" ">
<polygon fill="white" stroke="#666666" points="151.75,-199 0,-199 0,-165.5 151.75,-165.5 151.75,-199"/>
<text text-anchor="start" x="8" y="-185.5" font-family="Helvetica,sans-Serif" font-size="10.00">proxsuite::linalg::</text>
<text text-anchor="middle" x="75.88" y="-172.75" font-family="Helvetica,sans-Serif" font-size="10.00">veg::cmp::mut::RefMutBase</text>
</a>
</g>
</g>
<!-- Node3&#45;&gt;Node2 -->
<g id="edge2_Node000002_Node000003" class="edge">
<title>Node3&#45;&gt;Node2</title>
<g id="a_edge2_Node000002_Node000003"><a xlink:title=" ">
<path fill="none" stroke="#63b8ff" d="M75.88,-153.7C75.88,-145.27 75.88,-136.27 75.88,-128.87"/>
<polygon fill="#63b8ff" stroke="#63b8ff" points="72.38,-153.5 75.88,-163.5 79.38,-153.5 72.38,-153.5"/>
</a>
</g>
</g>
<!-- Node4 -->
<g id="Node000004" class="node">
<title>Node4</title>
<g id="a_Node000004"><a xlink:href="structproxsuite_1_1linalg_1_1veg_1_1mem_1_1Layout.html" target="_top" xlink:title=" ">
<polygon fill="white" stroke="#666666" points="251.12,-128.5 146.62,-128.5 146.62,-95 251.12,-95 251.12,-128.5"/>
<text text-anchor="start" x="154.62" y="-115" font-family="Helvetica,sans-Serif" font-size="10.00">proxsuite::linalg::</text>
<text text-anchor="middle" x="198.88" y="-102.25" font-family="Helvetica,sans-Serif" font-size="10.00">veg::mem::Layout</text>
</a>
</g>
</g>
<!-- Node4&#45;&gt;Node1 -->
<g id="edge3_Node000001_Node000004" class="edge">
<title>Node4&#45;&gt;Node1</title>
<g id="a_edge3_Node000001_Node000004"><a xlink:title=" ">
<path fill="none" stroke="#9a32cd" stroke-dasharray="5,2" d="M180.84,-85.55C171.98,-73.18 161.41,-58.4 152.84,-46.44"/>
<polygon fill="#9a32cd" stroke="#9a32cd" points="177.96,-87.54 186.62,-93.63 183.65,-83.46 177.96,-87.54"/>
</a>
</g>
<text text-anchor="middle" x="189.75" y="-67.5" font-family="Helvetica,sans-Serif" font-size="10.00" fill="grey"> layout</text>
</g>
</g>
</svg>
