<?xml version="1.0" encoding="UTF-8" standalone="no"?>
<!DOCTYPE svg PUBLIC "-//W3C//DTD SVG 1.1//EN"
 "http://www.w3.org/Graphics/SVG/1.1/DTD/svg11.dtd">
<!-- Generated by graphviz version 7.0.6 (20230107.1202)
 -->
<!-- Title: proxsuite::proxqp::sparse::Workspace&lt; T, I &gt; Pages: 1 -->
<svg width="752pt" height="443pt"
 viewBox="0.00 0.00 752.00 442.50" xmlns="http://www.w3.org/2000/svg" xmlns:xlink="http://www.w3.org/1999/xlink">
<g id="graph0" class="graph" transform="scale(1 1) rotate(0) translate(4 438.5)">
<title>proxsuite::proxqp::sparse::Workspace&lt; T, I &gt;</title>
<!-- Node1 -->
<g id="node1" class="node">
<title>Node1</title>
<g id="a_node1"><a xlink:title="This class defines the workspace of the sparse solver.">
<polygon fill="#999999" stroke="#666666" points="744,-200 598,-200 598,-170 744,-170 744,-200"/>
<text text-anchor="start" x="606" y="-188" font-family="Helvetica,sans-Serif" font-size="10.00">proxsuite::proxqp::</text>
<text text-anchor="middle" x="671" y="-177" font-family="Helvetica,sans-Serif" font-size="10.00">sparse::Workspace&lt; T, I &gt;</text>
</a>
</g>
</g>
<!-- Node2 -->
<g id="node2" class="node">
<title>Node2</title>
<g id="a_node2"><a xlink:href="structproxsuite_1_1linalg_1_1veg_1_1Vec.html" target="_top" xlink:title=" ">
<polygon fill="white" stroke="#666666" points="427.5,-351.5 283.5,-351.5 283.5,-310.5 427.5,-310.5 427.5,-351.5"/>
<text text-anchor="start" x="291.5" y="-339.5" font-family="Helvetica,sans-Serif" font-size="10.00">proxsuite::linalg::</text>
<text text-anchor="start" x="291.5" y="-328.5" font-family="Helvetica,sans-Serif" font-size="10.00">veg::Vec&lt; proxsuite</text>
<text text-anchor="middle" x="355.5" y="-317.5" font-family="Helvetica,sans-Serif" font-size="10.00">::linalg::veg::mem::byte &gt;</text>
</a>
</g>
</g>
<!-- Node2&#45;&gt;Node1 -->
<g id="edge1" class="edge">
<title>Node2&#45;&gt;Node1</title>
<path fill="none" stroke="#9a32cd" stroke-dasharray="5,2" d="M438.81,-313.3C482.49,-301.86 536.06,-284.47 580,-260 609.5,-243.57 638.58,-216.91 655.39,-200.2"/>
<polygon fill="#9a32cd" stroke="#9a32cd" points="438.21,-309.84 429.39,-315.71 439.95,-316.62 438.21,-309.84"/>
<text text-anchor="middle" x="532" y="-302" font-family="Helvetica,sans-Serif" font-size="10.00"> storage</text>
</g>
<!-- Node3 -->
<g id="node3" class="node">
<title>Node3</title>
<g id="a_node3"><a xlink:href="structproxsuite_1_1linalg_1_1veg_1_1__detail_1_1__vector_1_1adl_1_1AdlBase.html" target="_top" xlink:title=" ">
<polygon fill="white" stroke="#666666" points="162,-294.5 46,-294.5 46,-253.5 162,-253.5 162,-294.5"/>
<text text-anchor="start" x="54" y="-282.5" font-family="Helvetica,sans-Serif" font-size="10.00">proxsuite::linalg::</text>
<text text-anchor="start" x="54" y="-271.5" font-family="Helvetica,sans-Serif" font-size="10.00">veg::_detail::_vector</text>
<text text-anchor="middle" x="104" y="-260.5" font-family="Helvetica,sans-Serif" font-size="10.00">::adl::AdlBase</text>
</a>
</g>
</g>
<!-- Node3&#45;&gt;Node2 -->
<g id="edge2" class="edge">
<title>Node3&#45;&gt;Node2</title>
<path fill="none" stroke="#8b1a1a" d="M173.07,-289.55C207.25,-297.36 248.63,-306.81 283.25,-314.72"/>
<polygon fill="#8b1a1a" stroke="#8b1a1a" points="174.24,-286.23 163.72,-287.41 172.69,-293.05 174.24,-286.23"/>
</g>
<!-- Node6 -->
<g id="node6" class="node">
<title>Node6</title>
<g id="a_node6"><a xlink:href="structproxsuite_1_1linalg_1_1veg_1_1Vec.html" target="_top" xlink:title=" ">
<polygon fill="white" stroke="#666666" points="406,-289 305,-289 305,-259 406,-259 406,-289"/>
<text text-anchor="start" x="313" y="-277" font-family="Helvetica,sans-Serif" font-size="10.00">proxsuite::linalg::</text>
<text text-anchor="middle" x="355.5" y="-266" font-family="Helvetica,sans-Serif" font-size="10.00">veg::Vec&lt; I &gt;</text>
</a>
</g>
</g>
<!-- Node3&#45;&gt;Node6 -->
<g id="edge6" class="edge">
<title>Node3&#45;&gt;Node6</title>
<path fill="none" stroke="#8b1a1a" d="M173.65,-274C215.16,-274 267.13,-274 304.7,-274"/>
<polygon fill="#8b1a1a" stroke="#8b1a1a" points="173.75,-270.5 163.75,-274 173.75,-277.5 173.75,-270.5"/>
</g>
<!-- Node11 -->
<g id="node11" class="node">
<title>Node11</title>
<g id="a_node11"><a xlink:href="structproxsuite_1_1linalg_1_1veg_1_1Vec.html" target="_top" xlink:title=" ">
<polygon fill="white" stroke="#666666" points="406,-100 305,-100 305,-70 406,-70 406,-100"/>
<text text-anchor="start" x="313" y="-88" font-family="Helvetica,sans-Serif" font-size="10.00">proxsuite::linalg::</text>
<text text-anchor="middle" x="355.5" y="-77" font-family="Helvetica,sans-Serif" font-size="10.00">veg::Vec&lt; bool &gt;</text>
</a>
</g>
</g>
<!-- Node3&#45;&gt;Node11 -->
<g id="edge12" class="edge">
<title>Node3&#45;&gt;Node11</title>
<path fill="none" stroke="#8b1a1a" d="M173.18,-265.42C186.08,-261.05 198.49,-254.58 208,-245 251.84,-200.86 200.07,-153.03 245,-110 260.77,-94.89 283.7,-88.22 304.51,-85.49"/>
<polygon fill="#8b1a1a" stroke="#8b1a1a" points="172.36,-262.01 163.74,-268.19 174.32,-268.73 172.36,-262.01"/>
</g>
<!-- Node4 -->
<g id="node4" class="node">
<title>Node4</title>
<g id="a_node4"><a xlink:title=" ">
<polygon fill="white" stroke="#666666" points="192,-434.5 16,-434.5 16,-371.5 192,-371.5 192,-434.5"/>
<text text-anchor="start" x="24" y="-422.5" font-family="Helvetica,sans-Serif" font-size="10.00">meta::if_t&lt; mem::CopyAvailable</text>
<text text-anchor="start" x="24" y="-411.5" font-family="Helvetica,sans-Serif" font-size="10.00">For&lt;proxsuite::linalg::veg</text>
<text text-anchor="start" x="24" y="-400.5" font-family="Helvetica,sans-Serif" font-size="10.00">::mem::byte &gt;::value ==mem</text>
<text text-anchor="start" x="24" y="-389.5" font-family="Helvetica,sans-Serif" font-size="10.00">::CopyAvailable::no, _detail</text>
<text text-anchor="middle" x="104" y="-378.5" font-family="Helvetica,sans-Serif" font-size="10.00">::NoCopy, _detail::Empty &gt;</text>
</a>
</g>
</g>
<!-- Node4&#45;&gt;Node2 -->
<g id="edge3" class="edge">
<title>Node4&#45;&gt;Node2</title>
<path fill="none" stroke="#8b1a1a" d="M203.21,-374.66C229.96,-366.94 258.42,-358.73 283.36,-351.53"/>
<polygon fill="#8b1a1a" stroke="#8b1a1a" points="202.35,-371.26 193.72,-377.4 204.3,-377.99 202.35,-371.26"/>
</g>
<!-- Node5 -->
<g id="node5" class="node">
<title>Node5</title>
<g id="a_node5"><a xlink:href="structproxsuite_1_1linalg_1_1veg_1_1__detail_1_1__collections_1_1VecImpl.html" target="_top" xlink:title=" ">
<polygon fill="white" stroke="#666666" points="184.5,-353.5 23.5,-353.5 23.5,-312.5 184.5,-312.5 184.5,-353.5"/>
<text text-anchor="start" x="31.5" y="-341.5" font-family="Helvetica,sans-Serif" font-size="10.00">proxsuite::linalg::</text>
<text text-anchor="start" x="31.5" y="-330.5" font-family="Helvetica,sans-Serif" font-size="10.00">veg::_detail::_collections</text>
<text text-anchor="middle" x="104" y="-319.5" font-family="Helvetica,sans-Serif" font-size="10.00">::VecImpl&lt; T, A, Dtor, Copy &gt;</text>
</a>
</g>
</g>
<!-- Node5&#45;&gt;Node2 -->
<g id="edge4" class="edge">
<title>Node5&#45;&gt;Node2</title>
<path fill="none" stroke="#63b8ff" d="M196.26,-332.27C225,-332.04 256.29,-331.79 283.4,-331.57"/>
<polygon fill="#63b8ff" stroke="#63b8ff" points="196.46,-328.77 186.49,-332.35 196.51,-335.77 196.46,-328.77"/>
</g>
<!-- Node6&#45;&gt;Node1 -->
<g id="edge5" class="edge">
<title>Node6&#45;&gt;Node1</title>
<path fill="none" stroke="#9a32cd" stroke-dasharray="5,2" d="M417.51,-261.92C462.84,-252.3 525.93,-237.57 580,-220 597.7,-214.25 616.97,-206.91 633.12,-200.43"/>
<polygon fill="#9a32cd" stroke="#9a32cd" points="416.93,-258.46 407.86,-263.94 418.37,-265.31 416.93,-258.46"/>
<text text-anchor="middle" x="532" y="-248" font-family="Helvetica,sans-Serif" font-size="10.00"> kkt_nnz_counts</text>
</g>
<!-- Node7 -->
<g id="node7" class="node">
<title>Node7</title>
<g id="a_node7"><a xlink:title=" ">
<polygon fill="white" stroke="#666666" points="208,-235.5 0,-235.5 0,-194.5 208,-194.5 208,-235.5"/>
<text text-anchor="start" x="8" y="-223.5" font-family="Helvetica,sans-Serif" font-size="10.00">meta::if_t&lt; mem::CopyAvailable</text>
<text text-anchor="start" x="8" y="-212.5" font-family="Helvetica,sans-Serif" font-size="10.00">For&lt;I &gt;::value ==mem::CopyAvailable</text>
<text text-anchor="middle" x="104" y="-201.5" font-family="Helvetica,sans-Serif" font-size="10.00">::no, _detail::NoCopy, _detail::Empty &gt;</text>
</a>
</g>
</g>
<!-- Node7&#45;&gt;Node6 -->
<g id="edge7" class="edge">
<title>Node7&#45;&gt;Node6</title>
<path fill="none" stroke="#8b1a1a" d="M197.86,-238.62C213.58,-242.5 229.74,-246.42 245,-250 264.42,-254.55 285.84,-259.31 304.55,-263.37"/>
<polygon fill="#8b1a1a" stroke="#8b1a1a" points="199.09,-235.32 188.54,-236.31 197.41,-242.11 199.09,-235.32"/>
</g>
<!-- Node8 -->
<g id="node8" class="node">
<title>Node8</title>
<g id="a_node8"><a xlink:href="structproxsuite_1_1linalg_1_1veg_1_1__detail_1_1__collections_1_1VecImpl.html" target="_top" xlink:title=" ">
<polygon fill="white" stroke="#666666" points="184.5,-176.5 23.5,-176.5 23.5,-135.5 184.5,-135.5 184.5,-176.5"/>
<text text-anchor="start" x="31.5" y="-164.5" font-family="Helvetica,sans-Serif" font-size="10.00">proxsuite::linalg::</text>
<text text-anchor="start" x="31.5" y="-153.5" font-family="Helvetica,sans-Serif" font-size="10.00">veg::_detail::_collections</text>
<text text-anchor="middle" x="104" y="-142.5" font-family="Helvetica,sans-Serif" font-size="10.00">::VecImpl&lt; T, A, Dtor, Copy &gt;</text>
</a>
</g>
</g>
<!-- Node8&#45;&gt;Node6 -->
<g id="edge8" class="edge">
<title>Node8&#45;&gt;Node6</title>
<path fill="none" stroke="#63b8ff" d="M195.08,-177.49C199.63,-180.02 203.98,-182.84 208,-186 233.85,-206.27 218.47,-230.61 245,-250 262.13,-262.52 284.52,-268.73 304.59,-271.73"/>
<polygon fill="#63b8ff" stroke="#63b8ff" points="196.7,-174.39 186.18,-173.09 193.59,-180.66 196.7,-174.39"/>
</g>
<!-- Node9 -->
<g id="node9" class="node">
<title>Node9</title>
<g id="a_node9"><a xlink:title=" ">
<polygon fill="white" stroke="#666666" points="428.5,-240.5 282.5,-240.5 282.5,-199.5 428.5,-199.5 428.5,-240.5"/>
<text text-anchor="start" x="290.5" y="-228.5" font-family="Helvetica,sans-Serif" font-size="10.00">std::unique_ptr&lt; proxsuite</text>
<text text-anchor="start" x="290.5" y="-217.5" font-family="Helvetica,sans-Serif" font-size="10.00">::proxqp::sparse::detail</text>
<text text-anchor="middle" x="355.5" y="-206.5" font-family="Helvetica,sans-Serif" font-size="10.00">::AugmentedKkt&lt; T, I &gt; &gt;</text>
</a>
</g>
</g>
<!-- Node9&#45;&gt;Node1 -->
<g id="edge9" class="edge">
<title>Node9&#45;&gt;Node1</title>
<path fill="none" stroke="#9a32cd" stroke-dasharray="5,2" d="M440.04,-210.67C489.1,-205.2 550.5,-198.34 597.5,-193.09"/>
<polygon fill="#9a32cd" stroke="#9a32cd" points="439.87,-207.17 430.32,-211.76 440.65,-214.13 439.87,-207.17"/>
<text text-anchor="middle" x="532" y="-208" font-family="Helvetica,sans-Serif" font-size="10.00"> matrix_free_kkt</text>
</g>
<!-- Node10 -->
<g id="node10" class="node">
<title>Node10</title>
<g id="a_node10"><a xlink:title=" ">
<polygon fill="white" stroke="#666666" points="466,-181.5 245,-181.5 245,-118.5 466,-118.5 466,-181.5"/>
<text text-anchor="start" x="253" y="-169.5" font-family="Helvetica,sans-Serif" font-size="10.00">std::unique_ptr&lt; Eigen</text>
<text text-anchor="start" x="253" y="-158.5" font-family="Helvetica,sans-Serif" font-size="10.00">::MINRES&lt; proxsuite::proxqp</text>
<text text-anchor="start" x="253" y="-147.5" font-family="Helvetica,sans-Serif" font-size="10.00">::sparse::detail::AugmentedKkt</text>
<text text-anchor="start" x="253" y="-136.5" font-family="Helvetica,sans-Serif" font-size="10.00">&lt; T, I &gt;, Eigen::Upper|Eigen</text>
<text text-anchor="middle" x="355.5" y="-125.5" font-family="Helvetica,sans-Serif" font-size="10.00">::Lower, Eigen::IdentityPreconditioner &gt; &gt;</text>
</a>
</g>
</g>
<!-- Node10&#45;&gt;Node1 -->
<g id="edge10" class="edge">
<title>Node10&#45;&gt;Node1</title>
<path fill="none" stroke="#9a32cd" stroke-dasharray="5,2" d="M477.5,-163.51C518.1,-168.04 562.09,-172.95 597.75,-176.93"/>
<polygon fill="#9a32cd" stroke="#9a32cd" points="477.98,-160.04 467.65,-162.41 477.2,-167 477.98,-160.04"/>
<text text-anchor="middle" x="532" y="-177" font-family="Helvetica,sans-Serif" font-size="10.00"> matrix_free_solver</text>
</g>
<!-- Node11&#45;&gt;Node1 -->
<g id="edge11" class="edge">
<title>Node11&#45;&gt;Node1</title>
<path fill="none" stroke="#9a32cd" stroke-dasharray="5,2" d="M417.21,-97.67C433.17,-101.32 450.3,-105.54 466,-110 517.51,-124.65 529.79,-130.38 580,-149 597.36,-155.44 616.41,-162.99 632.51,-169.51"/>
<polygon fill="#9a32cd" stroke="#9a32cd" points="418.39,-94.34 407.86,-95.56 416.85,-101.17 418.39,-94.34"/>
<text text-anchor="middle" x="532" y="-152" font-family="Helvetica,sans-Serif" font-size="10.00"> active_inequalities</text>
</g>
<!-- Node12 -->
<g id="node12" class="node">
<title>Node12</title>
<g id="a_node12"><a xlink:title=" ">
<polygon fill="white" stroke="#666666" points="192,-52 16,-52 16,0 192,0 192,-52"/>
<text text-anchor="start" x="24" y="-40" font-family="Helvetica,sans-Serif" font-size="10.00">meta::if_t&lt; mem::CopyAvailable</text>
<text text-anchor="start" x="24" y="-29" font-family="Helvetica,sans-Serif" font-size="10.00">For&lt;bool &gt;::value ==mem::</text>
<text text-anchor="start" x="24" y="-18" font-family="Helvetica,sans-Serif" font-size="10.00">CopyAvailable::no, _detail</text>
<text text-anchor="middle" x="104" y="-7" font-family="Helvetica,sans-Serif" font-size="10.00">::NoCopy, _detail::Empty &gt;</text>
</a>
</g>
</g>
<!-- Node12&#45;&gt;Node11 -->
<g id="edge13" class="edge">
<title>Node12&#45;&gt;Node11</title>
<path fill="none" stroke="#8b1a1a" d="M203.45,-50.09C217.39,-53.45 231.55,-56.83 245,-60 264.45,-64.58 285.88,-69.5 304.59,-73.76"/>
<polygon fill="#8b1a1a" stroke="#8b1a1a" points="204.35,-46.71 193.8,-47.76 202.7,-53.51 204.35,-46.71"/>
</g>
<!-- Node13 -->
<g id="node13" class="node">
<title>Node13</title>
<g id="a_node13"><a xlink:href="structproxsuite_1_1linalg_1_1veg_1_1__detail_1_1__collections_1_1VecImpl.html" target="_top" xlink:title=" ">
<polygon fill="white" stroke="#666666" points="184.5,-111.5 23.5,-111.5 23.5,-70.5 184.5,-70.5 184.5,-111.5"/>
<text text-anchor="start" x="31.5" y="-99.5" font-family="Helvetica,sans-Serif" font-size="10.00">proxsuite::linalg::</text>
<text text-anchor="start" x="31.5" y="-88.5" font-family="Helvetica,sans-Serif" font-size="10.00">veg::_detail::_collections</text>
<text text-anchor="middle" x="104" y="-77.5" font-family="Helvetica,sans-Serif" font-size="10.00">::VecImpl&lt; T, A, Dtor, Copy &gt;</text>
</a>
</g>
</g>
<!-- Node13&#45;&gt;Node11 -->
<g id="edge14" class="edge">
<title>Node13&#45;&gt;Node11</title>
<path fill="none" stroke="#63b8ff" d="M196.2,-88.81C232.87,-87.93 273.71,-86.94 304.72,-86.2"/>
<polygon fill="#63b8ff" stroke="#63b8ff" points="196.4,-85.3 186.49,-89.04 196.57,-92.3 196.4,-85.3"/>
</g>
<!-- Node14 -->
<g id="node14" class="node">
<title>Node14</title>
<g id="a_node14"><a xlink:title=" ">
<polygon fill="white" stroke="#666666" points="375,-51.5 336,-51.5 336,-32.5 375,-32.5 375,-51.5"/>
<text text-anchor="middle" x="355.5" y="-39.5" font-family="Helvetica,sans-Serif" font-size="10.00">isize</text>
</a>
</g>
</g>
<!-- Node14&#45;&gt;Node1 -->
<g id="edge15" class="edge">
<title>Node14&#45;&gt;Node1</title>
<path fill="none" stroke="#9a32cd" stroke-dasharray="5,2" d="M386.54,-44.33C431.53,-48.98 517.76,-62.42 580,-100 611.64,-119.11 641.39,-150.91 657.51,-169.72"/>
<polygon fill="#9a32cd" stroke="#9a32cd" points="387.05,-40.86 376.76,-43.41 386.39,-47.83 387.05,-40.86"/>
<text text-anchor="middle" x="532" y="-103" font-family="Helvetica,sans-Serif" font-size="10.00"> lnnz</text>
</g>
</g>
</svg>
