<?xml version="1.0" encoding="UTF-8" standalone="no"?>
<!DOCTYPE svg PUBLIC "-//W3C//DTD SVG 1.1//EN"
 "http://www.w3.org/Graphics/SVG/1.1/DTD/svg11.dtd">
<!-- Generated by graphviz version 12.0.0 (20240803.0821)
 -->
<!-- Title: proxsuite::linalg::veg::_detail::_slice::adl::AdlBase Pages: 1 -->
<svg width="239pt" height="193pt"
 viewBox="0.00 0.00 238.62 193.25" xmlns="http://www.w3.org/2000/svg" xmlns:xlink="http://www.w3.org/1999/xlink">
<g id="graph0" class="graph" transform="scale(1 1) rotate(0) translate(4 189.25)">
<title>proxsuite::linalg::veg::_detail::_slice::adl::AdlBase</title>
<!-- Node1 -->
<g id="Node000001" class="node">
<title>Node1</title>
<g id="a_Node000001"><a xlink:title=" ">
<polygon fill="#999999" stroke="#666666" points="167.75,-185.25 61,-185.25 61,-139 167.75,-139 167.75,-185.25"/>
<text text-anchor="start" x="69" y="-171.75" font-family="Helvetica,sans-Serif" font-size="10.00">proxsuite::linalg::</text>
<text text-anchor="start" x="69" y="-159" font-family="Helvetica,sans-Serif" font-size="10.00">veg::_detail::_slice</text>
<text text-anchor="middle" x="114.38" y="-146.25" font-family="Helvetica,sans-Serif" font-size="10.00">::adl::AdlBase</text>
</a>
</g>
</g>
<!-- Node2 -->
<g id="Node000002" class="node">
<title>Node2</title>
<g id="a_Node000002"><a xlink:href="structproxsuite_1_1linalg_1_1veg_1_1Slice.html" target="_top" xlink:title=" ">
<polygon fill="white" stroke="#666666" points="106.75,-103 0,-103 0,-69.5 106.75,-69.5 106.75,-103"/>
<text text-anchor="start" x="8" y="-89.5" font-family="Helvetica,sans-Serif" font-size="10.00">proxsuite::linalg::</text>
<text text-anchor="middle" x="53.38" y="-76.75" font-family="Helvetica,sans-Serif" font-size="10.00">veg::Slice&lt; bool &gt;</text>
</a>
</g>
</g>
<!-- Node1&#45;&gt;Node2 -->
<g id="edge1_Node000001_Node000002" class="edge">
<title>Node1&#45;&gt;Node2</title>
<g id="a_edge1_Node000001_Node000002"><a xlink:title=" ">
<path fill="none" stroke="#63b8ff" d="M88.44,-129.71C80.93,-120.63 73.06,-111.08 66.67,-103.35"/>
<polygon fill="#63b8ff" stroke="#63b8ff" points="85.71,-131.91 94.78,-137.39 91.11,-127.45 85.71,-131.91"/>
</a>
</g>
</g>
<!-- Node3 -->
<g id="Node000003" class="node">
<title>Node3</title>
<g id="a_Node000003"><a xlink:href="structproxsuite_1_1linalg_1_1veg_1_1Slice.html" target="_top" xlink:title=" ">
<polygon fill="white" stroke="#666666" points="225.75,-103 125,-103 125,-69.5 225.75,-69.5 225.75,-103"/>
<text text-anchor="start" x="133" y="-89.5" font-family="Helvetica,sans-Serif" font-size="10.00">proxsuite::linalg::</text>
<text text-anchor="middle" x="175.38" y="-76.75" font-family="Helvetica,sans-Serif" font-size="10.00">veg::Slice&lt; T &gt;</text>
</a>
</g>
</g>
<!-- Node1&#45;&gt;Node3 -->
<g id="edge2_Node000001_Node000003" class="edge">
<title>Node1&#45;&gt;Node3</title>
<g id="a_edge2_Node000001_Node000003"><a xlink:title=" ">
<path fill="none" stroke="#63b8ff" d="M140.31,-129.71C147.82,-120.63 155.69,-111.08 162.08,-103.35"/>
<polygon fill="#63b8ff" stroke="#63b8ff" points="137.64,-127.45 133.97,-137.39 143.04,-131.91 137.64,-127.45"/>
</a>
</g>
</g>
<!-- Node4 -->
<g id="Node000004" class="node">
<title>Node4</title>
<g id="a_Node000004"><a xlink:href="structproxsuite_1_1linalg_1_1veg_1_1SliceMut.html" target="_top" xlink:title=" ">
<polygon fill="white" stroke="#666666" points="230.62,-33.5 120.12,-33.5 120.12,0 230.62,0 230.62,-33.5"/>
<text text-anchor="start" x="128.12" y="-20" font-family="Helvetica,sans-Serif" font-size="10.00">proxsuite::linalg::</text>
<text text-anchor="middle" x="175.38" y="-7.25" font-family="Helvetica,sans-Serif" font-size="10.00">veg::SliceMut&lt; T &gt;</text>
</a>
</g>
</g>
<!-- Node3&#45;&gt;Node4 -->
<g id="edge3_Node000003_Node000004" class="edge">
<title>Node3&#45;&gt;Node4</title>
<g id="a_edge3_Node000003_Node000004"><a xlink:title=" ">
<path fill="none" stroke="#8b1a1a" d="M175.38,-57.81C175.38,-49.59 175.38,-40.84 175.38,-33.63"/>
<polygon fill="#8b1a1a" stroke="#8b1a1a" points="171.88,-57.74 175.38,-67.74 178.88,-57.74 171.88,-57.74"/>
</a>
</g>
</g>
</g>
</svg>
