<?xml version="1.0" encoding="UTF-8" standalone="no"?>
<!DOCTYPE svg PUBLIC "-//W3C//DTD SVG 1.1//EN"
 "http://www.w3.org/Graphics/SVG/1.1/DTD/svg11.dtd">
<!-- Generated by graphviz version 6.0.1 (20220911.2005)
 -->
<!-- Title: proxsuite::proxqp::dense::QpViewBoxMut&lt; Scalar &gt; Pages: 1 -->
<svg width="458pt" height="101pt"
 viewBox="0.00 0.00 458.00 100.50" xmlns="http://www.w3.org/2000/svg" xmlns:xlink="http://www.w3.org/1999/xlink">
<g id="graph0" class="graph" transform="scale(1 1) rotate(0) translate(4 96.5)">
<title>proxsuite::proxqp::dense::QpViewBoxMut&lt; Scalar &gt;</title>
<!-- Node1 -->
<g id="node1" class="node">
<title>Node1</title>
<g id="a_node1"><a xlink:title=" ">
<polygon fill="#999999" stroke="#666666" points="450,-62.5 323,-62.5 323,-21.5 450,-21.5 450,-62.5"/>
<text text-anchor="start" x="331" y="-50.5" font-family="Helvetica,sans-Serif" font-size="10.00">proxsuite::proxqp::</text>
<text text-anchor="start" x="331" y="-39.5" font-family="Helvetica,sans-Serif" font-size="10.00">dense::QpViewBoxMut</text>
<text text-anchor="middle" x="386.5" y="-28.5" font-family="Helvetica,sans-Serif" font-size="10.00">&lt; Scalar &gt;</text>
</a>
</g>
</g>
<!-- Node2 -->
<g id="node2" class="node">
<title>Node2</title>
<g id="a_node2"><a xlink:href="structproxsuite_1_1proxqp_1_1MatrixViewMut.html" target="_top" xlink:title=" ">
<polygon fill="white" stroke="#666666" points="273,-92.5 138,-92.5 138,-51.5 273,-51.5 273,-92.5"/>
<text text-anchor="start" x="146" y="-80.5" font-family="Helvetica,sans-Serif" font-size="10.00">proxsuite::proxqp::</text>
<text text-anchor="start" x="146" y="-69.5" font-family="Helvetica,sans-Serif" font-size="10.00">MatrixViewMut&lt; Scalar,</text>
<text text-anchor="middle" x="205.5" y="-58.5" font-family="Helvetica,sans-Serif" font-size="10.00"> layout &gt;</text>
</a>
</g>
</g>
<!-- Node2&#45;&gt;Node1 -->
<g id="edge1" class="edge">
<title>Node2&#45;&gt;Node1</title>
<path fill="none" stroke="#9a32cd" stroke-dasharray="5,2" d="M283.2,-59.15C296.46,-56.92 310.11,-54.64 322.94,-52.48"/>
<polygon fill="#9a32cd" stroke="#9a32cd" points="282.44,-55.72 273.15,-60.83 283.59,-62.63 282.44,-55.72"/>
<text text-anchor="middle" x="300" y="-82" font-family="Helvetica,sans-Serif" font-size="10.00"> A</text>
<text text-anchor="middle" x="300" y="-71" font-family="Helvetica,sans-Serif" font-size="10.00">C</text>
<text text-anchor="middle" x="300" y="-60" font-family="Helvetica,sans-Serif" font-size="10.00">H</text>
</g>
<!-- Node3 -->
<g id="node3" class="node">
<title>Node3</title>
<g id="a_node3"><a xlink:title=" ">
<polygon fill="white" stroke="#666666" points="39,-51.5 0,-51.5 0,-32.5 39,-32.5 39,-51.5"/>
<text text-anchor="middle" x="19.5" y="-39.5" font-family="Helvetica,sans-Serif" font-size="10.00">isize</text>
</a>
</g>
</g>
<!-- Node3&#45;&gt;Node2 -->
<g id="edge2" class="edge">
<title>Node3&#45;&gt;Node2</title>
<path fill="none" stroke="#9a32cd" stroke-dasharray="5,2" d="M49.2,-46.68C72.82,-50.53 107.26,-56.15 137.7,-61.11"/>
<polygon fill="#9a32cd" stroke="#9a32cd" points="49.59,-43.2 39.16,-45.04 48.46,-50.11 49.59,-43.2"/>
<text text-anchor="middle" x="86.5" y="-82" font-family="Helvetica,sans-Serif" font-size="10.00"> cols</text>
<text text-anchor="middle" x="86.5" y="-71" font-family="Helvetica,sans-Serif" font-size="10.00">outer_stride</text>
<text text-anchor="middle" x="86.5" y="-60" font-family="Helvetica,sans-Serif" font-size="10.00">rows</text>
</g>
<!-- Node4 -->
<g id="node4" class="node">
<title>Node4</title>
<g id="a_node4"><a xlink:href="structproxsuite_1_1proxqp_1_1VectorViewMut.html" target="_top" xlink:title=" ">
<polygon fill="white" stroke="#666666" points="277,-30 134,-30 134,0 277,0 277,-30"/>
<text text-anchor="start" x="142" y="-18" font-family="Helvetica,sans-Serif" font-size="10.00">proxsuite::proxqp::</text>
<text text-anchor="middle" x="205.5" y="-7" font-family="Helvetica,sans-Serif" font-size="10.00">VectorViewMut&lt; Scalar &gt;</text>
</a>
</g>
</g>
<!-- Node3&#45;&gt;Node4 -->
<g id="edge4" class="edge">
<title>Node3&#45;&gt;Node4</title>
<path fill="none" stroke="#9a32cd" stroke-dasharray="5,2" d="M48.91,-32.89C51.63,-32.18 54.35,-31.54 57,-31 81.86,-25.95 109.43,-22.42 133.94,-19.98"/>
<polygon fill="#9a32cd" stroke="#9a32cd" points="47.94,-29.52 39.27,-35.62 49.85,-36.26 47.94,-29.52"/>
<text text-anchor="middle" x="86.5" y="-34" font-family="Helvetica,sans-Serif" font-size="10.00"> dim</text>
</g>
<!-- Node4&#45;&gt;Node1 -->
<g id="edge3" class="edge">
<title>Node4&#45;&gt;Node1</title>
<path fill="none" stroke="#9a32cd" stroke-dasharray="5,2" d="M287.2,-7.76C293.25,-8.18 299.24,-8.9 305,-10 317.56,-12.4 330.65,-16.74 342.54,-21.46"/>
<polygon fill="#9a32cd" stroke="#9a32cd" points="287.14,-4.26 277,-7.33 286.85,-11.25 287.14,-4.26"/>
<text text-anchor="middle" x="300" y="-46" font-family="Helvetica,sans-Serif" font-size="10.00"> b</text>
<text text-anchor="middle" x="300" y="-35" font-family="Helvetica,sans-Serif" font-size="10.00">g</text>
<text text-anchor="middle" x="300" y="-24" font-family="Helvetica,sans-Serif" font-size="10.00">l</text>
<text text-anchor="middle" x="300" y="-13" font-family="Helvetica,sans-Serif" font-size="10.00">u</text>
</g>
</g>
</svg>
