<?xml version="1.0" encoding="UTF-8" standalone="no"?>
<!DOCTYPE svg PUBLIC "-//W3C//DTD SVG 1.1//EN"
 "http://www.w3.org/Graphics/SVG/1.1/DTD/svg11.dtd">
<!-- Generated by graphviz version 11.0.0 (20240519.1550)
 -->
<!-- Title: tl::detail::optional_move_assign_base&lt; T, false &gt; Pages: 1 -->
<svg width="200pt" height="510pt"
 viewBox="0.00 0.00 200.38 509.50" xmlns="http://www.w3.org/2000/svg" xmlns:xlink="http://www.w3.org/1999/xlink">
<g id="graph0" class="graph" transform="scale(1 1) rotate(0) translate(4 505.5)">
<title>tl::detail::optional_move_assign_base&lt; T, false &gt;</title>
<!-- Node1 -->
<g id="Node000001" class="node">
<title>Node1</title>
<g id="a_Node000001"><a xlink:title=" ">
<polygon fill="#999999" stroke="#666666" points="181.62,-46.25 47.12,-46.25 47.12,0 181.62,0 181.62,-46.25"/>
<text text-anchor="start" x="55.12" y="-32.75" font-family="Helvetica,sans-Serif" font-size="10.00">tl::detail::optional</text>
<text text-anchor="start" x="55.12" y="-20" font-family="Helvetica,sans-Serif" font-size="10.00">_move_assign_base&lt; T,</text>
<text text-anchor="middle" x="114.38" y="-7.25" font-family="Helvetica,sans-Serif" font-size="10.00"> false &gt;</text>
</a>
</g>
</g>
<!-- Node2 -->
<g id="Node000002" class="node">
<title>Node2</title>
<g id="a_Node000002"><a xlink:href="structtl_1_1detail_1_1optional__copy__assign__base.html" target="_top" xlink:title=" ">
<polygon fill="white" stroke="#666666" points="179.38,-128.5 49.38,-128.5 49.38,-82.25 179.38,-82.25 179.38,-128.5"/>
<text text-anchor="start" x="57.38" y="-115" font-family="Helvetica,sans-Serif" font-size="10.00">tl::detail::optional</text>
<text text-anchor="start" x="57.38" y="-102.25" font-family="Helvetica,sans-Serif" font-size="10.00">_copy_assign_base&lt; T,</text>
<text text-anchor="middle" x="114.38" y="-89.5" font-family="Helvetica,sans-Serif" font-size="10.00"> bool &gt;</text>
</a>
</g>
</g>
<!-- Node2&#45;&gt;Node1 -->
<g id="edge1_Node000001_Node000002" class="edge">
<title>Node2&#45;&gt;Node1</title>
<g id="a_edge1_Node000001_Node000002"><a xlink:title=" ">
<path fill="none" stroke="#63b8ff" d="M114.38,-70.59C114.38,-62.5 114.38,-54.07 114.38,-46.64"/>
<polygon fill="#63b8ff" stroke="#63b8ff" points="110.88,-70.51 114.38,-80.51 117.88,-70.51 110.88,-70.51"/>
</a>
</g>
</g>
<!-- Node3 -->
<g id="Node000003" class="node">
<title>Node3</title>
<g id="a_Node000003"><a xlink:href="structtl_1_1detail_1_1optional__move__base.html" target="_top" xlink:title=" ">
<polygon fill="white" stroke="#666666" points="180.88,-198 47.88,-198 47.88,-164.5 180.88,-164.5 180.88,-198"/>
<text text-anchor="start" x="55.88" y="-184.5" font-family="Helvetica,sans-Serif" font-size="10.00">tl::detail::optional</text>
<text text-anchor="middle" x="114.38" y="-171.75" font-family="Helvetica,sans-Serif" font-size="10.00">_move_base&lt; T, bool &gt;</text>
</a>
</g>
</g>
<!-- Node3&#45;&gt;Node2 -->
<g id="edge2_Node000002_Node000003" class="edge">
<title>Node3&#45;&gt;Node2</title>
<g id="a_edge2_Node000002_Node000003"><a xlink:title=" ">
<path fill="none" stroke="#63b8ff" d="M114.38,-152.89C114.38,-144.96 114.38,-136.41 114.38,-128.82"/>
<polygon fill="#63b8ff" stroke="#63b8ff" points="110.88,-152.71 114.38,-162.71 117.88,-152.71 110.88,-152.71"/>
</a>
</g>
</g>
<!-- Node4 -->
<g id="Node000004" class="node">
<title>Node4</title>
<g id="a_Node000004"><a xlink:href="structtl_1_1detail_1_1optional__copy__base.html" target="_top" xlink:title=" ">
<polygon fill="white" stroke="#666666" points="178.62,-267.5 50.12,-267.5 50.12,-234 178.62,-234 178.62,-267.5"/>
<text text-anchor="start" x="58.12" y="-254" font-family="Helvetica,sans-Serif" font-size="10.00">tl::detail::optional</text>
<text text-anchor="middle" x="114.38" y="-241.25" font-family="Helvetica,sans-Serif" font-size="10.00">_copy_base&lt; T, bool &gt;</text>
</a>
</g>
</g>
<!-- Node4&#45;&gt;Node3 -->
<g id="edge3_Node000003_Node000004" class="edge">
<title>Node4&#45;&gt;Node3</title>
<g id="a_edge3_Node000003_Node000004"><a xlink:title=" ">
<path fill="none" stroke="#63b8ff" d="M114.38,-222.31C114.38,-214.09 114.38,-205.34 114.38,-198.13"/>
<polygon fill="#63b8ff" stroke="#63b8ff" points="110.88,-222.24 114.38,-232.24 117.88,-222.24 110.88,-222.24"/>
</a>
</g>
</g>
<!-- Node5 -->
<g id="Node000005" class="node">
<title>Node5</title>
<g id="a_Node000005"><a xlink:href="structtl_1_1detail_1_1optional__operations__base.html" target="_top" xlink:title=" ">
<polygon fill="white" stroke="#666666" points="179.38,-337 49.38,-337 49.38,-303.5 179.38,-303.5 179.38,-337"/>
<text text-anchor="start" x="57.38" y="-323.5" font-family="Helvetica,sans-Serif" font-size="10.00">tl::detail::optional</text>
<text text-anchor="middle" x="114.38" y="-310.75" font-family="Helvetica,sans-Serif" font-size="10.00">_operations_base&lt; T &gt;</text>
</a>
</g>
</g>
<!-- Node5&#45;&gt;Node4 -->
<g id="edge4_Node000004_Node000005" class="edge">
<title>Node5&#45;&gt;Node4</title>
<g id="a_edge4_Node000004_Node000005"><a xlink:title=" ">
<path fill="none" stroke="#63b8ff" d="M114.38,-291.81C114.38,-283.59 114.38,-274.84 114.38,-267.63"/>
<polygon fill="#63b8ff" stroke="#63b8ff" points="110.88,-291.74 114.38,-301.74 117.88,-291.74 110.88,-291.74"/>
</a>
</g>
</g>
<!-- Node6 -->
<g id="Node000006" class="node">
<title>Node6</title>
<g id="a_Node000006"><a xlink:href="structtl_1_1detail_1_1optional__storage__base.html" target="_top" xlink:title=" ">
<polygon fill="white" stroke="#666666" points="185.38,-406.5 43.38,-406.5 43.38,-373 185.38,-373 185.38,-406.5"/>
<text text-anchor="start" x="51.38" y="-393" font-family="Helvetica,sans-Serif" font-size="10.00">tl::detail::optional</text>
<text text-anchor="middle" x="114.38" y="-380.25" font-family="Helvetica,sans-Serif" font-size="10.00">_storage_base&lt; T, bool &gt;</text>
</a>
</g>
</g>
<!-- Node6&#45;&gt;Node5 -->
<g id="edge5_Node000005_Node000006" class="edge">
<title>Node6&#45;&gt;Node5</title>
<g id="a_edge5_Node000005_Node000006"><a xlink:title=" ">
<path fill="none" stroke="#63b8ff" d="M114.38,-361.31C114.38,-353.09 114.38,-344.34 114.38,-337.13"/>
<polygon fill="#63b8ff" stroke="#63b8ff" points="110.88,-361.24 114.38,-371.24 117.88,-361.24 110.88,-361.24"/>
</a>
</g>
</g>
<!-- Node7 -->
<g id="Node000007" class="node">
<title>Node7</title>
<g id="a_Node000007"><a xlink:href="structtl_1_1detail_1_1optional__storage__base_1_1dummy.html" target="_top" xlink:title=" ">
<polygon fill="white" stroke="#666666" points="130.75,-501.5 0,-501.5 0,-455.25 130.75,-455.25 130.75,-501.5"/>
<text text-anchor="start" x="8" y="-488" font-family="Helvetica,sans-Serif" font-size="10.00">tl::detail::optional</text>
<text text-anchor="start" x="8" y="-475.25" font-family="Helvetica,sans-Serif" font-size="10.00">_storage_base&lt; T, bool</text>
<text text-anchor="middle" x="65.38" y="-462.5" font-family="Helvetica,sans-Serif" font-size="10.00"> &gt;::dummy</text>
</a>
</g>
</g>
<!-- Node7&#45;&gt;Node6 -->
<g id="edge6_Node000006_Node000007" class="edge">
<title>Node7&#45;&gt;Node6</title>
<g id="a_edge6_Node000006_Node000007"><a xlink:title=" ">
<path fill="none" stroke="#9a32cd" stroke-dasharray="5,2" d="M76.15,-444.56C78.92,-437.73 82.18,-430.72 85.88,-424.5 89.55,-418.3 94.37,-412.1 99,-406.74"/>
<polygon fill="#9a32cd" stroke="#9a32cd" points="72.99,-443 72.73,-453.59 79.54,-445.48 72.99,-443"/>
</a>
</g>
<text text-anchor="middle" x="113.12" y="-427.75" font-family="Helvetica,sans-Serif" font-size="10.00" fill="grey"> m_dummy</text>
</g>
<!-- Node8 -->
<g id="Node000008" class="node">
<title>Node8</title>
<g id="a_Node000008"><a xlink:title=" ">
<polygon fill="white" stroke="#666666" points="177.78,-488.75 148.97,-488.75 148.97,-468 177.78,-468 177.78,-488.75"/>
<text text-anchor="middle" x="163.38" y="-475.25" font-family="Helvetica,sans-Serif" font-size="10.00">T</text>
</a>
</g>
</g>
<!-- Node8&#45;&gt;Node6 -->
<g id="edge7_Node000006_Node000008" class="edge">
<title>Node8&#45;&gt;Node6</title>
<g id="a_edge7_Node000006_Node000008"><a xlink:title=" ">
<path fill="none" stroke="#9a32cd" stroke-dasharray="5,2" d="M156.43,-456.98C152.61,-446.89 147.42,-434.71 141.38,-424.5 137.78,-418.43 133.19,-412.27 128.81,-406.9"/>
<polygon fill="#9a32cd" stroke="#9a32cd" points="153.06,-457.98 159.74,-466.21 159.65,-455.61 153.06,-457.98"/>
</a>
</g>
<text text-anchor="middle" x="169.88" y="-427.75" font-family="Helvetica,sans-Serif" font-size="10.00" fill="grey"> m_value</text>
</g>
</g>
</svg>
