<?xml version="1.0" encoding="UTF-8" standalone="no"?>
<!DOCTYPE svg PUBLIC "-//W3C//DTD SVG 1.1//EN"
 "http://www.w3.org/Graphics/SVG/1.1/DTD/svg11.dtd">
<!-- Generated by graphviz version 12.2.1 (20250203.1708)
 -->
<!-- Title: proxsuite::linalg::sparse::SliceMut&lt; T &gt; Pages: 1 -->
<svg width="133pt" height="193pt"
 viewBox="0.00 0.00 132.75 193.25" xmlns="http://www.w3.org/2000/svg" xmlns:xlink="http://www.w3.org/1999/xlink">
<g id="graph0" class="graph" transform="scale(1 1) rotate(0) translate(4 189.25)">
<title>proxsuite::linalg::sparse::SliceMut&lt; T &gt;</title>
<!-- Node1 -->
<g id="Node000001" class="node">
<title>Node1</title>
<g id="a_Node000001"><a xlink:title=" ">
<polygon fill="#999999" stroke="#666666" points="124.75,-33.5 0,-33.5 0,0 124.75,0 124.75,-33.5"/>
<text text-anchor="start" x="8" y="-20" font-family="Helvetica,sans-Serif" font-size="10.00">proxsuite::linalg::</text>
<text text-anchor="middle" x="62.38" y="-7.25" font-family="Helvetica,sans-Serif" font-size="10.00">sparse::SliceMut&lt; T &gt;</text>
</a>
</g>
</g>
<!-- Node2 -->
<g id="Node000002" class="node">
<title>Node2</title>
<g id="a_Node000002"><a xlink:href="structproxsuite_1_1linalg_1_1veg_1_1Slice.html" target="_top" xlink:title=" ">
<polygon fill="white" stroke="#666666" points="112.75,-103 12,-103 12,-69.5 112.75,-69.5 112.75,-103"/>
<text text-anchor="start" x="20" y="-89.5" font-family="Helvetica,sans-Serif" font-size="10.00">proxsuite::linalg::</text>
<text text-anchor="middle" x="62.38" y="-76.75" font-family="Helvetica,sans-Serif" font-size="10.00">veg::Slice&lt; T &gt;</text>
</a>
</g>
</g>
<!-- Node2&#45;&gt;Node1 -->
<g id="edge1_Node000001_Node000002" class="edge">
<title>Node2&#45;&gt;Node1</title>
<g id="a_edge1_Node000001_Node000002"><a xlink:title=" ">
<path fill="none" stroke="#8b1a1a" d="M62.38,-57.81C62.38,-49.59 62.38,-40.84 62.38,-33.63"/>
<polygon fill="#8b1a1a" stroke="#8b1a1a" points="58.88,-57.74 62.38,-67.74 65.88,-57.74 58.88,-57.74"/>
</a>
</g>
</g>
<!-- Node3 -->
<g id="Node000003" class="node">
<title>Node3</title>
<g id="a_Node000003"><a xlink:href="structproxsuite_1_1linalg_1_1veg_1_1__detail_1_1__slice_1_1adl_1_1AdlBase.html" target="_top" xlink:title=" ">
<polygon fill="white" stroke="#666666" points="115.75,-185.25 9,-185.25 9,-139 115.75,-139 115.75,-185.25"/>
<text text-anchor="start" x="17" y="-171.75" font-family="Helvetica,sans-Serif" font-size="10.00">proxsuite::linalg::</text>
<text text-anchor="start" x="17" y="-159" font-family="Helvetica,sans-Serif" font-size="10.00">veg::_detail::_slice</text>
<text text-anchor="middle" x="62.38" y="-146.25" font-family="Helvetica,sans-Serif" font-size="10.00">::adl::AdlBase</text>
</a>
</g>
</g>
<!-- Node3&#45;&gt;Node2 -->
<g id="edge2_Node000002_Node000003" class="edge">
<title>Node3&#45;&gt;Node2</title>
<g id="a_edge2_Node000002_Node000003"><a xlink:title=" ">
<path fill="none" stroke="#63b8ff" d="M62.38,-127.14C62.38,-118.85 62.38,-110.36 62.38,-103.35"/>
<polygon fill="#63b8ff" stroke="#63b8ff" points="58.88,-127.05 62.38,-137.05 65.88,-127.05 58.88,-127.05"/>
</a>
</g>
</g>
</g>
</svg>
