<?xml version="1.0" encoding="UTF-8" standalone="no"?>
<!DOCTYPE svg PUBLIC "-//W3C//DTD SVG 1.1//EN"
 "http://www.w3.org/Graphics/SVG/1.1/DTD/svg11.dtd">
<!-- Generated by graphviz version 6.0.2 (20221126.1951)
 -->
<!-- Title: proxsuite::linalg::veg::_detail::_collections::DestroyImpl&lt; false &gt; Pages: 1 -->
<svg width="160pt" height="204pt"
 viewBox="0.00 0.00 160.00 204.00" xmlns="http://www.w3.org/2000/svg" xmlns:xlink="http://www.w3.org/1999/xlink">
<g id="graph0" class="graph" transform="scale(1 1) rotate(0) translate(4 200)">
<title>proxsuite::linalg::veg::_detail::_collections::DestroyImpl&lt; false &gt;</title>
<!-- Node1 -->
<g id="node1" class="node">
<title>Node1</title>
<g id="a_node1"><a xlink:title=" ">
<polygon fill="#999999" stroke="#666666" points="144.5,-41 7.5,-41 7.5,0 144.5,0 144.5,-41"/>
<text text-anchor="start" x="15.5" y="-29" font-family="Helvetica,sans-Serif" font-size="10.00">proxsuite::linalg::</text>
<text text-anchor="start" x="15.5" y="-18" font-family="Helvetica,sans-Serif" font-size="10.00">veg::_detail::_collections</text>
<text text-anchor="middle" x="76" y="-7" font-family="Helvetica,sans-Serif" font-size="10.00">::DestroyImpl&lt; false &gt;</text>
</a>
</g>
</g>
<!-- Node2 -->
<g id="node2" class="node">
<title>Node2</title>
<g id="a_node2"><a xlink:href="structproxsuite_1_1linalg_1_1veg_1_1RefMut.html" target="_top" xlink:title=" ">
<polygon fill="white" stroke="#666666" points="128.5,-129 23.5,-129 23.5,-99 128.5,-99 128.5,-129"/>
<text text-anchor="start" x="31.5" y="-117" font-family="Helvetica,sans-Serif" font-size="10.00">proxsuite::linalg::</text>
<text text-anchor="middle" x="76" y="-106" font-family="Helvetica,sans-Serif" font-size="10.00">veg::RefMut&lt; C &gt;</text>
</a>
</g>
</g>
<!-- Node2&#45;&gt;Node1 -->
<g id="edge1" class="edge">
<title>Node2&#45;&gt;Node1</title>
<path fill="none" stroke="#9a32cd" stroke-dasharray="5,2" d="M76,-88.69C76,-73.82 76,-55.05 76,-41.13"/>
<polygon fill="#9a32cd" stroke="#9a32cd" points="72.5,-88.7 76,-98.7 79.5,-88.7 72.5,-88.7"/>
<text text-anchor="middle" x="93" y="-73" font-family="Helvetica,sans-Serif" font-size="10.00"> cloner</text>
<text text-anchor="middle" x="93" y="-62" font-family="Helvetica,sans-Serif" font-size="10.00">ptr</text>
</g>
<!-- Node3 -->
<g id="node3" class="node">
<title>Node3</title>
<g id="a_node3"><a xlink:href="structproxsuite_1_1linalg_1_1veg_1_1cmp_1_1mut_1_1RefMutBase.html" target="_top" xlink:title=" ">
<polygon fill="white" stroke="#666666" points="152,-196 0,-196 0,-166 152,-166 152,-196"/>
<text text-anchor="start" x="8" y="-184" font-family="Helvetica,sans-Serif" font-size="10.00">proxsuite::linalg::</text>
<text text-anchor="middle" x="76" y="-173" font-family="Helvetica,sans-Serif" font-size="10.00">veg::cmp::mut::RefMutBase</text>
</a>
</g>
</g>
<!-- Node3&#45;&gt;Node2 -->
<g id="edge2" class="edge">
<title>Node3&#45;&gt;Node2</title>
<path fill="none" stroke="#63b8ff" d="M76,-155.61C76,-146.65 76,-136.82 76,-129.08"/>
<polygon fill="#63b8ff" stroke="#63b8ff" points="72.5,-155.9 76,-165.9 79.5,-155.9 72.5,-155.9"/>
</g>
</g>
</svg>
