<?xml version="1.0" encoding="UTF-8" standalone="no"?>
<!DOCTYPE svg PUBLIC "-//W3C//DTD SVG 1.1//EN"
 "http://www.w3.org/Graphics/SVG/1.1/DTD/svg11.dtd">
<!-- Generated by graphviz version 5.0.1 (20220821.0811)
 -->
<!-- Title: proxsuite::linalg::veg::_detail::_vector::adl::AdlBase Pages: 1 -->
<svg width="381pt" height="404pt"
 viewBox="0.00 0.00 381.00 404.00" xmlns="http://www.w3.org/2000/svg" xmlns:xlink="http://www.w3.org/1999/xlink">
<g id="graph0" class="graph" transform="scale(1 1) rotate(0) translate(4 400)">
<title>proxsuite::linalg::veg::_detail::_vector::adl::AdlBase</title>
<!-- Node1 -->
<g id="node1" class="node">
<title>Node1</title>
<g id="a_node1"><a xlink:title=" ">
<polygon fill="#999999" stroke="#666666" points="116,-202 0,-202 0,-161 116,-161 116,-202"/>
<text text-anchor="start" x="8" y="-190" font-family="Helvetica,sans-Serif" font-size="10.00">proxsuite::linalg::</text>
<text text-anchor="start" x="8" y="-179" font-family="Helvetica,sans-Serif" font-size="10.00">veg::_detail::_vector</text>
<text text-anchor="middle" x="58" y="-168" font-family="Helvetica,sans-Serif" font-size="10.00">::adl::AdlBase</text>
</a>
</g>
</g>
<!-- Node2 -->
<g id="node2" class="node">
<title>Node2</title>
<g id="a_node2"><a xlink:href="structproxsuite_1_1linalg_1_1veg_1_1Vec.html" target="_top" xlink:title=" ">
<polygon fill="white" stroke="#666666" points="373,-396 152,-396 152,-311 373,-311 373,-396"/>
<text text-anchor="start" x="160" y="-384" font-family="Helvetica,sans-Serif" font-size="10.00">proxsuite::linalg::</text>
<text text-anchor="start" x="160" y="-373" font-family="Helvetica,sans-Serif" font-size="10.00">veg::Vec&lt; T, proxsuite</text>
<text text-anchor="start" x="160" y="-362" font-family="Helvetica,sans-Serif" font-size="10.00">::linalg::veg::meta::if</text>
<text text-anchor="start" x="160" y="-351" font-family="Helvetica,sans-Serif" font-size="10.00">_t&lt; _detail::should_vectorize</text>
<text text-anchor="start" x="160" y="-340" font-family="Helvetica,sans-Serif" font-size="10.00">&lt; T &gt;::value, _detail::SimdAlignedSystem</text>
<text text-anchor="start" x="160" y="-329" font-family="Helvetica,sans-Serif" font-size="10.00">Alloc, proxsuite::linalg::veg::mem</text>
<text text-anchor="middle" x="262.5" y="-318" font-family="Helvetica,sans-Serif" font-size="10.00">::SystemAlloc &gt; &gt;</text>
</a>
</g>
</g>
<!-- Node1&#45;&gt;Node2 -->
<g id="edge1" class="edge">
<title>Node1&#45;&gt;Node2</title>
<path fill="none" stroke="#8b1a1a" d="M76.22,-210.97C92.88,-237.43 120.22,-275.93 152,-301.5 156.1,-304.8 160.44,-307.95 164.94,-310.95"/>
<polygon fill="#8b1a1a" stroke="#8b1a1a" points="79.01,-208.83 70.78,-202.15 73.05,-212.5 79.01,-208.83"/>
</g>
<!-- Node3 -->
<g id="node3" class="node">
<title>Node3</title>
<g id="a_node3"><a xlink:href="structproxsuite_1_1linalg_1_1veg_1_1Vec.html" target="_top" xlink:title=" ">
<polygon fill="white" stroke="#666666" points="314,-292.5 211,-292.5 211,-262.5 314,-262.5 314,-292.5"/>
<text text-anchor="start" x="219" y="-280.5" font-family="Helvetica,sans-Serif" font-size="10.00">proxsuite::linalg::</text>
<text text-anchor="middle" x="262.5" y="-269.5" font-family="Helvetica,sans-Serif" font-size="10.00">veg::Vec&lt; isize &gt;</text>
</a>
</g>
</g>
<!-- Node1&#45;&gt;Node3 -->
<g id="edge2" class="edge">
<title>Node1&#45;&gt;Node3</title>
<path fill="none" stroke="#8b1a1a" d="M87.6,-209.08C104.95,-224.33 128.26,-242.4 152,-253.5 170.34,-262.07 191.85,-267.64 210.92,-271.23"/>
<polygon fill="#8b1a1a" stroke="#8b1a1a" points="89.85,-206.39 80.07,-202.3 85.16,-211.59 89.85,-206.39"/>
</g>
<!-- Node4 -->
<g id="node4" class="node">
<title>Node4</title>
<g id="a_node4"><a xlink:href="structproxsuite_1_1linalg_1_1veg_1_1Vec.html" target="_top" xlink:title=" ">
<polygon fill="white" stroke="#666666" points="313,-244.5 212,-244.5 212,-214.5 313,-214.5 313,-244.5"/>
<text text-anchor="start" x="220" y="-232.5" font-family="Helvetica,sans-Serif" font-size="10.00">proxsuite::linalg::</text>
<text text-anchor="middle" x="262.5" y="-221.5" font-family="Helvetica,sans-Serif" font-size="10.00">veg::Vec&lt; bool &gt;</text>
</a>
</g>
</g>
<!-- Node1&#45;&gt;Node4 -->
<g id="edge3" class="edge">
<title>Node1&#45;&gt;Node4</title>
<path fill="none" stroke="#8b1a1a" d="M126.19,-199.15C134.86,-201.34 143.63,-203.5 152,-205.5 171.5,-210.15 193.03,-214.94 211.81,-219.01"/>
<polygon fill="#8b1a1a" stroke="#8b1a1a" points="127.02,-195.75 116.47,-196.68 125.3,-202.54 127.02,-195.75"/>
</g>
<!-- Node5 -->
<g id="node5" class="node">
<title>Node5</title>
<g id="a_node5"><a xlink:href="structproxsuite_1_1linalg_1_1veg_1_1Vec.html" target="_top" xlink:title=" ">
<polygon fill="white" stroke="#666666" points="337,-196.5 188,-196.5 188,-166.5 337,-166.5 337,-196.5"/>
<text text-anchor="start" x="196" y="-184.5" font-family="Helvetica,sans-Serif" font-size="10.00">proxsuite::linalg::</text>
<text text-anchor="middle" x="262.5" y="-173.5" font-family="Helvetica,sans-Serif" font-size="10.00">veg::Vec&lt; unsigned char &gt;</text>
</a>
</g>
</g>
<!-- Node1&#45;&gt;Node5 -->
<g id="edge4" class="edge">
<title>Node1&#45;&gt;Node5</title>
<path fill="none" stroke="#8b1a1a" d="M126.33,-181.5C146.03,-181.5 167.67,-181.5 187.76,-181.5"/>
<polygon fill="#8b1a1a" stroke="#8b1a1a" points="126.22,-178 116.22,-181.5 126.22,-185 126.22,-178"/>
</g>
<!-- Node6 -->
<g id="node6" class="node">
<title>Node6</title>
<g id="a_node6"><a xlink:href="structproxsuite_1_1linalg_1_1veg_1_1Vec.html" target="_top" xlink:title=" ">
<polygon fill="white" stroke="#666666" points="313,-148.5 212,-148.5 212,-118.5 313,-118.5 313,-148.5"/>
<text text-anchor="start" x="220" y="-136.5" font-family="Helvetica,sans-Serif" font-size="10.00">proxsuite::linalg::</text>
<text text-anchor="middle" x="262.5" y="-125.5" font-family="Helvetica,sans-Serif" font-size="10.00">veg::Vec&lt; I &gt;</text>
</a>
</g>
</g>
<!-- Node1&#45;&gt;Node6 -->
<g id="edge5" class="edge">
<title>Node1&#45;&gt;Node6</title>
<path fill="none" stroke="#8b1a1a" d="M126.19,-163.85C134.86,-161.66 143.63,-159.5 152,-157.5 171.5,-152.85 193.03,-148.06 211.81,-143.99"/>
<polygon fill="#8b1a1a" stroke="#8b1a1a" points="125.3,-160.46 116.47,-166.32 127.02,-167.25 125.3,-160.46"/>
</g>
<!-- Node7 -->
<g id="node7" class="node">
<title>Node7</title>
<g id="a_node7"><a xlink:href="structproxsuite_1_1linalg_1_1veg_1_1Vec.html" target="_top" xlink:title=" ">
<polygon fill="white" stroke="#666666" points="334.5,-100 190.5,-100 190.5,-59 334.5,-59 334.5,-100"/>
<text text-anchor="start" x="198.5" y="-88" font-family="Helvetica,sans-Serif" font-size="10.00">proxsuite::linalg::</text>
<text text-anchor="start" x="198.5" y="-77" font-family="Helvetica,sans-Serif" font-size="10.00">veg::Vec&lt; proxsuite</text>
<text text-anchor="middle" x="262.5" y="-66" font-family="Helvetica,sans-Serif" font-size="10.00">::linalg::veg::mem::byte &gt;</text>
</a>
</g>
</g>
<!-- Node1&#45;&gt;Node7 -->
<g id="edge6" class="edge">
<title>Node1&#45;&gt;Node7</title>
<path fill="none" stroke="#8b1a1a" d="M88.18,-154.07C105.56,-139.03 128.71,-121.13 152,-109.5 163.99,-103.51 177.34,-98.59 190.47,-94.59"/>
<polygon fill="#8b1a1a" stroke="#8b1a1a" points="85.79,-151.51 80.62,-160.75 90.43,-156.75 85.79,-151.51"/>
</g>
<!-- Node8 -->
<g id="node8" class="node">
<title>Node8</title>
<g id="a_node8"><a xlink:href="structproxsuite_1_1linalg_1_1veg_1_1Vec.html" target="_top" xlink:title=" ">
<polygon fill="white" stroke="#666666" points="321.5,-41 203.5,-41 203.5,0 321.5,0 321.5,-41"/>
<text text-anchor="start" x="211.5" y="-29" font-family="Helvetica,sans-Serif" font-size="10.00">proxsuite::linalg::</text>
<text text-anchor="start" x="211.5" y="-18" font-family="Helvetica,sans-Serif" font-size="10.00">veg::Vec&lt; T, A, Dtor,</text>
<text text-anchor="middle" x="262.5" y="-7" font-family="Helvetica,sans-Serif" font-size="10.00"> Copy &gt;</text>
</a>
</g>
</g>
<!-- Node1&#45;&gt;Node8 -->
<g id="edge7" class="edge">
<title>Node1&#45;&gt;Node8</title>
<path fill="none" stroke="#8b1a1a" d="M72.57,-151.69C87.73,-121.71 115.09,-76.32 152,-50.5 167.1,-39.94 185.78,-33.09 203.41,-28.65"/>
<polygon fill="#8b1a1a" stroke="#8b1a1a" points="69.34,-150.32 68.08,-160.84 75.63,-153.41 69.34,-150.32"/>
</g>
</g>
</svg>
