<?xml version="1.0" encoding="UTF-8" standalone="no"?>
<!DOCTYPE svg PUBLIC "-//W3C//DTD SVG 1.1//EN"
 "http://www.w3.org/Graphics/SVG/1.1/DTD/svg11.dtd">
<!-- Generated by graphviz version 6.0.1 (20220911.2005)
 -->
<!-- Title: tl::detail::optional_move_assign_base&lt; T, bool &gt; Pages: 1 -->
<svg width="151pt" height="445pt"
 viewBox="0.00 0.00 151.00 445.00" xmlns="http://www.w3.org/2000/svg" xmlns:xlink="http://www.w3.org/1999/xlink">
<g id="graph0" class="graph" transform="scale(1 1) rotate(0) translate(4 441)">
<title>tl::detail::optional_move_assign_base&lt; T, bool &gt;</title>
<!-- Node1 -->
<g id="node1" class="node">
<title>Node1</title>
<g id="a_node1"><a xlink:title=" ">
<polygon fill="#999999" stroke="#666666" points="139,-96 4,-96 4,-55 139,-55 139,-96"/>
<text text-anchor="start" x="12" y="-84" font-family="Helvetica,sans-Serif" font-size="10.00">tl::detail::optional</text>
<text text-anchor="start" x="12" y="-73" font-family="Helvetica,sans-Serif" font-size="10.00">_move_assign_base&lt; T,</text>
<text text-anchor="middle" x="71.5" y="-62" font-family="Helvetica,sans-Serif" font-size="10.00"> bool &gt;</text>
</a>
</g>
</g>
<!-- Node7 -->
<g id="node7" class="node">
<title>Node7</title>
<g id="a_node7"><a xlink:href="classtl_1_1optional.html" target="_top" xlink:title=" ">
<polygon fill="white" stroke="#666666" points="120.5,-19 22.5,-19 22.5,0 120.5,0 120.5,-19"/>
<text text-anchor="middle" x="71.5" y="-7" font-family="Helvetica,sans-Serif" font-size="10.00">tl::optional&lt; T &gt;</text>
</a>
</g>
</g>
<!-- Node1&#45;&gt;Node7 -->
<g id="edge6" class="edge">
<title>Node1&#45;&gt;Node7</title>
<path fill="none" stroke="#8b1a1a" d="M71.5,-44.74C71.5,-35.45 71.5,-25.9 71.5,-19.26"/>
<polygon fill="#8b1a1a" stroke="#8b1a1a" points="68,-44.95 71.5,-54.95 75,-44.95 68,-44.95"/>
</g>
<!-- Node2 -->
<g id="node2" class="node">
<title>Node2</title>
<g id="a_node2"><a xlink:href="structtl_1_1detail_1_1optional__copy__assign__base.html" target="_top" xlink:title=" ">
<polygon fill="white" stroke="#666666" points="137,-173 6,-173 6,-132 137,-132 137,-173"/>
<text text-anchor="start" x="14" y="-161" font-family="Helvetica,sans-Serif" font-size="10.00">tl::detail::optional</text>
<text text-anchor="start" x="14" y="-150" font-family="Helvetica,sans-Serif" font-size="10.00">_copy_assign_base&lt; T,</text>
<text text-anchor="middle" x="71.5" y="-139" font-family="Helvetica,sans-Serif" font-size="10.00"> bool &gt;</text>
</a>
</g>
</g>
<!-- Node2&#45;&gt;Node1 -->
<g id="edge1" class="edge">
<title>Node2&#45;&gt;Node1</title>
<path fill="none" stroke="#63b8ff" d="M71.5,-121.69C71.5,-113.08 71.5,-103.9 71.5,-96.07"/>
<polygon fill="#63b8ff" stroke="#63b8ff" points="68,-121.79 71.5,-131.79 75,-121.79 68,-121.79"/>
</g>
<!-- Node3 -->
<g id="node3" class="node">
<title>Node3</title>
<g id="a_node3"><a xlink:href="structtl_1_1detail_1_1optional__move__base.html" target="_top" xlink:title=" ">
<polygon fill="white" stroke="#666666" points="138.5,-239 4.5,-239 4.5,-209 138.5,-209 138.5,-239"/>
<text text-anchor="start" x="12.5" y="-227" font-family="Helvetica,sans-Serif" font-size="10.00">tl::detail::optional</text>
<text text-anchor="middle" x="71.5" y="-216" font-family="Helvetica,sans-Serif" font-size="10.00">_move_base&lt; T, bool &gt;</text>
</a>
</g>
</g>
<!-- Node3&#45;&gt;Node2 -->
<g id="edge2" class="edge">
<title>Node3&#45;&gt;Node2</title>
<path fill="none" stroke="#63b8ff" d="M71.5,-198.91C71.5,-190.47 71.5,-181.1 71.5,-173.07"/>
<polygon fill="#63b8ff" stroke="#63b8ff" points="68,-198.94 71.5,-208.94 75,-198.94 68,-198.94"/>
</g>
<!-- Node4 -->
<g id="node4" class="node">
<title>Node4</title>
<g id="a_node4"><a xlink:href="structtl_1_1detail_1_1optional__copy__base.html" target="_top" xlink:title=" ">
<polygon fill="white" stroke="#666666" points="136,-305 7,-305 7,-275 136,-275 136,-305"/>
<text text-anchor="start" x="15" y="-293" font-family="Helvetica,sans-Serif" font-size="10.00">tl::detail::optional</text>
<text text-anchor="middle" x="71.5" y="-282" font-family="Helvetica,sans-Serif" font-size="10.00">_copy_base&lt; T, bool &gt;</text>
</a>
</g>
</g>
<!-- Node4&#45;&gt;Node3 -->
<g id="edge3" class="edge">
<title>Node4&#45;&gt;Node3</title>
<path fill="none" stroke="#63b8ff" d="M71.5,-264.54C71.5,-255.96 71.5,-246.61 71.5,-239.16"/>
<polygon fill="#63b8ff" stroke="#63b8ff" points="68,-264.8 71.5,-274.8 75,-264.8 68,-264.8"/>
</g>
<!-- Node5 -->
<g id="node5" class="node">
<title>Node5</title>
<g id="a_node5"><a xlink:href="structtl_1_1detail_1_1optional__operations__base.html" target="_top" xlink:title=" ">
<polygon fill="white" stroke="#666666" points="137,-371 6,-371 6,-341 137,-341 137,-371"/>
<text text-anchor="start" x="14" y="-359" font-family="Helvetica,sans-Serif" font-size="10.00">tl::detail::optional</text>
<text text-anchor="middle" x="71.5" y="-348" font-family="Helvetica,sans-Serif" font-size="10.00">_operations_base&lt; T &gt;</text>
</a>
</g>
</g>
<!-- Node5&#45;&gt;Node4 -->
<g id="edge4" class="edge">
<title>Node5&#45;&gt;Node4</title>
<path fill="none" stroke="#63b8ff" d="M71.5,-330.54C71.5,-321.96 71.5,-312.61 71.5,-305.16"/>
<polygon fill="#63b8ff" stroke="#63b8ff" points="68,-330.8 71.5,-340.8 75,-330.8 68,-330.8"/>
</g>
<!-- Node6 -->
<g id="node6" class="node">
<title>Node6</title>
<g id="a_node6"><a xlink:href="structtl_1_1detail_1_1optional__storage__base.html" target="_top" xlink:title=" ">
<polygon fill="white" stroke="#666666" points="143,-437 0,-437 0,-407 143,-407 143,-437"/>
<text text-anchor="start" x="8" y="-425" font-family="Helvetica,sans-Serif" font-size="10.00">tl::detail::optional</text>
<text text-anchor="middle" x="71.5" y="-414" font-family="Helvetica,sans-Serif" font-size="10.00">_storage_base&lt; T, bool &gt;</text>
</a>
</g>
</g>
<!-- Node6&#45;&gt;Node5 -->
<g id="edge5" class="edge">
<title>Node6&#45;&gt;Node5</title>
<path fill="none" stroke="#63b8ff" d="M71.5,-396.54C71.5,-387.96 71.5,-378.61 71.5,-371.16"/>
<polygon fill="#63b8ff" stroke="#63b8ff" points="68,-396.8 71.5,-406.8 75,-396.8 68,-396.8"/>
</g>
</g>
</svg>
