<?xml version="1.0" encoding="UTF-8" standalone="no"?>
<!DOCTYPE svg PUBLIC "-//W3C//DTD SVG 1.1//EN"
 "http://www.w3.org/Graphics/SVG/1.1/DTD/svg11.dtd">
<!-- Generated by graphviz version 5.0.1 (20220821.0811)
 -->
<!-- Title: proxsuite::proxqp::dense::QpView&lt; T &gt; Pages: 1 -->
<svg width="145pt" height="228pt"
 viewBox="0.00 0.00 145.00 228.00" xmlns="http://www.w3.org/2000/svg" xmlns:xlink="http://www.w3.org/1999/xlink">
<g id="graph0" class="graph" transform="scale(1 1) rotate(0) translate(4 224)">
<title>proxsuite::proxqp::dense::QpView&lt; T &gt;</title>
<!-- Node1 -->
<g id="node1" class="node">
<title>Node1</title>
<g id="a_node1"><a xlink:title=" ">
<polygon fill="#bfbfbf" stroke="black" points="9.5,-0.5 9.5,-30.5 127.5,-30.5 127.5,-0.5 9.5,-0.5"/>
<text text-anchor="start" x="17.5" y="-18.5" font-family="Helvetica,sans-Serif" font-size="10.00">proxsuite::proxqp::</text>
<text text-anchor="middle" x="68.5" y="-7.5" font-family="Helvetica,sans-Serif" font-size="10.00">dense::QpView&lt; T &gt;</text>
</a>
</g>
</g>
<!-- Node2 -->
<g id="node2" class="node">
<title>Node2</title>
<g id="a_node2"><a xlink:href="structproxsuite_1_1proxqp_1_1MatrixView.html" target="_top" xlink:title=" ">
<polygon fill="none" stroke="black" points="0,-100.5 0,-130.5 137,-130.5 137,-100.5 0,-100.5"/>
<text text-anchor="start" x="8" y="-118.5" font-family="Helvetica,sans-Serif" font-size="10.00">proxsuite::proxqp::</text>
<text text-anchor="middle" x="68.5" y="-107.5" font-family="Helvetica,sans-Serif" font-size="10.00">MatrixView&lt; T, layout &gt;</text>
</a>
</g>
</g>
<!-- Node2&#45;&gt;Node1 -->
<g id="edge1" class="edge">
<title>Node2&#45;&gt;Node1</title>
<path fill="none" stroke="#9a32cd" stroke-dasharray="5,2" d="M68.5,-90.28C68.5,-71.48 68.5,-46.08 68.5,-30.51"/>
<polygon fill="#9a32cd" stroke="#9a32cd" points="65,-90.46 68.5,-100.46 72,-90.46 65,-90.46"/>
<text text-anchor="middle" x="73.5" y="-74" font-family="Helvetica,sans-Serif" font-size="10.00"> A</text>
<text text-anchor="middle" x="73.5" y="-63" font-family="Helvetica,sans-Serif" font-size="10.00">C</text>
<text text-anchor="middle" x="73.5" y="-52" font-family="Helvetica,sans-Serif" font-size="10.00">H</text>
</g>
<!-- Node3 -->
<g id="node3" class="node">
<title>Node3</title>
<g id="a_node3"><a xlink:title=" ">
<polygon fill="none" stroke="black" points="49,-200.5 49,-219.5 88,-219.5 88,-200.5 49,-200.5"/>
<text text-anchor="middle" x="68.5" y="-207.5" font-family="Helvetica,sans-Serif" font-size="10.00">isize</text>
</a>
</g>
</g>
<!-- Node3&#45;&gt;Node2 -->
<g id="edge2" class="edge">
<title>Node3&#45;&gt;Node2</title>
<path fill="none" stroke="#9a32cd" stroke-dasharray="5,2" d="M68.5,-190.29C68.5,-172.67 68.5,-146.67 68.5,-130.7"/>
<polygon fill="#9a32cd" stroke="#9a32cd" points="65,-190.46 68.5,-200.46 72,-190.46 65,-190.46"/>
<text text-anchor="middle" x="98" y="-174" font-family="Helvetica,sans-Serif" font-size="10.00"> cols</text>
<text text-anchor="middle" x="98" y="-163" font-family="Helvetica,sans-Serif" font-size="10.00">outer_stride</text>
<text text-anchor="middle" x="98" y="-152" font-family="Helvetica,sans-Serif" font-size="10.00">rows</text>
</g>
</g>
</svg>
