<?xml version="1.0" encoding="UTF-8" standalone="no"?>
<!DOCTYPE svg PUBLIC "-//W3C//DTD SVG 1.1//EN"
 "http://www.w3.org/Graphics/SVG/1.1/DTD/svg11.dtd">
<!-- Generated by graphviz version 9.0.0 (20231125.0833)
 -->
<!-- Title: include/proxsuite/linalg/veg/internal/terminate.hpp Pages: 1 -->
<svg width="354pt" height="111pt"
 viewBox="0.00 0.00 353.88 111.00" xmlns="http://www.w3.org/2000/svg" xmlns:xlink="http://www.w3.org/1999/xlink">
<g id="graph0" class="graph" transform="scale(1 1) rotate(0) translate(4 107)">
<title>include/proxsuite/linalg/veg/internal/terminate.hpp</title>
<!-- Node1 -->
<g id="Node000001" class="node">
<title>Node1</title>
<g id="a_Node000001"><a xlink:title=" ">
<polygon fill="#999999" stroke="#666666" points="248.38,-103 98.88,-103 98.88,-69.5 248.38,-69.5 248.38,-103"/>
<text text-anchor="start" x="106.88" y="-89.5" font-family="Helvetica,sans-Serif" font-size="10.00">include/proxsuite/linalg</text>
<text text-anchor="middle" x="173.62" y="-76.75" font-family="Helvetica,sans-Serif" font-size="10.00">/veg/internal/terminate.hpp</text>
</a>
</g>
</g>
<!-- Node2 -->
<g id="Node000002" class="node">
<title>Node2</title>
<g id="a_Node000002"><a xlink:href="prologue_8hpp.html" target="_top" xlink:title=" ">
<polygon fill="white" stroke="#666666" points="123.25,-33.5 0,-33.5 0,0 123.25,0 123.25,-33.5"/>
<text text-anchor="start" x="8" y="-20" font-family="Helvetica,sans-Serif" font-size="10.00">proxsuite/linalg/veg</text>
<text text-anchor="middle" x="61.62" y="-7.25" font-family="Helvetica,sans-Serif" font-size="10.00">/internal/prologue.hpp</text>
</a>
</g>
</g>
<!-- Node1&#45;&gt;Node2 -->
<g id="edge1_Node000001_Node000002" class="edge">
<title>Node1&#45;&gt;Node2</title>
<g id="a_edge1_Node000001_Node000002"><a xlink:title=" ">
<path fill="none" stroke="#63b8ff" d="M146.8,-69.08C132.11,-60.23 113.72,-49.14 97.78,-39.54"/>
<polygon fill="#63b8ff" stroke="#63b8ff" points="99.9,-36.73 89.53,-34.57 96.29,-42.73 99.9,-36.73"/>
</a>
</g>
</g>
<!-- Node3 -->
<g id="Node000003" class="node">
<title>Node3</title>
<g id="a_Node000003"><a xlink:title=" ">
<polygon fill="#e0e0e0" stroke="#999999" points="205.62,-27.12 141.62,-27.12 141.62,-6.38 205.62,-6.38 205.62,-27.12"/>
<text text-anchor="middle" x="173.62" y="-13.62" font-family="Helvetica,sans-Serif" font-size="10.00">exception</text>
</a>
</g>
</g>
<!-- Node1&#45;&gt;Node3 -->
<g id="edge2_Node000001_Node000003" class="edge">
<title>Node1&#45;&gt;Node3</title>
<g id="a_edge2_Node000001_Node000003"><a xlink:title=" ">
<path fill="none" stroke="#63b8ff" d="M173.62,-69.25C173.62,-60.15 173.62,-48.64 173.62,-38.82"/>
<polygon fill="#63b8ff" stroke="#63b8ff" points="177.13,-39.09 173.63,-29.09 170.13,-39.09 177.13,-39.09"/>
</a>
</g>
</g>
<!-- Node4 -->
<g id="Node000004" class="node">
<title>Node4</title>
<g id="a_Node000004"><a xlink:href="epilogue_8hpp.html" target="_top" xlink:title=" ">
<polygon fill="white" stroke="#666666" points="345.88,-33.5 223.38,-33.5 223.38,0 345.88,0 345.88,-33.5"/>
<text text-anchor="start" x="231.38" y="-20" font-family="Helvetica,sans-Serif" font-size="10.00">proxsuite/linalg/veg</text>
<text text-anchor="middle" x="284.62" y="-7.25" font-family="Helvetica,sans-Serif" font-size="10.00">/internal/epilogue.hpp</text>
</a>
</g>
</g>
<!-- Node1&#45;&gt;Node4 -->
<g id="edge3_Node000001_Node000004" class="edge">
<title>Node1&#45;&gt;Node4</title>
<g id="a_edge3_Node000001_Node000004"><a xlink:title=" ">
<path fill="none" stroke="#63b8ff" d="M200.21,-69.08C214.77,-60.23 233,-49.14 248.79,-39.54"/>
<polygon fill="#63b8ff" stroke="#63b8ff" points="250.24,-42.76 256.96,-34.57 246.6,-36.78 250.24,-42.76"/>
</a>
</g>
</g>
</g>
</svg>
