<?xml version="1.0" encoding="UTF-8" standalone="no"?>
<!DOCTYPE svg PUBLIC "-//W3C//DTD SVG 1.1//EN"
 "http://www.w3.org/Graphics/SVG/1.1/DTD/svg11.dtd">
<!-- Generated by graphviz version 9.0.0 (20231125.0833)
 -->
<!-- Title: include/proxsuite/proxqp/timings.hpp Pages: 1 -->
<svg width="674pt" height="528pt"
 viewBox="0.00 0.00 673.75 528.00" xmlns="http://www.w3.org/2000/svg" xmlns:xlink="http://www.w3.org/1999/xlink">
<g id="graph0" class="graph" transform="scale(1 1) rotate(0) translate(4 524)">
<title>include/proxsuite/proxqp/timings.hpp</title>
<!-- Node1 -->
<g id="Node000001" class="node">
<title>Node1</title>
<g id="a_Node000001"><a xlink:title=" ">
<polygon fill="#999999" stroke="#666666" points="478.75,-520 342,-520 342,-486.5 478.75,-486.5 478.75,-520"/>
<text text-anchor="start" x="350" y="-506.5" font-family="Helvetica,sans-Serif" font-size="10.00">include/proxsuite/proxqp</text>
<text text-anchor="middle" x="410.38" y="-493.75" font-family="Helvetica,sans-Serif" font-size="10.00">/timings.hpp</text>
</a>
</g>
</g>
<!-- Node2 -->
<g id="Node000002" class="node">
<title>Node2</title>
<g id="a_Node000002"><a xlink:href="proxqp_2dense_2workspace_8hpp.html" target="_top" xlink:title=" ">
<polygon fill="white" stroke="#666666" points="401.75,-450.5 265,-450.5 265,-417 401.75,-417 401.75,-450.5"/>
<text text-anchor="start" x="273" y="-437" font-family="Helvetica,sans-Serif" font-size="10.00">include/proxsuite/proxqp</text>
<text text-anchor="middle" x="333.38" y="-424.25" font-family="Helvetica,sans-Serif" font-size="10.00">/dense/workspace.hpp</text>
</a>
</g>
</g>
<!-- Node1&#45;&gt;Node2 -->
<g id="edge1_Node000001_Node000002" class="edge">
<title>Node1&#45;&gt;Node2</title>
<g id="a_edge1_Node000001_Node000002"><a xlink:title=" ">
<path fill="none" stroke="#63b8ff" d="M383.67,-478.84C373.13,-469.6 361.3,-459.23 351.76,-450.87"/>
<polygon fill="#63b8ff" stroke="#63b8ff" points="381.16,-481.3 390.99,-485.26 385.78,-476.03 381.16,-481.3"/>
</a>
</g>
</g>
<!-- Node12 -->
<g id="Node000012" class="node">
<title>Node12</title>
<g id="a_Node000012"><a xlink:href="proxqp_2sparse_2workspace_8hpp.html" target="_top" xlink:title=" ">
<polygon fill="white" stroke="#666666" points="617.75,-450.5 481,-450.5 481,-417 617.75,-417 617.75,-450.5"/>
<text text-anchor="start" x="489" y="-437" font-family="Helvetica,sans-Serif" font-size="10.00">include/proxsuite/proxqp</text>
<text text-anchor="middle" x="549.38" y="-424.25" font-family="Helvetica,sans-Serif" font-size="10.00">/sparse/workspace.hpp</text>
</a>
</g>
</g>
<!-- Node1&#45;&gt;Node12 -->
<g id="edge12_Node000001_Node000012" class="edge">
<title>Node1&#45;&gt;Node12</title>
<g id="a_edge12_Node000001_Node000012"><a xlink:title=" ">
<path fill="none" stroke="#63b8ff" d="M453.87,-481.13C474.05,-471.33 497.66,-459.86 516.35,-450.79"/>
<polygon fill="#63b8ff" stroke="#63b8ff" points="452.5,-477.9 445.03,-485.42 455.55,-484.2 452.5,-477.9"/>
</a>
</g>
</g>
<!-- Node3 -->
<g id="Node000003" class="node">
<title>Node3</title>
<g id="a_Node000003"><a xlink:href="linesearch_8hpp.html" target="_top" xlink:title=" ">
<polygon fill="white" stroke="#666666" points="136.75,-381 0,-381 0,-347.5 136.75,-347.5 136.75,-381"/>
<text text-anchor="start" x="8" y="-367.5" font-family="Helvetica,sans-Serif" font-size="10.00">include/proxsuite/proxqp</text>
<text text-anchor="middle" x="68.38" y="-354.75" font-family="Helvetica,sans-Serif" font-size="10.00">/dense/linesearch.hpp</text>
</a>
</g>
</g>
<!-- Node2&#45;&gt;Node3 -->
<g id="edge2_Node000002_Node000003" class="edge">
<title>Node2&#45;&gt;Node3</title>
<g id="a_edge2_Node000002_Node000003"><a xlink:title=" ">
<path fill="none" stroke="#63b8ff" d="M258.86,-413.77C218.82,-403.57 169.99,-391.13 131.79,-381.4"/>
<polygon fill="#63b8ff" stroke="#63b8ff" points="257.88,-417.13 268.43,-416.21 259.61,-410.35 257.88,-417.13"/>
</a>
</g>
</g>
<!-- Node10 -->
<g id="Node000010" class="node">
<title>Node10</title>
<g id="a_Node000010"><a xlink:href="dense_2utils_8hpp.html" target="_top" xlink:title=" ">
<polygon fill="white" stroke="#666666" points="291.75,-381 155,-381 155,-347.5 291.75,-347.5 291.75,-381"/>
<text text-anchor="start" x="163" y="-367.5" font-family="Helvetica,sans-Serif" font-size="10.00">include/proxsuite/proxqp</text>
<text text-anchor="middle" x="223.38" y="-354.75" font-family="Helvetica,sans-Serif" font-size="10.00">/dense/utils.hpp</text>
</a>
</g>
</g>
<!-- Node2&#45;&gt;Node10 -->
<g id="edge9_Node000002_Node000010" class="edge">
<title>Node2&#45;&gt;Node10</title>
<g id="a_edge9_Node000002_Node000010"><a xlink:title=" ">
<path fill="none" stroke="#63b8ff" d="M297.63,-410.82C281.96,-401.2 263.89,-390.11 249.51,-381.29"/>
<polygon fill="#63b8ff" stroke="#63b8ff" points="295.38,-413.54 305.74,-415.79 299.04,-407.58 295.38,-413.54"/>
</a>
</g>
</g>
<!-- Node11 -->
<g id="Node000011" class="node">
<title>Node11</title>
<g id="a_Node000011"><a xlink:href="serialization_2workspace_8hpp.html" target="_top" xlink:title=" ">
<polygon fill="white" stroke="#666666" points="472.88,-381 309.88,-381 309.88,-347.5 472.88,-347.5 472.88,-381"/>
<text text-anchor="start" x="317.88" y="-367.5" font-family="Helvetica,sans-Serif" font-size="10.00">include/proxsuite/serialization</text>
<text text-anchor="middle" x="391.38" y="-354.75" font-family="Helvetica,sans-Serif" font-size="10.00">/workspace.hpp</text>
</a>
</g>
</g>
<!-- Node2&#45;&gt;Node11 -->
<g id="edge11_Node000002_Node000011" class="edge">
<title>Node2&#45;&gt;Node11</title>
<g id="a_edge11_Node000002_Node000011"><a xlink:title=" ">
<path fill="none" stroke="#63b8ff" d="M354.51,-408.16C362.25,-399.14 370.81,-389.18 377.73,-381.13"/>
<polygon fill="#63b8ff" stroke="#63b8ff" points="351.97,-405.74 348.11,-415.61 357.28,-410.3 351.97,-405.74"/>
</a>
</g>
</g>
<!-- Node4 -->
<g id="Node000004" class="node">
<title>Node4</title>
<g id="a_Node000004"><a xlink:href="dense_2solver_8hpp.html" target="_top" xlink:title=" ">
<polygon fill="white" stroke="#666666" points="291.75,-311.5 155,-311.5 155,-278 291.75,-278 291.75,-311.5"/>
<text text-anchor="start" x="163" y="-298" font-family="Helvetica,sans-Serif" font-size="10.00">include/proxsuite/proxqp</text>
<text text-anchor="middle" x="223.38" y="-285.25" font-family="Helvetica,sans-Serif" font-size="10.00">/dense/solver.hpp</text>
</a>
</g>
</g>
<!-- Node3&#45;&gt;Node4 -->
<g id="edge3_Node000003_Node000004" class="edge">
<title>Node3&#45;&gt;Node4</title>
<g id="a_edge3_Node000003_Node000004"><a xlink:title=" ">
<path fill="none" stroke="#63b8ff" d="M115.91,-342.55C138.53,-332.7 165.18,-321.09 186.28,-311.9"/>
<polygon fill="#63b8ff" stroke="#63b8ff" points="114.66,-339.28 106.89,-346.48 117.45,-345.69 114.66,-339.28"/>
</a>
</g>
</g>
<!-- Node5 -->
<g id="Node000005" class="node">
<title>Node5</title>
<g id="a_Node000005"><a xlink:href="proxqp_2dense_2wrapper_8hpp.html" target="_top" xlink:title=" ">
<polygon fill="white" stroke="#666666" points="291.75,-172.5 155,-172.5 155,-139 291.75,-139 291.75,-172.5"/>
<text text-anchor="start" x="163" y="-159" font-family="Helvetica,sans-Serif" font-size="10.00">include/proxsuite/proxqp</text>
<text text-anchor="middle" x="223.38" y="-146.25" font-family="Helvetica,sans-Serif" font-size="10.00">/dense/wrapper.hpp</text>
</a>
</g>
</g>
<!-- Node4&#45;&gt;Node5 -->
<g id="edge4_Node000004_Node000005" class="edge">
<title>Node4&#45;&gt;Node5</title>
<g id="a_edge4_Node000004_Node000005"><a xlink:title=" ">
<path fill="none" stroke="#63b8ff" d="M223.38,-266.37C223.38,-238.29 223.38,-195.57 223.38,-172.63"/>
<polygon fill="#63b8ff" stroke="#63b8ff" points="219.88,-266.25 223.38,-276.25 226.88,-266.25 219.88,-266.25"/>
</a>
</g>
</g>
<!-- Node6 -->
<g id="Node000006" class="node">
<title>Node6</title>
<g id="a_Node000006"><a xlink:href="compute__ECJ_8hpp.html" target="_top" xlink:title=" ">
<polygon fill="white" stroke="#666666" points="136.75,-103 0,-103 0,-69.5 136.75,-69.5 136.75,-103"/>
<text text-anchor="start" x="8" y="-89.5" font-family="Helvetica,sans-Serif" font-size="10.00">include/proxsuite/proxqp</text>
<text text-anchor="middle" x="68.38" y="-76.75" font-family="Helvetica,sans-Serif" font-size="10.00">/dense/compute_ECJ.hpp</text>
</a>
</g>
</g>
<!-- Node5&#45;&gt;Node6 -->
<g id="edge5_Node000005_Node000006" class="edge">
<title>Node5&#45;&gt;Node6</title>
<g id="a_edge5_Node000005_Node000006"><a xlink:title=" ">
<path fill="none" stroke="#63b8ff" d="M175.84,-134.05C153.22,-124.2 126.57,-112.59 105.47,-103.4"/>
<polygon fill="#63b8ff" stroke="#63b8ff" points="174.3,-137.19 184.86,-137.98 177.09,-130.78 174.3,-137.19"/>
</a>
</g>
</g>
<!-- Node8 -->
<g id="Node000008" class="node">
<title>Node8</title>
<g id="a_Node000008"><a xlink:href="dense_8hpp.html" target="_top" xlink:title=" ">
<polygon fill="white" stroke="#666666" points="291.75,-103 155,-103 155,-69.5 291.75,-69.5 291.75,-103"/>
<text text-anchor="start" x="163" y="-89.5" font-family="Helvetica,sans-Serif" font-size="10.00">include/proxsuite/proxqp</text>
<text text-anchor="middle" x="223.38" y="-76.75" font-family="Helvetica,sans-Serif" font-size="10.00">/dense/dense.hpp</text>
</a>
</g>
</g>
<!-- Node5&#45;&gt;Node8 -->
<g id="edge7_Node000005_Node000008" class="edge">
<title>Node5&#45;&gt;Node8</title>
<g id="a_edge7_Node000005_Node000008"><a xlink:title=" ">
<path fill="none" stroke="#63b8ff" d="M223.38,-127.31C223.38,-119.09 223.38,-110.34 223.38,-103.13"/>
<polygon fill="#63b8ff" stroke="#63b8ff" points="219.88,-127.24 223.38,-137.24 226.88,-127.24 219.88,-127.24"/>
</a>
</g>
</g>
<!-- Node9 -->
<g id="Node000009" class="node">
<title>Node9</title>
<g id="a_Node000009"><a xlink:href="serialization_2wrapper_8hpp.html" target="_top" xlink:title=" ">
<polygon fill="white" stroke="#666666" points="472.88,-103 309.88,-103 309.88,-69.5 472.88,-69.5 472.88,-103"/>
<text text-anchor="start" x="317.88" y="-89.5" font-family="Helvetica,sans-Serif" font-size="10.00">include/proxsuite/serialization</text>
<text text-anchor="middle" x="391.38" y="-76.75" font-family="Helvetica,sans-Serif" font-size="10.00">/wrapper.hpp</text>
</a>
</g>
</g>
<!-- Node5&#45;&gt;Node9 -->
<g id="edge8_Node000005_Node000009" class="edge">
<title>Node5&#45;&gt;Node9</title>
<g id="a_edge8_Node000005_Node000009"><a xlink:title=" ">
<path fill="none" stroke="#63b8ff" d="M274.23,-134.32C298.89,-124.41 328.09,-112.68 351.17,-103.4"/>
<polygon fill="#63b8ff" stroke="#63b8ff" points="272.99,-131.04 265.02,-138.02 275.6,-137.54 272.99,-131.04"/>
</a>
</g>
</g>
<!-- Node7 -->
<g id="Node000007" class="node">
<title>Node7</title>
<g id="a_Node000007"><a xlink:href="qp__solve_8hpp.html" target="_top" xlink:title=" ">
<polygon fill="white" stroke="#666666" points="352.75,-33.5 216,-33.5 216,0 352.75,0 352.75,-33.5"/>
<text text-anchor="start" x="224" y="-20" font-family="Helvetica,sans-Serif" font-size="10.00">include/proxsuite/proxqp</text>
<text text-anchor="middle" x="284.38" y="-7.25" font-family="Helvetica,sans-Serif" font-size="10.00">/parallel/qp_solve.hpp</text>
</a>
</g>
</g>
<!-- Node6&#45;&gt;Node7 -->
<g id="edge6_Node000006_Node000007" class="edge">
<title>Node6&#45;&gt;Node7</title>
<g id="a_edge6_Node000006_Node000007"><a xlink:title=" ">
<path fill="none" stroke="#63b8ff" d="M130.79,-65.74C163.1,-55.65 202.08,-43.47 232.69,-33.9"/>
<polygon fill="#63b8ff" stroke="#63b8ff" points="130.06,-62.31 121.56,-68.63 132.15,-68.99 130.06,-62.31"/>
</a>
</g>
</g>
<!-- Node10&#45;&gt;Node4 -->
<g id="edge10_Node000010_Node000004" class="edge">
<title>Node10&#45;&gt;Node4</title>
<g id="a_edge10_Node000010_Node000004"><a xlink:title=" ">
<path fill="none" stroke="#63b8ff" d="M223.38,-335.81C223.38,-327.59 223.38,-318.84 223.38,-311.63"/>
<polygon fill="#63b8ff" stroke="#63b8ff" points="219.88,-335.74 223.38,-345.74 226.88,-335.74 219.88,-335.74"/>
</a>
</g>
</g>
<!-- Node13 -->
<g id="Node000013" class="node">
<title>Node13</title>
<g id="a_Node000013"><a xlink:href="sparse_2solver_8hpp.html" target="_top" xlink:title=" ">
<polygon fill="white" stroke="#666666" points="569.75,-311.5 433,-311.5 433,-278 569.75,-278 569.75,-311.5"/>
<text text-anchor="start" x="441" y="-298" font-family="Helvetica,sans-Serif" font-size="10.00">include/proxsuite/proxqp</text>
<text text-anchor="middle" x="501.38" y="-285.25" font-family="Helvetica,sans-Serif" font-size="10.00">/sparse/solver.hpp</text>
</a>
</g>
</g>
<!-- Node12&#45;&gt;Node13 -->
<g id="edge13_Node000012_Node000013" class="edge">
<title>Node12&#45;&gt;Node13</title>
<g id="a_edge13_Node000012_Node000013"><a xlink:title=" ">
<path fill="none" stroke="#63b8ff" d="M532.84,-406.72C528.29,-398.7 523.7,-389.7 520.38,-381 511.5,-357.77 506.2,-329.32 503.53,-311.87"/>
<polygon fill="#63b8ff" stroke="#63b8ff" points="529.8,-408.46 537.92,-415.27 535.82,-404.88 529.8,-408.46"/>
</a>
</g>
</g>
<!-- Node16 -->
<g id="Node000016" class="node">
<title>Node16</title>
<g id="a_Node000016"><a xlink:href="sparse_2utils_8hpp.html" target="_top" xlink:title=" ">
<polygon fill="white" stroke="#666666" points="665.75,-381 529,-381 529,-347.5 665.75,-347.5 665.75,-381"/>
<text text-anchor="start" x="537" y="-367.5" font-family="Helvetica,sans-Serif" font-size="10.00">include/proxsuite/proxqp</text>
<text text-anchor="middle" x="597.38" y="-354.75" font-family="Helvetica,sans-Serif" font-size="10.00">/sparse/utils.hpp</text>
</a>
</g>
</g>
<!-- Node12&#45;&gt;Node16 -->
<g id="edge18_Node000012_Node000016" class="edge">
<title>Node12&#45;&gt;Node16</title>
<g id="a_edge18_Node000012_Node000016"><a xlink:title=" ">
<path fill="none" stroke="#63b8ff" d="M560.9,-407.31C566.75,-398.52 573.82,-388.93 580.25,-381.13"/>
<polygon fill="#63b8ff" stroke="#63b8ff" points="558.12,-405.16 555.72,-415.48 564.03,-408.91 558.12,-405.16"/>
</a>
</g>
</g>
<!-- Node14 -->
<g id="Node000014" class="node">
<title>Node14</title>
<g id="a_Node000014"><a xlink:href="proxqp_2sparse_2wrapper_8hpp.html" target="_top" xlink:title=" ">
<polygon fill="white" stroke="#666666" points="569.75,-242 433,-242 433,-208.5 569.75,-208.5 569.75,-242"/>
<text text-anchor="start" x="441" y="-228.5" font-family="Helvetica,sans-Serif" font-size="10.00">include/proxsuite/proxqp</text>
<text text-anchor="middle" x="501.38" y="-215.75" font-family="Helvetica,sans-Serif" font-size="10.00">/sparse/wrapper.hpp</text>
</a>
</g>
</g>
<!-- Node13&#45;&gt;Node14 -->
<g id="edge14_Node000013_Node000014" class="edge">
<title>Node13&#45;&gt;Node14</title>
<g id="a_edge14_Node000013_Node000014"><a xlink:title=" ">
<path fill="none" stroke="#63b8ff" d="M501.38,-266.31C501.38,-258.09 501.38,-249.34 501.38,-242.13"/>
<polygon fill="#63b8ff" stroke="#63b8ff" points="497.88,-266.24 501.38,-276.24 504.88,-266.24 497.88,-266.24"/>
</a>
</g>
</g>
<!-- Node14&#45;&gt;Node5 -->
<g id="edge15_Node000014_Node000005" class="edge">
<title>Node14&#45;&gt;Node5</title>
<g id="a_edge15_Node000014_Node000005"><a xlink:title=" ">
<path fill="none" stroke="#63b8ff" d="M423.74,-205.4C381.64,-195.18 330.14,-182.67 289.9,-172.9"/>
<polygon fill="#63b8ff" stroke="#63b8ff" points="422.77,-208.77 433.32,-207.72 424.42,-201.96 422.77,-208.77"/>
</a>
</g>
</g>
<!-- Node14&#45;&gt;Node7 -->
<g id="edge16_Node000014_Node000007" class="edge">
<title>Node14&#45;&gt;Node7</title>
<g id="a_edge16_Node000014_Node000007"><a xlink:title=" ">
<path fill="none" stroke="#63b8ff" d="M506.36,-197.43C511.03,-163.39 513.3,-104.86 482.38,-69.5 465.3,-49.98 403.3,-35.89 353.17,-27.39"/>
<polygon fill="#63b8ff" stroke="#63b8ff" points="502.97,-196.46 504.89,-206.88 509.88,-197.53 502.97,-196.46"/>
</a>
</g>
</g>
<!-- Node15 -->
<g id="Node000015" class="node">
<title>Node15</title>
<g id="a_Node000015"><a xlink:href="sparse_8hpp.html" target="_top" xlink:title=" ">
<polygon fill="white" stroke="#666666" points="665.75,-172.5 529,-172.5 529,-139 665.75,-139 665.75,-172.5"/>
<text text-anchor="start" x="537" y="-159" font-family="Helvetica,sans-Serif" font-size="10.00">include/proxsuite/proxqp</text>
<text text-anchor="middle" x="597.38" y="-146.25" font-family="Helvetica,sans-Serif" font-size="10.00">/sparse/sparse.hpp</text>
</a>
</g>
</g>
<!-- Node14&#45;&gt;Node15 -->
<g id="edge17_Node000014_Node000015" class="edge">
<title>Node14&#45;&gt;Node15</title>
<g id="a_edge17_Node000014_Node000015"><a xlink:title=" ">
<path fill="none" stroke="#63b8ff" d="M533.5,-201.66C546.92,-192.23 562.2,-181.48 574.45,-172.87"/>
<polygon fill="#63b8ff" stroke="#63b8ff" points="531.53,-198.77 525.36,-207.38 535.56,-204.49 531.53,-198.77"/>
</a>
</g>
</g>
<!-- Node16&#45;&gt;Node12 -->
<g id="edge20_Node000016_Node000012" class="edge">
<title>Node16&#45;&gt;Node12</title>
<g id="a_edge20_Node000016_Node000012"><a xlink:title=" ">
<path fill="none" stroke="#63b8ff" d="M585.75,-390.84C579.95,-399.55 572.97,-409.02 566.59,-416.75"/>
<polygon fill="#63b8ff" stroke="#63b8ff" points="588.7,-392.73 591.1,-382.41 582.78,-388.98 588.7,-392.73"/>
</a>
</g>
</g>
<!-- Node16&#45;&gt;Node13 -->
<g id="edge19_Node000016_Node000013" class="edge">
<title>Node16&#45;&gt;Node13</title>
<g id="a_edge19_Node000016_Node000013"><a xlink:title=" ">
<path fill="none" stroke="#63b8ff" d="M565.25,-340.66C551.83,-331.23 536.55,-320.48 524.3,-311.87"/>
<polygon fill="#63b8ff" stroke="#63b8ff" points="563.19,-343.49 573.39,-346.38 567.22,-337.77 563.19,-343.49"/>
</a>
</g>
</g>
</g>
</svg>
