<?xml version="1.0" encoding="UTF-8" standalone="no"?>
<!DOCTYPE svg PUBLIC "-//W3C//DTD SVG 1.1//EN"
 "http://www.w3.org/Graphics/SVG/1.1/DTD/svg11.dtd">
<!-- Generated by graphviz version 8.1.0 (20230707.2238)
 -->
<!-- Title: include/proxsuite/proxqp/timings.hpp Pages: 1 -->
<svg width="636pt" height="389pt"
 viewBox="0.00 0.00 635.75 389.00" xmlns="http://www.w3.org/2000/svg" xmlns:xlink="http://www.w3.org/1999/xlink">
<g id="graph0" class="graph" transform="scale(1 1) rotate(0) translate(4 385)">
<title>include/proxsuite/proxqp/timings.hpp</title>
<!-- Node1 -->
<g id="Node000001" class="node">
<title>Node1</title>
<g id="a_Node000001"><a xlink:title=" ">
<polygon fill="#999999" stroke="#666666" points="446.75,-381 310,-381 310,-347.5 446.75,-347.5 446.75,-381"/>
<text text-anchor="start" x="318" y="-367.5" font-family="Helvetica,sans-Serif" font-size="10.00">include/proxsuite/proxqp</text>
<text text-anchor="middle" x="378.38" y="-354.75" font-family="Helvetica,sans-Serif" font-size="10.00">/timings.hpp</text>
</a>
</g>
</g>
<!-- Node2 -->
<g id="Node000002" class="node">
<title>Node2</title>
<g id="a_Node000002"><a xlink:href="dense_2workspace_8hpp.html" target="_top" xlink:title=" ">
<polygon fill="white" stroke="#666666" points="369.75,-311.5 233,-311.5 233,-278 369.75,-278 369.75,-311.5"/>
<text text-anchor="start" x="241" y="-298" font-family="Helvetica,sans-Serif" font-size="10.00">include/proxsuite/proxqp</text>
<text text-anchor="middle" x="301.38" y="-285.25" font-family="Helvetica,sans-Serif" font-size="10.00">/dense/workspace.hpp</text>
</a>
</g>
</g>
<!-- Node1&#45;&gt;Node2 -->
<g id="edge1_Node000001_Node000002" class="edge">
<title>Node1&#45;&gt;Node2</title>
<g id="a_edge1_Node000001_Node000002"><a xlink:title=" ">
<path fill="none" stroke="#63b8ff" d="M351.98,-340.11C341.37,-330.81 329.4,-320.31 319.76,-311.87"/>
<polygon fill="#63b8ff" stroke="#63b8ff" points="349.3,-343.29 359.13,-347.25 353.91,-338.03 349.3,-343.29"/>
</a>
</g>
</g>
<!-- Node10 -->
<g id="Node000010" class="node">
<title>Node10</title>
<g id="a_Node000010"><a xlink:href="sparse_2workspace_8hpp.html" target="_top" xlink:title=" ">
<polygon fill="white" stroke="#666666" points="542.75,-311.5 406,-311.5 406,-278 542.75,-278 542.75,-311.5"/>
<text text-anchor="start" x="414" y="-298" font-family="Helvetica,sans-Serif" font-size="10.00">include/proxsuite/proxqp</text>
<text text-anchor="middle" x="474.38" y="-285.25" font-family="Helvetica,sans-Serif" font-size="10.00">/sparse/workspace.hpp</text>
</a>
</g>
</g>
<!-- Node1&#45;&gt;Node10 -->
<g id="edge10_Node000001_Node000010" class="edge">
<title>Node1&#45;&gt;Node10</title>
<g id="a_edge10_Node000001_Node000010"><a xlink:title=" ">
<path fill="none" stroke="#63b8ff" d="M410.11,-340.94C423.62,-331.44 439.08,-320.56 451.45,-311.87"/>
<polygon fill="#63b8ff" stroke="#63b8ff" points="408.29,-338.64 402.13,-347.25 412.32,-344.36 408.29,-338.64"/>
</a>
</g>
</g>
<!-- Node3 -->
<g id="Node000003" class="node">
<title>Node3</title>
<g id="a_Node000003"><a xlink:href="linesearch_8hpp.html" target="_top" xlink:title=" ">
<polygon fill="white" stroke="#666666" points="214.75,-242 78,-242 78,-208.5 214.75,-208.5 214.75,-242"/>
<text text-anchor="start" x="86" y="-228.5" font-family="Helvetica,sans-Serif" font-size="10.00">include/proxsuite/proxqp</text>
<text text-anchor="middle" x="146.38" y="-215.75" font-family="Helvetica,sans-Serif" font-size="10.00">/dense/linesearch.hpp</text>
</a>
</g>
</g>
<!-- Node2&#45;&gt;Node3 -->
<g id="edge2_Node000002_Node000003" class="edge">
<title>Node2&#45;&gt;Node3</title>
<g id="a_edge2_Node000002_Node000003"><a xlink:title=" ">
<path fill="none" stroke="#63b8ff" d="M254.45,-273.32C231.7,-263.41 204.76,-251.68 183.47,-242.4"/>
<polygon fill="#63b8ff" stroke="#63b8ff" points="252.68,-276.8 263.25,-277.58 255.48,-270.38 252.68,-276.8"/>
</a>
</g>
</g>
<!-- Node9 -->
<g id="Node000009" class="node">
<title>Node9</title>
<g id="a_Node000009"><a xlink:href="dense_2utils_8hpp.html" target="_top" xlink:title=" ">
<polygon fill="white" stroke="#666666" points="369.75,-242 233,-242 233,-208.5 369.75,-208.5 369.75,-242"/>
<text text-anchor="start" x="241" y="-228.5" font-family="Helvetica,sans-Serif" font-size="10.00">include/proxsuite/proxqp</text>
<text text-anchor="middle" x="301.38" y="-215.75" font-family="Helvetica,sans-Serif" font-size="10.00">/dense/utils.hpp</text>
</a>
</g>
</g>
<!-- Node2&#45;&gt;Node9 -->
<g id="edge8_Node000002_Node000009" class="edge">
<title>Node2&#45;&gt;Node9</title>
<g id="a_edge8_Node000002_Node000009"><a xlink:title=" ">
<path fill="none" stroke="#63b8ff" d="M301.38,-266.89C301.38,-258.5 301.38,-249.51 301.38,-242.13"/>
<polygon fill="#63b8ff" stroke="#63b8ff" points="297.88,-266.75 301.38,-276.75 304.88,-266.75 297.88,-266.75"/>
</a>
</g>
</g>
<!-- Node4 -->
<g id="Node000004" class="node">
<title>Node4</title>
<g id="a_Node000004"><a xlink:href="dense_2solver_8hpp.html" target="_top" xlink:title=" ">
<polygon fill="white" stroke="#666666" points="304.75,-172.5 168,-172.5 168,-139 304.75,-139 304.75,-172.5"/>
<text text-anchor="start" x="176" y="-159" font-family="Helvetica,sans-Serif" font-size="10.00">include/proxsuite/proxqp</text>
<text text-anchor="middle" x="236.38" y="-146.25" font-family="Helvetica,sans-Serif" font-size="10.00">/dense/solver.hpp</text>
</a>
</g>
</g>
<!-- Node3&#45;&gt;Node4 -->
<g id="edge3_Node000003_Node000004" class="edge">
<title>Node3&#45;&gt;Node4</title>
<g id="a_edge3_Node000003_Node000004"><a xlink:title=" ">
<path fill="none" stroke="#63b8ff" d="M176.49,-201.66C189.07,-192.23 203.4,-181.48 214.89,-172.87"/>
<polygon fill="#63b8ff" stroke="#63b8ff" points="174.6,-199.45 168.7,-208.25 178.8,-205.05 174.6,-199.45"/>
</a>
</g>
</g>
<!-- Node5 -->
<g id="Node000005" class="node">
<title>Node5</title>
<g id="a_Node000005"><a xlink:href="proxqp_2dense_2wrapper_8hpp.html" target="_top" xlink:title=" ">
<polygon fill="white" stroke="#666666" points="304.75,-103 168,-103 168,-69.5 304.75,-69.5 304.75,-103"/>
<text text-anchor="start" x="176" y="-89.5" font-family="Helvetica,sans-Serif" font-size="10.00">include/proxsuite/proxqp</text>
<text text-anchor="middle" x="236.38" y="-76.75" font-family="Helvetica,sans-Serif" font-size="10.00">/dense/wrapper.hpp</text>
</a>
</g>
</g>
<!-- Node4&#45;&gt;Node5 -->
<g id="edge4_Node000004_Node000005" class="edge">
<title>Node4&#45;&gt;Node5</title>
<g id="a_edge4_Node000004_Node000005"><a xlink:title=" ">
<path fill="none" stroke="#63b8ff" d="M236.38,-127.89C236.38,-119.5 236.38,-110.51 236.38,-103.13"/>
<polygon fill="#63b8ff" stroke="#63b8ff" points="232.88,-127.75 236.38,-137.75 239.88,-127.75 232.88,-127.75"/>
</a>
</g>
</g>
<!-- Node6 -->
<g id="Node000006" class="node">
<title>Node6</title>
<g id="a_Node000006"><a xlink:href="dense_8hpp.html" target="_top" xlink:title=" ">
<polygon fill="white" stroke="#666666" points="136.75,-33.5 0,-33.5 0,0 136.75,0 136.75,-33.5"/>
<text text-anchor="start" x="8" y="-20" font-family="Helvetica,sans-Serif" font-size="10.00">include/proxsuite/proxqp</text>
<text text-anchor="middle" x="68.38" y="-7.25" font-family="Helvetica,sans-Serif" font-size="10.00">/dense/dense.hpp</text>
</a>
</g>
</g>
<!-- Node5&#45;&gt;Node6 -->
<g id="edge5_Node000005_Node000006" class="edge">
<title>Node5&#45;&gt;Node6</title>
<g id="a_edge5_Node000005_Node000006"><a xlink:title=" ">
<path fill="none" stroke="#63b8ff" d="M186.18,-65.08C161.38,-55.12 131.86,-43.26 108.58,-33.9"/>
<polygon fill="#63b8ff" stroke="#63b8ff" points="184.55,-68.6 195.13,-69.08 187.16,-62.11 184.55,-68.6"/>
</a>
</g>
</g>
<!-- Node7 -->
<g id="Node000007" class="node">
<title>Node7</title>
<g id="a_Node000007"><a xlink:href="qp__solve_8hpp.html" target="_top" xlink:title=" ">
<polygon fill="white" stroke="#666666" points="472.75,-33.5 336,-33.5 336,0 472.75,0 472.75,-33.5"/>
<text text-anchor="start" x="344" y="-20" font-family="Helvetica,sans-Serif" font-size="10.00">include/proxsuite/proxqp</text>
<text text-anchor="middle" x="404.38" y="-7.25" font-family="Helvetica,sans-Serif" font-size="10.00">/parallel/qp_solve.hpp</text>
</a>
</g>
</g>
<!-- Node5&#45;&gt;Node7 -->
<g id="edge6_Node000005_Node000007" class="edge">
<title>Node5&#45;&gt;Node7</title>
<g id="a_edge6_Node000005_Node000007"><a xlink:title=" ">
<path fill="none" stroke="#63b8ff" d="M286.57,-65.08C311.37,-55.12 340.89,-43.26 364.17,-33.9"/>
<polygon fill="#63b8ff" stroke="#63b8ff" points="285.59,-62.11 277.62,-69.08 288.2,-68.6 285.59,-62.11"/>
</a>
</g>
</g>
<!-- Node8 -->
<g id="Node000008" class="node">
<title>Node8</title>
<g id="a_Node000008"><a xlink:href="serialization_2wrapper_8hpp.html" target="_top" xlink:title=" ">
<polygon fill="white" stroke="#666666" points="317.88,-33.5 154.88,-33.5 154.88,0 317.88,0 317.88,-33.5"/>
<text text-anchor="start" x="162.88" y="-20" font-family="Helvetica,sans-Serif" font-size="10.00">include/proxsuite/serialization</text>
<text text-anchor="middle" x="236.38" y="-7.25" font-family="Helvetica,sans-Serif" font-size="10.00">/wrapper.hpp</text>
</a>
</g>
</g>
<!-- Node5&#45;&gt;Node8 -->
<g id="edge7_Node000005_Node000008" class="edge">
<title>Node5&#45;&gt;Node8</title>
<g id="a_edge7_Node000005_Node000008"><a xlink:title=" ">
<path fill="none" stroke="#63b8ff" d="M236.38,-58.39C236.38,-50 236.38,-41.01 236.38,-33.63"/>
<polygon fill="#63b8ff" stroke="#63b8ff" points="232.88,-58.25 236.38,-68.25 239.88,-58.25 232.88,-58.25"/>
</a>
</g>
</g>
<!-- Node9&#45;&gt;Node4 -->
<g id="edge9_Node000009_Node000004" class="edge">
<title>Node9&#45;&gt;Node4</title>
<g id="a_edge9_Node000009_Node000004"><a xlink:title=" ">
<path fill="none" stroke="#63b8ff" d="M278.5,-200.5C269.61,-191.27 259.66,-180.94 251.67,-172.63"/>
<polygon fill="#63b8ff" stroke="#63b8ff" points="275.51,-202.48 284.97,-207.25 280.56,-197.62 275.51,-202.48"/>
</a>
</g>
</g>
<!-- Node11 -->
<g id="Node000011" class="node">
<title>Node11</title>
<g id="a_Node000011"><a xlink:href="sparse_2solver_8hpp.html" target="_top" xlink:title=" ">
<polygon fill="white" stroke="#666666" points="513.75,-172.5 377,-172.5 377,-139 513.75,-139 513.75,-172.5"/>
<text text-anchor="start" x="385" y="-159" font-family="Helvetica,sans-Serif" font-size="10.00">include/proxsuite/proxqp</text>
<text text-anchor="middle" x="445.38" y="-146.25" font-family="Helvetica,sans-Serif" font-size="10.00">/sparse/solver.hpp</text>
</a>
</g>
</g>
<!-- Node10&#45;&gt;Node11 -->
<g id="edge11_Node000010_Node000011" class="edge">
<title>Node10&#45;&gt;Node11</title>
<g id="a_edge11_Node000010_Node000011"><a xlink:title=" ">
<path fill="none" stroke="#63b8ff" d="M439.21,-270.76C430.05,-262.84 421.36,-253.13 416.38,-242 405.89,-218.6 420.74,-190.2 432.77,-172.8"/>
<polygon fill="#63b8ff" stroke="#63b8ff" points="436.66,-274.01 446.66,-277.52 441.03,-268.54 436.66,-274.01"/>
</a>
</g>
</g>
<!-- Node14 -->
<g id="Node000014" class="node">
<title>Node14</title>
<g id="a_Node000014"><a xlink:href="sparse_2utils_8hpp.html" target="_top" xlink:title=" ">
<polygon fill="white" stroke="#666666" points="561.75,-242 425,-242 425,-208.5 561.75,-208.5 561.75,-242"/>
<text text-anchor="start" x="433" y="-228.5" font-family="Helvetica,sans-Serif" font-size="10.00">include/proxsuite/proxqp</text>
<text text-anchor="middle" x="493.38" y="-215.75" font-family="Helvetica,sans-Serif" font-size="10.00">/sparse/utils.hpp</text>
</a>
</g>
</g>
<!-- Node10&#45;&gt;Node14 -->
<g id="edge15_Node000010_Node000014" class="edge">
<title>Node10&#45;&gt;Node14</title>
<g id="a_edge15_Node000010_Node000014"><a xlink:title=" ">
<path fill="none" stroke="#63b8ff" d="M475.24,-267.17C477.3,-258.7 480.12,-249.6 483.08,-242.13"/>
<polygon fill="#63b8ff" stroke="#63b8ff" points="471.65,-266.25 473.04,-276.75 478.5,-267.68 471.65,-266.25"/>
</a>
</g>
</g>
<!-- Node12 -->
<g id="Node000012" class="node">
<title>Node12</title>
<g id="a_Node000012"><a xlink:href="proxqp_2sparse_2wrapper_8hpp.html" target="_top" xlink:title=" ">
<polygon fill="white" stroke="#666666" points="513.75,-103 377,-103 377,-69.5 513.75,-69.5 513.75,-103"/>
<text text-anchor="start" x="385" y="-89.5" font-family="Helvetica,sans-Serif" font-size="10.00">include/proxsuite/proxqp</text>
<text text-anchor="middle" x="445.38" y="-76.75" font-family="Helvetica,sans-Serif" font-size="10.00">/sparse/wrapper.hpp</text>
</a>
</g>
</g>
<!-- Node11&#45;&gt;Node12 -->
<g id="edge12_Node000011_Node000012" class="edge">
<title>Node11&#45;&gt;Node12</title>
<g id="a_edge12_Node000011_Node000012"><a xlink:title=" ">
<path fill="none" stroke="#63b8ff" d="M445.38,-127.89C445.38,-119.5 445.38,-110.51 445.38,-103.13"/>
<polygon fill="#63b8ff" stroke="#63b8ff" points="441.88,-127.75 445.38,-137.75 448.88,-127.75 441.88,-127.75"/>
</a>
</g>
</g>
<!-- Node12&#45;&gt;Node7 -->
<g id="edge13_Node000012_Node000007" class="edge">
<title>Node12&#45;&gt;Node7</title>
<g id="a_edge13_Node000012_Node000007"><a xlink:title=" ">
<path fill="none" stroke="#63b8ff" d="M430.09,-60.09C424.71,-51.23 418.81,-41.52 414.02,-33.63"/>
<polygon fill="#63b8ff" stroke="#63b8ff" points="427.48,-61.52 435.66,-68.25 433.46,-57.89 427.48,-61.52"/>
</a>
</g>
</g>
<!-- Node13 -->
<g id="Node000013" class="node">
<title>Node13</title>
<g id="a_Node000013"><a xlink:href="sparse_8hpp.html" target="_top" xlink:title=" ">
<polygon fill="white" stroke="#666666" points="627.75,-33.5 491,-33.5 491,0 627.75,0 627.75,-33.5"/>
<text text-anchor="start" x="499" y="-20" font-family="Helvetica,sans-Serif" font-size="10.00">include/proxsuite/proxqp</text>
<text text-anchor="middle" x="559.38" y="-7.25" font-family="Helvetica,sans-Serif" font-size="10.00">/sparse/sparse.hpp</text>
</a>
</g>
</g>
<!-- Node12&#45;&gt;Node13 -->
<g id="edge14_Node000012_Node000013" class="edge">
<title>Node12&#45;&gt;Node13</title>
<g id="a_edge14_Node000012_Node000013"><a xlink:title=" ">
<path fill="none" stroke="#63b8ff" d="M481.96,-63.59C498.31,-53.91 517.24,-42.7 532.29,-33.79"/>
<polygon fill="#63b8ff" stroke="#63b8ff" points="480.5,-60.98 473.68,-69.08 484.07,-67 480.5,-60.98"/>
</a>
</g>
</g>
<!-- Node14&#45;&gt;Node10 -->
<g id="edge17_Node000014_Node000010" class="edge">
<title>Node14&#45;&gt;Node10</title>
<g id="a_edge17_Node000014_Node000010"><a xlink:title=" ">
<path fill="none" stroke="#63b8ff" d="M492.54,-252.7C490.49,-261.16 487.67,-270.27 484.72,-277.75"/>
<polygon fill="#63b8ff" stroke="#63b8ff" points="496.13,-253.63 494.73,-243.13 489.27,-252.21 496.13,-253.63"/>
</a>
</g>
</g>
<!-- Node14&#45;&gt;Node11 -->
<g id="edge16_Node000014_Node000011" class="edge">
<title>Node14&#45;&gt;Node11</title>
<g id="a_edge16_Node000014_Node000011"><a xlink:title=" ">
<path fill="none" stroke="#63b8ff" d="M475.69,-199.38C469.33,-190.44 462.33,-180.6 456.67,-172.63"/>
<polygon fill="#63b8ff" stroke="#63b8ff" points="473.35,-201.13 482,-207.25 479.06,-197.08 473.35,-201.13"/>
</a>
</g>
</g>
</g>
</svg>
