<?xml version="1.0" encoding="UTF-8" standalone="no"?>
<!DOCTYPE svg PUBLIC "-//W3C//DTD SVG 1.1//EN"
 "http://www.w3.org/Graphics/SVG/1.1/DTD/svg11.dtd">
<!-- Generated by graphviz version 8.1.0 (20230707.2238)
 -->
<!-- Title: include/proxsuite/helpers/tl&#45;optional.hpp Pages: 1 -->
<svg width="1371pt" height="737pt"
 viewBox="0.00 0.00 1370.88 736.50" xmlns="http://www.w3.org/2000/svg" xmlns:xlink="http://www.w3.org/1999/xlink">
<g id="graph0" class="graph" transform="scale(1 1) rotate(0) translate(4 732.5)">
<title>include/proxsuite/helpers/tl&#45;optional.hpp</title>
<!-- Node1 -->
<g id="Node000001" class="node">
<title>Node1</title>
<g id="a_Node000001"><a xlink:title=" ">
<polygon fill="#999999" stroke="#666666" points="857,-728.5 718,-728.5 718,-695 857,-695 857,-728.5"/>
<text text-anchor="start" x="726" y="-715" font-family="Helvetica,sans-Serif" font-size="10.00">include/proxsuite/helpers</text>
<text text-anchor="middle" x="787.5" y="-702.25" font-family="Helvetica,sans-Serif" font-size="10.00">/tl&#45;optional.hpp</text>
</a>
</g>
</g>
<!-- Node2 -->
<g id="Node000002" class="node">
<title>Node2</title>
<g id="a_Node000002"><a xlink:href="optional_8hpp.html" target="_top" xlink:title=" ">
<polygon fill="white" stroke="#666666" points="857,-659 718,-659 718,-625.5 857,-625.5 857,-659"/>
<text text-anchor="start" x="726" y="-645.5" font-family="Helvetica,sans-Serif" font-size="10.00">include/proxsuite/helpers</text>
<text text-anchor="middle" x="787.5" y="-632.75" font-family="Helvetica,sans-Serif" font-size="10.00">/optional.hpp</text>
</a>
</g>
</g>
<!-- Node1&#45;&gt;Node2 -->
<g id="edge1_Node000001_Node000002" class="edge">
<title>Node1&#45;&gt;Node2</title>
<g id="a_edge1_Node000001_Node000002"><a xlink:title=" ">
<path fill="none" stroke="#63b8ff" d="M787.5,-683.89C787.5,-675.5 787.5,-666.51 787.5,-659.13"/>
<polygon fill="#63b8ff" stroke="#63b8ff" points="784,-683.75 787.5,-693.75 791,-683.75 784,-683.75"/>
</a>
</g>
</g>
<!-- Node3 -->
<g id="Node000003" class="node">
<title>Node3</title>
<g id="a_Node000003"><a xlink:href="backward__data_8hpp.html" target="_top" xlink:title=" ">
<polygon fill="white" stroke="#666666" points="556.75,-589.5 410.25,-589.5 410.25,-556 556.75,-556 556.75,-589.5"/>
<text text-anchor="start" x="418.25" y="-576" font-family="Helvetica,sans-Serif" font-size="10.00">include/proxsuite/proxqp</text>
<text text-anchor="middle" x="483.5" y="-563.25" font-family="Helvetica,sans-Serif" font-size="10.00">/dense/backward_data.hpp</text>
</a>
</g>
</g>
<!-- Node2&#45;&gt;Node3 -->
<g id="edge2_Node000002_Node000003" class="edge">
<title>Node2&#45;&gt;Node3</title>
<g id="a_edge2_Node000002_Node000003"><a xlink:title=" ">
<path fill="none" stroke="#63b8ff" d="M707.07,-623.39C660.38,-613.02 602.01,-600.06 556.63,-589.99"/>
<polygon fill="#63b8ff" stroke="#63b8ff" points="706.24,-627.01 716.76,-625.76 707.75,-620.18 706.24,-627.01"/>
</a>
</g>
</g>
<!-- Node15 -->
<g id="Node000015" class="node">
<title>Node15</title>
<g id="a_Node000015"><a xlink:href="dense_2helpers_8hpp.html" target="_top" xlink:title=" ">
<polygon fill="white" stroke="#666666" points="749.88,-520 613.12,-520 613.12,-486.5 749.88,-486.5 749.88,-520"/>
<text text-anchor="start" x="621.12" y="-506.5" font-family="Helvetica,sans-Serif" font-size="10.00">include/proxsuite/proxqp</text>
<text text-anchor="middle" x="681.5" y="-493.75" font-family="Helvetica,sans-Serif" font-size="10.00">/dense/helpers.hpp</text>
</a>
</g>
</g>
<!-- Node2&#45;&gt;Node15 -->
<g id="edge15_Node000002_Node000015" class="edge">
<title>Node2&#45;&gt;Node15</title>
<g id="a_edge15_Node000002_Node000015"><a xlink:title=" ">
<path fill="none" stroke="#63b8ff" d="M768.61,-616.84C746.98,-588.88 712.17,-543.89 693.79,-520.13"/>
<polygon fill="#63b8ff" stroke="#63b8ff" points="766.25,-618.5 775.13,-624.27 771.78,-614.22 766.25,-618.5"/>
</a>
</g>
</g>
<!-- Node16 -->
<g id="Node000016" class="node">
<title>Node16</title>
<g id="a_Node000016"><a xlink:href="proxqp_2results_8hpp.html" target="_top" xlink:title=" ">
<polygon fill="white" stroke="#666666" points="981.88,-589.5 845.12,-589.5 845.12,-556 981.88,-556 981.88,-589.5"/>
<text text-anchor="start" x="853.12" y="-576" font-family="Helvetica,sans-Serif" font-size="10.00">include/proxsuite/proxqp</text>
<text text-anchor="middle" x="913.5" y="-563.25" font-family="Helvetica,sans-Serif" font-size="10.00">/results.hpp</text>
</a>
</g>
</g>
<!-- Node2&#45;&gt;Node16 -->
<g id="edge18_Node000002_Node000016" class="edge">
<title>Node2&#45;&gt;Node16</title>
<g id="a_edge18_Node000002_Node000016"><a xlink:title=" ">
<path fill="none" stroke="#63b8ff" d="M827.18,-619.99C845.42,-610.22 866.7,-598.82 883.57,-589.79"/>
<polygon fill="#63b8ff" stroke="#63b8ff" points="825.84,-617.27 818.68,-625.08 829.15,-623.44 825.84,-617.27"/>
</a>
</g>
</g>
<!-- Node24 -->
<g id="Node000024" class="node">
<title>Node24</title>
<g id="a_Node000024"><a xlink:href="sparse_2helpers_8hpp.html" target="_top" xlink:title=" ">
<polygon fill="white" stroke="#666666" points="1362.88,-311.5 1226.12,-311.5 1226.12,-278 1362.88,-278 1362.88,-311.5"/>
<text text-anchor="start" x="1234.12" y="-298" font-family="Helvetica,sans-Serif" font-size="10.00">include/proxsuite/proxqp</text>
<text text-anchor="middle" x="1294.5" y="-285.25" font-family="Helvetica,sans-Serif" font-size="10.00">/sparse/helpers.hpp</text>
</a>
</g>
</g>
<!-- Node2&#45;&gt;Node24 -->
<g id="edge39_Node000002_Node000024" class="edge">
<title>Node2&#45;&gt;Node24</title>
<g id="a_edge39_Node000002_Node000024"><a xlink:title=" ">
<path fill="none" stroke="#63b8ff" d="M867.97,-636.54C1013.04,-625.83 1303.5,-593.26 1303.5,-504.25 1303.5,-504.25 1303.5,-504.25 1303.5,-432.75 1303.5,-388.89 1298.85,-337.31 1296.24,-311.76"/>
<polygon fill="#63b8ff" stroke="#63b8ff" points="868.08,-633.09 858.36,-637.3 868.58,-640.08 868.08,-633.09"/>
</a>
</g>
</g>
<!-- Node4 -->
<g id="Node000004" class="node">
<title>Node4</title>
<g id="a_Node000004"><a xlink:href="proxqp_2dense_2model_8hpp.html" target="_top" xlink:title=" ">
<polygon fill="white" stroke="#666666" points="504.88,-520 368.12,-520 368.12,-486.5 504.88,-486.5 504.88,-520"/>
<text text-anchor="start" x="376.12" y="-506.5" font-family="Helvetica,sans-Serif" font-size="10.00">include/proxsuite/proxqp</text>
<text text-anchor="middle" x="436.5" y="-493.75" font-family="Helvetica,sans-Serif" font-size="10.00">/dense/model.hpp</text>
</a>
</g>
</g>
<!-- Node3&#45;&gt;Node4 -->
<g id="edge3_Node000003_Node000004" class="edge">
<title>Node3&#45;&gt;Node4</title>
<g id="a_edge3_Node000003_Node000004"><a xlink:title=" ">
<path fill="none" stroke="#63b8ff" d="M466.18,-546.88C459.95,-537.94 453.11,-528.1 447.56,-520.13"/>
<polygon fill="#63b8ff" stroke="#63b8ff" points="463.78,-548.55 472.36,-554.75 469.52,-544.55 463.78,-548.55"/>
</a>
</g>
</g>
<!-- Node5 -->
<g id="Node000005" class="node">
<title>Node5</title>
<g id="a_Node000005"><a xlink:href="linesearch_8hpp.html" target="_top" xlink:title=" ">
<polygon fill="white" stroke="#666666" points="504.88,-450.5 368.12,-450.5 368.12,-417 504.88,-417 504.88,-450.5"/>
<text text-anchor="start" x="376.12" y="-437" font-family="Helvetica,sans-Serif" font-size="10.00">include/proxsuite/proxqp</text>
<text text-anchor="middle" x="436.5" y="-424.25" font-family="Helvetica,sans-Serif" font-size="10.00">/dense/linesearch.hpp</text>
</a>
</g>
</g>
<!-- Node4&#45;&gt;Node5 -->
<g id="edge4_Node000004_Node000005" class="edge">
<title>Node4&#45;&gt;Node5</title>
<g id="a_edge4_Node000004_Node000005"><a xlink:title=" ">
<path fill="none" stroke="#63b8ff" d="M436.5,-475.39C436.5,-467 436.5,-458.01 436.5,-450.63"/>
<polygon fill="#63b8ff" stroke="#63b8ff" points="433,-475.25 436.5,-485.25 440,-475.25 433,-475.25"/>
</a>
</g>
</g>
<!-- Node12 -->
<g id="Node000012" class="node">
<title>Node12</title>
<g id="a_Node000012"><a xlink:href="dense_2utils_8hpp.html" target="_top" xlink:title=" ">
<polygon fill="white" stroke="#666666" points="659.88,-450.5 523.12,-450.5 523.12,-417 659.88,-417 659.88,-450.5"/>
<text text-anchor="start" x="531.12" y="-437" font-family="Helvetica,sans-Serif" font-size="10.00">include/proxsuite/proxqp</text>
<text text-anchor="middle" x="591.5" y="-424.25" font-family="Helvetica,sans-Serif" font-size="10.00">/dense/utils.hpp</text>
</a>
</g>
</g>
<!-- Node4&#45;&gt;Node12 -->
<g id="edge11_Node000004_Node000012" class="edge">
<title>Node4&#45;&gt;Node12</title>
<g id="a_edge11_Node000004_Node000012"><a xlink:title=" ">
<path fill="none" stroke="#63b8ff" d="M483.42,-481.82C506.17,-471.91 533.12,-460.18 554.41,-450.9"/>
<polygon fill="#63b8ff" stroke="#63b8ff" points="482.4,-478.88 474.63,-486.08 485.19,-485.3 482.4,-478.88"/>
</a>
</g>
</g>
<!-- Node13 -->
<g id="Node000013" class="node">
<title>Node13</title>
<g id="a_Node000013"><a xlink:href="random__qp__problems_8hpp.html" target="_top" xlink:title=" ">
<polygon fill="white" stroke="#666666" points="350.38,-450.5 180.62,-450.5 180.62,-417 350.38,-417 350.38,-450.5"/>
<text text-anchor="start" x="188.62" y="-437" font-family="Helvetica,sans-Serif" font-size="10.00">include/proxsuite/proxqp</text>
<text text-anchor="middle" x="265.5" y="-424.25" font-family="Helvetica,sans-Serif" font-size="10.00">/utils/random_qp_problems.hpp</text>
</a>
</g>
</g>
<!-- Node4&#45;&gt;Node13 -->
<g id="edge13_Node000004_Node000013" class="edge">
<title>Node4&#45;&gt;Node13</title>
<g id="a_edge13_Node000004_Node000013"><a xlink:title=" ">
<path fill="none" stroke="#63b8ff" d="M385.41,-482.08C360.17,-472.12 330.12,-460.26 306.42,-450.9"/>
<polygon fill="#63b8ff" stroke="#63b8ff" points="383.95,-485.67 394.54,-486.08 386.52,-479.15 383.95,-485.67"/>
</a>
</g>
</g>
<!-- Node14 -->
<g id="Node000014" class="node">
<title>Node14</title>
<g id="a_Node000014"><a xlink:href="serialization_2model_8hpp.html" target="_top" xlink:title=" ">
<polygon fill="white" stroke="#666666" points="163,-450.5 0,-450.5 0,-417 163,-417 163,-450.5"/>
<text text-anchor="start" x="8" y="-437" font-family="Helvetica,sans-Serif" font-size="10.00">include/proxsuite/serialization</text>
<text text-anchor="middle" x="81.5" y="-424.25" font-family="Helvetica,sans-Serif" font-size="10.00">/model.hpp</text>
</a>
</g>
</g>
<!-- Node4&#45;&gt;Node14 -->
<g id="edge14_Node000004_Node000014" class="edge">
<title>Node4&#45;&gt;Node14</title>
<g id="a_edge14_Node000004_Node000014"><a xlink:title=" ">
<path fill="none" stroke="#63b8ff" d="M357.1,-487.15C299.39,-476.18 221.5,-461.37 163.25,-450.29"/>
<polygon fill="#63b8ff" stroke="#63b8ff" points="356.15,-490.73 366.63,-489.16 357.46,-483.85 356.15,-490.73"/>
</a>
</g>
</g>
<!-- Node6 -->
<g id="Node000006" class="node">
<title>Node6</title>
<g id="a_Node000006"><a xlink:href="dense_2solver_8hpp.html" target="_top" xlink:title=" ">
<polygon fill="white" stroke="#666666" points="678.88,-381 542.12,-381 542.12,-347.5 678.88,-347.5 678.88,-381"/>
<text text-anchor="start" x="550.12" y="-367.5" font-family="Helvetica,sans-Serif" font-size="10.00">include/proxsuite/proxqp</text>
<text text-anchor="middle" x="610.5" y="-354.75" font-family="Helvetica,sans-Serif" font-size="10.00">/dense/solver.hpp</text>
</a>
</g>
</g>
<!-- Node5&#45;&gt;Node6 -->
<g id="edge5_Node000005_Node000006" class="edge">
<title>Node5&#45;&gt;Node6</title>
<g id="a_edge5_Node000005_Node000006"><a xlink:title=" ">
<path fill="none" stroke="#63b8ff" d="M488.14,-412.72C513.9,-402.72 544.64,-390.8 568.86,-381.4"/>
<polygon fill="#63b8ff" stroke="#63b8ff" points="487.23,-409.7 479.18,-416.58 489.77,-416.23 487.23,-409.7"/>
</a>
</g>
</g>
<!-- Node7 -->
<g id="Node000007" class="node">
<title>Node7</title>
<g id="a_Node000007"><a xlink:href="proxqp_2dense_2wrapper_8hpp.html" target="_top" xlink:title=" ">
<polygon fill="white" stroke="#666666" points="793.88,-172.5 657.12,-172.5 657.12,-139 793.88,-139 793.88,-172.5"/>
<text text-anchor="start" x="665.12" y="-159" font-family="Helvetica,sans-Serif" font-size="10.00">include/proxsuite/proxqp</text>
<text text-anchor="middle" x="725.5" y="-146.25" font-family="Helvetica,sans-Serif" font-size="10.00">/dense/wrapper.hpp</text>
</a>
</g>
</g>
<!-- Node6&#45;&gt;Node7 -->
<g id="edge6_Node000006_Node000007" class="edge">
<title>Node6&#45;&gt;Node7</title>
<g id="a_edge6_Node000006_Node000007"><a xlink:title=" ">
<path fill="none" stroke="#63b8ff" d="M624.82,-337.53C648.86,-294.36 696.66,-208.55 716.52,-172.88"/>
<polygon fill="#63b8ff" stroke="#63b8ff" points="621.33,-335.61 619.52,-346.05 627.45,-339.01 621.33,-335.61"/>
</a>
</g>
</g>
<!-- Node8 -->
<g id="Node000008" class="node">
<title>Node8</title>
<g id="a_Node000008"><a xlink:href="compute__ECJ_8hpp.html" target="_top" xlink:title=" ">
<polygon fill="white" stroke="#666666" points="793.88,-103 657.12,-103 657.12,-69.5 793.88,-69.5 793.88,-103"/>
<text text-anchor="start" x="665.12" y="-89.5" font-family="Helvetica,sans-Serif" font-size="10.00">include/proxsuite/proxqp</text>
<text text-anchor="middle" x="725.5" y="-76.75" font-family="Helvetica,sans-Serif" font-size="10.00">/dense/compute_ECJ.hpp</text>
</a>
</g>
</g>
<!-- Node7&#45;&gt;Node8 -->
<g id="edge7_Node000007_Node000008" class="edge">
<title>Node7&#45;&gt;Node8</title>
<g id="a_edge7_Node000007_Node000008"><a xlink:title=" ">
<path fill="none" stroke="#63b8ff" d="M725.5,-127.89C725.5,-119.5 725.5,-110.51 725.5,-103.13"/>
<polygon fill="#63b8ff" stroke="#63b8ff" points="722,-127.75 725.5,-137.75 729,-127.75 722,-127.75"/>
</a>
</g>
</g>
<!-- Node10 -->
<g id="Node000010" class="node">
<title>Node10</title>
<g id="a_Node000010"><a xlink:href="dense_8hpp.html" target="_top" xlink:title=" ">
<polygon fill="white" stroke="#666666" points="948.88,-103 812.12,-103 812.12,-69.5 948.88,-69.5 948.88,-103"/>
<text text-anchor="start" x="820.12" y="-89.5" font-family="Helvetica,sans-Serif" font-size="10.00">include/proxsuite/proxqp</text>
<text text-anchor="middle" x="880.5" y="-76.75" font-family="Helvetica,sans-Serif" font-size="10.00">/dense/dense.hpp</text>
</a>
</g>
</g>
<!-- Node7&#45;&gt;Node10 -->
<g id="edge9_Node000007_Node000010" class="edge">
<title>Node7&#45;&gt;Node10</title>
<g id="a_edge9_Node000007_Node000010"><a xlink:title=" ">
<path fill="none" stroke="#63b8ff" d="M772.42,-134.32C795.17,-124.41 822.12,-112.68 843.41,-103.4"/>
<polygon fill="#63b8ff" stroke="#63b8ff" points="771.4,-131.38 763.63,-138.58 774.19,-137.8 771.4,-131.38"/>
</a>
</g>
</g>
<!-- Node11 -->
<g id="Node000011" class="node">
<title>Node11</title>
<g id="a_Node000011"><a xlink:href="serialization_2wrapper_8hpp.html" target="_top" xlink:title=" ">
<polygon fill="white" stroke="#666666" points="639,-103 476,-103 476,-69.5 639,-69.5 639,-103"/>
<text text-anchor="start" x="484" y="-89.5" font-family="Helvetica,sans-Serif" font-size="10.00">include/proxsuite/serialization</text>
<text text-anchor="middle" x="557.5" y="-76.75" font-family="Helvetica,sans-Serif" font-size="10.00">/wrapper.hpp</text>
</a>
</g>
</g>
<!-- Node7&#45;&gt;Node11 -->
<g id="edge10_Node000007_Node000011" class="edge">
<title>Node7&#45;&gt;Node11</title>
<g id="a_edge10_Node000007_Node000011"><a xlink:title=" ">
<path fill="none" stroke="#63b8ff" d="M675.31,-134.58C650.51,-124.62 620.99,-112.76 597.7,-103.4"/>
<polygon fill="#63b8ff" stroke="#63b8ff" points="673.68,-138.1 684.26,-138.58 676.29,-131.61 673.68,-138.1"/>
</a>
</g>
</g>
<!-- Node9 -->
<g id="Node000009" class="node">
<title>Node9</title>
<g id="a_Node000009"><a xlink:href="qp__solve_8hpp.html" target="_top" xlink:title=" ">
<polygon fill="white" stroke="#666666" points="918.88,-33.5 782.12,-33.5 782.12,0 918.88,0 918.88,-33.5"/>
<text text-anchor="start" x="790.12" y="-20" font-family="Helvetica,sans-Serif" font-size="10.00">include/proxsuite/proxqp</text>
<text text-anchor="middle" x="850.5" y="-7.25" font-family="Helvetica,sans-Serif" font-size="10.00">/parallel/qp_solve.hpp</text>
</a>
</g>
</g>
<!-- Node8&#45;&gt;Node9 -->
<g id="edge8_Node000008_Node000009" class="edge">
<title>Node8&#45;&gt;Node9</title>
<g id="a_edge8_Node000008_Node000009"><a xlink:title=" ">
<path fill="none" stroke="#63b8ff" d="M765.11,-63.86C783.15,-54.12 804.15,-42.78 820.8,-33.79"/>
<polygon fill="#63b8ff" stroke="#63b8ff" points="763.58,-61.25 756.44,-69.08 766.9,-67.41 763.58,-61.25"/>
</a>
</g>
</g>
<!-- Node12&#45;&gt;Node6 -->
<g id="edge12_Node000012_Node000006" class="edge">
<title>Node12&#45;&gt;Node6</title>
<g id="a_edge12_Node000012_Node000006"><a xlink:title=" ">
<path fill="none" stroke="#63b8ff" d="M598.98,-406.17C601.37,-397.7 603.93,-388.6 606.03,-381.13"/>
<polygon fill="#63b8ff" stroke="#63b8ff" points="595.34,-405.18 596,-415.75 602.08,-407.08 595.34,-405.18"/>
</a>
</g>
</g>
<!-- Node15&#45;&gt;Node6 -->
<g id="edge16_Node000015_Node000006" class="edge">
<title>Node15&#45;&gt;Node6</title>
<g id="a_edge16_Node000015_Node000006"><a xlink:title=" ">
<path fill="none" stroke="#63b8ff" d="M682,-475.23C681.25,-457.68 678.17,-434.84 668.5,-417 660.78,-402.76 647.56,-390.5 635.68,-381.49"/>
<polygon fill="#63b8ff" stroke="#63b8ff" points="678.52,-475.22 682.2,-485.15 685.51,-475.09 678.52,-475.22"/>
</a>
</g>
</g>
<!-- Node15&#45;&gt;Node7 -->
<g id="edge17_Node000015_Node000007" class="edge">
<title>Node15&#45;&gt;Node7</title>
<g id="a_edge17_Node000015_Node000007"><a xlink:title=" ">
<path fill="none" stroke="#63b8ff" d="M695.05,-476.55C707.98,-449.59 725.5,-405.61 725.5,-365.25 725.5,-365.25 725.5,-365.25 725.5,-293.75 725.5,-249.99 725.5,-198.36 725.5,-172.78"/>
<polygon fill="#63b8ff" stroke="#63b8ff" points="691.5,-474.82 690.19,-485.34 697.77,-477.93 691.5,-474.82"/>
</a>
</g>
</g>
<!-- Node16&#45;&gt;Node5 -->
<g id="edge20_Node000016_Node000005" class="edge">
<title>Node16&#45;&gt;Node5</title>
<g id="a_edge20_Node000016_Node000005"><a xlink:title=" ">
<path fill="none" stroke="#63b8ff" d="M834.25,-567.31C766.57,-561.64 667.45,-548.81 585.5,-520 537.14,-503 486.5,-470.36 458.48,-450.77"/>
<polygon fill="#63b8ff" stroke="#63b8ff" points="833.59,-570.85 843.84,-568.16 834.15,-563.87 833.59,-570.85"/>
</a>
</g>
</g>
<!-- Node16&#45;&gt;Node12 -->
<g id="edge21_Node000016_Node000012" class="edge">
<title>Node16&#45;&gt;Node12</title>
<g id="a_edge21_Node000016_Node000012"><a xlink:title=" ">
<path fill="none" stroke="#63b8ff" d="M834.08,-568.78C753.32,-564.02 635.74,-551.7 604.5,-520 586.53,-501.77 586.77,-469.85 588.9,-450.67"/>
<polygon fill="#63b8ff" stroke="#63b8ff" points="833.54,-572.31 843.72,-569.38 833.93,-565.32 833.54,-572.31"/>
</a>
</g>
</g>
<!-- Node16&#45;&gt;Node15 -->
<g id="edge19_Node000016_Node000015" class="edge">
<title>Node16&#45;&gt;Node15</title>
<g id="a_edge19_Node000016_Node000015"><a xlink:title=" ">
<path fill="none" stroke="#63b8ff" d="M847.81,-552.64C812.85,-542.47 770.32,-530.09 737.02,-520.4"/>
<polygon fill="#63b8ff" stroke="#63b8ff" points="846.35,-556.15 856.93,-555.58 848.31,-549.43 846.35,-556.15"/>
</a>
</g>
</g>
<!-- Node17 -->
<g id="Node000017" class="node">
<title>Node17</title>
<g id="a_Node000017"><a xlink:href="sparse_2solver_8hpp.html" target="_top" xlink:title=" ">
<polygon fill="white" stroke="#666666" points="1199.88,-311.5 1063.12,-311.5 1063.12,-278 1199.88,-278 1199.88,-311.5"/>
<text text-anchor="start" x="1071.12" y="-298" font-family="Helvetica,sans-Serif" font-size="10.00">include/proxsuite/proxqp</text>
<text text-anchor="middle" x="1131.5" y="-285.25" font-family="Helvetica,sans-Serif" font-size="10.00">/sparse/solver.hpp</text>
</a>
</g>
</g>
<!-- Node16&#45;&gt;Node17 -->
<g id="edge22_Node000016_Node000017" class="edge">
<title>Node16&#45;&gt;Node17</title>
<g id="a_edge22_Node000016_Node000017"><a xlink:title=" ">
<path fill="none" stroke="#63b8ff" d="M992.93,-566.45C1064.76,-560.02 1163.42,-546.55 1191.5,-520 1248.28,-466.31 1265.26,-414.77 1225.5,-347.5 1215.93,-331.3 1199.28,-319.83 1182.62,-311.88"/>
<polygon fill="#63b8ff" stroke="#63b8ff" points="992.76,-563.04 983.1,-567.39 993.36,-570.01 992.76,-563.04"/>
</a>
</g>
</g>
<!-- Node18 -->
<g id="Node000018" class="node">
<title>Node18</title>
<g id="a_Node000018"><a xlink:href="proxqp_2sparse_2wrapper_8hpp.html" target="_top" xlink:title=" ">
<polygon fill="white" stroke="#666666" points="1092.88,-242 956.12,-242 956.12,-208.5 1092.88,-208.5 1092.88,-242"/>
<text text-anchor="start" x="964.12" y="-228.5" font-family="Helvetica,sans-Serif" font-size="10.00">include/proxsuite/proxqp</text>
<text text-anchor="middle" x="1024.5" y="-215.75" font-family="Helvetica,sans-Serif" font-size="10.00">/sparse/wrapper.hpp</text>
</a>
</g>
</g>
<!-- Node16&#45;&gt;Node18 -->
<g id="edge37_Node000016_Node000018" class="edge">
<title>Node16&#45;&gt;Node18</title>
<g id="a_edge37_Node000016_Node000018"><a xlink:title=" ">
<path fill="none" stroke="#63b8ff" d="M927.48,-546.48C941.02,-519.61 959.5,-475.46 959.5,-434.75 959.5,-434.75 959.5,-434.75 959.5,-363.25 959.5,-315.6 991.99,-266.84 1011.03,-242.37"/>
<polygon fill="#63b8ff" stroke="#63b8ff" points="924.1,-544.4 922.59,-554.88 930.31,-547.63 924.1,-544.4"/>
</a>
</g>
</g>
<!-- Node20 -->
<g id="Node000020" class="node">
<title>Node20</title>
<g id="a_Node000020"><a xlink:href="sparse_2utils_8hpp.html" target="_top" xlink:title=" ">
<polygon fill="white" stroke="#666666" points="1123.88,-450.5 987.12,-450.5 987.12,-417 1123.88,-417 1123.88,-450.5"/>
<text text-anchor="start" x="995.12" y="-437" font-family="Helvetica,sans-Serif" font-size="10.00">include/proxsuite/proxqp</text>
<text text-anchor="middle" x="1055.5" y="-424.25" font-family="Helvetica,sans-Serif" font-size="10.00">/sparse/utils.hpp</text>
</a>
</g>
</g>
<!-- Node16&#45;&gt;Node20 -->
<g id="edge27_Node000016_Node000020" class="edge">
<title>Node16&#45;&gt;Node20</title>
<g id="a_edge27_Node000016_Node000020"><a xlink:title=" ">
<path fill="none" stroke="#63b8ff" d="M941.35,-548.66C951.64,-539.89 963.28,-529.68 973.5,-520 997.95,-496.84 1024.73,-468.37 1040.81,-450.89"/>
<polygon fill="#63b8ff" stroke="#63b8ff" points="939.47,-546.52 934.09,-555.65 943.98,-551.87 939.47,-546.52"/>
</a>
</g>
</g>
<!-- Node21 -->
<g id="Node000021" class="node">
<title>Node21</title>
<g id="a_Node000021"><a xlink:href="proxqp_2sparse_2workspace_8hpp.html" target="_top" xlink:title=" ">
<polygon fill="white" stroke="#666666" points="1199.88,-381 1063.12,-381 1063.12,-347.5 1199.88,-347.5 1199.88,-381"/>
<text text-anchor="start" x="1071.12" y="-367.5" font-family="Helvetica,sans-Serif" font-size="10.00">include/proxsuite/proxqp</text>
<text text-anchor="middle" x="1131.5" y="-354.75" font-family="Helvetica,sans-Serif" font-size="10.00">/sparse/workspace.hpp</text>
</a>
</g>
</g>
<!-- Node16&#45;&gt;Node21 -->
<g id="edge36_Node000016_Node000021" class="edge">
<title>Node16&#45;&gt;Node21</title>
<g id="a_edge36_Node000016_Node000021"><a xlink:title=" ">
<path fill="none" stroke="#63b8ff" d="M992.8,-566.57C1059.79,-560.34 1148.3,-547.12 1170.5,-520 1204.37,-478.62 1165.01,-411.68 1143.58,-381.24"/>
<polygon fill="#63b8ff" stroke="#63b8ff" points="992.89,-563.13 983.24,-567.51 993.52,-570.11 992.89,-563.13"/>
</a>
</g>
</g>
<!-- Node22 -->
<g id="Node000022" class="node">
<title>Node22</title>
<g id="a_Node000022"><a xlink:href="sparse_2views_8hpp.html" target="_top" xlink:title=" ">
<polygon fill="white" stroke="#666666" points="1161.88,-520 1025.12,-520 1025.12,-486.5 1161.88,-486.5 1161.88,-520"/>
<text text-anchor="start" x="1033.12" y="-506.5" font-family="Helvetica,sans-Serif" font-size="10.00">include/proxsuite/proxqp</text>
<text text-anchor="middle" x="1093.5" y="-493.75" font-family="Helvetica,sans-Serif" font-size="10.00">/sparse/views.hpp</text>
</a>
</g>
</g>
<!-- Node16&#45;&gt;Node22 -->
<g id="edge32_Node000016_Node000022" class="edge">
<title>Node16&#45;&gt;Node22</title>
<g id="a_edge32_Node000016_Node000022"><a xlink:title=" ">
<path fill="none" stroke="#63b8ff" d="M966.57,-551.85C993.29,-541.83 1025.26,-529.84 1050.43,-520.4"/>
<polygon fill="#63b8ff" stroke="#63b8ff" points="965.75,-548.79 957.61,-555.58 968.21,-555.35 965.75,-548.79"/>
</a>
</g>
</g>
<!-- Node23 -->
<g id="Node000023" class="node">
<title>Node23</title>
<g id="a_Node000023"><a xlink:href="serialization_2results_8hpp.html" target="_top" xlink:title=" ">
<polygon fill="white" stroke="#666666" points="931,-520 768,-520 768,-486.5 931,-486.5 931,-520"/>
<text text-anchor="start" x="776" y="-506.5" font-family="Helvetica,sans-Serif" font-size="10.00">include/proxsuite/serialization</text>
<text text-anchor="middle" x="849.5" y="-493.75" font-family="Helvetica,sans-Serif" font-size="10.00">/results.hpp</text>
</a>
</g>
</g>
<!-- Node16&#45;&gt;Node23 -->
<g id="edge38_Node000016_Node000023" class="edge">
<title>Node16&#45;&gt;Node23</title>
<g id="a_edge38_Node000016_Node000023"><a xlink:title=" ">
<path fill="none" stroke="#63b8ff" d="M890.98,-548C882.23,-538.77 872.43,-528.44 864.56,-520.13"/>
<polygon fill="#63b8ff" stroke="#63b8ff" points="887.91,-549.9 897.33,-554.75 892.99,-545.09 887.91,-549.9"/>
</a>
</g>
</g>
<!-- Node17&#45;&gt;Node18 -->
<g id="edge23_Node000017_Node000018" class="edge">
<title>Node17&#45;&gt;Node18</title>
<g id="a_edge23_Node000017_Node000018"><a xlink:title=" ">
<path fill="none" stroke="#63b8ff" d="M1096.73,-271.82C1081.48,-262.2 1063.91,-251.11 1049.92,-242.29"/>
<polygon fill="#63b8ff" stroke="#63b8ff" points="1094.55,-275.21 1104.87,-277.58 1098.28,-269.29 1094.55,-275.21"/>
</a>
</g>
</g>
<!-- Node18&#45;&gt;Node7 -->
<g id="edge24_Node000018_Node000007" class="edge">
<title>Node18&#45;&gt;Node7</title>
<g id="a_edge24_Node000018_Node000007"><a xlink:title=" ">
<path fill="none" stroke="#63b8ff" d="M945.45,-206.41C898.44,-195.79 839.38,-182.46 794.29,-172.28"/>
<polygon fill="#63b8ff" stroke="#63b8ff" points="944.38,-209.98 954.9,-208.76 945.92,-203.15 944.38,-209.98"/>
</a>
</g>
</g>
<!-- Node18&#45;&gt;Node9 -->
<g id="edge25_Node000018_Node000009" class="edge">
<title>Node18&#45;&gt;Node9</title>
<g id="a_edge25_Node000018_Node000009"><a xlink:title=" ">
<path fill="none" stroke="#63b8ff" d="M1009.21,-198.83C1004.52,-190.57 999.55,-181.28 995.5,-172.5 975.07,-128.19 990.29,-105.64 957.5,-69.5 943.01,-53.53 922.52,-41.98 903.34,-33.89"/>
<polygon fill="#63b8ff" stroke="#63b8ff" points="1006.64,-200.38 1014.69,-207.28 1012.7,-196.87 1006.64,-200.38"/>
</a>
</g>
</g>
<!-- Node19 -->
<g id="Node000019" class="node">
<title>Node19</title>
<g id="a_Node000019"><a xlink:href="sparse_8hpp.html" target="_top" xlink:title=" ">
<polygon fill="white" stroke="#666666" points="1140.88,-172.5 1004.12,-172.5 1004.12,-139 1140.88,-139 1140.88,-172.5"/>
<text text-anchor="start" x="1012.12" y="-159" font-family="Helvetica,sans-Serif" font-size="10.00">include/proxsuite/proxqp</text>
<text text-anchor="middle" x="1072.5" y="-146.25" font-family="Helvetica,sans-Serif" font-size="10.00">/sparse/sparse.hpp</text>
</a>
</g>
</g>
<!-- Node18&#45;&gt;Node19 -->
<g id="edge26_Node000018_Node000019" class="edge">
<title>Node18&#45;&gt;Node19</title>
<g id="a_edge26_Node000018_Node000019"><a xlink:title=" ">
<path fill="none" stroke="#63b8ff" d="M1042.19,-199.38C1048.55,-190.44 1055.54,-180.6 1061.21,-172.63"/>
<polygon fill="#63b8ff" stroke="#63b8ff" points="1038.82,-197.08 1035.88,-207.25 1044.52,-201.13 1038.82,-197.08"/>
</a>
</g>
</g>
<!-- Node20&#45;&gt;Node17 -->
<g id="edge28_Node000020_Node000017" class="edge">
<title>Node20&#45;&gt;Node17</title>
<g id="a_edge28_Node000020_Node000017"><a xlink:title=" ">
<path fill="none" stroke="#63b8ff" d="M1048.82,-405.89C1045.91,-388.27 1045.02,-365.29 1054.5,-347.5 1062.83,-331.86 1078.22,-320.11 1093.06,-311.79"/>
<polygon fill="#63b8ff" stroke="#63b8ff" points="1045.56,-406.46 1050.93,-415.59 1052.43,-405.1 1045.56,-406.46"/>
</a>
</g>
</g>
<!-- Node20&#45;&gt;Node21 -->
<g id="edge29_Node000020_Node000021" class="edge">
<title>Node20&#45;&gt;Node21</title>
<g id="a_edge29_Node000020_Node000021"><a xlink:title=" ">
<path fill="none" stroke="#63b8ff" d="M1075.4,-409.34C1085.26,-400.1 1097.15,-389.73 1107.5,-381.37"/>
<polygon fill="#63b8ff" stroke="#63b8ff" points="1073.46,-406.3 1068.67,-415.75 1078.31,-411.36 1073.46,-406.3"/>
</a>
</g>
</g>
<!-- Node21&#45;&gt;Node17 -->
<g id="edge30_Node000021_Node000017" class="edge">
<title>Node21&#45;&gt;Node17</title>
<g id="a_edge30_Node000021_Node000017"><a xlink:title=" ">
<path fill="none" stroke="#63b8ff" d="M1131.5,-336.39C1131.5,-328 1131.5,-319.01 1131.5,-311.63"/>
<polygon fill="#63b8ff" stroke="#63b8ff" points="1128,-336.25 1131.5,-346.25 1135,-336.25 1128,-336.25"/>
</a>
</g>
</g>
<!-- Node21&#45;&gt;Node20 -->
<g id="edge31_Node000021_Node000020" class="edge">
<title>Node21&#45;&gt;Node20</title>
<g id="a_edge31_Node000021_Node000020"><a xlink:title=" ">
<path fill="none" stroke="#63b8ff" d="M1111.67,-388.59C1101.75,-397.89 1089.77,-408.35 1079.35,-416.75"/>
<polygon fill="#63b8ff" stroke="#63b8ff" points="1113.66,-391.58 1118.45,-382.13 1108.81,-386.53 1113.66,-391.58"/>
</a>
</g>
</g>
<!-- Node22&#45;&gt;Node17 -->
<g id="edge33_Node000022_Node000017" class="edge">
<title>Node22&#45;&gt;Node17</title>
<g id="a_edge33_Node000022_Node000017"><a xlink:title=" ">
<path fill="none" stroke="#63b8ff" d="M1126.72,-479.56C1154.91,-458.02 1193.16,-422.78 1208.5,-381 1213.63,-367.02 1215.5,-360.64 1208.5,-347.5 1200.17,-331.86 1184.78,-320.11 1169.94,-311.79"/>
<polygon fill="#63b8ff" stroke="#63b8ff" points="1124.9,-477.3 1118.96,-486.07 1129.07,-482.92 1124.9,-477.3"/>
</a>
</g>
</g>
<!-- Node22&#45;&gt;Node20 -->
<g id="edge34_Node000022_Node000020" class="edge">
<title>Node22&#45;&gt;Node20</title>
<g id="a_edge34_Node000022_Node000020"><a xlink:title=" ">
<path fill="none" stroke="#63b8ff" d="M1079.18,-476.81C1074.23,-468.02 1068.83,-458.43 1064.44,-450.63"/>
<polygon fill="#63b8ff" stroke="#63b8ff" points="1076.54,-478.26 1084.49,-485.25 1082.64,-474.82 1076.54,-478.26"/>
</a>
</g>
</g>
<!-- Node22&#45;&gt;Node21 -->
<g id="edge35_Node000022_Node000021" class="edge">
<title>Node22&#45;&gt;Node21</title>
<g id="a_edge35_Node000022_Node000021"><a xlink:title=" ">
<path fill="none" stroke="#63b8ff" d="M1116.86,-477.97C1123.19,-469.87 1129.2,-460.37 1132.5,-450.5 1140.2,-427.48 1137.63,-398.97 1134.78,-381.45"/>
<polygon fill="#63b8ff" stroke="#63b8ff" points="1113.73,-475.26 1109.98,-485.17 1119.09,-479.76 1113.73,-475.26"/>
</a>
</g>
</g>
<!-- Node24&#45;&gt;Node18 -->
<g id="edge40_Node000024_Node000018" class="edge">
<title>Node24&#45;&gt;Node18</title>
<g id="a_edge40_Node000024_Node000018"><a xlink:title=" ">
<path fill="none" stroke="#63b8ff" d="M1219.36,-274.97C1178.42,-264.73 1128.28,-252.2 1089.11,-242.4"/>
<polygon fill="#63b8ff" stroke="#63b8ff" points="1218.28,-278.55 1228.83,-277.58 1219.98,-271.76 1218.28,-278.55"/>
</a>
</g>
</g>
</g>
</svg>
