<?xml version="1.0" encoding="UTF-8" standalone="no"?>
<!DOCTYPE svg PUBLIC "-//W3C//DTD SVG 1.1//EN"
 "http://www.w3.org/Graphics/SVG/1.1/DTD/svg11.dtd">
<!-- Generated by graphviz version 12.0.0 (20240803.0821)
 -->
<!-- Title: include/proxsuite/helpers/tl&#45;optional.hpp Pages: 1 -->
<svg width="358pt" height="98pt"
 viewBox="0.00 0.00 358.38 98.25" xmlns="http://www.w3.org/2000/svg" xmlns:xlink="http://www.w3.org/1999/xlink">
<g id="graph0" class="graph" transform="scale(1 1) rotate(0) translate(4 94.25)">
<title>include/proxsuite/helpers/tl&#45;optional.hpp</title>
<!-- Node1 -->
<g id="Node000001" class="node">
<title>Node1</title>
<g id="a_Node000001"><a xlink:title=" ">
<polygon fill="#999999" stroke="#666666" points="237.62,-90.25 98.62,-90.25 98.62,-56.75 237.62,-56.75 237.62,-90.25"/>
<text text-anchor="start" x="106.62" y="-76.75" font-family="Helvetica,sans-Serif" font-size="10.00">include/proxsuite/helpers</text>
<text text-anchor="middle" x="168.12" y="-64" font-family="Helvetica,sans-Serif" font-size="10.00">/tl&#45;optional.hpp</text>
</a>
</g>
</g>
<!-- Node2 -->
<g id="Node000002" class="node">
<title>Node2</title>
<g id="a_Node000002"><a xlink:title=" ">
<polygon fill="#e0e0e0" stroke="#999999" points="36.25,-20.75 0,-20.75 0,0 36.25,0 36.25,-20.75"/>
<text text-anchor="middle" x="18.12" y="-7.25" font-family="Helvetica,sans-Serif" font-size="10.00">new</text>
</a>
</g>
</g>
<!-- Node1&#45;&gt;Node2 -->
<g id="edge1_Node000001_Node000002" class="edge">
<title>Node1&#45;&gt;Node2</title>
<g id="a_edge1_Node000001_Node000002"><a xlink:title=" ">
<path fill="none" stroke="#63b8ff" d="M128.32,-56.28C102.81,-45.89 70.28,-32.63 47.19,-23.22"/>
<polygon fill="#63b8ff" stroke="#63b8ff" points="48.67,-20.04 38.09,-19.51 46.03,-26.52 48.67,-20.04"/>
</a>
</g>
</g>
<!-- Node3 -->
<g id="Node000003" class="node">
<title>Node3</title>
<g id="a_Node000003"><a xlink:title=" ">
<polygon fill="#e0e0e0" stroke="#999999" points="118.12,-20.75 54.12,-20.75 54.12,0 118.12,0 118.12,-20.75"/>
<text text-anchor="middle" x="86.12" y="-7.25" font-family="Helvetica,sans-Serif" font-size="10.00">exception</text>
</a>
</g>
</g>
<!-- Node1&#45;&gt;Node3 -->
<g id="edge2_Node000001_Node000003" class="edge">
<title>Node1&#45;&gt;Node3</title>
<g id="a_edge2_Node000001_Node000003"><a xlink:title=" ">
<path fill="none" stroke="#63b8ff" d="M146.58,-56.44C134.87,-47.71 120.39,-36.92 108.54,-28.09"/>
<polygon fill="#63b8ff" stroke="#63b8ff" points="110.65,-25.29 100.54,-22.12 106.47,-30.9 110.65,-25.29"/>
</a>
</g>
</g>
<!-- Node4 -->
<g id="Node000004" class="node">
<title>Node4</title>
<g id="a_Node000004"><a xlink:title=" ">
<polygon fill="#e0e0e0" stroke="#999999" points="200.5,-20.75 135.75,-20.75 135.75,0 200.5,0 200.5,-20.75"/>
<text text-anchor="middle" x="168.12" y="-7.25" font-family="Helvetica,sans-Serif" font-size="10.00">functional</text>
</a>
</g>
</g>
<!-- Node1&#45;&gt;Node4 -->
<g id="edge3_Node000001_Node000004" class="edge">
<title>Node1&#45;&gt;Node4</title>
<g id="a_edge3_Node000001_Node000004"><a xlink:title=" ">
<path fill="none" stroke="#63b8ff" d="M168.12,-56.44C168.12,-49.1 168.12,-40.32 168.12,-32.46"/>
<polygon fill="#63b8ff" stroke="#63b8ff" points="171.63,-32.73 168.13,-22.73 164.63,-32.73 171.63,-32.73"/>
</a>
</g>
</g>
<!-- Node5 -->
<g id="Node000005" class="node">
<title>Node5</title>
<g id="a_Node000005"><a xlink:title=" ">
<polygon fill="#e0e0e0" stroke="#999999" points="287.38,-20.75 218.88,-20.75 218.88,0 287.38,0 287.38,-20.75"/>
<text text-anchor="middle" x="253.12" y="-7.25" font-family="Helvetica,sans-Serif" font-size="10.00">type_traits</text>
</a>
</g>
</g>
<!-- Node1&#45;&gt;Node5 -->
<g id="edge4_Node000001_Node000005" class="edge">
<title>Node1&#45;&gt;Node5</title>
<g id="a_edge4_Node000001_Node000005"><a xlink:title=" ">
<path fill="none" stroke="#63b8ff" d="M190.46,-56.44C202.72,-47.62 217.9,-36.7 230.25,-27.82"/>
<polygon fill="#63b8ff" stroke="#63b8ff" points="232.13,-30.78 238.21,-22.1 228.05,-25.1 232.13,-30.78"/>
</a>
</g>
</g>
<!-- Node6 -->
<g id="Node000006" class="node">
<title>Node6</title>
<g id="a_Node000006"><a xlink:title=" ">
<polygon fill="#e0e0e0" stroke="#999999" points="350.38,-20.75 305.88,-20.75 305.88,0 350.38,0 350.38,-20.75"/>
<text text-anchor="middle" x="328.12" y="-7.25" font-family="Helvetica,sans-Serif" font-size="10.00">utility</text>
</a>
</g>
</g>
<!-- Node1&#45;&gt;Node6 -->
<g id="edge5_Node000001_Node000006" class="edge">
<title>Node1&#45;&gt;Node6</title>
<g id="a_edge5_Node000001_Node000006"><a xlink:title=" ">
<path fill="none" stroke="#63b8ff" d="M210.58,-56.28C237.08,-46.16 270.67,-33.32 295.16,-23.97"/>
<polygon fill="#63b8ff" stroke="#63b8ff" points="296.2,-27.32 304.29,-20.48 293.7,-20.78 296.2,-27.32"/>
</a>
</g>
</g>
</g>
</svg>
