<?xml version="1.0" encoding="UTF-8" standalone="no"?>
<!DOCTYPE svg PUBLIC "-//W3C//DTD SVG 1.1//EN"
 "http://www.w3.org/Graphics/SVG/1.1/DTD/svg11.dtd">
<!-- Generated by graphviz version 8.0.4 (20230426.1303)
 -->
<!-- Title: include/proxsuite/helpers/tl&#45;optional.hpp Pages: 1 -->
<svg width="358pt" height="98pt"
 viewBox="0.00 0.00 358.25 98.25" xmlns="http://www.w3.org/2000/svg" xmlns:xlink="http://www.w3.org/1999/xlink">
<g id="graph0" class="graph" transform="scale(1 1) rotate(0) translate(4 94.25)">
<title>include/proxsuite/helpers/tl&#45;optional.hpp</title>
<!-- Node1 -->
<g id="node1" class="node">
<title>Node1</title>
<g id="a_node1"><a xlink:title=" ">
<polygon fill="#999999" stroke="#666666" points="252.5,-90.25 113.5,-90.25 113.5,-56.75 252.5,-56.75 252.5,-90.25"/>
<text text-anchor="start" x="121.5" y="-76.75" font-family="Helvetica,sans-Serif" font-size="10.00">include/proxsuite/helpers</text>
<text text-anchor="middle" x="183" y="-64" font-family="Helvetica,sans-Serif" font-size="10.00">/tl&#45;optional.hpp</text>
</a>
</g>
</g>
<!-- Node2 -->
<g id="node2" class="node">
<title>Node2</title>
<g id="a_node2"><a xlink:title=" ">
<polygon fill="#e0e0e0" stroke="#999999" points="64,-20.75 0,-20.75 0,0 64,0 64,-20.75"/>
<text text-anchor="middle" x="32" y="-7.25" font-family="Helvetica,sans-Serif" font-size="10.00">exception</text>
</a>
</g>
</g>
<!-- Node1&#45;&gt;Node2 -->
<g id="edge1" class="edge">
<title>Node1&#45;&gt;Node2</title>
<path fill="none" stroke="#63b8ff" d="M142.93,-56.28C118.99,-46.59 88.9,-34.41 66.1,-25.18"/>
<polygon fill="#63b8ff" stroke="#63b8ff" points="67.77,-21.67 57.18,-21.17 65.14,-28.16 67.77,-21.67"/>
</g>
<!-- Node3 -->
<g id="node3" class="node">
<title>Node3</title>
<g id="a_node3"><a xlink:title=" ">
<polygon fill="#e0e0e0" stroke="#999999" points="146.38,-20.75 81.62,-20.75 81.62,0 146.38,0 146.38,-20.75"/>
<text text-anchor="middle" x="114" y="-7.25" font-family="Helvetica,sans-Serif" font-size="10.00">functional</text>
</a>
</g>
</g>
<!-- Node1&#45;&gt;Node3 -->
<g id="edge2" class="edge">
<title>Node1&#45;&gt;Node3</title>
<path fill="none" stroke="#63b8ff" d="M164.87,-56.44C155.11,-47.8 143.08,-37.13 133.17,-28.35"/>
<polygon fill="#63b8ff" stroke="#63b8ff" points="135.92,-26.23 126.11,-22.22 131.27,-31.47 135.92,-26.23"/>
</g>
<!-- Node4 -->
<g id="node4" class="node">
<title>Node4</title>
<g id="a_node4"><a xlink:title=" ">
<polygon fill="#e0e0e0" stroke="#999999" points="201.12,-20.75 164.88,-20.75 164.88,0 201.12,0 201.12,-20.75"/>
<text text-anchor="middle" x="183" y="-7.25" font-family="Helvetica,sans-Serif" font-size="10.00">new</text>
</a>
</g>
</g>
<!-- Node1&#45;&gt;Node4 -->
<g id="edge3" class="edge">
<title>Node1&#45;&gt;Node4</title>
<path fill="none" stroke="#63b8ff" d="M183,-56.44C183,-49.02 183,-40.11 183,-32.18"/>
<polygon fill="#63b8ff" stroke="#63b8ff" points="186.5,-32.22 183,-22.22 179.5,-32.22 186.5,-32.22"/>
</g>
<!-- Node5 -->
<g id="node5" class="node">
<title>Node5</title>
<g id="a_node5"><a xlink:title=" ">
<polygon fill="#e0e0e0" stroke="#999999" points="287.25,-20.75 218.75,-20.75 218.75,0 287.25,0 287.25,-20.75"/>
<text text-anchor="middle" x="253" y="-7.25" font-family="Helvetica,sans-Serif" font-size="10.00">type_traits</text>
</a>
</g>
</g>
<!-- Node1&#45;&gt;Node5 -->
<g id="edge4" class="edge">
<title>Node1&#45;&gt;Node5</title>
<path fill="none" stroke="#63b8ff" d="M201.39,-56.44C211.29,-47.8 223.5,-37.13 233.56,-28.35"/>
<polygon fill="#63b8ff" stroke="#63b8ff" points="235.5,-30.43 240.73,-21.22 230.89,-25.16 235.5,-30.43"/>
</g>
<!-- Node6 -->
<g id="node6" class="node">
<title>Node6</title>
<g id="a_node6"><a xlink:title=" ">
<polygon fill="#e0e0e0" stroke="#999999" points="350.25,-20.75 305.75,-20.75 305.75,0 350.25,0 350.25,-20.75"/>
<text text-anchor="middle" x="328" y="-7.25" font-family="Helvetica,sans-Serif" font-size="10.00">utility</text>
</a>
</g>
</g>
<!-- Node1&#45;&gt;Node6 -->
<g id="edge5" class="edge">
<title>Node1&#45;&gt;Node6</title>
<path fill="none" stroke="#63b8ff" d="M221.48,-56.28C244.55,-46.55 273.57,-34.32 295.49,-25.08"/>
<polygon fill="#63b8ff" stroke="#63b8ff" points="296.77,-27.92 304.62,-20.81 294.05,-21.47 296.77,-27.92"/>
</g>
</g>
</svg>
