<?xml version="1.0" encoding="UTF-8" standalone="no"?>
<!DOCTYPE svg PUBLIC "-//W3C//DTD SVG 1.1//EN"
 "http://www.w3.org/Graphics/SVG/1.1/DTD/svg11.dtd">
<!-- Generated by graphviz version 6.0.2 (20221126.1951)
 -->
<!-- Title: include/proxsuite/linalg/veg/tuple.hpp Pages: 1 -->
<svg width="1731pt" height="621pt"
 viewBox="0.00 0.00 1730.50 621.00" xmlns="http://www.w3.org/2000/svg" xmlns:xlink="http://www.w3.org/1999/xlink">
<g id="graph0" class="graph" transform="scale(1 1) rotate(0) translate(4 617)">
<title>include/proxsuite/linalg/veg/tuple.hpp</title>
<!-- Node1 -->
<g id="node1" class="node">
<title>Node1</title>
<g id="a_node1"><a xlink:title=" ">
<polygon fill="#999999" stroke="#666666" points="1221.5,-613 1090.5,-613 1090.5,-583 1221.5,-583 1221.5,-613"/>
<text text-anchor="start" x="1098.5" y="-601" font-family="Helvetica,sans-Serif" font-size="10.00">include/proxsuite/linalg</text>
<text text-anchor="middle" x="1156" y="-590" font-family="Helvetica,sans-Serif" font-size="10.00">/veg/tuple.hpp</text>
</a>
</g>
</g>
<!-- Node2 -->
<g id="node2" class="node">
<title>Node2</title>
<g id="a_node2"><a xlink:href="assignable_8hpp.html" target="_top" xlink:title=" ">
<polygon fill="white" stroke="#666666" points="452.5,-349 303.5,-349 303.5,-319 452.5,-319 452.5,-349"/>
<text text-anchor="start" x="311.5" y="-337" font-family="Helvetica,sans-Serif" font-size="10.00">proxsuite/linalg/veg</text>
<text text-anchor="middle" x="378" y="-326" font-family="Helvetica,sans-Serif" font-size="10.00">/type_traits/assignable.hpp</text>
</a>
</g>
</g>
<!-- Node1&#45;&gt;Node2 -->
<g id="edge1" class="edge">
<title>Node1&#45;&gt;Node2</title>
<path fill="none" stroke="#63b8ff" d="M1101.02,-582.93C1064.33,-573.32 1015.09,-560.03 972,-547 794.42,-493.32 750.09,-479.11 576,-415 521.84,-395.06 460.34,-369.79 420.45,-353.04"/>
<polygon fill="#63b8ff" stroke="#63b8ff" points="421.61,-349.74 411.04,-349.08 418.9,-356.19 421.61,-349.74"/>
</g>
<!-- Node11 -->
<g id="node11" class="node">
<title>Node11</title>
<g id="a_node11"><a xlink:href="prologue_8hpp.html" target="_top" xlink:title=" ">
<polygon fill="white" stroke="#666666" points="722,-85 598,-85 598,-55 722,-55 722,-85"/>
<text text-anchor="start" x="606" y="-73" font-family="Helvetica,sans-Serif" font-size="10.00">proxsuite/linalg/veg</text>
<text text-anchor="middle" x="660" y="-62" font-family="Helvetica,sans-Serif" font-size="10.00">/internal/prologue.hpp</text>
</a>
</g>
</g>
<!-- Node1&#45;&gt;Node11 -->
<g id="edge73" class="edge">
<title>Node1&#45;&gt;Node11</title>
<path fill="none" stroke="#63b8ff" d="M1090.35,-594.62C880.24,-586.14 238,-553.17 238,-467 238,-467 238,-467 238,-399 238,-254.41 280.52,-191.07 407,-121 408.01,-120.44 513.54,-99.69 587.97,-85.1"/>
<polygon fill="#63b8ff" stroke="#63b8ff" points="588.65,-88.53 597.79,-83.17 587.31,-81.66 588.65,-88.53"/>
</g>
<!-- Node13 -->
<g id="node13" class="node">
<title>Node13</title>
<g id="a_node13"><a xlink:href="epilogue_8hpp.html" target="_top" xlink:title=" ">
<polygon fill="white" stroke="#666666" points="1139.5,-85 1016.5,-85 1016.5,-55 1139.5,-55 1139.5,-85"/>
<text text-anchor="start" x="1024.5" y="-73" font-family="Helvetica,sans-Serif" font-size="10.00">proxsuite/linalg/veg</text>
<text text-anchor="middle" x="1078" y="-62" font-family="Helvetica,sans-Serif" font-size="10.00">/internal/epilogue.hpp</text>
</a>
</g>
</g>
<!-- Node1&#45;&gt;Node13 -->
<g id="edge75" class="edge">
<title>Node1&#45;&gt;Node13</title>
<path fill="none" stroke="#63b8ff" d="M1221.72,-593.41C1355.94,-584.29 1649,-554.35 1649,-467 1649,-467 1649,-467 1649,-201 1649,-149.77 1612.47,-142.57 1566,-121 1493.92,-87.54 1267.6,-76.3 1150.22,-72.65"/>
<polygon fill="#63b8ff" stroke="#63b8ff" points="1150,-69.15 1139.9,-72.35 1149.79,-76.14 1150,-69.15"/>
</g>
<!-- Node15 -->
<g id="node15" class="node">
<title>Node15</title>
<g id="a_node15"><a xlink:href="internal_2dbg_8hpp.html" target="_top" xlink:title=" ">
<polygon fill="white" stroke="#666666" points="1065.5,-481 952.5,-481 952.5,-451 1065.5,-451 1065.5,-481"/>
<text text-anchor="start" x="960.5" y="-469" font-family="Helvetica,sans-Serif" font-size="10.00">proxsuite/linalg/veg</text>
<text text-anchor="middle" x="1009" y="-458" font-family="Helvetica,sans-Serif" font-size="10.00">/internal/dbg.hpp</text>
</a>
</g>
</g>
<!-- Node1&#45;&gt;Node15 -->
<g id="edge22" class="edge">
<title>Node1&#45;&gt;Node15</title>
<path fill="none" stroke="#63b8ff" d="M1139.99,-582.84C1114.03,-559.88 1062.64,-514.44 1032.52,-487.8"/>
<polygon fill="#63b8ff" stroke="#63b8ff" points="1034.8,-485.15 1024.99,-481.14 1030.16,-490.39 1034.8,-485.15"/>
</g>
<!-- Node28 -->
<g id="node28" class="node">
<title>Node28</title>
<g id="a_node28"><a xlink:href="invocable_8hpp.html" target="_top" xlink:title=" ">
<polygon fill="white" stroke="#666666" points="768.5,-415 625.5,-415 625.5,-385 768.5,-385 768.5,-415"/>
<text text-anchor="start" x="633.5" y="-403" font-family="Helvetica,sans-Serif" font-size="10.00">proxsuite/linalg/veg</text>
<text text-anchor="middle" x="697" y="-392" font-family="Helvetica,sans-Serif" font-size="10.00">/type_traits/invocable.hpp</text>
</a>
</g>
</g>
<!-- Node1&#45;&gt;Node28 -->
<g id="edge58" class="edge">
<title>Node1&#45;&gt;Node28</title>
<path fill="none" stroke="#63b8ff" d="M1122.99,-582.9C1041.38,-548.05 830.18,-457.87 739.45,-419.12"/>
<polygon fill="#63b8ff" stroke="#63b8ff" points="740.59,-415.81 730.02,-415.1 737.84,-422.25 740.59,-415.81"/>
</g>
<!-- Node29 -->
<g id="node29" class="node">
<title>Node29</title>
<g id="a_node29"><a xlink:href="get_8hpp.html" target="_top" xlink:title=" ">
<polygon fill="white" stroke="#666666" points="1430.5,-349 1317.5,-349 1317.5,-319 1430.5,-319 1430.5,-349"/>
<text text-anchor="start" x="1325.5" y="-337" font-family="Helvetica,sans-Serif" font-size="10.00">proxsuite/linalg/veg</text>
<text text-anchor="middle" x="1374" y="-326" font-family="Helvetica,sans-Serif" font-size="10.00">/util/get.hpp</text>
</a>
</g>
</g>
<!-- Node1&#45;&gt;Node29 -->
<g id="edge63" class="edge">
<title>Node1&#45;&gt;Node29</title>
<path fill="none" stroke="#63b8ff" d="M1203.95,-582.91C1227.74,-574.61 1256.19,-562.65 1279,-547 1312.19,-524.23 1322.12,-516.54 1341,-481 1361.95,-441.55 1369.65,-389.25 1372.44,-359.15"/>
<polygon fill="#63b8ff" stroke="#63b8ff" points="1375.93,-359.38 1373.26,-349.13 1368.96,-358.81 1375.93,-359.38"/>
</g>
<!-- Node30 -->
<g id="node30" class="node">
<title>Node30</title>
<g id="a_node30"><a xlink:href="fix__index_8hpp.html" target="_top" xlink:title=" ">
<polygon fill="white" stroke="#666666" points="1270.5,-547 1145.5,-547 1145.5,-517 1270.5,-517 1270.5,-547"/>
<text text-anchor="start" x="1153.5" y="-535" font-family="Helvetica,sans-Serif" font-size="10.00">proxsuite/linalg/veg</text>
<text text-anchor="middle" x="1208" y="-524" font-family="Helvetica,sans-Serif" font-size="10.00">/internal/fix_index.hpp</text>
</a>
</g>
</g>
<!-- Node1&#45;&gt;Node30 -->
<g id="edge67" class="edge">
<title>Node1&#45;&gt;Node30</title>
<path fill="none" stroke="#63b8ff" d="M1167.54,-582.8C1174.14,-574.68 1182.56,-564.31 1190,-555.15"/>
<polygon fill="#63b8ff" stroke="#63b8ff" points="1192.9,-557.13 1196.49,-547.16 1187.47,-552.72 1192.9,-557.13"/>
</g>
<!-- Node31 -->
<g id="node31" class="node">
<title>Node31</title>
<g id="a_node31"><a xlink:title=" ">
<polygon fill="#e0e0e0" stroke="#999999" points="1722.5,-541.5 1677.5,-541.5 1677.5,-522.5 1722.5,-522.5 1722.5,-541.5"/>
<text text-anchor="middle" x="1700" y="-529.5" font-family="Helvetica,sans-Serif" font-size="10.00">utility</text>
</a>
</g>
</g>
<!-- Node1&#45;&gt;Node31 -->
<g id="edge74" class="edge">
<title>Node1&#45;&gt;Node31</title>
<path fill="none" stroke="#63b8ff" d="M1221.72,-596.02C1319.26,-593.33 1507.56,-583.4 1663,-547 1665.52,-546.41 1668.09,-545.69 1670.66,-544.9"/>
<polygon fill="#63b8ff" stroke="#63b8ff" points="1672.03,-548.12 1680.33,-541.54 1669.73,-541.51 1672.03,-548.12"/>
</g>
<!-- Node3 -->
<g id="node3" class="node">
<title>Node3</title>
<g id="a_node3"><a xlink:href="veg_2type__traits_2core_8hpp.html" target="_top" xlink:title=" ">
<polygon fill="white" stroke="#666666" points="804.5,-283 687.5,-283 687.5,-253 804.5,-253 804.5,-283"/>
<text text-anchor="start" x="695.5" y="-271" font-family="Helvetica,sans-Serif" font-size="10.00">proxsuite/linalg/veg</text>
<text text-anchor="middle" x="746" y="-260" font-family="Helvetica,sans-Serif" font-size="10.00">/type_traits/core.hpp</text>
</a>
</g>
</g>
<!-- Node2&#45;&gt;Node3 -->
<g id="edge2" class="edge">
<title>Node2&#45;&gt;Node3</title>
<path fill="none" stroke="#63b8ff" d="M452.71,-320.55C529.56,-307.75 642.02,-289.01 677.14,-283"/>
<polygon fill="#63b8ff" stroke="#63b8ff" points="678.17,-286.38 687.42,-281.21 676.97,-279.48 678.17,-286.38"/>
</g>
<!-- Node2&#45;&gt;Node11 -->
<g id="edge19" class="edge">
<title>Node2&#45;&gt;Node11</title>
<path fill="none" stroke="#63b8ff" d="M377.54,-318.84C377.49,-302.38 378.98,-274.72 388,-253 416.53,-184.27 429.5,-162.89 491,-121 507.25,-109.93 549.78,-97.38 588.1,-87.61"/>
<polygon fill="#63b8ff" stroke="#63b8ff" points="589.4,-90.9 598.25,-85.07 587.7,-84.11 589.4,-90.9"/>
</g>
<!-- Node2&#45;&gt;Node13 -->
<g id="edge21" class="edge">
<title>Node2&#45;&gt;Node13</title>
<path fill="none" stroke="#63b8ff" d="M381.41,-318.81C386.62,-300.43 398.43,-268.87 421,-253 509.58,-190.7 562.88,-260.64 662,-217 681.38,-208.47 680.77,-197.76 699,-187 766.32,-147.29 787.48,-144.55 862,-121 909.4,-106.02 963.95,-93.43 1006.37,-84.63"/>
<polygon fill="#63b8ff" stroke="#63b8ff" points="1007.23,-88.02 1016.33,-82.59 1005.83,-81.17 1007.23,-88.02"/>
</g>
<!-- Node14 -->
<g id="node14" class="node">
<title>Node14</title>
<g id="a_node14"><a xlink:title=" ">
<polygon fill="#e0e0e0" stroke="#999999" points="499.5,-277.5 430.5,-277.5 430.5,-258.5 499.5,-258.5 499.5,-277.5"/>
<text text-anchor="middle" x="465" y="-265.5" font-family="Helvetica,sans-Serif" font-size="10.00">type_traits</text>
</a>
</g>
</g>
<!-- Node2&#45;&gt;Node14 -->
<g id="edge20" class="edge">
<title>Node2&#45;&gt;Node14</title>
<path fill="none" stroke="#63b8ff" d="M397.31,-318.8C411.49,-308.37 430.69,-294.24 445.02,-283.69"/>
<polygon fill="#63b8ff" stroke="#63b8ff" points="447.25,-286.4 453.23,-277.66 443.1,-280.76 447.25,-286.4"/>
</g>
<!-- Node4 -->
<g id="node4" class="node">
<title>Node4</title>
<g id="a_node4"><a xlink:href="typedefs_8hpp.html" target="_top" xlink:title=" ">
<polygon fill="white" stroke="#666666" points="124,-85 0,-85 0,-55 124,-55 124,-85"/>
<text text-anchor="start" x="8" y="-73" font-family="Helvetica,sans-Serif" font-size="10.00">proxsuite/linalg/veg</text>
<text text-anchor="middle" x="62" y="-62" font-family="Helvetica,sans-Serif" font-size="10.00">/internal/typedefs.hpp</text>
</a>
</g>
</g>
<!-- Node3&#45;&gt;Node4 -->
<g id="edge3" class="edge">
<title>Node3&#45;&gt;Node4</title>
<path fill="none" stroke="#63b8ff" d="M687.42,-254.82C684.23,-254.2 681.08,-253.59 678,-253 419.16,-203.76 298.61,-317.01 94,-151 77.01,-137.21 68.99,-113.06 65.23,-94.89"/>
<polygon fill="#63b8ff" stroke="#63b8ff" points="68.67,-94.24 63.48,-85.01 61.78,-95.46 68.67,-94.24"/>
</g>
<!-- Node7 -->
<g id="node7" class="node">
<title>Node7</title>
<g id="a_node7"><a xlink:href="integer__seq_8hpp.html" target="_top" xlink:title=" ">
<polygon fill="white" stroke="#666666" points="653,-217 515,-217 515,-187 653,-187 653,-217"/>
<text text-anchor="start" x="523" y="-205" font-family="Helvetica,sans-Serif" font-size="10.00">proxsuite/linalg/veg</text>
<text text-anchor="middle" x="584" y="-194" font-family="Helvetica,sans-Serif" font-size="10.00">/internal/integer_seq.hpp</text>
</a>
</g>
</g>
<!-- Node3&#45;&gt;Node7 -->
<g id="edge6" class="edge">
<title>Node3&#45;&gt;Node7</title>
<path fill="none" stroke="#63b8ff" d="M710.45,-252.95C686.5,-243.49 654.71,-230.93 629,-220.78"/>
<polygon fill="#63b8ff" stroke="#63b8ff" points="630.06,-217.43 619.47,-217.01 627.48,-223.94 630.06,-217.43"/>
</g>
<!-- Node3&#45;&gt;Node11 -->
<g id="edge17" class="edge">
<title>Node3&#45;&gt;Node11</title>
<path fill="none" stroke="#63b8ff" d="M727.58,-252.95C703.45,-233.25 662.3,-194.87 646,-151 639.27,-132.89 643.75,-111.26 649.38,-95.05"/>
<polygon fill="#63b8ff" stroke="#63b8ff" points="652.81,-95.87 653.13,-85.28 646.27,-93.36 652.81,-95.87"/>
</g>
<!-- Node3&#45;&gt;Node13 -->
<g id="edge18" class="edge">
<title>Node3&#45;&gt;Node13</title>
<path fill="none" stroke="#63b8ff" d="M769.98,-252.86C806.72,-231.17 879.07,-188.25 940,-151 961.46,-137.88 966.33,-133.78 988,-121 1005.93,-110.43 1026.17,-99.13 1042.9,-89.95"/>
<polygon fill="#63b8ff" stroke="#63b8ff" points="1044.71,-92.95 1051.81,-85.09 1041.35,-86.81 1044.71,-92.95"/>
</g>
<!-- Node5 -->
<g id="node5" class="node">
<title>Node5</title>
<g id="a_node5"><a xlink:title=" ">
<polygon fill="#e0e0e0" stroke="#999999" points="896,-19 846,-19 846,0 896,0 896,-19"/>
<text text-anchor="middle" x="871" y="-7" font-family="Helvetica,sans-Serif" font-size="10.00">cstdint</text>
</a>
</g>
</g>
<!-- Node4&#45;&gt;Node5 -->
<g id="edge4" class="edge">
<title>Node4&#45;&gt;Node5</title>
<path fill="none" stroke="#63b8ff" d="M124.26,-56.23C127.21,-55.78 130.13,-55.37 133,-55 401.64,-20.57 728.8,-12.67 835.51,-10.95"/>
<polygon fill="#63b8ff" stroke="#63b8ff" points="835.77,-14.45 845.72,-10.79 835.66,-7.45 835.77,-14.45"/>
</g>
<!-- Node6 -->
<g id="node6" class="node">
<title>Node6</title>
<g id="a_node6"><a xlink:title=" ">
<polygon fill="#e0e0e0" stroke="#999999" points="88.5,-19 35.5,-19 35.5,0 88.5,0 88.5,-19"/>
<text text-anchor="middle" x="62" y="-7" font-family="Helvetica,sans-Serif" font-size="10.00">cstddef</text>
</a>
</g>
</g>
<!-- Node4&#45;&gt;Node6 -->
<g id="edge5" class="edge">
<title>Node4&#45;&gt;Node6</title>
<path fill="none" stroke="#63b8ff" d="M62,-54.84C62,-47.21 62,-37.7 62,-29.45"/>
<polygon fill="#63b8ff" stroke="#63b8ff" points="65.5,-29.27 62,-19.27 58.5,-29.27 65.5,-29.27"/>
</g>
<!-- Node7&#45;&gt;Node4 -->
<g id="edge7" class="edge">
<title>Node7&#45;&gt;Node4</title>
<path fill="none" stroke="#63b8ff" d="M514.76,-188.95C510.11,-188.26 505.49,-187.6 501,-187 419.55,-176.16 206.21,-188.3 133,-151 107.97,-138.25 87.74,-112.64 75.36,-93.82"/>
<polygon fill="#63b8ff" stroke="#63b8ff" points="78.23,-91.8 69.94,-85.21 72.31,-95.53 78.23,-91.8"/>
</g>
<!-- Node8 -->
<g id="node8" class="node">
<title>Node8</title>
<g id="a_node8"><a xlink:href="macros_8hpp.html" target="_top" xlink:title=" ">
<polygon fill="white" stroke="#666666" points="259.5,-151 142.5,-151 142.5,-121 259.5,-121 259.5,-151"/>
<text text-anchor="start" x="150.5" y="-139" font-family="Helvetica,sans-Serif" font-size="10.00">proxsuite/linalg/veg</text>
<text text-anchor="middle" x="201" y="-128" font-family="Helvetica,sans-Serif" font-size="10.00">/internal/macros.hpp</text>
</a>
</g>
</g>
<!-- Node7&#45;&gt;Node8 -->
<g id="edge8" class="edge">
<title>Node7&#45;&gt;Node8</title>
<path fill="none" stroke="#63b8ff" d="M514.71,-189.3C510.07,-188.52 505.47,-187.75 501,-187 421.58,-173.68 330.32,-158.49 269.51,-148.38"/>
<polygon fill="#63b8ff" stroke="#63b8ff" points="270.08,-144.93 259.64,-146.74 268.93,-151.83 270.08,-144.93"/>
</g>
<!-- Node7&#45;&gt;Node11 -->
<g id="edge15" class="edge">
<title>Node7&#45;&gt;Node11</title>
<path fill="none" stroke="#63b8ff" d="M586.01,-186.81C588.86,-170.08 595.23,-141.91 608,-121 614.61,-110.17 624.14,-100.08 633.23,-91.84"/>
<polygon fill="#63b8ff" stroke="#63b8ff" points="635.75,-94.29 641.03,-85.11 631.17,-88.99 635.75,-94.29"/>
</g>
<!-- Node7&#45;&gt;Node13 -->
<g id="edge16" class="edge">
<title>Node7&#45;&gt;Node13</title>
<path fill="none" stroke="#63b8ff" d="M609.1,-186.95C642.5,-168.88 703.9,-137.82 760,-121 842.45,-96.28 940.78,-83.21 1006.06,-76.71"/>
<polygon fill="#63b8ff" stroke="#63b8ff" points="1006.62,-80.18 1016.24,-75.73 1005.95,-73.21 1006.62,-80.18"/>
</g>
<!-- Node8&#45;&gt;Node4 -->
<g id="edge10" class="edge">
<title>Node8&#45;&gt;Node4</title>
<path fill="none" stroke="#63b8ff" d="M170.5,-120.95C150.31,-111.66 123.63,-99.38 101.78,-89.32"/>
<polygon fill="#63b8ff" stroke="#63b8ff" points="102.98,-86.02 92.43,-85.01 100.05,-92.37 102.98,-86.02"/>
</g>
<!-- Node9 -->
<g id="node9" class="node">
<title>Node9</title>
<g id="a_node9"><a xlink:href="hedley_8ext_8hpp.html" target="_top" xlink:title=" ">
<polygon fill="white" stroke="#666666" points="478.5,-85 303.5,-85 303.5,-55 478.5,-55 478.5,-85"/>
<text text-anchor="start" x="311.5" y="-73" font-family="Helvetica,sans-Serif" font-size="10.00">proxsuite/linalg/veg</text>
<text text-anchor="middle" x="391" y="-62" font-family="Helvetica,sans-Serif" font-size="10.00">/internal/external/hedley.ext.hpp</text>
</a>
</g>
</g>
<!-- Node8&#45;&gt;Node9 -->
<g id="edge9" class="edge">
<title>Node8&#45;&gt;Node9</title>
<path fill="none" stroke="#63b8ff" d="M242.7,-120.95C271.28,-111.33 309.39,-98.49 339.81,-88.24"/>
<polygon fill="#63b8ff" stroke="#63b8ff" points="341.04,-91.52 349.4,-85.01 338.81,-84.89 341.04,-91.52"/>
</g>
<!-- Node10 -->
<g id="node10" class="node">
<title>Node10</title>
<g id="a_node10"><a xlink:href="preprocessor_8hpp.html" target="_top" xlink:title=" ">
<polygon fill="white" stroke="#666666" points="285.5,-85 142.5,-85 142.5,-55 285.5,-55 285.5,-85"/>
<text text-anchor="start" x="150.5" y="-73" font-family="Helvetica,sans-Serif" font-size="10.00">proxsuite/linalg/veg</text>
<text text-anchor="middle" x="214" y="-62" font-family="Helvetica,sans-Serif" font-size="10.00">/internal/preprocessor.hpp</text>
</a>
</g>
</g>
<!-- Node8&#45;&gt;Node10 -->
<g id="edge11" class="edge">
<title>Node8&#45;&gt;Node10</title>
<path fill="none" stroke="#63b8ff" d="M203.89,-120.8C205.42,-113.26 207.34,-103.78 209.1,-95.13"/>
<polygon fill="#63b8ff" stroke="#63b8ff" points="212.56,-95.66 211.12,-85.16 205.7,-94.27 212.56,-95.66"/>
</g>
<!-- Node8&#45;&gt;Node11 -->
<g id="edge12" class="edge">
<title>Node8&#45;&gt;Node11</title>
<path fill="none" stroke="#63b8ff" d="M259.5,-123.38C264.4,-122.53 269.28,-121.72 274,-121 409.6,-100.25 447.41,-106.12 587.36,-85.01"/>
<polygon fill="#63b8ff" stroke="#63b8ff" points="588.26,-88.41 597.61,-83.44 587.2,-81.49 588.26,-88.41"/>
</g>
<!-- Node12 -->
<g id="node12" class="node">
<title>Node12</title>
<g id="a_node12"><a xlink:title=" ">
<polygon fill="#e0e0e0" stroke="#999999" points="579.5,-79.5 496.5,-79.5 496.5,-60.5 579.5,-60.5 579.5,-79.5"/>
<text text-anchor="middle" x="538" y="-67.5" font-family="Helvetica,sans-Serif" font-size="10.00">initializer_list</text>
</a>
</g>
</g>
<!-- Node8&#45;&gt;Node12 -->
<g id="edge13" class="edge">
<title>Node8&#45;&gt;Node12</title>
<path fill="none" stroke="#63b8ff" d="M259.55,-123.65C264.44,-122.74 269.3,-121.85 274,-121 368.48,-103.96 393.26,-105.73 487,-85 490.92,-84.13 494.99,-83.15 499.05,-82.12"/>
<polygon fill="#63b8ff" stroke="#63b8ff" points="500.22,-85.44 509,-79.5 498.44,-78.67 500.22,-85.44"/>
</g>
<!-- Node8&#45;&gt;Node13 -->
<g id="edge14" class="edge">
<title>Node8&#45;&gt;Node13</title>
<path fill="none" stroke="#63b8ff" d="M259.56,-130.73C414.89,-119.39 837.01,-88.59 1006.32,-76.23"/>
<polygon fill="#63b8ff" stroke="#63b8ff" points="1006.66,-79.72 1016.38,-75.5 1006.15,-72.73 1006.66,-79.72"/>
</g>
<!-- Node15&#45;&gt;Node11 -->
<g id="edge54" class="edge">
<title>Node15&#45;&gt;Node11</title>
<path fill="none" stroke="#63b8ff" d="M999.21,-450.94C987.61,-434.58 967.41,-407.01 948,-385 935.74,-371.09 721.61,-165.46 710,-151 695.6,-133.06 681.96,-110.73 672.57,-94.22"/>
<polygon fill="#63b8ff" stroke="#63b8ff" points="675.49,-92.28 667.56,-85.25 669.38,-95.69 675.49,-92.28"/>
</g>
<!-- Node15&#45;&gt;Node13 -->
<g id="edge57" class="edge">
<title>Node15&#45;&gt;Node13</title>
<path fill="none" stroke="#63b8ff" d="M1065.64,-465.02C1161.51,-462.28 1357.79,-444.39 1486,-349 1519.45,-324.11 1535,-310.69 1535,-269 1535,-269 1535,-269 1535,-201 1535,-164.46 1543.34,-145.25 1516,-121 1489.18,-97.21 1267.04,-81.46 1149.82,-74.73"/>
<polygon fill="#63b8ff" stroke="#63b8ff" points="1149.69,-71.21 1139.5,-74.14 1149.29,-78.2 1149.69,-71.21"/>
</g>
<!-- Node16 -->
<g id="node16" class="node">
<title>Node16</title>
<g id="a_node16"><a xlink:href="primitives_8hpp.html" target="_top" xlink:title=" ">
<polygon fill="white" stroke="#666666" points="617,-349 471,-349 471,-319 617,-319 617,-349"/>
<text text-anchor="start" x="479" y="-337" font-family="Helvetica,sans-Serif" font-size="10.00">proxsuite/linalg/veg</text>
<text text-anchor="middle" x="544" y="-326" font-family="Helvetica,sans-Serif" font-size="10.00">/type_traits/primitives.hpp</text>
</a>
</g>
</g>
<!-- Node15&#45;&gt;Node16 -->
<g id="edge23" class="edge">
<title>Node15&#45;&gt;Node16</title>
<path fill="none" stroke="#63b8ff" d="M952.29,-462.62C857.88,-457.86 673.2,-444.95 616,-415 590.96,-401.89 570.38,-376.35 557.72,-357.64"/>
<polygon fill="#63b8ff" stroke="#63b8ff" points="560.55,-355.56 552.16,-349.09 554.68,-359.38 560.55,-355.56"/>
</g>
<!-- Node17 -->
<g id="node17" class="node">
<title>Node17</title>
<g id="a_node17"><a xlink:href="terminate_8hpp.html" target="_top" xlink:title=" ">
<polygon fill="white" stroke="#666666" points="1506.5,-151 1377.5,-151 1377.5,-121 1506.5,-121 1506.5,-151"/>
<text text-anchor="start" x="1385.5" y="-139" font-family="Helvetica,sans-Serif" font-size="10.00">proxsuite/linalg/veg</text>
<text text-anchor="middle" x="1442" y="-128" font-family="Helvetica,sans-Serif" font-size="10.00">/internal/terminate.hpp</text>
</a>
</g>
</g>
<!-- Node15&#45;&gt;Node17 -->
<g id="edge28" class="edge">
<title>Node15&#45;&gt;Node17</title>
<path fill="none" stroke="#63b8ff" d="M1051.01,-450.9C1103.13,-433.75 1194.91,-404.66 1275,-385 1357.62,-364.72 1402.69,-409 1463,-349 1513.58,-298.68 1476.01,-203.82 1454.41,-160.11"/>
<polygon fill="#63b8ff" stroke="#63b8ff" points="1457.49,-158.44 1449.83,-151.12 1451.25,-161.62 1457.49,-158.44"/>
</g>
<!-- Node19 -->
<g id="node19" class="node">
<title>Node19</title>
<g id="a_node19"><a xlink:href="constructible_8hpp.html" target="_top" xlink:title=" ">
<polygon fill="white" stroke="#666666" points="794.5,-349 635.5,-349 635.5,-319 794.5,-319 794.5,-349"/>
<text text-anchor="start" x="643.5" y="-337" font-family="Helvetica,sans-Serif" font-size="10.00">proxsuite/linalg/veg</text>
<text text-anchor="middle" x="715" y="-326" font-family="Helvetica,sans-Serif" font-size="10.00">/type_traits/constructible.hpp</text>
</a>
</g>
</g>
<!-- Node15&#45;&gt;Node19 -->
<g id="edge32" class="edge">
<title>Node15&#45;&gt;Node19</title>
<path fill="none" stroke="#63b8ff" d="M963.02,-450.92C937.69,-442.26 906.17,-429.95 880,-415 861.32,-404.33 860.66,-395.72 842,-385 819.35,-371.98 792.65,-360.9 769.6,-352.51"/>
<polygon fill="#63b8ff" stroke="#63b8ff" points="770.56,-349.13 759.96,-349.08 768.21,-355.73 770.56,-349.13"/>
</g>
<!-- Node21 -->
<g id="node21" class="node">
<title>Node21</title>
<g id="a_node21"><a xlink:href="ref_8hpp.html" target="_top" xlink:title=" ">
<polygon fill="white" stroke="#666666" points="1108.5,-415 995.5,-415 995.5,-385 1108.5,-385 1108.5,-415"/>
<text text-anchor="start" x="1003.5" y="-403" font-family="Helvetica,sans-Serif" font-size="10.00">proxsuite/linalg/veg</text>
<text text-anchor="middle" x="1052" y="-392" font-family="Helvetica,sans-Serif" font-size="10.00">/ref.hpp</text>
</a>
</g>
</g>
<!-- Node15&#45;&gt;Node21 -->
<g id="edge38" class="edge">
<title>Node15&#45;&gt;Node21</title>
<path fill="none" stroke="#63b8ff" d="M1018.54,-450.8C1023.89,-442.84 1030.68,-432.74 1036.74,-423.71"/>
<polygon fill="#63b8ff" stroke="#63b8ff" points="1039.81,-425.42 1042.48,-415.16 1034,-421.51 1039.81,-425.42"/>
</g>
<!-- Node26 -->
<g id="node26" class="node">
<title>Node26</title>
<g id="a_node26"><a xlink:title=" ">
<polygon fill="#e0e0e0" stroke="#999999" points="939,-409.5 889,-409.5 889,-390.5 939,-390.5 939,-409.5"/>
<text text-anchor="middle" x="914" y="-397.5" font-family="Helvetica,sans-Serif" font-size="10.00">cstring</text>
</a>
</g>
</g>
<!-- Node15&#45;&gt;Node26 -->
<g id="edge55" class="edge">
<title>Node15&#45;&gt;Node26</title>
<path fill="none" stroke="#63b8ff" d="M987.92,-450.8C972.29,-440.27 951.07,-425.97 935.37,-415.4"/>
<polygon fill="#63b8ff" stroke="#63b8ff" points="937.1,-412.34 926.85,-409.66 933.19,-418.15 937.1,-412.34"/>
</g>
<!-- Node27 -->
<g id="node27" class="node">
<title>Node27</title>
<g id="a_node27"><a xlink:title=" ">
<polygon fill="#e0e0e0" stroke="#999999" points="833,-409.5 787,-409.5 787,-390.5 833,-390.5 833,-409.5"/>
<text text-anchor="middle" x="810" y="-397.5" font-family="Helvetica,sans-Serif" font-size="10.00">cstdio</text>
</a>
</g>
</g>
<!-- Node15&#45;&gt;Node27 -->
<g id="edge56" class="edge">
<title>Node15&#45;&gt;Node27</title>
<path fill="none" stroke="#63b8ff" d="M960.54,-450.9C928.22,-441.29 884.86,-427.99 847,-415 845.15,-414.36 843.25,-413.7 841.34,-413.01"/>
<polygon fill="#63b8ff" stroke="#63b8ff" points="842.42,-409.68 831.83,-409.52 840.01,-416.25 842.42,-409.68"/>
</g>
<!-- Node16&#45;&gt;Node3 -->
<g id="edge24" class="edge">
<title>Node16&#45;&gt;Node3</title>
<path fill="none" stroke="#63b8ff" d="M588.33,-318.95C618.85,-309.28 659.58,-296.38 692,-286.11"/>
<polygon fill="#63b8ff" stroke="#63b8ff" points="693.3,-289.37 701.77,-283.01 691.18,-282.7 693.3,-289.37"/>
</g>
<!-- Node16&#45;&gt;Node11 -->
<g id="edge25" class="edge">
<title>Node16&#45;&gt;Node11</title>
<path fill="none" stroke="#63b8ff" d="M537.54,-318.6C524.72,-289.92 497.13,-227.5 495,-217 486.35,-174.28 484.77,-152.39 515,-121 526.38,-109.18 560.41,-97.15 592.65,-87.86"/>
<polygon fill="#63b8ff" stroke="#63b8ff" points="593.89,-91.14 602.57,-85.06 591.99,-84.4 593.89,-91.14"/>
</g>
<!-- Node16&#45;&gt;Node13 -->
<g id="edge27" class="edge">
<title>Node16&#45;&gt;Node13</title>
<path fill="none" stroke="#63b8ff" d="M554.94,-318.87C569.07,-301.43 595.16,-271.77 623,-253 654.64,-231.67 904.44,-134.84 940,-121 968.95,-109.73 1001.63,-97.86 1027.92,-88.51"/>
<polygon fill="#63b8ff" stroke="#63b8ff" points="1029.4,-91.69 1037.66,-85.05 1027.06,-85.1 1029.4,-91.69"/>
</g>
<!-- Node16&#45;&gt;Node14 -->
<g id="edge26" class="edge">
<title>Node16&#45;&gt;Node14</title>
<path fill="none" stroke="#63b8ff" d="M526.47,-318.8C513.79,-308.53 496.68,-294.67 483.74,-284.18"/>
<polygon fill="#63b8ff" stroke="#63b8ff" points="485.89,-281.42 475.92,-277.84 481.48,-286.86 485.89,-281.42"/>
</g>
<!-- Node17&#45;&gt;Node11 -->
<g id="edge29" class="edge">
<title>Node17&#45;&gt;Node11</title>
<path fill="none" stroke="#63b8ff" d="M1377.16,-128.99C1349.4,-126.46 1316.61,-123.52 1287,-121 1086.32,-103.94 849.36,-85.51 732.56,-76.54"/>
<polygon fill="#63b8ff" stroke="#63b8ff" points="732.55,-73.03 722.31,-75.75 732.02,-80.01 732.55,-73.03"/>
</g>
<!-- Node17&#45;&gt;Node13 -->
<g id="edge31" class="edge">
<title>Node17&#45;&gt;Node13</title>
<path fill="none" stroke="#63b8ff" d="M1377.33,-123.53C1372.48,-122.67 1367.66,-121.82 1363,-121 1290.43,-108.2 1207.45,-93.66 1149.81,-83.56"/>
<polygon fill="#63b8ff" stroke="#63b8ff" points="1150.17,-80.07 1139.72,-81.8 1148.96,-86.97 1150.17,-80.07"/>
</g>
<!-- Node18 -->
<g id="node18" class="node">
<title>Node18</title>
<g id="a_node18"><a xlink:title=" ">
<polygon fill="#e0e0e0" stroke="#999999" points="1474.5,-79.5 1409.5,-79.5 1409.5,-60.5 1474.5,-60.5 1474.5,-79.5"/>
<text text-anchor="middle" x="1442" y="-67.5" font-family="Helvetica,sans-Serif" font-size="10.00">exception</text>
</a>
</g>
</g>
<!-- Node17&#45;&gt;Node18 -->
<g id="edge30" class="edge">
<title>Node17&#45;&gt;Node18</title>
<path fill="none" stroke="#63b8ff" d="M1442,-120.8C1442,-111.7 1442,-99.79 1442,-89.9"/>
<polygon fill="#63b8ff" stroke="#63b8ff" points="1445.5,-89.84 1442,-79.84 1438.5,-89.84 1445.5,-89.84"/>
</g>
<!-- Node19&#45;&gt;Node3 -->
<g id="edge33" class="edge">
<title>Node19&#45;&gt;Node3</title>
<path fill="none" stroke="#63b8ff" d="M721.88,-318.8C725.65,-311.01 730.42,-301.16 734.73,-292.28"/>
<polygon fill="#63b8ff" stroke="#63b8ff" points="737.93,-293.69 739.14,-283.16 731.63,-290.64 737.93,-293.69"/>
</g>
<!-- Node19&#45;&gt;Node11 -->
<g id="edge34" class="edge">
<title>Node19&#45;&gt;Node11</title>
<path fill="none" stroke="#63b8ff" d="M680.16,-318.83C625.88,-295.97 525.36,-250.15 506,-217 473.59,-161.51 556.82,-113.87 613.17,-89.13"/>
<polygon fill="#63b8ff" stroke="#63b8ff" points="614.83,-92.22 622.65,-85.07 612.08,-85.79 614.83,-92.22"/>
</g>
<!-- Node19&#45;&gt;Node13 -->
<g id="edge37" class="edge">
<title>Node19&#45;&gt;Node13</title>
<path fill="none" stroke="#63b8ff" d="M746.79,-318.8C766.42,-309.54 791.82,-296.67 813,-283 908.53,-221.33 1010.63,-132.16 1055.1,-92"/>
<polygon fill="#63b8ff" stroke="#63b8ff" points="1057.66,-94.4 1062.72,-85.09 1052.96,-89.22 1057.66,-94.4"/>
</g>
<!-- Node19&#45;&gt;Node14 -->
<g id="edge36" class="edge">
<title>Node19&#45;&gt;Node14</title>
<path fill="none" stroke="#63b8ff" d="M660.14,-318.95C614.46,-307.26 550.31,-290.84 508.21,-280.06"/>
<polygon fill="#63b8ff" stroke="#63b8ff" points="508.83,-276.61 498.27,-277.52 507.09,-283.39 508.83,-276.61"/>
</g>
<!-- Node20 -->
<g id="node20" class="node">
<title>Node20</title>
<g id="a_node20"><a xlink:title=" ">
<polygon fill="#e0e0e0" stroke="#999999" points="669.5,-277.5 632.5,-277.5 632.5,-258.5 669.5,-258.5 669.5,-277.5"/>
<text text-anchor="middle" x="651" y="-265.5" font-family="Helvetica,sans-Serif" font-size="10.00">new</text>
</a>
</g>
</g>
<!-- Node19&#45;&gt;Node20 -->
<g id="edge35" class="edge">
<title>Node19&#45;&gt;Node20</title>
<path fill="none" stroke="#63b8ff" d="M700.8,-318.8C690.82,-308.82 677.46,-295.46 667.09,-285.09"/>
<polygon fill="#63b8ff" stroke="#63b8ff" points="669.39,-282.44 659.84,-277.84 664.44,-287.39 669.39,-282.44"/>
</g>
<!-- Node21&#45;&gt;Node11 -->
<g id="edge52" class="edge">
<title>Node21&#45;&gt;Node11</title>
<path fill="none" stroke="#63b8ff" d="M1017.45,-384.9C998.08,-376.11 974.06,-363.69 955,-349 878.23,-289.83 883.59,-248.89 809,-187 785.36,-167.39 774.69,-169.28 750,-151 725.38,-132.77 699.45,-109.19 681.78,-92.37"/>
<polygon fill="#63b8ff" stroke="#63b8ff" points="683.91,-89.56 674.28,-85.16 679.06,-94.61 683.91,-89.56"/>
</g>
<!-- Node21&#45;&gt;Node13 -->
<g id="edge53" class="edge">
<title>Node21&#45;&gt;Node13</title>
<path fill="none" stroke="#63b8ff" d="M1108.55,-393.68C1213.59,-383.53 1429.17,-361.32 1440,-349 1515.9,-262.7 1413.57,-184.84 1318,-121 1268.17,-87.71 1200.55,-75.92 1149.79,-72.04"/>
<polygon fill="#63b8ff" stroke="#63b8ff" points="1149.76,-68.53 1139.55,-71.35 1149.29,-75.52 1149.76,-68.53"/>
</g>
<!-- Node21&#45;&gt;Node19 -->
<g id="edge43" class="edge">
<title>Node21&#45;&gt;Node19</title>
<path fill="none" stroke="#63b8ff" d="M995.21,-388.22C941.46,-378.01 860.11,-362.56 798.88,-350.93"/>
<polygon fill="#63b8ff" stroke="#63b8ff" points="799.33,-347.45 788.85,-349.03 798.02,-354.33 799.33,-347.45"/>
</g>
<!-- Node22 -->
<g id="node22" class="node">
<title>Node22</title>
<g id="a_node22"><a xlink:href="tags_8hpp.html" target="_top" xlink:title=" ">
<polygon fill="white" stroke="#666666" points="1081.5,-349 964.5,-349 964.5,-319 1081.5,-319 1081.5,-349"/>
<text text-anchor="start" x="972.5" y="-337" font-family="Helvetica,sans-Serif" font-size="10.00">proxsuite/linalg/veg</text>
<text text-anchor="middle" x="1023" y="-326" font-family="Helvetica,sans-Serif" font-size="10.00">/type_traits/tags.hpp</text>
</a>
</g>
</g>
<!-- Node21&#45;&gt;Node22 -->
<g id="edge39" class="edge">
<title>Node21&#45;&gt;Node22</title>
<path fill="none" stroke="#63b8ff" d="M1045.56,-384.8C1042.03,-377.01 1037.57,-367.16 1033.55,-358.28"/>
<polygon fill="#63b8ff" stroke="#63b8ff" points="1036.73,-356.83 1029.42,-349.16 1030.36,-359.72 1036.73,-356.83"/>
</g>
<!-- Node23 -->
<g id="node23" class="node">
<title>Node23</title>
<g id="a_node23"><a xlink:href="address_8hpp.html" target="_top" xlink:title=" ">
<polygon fill="white" stroke="#666666" points="1222.5,-349 1099.5,-349 1099.5,-319 1222.5,-319 1222.5,-349"/>
<text text-anchor="start" x="1107.5" y="-337" font-family="Helvetica,sans-Serif" font-size="10.00">proxsuite/linalg/veg</text>
<text text-anchor="middle" x="1161" y="-326" font-family="Helvetica,sans-Serif" font-size="10.00">/memory/address.hpp</text>
</a>
</g>
</g>
<!-- Node21&#45;&gt;Node23 -->
<g id="edge44" class="edge">
<title>Node21&#45;&gt;Node23</title>
<path fill="none" stroke="#63b8ff" d="M1075.92,-384.95C1091.25,-375.95 1111.36,-364.14 1128.18,-354.27"/>
<polygon fill="#63b8ff" stroke="#63b8ff" points="1130.28,-357.09 1137.14,-349.01 1126.74,-351.06 1130.28,-357.09"/>
</g>
<!-- Node22&#45;&gt;Node3 -->
<g id="edge40" class="edge">
<title>Node22&#45;&gt;Node3</title>
<path fill="none" stroke="#63b8ff" d="M964.26,-319.43C920.46,-309.31 860.53,-295.46 814.54,-284.84"/>
<polygon fill="#63b8ff" stroke="#63b8ff" points="815.19,-281.39 804.66,-282.55 813.62,-288.21 815.19,-281.39"/>
</g>
<!-- Node22&#45;&gt;Node11 -->
<g id="edge41" class="edge">
<title>Node22&#45;&gt;Node11</title>
<path fill="none" stroke="#63b8ff" d="M1006.92,-318.78C976.46,-292.04 907.91,-232.82 847,-187 805.33,-155.65 794.39,-148.36 750,-121 732.41,-110.16 712.36,-98.92 695.65,-89.84"/>
<polygon fill="#63b8ff" stroke="#63b8ff" points="697.21,-86.71 686.75,-85.04 693.89,-92.87 697.21,-86.71"/>
</g>
<!-- Node22&#45;&gt;Node13 -->
<g id="edge42" class="edge">
<title>Node22&#45;&gt;Node13</title>
<path fill="none" stroke="#63b8ff" d="M1027.36,-318.64C1030.29,-308.69 1034.14,-295.11 1037,-283 1052.96,-215.47 1067.27,-134.76 1073.98,-95.24"/>
<polygon fill="#63b8ff" stroke="#63b8ff" points="1077.46,-95.67 1075.66,-85.23 1070.55,-94.51 1077.46,-95.67"/>
</g>
<!-- Node23&#45;&gt;Node3 -->
<g id="edge45" class="edge">
<title>Node23&#45;&gt;Node3</title>
<path fill="none" stroke="#63b8ff" d="M1099.46,-320.67C1096.26,-320.09 1093.1,-319.53 1090,-319 994.75,-302.7 884.07,-287.23 814.53,-277.93"/>
<polygon fill="#63b8ff" stroke="#63b8ff" points="814.95,-274.45 804.57,-276.6 814.02,-281.39 814.95,-274.45"/>
</g>
<!-- Node23&#45;&gt;Node11 -->
<g id="edge49" class="edge">
<title>Node23&#45;&gt;Node11</title>
<path fill="none" stroke="#63b8ff" d="M1137.3,-318.93C1066.82,-277.19 859.03,-154.84 788,-121 762.82,-109.01 733.95,-97.54 710.01,-88.62"/>
<polygon fill="#63b8ff" stroke="#63b8ff" points="711.01,-85.26 700.41,-85.08 708.59,-91.83 711.01,-85.26"/>
</g>
<!-- Node23&#45;&gt;Node13 -->
<g id="edge51" class="edge">
<title>Node23&#45;&gt;Node13</title>
<path fill="none" stroke="#63b8ff" d="M1161.8,-318.85C1162.33,-302.65 1162.04,-275.44 1156,-253 1151.35,-235.73 1145.4,-233.28 1138,-217 1118.7,-174.56 1098.56,-124.06 1087.21,-94.95"/>
<polygon fill="#63b8ff" stroke="#63b8ff" points="1090.33,-93.3 1083.45,-85.24 1083.8,-95.83 1090.33,-93.3"/>
</g>
<!-- Node24 -->
<g id="node24" class="node">
<title>Node24</title>
<g id="a_node24"><a xlink:href="std_8hpp.html" target="_top" xlink:title=" ">
<polygon fill="white" stroke="#666666" points="1260.5,-217 1147.5,-217 1147.5,-187 1260.5,-187 1260.5,-217"/>
<text text-anchor="start" x="1155.5" y="-205" font-family="Helvetica,sans-Serif" font-size="10.00">proxsuite/linalg/veg</text>
<text text-anchor="middle" x="1204" y="-194" font-family="Helvetica,sans-Serif" font-size="10.00">/internal/std.hpp</text>
</a>
</g>
</g>
<!-- Node23&#45;&gt;Node24 -->
<g id="edge46" class="edge">
<title>Node23&#45;&gt;Node24</title>
<path fill="none" stroke="#63b8ff" d="M1170.65,-318.73C1176.77,-309.04 1184.39,-295.72 1189,-283 1195.54,-264.97 1199.36,-243.58 1201.51,-227.46"/>
<polygon fill="#63b8ff" stroke="#63b8ff" points="1205.02,-227.59 1202.74,-217.24 1198.07,-226.75 1205.02,-227.59"/>
</g>
<!-- Node25 -->
<g id="node25" class="node">
<title>Node25</title>
<g id="a_node25"><a xlink:title=" ">
<polygon fill="#e0e0e0" stroke="#999999" points="1147,-277.5 1089,-277.5 1089,-258.5 1147,-258.5 1147,-277.5"/>
<text text-anchor="middle" x="1118" y="-265.5" font-family="Helvetica,sans-Serif" font-size="10.00">memory</text>
</a>
</g>
</g>
<!-- Node23&#45;&gt;Node25 -->
<g id="edge50" class="edge">
<title>Node23&#45;&gt;Node25</title>
<path fill="none" stroke="#63b8ff" d="M1151.46,-318.8C1145.02,-309.21 1136.48,-296.5 1129.64,-286.32"/>
<polygon fill="#63b8ff" stroke="#63b8ff" points="1132.42,-284.19 1123.94,-277.84 1126.61,-288.1 1132.42,-284.19"/>
</g>
<!-- Node24&#45;&gt;Node5 -->
<g id="edge47" class="edge">
<title>Node24&#45;&gt;Node5</title>
<path fill="none" stroke="#63b8ff" d="M1260.69,-200.36C1341.56,-198.11 1483.84,-188.73 1516,-151 1540.39,-122.39 1495.15,-62.56 1484,-55 1436.11,-22.52 1029.22,-13.13 906.13,-11.02"/>
<polygon fill="#63b8ff" stroke="#63b8ff" points="906.17,-7.52 896.11,-10.86 906.05,-14.52 906.17,-7.52"/>
</g>
<!-- Node24&#45;&gt;Node12 -->
<g id="edge48" class="edge">
<title>Node24&#45;&gt;Node12</title>
<path fill="none" stroke="#63b8ff" d="M1147.29,-191.89C1038.47,-174.07 793.05,-132.17 589,-85 585.18,-84.12 581.22,-83.14 577.27,-82.13"/>
<polygon fill="#63b8ff" stroke="#63b8ff" points="578.12,-78.73 567.56,-79.55 576.33,-85.5 578.12,-78.73"/>
</g>
<!-- Node28&#45;&gt;Node3 -->
<g id="edge59" class="edge">
<title>Node28&#45;&gt;Node3</title>
<path fill="none" stroke="#63b8ff" d="M755.25,-384.96C773.73,-377.46 792.16,-366.1 803,-349 816.24,-328.11 796.19,-305.22 776.32,-289.29"/>
<polygon fill="#63b8ff" stroke="#63b8ff" points="778.28,-286.39 768.2,-283.13 774.05,-291.96 778.28,-286.39"/>
</g>
<!-- Node28&#45;&gt;Node11 -->
<g id="edge61" class="edge">
<title>Node28&#45;&gt;Node11</title>
<path fill="none" stroke="#63b8ff" d="M625.29,-395.18C515.35,-388.58 315.53,-373.37 294,-349 274.9,-327.38 342.59,-189.15 449,-121 460.91,-113.37 531.5,-97.48 587.8,-85.65"/>
<polygon fill="#63b8ff" stroke="#63b8ff" points="588.7,-89.04 597.78,-83.56 587.27,-82.18 588.7,-89.04"/>
</g>
<!-- Node28&#45;&gt;Node13 -->
<g id="edge62" class="edge">
<title>Node28&#45;&gt;Node13</title>
<path fill="none" stroke="#63b8ff" d="M743.53,-384.97C767.49,-376.57 796.53,-364.49 820,-349 930.69,-275.96 1026.91,-145.78 1062.91,-93.57"/>
<polygon fill="#63b8ff" stroke="#63b8ff" points="1065.98,-95.27 1068.73,-85.04 1060.2,-91.33 1065.98,-95.27"/>
</g>
<!-- Node28&#45;&gt;Node19 -->
<g id="edge60" class="edge">
<title>Node28&#45;&gt;Node19</title>
<path fill="none" stroke="#63b8ff" d="M700.99,-384.8C703.14,-377.17 705.84,-367.57 708.29,-358.84"/>
<polygon fill="#63b8ff" stroke="#63b8ff" points="711.68,-359.74 711.02,-349.16 704.94,-357.84 711.68,-359.74"/>
</g>
<!-- Node29&#45;&gt;Node3 -->
<g id="edge64" class="edge">
<title>Node29&#45;&gt;Node3</title>
<path fill="none" stroke="#63b8ff" d="M1317.44,-327.24C1202.04,-315.48 939.85,-288.75 814.81,-276.01"/>
<polygon fill="#63b8ff" stroke="#63b8ff" points="814.9,-272.5 804.6,-274.97 814.19,-279.47 814.9,-272.5"/>
</g>
<!-- Node29&#45;&gt;Node11 -->
<g id="edge65" class="edge">
<title>Node29&#45;&gt;Node11</title>
<path fill="none" stroke="#63b8ff" d="M1368.37,-318.73C1357.52,-291.92 1332.17,-232.58 1303,-187 1282.57,-155.07 1282.53,-138.67 1249,-121 1204.31,-97.45 879.93,-80.55 732.54,-74"/>
<polygon fill="#63b8ff" stroke="#63b8ff" points="732.38,-70.49 722.24,-73.55 732.07,-77.48 732.38,-70.49"/>
</g>
<!-- Node29&#45;&gt;Node13 -->
<g id="edge66" class="edge">
<title>Node29&#45;&gt;Node13</title>
<path fill="none" stroke="#63b8ff" d="M1373.42,-318.94C1370.92,-279.06 1357.62,-165.27 1287,-121 1245.74,-95.13 1192.21,-82.65 1149.66,-76.62"/>
<polygon fill="#63b8ff" stroke="#63b8ff" points="1150.03,-73.14 1139.65,-75.29 1149.1,-80.07 1150.03,-73.14"/>
</g>
<!-- Node30&#45;&gt;Node11 -->
<g id="edge71" class="edge">
<title>Node30&#45;&gt;Node11</title>
<path fill="none" stroke="#63b8ff" d="M1224.66,-516.91C1234.46,-507.7 1246.21,-494.84 1253,-481 1281.83,-422.27 1310.71,-237.41 1269,-187 1201.57,-105.52 878.74,-80.78 732.4,-73.68"/>
<polygon fill="#63b8ff" stroke="#63b8ff" points="732.33,-70.17 722.18,-73.2 732,-77.16 732.33,-70.17"/>
</g>
<!-- Node30&#45;&gt;Node13 -->
<g id="edge72" class="edge">
<title>Node30&#45;&gt;Node13</title>
<path fill="none" stroke="#63b8ff" d="M1270.75,-521.88C1375.1,-504.92 1573,-464.4 1573,-401 1573,-401 1573,-401 1573,-201 1573,-162.37 1570.02,-144.02 1539,-121 1508.43,-98.31 1271.28,-81.85 1149.57,-74.8"/>
<polygon fill="#63b8ff" stroke="#63b8ff" points="1149.77,-71.31 1139.59,-74.23 1149.37,-78.3 1149.77,-71.31"/>
</g>
<!-- Node30&#45;&gt;Node15 -->
<g id="edge70" class="edge">
<title>Node30&#45;&gt;Node15</title>
<path fill="none" stroke="#63b8ff" d="M1164.33,-516.95C1134.26,-507.28 1094.13,-494.38 1062.2,-484.11"/>
<polygon fill="#63b8ff" stroke="#63b8ff" points="1063.16,-480.74 1052.57,-481.01 1061.02,-487.41 1063.16,-480.74"/>
</g>
<!-- Node30&#45;&gt;Node22 -->
<g id="edge68" class="edge">
<title>Node30&#45;&gt;Node22</title>
<path fill="none" stroke="#63b8ff" d="M1202.21,-516.85C1190.09,-488.65 1159.57,-424.75 1117,-385 1103.22,-372.13 1085.5,-361.58 1069.17,-353.55"/>
<polygon fill="#63b8ff" stroke="#63b8ff" points="1070.29,-350.21 1059.75,-349.11 1067.31,-356.54 1070.29,-350.21"/>
</g>
<!-- Node30&#45;&gt;Node24 -->
<g id="edge69" class="edge">
<title>Node30&#45;&gt;Node24</title>
<path fill="none" stroke="#63b8ff" d="M1216.09,-516.7C1228.54,-493.28 1251,-444.98 1251,-401 1251,-401 1251,-401 1251,-333 1251,-293.63 1231.7,-251.34 1217.84,-226.03"/>
<polygon fill="#63b8ff" stroke="#63b8ff" points="1220.81,-224.18 1212.84,-217.21 1214.72,-227.63 1220.81,-224.18"/>
</g>
</g>
</svg>
