<?xml version="1.0" encoding="UTF-8" standalone="no"?>
<!DOCTYPE svg PUBLIC "-//W3C//DTD SVG 1.1//EN"
 "http://www.w3.org/Graphics/SVG/1.1/DTD/svg11.dtd">
<!-- Generated by graphviz version 7.0.6 (20230107.1202)
 -->
<!-- Title: include/proxsuite/linalg/veg/tuple.hpp Pages: 1 -->
<svg width="1731pt" height="621pt"
 viewBox="0.00 0.00 1730.50 621.00" xmlns="http://www.w3.org/2000/svg" xmlns:xlink="http://www.w3.org/1999/xlink">
<g id="graph0" class="graph" transform="scale(1 1) rotate(0) translate(4 617)">
<title>include/proxsuite/linalg/veg/tuple.hpp</title>
<!-- Node1 -->
<g id="node1" class="node">
<title>Node1</title>
<g id="a_node1"><a xlink:title=" ">
<polygon fill="#999999" stroke="#666666" points="1220.5,-613 1089.5,-613 1089.5,-583 1220.5,-583 1220.5,-613"/>
<text text-anchor="start" x="1097.5" y="-601" font-family="Helvetica,sans-Serif" font-size="10.00">include/proxsuite/linalg</text>
<text text-anchor="middle" x="1155" y="-590" font-family="Helvetica,sans-Serif" font-size="10.00">/veg/tuple.hpp</text>
</a>
</g>
</g>
<!-- Node2 -->
<g id="node2" class="node">
<title>Node2</title>
<g id="a_node2"><a xlink:href="assignable_8hpp.html" target="_top" xlink:title=" ">
<polygon fill="white" stroke="#666666" points="451.5,-349 302.5,-349 302.5,-319 451.5,-319 451.5,-349"/>
<text text-anchor="start" x="310.5" y="-337" font-family="Helvetica,sans-Serif" font-size="10.00">proxsuite/linalg/veg</text>
<text text-anchor="middle" x="377" y="-326" font-family="Helvetica,sans-Serif" font-size="10.00">/type_traits/assignable.hpp</text>
</a>
</g>
</g>
<!-- Node1&#45;&gt;Node2 -->
<g id="edge1" class="edge">
<title>Node1&#45;&gt;Node2</title>
<path fill="none" stroke="#63b8ff" d="M1098.39,-582.5C1061.88,-572.93 1013.46,-559.83 971,-547 793.42,-493.32 749.09,-479.11 575,-415 521.62,-395.34 461.1,-370.51 421.18,-353.77"/>
<polygon fill="#63b8ff" stroke="#63b8ff" points="422.71,-350.61 412.13,-349.96 419.99,-357.07 422.71,-350.61"/>
</g>
<!-- Node11 -->
<g id="node11" class="node">
<title>Node11</title>
<g id="a_node11"><a xlink:href="prologue_8hpp.html" target="_top" xlink:title=" ">
<polygon fill="white" stroke="#666666" points="722,-85 598,-85 598,-55 722,-55 722,-85"/>
<text text-anchor="start" x="606" y="-73" font-family="Helvetica,sans-Serif" font-size="10.00">proxsuite/linalg/veg</text>
<text text-anchor="middle" x="660" y="-62" font-family="Helvetica,sans-Serif" font-size="10.00">/internal/prologue.hpp</text>
</a>
</g>
</g>
<!-- Node1&#45;&gt;Node11 -->
<g id="edge73" class="edge">
<title>Node1&#45;&gt;Node11</title>
<path fill="none" stroke="#63b8ff" d="M1089.28,-594.63C878.94,-586.17 236,-553.26 236,-467 236,-467 236,-467 236,-399 236,-253.94 280.11,-191.29 407,-121 408.01,-120.44 512.25,-99.94 586.6,-85.37"/>
<polygon fill="#63b8ff" stroke="#63b8ff" points="587.17,-88.82 596.31,-83.47 585.82,-81.95 587.17,-88.82"/>
</g>
<!-- Node13 -->
<g id="node13" class="node">
<title>Node13</title>
<g id="a_node13"><a xlink:href="epilogue_8hpp.html" target="_top" xlink:title=" ">
<polygon fill="white" stroke="#666666" points="1139.5,-85 1016.5,-85 1016.5,-55 1139.5,-55 1139.5,-85"/>
<text text-anchor="start" x="1024.5" y="-73" font-family="Helvetica,sans-Serif" font-size="10.00">proxsuite/linalg/veg</text>
<text text-anchor="middle" x="1078" y="-62" font-family="Helvetica,sans-Serif" font-size="10.00">/internal/epilogue.hpp</text>
</a>
</g>
</g>
<!-- Node1&#45;&gt;Node13 -->
<g id="edge75" class="edge">
<title>Node1&#45;&gt;Node13</title>
<path fill="none" stroke="#63b8ff" d="M1220.85,-593.44C1355.35,-584.36 1649,-554.52 1649,-467 1649,-467 1649,-467 1649,-201 1649,-149.77 1612.47,-142.57 1566,-121 1494.14,-87.65 1268.97,-76.36 1151.29,-72.69"/>
<polygon fill="#63b8ff" stroke="#63b8ff" points="1151.51,-69.19 1141.41,-72.39 1151.3,-76.19 1151.51,-69.19"/>
</g>
<!-- Node15 -->
<g id="node15" class="node">
<title>Node15</title>
<g id="a_node15"><a xlink:href="internal_2dbg_8hpp.html" target="_top" xlink:title=" ">
<polygon fill="white" stroke="#666666" points="1064.5,-481 951.5,-481 951.5,-451 1064.5,-451 1064.5,-481"/>
<text text-anchor="start" x="959.5" y="-469" font-family="Helvetica,sans-Serif" font-size="10.00">proxsuite/linalg/veg</text>
<text text-anchor="middle" x="1008" y="-458" font-family="Helvetica,sans-Serif" font-size="10.00">/internal/dbg.hpp</text>
</a>
</g>
</g>
<!-- Node1&#45;&gt;Node15 -->
<g id="edge22" class="edge">
<title>Node1&#45;&gt;Node15</title>
<path fill="none" stroke="#63b8ff" d="M1138.71,-582.59C1112.99,-559.85 1062.82,-515.48 1032.67,-488.81"/>
<polygon fill="#63b8ff" stroke="#63b8ff" points="1035.31,-486.48 1025.5,-482.48 1030.67,-491.72 1035.31,-486.48"/>
</g>
<!-- Node28 -->
<g id="node28" class="node">
<title>Node28</title>
<g id="a_node28"><a xlink:href="invocable_8hpp.html" target="_top" xlink:title=" ">
<polygon fill="white" stroke="#666666" points="767.5,-415 624.5,-415 624.5,-385 767.5,-385 767.5,-415"/>
<text text-anchor="start" x="632.5" y="-403" font-family="Helvetica,sans-Serif" font-size="10.00">proxsuite/linalg/veg</text>
<text text-anchor="middle" x="696" y="-392" font-family="Helvetica,sans-Serif" font-size="10.00">/type_traits/invocable.hpp</text>
</a>
</g>
</g>
<!-- Node1&#45;&gt;Node28 -->
<g id="edge58" class="edge">
<title>Node1&#45;&gt;Node28</title>
<path fill="none" stroke="#63b8ff" d="M1121.25,-582.59C1039.68,-547.76 831.84,-459.01 740.36,-419.94"/>
<polygon fill="#63b8ff" stroke="#63b8ff" points="741.76,-416.74 731.19,-416.03 739.01,-423.17 741.76,-416.74"/>
</g>
<!-- Node29 -->
<g id="node29" class="node">
<title>Node29</title>
<g id="a_node29"><a xlink:href="get_8hpp.html" target="_top" xlink:title=" ">
<polygon fill="white" stroke="#666666" points="1430.5,-349 1317.5,-349 1317.5,-319 1430.5,-319 1430.5,-349"/>
<text text-anchor="start" x="1325.5" y="-337" font-family="Helvetica,sans-Serif" font-size="10.00">proxsuite/linalg/veg</text>
<text text-anchor="middle" x="1374" y="-326" font-family="Helvetica,sans-Serif" font-size="10.00">/util/get.hpp</text>
</a>
</g>
</g>
<!-- Node1&#45;&gt;Node29 -->
<g id="edge63" class="edge">
<title>Node1&#45;&gt;Node29</title>
<path fill="none" stroke="#63b8ff" d="M1204.54,-582.56C1228.28,-574.3 1256.39,-562.46 1279,-547 1312.22,-524.28 1322.12,-516.54 1341,-481 1361.68,-442.07 1369.44,-390.63 1372.33,-360.35"/>
<polygon fill="#63b8ff" stroke="#63b8ff" points="1375.79,-360.89 1373.14,-350.63 1368.82,-360.31 1375.79,-360.89"/>
</g>
<!-- Node30 -->
<g id="node30" class="node">
<title>Node30</title>
<g id="a_node30"><a xlink:href="fix__index_8hpp.html" target="_top" xlink:title=" ">
<polygon fill="white" stroke="#666666" points="1270.5,-547 1145.5,-547 1145.5,-517 1270.5,-517 1270.5,-547"/>
<text text-anchor="start" x="1153.5" y="-535" font-family="Helvetica,sans-Serif" font-size="10.00">proxsuite/linalg/veg</text>
<text text-anchor="middle" x="1208" y="-524" font-family="Helvetica,sans-Serif" font-size="10.00">/internal/fix_index.hpp</text>
</a>
</g>
</g>
<!-- Node1&#45;&gt;Node30 -->
<g id="edge67" class="edge">
<title>Node1&#45;&gt;Node30</title>
<path fill="none" stroke="#63b8ff" d="M1166.76,-582.8C1173.28,-574.92 1181.54,-564.95 1188.96,-555.99"/>
<polygon fill="#63b8ff" stroke="#63b8ff" points="1191.62,-558.26 1195.31,-548.33 1186.23,-553.8 1191.62,-558.26"/>
</g>
<!-- Node31 -->
<g id="node31" class="node">
<title>Node31</title>
<g id="a_node31"><a xlink:title=" ">
<polygon fill="#e0e0e0" stroke="#999999" points="1722.5,-541.5 1677.5,-541.5 1677.5,-522.5 1722.5,-522.5 1722.5,-541.5"/>
<text text-anchor="middle" x="1700" y="-529.5" font-family="Helvetica,sans-Serif" font-size="10.00">utility</text>
</a>
</g>
</g>
<!-- Node1&#45;&gt;Node31 -->
<g id="edge74" class="edge">
<title>Node1&#45;&gt;Node31</title>
<path fill="none" stroke="#63b8ff" d="M1220.85,-596.03C1318.59,-593.36 1507.25,-583.45 1663,-547 1664.76,-546.59 1666.54,-546.12 1668.33,-545.6"/>
<polygon fill="#63b8ff" stroke="#63b8ff" points="1669.35,-548.94 1677.73,-542.46 1667.14,-542.3 1669.35,-548.94"/>
</g>
<!-- Node3 -->
<g id="node3" class="node">
<title>Node3</title>
<g id="a_node3"><a xlink:href="veg_2type__traits_2core_8hpp.html" target="_top" xlink:title=" ">
<polygon fill="white" stroke="#666666" points="804.5,-283 687.5,-283 687.5,-253 804.5,-253 804.5,-283"/>
<text text-anchor="start" x="695.5" y="-271" font-family="Helvetica,sans-Serif" font-size="10.00">proxsuite/linalg/veg</text>
<text text-anchor="middle" x="746" y="-260" font-family="Helvetica,sans-Serif" font-size="10.00">/type_traits/core.hpp</text>
</a>
</g>
</g>
<!-- Node2&#45;&gt;Node3 -->
<g id="edge2" class="edge">
<title>Node2&#45;&gt;Node3</title>
<path fill="none" stroke="#63b8ff" d="M451.65,-320.55C454.81,-320.03 457.94,-319.51 461,-319 553.95,-303.54 580.02,-301.03 675.96,-283.34"/>
<polygon fill="#63b8ff" stroke="#63b8ff" points="676.37,-286.82 685.57,-281.56 675.1,-279.94 676.37,-286.82"/>
</g>
<!-- Node2&#45;&gt;Node11 -->
<g id="edge19" class="edge">
<title>Node2&#45;&gt;Node11</title>
<path fill="none" stroke="#63b8ff" d="M376.76,-318.54C376.99,-302.04 378.89,-274.57 388,-253 416.95,-184.45 429.5,-162.89 491,-121 507.05,-110.07 548.75,-97.68 586.71,-87.97"/>
<polygon fill="#63b8ff" stroke="#63b8ff" points="587.5,-91.38 596.35,-85.55 585.8,-84.59 587.5,-91.38"/>
</g>
<!-- Node2&#45;&gt;Node13 -->
<g id="edge21" class="edge">
<title>Node2&#45;&gt;Node13</title>
<path fill="none" stroke="#63b8ff" d="M380.59,-318.8C386.03,-300.41 398.23,-268.85 421,-253 509.88,-191.13 562.88,-260.64 662,-217 681.38,-208.47 680.77,-197.76 699,-187 766.32,-147.29 787.48,-144.55 862,-121 909,-106.15 963.03,-93.64 1005.29,-84.85"/>
<polygon fill="#63b8ff" stroke="#63b8ff" points="1005.75,-88.33 1014.84,-82.89 1004.34,-81.47 1005.75,-88.33"/>
</g>
<!-- Node14 -->
<g id="node14" class="node">
<title>Node14</title>
<g id="a_node14"><a xlink:title=" ">
<polygon fill="#e0e0e0" stroke="#999999" points="499.5,-277.5 430.5,-277.5 430.5,-258.5 499.5,-258.5 499.5,-277.5"/>
<text text-anchor="middle" x="465" y="-265.5" font-family="Helvetica,sans-Serif" font-size="10.00">type_traits</text>
</a>
</g>
</g>
<!-- Node2&#45;&gt;Node14 -->
<g id="edge20" class="edge">
<title>Node2&#45;&gt;Node14</title>
<path fill="none" stroke="#63b8ff" d="M396.53,-318.8C410.52,-308.62 429.34,-294.93 443.72,-284.48"/>
<polygon fill="#63b8ff" stroke="#63b8ff" points="445.59,-287.45 451.62,-278.73 441.47,-281.79 445.59,-287.45"/>
</g>
<!-- Node4 -->
<g id="node4" class="node">
<title>Node4</title>
<g id="a_node4"><a xlink:href="typedefs_8hpp.html" target="_top" xlink:title=" ">
<polygon fill="white" stroke="#666666" points="124,-85 0,-85 0,-55 124,-55 124,-85"/>
<text text-anchor="start" x="8" y="-73" font-family="Helvetica,sans-Serif" font-size="10.00">proxsuite/linalg/veg</text>
<text text-anchor="middle" x="62" y="-62" font-family="Helvetica,sans-Serif" font-size="10.00">/internal/typedefs.hpp</text>
</a>
</g>
</g>
<!-- Node3&#45;&gt;Node4 -->
<g id="edge3" class="edge">
<title>Node3&#45;&gt;Node4</title>
<path fill="none" stroke="#63b8ff" d="M687.05,-254.75C683.99,-254.15 680.96,-253.56 678,-253 419.16,-203.76 298.61,-317.01 94,-151 77.5,-137.61 69.46,-114.45 65.57,-96.48"/>
<polygon fill="#63b8ff" stroke="#63b8ff" points="69.04,-96.01 63.8,-86.81 62.15,-97.27 69.04,-96.01"/>
</g>
<!-- Node7 -->
<g id="node7" class="node">
<title>Node7</title>
<g id="a_node7"><a xlink:href="integer__seq_8hpp.html" target="_top" xlink:title=" ">
<polygon fill="white" stroke="#666666" points="653,-217 515,-217 515,-187 653,-187 653,-217"/>
<text text-anchor="start" x="523" y="-205" font-family="Helvetica,sans-Serif" font-size="10.00">proxsuite/linalg/veg</text>
<text text-anchor="middle" x="584" y="-194" font-family="Helvetica,sans-Serif" font-size="10.00">/internal/integer_seq.hpp</text>
</a>
</g>
</g>
<!-- Node3&#45;&gt;Node7 -->
<g id="edge6" class="edge">
<title>Node3&#45;&gt;Node7</title>
<path fill="none" stroke="#63b8ff" d="M709.64,-252.64C686.38,-243.45 655.97,-231.43 630.9,-221.53"/>
<polygon fill="#63b8ff" stroke="#63b8ff" points="632.51,-218.4 621.92,-217.98 629.94,-224.91 632.51,-218.4"/>
</g>
<!-- Node3&#45;&gt;Node11 -->
<g id="edge17" class="edge">
<title>Node3&#45;&gt;Node11</title>
<path fill="none" stroke="#63b8ff" d="M727.17,-252.61C702.99,-232.81 662.21,-194.62 646,-151 639.4,-133.24 643.59,-112.08 649.06,-95.98"/>
<polygon fill="#63b8ff" stroke="#63b8ff" points="652.3,-97.29 652.59,-86.7 645.76,-94.8 652.3,-97.29"/>
</g>
<!-- Node3&#45;&gt;Node13 -->
<g id="edge18" class="edge">
<title>Node3&#45;&gt;Node13</title>
<path fill="none" stroke="#63b8ff" d="M770.59,-252.5C807.51,-230.7 879.4,-188.05 940,-151 961.46,-137.88 966.33,-133.78 988,-121 1005.47,-110.7 1025.13,-99.71 1041.61,-90.66"/>
<polygon fill="#63b8ff" stroke="#63b8ff" points="1042.99,-93.9 1050.08,-86.03 1039.63,-87.75 1042.99,-93.9"/>
</g>
<!-- Node5 -->
<g id="node5" class="node">
<title>Node5</title>
<g id="a_node5"><a xlink:title=" ">
<polygon fill="#e0e0e0" stroke="#999999" points="896,-19 846,-19 846,0 896,0 896,-19"/>
<text text-anchor="middle" x="871" y="-7" font-family="Helvetica,sans-Serif" font-size="10.00">cstdint</text>
</a>
</g>
</g>
<!-- Node4&#45;&gt;Node5 -->
<g id="edge4" class="edge">
<title>Node4&#45;&gt;Node5</title>
<path fill="none" stroke="#63b8ff" d="M124.26,-56.23C127.21,-55.78 130.13,-55.37 133,-55 400.56,-20.71 726.16,-12.73 834.21,-10.97"/>
<polygon fill="#63b8ff" stroke="#63b8ff" points="834.26,-14.47 844.2,-10.82 834.15,-7.47 834.26,-14.47"/>
</g>
<!-- Node6 -->
<g id="node6" class="node">
<title>Node6</title>
<g id="a_node6"><a xlink:title=" ">
<polygon fill="#e0e0e0" stroke="#999999" points="88.5,-19 35.5,-19 35.5,0 88.5,0 88.5,-19"/>
<text text-anchor="middle" x="62" y="-7" font-family="Helvetica,sans-Serif" font-size="10.00">cstddef</text>
</a>
</g>
</g>
<!-- Node4&#45;&gt;Node6 -->
<g id="edge5" class="edge">
<title>Node4&#45;&gt;Node6</title>
<path fill="none" stroke="#63b8ff" d="M62,-54.54C62,-47.34 62,-38.53 62,-30.68"/>
<polygon fill="#63b8ff" stroke="#63b8ff" points="65.5,-30.69 62,-20.69 58.5,-30.69 65.5,-30.69"/>
</g>
<!-- Node7&#45;&gt;Node4 -->
<g id="edge7" class="edge">
<title>Node7&#45;&gt;Node4</title>
<path fill="none" stroke="#63b8ff" d="M514.76,-188.95C510.11,-188.26 505.49,-187.6 501,-187 419.55,-176.16 206.21,-188.3 133,-151 108.43,-138.48 88.47,-113.57 76.05,-94.85"/>
<polygon fill="#63b8ff" stroke="#63b8ff" points="79.06,-93.06 70.75,-86.49 73.14,-96.81 79.06,-93.06"/>
</g>
<!-- Node8 -->
<g id="node8" class="node">
<title>Node8</title>
<g id="a_node8"><a xlink:href="macros_8hpp.html" target="_top" xlink:title=" ">
<polygon fill="white" stroke="#666666" points="259.5,-151 142.5,-151 142.5,-121 259.5,-121 259.5,-151"/>
<text text-anchor="start" x="150.5" y="-139" font-family="Helvetica,sans-Serif" font-size="10.00">proxsuite/linalg/veg</text>
<text text-anchor="middle" x="201" y="-128" font-family="Helvetica,sans-Serif" font-size="10.00">/internal/macros.hpp</text>
</a>
</g>
</g>
<!-- Node7&#45;&gt;Node8 -->
<g id="edge8" class="edge">
<title>Node7&#45;&gt;Node8</title>
<path fill="none" stroke="#63b8ff" d="M514.71,-189.3C510.07,-188.52 505.47,-187.75 501,-187 422.19,-173.79 331.73,-158.72 270.92,-148.61"/>
<polygon fill="#63b8ff" stroke="#63b8ff" points="271.85,-145.22 261.42,-147.03 270.71,-152.13 271.85,-145.22"/>
</g>
<!-- Node7&#45;&gt;Node11 -->
<g id="edge15" class="edge">
<title>Node7&#45;&gt;Node11</title>
<path fill="none" stroke="#63b8ff" d="M586.06,-186.51C588.94,-169.75 595.3,-141.79 608,-121 614.36,-110.58 623.42,-100.84 632.2,-92.78"/>
<polygon fill="#63b8ff" stroke="#63b8ff" points="634.39,-95.52 639.63,-86.31 629.79,-90.24 634.39,-95.52"/>
</g>
<!-- Node7&#45;&gt;Node13 -->
<g id="edge16" class="edge">
<title>Node7&#45;&gt;Node13</title>
<path fill="none" stroke="#63b8ff" d="M609.68,-186.64C643.21,-168.53 704.22,-137.72 760,-121 841.94,-96.43 939.57,-83.37 1004.84,-76.84"/>
<polygon fill="#63b8ff" stroke="#63b8ff" points="1005.12,-80.33 1014.73,-75.87 1004.44,-73.36 1005.12,-80.33"/>
</g>
<!-- Node8&#45;&gt;Node4 -->
<g id="edge10" class="edge">
<title>Node8&#45;&gt;Node4</title>
<path fill="none" stroke="#63b8ff" d="M169.81,-120.64C150.22,-111.62 124.74,-99.89 103.46,-90.09"/>
<polygon fill="#63b8ff" stroke="#63b8ff" points="105.01,-86.95 94.47,-85.95 102.08,-93.31 105.01,-86.95"/>
</g>
<!-- Node9 -->
<g id="node9" class="node">
<title>Node9</title>
<g id="a_node9"><a xlink:href="hedley_8ext_8hpp.html" target="_top" xlink:title=" ">
<polygon fill="white" stroke="#666666" points="478.5,-85 303.5,-85 303.5,-55 478.5,-55 478.5,-85"/>
<text text-anchor="start" x="311.5" y="-73" font-family="Helvetica,sans-Serif" font-size="10.00">proxsuite/linalg/veg</text>
<text text-anchor="middle" x="391" y="-62" font-family="Helvetica,sans-Serif" font-size="10.00">/internal/external/hedley.ext.hpp</text>
</a>
</g>
</g>
<!-- Node8&#45;&gt;Node9 -->
<g id="edge9" class="edge">
<title>Node8&#45;&gt;Node9</title>
<path fill="none" stroke="#63b8ff" d="M243.64,-120.64C271.41,-111.28 307.86,-99 337.57,-89"/>
<polygon fill="#63b8ff" stroke="#63b8ff" points="338.38,-92.42 346.74,-85.91 336.15,-85.78 338.38,-92.42"/>
</g>
<!-- Node10 -->
<g id="node10" class="node">
<title>Node10</title>
<g id="a_node10"><a xlink:href="preprocessor_8hpp.html" target="_top" xlink:title=" ">
<polygon fill="white" stroke="#666666" points="285.5,-85 142.5,-85 142.5,-55 285.5,-55 285.5,-85"/>
<text text-anchor="start" x="150.5" y="-73" font-family="Helvetica,sans-Serif" font-size="10.00">proxsuite/linalg/veg</text>
<text text-anchor="middle" x="214" y="-62" font-family="Helvetica,sans-Serif" font-size="10.00">/internal/preprocessor.hpp</text>
</a>
</g>
</g>
<!-- Node8&#45;&gt;Node10 -->
<g id="edge11" class="edge">
<title>Node8&#45;&gt;Node10</title>
<path fill="none" stroke="#63b8ff" d="M203.89,-120.8C205.35,-113.59 207.17,-104.61 208.87,-96.27"/>
<polygon fill="#63b8ff" stroke="#63b8ff" points="212.26,-97.14 210.82,-86.65 205.4,-95.75 212.26,-97.14"/>
</g>
<!-- Node8&#45;&gt;Node11 -->
<g id="edge12" class="edge">
<title>Node8&#45;&gt;Node11</title>
<path fill="none" stroke="#63b8ff" d="M259.9,-123.31C264.66,-122.48 269.41,-121.7 274,-121 409.33,-100.3 447.26,-106.1 586.52,-85.13"/>
<polygon fill="#63b8ff" stroke="#63b8ff" points="586.76,-88.64 596.11,-83.67 585.7,-81.72 586.76,-88.64"/>
</g>
<!-- Node12 -->
<g id="node12" class="node">
<title>Node12</title>
<g id="a_node12"><a xlink:title=" ">
<polygon fill="#e0e0e0" stroke="#999999" points="579.5,-79.5 496.5,-79.5 496.5,-60.5 579.5,-60.5 579.5,-79.5"/>
<text text-anchor="middle" x="538" y="-67.5" font-family="Helvetica,sans-Serif" font-size="10.00">initializer_list</text>
</a>
</g>
</g>
<!-- Node8&#45;&gt;Node12 -->
<g id="edge13" class="edge">
<title>Node8&#45;&gt;Node12</title>
<path fill="none" stroke="#63b8ff" d="M259.95,-123.58C264.7,-122.69 269.43,-121.82 274,-121 368.48,-103.96 393.26,-105.73 487,-85 490.11,-84.31 493.31,-83.55 496.53,-82.76"/>
<polygon fill="#63b8ff" stroke="#63b8ff" points="497.11,-86.22 505.91,-80.32 495.36,-79.44 497.11,-86.22"/>
</g>
<!-- Node8&#45;&gt;Node13 -->
<g id="edge14" class="edge">
<title>Node8&#45;&gt;Node13</title>
<path fill="none" stroke="#63b8ff" d="M259.9,-130.7C415.05,-119.38 834.66,-88.76 1004.82,-76.34"/>
<polygon fill="#63b8ff" stroke="#63b8ff" points="1004.92,-79.84 1014.64,-75.62 1004.42,-72.86 1004.92,-79.84"/>
</g>
<!-- Node15&#45;&gt;Node11 -->
<g id="edge54" class="edge">
<title>Node15&#45;&gt;Node11</title>
<path fill="none" stroke="#63b8ff" d="M997.99,-450.66C986.36,-434.27 966.27,-406.9 947,-385 940.89,-378.05 715.78,-158.22 710,-151 695.89,-133.38 682.48,-111.55 673.11,-95.14"/>
<polygon fill="#63b8ff" stroke="#63b8ff" points="676.25,-93.58 668.31,-86.57 670.14,-97 676.25,-93.58"/>
</g>
<!-- Node15&#45;&gt;Node13 -->
<g id="edge57" class="edge">
<title>Node15&#45;&gt;Node13</title>
<path fill="none" stroke="#63b8ff" d="M1064.76,-465.06C1160.84,-462.38 1357.54,-444.58 1486,-349 1519.45,-324.11 1535,-310.69 1535,-269 1535,-269 1535,-269 1535,-201 1535,-164.46 1543.34,-145.25 1516,-121 1489.3,-97.31 1268.95,-81.6 1151.34,-74.81"/>
<polygon fill="#63b8ff" stroke="#63b8ff" points="1151.64,-71.33 1141.46,-74.25 1151.24,-78.31 1151.64,-71.33"/>
</g>
<!-- Node16 -->
<g id="node16" class="node">
<title>Node16</title>
<g id="a_node16"><a xlink:href="primitives_8hpp.html" target="_top" xlink:title=" ">
<polygon fill="white" stroke="#666666" points="616,-349 470,-349 470,-319 616,-319 616,-349"/>
<text text-anchor="start" x="478" y="-337" font-family="Helvetica,sans-Serif" font-size="10.00">proxsuite/linalg/veg</text>
<text text-anchor="middle" x="543" y="-326" font-family="Helvetica,sans-Serif" font-size="10.00">/type_traits/primitives.hpp</text>
</a>
</g>
</g>
<!-- Node15&#45;&gt;Node16 -->
<g id="edge23" class="edge">
<title>Node15&#45;&gt;Node16</title>
<path fill="none" stroke="#63b8ff" d="M951.29,-462.62C856.88,-457.86 672.2,-444.95 615,-415 590.56,-402.2 570.36,-377.55 557.64,-358.98"/>
<polygon fill="#63b8ff" stroke="#63b8ff" points="560.6,-357.12 552.19,-350.67 554.74,-360.95 560.6,-357.12"/>
</g>
<!-- Node17 -->
<g id="node17" class="node">
<title>Node17</title>
<g id="a_node17"><a xlink:href="terminate_8hpp.html" target="_top" xlink:title=" ">
<polygon fill="white" stroke="#666666" points="1506.5,-151 1377.5,-151 1377.5,-121 1506.5,-121 1506.5,-151"/>
<text text-anchor="start" x="1385.5" y="-139" font-family="Helvetica,sans-Serif" font-size="10.00">proxsuite/linalg/veg</text>
<text text-anchor="middle" x="1442" y="-128" font-family="Helvetica,sans-Serif" font-size="10.00">/internal/terminate.hpp</text>
</a>
</g>
</g>
<!-- Node15&#45;&gt;Node17 -->
<g id="edge28" class="edge">
<title>Node15&#45;&gt;Node17</title>
<path fill="none" stroke="#63b8ff" d="M1051.1,-450.61C1103.57,-433.42 1195.1,-404.57 1275,-385 1357.63,-364.76 1402.69,-409 1463,-349 1513.04,-299.23 1476.81,-205.86 1455.12,-161.55"/>
<polygon fill="#63b8ff" stroke="#63b8ff" points="1458.3,-160.08 1450.66,-152.74 1452.06,-163.25 1458.3,-160.08"/>
</g>
<!-- Node19 -->
<g id="node19" class="node">
<title>Node19</title>
<g id="a_node19"><a xlink:href="constructible_8hpp.html" target="_top" xlink:title=" ">
<polygon fill="white" stroke="#666666" points="793.5,-349 634.5,-349 634.5,-319 793.5,-319 793.5,-349"/>
<text text-anchor="start" x="642.5" y="-337" font-family="Helvetica,sans-Serif" font-size="10.00">proxsuite/linalg/veg</text>
<text text-anchor="middle" x="714" y="-326" font-family="Helvetica,sans-Serif" font-size="10.00">/type_traits/constructible.hpp</text>
</a>
</g>
</g>
<!-- Node15&#45;&gt;Node19 -->
<g id="edge32" class="edge">
<title>Node15&#45;&gt;Node19</title>
<path fill="none" stroke="#63b8ff" d="M960.8,-450.51C935.68,-441.87 904.76,-429.71 879,-415 860.32,-404.33 859.66,-395.72 841,-385 819.11,-372.42 793.44,-361.65 770.92,-353.36"/>
<polygon fill="#63b8ff" stroke="#63b8ff" points="772.18,-350.09 761.58,-350 769.81,-356.68 772.18,-350.09"/>
</g>
<!-- Node21 -->
<g id="node21" class="node">
<title>Node21</title>
<g id="a_node21"><a xlink:href="ref_8hpp.html" target="_top" xlink:title=" ">
<polygon fill="white" stroke="#666666" points="1107.5,-415 994.5,-415 994.5,-385 1107.5,-385 1107.5,-415"/>
<text text-anchor="start" x="1002.5" y="-403" font-family="Helvetica,sans-Serif" font-size="10.00">proxsuite/linalg/veg</text>
<text text-anchor="middle" x="1051" y="-392" font-family="Helvetica,sans-Serif" font-size="10.00">/ref.hpp</text>
</a>
</g>
</g>
<!-- Node15&#45;&gt;Node21 -->
<g id="edge38" class="edge">
<title>Node15&#45;&gt;Node21</title>
<path fill="none" stroke="#63b8ff" d="M1017.54,-450.8C1022.72,-443.09 1029.25,-433.37 1035.17,-424.56"/>
<polygon fill="#63b8ff" stroke="#63b8ff" points="1037.97,-426.67 1040.64,-416.42 1032.16,-422.77 1037.97,-426.67"/>
</g>
<!-- Node26 -->
<g id="node26" class="node">
<title>Node26</title>
<g id="a_node26"><a xlink:title=" ">
<polygon fill="#e0e0e0" stroke="#999999" points="938,-409.5 888,-409.5 888,-390.5 938,-390.5 938,-409.5"/>
<text text-anchor="middle" x="913" y="-397.5" font-family="Helvetica,sans-Serif" font-size="10.00">cstring</text>
</a>
</g>
</g>
<!-- Node15&#45;&gt;Node26 -->
<g id="edge55" class="edge">
<title>Node15&#45;&gt;Node26</title>
<path fill="none" stroke="#63b8ff" d="M986.92,-450.8C971.67,-440.53 951.1,-426.67 935.53,-416.18"/>
<polygon fill="#63b8ff" stroke="#63b8ff" points="937.63,-413.37 927.38,-410.69 933.72,-419.18 937.63,-413.37"/>
</g>
<!-- Node27 -->
<g id="node27" class="node">
<title>Node27</title>
<g id="a_node27"><a xlink:title=" ">
<polygon fill="#e0e0e0" stroke="#999999" points="832,-409.5 786,-409.5 786,-390.5 832,-390.5 832,-409.5"/>
<text text-anchor="middle" x="809" y="-397.5" font-family="Helvetica,sans-Serif" font-size="10.00">cstdio</text>
</a>
</g>
</g>
<!-- Node15&#45;&gt;Node27 -->
<g id="edge56" class="edge">
<title>Node15&#45;&gt;Node27</title>
<path fill="none" stroke="#63b8ff" d="M958.47,-450.59C926.26,-441 883.45,-427.85 846,-415 844.86,-414.61 843.71,-414.21 842.54,-413.8"/>
<polygon fill="#63b8ff" stroke="#63b8ff" points="844.03,-410.61 833.43,-410.48 841.63,-417.19 844.03,-410.61"/>
</g>
<!-- Node16&#45;&gt;Node3 -->
<g id="edge24" class="edge">
<title>Node16&#45;&gt;Node3</title>
<path fill="none" stroke="#63b8ff" d="M588.81,-318.56C618.62,-309.16 657.72,-296.83 689.46,-286.82"/>
<polygon fill="#63b8ff" stroke="#63b8ff" points="690.43,-290.19 698.91,-283.85 688.32,-283.51 690.43,-290.19"/>
</g>
<!-- Node16&#45;&gt;Node11 -->
<g id="edge25" class="edge">
<title>Node16&#45;&gt;Node11</title>
<path fill="none" stroke="#63b8ff" d="M536.67,-318.6C524.11,-289.91 497.08,-227.47 495,-217 486.51,-174.25 484.77,-152.39 515,-121 526.07,-109.5 558.56,-97.81 589.99,-88.63"/>
<polygon fill="#63b8ff" stroke="#63b8ff" points="590.91,-92 599.57,-85.9 588.99,-85.27 590.91,-92"/>
</g>
<!-- Node16&#45;&gt;Node13 -->
<g id="edge27" class="edge">
<title>Node16&#45;&gt;Node13</title>
<path fill="none" stroke="#63b8ff" d="M554.37,-318.58C568.77,-301.1 595.09,-271.69 623,-253 654.7,-231.77 904.44,-134.84 940,-121 968.16,-110.04 999.83,-98.51 1025.73,-89.29"/>
<polygon fill="#63b8ff" stroke="#63b8ff" points="1026.77,-92.63 1035.02,-85.99 1024.42,-86.04 1026.77,-92.63"/>
</g>
<!-- Node16&#45;&gt;Node14 -->
<g id="edge26" class="edge">
<title>Node16&#45;&gt;Node14</title>
<path fill="none" stroke="#63b8ff" d="M525.69,-318.8C513.53,-308.82 497.24,-295.46 484.6,-285.09"/>
<polygon fill="#63b8ff" stroke="#63b8ff" points="486.9,-282.44 476.95,-278.8 482.46,-287.85 486.9,-282.44"/>
</g>
<!-- Node17&#45;&gt;Node11 -->
<g id="edge29" class="edge">
<title>Node17&#45;&gt;Node11</title>
<path fill="none" stroke="#63b8ff" d="M1377.16,-128.99C1349.4,-126.46 1316.61,-123.52 1287,-121 1086.93,-103.99 850.79,-85.62 733.62,-76.62"/>
<polygon fill="#63b8ff" stroke="#63b8ff" points="734.06,-73.14 723.82,-75.87 733.53,-80.12 734.06,-73.14"/>
</g>
<!-- Node17&#45;&gt;Node13 -->
<g id="edge31" class="edge">
<title>Node17&#45;&gt;Node13</title>
<path fill="none" stroke="#63b8ff" d="M1377.33,-123.53C1372.48,-122.67 1367.66,-121.82 1363,-121 1291,-108.3 1208.74,-93.88 1151.17,-83.8"/>
<polygon fill="#63b8ff" stroke="#63b8ff" points="1151.94,-80.38 1141.49,-82.11 1150.73,-87.28 1151.94,-80.38"/>
</g>
<!-- Node18 -->
<g id="node18" class="node">
<title>Node18</title>
<g id="a_node18"><a xlink:title=" ">
<polygon fill="#e0e0e0" stroke="#999999" points="1474.5,-79.5 1409.5,-79.5 1409.5,-60.5 1474.5,-60.5 1474.5,-79.5"/>
<text text-anchor="middle" x="1442" y="-67.5" font-family="Helvetica,sans-Serif" font-size="10.00">exception</text>
</a>
</g>
</g>
<!-- Node17&#45;&gt;Node18 -->
<g id="edge30" class="edge">
<title>Node17&#45;&gt;Node18</title>
<path fill="none" stroke="#63b8ff" d="M1442,-120.8C1442,-112.09 1442,-100.81 1442,-91.18"/>
<polygon fill="#63b8ff" stroke="#63b8ff" points="1445.5,-91.36 1442,-81.36 1438.5,-91.36 1445.5,-91.36"/>
</g>
<!-- Node19&#45;&gt;Node3 -->
<g id="edge33" class="edge">
<title>Node19&#45;&gt;Node3</title>
<path fill="none" stroke="#63b8ff" d="M721.1,-318.8C724.83,-311.34 729.5,-301.99 733.79,-293.41"/>
<polygon fill="#63b8ff" stroke="#63b8ff" points="736.9,-295.03 738.24,-284.52 730.64,-291.9 736.9,-295.03"/>
</g>
<!-- Node19&#45;&gt;Node11 -->
<g id="edge34" class="edge">
<title>Node19&#45;&gt;Node11</title>
<path fill="none" stroke="#63b8ff" d="M678.89,-318.62C624.78,-295.65 525.24,-249.94 506,-217 473.97,-162.16 554.91,-114.97 611.2,-90"/>
<polygon fill="#63b8ff" stroke="#63b8ff" points="612.55,-93.23 620.35,-86.05 609.78,-86.8 612.55,-93.23"/>
</g>
<!-- Node19&#45;&gt;Node13 -->
<g id="edge37" class="edge">
<title>Node19&#45;&gt;Node13</title>
<path fill="none" stroke="#63b8ff" d="M746.58,-318.63C766.35,-309.41 791.78,-296.64 813,-283 907.83,-222.06 1008.92,-133.8 1053.96,-93.09"/>
<polygon fill="#63b8ff" stroke="#63b8ff" points="1056.28,-95.71 1061.33,-86.4 1051.57,-90.53 1056.28,-95.71"/>
</g>
<!-- Node19&#45;&gt;Node14 -->
<g id="edge36" class="edge">
<title>Node19&#45;&gt;Node14</title>
<path fill="none" stroke="#63b8ff" d="M657.81,-318.56C613.49,-307.17 552.45,-291.48 511.01,-280.83"/>
<polygon fill="#63b8ff" stroke="#63b8ff" points="511.89,-277.44 501.34,-278.34 510.15,-284.22 511.89,-277.44"/>
</g>
<!-- Node20 -->
<g id="node20" class="node">
<title>Node20</title>
<g id="a_node20"><a xlink:title=" ">
<polygon fill="#e0e0e0" stroke="#999999" points="669.5,-277.5 632.5,-277.5 632.5,-258.5 669.5,-258.5 669.5,-277.5"/>
<text text-anchor="middle" x="651" y="-265.5" font-family="Helvetica,sans-Serif" font-size="10.00">new</text>
</a>
</g>
</g>
<!-- Node19&#45;&gt;Node20 -->
<g id="edge35" class="edge">
<title>Node19&#45;&gt;Node20</title>
<path fill="none" stroke="#63b8ff" d="M700.02,-318.8C690.49,-309.11 677.81,-296.24 667.74,-286.01"/>
<polygon fill="#63b8ff" stroke="#63b8ff" points="670.28,-283.59 660.77,-278.92 665.29,-288.5 670.28,-283.59"/>
</g>
<!-- Node21&#45;&gt;Node11 -->
<g id="edge52" class="edge">
<title>Node21&#45;&gt;Node11</title>
<path fill="none" stroke="#63b8ff" d="M1016.36,-384.63C997.27,-375.83 973.72,-363.49 955,-349 878.35,-289.67 883.59,-248.89 809,-187 785.36,-167.39 774.69,-169.28 750,-151 725.74,-133.04 700.22,-109.89 682.58,-93.12"/>
<polygon fill="#63b8ff" stroke="#63b8ff" points="685.32,-90.9 675.68,-86.5 680.47,-95.95 685.32,-90.9"/>
</g>
<!-- Node21&#45;&gt;Node13 -->
<g id="edge53" class="edge">
<title>Node21&#45;&gt;Node13</title>
<path fill="none" stroke="#63b8ff" d="M1107.7,-393.69C1213,-383.55 1429.14,-361.35 1440,-349 1515.91,-262.71 1413.57,-184.84 1318,-121 1268.56,-87.98 1201.62,-76.11 1151,-72.14"/>
<polygon fill="#63b8ff" stroke="#63b8ff" points="1151.53,-68.66 1141.31,-71.47 1151.05,-75.65 1151.53,-68.66"/>
</g>
<!-- Node21&#45;&gt;Node19 -->
<g id="edge43" class="edge">
<title>Node21&#45;&gt;Node19</title>
<path fill="none" stroke="#63b8ff" d="M994.21,-388.22C941.5,-378.2 862.24,-363.15 801.45,-351.61"/>
<polygon fill="#63b8ff" stroke="#63b8ff" points="802.29,-348.21 791.82,-349.78 800.99,-355.08 802.29,-348.21"/>
</g>
<!-- Node22 -->
<g id="node22" class="node">
<title>Node22</title>
<g id="a_node22"><a xlink:href="tags_8hpp.html" target="_top" xlink:title=" ">
<polygon fill="white" stroke="#666666" points="1081.5,-349 964.5,-349 964.5,-319 1081.5,-319 1081.5,-349"/>
<text text-anchor="start" x="972.5" y="-337" font-family="Helvetica,sans-Serif" font-size="10.00">proxsuite/linalg/veg</text>
<text text-anchor="middle" x="1023" y="-326" font-family="Helvetica,sans-Serif" font-size="10.00">/type_traits/tags.hpp</text>
</a>
</g>
</g>
<!-- Node21&#45;&gt;Node22 -->
<g id="edge39" class="edge">
<title>Node21&#45;&gt;Node22</title>
<path fill="none" stroke="#63b8ff" d="M1044.79,-384.8C1041.56,-377.42 1037.52,-368.2 1033.81,-359.7"/>
<polygon fill="#63b8ff" stroke="#63b8ff" points="1037.02,-358.31 1029.8,-350.55 1030.61,-361.12 1037.02,-358.31"/>
</g>
<!-- Node23 -->
<g id="node23" class="node">
<title>Node23</title>
<g id="a_node23"><a xlink:href="address_8hpp.html" target="_top" xlink:title=" ">
<polygon fill="white" stroke="#666666" points="1222.5,-349 1099.5,-349 1099.5,-319 1222.5,-319 1222.5,-349"/>
<text text-anchor="start" x="1107.5" y="-337" font-family="Helvetica,sans-Serif" font-size="10.00">proxsuite/linalg/veg</text>
<text text-anchor="middle" x="1161" y="-326" font-family="Helvetica,sans-Serif" font-size="10.00">/memory/address.hpp</text>
</a>
</g>
</g>
<!-- Node21&#45;&gt;Node23 -->
<g id="edge44" class="edge">
<title>Node21&#45;&gt;Node23</title>
<path fill="none" stroke="#63b8ff" d="M1075.69,-384.64C1090.69,-375.91 1110.07,-364.63 1126.56,-355.04"/>
<polygon fill="#63b8ff" stroke="#63b8ff" points="1128.2,-358.13 1135.09,-350.08 1124.68,-352.08 1128.2,-358.13"/>
</g>
<!-- Node22&#45;&gt;Node3 -->
<g id="edge40" class="edge">
<title>Node22&#45;&gt;Node3</title>
<path fill="none" stroke="#63b8ff" d="M964.26,-319.43C920.83,-309.39 861.53,-295.69 815.7,-285.1"/>
<polygon fill="#63b8ff" stroke="#63b8ff" points="816.67,-281.73 806.13,-282.89 815.09,-288.56 816.67,-281.73"/>
</g>
<!-- Node22&#45;&gt;Node11 -->
<g id="edge41" class="edge">
<title>Node22&#45;&gt;Node11</title>
<path fill="none" stroke="#63b8ff" d="M1006.92,-318.78C976.46,-292.04 907.91,-232.82 847,-187 805.33,-155.65 794.39,-148.36 750,-121 732.99,-110.52 713.67,-99.65 697.31,-90.74"/>
<polygon fill="#63b8ff" stroke="#63b8ff" points="699.34,-87.86 688.88,-86.19 696.01,-94.02 699.34,-87.86"/>
</g>
<!-- Node22&#45;&gt;Node13 -->
<g id="edge42" class="edge">
<title>Node22&#45;&gt;Node13</title>
<path fill="none" stroke="#63b8ff" d="M1027.36,-318.64C1030.29,-308.69 1034.14,-295.11 1037,-283 1052.75,-216.36 1066.9,-136.88 1073.71,-96.82"/>
<polygon fill="#63b8ff" stroke="#63b8ff" points="1077.16,-97.42 1075.37,-86.97 1070.26,-96.25 1077.16,-97.42"/>
</g>
<!-- Node23&#45;&gt;Node3 -->
<g id="edge45" class="edge">
<title>Node23&#45;&gt;Node3</title>
<path fill="none" stroke="#63b8ff" d="M1099.08,-320.6C1096.01,-320.05 1092.97,-319.51 1090,-319 995.48,-302.82 885.76,-287.46 816.13,-278.14"/>
<polygon fill="#63b8ff" stroke="#63b8ff" points="816.76,-274.69 806.38,-276.84 815.83,-281.63 816.76,-274.69"/>
</g>
<!-- Node23&#45;&gt;Node11 -->
<g id="edge49" class="edge">
<title>Node23&#45;&gt;Node11</title>
<path fill="none" stroke="#63b8ff" d="M1136.8,-318.64C1065.84,-276.61 858.86,-154.76 788,-121 763.44,-109.3 735.36,-98.1 711.77,-89.28"/>
<polygon fill="#63b8ff" stroke="#63b8ff" points="713.29,-86.11 702.7,-85.93 710.87,-92.68 713.29,-86.11"/>
</g>
<!-- Node23&#45;&gt;Node13 -->
<g id="edge51" class="edge">
<title>Node23&#45;&gt;Node13</title>
<path fill="none" stroke="#63b8ff" d="M1161.81,-318.56C1162.33,-302.32 1162.01,-275.31 1156,-253 1151.35,-235.73 1145.4,-233.28 1138,-217 1118.87,-174.94 1098.91,-124.94 1087.51,-95.72"/>
<polygon fill="#63b8ff" stroke="#63b8ff" points="1090.88,-94.71 1084,-86.65 1084.35,-97.24 1090.88,-94.71"/>
</g>
<!-- Node24 -->
<g id="node24" class="node">
<title>Node24</title>
<g id="a_node24"><a xlink:href="std_8hpp.html" target="_top" xlink:title=" ">
<polygon fill="white" stroke="#666666" points="1260.5,-217 1147.5,-217 1147.5,-187 1260.5,-187 1260.5,-217"/>
<text text-anchor="start" x="1155.5" y="-205" font-family="Helvetica,sans-Serif" font-size="10.00">proxsuite/linalg/veg</text>
<text text-anchor="middle" x="1204" y="-194" font-family="Helvetica,sans-Serif" font-size="10.00">/internal/std.hpp</text>
</a>
</g>
</g>
<!-- Node23&#45;&gt;Node24 -->
<g id="edge46" class="edge">
<title>Node23&#45;&gt;Node24</title>
<path fill="none" stroke="#63b8ff" d="M1170.65,-318.73C1176.77,-309.04 1184.39,-295.72 1189,-283 1195.41,-265.32 1199.21,-244.4 1201.38,-228.39"/>
<polygon fill="#63b8ff" stroke="#63b8ff" points="1204.82,-229.09 1202.56,-218.74 1197.87,-228.25 1204.82,-229.09"/>
</g>
<!-- Node25 -->
<g id="node25" class="node">
<title>Node25</title>
<g id="a_node25"><a xlink:title=" ">
<polygon fill="#e0e0e0" stroke="#999999" points="1147,-277.5 1089,-277.5 1089,-258.5 1147,-258.5 1147,-277.5"/>
<text text-anchor="middle" x="1118" y="-265.5" font-family="Helvetica,sans-Serif" font-size="10.00">memory</text>
</a>
</g>
</g>
<!-- Node23&#45;&gt;Node25 -->
<g id="edge50" class="edge">
<title>Node23&#45;&gt;Node25</title>
<path fill="none" stroke="#63b8ff" d="M1151.46,-318.8C1145.21,-309.5 1137,-297.27 1130.27,-287.26"/>
<polygon fill="#63b8ff" stroke="#63b8ff" points="1133.27,-285.45 1124.79,-279.1 1127.46,-289.35 1133.27,-285.45"/>
</g>
<!-- Node24&#45;&gt;Node5 -->
<g id="edge47" class="edge">
<title>Node24&#45;&gt;Node5</title>
<path fill="none" stroke="#63b8ff" d="M1260.69,-200.36C1341.56,-198.11 1483.84,-188.73 1516,-151 1540.39,-122.39 1495.15,-62.56 1484,-55 1436.3,-22.66 1032.58,-13.21 907.67,-11.05"/>
<polygon fill="#63b8ff" stroke="#63b8ff" points="908.05,-7.56 897.99,-10.89 907.93,-14.56 908.05,-7.56"/>
</g>
<!-- Node24&#45;&gt;Node12 -->
<g id="edge48" class="edge">
<title>Node24&#45;&gt;Node12</title>
<path fill="none" stroke="#63b8ff" d="M1147.29,-191.89C1038.47,-174.07 793.05,-132.17 589,-85 586.08,-84.33 583.08,-83.6 580.06,-82.83"/>
<polygon fill="#63b8ff" stroke="#63b8ff" points="581.21,-79.52 570.65,-80.38 579.44,-86.29 581.21,-79.52"/>
</g>
<!-- Node28&#45;&gt;Node3 -->
<g id="edge59" class="edge">
<title>Node28&#45;&gt;Node3</title>
<path fill="none" stroke="#63b8ff" d="M755.37,-384.5C773.47,-377 791.38,-365.76 802,-349 814.85,-328.73 796.36,-306.41 777.26,-290.51"/>
<polygon fill="#63b8ff" stroke="#63b8ff" points="779.49,-287.81 769.46,-284.4 775.18,-293.32 779.49,-287.81"/>
</g>
<!-- Node28&#45;&gt;Node11 -->
<g id="edge61" class="edge">
<title>Node28&#45;&gt;Node11</title>
<path fill="none" stroke="#63b8ff" d="M624.29,-395.18C514.35,-388.58 314.53,-373.37 293,-349 273.82,-327.29 341.91,-189.35 449,-121 460.83,-113.45 530.42,-97.74 586.5,-85.93"/>
<polygon fill="#63b8ff" stroke="#63b8ff" points="586.96,-89.41 596.03,-83.94 585.52,-82.56 586.96,-89.41"/>
</g>
<!-- Node28&#45;&gt;Node13 -->
<g id="edge62" class="edge">
<title>Node28&#45;&gt;Node13</title>
<path fill="none" stroke="#63b8ff" d="M743.69,-384.53C767.42,-376.14 795.89,-364.21 819,-349 929.27,-276.44 1025.4,-147.46 1062.12,-94.6"/>
<polygon fill="#63b8ff" stroke="#63b8ff" points="1064.83,-96.83 1067.61,-86.61 1059.06,-92.86 1064.83,-96.83"/>
</g>
<!-- Node28&#45;&gt;Node19 -->
<g id="edge60" class="edge">
<title>Node28&#45;&gt;Node19</title>
<path fill="none" stroke="#63b8ff" d="M699.99,-384.8C702.05,-377.5 704.6,-368.41 706.97,-359.99"/>
<polygon fill="#63b8ff" stroke="#63b8ff" points="710.27,-361.2 709.61,-350.62 703.53,-359.3 710.27,-361.2"/>
</g>
<!-- Node29&#45;&gt;Node3 -->
<g id="edge64" class="edge">
<title>Node29&#45;&gt;Node3</title>
<path fill="none" stroke="#63b8ff" d="M1317.16,-327.21C1202.1,-315.48 941.88,-288.96 816.34,-276.17"/>
<polygon fill="#63b8ff" stroke="#63b8ff" points="816.8,-272.7 806.5,-275.17 816.09,-279.66 816.8,-272.7"/>
</g>
<!-- Node29&#45;&gt;Node11 -->
<g id="edge65" class="edge">
<title>Node29&#45;&gt;Node11</title>
<path fill="none" stroke="#63b8ff" d="M1368.37,-318.73C1357.52,-291.92 1332.17,-232.58 1303,-187 1282.57,-155.07 1282.53,-138.67 1249,-121 1204.42,-97.52 881.62,-80.64 733.7,-74.05"/>
<polygon fill="#63b8ff" stroke="#63b8ff" points="734.16,-70.57 724.01,-73.62 733.85,-77.56 734.16,-70.57"/>
</g>
<!-- Node29&#45;&gt;Node13 -->
<g id="edge66" class="edge">
<title>Node29&#45;&gt;Node13</title>
<path fill="none" stroke="#63b8ff" d="M1373.4,-318.65C1370.86,-278.52 1357.45,-165.16 1287,-121 1246.17,-95.41 1193.34,-82.91 1151.01,-76.81"/>
<polygon fill="#63b8ff" stroke="#63b8ff" points="1151.53,-73.35 1141.15,-75.49 1150.6,-80.29 1151.53,-73.35"/>
</g>
<!-- Node30&#45;&gt;Node11 -->
<g id="edge71" class="edge">
<title>Node30&#45;&gt;Node11</title>
<path fill="none" stroke="#63b8ff" d="M1224.66,-516.91C1234.46,-507.7 1246.21,-494.84 1253,-481 1281.83,-422.27 1310.71,-237.41 1269,-187 1201.75,-105.73 880.43,-80.91 733.56,-73.74"/>
<polygon fill="#63b8ff" stroke="#63b8ff" points="734.11,-70.26 723.95,-73.28 733.77,-77.25 734.11,-70.26"/>
</g>
<!-- Node30&#45;&gt;Node13 -->
<g id="edge72" class="edge">
<title>Node30&#45;&gt;Node13</title>
<path fill="none" stroke="#63b8ff" d="M1270.75,-521.88C1375.1,-504.92 1573,-464.4 1573,-401 1573,-401 1573,-401 1573,-201 1573,-162.37 1570.02,-144.02 1539,-121 1508.55,-98.4 1273.19,-81.98 1151.05,-74.89"/>
<polygon fill="#63b8ff" stroke="#63b8ff" points="1151.29,-71.4 1141.1,-74.32 1150.89,-78.38 1151.29,-71.4"/>
</g>
<!-- Node30&#45;&gt;Node15 -->
<g id="edge70" class="edge">
<title>Node30&#45;&gt;Node15</title>
<path fill="none" stroke="#63b8ff" d="M1163.12,-516.64C1133.75,-507.24 1095.17,-494.9 1063.84,-484.87"/>
<polygon fill="#63b8ff" stroke="#63b8ff" points="1065.11,-481.6 1054.52,-481.89 1062.98,-488.27 1065.11,-481.6"/>
</g>
<!-- Node30&#45;&gt;Node22 -->
<g id="edge68" class="edge">
<title>Node30&#45;&gt;Node22</title>
<path fill="none" stroke="#63b8ff" d="M1202.09,-516.87C1189.73,-488.71 1158.71,-424.86 1116,-385 1102.7,-372.59 1085.73,-362.28 1069.94,-354.32"/>
<polygon fill="#63b8ff" stroke="#63b8ff" points="1071.67,-351.27 1061.15,-350.08 1068.63,-357.57 1071.67,-351.27"/>
</g>
<!-- Node30&#45;&gt;Node24 -->
<g id="edge69" class="edge">
<title>Node30&#45;&gt;Node24</title>
<path fill="none" stroke="#63b8ff" d="M1216.09,-516.7C1228.54,-493.28 1251,-444.98 1251,-401 1251,-401 1251,-401 1251,-333 1251,-294.15 1232.21,-252.45 1218.39,-227.04"/>
<polygon fill="#63b8ff" stroke="#63b8ff" points="1221.55,-225.52 1213.58,-218.52 1215.45,-228.95 1221.55,-225.52"/>
</g>
</g>
</svg>
