<?xml version="1.0" encoding="UTF-8" standalone="no"?>
<!DOCTYPE svg PUBLIC "-//W3C//DTD SVG 1.1//EN"
 "http://www.w3.org/Graphics/SVG/1.1/DTD/svg11.dtd">
<!-- Generated by graphviz version 8.0.4 (20230426.1303)
 -->
<!-- Title: include/proxsuite/linalg/veg/type_traits/alloc.hpp Pages: 1 -->
<svg width="1328pt" height="585pt"
 viewBox="0.00 0.00 1328.12 584.75" xmlns="http://www.w3.org/2000/svg" xmlns:xlink="http://www.w3.org/1999/xlink">
<g id="graph0" class="graph" transform="scale(1 1) rotate(0) translate(4 580.75)">
<title>include/proxsuite/linalg/veg/type_traits/alloc.hpp</title>
<!-- Node1 -->
<g id="node1" class="node">
<title>Node1</title>
<g id="a_node1"><a xlink:title=" ">
<polygon fill="#999999" stroke="#666666" points="738,-576.75 598.25,-576.75 598.25,-543.25 738,-543.25 738,-576.75"/>
<text text-anchor="start" x="606.25" y="-563.25" font-family="Helvetica,sans-Serif" font-size="10.00">include/proxsuite/linalg</text>
<text text-anchor="middle" x="668.12" y="-550.5" font-family="Helvetica,sans-Serif" font-size="10.00">/veg/type_traits/alloc.hpp</text>
</a>
</g>
</g>
<!-- Node2 -->
<g id="node2" class="node">
<title>Node2</title>
<g id="a_node2"><a xlink:href="has__asan_8hpp.html" target="_top" xlink:title=" ">
<polygon fill="white" stroke="#666666" points="126.25,-507.25 0,-507.25 0,-473.75 126.25,-473.75 126.25,-507.25"/>
<text text-anchor="start" x="8" y="-493.75" font-family="Helvetica,sans-Serif" font-size="10.00">proxsuite/linalg/veg</text>
<text text-anchor="middle" x="63.12" y="-481" font-family="Helvetica,sans-Serif" font-size="10.00">/internal/has_asan.hpp</text>
</a>
</g>
</g>
<!-- Node1&#45;&gt;Node2 -->
<g id="edge1" class="edge">
<title>Node1&#45;&gt;Node2</title>
<path fill="none" stroke="#63b8ff" d="M597.8,-554.45C496.34,-547.35 303.15,-531.84 140.12,-507.25 139.15,-507.1 138.17,-506.95 137.19,-506.8"/>
<polygon fill="#63b8ff" stroke="#63b8ff" points="137.92,-503.2 127.48,-505 136.76,-510.11 137.92,-503.2"/>
</g>
<!-- Node3 -->
<g id="node3" class="node">
<title>Node3</title>
<g id="a_node3"><a xlink:href="ref_8hpp.html" target="_top" xlink:title=" ">
<polygon fill="white" stroke="#666666" points="579.5,-437.75 466.75,-437.75 466.75,-404.25 579.5,-404.25 579.5,-437.75"/>
<text text-anchor="start" x="474.75" y="-424.25" font-family="Helvetica,sans-Serif" font-size="10.00">proxsuite/linalg/veg</text>
<text text-anchor="middle" x="523.12" y="-411.5" font-family="Helvetica,sans-Serif" font-size="10.00">/ref.hpp</text>
</a>
</g>
</g>
<!-- Node1&#45;&gt;Node3 -->
<g id="edge2" class="edge">
<title>Node1&#45;&gt;Node3</title>
<path fill="none" stroke="#63b8ff" d="M651.21,-543.02C625.67,-518.89 577.13,-473.03 547.7,-445.22"/>
<polygon fill="#63b8ff" stroke="#63b8ff" points="550.61,-443.21 540.93,-438.88 545.8,-448.29 550.61,-443.21"/>
</g>
<!-- Node6 -->
<g id="node6" class="node">
<title>Node6</title>
<g id="a_node6"><a xlink:href="typedefs_8hpp.html" target="_top" xlink:title=" ">
<polygon fill="white" stroke="#666666" points="861.75,-90.25 738.5,-90.25 738.5,-56.75 861.75,-56.75 861.75,-90.25"/>
<text text-anchor="start" x="746.5" y="-76.75" font-family="Helvetica,sans-Serif" font-size="10.00">proxsuite/linalg/veg</text>
<text text-anchor="middle" x="800.12" y="-64" font-family="Helvetica,sans-Serif" font-size="10.00">/internal/typedefs.hpp</text>
</a>
</g>
</g>
<!-- Node1&#45;&gt;Node6 -->
<g id="edge45" class="edge">
<title>Node1&#45;&gt;Node6</title>
<path fill="none" stroke="#63b8ff" d="M598.11,-545.37C479.48,-518.79 258.04,-452.11 325.12,-334.75 385.53,-229.07 449.26,-243.75 561.12,-195.75 614.65,-172.79 637.04,-189.47 687.12,-159.75 705.1,-149.08 703.92,-139.45 720.12,-126.25 733.36,-115.47 748.92,-104.97 762.79,-96.28"/>
<polygon fill="#63b8ff" stroke="#63b8ff" points="764.38,-98.79 771.06,-90.57 760.71,-92.83 764.38,-98.79"/>
</g>
<!-- Node10 -->
<g id="node10" class="node">
<title>Node10</title>
<g id="a_node10"><a xlink:href="macros_8hpp.html" target="_top" xlink:title=" ">
<polygon fill="white" stroke="#666666" points="678.38,-159.75 561.88,-159.75 561.88,-126.25 678.38,-126.25 678.38,-159.75"/>
<text text-anchor="start" x="569.88" y="-146.25" font-family="Helvetica,sans-Serif" font-size="10.00">proxsuite/linalg/veg</text>
<text text-anchor="middle" x="620.12" y="-133.5" font-family="Helvetica,sans-Serif" font-size="10.00">/internal/macros.hpp</text>
</a>
</g>
</g>
<!-- Node1&#45;&gt;Node10 -->
<g id="edge46" class="edge">
<title>Node1&#45;&gt;Node10</title>
<path fill="none" stroke="#63b8ff" d="M598.15,-556.91C495.68,-552.74 310.81,-540.71 254.12,-507.25 213.78,-483.44 192.12,-468.85 192.12,-422 192.12,-422 192.12,-422 192.12,-350.5 192.12,-193.13 429.73,-155.63 550.87,-146.74"/>
<polygon fill="#63b8ff" stroke="#63b8ff" points="550.77,-150.18 560.51,-146.01 550.29,-143.2 550.77,-150.18"/>
</g>
<!-- Node13 -->
<g id="node13" class="node">
<title>Node13</title>
<g id="a_node13"><a xlink:href="prologue_8hpp.html" target="_top" xlink:title=" ">
<polygon fill="white" stroke="#666666" points="1103.75,-90.25 980.5,-90.25 980.5,-56.75 1103.75,-56.75 1103.75,-90.25"/>
<text text-anchor="start" x="988.5" y="-76.75" font-family="Helvetica,sans-Serif" font-size="10.00">proxsuite/linalg/veg</text>
<text text-anchor="middle" x="1042.12" y="-64" font-family="Helvetica,sans-Serif" font-size="10.00">/internal/prologue.hpp</text>
</a>
</g>
</g>
<!-- Node1&#45;&gt;Node13 -->
<g id="edge60" class="edge">
<title>Node1&#45;&gt;Node13</title>
<path fill="none" stroke="#63b8ff" d="M738.21,-558.94C906.61,-556.9 1320.12,-539.91 1320.12,-422 1320.12,-422 1320.12,-422 1320.12,-211.5 1320.12,-119.97 1197.37,-89.59 1115,-79.51"/>
<polygon fill="#63b8ff" stroke="#63b8ff" points="1115.5,-75.93 1105.17,-78.27 1114.71,-82.88 1115.5,-75.93"/>
</g>
<!-- Node15 -->
<g id="node15" class="node">
<title>Node15</title>
<g id="a_node15"><a xlink:href="epilogue_8hpp.html" target="_top" xlink:title=" ">
<polygon fill="white" stroke="#666666" points="367.38,-90.25 244.88,-90.25 244.88,-56.75 367.38,-56.75 367.38,-90.25"/>
<text text-anchor="start" x="252.88" y="-76.75" font-family="Helvetica,sans-Serif" font-size="10.00">proxsuite/linalg/veg</text>
<text text-anchor="middle" x="306.12" y="-64" font-family="Helvetica,sans-Serif" font-size="10.00">/internal/epilogue.hpp</text>
</a>
</g>
</g>
<!-- Node1&#45;&gt;Node15 -->
<g id="edge62" class="edge">
<title>Node1&#45;&gt;Node15</title>
<path fill="none" stroke="#63b8ff" d="M598.04,-558.56C485.21,-556.65 269.51,-547.64 206.12,-507.25 168.7,-483.4 154.12,-466.38 154.12,-422 154.12,-422 154.12,-422 154.12,-211.5 154.12,-155.85 211.04,-117.01 255.22,-95.24"/>
<polygon fill="#63b8ff" stroke="#63b8ff" points="256.46,-98.05 263.99,-90.59 253.46,-91.73 256.46,-98.05"/>
</g>
<!-- Node16 -->
<g id="node16" class="node">
<title>Node16</title>
<g id="a_node16"><a xlink:href="constructible_8hpp.html" target="_top" xlink:title=" ">
<polygon fill="white" stroke="#666666" points="1099.38,-368.25 940.88,-368.25 940.88,-334.75 1099.38,-334.75 1099.38,-368.25"/>
<text text-anchor="start" x="948.88" y="-354.75" font-family="Helvetica,sans-Serif" font-size="10.00">proxsuite/linalg/veg</text>
<text text-anchor="middle" x="1020.12" y="-342" font-family="Helvetica,sans-Serif" font-size="10.00">/type_traits/constructible.hpp</text>
</a>
</g>
</g>
<!-- Node1&#45;&gt;Node16 -->
<g id="edge39" class="edge">
<title>Node1&#45;&gt;Node16</title>
<path fill="none" stroke="#63b8ff" d="M738.5,-556.54C883.39,-549.73 1206.27,-524.88 1263.12,-437.75 1302.68,-377.13 1195.01,-359.09 1110.52,-354.02"/>
<polygon fill="#63b8ff" stroke="#63b8ff" points="1110.73,-350.47 1100.55,-353.42 1110.35,-357.46 1110.73,-350.47"/>
</g>
<!-- Node22 -->
<g id="node22" class="node">
<title>Node22</title>
<g id="a_node22"><a xlink:href="assignable_8hpp.html" target="_top" xlink:title=" ">
<polygon fill="white" stroke="#666666" points="842.12,-368.25 694.12,-368.25 694.12,-334.75 842.12,-334.75 842.12,-368.25"/>
<text text-anchor="start" x="702.12" y="-354.75" font-family="Helvetica,sans-Serif" font-size="10.00">proxsuite/linalg/veg</text>
<text text-anchor="middle" x="768.12" y="-342" font-family="Helvetica,sans-Serif" font-size="10.00">/type_traits/assignable.hpp</text>
</a>
</g>
</g>
<!-- Node1&#45;&gt;Node22 -->
<g id="edge40" class="edge">
<title>Node1&#45;&gt;Node22</title>
<path fill="none" stroke="#63b8ff" d="M675.97,-542.8C693.24,-507.13 734.66,-421.6 755.58,-378.4"/>
<polygon fill="#63b8ff" stroke="#63b8ff" points="759.11,-380.15 760.31,-369.63 752.81,-377.1 759.11,-380.15"/>
</g>
<!-- Node23 -->
<g id="node23" class="node">
<title>Node23</title>
<g id="a_node23"><a xlink:href="placement_8hpp.html" target="_top" xlink:title=" ">
<polygon fill="white" stroke="#666666" points="1042.12,-507.25 906.12,-507.25 906.12,-473.75 1042.12,-473.75 1042.12,-507.25"/>
<text text-anchor="start" x="914.12" y="-493.75" font-family="Helvetica,sans-Serif" font-size="10.00">proxsuite/linalg/veg</text>
<text text-anchor="middle" x="974.12" y="-481" font-family="Helvetica,sans-Serif" font-size="10.00">/memory/placement.hpp</text>
</a>
</g>
</g>
<!-- Node1&#45;&gt;Node23 -->
<g id="edge47" class="edge">
<title>Node1&#45;&gt;Node23</title>
<path fill="none" stroke="#63b8ff" d="M738.33,-543.51C785.18,-533.18 846.85,-519.58 895.37,-508.87"/>
<polygon fill="#63b8ff" stroke="#63b8ff" points="895.82,-512.14 904.83,-506.57 894.31,-505.3 895.82,-512.14"/>
</g>
<!-- Node25 -->
<g id="node25" class="node">
<title>Node25</title>
<g id="a_node25"><a xlink:title=" ">
<polygon fill="#e0e0e0" stroke="#999999" points="1253.62,-431.38 1204.62,-431.38 1204.62,-410.62 1253.62,-410.62 1253.62,-431.38"/>
<text text-anchor="middle" x="1229.12" y="-417.88" font-family="Helvetica,sans-Serif" font-size="10.00">cstring</text>
</a>
</g>
</g>
<!-- Node1&#45;&gt;Node25 -->
<g id="edge61" class="edge">
<title>Node1&#45;&gt;Node25</title>
<path fill="none" stroke="#63b8ff" d="M738.34,-556.07C816.22,-551.33 944.89,-539.01 1051.12,-507.25 1108.49,-490.1 1170.48,-456.64 1204.05,-437.13"/>
<polygon fill="#63b8ff" stroke="#63b8ff" points="1205.29,-439.87 1212.13,-431.79 1201.74,-433.84 1205.29,-439.87"/>
</g>
<!-- Node4 -->
<g id="node4" class="node">
<title>Node4</title>
<g id="a_node4"><a xlink:href="tags_8hpp.html" target="_top" xlink:title=" ">
<polygon fill="white" stroke="#666666" points="450.38,-368.25 333.88,-368.25 333.88,-334.75 450.38,-334.75 450.38,-368.25"/>
<text text-anchor="start" x="341.88" y="-354.75" font-family="Helvetica,sans-Serif" font-size="10.00">proxsuite/linalg/veg</text>
<text text-anchor="middle" x="392.12" y="-342" font-family="Helvetica,sans-Serif" font-size="10.00">/type_traits/tags.hpp</text>
</a>
</g>
</g>
<!-- Node3&#45;&gt;Node4 -->
<g id="edge3" class="edge">
<title>Node3&#45;&gt;Node4</title>
<path fill="none" stroke="#63b8ff" d="M491.75,-403.83C474.09,-394.73 451.83,-383.27 432.84,-373.48"/>
<polygon fill="#63b8ff" stroke="#63b8ff" points="434.74,-370.01 424.25,-368.54 431.53,-376.23 434.74,-370.01"/>
</g>
<!-- Node3&#45;&gt;Node13 -->
<g id="edge37" class="edge">
<title>Node3&#45;&gt;Node13</title>
<path fill="none" stroke="#63b8ff" d="M518.66,-403.93C511.06,-372.73 499.67,-303.66 535.12,-265.25 604.41,-190.19 666.74,-265.81 762.12,-229.25 840.75,-199.11 846.81,-165.84 921.12,-126.25 942.88,-114.66 967.8,-103.64 989.34,-94.78"/>
<polygon fill="#63b8ff" stroke="#63b8ff" points="990.35,-97.74 998.3,-90.74 987.72,-91.26 990.35,-97.74"/>
</g>
<!-- Node3&#45;&gt;Node15 -->
<g id="edge38" class="edge">
<title>Node3&#45;&gt;Node15</title>
<path fill="none" stroke="#63b8ff" d="M466.67,-412.11C415.14,-403.74 344.19,-388.85 325.12,-368.25 256.15,-293.69 282.82,-157.85 298.2,-100.82"/>
<polygon fill="#63b8ff" stroke="#63b8ff" points="301.76,-102.08 301.1,-91.5 295.02,-100.18 301.76,-102.08"/>
</g>
<!-- Node3&#45;&gt;Node16 -->
<g id="edge23" class="edge">
<title>Node3&#45;&gt;Node16</title>
<path fill="none" stroke="#63b8ff" d="M579.65,-412.32C665.08,-400.72 827.89,-378.61 929.85,-364.76"/>
<polygon fill="#63b8ff" stroke="#63b8ff" points="930.31,-368.09 939.75,-363.28 929.37,-361.16 930.31,-368.09"/>
</g>
<!-- Node19 -->
<g id="node19" class="node">
<title>Node19</title>
<g id="a_node19"><a xlink:href="address_8hpp.html" target="_top" xlink:title=" ">
<polygon fill="white" stroke="#666666" points="676.38,-368.25 553.88,-368.25 553.88,-334.75 676.38,-334.75 676.38,-368.25"/>
<text text-anchor="start" x="561.88" y="-354.75" font-family="Helvetica,sans-Serif" font-size="10.00">proxsuite/linalg/veg</text>
<text text-anchor="middle" x="615.12" y="-342" font-family="Helvetica,sans-Serif" font-size="10.00">/memory/address.hpp</text>
</a>
</g>
</g>
<!-- Node3&#45;&gt;Node19 -->
<g id="edge29" class="edge">
<title>Node3&#45;&gt;Node19</title>
<path fill="none" stroke="#63b8ff" d="M544.93,-404C556.76,-395.32 571.57,-384.46 584.54,-374.94"/>
<polygon fill="#63b8ff" stroke="#63b8ff" points="586.17,-377.35 592.16,-368.62 582.03,-371.71 586.17,-377.35"/>
</g>
<!-- Node5 -->
<g id="node5" class="node">
<title>Node5</title>
<g id="a_node5"><a xlink:href="veg_2type__traits_2core_8hpp.html" target="_top" xlink:title=" ">
<polygon fill="white" stroke="#666666" points="774.38,-298.75 657.88,-298.75 657.88,-265.25 774.38,-265.25 774.38,-298.75"/>
<text text-anchor="start" x="665.88" y="-285.25" font-family="Helvetica,sans-Serif" font-size="10.00">proxsuite/linalg/veg</text>
<text text-anchor="middle" x="716.12" y="-272.5" font-family="Helvetica,sans-Serif" font-size="10.00">/type_traits/core.hpp</text>
</a>
</g>
</g>
<!-- Node4&#45;&gt;Node5 -->
<g id="edge4" class="edge">
<title>Node4&#45;&gt;Node5</title>
<path fill="none" stroke="#63b8ff" d="M450.8,-338.28C505.99,-326.78 588.65,-309.56 647.01,-297.4"/>
<polygon fill="#63b8ff" stroke="#63b8ff" points="647.54,-300.66 656.61,-295.19 646.11,-293.8 647.54,-300.66"/>
</g>
<!-- Node4&#45;&gt;Node13 -->
<g id="edge21" class="edge">
<title>Node4&#45;&gt;Node13</title>
<path fill="none" stroke="#63b8ff" d="M407.59,-334.37C427.49,-314.67 464.06,-281.91 502.12,-265.25 590.88,-226.4 626.52,-263.56 717.12,-229.25 797.97,-198.64 803.74,-162.71 882.12,-126.25 909.94,-113.31 941.88,-102.27 969.87,-93.76"/>
<polygon fill="#63b8ff" stroke="#63b8ff" points="970.8,-96.83 979.38,-90.62 968.8,-90.13 970.8,-96.83"/>
</g>
<!-- Node4&#45;&gt;Node15 -->
<g id="edge22" class="edge">
<title>Node4&#45;&gt;Node15</title>
<path fill="none" stroke="#63b8ff" d="M365.55,-334.33C353.29,-325.41 339.79,-313.21 332.12,-298.75 298.09,-234.51 299.72,-145.63 303.21,-101.54"/>
<polygon fill="#63b8ff" stroke="#63b8ff" points="306.78,-101.87 304.19,-91.6 299.81,-101.25 306.78,-101.87"/>
</g>
<!-- Node5&#45;&gt;Node6 -->
<g id="edge5" class="edge">
<title>Node5&#45;&gt;Node6</title>
<path fill="none" stroke="#63b8ff" d="M722.72,-264.8C737.19,-229.21 771.87,-143.96 789.48,-100.67"/>
<polygon fill="#63b8ff" stroke="#63b8ff" points="793.04,-102.21 793.56,-91.63 786.55,-99.57 793.04,-102.21"/>
</g>
<!-- Node9 -->
<g id="node9" class="node">
<title>Node9</title>
<g id="a_node9"><a xlink:href="integer__seq_8hpp.html" target="_top" xlink:title=" ">
<polygon fill="white" stroke="#666666" points="707.88,-229.25 570.38,-229.25 570.38,-195.75 707.88,-195.75 707.88,-229.25"/>
<text text-anchor="start" x="578.38" y="-215.75" font-family="Helvetica,sans-Serif" font-size="10.00">proxsuite/linalg/veg</text>
<text text-anchor="middle" x="639.12" y="-203" font-family="Helvetica,sans-Serif" font-size="10.00">/internal/integer_seq.hpp</text>
</a>
</g>
</g>
<!-- Node5&#45;&gt;Node9 -->
<g id="edge8" class="edge">
<title>Node5&#45;&gt;Node9</title>
<path fill="none" stroke="#63b8ff" d="M697.88,-265C688.26,-256.57 676.29,-246.08 665.67,-236.77"/>
<polygon fill="#63b8ff" stroke="#63b8ff" points="668.34,-233.58 658.51,-229.62 663.72,-238.84 668.34,-233.58"/>
</g>
<!-- Node5&#45;&gt;Node13 -->
<g id="edge19" class="edge">
<title>Node5&#45;&gt;Node13</title>
<path fill="none" stroke="#63b8ff" d="M754.93,-264.82C776.4,-255.35 803.28,-242.66 826.12,-229.25 835.73,-223.61 953.82,-138.38 1011.21,-96.87"/>
<polygon fill="#63b8ff" stroke="#63b8ff" points="1012.82,-99.3 1018.87,-90.61 1008.72,-93.63 1012.82,-99.3"/>
</g>
<!-- Node5&#45;&gt;Node15 -->
<g id="edge20" class="edge">
<title>Node5&#45;&gt;Node15</title>
<path fill="none" stroke="#63b8ff" d="M657.56,-268.1C589.12,-253 484.99,-229.94 484.12,-229.25 444.21,-197.68 471.3,-160.99 434.12,-126.25 418.32,-111.48 397.75,-100.69 377.74,-92.91"/>
<polygon fill="#63b8ff" stroke="#63b8ff" points="379.26,-89.38 368.67,-89.23 376.85,-95.95 379.26,-89.38"/>
</g>
<!-- Node7 -->
<g id="node7" class="node">
<title>Node7</title>
<g id="a_node7"><a xlink:title=" ">
<polygon fill="#e0e0e0" stroke="#999999" points="1024.62,-20.75 975.62,-20.75 975.62,0 1024.62,0 1024.62,-20.75"/>
<text text-anchor="middle" x="1000.12" y="-7.25" font-family="Helvetica,sans-Serif" font-size="10.00">cstdint</text>
</a>
</g>
</g>
<!-- Node6&#45;&gt;Node7 -->
<g id="edge6" class="edge">
<title>Node6&#45;&gt;Node7</title>
<path fill="none" stroke="#63b8ff" d="M853.2,-56.28C888.6,-45.46 934.15,-31.54 965.09,-22.08"/>
<polygon fill="#63b8ff" stroke="#63b8ff" points="965.84,-25.21 974.38,-18.94 963.79,-18.51 965.84,-25.21"/>
</g>
<!-- Node8 -->
<g id="node8" class="node">
<title>Node8</title>
<g id="a_node8"><a xlink:title=" ">
<polygon fill="#e0e0e0" stroke="#999999" points="826.12,-20.75 774.12,-20.75 774.12,0 826.12,0 826.12,-20.75"/>
<text text-anchor="middle" x="800.12" y="-7.25" font-family="Helvetica,sans-Serif" font-size="10.00">cstddef</text>
</a>
</g>
</g>
<!-- Node6&#45;&gt;Node8 -->
<g id="edge7" class="edge">
<title>Node6&#45;&gt;Node8</title>
<path fill="none" stroke="#63b8ff" d="M800.12,-56.44C800.12,-49.02 800.12,-40.11 800.12,-32.18"/>
<polygon fill="#63b8ff" stroke="#63b8ff" points="803.63,-32.22 800.12,-22.22 796.63,-32.22 803.63,-32.22"/>
</g>
<!-- Node9&#45;&gt;Node6 -->
<g id="edge9" class="edge">
<title>Node9&#45;&gt;Node6</title>
<path fill="none" stroke="#63b8ff" d="M668.06,-195.41C684.07,-185.93 703.95,-173.18 720.12,-159.75 742.4,-141.26 764.69,-116.9 780.07,-98.96"/>
<polygon fill="#63b8ff" stroke="#63b8ff" points="783.25,-101.62 787.03,-91.72 777.9,-97.1 783.25,-101.62"/>
</g>
<!-- Node9&#45;&gt;Node10 -->
<g id="edge10" class="edge">
<title>Node9&#45;&gt;Node10</title>
<path fill="none" stroke="#63b8ff" d="M634.62,-195.5C632.52,-188.02 629.95,-178.91 627.57,-170.45"/>
<polygon fill="#63b8ff" stroke="#63b8ff" points="630.67,-169.56 624.6,-160.88 623.94,-171.46 630.67,-169.56"/>
</g>
<!-- Node9&#45;&gt;Node13 -->
<g id="edge17" class="edge">
<title>Node9&#45;&gt;Node13</title>
<path fill="none" stroke="#63b8ff" d="M673.75,-195.37C714.06,-176.99 782.94,-146.86 844.12,-126.25 885.21,-112.41 932.12,-100.01 969.96,-90.81"/>
<polygon fill="#63b8ff" stroke="#63b8ff" points="970.48,-94.05 979.38,-88.31 968.84,-87.24 970.48,-94.05"/>
</g>
<!-- Node9&#45;&gt;Node15 -->
<g id="edge18" class="edge">
<title>Node9&#45;&gt;Node15</title>
<path fill="none" stroke="#63b8ff" d="M610.31,-195.32C593.35,-185.52 571.65,-172.48 553.12,-159.75 533.15,-146.04 531.89,-136.9 510.12,-126.25 498.01,-120.32 432,-104.02 378.3,-91.28"/>
<polygon fill="#63b8ff" stroke="#63b8ff" points="379.29,-87.67 368.75,-88.78 377.67,-94.49 379.29,-87.67"/>
</g>
<!-- Node10&#45;&gt;Node6 -->
<g id="edge12" class="edge">
<title>Node10&#45;&gt;Node6</title>
<path fill="none" stroke="#63b8ff" d="M663.24,-125.83C688.42,-116.39 720.39,-104.4 747.1,-94.39"/>
<polygon fill="#63b8ff" stroke="#63b8ff" points="747.92,-97.44 756.05,-90.65 745.46,-90.89 747.92,-97.44"/>
</g>
<!-- Node11 -->
<g id="node11" class="node">
<title>Node11</title>
<g id="a_node11"><a xlink:href="hedley_8ext_8hpp.html" target="_top" xlink:title=" ">
<polygon fill="white" stroke="#666666" points="559.25,-90.25 385,-90.25 385,-56.75 559.25,-56.75 559.25,-90.25"/>
<text text-anchor="start" x="393" y="-76.75" font-family="Helvetica,sans-Serif" font-size="10.00">proxsuite/linalg/veg</text>
<text text-anchor="middle" x="472.12" y="-64" font-family="Helvetica,sans-Serif" font-size="10.00">/internal/external/hedley.ext.hpp</text>
</a>
</g>
</g>
<!-- Node10&#45;&gt;Node11 -->
<g id="edge11" class="edge">
<title>Node10&#45;&gt;Node11</title>
<path fill="none" stroke="#63b8ff" d="M584.68,-125.83C564.52,-116.64 539.07,-105.03 517.48,-95.18"/>
<polygon fill="#63b8ff" stroke="#63b8ff" points="519.09,-91.62 508.54,-90.65 516.19,-97.99 519.09,-91.62"/>
</g>
<!-- Node12 -->
<g id="node12" class="node">
<title>Node12</title>
<g id="a_node12"><a xlink:href="preprocessor_8hpp.html" target="_top" xlink:title=" ">
<polygon fill="white" stroke="#666666" points="720.5,-90.25 577.75,-90.25 577.75,-56.75 720.5,-56.75 720.5,-90.25"/>
<text text-anchor="start" x="585.75" y="-76.75" font-family="Helvetica,sans-Serif" font-size="10.00">proxsuite/linalg/veg</text>
<text text-anchor="middle" x="649.12" y="-64" font-family="Helvetica,sans-Serif" font-size="10.00">/internal/preprocessor.hpp</text>
</a>
</g>
</g>
<!-- Node10&#45;&gt;Node12 -->
<g id="edge13" class="edge">
<title>Node10&#45;&gt;Node12</title>
<path fill="none" stroke="#63b8ff" d="M627,-126C630.28,-118.35 634.3,-109 638.01,-100.38"/>
<polygon fill="#63b8ff" stroke="#63b8ff" points="641.57,-101.95 642.3,-91.38 635.14,-99.19 641.57,-101.95"/>
</g>
<!-- Node10&#45;&gt;Node13 -->
<g id="edge14" class="edge">
<title>Node10&#45;&gt;Node13</title>
<path fill="none" stroke="#63b8ff" d="M678.72,-134.67C746.32,-125.92 861.06,-110.18 969.42,-90.49"/>
<polygon fill="#63b8ff" stroke="#63b8ff" points="970.02,-93.75 979.22,-88.51 968.76,-86.87 970.02,-93.75"/>
</g>
<!-- Node14 -->
<g id="node14" class="node">
<title>Node14</title>
<g id="a_node14"><a xlink:title=" ">
<polygon fill="#e0e0e0" stroke="#999999" points="962.12,-83.88 880.12,-83.88 880.12,-63.12 962.12,-63.12 962.12,-83.88"/>
<text text-anchor="middle" x="921.12" y="-70.38" font-family="Helvetica,sans-Serif" font-size="10.00">initializer_list</text>
</a>
</g>
</g>
<!-- Node10&#45;&gt;Node14 -->
<g id="edge15" class="edge">
<title>Node10&#45;&gt;Node14</title>
<path fill="none" stroke="#63b8ff" d="M678.84,-131.65C729.96,-122.22 805.89,-107.2 871.12,-90.25 874.47,-89.38 877.93,-88.42 881.38,-87.42"/>
<polygon fill="#63b8ff" stroke="#63b8ff" points="882.09,-90.56 890.66,-84.33 880.07,-83.86 882.09,-90.56"/>
</g>
<!-- Node10&#45;&gt;Node15 -->
<g id="edge16" class="edge">
<title>Node10&#45;&gt;Node15</title>
<path fill="none" stroke="#63b8ff" d="M561.59,-129.15C557.03,-128.16 552.5,-127.19 548.12,-126.25 475.04,-110.61 454.21,-107.11 378.16,-90.68"/>
<polygon fill="#63b8ff" stroke="#63b8ff" points="379.09,-87.08 368.57,-88.38 377.61,-93.92 379.09,-87.08"/>
</g>
<!-- Node16&#45;&gt;Node5 -->
<g id="edge24" class="edge">
<title>Node16&#45;&gt;Node5</title>
<path fill="none" stroke="#63b8ff" d="M947.31,-334.33C898.15,-323.42 833.67,-309.1 785.3,-298.36"/>
<polygon fill="#63b8ff" stroke="#63b8ff" points="786.14,-294.74 775.61,-295.99 784.62,-301.57 786.14,-294.74"/>
</g>
<!-- Node16&#45;&gt;Node13 -->
<g id="edge25" class="edge">
<title>Node16&#45;&gt;Node13</title>
<path fill="none" stroke="#63b8ff" d="M1032.42,-334.43C1039.53,-324.56 1048.21,-311.41 1054.12,-298.75 1067.79,-269.52 1070.41,-261.17 1075.12,-229.25 1081.88,-183.55 1065.52,-131.11 1053.5,-100.51"/>
<polygon fill="#63b8ff" stroke="#63b8ff" points="1056.49,-99.58 1049.47,-91.64 1050.01,-102.22 1056.49,-99.58"/>
</g>
<!-- Node16&#45;&gt;Node15 -->
<g id="edge28" class="edge">
<title>Node16&#45;&gt;Node15</title>
<path fill="none" stroke="#63b8ff" d="M1018.13,-334.56C1014.72,-314.75 1005.79,-281.54 983.12,-265.25 906.7,-210.32 646.47,-268.93 561.12,-229.25 502.42,-201.95 513.09,-160.46 458.12,-126.25 433.79,-111.1 404.47,-99.77 378.1,-91.64"/>
<polygon fill="#63b8ff" stroke="#63b8ff" points="379.36,-88.06 368.78,-88.56 377.37,-94.77 379.36,-88.06"/>
</g>
<!-- Node17 -->
<g id="node17" class="node">
<title>Node17</title>
<g id="a_node17"><a xlink:title=" ">
<polygon fill="#e0e0e0" stroke="#999999" points="1142.25,-292.38 1106,-292.38 1106,-271.62 1142.25,-271.62 1142.25,-292.38"/>
<text text-anchor="middle" x="1124.12" y="-278.88" font-family="Helvetica,sans-Serif" font-size="10.00">new</text>
</a>
</g>
</g>
<!-- Node16&#45;&gt;Node17 -->
<g id="edge26" class="edge">
<title>Node16&#45;&gt;Node17</title>
<path fill="none" stroke="#63b8ff" d="M1045.04,-334.33C1061.71,-323.51 1083.55,-309.34 1100.05,-298.63"/>
<polygon fill="#63b8ff" stroke="#63b8ff" points="1101.59,-301.15 1108.07,-292.77 1097.78,-295.28 1101.59,-301.15"/>
</g>
<!-- Node18 -->
<g id="node18" class="node">
<title>Node18</title>
<g id="a_node18"><a xlink:title=" ">
<polygon fill="#e0e0e0" stroke="#999999" points="974.38,-292.38 905.88,-292.38 905.88,-271.62 974.38,-271.62 974.38,-292.38"/>
<text text-anchor="middle" x="940.12" y="-278.88" font-family="Helvetica,sans-Serif" font-size="10.00">type_traits</text>
</a>
</g>
</g>
<!-- Node16&#45;&gt;Node18 -->
<g id="edge27" class="edge">
<title>Node16&#45;&gt;Node18</title>
<path fill="none" stroke="#63b8ff" d="M1001.17,-334.5C988.7,-323.99 972.43,-310.26 959.82,-299.62"/>
<polygon fill="#63b8ff" stroke="#63b8ff" points="962.67,-296.6 952.77,-292.82 958.15,-301.95 962.67,-296.6"/>
</g>
<!-- Node19&#45;&gt;Node5 -->
<g id="edge30" class="edge">
<title>Node19&#45;&gt;Node5</title>
<path fill="none" stroke="#63b8ff" d="M639.32,-334.33C652.43,-325.57 668.84,-314.6 683.11,-305.06"/>
<polygon fill="#63b8ff" stroke="#63b8ff" points="684.76,-307.5 691.13,-299.04 680.87,-301.68 684.76,-307.5"/>
</g>
<!-- Node19&#45;&gt;Node13 -->
<g id="edge34" class="edge">
<title>Node19&#45;&gt;Node13</title>
<path fill="none" stroke="#63b8ff" d="M676.53,-334.97C716.68,-324.18 764.93,-309.8 783.12,-298.75 800.99,-287.9 800.53,-279.16 816.12,-265.25 835.5,-247.97 841.95,-245.59 862.12,-229.25 880.15,-214.66 883.29,-209.27 902.12,-195.75 927.08,-177.84 937.23,-179.05 961.12,-159.75 983.92,-141.34 1006.61,-116.78 1022.15,-98.75"/>
<polygon fill="#63b8ff" stroke="#63b8ff" points="1025.37,-101.37 1029.18,-91.48 1020.04,-96.84 1025.37,-101.37"/>
</g>
<!-- Node19&#45;&gt;Node15 -->
<g id="edge36" class="edge">
<title>Node19&#45;&gt;Node15</title>
<path fill="none" stroke="#63b8ff" d="M571.11,-334.28C524.82,-315.29 452.4,-279.87 406.12,-229.25 372.05,-191.97 387.14,-167.59 358.12,-126.25 351.08,-116.22 341.99,-106.41 333.38,-98.08"/>
<polygon fill="#63b8ff" stroke="#63b8ff" points="336.05,-95.86 326.35,-91.59 331.27,-100.98 336.05,-95.86"/>
</g>
<!-- Node20 -->
<g id="node20" class="node">
<title>Node20</title>
<g id="a_node20"><a xlink:href="std_8hpp.html" target="_top" xlink:title=" ">
<polygon fill="white" stroke="#666666" points="1066.5,-229.25 953.75,-229.25 953.75,-195.75 1066.5,-195.75 1066.5,-229.25"/>
<text text-anchor="start" x="961.75" y="-215.75" font-family="Helvetica,sans-Serif" font-size="10.00">proxsuite/linalg/veg</text>
<text text-anchor="middle" x="1010.12" y="-203" font-family="Helvetica,sans-Serif" font-size="10.00">/internal/std.hpp</text>
</a>
</g>
</g>
<!-- Node19&#45;&gt;Node20 -->
<g id="edge31" class="edge">
<title>Node19&#45;&gt;Node20</title>
<path fill="none" stroke="#63b8ff" d="M676.83,-335.77C725.97,-323.83 790.58,-307.58 816.12,-298.75 844.93,-288.79 917.73,-256 965.5,-234.11"/>
<polygon fill="#63b8ff" stroke="#63b8ff" points="966.66,-236.97 974.29,-229.62 963.74,-230.61 966.66,-236.97"/>
</g>
<!-- Node21 -->
<g id="node21" class="node">
<title>Node21</title>
<g id="a_node21"><a xlink:title=" ">
<polygon fill="#e0e0e0" stroke="#999999" points="601.75,-292.38 544.5,-292.38 544.5,-271.62 601.75,-271.62 601.75,-292.38"/>
<text text-anchor="middle" x="573.12" y="-278.88" font-family="Helvetica,sans-Serif" font-size="10.00">memory</text>
</a>
</g>
</g>
<!-- Node19&#45;&gt;Node21 -->
<g id="edge35" class="edge">
<title>Node19&#45;&gt;Node21</title>
<path fill="none" stroke="#63b8ff" d="M605.17,-334.5C599.13,-324.8 591.39,-312.35 585.02,-302.12"/>
<polygon fill="#63b8ff" stroke="#63b8ff" points="587.49,-300.46 579.24,-293.82 581.55,-304.16 587.49,-300.46"/>
</g>
<!-- Node20&#45;&gt;Node7 -->
<g id="edge32" class="edge">
<title>Node20&#45;&gt;Node7</title>
<path fill="none" stroke="#63b8ff" d="M1034.94,-195.41C1075.25,-167.23 1147.2,-107.15 1113.12,-56.75 1095.93,-31.31 1061.87,-20.13 1035.62,-15.22"/>
<polygon fill="#63b8ff" stroke="#63b8ff" points="1036.35,-11.63 1025.92,-13.48 1035.22,-18.54 1036.35,-11.63"/>
</g>
<!-- Node20&#45;&gt;Node14 -->
<g id="edge33" class="edge">
<title>Node20&#45;&gt;Node14</title>
<path fill="none" stroke="#63b8ff" d="M999.74,-195.52C983.23,-170.11 951.07,-120.6 933.43,-93.44"/>
<polygon fill="#63b8ff" stroke="#63b8ff" points="935.83,-91.71 927.44,-85.23 929.96,-95.52 935.83,-91.71"/>
</g>
<!-- Node22&#45;&gt;Node5 -->
<g id="edge41" class="edge">
<title>Node22&#45;&gt;Node5</title>
<path fill="none" stroke="#63b8ff" d="M755.8,-334.5C749.58,-326.43 741.91,-316.47 734.97,-307.46"/>
<polygon fill="#63b8ff" stroke="#63b8ff" points="737.24,-305.67 728.36,-299.88 731.69,-309.94 737.24,-305.67"/>
</g>
<!-- Node22&#45;&gt;Node13 -->
<g id="edge42" class="edge">
<title>Node22&#45;&gt;Node13</title>
<path fill="none" stroke="#63b8ff" d="M785.81,-334.52C827.12,-297.26 927.76,-206.95 945.12,-195.75 977.55,-174.83 999.99,-189.86 1024.12,-159.75 1037.3,-143.31 1041.47,-119.52 1042.53,-101.25"/>
<polygon fill="#63b8ff" stroke="#63b8ff" points="1046.05,-101.53 1042.84,-91.43 1039.05,-101.33 1046.05,-101.53"/>
</g>
<!-- Node22&#45;&gt;Node15 -->
<g id="edge44" class="edge">
<title>Node22&#45;&gt;Node15</title>
<path fill="none" stroke="#63b8ff" d="M721.8,-334.26C699.05,-325.33 671.75,-313.14 649.12,-298.75 630.13,-286.67 631.14,-275.57 611.12,-265.25 548.65,-233.04 515.95,-267.73 457.12,-229.25 409.29,-197.96 421.18,-166.02 380.12,-126.25 368.8,-115.28 354.95,-104.94 342.31,-96.43"/>
<polygon fill="#63b8ff" stroke="#63b8ff" points="344.65,-93.13 334.37,-90.57 340.82,-98.98 344.65,-93.13"/>
</g>
<!-- Node22&#45;&gt;Node18 -->
<g id="edge43" class="edge">
<title>Node22&#45;&gt;Node18</title>
<path fill="none" stroke="#63b8ff" d="M809.32,-334.33C838.49,-322.88 877.2,-307.69 904.93,-296.81"/>
<polygon fill="#63b8ff" stroke="#63b8ff" points="905.95,-299.78 913.98,-292.87 903.39,-293.26 905.95,-299.78"/>
</g>
<!-- Node23&#45;&gt;Node13 -->
<g id="edge56" class="edge">
<title>Node23&#45;&gt;Node13</title>
<path fill="none" stroke="#63b8ff" d="M1033.65,-473.3C1054.93,-465.27 1077.88,-453.77 1095.12,-437.75 1146.1,-390.4 1150.66,-366.35 1167.12,-298.75 1185.99,-221.32 1172.31,-184.69 1118.12,-126.25 1107.56,-114.85 1094.03,-104.64 1081.33,-96.36"/>
<polygon fill="#63b8ff" stroke="#63b8ff" points="1083.61,-93.03 1073.28,-90.68 1079.89,-98.96 1083.61,-93.03"/>
</g>
<!-- Node23&#45;&gt;Node15 -->
<g id="edge59" class="edge">
<title>Node23&#45;&gt;Node15</title>
<path fill="none" stroke="#63b8ff" d="M905.74,-487.62C750.22,-481.77 377.34,-458.46 298.12,-368.25 226.98,-287.23 252.57,-230.22 281.12,-126.25 283.54,-117.46 287.42,-108.34 291.41,-100.26"/>
<polygon fill="#63b8ff" stroke="#63b8ff" points="294.89,-102.16 296.41,-91.68 288.68,-98.92 294.89,-102.16"/>
</g>
<!-- Node23&#45;&gt;Node16 -->
<g id="edge48" class="edge">
<title>Node23&#45;&gt;Node16</title>
<path fill="none" stroke="#63b8ff" d="M1014.86,-473.34C1030.01,-465.1 1045.59,-453.44 1054.12,-437.75 1064.76,-418.2 1053.67,-394.61 1041.4,-377.21"/>
<polygon fill="#63b8ff" stroke="#63b8ff" points="1043.81,-375.59 1034.98,-369.72 1038.22,-379.81 1043.81,-375.59"/>
</g>
<!-- Node23&#45;&gt;Node17 -->
<g id="edge57" class="edge">
<title>Node23&#45;&gt;Node17</title>
<path fill="none" stroke="#63b8ff" d="M1015.84,-473.44C1034.11,-464.89 1054.82,-452.97 1070.12,-437.75 1107.52,-400.57 1119.07,-336.12 1122.6,-303.37"/>
<polygon fill="#63b8ff" stroke="#63b8ff" points="1126.17,-303.77 1123.6,-293.49 1119.2,-303.13 1126.17,-303.77"/>
</g>
<!-- Node23&#45;&gt;Node19 -->
<g id="edge55" class="edge">
<title>Node23&#45;&gt;Node19</title>
<path fill="none" stroke="#63b8ff" d="M931.89,-473.38C866.08,-448.27 739.22,-399.86 667.63,-372.54"/>
<polygon fill="#63b8ff" stroke="#63b8ff" points="669.07,-368.96 658.48,-368.66 666.57,-375.5 669.07,-368.96"/>
</g>
<!-- Node23&#45;&gt;Node20 -->
<g id="edge49" class="edge">
<title>Node23&#45;&gt;Node20</title>
<path fill="none" stroke="#63b8ff" d="M933.39,-473.34C918.24,-465.1 902.66,-453.44 894.12,-437.75 887.01,-424.67 890.44,-418.68 894.12,-404.25 902.84,-370.14 908.69,-361.02 932.12,-334.75 950.59,-314.04 966.75,-321.15 983.12,-298.75 995.74,-281.5 1002.59,-258.16 1006.24,-240.26"/>
<polygon fill="#63b8ff" stroke="#63b8ff" points="1009.82,-241.12 1008.15,-230.66 1002.93,-239.88 1009.82,-241.12"/>
</g>
<!-- Node24 -->
<g id="node24" class="node">
<title>Node24</title>
<g id="a_node24"><a xlink:href="invocable_8hpp.html" target="_top" xlink:title=" ">
<polygon fill="white" stroke="#666666" points="1045.5,-437.75 902.75,-437.75 902.75,-404.25 1045.5,-404.25 1045.5,-437.75"/>
<text text-anchor="start" x="910.75" y="-424.25" font-family="Helvetica,sans-Serif" font-size="10.00">proxsuite/linalg/veg</text>
<text text-anchor="middle" x="974.12" y="-411.5" font-family="Helvetica,sans-Serif" font-size="10.00">/type_traits/invocable.hpp</text>
</a>
</g>
</g>
<!-- Node23&#45;&gt;Node24 -->
<g id="edge50" class="edge">
<title>Node23&#45;&gt;Node24</title>
<path fill="none" stroke="#63b8ff" d="M974.12,-473.5C974.12,-466.11 974.12,-457.12 974.12,-448.73"/>
<polygon fill="#63b8ff" stroke="#63b8ff" points="977.63,-448.88 974.12,-438.88 970.63,-448.88 977.63,-448.88"/>
</g>
<!-- Node23&#45;&gt;Node25 -->
<g id="edge58" class="edge">
<title>Node23&#45;&gt;Node25</title>
<path fill="none" stroke="#63b8ff" d="M1042.45,-475.85C1085.31,-466.63 1141.46,-453.31 1190.12,-437.75 1192.24,-437.07 1194.41,-436.33 1196.59,-435.56"/>
<polygon fill="#63b8ff" stroke="#63b8ff" points="1197.54,-438.56 1205.65,-431.74 1195.06,-432.01 1197.54,-438.56"/>
</g>
<!-- Node24&#45;&gt;Node5 -->
<g id="edge51" class="edge">
<title>Node24&#45;&gt;Node5</title>
<path fill="none" stroke="#63b8ff" d="M954.2,-403.93C930.63,-385.48 889.72,-355.14 851.12,-334.75 827.73,-322.39 800.72,-311.44 777.03,-302.82"/>
<polygon fill="#63b8ff" stroke="#63b8ff" points="778.35,-299.22 767.75,-299.16 776,-305.82 778.35,-299.22"/>
</g>
<!-- Node24&#45;&gt;Node13 -->
<g id="edge53" class="edge">
<title>Node24&#45;&gt;Node13</title>
<path fill="none" stroke="#63b8ff" d="M1040.35,-403.87C1063.55,-395.9 1088.65,-384.41 1108.12,-368.25 1136.08,-345.06 1141.19,-333.69 1151.12,-298.75 1173.17,-221.23 1105.5,-137.86 1066.95,-98.15"/>
<polygon fill="#63b8ff" stroke="#63b8ff" points="1069.96,-96.21 1060.43,-91.58 1065,-101.14 1069.96,-96.21"/>
</g>
<!-- Node24&#45;&gt;Node15 -->
<g id="edge54" class="edge">
<title>Node24&#45;&gt;Node15</title>
<path fill="none" stroke="#63b8ff" d="M902.48,-415.44C797.89,-408.1 608.92,-392.03 545.12,-368.25 455.6,-334.88 433.95,-308.87 381.12,-229.25 352.95,-186.78 329,-132.14 316.17,-100.45"/>
<polygon fill="#63b8ff" stroke="#63b8ff" points="319.21,-99.62 312.26,-91.63 312.71,-102.21 319.21,-99.62"/>
</g>
<!-- Node24&#45;&gt;Node16 -->
<g id="edge52" class="edge">
<title>Node24&#45;&gt;Node16</title>
<path fill="none" stroke="#63b8ff" d="M985.03,-404C990.47,-396.02 997.17,-386.18 1003.26,-377.25"/>
<polygon fill="#63b8ff" stroke="#63b8ff" points="1006.56,-379.62 1009.3,-369.38 1000.78,-375.67 1006.56,-379.62"/>
</g>
</g>
</svg>
