<?xml version="1.0" encoding="UTF-8" standalone="no"?>
<!DOCTYPE svg PUBLIC "-//W3C//DTD SVG 1.1//EN"
 "http://www.w3.org/Graphics/SVG/1.1/DTD/svg11.dtd">
<!-- Generated by graphviz version 7.1.0 (20230122.1345)
 -->
<!-- Title: include/proxsuite/linalg/veg/type_traits/alloc.hpp Pages: 1 -->
<svg width="1334pt" height="555pt"
 viewBox="0.00 0.00 1333.50 555.00" xmlns="http://www.w3.org/2000/svg" xmlns:xlink="http://www.w3.org/1999/xlink">
<g id="graph0" class="graph" transform="scale(1 1) rotate(0) translate(4 551)">
<title>include/proxsuite/linalg/veg/type_traits/alloc.hpp</title>
<!-- Node1 -->
<g id="node1" class="node">
<title>Node1</title>
<g id="a_node1"><a xlink:title=" ">
<polygon fill="#999999" stroke="#666666" points="784.5,-547 644.5,-547 644.5,-517 784.5,-517 784.5,-547"/>
<text text-anchor="start" x="652.5" y="-535" font-family="Helvetica,sans-Serif" font-size="10.00">include/proxsuite/linalg</text>
<text text-anchor="middle" x="714.5" y="-524" font-family="Helvetica,sans-Serif" font-size="10.00">/veg/type_traits/alloc.hpp</text>
</a>
</g>
</g>
<!-- Node2 -->
<g id="node2" class="node">
<title>Node2</title>
<g id="a_node2"><a xlink:href="has__asan_8hpp.html" target="_top" xlink:title=" ">
<polygon fill="white" stroke="#666666" points="127,-481 0,-481 0,-451 127,-451 127,-481"/>
<text text-anchor="start" x="8" y="-469" font-family="Helvetica,sans-Serif" font-size="10.00">proxsuite/linalg/veg</text>
<text text-anchor="middle" x="63.5" y="-458" font-family="Helvetica,sans-Serif" font-size="10.00">/internal/has_asan.hpp</text>
</a>
</g>
</g>
<!-- Node1&#45;&gt;Node2 -->
<g id="edge1" class="edge">
<title>Node1&#45;&gt;Node2</title>
<path fill="none" stroke="#63b8ff" d="M644.15,-526.92C535.85,-520.18 321.9,-505.01 141.5,-481 140.49,-480.86 139.46,-480.73 138.44,-480.58"/>
<polygon fill="#63b8ff" stroke="#63b8ff" points="139.18,-477.16 128.77,-479.15 138.15,-484.08 139.18,-477.16"/>
</g>
<!-- Node3 -->
<g id="node3" class="node">
<title>Node3</title>
<g id="a_node3"><a xlink:href="ref_8hpp.html" target="_top" xlink:title=" ">
<polygon fill="white" stroke="#666666" points="582,-415 469,-415 469,-385 582,-385 582,-415"/>
<text text-anchor="start" x="477" y="-403" font-family="Helvetica,sans-Serif" font-size="10.00">proxsuite/linalg/veg</text>
<text text-anchor="middle" x="525.5" y="-392" font-family="Helvetica,sans-Serif" font-size="10.00">/ref.hpp</text>
</a>
</g>
</g>
<!-- Node1&#45;&gt;Node3 -->
<g id="edge2" class="edge">
<title>Node1&#45;&gt;Node3</title>
<path fill="none" stroke="#63b8ff" d="M693.55,-516.59C660.06,-493.55 594.31,-448.33 555.73,-421.79"/>
<polygon fill="#63b8ff" stroke="#63b8ff" points="558.01,-419.11 547.79,-416.33 554.04,-424.88 558.01,-419.11"/>
</g>
<!-- Node6 -->
<g id="node6" class="node">
<title>Node6</title>
<g id="a_node6"><a xlink:href="typedefs_8hpp.html" target="_top" xlink:title=" ">
<polygon fill="white" stroke="#666666" points="865.5,-85 741.5,-85 741.5,-55 865.5,-55 865.5,-85"/>
<text text-anchor="start" x="749.5" y="-73" font-family="Helvetica,sans-Serif" font-size="10.00">proxsuite/linalg/veg</text>
<text text-anchor="middle" x="803.5" y="-62" font-family="Helvetica,sans-Serif" font-size="10.00">/internal/typedefs.hpp</text>
</a>
</g>
</g>
<!-- Node1&#45;&gt;Node6 -->
<g id="edge45" class="edge">
<title>Node1&#45;&gt;Node6</title>
<path fill="none" stroke="#63b8ff" d="M644.15,-522.27C513.27,-502.81 252.2,-447.13 327.5,-319 388.59,-215.05 453.13,-233.2 564.5,-187 618.3,-164.68 639.62,-179.33 690.5,-151 707.82,-141.36 707.7,-132.97 723.5,-121 737.61,-110.31 754.06,-99.74 768.36,-91.09"/>
<polygon fill="#63b8ff" stroke="#63b8ff" points="769.77,-94.33 776.57,-86.2 766.19,-88.31 769.77,-94.33"/>
</g>
<!-- Node10 -->
<g id="node10" class="node">
<title>Node10</title>
<g id="a_node10"><a xlink:href="macros_8hpp.html" target="_top" xlink:title=" ">
<polygon fill="white" stroke="#666666" points="681,-151 564,-151 564,-121 681,-121 681,-151"/>
<text text-anchor="start" x="572" y="-139" font-family="Helvetica,sans-Serif" font-size="10.00">proxsuite/linalg/veg</text>
<text text-anchor="middle" x="622.5" y="-128" font-family="Helvetica,sans-Serif" font-size="10.00">/internal/macros.hpp</text>
</a>
</g>
</g>
<!-- Node1&#45;&gt;Node10 -->
<g id="edge46" class="edge">
<title>Node1&#45;&gt;Node10</title>
<path fill="none" stroke="#63b8ff" d="M644,-529.97C532.24,-527.24 320.39,-517.29 255.5,-481 216.24,-459.04 193.5,-445.98 193.5,-401 193.5,-401 193.5,-401 193.5,-333 193.5,-177.13 430.71,-144.69 552.35,-138.31"/>
<polygon fill="#63b8ff" stroke="#63b8ff" points="552.41,-141.81 562.24,-137.84 552.08,-134.81 552.41,-141.81"/>
</g>
<!-- Node13 -->
<g id="node13" class="node">
<title>Node13</title>
<g id="a_node13"><a xlink:href="prologue_8hpp.html" target="_top" xlink:title=" ">
<polygon fill="white" stroke="#666666" points="1109.5,-85 985.5,-85 985.5,-55 1109.5,-55 1109.5,-85"/>
<text text-anchor="start" x="993.5" y="-73" font-family="Helvetica,sans-Serif" font-size="10.00">proxsuite/linalg/veg</text>
<text text-anchor="middle" x="1047.5" y="-62" font-family="Helvetica,sans-Serif" font-size="10.00">/internal/prologue.hpp</text>
</a>
</g>
</g>
<!-- Node1&#45;&gt;Node13 -->
<g id="edge60" class="edge">
<title>Node1&#45;&gt;Node13</title>
<path fill="none" stroke="#63b8ff" d="M784.89,-530.7C945.55,-528.13 1325.5,-510.47 1325.5,-401 1325.5,-401 1325.5,-401 1325.5,-201 1325.5,-110.68 1203.59,-82.97 1121.23,-74.56"/>
<polygon fill="#63b8ff" stroke="#63b8ff" points="1121.68,-71.09 1111.4,-73.64 1121.03,-78.06 1121.68,-71.09"/>
</g>
<!-- Node15 -->
<g id="node15" class="node">
<title>Node15</title>
<g id="a_node15"><a xlink:href="epilogue_8hpp.html" target="_top" xlink:title=" ">
<polygon fill="white" stroke="#666666" points="369,-85 246,-85 246,-55 369,-55 369,-85"/>
<text text-anchor="start" x="254" y="-73" font-family="Helvetica,sans-Serif" font-size="10.00">proxsuite/linalg/veg</text>
<text text-anchor="middle" x="307.5" y="-62" font-family="Helvetica,sans-Serif" font-size="10.00">/internal/epilogue.hpp</text>
</a>
</g>
</g>
<!-- Node1&#45;&gt;Node15 -->
<g id="edge62" class="edge">
<title>Node1&#45;&gt;Node15</title>
<path fill="none" stroke="#63b8ff" d="M644.13,-531.45C522.51,-531.02 279.1,-524.54 207.5,-481 171.27,-458.97 155.5,-443.41 155.5,-401 155.5,-401 155.5,-401 155.5,-201 155.5,-146.51 212.61,-109.98 256.82,-89.86"/>
<polygon fill="#63b8ff" stroke="#63b8ff" points="258.02,-93.16 265.78,-85.94 255.21,-86.74 258.02,-93.16"/>
</g>
<!-- Node16 -->
<g id="node16" class="node">
<title>Node16</title>
<g id="a_node16"><a xlink:href="constructible_8hpp.html" target="_top" xlink:title=" ">
<polygon fill="white" stroke="#666666" points="1104,-349 945,-349 945,-319 1104,-319 1104,-349"/>
<text text-anchor="start" x="953" y="-337" font-family="Helvetica,sans-Serif" font-size="10.00">proxsuite/linalg/veg</text>
<text text-anchor="middle" x="1024.5" y="-326" font-family="Helvetica,sans-Serif" font-size="10.00">/type_traits/constructible.hpp</text>
</a>
</g>
</g>
<!-- Node1&#45;&gt;Node16 -->
<g id="edge39" class="edge">
<title>Node1&#45;&gt;Node16</title>
<path fill="none" stroke="#63b8ff" d="M784.78,-527.93C921.62,-520.22 1215.13,-494.57 1268.5,-415 1308.67,-355.12 1200.69,-338.97 1115.72,-335.2"/>
<polygon fill="#63b8ff" stroke="#63b8ff" points="1116.07,-331.71 1105.94,-334.82 1115.8,-338.7 1116.07,-331.71"/>
</g>
<!-- Node22 -->
<g id="node22" class="node">
<title>Node22</title>
<g id="a_node22"><a xlink:href="assignable_8hpp.html" target="_top" xlink:title=" ">
<polygon fill="white" stroke="#666666" points="846,-349 697,-349 697,-319 846,-319 846,-349"/>
<text text-anchor="start" x="705" y="-337" font-family="Helvetica,sans-Serif" font-size="10.00">proxsuite/linalg/veg</text>
<text text-anchor="middle" x="771.5" y="-326" font-family="Helvetica,sans-Serif" font-size="10.00">/type_traits/assignable.hpp</text>
</a>
</g>
</g>
<!-- Node1&#45;&gt;Node22 -->
<g id="edge40" class="edge">
<title>Node1&#45;&gt;Node22</title>
<path fill="none" stroke="#63b8ff" d="M718.69,-516.59C728.31,-483.53 752.05,-401.89 764.15,-360.27"/>
<polygon fill="#63b8ff" stroke="#63b8ff" points="767.45,-361.47 766.88,-350.89 760.73,-359.51 767.45,-361.47"/>
</g>
<!-- Node23 -->
<g id="node23" class="node">
<title>Node23</title>
<g id="a_node23"><a xlink:href="placement_8hpp.html" target="_top" xlink:title=" ">
<polygon fill="white" stroke="#666666" points="1047,-481 910,-481 910,-451 1047,-451 1047,-481"/>
<text text-anchor="start" x="918" y="-469" font-family="Helvetica,sans-Serif" font-size="10.00">proxsuite/linalg/veg</text>
<text text-anchor="middle" x="978.5" y="-458" font-family="Helvetica,sans-Serif" font-size="10.00">/memory/placement.hpp</text>
</a>
</g>
</g>
<!-- Node1&#45;&gt;Node23 -->
<g id="edge47" class="edge">
<title>Node1&#45;&gt;Node23</title>
<path fill="none" stroke="#63b8ff" d="M774.08,-516.56C813.86,-506.91 866.36,-494.18 908.2,-484.04"/>
<polygon fill="#63b8ff" stroke="#63b8ff" points="908.78,-487.5 917.67,-481.75 907.13,-480.7 908.78,-487.5"/>
</g>
<!-- Node25 -->
<g id="node25" class="node">
<title>Node25</title>
<g id="a_node25"><a xlink:title=" ">
<polygon fill="#e0e0e0" stroke="#999999" points="1259.5,-409.5 1209.5,-409.5 1209.5,-390.5 1259.5,-390.5 1259.5,-409.5"/>
<text text-anchor="middle" x="1234.5" y="-397.5" font-family="Helvetica,sans-Serif" font-size="10.00">cstring</text>
</a>
</g>
</g>
<!-- Node1&#45;&gt;Node25 -->
<g id="edge61" class="edge">
<title>Node1&#45;&gt;Node25</title>
<path fill="none" stroke="#63b8ff" d="M784.81,-526.44C854.81,-520.57 964.76,-507.76 1056.5,-481 1113.14,-464.48 1175.1,-433.41 1208.92,-415.24"/>
<polygon fill="#63b8ff" stroke="#63b8ff" points="1210.43,-418.4 1217.54,-410.55 1207.08,-412.25 1210.43,-418.4"/>
</g>
<!-- Node4 -->
<g id="node4" class="node">
<title>Node4</title>
<g id="a_node4"><a xlink:href="tags_8hpp.html" target="_top" xlink:title=" ">
<polygon fill="white" stroke="#666666" points="453,-349 336,-349 336,-319 453,-319 453,-349"/>
<text text-anchor="start" x="344" y="-337" font-family="Helvetica,sans-Serif" font-size="10.00">proxsuite/linalg/veg</text>
<text text-anchor="middle" x="394.5" y="-326" font-family="Helvetica,sans-Serif" font-size="10.00">/type_traits/tags.hpp</text>
</a>
</g>
</g>
<!-- Node3&#45;&gt;Node4 -->
<g id="edge3" class="edge">
<title>Node3&#45;&gt;Node4</title>
<path fill="none" stroke="#63b8ff" d="M496.1,-384.64C477.81,-375.7 454.06,-364.1 434.13,-354.36"/>
<polygon fill="#63b8ff" stroke="#63b8ff" points="435.68,-351.22 425.16,-349.98 432.61,-357.51 435.68,-351.22"/>
</g>
<!-- Node3&#45;&gt;Node13 -->
<g id="edge37" class="edge">
<title>Node3&#45;&gt;Node13</title>
<path fill="none" stroke="#63b8ff" d="M521.23,-384.77C513.52,-355.84 501,-289.82 534.5,-253 603.83,-176.79 666.56,-251.89 763.5,-217 842.25,-188.66 850.58,-158.3 925.5,-121 948.66,-109.47 975.14,-98.38 997.51,-89.58"/>
<polygon fill="#63b8ff" stroke="#63b8ff" points="998.66,-92.89 1006.71,-86 996.12,-86.36 998.66,-92.89"/>
</g>
<!-- Node3&#45;&gt;Node15 -->
<g id="edge38" class="edge">
<title>Node3&#45;&gt;Node15</title>
<path fill="none" stroke="#63b8ff" d="M468.94,-391.75C417.33,-383.93 346.32,-369.74 327.5,-349 263.11,-278.04 286.37,-150.52 300.2,-96.4"/>
<polygon fill="#63b8ff" stroke="#63b8ff" points="303.54,-97.46 302.75,-86.9 296.78,-95.65 303.54,-97.46"/>
</g>
<!-- Node3&#45;&gt;Node16 -->
<g id="edge23" class="edge">
<title>Node3&#45;&gt;Node16</title>
<path fill="none" stroke="#63b8ff" d="M582.26,-391.72C667.94,-380.73 831.16,-359.8 933.56,-346.66"/>
<polygon fill="#63b8ff" stroke="#63b8ff" points="933.83,-350.16 943.31,-345.41 932.94,-343.21 933.83,-350.16"/>
</g>
<!-- Node19 -->
<g id="node19" class="node">
<title>Node19</title>
<g id="a_node19"><a xlink:href="address_8hpp.html" target="_top" xlink:title=" ">
<polygon fill="white" stroke="#666666" points="679,-349 556,-349 556,-319 679,-319 679,-349"/>
<text text-anchor="start" x="564" y="-337" font-family="Helvetica,sans-Serif" font-size="10.00">proxsuite/linalg/veg</text>
<text text-anchor="middle" x="617.5" y="-326" font-family="Helvetica,sans-Serif" font-size="10.00">/memory/address.hpp</text>
</a>
</g>
</g>
<!-- Node3&#45;&gt;Node19 -->
<g id="edge29" class="edge">
<title>Node3&#45;&gt;Node19</title>
<path fill="none" stroke="#63b8ff" d="M545.92,-384.8C558.1,-376.32 573.79,-365.4 587.38,-355.95"/>
<polygon fill="#63b8ff" stroke="#63b8ff" points="589.37,-358.83 595.58,-350.25 585.37,-353.09 589.37,-358.83"/>
</g>
<!-- Node5 -->
<g id="node5" class="node">
<title>Node5</title>
<g id="a_node5"><a xlink:href="veg_2type__traits_2core_8hpp.html" target="_top" xlink:title=" ">
<polygon fill="white" stroke="#666666" points="775,-283 658,-283 658,-253 775,-253 775,-283"/>
<text text-anchor="start" x="666" y="-271" font-family="Helvetica,sans-Serif" font-size="10.00">proxsuite/linalg/veg</text>
<text text-anchor="middle" x="716.5" y="-260" font-family="Helvetica,sans-Serif" font-size="10.00">/type_traits/core.hpp</text>
</a>
</g>
</g>
<!-- Node4&#45;&gt;Node5 -->
<g id="edge4" class="edge">
<title>Node4&#45;&gt;Node5</title>
<path fill="none" stroke="#63b8ff" d="M453.19,-321.34C507.6,-310.52 588.65,-294.41 646.44,-282.92"/>
<polygon fill="#63b8ff" stroke="#63b8ff" points="647.06,-286.37 656.19,-280.99 645.7,-279.5 647.06,-286.37"/>
</g>
<!-- Node4&#45;&gt;Node13 -->
<g id="edge21" class="edge">
<title>Node4&#45;&gt;Node13</title>
<path fill="none" stroke="#63b8ff" d="M408.64,-318.82C427.87,-300.44 464.15,-268.9 501.5,-253 592.26,-214.36 627.67,-250.35 720.5,-217 800.34,-188.31 807.8,-155.06 885.5,-121 915.14,-108.01 949.2,-96.95 978.42,-88.56"/>
<polygon fill="#63b8ff" stroke="#63b8ff" points="979.23,-91.97 987.91,-85.89 977.33,-85.24 979.23,-91.97"/>
</g>
<!-- Node4&#45;&gt;Node15 -->
<g id="edge22" class="edge">
<title>Node4&#45;&gt;Node15</title>
<path fill="none" stroke="#63b8ff" d="M372.99,-318.62C361.47,-309.74 348.12,-297.32 340.5,-283 308.07,-222.08 305.3,-138.3 306.24,-96.65"/>
<polygon fill="#63b8ff" stroke="#63b8ff" points="309.73,-97.01 306.56,-86.9 302.73,-96.78 309.73,-97.01"/>
</g>
<!-- Node5&#45;&gt;Node6 -->
<g id="edge5" class="edge">
<title>Node5&#45;&gt;Node6</title>
<path fill="none" stroke="#63b8ff" d="M722.9,-252.59C737.64,-219.39 774.12,-137.19 792.52,-95.74"/>
<polygon fill="#63b8ff" stroke="#63b8ff" points="795.62,-97.38 796.48,-86.82 789.22,-94.54 795.62,-97.38"/>
</g>
<!-- Node9 -->
<g id="node9" class="node">
<title>Node9</title>
<g id="a_node9"><a xlink:href="integer__seq_8hpp.html" target="_top" xlink:title=" ">
<polygon fill="white" stroke="#666666" points="711.5,-217 573.5,-217 573.5,-187 711.5,-187 711.5,-217"/>
<text text-anchor="start" x="581.5" y="-205" font-family="Helvetica,sans-Serif" font-size="10.00">proxsuite/linalg/veg</text>
<text text-anchor="middle" x="642.5" y="-194" font-family="Helvetica,sans-Serif" font-size="10.00">/internal/integer_seq.hpp</text>
</a>
</g>
</g>
<!-- Node5&#45;&gt;Node9 -->
<g id="edge8" class="edge">
<title>Node5&#45;&gt;Node9</title>
<path fill="none" stroke="#63b8ff" d="M700.08,-252.8C690.56,-244.57 678.39,-234.04 667.69,-224.78"/>
<polygon fill="#63b8ff" stroke="#63b8ff" points="670.13,-222.27 660.28,-218.38 665.55,-227.56 670.13,-222.27"/>
</g>
<!-- Node5&#45;&gt;Node13 -->
<g id="edge19" class="edge">
<title>Node5&#45;&gt;Node13</title>
<path fill="none" stroke="#63b8ff" d="M753.41,-252.57C775.87,-243.33 804.88,-230.56 829.5,-217 848.65,-206.45 961.67,-129.62 1017.01,-91.85"/>
<polygon fill="#63b8ff" stroke="#63b8ff" points="1018.78,-94.88 1025.07,-86.35 1014.83,-89.1 1018.78,-94.88"/>
</g>
<!-- Node5&#45;&gt;Node15 -->
<g id="edge20" class="edge">
<title>Node5&#45;&gt;Node15</title>
<path fill="none" stroke="#63b8ff" d="M657.54,-255.46C591.7,-242.39 493.39,-222.22 486.5,-217 447.99,-187.83 471.58,-153.13 435.5,-121 419.79,-107.01 399.72,-96.73 380.15,-89.26"/>
<polygon fill="#63b8ff" stroke="#63b8ff" points="381.38,-85.98 370.79,-85.9 379.02,-92.57 381.38,-85.98"/>
</g>
<!-- Node7 -->
<g id="node7" class="node">
<title>Node7</title>
<g id="a_node7"><a xlink:title=" ">
<polygon fill="#e0e0e0" stroke="#999999" points="1030.5,-19 980.5,-19 980.5,0 1030.5,0 1030.5,-19"/>
<text text-anchor="middle" x="1005.5" y="-7" font-family="Helvetica,sans-Serif" font-size="10.00">cstdint</text>
</a>
</g>
</g>
<!-- Node6&#45;&gt;Node7 -->
<g id="edge6" class="edge">
<title>Node6&#45;&gt;Node7</title>
<path fill="none" stroke="#63b8ff" d="M853.43,-54.54C889.38,-44.13 937.05,-30.32 969.36,-20.97"/>
<polygon fill="#63b8ff" stroke="#63b8ff" points="970.02,-24.42 978.65,-18.27 968.08,-17.69 970.02,-24.42"/>
</g>
<!-- Node8 -->
<g id="node8" class="node">
<title>Node8</title>
<g id="a_node8"><a xlink:title=" ">
<polygon fill="#e0e0e0" stroke="#999999" points="830,-19 777,-19 777,0 830,0 830,-19"/>
<text text-anchor="middle" x="803.5" y="-7" font-family="Helvetica,sans-Serif" font-size="10.00">cstddef</text>
</a>
</g>
</g>
<!-- Node6&#45;&gt;Node8 -->
<g id="edge7" class="edge">
<title>Node6&#45;&gt;Node8</title>
<path fill="none" stroke="#63b8ff" d="M803.5,-54.54C803.5,-47.34 803.5,-38.53 803.5,-30.68"/>
<polygon fill="#63b8ff" stroke="#63b8ff" points="807,-30.69 803.5,-20.69 800,-30.69 807,-30.69"/>
</g>
<!-- Node9&#45;&gt;Node6 -->
<g id="edge9" class="edge">
<title>Node9&#45;&gt;Node6</title>
<path fill="none" stroke="#63b8ff" d="M669.06,-186.7C685.39,-177.4 706.39,-164.53 723.5,-151 745.67,-133.46 768.2,-110.36 783.67,-93.49"/>
<polygon fill="#63b8ff" stroke="#63b8ff" points="785.95,-96.19 790.07,-86.43 780.76,-91.49 785.95,-96.19"/>
</g>
<!-- Node9&#45;&gt;Node10 -->
<g id="edge10" class="edge">
<title>Node9&#45;&gt;Node10</title>
<path fill="none" stroke="#63b8ff" d="M638.06,-186.8C635.78,-179.5 632.94,-170.41 630.31,-161.99"/>
<polygon fill="#63b8ff" stroke="#63b8ff" points="633.7,-161.11 627.38,-152.61 627.02,-163.2 633.7,-161.11"/>
</g>
<!-- Node9&#45;&gt;Node13 -->
<g id="edge17" class="edge">
<title>Node9&#45;&gt;Node13</title>
<path fill="none" stroke="#63b8ff" d="M675.77,-186.51C715.94,-169.36 785.8,-140.66 847.5,-121 888.93,-107.79 936.09,-95.86 974.21,-86.97"/>
<polygon fill="#63b8ff" stroke="#63b8ff" points="974.78,-90.43 983.74,-84.76 973.21,-83.6 974.78,-90.43"/>
</g>
<!-- Node9&#45;&gt;Node15 -->
<g id="edge18" class="edge">
<title>Node9&#45;&gt;Node15</title>
<path fill="none" stroke="#63b8ff" d="M616.3,-186.64C598.87,-176.91 575.57,-163.59 555.5,-151 535.45,-138.43 533.12,-130.64 511.5,-121 488.09,-110.56 428.9,-96.52 380.26,-85.97"/>
<polygon fill="#63b8ff" stroke="#63b8ff" points="381.11,-82.57 370.59,-83.89 379.63,-89.41 381.11,-82.57"/>
</g>
<!-- Node10&#45;&gt;Node6 -->
<g id="edge12" class="edge">
<title>Node10&#45;&gt;Node6</title>
<path fill="none" stroke="#63b8ff" d="M663.12,-120.64C689.34,-111.36 723.69,-99.22 751.85,-89.26"/>
<polygon fill="#63b8ff" stroke="#63b8ff" points="753.01,-92.56 761.28,-85.93 750.68,-85.96 753.01,-92.56"/>
</g>
<!-- Node11 -->
<g id="node11" class="node">
<title>Node11</title>
<g id="a_node11"><a xlink:href="hedley_8ext_8hpp.html" target="_top" xlink:title=" ">
<polygon fill="white" stroke="#666666" points="562,-85 387,-85 387,-55 562,-55 562,-85"/>
<text text-anchor="start" x="395" y="-73" font-family="Helvetica,sans-Serif" font-size="10.00">proxsuite/linalg/veg</text>
<text text-anchor="middle" x="474.5" y="-62" font-family="Helvetica,sans-Serif" font-size="10.00">/internal/external/hedley.ext.hpp</text>
</a>
</g>
</g>
<!-- Node10&#45;&gt;Node11 -->
<g id="edge11" class="edge">
<title>Node10&#45;&gt;Node11</title>
<path fill="none" stroke="#63b8ff" d="M589.29,-120.64C568.32,-111.57 541,-99.75 518.27,-89.93"/>
<polygon fill="#63b8ff" stroke="#63b8ff" points="519.82,-86.78 509.25,-86.03 517.04,-93.21 519.82,-86.78"/>
</g>
<!-- Node12 -->
<g id="node12" class="node">
<title>Node12</title>
<g id="a_node12"><a xlink:href="preprocessor_8hpp.html" target="_top" xlink:title=" ">
<polygon fill="white" stroke="#666666" points="723,-85 580,-85 580,-55 723,-55 723,-85"/>
<text text-anchor="start" x="588" y="-73" font-family="Helvetica,sans-Serif" font-size="10.00">proxsuite/linalg/veg</text>
<text text-anchor="middle" x="651.5" y="-62" font-family="Helvetica,sans-Serif" font-size="10.00">/internal/preprocessor.hpp</text>
</a>
</g>
</g>
<!-- Node10&#45;&gt;Node12 -->
<g id="edge13" class="edge">
<title>Node10&#45;&gt;Node12</title>
<path fill="none" stroke="#63b8ff" d="M628.94,-120.8C632.32,-113.34 636.55,-103.99 640.44,-95.41"/>
<polygon fill="#63b8ff" stroke="#63b8ff" points="643.52,-97.1 644.46,-86.54 637.14,-94.21 643.52,-97.1"/>
</g>
<!-- Node10&#45;&gt;Node13 -->
<g id="edge14" class="edge">
<title>Node10&#45;&gt;Node13</title>
<path fill="none" stroke="#63b8ff" d="M681.22,-127.7C749.23,-119.02 864.92,-103.58 973.99,-85.37"/>
<polygon fill="#63b8ff" stroke="#63b8ff" points="974.42,-88.85 983.7,-83.74 973.26,-81.94 974.42,-88.85"/>
</g>
<!-- Node14 -->
<g id="node14" class="node">
<title>Node14</title>
<g id="a_node14"><a xlink:title=" ">
<polygon fill="#e0e0e0" stroke="#999999" points="967,-79.5 884,-79.5 884,-60.5 967,-60.5 967,-79.5"/>
<text text-anchor="middle" x="925.5" y="-67.5" font-family="Helvetica,sans-Serif" font-size="10.00">initializer_list</text>
</a>
</g>
</g>
<!-- Node10&#45;&gt;Node14 -->
<g id="edge15" class="edge">
<title>Node10&#45;&gt;Node14</title>
<path fill="none" stroke="#63b8ff" d="M681.32,-124.57C732.55,-115.19 808.74,-100.53 874.5,-85 877.42,-84.31 880.42,-83.57 883.43,-82.8"/>
<polygon fill="#63b8ff" stroke="#63b8ff" points="884.06,-86.26 892.84,-80.33 882.28,-79.49 884.06,-86.26"/>
</g>
<!-- Node10&#45;&gt;Node15 -->
<g id="edge16" class="edge">
<title>Node10&#45;&gt;Node15</title>
<path fill="none" stroke="#63b8ff" d="M563.62,-123.04C511.81,-112.51 436.17,-97.14 380.52,-85.84"/>
<polygon fill="#63b8ff" stroke="#63b8ff" points="381.3,-82.42 370.8,-83.86 379.91,-89.28 381.3,-82.42"/>
</g>
<!-- Node16&#45;&gt;Node5 -->
<g id="edge24" class="edge">
<title>Node16&#45;&gt;Node5</title>
<path fill="none" stroke="#63b8ff" d="M954.99,-318.56C904.69,-308.1 836.95,-294.03 786.52,-283.55"/>
<polygon fill="#63b8ff" stroke="#63b8ff" points="787.38,-280.15 776.87,-281.55 785.95,-287.01 787.38,-280.15"/>
</g>
<!-- Node16&#45;&gt;Node13 -->
<g id="edge25" class="edge">
<title>Node16&#45;&gt;Node13</title>
<path fill="none" stroke="#63b8ff" d="M1035.32,-318.7C1042.31,-309 1051.23,-295.68 1057.5,-283 1071.27,-255.16 1075.32,-247.63 1080.5,-217 1087.77,-174.02 1071.35,-124.69 1059.16,-95.77"/>
<polygon fill="#63b8ff" stroke="#63b8ff" points="1062.43,-94.53 1055.2,-86.79 1056.03,-97.35 1062.43,-94.53"/>
</g>
<!-- Node16&#45;&gt;Node15 -->
<g id="edge28" class="edge">
<title>Node16&#45;&gt;Node15</title>
<path fill="none" stroke="#63b8ff" d="M1022.14,-318.65C1018.25,-300.09 1008.61,-268.33 986.5,-253 909.15,-199.37 650.8,-254.56 564.5,-217 506.22,-191.63 513.41,-153.01 458.5,-121 434.49,-107 406.03,-96.29 380.32,-88.43"/>
<polygon fill="#63b8ff" stroke="#63b8ff" points="381.53,-85.14 370.95,-85.67 379.55,-91.85 381.53,-85.14"/>
</g>
<!-- Node17 -->
<g id="node17" class="node">
<title>Node17</title>
<g id="a_node17"><a xlink:title=" ">
<polygon fill="#e0e0e0" stroke="#999999" points="1147,-277.5 1110,-277.5 1110,-258.5 1147,-258.5 1147,-277.5"/>
<text text-anchor="middle" x="1128.5" y="-265.5" font-family="Helvetica,sans-Serif" font-size="10.00">new</text>
</a>
</g>
</g>
<!-- Node16&#45;&gt;Node17 -->
<g id="edge26" class="edge">
<title>Node16&#45;&gt;Node17</title>
<path fill="none" stroke="#63b8ff" d="M1047.84,-318.64C1064.6,-308.32 1087.14,-294.45 1104.14,-283.99"/>
<polygon fill="#63b8ff" stroke="#63b8ff" points="1105.93,-287 1112.61,-278.78 1102.26,-281.04 1105.93,-287"/>
</g>
<!-- Node18 -->
<g id="node18" class="node">
<title>Node18</title>
<g id="a_node18"><a xlink:title=" ">
<polygon fill="#e0e0e0" stroke="#999999" points="977,-277.5 908,-277.5 908,-258.5 977,-258.5 977,-277.5"/>
<text text-anchor="middle" x="942.5" y="-265.5" font-family="Helvetica,sans-Serif" font-size="10.00">type_traits</text>
</a>
</g>
</g>
<!-- Node16&#45;&gt;Node18 -->
<g id="edge27" class="edge">
<title>Node16&#45;&gt;Node18</title>
<path fill="none" stroke="#63b8ff" d="M1006.3,-318.8C993.39,-308.72 976.06,-295.19 962.72,-284.78"/>
<polygon fill="#63b8ff" stroke="#63b8ff" points="965.06,-282.17 955.02,-278.78 960.75,-287.69 965.06,-282.17"/>
</g>
<!-- Node19&#45;&gt;Node5 -->
<g id="edge30" class="edge">
<title>Node19&#45;&gt;Node5</title>
<path fill="none" stroke="#63b8ff" d="M639.47,-318.8C652.84,-310.16 670.13,-298.98 684.94,-289.4"/>
<polygon fill="#63b8ff" stroke="#63b8ff" points="686.48,-292.58 692.98,-284.21 682.68,-286.7 686.48,-292.58"/>
</g>
<!-- Node19&#45;&gt;Node13 -->
<g id="edge34" class="edge">
<title>Node19&#45;&gt;Node13</title>
<path fill="none" stroke="#63b8ff" d="M675.38,-318.6C715.76,-308 765.66,-293.65 784.5,-283 801.76,-273.25 802.16,-265.55 817.5,-253 838.42,-235.89 844.9,-233.24 866.5,-217 883.98,-203.86 887.43,-199.31 905.5,-187 931.2,-169.49 940.87,-169.99 965.5,-151 988.17,-133.52 1011.26,-110.42 1027.14,-93.53"/>
<polygon fill="#63b8ff" stroke="#63b8ff" points="1029.49,-96.15 1033.72,-86.44 1024.35,-91.39 1029.49,-96.15"/>
</g>
<!-- Node19&#45;&gt;Node15 -->
<g id="edge36" class="edge">
<title>Node19&#45;&gt;Node15</title>
<path fill="none" stroke="#63b8ff" d="M575.64,-318.56C529.46,-300.85 455.38,-266.88 407.5,-217 374.47,-182.58 387.77,-159.42 359.5,-121 352.15,-111.01 342.71,-101.27 333.89,-93.08"/>
<polygon fill="#63b8ff" stroke="#63b8ff" points="336.3,-90.53 326.51,-86.47 331.62,-95.75 336.3,-90.53"/>
</g>
<!-- Node20 -->
<g id="node20" class="node">
<title>Node20</title>
<g id="a_node20"><a xlink:href="std_8hpp.html" target="_top" xlink:title=" ">
<polygon fill="white" stroke="#666666" points="1071,-217 958,-217 958,-187 1071,-187 1071,-217"/>
<text text-anchor="start" x="966" y="-205" font-family="Helvetica,sans-Serif" font-size="10.00">proxsuite/linalg/veg</text>
<text text-anchor="middle" x="1014.5" y="-194" font-family="Helvetica,sans-Serif" font-size="10.00">/internal/std.hpp</text>
</a>
</g>
</g>
<!-- Node19&#45;&gt;Node20 -->
<g id="edge31" class="edge">
<title>Node19&#45;&gt;Node20</title>
<path fill="none" stroke="#63b8ff" d="M679.41,-319.89C719.25,-310.88 771.91,-297.88 817.5,-283 872.15,-265.17 933.21,-239.43 972.65,-222"/>
<polygon fill="#63b8ff" stroke="#63b8ff" points="973.84,-225.3 981.56,-218.04 971,-218.91 973.84,-225.3"/>
</g>
<!-- Node21 -->
<g id="node21" class="node">
<title>Node21</title>
<g id="a_node21"><a xlink:title=" ">
<polygon fill="#e0e0e0" stroke="#999999" points="601.5,-277.5 543.5,-277.5 543.5,-258.5 601.5,-258.5 601.5,-277.5"/>
<text text-anchor="middle" x="572.5" y="-265.5" font-family="Helvetica,sans-Serif" font-size="10.00">memory</text>
</a>
</g>
</g>
<!-- Node19&#45;&gt;Node21 -->
<g id="edge35" class="edge">
<title>Node19&#45;&gt;Node21</title>
<path fill="none" stroke="#63b8ff" d="M607.51,-318.8C600.98,-309.5 592.38,-297.27 585.34,-287.26"/>
<polygon fill="#63b8ff" stroke="#63b8ff" points="588.2,-285.25 579.59,-279.08 582.48,-289.28 588.2,-285.25"/>
</g>
<!-- Node20&#45;&gt;Node7 -->
<g id="edge32" class="edge">
<title>Node20&#45;&gt;Node7</title>
<path fill="none" stroke="#63b8ff" d="M1038.31,-186.64C1078.37,-160.62 1151.78,-103.87 1118.5,-55 1101.44,-29.95 1067.92,-19 1041.8,-14.22"/>
<polygon fill="#63b8ff" stroke="#63b8ff" points="1042.68,-10.81 1032.26,-12.71 1041.59,-17.73 1042.68,-10.81"/>
</g>
<!-- Node20&#45;&gt;Node14 -->
<g id="edge33" class="edge">
<title>Node20&#45;&gt;Node14</title>
<path fill="none" stroke="#63b8ff" d="M1004.64,-186.59C988.33,-162.77 955.77,-115.22 937.92,-89.15"/>
<polygon fill="#63b8ff" stroke="#63b8ff" points="940.85,-87.23 932.32,-80.96 935.08,-91.19 940.85,-87.23"/>
</g>
<!-- Node22&#45;&gt;Node5 -->
<g id="edge41" class="edge">
<title>Node22&#45;&gt;Node5</title>
<path fill="none" stroke="#63b8ff" d="M759.29,-318.8C752.46,-310.84 743.77,-300.74 736.02,-291.71"/>
<polygon fill="#63b8ff" stroke="#63b8ff" points="738.83,-289.61 729.66,-284.31 733.52,-294.18 738.83,-289.61"/>
</g>
<!-- Node22&#45;&gt;Node13 -->
<g id="edge42" class="edge">
<title>Node22&#45;&gt;Node13</title>
<path fill="none" stroke="#63b8ff" d="M786.2,-318.7C815.45,-290.78 883.79,-228.17 949.5,-187 981.86,-166.73 1003.15,-180.41 1027.5,-151 1040.07,-135.83 1044.9,-113.85 1046.69,-96.77"/>
<polygon fill="#63b8ff" stroke="#63b8ff" points="1050.17,-97.1 1047.4,-86.88 1043.19,-96.6 1050.17,-97.1"/>
</g>
<!-- Node22&#45;&gt;Node15 -->
<g id="edge44" class="edge">
<title>Node22&#45;&gt;Node15</title>
<path fill="none" stroke="#63b8ff" d="M728.41,-318.55C704.44,-309.73 674.5,-297.39 649.5,-283 630.55,-272.09 630.23,-262.43 610.5,-253 548.64,-223.45 518.74,-253.17 460.5,-217 413.32,-187.7 421.58,-158.38 380.5,-121 368.64,-110.21 354.31,-99.9 341.5,-91.48"/>
<polygon fill="#63b8ff" stroke="#63b8ff" points="343.65,-88.7 333.35,-86.25 339.87,-94.6 343.65,-88.7"/>
</g>
<!-- Node22&#45;&gt;Node18 -->
<g id="edge43" class="edge">
<title>Node22&#45;&gt;Node18</title>
<path fill="none" stroke="#63b8ff" d="M809.88,-318.64C839.26,-307.64 879.44,-292.6 907.85,-281.97"/>
<polygon fill="#63b8ff" stroke="#63b8ff" points="908.93,-285.3 917.07,-278.52 906.48,-278.74 908.93,-285.3"/>
</g>
<!-- Node23&#45;&gt;Node13 -->
<g id="edge56" class="edge">
<title>Node23&#45;&gt;Node13</title>
<path fill="none" stroke="#63b8ff" d="M1034.7,-450.58C1056.79,-442.8 1081.19,-431.35 1099.5,-415 1149.51,-370.36 1155.75,-347.91 1172.5,-283 1191.27,-210.29 1176.47,-175.21 1124.5,-121 1113.42,-109.45 1099.19,-99.27 1085.98,-91.16"/>
<polygon fill="#63b8ff" stroke="#63b8ff" points="1087.85,-88.19 1077.45,-86.14 1084.3,-94.23 1087.85,-88.19"/>
</g>
<!-- Node23&#45;&gt;Node15 -->
<g id="edge59" class="edge">
<title>Node23&#45;&gt;Node15</title>
<path fill="none" stroke="#63b8ff" d="M909.58,-463.45C754.26,-458.41 384.12,-437.21 303.5,-349 234.93,-273.97 260.1,-219.42 285.5,-121 287.69,-112.51 291.17,-103.63 294.72,-95.76"/>
<polygon fill="#63b8ff" stroke="#63b8ff" points="297.85,-97.32 299,-86.79 291.53,-94.3 297.85,-97.32"/>
</g>
<!-- Node23&#45;&gt;Node16 -->
<g id="edge48" class="edge">
<title>Node23&#45;&gt;Node16</title>
<path fill="none" stroke="#63b8ff" d="M1017.99,-450.68C1033.85,-442.75 1050.48,-431.16 1059.5,-415 1069.81,-396.52 1058.47,-374.4 1046.02,-358.11"/>
<polygon fill="#63b8ff" stroke="#63b8ff" points="1048.75,-355.92 1039.69,-350.44 1043.35,-360.38 1048.75,-355.92"/>
</g>
<!-- Node23&#45;&gt;Node17 -->
<g id="edge57" class="edge">
<title>Node23&#45;&gt;Node17</title>
<path fill="none" stroke="#63b8ff" d="M1018.57,-450.53C1037.46,-442.27 1059.33,-430.44 1075.5,-415 1111.5,-380.63 1123.14,-319.93 1126.83,-288.73"/>
<polygon fill="#63b8ff" stroke="#63b8ff" points="1130.28,-289.47 1127.8,-279.17 1123.31,-288.76 1130.28,-289.47"/>
</g>
<!-- Node23&#45;&gt;Node19 -->
<g id="edge55" class="edge">
<title>Node23&#45;&gt;Node19</title>
<path fill="none" stroke="#63b8ff" d="M938.49,-450.59C872.48,-426.82 740.89,-379.43 668.38,-353.32"/>
<polygon fill="#63b8ff" stroke="#63b8ff" points="669.71,-350.08 659.12,-349.99 667.34,-356.67 669.71,-350.08"/>
</g>
<!-- Node23&#45;&gt;Node20 -->
<g id="edge49" class="edge">
<title>Node23&#45;&gt;Node20</title>
<path fill="none" stroke="#63b8ff" d="M939.48,-450.57C923.82,-442.62 907.39,-431.04 898.5,-415 892.04,-403.34 895.06,-397.88 898.5,-385 907.24,-352.3 913.81,-344.12 936.5,-319 954.85,-298.68 970.11,-304.94 986.5,-283 998.55,-266.87 1005.72,-245.14 1009.78,-228.39"/>
<polygon fill="#63b8ff" stroke="#63b8ff" points="1013.18,-229.23 1011.89,-218.71 1006.34,-227.74 1013.18,-229.23"/>
</g>
<!-- Node24 -->
<g id="node24" class="node">
<title>Node24</title>
<g id="a_node24"><a xlink:href="invocable_8hpp.html" target="_top" xlink:title=" ">
<polygon fill="white" stroke="#666666" points="1050,-415 907,-415 907,-385 1050,-385 1050,-415"/>
<text text-anchor="start" x="915" y="-403" font-family="Helvetica,sans-Serif" font-size="10.00">proxsuite/linalg/veg</text>
<text text-anchor="middle" x="978.5" y="-392" font-family="Helvetica,sans-Serif" font-size="10.00">/type_traits/invocable.hpp</text>
</a>
</g>
</g>
<!-- Node23&#45;&gt;Node24 -->
<g id="edge50" class="edge">
<title>Node23&#45;&gt;Node24</title>
<path fill="none" stroke="#63b8ff" d="M978.5,-450.8C978.5,-443.67 978.5,-434.82 978.5,-426.56"/>
<polygon fill="#63b8ff" stroke="#63b8ff" points="982,-426.68 978.5,-416.68 975,-426.68 982,-426.68"/>
</g>
<!-- Node23&#45;&gt;Node25 -->
<g id="edge58" class="edge">
<title>Node23&#45;&gt;Node25</title>
<path fill="none" stroke="#63b8ff" d="M1047.45,-451.29C1090.37,-442.22 1146.53,-429.38 1195.5,-415 1197.1,-414.53 1198.72,-414.03 1200.36,-413.51"/>
<polygon fill="#63b8ff" stroke="#63b8ff" points="1201.34,-416.88 1209.7,-410.38 1199.11,-410.24 1201.34,-416.88"/>
</g>
<!-- Node24&#45;&gt;Node5 -->
<g id="edge51" class="edge">
<title>Node24&#45;&gt;Node5</title>
<path fill="none" stroke="#63b8ff" d="M959.31,-384.5C935.8,-367.22 894.28,-338.26 855.5,-319 830.29,-306.48 801.15,-295.5 776.08,-287.05"/>
<polygon fill="#63b8ff" stroke="#63b8ff" points="777.27,-283.76 766.68,-283.94 775.07,-290.4 777.27,-283.76"/>
</g>
<!-- Node24&#45;&gt;Node13 -->
<g id="edge53" class="edge">
<title>Node24&#45;&gt;Node13</title>
<path fill="none" stroke="#63b8ff" d="M1042.25,-384.54C1066.35,-376.84 1092.9,-365.46 1113.5,-349 1140.85,-327.15 1146.53,-316.56 1156.5,-283 1178.46,-209.05 1110.65,-130.39 1072.16,-93.09"/>
<polygon fill="#63b8ff" stroke="#63b8ff" points="1074.75,-90.72 1065.08,-86.4 1069.94,-95.81 1074.75,-90.72"/>
</g>
<!-- Node24&#45;&gt;Node15 -->
<g id="edge54" class="edge">
<title>Node24&#45;&gt;Node15</title>
<path fill="none" stroke="#63b8ff" d="M906.56,-394.71C801.53,-387.75 611.73,-372.4 547.5,-349 459.26,-316.85 437.54,-293.1 382.5,-217 353.92,-177.48 330.03,-125.55 317.34,-95.47"/>
<polygon fill="#63b8ff" stroke="#63b8ff" points="320.68,-94.38 313.61,-86.48 314.21,-97.05 320.68,-94.38"/>
</g>
<!-- Node24&#45;&gt;Node16 -->
<g id="edge52" class="edge">
<title>Node24&#45;&gt;Node16</title>
<path fill="none" stroke="#63b8ff" d="M988.71,-384.8C994.31,-377.01 1001.39,-367.16 1007.77,-358.28"/>
<polygon fill="#63b8ff" stroke="#63b8ff" points="1010.44,-360.56 1013.44,-350.39 1004.76,-356.47 1010.44,-360.56"/>
</g>
</g>
</svg>
