<?xml version="1.0" encoding="UTF-8" standalone="no"?>
<!DOCTYPE svg PUBLIC "-//W3C//DTD SVG 1.1//EN"
 "http://www.w3.org/Graphics/SVG/1.1/DTD/svg11.dtd">
<!-- Generated by graphviz version 9.0.0 (20231125.0833)
 -->
<!-- Title: include/proxsuite/linalg/veg/type_traits/alloc.hpp Pages: 1 -->
<svg width="1444pt" height="585pt"
 viewBox="0.00 0.00 1443.97 584.75" xmlns="http://www.w3.org/2000/svg" xmlns:xlink="http://www.w3.org/1999/xlink">
<g id="graph0" class="graph" transform="scale(1 1) rotate(0) translate(4 580.75)">
<title>include/proxsuite/linalg/veg/type_traits/alloc.hpp</title>
<!-- Node1 -->
<g id="Node000001" class="node">
<title>Node1</title>
<g id="a_Node000001"><a xlink:title=" ">
<polygon fill="#999999" stroke="#666666" points="743,-576.75 603.25,-576.75 603.25,-543.25 743,-543.25 743,-576.75"/>
<text text-anchor="start" x="611.25" y="-563.25" font-family="Helvetica,sans-Serif" font-size="10.00">include/proxsuite/linalg</text>
<text text-anchor="middle" x="673.12" y="-550.5" font-family="Helvetica,sans-Serif" font-size="10.00">/veg/type_traits/alloc.hpp</text>
</a>
</g>
</g>
<!-- Node2 -->
<g id="Node000002" class="node">
<title>Node2</title>
<g id="a_Node000002"><a xlink:href="has__asan_8hpp.html" target="_top" xlink:title=" ">
<polygon fill="white" stroke="#666666" points="126.25,-507.25 0,-507.25 0,-473.75 126.25,-473.75 126.25,-507.25"/>
<text text-anchor="start" x="8" y="-493.75" font-family="Helvetica,sans-Serif" font-size="10.00">proxsuite/linalg/veg</text>
<text text-anchor="middle" x="63.12" y="-481" font-family="Helvetica,sans-Serif" font-size="10.00">/internal/has_asan.hpp</text>
</a>
</g>
</g>
<!-- Node1&#45;&gt;Node2 -->
<g id="edge1_Node000001_Node000002" class="edge">
<title>Node1&#45;&gt;Node2</title>
<g id="a_edge1_Node000001_Node000002"><a xlink:title=" ">
<path fill="none" stroke="#63b8ff" d="M602.99,-554.55C500.8,-547.53 305.15,-532.07 140.12,-507.25 139.29,-507.12 138.45,-507 137.61,-506.86"/>
<polygon fill="#63b8ff" stroke="#63b8ff" points="138.41,-503.45 127.97,-505.26 137.26,-510.35 138.41,-503.45"/>
</a>
</g>
</g>
<!-- Node3 -->
<g id="Node000003" class="node">
<title>Node3</title>
<g id="a_Node000003"><a xlink:href="ref_8hpp.html" target="_top" xlink:title=" ">
<polygon fill="white" stroke="#666666" points="666.5,-437.75 553.75,-437.75 553.75,-404.25 666.5,-404.25 666.5,-437.75"/>
<text text-anchor="start" x="561.75" y="-424.25" font-family="Helvetica,sans-Serif" font-size="10.00">proxsuite/linalg/veg</text>
<text text-anchor="middle" x="610.12" y="-411.5" font-family="Helvetica,sans-Serif" font-size="10.00">/ref.hpp</text>
</a>
</g>
</g>
<!-- Node1&#45;&gt;Node3 -->
<g id="edge2_Node000001_Node000003" class="edge">
<title>Node1&#45;&gt;Node3</title>
<g id="a_edge2_Node000001_Node000003"><a xlink:title=" ">
<path fill="none" stroke="#63b8ff" d="M665.77,-543.02C655.06,-519.71 635.02,-476.14 622.14,-448.13"/>
<polygon fill="#63b8ff" stroke="#63b8ff" points="625.42,-446.88 618.06,-439.26 619.06,-449.8 625.42,-446.88"/>
</a>
</g>
</g>
<!-- Node6 -->
<g id="Node000006" class="node">
<title>Node6</title>
<g id="a_Node000006"><a xlink:href="typedefs_8hpp.html" target="_top" xlink:title=" ">
<polygon fill="white" stroke="#666666" points="714.75,-90.25 591.5,-90.25 591.5,-56.75 714.75,-56.75 714.75,-90.25"/>
<text text-anchor="start" x="599.5" y="-76.75" font-family="Helvetica,sans-Serif" font-size="10.00">proxsuite/linalg/veg</text>
<text text-anchor="middle" x="653.12" y="-64" font-family="Helvetica,sans-Serif" font-size="10.00">/internal/typedefs.hpp</text>
</a>
</g>
</g>
<!-- Node1&#45;&gt;Node6 -->
<g id="edge46_Node000001_Node000006" class="edge">
<title>Node1&#45;&gt;Node6</title>
<g id="a_edge46_Node000001_Node000006"><a xlink:title=" ">
<path fill="none" stroke="#63b8ff" d="M602.96,-546.17C514.34,-525.78 365.53,-476.6 300.12,-368.25 219.94,-235.4 465.71,-134.77 588.16,-94.15"/>
<polygon fill="#63b8ff" stroke="#63b8ff" points="589.04,-97.54 597.46,-91.11 586.87,-90.89 589.04,-97.54"/>
</a>
</g>
</g>
<!-- Node10 -->
<g id="Node000010" class="node">
<title>Node10</title>
<g id="a_Node000010"><a xlink:href="macros_8hpp.html" target="_top" xlink:title=" ">
<polygon fill="white" stroke="#666666" points="1294.38,-159.75 1177.88,-159.75 1177.88,-126.25 1294.38,-126.25 1294.38,-159.75"/>
<text text-anchor="start" x="1185.88" y="-146.25" font-family="Helvetica,sans-Serif" font-size="10.00">proxsuite/linalg/veg</text>
<text text-anchor="middle" x="1236.12" y="-133.5" font-family="Helvetica,sans-Serif" font-size="10.00">/internal/macros.hpp</text>
</a>
</g>
</g>
<!-- Node1&#45;&gt;Node10 -->
<g id="edge47_Node000001_Node000010" class="edge">
<title>Node1&#45;&gt;Node10</title>
<g id="a_edge47_Node000001_Node000010"><a xlink:title=" ">
<path fill="none" stroke="#63b8ff" d="M743.45,-555.91C871.53,-549.66 1132.63,-533.81 1164.12,-507.25 1194.21,-481.87 1188.12,-461.36 1188.12,-422 1188.12,-422 1188.12,-422 1188.12,-281 1188.12,-240.51 1207.03,-196.88 1221.11,-170"/>
<polygon fill="#63b8ff" stroke="#63b8ff" points="1224,-172.02 1225.69,-161.56 1217.85,-168.68 1224,-172.02"/>
</a>
</g>
</g>
<!-- Node13 -->
<g id="Node000013" class="node">
<title>Node13</title>
<g id="a_Node000013"><a xlink:href="prologue_8hpp.html" target="_top" xlink:title=" ">
<polygon fill="white" stroke="#666666" points="443.75,-90.25 320.5,-90.25 320.5,-56.75 443.75,-56.75 443.75,-90.25"/>
<text text-anchor="start" x="328.5" y="-76.75" font-family="Helvetica,sans-Serif" font-size="10.00">proxsuite/linalg/veg</text>
<text text-anchor="middle" x="382.12" y="-64" font-family="Helvetica,sans-Serif" font-size="10.00">/internal/prologue.hpp</text>
</a>
</g>
</g>
<!-- Node1&#45;&gt;Node13 -->
<g id="edge61_Node000001_Node000013" class="edge">
<title>Node1&#45;&gt;Node13</title>
<g id="a_edge61_Node000001_Node000013"><a xlink:title=" ">
<path fill="none" stroke="#63b8ff" d="M602.86,-555.13C461.08,-545.4 154.12,-513.73 154.12,-422 154.12,-422 154.12,-422 154.12,-211.5 154.12,-166.65 172.36,-153.31 208.12,-126.25 237.26,-104.21 275.67,-91.52 309,-84.23"/>
<polygon fill="#63b8ff" stroke="#63b8ff" points="309.51,-87.7 318.6,-82.27 308.1,-80.84 309.51,-87.7"/>
</a>
</g>
</g>
<!-- Node16 -->
<g id="Node000016" class="node">
<title>Node16</title>
<g id="a_Node000016"><a xlink:href="epilogue_8hpp.html" target="_top" xlink:title=" ">
<polygon fill="white" stroke="#666666" points="899.38,-90.25 776.88,-90.25 776.88,-56.75 899.38,-56.75 899.38,-90.25"/>
<text text-anchor="start" x="784.88" y="-76.75" font-family="Helvetica,sans-Serif" font-size="10.00">proxsuite/linalg/veg</text>
<text text-anchor="middle" x="838.12" y="-64" font-family="Helvetica,sans-Serif" font-size="10.00">/internal/epilogue.hpp</text>
</a>
</g>
</g>
<!-- Node1&#45;&gt;Node16 -->
<g id="edge63_Node000001_Node000016" class="edge">
<title>Node1&#45;&gt;Node16</title>
<g id="a_edge63_Node000001_Node000016"><a xlink:title=" ">
<path fill="none" stroke="#63b8ff" d="M743.35,-553.51C834.96,-545.6 989.72,-529.48 1042.12,-507.25 1098.42,-483.37 1150.12,-483.15 1150.12,-422 1150.12,-422 1150.12,-422 1150.12,-211.5 1150.12,-157.05 1109.96,-152.27 1062.12,-126.25 1058.68,-124.37 974.79,-105.24 910.69,-90.78"/>
<polygon fill="#63b8ff" stroke="#63b8ff" points="911.78,-87.44 901.26,-88.66 910.24,-94.27 911.78,-87.44"/>
</a>
</g>
</g>
<!-- Node17 -->
<g id="Node000017" class="node">
<title>Node17</title>
<g id="a_Node000017"><a xlink:href="constructible_8hpp.html" target="_top" xlink:title=" ">
<polygon fill="white" stroke="#666666" points="830.38,-368.25 671.88,-368.25 671.88,-334.75 830.38,-334.75 830.38,-368.25"/>
<text text-anchor="start" x="679.88" y="-354.75" font-family="Helvetica,sans-Serif" font-size="10.00">proxsuite/linalg/veg</text>
<text text-anchor="middle" x="751.12" y="-342" font-family="Helvetica,sans-Serif" font-size="10.00">/type_traits/constructible.hpp</text>
</a>
</g>
</g>
<!-- Node1&#45;&gt;Node17 -->
<g id="edge40_Node000001_Node000017" class="edge">
<title>Node1&#45;&gt;Node17</title>
<g id="a_edge40_Node000001_Node000017"><a xlink:title=" ">
<path fill="none" stroke="#63b8ff" d="M679.25,-542.8C692.63,-507.36 724.62,-422.68 741.03,-379.23"/>
<polygon fill="#63b8ff" stroke="#63b8ff" points="744.24,-380.64 744.5,-370.04 737.69,-378.16 744.24,-380.64"/>
</a>
</g>
</g>
<!-- Node23 -->
<g id="Node000023" class="node">
<title>Node23</title>
<g id="a_Node000023"><a xlink:href="assignable_8hpp.html" target="_top" xlink:title=" ">
<polygon fill="white" stroke="#666666" points="482.12,-368.25 334.12,-368.25 334.12,-334.75 482.12,-334.75 482.12,-368.25"/>
<text text-anchor="start" x="342.12" y="-354.75" font-family="Helvetica,sans-Serif" font-size="10.00">proxsuite/linalg/veg</text>
<text text-anchor="middle" x="408.12" y="-342" font-family="Helvetica,sans-Serif" font-size="10.00">/type_traits/assignable.hpp</text>
</a>
</g>
</g>
<!-- Node1&#45;&gt;Node23 -->
<g id="edge41_Node000001_Node000023" class="edge">
<title>Node1&#45;&gt;Node23</title>
<g id="a_edge41_Node000001_Node000023"><a xlink:title=" ">
<path fill="none" stroke="#63b8ff" d="M652.33,-542.8C605.5,-506.31 491.66,-417.59 437.58,-375.45"/>
<polygon fill="#63b8ff" stroke="#63b8ff" points="440.06,-372.94 430.02,-369.56 435.75,-378.47 440.06,-372.94"/>
</a>
</g>
</g>
<!-- Node24 -->
<g id="Node000024" class="node">
<title>Node24</title>
<g id="a_Node000024"><a xlink:href="placement_8hpp.html" target="_top" xlink:title=" ">
<polygon fill="white" stroke="#666666" points="998.12,-507.25 862.12,-507.25 862.12,-473.75 998.12,-473.75 998.12,-507.25"/>
<text text-anchor="start" x="870.12" y="-493.75" font-family="Helvetica,sans-Serif" font-size="10.00">proxsuite/linalg/veg</text>
<text text-anchor="middle" x="930.12" y="-481" font-family="Helvetica,sans-Serif" font-size="10.00">/memory/placement.hpp</text>
</a>
</g>
</g>
<!-- Node1&#45;&gt;Node24 -->
<g id="edge48_Node000001_Node000024" class="edge">
<title>Node1&#45;&gt;Node24</title>
<g id="a_edge48_Node000001_Node000024"><a xlink:title=" ">
<path fill="none" stroke="#63b8ff" d="M734.68,-542.83C771.74,-533.1 819.1,-520.66 857.92,-510.46"/>
<polygon fill="#63b8ff" stroke="#63b8ff" points="858.38,-513.96 867.16,-508.04 856.6,-507.19 858.38,-513.96"/>
</a>
</g>
</g>
<!-- Node26 -->
<g id="Node000026" class="node">
<title>Node26</title>
<g id="a_Node000026"><a xlink:title=" ">
<polygon fill="#e0e0e0" stroke="#999999" points="1121.62,-431.38 1072.62,-431.38 1072.62,-410.62 1121.62,-410.62 1121.62,-431.38"/>
<text text-anchor="middle" x="1097.12" y="-417.88" font-family="Helvetica,sans-Serif" font-size="10.00">cstring</text>
</a>
</g>
</g>
<!-- Node1&#45;&gt;Node26 -->
<g id="edge62_Node000001_Node000026" class="edge">
<title>Node1&#45;&gt;Node26</title>
<g id="a_edge62_Node000001_Node000026"><a xlink:title=" ">
<path fill="none" stroke="#63b8ff" d="M743.14,-553.08C827.01,-545.15 961.88,-529.44 1007.12,-507.25 1039.03,-491.6 1067.22,-460.68 1083.21,-440.69"/>
<polygon fill="#63b8ff" stroke="#63b8ff" points="1085.95,-442.87 1089.3,-432.82 1080.41,-438.58 1085.95,-442.87"/>
</a>
</g>
</g>
<!-- Node4 -->
<g id="Node000004" class="node">
<title>Node4</title>
<g id="a_Node000004"><a xlink:href="tags_8hpp.html" target="_top" xlink:title=" ">
<polygon fill="white" stroke="#666666" points="616.38,-368.25 499.88,-368.25 499.88,-334.75 616.38,-334.75 616.38,-368.25"/>
<text text-anchor="start" x="507.88" y="-354.75" font-family="Helvetica,sans-Serif" font-size="10.00">proxsuite/linalg/veg</text>
<text text-anchor="middle" x="558.12" y="-342" font-family="Helvetica,sans-Serif" font-size="10.00">/type_traits/tags.hpp</text>
</a>
</g>
</g>
<!-- Node3&#45;&gt;Node4 -->
<g id="edge3_Node000003_Node000004" class="edge">
<title>Node3&#45;&gt;Node4</title>
<g id="a_edge3_Node000003_Node000004"><a xlink:title=" ">
<path fill="none" stroke="#63b8ff" d="M597.8,-404C591.65,-396.02 584.07,-386.18 577.19,-377.25"/>
<polygon fill="#63b8ff" stroke="#63b8ff" points="580.16,-375.37 571.28,-369.58 574.61,-379.64 580.16,-375.37"/>
</a>
</g>
</g>
<!-- Node3&#45;&gt;Node13 -->
<g id="edge38_Node000003_Node000013" class="edge">
<title>Node3&#45;&gt;Node13</title>
<g id="a_edge38_Node000003_Node000013"><a xlink:title=" ">
<path fill="none" stroke="#63b8ff" d="M553.57,-419.04C471.59,-416.35 325.84,-406.2 292.12,-368.25 220.65,-287.78 227.37,-218.31 283.12,-126.25 291.05,-113.17 303.48,-103.24 316.9,-95.75"/>
<polygon fill="#63b8ff" stroke="#63b8ff" points="318.11,-99.06 325.44,-91.41 314.94,-92.82 318.11,-99.06"/>
</a>
</g>
</g>
<!-- Node3&#45;&gt;Node16 -->
<g id="edge39_Node000003_Node000016" class="edge">
<title>Node3&#45;&gt;Node16</title>
<g id="a_edge39_Node000003_Node000016"><a xlink:title=" ">
<path fill="none" stroke="#63b8ff" d="M616.35,-404.03C624.47,-385.1 640.38,-353.74 663.12,-334.75 696.51,-306.88 718.67,-323.94 754.12,-298.75 787.39,-275.12 794.94,-265.26 814.12,-229.25 835.78,-188.61 839.28,-134.01 839.18,-101.71"/>
<polygon fill="#63b8ff" stroke="#63b8ff" points="842.68,-101.95 839.02,-92.01 835.68,-102.07 842.68,-101.95"/>
</a>
</g>
</g>
<!-- Node3&#45;&gt;Node17 -->
<g id="edge24_Node000003_Node000017" class="edge">
<title>Node3&#45;&gt;Node17</title>
<g id="a_edge24_Node000003_Node000017"><a xlink:title=" ">
<path fill="none" stroke="#63b8ff" d="M643.9,-403.83C662.91,-394.73 686.86,-383.27 707.3,-373.48"/>
<polygon fill="#63b8ff" stroke="#63b8ff" points="708.75,-376.66 716.26,-369.19 705.73,-370.35 708.75,-376.66"/>
</a>
</g>
</g>
<!-- Node20 -->
<g id="Node000020" class="node">
<title>Node20</title>
<g id="a_Node000020"><a xlink:href="address_8hpp.html" target="_top" xlink:title=" ">
<polygon fill="white" stroke="#666666" points="1046.38,-368.25 923.88,-368.25 923.88,-334.75 1046.38,-334.75 1046.38,-368.25"/>
<text text-anchor="start" x="931.88" y="-354.75" font-family="Helvetica,sans-Serif" font-size="10.00">proxsuite/linalg/veg</text>
<text text-anchor="middle" x="985.12" y="-342" font-family="Helvetica,sans-Serif" font-size="10.00">/memory/address.hpp</text>
</a>
</g>
</g>
<!-- Node3&#45;&gt;Node20 -->
<g id="edge30_Node000003_Node000020" class="edge">
<title>Node3&#45;&gt;Node20</title>
<g id="a_edge30_Node000003_Node000020"><a xlink:title=" ">
<path fill="none" stroke="#63b8ff" d="M666.67,-409.82C732.22,-398.02 840.42,-378.55 912.23,-365.62"/>
<polygon fill="#63b8ff" stroke="#63b8ff" points="912.72,-369.09 921.94,-363.87 911.48,-362.2 912.72,-369.09"/>
</a>
</g>
</g>
<!-- Node5 -->
<g id="Node000005" class="node">
<title>Node5</title>
<g id="a_Node000005"><a xlink:href="veg_2type__traits_2core_8hpp.html" target="_top" xlink:title=" ">
<polygon fill="white" stroke="#666666" points="745.38,-298.75 628.88,-298.75 628.88,-265.25 745.38,-265.25 745.38,-298.75"/>
<text text-anchor="start" x="636.88" y="-285.25" font-family="Helvetica,sans-Serif" font-size="10.00">proxsuite/linalg/veg</text>
<text text-anchor="middle" x="687.12" y="-272.5" font-family="Helvetica,sans-Serif" font-size="10.00">/type_traits/core.hpp</text>
</a>
</g>
</g>
<!-- Node4&#45;&gt;Node5 -->
<g id="edge4_Node000004_Node000005" class="edge">
<title>Node4&#45;&gt;Node5</title>
<g id="a_edge4_Node000004_Node000005"><a xlink:title=" ">
<path fill="none" stroke="#63b8ff" d="M589.02,-334.33C606.26,-325.32 627.93,-313.98 646.52,-304.25"/>
<polygon fill="#63b8ff" stroke="#63b8ff" points="647.9,-307.48 655.14,-299.74 644.65,-301.27 647.9,-307.48"/>
</a>
</g>
</g>
<!-- Node4&#45;&gt;Node13 -->
<g id="edge22_Node000004_Node000013" class="edge">
<title>Node4&#45;&gt;Node13</title>
<g id="a_edge22_Node000004_Node000013"><a xlink:title=" ">
<path fill="none" stroke="#63b8ff" d="M499.67,-335.31C478.39,-327.34 455.54,-315.62 439.12,-298.75 386.4,-244.57 380.39,-148.87 380.91,-101.97"/>
<polygon fill="#63b8ff" stroke="#63b8ff" points="384.4,-102.22 381.14,-92.14 377.4,-102.06 384.4,-102.22"/>
</a>
</g>
</g>
<!-- Node4&#45;&gt;Node16 -->
<g id="edge23_Node000004_Node000016" class="edge">
<title>Node4&#45;&gt;Node16</title>
<g id="a_edge23_Node000004_Node000016"><a xlink:title=" ">
<path fill="none" stroke="#63b8ff" d="M562.55,-334.71C571.64,-304.6 594.94,-238.19 634.12,-195.75 676.82,-149.51 741.19,-115.28 786.18,-95.19"/>
<polygon fill="#63b8ff" stroke="#63b8ff" points="787.45,-98.46 795.21,-91.24 784.65,-92.04 787.45,-98.46"/>
</a>
</g>
</g>
<!-- Node5&#45;&gt;Node6 -->
<g id="edge5_Node000005_Node000006" class="edge">
<title>Node5&#45;&gt;Node6</title>
<g id="a_edge5_Node000005_Node000006"><a xlink:title=" ">
<path fill="none" stroke="#63b8ff" d="M663.49,-264.97C652.34,-255.94 640.17,-243.59 634.12,-229.25 616.34,-187.04 630.37,-133.02 641.93,-101.24"/>
<polygon fill="#63b8ff" stroke="#63b8ff" points="645.15,-102.61 645.46,-92.02 638.61,-100.1 645.15,-102.61"/>
</a>
</g>
</g>
<!-- Node9 -->
<g id="Node000009" class="node">
<title>Node9</title>
<g id="a_Node000009"><a xlink:href="integer__seq_8hpp.html" target="_top" xlink:title=" ">
<polygon fill="white" stroke="#666666" points="780.88,-229.25 643.38,-229.25 643.38,-195.75 780.88,-195.75 780.88,-229.25"/>
<text text-anchor="start" x="651.38" y="-215.75" font-family="Helvetica,sans-Serif" font-size="10.00">proxsuite/linalg/veg</text>
<text text-anchor="middle" x="712.12" y="-203" font-family="Helvetica,sans-Serif" font-size="10.00">/internal/integer_seq.hpp</text>
</a>
</g>
</g>
<!-- Node5&#45;&gt;Node9 -->
<g id="edge8_Node000005_Node000009" class="edge">
<title>Node5&#45;&gt;Node9</title>
<g id="a_edge8_Node000005_Node000009"><a xlink:title=" ">
<path fill="none" stroke="#63b8ff" d="M693.05,-265C695.82,-257.52 699.19,-248.41 702.33,-239.95"/>
<polygon fill="#63b8ff" stroke="#63b8ff" points="705.53,-241.39 705.72,-230.8 698.96,-238.96 705.53,-241.39"/>
</a>
</g>
</g>
<!-- Node5&#45;&gt;Node13 -->
<g id="edge20_Node000005_Node000013" class="edge">
<title>Node5&#45;&gt;Node13</title>
<g id="a_edge20_Node000005_Node000013"><a xlink:title=" ">
<path fill="none" stroke="#63b8ff" d="M628.49,-270.67C596.03,-262.98 556.12,-250.1 525.12,-229.25 475.64,-195.96 480.41,-169.28 439.12,-126.25 429.92,-116.65 419.25,-106.69 409.65,-98.11"/>
<polygon fill="#63b8ff" stroke="#63b8ff" points="412.16,-95.65 402.35,-91.66 407.53,-100.9 412.16,-95.65"/>
</a>
</g>
</g>
<!-- Node5&#45;&gt;Node16 -->
<g id="edge21_Node000005_Node000016" class="edge">
<title>Node5&#45;&gt;Node16</title>
<g id="a_edge21_Node000005_Node000016"><a xlink:title=" ">
<path fill="none" stroke="#63b8ff" d="M738.44,-264.84C756.96,-256.76 776.6,-245.2 790.12,-229.25 821.38,-192.36 832.31,-135.24 836.11,-101.69"/>
<polygon fill="#63b8ff" stroke="#63b8ff" points="839.57,-102.28 837.06,-91.98 832.6,-101.59 839.57,-102.28"/>
</a>
</g>
</g>
<!-- Node7 -->
<g id="Node000007" class="node">
<title>Node7</title>
<g id="a_Node000007"><a xlink:title=" ">
<polygon fill="#e0e0e0" stroke="#999999" points="1102.62,-20.75 1053.62,-20.75 1053.62,0 1102.62,0 1102.62,-20.75"/>
<text text-anchor="middle" x="1078.12" y="-7.25" font-family="Helvetica,sans-Serif" font-size="10.00">cstdint</text>
</a>
</g>
</g>
<!-- Node6&#45;&gt;Node7 -->
<g id="edge6_Node000006_Node000007" class="edge">
<title>Node6&#45;&gt;Node7</title>
<g id="a_edge6_Node000006_Node000007"><a xlink:title=" ">
<path fill="none" stroke="#63b8ff" d="M714.92,-63.61C804.99,-50.66 969.47,-27 1042.06,-16.56"/>
<polygon fill="#63b8ff" stroke="#63b8ff" points="1042.41,-20.05 1051.8,-15.16 1041.41,-13.12 1042.41,-20.05"/>
</a>
</g>
</g>
<!-- Node8 -->
<g id="Node000008" class="node">
<title>Node8</title>
<g id="a_Node000008"><a xlink:title=" ">
<polygon fill="#e0e0e0" stroke="#999999" points="679.12,-20.75 627.12,-20.75 627.12,0 679.12,0 679.12,-20.75"/>
<text text-anchor="middle" x="653.12" y="-7.25" font-family="Helvetica,sans-Serif" font-size="10.00">cstddef</text>
</a>
</g>
</g>
<!-- Node6&#45;&gt;Node8 -->
<g id="edge7_Node000006_Node000008" class="edge">
<title>Node6&#45;&gt;Node8</title>
<g id="a_edge7_Node000006_Node000008"><a xlink:title=" ">
<path fill="none" stroke="#63b8ff" d="M653.12,-56.44C653.12,-49.1 653.12,-40.32 653.12,-32.46"/>
<polygon fill="#63b8ff" stroke="#63b8ff" points="656.63,-32.73 653.13,-22.73 649.63,-32.73 656.63,-32.73"/>
</a>
</g>
</g>
<!-- Node9&#45;&gt;Node6 -->
<g id="edge9_Node000009_Node000006" class="edge">
<title>Node9&#45;&gt;Node6</title>
<g id="a_edge9_Node000009_Node000006"><a xlink:title=" ">
<path fill="none" stroke="#63b8ff" d="M705.24,-195.52C695.21,-172.21 676.44,-128.64 664.38,-100.63"/>
<polygon fill="#63b8ff" stroke="#63b8ff" points="667.73,-99.57 660.56,-91.77 661.3,-102.34 667.73,-99.57"/>
</a>
</g>
</g>
<!-- Node9&#45;&gt;Node10 -->
<g id="edge10_Node000009_Node000010" class="edge">
<title>Node9&#45;&gt;Node10</title>
<g id="a_edge10_Node000009_Node000010"><a xlink:title=" ">
<path fill="none" stroke="#63b8ff" d="M781.17,-202.61C881.25,-189.71 1065.62,-165.96 1166.19,-153.01"/>
<polygon fill="#63b8ff" stroke="#63b8ff" points="1166.47,-156.5 1175.94,-151.75 1165.57,-149.56 1166.47,-156.5"/>
</a>
</g>
</g>
<!-- Node9&#45;&gt;Node13 -->
<g id="edge18_Node000009_Node000013" class="edge">
<title>Node9&#45;&gt;Node13</title>
<g id="a_edge18_Node000009_Node000013"><a xlink:title=" ">
<path fill="none" stroke="#63b8ff" d="M675.99,-195.38C636.61,-177.93 571.66,-149.47 515.12,-126.25 488.97,-115.51 459.71,-104.06 435.3,-94.67"/>
<polygon fill="#63b8ff" stroke="#63b8ff" points="436.82,-91.5 426.23,-91.19 434.31,-98.04 436.82,-91.5"/>
</a>
</g>
</g>
<!-- Node9&#45;&gt;Node16 -->
<g id="edge19_Node000009_Node000016" class="edge">
<title>Node9&#45;&gt;Node16</title>
<g id="a_edge19_Node000009_Node000016"><a xlink:title=" ">
<path fill="none" stroke="#63b8ff" d="M726.83,-195.52C748.73,-171.7 790.12,-126.7 815.78,-98.79"/>
<polygon fill="#63b8ff" stroke="#63b8ff" points="818.3,-101.23 822.49,-91.5 813.15,-96.49 818.3,-101.23"/>
</a>
</g>
</g>
<!-- Node10&#45;&gt;Node6 -->
<g id="edge12_Node000010_Node000006" class="edge">
<title>Node10&#45;&gt;Node6</title>
<g id="a_edge12_Node000010_Node000006"><a xlink:title=" ">
<path fill="none" stroke="#63b8ff" d="M1177.7,-136.03C1089.07,-126.87 915.37,-108.47 768.12,-90.25 754.55,-88.57 740.1,-86.67 726.18,-84.8"/>
<polygon fill="#63b8ff" stroke="#63b8ff" points="727.04,-81.38 716.66,-83.5 726.09,-88.32 727.04,-81.38"/>
</a>
</g>
</g>
<!-- Node11 -->
<g id="Node000011" class="node">
<title>Node11</title>
<g id="a_Node000011"><a xlink:href="hedley_8ext_8hpp.html" target="_top" xlink:title=" ">
<polygon fill="white" stroke="#666666" points="1154.25,-90.25 980,-90.25 980,-56.75 1154.25,-56.75 1154.25,-90.25"/>
<text text-anchor="start" x="988" y="-76.75" font-family="Helvetica,sans-Serif" font-size="10.00">proxsuite/linalg/veg</text>
<text text-anchor="middle" x="1067.12" y="-64" font-family="Helvetica,sans-Serif" font-size="10.00">/internal/external/hedley.ext.hpp</text>
</a>
</g>
</g>
<!-- Node10&#45;&gt;Node11 -->
<g id="edge11_Node000010_Node000011" class="edge">
<title>Node10&#45;&gt;Node11</title>
<g id="a_edge11_Node000010_Node000011"><a xlink:title=" ">
<path fill="none" stroke="#63b8ff" d="M1195.65,-125.83C1172.42,-116.56 1143.05,-104.82 1118.24,-94.92"/>
<polygon fill="#63b8ff" stroke="#63b8ff" points="1119.56,-91.67 1108.97,-91.21 1116.96,-98.17 1119.56,-91.67"/>
</a>
</g>
</g>
<!-- Node12 -->
<g id="Node000012" class="node">
<title>Node12</title>
<g id="a_Node000012"><a xlink:href="preprocessor_8hpp.html" target="_top" xlink:title=" ">
<polygon fill="white" stroke="#666666" points="1315.5,-90.25 1172.75,-90.25 1172.75,-56.75 1315.5,-56.75 1315.5,-90.25"/>
<text text-anchor="start" x="1180.75" y="-76.75" font-family="Helvetica,sans-Serif" font-size="10.00">proxsuite/linalg/veg</text>
<text text-anchor="middle" x="1244.12" y="-64" font-family="Helvetica,sans-Serif" font-size="10.00">/internal/preprocessor.hpp</text>
</a>
</g>
</g>
<!-- Node10&#45;&gt;Node12 -->
<g id="edge13_Node000010_Node000012" class="edge">
<title>Node10&#45;&gt;Node12</title>
<g id="a_edge13_Node000010_Node000012"><a xlink:title=" ">
<path fill="none" stroke="#63b8ff" d="M1238.02,-126C1238.88,-118.77 1239.91,-110.03 1240.89,-101.81"/>
<polygon fill="#63b8ff" stroke="#63b8ff" points="1244.36,-102.23 1242.06,-91.88 1237.41,-101.4 1244.36,-102.23"/>
</a>
</g>
</g>
<!-- Node10&#45;&gt;Node13 -->
<g id="edge14_Node000010_Node000013" class="edge">
<title>Node10&#45;&gt;Node13</title>
<g id="a_edge14_Node000010_Node000013"><a xlink:title=" ">
<path fill="none" stroke="#63b8ff" d="M1177.43,-137.36C1025.84,-125.38 621.54,-93.42 455.18,-80.27"/>
<polygon fill="#63b8ff" stroke="#63b8ff" points="455.85,-76.82 445.61,-79.52 455.3,-83.79 455.85,-76.82"/>
</a>
</g>
</g>
<!-- Node14 -->
<g id="Node000014" class="node">
<title>Node14</title>
<g id="a_Node000014"><a xlink:title=" ">
<polygon fill="#e0e0e0" stroke="#999999" points="1415.12,-83.88 1333.12,-83.88 1333.12,-63.12 1415.12,-63.12 1415.12,-83.88"/>
<text text-anchor="middle" x="1374.12" y="-70.38" font-family="Helvetica,sans-Serif" font-size="10.00">initializer_list</text>
</a>
</g>
</g>
<!-- Node10&#45;&gt;Node14 -->
<g id="edge15_Node000010_Node000014" class="edge">
<title>Node10&#45;&gt;Node14</title>
<g id="a_edge15_Node000010_Node000014"><a xlink:title=" ">
<path fill="none" stroke="#63b8ff" d="M1269.18,-125.83C1291.93,-114.7 1321.91,-100.04 1344,-89.23"/>
<polygon fill="#63b8ff" stroke="#63b8ff" points="1345.34,-92.47 1352.79,-84.94 1342.27,-86.19 1345.34,-92.47"/>
</a>
</g>
</g>
<!-- Node15 -->
<g id="Node000015" class="node">
<title>Node15</title>
<g id="a_Node000015"><a xlink:title=" ">
<polygon fill="#e0e0e0" stroke="#999999" points="962.38,-83.88 917.88,-83.88 917.88,-63.12 962.38,-63.12 962.38,-83.88"/>
<text text-anchor="middle" x="940.12" y="-70.38" font-family="Helvetica,sans-Serif" font-size="10.00">utility</text>
</a>
</g>
</g>
<!-- Node10&#45;&gt;Node15 -->
<g id="edge16_Node000010_Node000015" class="edge">
<title>Node10&#45;&gt;Node15</title>
<g id="a_edge16_Node000010_Node000015"><a xlink:title=" ">
<path fill="none" stroke="#63b8ff" d="M1177.61,-129.04C1173.05,-128.08 1168.51,-127.14 1164.12,-126.25 1078.61,-108.92 1053.75,-118.3 971.12,-90.25 969.95,-89.85 968.77,-89.42 967.59,-88.95"/>
<polygon fill="#63b8ff" stroke="#63b8ff" points="969.06,-85.78 958.5,-84.85 966.18,-92.16 969.06,-85.78"/>
</a>
</g>
</g>
<!-- Node10&#45;&gt;Node16 -->
<g id="edge17_Node000010_Node000016" class="edge">
<title>Node10&#45;&gt;Node16</title>
<g id="a_edge17_Node000010_Node000016"><a xlink:title=" ">
<path fill="none" stroke="#63b8ff" d="M1177.65,-128.82C1173.08,-127.91 1168.53,-127.04 1164.12,-126.25 1054.99,-106.64 1023.69,-110.39 910.82,-90.46"/>
<polygon fill="#63b8ff" stroke="#63b8ff" points="911.59,-87.04 901.13,-88.72 910.35,-93.93 911.59,-87.04"/>
</a>
</g>
</g>
<!-- Node17&#45;&gt;Node5 -->
<g id="edge25_Node000017_Node000005" class="edge">
<title>Node17&#45;&gt;Node5</title>
<g id="a_edge25_Node000017_Node000005"><a xlink:title=" ">
<path fill="none" stroke="#63b8ff" d="M735.96,-334.5C728.23,-326.35 718.66,-316.26 710.05,-307.18"/>
<polygon fill="#63b8ff" stroke="#63b8ff" points="712.64,-304.83 703.22,-299.98 707.57,-309.64 712.64,-304.83"/>
</a>
</g>
</g>
<!-- Node17&#45;&gt;Node13 -->
<g id="edge26_Node000017_Node000013" class="edge">
<title>Node17&#45;&gt;Node13</title>
<g id="a_edge26_Node000017_Node000013"><a xlink:title=" ">
<path fill="none" stroke="#63b8ff" d="M690.31,-334.29C632.22,-316.35 544.91,-282.69 485.12,-229.25 443.4,-191.95 410.95,-134.18 394.34,-100.79"/>
<polygon fill="#63b8ff" stroke="#63b8ff" points="397.51,-99.29 389.99,-91.82 391.21,-102.35 397.51,-99.29"/>
</a>
</g>
</g>
<!-- Node17&#45;&gt;Node16 -->
<g id="edge29_Node000017_Node000016" class="edge">
<title>Node17&#45;&gt;Node16</title>
<g id="a_edge29_Node000017_Node000016"><a xlink:title=" ">
<path fill="none" stroke="#63b8ff" d="M765.76,-334.67C795.4,-302.56 859.86,-232.51 861.12,-229.25 877.61,-186.54 870.63,-171.03 861.12,-126.25 859.3,-117.65 855.95,-108.75 852.35,-100.81"/>
<polygon fill="#63b8ff" stroke="#63b8ff" points="855.61,-99.5 848.09,-92.04 849.32,-102.57 855.61,-99.5"/>
</a>
</g>
</g>
<!-- Node18 -->
<g id="Node000018" class="node">
<title>Node18</title>
<g id="a_Node000018"><a xlink:title=" ">
<polygon fill="#e0e0e0" stroke="#999999" points="875.25,-292.38 839,-292.38 839,-271.62 875.25,-271.62 875.25,-292.38"/>
<text text-anchor="middle" x="857.12" y="-278.88" font-family="Helvetica,sans-Serif" font-size="10.00">new</text>
</a>
</g>
</g>
<!-- Node17&#45;&gt;Node18 -->
<g id="edge27_Node000017_Node000018" class="edge">
<title>Node17&#45;&gt;Node18</title>
<g id="a_edge27_Node000017_Node000018"><a xlink:title=" ">
<path fill="none" stroke="#63b8ff" d="M776.51,-334.33C793.35,-323.61 815.35,-309.6 832.11,-298.93"/>
<polygon fill="#63b8ff" stroke="#63b8ff" points="833.95,-301.91 840.5,-293.58 830.19,-296 833.95,-301.91"/>
</a>
</g>
</g>
<!-- Node19 -->
<g id="Node000019" class="node">
<title>Node19</title>
<g id="a_Node000019"><a xlink:title=" ">
<polygon fill="#e0e0e0" stroke="#999999" points="516.38,-292.38 447.88,-292.38 447.88,-271.62 516.38,-271.62 516.38,-292.38"/>
<text text-anchor="middle" x="482.12" y="-278.88" font-family="Helvetica,sans-Serif" font-size="10.00">type_traits</text>
</a>
</g>
</g>
<!-- Node17&#45;&gt;Node19 -->
<g id="edge28_Node000017_Node000019" class="edge">
<title>Node17&#45;&gt;Node19</title>
<g id="a_edge28_Node000017_Node000019"><a xlink:title=" ">
<path fill="none" stroke="#63b8ff" d="M674.51,-334.28C631.78,-324.81 577.74,-312.11 530.12,-298.75 527.35,-297.97 524.51,-297.14 521.64,-296.27"/>
<polygon fill="#63b8ff" stroke="#63b8ff" points="522.71,-292.94 512.13,-293.28 520.62,-299.61 522.71,-292.94"/>
</a>
</g>
</g>
<!-- Node20&#45;&gt;Node5 -->
<g id="edge31_Node000020_Node000005" class="edge">
<title>Node20&#45;&gt;Node5</title>
<g id="a_edge31_Node000020_Node000005"><a xlink:title=" ">
<path fill="none" stroke="#63b8ff" d="M923.38,-336.51C874.88,-325.53 807.34,-310.23 756.89,-298.8"/>
<polygon fill="#63b8ff" stroke="#63b8ff" points="757.75,-295.41 747.23,-296.61 756.21,-302.24 757.75,-295.41"/>
</a>
</g>
</g>
<!-- Node20&#45;&gt;Node13 -->
<g id="edge35_Node000020_Node000013" class="edge">
<title>Node20&#45;&gt;Node13</title>
<g id="a_edge35_Node000020_Node000013"><a xlink:title=" ">
<path fill="none" stroke="#63b8ff" d="M965.12,-334.36C952.66,-324.24 936.35,-310.86 922.12,-298.75 904.98,-284.16 904.56,-274.69 884.12,-265.25 782.22,-218.17 740.11,-266.24 634.12,-229.25 576.3,-209.07 566.88,-192.5 515.12,-159.75 492.83,-145.64 488.25,-140.62 466.12,-126.25 450.83,-116.32 433.74,-105.7 418.98,-96.68"/>
<polygon fill="#63b8ff" stroke="#63b8ff" points="420.84,-93.72 410.48,-91.51 417.2,-99.7 420.84,-93.72"/>
</a>
</g>
</g>
<!-- Node20&#45;&gt;Node16 -->
<g id="edge37_Node000020_Node000016" class="edge">
<title>Node20&#45;&gt;Node16</title>
<g id="a_edge37_Node000020_Node000016"><a xlink:title=" ">
<path fill="none" stroke="#63b8ff" d="M992.21,-334.32C998.82,-316.82 1006.52,-288.32 998.12,-265.25 972.13,-193.8 906.32,-130.48 867.68,-97.85"/>
<polygon fill="#63b8ff" stroke="#63b8ff" points="870.04,-95.27 860.11,-91.58 865.57,-100.65 870.04,-95.27"/>
</a>
</g>
</g>
<!-- Node21 -->
<g id="Node000021" class="node">
<title>Node21</title>
<g id="a_Node000021"><a xlink:href="std_8hpp.html" target="_top" xlink:title=" ">
<polygon fill="white" stroke="#666666" points="1375.5,-229.25 1262.75,-229.25 1262.75,-195.75 1375.5,-195.75 1375.5,-229.25"/>
<text text-anchor="start" x="1270.75" y="-215.75" font-family="Helvetica,sans-Serif" font-size="10.00">proxsuite/linalg/veg</text>
<text text-anchor="middle" x="1319.12" y="-203" font-family="Helvetica,sans-Serif" font-size="10.00">/internal/std.hpp</text>
</a>
</g>
</g>
<!-- Node20&#45;&gt;Node21 -->
<g id="edge32_Node000020_Node000021" class="edge">
<title>Node20&#45;&gt;Node21</title>
<g id="a_edge32_Node000020_Node000021"><a xlink:title=" ">
<path fill="none" stroke="#63b8ff" d="M1024.42,-334.38C1085.39,-309.37 1202.7,-261.25 1269.46,-233.87"/>
<polygon fill="#63b8ff" stroke="#63b8ff" points="1270.4,-237.27 1278.32,-230.24 1267.74,-230.79 1270.4,-237.27"/>
</a>
</g>
</g>
<!-- Node22 -->
<g id="Node000022" class="node">
<title>Node22</title>
<g id="a_Node000022"><a xlink:title=" ">
<polygon fill="#e0e0e0" stroke="#999999" points="988.75,-292.38 931.5,-292.38 931.5,-271.62 988.75,-271.62 988.75,-292.38"/>
<text text-anchor="middle" x="960.12" y="-278.88" font-family="Helvetica,sans-Serif" font-size="10.00">memory</text>
</a>
</g>
</g>
<!-- Node20&#45;&gt;Node22 -->
<g id="edge36_Node000020_Node000022" class="edge">
<title>Node20&#45;&gt;Node22</title>
<g id="a_edge36_Node000020_Node000022"><a xlink:title=" ">
<path fill="none" stroke="#63b8ff" d="M979.2,-334.5C975.75,-325.2 971.38,-313.38 967.69,-303.41"/>
<polygon fill="#63b8ff" stroke="#63b8ff" points="971.04,-302.4 964.29,-294.24 964.48,-304.83 971.04,-302.4"/>
</a>
</g>
</g>
<!-- Node21&#45;&gt;Node7 -->
<g id="edge33_Node000021_Node000007" class="edge">
<title>Node21&#45;&gt;Node7</title>
<g id="a_edge33_Node000021_Node000007"><a xlink:title=" ">
<path fill="none" stroke="#63b8ff" d="M1344.24,-195.42C1386.86,-166.23 1464.92,-103.24 1424.12,-56.75 1403.87,-33.67 1198.68,-18.69 1114.18,-13.45"/>
<polygon fill="#63b8ff" stroke="#63b8ff" points="1114.57,-9.97 1104.37,-12.86 1114.14,-16.96 1114.57,-9.97"/>
</a>
</g>
</g>
<!-- Node21&#45;&gt;Node14 -->
<g id="edge34_Node000021_Node000014" class="edge">
<title>Node21&#45;&gt;Node14</title>
<g id="a_edge34_Node000021_Node000014"><a xlink:title=" ">
<path fill="none" stroke="#63b8ff" d="M1325.54,-195.52C1335.56,-170.55 1354.92,-122.34 1365.94,-94.9"/>
<polygon fill="#63b8ff" stroke="#63b8ff" points="1369.18,-96.22 1369.66,-85.63 1362.68,-93.61 1369.18,-96.22"/>
</a>
</g>
</g>
<!-- Node23&#45;&gt;Node5 -->
<g id="edge42_Node000023_Node000005" class="edge">
<title>Node23&#45;&gt;Node5</title>
<g id="a_edge42_Node000023_Node000005"><a xlink:title=" ">
<path fill="none" stroke="#63b8ff" d="M474.95,-334.33C517.96,-323.93 573.75,-310.43 617.33,-299.89"/>
<polygon fill="#63b8ff" stroke="#63b8ff" points="618.05,-303.31 626.95,-297.56 616.4,-296.51 618.05,-303.31"/>
</a>
</g>
</g>
<!-- Node23&#45;&gt;Node13 -->
<g id="edge43_Node000023_Node000013" class="edge">
<title>Node23&#45;&gt;Node13</title>
<g id="a_edge43_Node000023_Node000013"><a xlink:title=" ">
<path fill="none" stroke="#63b8ff" d="M393.87,-334.7C367.17,-303.84 310.64,-232.23 292.12,-159.75 288.44,-145.32 284.67,-139.14 292.12,-126.25 299.53,-113.44 311.44,-103.53 324.21,-95.97"/>
<polygon fill="#63b8ff" stroke="#63b8ff" points="325.61,-99.19 332.74,-91.36 322.28,-93.03 325.61,-99.19"/>
</a>
</g>
</g>
<!-- Node23&#45;&gt;Node16 -->
<g id="edge45_Node000023_Node000016" class="edge">
<title>Node23&#45;&gt;Node16</title>
<g id="a_edge45_Node000023_Node000016"><a xlink:title=" ">
<path fill="none" stroke="#63b8ff" d="M410.62,-334.43C414.18,-315.98 422.27,-285.64 439.12,-265.25 523.54,-163.14 675.43,-112.02 765.49,-89.54"/>
<polygon fill="#63b8ff" stroke="#63b8ff" points="766.07,-93 774.95,-87.24 764.41,-86.2 766.07,-93"/>
</a>
</g>
</g>
<!-- Node23&#45;&gt;Node19 -->
<g id="edge44_Node000023_Node000019" class="edge">
<title>Node23&#45;&gt;Node19</title>
<g id="a_edge44_Node000023_Node000019"><a xlink:title=" ">
<path fill="none" stroke="#63b8ff" d="M425.66,-334.5C436.86,-324.29 451.38,-311.05 462.89,-300.54"/>
<polygon fill="#63b8ff" stroke="#63b8ff" points="465.21,-303.17 470.24,-293.84 460.49,-298 465.21,-303.17"/>
</a>
</g>
</g>
<!-- Node24&#45;&gt;Node13 -->
<g id="edge57_Node000024_Node000013" class="edge">
<title>Node24&#45;&gt;Node13</title>
<g id="a_edge57_Node000024_Node000013"><a xlink:title=" ">
<path fill="none" stroke="#63b8ff" d="M861.82,-483.51C712.57,-469.42 362.72,-430.55 263.12,-368.25 221.32,-342.1 192.12,-332.31 192.12,-283 192.12,-283 192.12,-283 192.12,-211.5 192.12,-150.79 256.75,-114.29 310.62,-94.42"/>
<polygon fill="#63b8ff" stroke="#63b8ff" points="311.54,-97.8 319.8,-91.17 309.2,-91.21 311.54,-97.8"/>
</a>
</g>
</g>
<!-- Node24&#45;&gt;Node16 -->
<g id="edge60_Node000024_Node000016" class="edge">
<title>Node24&#45;&gt;Node16</title>
<g id="a_edge60_Node000024_Node000016"><a xlink:title=" ">
<path fill="none" stroke="#63b8ff" d="M945.18,-473.39C962.39,-455.44 991.83,-426.07 1020.12,-404.25 1044.15,-385.72 1058.64,-391.51 1078.12,-368.25 1104.32,-336.98 1112.12,-323.79 1112.12,-283 1112.12,-283 1112.12,-283 1112.12,-211.5 1112.12,-153.43 1064.1,-154.05 1013.12,-126.25 995.07,-116.41 950.34,-103.24 910.62,-92.65"/>
<polygon fill="#63b8ff" stroke="#63b8ff" points="911.6,-89.29 901.04,-90.13 909.82,-96.06 911.6,-89.29"/>
</a>
</g>
</g>
<!-- Node24&#45;&gt;Node17 -->
<g id="edge49_Node000024_Node000017" class="edge">
<title>Node24&#45;&gt;Node17</title>
<g id="a_edge49_Node000024_Node000017"><a xlink:title=" ">
<path fill="none" stroke="#63b8ff" d="M862.03,-478.5C817.36,-469.73 764.78,-455.91 751.12,-437.75 738.87,-421.45 739.81,-397.99 743.29,-379.81"/>
<polygon fill="#63b8ff" stroke="#63b8ff" points="746.66,-380.75 745.49,-370.22 739.84,-379.19 746.66,-380.75"/>
</a>
</g>
</g>
<!-- Node24&#45;&gt;Node18 -->
<g id="edge58_Node000024_Node000018" class="edge">
<title>Node24&#45;&gt;Node18</title>
<g id="a_edge58_Node000024_Node000018"><a xlink:title=" ">
<path fill="none" stroke="#63b8ff" d="M927.55,-473.53C924.53,-456.21 918.93,-427.86 911.12,-404.25 898.95,-367.4 879.42,-326.55 867.48,-302.92"/>
<polygon fill="#63b8ff" stroke="#63b8ff" points="870.66,-301.45 862.99,-294.14 864.43,-304.64 870.66,-301.45"/>
</a>
</g>
</g>
<!-- Node24&#45;&gt;Node20 -->
<g id="edge56_Node000024_Node000020" class="edge">
<title>Node24&#45;&gt;Node20</title>
<g id="a_edge56_Node000024_Node000020"><a xlink:title=" ">
<path fill="none" stroke="#63b8ff" d="M936.54,-473.52C945.86,-450.31 963.24,-407.02 974.49,-379"/>
<polygon fill="#63b8ff" stroke="#63b8ff" points="977.71,-380.37 978.19,-369.79 971.21,-377.76 977.71,-380.37"/>
</a>
</g>
</g>
<!-- Node24&#45;&gt;Node21 -->
<g id="edge50_Node000024_Node000021" class="edge">
<title>Node24&#45;&gt;Node21</title>
<g id="a_edge50_Node000024_Node000021"><a xlink:title=" ">
<path fill="none" stroke="#63b8ff" d="M960.3,-473.43C978.06,-463.65 1000.76,-450.61 1020.12,-437.75 1040.6,-424.15 1043.68,-417.89 1064.12,-404.25 1090.63,-386.56 1099.84,-386.27 1126.12,-368.25 1188.33,-325.6 1256.02,-268.64 1292.39,-237.08"/>
<polygon fill="#63b8ff" stroke="#63b8ff" points="1294.56,-239.83 1299.8,-230.62 1289.96,-234.55 1294.56,-239.83"/>
</a>
</g>
</g>
<!-- Node25 -->
<g id="Node000025" class="node">
<title>Node25</title>
<g id="a_Node000025"><a xlink:href="invocable_8hpp.html" target="_top" xlink:title=" ">
<polygon fill="white" stroke="#666666" points="902.5,-437.75 759.75,-437.75 759.75,-404.25 902.5,-404.25 902.5,-437.75"/>
<text text-anchor="start" x="767.75" y="-424.25" font-family="Helvetica,sans-Serif" font-size="10.00">proxsuite/linalg/veg</text>
<text text-anchor="middle" x="831.12" y="-411.5" font-family="Helvetica,sans-Serif" font-size="10.00">/type_traits/invocable.hpp</text>
</a>
</g>
</g>
<!-- Node24&#45;&gt;Node25 -->
<g id="edge51_Node000024_Node000025" class="edge">
<title>Node24&#45;&gt;Node25</title>
<g id="a_edge51_Node000024_Node000025"><a xlink:title=" ">
<path fill="none" stroke="#63b8ff" d="M906.41,-473.33C893.68,-464.65 877.78,-453.81 863.88,-444.34"/>
<polygon fill="#63b8ff" stroke="#63b8ff" points="866.13,-441.63 855.9,-438.89 862.19,-447.41 866.13,-441.63"/>
</a>
</g>
</g>
<!-- Node24&#45;&gt;Node26 -->
<g id="edge59_Node000024_Node000026" class="edge">
<title>Node24&#45;&gt;Node26</title>
<g id="a_edge59_Node000024_Node000026"><a xlink:title=" ">
<path fill="none" stroke="#63b8ff" d="M970.13,-473.33C998.28,-461.95 1035.6,-446.87 1062.48,-436"/>
<polygon fill="#63b8ff" stroke="#63b8ff" points="1063.59,-439.33 1071.55,-432.34 1060.96,-432.84 1063.59,-439.33"/>
</a>
</g>
</g>
<!-- Node25&#45;&gt;Node5 -->
<g id="edge52_Node000025_Node000005" class="edge">
<title>Node25&#45;&gt;Node5</title>
<g id="a_edge52_Node000025_Node000005"><a xlink:title=" ">
<path fill="none" stroke="#63b8ff" d="M838.46,-403.9C845.67,-385.42 853.66,-355.06 839.12,-334.75 820.26,-308.41 787.2,-295.32 756.71,-288.87"/>
<polygon fill="#63b8ff" stroke="#63b8ff" points="757.59,-285.48 747.12,-287.07 756.3,-292.36 757.59,-285.48"/>
</a>
</g>
</g>
<!-- Node25&#45;&gt;Node13 -->
<g id="edge54_Node000025_Node000013" class="edge">
<title>Node25&#45;&gt;Node13</title>
<g id="a_edge54_Node000025_Node000013"><a xlink:title=" ">
<path fill="none" stroke="#63b8ff" d="M759.51,-412.75C620.06,-398.63 325.58,-368.75 325.12,-368.25 255.81,-291.48 328.79,-156.43 364.66,-100.2"/>
<polygon fill="#63b8ff" stroke="#63b8ff" points="367.53,-102.21 370.06,-91.92 361.66,-98.39 367.53,-102.21"/>
</a>
</g>
</g>
<!-- Node25&#45;&gt;Node16 -->
<g id="edge55_Node000025_Node000016" class="edge">
<title>Node25&#45;&gt;Node16</title>
<g id="a_edge55_Node000025_Node000016"><a xlink:title=" ">
<path fill="none" stroke="#63b8ff" d="M902.83,-411.78C960.03,-403.75 1033.93,-389.61 1055.12,-368.25 1082.47,-340.69 1074.12,-321.82 1074.12,-283 1074.12,-283 1074.12,-283 1074.12,-211.5 1074.12,-170.1 964.12,-121.37 894.32,-94.62"/>
<polygon fill="#63b8ff" stroke="#63b8ff" points="895.91,-91.48 885.32,-91.21 893.44,-98.03 895.91,-91.48"/>
</a>
</g>
</g>
<!-- Node25&#45;&gt;Node17 -->
<g id="edge53_Node000025_Node000017" class="edge">
<title>Node25&#45;&gt;Node17</title>
<g id="a_edge53_Node000025_Node000017"><a xlink:title=" ">
<path fill="none" stroke="#63b8ff" d="M812.17,-404C802.18,-395.57 789.74,-385.08 778.7,-375.77"/>
<polygon fill="#63b8ff" stroke="#63b8ff" points="781.28,-373.37 771.38,-369.59 776.77,-378.72 781.28,-373.37"/>
</a>
</g>
</g>
</g>
</svg>
