<?xml version="1.0" encoding="UTF-8" standalone="no"?>
<!DOCTYPE svg PUBLIC "-//W3C//DTD SVG 1.1//EN"
 "http://www.w3.org/Graphics/SVG/1.1/DTD/svg11.dtd">
<!-- Generated by graphviz version 8.0.4 (20230426.1303)
 -->
<!-- Title: include/proxsuite/linalg/veg/internal/typedefs.hpp Pages: 1 -->
<svg width="152pt" height="98pt"
 viewBox="0.00 0.00 152.25 98.25" xmlns="http://www.w3.org/2000/svg" xmlns:xlink="http://www.w3.org/1999/xlink">
<g id="graph0" class="graph" transform="scale(1 1) rotate(0) translate(4 94.25)">
<title>include/proxsuite/linalg/veg/internal/typedefs.hpp</title>
<!-- Node1 -->
<g id="node1" class="node">
<title>Node1</title>
<g id="a_node1"><a xlink:title=" ">
<polygon fill="#999999" stroke="#666666" points="144.25,-90.25 0,-90.25 0,-56.75 144.25,-56.75 144.25,-90.25"/>
<text text-anchor="start" x="8" y="-76.75" font-family="Helvetica,sans-Serif" font-size="10.00">include/proxsuite/linalg</text>
<text text-anchor="middle" x="72.12" y="-64" font-family="Helvetica,sans-Serif" font-size="10.00">/veg/internal/typedefs.hpp</text>
</a>
</g>
</g>
<!-- Node2 -->
<g id="node2" class="node">
<title>Node2</title>
<g id="a_node2"><a xlink:title=" ">
<polygon fill="#e0e0e0" stroke="#999999" points="62.62,-20.75 13.62,-20.75 13.62,0 62.62,0 62.62,-20.75"/>
<text text-anchor="middle" x="38.12" y="-7.25" font-family="Helvetica,sans-Serif" font-size="10.00">cstdint</text>
</a>
</g>
</g>
<!-- Node1&#45;&gt;Node2 -->
<g id="edge1" class="edge">
<title>Node1&#45;&gt;Node2</title>
<path fill="none" stroke="#63b8ff" d="M63.19,-56.44C58.82,-48.58 53.52,-39.06 48.93,-30.79"/>
<polygon fill="#63b8ff" stroke="#63b8ff" points="51.52,-29.25 43.6,-22.22 45.4,-32.66 51.52,-29.25"/>
</g>
<!-- Node3 -->
<g id="node3" class="node">
<title>Node3</title>
<g id="a_node3"><a xlink:title=" ">
<polygon fill="#e0e0e0" stroke="#999999" points="133.12,-20.75 81.12,-20.75 81.12,0 133.12,0 133.12,-20.75"/>
<text text-anchor="middle" x="107.12" y="-7.25" font-family="Helvetica,sans-Serif" font-size="10.00">cstddef</text>
</a>
</g>
</g>
<!-- Node1&#45;&gt;Node3 -->
<g id="edge2" class="edge">
<title>Node1&#45;&gt;Node3</title>
<path fill="none" stroke="#63b8ff" d="M81.32,-56.44C85.87,-48.49 91.4,-38.84 96.16,-30.52"/>
<polygon fill="#63b8ff" stroke="#63b8ff" points="99.56,-32.63 101.49,-22.22 93.48,-29.16 99.56,-32.63"/>
</g>
</g>
</svg>
