<?xml version="1.0" encoding="UTF-8" standalone="no"?>
<!DOCTYPE svg PUBLIC "-//W3C//DTD SVG 1.1//EN"
 "http://www.w3.org/Graphics/SVG/1.1/DTD/svg11.dtd">
<!-- Generated by graphviz version 5.0.1 (20220821.0811)
 -->
<!-- Title: include/proxsuite/linalg/veg/type_traits/alloc.hpp Pages: 1 -->
<svg width="1269pt" height="555pt"
 viewBox="0.00 0.00 1268.50 555.00" xmlns="http://www.w3.org/2000/svg" xmlns:xlink="http://www.w3.org/1999/xlink">
<g id="graph0" class="graph" transform="scale(1 1) rotate(0) translate(4 551)">
<title>include/proxsuite/linalg/veg/type_traits/alloc.hpp</title>
<!-- Node1 -->
<g id="node1" class="node">
<title>Node1</title>
<g id="a_node1"><a xlink:title=" ">
<polygon fill="#999999" stroke="#666666" points="768.5,-547 628.5,-547 628.5,-517 768.5,-517 768.5,-547"/>
<text text-anchor="start" x="636.5" y="-535" font-family="Helvetica,sans-Serif" font-size="10.00">include/proxsuite/linalg</text>
<text text-anchor="middle" x="698.5" y="-524" font-family="Helvetica,sans-Serif" font-size="10.00">/veg/type_traits/alloc.hpp</text>
</a>
</g>
</g>
<!-- Node2 -->
<g id="node2" class="node">
<title>Node2</title>
<g id="a_node2"><a xlink:href="has__asan_8hpp.html" target="_top" xlink:title=" ">
<polygon fill="white" stroke="#666666" points="127,-481 0,-481 0,-451 127,-451 127,-481"/>
<text text-anchor="start" x="8" y="-469" font-family="Helvetica,sans-Serif" font-size="10.00">proxsuite/linalg/veg</text>
<text text-anchor="middle" x="63.5" y="-458" font-family="Helvetica,sans-Serif" font-size="10.00">/internal/has_asan.hpp</text>
</a>
</g>
</g>
<!-- Node1&#45;&gt;Node2 -->
<g id="edge1" class="edge">
<title>Node1&#45;&gt;Node2</title>
<path fill="none" stroke="#63b8ff" d="M628.37,-526.69C522.56,-519.75 315.91,-504.43 141.5,-481 140.2,-480.82 138.88,-480.64 137.56,-480.46"/>
<polygon fill="#63b8ff" stroke="#63b8ff" points="137.69,-476.94 127.28,-478.92 136.65,-483.86 137.69,-476.94"/>
</g>
<!-- Node3 -->
<g id="node3" class="node">
<title>Node3</title>
<g id="a_node3"><a xlink:href="ref_8hpp.html" target="_top" xlink:title=" ">
<polygon fill="white" stroke="#666666" points="613,-415 500,-415 500,-385 613,-385 613,-415"/>
<text text-anchor="start" x="508" y="-403" font-family="Helvetica,sans-Serif" font-size="10.00">proxsuite/linalg/veg</text>
<text text-anchor="middle" x="556.5" y="-392" font-family="Helvetica,sans-Serif" font-size="10.00">/ref.hpp</text>
</a>
</g>
</g>
<!-- Node1&#45;&gt;Node3 -->
<g id="edge2" class="edge">
<title>Node1&#45;&gt;Node3</title>
<path fill="none" stroke="#63b8ff" d="M683.03,-516.84C658.07,-493.98 608.74,-448.82 579.6,-422.14"/>
<polygon fill="#63b8ff" stroke="#63b8ff" points="581.69,-419.31 571.95,-415.14 576.96,-424.48 581.69,-419.31"/>
</g>
<!-- Node6 -->
<g id="node6" class="node">
<title>Node6</title>
<g id="a_node6"><a xlink:href="typedefs_8hpp.html" target="_top" xlink:title=" ">
<polygon fill="white" stroke="#666666" points="837.5,-85 713.5,-85 713.5,-55 837.5,-55 837.5,-85"/>
<text text-anchor="start" x="721.5" y="-73" font-family="Helvetica,sans-Serif" font-size="10.00">proxsuite/linalg/veg</text>
<text text-anchor="middle" x="775.5" y="-62" font-family="Helvetica,sans-Serif" font-size="10.00">/internal/typedefs.hpp</text>
</a>
</g>
</g>
<!-- Node1&#45;&gt;Node6 -->
<g id="edge44" class="edge">
<title>Node1&#45;&gt;Node6</title>
<path fill="none" stroke="#63b8ff" d="M628.25,-520.36C505.67,-498.43 271.91,-439.81 339.5,-319 394.25,-221.15 452.27,-233.07 554.5,-187 604.49,-164.47 624.83,-178.1 672.5,-151 689.73,-141.2 690.08,-133.45 705.5,-121 718.44,-110.56 733.36,-99.75 746.09,-90.86"/>
<polygon fill="#63b8ff" stroke="#63b8ff" points="748.27,-93.6 754.51,-85.04 744.29,-87.85 748.27,-93.6"/>
</g>
<!-- Node10 -->
<g id="node10" class="node">
<title>Node10</title>
<g id="a_node10"><a xlink:href="macros_8hpp.html" target="_top" xlink:title=" ">
<polygon fill="white" stroke="#666666" points="663,-151 546,-151 546,-121 663,-121 663,-151"/>
<text text-anchor="start" x="554" y="-139" font-family="Helvetica,sans-Serif" font-size="10.00">proxsuite/linalg/veg</text>
<text text-anchor="middle" x="604.5" y="-128" font-family="Helvetica,sans-Serif" font-size="10.00">/internal/macros.hpp</text>
</a>
</g>
</g>
<!-- Node1&#45;&gt;Node10 -->
<g id="edge45" class="edge">
<title>Node1&#45;&gt;Node10</title>
<path fill="none" stroke="#63b8ff" d="M628.43,-529.4C522.51,-525.89 327.62,-514.9 267.5,-481 228.32,-458.9 205.5,-445.98 205.5,-401 205.5,-401 205.5,-401 205.5,-333 205.5,-187.66 421.41,-150.09 535.58,-140.38"/>
<polygon fill="#63b8ff" stroke="#63b8ff" points="535.94,-143.86 545.63,-139.57 535.38,-136.88 535.94,-143.86"/>
</g>
<!-- Node13 -->
<g id="node13" class="node">
<title>Node13</title>
<g id="a_node13"><a xlink:href="prologue_8hpp.html" target="_top" xlink:title=" ">
<polygon fill="white" stroke="#666666" points="1081.5,-85 957.5,-85 957.5,-55 1081.5,-55 1081.5,-85"/>
<text text-anchor="start" x="965.5" y="-73" font-family="Helvetica,sans-Serif" font-size="10.00">proxsuite/linalg/veg</text>
<text text-anchor="middle" x="1019.5" y="-62" font-family="Helvetica,sans-Serif" font-size="10.00">/internal/prologue.hpp</text>
</a>
</g>
</g>
<!-- Node1&#45;&gt;Node13 -->
<g id="edge59" class="edge">
<title>Node1&#45;&gt;Node13</title>
<path fill="none" stroke="#63b8ff" d="M768.54,-529.4C919.2,-524.04 1260.5,-500.9 1260.5,-401 1260.5,-401 1260.5,-401 1260.5,-201 1260.5,-123.52 1162.81,-92 1091.83,-79.33"/>
<polygon fill="#63b8ff" stroke="#63b8ff" points="1092.01,-75.81 1081.56,-77.59 1090.84,-82.71 1092.01,-75.81"/>
</g>
<!-- Node15 -->
<g id="node15" class="node">
<title>Node15</title>
<g id="a_node15"><a xlink:href="epilogue_8hpp.html" target="_top" xlink:title=" ">
<polygon fill="white" stroke="#666666" points="341,-85 218,-85 218,-55 341,-55 341,-85"/>
<text text-anchor="start" x="226" y="-73" font-family="Helvetica,sans-Serif" font-size="10.00">proxsuite/linalg/veg</text>
<text text-anchor="middle" x="279.5" y="-62" font-family="Helvetica,sans-Serif" font-size="10.00">/internal/epilogue.hpp</text>
</a>
</g>
</g>
<!-- Node1&#45;&gt;Node15 -->
<g id="edge61" class="edge">
<title>Node1&#45;&gt;Node15</title>
<path fill="none" stroke="#63b8ff" d="M628.46,-530.17C513.13,-527.73 289.19,-518.2 220.5,-481 180.22,-459.18 155.5,-446.81 155.5,-401 155.5,-401 155.5,-401 155.5,-201 155.5,-150.39 205.31,-111.72 241.79,-90.17"/>
<polygon fill="#63b8ff" stroke="#63b8ff" points="243.79,-93.06 250.74,-85.07 240.32,-86.98 243.79,-93.06"/>
</g>
<!-- Node16 -->
<g id="node16" class="node">
<title>Node16</title>
<g id="a_node16"><a xlink:href="constructible_8hpp.html" target="_top" xlink:title=" ">
<polygon fill="white" stroke="#666666" points="872,-349 713,-349 713,-319 872,-319 872,-349"/>
<text text-anchor="start" x="721" y="-337" font-family="Helvetica,sans-Serif" font-size="10.00">proxsuite/linalg/veg</text>
<text text-anchor="middle" x="792.5" y="-326" font-family="Helvetica,sans-Serif" font-size="10.00">/type_traits/constructible.hpp</text>
</a>
</g>
</g>
<!-- Node1&#45;&gt;Node16 -->
<g id="edge38" class="edge">
<title>Node1&#45;&gt;Node16</title>
<path fill="none" stroke="#63b8ff" d="M705.26,-516.9C721.24,-483.58 761.5,-399.64 781.24,-358.49"/>
<polygon fill="#63b8ff" stroke="#63b8ff" points="784.51,-359.76 785.67,-349.23 778.19,-356.73 784.51,-359.76"/>
</g>
<!-- Node21 -->
<g id="node21" class="node">
<title>Node21</title>
<g id="a_node21"><a xlink:href="assignable_8hpp.html" target="_top" xlink:title=" ">
<polygon fill="white" stroke="#666666" points="1082,-349 933,-349 933,-319 1082,-319 1082,-349"/>
<text text-anchor="start" x="941" y="-337" font-family="Helvetica,sans-Serif" font-size="10.00">proxsuite/linalg/veg</text>
<text text-anchor="middle" x="1007.5" y="-326" font-family="Helvetica,sans-Serif" font-size="10.00">/type_traits/assignable.hpp</text>
</a>
</g>
</g>
<!-- Node1&#45;&gt;Node21 -->
<g id="edge39" class="edge">
<title>Node1&#45;&gt;Node21</title>
<path fill="none" stroke="#63b8ff" d="M768.65,-526.13C895.45,-515.62 1154.24,-485.8 1203.5,-415 1235.69,-368.73 1158.96,-349.18 1092.26,-340.95"/>
<polygon fill="#63b8ff" stroke="#63b8ff" points="1092.42,-337.45 1082.08,-339.77 1091.61,-344.4 1092.42,-337.45"/>
</g>
<!-- Node22 -->
<g id="node22" class="node">
<title>Node22</title>
<g id="a_node22"><a xlink:href="placement_8hpp.html" target="_top" xlink:title=" ">
<polygon fill="white" stroke="#666666" points="961,-481 824,-481 824,-451 961,-451 961,-481"/>
<text text-anchor="start" x="832" y="-469" font-family="Helvetica,sans-Serif" font-size="10.00">proxsuite/linalg/veg</text>
<text text-anchor="middle" x="892.5" y="-458" font-family="Helvetica,sans-Serif" font-size="10.00">/memory/placement.hpp</text>
</a>
</g>
</g>
<!-- Node1&#45;&gt;Node22 -->
<g id="edge46" class="edge">
<title>Node1&#45;&gt;Node22</title>
<path fill="none" stroke="#63b8ff" d="M741.07,-516.95C770.26,-507.33 809.17,-494.49 840.24,-484.24"/>
<polygon fill="#63b8ff" stroke="#63b8ff" points="841.63,-487.47 850.03,-481.01 839.43,-480.82 841.63,-487.47"/>
</g>
<!-- Node25 -->
<g id="node25" class="node">
<title>Node25</title>
<g id="a_node25"><a xlink:title=" ">
<polygon fill="#e0e0e0" stroke="#999999" points="1194.5,-409.5 1144.5,-409.5 1144.5,-390.5 1194.5,-390.5 1194.5,-409.5"/>
<text text-anchor="middle" x="1169.5" y="-397.5" font-family="Helvetica,sans-Serif" font-size="10.00">cstring</text>
</a>
</g>
</g>
<!-- Node1&#45;&gt;Node25 -->
<g id="edge60" class="edge">
<title>Node1&#45;&gt;Node25</title>
<path fill="none" stroke="#63b8ff" d="M768.71,-522.04C824.17,-514.03 903.17,-500.51 970.5,-481 1033.86,-462.64 1104.84,-431.38 1142.54,-413.86"/>
<polygon fill="#63b8ff" stroke="#63b8ff" points="1144.25,-416.93 1151.82,-409.52 1141.28,-410.59 1144.25,-416.93"/>
</g>
<!-- Node4 -->
<g id="node4" class="node">
<title>Node4</title>
<g id="a_node4"><a xlink:href="tags_8hpp.html" target="_top" xlink:title=" ">
<polygon fill="white" stroke="#666666" points="465,-349 348,-349 348,-319 465,-319 465,-349"/>
<text text-anchor="start" x="356" y="-337" font-family="Helvetica,sans-Serif" font-size="10.00">proxsuite/linalg/veg</text>
<text text-anchor="middle" x="406.5" y="-326" font-family="Helvetica,sans-Serif" font-size="10.00">/type_traits/tags.hpp</text>
</a>
</g>
</g>
<!-- Node3&#45;&gt;Node4 -->
<g id="edge3" class="edge">
<title>Node3&#45;&gt;Node4</title>
<path fill="none" stroke="#63b8ff" d="M523.58,-384.95C501.6,-375.58 472.49,-363.16 448.79,-353.05"/>
<polygon fill="#63b8ff" stroke="#63b8ff" points="449.91,-349.72 439.34,-349.01 447.17,-356.16 449.91,-349.72"/>
</g>
<!-- Node3&#45;&gt;Node13 -->
<g id="edge36" class="edge">
<title>Node3&#45;&gt;Node13</title>
<path fill="none" stroke="#63b8ff" d="M552,-384.92C543.81,-356.28 530.13,-290.75 562.5,-253 616.46,-190.07 666.75,-242.87 745.5,-217 778.18,-206.27 855.31,-167.48 885.5,-151 907.58,-138.95 911.96,-133.99 933.5,-121 950.69,-110.64 969.99,-99.38 985.94,-90.18"/>
<polygon fill="#63b8ff" stroke="#63b8ff" points="987.99,-93.04 994.91,-85.02 984.5,-86.97 987.99,-93.04"/>
</g>
<!-- Node3&#45;&gt;Node15 -->
<g id="edge37" class="edge">
<title>Node3&#45;&gt;Node15</title>
<path fill="none" stroke="#63b8ff" d="M499.9,-392.54C443.54,-384.99 362.23,-370.69 339.5,-349 267.98,-280.76 271.63,-149.22 276.62,-95.13"/>
<polygon fill="#63b8ff" stroke="#63b8ff" points="280.11,-95.41 277.64,-85.1 273.14,-94.69 280.11,-95.41"/>
</g>
<!-- Node3&#45;&gt;Node16 -->
<g id="edge23" class="edge">
<title>Node3&#45;&gt;Node16</title>
<path fill="none" stroke="#63b8ff" d="M608.29,-384.95C644.41,-375.16 692.77,-362.05 730.88,-351.71"/>
<polygon fill="#63b8ff" stroke="#63b8ff" points="732.09,-355.01 740.83,-349.01 730.26,-348.25 732.09,-355.01"/>
</g>
<!-- Node18 -->
<g id="node18" class="node">
<title>Node18</title>
<g id="a_node18"><a xlink:href="address_8hpp.html" target="_top" xlink:title=" ">
<polygon fill="white" stroke="#666666" points="695,-349 572,-349 572,-319 695,-319 695,-349"/>
<text text-anchor="start" x="580" y="-337" font-family="Helvetica,sans-Serif" font-size="10.00">proxsuite/linalg/veg</text>
<text text-anchor="middle" x="633.5" y="-326" font-family="Helvetica,sans-Serif" font-size="10.00">/memory/address.hpp</text>
</a>
</g>
</g>
<!-- Node3&#45;&gt;Node18 -->
<g id="edge28" class="edge">
<title>Node3&#45;&gt;Node18</title>
<path fill="none" stroke="#63b8ff" d="M573.59,-384.8C583.86,-376.26 597.1,-365.25 608.53,-355.75"/>
<polygon fill="#63b8ff" stroke="#63b8ff" points="611.01,-358.25 616.46,-349.16 606.53,-352.86 611.01,-358.25"/>
</g>
<!-- Node5 -->
<g id="node5" class="node">
<title>Node5</title>
<g id="a_node5"><a xlink:href="veg_2type__traits_2core_8hpp.html" target="_top" xlink:title=" ">
<polygon fill="white" stroke="#666666" points="803,-283 686,-283 686,-253 803,-253 803,-283"/>
<text text-anchor="start" x="694" y="-271" font-family="Helvetica,sans-Serif" font-size="10.00">proxsuite/linalg/veg</text>
<text text-anchor="middle" x="744.5" y="-260" font-family="Helvetica,sans-Serif" font-size="10.00">/type_traits/core.hpp</text>
</a>
</g>
</g>
<!-- Node4&#45;&gt;Node5 -->
<g id="edge4" class="edge">
<title>Node4&#45;&gt;Node5</title>
<path fill="none" stroke="#63b8ff" d="M465.38,-321.85C523.96,-310.76 613.82,-293.74 675.67,-282.03"/>
<polygon fill="#63b8ff" stroke="#63b8ff" points="676.56,-285.43 685.73,-280.13 675.26,-278.55 676.56,-285.43"/>
</g>
<!-- Node4&#45;&gt;Node13 -->
<g id="edge21" class="edge">
<title>Node4&#45;&gt;Node13</title>
<path fill="none" stroke="#63b8ff" d="M423.64,-318.78C446.38,-300.66 488.45,-269.71 529.5,-253 605.47,-222.08 635.04,-249.15 710.5,-217 731.94,-207.87 733.1,-198.27 753.5,-187 789.41,-167.15 800.89,-167.38 838.5,-151 868.41,-137.97 875.67,-134.22 905.5,-121 929.42,-110.4 956.22,-98.64 977.82,-89.19"/>
<polygon fill="#63b8ff" stroke="#63b8ff" points="979.28,-92.37 987.04,-85.16 976.47,-85.96 979.28,-92.37"/>
</g>
<!-- Node4&#45;&gt;Node15 -->
<g id="edge22" class="edge">
<title>Node4&#45;&gt;Node15</title>
<path fill="none" stroke="#63b8ff" d="M385.93,-318.87C374.12,-309.82 359.82,-297.15 350.5,-283 310.41,-222.15 290.94,-136.55 283.4,-95.21"/>
<polygon fill="#63b8ff" stroke="#63b8ff" points="286.83,-94.49 281.66,-85.24 279.93,-95.69 286.83,-94.49"/>
</g>
<!-- Node5&#45;&gt;Node6 -->
<g id="edge5" class="edge">
<title>Node5&#45;&gt;Node6</title>
<path fill="none" stroke="#63b8ff" d="M746.73,-252.9C751.97,-219.79 765.11,-136.7 771.66,-95.27"/>
<polygon fill="#63b8ff" stroke="#63b8ff" points="775.14,-95.66 773.25,-85.23 768.23,-94.56 775.14,-95.66"/>
</g>
<!-- Node9 -->
<g id="node9" class="node">
<title>Node9</title>
<g id="a_node9"><a xlink:href="integer__seq_8hpp.html" target="_top" xlink:title=" ">
<polygon fill="white" stroke="#666666" points="701.5,-217 563.5,-217 563.5,-187 701.5,-187 701.5,-217"/>
<text text-anchor="start" x="571.5" y="-205" font-family="Helvetica,sans-Serif" font-size="10.00">proxsuite/linalg/veg</text>
<text text-anchor="middle" x="632.5" y="-194" font-family="Helvetica,sans-Serif" font-size="10.00">/internal/integer_seq.hpp</text>
</a>
</g>
</g>
<!-- Node5&#45;&gt;Node9 -->
<g id="edge8" class="edge">
<title>Node5&#45;&gt;Node9</title>
<path fill="none" stroke="#63b8ff" d="M719.92,-252.95C704.02,-243.87 683.12,-231.93 665.74,-222"/>
<polygon fill="#63b8ff" stroke="#63b8ff" points="667.44,-218.93 657.02,-217.01 663.97,-225.01 667.44,-218.93"/>
</g>
<!-- Node5&#45;&gt;Node13 -->
<g id="edge19" class="edge">
<title>Node5&#45;&gt;Node13</title>
<path fill="none" stroke="#63b8ff" d="M765.08,-252.91C789.26,-236.53 830.75,-208.93 867.5,-187 896.19,-169.88 906.39,-170.53 933.5,-151 957.89,-133.43 982.71,-109.56 999.37,-92.48"/>
<polygon fill="#63b8ff" stroke="#63b8ff" points="1002.01,-94.79 1006.43,-85.16 996.97,-89.93 1002.01,-94.79"/>
</g>
<!-- Node5&#45;&gt;Node15 -->
<g id="edge20" class="edge">
<title>Node5&#45;&gt;Node15</title>
<path fill="none" stroke="#63b8ff" d="M685.77,-255.47C624.71,-243.23 536.02,-224.61 521.5,-217 465.79,-187.79 471.24,-153.69 417.5,-121 394.73,-107.15 367.53,-96.27 343.32,-88.25"/>
<polygon fill="#63b8ff" stroke="#63b8ff" points="344.1,-84.82 333.51,-85.09 341.96,-91.48 344.1,-84.82"/>
</g>
<!-- Node7 -->
<g id="node7" class="node">
<title>Node7</title>
<g id="a_node7"><a xlink:title=" ">
<polygon fill="#e0e0e0" stroke="#999999" points="1002.5,-19 952.5,-19 952.5,0 1002.5,0 1002.5,-19"/>
<text text-anchor="middle" x="977.5" y="-7" font-family="Helvetica,sans-Serif" font-size="10.00">cstdint</text>
</a>
</g>
</g>
<!-- Node6&#45;&gt;Node7 -->
<g id="edge6" class="edge">
<title>Node6&#45;&gt;Node7</title>
<path fill="none" stroke="#63b8ff" d="M823.88,-54.99C860.48,-44.39 909.87,-30.09 942.65,-20.59"/>
<polygon fill="#63b8ff" stroke="#63b8ff" points="943.63,-23.95 952.26,-17.81 941.68,-17.23 943.63,-23.95"/>
</g>
<!-- Node8 -->
<g id="node8" class="node">
<title>Node8</title>
<g id="a_node8"><a xlink:title=" ">
<polygon fill="#e0e0e0" stroke="#999999" points="802,-19 749,-19 749,0 802,0 802,-19"/>
<text text-anchor="middle" x="775.5" y="-7" font-family="Helvetica,sans-Serif" font-size="10.00">cstddef</text>
</a>
</g>
</g>
<!-- Node6&#45;&gt;Node8 -->
<g id="edge7" class="edge">
<title>Node6&#45;&gt;Node8</title>
<path fill="none" stroke="#63b8ff" d="M775.5,-54.84C775.5,-47.21 775.5,-37.7 775.5,-29.45"/>
<polygon fill="#63b8ff" stroke="#63b8ff" points="779,-29.27 775.5,-19.27 772,-29.27 779,-29.27"/>
</g>
<!-- Node9&#45;&gt;Node6 -->
<g id="edge9" class="edge">
<title>Node9&#45;&gt;Node6</title>
<path fill="none" stroke="#63b8ff" d="M656.28,-186.86C671.12,-177.53 690.22,-164.57 705.5,-151 725.36,-133.36 745.01,-110.27 758.41,-93.44"/>
<polygon fill="#63b8ff" stroke="#63b8ff" points="761.41,-95.29 764.82,-85.26 755.9,-90.97 761.41,-95.29"/>
</g>
<!-- Node9&#45;&gt;Node10 -->
<g id="edge10" class="edge">
<title>Node9&#45;&gt;Node10</title>
<path fill="none" stroke="#63b8ff" d="M626.29,-186.8C622.91,-179.09 618.66,-169.37 614.81,-160.56"/>
<polygon fill="#63b8ff" stroke="#63b8ff" points="617.91,-158.92 610.7,-151.16 611.5,-161.73 617.91,-158.92"/>
</g>
<!-- Node9&#45;&gt;Node13 -->
<g id="edge17" class="edge">
<title>Node9&#45;&gt;Node13</title>
<path fill="none" stroke="#63b8ff" d="M673.21,-187C720.04,-170.93 799.25,-143.84 867.5,-121 900.4,-109.99 937.37,-97.82 966.61,-88.25"/>
<polygon fill="#63b8ff" stroke="#63b8ff" points="967.8,-91.54 976.22,-85.11 965.63,-84.89 967.8,-91.54"/>
</g>
<!-- Node9&#45;&gt;Node15 -->
<g id="edge18" class="edge">
<title>Node9&#45;&gt;Node15</title>
<path fill="none" stroke="#63b8ff" d="M603.77,-186.95C584.68,-177.36 559.22,-164.06 537.5,-151 517.22,-138.8 515.17,-130.52 493.5,-121 480.3,-115.2 408.06,-98.81 351.12,-86.37"/>
<polygon fill="#63b8ff" stroke="#63b8ff" points="351.56,-82.88 341.04,-84.17 350.07,-89.72 351.56,-82.88"/>
</g>
<!-- Node10&#45;&gt;Node6 -->
<g id="edge12" class="edge">
<title>Node10&#45;&gt;Node6</title>
<path fill="none" stroke="#63b8ff" d="M642.03,-120.95C667.42,-111.45 701.16,-98.82 728.36,-88.64"/>
<polygon fill="#63b8ff" stroke="#63b8ff" points="729.92,-91.8 738.06,-85.01 727.47,-85.24 729.92,-91.8"/>
</g>
<!-- Node11 -->
<g id="node11" class="node">
<title>Node11</title>
<g id="a_node11"><a xlink:href="hedley_8ext_8hpp.html" target="_top" xlink:title=" ">
<polygon fill="white" stroke="#666666" points="534,-85 359,-85 359,-55 534,-55 534,-85"/>
<text text-anchor="start" x="367" y="-73" font-family="Helvetica,sans-Serif" font-size="10.00">proxsuite/linalg/veg</text>
<text text-anchor="middle" x="446.5" y="-62" font-family="Helvetica,sans-Serif" font-size="10.00">/internal/external/hedley.ext.hpp</text>
</a>
</g>
</g>
<!-- Node10&#45;&gt;Node11 -->
<g id="edge11" class="edge">
<title>Node10&#45;&gt;Node11</title>
<path fill="none" stroke="#63b8ff" d="M569.83,-120.95C546.47,-111.49 515.46,-98.93 490.39,-88.78"/>
<polygon fill="#63b8ff" stroke="#63b8ff" points="491.68,-85.52 481.09,-85.01 489.05,-92.01 491.68,-85.52"/>
</g>
<!-- Node12 -->
<g id="node12" class="node">
<title>Node12</title>
<g id="a_node12"><a xlink:href="preprocessor_8hpp.html" target="_top" xlink:title=" ">
<polygon fill="white" stroke="#666666" points="695,-85 552,-85 552,-55 695,-55 695,-85"/>
<text text-anchor="start" x="560" y="-73" font-family="Helvetica,sans-Serif" font-size="10.00">proxsuite/linalg/veg</text>
<text text-anchor="middle" x="623.5" y="-62" font-family="Helvetica,sans-Serif" font-size="10.00">/internal/preprocessor.hpp</text>
</a>
</g>
</g>
<!-- Node10&#45;&gt;Node12 -->
<g id="edge13" class="edge">
<title>Node10&#45;&gt;Node12</title>
<path fill="none" stroke="#63b8ff" d="M608.72,-120.8C610.98,-113.17 613.83,-103.57 616.42,-94.84"/>
<polygon fill="#63b8ff" stroke="#63b8ff" points="619.8,-95.75 619.3,-85.16 613.09,-93.75 619.8,-95.75"/>
</g>
<!-- Node10&#45;&gt;Node13 -->
<g id="edge14" class="edge">
<title>Node10&#45;&gt;Node13</title>
<path fill="none" stroke="#63b8ff" d="M663.07,-127.4C729.57,-118.57 841.53,-103.08 947.31,-85.16"/>
<polygon fill="#63b8ff" stroke="#63b8ff" points="947.93,-88.6 957.19,-83.47 946.75,-81.7 947.93,-88.6"/>
</g>
<!-- Node14 -->
<g id="node14" class="node">
<title>Node14</title>
<g id="a_node14"><a xlink:title=" ">
<polygon fill="#e0e0e0" stroke="#999999" points="939,-79.5 856,-79.5 856,-60.5 939,-60.5 939,-79.5"/>
<text text-anchor="middle" x="897.5" y="-67.5" font-family="Helvetica,sans-Serif" font-size="10.00">initializer_list</text>
</a>
</g>
</g>
<!-- Node10&#45;&gt;Node14 -->
<g id="edge15" class="edge">
<title>Node10&#45;&gt;Node14</title>
<path fill="none" stroke="#63b8ff" d="M663.42,-123.92C712.56,-114.42 784.35,-99.94 846.5,-85 850.15,-84.12 853.94,-83.17 857.72,-82.18"/>
<polygon fill="#63b8ff" stroke="#63b8ff" points="858.89,-85.5 867.65,-79.54 857.08,-78.73 858.89,-85.5"/>
</g>
<!-- Node10&#45;&gt;Node15 -->
<g id="edge16" class="edge">
<title>Node10&#45;&gt;Node15</title>
<path fill="none" stroke="#63b8ff" d="M545.99,-123.49C496.72,-113.79 424.09,-99.5 350.93,-85.08"/>
<polygon fill="#63b8ff" stroke="#63b8ff" points="351.56,-81.64 341.07,-83.14 350.21,-88.51 351.56,-81.64"/>
</g>
<!-- Node16&#45;&gt;Node5 -->
<g id="edge24" class="edge">
<title>Node16&#45;&gt;Node5</title>
<path fill="none" stroke="#63b8ff" d="M781.85,-318.8C775.82,-310.76 768.14,-300.53 761.32,-291.43"/>
<polygon fill="#63b8ff" stroke="#63b8ff" points="763.92,-289.06 755.12,-283.16 758.32,-293.26 763.92,-289.06"/>
</g>
<!-- Node16&#45;&gt;Node13 -->
<g id="edge25" class="edge">
<title>Node16&#45;&gt;Node13</title>
<path fill="none" stroke="#63b8ff" d="M807.96,-318.72C818.61,-308.8 833.04,-295.23 845.5,-283 888.12,-241.17 891.44,-222.44 939.5,-187 967.66,-166.23 989.46,-179.67 1009.5,-151 1020.75,-134.91 1022.67,-112.43 1022.11,-95.4"/>
<polygon fill="#63b8ff" stroke="#63b8ff" points="1025.59,-94.87 1021.46,-85.11 1018.6,-95.32 1025.59,-94.87"/>
</g>
<!-- Node16&#45;&gt;Node15 -->
<g id="edge27" class="edge">
<title>Node16&#45;&gt;Node15</title>
<path fill="none" stroke="#63b8ff" d="M753.8,-318.93C730.93,-309.95 701.78,-297.32 677.5,-283 658.66,-271.89 658.3,-262.28 638.5,-253 572.51,-222.05 543.35,-250.27 478.5,-217 464.21,-209.67 383.62,-130.26 370.5,-121 354.1,-109.42 334.74,-98.46 318.11,-89.76"/>
<polygon fill="#63b8ff" stroke="#63b8ff" points="319.68,-86.63 309.18,-85.17 316.48,-92.86 319.68,-86.63"/>
</g>
<!-- Node17 -->
<g id="node17" class="node">
<title>Node17</title>
<g id="a_node17"><a xlink:title=" ">
<polygon fill="#e0e0e0" stroke="#999999" points="1005,-277.5 936,-277.5 936,-258.5 1005,-258.5 1005,-277.5"/>
<text text-anchor="middle" x="970.5" y="-265.5" font-family="Helvetica,sans-Serif" font-size="10.00">type_traits</text>
</a>
</g>
</g>
<!-- Node16&#45;&gt;Node17 -->
<g id="edge26" class="edge">
<title>Node16&#45;&gt;Node17</title>
<path fill="none" stroke="#63b8ff" d="M831.56,-318.95C863.19,-307.58 907.26,-291.74 937.23,-280.96"/>
<polygon fill="#63b8ff" stroke="#63b8ff" points="938.59,-284.19 946.81,-277.52 936.22,-277.61 938.59,-284.19"/>
</g>
<!-- Node18&#45;&gt;Node5 -->
<g id="edge29" class="edge">
<title>Node18&#45;&gt;Node5</title>
<path fill="none" stroke="#63b8ff" d="M657.86,-318.95C673.47,-309.95 693.95,-298.14 711.08,-288.27"/>
<polygon fill="#63b8ff" stroke="#63b8ff" points="713.28,-291.04 720.2,-283.01 709.79,-284.98 713.28,-291.04"/>
</g>
<!-- Node18&#45;&gt;Node13 -->
<g id="edge33" class="edge">
<title>Node18&#45;&gt;Node13</title>
<path fill="none" stroke="#63b8ff" d="M695.39,-319.54C738.92,-309.36 792.77,-295.11 812.5,-283 837.16,-267.86 877.83,-204.99 900.5,-187 926.07,-166.72 940.41,-173.02 964.5,-151 982.45,-134.59 997.64,-111.27 1007.47,-94.04"/>
<polygon fill="#63b8ff" stroke="#63b8ff" points="1010.6,-95.62 1012.37,-85.17 1004.47,-92.23 1010.6,-95.62"/>
</g>
<!-- Node18&#45;&gt;Node15 -->
<g id="edge35" class="edge">
<title>Node18&#45;&gt;Node15</title>
<path fill="none" stroke="#63b8ff" d="M607.24,-318.92C569.92,-298.45 500.03,-258.38 445.5,-217 395.39,-178.97 389.12,-162.1 341.5,-121 329.99,-111.06 316.93,-100.44 305.77,-91.55"/>
<polygon fill="#63b8ff" stroke="#63b8ff" points="307.68,-88.6 297.67,-85.13 303.33,-94.08 307.68,-88.6"/>
</g>
<!-- Node19 -->
<g id="node19" class="node">
<title>Node19</title>
<g id="a_node19"><a xlink:href="std_8hpp.html" target="_top" xlink:title=" ">
<polygon fill="white" stroke="#666666" points="1061,-217 948,-217 948,-187 1061,-187 1061,-217"/>
<text text-anchor="start" x="956" y="-205" font-family="Helvetica,sans-Serif" font-size="10.00">proxsuite/linalg/veg</text>
<text text-anchor="middle" x="1004.5" y="-194" font-family="Helvetica,sans-Serif" font-size="10.00">/internal/std.hpp</text>
</a>
</g>
</g>
<!-- Node18&#45;&gt;Node19 -->
<g id="edge30" class="edge">
<title>Node18&#45;&gt;Node19</title>
<path fill="none" stroke="#63b8ff" d="M695.13,-320.14C747.44,-308.92 818.23,-292.92 845.5,-283 891.22,-266.37 940.85,-239.93 972.28,-222.04"/>
<polygon fill="#63b8ff" stroke="#63b8ff" points="974.11,-225.03 981.04,-217.01 970.63,-218.96 974.11,-225.03"/>
</g>
<!-- Node20 -->
<g id="node20" class="node">
<title>Node20</title>
<g id="a_node20"><a xlink:title=" ">
<polygon fill="#e0e0e0" stroke="#999999" points="629.5,-277.5 571.5,-277.5 571.5,-258.5 629.5,-258.5 629.5,-277.5"/>
<text text-anchor="middle" x="600.5" y="-265.5" font-family="Helvetica,sans-Serif" font-size="10.00">memory</text>
</a>
</g>
</g>
<!-- Node18&#45;&gt;Node20 -->
<g id="edge34" class="edge">
<title>Node18&#45;&gt;Node20</title>
<path fill="none" stroke="#63b8ff" d="M626.18,-318.8C621.33,-309.41 614.95,-297.02 609.75,-286.95"/>
<polygon fill="#63b8ff" stroke="#63b8ff" points="612.75,-285.13 605.06,-277.84 606.53,-288.34 612.75,-285.13"/>
</g>
<!-- Node19&#45;&gt;Node7 -->
<g id="edge31" class="edge">
<title>Node19&#45;&gt;Node7</title>
<path fill="none" stroke="#63b8ff" d="M1023.9,-186.94C1058.02,-160.47 1122.29,-101.69 1090.5,-55 1073.21,-29.61 1039.01,-18.71 1012.75,-14.03"/>
<polygon fill="#63b8ff" stroke="#63b8ff" points="1013.18,-10.55 1002.76,-12.47 1012.1,-17.47 1013.18,-10.55"/>
</g>
<!-- Node19&#45;&gt;Node14 -->
<g id="edge32" class="edge">
<title>Node19&#45;&gt;Node14</title>
<path fill="none" stroke="#63b8ff" d="M992.85,-186.84C972.89,-162.6 932.3,-113.28 911.09,-87.51"/>
<polygon fill="#63b8ff" stroke="#63b8ff" points="913.76,-85.24 904.7,-79.75 908.35,-89.69 913.76,-85.24"/>
</g>
<!-- Node21&#45;&gt;Node5 -->
<g id="edge40" class="edge">
<title>Node21&#45;&gt;Node5</title>
<path fill="none" stroke="#63b8ff" d="M949.78,-318.95C909.1,-309.06 854.49,-295.77 811.82,-285.38"/>
<polygon fill="#63b8ff" stroke="#63b8ff" points="812.63,-281.98 802.08,-283.01 810.97,-288.78 812.63,-281.98"/>
</g>
<!-- Node21&#45;&gt;Node13 -->
<g id="edge41" class="edge">
<title>Node21&#45;&gt;Node13</title>
<path fill="none" stroke="#63b8ff" d="M1021.18,-318.64C1029.67,-309.12 1040.29,-296.04 1047.5,-283 1062.53,-255.81 1065.32,-247.63 1070.5,-217 1078.15,-171.81 1052.92,-121.97 1035.26,-93.77"/>
<polygon fill="#63b8ff" stroke="#63b8ff" points="1038,-91.56 1029.62,-85.08 1032.13,-95.37 1038,-91.56"/>
</g>
<!-- Node21&#45;&gt;Node15 -->
<g id="edge43" class="edge">
<title>Node21&#45;&gt;Node15</title>
<path fill="none" stroke="#63b8ff" d="M1014.39,-318.81C1021.92,-301.02 1030.88,-270.71 1014.5,-253 944.88,-177.72 648.66,-257.59 554.5,-217 525.32,-204.42 476.21,-136.56 448.5,-121 430.73,-111.02 385.7,-97.89 346.58,-87.59"/>
<polygon fill="#63b8ff" stroke="#63b8ff" points="347.34,-84.17 336.78,-85.03 345.58,-90.94 347.34,-84.17"/>
</g>
<!-- Node21&#45;&gt;Node17 -->
<g id="edge42" class="edge">
<title>Node21&#45;&gt;Node17</title>
<path fill="none" stroke="#63b8ff" d="M999.29,-318.8C993.8,-309.31 986.55,-296.76 980.69,-286.63"/>
<polygon fill="#63b8ff" stroke="#63b8ff" points="983.65,-284.75 975.61,-277.84 977.59,-288.25 983.65,-284.75"/>
</g>
<!-- Node22&#45;&gt;Node13 -->
<g id="edge55" class="edge">
<title>Node22&#45;&gt;Node13</title>
<path fill="none" stroke="#63b8ff" d="M953.77,-450.98C995.3,-440.77 1045.88,-426.73 1064.5,-415 1135.81,-370.08 1185.5,-353.28 1185.5,-269 1185.5,-269 1185.5,-269 1185.5,-201 1185.5,-143.69 1123.41,-107.86 1075.18,-88.66"/>
<polygon fill="#63b8ff" stroke="#63b8ff" points="1076.33,-85.36 1065.74,-85.05 1073.83,-91.89 1076.33,-85.36"/>
</g>
<!-- Node22&#45;&gt;Node15 -->
<g id="edge58" class="edge">
<title>Node22&#45;&gt;Node15</title>
<path fill="none" stroke="#63b8ff" d="M823.82,-460.24C686.51,-449.35 384.97,-418.01 311.5,-349 240.46,-282.27 261.11,-149.39 273.37,-95.03"/>
<polygon fill="#63b8ff" stroke="#63b8ff" points="276.79,-95.78 275.68,-85.25 269.98,-94.17 276.79,-95.78"/>
</g>
<!-- Node22&#45;&gt;Node16 -->
<g id="edge47" class="edge">
<title>Node22&#45;&gt;Node16</title>
<path fill="none" stroke="#63b8ff" d="M858.13,-450.91C842.05,-442.68 823.96,-430.76 812.5,-415 800.69,-398.76 795.82,-376.29 793.83,-359.31"/>
<polygon fill="#63b8ff" stroke="#63b8ff" points="797.29,-358.69 792.89,-349.05 790.31,-359.33 797.29,-358.69"/>
</g>
<!-- Node22&#45;&gt;Node18 -->
<g id="edge54" class="edge">
<title>Node22&#45;&gt;Node18</title>
<path fill="none" stroke="#63b8ff" d="M864.29,-450.84C817.29,-427.25 722.97,-379.91 670.63,-353.64"/>
<polygon fill="#63b8ff" stroke="#63b8ff" points="672.18,-350.5 661.68,-349.14 669.04,-356.76 672.18,-350.5"/>
</g>
<!-- Node22&#45;&gt;Node19 -->
<g id="edge48" class="edge">
<title>Node22&#45;&gt;Node19</title>
<path fill="none" stroke="#63b8ff" d="M953.64,-450.91C1003.41,-435.54 1068.97,-405.24 1091.5,-349 1110.62,-301.28 1063.41,-250.89 1031.31,-223.56"/>
<polygon fill="#63b8ff" stroke="#63b8ff" points="1033.46,-220.8 1023.52,-217.13 1029,-226.2 1033.46,-220.8"/>
</g>
<!-- Node23 -->
<g id="node23" class="node">
<title>Node23</title>
<g id="a_node23"><a xlink:href="invocable_8hpp.html" target="_top" xlink:title=" ">
<polygon fill="white" stroke="#666666" points="964,-415 821,-415 821,-385 964,-385 964,-415"/>
<text text-anchor="start" x="829" y="-403" font-family="Helvetica,sans-Serif" font-size="10.00">proxsuite/linalg/veg</text>
<text text-anchor="middle" x="892.5" y="-392" font-family="Helvetica,sans-Serif" font-size="10.00">/type_traits/invocable.hpp</text>
</a>
</g>
</g>
<!-- Node22&#45;&gt;Node23 -->
<g id="edge49" class="edge">
<title>Node22&#45;&gt;Node23</title>
<path fill="none" stroke="#63b8ff" d="M892.5,-450.8C892.5,-443.34 892.5,-433.99 892.5,-425.41"/>
<polygon fill="#63b8ff" stroke="#63b8ff" points="896,-425.16 892.5,-415.16 889,-425.16 896,-425.16"/>
</g>
<!-- Node24 -->
<g id="node24" class="node">
<title>Node24</title>
<g id="a_node24"><a xlink:title=" ">
<polygon fill="#e0e0e0" stroke="#999999" points="1019,-409.5 982,-409.5 982,-390.5 1019,-390.5 1019,-409.5"/>
<text text-anchor="middle" x="1000.5" y="-397.5" font-family="Helvetica,sans-Serif" font-size="10.00">new</text>
</a>
</g>
</g>
<!-- Node22&#45;&gt;Node24 -->
<g id="edge56" class="edge">
<title>Node22&#45;&gt;Node24</title>
<path fill="none" stroke="#63b8ff" d="M916.2,-450.95C934.39,-440.18 959.36,-425.38 977.4,-414.69"/>
<polygon fill="#63b8ff" stroke="#63b8ff" points="979.31,-417.63 986.13,-409.52 975.74,-411.6 979.31,-417.63"/>
</g>
<!-- Node22&#45;&gt;Node25 -->
<g id="edge57" class="edge">
<title>Node22&#45;&gt;Node25</title>
<path fill="none" stroke="#63b8ff" d="M961.07,-453.18C1008.95,-444.3 1074.13,-430.96 1130.5,-415 1132.92,-414.31 1135.41,-413.55 1137.9,-412.75"/>
<polygon fill="#63b8ff" stroke="#63b8ff" points="1139.05,-416.06 1147.4,-409.53 1136.8,-409.43 1139.05,-416.06"/>
</g>
<!-- Node23&#45;&gt;Node5 -->
<g id="edge50" class="edge">
<title>Node23&#45;&gt;Node5</title>
<path fill="none" stroke="#63b8ff" d="M894.61,-384.87C896.4,-367.43 896.64,-337.77 881.5,-319 864.66,-298.12 838.3,-285.96 813.18,-278.88"/>
<polygon fill="#63b8ff" stroke="#63b8ff" points="813.82,-275.43 803.26,-276.32 812.07,-282.21 813.82,-275.43"/>
</g>
<!-- Node23&#45;&gt;Node13 -->
<g id="edge52" class="edge">
<title>Node23&#45;&gt;Node13</title>
<path fill="none" stroke="#63b8ff" d="M964.12,-386.47C1012.34,-377.01 1070.78,-363.27 1091.5,-349 1127.24,-324.38 1147.5,-312.4 1147.5,-269 1147.5,-269 1147.5,-269 1147.5,-201 1147.5,-149.9 1096.67,-111.58 1059.07,-90.22"/>
<polygon fill="#63b8ff" stroke="#63b8ff" points="1060.29,-86.9 1049.83,-85.16 1056.92,-93.04 1060.29,-86.9"/>
</g>
<!-- Node23&#45;&gt;Node15 -->
<g id="edge53" class="edge">
<title>Node23&#45;&gt;Node15</title>
<path fill="none" stroke="#63b8ff" d="M820.71,-399.09C751.87,-396.7 646.46,-386.39 563.5,-349 435.09,-291.13 330.89,-148.78 293.94,-93.48"/>
<polygon fill="#63b8ff" stroke="#63b8ff" points="296.82,-91.51 288.4,-85.09 290.98,-95.36 296.82,-91.51"/>
</g>
<!-- Node23&#45;&gt;Node16 -->
<g id="edge51" class="edge">
<title>Node23&#45;&gt;Node16</title>
<path fill="none" stroke="#63b8ff" d="M870.31,-384.8C856.45,-375.93 838.43,-364.39 823.21,-354.66"/>
<polygon fill="#63b8ff" stroke="#63b8ff" points="824.94,-351.61 814.63,-349.16 821.17,-357.5 824.94,-351.61"/>
</g>
</g>
</svg>
