<?xml version="1.0" encoding="UTF-8" standalone="no"?>
<!DOCTYPE svg PUBLIC "-//W3C//DTD SVG 1.1//EN"
 "http://www.w3.org/Graphics/SVG/1.1/DTD/svg11.dtd">
<!-- Generated by graphviz version 8.0.4 (20230426.1303)
 -->
<!-- Title: include/proxsuite/linalg/veg/util/unreachable.hpp Pages: 1 -->
<svg width="2136pt" height="819pt"
 viewBox="0.00 0.00 2135.88 818.75" xmlns="http://www.w3.org/2000/svg" xmlns:xlink="http://www.w3.org/1999/xlink">
<g id="graph0" class="graph" transform="scale(1 1) rotate(0) translate(4 814.75)">
<title>include/proxsuite/linalg/veg/util/unreachable.hpp</title>
<!-- Node1 -->
<g id="node1" class="node">
<title>Node1</title>
<g id="a_node1"><a xlink:title=" ">
<polygon fill="#999999" stroke="#666666" points="1129.25,-810.75 989.5,-810.75 989.5,-777.25 1129.25,-777.25 1129.25,-810.75"/>
<text text-anchor="start" x="997.5" y="-797.25" font-family="Helvetica,sans-Serif" font-size="10.00">include/proxsuite/linalg</text>
<text text-anchor="middle" x="1059.38" y="-784.5" font-family="Helvetica,sans-Serif" font-size="10.00">/veg/util/unreachable.hpp</text>
</a>
</g>
</g>
<!-- Node2 -->
<g id="node2" class="node">
<title>Node2</title>
<g id="a_node2"><a xlink:href="vec_8hpp.html" target="_top" xlink:title=" ">
<polygon fill="white" stroke="#666666" points="1124.38,-741.25 994.38,-741.25 994.38,-707.75 1124.38,-707.75 1124.38,-741.25"/>
<text text-anchor="start" x="1002.38" y="-727.75" font-family="Helvetica,sans-Serif" font-size="10.00">include/proxsuite/linalg</text>
<text text-anchor="middle" x="1059.38" y="-715" font-family="Helvetica,sans-Serif" font-size="10.00">/veg/vec.hpp</text>
</a>
</g>
</g>
<!-- Node1&#45;&gt;Node2 -->
<g id="edge1" class="edge">
<title>Node1&#45;&gt;Node2</title>
<path fill="none" stroke="#63b8ff" d="M1059.38,-766.14C1059.38,-757.75 1059.38,-748.76 1059.38,-741.38"/>
<polygon fill="#63b8ff" stroke="#63b8ff" points="1055.88,-766 1059.38,-776 1062.88,-766 1055.88,-766"/>
</g>
<!-- Node3 -->
<g id="node3" class="node">
<title>Node3</title>
<g id="a_node3"><a xlink:href="ldlt_8hpp.html" target="_top" xlink:title=" ">
<polygon fill="white" stroke="#666666" points="1925.38,-532.75 1795.38,-532.75 1795.38,-499.25 1925.38,-499.25 1925.38,-532.75"/>
<text text-anchor="start" x="1803.38" y="-519.25" font-family="Helvetica,sans-Serif" font-size="10.00">include/proxsuite/linalg</text>
<text text-anchor="middle" x="1860.38" y="-506.5" font-family="Helvetica,sans-Serif" font-size="10.00">/dense/ldlt.hpp</text>
</a>
</g>
</g>
<!-- Node2&#45;&gt;Node3 -->
<g id="edge2" class="edge">
<title>Node2&#45;&gt;Node3</title>
<path fill="none" stroke="#63b8ff" d="M1135.66,-722.23C1310.37,-718.73 1728.52,-706.77 1781.38,-671.75 1830.66,-639.09 1850.79,-565.73 1857.51,-533.14"/>
<polygon fill="#63b8ff" stroke="#63b8ff" points="1135.69,-718.75 1125.76,-722.45 1135.83,-725.75 1135.69,-718.75"/>
</g>
<!-- Node8 -->
<g id="node8" class="node">
<title>Node8</title>
<g id="a_node8"><a xlink:href="dense_2workspace_8hpp.html" target="_top" xlink:title=" ">
<polygon fill="white" stroke="#666666" points="1768.75,-463.25 1632,-463.25 1632,-429.75 1768.75,-429.75 1768.75,-463.25"/>
<text text-anchor="start" x="1640" y="-449.75" font-family="Helvetica,sans-Serif" font-size="10.00">include/proxsuite/proxqp</text>
<text text-anchor="middle" x="1700.38" y="-437" font-family="Helvetica,sans-Serif" font-size="10.00">/dense/workspace.hpp</text>
</a>
</g>
</g>
<!-- Node2&#45;&gt;Node8 -->
<g id="edge14" class="edge">
<title>Node2&#45;&gt;Node8</title>
<path fill="none" stroke="#63b8ff" d="M1135.17,-707.09C1171.48,-698.27 1215.26,-686.22 1253.38,-671.75 1418.96,-608.89 1604.49,-503.81 1673.03,-463.72"/>
<polygon fill="#63b8ff" stroke="#63b8ff" points="1134.56,-703.88 1125.64,-709.61 1136.18,-710.68 1134.56,-703.88"/>
</g>
<!-- Node11 -->
<g id="node11" class="node">
<title>Node11</title>
<g id="a_node11"><a xlink:href="dynstack__alloc_8hpp.html" target="_top" xlink:title=" ">
<polygon fill="white" stroke="#666666" points="2105.62,-671.75 1953.12,-671.75 1953.12,-638.25 2105.62,-638.25 2105.62,-671.75"/>
<text text-anchor="start" x="1961.12" y="-658.25" font-family="Helvetica,sans-Serif" font-size="10.00">include/proxsuite/linalg</text>
<text text-anchor="middle" x="2029.38" y="-645.5" font-family="Helvetica,sans-Serif" font-size="10.00">/veg/util/dynstack_alloc.hpp</text>
</a>
</g>
</g>
<!-- Node2&#45;&gt;Node11 -->
<g id="edge12" class="edge">
<title>Node2&#45;&gt;Node11</title>
<path fill="none" stroke="#63b8ff" d="M1135.33,-719.02C1275.78,-710.61 1585.56,-691.55 1846.38,-671.75 1881.35,-669.1 1920.06,-665.81 1952.83,-662.93"/>
<polygon fill="#63b8ff" stroke="#63b8ff" points="1135.48,-715.56 1125.7,-719.65 1135.89,-722.55 1135.48,-715.56"/>
</g>
<!-- Node12 -->
<g id="node12" class="node">
<title>Node12</title>
<g id="a_node12"><a xlink:href="proxqp_2results_8hpp.html" target="_top" xlink:title=" ">
<polygon fill="white" stroke="#666666" points="1500.75,-463.25 1364,-463.25 1364,-429.75 1500.75,-429.75 1500.75,-463.25"/>
<text text-anchor="start" x="1372" y="-449.75" font-family="Helvetica,sans-Serif" font-size="10.00">include/proxsuite/proxqp</text>
<text text-anchor="middle" x="1432.38" y="-437" font-family="Helvetica,sans-Serif" font-size="10.00">/results.hpp</text>
</a>
</g>
</g>
<!-- Node2&#45;&gt;Node12 -->
<g id="edge15" class="edge">
<title>Node2&#45;&gt;Node12</title>
<path fill="none" stroke="#63b8ff" d="M1124.59,-703.87C1181.02,-684.56 1262.56,-650.89 1321.38,-602.25 1370.55,-561.58 1408.67,-494.28 1424.45,-463.61"/>
<polygon fill="#63b8ff" stroke="#63b8ff" points="1123.72,-700.8 1115.36,-707.31 1125.95,-707.44 1123.72,-700.8"/>
</g>
<!-- Node14 -->
<g id="node14" class="node">
<title>Node14</title>
<g id="a_node14"><a xlink:href="sparse_2solver_8hpp.html" target="_top" xlink:title=" ">
<polygon fill="white" stroke="#666666" points="608.75,-172.5 472,-172.5 472,-139 608.75,-139 608.75,-172.5"/>
<text text-anchor="start" x="480" y="-159" font-family="Helvetica,sans-Serif" font-size="10.00">include/proxsuite/proxqp</text>
<text text-anchor="middle" x="540.38" y="-146.25" font-family="Helvetica,sans-Serif" font-size="10.00">/sparse/solver.hpp</text>
</a>
</g>
</g>
<!-- Node2&#45;&gt;Node14 -->
<g id="edge71" class="edge">
<title>Node2&#45;&gt;Node14</title>
<path fill="none" stroke="#63b8ff" d="M982.99,-719.81C766.48,-708.34 164.38,-669.02 164.38,-586.5 164.38,-586.5 164.38,-586.5 164.38,-293.75 164.38,-240.56 201.3,-233.26 248.38,-208.5 318.55,-171.6 409.96,-160.37 471.67,-157.28"/>
<polygon fill="#63b8ff" stroke="#63b8ff" points="982.76,-723.35 992.93,-720.38 983.12,-716.36 982.76,-723.35"/>
</g>
<!-- Node17 -->
<g id="node17" class="node">
<title>Node17</title>
<g id="a_node17"><a xlink:href="sparse_2utils_8hpp.html" target="_top" xlink:title=" ">
<polygon fill="white" stroke="#666666" points="782.75,-311.5 646,-311.5 646,-278 782.75,-278 782.75,-311.5"/>
<text text-anchor="start" x="654" y="-298" font-family="Helvetica,sans-Serif" font-size="10.00">include/proxsuite/proxqp</text>
<text text-anchor="middle" x="714.38" y="-285.25" font-family="Helvetica,sans-Serif" font-size="10.00">/sparse/utils.hpp</text>
</a>
</g>
</g>
<!-- Node2&#45;&gt;Node17 -->
<g id="edge72" class="edge">
<title>Node2&#45;&gt;Node17</title>
<path fill="none" stroke="#63b8ff" d="M983.37,-710.66C876.93,-690.49 696.38,-647.31 696.38,-586.5 696.38,-586.5 696.38,-586.5 696.38,-515 696.38,-460.45 711.14,-448.13 715.38,-393.75 716.97,-373.26 715.57,-368.05 715.38,-347.5 715.26,-335.46 714.99,-321.84 714.76,-311.6"/>
<polygon fill="#63b8ff" stroke="#63b8ff" points="982.59,-714.26 993.06,-712.66 983.87,-707.38 982.59,-714.26"/>
</g>
<!-- Node18 -->
<g id="node18" class="node">
<title>Node18</title>
<g id="a_node18"><a xlink:href="sparse_2workspace_8hpp.html" target="_top" xlink:title=" ">
<polygon fill="white" stroke="#666666" points="830.75,-242 694,-242 694,-208.5 830.75,-208.5 830.75,-242"/>
<text text-anchor="start" x="702" y="-228.5" font-family="Helvetica,sans-Serif" font-size="10.00">include/proxsuite/proxqp</text>
<text text-anchor="middle" x="762.38" y="-215.75" font-family="Helvetica,sans-Serif" font-size="10.00">/sparse/workspace.hpp</text>
</a>
</g>
</g>
<!-- Node2&#45;&gt;Node18 -->
<g id="edge74" class="edge">
<title>Node2&#45;&gt;Node18</title>
<path fill="none" stroke="#63b8ff" d="M1065.28,-696.87C1070.86,-669.38 1078.38,-625.16 1078.38,-586.5 1078.38,-586.5 1078.38,-586.5 1078.38,-515 1078.38,-476.18 1073.83,-460.62 1097.38,-429.75 1118.11,-402.56 1147.74,-423.05 1165.38,-393.75 1175.98,-376.14 1177.63,-364 1165.38,-347.5 1125.36,-293.6 935.16,-254.61 830.99,-236.89"/>
<polygon fill="#63b8ff" stroke="#63b8ff" points="1061.67,-696.06 1063.04,-706.57 1068.52,-697.5 1061.67,-696.06"/>
</g>
<!-- Node19 -->
<g id="node19" class="node">
<title>Node19</title>
<g id="a_node19"><a xlink:href="sparse_2views_8hpp.html" target="_top" xlink:title=" ">
<polygon fill="white" stroke="#666666" points="1156.75,-387.38 1020,-387.38 1020,-353.88 1156.75,-353.88 1156.75,-387.38"/>
<text text-anchor="start" x="1028" y="-373.88" font-family="Helvetica,sans-Serif" font-size="10.00">include/proxsuite/proxqp</text>
<text text-anchor="middle" x="1088.38" y="-361.12" font-family="Helvetica,sans-Serif" font-size="10.00">/sparse/views.hpp</text>
</a>
</g>
</g>
<!-- Node2&#45;&gt;Node19 -->
<g id="edge73" class="edge">
<title>Node2&#45;&gt;Node19</title>
<path fill="none" stroke="#63b8ff" d="M1053.47,-696.87C1047.89,-669.38 1040.38,-625.16 1040.38,-586.5 1040.38,-586.5 1040.38,-586.5 1040.38,-515 1040.38,-466.7 1065.17,-413.76 1079.12,-387.81"/>
<polygon fill="#63b8ff" stroke="#63b8ff" points="1050.23,-697.5 1055.71,-706.57 1057.08,-696.06 1050.23,-697.5"/>
</g>
<!-- Node21 -->
<g id="node21" class="node">
<title>Node21</title>
<g id="a_node21"><a xlink:href="proxqp_2sparse_2fwd_8hpp.html" target="_top" xlink:title=" ">
<polygon fill="white" stroke="#666666" points="668.75,-671.75 532,-671.75 532,-638.25 668.75,-638.25 668.75,-671.75"/>
<text text-anchor="start" x="540" y="-658.25" font-family="Helvetica,sans-Serif" font-size="10.00">include/proxsuite/proxqp</text>
<text text-anchor="middle" x="600.38" y="-645.5" font-family="Helvetica,sans-Serif" font-size="10.00">/sparse/fwd.hpp</text>
</a>
</g>
</g>
<!-- Node2&#45;&gt;Node21 -->
<g id="edge36" class="edge">
<title>Node2&#45;&gt;Node21</title>
<path fill="none" stroke="#63b8ff" d="M983.72,-714.32C907.47,-704.78 786.51,-688.88 682.38,-671.75 678.08,-671.04 673.67,-670.29 669.23,-669.5"/>
<polygon fill="#63b8ff" stroke="#63b8ff" points="982.82,-717.86 993.17,-715.62 983.68,-710.91 982.82,-717.86"/>
</g>
<!-- Node24 -->
<g id="node24" class="node">
<title>Node24</title>
<g id="a_node24"><a xlink:href="sparse_2helpers_8hpp.html" target="_top" xlink:title=" ">
<polygon fill="white" stroke="#666666" points="136.75,-602.25 0,-602.25 0,-568.75 136.75,-568.75 136.75,-602.25"/>
<text text-anchor="start" x="8" y="-588.75" font-family="Helvetica,sans-Serif" font-size="10.00">include/proxsuite/proxqp</text>
<text text-anchor="middle" x="68.38" y="-576" font-family="Helvetica,sans-Serif" font-size="10.00">/sparse/helpers.hpp</text>
</a>
</g>
</g>
<!-- Node2&#45;&gt;Node24 -->
<g id="edge70" class="edge">
<title>Node2&#45;&gt;Node24</title>
<path fill="none" stroke="#63b8ff" d="M983.14,-722.34C778.06,-718.78 225.03,-706.07 150.38,-671.75 117.91,-656.83 91.69,-622.81 78.23,-602.54"/>
<polygon fill="#63b8ff" stroke="#63b8ff" points="983.04,-725.86 993.1,-722.53 983.16,-718.86 983.04,-725.86"/>
</g>
<!-- Node4 -->
<g id="node4" class="node">
<title>Node4</title>
<g id="a_node4"><a xlink:href="dense_2solver_8hpp.html" target="_top" xlink:title=" ">
<polygon fill="white" stroke="#666666" points="1982.75,-311.5 1846,-311.5 1846,-278 1982.75,-278 1982.75,-311.5"/>
<text text-anchor="start" x="1854" y="-298" font-family="Helvetica,sans-Serif" font-size="10.00">include/proxsuite/proxqp</text>
<text text-anchor="middle" x="1914.38" y="-285.25" font-family="Helvetica,sans-Serif" font-size="10.00">/dense/solver.hpp</text>
</a>
</g>
</g>
<!-- Node3&#45;&gt;Node4 -->
<g id="edge3" class="edge">
<title>Node3&#45;&gt;Node4</title>
<path fill="none" stroke="#63b8ff" d="M1915.46,-494.54C1957.84,-475.53 2013.4,-442.71 2039.38,-393.75 2049.01,-375.59 2050.8,-364.59 2039.38,-347.5 2026.45,-328.17 2004.83,-316.05 1983.17,-308.45"/>
<polygon fill="#63b8ff" stroke="#63b8ff" points="1914.32,-491.65 1906.54,-498.85 1917.11,-498.07 1914.32,-491.65"/>
</g>
<!-- Node3&#45;&gt;Node8 -->
<g id="edge7" class="edge">
<title>Node3&#45;&gt;Node8</title>
<path fill="none" stroke="#63b8ff" d="M1811.94,-494.57C1788.45,-484.66 1760.64,-472.93 1738.66,-463.65"/>
<polygon fill="#63b8ff" stroke="#63b8ff" points="1810.48,-498.17 1821.05,-498.83 1813.2,-491.72 1810.48,-498.17"/>
</g>
<!-- Node5 -->
<g id="node5" class="node">
<title>Node5</title>
<g id="a_node5"><a xlink:href="proxqp_2dense_2wrapper_8hpp.html" target="_top" xlink:title=" ">
<polygon fill="white" stroke="#666666" points="2030.75,-242 1894,-242 1894,-208.5 2030.75,-208.5 2030.75,-242"/>
<text text-anchor="start" x="1902" y="-228.5" font-family="Helvetica,sans-Serif" font-size="10.00">include/proxsuite/proxqp</text>
<text text-anchor="middle" x="1962.38" y="-215.75" font-family="Helvetica,sans-Serif" font-size="10.00">/dense/wrapper.hpp</text>
</a>
</g>
</g>
<!-- Node4&#45;&gt;Node5 -->
<g id="edge4" class="edge">
<title>Node4&#45;&gt;Node5</title>
<path fill="none" stroke="#63b8ff" d="M1932.06,-268.88C1938.42,-259.94 1945.42,-250.1 1951.08,-242.13"/>
<polygon fill="#63b8ff" stroke="#63b8ff" points="1928.69,-266.58 1925.75,-276.75 1934.4,-270.63 1928.69,-266.58"/>
</g>
<!-- Node6 -->
<g id="node6" class="node">
<title>Node6</title>
<g id="a_node6"><a xlink:href="dense_8hpp.html" target="_top" xlink:title=" ">
<polygon fill="white" stroke="#666666" points="1946.75,-172.5 1810,-172.5 1810,-139 1946.75,-139 1946.75,-172.5"/>
<text text-anchor="start" x="1818" y="-159" font-family="Helvetica,sans-Serif" font-size="10.00">include/proxsuite/proxqp</text>
<text text-anchor="middle" x="1878.38" y="-146.25" font-family="Helvetica,sans-Serif" font-size="10.00">/dense/dense.hpp</text>
</a>
</g>
</g>
<!-- Node5&#45;&gt;Node6 -->
<g id="edge5" class="edge">
<title>Node5&#45;&gt;Node6</title>
<path fill="none" stroke="#63b8ff" d="M1933.93,-201.39C1922.27,-192.02 1909.05,-181.4 1898.43,-172.87"/>
<polygon fill="#63b8ff" stroke="#63b8ff" points="1931.48,-204.72 1941.47,-208.25 1935.87,-199.26 1931.48,-204.72"/>
</g>
<!-- Node7 -->
<g id="node7" class="node">
<title>Node7</title>
<g id="a_node7"><a xlink:href="serialization_2wrapper_8hpp.html" target="_top" xlink:title=" ">
<polygon fill="white" stroke="#666666" points="2127.88,-172.5 1964.88,-172.5 1964.88,-139 2127.88,-139 2127.88,-172.5"/>
<text text-anchor="start" x="1972.88" y="-159" font-family="Helvetica,sans-Serif" font-size="10.00">include/proxsuite/serialization</text>
<text text-anchor="middle" x="2046.38" y="-146.25" font-family="Helvetica,sans-Serif" font-size="10.00">/wrapper.hpp</text>
</a>
</g>
</g>
<!-- Node5&#45;&gt;Node7 -->
<g id="edge6" class="edge">
<title>Node5&#45;&gt;Node7</title>
<path fill="none" stroke="#63b8ff" d="M1990.82,-201.39C2002.48,-192.02 2015.7,-181.4 2026.32,-172.87"/>
<polygon fill="#63b8ff" stroke="#63b8ff" points="1988.88,-199.26 1983.28,-208.25 1993.27,-204.72 1988.88,-199.26"/>
</g>
<!-- Node9 -->
<g id="node9" class="node">
<title>Node9</title>
<g id="a_node9"><a xlink:href="linesearch_8hpp.html" target="_top" xlink:title=" ">
<polygon fill="white" stroke="#666666" points="1875.75,-387.38 1739,-387.38 1739,-353.88 1875.75,-353.88 1875.75,-387.38"/>
<text text-anchor="start" x="1747" y="-373.88" font-family="Helvetica,sans-Serif" font-size="10.00">include/proxsuite/proxqp</text>
<text text-anchor="middle" x="1807.38" y="-361.12" font-family="Helvetica,sans-Serif" font-size="10.00">/dense/linesearch.hpp</text>
</a>
</g>
</g>
<!-- Node8&#45;&gt;Node9 -->
<g id="edge8" class="edge">
<title>Node8&#45;&gt;Node9</title>
<path fill="none" stroke="#63b8ff" d="M1732.65,-423.22C1749.17,-411.81 1768.91,-398.18 1783.95,-387.8"/>
<polygon fill="#63b8ff" stroke="#63b8ff" points="1731.1,-420.73 1724.86,-429.29 1735.07,-426.49 1731.1,-420.73"/>
</g>
<!-- Node10 -->
<g id="node10" class="node">
<title>Node10</title>
<g id="a_node10"><a xlink:href="dense_2utils_8hpp.html" target="_top" xlink:title=" ">
<polygon fill="white" stroke="#666666" points="1720.75,-387.38 1584,-387.38 1584,-353.88 1720.75,-353.88 1720.75,-387.38"/>
<text text-anchor="start" x="1592" y="-373.88" font-family="Helvetica,sans-Serif" font-size="10.00">include/proxsuite/proxqp</text>
<text text-anchor="middle" x="1652.38" y="-361.12" font-family="Helvetica,sans-Serif" font-size="10.00">/dense/utils.hpp</text>
</a>
</g>
</g>
<!-- Node8&#45;&gt;Node10 -->
<g id="edge10" class="edge">
<title>Node8&#45;&gt;Node10</title>
<path fill="none" stroke="#63b8ff" d="M1684.09,-420.44C1677.04,-409.58 1668.99,-397.2 1662.77,-387.62"/>
<polygon fill="#63b8ff" stroke="#63b8ff" points="1681.58,-421.99 1689.96,-428.47 1687.45,-418.18 1681.58,-421.99"/>
</g>
<!-- Node9&#45;&gt;Node4 -->
<g id="edge9" class="edge">
<title>Node9&#45;&gt;Node4</title>
<path fill="none" stroke="#63b8ff" d="M1839.65,-347.34C1856.17,-335.94 1875.91,-322.31 1890.95,-311.92"/>
<polygon fill="#63b8ff" stroke="#63b8ff" points="1838.1,-344.85 1831.86,-353.41 1842.07,-350.61 1838.1,-344.85"/>
</g>
<!-- Node10&#45;&gt;Node4 -->
<g id="edge11" class="edge">
<title>Node10&#45;&gt;Node4</title>
<path fill="none" stroke="#63b8ff" d="M1720.02,-350.43C1723.52,-349.44 1726.99,-348.46 1730.38,-347.5 1772.69,-335.55 1820.49,-322.11 1856.77,-311.92"/>
<polygon fill="#63b8ff" stroke="#63b8ff" points="1719.12,-347.33 1710.45,-353.42 1721.03,-354.06 1719.12,-347.33"/>
</g>
<!-- Node11&#45;&gt;Node4 -->
<g id="edge13" class="edge">
<title>Node11&#45;&gt;Node4</title>
<path fill="none" stroke="#63b8ff" d="M2049.87,-629.46C2069.57,-603.31 2096.38,-559.87 2096.38,-517 2096.38,-517 2096.38,-517 2096.38,-445.5 2096.38,-398.62 2091.04,-380.12 2057.38,-347.5 2037.18,-327.93 2009.04,-315.69 1983.06,-308.06"/>
<polygon fill="#63b8ff" stroke="#63b8ff" points="2046.64,-626.91 2043.26,-636.95 2052.16,-631.21 2046.64,-626.91"/>
</g>
<!-- Node12&#45;&gt;Node9 -->
<g id="edge19" class="edge">
<title>Node12&#45;&gt;Node9</title>
<path fill="none" stroke="#63b8ff" d="M1511.75,-433.97C1571.83,-424.68 1656.21,-410.45 1729.38,-393.75 1737.06,-392 1745.11,-389.95 1753.01,-387.82"/>
<polygon fill="#63b8ff" stroke="#63b8ff" points="1511.55,-430.61 1502.2,-435.58 1512.61,-437.53 1511.55,-430.61"/>
</g>
<!-- Node12&#45;&gt;Node10 -->
<g id="edge20" class="edge">
<title>Node12&#45;&gt;Node10</title>
<path fill="none" stroke="#63b8ff" d="M1490.85,-425.86C1526.25,-413.98 1570.85,-399 1604.21,-387.8"/>
<polygon fill="#63b8ff" stroke="#63b8ff" points="1490.02,-422.79 1481.65,-429.29 1492.25,-429.42 1490.02,-422.79"/>
</g>
<!-- Node13 -->
<g id="node13" class="node">
<title>Node13</title>
<g id="a_node13"><a xlink:href="dense_2helpers_8hpp.html" target="_top" xlink:title=" ">
<polygon fill="white" stroke="#666666" points="2030.75,-387.38 1894,-387.38 1894,-353.88 2030.75,-353.88 2030.75,-387.38"/>
<text text-anchor="start" x="1902" y="-373.88" font-family="Helvetica,sans-Serif" font-size="10.00">include/proxsuite/proxqp</text>
<text text-anchor="middle" x="1962.38" y="-361.12" font-family="Helvetica,sans-Serif" font-size="10.00">/dense/helpers.hpp</text>
</a>
</g>
</g>
<!-- Node12&#45;&gt;Node13 -->
<g id="edge16" class="edge">
<title>Node12&#45;&gt;Node13</title>
<path fill="none" stroke="#63b8ff" d="M1511.64,-437.13C1631.52,-424.37 1848.79,-400.79 1884.38,-393.75 1892.66,-392.11 1901.35,-390.03 1909.79,-387.79"/>
<polygon fill="#63b8ff" stroke="#63b8ff" points="1511.64,-433.72 1502.06,-438.26 1512.38,-440.68 1511.64,-433.72"/>
</g>
<!-- Node12&#45;&gt;Node14 -->
<g id="edge21" class="edge">
<title>Node12&#45;&gt;Node14</title>
<path fill="none" stroke="#63b8ff" d="M1395.95,-423.61C1382.66,-414.97 1367.85,-404.53 1355.38,-393.75 1334.37,-375.6 1336.68,-362.59 1313.38,-347.5 1085.21,-199.82 751.52,-166.47 609.01,-158.94"/>
<polygon fill="#63b8ff" stroke="#63b8ff" points="1393.54,-426.86 1403.85,-429.28 1397.3,-420.96 1393.54,-426.86"/>
</g>
<!-- Node15 -->
<g id="node15" class="node">
<title>Node15</title>
<g id="a_node15"><a xlink:href="proxqp_2sparse_2wrapper_8hpp.html" target="_top" xlink:title=" ">
<polygon fill="white" stroke="#666666" points="1041.75,-103 905,-103 905,-69.5 1041.75,-69.5 1041.75,-103"/>
<text text-anchor="start" x="913" y="-89.5" font-family="Helvetica,sans-Serif" font-size="10.00">include/proxsuite/proxqp</text>
<text text-anchor="middle" x="973.38" y="-76.75" font-family="Helvetica,sans-Serif" font-size="10.00">/sparse/wrapper.hpp</text>
</a>
</g>
</g>
<!-- Node12&#45;&gt;Node15 -->
<g id="edge34" class="edge">
<title>Node12&#45;&gt;Node15</title>
<path fill="none" stroke="#63b8ff" d="M1496.77,-424.69C1511.71,-417.09 1526.19,-407 1536.38,-393.75 1563.46,-358.5 1556.38,-340.2 1556.38,-295.75 1556.38,-295.75 1556.38,-295.75 1556.38,-224.25 1556.38,-119.63 1196.08,-94.83 1041.97,-89.01"/>
<polygon fill="#63b8ff" stroke="#63b8ff" points="1495.49,-421.89 1487.93,-429.32 1498.47,-428.23 1495.49,-421.89"/>
</g>
<!-- Node12&#45;&gt;Node17 -->
<g id="edge24" class="edge">
<title>Node12&#45;&gt;Node17</title>
<path fill="none" stroke="#63b8ff" d="M1353.61,-428.18C1319.93,-419.61 1280.58,-408.01 1246.38,-393.75 1208.11,-377.79 1204.77,-360.4 1165.38,-347.5 1034.87,-304.75 873.07,-296.22 783.05,-295.13"/>
<polygon fill="#63b8ff" stroke="#63b8ff" points="1352.31,-431.72 1362.86,-430.74 1354.01,-424.92 1352.31,-431.72"/>
</g>
<!-- Node12&#45;&gt;Node18 -->
<g id="edge33" class="edge">
<title>Node12&#45;&gt;Node18</title>
<path fill="none" stroke="#63b8ff" d="M1380.28,-424.99C1361.34,-416.52 1340.22,-405.84 1322.38,-393.75 1259.96,-351.47 1266.76,-309.74 1198.38,-278 1134.68,-248.43 936.82,-234.62 830.91,-229.2"/>
<polygon fill="#63b8ff" stroke="#63b8ff" points="1378.68,-428.55 1389.24,-429.34 1381.48,-422.13 1378.68,-428.55"/>
</g>
<!-- Node12&#45;&gt;Node19 -->
<g id="edge29" class="edge">
<title>Node12&#45;&gt;Node19</title>
<path fill="none" stroke="#63b8ff" d="M1353.15,-428.49C1293.87,-415.76 1213.61,-398.52 1157.04,-386.37"/>
<polygon fill="#63b8ff" stroke="#63b8ff" points="1352.08,-432.05 1362.59,-430.73 1353.55,-425.21 1352.08,-432.05"/>
</g>
<!-- Node20 -->
<g id="node20" class="node">
<title>Node20</title>
<g id="a_node20"><a xlink:href="serialization_2results_8hpp.html" target="_top" xlink:title=" ">
<polygon fill="white" stroke="#666666" points="1527.88,-387.38 1364.88,-387.38 1364.88,-353.88 1527.88,-353.88 1527.88,-387.38"/>
<text text-anchor="start" x="1372.88" y="-373.88" font-family="Helvetica,sans-Serif" font-size="10.00">include/proxsuite/serialization</text>
<text text-anchor="middle" x="1446.38" y="-361.12" font-family="Helvetica,sans-Serif" font-size="10.00">/results.hpp</text>
</a>
</g>
</g>
<!-- Node12&#45;&gt;Node20 -->
<g id="edge35" class="edge">
<title>Node12&#45;&gt;Node20</title>
<path fill="none" stroke="#63b8ff" d="M1437.44,-418.78C1439.42,-408.34 1441.62,-396.72 1443.34,-387.62"/>
<polygon fill="#63b8ff" stroke="#63b8ff" points="1433.84,-417.99 1435.41,-428.47 1440.71,-419.3 1433.84,-417.99"/>
</g>
<!-- Node13&#45;&gt;Node4 -->
<g id="edge17" class="edge">
<title>Node13&#45;&gt;Node4</title>
<path fill="none" stroke="#63b8ff" d="M1946.09,-344.56C1939.04,-333.71 1930.99,-321.33 1924.77,-311.75"/>
<polygon fill="#63b8ff" stroke="#63b8ff" points="1943.58,-346.12 1951.96,-352.6 1949.45,-342.3 1943.58,-346.12"/>
</g>
<!-- Node13&#45;&gt;Node5 -->
<g id="edge18" class="edge">
<title>Node13&#45;&gt;Node5</title>
<path fill="none" stroke="#63b8ff" d="M1978.3,-344.11C1983.55,-334.29 1988.73,-322.74 1991.38,-311.5 1994.79,-297.01 1995.14,-292.41 1991.38,-278 1987.99,-265.05 1980.57,-251.9 1974.08,-242.1"/>
<polygon fill="#63b8ff" stroke="#63b8ff" points="1974.8,-342.19 1972.9,-352.62 1980.88,-345.65 1974.8,-342.19"/>
</g>
<!-- Node14&#45;&gt;Node15 -->
<g id="edge22" class="edge">
<title>Node14&#45;&gt;Node15</title>
<path fill="none" stroke="#63b8ff" d="M619.71,-142.38C701.35,-129.66 827.23,-110.03 904.73,-97.95"/>
<polygon fill="#63b8ff" stroke="#63b8ff" points="619.33,-139.06 609.99,-144.05 620.4,-145.97 619.33,-139.06"/>
</g>
<!-- Node16 -->
<g id="node16" class="node">
<title>Node16</title>
<g id="a_node16"><a xlink:href="sparse_8hpp.html" target="_top" xlink:title=" ">
<polygon fill="white" stroke="#666666" points="1041.75,-33.5 905,-33.5 905,0 1041.75,0 1041.75,-33.5"/>
<text text-anchor="start" x="913" y="-20" font-family="Helvetica,sans-Serif" font-size="10.00">include/proxsuite/proxqp</text>
<text text-anchor="middle" x="973.38" y="-7.25" font-family="Helvetica,sans-Serif" font-size="10.00">/sparse/sparse.hpp</text>
</a>
</g>
</g>
<!-- Node15&#45;&gt;Node16 -->
<g id="edge23" class="edge">
<title>Node15&#45;&gt;Node16</title>
<path fill="none" stroke="#63b8ff" d="M973.38,-58.39C973.38,-50 973.38,-41.01 973.38,-33.63"/>
<polygon fill="#63b8ff" stroke="#63b8ff" points="969.88,-58.25 973.38,-68.25 976.88,-58.25 969.88,-58.25"/>
</g>
<!-- Node17&#45;&gt;Node14 -->
<g id="edge25" class="edge">
<title>Node17&#45;&gt;Node14</title>
<path fill="none" stroke="#63b8ff" d="M685.67,-271.15C650.48,-243.44 591.73,-197.18 560.82,-172.84"/>
<polygon fill="#63b8ff" stroke="#63b8ff" points="683.05,-274.33 693.07,-277.77 687.38,-268.83 683.05,-274.33"/>
</g>
<!-- Node17&#45;&gt;Node18 -->
<g id="edge26" class="edge">
<title>Node17&#45;&gt;Node18</title>
<path fill="none" stroke="#63b8ff" d="M725.71,-268.59C731.6,-259.73 738.75,-250.02 745.25,-242.13"/>
<polygon fill="#63b8ff" stroke="#63b8ff" points="722.3,-266.43 719.91,-276.75 728.22,-270.18 722.3,-266.43"/>
</g>
<!-- Node18&#45;&gt;Node14 -->
<g id="edge27" class="edge">
<title>Node18&#45;&gt;Node14</title>
<path fill="none" stroke="#63b8ff" d="M699.09,-205.01C665.71,-194.86 625.23,-182.55 593.5,-172.9"/>
<polygon fill="#63b8ff" stroke="#63b8ff" points="697.61,-208.52 708.2,-208.08 699.65,-201.82 697.61,-208.52"/>
</g>
<!-- Node18&#45;&gt;Node17 -->
<g id="edge28" class="edge">
<title>Node18&#45;&gt;Node17</title>
<path fill="none" stroke="#63b8ff" d="M751.12,-251.28C745.25,-260.13 738.1,-269.85 731.59,-277.75"/>
<polygon fill="#63b8ff" stroke="#63b8ff" points="754.52,-253.45 756.91,-243.13 748.6,-249.71 754.52,-253.45"/>
</g>
<!-- Node19&#45;&gt;Node14 -->
<g id="edge30" class="edge">
<title>Node19&#45;&gt;Node14</title>
<path fill="none" stroke="#63b8ff" d="M1061.19,-346.65C1017.48,-311.03 927.53,-242.98 839.38,-208.5 763.82,-178.95 670.97,-166.22 608.97,-160.77"/>
<polygon fill="#63b8ff" stroke="#63b8ff" points="1058.6,-349.88 1068.55,-353.53 1063.05,-344.48 1058.6,-349.88"/>
</g>
<!-- Node19&#45;&gt;Node17 -->
<g id="edge31" class="edge">
<title>Node19&#45;&gt;Node17</title>
<path fill="none" stroke="#63b8ff" d="M1023.6,-350.7C1019.14,-349.57 1014.7,-348.49 1010.38,-347.5 933.07,-329.83 843.22,-314.9 782.96,-305.68"/>
<polygon fill="#63b8ff" stroke="#63b8ff" points="1022.45,-354.28 1033.01,-353.43 1024.22,-347.51 1022.45,-354.28"/>
</g>
<!-- Node19&#45;&gt;Node18 -->
<g id="edge32" class="edge">
<title>Node19&#45;&gt;Node18</title>
<path fill="none" stroke="#63b8ff" d="M1041.57,-349.04C976.09,-320.24 858.51,-268.53 799,-242.36"/>
<polygon fill="#63b8ff" stroke="#63b8ff" points="1040.05,-352.63 1050.61,-353.46 1042.87,-346.23 1040.05,-352.63"/>
</g>
<!-- Node21&#45;&gt;Node12 -->
<g id="edge37" class="edge">
<title>Node21&#45;&gt;Node12</title>
<path fill="none" stroke="#63b8ff" d="M679.88,-644.04C832.51,-624.19 1160.73,-577.7 1265.38,-532.75 1288.94,-522.62 1290.03,-511.84 1312.38,-499.25 1336.79,-485.49 1365.57,-472.97 1388.83,-463.68"/>
<polygon fill="#63b8ff" stroke="#63b8ff" points="679.66,-640.67 670.2,-645.43 680.56,-647.61 679.66,-640.67"/>
</g>
<!-- Node21&#45;&gt;Node14 -->
<g id="edge65" class="edge">
<title>Node21&#45;&gt;Node14</title>
<path fill="none" stroke="#63b8ff" d="M520.89,-643.11C404.76,-624.94 202.38,-583.7 202.38,-517 202.38,-517 202.38,-517 202.38,-293.75 202.38,-236.21 372.74,-191.32 471.57,-170.12"/>
<polygon fill="#63b8ff" stroke="#63b8ff" points="520.09,-646.68 530.5,-644.75 521.15,-639.76 520.09,-646.68"/>
</g>
<!-- Node22 -->
<g id="node22" class="node">
<title>Node22</title>
<g id="a_node22"><a xlink:href="proxqp_2settings_8hpp.html" target="_top" xlink:title=" ">
<polygon fill="white" stroke="#666666" points="1256.75,-532.75 1120,-532.75 1120,-499.25 1256.75,-499.25 1256.75,-532.75"/>
<text text-anchor="start" x="1128" y="-519.25" font-family="Helvetica,sans-Serif" font-size="10.00">include/proxsuite/proxqp</text>
<text text-anchor="middle" x="1188.38" y="-506.5" font-family="Helvetica,sans-Serif" font-size="10.00">/settings.hpp</text>
</a>
</g>
</g>
<!-- Node21&#45;&gt;Node22 -->
<g id="edge38" class="edge">
<title>Node21&#45;&gt;Node22</title>
<path fill="none" stroke="#63b8ff" d="M679.55,-635.55C795.62,-608.51 1010.02,-558.56 1119.76,-532.99"/>
<polygon fill="#63b8ff" stroke="#63b8ff" points="678.92,-632.34 669.98,-638.02 680.51,-639.16 678.92,-632.34"/>
</g>
<!-- Node21&#45;&gt;Node24 -->
<g id="edge49" class="edge">
<title>Node21&#45;&gt;Node24</title>
<path fill="none" stroke="#63b8ff" d="M520.97,-644.16C437.99,-633.84 304.02,-617.1 188.38,-602.25 171.81,-600.12 153.96,-597.8 137.22,-595.6"/>
<polygon fill="#63b8ff" stroke="#63b8ff" points="520.48,-647.75 530.84,-645.51 521.34,-640.8 520.48,-647.75"/>
</g>
<!-- Node25 -->
<g id="node25" class="node">
<title>Node25</title>
<g id="a_node25"><a xlink:href="proxqp_2sparse_2model_8hpp.html" target="_top" xlink:title=" ">
<polygon fill="white" stroke="#666666" points="668.75,-532.75 532,-532.75 532,-499.25 668.75,-499.25 668.75,-532.75"/>
<text text-anchor="start" x="540" y="-519.25" font-family="Helvetica,sans-Serif" font-size="10.00">include/proxsuite/proxqp</text>
<text text-anchor="middle" x="600.38" y="-506.5" font-family="Helvetica,sans-Serif" font-size="10.00">/sparse/model.hpp</text>
</a>
</g>
</g>
<!-- Node21&#45;&gt;Node25 -->
<g id="edge51" class="edge">
<title>Node21&#45;&gt;Node25</title>
<path fill="none" stroke="#63b8ff" d="M600.38,-627.37C600.38,-599.31 600.38,-556.02 600.38,-532.88"/>
<polygon fill="#63b8ff" stroke="#63b8ff" points="596.88,-627.02 600.38,-637.02 603.88,-627.02 596.88,-627.02"/>
</g>
<!-- Node29 -->
<g id="node29" class="node">
<title>Node29</title>
<g id="a_node29"><a xlink:href="sparse_2preconditioner_2ruiz_8hpp.html" target="_top" xlink:title=" ">
<polygon fill="white" stroke="#666666" points="366.75,-393.75 230,-393.75 230,-347.5 366.75,-347.5 366.75,-393.75"/>
<text text-anchor="start" x="238" y="-380.25" font-family="Helvetica,sans-Serif" font-size="10.00">include/proxsuite/proxqp</text>
<text text-anchor="start" x="238" y="-367.5" font-family="Helvetica,sans-Serif" font-size="10.00">/sparse/preconditioner</text>
<text text-anchor="middle" x="298.38" y="-354.75" font-family="Helvetica,sans-Serif" font-size="10.00">/ruiz.hpp</text>
</a>
</g>
</g>
<!-- Node21&#45;&gt;Node29 -->
<g id="edge62" class="edge">
<title>Node21&#45;&gt;Node29</title>
<path fill="none" stroke="#63b8ff" d="M571.66,-631.07C528.67,-596.3 445.62,-527.48 380.38,-463.25 357.56,-440.79 333.33,-413.19 317.17,-394.19"/>
<polygon fill="#63b8ff" stroke="#63b8ff" points="569.23,-634.41 579.21,-637.96 573.62,-628.96 569.23,-634.41"/>
</g>
<!-- Node30 -->
<g id="node30" class="node">
<title>Node30</title>
<g id="a_node30"><a xlink:href="status_8hpp.html" target="_top" xlink:title=" ">
<polygon fill="white" stroke="#666666" points="1312.75,-602.25 1176,-602.25 1176,-568.75 1312.75,-568.75 1312.75,-602.25"/>
<text text-anchor="start" x="1184" y="-588.75" font-family="Helvetica,sans-Serif" font-size="10.00">include/proxsuite/proxqp</text>
<text text-anchor="middle" x="1244.38" y="-576" font-family="Helvetica,sans-Serif" font-size="10.00">/status.hpp</text>
</a>
</g>
</g>
<!-- Node21&#45;&gt;Node30 -->
<g id="edge66" class="edge">
<title>Node21&#45;&gt;Node30</title>
<path fill="none" stroke="#63b8ff" d="M679.83,-645.67C807.38,-632.3 1055.65,-606.28 1175.87,-593.68"/>
<polygon fill="#63b8ff" stroke="#63b8ff" points="679.57,-642.28 669.99,-646.81 680.3,-649.25 679.57,-642.28"/>
</g>
<!-- Node22&#45;&gt;Node9 -->
<g id="edge40" class="edge">
<title>Node22&#45;&gt;Node9</title>
<path fill="none" stroke="#63b8ff" d="M1267.8,-514.57C1342.16,-511.63 1455.04,-500.59 1545.38,-463.25 1568.42,-453.73 1567.89,-440.52 1590.38,-429.75 1647.93,-402.18 1667.79,-410.46 1729.38,-393.75 1736.3,-391.87 1743.57,-389.86 1750.76,-387.85"/>
<polygon fill="#63b8ff" stroke="#63b8ff" points="1267.99,-511.09 1258.12,-514.94 1268.23,-518.09 1267.99,-511.09"/>
</g>
<!-- Node22&#45;&gt;Node10 -->
<g id="edge41" class="edge">
<title>Node22&#45;&gt;Node10</title>
<path fill="none" stroke="#63b8ff" d="M1268.1,-513.12C1335.01,-509.01 1431.8,-497.05 1509.38,-463.25 1531.59,-453.57 1532.3,-443.31 1552.38,-429.75 1575.17,-414.35 1602.21,-398.78 1622.42,-387.64"/>
<polygon fill="#63b8ff" stroke="#63b8ff" points="1268,-509.67 1258.22,-513.73 1268.4,-516.66 1268,-509.67"/>
</g>
<!-- Node22&#45;&gt;Node12 -->
<g id="edge42" class="edge">
<title>Node22&#45;&gt;Node12</title>
<path fill="none" stroke="#63b8ff" d="M1256.99,-496.02C1293.85,-485.82 1338.81,-473.38 1373.99,-463.65"/>
<polygon fill="#63b8ff" stroke="#63b8ff" points="1256.52,-492.79 1247.82,-498.83 1258.39,-499.54 1256.52,-492.79"/>
</g>
<!-- Node22&#45;&gt;Node13 -->
<g id="edge39" class="edge">
<title>Node22&#45;&gt;Node13</title>
<path fill="none" stroke="#63b8ff" d="M1267.65,-509.74C1366,-502.32 1527.44,-486.99 1582.38,-463.25 1603.98,-453.92 1601.8,-439.15 1623.38,-429.75 1730.72,-382.96 1769.77,-417.79 1884.38,-393.75 1892.37,-392.07 1900.74,-390.02 1908.91,-387.85"/>
<polygon fill="#63b8ff" stroke="#63b8ff" points="1267.57,-506.31 1257.86,-510.54 1268.09,-513.29 1267.57,-506.31"/>
</g>
<!-- Node22&#45;&gt;Node14 -->
<g id="edge43" class="edge">
<title>Node22&#45;&gt;Node14</title>
<path fill="none" stroke="#63b8ff" d="M1108.93,-513.04C949.07,-507.2 597.75,-484.13 527.38,-393.75 475.35,-326.94 515.23,-214.67 532.98,-172.98"/>
<polygon fill="#63b8ff" stroke="#63b8ff" points="1108.53,-516.56 1118.64,-513.42 1108.77,-509.57 1108.53,-516.56"/>
</g>
<!-- Node22&#45;&gt;Node15 -->
<g id="edge47" class="edge">
<title>Node22&#45;&gt;Node15</title>
<path fill="none" stroke="#63b8ff" d="M1261,-494.05C1275.03,-486.61 1287.96,-476.62 1296.38,-463.25 1304.31,-450.65 1301.87,-443.59 1296.38,-429.75 1234.23,-273.27 1062.95,-146.85 998.41,-103.43"/>
<polygon fill="#63b8ff" stroke="#63b8ff" points="1259.64,-491.3 1252.16,-498.8 1262.68,-497.6 1259.64,-491.3"/>
</g>
<!-- Node22&#45;&gt;Node17 -->
<g id="edge44" class="edge">
<title>Node22&#45;&gt;Node17</title>
<path fill="none" stroke="#63b8ff" d="M1108.86,-510.58C1018.92,-504.34 879.17,-490.54 834.38,-463.25 818.72,-453.71 751.19,-352.04 724.9,-311.91"/>
<polygon fill="#63b8ff" stroke="#63b8ff" points="1108.35,-514.12 1118.57,-511.3 1108.82,-507.14 1108.35,-514.12"/>
</g>
<!-- Node22&#45;&gt;Node18 -->
<g id="edge46" class="edge">
<title>Node22&#45;&gt;Node18</title>
<path fill="none" stroke="#63b8ff" d="M1109,-510.15C1026.83,-503.75 905.26,-490.02 867.38,-463.25 831.04,-437.57 809.27,-318.74 791.38,-278 785.91,-265.55 778.37,-252.18 772.35,-242.15"/>
<polygon fill="#63b8ff" stroke="#63b8ff" points="1108.59,-513.7 1118.82,-510.96 1109.11,-506.72 1108.59,-513.7"/>
</g>
<!-- Node22&#45;&gt;Node19 -->
<g id="edge45" class="edge">
<title>Node22&#45;&gt;Node19</title>
<path fill="none" stroke="#63b8ff" d="M1245.92,-493.75C1258.82,-486.16 1270.89,-476.18 1278.38,-463.25 1285.83,-450.36 1287.23,-441.72 1278.38,-429.75 1263.6,-409.78 1205.33,-393.89 1157.17,-383.8"/>
<polygon fill="#63b8ff" stroke="#63b8ff" points="1244.57,-491.04 1237.43,-498.86 1247.89,-497.2 1244.57,-491.04"/>
</g>
<!-- Node23 -->
<g id="node23" class="node">
<title>Node23</title>
<g id="a_node23"><a xlink:href="serialization_2settings_8hpp.html" target="_top" xlink:title=" ">
<polygon fill="white" stroke="#666666" points="1269.88,-463.25 1106.88,-463.25 1106.88,-429.75 1269.88,-429.75 1269.88,-463.25"/>
<text text-anchor="start" x="1114.88" y="-449.75" font-family="Helvetica,sans-Serif" font-size="10.00">include/proxsuite/serialization</text>
<text text-anchor="middle" x="1188.38" y="-437" font-family="Helvetica,sans-Serif" font-size="10.00">/settings.hpp</text>
</a>
</g>
</g>
<!-- Node22&#45;&gt;Node23 -->
<g id="edge48" class="edge">
<title>Node22&#45;&gt;Node23</title>
<path fill="none" stroke="#63b8ff" d="M1188.38,-488.14C1188.38,-479.75 1188.38,-470.76 1188.38,-463.38"/>
<polygon fill="#63b8ff" stroke="#63b8ff" points="1184.88,-488 1188.38,-498 1191.88,-488 1184.88,-488"/>
</g>
<!-- Node24&#45;&gt;Node15 -->
<g id="edge50" class="edge">
<title>Node24&#45;&gt;Node15</title>
<path fill="none" stroke="#63b8ff" d="M77.42,-557.99C85.93,-530.65 97.38,-486.6 97.38,-447.5 97.38,-447.5 97.38,-447.5 97.38,-224.25 97.38,-142.67 698.13,-102.25 904.64,-90.77"/>
<polygon fill="#63b8ff" stroke="#63b8ff" points="73.84,-556.69 74.1,-567.29 80.5,-558.84 73.84,-556.69"/>
</g>
<!-- Node25&#45;&gt;Node14 -->
<g id="edge57" class="edge">
<title>Node25&#45;&gt;Node14</title>
<path fill="none" stroke="#63b8ff" d="M523.94,-495.32C465.32,-475.09 394.38,-437.09 394.38,-371.62 394.38,-371.62 394.38,-371.62 394.38,-293.75 394.38,-234.83 458.38,-193.88 501.63,-172.92"/>
<polygon fill="#63b8ff" stroke="#63b8ff" points="522.75,-498.95 533.35,-498.78 524.96,-492.31 522.75,-498.95"/>
</g>
<!-- Node25&#45;&gt;Node17 -->
<g id="edge58" class="edge">
<title>Node25&#45;&gt;Node17</title>
<path fill="none" stroke="#63b8ff" d="M575.53,-491.26C542.72,-457.01 492.88,-392.84 527.38,-347.5 541.96,-328.33 598.6,-314.43 645.76,-305.89"/>
<polygon fill="#63b8ff" stroke="#63b8ff" points="572.54,-493.23 582.05,-497.9 577.53,-488.32 572.54,-493.23"/>
</g>
<!-- Node25&#45;&gt;Node18 -->
<g id="edge60" class="edge">
<title>Node25&#45;&gt;Node18</title>
<path fill="none" stroke="#63b8ff" d="M557.76,-493.26C545.96,-485.32 534.24,-475.27 526.38,-463.25 497.99,-419.9 486.1,-392.17 512.38,-347.5 550.22,-283.16 633.66,-252.3 693.75,-237.95"/>
<polygon fill="#63b8ff" stroke="#63b8ff" points="555.42,-496.55 565.74,-498.92 559.15,-490.63 555.42,-496.55"/>
</g>
<!-- Node25&#45;&gt;Node19 -->
<g id="edge59" class="edge">
<title>Node25&#45;&gt;Node19</title>
<path fill="none" stroke="#63b8ff" d="M658.23,-495.38C712.1,-477.38 794.77,-450.46 867.38,-429.75 930.4,-411.77 947.06,-410.69 1010.38,-393.75 1017.45,-391.86 1024.86,-389.82 1032.19,-387.78"/>
<polygon fill="#63b8ff" stroke="#63b8ff" points="657.22,-492.36 648.85,-498.85 659.45,-498.99 657.22,-492.36"/>
</g>
<!-- Node26 -->
<g id="node26" class="node">
<title>Node26</title>
<g id="a_node26"><a xlink:href="proxqp_2dense_2model_8hpp.html" target="_top" xlink:title=" ">
<polygon fill="white" stroke="#666666" points="1012.75,-463.25 876,-463.25 876,-429.75 1012.75,-429.75 1012.75,-463.25"/>
<text text-anchor="start" x="884" y="-449.75" font-family="Helvetica,sans-Serif" font-size="10.00">include/proxsuite/proxqp</text>
<text text-anchor="middle" x="944.38" y="-437" font-family="Helvetica,sans-Serif" font-size="10.00">/dense/model.hpp</text>
</a>
</g>
</g>
<!-- Node25&#45;&gt;Node26 -->
<g id="edge52" class="edge">
<title>Node25&#45;&gt;Node26</title>
<path fill="none" stroke="#63b8ff" d="M679.6,-499.45C738.88,-487.82 819.14,-472.07 875.71,-460.97"/>
<polygon fill="#63b8ff" stroke="#63b8ff" points="679.3,-496.14 670.16,-501.5 680.65,-503.01 679.3,-496.14"/>
</g>
<!-- Node27 -->
<g id="node27" class="node">
<title>Node27</title>
<g id="a_node27"><a xlink:href="random__qp__problems_8hpp.html" target="_top" xlink:title=" ">
<polygon fill="white" stroke="#666666" points="706.25,-387.38 536.5,-387.38 536.5,-353.88 706.25,-353.88 706.25,-387.38"/>
<text text-anchor="start" x="544.5" y="-373.88" font-family="Helvetica,sans-Serif" font-size="10.00">include/proxsuite/proxqp</text>
<text text-anchor="middle" x="621.38" y="-361.12" font-family="Helvetica,sans-Serif" font-size="10.00">/utils/random_qp_problems.hpp</text>
</a>
</g>
</g>
<!-- Node25&#45;&gt;Node27 -->
<g id="edge61" class="edge">
<title>Node25&#45;&gt;Node27</title>
<path fill="none" stroke="#63b8ff" d="M604.33,-488.02C608.67,-458.38 615.49,-411.78 619.05,-387.52"/>
<polygon fill="#63b8ff" stroke="#63b8ff" points="600.73,-487.43 602.74,-497.83 607.66,-488.44 600.73,-487.43"/>
</g>
<!-- Node26&#45;&gt;Node9 -->
<g id="edge53" class="edge">
<title>Node26&#45;&gt;Node9</title>
<path fill="none" stroke="#63b8ff" d="M1023.92,-436.62C1047.54,-434.17 1073.48,-431.66 1097.38,-429.75 1377.83,-407.34 1451.93,-440.42 1729.38,-393.75 1738.26,-392.26 1747.58,-390.13 1756.55,-387.77"/>
<polygon fill="#63b8ff" stroke="#63b8ff" points="1023.82,-433.21 1014.24,-437.74 1024.55,-440.17 1023.82,-433.21"/>
</g>
<!-- Node26&#45;&gt;Node10 -->
<g id="edge54" class="edge">
<title>Node26&#45;&gt;Node10</title>
<path fill="none" stroke="#63b8ff" d="M1023.61,-437.03C1047.32,-434.58 1073.39,-431.97 1097.38,-429.75 1292.31,-411.73 1342.39,-420.13 1536.38,-393.75 1551.71,-391.66 1568.09,-388.88 1583.57,-386"/>
<polygon fill="#63b8ff" stroke="#63b8ff" points="1023.48,-433.63 1013.89,-438.14 1024.2,-440.59 1023.48,-433.63"/>
</g>
<!-- Node26&#45;&gt;Node27 -->
<g id="edge55" class="edge">
<title>Node26&#45;&gt;Node27</title>
<path fill="none" stroke="#63b8ff" d="M865.19,-427.39C812.31,-415.29 743.37,-399.53 692.29,-387.84"/>
<polygon fill="#63b8ff" stroke="#63b8ff" points="864.35,-431.02 874.88,-429.83 865.91,-424.19 864.35,-431.02"/>
</g>
<!-- Node28 -->
<g id="node28" class="node">
<title>Node28</title>
<g id="a_node28"><a xlink:href="serialization_2model_8hpp.html" target="_top" xlink:title=" ">
<polygon fill="white" stroke="#666666" points="1001.88,-387.38 838.88,-387.38 838.88,-353.88 1001.88,-353.88 1001.88,-387.38"/>
<text text-anchor="start" x="846.88" y="-373.88" font-family="Helvetica,sans-Serif" font-size="10.00">include/proxsuite/serialization</text>
<text text-anchor="middle" x="920.38" y="-361.12" font-family="Helvetica,sans-Serif" font-size="10.00">/model.hpp</text>
</a>
</g>
</g>
<!-- Node26&#45;&gt;Node28 -->
<g id="edge56" class="edge">
<title>Node26&#45;&gt;Node28</title>
<path fill="none" stroke="#63b8ff" d="M935.8,-419.11C932.38,-408.59 928.56,-396.81 925.57,-387.62"/>
<polygon fill="#63b8ff" stroke="#63b8ff" points="932.75,-420.04 939.17,-428.47 939.41,-417.88 932.75,-420.04"/>
</g>
<!-- Node29&#45;&gt;Node14 -->
<g id="edge63" class="edge">
<title>Node29&#45;&gt;Node14</title>
<path fill="none" stroke="#63b8ff" d="M306.9,-336.62C317.95,-300.24 340.67,-242.38 380.38,-208.5 406.03,-186.61 441.1,-173.94 471.87,-166.62"/>
<polygon fill="#63b8ff" stroke="#63b8ff" points="303.26,-335.59 303.84,-346.17 309.99,-337.54 303.26,-335.59"/>
</g>
<!-- Node29&#45;&gt;Node17 -->
<g id="edge64" class="edge">
<title>Node29&#45;&gt;Node17</title>
<path fill="none" stroke="#63b8ff" d="M377.73,-355.53C455.22,-341.77 571.92,-321.05 645.58,-307.97"/>
<polygon fill="#63b8ff" stroke="#63b8ff" points="377.3,-352.23 368.07,-357.43 378.53,-359.12 377.3,-352.23"/>
</g>
<!-- Node30&#45;&gt;Node12 -->
<g id="edge68" class="edge">
<title>Node30&#45;&gt;Node12</title>
<path fill="none" stroke="#63b8ff" d="M1274.91,-562.25C1312.87,-534.58 1376.75,-488.03 1410.29,-463.59"/>
<polygon fill="#63b8ff" stroke="#63b8ff" points="1273.33,-559.8 1267.31,-568.52 1277.45,-565.46 1273.33,-559.8"/>
</g>
<!-- Node30&#45;&gt;Node13 -->
<g id="edge67" class="edge">
<title>Node30&#45;&gt;Node13</title>
<path fill="none" stroke="#63b8ff" d="M1323.71,-572.48C1429.31,-555.13 1620.92,-518.91 1777.38,-463.25 1835.79,-442.47 1899.74,-407.93 1935.07,-387.72"/>
<polygon fill="#63b8ff" stroke="#63b8ff" points="1323.45,-569.14 1314.14,-574.2 1324.57,-576.05 1323.45,-569.14"/>
</g>
<!-- Node30&#45;&gt;Node22 -->
<g id="edge69" class="edge">
<title>Node30&#45;&gt;Node22</title>
<path fill="none" stroke="#63b8ff" d="M1224.21,-560.19C1216.67,-551.1 1208.3,-541.02 1201.55,-532.88"/>
<polygon fill="#63b8ff" stroke="#63b8ff" points="1222.03,-562.04 1231.1,-567.5 1227.41,-557.57 1222.03,-562.04"/>
</g>
</g>
</svg>
