<?xml version="1.0" encoding="UTF-8" standalone="no"?>
<!DOCTYPE svg PUBLIC "-//W3C//DTD SVG 1.1//EN"
 "http://www.w3.org/Graphics/SVG/1.1/DTD/svg11.dtd">
<!-- Generated by graphviz version 12.0.0 (20240803.0821)
 -->
<!-- Title: include/proxsuite/linalg/veg/util/unreachable.hpp Pages: 1 -->
<svg width="1010pt" height="237pt"
 viewBox="0.00 0.00 1010.25 237.25" xmlns="http://www.w3.org/2000/svg" xmlns:xlink="http://www.w3.org/1999/xlink">
<g id="graph0" class="graph" transform="scale(1 1) rotate(0) translate(4 233.25)">
<title>include/proxsuite/linalg/veg/util/unreachable.hpp</title>
<!-- Node1 -->
<g id="Node000001" class="node">
<title>Node1</title>
<g id="a_Node000001"><a xlink:title=" ">
<polygon fill="#999999" stroke="#666666" points="812.12,-229.25 672.38,-229.25 672.38,-195.75 812.12,-195.75 812.12,-229.25"/>
<text text-anchor="start" x="680.38" y="-215.75" font-family="Helvetica,sans-Serif" font-size="10.00">include/proxsuite/linalg</text>
<text text-anchor="middle" x="742.25" y="-203" font-family="Helvetica,sans-Serif" font-size="10.00">/veg/util/unreachable.hpp</text>
</a>
</g>
</g>
<!-- Node2 -->
<g id="Node000002" class="node">
<title>Node2</title>
<g id="a_Node000002"><a xlink:href="macros_8hpp.html" target="_top" xlink:title=" ">
<polygon fill="white" stroke="#666666" points="607.5,-159.75 491,-159.75 491,-126.25 607.5,-126.25 607.5,-159.75"/>
<text text-anchor="start" x="499" y="-146.25" font-family="Helvetica,sans-Serif" font-size="10.00">proxsuite/linalg/veg</text>
<text text-anchor="middle" x="549.25" y="-133.5" font-family="Helvetica,sans-Serif" font-size="10.00">/internal/macros.hpp</text>
</a>
</g>
</g>
<!-- Node1&#45;&gt;Node2 -->
<g id="edge1_Node000001_Node000002" class="edge">
<title>Node1&#45;&gt;Node2</title>
<g id="a_edge1_Node000001_Node000002"><a xlink:title=" ">
<path fill="none" stroke="#63b8ff" d="M696.02,-195.33C669.03,-185.89 634.75,-173.9 606.11,-163.89"/>
<polygon fill="#63b8ff" stroke="#63b8ff" points="607.46,-160.65 596.86,-160.65 605.15,-167.26 607.46,-160.65"/>
</a>
</g>
</g>
<!-- Node8 -->
<g id="Node000008" class="node">
<title>Node8</title>
<g id="a_Node000008"><a xlink:href="prologue_8hpp.html" target="_top" xlink:title=" ">
<polygon fill="white" stroke="#666666" points="779.88,-90.25 656.62,-90.25 656.62,-56.75 779.88,-56.75 779.88,-90.25"/>
<text text-anchor="start" x="664.62" y="-76.75" font-family="Helvetica,sans-Serif" font-size="10.00">proxsuite/linalg/veg</text>
<text text-anchor="middle" x="718.25" y="-64" font-family="Helvetica,sans-Serif" font-size="10.00">/internal/prologue.hpp</text>
</a>
</g>
</g>
<!-- Node1&#45;&gt;Node8 -->
<g id="edge15_Node000001_Node000008" class="edge">
<title>Node1&#45;&gt;Node8</title>
<g id="a_edge15_Node000001_Node000008"><a xlink:title=" ">
<path fill="none" stroke="#63b8ff" d="M731.35,-195.53C725.3,-185.69 718.39,-172.54 715.25,-159.75 710.6,-140.77 711.54,-118.7 713.54,-101.78"/>
<polygon fill="#63b8ff" stroke="#63b8ff" points="716.99,-102.36 714.92,-91.98 710.06,-101.39 716.99,-102.36"/>
</a>
</g>
</g>
<!-- Node11 -->
<g id="Node000011" class="node">
<title>Node11</title>
<g id="a_Node000011"><a xlink:href="epilogue_8hpp.html" target="_top" xlink:title=" ">
<polygon fill="white" stroke="#666666" points="920.5,-90.25 798,-90.25 798,-56.75 920.5,-56.75 920.5,-90.25"/>
<text text-anchor="start" x="806" y="-76.75" font-family="Helvetica,sans-Serif" font-size="10.00">proxsuite/linalg/veg</text>
<text text-anchor="middle" x="859.25" y="-64" font-family="Helvetica,sans-Serif" font-size="10.00">/internal/epilogue.hpp</text>
</a>
</g>
</g>
<!-- Node1&#45;&gt;Node11 -->
<g id="edge16_Node000001_Node000011" class="edge">
<title>Node1&#45;&gt;Node11</title>
<g id="a_edge16_Node000001_Node000011"><a xlink:title=" ">
<path fill="none" stroke="#63b8ff" d="M812.51,-196.21C831.52,-188.52 849.95,-176.99 861.25,-159.75 872.32,-142.87 871.03,-119.79 867.41,-101.9"/>
<polygon fill="#63b8ff" stroke="#63b8ff" points="870.82,-101.12 865.08,-92.22 864.01,-102.76 870.82,-101.12"/>
</a>
</g>
</g>
<!-- Node12 -->
<g id="Node000012" class="node">
<title>Node12</title>
<g id="a_Node000012"><a xlink:href="terminate_8hpp.html" target="_top" xlink:title=" ">
<polygon fill="white" stroke="#666666" points="852.5,-159.75 724,-159.75 724,-126.25 852.5,-126.25 852.5,-159.75"/>
<text text-anchor="start" x="732" y="-146.25" font-family="Helvetica,sans-Serif" font-size="10.00">proxsuite/linalg/veg</text>
<text text-anchor="middle" x="788.25" y="-133.5" font-family="Helvetica,sans-Serif" font-size="10.00">/internal/terminate.hpp</text>
</a>
</g>
</g>
<!-- Node1&#45;&gt;Node12 -->
<g id="edge11_Node000001_Node000012" class="edge">
<title>Node1&#45;&gt;Node12</title>
<g id="a_edge11_Node000001_Node000012"><a xlink:title=" ">
<path fill="none" stroke="#63b8ff" d="M753.15,-195.5C758.48,-187.69 765.02,-178.09 771,-169.31"/>
<polygon fill="#63b8ff" stroke="#63b8ff" points="773.84,-171.37 776.57,-161.13 768.05,-167.43 773.84,-171.37"/>
</a>
</g>
</g>
<!-- Node3 -->
<g id="Node000003" class="node">
<title>Node3</title>
<g id="a_Node000003"><a xlink:href="hedley_8ext_8hpp.html" target="_top" xlink:title=" ">
<polygon fill="white" stroke="#666666" points="236.38,-90.25 62.12,-90.25 62.12,-56.75 236.38,-56.75 236.38,-90.25"/>
<text text-anchor="start" x="70.12" y="-76.75" font-family="Helvetica,sans-Serif" font-size="10.00">proxsuite/linalg/veg</text>
<text text-anchor="middle" x="149.25" y="-64" font-family="Helvetica,sans-Serif" font-size="10.00">/internal/external/hedley.ext.hpp</text>
</a>
</g>
</g>
<!-- Node2&#45;&gt;Node3 -->
<g id="edge2_Node000002_Node000003" class="edge">
<title>Node2&#45;&gt;Node3</title>
<g id="a_edge2_Node000002_Node000003"><a xlink:title=" ">
<path fill="none" stroke="#63b8ff" d="M490.66,-132.11C426.96,-121.36 324.07,-104 247.87,-91.14"/>
<polygon fill="#63b8ff" stroke="#63b8ff" points="248.76,-87.74 238.32,-89.53 247.6,-94.65 248.76,-87.74"/>
</a>
</g>
</g>
<!-- Node4 -->
<g id="Node000004" class="node">
<title>Node4</title>
<g id="a_Node000004"><a xlink:href="typedefs_8hpp.html" target="_top" xlink:title=" ">
<polygon fill="white" stroke="#666666" points="377.88,-90.25 254.62,-90.25 254.62,-56.75 377.88,-56.75 377.88,-90.25"/>
<text text-anchor="start" x="262.62" y="-76.75" font-family="Helvetica,sans-Serif" font-size="10.00">proxsuite/linalg/veg</text>
<text text-anchor="middle" x="316.25" y="-64" font-family="Helvetica,sans-Serif" font-size="10.00">/internal/typedefs.hpp</text>
</a>
</g>
</g>
<!-- Node2&#45;&gt;Node4 -->
<g id="edge3_Node000002_Node000004" class="edge">
<title>Node2&#45;&gt;Node4</title>
<g id="a_edge3_Node000002_Node000004"><a xlink:title=" ">
<path fill="none" stroke="#63b8ff" d="M493.44,-125.83C460.13,-116.18 417.64,-103.87 382.62,-93.73"/>
<polygon fill="#63b8ff" stroke="#63b8ff" points="384.04,-90.49 373.46,-91.07 382.09,-97.22 384.04,-90.49"/>
</a>
</g>
</g>
<!-- Node7 -->
<g id="Node000007" class="node">
<title>Node7</title>
<g id="a_Node000007"><a xlink:href="preprocessor_8hpp.html" target="_top" xlink:title=" ">
<polygon fill="white" stroke="#666666" points="538.62,-90.25 395.88,-90.25 395.88,-56.75 538.62,-56.75 538.62,-90.25"/>
<text text-anchor="start" x="403.88" y="-76.75" font-family="Helvetica,sans-Serif" font-size="10.00">proxsuite/linalg/veg</text>
<text text-anchor="middle" x="467.25" y="-64" font-family="Helvetica,sans-Serif" font-size="10.00">/internal/preprocessor.hpp</text>
</a>
</g>
</g>
<!-- Node2&#45;&gt;Node7 -->
<g id="edge6_Node000002_Node000007" class="edge">
<title>Node2&#45;&gt;Node7</title>
<g id="a_edge6_Node000002_Node000007"><a xlink:title=" ">
<path fill="none" stroke="#63b8ff" d="M529.82,-126C519.58,-117.57 506.83,-107.08 495.52,-97.77"/>
<polygon fill="#63b8ff" stroke="#63b8ff" points="497.94,-95.23 488,-91.58 493.49,-100.64 497.94,-95.23"/>
</a>
</g>
</g>
<!-- Node2&#45;&gt;Node8 -->
<g id="edge7_Node000002_Node000008" class="edge">
<title>Node2&#45;&gt;Node8</title>
<g id="a_edge7_Node000002_Node000008"><a xlink:title=" ">
<path fill="none" stroke="#63b8ff" d="M589.73,-125.83C612.95,-116.56 642.33,-104.82 667.13,-94.92"/>
<polygon fill="#63b8ff" stroke="#63b8ff" points="668.41,-98.17 676.4,-91.21 665.82,-91.67 668.41,-98.17"/>
</a>
</g>
</g>
<!-- Node9 -->
<g id="Node000009" class="node">
<title>Node9</title>
<g id="a_Node000009"><a xlink:title=" ">
<polygon fill="#e0e0e0" stroke="#999999" points="638.25,-83.88 556.25,-83.88 556.25,-63.12 638.25,-63.12 638.25,-83.88"/>
<text text-anchor="middle" x="597.25" y="-70.38" font-family="Helvetica,sans-Serif" font-size="10.00">initializer_list</text>
</a>
</g>
</g>
<!-- Node2&#45;&gt;Node9 -->
<g id="edge8_Node000002_Node000009" class="edge">
<title>Node2&#45;&gt;Node9</title>
<g id="a_edge8_Node000002_Node000009"><a xlink:title=" ">
<path fill="none" stroke="#63b8ff" d="M560.63,-126C567.53,-116.3 576.38,-103.85 583.65,-93.62"/>
<polygon fill="#63b8ff" stroke="#63b8ff" points="586.45,-95.73 589.39,-85.56 580.74,-91.68 586.45,-95.73"/>
</a>
</g>
</g>
<!-- Node10 -->
<g id="Node000010" class="node">
<title>Node10</title>
<g id="a_Node000010"><a xlink:title=" ">
<polygon fill="#e0e0e0" stroke="#999999" points="44.5,-83.88 0,-83.88 0,-63.12 44.5,-63.12 44.5,-83.88"/>
<text text-anchor="middle" x="22.25" y="-70.38" font-family="Helvetica,sans-Serif" font-size="10.00">utility</text>
</a>
</g>
</g>
<!-- Node2&#45;&gt;Node10 -->
<g id="edge9_Node000002_Node000010" class="edge">
<title>Node2&#45;&gt;Node10</title>
<g id="a_edge9_Node000002_Node000010"><a xlink:title=" ">
<path fill="none" stroke="#63b8ff" d="M490.64,-142.73C396.46,-142.39 206.45,-135.47 53.25,-90.25 51.88,-89.85 50.5,-89.38 49.13,-88.87"/>
<polygon fill="#63b8ff" stroke="#63b8ff" points="50.79,-85.78 40.23,-84.94 47.96,-92.19 50.79,-85.78"/>
</a>
</g>
</g>
<!-- Node2&#45;&gt;Node11 -->
<g id="edge10_Node000002_Node000011" class="edge">
<title>Node2&#45;&gt;Node11</title>
<g id="a_edge10_Node000002_Node000011"><a xlink:title=" ">
<path fill="none" stroke="#63b8ff" d="M607.97,-129.49C654.01,-119.65 720.02,-105.46 786.66,-90.81"/>
<polygon fill="#63b8ff" stroke="#63b8ff" points="787.3,-94.25 796.32,-88.68 785.8,-87.42 787.3,-94.25"/>
</a>
</g>
</g>
<!-- Node5 -->
<g id="Node000005" class="node">
<title>Node5</title>
<g id="a_Node000005"><a xlink:title=" ">
<polygon fill="#e0e0e0" stroke="#999999" points="305.75,-20.75 256.75,-20.75 256.75,0 305.75,0 305.75,-20.75"/>
<text text-anchor="middle" x="281.25" y="-7.25" font-family="Helvetica,sans-Serif" font-size="10.00">cstdint</text>
</a>
</g>
</g>
<!-- Node4&#45;&gt;Node5 -->
<g id="edge4_Node000004_Node000005" class="edge">
<title>Node4&#45;&gt;Node5</title>
<g id="a_edge4_Node000004_Node000005"><a xlink:title=" ">
<path fill="none" stroke="#63b8ff" d="M307.05,-56.44C302.6,-48.67 297.22,-39.27 292.53,-31.07"/>
<polygon fill="#63b8ff" stroke="#63b8ff" points="295.64,-29.47 287.64,-22.53 289.57,-32.95 295.64,-29.47"/>
</a>
</g>
</g>
<!-- Node6 -->
<g id="Node000006" class="node">
<title>Node6</title>
<g id="a_Node000006"><a xlink:title=" ">
<polygon fill="#e0e0e0" stroke="#999999" points="376.25,-20.75 324.25,-20.75 324.25,0 376.25,0 376.25,-20.75"/>
<text text-anchor="middle" x="350.25" y="-7.25" font-family="Helvetica,sans-Serif" font-size="10.00">cstddef</text>
</a>
</g>
</g>
<!-- Node4&#45;&gt;Node6 -->
<g id="edge5_Node000004_Node000006" class="edge">
<title>Node4&#45;&gt;Node6</title>
<g id="a_edge5_Node000004_Node000006"><a xlink:title=" ">
<path fill="none" stroke="#63b8ff" d="M325.18,-56.44C329.51,-48.67 334.74,-39.27 339.3,-31.07"/>
<polygon fill="#63b8ff" stroke="#63b8ff" points="342.24,-32.98 344.04,-22.54 336.12,-29.58 342.24,-32.98"/>
</a>
</g>
</g>
<!-- Node12&#45;&gt;Node8 -->
<g id="edge12_Node000012_Node000008" class="edge">
<title>Node12&#45;&gt;Node8</title>
<g id="a_edge12_Node000012_Node000008"><a xlink:title=" ">
<path fill="none" stroke="#63b8ff" d="M771.66,-126C763.03,-117.68 752.31,-107.35 742.75,-98.12"/>
<polygon fill="#63b8ff" stroke="#63b8ff" points="745.44,-95.85 735.81,-91.43 740.58,-100.89 745.44,-95.85"/>
</a>
</g>
</g>
<!-- Node12&#45;&gt;Node11 -->
<g id="edge14_Node000012_Node000011" class="edge">
<title>Node12&#45;&gt;Node11</title>
<g id="a_edge14_Node000012_Node000011"><a xlink:title=" ">
<path fill="none" stroke="#63b8ff" d="M805.08,-126C813.83,-117.68 824.7,-107.35 834.4,-98.12"/>
<polygon fill="#63b8ff" stroke="#63b8ff" points="836.61,-100.85 841.45,-91.42 831.79,-95.78 836.61,-100.85"/>
</a>
</g>
</g>
<!-- Node13 -->
<g id="Node000013" class="node">
<title>Node13</title>
<g id="a_Node000013"><a xlink:title=" ">
<polygon fill="#e0e0e0" stroke="#999999" points="1002.25,-83.88 938.25,-83.88 938.25,-63.12 1002.25,-63.12 1002.25,-83.88"/>
<text text-anchor="middle" x="970.25" y="-70.38" font-family="Helvetica,sans-Serif" font-size="10.00">exception</text>
</a>
</g>
</g>
<!-- Node12&#45;&gt;Node13 -->
<g id="edge13_Node000012_Node000013" class="edge">
<title>Node12&#45;&gt;Node13</title>
<g id="a_edge13_Node000012_Node000013"><a xlink:title=" ">
<path fill="none" stroke="#63b8ff" d="M832.77,-125.86C860.55,-115.73 897.03,-102.35 929.25,-90.25 931.02,-89.59 932.83,-88.9 934.65,-88.21"/>
<polygon fill="#63b8ff" stroke="#63b8ff" points="935.61,-91.59 943.71,-84.76 933.12,-85.05 935.61,-91.59"/>
</a>
</g>
</g>
</g>
</svg>
