<?xml version="1.0" encoding="UTF-8" standalone="no"?>
<!DOCTYPE svg PUBLIC "-//W3C//DTD SVG 1.1//EN"
 "http://www.w3.org/Graphics/SVG/1.1/DTD/svg11.dtd">
<!-- Generated by graphviz version 6.0.1 (20220911.2005)
 -->
<!-- Title: include/proxsuite/linalg/veg/util/dbg.hpp Pages: 1 -->
<svg width="1205pt" height="555pt"
 viewBox="0.00 0.00 1205.49 555.00" xmlns="http://www.w3.org/2000/svg" xmlns:xlink="http://www.w3.org/1999/xlink">
<g id="graph0" class="graph" transform="scale(1 1) rotate(0) translate(4 551)">
<title>include/proxsuite/linalg/veg/util/dbg.hpp</title>
<!-- Node1 -->
<g id="node1" class="node">
<title>Node1</title>
<g id="a_node1"><a xlink:title=" ">
<polygon fill="#999999" stroke="#666666" points="402.49,-547 271.49,-547 271.49,-517 402.49,-517 402.49,-547"/>
<text text-anchor="start" x="279.49" y="-535" font-family="Helvetica,sans-Serif" font-size="10.00">include/proxsuite/linalg</text>
<text text-anchor="middle" x="336.99" y="-524" font-family="Helvetica,sans-Serif" font-size="10.00">/veg/util/dbg.hpp</text>
</a>
</g>
</g>
<!-- Node2 -->
<g id="node2" class="node">
<title>Node2</title>
<g id="a_node2"><a xlink:href="internal_2dbg_8hpp.html" target="_top" xlink:title=" ">
<polygon fill="white" stroke="#666666" points="393.49,-481 280.49,-481 280.49,-451 393.49,-451 393.49,-481"/>
<text text-anchor="start" x="288.49" y="-469" font-family="Helvetica,sans-Serif" font-size="10.00">proxsuite/linalg/veg</text>
<text text-anchor="middle" x="336.99" y="-458" font-family="Helvetica,sans-Serif" font-size="10.00">/internal/dbg.hpp</text>
</a>
</g>
</g>
<!-- Node1&#45;&gt;Node2 -->
<g id="edge1" class="edge">
<title>Node1&#45;&gt;Node2</title>
<path fill="none" stroke="#63b8ff" d="M336.99,-516.8C336.99,-509.34 336.99,-499.99 336.99,-491.41"/>
<polygon fill="#63b8ff" stroke="#63b8ff" points="340.49,-491.16 336.99,-481.16 333.49,-491.16 340.49,-491.16"/>
</g>
<!-- Node3 -->
<g id="node3" class="node">
<title>Node3</title>
<g id="a_node3"><a xlink:href="primitives_8hpp.html" target="_top" xlink:title=" ">
<polygon fill="white" stroke="#666666" points="689.99,-349 543.99,-349 543.99,-319 689.99,-319 689.99,-349"/>
<text text-anchor="start" x="551.99" y="-337" font-family="Helvetica,sans-Serif" font-size="10.00">proxsuite/linalg/veg</text>
<text text-anchor="middle" x="616.99" y="-326" font-family="Helvetica,sans-Serif" font-size="10.00">/type_traits/primitives.hpp</text>
</a>
</g>
</g>
<!-- Node2&#45;&gt;Node3 -->
<g id="edge2" class="edge">
<title>Node2&#45;&gt;Node3</title>
<path fill="none" stroke="#63b8ff" d="M357.02,-450.83C370.54,-441.08 388.65,-427.65 403.99,-415 419.29,-402.39 419.64,-394.58 436.99,-385 466.72,-368.59 502.22,-357.24 533.82,-349.56"/>
<polygon fill="#63b8ff" stroke="#63b8ff" points="534.99,-352.88 543.93,-347.19 533.39,-346.07 534.99,-352.88"/>
</g>
<!-- Node12 -->
<g id="node12" class="node">
<title>Node12</title>
<g id="a_node12"><a xlink:href="prologue_8hpp.html" target="_top" xlink:title=" ">
<polygon fill="white" stroke="#666666" points="583.99,-85 459.99,-85 459.99,-55 583.99,-55 583.99,-85"/>
<text text-anchor="start" x="467.99" y="-73" font-family="Helvetica,sans-Serif" font-size="10.00">proxsuite/linalg/veg</text>
<text text-anchor="middle" x="521.99" y="-62" font-family="Helvetica,sans-Serif" font-size="10.00">/internal/prologue.hpp</text>
</a>
</g>
</g>
<!-- Node2&#45;&gt;Node12 -->
<g id="edge48" class="edge">
<title>Node2&#45;&gt;Node12</title>
<path fill="none" stroke="#63b8ff" d="M293.16,-450.92C272.2,-442.72 247.67,-430.83 228.99,-415 193.04,-384.54 164.63,-361.96 183.99,-319 239.68,-195.46 393.14,-120.44 472.71,-88.71"/>
<polygon fill="#63b8ff" stroke="#63b8ff" points="474,-91.96 482.04,-85.06 471.45,-85.45 474,-91.96"/>
</g>
<!-- Node14 -->
<g id="node14" class="node">
<title>Node14</title>
<g id="a_node14"><a xlink:href="epilogue_8hpp.html" target="_top" xlink:title=" ">
<polygon fill="white" stroke="#666666" points="429.49,-85 306.49,-85 306.49,-55 429.49,-55 429.49,-85"/>
<text text-anchor="start" x="314.49" y="-73" font-family="Helvetica,sans-Serif" font-size="10.00">proxsuite/linalg/veg</text>
<text text-anchor="middle" x="367.99" y="-62" font-family="Helvetica,sans-Serif" font-size="10.00">/internal/epilogue.hpp</text>
</a>
</g>
</g>
<!-- Node2&#45;&gt;Node14 -->
<g id="edge51" class="edge">
<title>Node2&#45;&gt;Node14</title>
<path fill="none" stroke="#63b8ff" d="M280.48,-462.27C228.28,-457.79 149.85,-446.01 88.99,-415 42.19,-391.15 1.99,-387.53 1.99,-335 1.99,-335 1.99,-335 1.99,-201 1.99,-164.46 -5.98,-145.65 20.99,-121 40.96,-102.75 200.53,-85.74 296.19,-77.04"/>
<polygon fill="#63b8ff" stroke="#63b8ff" points="296.73,-80.51 306.38,-76.12 296.1,-73.53 296.73,-80.51"/>
</g>
<!-- Node16 -->
<g id="node16" class="node">
<title>Node16</title>
<g id="a_node16"><a xlink:href="terminate_8hpp.html" target="_top" xlink:title=" ">
<polygon fill="white" stroke="#666666" points="159.49,-151 30.49,-151 30.49,-121 159.49,-121 159.49,-151"/>
<text text-anchor="start" x="38.49" y="-139" font-family="Helvetica,sans-Serif" font-size="10.00">proxsuite/linalg/veg</text>
<text text-anchor="middle" x="94.99" y="-128" font-family="Helvetica,sans-Serif" font-size="10.00">/internal/terminate.hpp</text>
</a>
</g>
</g>
<!-- Node2&#45;&gt;Node16 -->
<g id="edge23" class="edge">
<title>Node2&#45;&gt;Node16</title>
<path fill="none" stroke="#63b8ff" d="M280.27,-458.89C222.12,-451.52 136.91,-437.26 112.99,-415 85.82,-389.71 88.99,-372.12 88.99,-335 88.99,-335 88.99,-335 88.99,-267 88.99,-230.03 91.45,-187.21 93.21,-161.12"/>
<polygon fill="#63b8ff" stroke="#63b8ff" points="96.71,-161.25 93.92,-151.03 89.73,-160.76 96.71,-161.25"/>
</g>
<!-- Node18 -->
<g id="node18" class="node">
<title>Node18</title>
<g id="a_node18"><a xlink:href="constructible_8hpp.html" target="_top" xlink:title=" ">
<polygon fill="white" stroke="#666666" points="525.49,-349 366.49,-349 366.49,-319 525.49,-319 525.49,-349"/>
<text text-anchor="start" x="374.49" y="-337" font-family="Helvetica,sans-Serif" font-size="10.00">proxsuite/linalg/veg</text>
<text text-anchor="middle" x="445.99" y="-326" font-family="Helvetica,sans-Serif" font-size="10.00">/type_traits/constructible.hpp</text>
</a>
</g>
</g>
<!-- Node2&#45;&gt;Node18 -->
<g id="edge27" class="edge">
<title>Node2&#45;&gt;Node18</title>
<path fill="none" stroke="#63b8ff" d="M348.85,-450.83C362.23,-434.84 384.67,-408.04 403.99,-385 411.72,-375.78 420.26,-365.62 427.61,-356.88"/>
<polygon fill="#63b8ff" stroke="#63b8ff" points="430.47,-358.91 434.22,-349 425.11,-354.41 430.47,-358.91"/>
</g>
<!-- Node19 -->
<g id="node19" class="node">
<title>Node19</title>
<g id="a_node19"><a xlink:href="ref_8hpp.html" target="_top" xlink:title=" ">
<polygon fill="white" stroke="#666666" points="351.49,-415 238.49,-415 238.49,-385 351.49,-385 351.49,-415"/>
<text text-anchor="start" x="246.49" y="-403" font-family="Helvetica,sans-Serif" font-size="10.00">proxsuite/linalg/veg</text>
<text text-anchor="middle" x="294.99" y="-392" font-family="Helvetica,sans-Serif" font-size="10.00">/ref.hpp</text>
</a>
</g>
</g>
<!-- Node2&#45;&gt;Node19 -->
<g id="edge32" class="edge">
<title>Node2&#45;&gt;Node19</title>
<path fill="none" stroke="#63b8ff" d="M327.67,-450.8C322.45,-442.84 315.82,-432.74 309.9,-423.71"/>
<polygon fill="#63b8ff" stroke="#63b8ff" points="312.7,-421.6 304.29,-415.16 306.85,-425.44 312.7,-421.6"/>
</g>
<!-- Node24 -->
<g id="node24" class="node">
<title>Node24</title>
<g id="a_node24"><a xlink:title=" ">
<polygon fill="#e0e0e0" stroke="#999999" points="495.99,-409.5 445.99,-409.5 445.99,-390.5 495.99,-390.5 495.99,-409.5"/>
<text text-anchor="middle" x="470.99" y="-397.5" font-family="Helvetica,sans-Serif" font-size="10.00">cstring</text>
</a>
</g>
</g>
<!-- Node2&#45;&gt;Node24 -->
<g id="edge49" class="edge">
<title>Node2&#45;&gt;Node24</title>
<path fill="none" stroke="#63b8ff" d="M366.4,-450.95C389.49,-439.93 421.38,-424.7 443.86,-413.96"/>
<polygon fill="#63b8ff" stroke="#63b8ff" points="445.65,-416.99 453.16,-409.52 442.63,-410.67 445.65,-416.99"/>
</g>
<!-- Node25 -->
<g id="node25" class="node">
<title>Node25</title>
<g id="a_node25"><a xlink:title=" ">
<polygon fill="#e0e0e0" stroke="#999999" points="559.99,-409.5 513.99,-409.5 513.99,-390.5 559.99,-390.5 559.99,-409.5"/>
<text text-anchor="middle" x="536.99" y="-397.5" font-family="Helvetica,sans-Serif" font-size="10.00">cstdio</text>
</a>
</g>
</g>
<!-- Node2&#45;&gt;Node25 -->
<g id="edge50" class="edge">
<title>Node2&#45;&gt;Node25</title>
<path fill="none" stroke="#63b8ff" d="M390.13,-450.99C423.46,-441.77 467.13,-428.86 504.99,-415 506.38,-414.49 507.8,-413.95 509.22,-413.4"/>
<polygon fill="#63b8ff" stroke="#63b8ff" points="510.64,-416.6 518.54,-409.54 507.96,-410.13 510.64,-416.6"/>
</g>
<!-- Node4 -->
<g id="node4" class="node">
<title>Node4</title>
<g id="a_node4"><a xlink:href="veg_2type__traits_2core_8hpp.html" target="_top" xlink:title=" ">
<polygon fill="white" stroke="#666666" points="702.49,-283 585.49,-283 585.49,-253 702.49,-253 702.49,-283"/>
<text text-anchor="start" x="593.49" y="-271" font-family="Helvetica,sans-Serif" font-size="10.00">proxsuite/linalg/veg</text>
<text text-anchor="middle" x="643.99" y="-260" font-family="Helvetica,sans-Serif" font-size="10.00">/type_traits/core.hpp</text>
</a>
</g>
</g>
<!-- Node3&#45;&gt;Node4 -->
<g id="edge3" class="edge">
<title>Node3&#45;&gt;Node4</title>
<path fill="none" stroke="#63b8ff" d="M622.99,-318.8C626.24,-311.09 630.34,-301.37 634.06,-292.56"/>
<polygon fill="#63b8ff" stroke="#63b8ff" points="637.36,-293.74 638.02,-283.16 630.91,-291.02 637.36,-293.74"/>
</g>
<!-- Node3&#45;&gt;Node12 -->
<g id="edge20" class="edge">
<title>Node3&#45;&gt;Node12</title>
<path fill="none" stroke="#63b8ff" d="M665.6,-318.92C683.05,-311.25 700.9,-299.8 710.99,-283 717.86,-271.57 715.12,-265.68 710.99,-253 688.56,-184.01 669.64,-168.7 614.99,-121 600.56,-108.4 582.42,-97.76 566,-89.57"/>
<polygon fill="#63b8ff" stroke="#63b8ff" points="567.1,-86.22 556.57,-85.04 564.06,-92.53 567.1,-86.22"/>
</g>
<!-- Node3&#45;&gt;Node14 -->
<g id="edge22" class="edge">
<title>Node3&#45;&gt;Node14</title>
<path fill="none" stroke="#63b8ff" d="M603.61,-318.91C562.48,-275.64 437.8,-144.45 388.43,-92.51"/>
<polygon fill="#63b8ff" stroke="#63b8ff" points="390.87,-89.99 381.45,-85.16 385.8,-94.82 390.87,-89.99"/>
</g>
<!-- Node15 -->
<g id="node15" class="node">
<title>Node15</title>
<g id="a_node15"><a xlink:title=" ">
<polygon fill="#e0e0e0" stroke="#999999" points="490.49,-277.5 421.49,-277.5 421.49,-258.5 490.49,-258.5 490.49,-277.5"/>
<text text-anchor="middle" x="455.99" y="-265.5" font-family="Helvetica,sans-Serif" font-size="10.00">type_traits</text>
</a>
</g>
</g>
<!-- Node3&#45;&gt;Node15 -->
<g id="edge21" class="edge">
<title>Node3&#45;&gt;Node15</title>
<path fill="none" stroke="#63b8ff" d="M581.66,-318.95C553.3,-307.68 513.89,-292.01 486.8,-281.25"/>
<polygon fill="#63b8ff" stroke="#63b8ff" points="488.01,-277.96 477.42,-277.52 485.42,-284.46 488.01,-277.96"/>
</g>
<!-- Node5 -->
<g id="node5" class="node">
<title>Node5</title>
<g id="a_node5"><a xlink:href="typedefs_8hpp.html" target="_top" xlink:title=" ">
<polygon fill="white" stroke="#666666" points="1080.99,-85 956.99,-85 956.99,-55 1080.99,-55 1080.99,-85"/>
<text text-anchor="start" x="964.99" y="-73" font-family="Helvetica,sans-Serif" font-size="10.00">proxsuite/linalg/veg</text>
<text text-anchor="middle" x="1018.99" y="-62" font-family="Helvetica,sans-Serif" font-size="10.00">/internal/typedefs.hpp</text>
</a>
</g>
</g>
<!-- Node4&#45;&gt;Node5 -->
<g id="edge4" class="edge">
<title>Node4&#45;&gt;Node5</title>
<path fill="none" stroke="#63b8ff" d="M702.66,-259.74C784.18,-249.26 924,-229.78 943.99,-217 986.89,-189.58 1006.44,-129.32 1014.34,-95.41"/>
<polygon fill="#63b8ff" stroke="#63b8ff" points="1017.81,-95.92 1016.51,-85.41 1010.97,-94.44 1017.81,-95.92"/>
</g>
<!-- Node8 -->
<g id="node8" class="node">
<title>Node8</title>
<g id="a_node8"><a xlink:href="integer__seq_8hpp.html" target="_top" xlink:title=" ">
<polygon fill="white" stroke="#666666" points="934.99,-217 796.99,-217 796.99,-187 934.99,-187 934.99,-217"/>
<text text-anchor="start" x="804.99" y="-205" font-family="Helvetica,sans-Serif" font-size="10.00">proxsuite/linalg/veg</text>
<text text-anchor="middle" x="865.99" y="-194" font-family="Helvetica,sans-Serif" font-size="10.00">/internal/integer_seq.hpp</text>
</a>
</g>
</g>
<!-- Node4&#45;&gt;Node8 -->
<g id="edge7" class="edge">
<title>Node4&#45;&gt;Node8</title>
<path fill="none" stroke="#63b8ff" d="M692.71,-252.95C726.55,-243.2 771.79,-230.16 807.57,-219.84"/>
<polygon fill="#63b8ff" stroke="#63b8ff" points="808.75,-223.15 817.39,-217.01 806.81,-216.42 808.75,-223.15"/>
</g>
<!-- Node4&#45;&gt;Node12 -->
<g id="edge18" class="edge">
<title>Node4&#45;&gt;Node12</title>
<path fill="none" stroke="#63b8ff" d="M641.85,-252.79C637.09,-225.03 623.43,-162.67 591.99,-121 582.95,-109.01 570.2,-98.72 558.06,-90.65"/>
<polygon fill="#63b8ff" stroke="#63b8ff" points="559.72,-87.55 549.39,-85.17 555.98,-93.47 559.72,-87.55"/>
</g>
<!-- Node4&#45;&gt;Node14 -->
<g id="edge19" class="edge">
<title>Node4&#45;&gt;Node14</title>
<path fill="none" stroke="#63b8ff" d="M630.5,-252.57C603.61,-224.43 540.52,-161.43 477.99,-121 458.53,-108.41 435.37,-97.38 415.34,-88.9"/>
<polygon fill="#63b8ff" stroke="#63b8ff" points="416.66,-85.66 406.08,-85.06 413.98,-92.12 416.66,-85.66"/>
</g>
<!-- Node6 -->
<g id="node6" class="node">
<title>Node6</title>
<g id="a_node6"><a xlink:title=" ">
<polygon fill="#e0e0e0" stroke="#999999" points="1174.99,-19 1124.99,-19 1124.99,0 1174.99,0 1174.99,-19"/>
<text text-anchor="middle" x="1149.99" y="-7" font-family="Helvetica,sans-Serif" font-size="10.00">cstdint</text>
</a>
</g>
</g>
<!-- Node5&#45;&gt;Node6 -->
<g id="edge5" class="edge">
<title>Node5&#45;&gt;Node6</title>
<path fill="none" stroke="#63b8ff" d="M1050.37,-54.99C1071.94,-45.36 1100.35,-32.67 1121.31,-23.31"/>
<polygon fill="#63b8ff" stroke="#63b8ff" points="1122.94,-26.41 1130.65,-19.14 1120.09,-20.02 1122.94,-26.41"/>
</g>
<!-- Node7 -->
<g id="node7" class="node">
<title>Node7</title>
<g id="a_node7"><a xlink:title=" ">
<polygon fill="#e0e0e0" stroke="#999999" points="1045.49,-19 992.49,-19 992.49,0 1045.49,0 1045.49,-19"/>
<text text-anchor="middle" x="1018.99" y="-7" font-family="Helvetica,sans-Serif" font-size="10.00">cstddef</text>
</a>
</g>
</g>
<!-- Node5&#45;&gt;Node7 -->
<g id="edge6" class="edge">
<title>Node5&#45;&gt;Node7</title>
<path fill="none" stroke="#63b8ff" d="M1018.99,-54.84C1018.99,-47.21 1018.99,-37.7 1018.99,-29.45"/>
<polygon fill="#63b8ff" stroke="#63b8ff" points="1022.49,-29.27 1018.99,-19.27 1015.49,-29.27 1022.49,-29.27"/>
</g>
<!-- Node8&#45;&gt;Node5 -->
<g id="edge8" class="edge">
<title>Node8&#45;&gt;Node5</title>
<path fill="none" stroke="#63b8ff" d="M901.79,-186.9C920.69,-178.34 943.53,-166.13 960.99,-151 979.7,-134.79 995.74,-111.44 1006.19,-94.15"/>
<polygon fill="#63b8ff" stroke="#63b8ff" points="1009.36,-95.65 1011.39,-85.25 1003.32,-92.11 1009.36,-95.65"/>
</g>
<!-- Node9 -->
<g id="node9" class="node">
<title>Node9</title>
<g id="a_node9"><a xlink:href="macros_8hpp.html" target="_top" xlink:title=" ">
<polygon fill="white" stroke="#666666" points="952.49,-151 835.49,-151 835.49,-121 952.49,-121 952.49,-151"/>
<text text-anchor="start" x="843.49" y="-139" font-family="Helvetica,sans-Serif" font-size="10.00">proxsuite/linalg/veg</text>
<text text-anchor="middle" x="893.99" y="-128" font-family="Helvetica,sans-Serif" font-size="10.00">/internal/macros.hpp</text>
</a>
</g>
</g>
<!-- Node8&#45;&gt;Node9 -->
<g id="edge9" class="edge">
<title>Node8&#45;&gt;Node9</title>
<path fill="none" stroke="#63b8ff" d="M872.21,-186.8C875.58,-179.09 879.83,-169.37 883.69,-160.56"/>
<polygon fill="#63b8ff" stroke="#63b8ff" points="887,-161.73 887.8,-151.16 880.58,-158.92 887,-161.73"/>
</g>
<!-- Node8&#45;&gt;Node12 -->
<g id="edge16" class="edge">
<title>Node8&#45;&gt;Node12</title>
<path fill="none" stroke="#63b8ff" d="M855.67,-186.87C841.47,-168.56 814.11,-137.08 782.99,-121 709.4,-82.96 679.56,-99.96 594.17,-85.13"/>
<polygon fill="#63b8ff" stroke="#63b8ff" points="594.8,-81.68 584.33,-83.32 593.53,-88.57 594.8,-81.68"/>
</g>
<!-- Node8&#45;&gt;Node14 -->
<g id="edge17" class="edge">
<title>Node8&#45;&gt;Node14</title>
<path fill="none" stroke="#63b8ff" d="M812.23,-186.96C719.71,-162.81 530.81,-113.5 431.79,-87.65"/>
<polygon fill="#63b8ff" stroke="#63b8ff" points="432.47,-84.21 421.91,-85.08 430.71,-90.99 432.47,-84.21"/>
</g>
<!-- Node9&#45;&gt;Node5 -->
<g id="edge11" class="edge">
<title>Node9&#45;&gt;Node5</title>
<path fill="none" stroke="#63b8ff" d="M921.43,-120.95C939.42,-111.74 963.14,-99.6 982.69,-89.59"/>
<polygon fill="#63b8ff" stroke="#63b8ff" points="984.32,-92.69 991.63,-85.01 981.13,-86.45 984.32,-92.69"/>
</g>
<!-- Node10 -->
<g id="node10" class="node">
<title>Node10</title>
<g id="a_node10"><a xlink:href="hedley_8ext_8hpp.html" target="_top" xlink:title=" ">
<polygon fill="white" stroke="#666666" points="938.49,-85 763.49,-85 763.49,-55 938.49,-55 938.49,-85"/>
<text text-anchor="start" x="771.49" y="-73" font-family="Helvetica,sans-Serif" font-size="10.00">proxsuite/linalg/veg</text>
<text text-anchor="middle" x="850.99" y="-62" font-family="Helvetica,sans-Serif" font-size="10.00">/internal/external/hedley.ext.hpp</text>
</a>
</g>
</g>
<!-- Node9&#45;&gt;Node10 -->
<g id="edge10" class="edge">
<title>Node9&#45;&gt;Node10</title>
<path fill="none" stroke="#63b8ff" d="M884.45,-120.8C879.11,-112.84 872.32,-102.74 866.25,-93.71"/>
<polygon fill="#63b8ff" stroke="#63b8ff" points="868.99,-91.51 860.51,-85.16 863.18,-95.42 868.99,-91.51"/>
</g>
<!-- Node11 -->
<g id="node11" class="node">
<title>Node11</title>
<g id="a_node11"><a xlink:href="preprocessor_8hpp.html" target="_top" xlink:title=" ">
<polygon fill="white" stroke="#666666" points="745.49,-85 602.49,-85 602.49,-55 745.49,-55 745.49,-85"/>
<text text-anchor="start" x="610.49" y="-73" font-family="Helvetica,sans-Serif" font-size="10.00">proxsuite/linalg/veg</text>
<text text-anchor="middle" x="673.99" y="-62" font-family="Helvetica,sans-Serif" font-size="10.00">/internal/preprocessor.hpp</text>
</a>
</g>
</g>
<!-- Node9&#45;&gt;Node11 -->
<g id="edge12" class="edge">
<title>Node9&#45;&gt;Node11</title>
<path fill="none" stroke="#63b8ff" d="M845.71,-120.95C812.19,-111.2 767.35,-98.16 731.89,-87.84"/>
<polygon fill="#63b8ff" stroke="#63b8ff" points="732.74,-84.44 722.16,-85.01 730.79,-91.17 732.74,-84.44"/>
</g>
<!-- Node9&#45;&gt;Node12 -->
<g id="edge13" class="edge">
<title>Node9&#45;&gt;Node12</title>
<path fill="none" stroke="#63b8ff" d="M835.45,-123.6C830.57,-122.7 825.7,-121.82 820.99,-121 723.1,-103.89 695.7,-102.97 594.35,-85.2"/>
<polygon fill="#63b8ff" stroke="#63b8ff" points="594.76,-81.72 584.31,-83.43 593.55,-88.61 594.76,-81.72"/>
</g>
<!-- Node13 -->
<g id="node13" class="node">
<title>Node13</title>
<g id="a_node13"><a xlink:title=" ">
<polygon fill="#e0e0e0" stroke="#999999" points="1182.49,-79.5 1099.49,-79.5 1099.49,-60.5 1182.49,-60.5 1182.49,-79.5"/>
<text text-anchor="middle" x="1140.99" y="-67.5" font-family="Helvetica,sans-Serif" font-size="10.00">initializer_list</text>
</a>
</g>
</g>
<!-- Node9&#45;&gt;Node13 -->
<g id="edge14" class="edge">
<title>Node9&#45;&gt;Node13</title>
<path fill="none" stroke="#63b8ff" d="M950.25,-120.94C989.47,-111.06 1042.98,-97.45 1089.99,-85 1093.38,-84.1 1096.89,-83.16 1100.41,-82.21"/>
<polygon fill="#63b8ff" stroke="#63b8ff" points="1101.54,-85.53 1110.27,-79.53 1099.71,-78.78 1101.54,-85.53"/>
</g>
<!-- Node9&#45;&gt;Node14 -->
<g id="edge15" class="edge">
<title>Node9&#45;&gt;Node14</title>
<path fill="none" stroke="#63b8ff" d="M835.46,-129.42C750.56,-121.1 588.38,-104.32 450.99,-85 447.3,-84.48 443.53,-83.93 439.71,-83.35"/>
<polygon fill="#63b8ff" stroke="#63b8ff" points="440,-79.85 429.58,-81.77 438.92,-86.77 440,-79.85"/>
</g>
<!-- Node16&#45;&gt;Node12 -->
<g id="edge24" class="edge">
<title>Node16&#45;&gt;Node12</title>
<path fill="none" stroke="#63b8ff" d="M159.54,-125.99C228.52,-116.27 341.08,-100.14 437.99,-85 441.83,-84.4 445.76,-83.78 449.73,-83.14"/>
<polygon fill="#63b8ff" stroke="#63b8ff" points="450.32,-86.59 459.63,-81.54 449.2,-79.68 450.32,-86.59"/>
</g>
<!-- Node16&#45;&gt;Node14 -->
<g id="edge26" class="edge">
<title>Node16&#45;&gt;Node14</title>
<path fill="none" stroke="#63b8ff" d="M154.91,-120.95C197.22,-111.03 254.06,-97.71 298.39,-87.32"/>
<polygon fill="#63b8ff" stroke="#63b8ff" points="299.29,-90.7 308.22,-85.01 297.69,-83.89 299.29,-90.7"/>
</g>
<!-- Node17 -->
<g id="node17" class="node">
<title>Node17</title>
<g id="a_node17"><a xlink:title=" ">
<polygon fill="#e0e0e0" stroke="#999999" points="127.49,-79.5 62.49,-79.5 62.49,-60.5 127.49,-60.5 127.49,-79.5"/>
<text text-anchor="middle" x="94.99" y="-67.5" font-family="Helvetica,sans-Serif" font-size="10.00">exception</text>
</a>
</g>
</g>
<!-- Node16&#45;&gt;Node17 -->
<g id="edge25" class="edge">
<title>Node16&#45;&gt;Node17</title>
<path fill="none" stroke="#63b8ff" d="M94.99,-120.8C94.99,-111.7 94.99,-99.79 94.99,-89.9"/>
<polygon fill="#63b8ff" stroke="#63b8ff" points="98.49,-89.84 94.99,-79.84 91.49,-89.84 98.49,-89.84"/>
</g>
<!-- Node18&#45;&gt;Node4 -->
<g id="edge28" class="edge">
<title>Node18&#45;&gt;Node4</title>
<path fill="none" stroke="#63b8ff" d="M489.45,-318.95C519.36,-309.28 559.29,-296.38 591.06,-286.11"/>
<polygon fill="#63b8ff" stroke="#63b8ff" points="592.21,-289.42 600.64,-283.01 590.05,-282.76 592.21,-289.42"/>
</g>
<!-- Node18&#45;&gt;Node12 -->
<g id="edge29" class="edge">
<title>Node18&#45;&gt;Node12</title>
<path fill="none" stroke="#63b8ff" d="M432.75,-318.85C419.47,-302.88 402.3,-276.1 411.99,-253 437.06,-193.31 488.71,-209.71 515.99,-151 524.05,-133.66 525.19,-111.9 524.52,-95.46"/>
<polygon fill="#63b8ff" stroke="#63b8ff" points="527.98,-94.79 523.82,-85.04 521,-95.25 527.98,-94.79"/>
</g>
<!-- Node18&#45;&gt;Node14 -->
<g id="edge31" class="edge">
<title>Node18&#45;&gt;Node14</title>
<path fill="none" stroke="#63b8ff" d="M431.59,-319C422.82,-309.63 412.15,-296.56 405.99,-283 377.12,-219.37 370.15,-135.68 368.49,-95.11"/>
<polygon fill="#63b8ff" stroke="#63b8ff" points="371.99,-94.97 368.16,-85.09 364.99,-95.2 371.99,-94.97"/>
</g>
<!-- Node18&#45;&gt;Node15 -->
<g id="edge30" class="edge">
<title>Node18&#45;&gt;Node15</title>
<path fill="none" stroke="#63b8ff" d="M448.21,-318.8C449.64,-309.7 451.5,-297.79 453.04,-287.9"/>
<polygon fill="#63b8ff" stroke="#63b8ff" points="456.53,-288.26 454.61,-277.84 449.61,-287.18 456.53,-288.26"/>
</g>
<!-- Node19&#45;&gt;Node12 -->
<g id="edge46" class="edge">
<title>Node19&#45;&gt;Node12</title>
<path fill="none" stroke="#63b8ff" d="M303.99,-384.94C325.98,-350.71 384.41,-260.42 435.99,-187 459.25,-153.89 487.36,-116.43 504.97,-93.26"/>
<polygon fill="#63b8ff" stroke="#63b8ff" points="507.89,-95.19 511.17,-85.12 502.32,-90.95 507.89,-95.19"/>
</g>
<!-- Node19&#45;&gt;Node14 -->
<g id="edge47" class="edge">
<title>Node19&#45;&gt;Node14</title>
<path fill="none" stroke="#63b8ff" d="M238.43,-387.21C217.68,-379.84 196.27,-367.99 183.99,-349 176.76,-337.8 180.27,-331.8 183.99,-319 213.16,-218.85 241.76,-199.9 309.99,-121 319.19,-110.37 330.68,-99.99 341.01,-91.47"/>
<polygon fill="#63b8ff" stroke="#63b8ff" points="343.37,-94.06 348.97,-85.06 338.99,-88.6 343.37,-94.06"/>
</g>
<!-- Node19&#45;&gt;Node18 -->
<g id="edge37" class="edge">
<title>Node19&#45;&gt;Node18</title>
<path fill="none" stroke="#63b8ff" d="M328.13,-384.95C350.26,-375.58 379.57,-363.16 403.42,-353.05"/>
<polygon fill="#63b8ff" stroke="#63b8ff" points="405.09,-356.14 412.93,-349.01 402.36,-349.69 405.09,-356.14"/>
</g>
<!-- Node20 -->
<g id="node20" class="node">
<title>Node20</title>
<g id="a_node20"><a xlink:href="tags_8hpp.html" target="_top" xlink:title=" ">
<polygon fill="white" stroke="#666666" points="310.49,-349 193.49,-349 193.49,-319 310.49,-319 310.49,-349"/>
<text text-anchor="start" x="201.49" y="-337" font-family="Helvetica,sans-Serif" font-size="10.00">proxsuite/linalg/veg</text>
<text text-anchor="middle" x="251.99" y="-326" font-family="Helvetica,sans-Serif" font-size="10.00">/type_traits/tags.hpp</text>
</a>
</g>
</g>
<!-- Node19&#45;&gt;Node20 -->
<g id="edge33" class="edge">
<title>Node19&#45;&gt;Node20</title>
<path fill="none" stroke="#63b8ff" d="M285.45,-384.8C280.11,-376.84 273.32,-366.74 267.25,-357.71"/>
<polygon fill="#63b8ff" stroke="#63b8ff" points="269.99,-355.51 261.51,-349.16 264.18,-359.42 269.99,-355.51"/>
</g>
<!-- Node21 -->
<g id="node21" class="node">
<title>Node21</title>
<g id="a_node21"><a xlink:href="address_8hpp.html" target="_top" xlink:title=" ">
<polygon fill="white" stroke="#666666" points="831.49,-349 708.49,-349 708.49,-319 831.49,-319 831.49,-349"/>
<text text-anchor="start" x="716.49" y="-337" font-family="Helvetica,sans-Serif" font-size="10.00">proxsuite/linalg/veg</text>
<text text-anchor="middle" x="769.99" y="-326" font-family="Helvetica,sans-Serif" font-size="10.00">/memory/address.hpp</text>
</a>
</g>
</g>
<!-- Node19&#45;&gt;Node21 -->
<g id="edge38" class="edge">
<title>Node19&#45;&gt;Node21</title>
<path fill="none" stroke="#63b8ff" d="M351.71,-393.27C428.06,-385.28 568.3,-369.59 698.33,-349.03"/>
<polygon fill="#63b8ff" stroke="#63b8ff" points="699.15,-352.44 708.47,-347.41 698.04,-345.53 699.15,-352.44"/>
</g>
<!-- Node20&#45;&gt;Node4 -->
<g id="edge34" class="edge">
<title>Node20&#45;&gt;Node4</title>
<path fill="none" stroke="#63b8ff" d="M310.68,-323.42C381.36,-311.88 499.92,-292.52 574.94,-280.27"/>
<polygon fill="#63b8ff" stroke="#63b8ff" points="575.92,-283.66 585.23,-278.59 574.79,-276.75 575.92,-283.66"/>
</g>
<!-- Node20&#45;&gt;Node12 -->
<g id="edge35" class="edge">
<title>Node20&#45;&gt;Node12</title>
<path fill="none" stroke="#63b8ff" d="M259.49,-318.97C268.66,-302.4 285.17,-274.38 302.99,-253 360.4,-184.1 446.42,-121.46 491.67,-90.8"/>
<polygon fill="#63b8ff" stroke="#63b8ff" points="493.81,-93.59 500.16,-85.11 489.9,-87.77 493.81,-93.59"/>
</g>
<!-- Node20&#45;&gt;Node14 -->
<g id="edge36" class="edge">
<title>Node20&#45;&gt;Node14</title>
<path fill="none" stroke="#63b8ff" d="M253,-318.82C254.44,-302.59 257.77,-275.36 264.99,-253 284.98,-191.1 327.44,-126.7 351.13,-93.62"/>
<polygon fill="#63b8ff" stroke="#63b8ff" points="354.24,-95.3 357.28,-85.15 348.57,-91.18 354.24,-95.3"/>
</g>
<!-- Node21&#45;&gt;Node4 -->
<g id="edge39" class="edge">
<title>Node21&#45;&gt;Node4</title>
<path fill="none" stroke="#63b8ff" d="M742.34,-318.95C724.21,-309.74 700.29,-297.6 680.59,-287.59"/>
<polygon fill="#63b8ff" stroke="#63b8ff" points="682.08,-284.42 671.58,-283.01 678.91,-290.66 682.08,-284.42"/>
</g>
<!-- Node21&#45;&gt;Node12 -->
<g id="edge43" class="edge">
<title>Node21&#45;&gt;Node12</title>
<path fill="none" stroke="#63b8ff" d="M766.18,-318.84C754.99,-280.18 718.35,-172.28 645.99,-121 626.45,-107.15 602.5,-96.33 580.88,-88.37"/>
<polygon fill="#63b8ff" stroke="#63b8ff" points="582.06,-85.07 571.46,-85.01 579.71,-91.66 582.06,-85.07"/>
</g>
<!-- Node21&#45;&gt;Node14 -->
<g id="edge45" class="edge">
<title>Node21&#45;&gt;Node14</title>
<path fill="none" stroke="#63b8ff" d="M708.41,-320.89C660.47,-310.77 598.44,-295.96 575.99,-283 489.31,-232.95 414.49,-136.9 383.38,-93.4"/>
<polygon fill="#63b8ff" stroke="#63b8ff" points="386.21,-91.34 377.59,-85.18 380.49,-95.37 386.21,-91.34"/>
</g>
<!-- Node22 -->
<g id="node22" class="node">
<title>Node22</title>
<g id="a_node22"><a xlink:href="std_8hpp.html" target="_top" xlink:title=" ">
<polygon fill="white" stroke="#666666" points="1197.49,-151 1084.49,-151 1084.49,-121 1197.49,-121 1197.49,-151"/>
<text text-anchor="start" x="1092.49" y="-139" font-family="Helvetica,sans-Serif" font-size="10.00">proxsuite/linalg/veg</text>
<text text-anchor="middle" x="1140.99" y="-128" font-family="Helvetica,sans-Serif" font-size="10.00">/internal/std.hpp</text>
</a>
</g>
</g>
<!-- Node21&#45;&gt;Node22 -->
<g id="edge40" class="edge">
<title>Node21&#45;&gt;Node22</title>
<path fill="none" stroke="#63b8ff" d="M809.19,-318.86C861.77,-299.19 957.27,-261.01 1032.99,-217 1063.27,-199.4 1095.17,-174.94 1116.38,-157.72"/>
<polygon fill="#63b8ff" stroke="#63b8ff" points="1118.72,-160.32 1124.23,-151.27 1114.28,-154.91 1118.72,-160.32"/>
</g>
<!-- Node23 -->
<g id="node23" class="node">
<title>Node23</title>
<g id="a_node23"><a xlink:title=" ">
<polygon fill="#e0e0e0" stroke="#999999" points="854.99,-277.5 796.99,-277.5 796.99,-258.5 854.99,-258.5 854.99,-277.5"/>
<text text-anchor="middle" x="825.99" y="-265.5" font-family="Helvetica,sans-Serif" font-size="10.00">memory</text>
</a>
</g>
</g>
<!-- Node21&#45;&gt;Node23 -->
<g id="edge44" class="edge">
<title>Node21&#45;&gt;Node23</title>
<path fill="none" stroke="#63b8ff" d="M782.42,-318.8C791.07,-308.92 802.62,-295.72 811.65,-285.39"/>
<polygon fill="#63b8ff" stroke="#63b8ff" points="814.3,-287.67 818.26,-277.84 809.04,-283.07 814.3,-287.67"/>
</g>
<!-- Node22&#45;&gt;Node6 -->
<g id="edge41" class="edge">
<title>Node22&#45;&gt;Node6</title>
<path fill="none" stroke="#63b8ff" d="M1161.88,-120.97C1173.1,-112.13 1185.85,-99.63 1191.99,-85 1197.16,-72.71 1196.92,-67.39 1191.99,-55 1187.48,-43.63 1178.52,-33.48 1170.04,-25.76"/>
<polygon fill="#63b8ff" stroke="#63b8ff" points="1172.1,-22.92 1162.21,-19.14 1167.58,-28.27 1172.1,-22.92"/>
</g>
<!-- Node22&#45;&gt;Node13 -->
<g id="edge42" class="edge">
<title>Node22&#45;&gt;Node13</title>
<path fill="none" stroke="#63b8ff" d="M1140.99,-120.8C1140.99,-111.7 1140.99,-99.79 1140.99,-89.9"/>
<polygon fill="#63b8ff" stroke="#63b8ff" points="1144.49,-89.84 1140.99,-79.84 1137.49,-89.84 1144.49,-89.84"/>
</g>
</g>
</svg>
