<?xml version="1.0" encoding="UTF-8" standalone="no"?>
<!DOCTYPE svg PUBLIC "-//W3C//DTD SVG 1.1//EN"
 "http://www.w3.org/Graphics/SVG/1.1/DTD/svg11.dtd">
<!-- Generated by graphviz version 7.0.6 (20230107.1202)
 -->
<!-- Title: include/proxsuite/linalg/veg/vec.hpp Pages: 1 -->
<svg width="2142pt" height="709pt"
 viewBox="0.00 0.00 2141.50 709.00" xmlns="http://www.w3.org/2000/svg" xmlns:xlink="http://www.w3.org/1999/xlink">
<g id="graph0" class="graph" transform="scale(1 1) rotate(0) translate(4 705)">
<title>include/proxsuite/linalg/veg/vec.hpp</title>
<!-- Node1 -->
<g id="node1" class="node">
<title>Node1</title>
<g id="a_node1"><a xlink:title=" ">
<polygon fill="#999999" stroke="#666666" points="1130,-701 999,-701 999,-671 1130,-671 1130,-701"/>
<text text-anchor="start" x="1007" y="-689" font-family="Helvetica,sans-Serif" font-size="10.00">include/proxsuite/linalg</text>
<text text-anchor="middle" x="1064.5" y="-678" font-family="Helvetica,sans-Serif" font-size="10.00">/veg/vec.hpp</text>
</a>
</g>
</g>
<!-- Node2 -->
<g id="node2" class="node">
<title>Node2</title>
<g id="a_node2"><a xlink:href="ldlt_8hpp.html" target="_top" xlink:title=" ">
<polygon fill="white" stroke="#666666" points="1936,-503 1805,-503 1805,-473 1936,-473 1936,-503"/>
<text text-anchor="start" x="1813" y="-491" font-family="Helvetica,sans-Serif" font-size="10.00">include/proxsuite/linalg</text>
<text text-anchor="middle" x="1870.5" y="-480" font-family="Helvetica,sans-Serif" font-size="10.00">/dense/ldlt.hpp</text>
</a>
</g>
</g>
<!-- Node1&#45;&gt;Node2 -->
<g id="edge1" class="edge">
<title>Node1&#45;&gt;Node2</title>
<path fill="none" stroke="#63b8ff" d="M1141.98,-683.83C1318,-680.58 1736.9,-669.29 1790.5,-635 1838.71,-604.16 1860.2,-533.69 1867.46,-503.34"/>
<polygon fill="#63b8ff" stroke="#63b8ff" points="1141.94,-680.33 1132.01,-684.01 1142.07,-687.33 1141.94,-680.33"/>
</g>
<!-- Node7 -->
<g id="node7" class="node">
<title>Node7</title>
<g id="a_node7"><a xlink:href="dense_2workspace_8hpp.html" target="_top" xlink:title=" ">
<polygon fill="white" stroke="#666666" points="1777,-437 1640,-437 1640,-407 1777,-407 1777,-437"/>
<text text-anchor="start" x="1648" y="-425" font-family="Helvetica,sans-Serif" font-size="10.00">include/proxsuite/proxqp</text>
<text text-anchor="middle" x="1708.5" y="-414" font-family="Helvetica,sans-Serif" font-size="10.00">/dense/workspace.hpp</text>
</a>
</g>
</g>
<!-- Node1&#45;&gt;Node7 -->
<g id="edge13" class="edge">
<title>Node1&#45;&gt;Node7</title>
<path fill="none" stroke="#63b8ff" d="M1141.55,-668.21C1176.75,-659.68 1218.7,-648.3 1255.5,-635 1423.31,-574.34 1613.61,-474.46 1682.16,-437.41"/>
<polygon fill="#63b8ff" stroke="#63b8ff" points="1140.76,-664.8 1131.85,-670.53 1142.39,-671.61 1140.76,-664.8"/>
</g>
<!-- Node10 -->
<g id="node10" class="node">
<title>Node10</title>
<g id="a_node10"><a xlink:href="dynstack__alloc_8hpp.html" target="_top" xlink:title=" ">
<polygon fill="white" stroke="#666666" points="2116,-635 1963,-635 1963,-605 2116,-605 2116,-635"/>
<text text-anchor="start" x="1971" y="-623" font-family="Helvetica,sans-Serif" font-size="10.00">include/proxsuite/linalg</text>
<text text-anchor="middle" x="2039.5" y="-612" font-family="Helvetica,sans-Serif" font-size="10.00">/veg/util/dynstack_alloc.hpp</text>
</a>
</g>
</g>
<!-- Node1&#45;&gt;Node10 -->
<g id="edge11" class="edge">
<title>Node1&#45;&gt;Node10</title>
<path fill="none" stroke="#63b8ff" d="M1141.62,-680.47C1283.27,-672.08 1594.39,-653.3 1856.5,-635 1891.46,-632.56 1930.17,-629.63 1962.94,-627.08"/>
<polygon fill="#63b8ff" stroke="#63b8ff" points="1141.78,-676.96 1132,-681.04 1142.19,-683.95 1141.78,-676.96"/>
</g>
<!-- Node11 -->
<g id="node11" class="node">
<title>Node11</title>
<g id="a_node11"><a xlink:href="proxqp_2results_8hpp.html" target="_top" xlink:title=" ">
<polygon fill="white" stroke="#666666" points="1507,-437 1370,-437 1370,-407 1507,-407 1507,-437"/>
<text text-anchor="start" x="1378" y="-425" font-family="Helvetica,sans-Serif" font-size="10.00">include/proxsuite/proxqp</text>
<text text-anchor="middle" x="1438.5" y="-414" font-family="Helvetica,sans-Serif" font-size="10.00">/results.hpp</text>
</a>
</g>
</g>
<!-- Node1&#45;&gt;Node11 -->
<g id="edge14" class="edge">
<title>Node1&#45;&gt;Node11</title>
<path fill="none" stroke="#63b8ff" d="M1127.22,-667.07C1183.48,-648.82 1266.21,-616.44 1326.5,-569 1375.46,-530.48 1414.82,-465.93 1430.79,-437.36"/>
<polygon fill="#63b8ff" stroke="#63b8ff" points="1126.25,-663.7 1117.78,-670.07 1128.37,-670.37 1126.25,-663.7"/>
</g>
<!-- Node13 -->
<g id="node13" class="node">
<title>Node13</title>
<g id="a_node13"><a xlink:href="sparse_2solver_8hpp.html" target="_top" xlink:title=" ">
<polygon fill="white" stroke="#666666" points="612,-162 475,-162 475,-132 612,-132 612,-162"/>
<text text-anchor="start" x="483" y="-150" font-family="Helvetica,sans-Serif" font-size="10.00">include/proxsuite/proxqp</text>
<text text-anchor="middle" x="543.5" y="-139" font-family="Helvetica,sans-Serif" font-size="10.00">/sparse/solver.hpp</text>
</a>
</g>
</g>
<!-- Node1&#45;&gt;Node13 -->
<g id="edge70" class="edge">
<title>Node1&#45;&gt;Node13</title>
<path fill="none" stroke="#63b8ff" d="M987.45,-681.92C769.7,-672.19 165.5,-637.74 165.5,-555 165.5,-555 165.5,-555 165.5,-278 165.5,-226.44 203.41,-221.11 249.5,-198 320.78,-162.26 412.69,-151.43 474.62,-148.47"/>
<polygon fill="#63b8ff" stroke="#63b8ff" points="987.1,-685.41 997.25,-682.35 987.41,-678.41 987.1,-685.41"/>
</g>
<!-- Node16 -->
<g id="node16" class="node">
<title>Node16</title>
<g id="a_node16"><a xlink:href="sparse_2utils_8hpp.html" target="_top" xlink:title=" ">
<polygon fill="white" stroke="#666666" points="785,-294 648,-294 648,-264 785,-264 785,-294"/>
<text text-anchor="start" x="656" y="-282" font-family="Helvetica,sans-Serif" font-size="10.00">include/proxsuite/proxqp</text>
<text text-anchor="middle" x="716.5" y="-271" font-family="Helvetica,sans-Serif" font-size="10.00">/sparse/utils.hpp</text>
</a>
</g>
</g>
<!-- Node1&#45;&gt;Node16 -->
<g id="edge71" class="edge">
<title>Node1&#45;&gt;Node16</title>
<path fill="none" stroke="#63b8ff" d="M987.75,-673.55C880.69,-655.38 699.5,-615.66 699.5,-555 699.5,-555 699.5,-555 699.5,-487 699.5,-434.76 714.26,-423.07 718.5,-371 719.98,-352.84 718.86,-348.22 718.5,-330 718.26,-318.01 717.7,-304.42 717.23,-294.44"/>
<polygon fill="#63b8ff" stroke="#63b8ff" points="986.89,-676.95 997.33,-675.15 988.04,-670.05 986.89,-676.95"/>
</g>
<!-- Node17 -->
<g id="node17" class="node">
<title>Node17</title>
<g id="a_node17"><a xlink:href="sparse_2workspace_8hpp.html" target="_top" xlink:title=" ">
<polygon fill="white" stroke="#666666" points="833,-228 696,-228 696,-198 833,-198 833,-228"/>
<text text-anchor="start" x="704" y="-216" font-family="Helvetica,sans-Serif" font-size="10.00">include/proxsuite/proxqp</text>
<text text-anchor="middle" x="764.5" y="-205" font-family="Helvetica,sans-Serif" font-size="10.00">/sparse/workspace.hpp</text>
</a>
</g>
</g>
<!-- Node1&#45;&gt;Node17 -->
<g id="edge73" class="edge">
<title>Node1&#45;&gt;Node17</title>
<path fill="none" stroke="#63b8ff" d="M1070.45,-659.54C1076.03,-633.45 1083.5,-591.62 1083.5,-555 1083.5,-555 1083.5,-555 1083.5,-487 1083.5,-450.46 1080.23,-435.97 1102.5,-407 1123.1,-380.2 1152.15,-400.01 1169.5,-371 1178.85,-355.36 1180.47,-344.55 1169.5,-330 1129.05,-276.34 938.01,-239.95 833.4,-223.68"/>
<polygon fill="#63b8ff" stroke="#63b8ff" points="1067.06,-658.67 1068.31,-669.19 1073.89,-660.19 1067.06,-658.67"/>
</g>
<!-- Node18 -->
<g id="node18" class="node">
<title>Node18</title>
<g id="a_node18"><a xlink:href="sparse_2views_8hpp.html" target="_top" xlink:title=" ">
<polygon fill="white" stroke="#666666" points="1161,-365.5 1024,-365.5 1024,-335.5 1161,-335.5 1161,-365.5"/>
<text text-anchor="start" x="1032" y="-353.5" font-family="Helvetica,sans-Serif" font-size="10.00">include/proxsuite/proxqp</text>
<text text-anchor="middle" x="1092.5" y="-342.5" font-family="Helvetica,sans-Serif" font-size="10.00">/sparse/views.hpp</text>
</a>
</g>
</g>
<!-- Node1&#45;&gt;Node18 -->
<g id="edge72" class="edge">
<title>Node1&#45;&gt;Node18</title>
<path fill="none" stroke="#63b8ff" d="M1058.55,-659.54C1052.97,-633.45 1045.5,-591.62 1045.5,-555 1045.5,-555 1045.5,-555 1045.5,-487 1045.5,-440.69 1070.31,-390.14 1083.88,-365.96"/>
<polygon fill="#63b8ff" stroke="#63b8ff" points="1055.11,-660.19 1060.69,-669.19 1061.94,-658.67 1055.11,-660.19"/>
</g>
<!-- Node20 -->
<g id="node20" class="node">
<title>Node20</title>
<g id="a_node20"><a xlink:href="proxqp_2sparse_2fwd_8hpp.html" target="_top" xlink:title=" ">
<polygon fill="white" stroke="#666666" points="671,-635 534,-635 534,-605 671,-605 671,-635"/>
<text text-anchor="start" x="542" y="-623" font-family="Helvetica,sans-Serif" font-size="10.00">include/proxsuite/proxqp</text>
<text text-anchor="middle" x="602.5" y="-612" font-family="Helvetica,sans-Serif" font-size="10.00">/sparse/fwd.hpp</text>
</a>
</g>
</g>
<!-- Node1&#45;&gt;Node20 -->
<g id="edge35" class="edge">
<title>Node1&#45;&gt;Node20</title>
<path fill="none" stroke="#63b8ff" d="M987.69,-675.69C911.05,-666.2 789.97,-650.7 685.5,-635 680.88,-634.31 676.11,-633.57 671.31,-632.8"/>
<polygon fill="#63b8ff" stroke="#63b8ff" points="986.81,-679.11 997.17,-676.86 987.67,-672.16 986.81,-679.11"/>
</g>
<!-- Node23 -->
<g id="node23" class="node">
<title>Node23</title>
<g id="a_node23"><a xlink:href="sparse_2helpers_8hpp.html" target="_top" xlink:title=" ">
<polygon fill="white" stroke="#666666" points="137,-569 0,-569 0,-539 137,-539 137,-569"/>
<text text-anchor="start" x="8" y="-557" font-family="Helvetica,sans-Serif" font-size="10.00">include/proxsuite/proxqp</text>
<text text-anchor="middle" x="68.5" y="-546" font-family="Helvetica,sans-Serif" font-size="10.00">/sparse/helpers.hpp</text>
</a>
</g>
</g>
<!-- Node1&#45;&gt;Node23 -->
<g id="edge69" class="edge">
<title>Node1&#45;&gt;Node23</title>
<path fill="none" stroke="#63b8ff" d="M987.33,-683.85C780.99,-680.34 227.07,-667.92 151.5,-635 119.21,-620.93 92.09,-588.39 78.29,-569.43"/>
<polygon fill="#63b8ff" stroke="#63b8ff" points="987.08,-687.34 997.14,-684.01 987.2,-680.34 987.08,-687.34"/>
</g>
<!-- Node3 -->
<g id="node3" class="node">
<title>Node3</title>
<g id="a_node3"><a xlink:href="dense_2solver_8hpp.html" target="_top" xlink:title=" ">
<polygon fill="white" stroke="#666666" points="1988,-294 1851,-294 1851,-264 1988,-264 1988,-294"/>
<text text-anchor="start" x="1859" y="-282" font-family="Helvetica,sans-Serif" font-size="10.00">include/proxsuite/proxqp</text>
<text text-anchor="middle" x="1919.5" y="-271" font-family="Helvetica,sans-Serif" font-size="10.00">/dense/solver.hpp</text>
</a>
</g>
</g>
<!-- Node2&#45;&gt;Node3 -->
<g id="edge2" class="edge">
<title>Node2&#45;&gt;Node3</title>
<path fill="none" stroke="#63b8ff" d="M1923.17,-468.23C1964.72,-450.31 2019.8,-418.86 2045.5,-371 2054.12,-354.95 2055.74,-345.08 2045.5,-330 2032.35,-310.63 2010.38,-298.76 1988.44,-291.49"/>
<polygon fill="#63b8ff" stroke="#63b8ff" points="1921.94,-464.95 1914.06,-472.03 1924.63,-471.42 1921.94,-464.95"/>
</g>
<!-- Node2&#45;&gt;Node7 -->
<g id="edge6" class="edge">
<title>Node2&#45;&gt;Node7</title>
<path fill="none" stroke="#63b8ff" d="M1823.44,-468.41C1798.45,-458.54 1768.21,-446.59 1745.01,-437.43"/>
<polygon fill="#63b8ff" stroke="#63b8ff" points="1822.15,-471.66 1832.74,-472.08 1824.72,-465.15 1822.15,-471.66"/>
</g>
<!-- Node4 -->
<g id="node4" class="node">
<title>Node4</title>
<g id="a_node4"><a xlink:href="proxqp_2dense_2wrapper_8hpp.html" target="_top" xlink:title=" ">
<polygon fill="white" stroke="#666666" points="2036,-228 1899,-228 1899,-198 2036,-198 2036,-228"/>
<text text-anchor="start" x="1907" y="-216" font-family="Helvetica,sans-Serif" font-size="10.00">include/proxsuite/proxqp</text>
<text text-anchor="middle" x="1967.5" y="-205" font-family="Helvetica,sans-Serif" font-size="10.00">/dense/wrapper.hpp</text>
</a>
</g>
</g>
<!-- Node3&#45;&gt;Node4 -->
<g id="edge3" class="edge">
<title>Node3&#45;&gt;Node4</title>
<path fill="none" stroke="#63b8ff" d="M1936.99,-254.68C1943.65,-245.79 1951.04,-235.95 1956.88,-228.16"/>
<polygon fill="#63b8ff" stroke="#63b8ff" points="1934.26,-252.49 1931.06,-262.59 1939.86,-256.69 1934.26,-252.49"/>
</g>
<!-- Node5 -->
<g id="node5" class="node">
<title>Node5</title>
<g id="a_node5"><a xlink:href="dense_8hpp.html" target="_top" xlink:title=" ">
<polygon fill="white" stroke="#666666" points="1951,-162 1814,-162 1814,-132 1951,-132 1951,-162"/>
<text text-anchor="start" x="1822" y="-150" font-family="Helvetica,sans-Serif" font-size="10.00">include/proxsuite/proxqp</text>
<text text-anchor="middle" x="1882.5" y="-139" font-family="Helvetica,sans-Serif" font-size="10.00">/dense/dense.hpp</text>
</a>
</g>
</g>
<!-- Node4&#45;&gt;Node5 -->
<g id="edge4" class="edge">
<title>Node4&#45;&gt;Node5</title>
<path fill="none" stroke="#63b8ff" d="M1939.58,-190.97C1927.13,-181.61 1912.8,-170.81 1901.61,-162.39"/>
<polygon fill="#63b8ff" stroke="#63b8ff" points="1937.33,-193.67 1947.43,-196.89 1941.54,-188.07 1937.33,-193.67"/>
</g>
<!-- Node6 -->
<g id="node6" class="node">
<title>Node6</title>
<g id="a_node6"><a xlink:href="serialization_2wrapper_8hpp.html" target="_top" xlink:title=" ">
<polygon fill="white" stroke="#666666" points="2133.5,-162 1969.5,-162 1969.5,-132 2133.5,-132 2133.5,-162"/>
<text text-anchor="start" x="1977.5" y="-150" font-family="Helvetica,sans-Serif" font-size="10.00">include/proxsuite/serialization</text>
<text text-anchor="middle" x="2051.5" y="-139" font-family="Helvetica,sans-Serif" font-size="10.00">/wrapper.hpp</text>
</a>
</g>
</g>
<!-- Node4&#45;&gt;Node6 -->
<g id="edge5" class="edge">
<title>Node4&#45;&gt;Node6</title>
<path fill="none" stroke="#63b8ff" d="M1995.1,-190.97C2007.39,-181.61 2021.56,-170.81 2032.62,-162.39"/>
<polygon fill="#63b8ff" stroke="#63b8ff" points="1993.18,-188.03 1987.35,-196.88 1997.42,-193.6 1993.18,-188.03"/>
</g>
<!-- Node8 -->
<g id="node8" class="node">
<title>Node8</title>
<g id="a_node8"><a xlink:href="linesearch_8hpp.html" target="_top" xlink:title=" ">
<polygon fill="white" stroke="#666666" points="1882,-365.5 1745,-365.5 1745,-335.5 1882,-335.5 1882,-365.5"/>
<text text-anchor="start" x="1753" y="-353.5" font-family="Helvetica,sans-Serif" font-size="10.00">include/proxsuite/proxqp</text>
<text text-anchor="middle" x="1813.5" y="-342.5" font-family="Helvetica,sans-Serif" font-size="10.00">/dense/linesearch.hpp</text>
</a>
</g>
</g>
<!-- Node7&#45;&gt;Node8 -->
<g id="edge7" class="edge">
<title>Node7&#45;&gt;Node8</title>
<path fill="none" stroke="#63b8ff" d="M1739.66,-400.37C1756.44,-389.27 1776.71,-375.85 1791.77,-365.88"/>
<polygon fill="#63b8ff" stroke="#63b8ff" points="1737.93,-397.33 1731.52,-405.76 1741.79,-403.16 1737.93,-397.33"/>
</g>
<!-- Node9 -->
<g id="node9" class="node">
<title>Node9</title>
<g id="a_node9"><a xlink:href="dense_2utils_8hpp.html" target="_top" xlink:title=" ">
<polygon fill="white" stroke="#666666" points="1727,-365.5 1590,-365.5 1590,-335.5 1727,-335.5 1727,-365.5"/>
<text text-anchor="start" x="1598" y="-353.5" font-family="Helvetica,sans-Serif" font-size="10.00">include/proxsuite/proxqp</text>
<text text-anchor="middle" x="1658.5" y="-342.5" font-family="Helvetica,sans-Serif" font-size="10.00">/dense/utils.hpp</text>
</a>
</g>
</g>
<!-- Node7&#45;&gt;Node9 -->
<g id="edge9" class="edge">
<title>Node7&#45;&gt;Node9</title>
<path fill="none" stroke="#63b8ff" d="M1691.61,-397.53C1684.07,-387.04 1675.41,-375.01 1668.85,-365.88"/>
<polygon fill="#63b8ff" stroke="#63b8ff" points="1688.57,-399.3 1697.26,-405.37 1694.26,-395.21 1688.57,-399.3"/>
</g>
<!-- Node8&#45;&gt;Node3 -->
<g id="edge8" class="edge">
<title>Node8&#45;&gt;Node3</title>
<path fill="none" stroke="#63b8ff" d="M1844.96,-328.87C1861.89,-317.77 1882.36,-304.35 1897.56,-294.38"/>
<polygon fill="#63b8ff" stroke="#63b8ff" points="1843.17,-325.86 1836.73,-334.27 1847.01,-331.71 1843.17,-325.86"/>
</g>
<!-- Node9&#45;&gt;Node3 -->
<g id="edge10" class="edge">
<title>Node9&#45;&gt;Node3</title>
<path fill="none" stroke="#63b8ff" d="M1723.96,-332.07C1767.53,-320.47 1824.1,-305.4 1865.17,-294.47"/>
<polygon fill="#63b8ff" stroke="#63b8ff" points="1723.12,-328.67 1714.36,-334.63 1724.92,-335.43 1723.12,-328.67"/>
</g>
<!-- Node10&#45;&gt;Node3 -->
<g id="edge12" class="edge">
<title>Node10&#45;&gt;Node3</title>
<path fill="none" stroke="#63b8ff" d="M2059.21,-595.57C2078.01,-570.76 2103.5,-529.64 2103.5,-489 2103.5,-489 2103.5,-489 2103.5,-421 2103.5,-376.82 2095.96,-359.97 2063.5,-330 2042.79,-310.88 2014.39,-299.02 1988.28,-291.68"/>
<polygon fill="#63b8ff" stroke="#63b8ff" points="2056.51,-593.33 2053.08,-603.36 2062.01,-597.66 2056.51,-593.33"/>
</g>
<!-- Node11&#45;&gt;Node8 -->
<g id="edge18" class="edge">
<title>Node11&#45;&gt;Node8</title>
<path fill="none" stroke="#63b8ff" d="M1518.49,-409.27C1578.45,-400.06 1662.41,-386.26 1735.5,-371 1742.74,-369.49 1750.33,-367.77 1757.81,-365.99"/>
<polygon fill="#63b8ff" stroke="#63b8ff" points="1518.06,-405.8 1508.7,-410.76 1519.11,-412.71 1518.06,-405.8"/>
</g>
<!-- Node11&#45;&gt;Node9 -->
<g id="edge19" class="edge">
<title>Node11&#45;&gt;Node9</title>
<path fill="none" stroke="#63b8ff" d="M1495.32,-403.05C1531.82,-391.52 1578.6,-376.74 1612.71,-365.97"/>
<polygon fill="#63b8ff" stroke="#63b8ff" points="1494.28,-399.71 1485.79,-406.06 1496.38,-406.38 1494.28,-399.71"/>
</g>
<!-- Node12 -->
<g id="node12" class="node">
<title>Node12</title>
<g id="a_node12"><a xlink:href="dense_2helpers_8hpp.html" target="_top" xlink:title=" ">
<polygon fill="white" stroke="#666666" points="2037,-365.5 1900,-365.5 1900,-335.5 2037,-335.5 2037,-365.5"/>
<text text-anchor="start" x="1908" y="-353.5" font-family="Helvetica,sans-Serif" font-size="10.00">include/proxsuite/proxqp</text>
<text text-anchor="middle" x="1968.5" y="-342.5" font-family="Helvetica,sans-Serif" font-size="10.00">/dense/helpers.hpp</text>
</a>
</g>
</g>
<!-- Node11&#45;&gt;Node12 -->
<g id="edge15" class="edge">
<title>Node11&#45;&gt;Node12</title>
<path fill="none" stroke="#63b8ff" d="M1518.74,-413.44C1628.89,-402.83 1821.17,-383.44 1890.5,-371 1898.33,-369.59 1906.54,-367.85 1914.58,-365.98"/>
<polygon fill="#63b8ff" stroke="#63b8ff" points="1518.49,-409.95 1508.87,-414.39 1519.16,-416.91 1518.49,-409.95"/>
</g>
<!-- Node11&#45;&gt;Node13 -->
<g id="edge20" class="edge">
<title>Node11&#45;&gt;Node13</title>
<path fill="none" stroke="#63b8ff" d="M1403.31,-400.68C1389.5,-392.14 1373.81,-381.71 1360.5,-371 1340.42,-354.84 1341.59,-343.27 1319.5,-330 1086.56,-190.06 754.37,-157.72 612.27,-150.25"/>
<polygon fill="#63b8ff" stroke="#63b8ff" points="1401.31,-403.56 1411.68,-405.76 1404.94,-397.58 1401.31,-403.56"/>
</g>
<!-- Node14 -->
<g id="node14" class="node">
<title>Node14</title>
<g id="a_node14"><a xlink:href="proxqp_2sparse_2wrapper_8hpp.html" target="_top" xlink:title=" ">
<polygon fill="white" stroke="#666666" points="1046,-96 909,-96 909,-66 1046,-66 1046,-96"/>
<text text-anchor="start" x="917" y="-84" font-family="Helvetica,sans-Serif" font-size="10.00">include/proxsuite/proxqp</text>
<text text-anchor="middle" x="977.5" y="-73" font-family="Helvetica,sans-Serif" font-size="10.00">/sparse/wrapper.hpp</text>
</a>
</g>
</g>
<!-- Node11&#45;&gt;Node14 -->
<g id="edge33" class="edge">
<title>Node11&#45;&gt;Node14</title>
<path fill="none" stroke="#63b8ff" d="M1501.27,-402.01C1516.76,-394.59 1531.91,-384.52 1542.5,-371 1567.97,-338.47 1561.5,-321.32 1561.5,-280 1561.5,-280 1561.5,-280 1561.5,-212 1561.5,-107.55 1201.03,-86.98 1046.5,-82.96"/>
<polygon fill="#63b8ff" stroke="#63b8ff" points="1500.21,-398.65 1492.48,-405.9 1503.04,-405.06 1500.21,-398.65"/>
</g>
<!-- Node11&#45;&gt;Node16 -->
<g id="edge23" class="edge">
<title>Node11&#45;&gt;Node16</title>
<path fill="none" stroke="#63b8ff" d="M1360.45,-403.88C1326.48,-395.47 1286.52,-384.28 1251.5,-371 1213.4,-356.55 1208.58,-341.53 1169.5,-330 1037.26,-291 875.16,-281.93 785.13,-280.11"/>
<polygon fill="#63b8ff" stroke="#63b8ff" points="1359.24,-407.19 1369.79,-406.15 1360.9,-400.38 1359.24,-407.19"/>
</g>
<!-- Node11&#45;&gt;Node17 -->
<g id="edge32" class="edge">
<title>Node11&#45;&gt;Node17</title>
<path fill="none" stroke="#63b8ff" d="M1388.7,-402.2C1368.98,-393.83 1346.52,-383.13 1327.5,-371 1266.12,-331.87 1270.18,-293.19 1203.5,-264 1138.77,-235.66 939.81,-222.21 833.37,-216.9"/>
<polygon fill="#63b8ff" stroke="#63b8ff" points="1387.35,-405.43 1397.93,-406.02 1390.03,-398.96 1387.35,-405.43"/>
</g>
<!-- Node11&#45;&gt;Node18 -->
<g id="edge28" class="edge">
<title>Node11&#45;&gt;Node18</title>
<path fill="none" stroke="#63b8ff" d="M1358.47,-404.92C1298.83,-392.95 1218.23,-376.76 1161.44,-365.35"/>
<polygon fill="#63b8ff" stroke="#63b8ff" points="1357.75,-408.35 1368.24,-406.89 1359.13,-401.49 1357.75,-408.35"/>
</g>
<!-- Node19 -->
<g id="node19" class="node">
<title>Node19</title>
<g id="a_node19"><a xlink:href="serialization_2results_8hpp.html" target="_top" xlink:title=" ">
<polygon fill="white" stroke="#666666" points="1533.5,-365.5 1369.5,-365.5 1369.5,-335.5 1533.5,-335.5 1533.5,-365.5"/>
<text text-anchor="start" x="1377.5" y="-353.5" font-family="Helvetica,sans-Serif" font-size="10.00">include/proxsuite/serialization</text>
<text text-anchor="middle" x="1451.5" y="-342.5" font-family="Helvetica,sans-Serif" font-size="10.00">/results.hpp</text>
</a>
</g>
</g>
<!-- Node11&#45;&gt;Node19 -->
<g id="edge34" class="edge">
<title>Node11&#45;&gt;Node19</title>
<path fill="none" stroke="#63b8ff" d="M1443.25,-395.58C1445.13,-385.58 1447.21,-374.45 1448.81,-365.88"/>
<polygon fill="#63b8ff" stroke="#63b8ff" points="1439.87,-394.64 1441.47,-405.11 1446.75,-395.93 1439.87,-394.64"/>
</g>
<!-- Node12&#45;&gt;Node3 -->
<g id="edge16" class="edge">
<title>Node12&#45;&gt;Node3</title>
<path fill="none" stroke="#63b8ff" d="M1951.72,-325.7C1944.38,-315.29 1936.01,-303.42 1929.64,-294.38"/>
<polygon fill="#63b8ff" stroke="#63b8ff" points="1948.85,-327.71 1957.48,-333.86 1954.57,-323.67 1948.85,-327.71"/>
</g>
<!-- Node12&#45;&gt;Node4 -->
<g id="edge17" class="edge">
<title>Node12&#45;&gt;Node4</title>
<path fill="none" stroke="#63b8ff" d="M1983.77,-325.36C1988.87,-315.95 1993.92,-304.83 1996.5,-294 1999.59,-281.03 1999.96,-276.88 1996.5,-264 1993.01,-251.01 1985.22,-237.92 1978.6,-228.4"/>
<polygon fill="#63b8ff" stroke="#63b8ff" points="1980.84,-323.43 1978.86,-333.84 1986.9,-326.94 1980.84,-323.43"/>
</g>
<!-- Node13&#45;&gt;Node14 -->
<g id="edge21" class="edge">
<title>Node13&#45;&gt;Node14</title>
<path fill="none" stroke="#63b8ff" d="M623.52,-134.2C705.36,-122.13 831.18,-103.58 908.69,-92.15"/>
<polygon fill="#63b8ff" stroke="#63b8ff" points="623.15,-130.72 613.77,-135.64 624.17,-137.64 623.15,-130.72"/>
</g>
<!-- Node15 -->
<g id="node15" class="node">
<title>Node15</title>
<g id="a_node15"><a xlink:href="sparse_8hpp.html" target="_top" xlink:title=" ">
<polygon fill="white" stroke="#666666" points="1046,-30 909,-30 909,0 1046,0 1046,-30"/>
<text text-anchor="start" x="917" y="-18" font-family="Helvetica,sans-Serif" font-size="10.00">include/proxsuite/proxqp</text>
<text text-anchor="middle" x="977.5" y="-7" font-family="Helvetica,sans-Serif" font-size="10.00">/sparse/sparse.hpp</text>
</a>
</g>
</g>
<!-- Node14&#45;&gt;Node15 -->
<g id="edge22" class="edge">
<title>Node14&#45;&gt;Node15</title>
<path fill="none" stroke="#63b8ff" d="M977.5,-54.39C977.5,-46.13 977.5,-37.28 977.5,-30.16"/>
<polygon fill="#63b8ff" stroke="#63b8ff" points="974,-54.28 977.5,-64.28 981,-54.28 974,-54.28"/>
</g>
<!-- Node16&#45;&gt;Node13 -->
<g id="edge24" class="edge">
<title>Node16&#45;&gt;Node13</title>
<path fill="none" stroke="#63b8ff" d="M688.48,-256.94C653.15,-230.39 593.34,-185.45 562.76,-162.47"/>
<polygon fill="#63b8ff" stroke="#63b8ff" points="686.02,-259.47 696.11,-262.68 690.22,-253.88 686.02,-259.47"/>
</g>
<!-- Node16&#45;&gt;Node17 -->
<g id="edge25" class="edge">
<title>Node16&#45;&gt;Node17</title>
<path fill="none" stroke="#63b8ff" d="M727.66,-254.39C733.82,-245.59 741.39,-235.86 748.16,-228.16"/>
<polygon fill="#63b8ff" stroke="#63b8ff" points="724.88,-252.27 722.27,-262.53 730.71,-256.13 724.88,-252.27"/>
</g>
<!-- Node17&#45;&gt;Node13 -->
<g id="edge26" class="edge">
<title>Node17&#45;&gt;Node13</title>
<path fill="none" stroke="#63b8ff" d="M703.66,-194.38C668.91,-184.32 625.89,-171.86 593.19,-162.39"/>
<polygon fill="#63b8ff" stroke="#63b8ff" points="702.59,-197.72 713.17,-197.14 704.54,-190.99 702.59,-197.72"/>
</g>
<!-- Node17&#45;&gt;Node16 -->
<g id="edge27" class="edge">
<title>Node17&#45;&gt;Node16</title>
<path fill="none" stroke="#63b8ff" d="M753.37,-237.56C747.22,-246.37 739.65,-256.09 732.87,-263.8"/>
<polygon fill="#63b8ff" stroke="#63b8ff" points="756.15,-239.7 758.76,-229.43 750.32,-235.83 756.15,-239.7"/>
</g>
<!-- Node18&#45;&gt;Node13 -->
<g id="edge29" class="edge">
<title>Node18&#45;&gt;Node13</title>
<path fill="none" stroke="#63b8ff" d="M1065.28,-328.26C1021.03,-294.88 929.55,-230.6 841.5,-198 765.99,-170.04 673.89,-157.63 612.25,-152.18"/>
<polygon fill="#63b8ff" stroke="#63b8ff" points="1062.96,-330.89 1073.04,-334.17 1067.2,-325.32 1062.96,-330.89"/>
</g>
<!-- Node18&#45;&gt;Node16 -->
<g id="edge30" class="edge">
<title>Node18&#45;&gt;Node16</title>
<path fill="none" stroke="#63b8ff" d="M1025.92,-332.48C1022.06,-331.61 1018.23,-330.78 1014.5,-330 936.44,-313.72 846.02,-299.15 785.44,-289.99"/>
<polygon fill="#63b8ff" stroke="#63b8ff" points="1024.8,-335.82 1035.33,-334.67 1026.38,-329 1024.8,-335.82"/>
</g>
<!-- Node18&#45;&gt;Node17 -->
<g id="edge31" class="edge">
<title>Node18&#45;&gt;Node17</title>
<path fill="none" stroke="#63b8ff" d="M1047.19,-330.78C980.97,-303.43 859.18,-253.11 799.43,-228.43"/>
<polygon fill="#63b8ff" stroke="#63b8ff" points="1045.73,-333.97 1056.31,-334.55 1048.4,-327.5 1045.73,-333.97"/>
</g>
<!-- Node20&#45;&gt;Node11 -->
<g id="edge36" class="edge">
<title>Node20&#45;&gt;Node11</title>
<path fill="none" stroke="#63b8ff" d="M682.6,-614.22C810.38,-604.61 1066.74,-577.08 1270.5,-503 1295.94,-493.75 1299.28,-485.08 1323.5,-473 1349.51,-460.03 1379.67,-446.99 1402.57,-437.48"/>
<polygon fill="#63b8ff" stroke="#63b8ff" points="682.61,-610.71 672.89,-614.94 683.12,-617.7 682.61,-610.71"/>
</g>
<!-- Node20&#45;&gt;Node13 -->
<g id="edge64" class="edge">
<title>Node20&#45;&gt;Node13</title>
<path fill="none" stroke="#63b8ff" d="M522.57,-609.43C406.11,-593.21 203.5,-555.45 203.5,-489 203.5,-489 203.5,-489 203.5,-278 203.5,-220.49 375.35,-179.05 474.7,-159.89"/>
<polygon fill="#63b8ff" stroke="#63b8ff" points="522.03,-612.88 532.41,-610.77 522.98,-605.95 522.03,-612.88"/>
</g>
<!-- Node21 -->
<g id="node21" class="node">
<title>Node21</title>
<g id="a_node21"><a xlink:href="proxqp_2settings_8hpp.html" target="_top" xlink:title=" ">
<polygon fill="white" stroke="#666666" points="1262,-503 1125,-503 1125,-473 1262,-473 1262,-503"/>
<text text-anchor="start" x="1133" y="-491" font-family="Helvetica,sans-Serif" font-size="10.00">include/proxsuite/proxqp</text>
<text text-anchor="middle" x="1193.5" y="-480" font-family="Helvetica,sans-Serif" font-size="10.00">/settings.hpp</text>
</a>
</g>
</g>
<!-- Node20&#45;&gt;Node21 -->
<g id="edge37" class="edge">
<title>Node20&#45;&gt;Node21</title>
<path fill="none" stroke="#63b8ff" d="M679.29,-602.11C796.41,-576.35 1017.64,-527.68 1127.78,-503.46"/>
<polygon fill="#63b8ff" stroke="#63b8ff" points="678.78,-598.64 669.77,-604.2 680.29,-605.47 678.78,-598.64"/>
</g>
<!-- Node20&#45;&gt;Node23 -->
<g id="edge48" class="edge">
<title>Node20&#45;&gt;Node23</title>
<path fill="none" stroke="#63b8ff" d="M522.38,-609.4C417.68,-596.85 236.07,-575.08 137.3,-563.25"/>
<polygon fill="#63b8ff" stroke="#63b8ff" points="521.66,-612.84 532.01,-610.55 522.49,-605.89 521.66,-612.84"/>
</g>
<!-- Node24 -->
<g id="node24" class="node">
<title>Node24</title>
<g id="a_node24"><a xlink:href="proxqp_2sparse_2model_8hpp.html" target="_top" xlink:title=" ">
<polygon fill="white" stroke="#666666" points="671,-503 534,-503 534,-473 671,-473 671,-503"/>
<text text-anchor="start" x="542" y="-491" font-family="Helvetica,sans-Serif" font-size="10.00">include/proxsuite/proxqp</text>
<text text-anchor="middle" x="602.5" y="-480" font-family="Helvetica,sans-Serif" font-size="10.00">/sparse/model.hpp</text>
</a>
</g>
</g>
<!-- Node20&#45;&gt;Node24 -->
<g id="edge50" class="edge">
<title>Node20&#45;&gt;Node24</title>
<path fill="none" stroke="#63b8ff" d="M602.5,-593.38C602.5,-566.49 602.5,-525.18 602.5,-503.47"/>
<polygon fill="#63b8ff" stroke="#63b8ff" points="599,-593.08 602.5,-603.08 606,-593.08 599,-593.08"/>
</g>
<!-- Node28 -->
<g id="node28" class="node">
<title>Node28</title>
<g id="a_node28"><a xlink:href="sparse_2preconditioner_2ruiz_8hpp.html" target="_top" xlink:title=" ">
<polygon fill="white" stroke="#666666" points="369,-371 232,-371 232,-330 369,-330 369,-371"/>
<text text-anchor="start" x="240" y="-359" font-family="Helvetica,sans-Serif" font-size="10.00">include/proxsuite/proxqp</text>
<text text-anchor="start" x="240" y="-348" font-family="Helvetica,sans-Serif" font-size="10.00">/sparse/preconditioner</text>
<text text-anchor="middle" x="300.5" y="-337" font-family="Helvetica,sans-Serif" font-size="10.00">/ruiz.hpp</text>
</a>
</g>
</g>
<!-- Node20&#45;&gt;Node28 -->
<g id="edge61" class="edge">
<title>Node20&#45;&gt;Node28</title>
<path fill="none" stroke="#63b8ff" d="M574.89,-597.61C532.56,-564.48 449.61,-498.19 383.5,-437 360.27,-415.5 335.16,-389.16 318.72,-371.44"/>
<polygon fill="#63b8ff" stroke="#63b8ff" points="572.54,-600.22 582.57,-603.61 576.84,-594.7 572.54,-600.22"/>
</g>
<!-- Node29 -->
<g id="node29" class="node">
<title>Node29</title>
<g id="a_node29"><a xlink:href="status_8hpp.html" target="_top" xlink:title=" ">
<polygon fill="white" stroke="#666666" points="1318,-569 1181,-569 1181,-539 1318,-539 1318,-569"/>
<text text-anchor="start" x="1189" y="-557" font-family="Helvetica,sans-Serif" font-size="10.00">include/proxsuite/proxqp</text>
<text text-anchor="middle" x="1249.5" y="-546" font-family="Helvetica,sans-Serif" font-size="10.00">/status.hpp</text>
</a>
</g>
</g>
<!-- Node20&#45;&gt;Node29 -->
<g id="edge65" class="edge">
<title>Node20&#45;&gt;Node29</title>
<path fill="none" stroke="#63b8ff" d="M682.71,-611.07C810.97,-598.38 1060.02,-573.74 1180.68,-561.81"/>
<polygon fill="#63b8ff" stroke="#63b8ff" points="682.55,-607.56 672.94,-612.03 683.24,-614.53 682.55,-607.56"/>
</g>
<!-- Node21&#45;&gt;Node8 -->
<g id="edge39" class="edge">
<title>Node21&#45;&gt;Node8</title>
<path fill="none" stroke="#63b8ff" d="M1273.43,-485.76C1347.63,-482.32 1460.1,-471.23 1551.5,-437 1574.36,-428.44 1575.16,-416.83 1597.5,-407 1601.23,-405.36 1693.63,-381.83 1756.36,-365.94"/>
<polygon fill="#63b8ff" stroke="#63b8ff" points="1273.66,-482.24 1263.82,-486.16 1273.96,-489.24 1273.66,-482.24"/>
</g>
<!-- Node21&#45;&gt;Node9 -->
<g id="edge40" class="edge">
<title>Node21&#45;&gt;Node9</title>
<path fill="none" stroke="#63b8ff" d="M1273.66,-484.36C1340.42,-479.89 1436.91,-468.05 1515.5,-437 1537.51,-428.3 1539.38,-419.47 1559.5,-407 1583.28,-392.26 1611.14,-376.8 1631.24,-365.95"/>
<polygon fill="#63b8ff" stroke="#63b8ff" points="1273.66,-480.85 1263.9,-484.97 1274.1,-487.84 1273.66,-480.85"/>
</g>
<!-- Node21&#45;&gt;Node11 -->
<g id="edge41" class="edge">
<title>Node21&#45;&gt;Node11</title>
<path fill="none" stroke="#63b8ff" d="M1259.45,-469.77C1298.23,-459.64 1346.69,-446.98 1383.41,-437.39"/>
<polygon fill="#63b8ff" stroke="#63b8ff" points="1259.04,-466.26 1250.25,-472.17 1260.81,-473.03 1259.04,-466.26"/>
</g>
<!-- Node21&#45;&gt;Node12 -->
<g id="edge38" class="edge">
<title>Node21&#45;&gt;Node12</title>
<path fill="none" stroke="#63b8ff" d="M1273.75,-481.5C1372.19,-473.95 1532.85,-458.78 1588.5,-437 1609.86,-428.64 1609.19,-415.49 1630.5,-407 1738.88,-363.85 1775.97,-393.18 1890.5,-371 1898.04,-369.54 1905.94,-367.81 1913.69,-365.99"/>
<polygon fill="#63b8ff" stroke="#63b8ff" points="1273.57,-478 1263.87,-482.25 1274.1,-484.98 1273.57,-478"/>
</g>
<!-- Node21&#45;&gt;Node13 -->
<g id="edge42" class="edge">
<title>Node21&#45;&gt;Node13</title>
<path fill="none" stroke="#63b8ff" d="M1113.42,-485.69C953.02,-481.14 601.57,-460.92 530.5,-371 480.72,-308.02 519.94,-201.09 536.78,-162.46"/>
<polygon fill="#63b8ff" stroke="#63b8ff" points="1113.03,-489.18 1123.12,-485.95 1113.22,-482.18 1113.03,-489.18"/>
</g>
<!-- Node21&#45;&gt;Node14 -->
<g id="edge46" class="edge">
<title>Node21&#45;&gt;Node14</title>
<path fill="none" stroke="#63b8ff" d="M1264.72,-467.91C1279.27,-460.63 1292.78,-450.65 1301.5,-437 1308.68,-425.76 1306.59,-419.32 1301.5,-407 1238.5,-254.58 1065.55,-136.16 1001.64,-96.41"/>
<polygon fill="#63b8ff" stroke="#63b8ff" points="1263.57,-464.58 1255.91,-471.9 1266.46,-470.96 1263.57,-464.58"/>
</g>
<!-- Node21&#45;&gt;Node16 -->
<g id="edge43" class="edge">
<title>Node21&#45;&gt;Node16</title>
<path fill="none" stroke="#63b8ff" d="M1113.54,-482.77C1023.27,-476.78 883.03,-463.48 837.5,-437 822.14,-428.07 752.83,-331.39 726.6,-294.34"/>
<polygon fill="#63b8ff" stroke="#63b8ff" points="1113.13,-486.25 1123.33,-483.4 1113.58,-479.26 1113.13,-486.25"/>
</g>
<!-- Node21&#45;&gt;Node17 -->
<g id="edge45" class="edge">
<title>Node21&#45;&gt;Node17</title>
<path fill="none" stroke="#63b8ff" d="M1113.26,-482.47C1030.69,-476.44 908.89,-463.32 870.5,-437 801.09,-389.41 829.16,-340.23 793.5,-264 787.63,-251.46 779.66,-237.91 773.56,-228.08"/>
<polygon fill="#63b8ff" stroke="#63b8ff" points="1112.9,-485.95 1123.13,-483.16 1113.4,-478.97 1112.9,-485.95"/>
</g>
<!-- Node21&#45;&gt;Node18 -->
<g id="edge44" class="edge">
<title>Node21&#45;&gt;Node18</title>
<path fill="none" stroke="#63b8ff" d="M1250.87,-467.39C1264.2,-460.01 1276.75,-450.11 1284.5,-437 1291.29,-425.52 1292.51,-417.66 1284.5,-407 1269.43,-386.96 1210.2,-371.86 1161.47,-362.51"/>
<polygon fill="#63b8ff" stroke="#63b8ff" points="1249.31,-464.26 1241.95,-471.88 1252.45,-470.51 1249.31,-464.26"/>
</g>
<!-- Node22 -->
<g id="node22" class="node">
<title>Node22</title>
<g id="a_node22"><a xlink:href="serialization_2settings_8hpp.html" target="_top" xlink:title=" ">
<polygon fill="white" stroke="#666666" points="1275.5,-437 1111.5,-437 1111.5,-407 1275.5,-407 1275.5,-437"/>
<text text-anchor="start" x="1119.5" y="-425" font-family="Helvetica,sans-Serif" font-size="10.00">include/proxsuite/serialization</text>
<text text-anchor="middle" x="1193.5" y="-414" font-family="Helvetica,sans-Serif" font-size="10.00">/settings.hpp</text>
</a>
</g>
</g>
<!-- Node21&#45;&gt;Node22 -->
<g id="edge47" class="edge">
<title>Node21&#45;&gt;Node22</title>
<path fill="none" stroke="#63b8ff" d="M1193.5,-461.39C1193.5,-453.13 1193.5,-444.28 1193.5,-437.16"/>
<polygon fill="#63b8ff" stroke="#63b8ff" points="1190,-461.28 1193.5,-471.28 1197,-461.28 1190,-461.28"/>
</g>
<!-- Node23&#45;&gt;Node14 -->
<g id="edge49" class="edge">
<title>Node23&#45;&gt;Node14</title>
<path fill="none" stroke="#63b8ff" d="M77.78,-528.13C86.59,-502.25 98.5,-460.36 98.5,-423 98.5,-423 98.5,-423 98.5,-212 98.5,-130.24 701.31,-94.74 908.53,-84.96"/>
<polygon fill="#63b8ff" stroke="#63b8ff" points="74.54,-526.8 74.51,-537.39 81.14,-529.13 74.54,-526.8"/>
</g>
<!-- Node24&#45;&gt;Node13 -->
<g id="edge56" class="edge">
<title>Node24&#45;&gt;Node13</title>
<path fill="none" stroke="#63b8ff" d="M525.52,-469.26C467.36,-450.75 397.5,-415.26 397.5,-351.5 397.5,-351.5 397.5,-351.5 397.5,-278 397.5,-220.13 462.26,-181.68 505.52,-162.45"/>
<polygon fill="#63b8ff" stroke="#63b8ff" points="524.19,-472.51 534.78,-472.07 526.23,-465.81 524.19,-472.51"/>
</g>
<!-- Node24&#45;&gt;Node16 -->
<g id="edge57" class="edge">
<title>Node24&#45;&gt;Node16</title>
<path fill="none" stroke="#63b8ff" d="M578.51,-464.99C546.55,-433 497.67,-372.82 530.5,-330 545,-311.09 600.99,-297.74 647.78,-289.62"/>
<polygon fill="#63b8ff" stroke="#63b8ff" points="575.9,-467.34 585.51,-471.8 580.78,-462.32 575.9,-467.34"/>
</g>
<!-- Node24&#45;&gt;Node17 -->
<g id="edge59" class="edge">
<title>Node24&#45;&gt;Node17</title>
<path fill="none" stroke="#63b8ff" d="M561.91,-466.53C550.16,-458.77 538.4,-448.88 530.5,-437 503.96,-397.05 491.95,-371.2 516.5,-330 553.97,-267.12 636.11,-237.91 695.61,-224.62"/>
<polygon fill="#63b8ff" stroke="#63b8ff" points="560.05,-469.49 570.4,-471.75 563.71,-463.53 560.05,-469.49"/>
</g>
<!-- Node24&#45;&gt;Node18 -->
<g id="edge58" class="edge">
<title>Node24&#45;&gt;Node18</title>
<path fill="none" stroke="#63b8ff" d="M659.06,-469.31C713.15,-452.58 797.12,-427.11 870.5,-407 871.01,-406.86 969.03,-382.36 1034.63,-365.96"/>
<polygon fill="#63b8ff" stroke="#63b8ff" points="658.28,-465.89 649.76,-472.19 660.35,-472.57 658.28,-465.89"/>
</g>
<!-- Node25 -->
<g id="node25" class="node">
<title>Node25</title>
<g id="a_node25"><a xlink:href="proxqp_2dense_2model_8hpp.html" target="_top" xlink:title=" ">
<polygon fill="white" stroke="#666666" points="1017,-437 880,-437 880,-407 1017,-407 1017,-437"/>
<text text-anchor="start" x="888" y="-425" font-family="Helvetica,sans-Serif" font-size="10.00">include/proxsuite/proxqp</text>
<text text-anchor="middle" x="948.5" y="-414" font-family="Helvetica,sans-Serif" font-size="10.00">/dense/model.hpp</text>
</a>
</g>
</g>
<!-- Node24&#45;&gt;Node25 -->
<g id="edge51" class="edge">
<title>Node24&#45;&gt;Node25</title>
<path fill="none" stroke="#63b8ff" d="M682.53,-472.2C742.17,-461.17 822.77,-446.26 879.56,-435.75"/>
<polygon fill="#63b8ff" stroke="#63b8ff" points="681.96,-468.74 672.76,-474 683.23,-475.63 681.96,-468.74"/>
</g>
<!-- Node26 -->
<g id="node26" class="node">
<title>Node26</title>
<g id="a_node26"><a xlink:href="random__qp__problems_8hpp.html" target="_top" xlink:title=" ">
<polygon fill="white" stroke="#666666" points="709.5,-365.5 539.5,-365.5 539.5,-335.5 709.5,-335.5 709.5,-365.5"/>
<text text-anchor="start" x="547.5" y="-353.5" font-family="Helvetica,sans-Serif" font-size="10.00">include/proxsuite/proxqp</text>
<text text-anchor="middle" x="624.5" y="-342.5" font-family="Helvetica,sans-Serif" font-size="10.00">/utils/random_qp_problems.hpp</text>
</a>
</g>
</g>
<!-- Node24&#45;&gt;Node26 -->
<g id="edge60" class="edge">
<title>Node24&#45;&gt;Node26</title>
<path fill="none" stroke="#63b8ff" d="M606.66,-461.41C611.24,-433.17 618.46,-388.71 622.15,-365.96"/>
<polygon fill="#63b8ff" stroke="#63b8ff" points="603.2,-460.83 605.06,-471.26 610.11,-461.95 603.2,-460.83"/>
</g>
<!-- Node25&#45;&gt;Node8 -->
<g id="edge52" class="edge">
<title>Node25&#45;&gt;Node8</title>
<path fill="none" stroke="#63b8ff" d="M1028.88,-413.17C1052.58,-411.01 1078.57,-408.77 1102.5,-407 1383.52,-386.24 1456.91,-413.36 1735.5,-371 1743.92,-369.72 1752.75,-367.94 1761.33,-365.98"/>
<polygon fill="#63b8ff" stroke="#63b8ff" points="1028.6,-409.69 1018.96,-414.09 1029.24,-416.66 1028.6,-409.69"/>
</g>
<!-- Node25&#45;&gt;Node9 -->
<g id="edge53" class="edge">
<title>Node25&#45;&gt;Node9</title>
<path fill="none" stroke="#63b8ff" d="M1028.91,-413.55C1052.61,-411.39 1078.6,-409.06 1102.5,-407 1297.98,-390.12 1347.8,-395.29 1542.5,-371 1557.8,-369.09 1574.16,-366.61 1589.64,-364.07"/>
<polygon fill="#63b8ff" stroke="#63b8ff" points="1028.63,-410.06 1018.99,-414.46 1029.27,-417.03 1028.63,-410.06"/>
</g>
<!-- Node25&#45;&gt;Node26 -->
<g id="edge54" class="edge">
<title>Node25&#45;&gt;Node26</title>
<path fill="none" stroke="#63b8ff" d="M869.98,-404.16C815.54,-392.48 743.8,-377.09 691.94,-365.97"/>
<polygon fill="#63b8ff" stroke="#63b8ff" points="868.98,-407.52 879.49,-406.2 870.45,-400.68 868.98,-407.52"/>
</g>
<!-- Node27 -->
<g id="node27" class="node">
<title>Node27</title>
<g id="a_node27"><a xlink:href="serialization_2model_8hpp.html" target="_top" xlink:title=" ">
<polygon fill="white" stroke="#666666" points="1005.5,-365.5 841.5,-365.5 841.5,-335.5 1005.5,-335.5 1005.5,-365.5"/>
<text text-anchor="start" x="849.5" y="-353.5" font-family="Helvetica,sans-Serif" font-size="10.00">include/proxsuite/serialization</text>
<text text-anchor="middle" x="923.5" y="-342.5" font-family="Helvetica,sans-Serif" font-size="10.00">/model.hpp</text>
</a>
</g>
</g>
<!-- Node25&#45;&gt;Node27 -->
<g id="edge55" class="edge">
<title>Node25&#45;&gt;Node27</title>
<path fill="none" stroke="#63b8ff" d="M939.47,-395.91C935.84,-385.82 931.79,-374.54 928.67,-365.88"/>
<polygon fill="#63b8ff" stroke="#63b8ff" points="936.13,-396.95 942.81,-405.18 942.72,-394.58 936.13,-396.95"/>
</g>
<!-- Node28&#45;&gt;Node13 -->
<g id="edge62" class="edge">
<title>Node28&#45;&gt;Node13</title>
<path fill="none" stroke="#63b8ff" d="M309.55,-318.87C321.21,-284.61 344.73,-229.76 383.5,-198 409.28,-176.89 444.01,-164.66 474.52,-157.59"/>
<polygon fill="#63b8ff" stroke="#63b8ff" points="306.28,-317.61 306.51,-328.2 312.93,-319.78 306.28,-317.61"/>
</g>
<!-- Node28&#45;&gt;Node16 -->
<g id="edge63" class="edge">
<title>Node28&#45;&gt;Node16</title>
<path fill="none" stroke="#63b8ff" d="M380.33,-336.16C457.82,-323.22 574.2,-303.77 647.7,-291.49"/>
<polygon fill="#63b8ff" stroke="#63b8ff" points="379.97,-332.67 370.69,-337.77 381.13,-339.58 379.97,-332.67"/>
</g>
<!-- Node29&#45;&gt;Node11 -->
<g id="edge67" class="edge">
<title>Node29&#45;&gt;Node11</title>
<path fill="none" stroke="#63b8ff" d="M1279.62,-532.28C1318.15,-505.78 1383.91,-460.55 1417.46,-437.47"/>
<polygon fill="#63b8ff" stroke="#63b8ff" points="1277.95,-529.18 1271.7,-537.73 1281.92,-534.95 1277.95,-529.18"/>
</g>
<!-- Node29&#45;&gt;Node12 -->
<g id="edge66" class="edge">
<title>Node29&#45;&gt;Node12</title>
<path fill="none" stroke="#63b8ff" d="M1329.33,-541.46C1435.38,-524.84 1627.72,-490.18 1785.5,-437 1843.65,-417.4 1907.82,-384.64 1942.6,-365.88"/>
<polygon fill="#63b8ff" stroke="#63b8ff" points="1328.92,-537.98 1319.58,-542.97 1330,-544.9 1328.92,-537.98"/>
</g>
<!-- Node29&#45;&gt;Node21 -->
<g id="edge68" class="edge">
<title>Node29&#45;&gt;Node21</title>
<path fill="none" stroke="#63b8ff" d="M1229.59,-530.24C1221.69,-521.21 1212.85,-511.11 1205.89,-503.16"/>
<polygon fill="#63b8ff" stroke="#63b8ff" points="1226.86,-532.44 1236.08,-537.66 1232.12,-527.83 1226.86,-532.44"/>
</g>
</g>
</svg>
