<?xml version="1.0" encoding="UTF-8" standalone="no"?>
<!DOCTYPE svg PUBLIC "-//W3C//DTD SVG 1.1//EN"
 "http://www.w3.org/Graphics/SVG/1.1/DTD/svg11.dtd">
<!-- Generated by graphviz version 8.0.4 (20230426.1303)
 -->
<!-- Title: include/proxsuite/linalg/veg/vec.hpp Pages: 1 -->
<svg width="2515pt" height="888pt"
 viewBox="0.00 0.00 2515.07 888.25" xmlns="http://www.w3.org/2000/svg" xmlns:xlink="http://www.w3.org/1999/xlink">
<g id="graph0" class="graph" transform="scale(1 1) rotate(0) translate(4 884.25)">
<title>include/proxsuite/linalg/veg/vec.hpp</title>
<!-- Node1 -->
<g id="node1" class="node">
<title>Node1</title>
<g id="a_node1"><a xlink:title=" ">
<polygon fill="#999999" stroke="#666666" points="2036.61,-880.25 1906.61,-880.25 1906.61,-846.75 2036.61,-846.75 2036.61,-880.25"/>
<text text-anchor="start" x="1914.61" y="-866.75" font-family="Helvetica,sans-Serif" font-size="10.00">include/proxsuite/linalg</text>
<text text-anchor="middle" x="1971.61" y="-854" font-family="Helvetica,sans-Serif" font-size="10.00">/veg/vec.hpp</text>
</a>
</g>
</g>
<!-- Node2 -->
<g id="node2" class="node">
<title>Node2</title>
<g id="a_node2"><a xlink:href="delete__special__members_8hpp.html" target="_top" xlink:title=" ">
<polygon fill="white" stroke="#666666" points="1492.61,-172.5 1362.61,-172.5 1362.61,-126.25 1492.61,-126.25 1492.61,-172.5"/>
<text text-anchor="start" x="1370.61" y="-159" font-family="Helvetica,sans-Serif" font-size="10.00">proxsuite/linalg/veg</text>
<text text-anchor="start" x="1370.61" y="-146.25" font-family="Helvetica,sans-Serif" font-size="10.00">/internal/delete_special</text>
<text text-anchor="middle" x="1427.61" y="-133.5" font-family="Helvetica,sans-Serif" font-size="10.00">_members.hpp</text>
</a>
</g>
</g>
<!-- Node1&#45;&gt;Node2 -->
<g id="edge1" class="edge">
<title>Node1&#45;&gt;Node2</title>
<path fill="none" stroke="#63b8ff" d="M2012.71,-846.34C2059.52,-824.91 2129.61,-782.28 2129.61,-719.12 2129.61,-719.12 2129.61,-719.12 2129.61,-432.75 2129.61,-219.57 1910.25,-268.22 1705.61,-208.5 1618.98,-183.22 1590.9,-193.79 1503.41,-173.8"/>
<polygon fill="#63b8ff" stroke="#63b8ff" points="1504.27,-170.17 1493.73,-171.28 1502.66,-176.98 1504.27,-170.17"/>
</g>
<!-- Node3 -->
<g id="node3" class="node">
<title>Node3</title>
<g id="a_node3"><a xlink:href="prologue_8hpp.html" target="_top" xlink:title=" ">
<polygon fill="white" stroke="#666666" points="1054.23,-90.25 930.98,-90.25 930.98,-56.75 1054.23,-56.75 1054.23,-90.25"/>
<text text-anchor="start" x="938.98" y="-76.75" font-family="Helvetica,sans-Serif" font-size="10.00">proxsuite/linalg/veg</text>
<text text-anchor="middle" x="992.61" y="-64" font-family="Helvetica,sans-Serif" font-size="10.00">/internal/prologue.hpp</text>
</a>
</g>
</g>
<!-- Node1&#45;&gt;Node3 -->
<g id="edge144" class="edge">
<title>Node1&#45;&gt;Node3</title>
<path fill="none" stroke="#63b8ff" d="M1906.25,-861.12C1569.78,-853.62 48.61,-814.41 48.61,-719.12 48.61,-719.12 48.61,-719.12 48.61,-641.25 48.61,-369.64 120.6,-214.09 377.61,-126.25 476.12,-92.58 779.4,-80.21 919.85,-76.2"/>
<polygon fill="#63b8ff" stroke="#63b8ff" points="919.59,-79.68 929.49,-75.91 919.39,-72.69 919.59,-79.68"/>
</g>
<!-- Node7 -->
<g id="node7" class="node">
<title>Node7</title>
<g id="a_node7"><a xlink:href="epilogue_8hpp.html" target="_top" xlink:title=" ">
<polygon fill="white" stroke="#666666" points="1999.86,-90.25 1877.36,-90.25 1877.36,-56.75 1999.86,-56.75 1999.86,-90.25"/>
<text text-anchor="start" x="1885.36" y="-76.75" font-family="Helvetica,sans-Serif" font-size="10.00">proxsuite/linalg/veg</text>
<text text-anchor="middle" x="1938.61" y="-64" font-family="Helvetica,sans-Serif" font-size="10.00">/internal/epilogue.hpp</text>
</a>
</g>
</g>
<!-- Node1&#45;&gt;Node7 -->
<g id="edge145" class="edge">
<title>Node1&#45;&gt;Node7</title>
<path fill="none" stroke="#63b8ff" d="M2036.84,-858.65C2178.9,-848.48 2503.61,-814.78 2503.61,-719.12 2503.61,-719.12 2503.61,-719.12 2503.61,-224.25 2503.61,-179.88 2517.47,-156.06 2484.61,-126.25 2450.23,-95.05 2151.3,-81.35 2010.89,-76.6"/>
<polygon fill="#63b8ff" stroke="#63b8ff" points="2011.36,-73.08 2001.24,-76.24 2011.12,-80.07 2011.36,-73.08"/>
</g>
<!-- Node8 -->
<g id="node8" class="node">
<title>Node8</title>
<g id="a_node8"><a xlink:href="memory_2alloc_8hpp.html" target="_top" xlink:title=" ">
<polygon fill="white" stroke="#666666" points="816.98,-659 704.23,-659 704.23,-625.5 816.98,-625.5 816.98,-659"/>
<text text-anchor="start" x="712.23" y="-645.5" font-family="Helvetica,sans-Serif" font-size="10.00">proxsuite/linalg/veg</text>
<text text-anchor="middle" x="760.61" y="-632.75" font-family="Helvetica,sans-Serif" font-size="10.00">/memory/alloc.hpp</text>
</a>
</g>
</g>
<!-- Node1&#45;&gt;Node8 -->
<g id="edge7" class="edge">
<title>Node1&#45;&gt;Node8</title>
<path fill="none" stroke="#63b8ff" d="M1906.36,-859.5C1796.81,-853.87 1569.18,-839.58 1378.61,-810.75 1234.28,-788.92 1198.45,-779.62 1057.61,-741.25 971.62,-717.82 873.8,-684.15 814.67,-663"/>
<polygon fill="#63b8ff" stroke="#63b8ff" points="816.04,-659.41 805.45,-659.33 813.68,-666 816.04,-659.41"/>
</g>
<!-- Node33 -->
<g id="node33" class="node">
<title>Node33</title>
<g id="a_node33"><a xlink:href="collection__algo_8hpp.html" target="_top" xlink:title=" ">
<polygon fill="white" stroke="#666666" points="1178.98,-741.25 1066.23,-741.25 1066.23,-695 1178.98,-695 1178.98,-741.25"/>
<text text-anchor="start" x="1074.23" y="-727.75" font-family="Helvetica,sans-Serif" font-size="10.00">proxsuite/linalg/veg</text>
<text text-anchor="start" x="1074.23" y="-715" font-family="Helvetica,sans-Serif" font-size="10.00">/internal/collection</text>
<text text-anchor="middle" x="1122.61" y="-702.25" font-family="Helvetica,sans-Serif" font-size="10.00">_algo.hpp</text>
</a>
</g>
</g>
<!-- Node1&#45;&gt;Node33 -->
<g id="edge82" class="edge">
<title>Node1&#45;&gt;Node33</title>
<path fill="none" stroke="#63b8ff" d="M1906.33,-855.73C1771.68,-841.03 1453.8,-802.48 1192.61,-741.25 1191.66,-741.03 1190.7,-740.8 1189.74,-740.56"/>
<polygon fill="#63b8ff" stroke="#63b8ff" points="1190.89,-736.98 1180.33,-737.85 1189.12,-743.76 1190.89,-736.98"/>
</g>
<!-- Node35 -->
<g id="node35" class="node">
<title>Node35</title>
<g id="a_node35"><a xlink:href="narrow_8hpp.html" target="_top" xlink:title=" ">
<polygon fill="white" stroke="#666666" points="2081.36,-734.88 1967.86,-734.88 1967.86,-701.38 2081.36,-701.38 2081.36,-734.88"/>
<text text-anchor="start" x="1975.86" y="-721.38" font-family="Helvetica,sans-Serif" font-size="10.00">proxsuite/linalg/veg</text>
<text text-anchor="middle" x="2024.61" y="-708.62" font-family="Helvetica,sans-Serif" font-size="10.00">/internal/narrow.hpp</text>
</a>
</g>
</g>
<!-- Node1&#45;&gt;Node35 -->
<g id="edge91" class="edge">
<title>Node1&#45;&gt;Node35</title>
<path fill="none" stroke="#63b8ff" d="M1977.59,-846.33C1986.7,-821.68 2004.16,-774.45 2015.05,-744.99"/>
<polygon fill="#63b8ff" stroke="#63b8ff" points="2018.55,-746.61 2018.74,-736.02 2011.98,-744.18 2018.55,-746.61"/>
</g>
<!-- Node47 -->
<g id="node45" class="node">
<title>Node47</title>
<g id="a_node45"><a xlink:href="slice_8hpp.html" target="_top" xlink:title=" ">
<polygon fill="white" stroke="#666666" points="1943.98,-810.75 1831.23,-810.75 1831.23,-777.25 1943.98,-777.25 1943.98,-810.75"/>
<text text-anchor="start" x="1839.23" y="-797.25" font-family="Helvetica,sans-Serif" font-size="10.00">proxsuite/linalg/veg</text>
<text text-anchor="middle" x="1887.61" y="-784.5" font-family="Helvetica,sans-Serif" font-size="10.00">/slice.hpp</text>
</a>
</g>
</g>
<!-- Node1&#45;&gt;Node47 -->
<g id="edge115" class="edge">
<title>Node1&#45;&gt;Node47</title>
<path fill="none" stroke="#63b8ff" d="M1951.7,-846.5C1941.11,-837.99 1927.89,-827.37 1916.22,-817.99"/>
<polygon fill="#63b8ff" stroke="#63b8ff" points="1918.65,-814.65 1908.66,-811.12 1914.27,-820.11 1918.65,-814.65"/>
</g>
<!-- Node52 -->
<g id="node50" class="node">
<title>Node52</title>
<g id="a_node50"><a xlink:href="unreachable_8hpp.html" target="_top" xlink:title=" ">
<polygon fill="white" stroke="#666666" points="2427.98,-242 2309.23,-242 2309.23,-208.5 2427.98,-208.5 2427.98,-242"/>
<text text-anchor="start" x="2317.23" y="-228.5" font-family="Helvetica,sans-Serif" font-size="10.00">proxsuite/linalg/veg</text>
<text text-anchor="middle" x="2368.61" y="-215.75" font-family="Helvetica,sans-Serif" font-size="10.00">/util/unreachable.hpp</text>
</a>
</g>
</g>
<!-- Node1&#45;&gt;Node52 -->
<g id="edge139" class="edge">
<title>Node1&#45;&gt;Node52</title>
<path fill="none" stroke="#63b8ff" d="M2037.04,-856.21C2165.56,-842.03 2438.61,-802.13 2438.61,-719.12 2438.61,-719.12 2438.61,-719.12 2438.61,-363.25 2438.61,-320 2410.61,-276.66 2390.03,-250.64"/>
<polygon fill="#63b8ff" stroke="#63b8ff" points="2392.15,-248.71 2383.11,-243.19 2386.73,-253.14 2392.15,-248.71"/>
</g>
<!-- Node2&#45;&gt;Node3 -->
<g id="edge2" class="edge">
<title>Node2&#45;&gt;Node3</title>
<path fill="none" stroke="#63b8ff" d="M1362.25,-129.37C1357.65,-128.25 1353.07,-127.19 1348.61,-126.25 1251.41,-105.66 1137.54,-90.68 1065.25,-82.28"/>
<polygon fill="#63b8ff" stroke="#63b8ff" points="1065.79,-78.71 1055.46,-81.04 1064.99,-85.66 1065.79,-78.71"/>
</g>
<!-- Node4 -->
<g id="node4" class="node">
<title>Node4</title>
<g id="a_node4"><a xlink:href="typedefs_8hpp.html" target="_top" xlink:title=" ">
<polygon fill="white" stroke="#666666" points="262.23,-90.25 138.98,-90.25 138.98,-56.75 262.23,-56.75 262.23,-90.25"/>
<text text-anchor="start" x="146.98" y="-76.75" font-family="Helvetica,sans-Serif" font-size="10.00">proxsuite/linalg/veg</text>
<text text-anchor="middle" x="200.61" y="-64" font-family="Helvetica,sans-Serif" font-size="10.00">/internal/typedefs.hpp</text>
</a>
</g>
</g>
<!-- Node2&#45;&gt;Node4 -->
<g id="edge3" class="edge">
<title>Node2&#45;&gt;Node4</title>
<path fill="none" stroke="#63b8ff" d="M1362.39,-148.92C1187.35,-149.57 692.63,-146.03 273.28,-90.31"/>
<polygon fill="#63b8ff" stroke="#63b8ff" points="273.83,-86.72 263.46,-88.86 272.9,-93.66 273.83,-86.72"/>
</g>
<!-- Node2&#45;&gt;Node7 -->
<g id="edge6" class="edge">
<title>Node2&#45;&gt;Node7</title>
<path fill="none" stroke="#63b8ff" d="M1492.95,-129.24C1497.55,-128.15 1502.14,-127.14 1506.61,-126.25 1631.83,-101.37 1780.02,-86.78 1866.26,-79.75"/>
<polygon fill="#63b8ff" stroke="#63b8ff" points="1866.29,-83.17 1875.97,-78.88 1865.73,-76.2 1866.29,-83.17"/>
</g>
<!-- Node5 -->
<g id="node5" class="node">
<title>Node5</title>
<g id="a_node5"><a xlink:title=" ">
<polygon fill="#e0e0e0" stroke="#999999" points="289.11,-20.75 240.11,-20.75 240.11,0 289.11,0 289.11,-20.75"/>
<text text-anchor="middle" x="264.61" y="-7.25" font-family="Helvetica,sans-Serif" font-size="10.00">cstdint</text>
</a>
</g>
</g>
<!-- Node4&#45;&gt;Node5 -->
<g id="edge4" class="edge">
<title>Node4&#45;&gt;Node5</title>
<path fill="none" stroke="#63b8ff" d="M217.42,-56.44C226.38,-47.88 237.41,-37.35 246.55,-28.62"/>
<polygon fill="#63b8ff" stroke="#63b8ff" points="248.49,-31.65 253.3,-22.22 243.66,-26.59 248.49,-31.65"/>
</g>
<!-- Node6 -->
<g id="node6" class="node">
<title>Node6</title>
<g id="a_node6"><a xlink:title=" ">
<polygon fill="#e0e0e0" stroke="#999999" points="161.61,-20.75 109.61,-20.75 109.61,0 161.61,0 161.61,-20.75"/>
<text text-anchor="middle" x="135.61" y="-7.25" font-family="Helvetica,sans-Serif" font-size="10.00">cstddef</text>
</a>
</g>
</g>
<!-- Node4&#45;&gt;Node6 -->
<g id="edge5" class="edge">
<title>Node4&#45;&gt;Node6</title>
<path fill="none" stroke="#63b8ff" d="M183.53,-56.44C174.43,-47.88 163.23,-37.35 153.95,-28.62"/>
<polygon fill="#63b8ff" stroke="#63b8ff" points="156.76,-26.52 147.08,-22.22 151.96,-31.62 156.76,-26.52"/>
</g>
<!-- Node8&#45;&gt;Node3 -->
<g id="edge80" class="edge">
<title>Node8&#45;&gt;Node3</title>
<path fill="none" stroke="#63b8ff" d="M703.77,-639.19C562.65,-632.53 207.61,-605.69 207.61,-504.25 207.61,-504.25 207.61,-504.25 207.61,-432.75 207.61,-254.89 360.56,-266.4 511.61,-172.5 543.59,-152.62 547.25,-139.22 582.61,-126.25 695.26,-84.94 835.71,-75.52 919.55,-73.95"/>
<polygon fill="#63b8ff" stroke="#63b8ff" points="919.55,-77.44 929.5,-73.79 919.44,-70.44 919.55,-77.44"/>
</g>
<!-- Node8&#45;&gt;Node4 -->
<g id="edge51" class="edge">
<title>Node8&#45;&gt;Node4</title>
<path fill="none" stroke="#63b8ff" d="M703.97,-639.94C563.65,-636.17 208.28,-623.37 167.61,-589.5 63.54,-502.84 86.61,-431.18 86.61,-295.75 86.61,-295.75 86.61,-295.75 86.61,-224.25 86.61,-170.26 134.1,-123.58 167.78,-97.26"/>
<polygon fill="#63b8ff" stroke="#63b8ff" points="169.58,-99.54 175.43,-90.71 165.35,-93.96 169.58,-99.54"/>
</g>
<!-- Node8&#45;&gt;Node6 -->
<g id="edge77" class="edge">
<title>Node8&#45;&gt;Node6</title>
<path fill="none" stroke="#63b8ff" d="M703.89,-639.58C558.11,-634.87 178.39,-619.81 130.61,-589.5 64.88,-547.81 48.61,-512.59 48.61,-434.75 48.61,-434.75 48.61,-434.75 48.61,-363.25 48.61,-226.77 -45.55,-170.68 29.61,-56.75 44.9,-33.57 74.76,-22.18 98.9,-16.62"/>
<polygon fill="#63b8ff" stroke="#63b8ff" points="99.41,-19.88 108.51,-14.45 98.01,-13.02 99.41,-19.88"/>
</g>
<!-- Node8&#45;&gt;Node7 -->
<g id="edge81" class="edge">
<title>Node8&#45;&gt;Node7</title>
<path fill="none" stroke="#63b8ff" d="M817.48,-640.03C1043.26,-635.02 1866.48,-615.06 1915.61,-589.5 2110.44,-488.13 2214.91,-305.22 2087.61,-126.25 2069.94,-101.41 2039.46,-88.38 2010.65,-81.6"/>
<polygon fill="#63b8ff" stroke="#63b8ff" points="2011.65,-78.02 2001.14,-79.37 2010.2,-84.87 2011.65,-78.02"/>
</g>
<!-- Node9 -->
<g id="node9" class="node">
<title>Node9</title>
<g id="a_node9"><a xlink:href="fwd_8hpp.html" target="_top" xlink:title=" ">
<polygon fill="white" stroke="#666666" points="1095.11,-583.12 992.11,-583.12 992.11,-562.38 1095.11,-562.38 1095.11,-583.12"/>
<text text-anchor="middle" x="1043.61" y="-569.62" font-family="Helvetica,sans-Serif" font-size="10.00">proxsuite/fwd.hpp</text>
</a>
</g>
</g>
<!-- Node8&#45;&gt;Node9 -->
<g id="edge8" class="edge">
<title>Node8&#45;&gt;Node9</title>
<path fill="none" stroke="#63b8ff" d="M817.2,-627.75C868.14,-615.6 942.39,-597.89 991.8,-586.11"/>
<polygon fill="#63b8ff" stroke="#63b8ff" points="992.34,-589.34 1001.26,-583.61 990.72,-582.53 992.34,-589.34"/>
</g>
<!-- Node11 -->
<g id="node11" class="node">
<title>Node11</title>
<g id="a_node11"><a xlink:href="ref_8hpp.html" target="_top" xlink:title=" ">
<polygon fill="white" stroke="#666666" points="987.98,-450.5 875.23,-450.5 875.23,-417 987.98,-417 987.98,-450.5"/>
<text text-anchor="start" x="883.23" y="-437" font-family="Helvetica,sans-Serif" font-size="10.00">proxsuite/linalg/veg</text>
<text text-anchor="middle" x="931.61" y="-424.25" font-family="Helvetica,sans-Serif" font-size="10.00">/ref.hpp</text>
</a>
</g>
</g>
<!-- Node8&#45;&gt;Node11 -->
<g id="edge10" class="edge">
<title>Node8&#45;&gt;Node11</title>
<path fill="none" stroke="#63b8ff" d="M807.62,-625.04C826.29,-616.74 846.8,-605.05 861.61,-589.5 896.87,-552.48 916.48,-494.61 925.46,-461.12"/>
<polygon fill="#63b8ff" stroke="#63b8ff" points="929.02,-462.32 928.11,-451.77 922.24,-460.59 929.02,-462.32"/>
</g>
<!-- Node15 -->
<g id="node15" class="node">
<title>Node15</title>
<g id="a_node15"><a xlink:href="macros_8hpp.html" target="_top" xlink:title=" ">
<polygon fill="white" stroke="#666666" points="502.86,-166.12 386.36,-166.12 386.36,-132.62 502.86,-132.62 502.86,-166.12"/>
<text text-anchor="start" x="394.36" y="-152.62" font-family="Helvetica,sans-Serif" font-size="10.00">proxsuite/linalg/veg</text>
<text text-anchor="middle" x="444.61" y="-139.88" font-family="Helvetica,sans-Serif" font-size="10.00">/internal/macros.hpp</text>
</a>
</g>
</g>
<!-- Node8&#45;&gt;Node15 -->
<g id="edge52" class="edge">
<title>Node8&#45;&gt;Node15</title>
<path fill="none" stroke="#63b8ff" d="M703.98,-639.68C568.17,-635.41 232.3,-621.67 193.61,-589.5 163.34,-564.33 169.61,-543.61 169.61,-504.25 169.61,-504.25 169.61,-504.25 169.61,-432.75 169.61,-317.32 202.95,-270.03 300.61,-208.5 325.58,-192.77 355.53,-179.86 381.63,-170.24"/>
<polygon fill="#63b8ff" stroke="#63b8ff" points="382.57,-173.26 390.8,-166.59 380.2,-166.68 382.57,-173.26"/>
</g>
<!-- Node19 -->
<g id="node19" class="node">
<title>Node19</title>
<g id="a_node19"><a xlink:href="constructible_8hpp.html" target="_top" xlink:title=" ">
<polygon fill="white" stroke="#666666" points="912.86,-381 754.36,-381 754.36,-347.5 912.86,-347.5 912.86,-381"/>
<text text-anchor="start" x="762.36" y="-367.5" font-family="Helvetica,sans-Serif" font-size="10.00">proxsuite/linalg/veg</text>
<text text-anchor="middle" x="833.61" y="-354.75" font-family="Helvetica,sans-Serif" font-size="10.00">/type_traits/constructible.hpp</text>
</a>
</g>
</g>
<!-- Node8&#45;&gt;Node19 -->
<g id="edge45" class="edge">
<title>Node8&#45;&gt;Node19</title>
<path fill="none" stroke="#63b8ff" d="M793.08,-625.06C806.61,-616.48 820.93,-604.57 828.61,-589.5 861.48,-525 849.25,-435.93 840.09,-391.98"/>
<polygon fill="#63b8ff" stroke="#63b8ff" points="843.31,-391.34 837.74,-382.33 836.47,-392.85 843.31,-391.34"/>
</g>
<!-- Node25 -->
<g id="node25" class="node">
<title>Node25</title>
<g id="a_node25"><a xlink:href="assignable_8hpp.html" target="_top" xlink:title=" ">
<polygon fill="white" stroke="#666666" points="1078.61,-381 930.61,-381 930.61,-347.5 1078.61,-347.5 1078.61,-381"/>
<text text-anchor="start" x="938.61" y="-367.5" font-family="Helvetica,sans-Serif" font-size="10.00">proxsuite/linalg/veg</text>
<text text-anchor="middle" x="1004.61" y="-354.75" font-family="Helvetica,sans-Serif" font-size="10.00">/type_traits/assignable.hpp</text>
</a>
</g>
</g>
<!-- Node8&#45;&gt;Node25 -->
<g id="edge46" class="edge">
<title>Node8&#45;&gt;Node25</title>
<path fill="none" stroke="#63b8ff" d="M817.33,-625.23C840.55,-616.94 866.8,-605.2 887.61,-589.5 950.28,-542.22 967.54,-523.43 996.61,-450.5 1003.99,-431.99 1005.83,-409.49 1005.92,-392.25"/>
<polygon fill="#63b8ff" stroke="#63b8ff" points="1009.4,-392.21 1005.74,-382.27 1002.4,-392.33 1009.4,-392.21"/>
</g>
<!-- Node26 -->
<g id="node26" class="node">
<title>Node26</title>
<g id="a_node26"><a xlink:href="placement_8hpp.html" target="_top" xlink:title=" ">
<polygon fill="white" stroke="#666666" points="667.61,-520 531.61,-520 531.61,-486.5 667.61,-486.5 667.61,-520"/>
<text text-anchor="start" x="539.61" y="-506.5" font-family="Helvetica,sans-Serif" font-size="10.00">proxsuite/linalg/veg</text>
<text text-anchor="middle" x="599.61" y="-493.75" font-family="Helvetica,sans-Serif" font-size="10.00">/memory/placement.hpp</text>
</a>
</g>
</g>
<!-- Node8&#45;&gt;Node26 -->
<g id="edge53" class="edge">
<title>Node8&#45;&gt;Node26</title>
<path fill="none" stroke="#63b8ff" d="M703.79,-635.09C648.24,-627.76 569.34,-613.4 550.61,-589.5 535.32,-569.98 553.15,-545.17 571.45,-527.35"/>
<polygon fill="#63b8ff" stroke="#63b8ff" points="573.24,-530.53 578.22,-521.18 568.5,-525.39 573.24,-530.53"/>
</g>
<!-- Node29 -->
<g id="node29" class="node">
<title>Node29</title>
<g id="a_node29"><a xlink:href="type__traits_2alloc_8hpp.html" target="_top" xlink:title=" ">
<polygon fill="white" stroke="#666666" points="819.98,-589.5 701.23,-589.5 701.23,-556 819.98,-556 819.98,-589.5"/>
<text text-anchor="start" x="709.23" y="-576" font-family="Helvetica,sans-Serif" font-size="10.00">proxsuite/linalg/veg</text>
<text text-anchor="middle" x="760.61" y="-563.25" font-family="Helvetica,sans-Serif" font-size="10.00">/type_traits/alloc.hpp</text>
</a>
</g>
</g>
<!-- Node8&#45;&gt;Node29 -->
<g id="edge66" class="edge">
<title>Node8&#45;&gt;Node29</title>
<path fill="none" stroke="#63b8ff" d="M760.61,-625.25C760.61,-617.86 760.61,-608.87 760.61,-600.48"/>
<polygon fill="#63b8ff" stroke="#63b8ff" points="764.11,-600.63 760.61,-590.63 757.11,-600.63 764.11,-600.63"/>
</g>
<!-- Node31 -->
<g id="node31" class="node">
<title>Node31</title>
<g id="a_node31"><a xlink:title=" ">
<polygon fill="#e0e0e0" stroke="#999999" points="607.73,-583.12 559.48,-583.12 559.48,-562.38 607.73,-562.38 607.73,-583.12"/>
<text text-anchor="middle" x="583.61" y="-569.62" font-family="Helvetica,sans-Serif" font-size="10.00">cstdlib</text>
</a>
</g>
</g>
<!-- Node8&#45;&gt;Node31 -->
<g id="edge78" class="edge">
<title>Node8&#45;&gt;Node31</title>
<path fill="none" stroke="#63b8ff" d="M711.82,-625.08C683.71,-615.43 647.87,-602.54 616.61,-589.5 615.53,-589.05 614.43,-588.58 613.32,-588.1"/>
<polygon fill="#63b8ff" stroke="#63b8ff" points="614.91,-584.52 604.36,-583.57 612.01,-590.89 614.91,-584.52"/>
</g>
<!-- Node32 -->
<g id="node32" class="node">
<title>Node32</title>
<g id="a_node32"><a xlink:title=" ">
<polygon fill="#e0e0e0" stroke="#999999" points="683.61,-583.12 625.61,-583.12 625.61,-562.38 683.61,-562.38 683.61,-583.12"/>
<text text-anchor="middle" x="654.61" y="-569.62" font-family="Helvetica,sans-Serif" font-size="10.00">malloc.h</text>
</a>
</g>
</g>
<!-- Node8&#45;&gt;Node32 -->
<g id="edge79" class="edge">
<title>Node8&#45;&gt;Node32</title>
<path fill="none" stroke="#63b8ff" d="M735.22,-625.08C718.22,-614.26 695.97,-600.09 679.15,-589.38"/>
<polygon fill="#63b8ff" stroke="#63b8ff" points="681.27,-585.94 670.95,-583.52 677.51,-591.84 681.27,-585.94"/>
</g>
<!-- Node10 -->
<g id="node10" class="node">
<title>Node10</title>
<g id="a_node10"><a xlink:title=" ">
<polygon fill="#e0e0e0" stroke="#999999" points="1095.86,-513.62 1027.36,-513.62 1027.36,-492.88 1095.86,-492.88 1095.86,-513.62"/>
<text text-anchor="middle" x="1061.61" y="-500.12" font-family="Helvetica,sans-Serif" font-size="10.00">Eigen/Core</text>
</a>
</g>
</g>
<!-- Node9&#45;&gt;Node10 -->
<g id="edge9" class="edge">
<title>Node9&#45;&gt;Node10</title>
<path fill="none" stroke="#63b8ff" d="M1046.19,-562.08C1048.81,-552.25 1052.94,-536.75 1056.27,-524.27"/>
<polygon fill="#63b8ff" stroke="#63b8ff" points="1059.84,-525.47 1059.03,-514.9 1053.08,-523.66 1059.84,-525.47"/>
</g>
<!-- Node11&#45;&gt;Node3 -->
<g id="edge43" class="edge">
<title>Node11&#45;&gt;Node3</title>
<path fill="none" stroke="#63b8ff" d="M874.94,-424.6C826.2,-416.29 761.32,-401.68 745.61,-381 736.6,-369.14 742.84,-362.13 745.61,-347.5 765.29,-243.69 755.62,-198.62 832.61,-126.25 856.39,-103.89 889.93,-91.19 920.15,-83.98"/>
<polygon fill="#63b8ff" stroke="#63b8ff" points="920.68,-87.23 929.69,-81.65 919.17,-80.39 920.68,-87.23"/>
</g>
<!-- Node11&#45;&gt;Node7 -->
<g id="edge44" class="edge">
<title>Node11&#45;&gt;Node7</title>
<path fill="none" stroke="#63b8ff" d="M982.16,-416.56C1104.89,-377.21 1416.11,-277.23 1519.61,-242 1606.71,-212.36 1635.67,-219.76 1714.61,-172.5 1740.86,-156.78 1738.96,-141.28 1765.61,-126.25 1796.78,-108.67 1834.54,-96.48 1866.83,-88.36"/>
<polygon fill="#63b8ff" stroke="#63b8ff" points="1867.21,-91.63 1876.1,-85.87 1865.56,-84.83 1867.21,-91.63"/>
</g>
<!-- Node12 -->
<g id="node12" class="node">
<title>Node12</title>
<g id="a_node12"><a xlink:href="tags_8hpp.html" target="_top" xlink:title=" ">
<polygon fill="white" stroke="#666666" points="1457.86,-381 1341.36,-381 1341.36,-347.5 1457.86,-347.5 1457.86,-381"/>
<text text-anchor="start" x="1349.36" y="-367.5" font-family="Helvetica,sans-Serif" font-size="10.00">proxsuite/linalg/veg</text>
<text text-anchor="middle" x="1399.61" y="-354.75" font-family="Helvetica,sans-Serif" font-size="10.00">/type_traits/tags.hpp</text>
</a>
</g>
</g>
<!-- Node11&#45;&gt;Node12 -->
<g id="edge11" class="edge">
<title>Node11&#45;&gt;Node12</title>
<path fill="none" stroke="#63b8ff" d="M988.19,-427.21C1063.8,-419.42 1202.15,-403.78 1330.3,-381.12"/>
<polygon fill="#63b8ff" stroke="#63b8ff" points="1330.85,-384.4 1340.08,-379.19 1329.62,-377.51 1330.85,-384.4"/>
</g>
<!-- Node11&#45;&gt;Node19 -->
<g id="edge29" class="edge">
<title>Node11&#45;&gt;Node19</title>
<path fill="none" stroke="#63b8ff" d="M908.38,-416.75C895.66,-407.99 879.7,-397 865.79,-387.42"/>
<polygon fill="#63b8ff" stroke="#63b8ff" points="868.23,-384.16 858.01,-381.37 864.26,-389.92 868.23,-384.16"/>
</g>
<!-- Node22 -->
<g id="node22" class="node">
<title>Node22</title>
<g id="a_node22"><a xlink:href="address_8hpp.html" target="_top" xlink:title=" ">
<polygon fill="white" stroke="#666666" points="660.86,-381 538.36,-381 538.36,-347.5 660.86,-347.5 660.86,-381"/>
<text text-anchor="start" x="546.36" y="-367.5" font-family="Helvetica,sans-Serif" font-size="10.00">proxsuite/linalg/veg</text>
<text text-anchor="middle" x="599.61" y="-354.75" font-family="Helvetica,sans-Serif" font-size="10.00">/memory/address.hpp</text>
</a>
</g>
</g>
<!-- Node11&#45;&gt;Node22 -->
<g id="edge35" class="edge">
<title>Node11&#45;&gt;Node22</title>
<path fill="none" stroke="#63b8ff" d="M874.91,-421.22C818.83,-409.82 732.79,-392.33 671.84,-379.93"/>
<polygon fill="#63b8ff" stroke="#63b8ff" points="672.64,-376.32 662.14,-377.76 671.24,-383.18 672.64,-376.32"/>
</g>
<!-- Node12&#45;&gt;Node3 -->
<g id="edge27" class="edge">
<title>Node12&#45;&gt;Node3</title>
<path fill="none" stroke="#63b8ff" d="M1379.46,-347.16C1340.29,-316.54 1250.29,-249.3 1165.61,-208.5 1118.89,-185.99 1095.58,-204.3 1054.61,-172.5 1041.69,-162.47 1020.21,-125.71 1006.22,-100.18"/>
<polygon fill="#63b8ff" stroke="#63b8ff" points="1008.93,-98.83 1001.09,-91.7 1002.77,-102.16 1008.93,-98.83"/>
</g>
<!-- Node12&#45;&gt;Node7 -->
<g id="edge28" class="edge">
<title>Node12&#45;&gt;Node7</title>
<path fill="none" stroke="#63b8ff" d="M1436.63,-347.02C1480.53,-328.28 1556.27,-297.52 1623.61,-278 1700.71,-255.65 1738.65,-293.05 1800.61,-242 1843.59,-206.59 1811.84,-168.08 1848.61,-126.25 1859.64,-113.7 1874.48,-103.45 1888.93,-95.49"/>
<polygon fill="#63b8ff" stroke="#63b8ff" points="1890.08,-98.31 1897.32,-90.58 1886.84,-92.11 1890.08,-98.31"/>
</g>
<!-- Node13 -->
<g id="node13" class="node">
<title>Node13</title>
<g id="a_node13"><a xlink:href="veg_2type__traits_2core_8hpp.html" target="_top" xlink:title=" ">
<polygon fill="white" stroke="#666666" points="1108.86,-311.5 992.36,-311.5 992.36,-278 1108.86,-278 1108.86,-311.5"/>
<text text-anchor="start" x="1000.36" y="-298" font-family="Helvetica,sans-Serif" font-size="10.00">proxsuite/linalg/veg</text>
<text text-anchor="middle" x="1050.61" y="-285.25" font-family="Helvetica,sans-Serif" font-size="10.00">/type_traits/core.hpp</text>
</a>
</g>
</g>
<!-- Node12&#45;&gt;Node13 -->
<g id="edge12" class="edge">
<title>Node12&#45;&gt;Node13</title>
<path fill="none" stroke="#63b8ff" d="M1341.04,-349.51C1337.85,-348.81 1334.69,-348.14 1331.61,-347.5 1259.63,-332.54 1176.82,-317.56 1119.84,-307.6"/>
<polygon fill="#63b8ff" stroke="#63b8ff" points="1120.61,-304 1110.15,-305.73 1119.4,-310.9 1120.61,-304"/>
</g>
<!-- Node13&#45;&gt;Node3 -->
<g id="edge25" class="edge">
<title>Node13&#45;&gt;Node3</title>
<path fill="none" stroke="#63b8ff" d="M1047.66,-277.72C1043.48,-259.02 1034.17,-228.16 1015.61,-208.5 990.23,-181.61 960.3,-203.79 940.61,-172.5 929.66,-155.1 932.72,-145.23 940.61,-126.25 945.09,-115.47 953.03,-105.77 961.38,-97.76"/>
<polygon fill="#63b8ff" stroke="#63b8ff" points="963.26,-100.88 968.41,-91.62 958.61,-95.65 963.26,-100.88"/>
</g>
<!-- Node13&#45;&gt;Node4 -->
<g id="edge13" class="edge">
<title>Node13&#45;&gt;Node4</title>
<path fill="none" stroke="#63b8ff" d="M992.1,-284.87C826.36,-259.59 363.81,-188.04 334.61,-172.5 309.56,-159.17 312.92,-143.78 290.61,-126.25 276.06,-114.81 258.7,-104.23 243.13,-95.65"/>
<polygon fill="#63b8ff" stroke="#63b8ff" points="245.17,-92.23 234.7,-90.57 241.85,-98.39 245.17,-92.23"/>
</g>
<!-- Node13&#45;&gt;Node7 -->
<g id="edge26" class="edge">
<title>Node13&#45;&gt;Node7</title>
<path fill="none" stroke="#63b8ff" d="M1109.36,-286.55C1213.04,-272.64 1434.22,-237.55 1610.61,-172.5 1651.33,-157.48 1655.87,-141.21 1696.61,-126.25 1751.91,-105.93 1817.4,-92.53 1866.3,-84.47"/>
<polygon fill="#63b8ff" stroke="#63b8ff" points="1866.79,-87.78 1876.1,-82.73 1865.67,-80.87 1866.79,-87.78"/>
</g>
<!-- Node14 -->
<g id="node14" class="node">
<title>Node14</title>
<g id="a_node14"><a xlink:href="integer__seq_8hpp.html" target="_top" xlink:title=" ">
<polygon fill="white" stroke="#666666" points="1006.36,-242 868.86,-242 868.86,-208.5 1006.36,-208.5 1006.36,-242"/>
<text text-anchor="start" x="876.86" y="-228.5" font-family="Helvetica,sans-Serif" font-size="10.00">proxsuite/linalg/veg</text>
<text text-anchor="middle" x="937.61" y="-215.75" font-family="Helvetica,sans-Serif" font-size="10.00">/internal/integer_seq.hpp</text>
</a>
</g>
</g>
<!-- Node13&#45;&gt;Node14 -->
<g id="edge14" class="edge">
<title>Node13&#45;&gt;Node14</title>
<path fill="none" stroke="#63b8ff" d="M1023.54,-277.58C1008.59,-268.65 989.82,-257.44 973.63,-247.77"/>
<polygon fill="#63b8ff" stroke="#63b8ff" points="975.83,-244.41 965.45,-242.29 972.24,-250.42 975.83,-244.41"/>
</g>
<!-- Node14&#45;&gt;Node3 -->
<g id="edge23" class="edge">
<title>Node14&#45;&gt;Node3</title>
<path fill="none" stroke="#63b8ff" d="M923.75,-208.21C908.2,-188.14 887.05,-153.15 902.61,-126.25 910.09,-113.32 922.16,-103.34 935.07,-95.75"/>
<polygon fill="#63b8ff" stroke="#63b8ff" points="936.41,-98.46 943.56,-90.64 933.09,-92.3 936.41,-98.46"/>
</g>
<!-- Node14&#45;&gt;Node4 -->
<g id="edge15" class="edge">
<title>Node14&#45;&gt;Node4</title>
<path fill="none" stroke="#63b8ff" d="M868.58,-218.52C721.27,-206.19 388.51,-177.86 377.61,-172.5 352.42,-160.12 357.85,-141.99 334.61,-126.25 314.91,-112.91 291.29,-102.33 269.4,-94.3"/>
<polygon fill="#63b8ff" stroke="#63b8ff" points="270.75,-90.71 260.15,-90.68 268.41,-97.31 270.75,-90.71"/>
</g>
<!-- Node14&#45;&gt;Node7 -->
<g id="edge24" class="edge">
<title>Node14&#45;&gt;Node7</title>
<path fill="none" stroke="#63b8ff" d="M1006.74,-214.91C1024.6,-212.65 1043.8,-210.36 1061.61,-208.5 1159.18,-198.32 1413.34,-215.32 1501.61,-172.5 1526.86,-160.25 1519.66,-139.12 1544.61,-126.25 1599.2,-98.09 1768.49,-84.07 1866.49,-78.14"/>
<polygon fill="#63b8ff" stroke="#63b8ff" points="1866.42,-81.59 1876.2,-77.51 1866.01,-74.6 1866.42,-81.59"/>
</g>
<!-- Node14&#45;&gt;Node15 -->
<g id="edge16" class="edge">
<title>Node14&#45;&gt;Node15</title>
<path fill="none" stroke="#63b8ff" d="M868.54,-213.9C774.73,-199.84 608,-174.86 514.02,-160.78"/>
<polygon fill="#63b8ff" stroke="#63b8ff" points="514.61,-157.18 504.21,-159.16 513.58,-164.1 514.61,-157.18"/>
</g>
<!-- Node15&#45;&gt;Node3 -->
<g id="edge20" class="edge">
<title>Node15&#45;&gt;Node3</title>
<path fill="none" stroke="#63b8ff" d="M503.25,-135.67C519.81,-132.33 537.87,-128.92 554.61,-126.25 682.6,-105.85 832.81,-89.8 919.91,-81.27"/>
<polygon fill="#63b8ff" stroke="#63b8ff" points="920.12,-84.67 929.74,-80.22 919.44,-77.7 920.12,-84.67"/>
</g>
<!-- Node15&#45;&gt;Node4 -->
<g id="edge18" class="edge">
<title>Node15&#45;&gt;Node4</title>
<path fill="none" stroke="#63b8ff" d="M391.93,-132.15C385.42,-130.16 378.86,-128.15 372.61,-126.25 337.07,-115.44 297.37,-103.49 265.07,-93.8"/>
<polygon fill="#63b8ff" stroke="#63b8ff" points="266.44,-90.25 255.86,-90.73 264.43,-96.96 266.44,-90.25"/>
</g>
<!-- Node15&#45;&gt;Node7 -->
<g id="edge22" class="edge">
<title>Node15&#45;&gt;Node7</title>
<path fill="none" stroke="#63b8ff" d="M503.18,-145.48C737.72,-133.88 1608.93,-90.8 1866.47,-78.07"/>
<polygon fill="#63b8ff" stroke="#63b8ff" points="1866.37,-81.53 1876.18,-77.54 1866.02,-74.54 1866.37,-81.53"/>
</g>
<!-- Node16 -->
<g id="node16" class="node">
<title>Node16</title>
<g id="a_node16"><a xlink:href="hedley_8ext_8hpp.html" target="_top" xlink:title=" ">
<polygon fill="white" stroke="#666666" points="615.73,-90.25 441.48,-90.25 441.48,-56.75 615.73,-56.75 615.73,-90.25"/>
<text text-anchor="start" x="449.48" y="-76.75" font-family="Helvetica,sans-Serif" font-size="10.00">proxsuite/linalg/veg</text>
<text text-anchor="middle" x="528.61" y="-64" font-family="Helvetica,sans-Serif" font-size="10.00">/internal/external/hedley.ext.hpp</text>
</a>
</g>
</g>
<!-- Node15&#45;&gt;Node16 -->
<g id="edge17" class="edge">
<title>Node15&#45;&gt;Node16</title>
<path fill="none" stroke="#63b8ff" d="M462.84,-132.35C474.39,-122.18 489.53,-108.87 502.37,-97.57"/>
<polygon fill="#63b8ff" stroke="#63b8ff" points="504.22,-99.73 509.42,-90.5 499.6,-94.47 504.22,-99.73"/>
</g>
<!-- Node17 -->
<g id="node17" class="node">
<title>Node17</title>
<g id="a_node17"><a xlink:href="preprocessor_8hpp.html" target="_top" xlink:title=" ">
<polygon fill="white" stroke="#666666" points="422.98,-90.25 280.23,-90.25 280.23,-56.75 422.98,-56.75 422.98,-90.25"/>
<text text-anchor="start" x="288.23" y="-76.75" font-family="Helvetica,sans-Serif" font-size="10.00">proxsuite/linalg/veg</text>
<text text-anchor="middle" x="351.61" y="-64" font-family="Helvetica,sans-Serif" font-size="10.00">/internal/preprocessor.hpp</text>
</a>
</g>
</g>
<!-- Node15&#45;&gt;Node17 -->
<g id="edge19" class="edge">
<title>Node15&#45;&gt;Node17</title>
<path fill="none" stroke="#63b8ff" d="M424.43,-132.35C411.51,-122.08 394.55,-108.61 380.25,-97.25"/>
<polygon fill="#63b8ff" stroke="#63b8ff" points="382.76,-93.98 372.75,-90.5 378.4,-99.46 382.76,-93.98"/>
</g>
<!-- Node18 -->
<g id="node18" class="node">
<title>Node18</title>
<g id="a_node18"><a xlink:title=" ">
<polygon fill="#e0e0e0" stroke="#999999" points="120.61,-83.88 38.61,-83.88 38.61,-63.12 120.61,-63.12 120.61,-83.88"/>
<text text-anchor="middle" x="79.61" y="-70.38" font-family="Helvetica,sans-Serif" font-size="10.00">initializer_list</text>
</a>
</g>
</g>
<!-- Node15&#45;&gt;Node18 -->
<g id="edge21" class="edge">
<title>Node15&#45;&gt;Node18</title>
<path fill="none" stroke="#63b8ff" d="M386.09,-139.78C322.5,-129.93 218.11,-112.27 129.61,-90.25 126.21,-89.4 122.7,-88.46 119.19,-87.46"/>
<polygon fill="#63b8ff" stroke="#63b8ff" points="120.37,-83.86 109.79,-84.35 118.37,-90.56 120.37,-83.86"/>
</g>
<!-- Node19&#45;&gt;Node3 -->
<g id="edge31" class="edge">
<title>Node19&#45;&gt;Node3</title>
<path fill="none" stroke="#63b8ff" d="M830.11,-347.05C822.03,-304.96 806.79,-190.87 862.61,-126.25 877.55,-108.95 899.07,-97.38 920.32,-89.66"/>
<polygon fill="#63b8ff" stroke="#63b8ff" points="921.33,-92.67 929.7,-86.17 919.1,-86.04 921.33,-92.67"/>
</g>
<!-- Node19&#45;&gt;Node7 -->
<g id="edge34" class="edge">
<title>Node19&#45;&gt;Node7</title>
<path fill="none" stroke="#63b8ff" d="M833.67,-347.01C834.69,-327.5 839.56,-295.26 859.61,-278 867.2,-271.47 1563.9,-177.43 1572.61,-172.5 1595.76,-159.4 1587.52,-139.46 1610.61,-126.25 1653.05,-101.97 1783.26,-87.14 1866.29,-79.9"/>
<polygon fill="#63b8ff" stroke="#63b8ff" points="1866.51,-83.31 1876.18,-78.97 1865.92,-76.34 1866.51,-83.31"/>
</g>
<!-- Node19&#45;&gt;Node13 -->
<g id="edge30" class="edge">
<title>Node19&#45;&gt;Node13</title>
<path fill="none" stroke="#63b8ff" d="M885.59,-347.08C916.47,-337.47 955.84,-325.23 988.38,-315.11"/>
<polygon fill="#63b8ff" stroke="#63b8ff" points="989.17,-318.22 997.68,-311.9 987.09,-311.53 989.17,-318.22"/>
</g>
<!-- Node20 -->
<g id="node20" class="node">
<title>Node20</title>
<g id="a_node20"><a xlink:title=" ">
<polygon fill="#e0e0e0" stroke="#999999" points="546.73,-305.12 510.48,-305.12 510.48,-284.38 546.73,-284.38 546.73,-305.12"/>
<text text-anchor="middle" x="528.61" y="-291.62" font-family="Helvetica,sans-Serif" font-size="10.00">new</text>
</a>
</g>
</g>
<!-- Node19&#45;&gt;Node20 -->
<g id="edge32" class="edge">
<title>Node19&#45;&gt;Node20</title>
<path fill="none" stroke="#63b8ff" d="M754.08,-355.8C697.41,-348.74 620.14,-335.5 555.61,-311.5 554.7,-311.16 553.78,-310.79 552.86,-310.4"/>
<polygon fill="#63b8ff" stroke="#63b8ff" points="554.79,-306.95 544.29,-305.54 551.62,-313.19 554.79,-306.95"/>
</g>
<!-- Node21 -->
<g id="node21" class="node">
<title>Node21</title>
<g id="a_node21"><a xlink:title=" ">
<polygon fill="#e0e0e0" stroke="#999999" points="936.86,-305.12 868.36,-305.12 868.36,-284.38 936.86,-284.38 936.86,-305.12"/>
<text text-anchor="middle" x="902.61" y="-291.62" font-family="Helvetica,sans-Serif" font-size="10.00">type_traits</text>
</a>
</g>
</g>
<!-- Node19&#45;&gt;Node21 -->
<g id="edge33" class="edge">
<title>Node19&#45;&gt;Node21</title>
<path fill="none" stroke="#63b8ff" d="M849.96,-347.25C860.5,-336.94 874.21,-323.53 884.99,-312.98"/>
<polygon fill="#63b8ff" stroke="#63b8ff" points="886.87,-316.07 891.57,-306.57 881.97,-311.06 886.87,-316.07"/>
</g>
<!-- Node22&#45;&gt;Node3 -->
<g id="edge40" class="edge">
<title>Node22&#45;&gt;Node3</title>
<path fill="none" stroke="#63b8ff" d="M611.43,-347.21C618.21,-337.34 626.38,-324.2 631.61,-311.5 663.82,-233.35 612.88,-183.99 674.61,-126.25 709.21,-93.89 837.25,-81.69 919.93,-77.15"/>
<polygon fill="#63b8ff" stroke="#63b8ff" points="919.97,-80.6 929.78,-76.58 919.61,-73.61 919.97,-80.6"/>
</g>
<!-- Node22&#45;&gt;Node7 -->
<g id="edge42" class="edge">
<title>Node22&#45;&gt;Node7</title>
<path fill="none" stroke="#63b8ff" d="M638.87,-347.11C685.42,-328.46 765.64,-297.79 836.61,-278 914.78,-256.21 938.03,-265.79 1015.61,-242 1052.46,-230.7 1058.16,-217.63 1095.61,-208.5 1191.14,-185.22 1450.1,-219.24 1536.61,-172.5 1559.53,-160.12 1550.07,-139.3 1572.61,-126.25 1621.17,-98.13 1774.2,-84.28 1866.29,-78.32"/>
<polygon fill="#63b8ff" stroke="#63b8ff" points="1866.45,-81.76 1876.21,-77.64 1866.01,-74.77 1866.45,-81.76"/>
</g>
<!-- Node22&#45;&gt;Node13 -->
<g id="edge36" class="edge">
<title>Node22&#45;&gt;Node13</title>
<path fill="none" stroke="#63b8ff" d="M661.17,-354.05C730.37,-343.71 846.05,-326.41 945.61,-311.5 957.12,-309.78 969.35,-307.94 981.23,-306.16"/>
<polygon fill="#63b8ff" stroke="#63b8ff" points="981.65,-309.49 991.02,-304.54 980.61,-302.56 981.65,-309.49"/>
</g>
<!-- Node23 -->
<g id="node23" class="node">
<title>Node23</title>
<g id="a_node23"><a xlink:href="std_8hpp.html" target="_top" xlink:title=" ">
<polygon fill="white" stroke="#666666" points="454.98,-311.5 342.23,-311.5 342.23,-278 454.98,-278 454.98,-311.5"/>
<text text-anchor="start" x="350.23" y="-298" font-family="Helvetica,sans-Serif" font-size="10.00">proxsuite/linalg/veg</text>
<text text-anchor="middle" x="398.61" y="-285.25" font-family="Helvetica,sans-Serif" font-size="10.00">/internal/std.hpp</text>
</a>
</g>
</g>
<!-- Node22&#45;&gt;Node23 -->
<g id="edge37" class="edge">
<title>Node22&#45;&gt;Node23</title>
<path fill="none" stroke="#63b8ff" d="M551.46,-347.08C523.1,-337.56 487.02,-325.44 457.04,-315.37"/>
<polygon fill="#63b8ff" stroke="#63b8ff" points="458.3,-311.77 447.71,-311.9 456.07,-318.4 458.3,-311.77"/>
</g>
<!-- Node24 -->
<g id="node24" class="node">
<title>Node24</title>
<g id="a_node24"><a xlink:title=" ">
<polygon fill="#e0e0e0" stroke="#999999" points="622.23,-305.12 564.98,-305.12 564.98,-284.38 622.23,-284.38 622.23,-305.12"/>
<text text-anchor="middle" x="593.61" y="-291.62" font-family="Helvetica,sans-Serif" font-size="10.00">memory</text>
</a>
</g>
</g>
<!-- Node22&#45;&gt;Node24 -->
<g id="edge41" class="edge">
<title>Node22&#45;&gt;Node24</title>
<path fill="none" stroke="#63b8ff" d="M598.19,-347.25C597.37,-338.05 596.33,-326.39 595.45,-316.49"/>
<polygon fill="#63b8ff" stroke="#63b8ff" points="598.85,-316.22 594.48,-306.57 591.88,-316.84 598.85,-316.22"/>
</g>
<!-- Node23&#45;&gt;Node5 -->
<g id="edge38" class="edge">
<title>Node23&#45;&gt;Node5</title>
<path fill="none" stroke="#63b8ff" d="M417.33,-277.63C470.51,-231.74 618.97,-102.91 624.61,-90.25 630.66,-76.65 634.46,-67.92 624.61,-56.75 603.35,-32.64 387.19,-18.14 300.39,-13.24"/>
<polygon fill="#63b8ff" stroke="#63b8ff" points="300.69,-9.7 290.52,-12.64 300.31,-16.69 300.69,-9.7"/>
</g>
<!-- Node23&#45;&gt;Node18 -->
<g id="edge39" class="edge">
<title>Node23&#45;&gt;Node18</title>
<path fill="none" stroke="#63b8ff" d="M375.15,-277.63C316,-236.97 161.29,-130.64 102.62,-90.32"/>
<polygon fill="#63b8ff" stroke="#63b8ff" points="104.97,-87 94.75,-84.22 101.01,-92.77 104.97,-87"/>
</g>
<!-- Node25&#45;&gt;Node3 -->
<g id="edge48" class="edge">
<title>Node25&#45;&gt;Node3</title>
<path fill="none" stroke="#63b8ff" d="M996.99,-347.04C987.39,-328.17 969.24,-297.15 945.61,-278 913.41,-251.92 882.57,-276.5 859.61,-242 836.97,-207.99 884.5,-136.22 893.61,-126.25 905.42,-113.33 921.21,-103.09 936.71,-95.24"/>
<polygon fill="#63b8ff" stroke="#63b8ff" points="937.77,-98.13 945.28,-90.66 934.75,-91.82 937.77,-98.13"/>
</g>
<!-- Node25&#45;&gt;Node7 -->
<g id="edge50" class="edge">
<title>Node25&#45;&gt;Node7</title>
<path fill="none" stroke="#63b8ff" d="M1065.38,-347.06C1218.57,-306.07 1612.32,-199.51 1667.61,-172.5 1700.12,-156.62 1701.66,-141.21 1734.61,-126.25 1776.36,-107.29 1826.2,-94.48 1866.16,-86.35"/>
<polygon fill="#63b8ff" stroke="#63b8ff" points="1866.76,-89.6 1875.89,-84.23 1865.41,-82.74 1866.76,-89.6"/>
</g>
<!-- Node25&#45;&gt;Node13 -->
<g id="edge47" class="edge">
<title>Node25&#45;&gt;Node13</title>
<path fill="none" stroke="#63b8ff" d="M1015.51,-347.25C1020.95,-339.27 1027.66,-329.43 1033.75,-320.5"/>
<polygon fill="#63b8ff" stroke="#63b8ff" points="1037.05,-322.87 1039.79,-312.63 1031.26,-318.92 1037.05,-322.87"/>
</g>
<!-- Node25&#45;&gt;Node21 -->
<g id="edge49" class="edge">
<title>Node25&#45;&gt;Node21</title>
<path fill="none" stroke="#63b8ff" d="M980.18,-347.08C963.82,-336.26 942.41,-322.09 926.22,-311.38"/>
<polygon fill="#63b8ff" stroke="#63b8ff" points="928.65,-308.12 918.37,-305.52 924.78,-313.96 928.65,-308.12"/>
</g>
<!-- Node26&#45;&gt;Node3 -->
<g id="edge62" class="edge">
<title>Node26&#45;&gt;Node3</title>
<path fill="none" stroke="#63b8ff" d="M575.32,-486.12C563.28,-476.98 549.47,-464.56 540.61,-450.5 498.71,-383.99 473,-351.21 501.61,-278 518.31,-235.27 601.04,-147.68 641.61,-126.25 688.6,-101.43 831.71,-86.56 920.02,-79.5"/>
<polygon fill="#63b8ff" stroke="#63b8ff" points="920.07,-82.93 929.77,-78.66 919.53,-75.95 920.07,-82.93"/>
</g>
<!-- Node26&#45;&gt;Node7 -->
<g id="edge65" class="edge">
<title>Node26&#45;&gt;Node7</title>
<path fill="none" stroke="#63b8ff" d="M667.88,-499.27C847.06,-491.24 1321.71,-468.54 1390.61,-450.5 1494.31,-423.34 1744.69,-312.31 1825.61,-242 1872.25,-201.47 1867.85,-177.34 1902.61,-126.25 1908.67,-117.35 1915.39,-107.64 1921.37,-99.06"/>
<polygon fill="#63b8ff" stroke="#63b8ff" points="1924.63,-101.5 1927.49,-91.3 1918.9,-97.49 1924.63,-101.5"/>
</g>
<!-- Node26&#45;&gt;Node19 -->
<g id="edge54" class="edge">
<title>Node26&#45;&gt;Node19</title>
<path fill="none" stroke="#63b8ff" d="M604.21,-486.22C610.58,-466.93 623.93,-434.91 646.61,-417 674.16,-395.24 710.27,-382.62 743.41,-375.31"/>
<polygon fill="#63b8ff" stroke="#63b8ff" points="743.96,-378.56 753.05,-373.11 742.55,-371.7 743.96,-378.56"/>
</g>
<!-- Node26&#45;&gt;Node20 -->
<g id="edge63" class="edge">
<title>Node26&#45;&gt;Node20</title>
<path fill="none" stroke="#63b8ff" d="M586.69,-486.21C569.77,-464.09 540.92,-422.26 529.61,-381 523.72,-359.53 524.41,-333.86 525.97,-316.34"/>
<polygon fill="#63b8ff" stroke="#63b8ff" points="529.56,-316.75 527.16,-306.43 522.6,-315.99 529.56,-316.75"/>
</g>
<!-- Node26&#45;&gt;Node22 -->
<g id="edge61" class="edge">
<title>Node26&#45;&gt;Node22</title>
<path fill="none" stroke="#63b8ff" d="M599.61,-486.27C599.61,-463.17 599.61,-420.16 599.61,-392.13"/>
<polygon fill="#63b8ff" stroke="#63b8ff" points="603.11,-392.13 599.61,-382.13 596.11,-392.13 603.11,-392.13"/>
</g>
<!-- Node26&#45;&gt;Node23 -->
<g id="edge55" class="edge">
<title>Node26&#45;&gt;Node23</title>
<path fill="none" stroke="#63b8ff" d="M531.42,-489.72C505.89,-482.07 478.33,-469.87 458.61,-450.5 439.86,-432.08 417.36,-361.34 405.98,-322.19"/>
<polygon fill="#63b8ff" stroke="#63b8ff" points="409.13,-321.48 403.01,-312.83 402.4,-323.4 409.13,-321.48"/>
</g>
<!-- Node27 -->
<g id="node27" class="node">
<title>Node27</title>
<g id="a_node27"><a xlink:href="invocable_8hpp.html" target="_top" xlink:title=" ">
<polygon fill="white" stroke="#666666" points="1381.98,-450.5 1239.23,-450.5 1239.23,-417 1381.98,-417 1381.98,-450.5"/>
<text text-anchor="start" x="1247.23" y="-437" font-family="Helvetica,sans-Serif" font-size="10.00">proxsuite/linalg/veg</text>
<text text-anchor="middle" x="1310.61" y="-424.25" font-family="Helvetica,sans-Serif" font-size="10.00">/type_traits/invocable.hpp</text>
</a>
</g>
</g>
<!-- Node26&#45;&gt;Node27 -->
<g id="edge56" class="edge">
<title>Node26&#45;&gt;Node27</title>
<path fill="none" stroke="#63b8ff" d="M668.11,-495.75C799.46,-483.28 1086.29,-456.05 1228,-442.59"/>
<polygon fill="#63b8ff" stroke="#63b8ff" points="1228.15,-446 1237.77,-441.57 1227.48,-439.03 1228.15,-446"/>
</g>
<!-- Node28 -->
<g id="node28" class="node">
<title>Node28</title>
<g id="a_node28"><a xlink:title=" ">
<polygon fill="#e0e0e0" stroke="#999999" points="705.11,-444.12 656.11,-444.12 656.11,-423.38 705.11,-423.38 705.11,-444.12"/>
<text text-anchor="middle" x="680.61" y="-430.62" font-family="Helvetica,sans-Serif" font-size="10.00">cstring</text>
</a>
</g>
</g>
<!-- Node26&#45;&gt;Node28 -->
<g id="edge64" class="edge">
<title>Node26&#45;&gt;Node28</title>
<path fill="none" stroke="#63b8ff" d="M618.81,-486.25C631.42,-475.74 647.9,-462.01 660.67,-451.37"/>
<polygon fill="#63b8ff" stroke="#63b8ff" points="662.38,-453.66 667.82,-444.57 657.9,-448.28 662.38,-453.66"/>
</g>
<!-- Node27&#45;&gt;Node3 -->
<g id="edge59" class="edge">
<title>Node27&#45;&gt;Node3</title>
<path fill="none" stroke="#63b8ff" d="M1382.44,-421.1C1433.82,-409.25 1490.07,-386.87 1466.61,-347.5 1400.12,-235.95 1329.36,-258.73 1209.61,-208.5 1159.44,-187.46 1138.35,-201.95 1092.61,-172.5 1069.51,-157.63 1071.08,-145.62 1051.61,-126.25 1041.8,-116.49 1030.49,-106.33 1020.41,-97.62"/>
<polygon fill="#63b8ff" stroke="#63b8ff" points="1023.17,-94.52 1013.29,-90.69 1018.62,-99.85 1023.17,-94.52"/>
</g>
<!-- Node27&#45;&gt;Node7 -->
<g id="edge60" class="edge">
<title>Node27&#45;&gt;Node7</title>
<path fill="none" stroke="#63b8ff" d="M1366.98,-416.51C1400.66,-406.63 1444.22,-393.54 1482.61,-381 1483.99,-380.55 1875.58,-243.02 1876.61,-242 1887.05,-231.72 1915.86,-145.34 1930.23,-100.81"/>
<polygon fill="#63b8ff" stroke="#63b8ff" points="1933.83,-102.06 1933.56,-91.47 1927.17,-99.92 1933.83,-102.06"/>
</g>
<!-- Node27&#45;&gt;Node13 -->
<g id="edge57" class="edge">
<title>Node27&#45;&gt;Node13</title>
<path fill="none" stroke="#63b8ff" d="M1274.95,-416.6C1253.51,-406.69 1225.78,-393.54 1201.61,-381 1161.94,-360.42 1117.51,-335.04 1087.17,-317.35"/>
<polygon fill="#63b8ff" stroke="#63b8ff" points="1089.24,-313.92 1078.84,-311.9 1085.71,-319.97 1089.24,-313.92"/>
</g>
<!-- Node27&#45;&gt;Node19 -->
<g id="edge58" class="edge">
<title>Node27&#45;&gt;Node19</title>
<path fill="none" stroke="#63b8ff" d="M1238.78,-419.1C1234.33,-418.36 1229.91,-417.65 1225.61,-417 1094.51,-397.11 1058.02,-400.79 923.89,-381.29"/>
<polygon fill="#63b8ff" stroke="#63b8ff" points="924.6,-377.71 914.2,-379.71 923.58,-384.63 924.6,-377.71"/>
</g>
<!-- Node29&#45;&gt;Node3 -->
<g id="edge74" class="edge">
<title>Node29&#45;&gt;Node3</title>
<path fill="none" stroke="#63b8ff" d="M755.89,-555.6C739.87,-500.59 688.61,-322.49 688.61,-295.75 688.61,-295.75 688.61,-295.75 688.61,-224.25 688.61,-121.5 830.1,-89.25 920.03,-79.13"/>
<polygon fill="#63b8ff" stroke="#63b8ff" points="920.15,-82.53 929.72,-78 919.41,-75.57 920.15,-82.53"/>
</g>
<!-- Node29&#45;&gt;Node4 -->
<g id="edge71" class="edge">
<title>Node29&#45;&gt;Node4</title>
<path fill="none" stroke="#63b8ff" d="M701,-557.44C698.17,-556.92 695.36,-556.44 692.61,-556 602.06,-541.62 349.37,-581.76 281.61,-520 159.48,-408.68 183.31,-179.8 195.73,-101.48"/>
<polygon fill="#63b8ff" stroke="#63b8ff" points="199.35,-102.08 197.54,-91.64 192.44,-100.93 199.35,-102.08"/>
</g>
<!-- Node29&#45;&gt;Node7 -->
<g id="edge76" class="edge">
<title>Node29&#45;&gt;Node7</title>
<path fill="none" stroke="#63b8ff" d="M799.6,-555.64C849.45,-535.8 938.87,-502.73 1018.61,-486.5 1208.7,-447.8 1266.15,-500.44 1453.61,-450.5 1664.66,-394.27 1750.48,-402.51 1898.61,-242 1934.47,-203.14 1939.87,-138.03 1939.79,-101.49"/>
<polygon fill="#63b8ff" stroke="#63b8ff" points="1943.27,-101.63 1939.6,-91.69 1936.27,-101.75 1943.27,-101.63"/>
</g>
<!-- Node29&#45;&gt;Node11 -->
<g id="edge68" class="edge">
<title>Node29&#45;&gt;Node11</title>
<path fill="none" stroke="#63b8ff" d="M780.56,-555.77C810.85,-531.5 868.59,-485.24 903.24,-457.48"/>
<polygon fill="#63b8ff" stroke="#63b8ff" points="904.91,-459.83 910.52,-450.84 900.53,-454.36 904.91,-459.83"/>
</g>
<!-- Node29&#45;&gt;Node15 -->
<g id="edge72" class="edge">
<title>Node29&#45;&gt;Node15</title>
<path fill="none" stroke="#63b8ff" d="M701,-557.46C698.17,-556.93 695.36,-556.44 692.61,-556 649.65,-549.07 331.93,-552.15 302.61,-520 286.26,-502.07 252.48,-454.09 333.61,-278 353.01,-235.88 390.71,-197.17 416.75,-173.68"/>
<polygon fill="#63b8ff" stroke="#63b8ff" points="418.59,-176.85 423.76,-167.6 413.95,-171.6 418.59,-176.85"/>
</g>
<!-- Node29&#45;&gt;Node19 -->
<g id="edge69" class="edge">
<title>Node29&#45;&gt;Node19</title>
<path fill="none" stroke="#63b8ff" d="M762.06,-555.69C765.13,-526.8 773.89,-464.62 795.61,-417 799.91,-407.57 806.1,-398.16 812.24,-390"/>
<polygon fill="#63b8ff" stroke="#63b8ff" points="815.59,-392.4 819.05,-382.39 810.1,-388.06 815.59,-392.4"/>
</g>
<!-- Node29&#45;&gt;Node25 -->
<g id="edge70" class="edge">
<title>Node29&#45;&gt;Node25</title>
<path fill="none" stroke="#63b8ff" d="M767.5,-555.77C781.65,-524.74 816.88,-455.96 866.61,-417 884.27,-403.17 906.01,-392.74 926.97,-385.01"/>
<polygon fill="#63b8ff" stroke="#63b8ff" points="927.9,-388.04 936.18,-381.43 925.59,-381.44 927.9,-388.04"/>
</g>
<!-- Node29&#45;&gt;Node26 -->
<g id="edge73" class="edge">
<title>Node29&#45;&gt;Node26</title>
<path fill="none" stroke="#63b8ff" d="M722.05,-555.58C699.82,-546.27 671.69,-534.47 647.99,-524.53"/>
<polygon fill="#63b8ff" stroke="#63b8ff" points="649.71,-521.04 639.14,-520.4 647.01,-527.5 649.71,-521.04"/>
</g>
<!-- Node29&#45;&gt;Node28 -->
<g id="edge75" class="edge">
<title>Node29&#45;&gt;Node28</title>
<path fill="none" stroke="#63b8ff" d="M746.25,-555.72C737.84,-545.85 727.39,-532.71 719.61,-520 706.58,-498.72 695.17,-472.36 688.11,-454.63"/>
<polygon fill="#63b8ff" stroke="#63b8ff" points="691.1,-453.65 684.22,-445.6 684.57,-456.18 691.1,-453.65"/>
</g>
<!-- Node30 -->
<g id="node30" class="node">
<title>Node30</title>
<g id="a_node30"><a xlink:href="has__asan_8hpp.html" target="_top" xlink:title=" ">
<polygon fill="white" stroke="#666666" points="437.73,-520 311.48,-520 311.48,-486.5 437.73,-486.5 437.73,-520"/>
<text text-anchor="start" x="319.48" y="-506.5" font-family="Helvetica,sans-Serif" font-size="10.00">proxsuite/linalg/veg</text>
<text text-anchor="middle" x="374.61" y="-493.75" font-family="Helvetica,sans-Serif" font-size="10.00">/internal/has_asan.hpp</text>
</a>
</g>
</g>
<!-- Node29&#45;&gt;Node30 -->
<g id="edge67" class="edge">
<title>Node29&#45;&gt;Node30</title>
<path fill="none" stroke="#63b8ff" d="M700.96,-557.65C698.14,-557.08 695.35,-556.52 692.61,-556 586.22,-535.77 558.25,-538.86 451.61,-520 450.64,-519.83 449.66,-519.65 448.68,-519.48"/>
<polygon fill="#63b8ff" stroke="#63b8ff" points="449.48,-515.88 439.01,-517.5 448.2,-522.76 449.48,-515.88"/>
</g>
<!-- Node33&#45;&gt;Node3 -->
<g id="edge89" class="edge">
<title>Node33&#45;&gt;Node3</title>
<path fill="none" stroke="#63b8ff" d="M1128.38,-694.76C1144.44,-627.79 1184.26,-424.41 1117.61,-278 1098.37,-235.74 1075.69,-237.72 1039.61,-208.5 1018.61,-191.49 1002.81,-196.61 990.61,-172.5 979.39,-150.34 981.62,-121.59 985.6,-100.97"/>
<polygon fill="#63b8ff" stroke="#63b8ff" points="989.19,-101.96 987.92,-91.44 982.35,-100.45 989.19,-101.96"/>
</g>
<!-- Node33&#45;&gt;Node7 -->
<g id="edge90" class="edge">
<title>Node33&#45;&gt;Node7</title>
<path fill="none" stroke="#63b8ff" d="M1179.47,-714.22C1279.52,-708.42 1493.24,-692.92 1670.61,-659 1725,-648.6 1736.41,-636.85 1790.61,-625.5 1902.2,-602.12 1937.13,-627.55 2044.61,-589.5 2101.26,-569.44 2123.97,-567.64 2160.61,-520 2267.32,-381.24 2288.62,-254.61 2169.61,-126.25 2148.33,-103.3 2070.64,-89.35 2011.17,-81.8"/>
<polygon fill="#63b8ff" stroke="#63b8ff" points="2011.65,-78.21 2001.3,-80.47 2010.8,-85.16 2011.65,-78.21"/>
</g>
<!-- Node33&#45;&gt;Node8 -->
<g id="edge83" class="edge">
<title>Node33&#45;&gt;Node8</title>
<path fill="none" stroke="#63b8ff" d="M1066.05,-705.58C1001.68,-692.45 896.62,-671.01 828.05,-657.01"/>
<polygon fill="#63b8ff" stroke="#63b8ff" points="828.87,-653.4 818.37,-654.83 827.47,-660.26 828.87,-653.4"/>
</g>
<!-- Node34 -->
<g id="node34" class="node">
<title>Node34</title>
<g id="a_node34"><a xlink:href="defer_8hpp.html" target="_top" xlink:title=" ">
<polygon fill="white" stroke="#666666" points="1771.98,-520 1659.23,-520 1659.23,-486.5 1771.98,-486.5 1771.98,-520"/>
<text text-anchor="start" x="1667.23" y="-506.5" font-family="Helvetica,sans-Serif" font-size="10.00">proxsuite/linalg/veg</text>
<text text-anchor="middle" x="1715.61" y="-493.75" font-family="Helvetica,sans-Serif" font-size="10.00">/util/defer.hpp</text>
</a>
</g>
</g>
<!-- Node33&#45;&gt;Node34 -->
<g id="edge84" class="edge">
<title>Node33&#45;&gt;Node34</title>
<path fill="none" stroke="#63b8ff" d="M1179.18,-715.23C1294.66,-710.64 1553.32,-696.39 1632.61,-659 1672.84,-640.03 1684.64,-629.24 1704.61,-589.5 1713.73,-571.34 1716.26,-548.38 1716.63,-530.86"/>
<polygon fill="#63b8ff" stroke="#63b8ff" points="1720.13,-531.24 1716.61,-521.24 1713.13,-531.25 1720.13,-531.24"/>
</g>
<!-- Node34&#45;&gt;Node3 -->
<g id="edge87" class="edge">
<title>Node34&#45;&gt;Node3</title>
<path fill="none" stroke="#63b8ff" d="M1712.75,-486.17C1704.7,-445.48 1678.07,-337.43 1613.61,-278 1599.66,-265.14 1475.77,-213.99 1457.61,-208.5 1365.7,-180.74 1330.33,-215.74 1244.61,-172.5 1218.16,-159.16 1222.5,-140.65 1196.61,-126.25 1156.16,-103.75 1105.79,-90.85 1065.22,-83.55"/>
<polygon fill="#63b8ff" stroke="#63b8ff" points="1066.04,-79.97 1055.59,-81.73 1064.86,-86.87 1066.04,-79.97"/>
</g>
<!-- Node34&#45;&gt;Node7 -->
<g id="edge88" class="edge">
<title>Node34&#45;&gt;Node7</title>
<path fill="none" stroke="#63b8ff" d="M1772.1,-488.99C1812.03,-478.74 1861.24,-464.06 1877.61,-450.5 1958.79,-383.27 1964.7,-344.17 1990.61,-242 2003.25,-192.13 2010.35,-173.75 1990.61,-126.25 1986.13,-115.47 1978.18,-105.77 1969.83,-97.76"/>
<polygon fill="#63b8ff" stroke="#63b8ff" points="1972.6,-95.65 1962.81,-91.62 1967.95,-100.88 1972.6,-95.65"/>
</g>
<!-- Node34&#45;&gt;Node19 -->
<g id="edge85" class="edge">
<title>Node34&#45;&gt;Node19</title>
<path fill="none" stroke="#63b8ff" d="M1658.75,-492.96C1643.77,-490.67 1627.6,-488.35 1612.61,-486.5 1443.36,-465.6 1397.16,-487.13 1230.61,-450.5 1186.88,-440.88 1178.96,-428.2 1135.61,-417 1045.51,-393.72 1018.52,-397.21 923.85,-381.35"/>
<polygon fill="#63b8ff" stroke="#63b8ff" points="924.67,-377.77 914.23,-379.54 923.5,-384.67 924.67,-377.77"/>
</g>
<!-- Node34&#45;&gt;Node27 -->
<g id="edge86" class="edge">
<title>Node34&#45;&gt;Node27</title>
<path fill="none" stroke="#63b8ff" d="M1658.87,-492.79C1589.59,-481.25 1471.91,-461.63 1392.74,-448.44"/>
<polygon fill="#63b8ff" stroke="#63b8ff" points="1393.76,-444.89 1383.32,-446.7 1392.61,-451.8 1393.76,-444.89"/>
</g>
<!-- Node35&#45;&gt;Node3 -->
<g id="edge110" class="edge">
<title>Node35&#45;&gt;Node3</title>
<path fill="none" stroke="#63b8ff" d="M2023.18,-701.26C2016.48,-637.04 1982.36,-394.21 1841.61,-278 1802.92,-246.06 1781.78,-259.11 1734.61,-242 1696.05,-228.01 1688.39,-218.51 1648.61,-208.5 1520.52,-176.28 1471.27,-232.51 1353.61,-172.5 1328.61,-159.75 1335.35,-139.5 1310.61,-126.25 1269.26,-104.11 1145.59,-88.77 1065.22,-80.82"/>
<polygon fill="#63b8ff" stroke="#63b8ff" points="1065.96,-77.28 1055.67,-79.79 1065.28,-84.24 1065.96,-77.28"/>
</g>
<!-- Node35&#45;&gt;Node7 -->
<g id="edge114" class="edge">
<title>Node35&#45;&gt;Node7</title>
<path fill="none" stroke="#63b8ff" d="M2081.74,-714.25C2161.64,-708.96 2300.81,-694.77 2334.61,-659 2366.17,-625.6 2350.04,-601.5 2343.61,-556 2336.65,-506.79 2256.44,-159.61 2219.61,-126.25 2189.67,-99.13 2084.06,-85.57 2011.21,-79.29"/>
<polygon fill="#63b8ff" stroke="#63b8ff" points="2011.51,-75.72 2001.26,-78.38 2010.93,-82.7 2011.51,-75.72"/>
</g>
<!-- Node35&#45;&gt;Node9 -->
<g id="edge92" class="edge">
<title>Node35&#45;&gt;Node9</title>
<path fill="none" stroke="#63b8ff" d="M1967.66,-712.15C1871.53,-703.45 1671.05,-683.99 1502.61,-659 1357.3,-637.44 1187.67,-603.68 1100.99,-585.8"/>
<polygon fill="#63b8ff" stroke="#63b8ff" points="1101.84,-582.19 1091.33,-583.59 1100.42,-589.05 1101.84,-582.19"/>
</g>
<!-- Node36 -->
<g id="node36" class="node">
<title>Node36</title>
<g id="a_node36"><a xlink:href="assert_8hpp.html" target="_top" xlink:title=" ">
<polygon fill="white" stroke="#666666" points="1911.98,-659 1799.23,-659 1799.23,-625.5 1911.98,-625.5 1911.98,-659"/>
<text text-anchor="start" x="1807.23" y="-645.5" font-family="Helvetica,sans-Serif" font-size="10.00">proxsuite/linalg/veg</text>
<text text-anchor="middle" x="1855.61" y="-632.75" font-family="Helvetica,sans-Serif" font-size="10.00">/util/assert.hpp</text>
</a>
</g>
</g>
<!-- Node35&#45;&gt;Node36 -->
<g id="edge93" class="edge">
<title>Node35&#45;&gt;Node36</title>
<path fill="none" stroke="#63b8ff" d="M1987.52,-700.91C1962.54,-689.99 1929.37,-675.49 1902.55,-663.77"/>
<polygon fill="#63b8ff" stroke="#63b8ff" points="1904.18,-660.22 1893.61,-659.42 1901.37,-666.64 1904.18,-660.22"/>
</g>
<!-- Node44 -->
<g id="node42" class="node">
<title>Node44</title>
<g id="a_node42"><a xlink:href="common_8hpp.html" target="_top" xlink:title=" ">
<polygon fill="white" stroke="#666666" points="2325.36,-652.62 2157.86,-652.62 2157.86,-631.88 2325.36,-631.88 2325.36,-652.62"/>
<text text-anchor="middle" x="2241.61" y="-639.12" font-family="Helvetica,sans-Serif" font-size="10.00">proxsuite/helpers/common.hpp</text>
</a>
</g>
</g>
<!-- Node35&#45;&gt;Node44 -->
<g id="edge111" class="edge">
<title>Node35&#45;&gt;Node44</title>
<path fill="none" stroke="#63b8ff" d="M2072.23,-700.91C2111.29,-687.61 2165.92,-669.02 2202.47,-656.58"/>
<polygon fill="#63b8ff" stroke="#63b8ff" points="2203.39,-659.62 2211.73,-653.08 2201.14,-652.99 2203.39,-659.62"/>
</g>
<!-- Node37 -->
<g id="node37" class="node">
<title>Node37</title>
<g id="a_node37"><a xlink:href="assert__impl_8hpp.html" target="_top" xlink:title=" ">
<polygon fill="white" stroke="#666666" points="1906.36,-589.5 1768.86,-589.5 1768.86,-556 1906.36,-556 1906.36,-589.5"/>
<text text-anchor="start" x="1776.86" y="-576" font-family="Helvetica,sans-Serif" font-size="10.00">proxsuite/linalg/veg</text>
<text text-anchor="middle" x="1837.61" y="-563.25" font-family="Helvetica,sans-Serif" font-size="10.00">/internal/assert_impl.hpp</text>
</a>
</g>
</g>
<!-- Node36&#45;&gt;Node37 -->
<g id="edge94" class="edge">
<title>Node36&#45;&gt;Node37</title>
<path fill="none" stroke="#63b8ff" d="M1851.34,-625.25C1849.35,-617.77 1846.92,-608.66 1844.66,-600.2"/>
<polygon fill="#63b8ff" stroke="#63b8ff" points="1847.8,-599.39 1841.84,-590.63 1841.04,-601.2 1847.8,-599.39"/>
</g>
<!-- Node37&#45;&gt;Node3 -->
<g id="edge107" class="edge">
<title>Node37&#45;&gt;Node3</title>
<path fill="none" stroke="#63b8ff" d="M1830.44,-555.78C1808.4,-508.16 1737.29,-365.06 1641.61,-278 1593.44,-234.17 1574.33,-229.28 1512.61,-208.5 1414.55,-175.49 1375.27,-218.53 1282.61,-172.5 1256.08,-159.32 1260.77,-140.16 1234.61,-126.25 1182.04,-98.29 1115.47,-85.44 1065.46,-79.53"/>
<polygon fill="#63b8ff" stroke="#63b8ff" points="1066.06,-75.96 1055.73,-78.34 1065.29,-82.92 1066.06,-75.96"/>
</g>
<!-- Node37&#45;&gt;Node4 -->
<g id="edge95" class="edge">
<title>Node37&#45;&gt;Node4</title>
<path fill="none" stroke="#63b8ff" d="M1768.69,-562.43C1748.11,-559.96 1725.48,-557.55 1704.61,-556 1573.58,-546.26 644.48,-569.12 522.61,-520 502.03,-511.71 502.79,-500.53 485.61,-486.5 464.68,-469.41 455.76,-469.57 436.61,-450.5 324.87,-339.22 240.99,-165.63 211.81,-100.42"/>
<polygon fill="#63b8ff" stroke="#63b8ff" points="214.7,-99.3 207.45,-91.57 208.3,-102.13 214.7,-99.3"/>
</g>
<!-- Node37&#45;&gt;Node7 -->
<g id="edge109" class="edge">
<title>Node37&#45;&gt;Node7</title>
<path fill="none" stroke="#63b8ff" d="M1870.37,-555.68C1887.85,-546.38 1909.28,-533.81 1926.61,-520 2034.8,-433.79 2042.84,-378.28 2066.61,-242 2075.45,-191.32 2095.37,-168.9 2066.61,-126.25 2053.65,-107.03 2032.22,-94.95 2010.57,-87.36"/>
<polygon fill="#63b8ff" stroke="#63b8ff" points="2011.89,-83.78 2001.3,-84.07 2009.76,-90.45 2011.89,-83.78"/>
</g>
<!-- Node37&#45;&gt;Node34 -->
<g id="edge96" class="edge">
<title>Node37&#45;&gt;Node34</title>
<path fill="none" stroke="#63b8ff" d="M1808.39,-555.58C1792.09,-546.57 1771.59,-535.23 1754.01,-525.5"/>
<polygon fill="#63b8ff" stroke="#63b8ff" points="1756.04,-522.06 1745.59,-520.29 1752.65,-528.19 1756.04,-522.06"/>
</g>
<!-- Node38 -->
<g id="node38" class="node">
<title>Node38</title>
<g id="a_node38"><a xlink:href="internal_2dbg_8hpp.html" target="_top" xlink:title=" ">
<polygon fill="#fff0f0" stroke="red" points="1603.98,-520 1491.23,-520 1491.23,-486.5 1603.98,-486.5 1603.98,-520"/>
<text text-anchor="start" x="1499.23" y="-506.5" font-family="Helvetica,sans-Serif" font-size="10.00">proxsuite/linalg/veg</text>
<text text-anchor="middle" x="1547.61" y="-493.75" font-family="Helvetica,sans-Serif" font-size="10.00">/internal/dbg.hpp</text>
</a>
</g>
</g>
<!-- Node37&#45;&gt;Node38 -->
<g id="edge97" class="edge">
<title>Node37&#45;&gt;Node38</title>
<path fill="none" stroke="#63b8ff" d="M1768.52,-555.67C1721.89,-544.81 1660.68,-530.57 1614.52,-519.82"/>
<polygon fill="#63b8ff" stroke="#63b8ff" points="1615.55,-516.24 1605.02,-517.38 1613.96,-523.06 1615.55,-516.24"/>
</g>
<!-- Node43 -->
<g id="node41" class="node">
<title>Node43</title>
<g id="a_node41"><a xlink:title=" ">
<polygon fill="#e0e0e0" stroke="#999999" points="1917.23,-513.62 1865.98,-513.62 1865.98,-492.88 1917.23,-492.88 1917.23,-513.62"/>
<text text-anchor="middle" x="1891.61" y="-500.12" font-family="Helvetica,sans-Serif" font-size="10.00">cassert</text>
</a>
</g>
</g>
<!-- Node37&#45;&gt;Node43 -->
<g id="edge108" class="edge">
<title>Node37&#45;&gt;Node43</title>
<path fill="none" stroke="#63b8ff" d="M1850.41,-555.75C1858.42,-545.74 1868.75,-532.82 1877.07,-522.42"/>
<polygon fill="#63b8ff" stroke="#63b8ff" points="1880.24,-525.07 1883.75,-515.07 1874.77,-520.69 1880.24,-525.07"/>
</g>
<!-- Node38&#45;&gt;Node3 -->
<g id="edge104" class="edge">
<title>Node38&#45;&gt;Node3</title>
<path fill="none" stroke="#63b8ff" d="M1549.58,-486.18C1553.65,-445.04 1558.19,-335.12 1499.61,-278 1474.56,-253.58 1459.98,-259.36 1429.61,-242 1405.42,-228.17 1402.61,-218.51 1376.61,-208.5 1289.06,-174.79 1252.29,-214.91 1168.61,-172.5 1142.18,-159.11 1145.46,-142.37 1120.61,-126.25 1100.65,-113.3 1076.92,-102.61 1055.34,-94.38"/>
<polygon fill="#63b8ff" stroke="#63b8ff" points="1056.87,-90.84 1046.28,-90.65 1054.44,-97.4 1056.87,-90.84"/>
</g>
<!-- Node38&#45;&gt;Node7 -->
<g id="edge106" class="edge">
<title>Node38&#45;&gt;Node7</title>
<path fill="none" stroke="#63b8ff" d="M1604.24,-492.6C1658.84,-482.61 1736.98,-466.27 1763.61,-450.5 1871.22,-386.76 1907.59,-358.69 1952.61,-242 1970.82,-194.79 1957.94,-134.69 1947.73,-100.82"/>
<polygon fill="#63b8ff" stroke="#63b8ff" points="1950.78,-99.86 1944.42,-91.39 1944.11,-101.98 1950.78,-99.86"/>
</g>
<!-- Node38&#45;&gt;Node11 -->
<g id="edge103" class="edge">
<title>Node38&#45;&gt;Node11</title>
<path fill="none" stroke="#63b8ff" d="M1490.76,-496.02C1376.85,-483.54 1121.12,-455.52 999,-442.13"/>
<polygon fill="#63b8ff" stroke="#63b8ff" points="999.64,-438.57 989.32,-440.96 998.88,-445.53 999.64,-438.57"/>
</g>
<!-- Node38&#45;&gt;Node19 -->
<g id="edge102" class="edge">
<title>Node38&#45;&gt;Node19</title>
<path fill="none" stroke="#63b8ff" d="M1490.99,-495.35C1421.58,-486.56 1300.48,-470.12 1197.61,-450.5 1095.82,-431.09 979.43,-402.74 906.23,-384.14"/>
<polygon fill="#63b8ff" stroke="#63b8ff" points="907.3,-380.55 896.75,-381.47 905.58,-387.33 907.3,-380.55"/>
</g>
<!-- Node38&#45;&gt;Node28 -->
<g id="edge105" class="edge">
<title>Node38&#45;&gt;Node28</title>
<path fill="none" stroke="#63b8ff" d="M1491.09,-498.12C1374.39,-489.56 1098.26,-469.11 866.61,-450.5 814.35,-446.3 753.87,-441.12 716.42,-437.87"/>
<polygon fill="#63b8ff" stroke="#63b8ff" points="716.84,-434.31 706.57,-436.93 716.23,-441.28 716.84,-434.31"/>
</g>
<!-- Node40 -->
<g id="node39" class="node">
<title>Node40</title>
<g id="a_node39"><a xlink:href="terminate_8hpp.html" target="_top" xlink:title=" ">
<polygon fill="white" stroke="#666666" points="2475.86,-166.12 2347.36,-166.12 2347.36,-132.62 2475.86,-132.62 2475.86,-166.12"/>
<text text-anchor="start" x="2355.36" y="-152.62" font-family="Helvetica,sans-Serif" font-size="10.00">proxsuite/linalg/veg</text>
<text text-anchor="middle" x="2411.61" y="-139.88" font-family="Helvetica,sans-Serif" font-size="10.00">/internal/terminate.hpp</text>
</a>
</g>
</g>
<!-- Node38&#45;&gt;Node40 -->
<g id="edge98" class="edge">
<title>Node38&#45;&gt;Node40</title>
<path fill="none" stroke="#63b8ff" d="M1604.43,-493.49C1697.07,-479.18 1871.04,-452.22 1877.61,-450.5 2134.11,-383.29 2285.38,-459.81 2436.61,-242 2450.37,-222.19 2440.24,-195.1 2429.03,-175.52"/>
<polygon fill="#63b8ff" stroke="#63b8ff" points="2431.59,-174 2423.37,-167.31 2425.62,-177.66 2431.59,-174"/>
</g>
<!-- Node40&#45;&gt;Node3 -->
<g id="edge99" class="edge">
<title>Node40&#45;&gt;Node3</title>
<path fill="none" stroke="#63b8ff" d="M2346.95,-145.01C2113.07,-132.83 1311.92,-91.12 1065.39,-78.29"/>
<polygon fill="#63b8ff" stroke="#63b8ff" points="1065.59,-74.74 1055.42,-77.72 1065.23,-81.73 1065.59,-74.74"/>
</g>
<!-- Node40&#45;&gt;Node7 -->
<g id="edge101" class="edge">
<title>Node40&#45;&gt;Node7</title>
<path fill="none" stroke="#63b8ff" d="M2358.58,-132.21C2350.27,-130.01 2341.74,-127.93 2333.61,-126.25 2222.17,-103.27 2090.84,-88.46 2011.2,-80.8"/>
<polygon fill="#63b8ff" stroke="#63b8ff" points="2011.6,-77.23 2001.31,-79.77 2010.94,-84.2 2011.6,-77.23"/>
</g>
<!-- Node41 -->
<g id="node40" class="node">
<title>Node41</title>
<g id="a_node40"><a xlink:title=" ">
<polygon fill="#e0e0e0" stroke="#999999" points="2443.61,-83.88 2379.61,-83.88 2379.61,-63.12 2443.61,-63.12 2443.61,-83.88"/>
<text text-anchor="middle" x="2411.61" y="-70.38" font-family="Helvetica,sans-Serif" font-size="10.00">exception</text>
</a>
</g>
</g>
<!-- Node40&#45;&gt;Node41 -->
<g id="edge100" class="edge">
<title>Node40&#45;&gt;Node41</title>
<path fill="none" stroke="#63b8ff" d="M2411.61,-132.35C2411.61,-121.27 2411.61,-106.45 2411.61,-94.59"/>
<polygon fill="#63b8ff" stroke="#63b8ff" points="2415.11,-94.96 2411.61,-84.96 2408.11,-94.96 2415.11,-94.96"/>
</g>
<!-- Node45 -->
<g id="node43" class="node">
<title>Node45</title>
<g id="a_node43"><a xlink:title=" ">
<polygon fill="#e0e0e0" stroke="#999999" points="2334.11,-583.12 2219.11,-583.12 2219.11,-562.38 2334.11,-562.38 2334.11,-583.12"/>
<text text-anchor="middle" x="2276.61" y="-569.62" font-family="Helvetica,sans-Serif" font-size="10.00">proxsuite/config.hpp</text>
</a>
</g>
</g>
<!-- Node44&#45;&gt;Node45 -->
<g id="edge112" class="edge">
<title>Node44&#45;&gt;Node45</title>
<path fill="none" stroke="#63b8ff" d="M2246.62,-631.58C2251.82,-621.55 2260.09,-605.62 2266.62,-593.01"/>
<polygon fill="#63b8ff" stroke="#63b8ff" points="2270.11,-594.89 2271.6,-584.4 2263.89,-591.67 2270.11,-594.89"/>
</g>
<!-- Node46 -->
<g id="node44" class="node">
<title>Node46</title>
<g id="a_node44"><a xlink:title=" ">
<polygon fill="#e0e0e0" stroke="#999999" points="2201.48,-583.12 2157.73,-583.12 2157.73,-562.38 2201.48,-562.38 2201.48,-583.12"/>
<text text-anchor="middle" x="2179.61" y="-569.62" font-family="Helvetica,sans-Serif" font-size="10.00">limits</text>
</a>
</g>
</g>
<!-- Node44&#45;&gt;Node46 -->
<g id="edge113" class="edge">
<title>Node44&#45;&gt;Node46</title>
<path fill="none" stroke="#63b8ff" d="M2232.73,-631.58C2223.06,-621.05 2207.4,-604.01 2195.58,-591.14"/>
<polygon fill="#63b8ff" stroke="#63b8ff" points="2198.82,-589.4 2189.48,-584.4 2193.66,-594.14 2198.82,-589.4"/>
</g>
<!-- Node47&#45;&gt;Node3 -->
<g id="edge136" class="edge">
<title>Node47&#45;&gt;Node3</title>
<path fill="none" stroke="#63b8ff" d="M1895.46,-777.06C1917.47,-729.98 1975.08,-588.48 1926.61,-486.5 1863.62,-353.97 1788.44,-365.46 1670.61,-278 1626.27,-245.09 1619.17,-228.28 1567.61,-208.5 1459.93,-167.18 1411.21,-228.91 1310.61,-172.5 1287.4,-159.49 1295.52,-139.77 1272.61,-126.25 1209.27,-88.9 1125.01,-77.48 1065.52,-74.47"/>
<polygon fill="#63b8ff" stroke="#63b8ff" points="1065.86,-70.94 1055.71,-74 1065.55,-77.93 1065.86,-70.94"/>
</g>
<!-- Node47&#45;&gt;Node7 -->
<g id="edge138" class="edge">
<title>Node47&#45;&gt;Node7</title>
<path fill="none" stroke="#63b8ff" d="M1944.15,-785.28C2057.65,-768.51 2306.72,-724.9 2357.61,-659 2394.59,-611.11 2290.61,-165.56 2244.61,-126.25 2210.33,-96.96 2090.07,-83.85 2010.91,-78.28"/>
<polygon fill="#63b8ff" stroke="#63b8ff" points="2011.24,-74.73 2001.03,-77.54 2010.77,-81.71 2011.24,-74.73"/>
</g>
<!-- Node47&#45;&gt;Node18 -->
<g id="edge137" class="edge">
<title>Node47&#45;&gt;Node18</title>
<path fill="none" stroke="#63b8ff" d="M1830.85,-791.27C1696.26,-786.79 1347.35,-772.83 1057.61,-741.25 583.31,-689.55 10.61,-981.36 10.61,-504.25 10.61,-504.25 10.61,-504.25 10.61,-363.25 10.61,-259.67 53.13,-140.77 71.41,-94.43"/>
<polygon fill="#63b8ff" stroke="#63b8ff" points="75.02,-95.85 75.5,-85.27 68.52,-93.24 75.02,-95.85"/>
</g>
<!-- Node47&#45;&gt;Node35 -->
<g id="edge121" class="edge">
<title>Node47&#45;&gt;Node35</title>
<path fill="none" stroke="#63b8ff" d="M1917.67,-776.79C1937.48,-766.11 1963.63,-752.01 1985.11,-740.42"/>
<polygon fill="#63b8ff" stroke="#63b8ff" points="1986.47,-743.13 1993.61,-735.3 1983.15,-736.97 1986.47,-743.13"/>
</g>
<!-- Node47&#45;&gt;Node36 -->
<g id="edge116" class="edge">
<title>Node47&#45;&gt;Node36</title>
<path fill="none" stroke="#63b8ff" d="M1884.18,-776.97C1878.7,-751.3 1867.89,-700.7 1861.25,-669.64"/>
<polygon fill="#63b8ff" stroke="#63b8ff" points="1864.52,-669.21 1859.01,-660.16 1857.68,-670.67 1864.52,-669.21"/>
</g>
<!-- Node48 -->
<g id="node46" class="node">
<title>Node48</title>
<g id="a_node46"><a xlink:href="get_8hpp.html" target="_top" xlink:title=" ">
<polygon fill="white" stroke="#666666" points="1322.98,-381 1210.23,-381 1210.23,-347.5 1322.98,-347.5 1322.98,-381"/>
<text text-anchor="start" x="1218.23" y="-367.5" font-family="Helvetica,sans-Serif" font-size="10.00">proxsuite/linalg/veg</text>
<text text-anchor="middle" x="1266.61" y="-354.75" font-family="Helvetica,sans-Serif" font-size="10.00">/util/get.hpp</text>
</a>
</g>
</g>
<!-- Node47&#45;&gt;Node48 -->
<g id="edge117" class="edge">
<title>Node47&#45;&gt;Node48</title>
<path fill="none" stroke="#63b8ff" d="M1830.76,-783.42C1725.17,-763.28 1495.59,-708.25 1342.61,-589.5 1279.94,-540.85 1257,-525.32 1230.61,-450.5 1225.66,-436.46 1226.15,-431.21 1230.61,-417 1233.65,-407.29 1239.24,-397.8 1245.11,-389.66"/>
<polygon fill="#63b8ff" stroke="#63b8ff" points="1248.39,-392.15 1251.75,-382.1 1242.86,-387.86 1248.39,-392.15"/>
</g>
<!-- Node49 -->
<g id="node47" class="node">
<title>Node49</title>
<g id="a_node47"><a xlink:href="tuple_8hpp.html" target="_top" xlink:title=" ">
<polygon fill="white" stroke="#666666" points="1623.98,-659 1511.23,-659 1511.23,-625.5 1623.98,-625.5 1623.98,-659"/>
<text text-anchor="start" x="1519.23" y="-645.5" font-family="Helvetica,sans-Serif" font-size="10.00">proxsuite/linalg/veg</text>
<text text-anchor="middle" x="1567.61" y="-632.75" font-family="Helvetica,sans-Serif" font-size="10.00">/tuple.hpp</text>
</a>
</g>
</g>
<!-- Node47&#45;&gt;Node49 -->
<g id="edge122" class="edge">
<title>Node47&#45;&gt;Node49</title>
<path fill="none" stroke="#63b8ff" d="M1853.06,-776.83C1794.61,-749.48 1676.31,-694.12 1611.88,-663.97"/>
<polygon fill="#63b8ff" stroke="#63b8ff" points="1613.56,-660.42 1603.01,-659.35 1610.59,-666.76 1613.56,-660.42"/>
</g>
<!-- Node48&#45;&gt;Node3 -->
<g id="edge119" class="edge">
<title>Node48&#45;&gt;Node3</title>
<path fill="none" stroke="#63b8ff" d="M1256.88,-347.07C1237.19,-315.69 1189.52,-246.31 1131.61,-208.5 1086.76,-179.22 1053.26,-211.55 1016.61,-172.5 998.72,-153.45 993.53,-123.32 992.32,-101.49"/>
<polygon fill="#63b8ff" stroke="#63b8ff" points="995.79,-101.54 991.99,-91.64 988.79,-101.74 995.79,-101.54"/>
</g>
<!-- Node48&#45;&gt;Node7 -->
<g id="edge120" class="edge">
<title>Node48&#45;&gt;Node7</title>
<path fill="none" stroke="#63b8ff" d="M1310.57,-347.04C1361.23,-328.72 1447.19,-298.77 1522.61,-278 1594.55,-258.18 1619.7,-275.05 1686.61,-242 1758.08,-206.7 1756.17,-168.74 1823.61,-126.25 1842.78,-114.17 1865.25,-103.4 1885.22,-94.85"/>
<polygon fill="#63b8ff" stroke="#63b8ff" points="1886.22,-97.81 1894.1,-90.71 1883.52,-91.35 1886.22,-97.81"/>
</g>
<!-- Node48&#45;&gt;Node13 -->
<g id="edge118" class="edge">
<title>Node48&#45;&gt;Node13</title>
<path fill="none" stroke="#63b8ff" d="M1214.87,-347.08C1184.13,-337.47 1144.94,-325.23 1112.56,-315.11"/>
<polygon fill="#63b8ff" stroke="#63b8ff" points="1113.89,-311.54 1103.3,-311.9 1111.8,-318.23 1113.89,-311.54"/>
</g>
<!-- Node49&#45;&gt;Node3 -->
<g id="edge133" class="edge">
<title>Node49&#45;&gt;Node3</title>
<path fill="none" stroke="#63b8ff" d="M1575.63,-625.3C1586.55,-602.59 1605.54,-559.34 1612.61,-520 1632.84,-407.36 1603.01,-361.38 1524.61,-278 1501.45,-253.37 1485.72,-260.78 1457.61,-242 1438.04,-228.93 1438.06,-218.17 1416.61,-208.5 1326.29,-167.77 1282.46,-221.95 1196.61,-172.5 1173.56,-159.22 1180.68,-141.11 1158.61,-126.25 1130.83,-107.55 1095.96,-95.34 1065.36,-87.5"/>
<polygon fill="#63b8ff" stroke="#63b8ff" points="1066.28,-83.88 1055.73,-84.91 1064.62,-90.68 1066.28,-83.88"/>
</g>
<!-- Node49&#45;&gt;Node7 -->
<g id="edge135" class="edge">
<title>Node49&#45;&gt;Node7</title>
<path fill="none" stroke="#63b8ff" d="M1624.4,-636.2C1732.22,-626.34 1958.79,-604.21 1991.61,-589.5 2086.66,-546.9 2167.61,-538.91 2167.61,-434.75 2167.61,-434.75 2167.61,-434.75 2167.61,-224.25 2167.61,-179.41 2175.2,-158.07 2143.61,-126.25 2124.96,-107.46 2062.24,-93.42 2011.04,-84.74"/>
<polygon fill="#63b8ff" stroke="#63b8ff" points="2011.75,-81.14 2001.31,-82.96 2010.61,-88.05 2011.75,-81.14"/>
</g>
<!-- Node49&#45;&gt;Node25 -->
<g id="edge123" class="edge">
<title>Node49&#45;&gt;Node25</title>
<path fill="none" stroke="#63b8ff" d="M1510.98,-633.62C1464.48,-626.09 1397.58,-612.34 1342.61,-589.5 1235.45,-544.98 1217.67,-515.59 1121.61,-450.5 1091.49,-430.09 1058.01,-405.5 1034.61,-387.98"/>
<polygon fill="#63b8ff" stroke="#63b8ff" points="1036.96,-384.61 1026.86,-381.41 1032.75,-390.21 1036.96,-384.61"/>
</g>
<!-- Node49&#45;&gt;Node27 -->
<g id="edge125" class="edge">
<title>Node49&#45;&gt;Node27</title>
<path fill="none" stroke="#63b8ff" d="M1510.77,-639.3C1468.34,-635 1411.4,-622.81 1373.61,-589.5 1335.48,-555.9 1320.04,-495.81 1314.08,-461.23"/>
<polygon fill="#63b8ff" stroke="#63b8ff" points="1317.41,-460.89 1312.41,-451.55 1310.5,-461.97 1317.41,-460.89"/>
</g>
<!-- Node49&#45;&gt;Node38 -->
<g id="edge124" class="edge">
<title>Node49&#45;&gt;Node38</title>
<path fill="none" stroke="#63b8ff" d="M1565.28,-625.27C1561.89,-602.06 1555.57,-558.77 1551.48,-530.75"/>
<polygon fill="#63b8ff" stroke="#63b8ff" points="1554.84,-530.52 1549.93,-521.13 1547.91,-531.53 1554.84,-530.52"/>
</g>
<!-- Node49&#45;&gt;Node48 -->
<g id="edge126" class="edge">
<title>Node49&#45;&gt;Node48</title>
<path fill="none" stroke="#63b8ff" d="M1511.12,-638.33C1475.47,-633.3 1431.6,-620.64 1406.61,-589.5 1358.43,-529.44 1436.22,-479.03 1390.61,-417 1382.58,-406.08 1356.31,-394.42 1330,-384.93"/>
<polygon fill="#63b8ff" stroke="#63b8ff" points="1331.55,-381.42 1320.96,-381.41 1329.23,-388.02 1331.55,-381.42"/>
</g>
<!-- Node50 -->
<g id="node48" class="node">
<title>Node50</title>
<g id="a_node48"><a xlink:href="fix__index_8hpp.html" target="_top" xlink:title=" ">
<polygon fill="white" stroke="#666666" points="1539.98,-589.5 1415.23,-589.5 1415.23,-556 1539.98,-556 1539.98,-589.5"/>
<text text-anchor="start" x="1423.23" y="-576" font-family="Helvetica,sans-Serif" font-size="10.00">proxsuite/linalg/veg</text>
<text text-anchor="middle" x="1477.61" y="-563.25" font-family="Helvetica,sans-Serif" font-size="10.00">/internal/fix_index.hpp</text>
</a>
</g>
</g>
<!-- Node49&#45;&gt;Node50 -->
<g id="edge127" class="edge">
<title>Node49&#45;&gt;Node50</title>
<path fill="none" stroke="#63b8ff" d="M1546.28,-625.25C1534.71,-616.57 1520.22,-605.71 1507.53,-596.19"/>
<polygon fill="#63b8ff" stroke="#63b8ff" points="1510.2,-593.07 1500.1,-589.87 1506,-598.67 1510.2,-593.07"/>
</g>
<!-- Node51 -->
<g id="node49" class="node">
<title>Node51</title>
<g id="a_node49"><a xlink:title=" ">
<polygon fill="#e0e0e0" stroke="#999999" points="1695.86,-583.12 1651.36,-583.12 1651.36,-562.38 1695.86,-562.38 1695.86,-583.12"/>
<text text-anchor="middle" x="1673.61" y="-569.62" font-family="Helvetica,sans-Serif" font-size="10.00">utility</text>
</a>
</g>
</g>
<!-- Node49&#45;&gt;Node51 -->
<g id="edge134" class="edge">
<title>Node49&#45;&gt;Node51</title>
<path fill="none" stroke="#63b8ff" d="M1593,-625.08C1610,-614.26 1632.25,-600.09 1649.07,-589.38"/>
<polygon fill="#63b8ff" stroke="#63b8ff" points="1650.71,-591.84 1657.26,-583.52 1646.95,-585.94 1650.71,-591.84"/>
</g>
<!-- Node50&#45;&gt;Node3 -->
<g id="edge131" class="edge">
<title>Node50&#45;&gt;Node3</title>
<path fill="none" stroke="#63b8ff" d="M1478.54,-555.57C1481.22,-507.43 1488.44,-367.25 1482.61,-347.5 1472.18,-312.21 1465.76,-301.7 1437.61,-278 1407.48,-252.64 1312.03,-220.75 1274.61,-208.5 1207.81,-186.63 1179.55,-210.8 1120.61,-172.5 1098.99,-158.45 1105.07,-143.16 1085.61,-126.25 1071.86,-114.31 1054.92,-103.89 1039.28,-95.59"/>
<polygon fill="#63b8ff" stroke="#63b8ff" points="1041.24,-92.16 1030.75,-90.71 1038.05,-98.38 1041.24,-92.16"/>
</g>
<!-- Node50&#45;&gt;Node7 -->
<g id="edge132" class="edge">
<title>Node50&#45;&gt;Node7</title>
<path fill="none" stroke="#63b8ff" d="M1540.32,-567.08C1602.65,-561.04 1700.3,-547.8 1780.61,-520 1811.19,-509.41 1883.84,-471.34 1908.61,-450.5 2009.32,-365.78 2008.72,-304.1 2010.61,-172.5 2010.9,-151.95 2019.99,-144.54 2010.61,-126.25 2004.4,-114.14 1993.9,-104.23 1982.81,-96.44"/>
<polygon fill="#63b8ff" stroke="#63b8ff" points="1985.15,-93.14 1974.86,-90.64 1981.35,-99.01 1985.15,-93.14"/>
</g>
<!-- Node50&#45;&gt;Node12 -->
<g id="edge128" class="edge">
<title>Node50&#45;&gt;Node12</title>
<path fill="none" stroke="#63b8ff" d="M1467.71,-555.93C1461.8,-545.93 1454.51,-532.56 1449.61,-520 1432.47,-476.01 1439.39,-461.5 1423.61,-417 1420.54,-408.34 1416.54,-399.15 1412.69,-390.97"/>
<polygon fill="#63b8ff" stroke="#63b8ff" points="1415.48,-389.71 1407.97,-382.24 1409.19,-392.77 1415.48,-389.71"/>
</g>
<!-- Node50&#45;&gt;Node23 -->
<g id="edge129" class="edge">
<title>Node50&#45;&gt;Node23</title>
<path fill="none" stroke="#63b8ff" d="M1415.03,-569.18C1200.98,-560.29 510.14,-530.84 489.61,-520 417.74,-482.05 402.52,-373.42 399.38,-322.59"/>
<polygon fill="#63b8ff" stroke="#63b8ff" points="402.84,-322.64 398.84,-312.82 395.85,-322.98 402.84,-322.64"/>
</g>
<!-- Node50&#45;&gt;Node38 -->
<g id="edge130" class="edge">
<title>Node50&#45;&gt;Node38</title>
<path fill="none" stroke="#63b8ff" d="M1494.2,-555.75C1502.92,-547.35 1513.76,-536.89 1523.4,-527.59"/>
<polygon fill="#63b8ff" stroke="#63b8ff" points="1525.37,-530.59 1530.14,-521.13 1520.51,-525.55 1525.37,-530.59"/>
</g>
<!-- Node52&#45;&gt;Node3 -->
<g id="edge142" class="edge">
<title>Node52&#45;&gt;Node3</title>
<path fill="none" stroke="#63b8ff" d="M2308.98,-217.28C2168.42,-200.89 1805.28,-158.85 1501.61,-126.25 1346.26,-109.57 1164.07,-91.38 1065.28,-81.63"/>
<polygon fill="#63b8ff" stroke="#63b8ff" points="1065.83,-78.07 1055.53,-80.57 1065.14,-85.03 1065.83,-78.07"/>
</g>
<!-- Node52&#45;&gt;Node7 -->
<g id="edge143" class="edge">
<title>Node52&#45;&gt;Node7</title>
<path fill="none" stroke="#63b8ff" d="M2358.77,-208.13C2343.08,-183 2312.47,-136.29 2295.61,-126.25 2248.87,-98.4 2101.12,-84.52 2011.01,-78.47"/>
<polygon fill="#63b8ff" stroke="#63b8ff" points="2011.25,-74.91 2001.04,-77.75 2010.79,-81.9 2011.25,-74.91"/>
</g>
<!-- Node52&#45;&gt;Node15 -->
<g id="edge140" class="edge">
<title>Node52&#45;&gt;Node15</title>
<path fill="none" stroke="#63b8ff" d="M2308.92,-221.96C2025.57,-211.08 817.4,-164.69 513.96,-153.04"/>
<polygon fill="#63b8ff" stroke="#63b8ff" points="514.26,-149.51 504.13,-152.62 513.99,-156.5 514.26,-149.51"/>
</g>
<!-- Node52&#45;&gt;Node40 -->
<g id="edge141" class="edge">
<title>Node52&#45;&gt;Node40</title>
<path fill="none" stroke="#63b8ff" d="M2377.94,-208.22C2383.46,-198.73 2390.58,-186.5 2396.85,-175.73"/>
<polygon fill="#63b8ff" stroke="#63b8ff" points="2400.29,-177.78 2402.3,-167.37 2394.24,-174.26 2400.29,-177.78"/>
</g>
</g>
</svg>
