<?xml version="1.0" encoding="UTF-8" standalone="no"?>
<!DOCTYPE svg PUBLIC "-//W3C//DTD SVG 1.1//EN"
 "http://www.w3.org/Graphics/SVG/1.1/DTD/svg11.dtd">
<!-- Generated by graphviz version 5.0.0 (20220707.2338)
 -->
<!-- Title: include/proxsuite/linalg/veg/type_traits/core.hpp Pages: 1 -->
<svg width="871pt" height="296pt"
 viewBox="0.00 0.00 871.00 296.00" xmlns="http://www.w3.org/2000/svg" xmlns:xlink="http://www.w3.org/1999/xlink">
<g id="graph0" class="graph" transform="scale(1 1) rotate(0) translate(4 292)">
<title>include/proxsuite/linalg/veg/type_traits/core.hpp</title>
<!-- Node1 -->
<g id="node1" class="node">
<title>Node1</title>
<g id="a_node1"><a xlink:title=" ">
<polygon fill="#bfbfbf" stroke="black" points="562,-257.5 562,-287.5 700,-287.5 700,-257.5 562,-257.5"/>
<text text-anchor="start" x="570" y="-275.5" font-family="Helvetica,sans-Serif" font-size="10.00">include/proxsuite/linalg</text>
<text text-anchor="middle" x="631" y="-264.5" font-family="Helvetica,sans-Serif" font-size="10.00">/veg/type_traits/core.hpp</text>
</a>
</g>
</g>
<!-- Node2 -->
<g id="node2" class="node">
<title>Node2</title>
<g id="a_node2"><a xlink:href="typedefs_8hpp.html" target="_top" xlink:title=" ">
<polygon fill="none" stroke="black" points="0,-56.5 0,-86.5 124,-86.5 124,-56.5 0,-56.5"/>
<text text-anchor="start" x="8" y="-74.5" font-family="Helvetica,sans-Serif" font-size="10.00">proxsuite/linalg/veg</text>
<text text-anchor="middle" x="62" y="-63.5" font-family="Helvetica,sans-Serif" font-size="10.00">/internal/typedefs.hpp</text>
</a>
</g>
</g>
<!-- Node1&#45;&gt;Node2 -->
<g id="edge1" class="edge">
<title>Node1&#45;&gt;Node2</title>
<path fill="none" stroke="midnightblue" d="M585.4,-257.44C516.95,-236.14 383.77,-193.95 272,-154 214.26,-133.36 148.48,-107.43 106.16,-90.44"/>
<polygon fill="midnightblue" stroke="midnightblue" points="107.3,-87.12 96.71,-86.63 104.68,-93.61 107.3,-87.12"/>
</g>
<!-- Node5 -->
<g id="node5" class="node">
<title>Node5</title>
<g id="a_node5"><a xlink:href="integer__seq_8hpp.html" target="_top" xlink:title=" ">
<polygon fill="none" stroke="black" points="514,-190.5 514,-220.5 652,-220.5 652,-190.5 514,-190.5"/>
<text text-anchor="start" x="522" y="-208.5" font-family="Helvetica,sans-Serif" font-size="10.00">proxsuite/linalg/veg</text>
<text text-anchor="middle" x="583" y="-197.5" font-family="Helvetica,sans-Serif" font-size="10.00">/internal/integer_seq.hpp</text>
</a>
</g>
</g>
<!-- Node1&#45;&gt;Node5 -->
<g id="edge4" class="edge">
<title>Node1&#45;&gt;Node5</title>
<path fill="none" stroke="midnightblue" d="M620.58,-257.4C614.42,-249.05 606.47,-238.29 599.48,-228.81"/>
<polygon fill="midnightblue" stroke="midnightblue" points="602.15,-226.54 593.39,-220.58 596.52,-230.7 602.15,-226.54"/>
</g>
<!-- Node9 -->
<g id="node9" class="node">
<title>Node9</title>
<g id="a_node9"><a xlink:href="prologue_8hpp.html" target="_top" xlink:title=" ">
<polygon fill="none" stroke="black" points="739,-56.5 739,-86.5 863,-86.5 863,-56.5 739,-56.5"/>
<text text-anchor="start" x="747" y="-74.5" font-family="Helvetica,sans-Serif" font-size="10.00">proxsuite/linalg/veg</text>
<text text-anchor="middle" x="801" y="-63.5" font-family="Helvetica,sans-Serif" font-size="10.00">/internal/prologue.hpp</text>
</a>
</g>
</g>
<!-- Node1&#45;&gt;Node9 -->
<g id="edge15" class="edge">
<title>Node1&#45;&gt;Node9</title>
<path fill="none" stroke="midnightblue" d="M644.05,-257.5C653.35,-247.44 666.09,-233.51 677,-221 715.58,-176.77 759.27,-123.73 783.12,-94.51"/>
<polygon fill="midnightblue" stroke="midnightblue" points="785.97,-96.55 789.57,-86.59 780.54,-92.13 785.97,-96.55"/>
</g>
<!-- Node11 -->
<g id="node11" class="node">
<title>Node11</title>
<g id="a_node11"><a xlink:href="epilogue_8hpp.html" target="_top" xlink:title=" ">
<polygon fill="none" stroke="black" points="597.5,-56.5 597.5,-86.5 720.5,-86.5 720.5,-56.5 597.5,-56.5"/>
<text text-anchor="start" x="605.5" y="-74.5" font-family="Helvetica,sans-Serif" font-size="10.00">proxsuite/linalg/veg</text>
<text text-anchor="middle" x="659" y="-63.5" font-family="Helvetica,sans-Serif" font-size="10.00">/internal/epilogue.hpp</text>
</a>
</g>
</g>
<!-- Node1&#45;&gt;Node11 -->
<g id="edge16" class="edge">
<title>Node1&#45;&gt;Node11</title>
<path fill="none" stroke="midnightblue" d="M642.17,-257.43C649.09,-247.79 657.33,-234.37 661,-221 672.68,-178.48 667.86,-126.51 663.38,-96.68"/>
<polygon fill="midnightblue" stroke="midnightblue" points="666.82,-96.07 661.77,-86.75 659.91,-97.18 666.82,-96.07"/>
</g>
<!-- Node3 -->
<g id="node3" class="node">
<title>Node3</title>
<g id="a_node3"><a xlink:title=" ">
<polygon fill="none" stroke="#bfbfbf" points="2,-0.5 2,-19.5 52,-19.5 52,-0.5 2,-0.5"/>
<text text-anchor="middle" x="27" y="-7.5" font-family="Helvetica,sans-Serif" font-size="10.00">cstdint</text>
</a>
</g>
</g>
<!-- Node2&#45;&gt;Node3 -->
<g id="edge2" class="edge">
<title>Node2&#45;&gt;Node3</title>
<path fill="none" stroke="midnightblue" d="M53.71,-56.4C48.78,-48.02 42.49,-37.33 37.25,-28.42"/>
<polygon fill="midnightblue" stroke="midnightblue" points="40.18,-26.5 32.09,-19.66 34.15,-30.05 40.18,-26.5"/>
</g>
<!-- Node4 -->
<g id="node4" class="node">
<title>Node4</title>
<g id="a_node4"><a xlink:title=" ">
<polygon fill="none" stroke="#bfbfbf" points="70.5,-0.5 70.5,-19.5 123.5,-19.5 123.5,-0.5 70.5,-0.5"/>
<text text-anchor="middle" x="97" y="-7.5" font-family="Helvetica,sans-Serif" font-size="10.00">cstddef</text>
</a>
</g>
</g>
<!-- Node2&#45;&gt;Node4 -->
<g id="edge3" class="edge">
<title>Node2&#45;&gt;Node4</title>
<path fill="none" stroke="midnightblue" d="M70.29,-56.4C75.22,-48.02 81.51,-37.33 86.75,-28.42"/>
<polygon fill="midnightblue" stroke="midnightblue" points="89.85,-30.05 91.91,-19.66 83.82,-26.5 89.85,-30.05"/>
</g>
<!-- Node5&#45;&gt;Node2 -->
<g id="edge5" class="edge">
<title>Node5&#45;&gt;Node2</title>
<path fill="none" stroke="midnightblue" d="M527.74,-190.5C430.82,-165.94 230.7,-115.24 127.19,-89.02"/>
<polygon fill="midnightblue" stroke="midnightblue" points="128.03,-85.62 117.48,-86.56 126.31,-92.41 128.03,-85.62"/>
</g>
<!-- Node6 -->
<g id="node6" class="node">
<title>Node6</title>
<g id="a_node6"><a xlink:href="macros_8hpp.html" target="_top" xlink:title=" ">
<polygon fill="none" stroke="black" points="458.5,-123.5 458.5,-153.5 575.5,-153.5 575.5,-123.5 458.5,-123.5"/>
<text text-anchor="start" x="466.5" y="-141.5" font-family="Helvetica,sans-Serif" font-size="10.00">proxsuite/linalg/veg</text>
<text text-anchor="middle" x="517" y="-130.5" font-family="Helvetica,sans-Serif" font-size="10.00">/internal/macros.hpp</text>
</a>
</g>
</g>
<!-- Node5&#45;&gt;Node6 -->
<g id="edge6" class="edge">
<title>Node5&#45;&gt;Node6</title>
<path fill="none" stroke="midnightblue" d="M568.68,-190.4C559.86,-181.71 548.38,-170.4 538.48,-160.66"/>
<polygon fill="midnightblue" stroke="midnightblue" points="540.87,-158.1 531.29,-153.58 535.96,-163.09 540.87,-158.1"/>
</g>
<!-- Node5&#45;&gt;Node9 -->
<g id="edge13" class="edge">
<title>Node5&#45;&gt;Node9</title>
<path fill="none" stroke="midnightblue" d="M606.33,-190.37C645.58,-166.6 724.88,-118.59 769.2,-91.75"/>
<polygon fill="midnightblue" stroke="midnightblue" points="771.1,-94.7 777.84,-86.52 767.47,-88.71 771.1,-94.7"/>
</g>
<!-- Node5&#45;&gt;Node11 -->
<g id="edge14" class="edge">
<title>Node5&#45;&gt;Node11</title>
<path fill="none" stroke="midnightblue" d="M590.61,-190.25C599.4,-173.9 614.41,-146.32 628,-123 633.32,-113.86 639.37,-103.92 644.7,-95.29"/>
<polygon fill="midnightblue" stroke="midnightblue" points="647.83,-96.88 650.14,-86.54 641.89,-93.19 647.83,-96.88"/>
</g>
<!-- Node6&#45;&gt;Node2 -->
<g id="edge8" class="edge">
<title>Node6&#45;&gt;Node2</title>
<path fill="none" stroke="midnightblue" d="M458.26,-131.08C384.82,-122.77 255.07,-107.12 134.44,-87.17"/>
<polygon fill="midnightblue" stroke="midnightblue" points="134.73,-83.67 124.29,-85.48 133.58,-90.58 134.73,-83.67"/>
</g>
<!-- Node7 -->
<g id="node7" class="node">
<title>Node7</title>
<g id="a_node7"><a xlink:href="hedley_8ext_8hpp.html" target="_top" xlink:title=" ">
<polygon fill="none" stroke="black" points="142.5,-56.5 142.5,-86.5 317.5,-86.5 317.5,-56.5 142.5,-56.5"/>
<text text-anchor="start" x="150.5" y="-74.5" font-family="Helvetica,sans-Serif" font-size="10.00">proxsuite/linalg/veg</text>
<text text-anchor="middle" x="230" y="-63.5" font-family="Helvetica,sans-Serif" font-size="10.00">/internal/external/hedley.ext.hpp</text>
</a>
</g>
</g>
<!-- Node6&#45;&gt;Node7 -->
<g id="edge7" class="edge">
<title>Node6&#45;&gt;Node7</title>
<path fill="none" stroke="midnightblue" d="M458.23,-124.19C412.89,-113.92 349.97,-99.67 301.68,-88.73"/>
<polygon fill="midnightblue" stroke="midnightblue" points="302.44,-85.32 291.92,-86.52 300.9,-92.15 302.44,-85.32"/>
</g>
<!-- Node8 -->
<g id="node8" class="node">
<title>Node8</title>
<g id="a_node8"><a xlink:href="preprocessor_8hpp.html" target="_top" xlink:title=" ">
<polygon fill="none" stroke="black" points="335.5,-56.5 335.5,-86.5 478.5,-86.5 478.5,-56.5 335.5,-56.5"/>
<text text-anchor="start" x="343.5" y="-74.5" font-family="Helvetica,sans-Serif" font-size="10.00">proxsuite/linalg/veg</text>
<text text-anchor="middle" x="407" y="-63.5" font-family="Helvetica,sans-Serif" font-size="10.00">/internal/preprocessor.hpp</text>
</a>
</g>
</g>
<!-- Node6&#45;&gt;Node8 -->
<g id="edge9" class="edge">
<title>Node6&#45;&gt;Node8</title>
<path fill="none" stroke="midnightblue" d="M493.13,-123.4C477.42,-114.11 456.65,-101.84 439.45,-91.67"/>
<polygon fill="midnightblue" stroke="midnightblue" points="441.21,-88.65 430.82,-86.58 437.65,-94.68 441.21,-88.65"/>
</g>
<!-- Node6&#45;&gt;Node9 -->
<g id="edge10" class="edge">
<title>Node6&#45;&gt;Node9</title>
<path fill="none" stroke="midnightblue" d="M575.5,-124.11C620.22,-113.88 682.08,-99.72 729.7,-88.82"/>
<polygon fill="midnightblue" stroke="midnightblue" points="730.66,-92.19 739.63,-86.55 729.1,-85.37 730.66,-92.19"/>
</g>
<!-- Node10 -->
<g id="node10" class="node">
<title>Node10</title>
<g id="a_node10"><a xlink:title=" ">
<polygon fill="none" stroke="#bfbfbf" points="496.5,-62 496.5,-81 579.5,-81 579.5,-62 496.5,-62"/>
<text text-anchor="middle" x="538" y="-69" font-family="Helvetica,sans-Serif" font-size="10.00">initializer_list</text>
</a>
</g>
</g>
<!-- Node6&#45;&gt;Node10 -->
<g id="edge11" class="edge">
<title>Node6&#45;&gt;Node10</title>
<path fill="none" stroke="midnightblue" d="M521.56,-123.4C524.64,-113.86 528.73,-101.18 532.07,-90.86"/>
<polygon fill="midnightblue" stroke="midnightblue" points="535.45,-91.79 535.19,-81.19 528.79,-89.63 535.45,-91.79"/>
</g>
<!-- Node6&#45;&gt;Node11 -->
<g id="edge12" class="edge">
<title>Node6&#45;&gt;Node11</title>
<path fill="none" stroke="midnightblue" d="M547.81,-123.4C568.65,-113.86 596.38,-101.16 618.93,-90.84"/>
<polygon fill="midnightblue" stroke="midnightblue" points="620.61,-93.92 628.25,-86.58 617.7,-87.56 620.61,-93.92"/>
</g>
</g>
</svg>
