<?xml version="1.0" encoding="UTF-8" standalone="no"?>
<!DOCTYPE svg PUBLIC "-//W3C//DTD SVG 1.1//EN"
 "http://www.w3.org/Graphics/SVG/1.1/DTD/svg11.dtd">
<!-- Generated by graphviz version 12.2.1 (20250203.1708)
 -->
<!-- Title: include/proxsuite/linalg/veg/type_traits/core.hpp Pages: 1 -->
<svg width="929pt" height="307pt"
 viewBox="0.00 0.00 929.25 306.75" xmlns="http://www.w3.org/2000/svg" xmlns:xlink="http://www.w3.org/1999/xlink">
<g id="graph0" class="graph" transform="scale(1 1) rotate(0) translate(4 302.75)">
<title>include/proxsuite/linalg/veg/type_traits/core.hpp</title>
<!-- Node1 -->
<g id="Node000001" class="node">
<title>Node1</title>
<g id="a_Node000001"><a xlink:title=" ">
<polygon fill="#999999" stroke="#666666" points="738.38,-298.75 600.88,-298.75 600.88,-265.25 738.38,-265.25 738.38,-298.75"/>
<text text-anchor="start" x="608.88" y="-285.25" font-family="Helvetica,sans-Serif" font-size="10.00">include/proxsuite/linalg</text>
<text text-anchor="middle" x="669.62" y="-272.5" font-family="Helvetica,sans-Serif" font-size="10.00">/veg/type_traits/core.hpp</text>
</a>
</g>
</g>
<!-- Node2 -->
<g id="Node000002" class="node">
<title>Node2</title>
<g id="a_Node000002"><a xlink:href="typedefs_8hpp.html" target="_top" xlink:title=" ">
<polygon fill="white" stroke="#666666" points="123.25,-90.25 0,-90.25 0,-56.75 123.25,-56.75 123.25,-90.25"/>
<text text-anchor="start" x="8" y="-76.75" font-family="Helvetica,sans-Serif" font-size="10.00">proxsuite/linalg/veg</text>
<text text-anchor="middle" x="61.62" y="-64" font-family="Helvetica,sans-Serif" font-size="10.00">/internal/typedefs.hpp</text>
</a>
</g>
</g>
<!-- Node1&#45;&gt;Node2 -->
<g id="edge1_Node000001_Node000002" class="edge">
<title>Node1&#45;&gt;Node2</title>
<g id="a_edge1_Node000001_Node000002"><a xlink:title=" ">
<path fill="none" stroke="#63b8ff" d="M608.24,-264.82C528.33,-243.26 384.67,-202.79 264.62,-159.75 209.63,-140.03 147.94,-113.47 107.16,-95.27"/>
<polygon fill="#63b8ff" stroke="#63b8ff" points="108.68,-92.12 98.13,-91.22 105.82,-98.5 108.68,-92.12"/>
</a>
</g>
</g>
<!-- Node5 -->
<g id="Node000005" class="node">
<title>Node5</title>
<g id="a_Node000005"><a xlink:href="integer__seq_8hpp.html" target="_top" xlink:title=" ">
<polygon fill="white" stroke="#666666" points="690.38,-229.25 552.88,-229.25 552.88,-195.75 690.38,-195.75 690.38,-229.25"/>
<text text-anchor="start" x="560.88" y="-215.75" font-family="Helvetica,sans-Serif" font-size="10.00">proxsuite/linalg/veg</text>
<text text-anchor="middle" x="621.62" y="-203" font-family="Helvetica,sans-Serif" font-size="10.00">/internal/integer_seq.hpp</text>
</a>
</g>
</g>
<!-- Node1&#45;&gt;Node5 -->
<g id="edge4_Node000001_Node000005" class="edge">
<title>Node1&#45;&gt;Node5</title>
<g id="a_edge4_Node000001_Node000005"><a xlink:title=" ">
<path fill="none" stroke="#63b8ff" d="M658.25,-265C652.63,-257.1 645.72,-247.38 639.42,-238.53"/>
<polygon fill="#63b8ff" stroke="#63b8ff" points="642.44,-236.74 633.8,-230.62 636.74,-240.79 642.44,-236.74"/>
</a>
</g>
</g>
<!-- Node9 -->
<g id="Node000009" class="node">
<title>Node9</title>
<g id="a_Node000009"><a xlink:href="prologue_8hpp.html" target="_top" xlink:title=" ">
<polygon fill="white" stroke="#666666" points="921.25,-90.25 798,-90.25 798,-56.75 921.25,-56.75 921.25,-90.25"/>
<text text-anchor="start" x="806" y="-76.75" font-family="Helvetica,sans-Serif" font-size="10.00">proxsuite/linalg/veg</text>
<text text-anchor="middle" x="859.62" y="-64" font-family="Helvetica,sans-Serif" font-size="10.00">/internal/prologue.hpp</text>
</a>
</g>
</g>
<!-- Node1&#45;&gt;Node9 -->
<g id="edge16_Node000001_Node000009" class="edge">
<title>Node1&#45;&gt;Node9</title>
<g id="a_edge16_Node000001_Node000009"><a xlink:title=" ">
<path fill="none" stroke="#63b8ff" d="M684.35,-265.17C693.86,-254.93 706.49,-241.32 717.62,-229.25 760.16,-183.15 809.65,-129.13 837.54,-98.65"/>
<polygon fill="#63b8ff" stroke="#63b8ff" points="839.95,-101.2 844.12,-91.46 834.78,-96.47 839.95,-101.2"/>
</a>
</g>
</g>
<!-- Node12 -->
<g id="Node000012" class="node">
<title>Node12</title>
<g id="a_Node000012"><a xlink:href="epilogue_8hpp.html" target="_top" xlink:title=" ">
<polygon fill="white" stroke="#666666" points="779.88,-90.25 657.38,-90.25 657.38,-56.75 779.88,-56.75 779.88,-90.25"/>
<text text-anchor="start" x="665.38" y="-76.75" font-family="Helvetica,sans-Serif" font-size="10.00">proxsuite/linalg/veg</text>
<text text-anchor="middle" x="718.62" y="-64" font-family="Helvetica,sans-Serif" font-size="10.00">/internal/epilogue.hpp</text>
</a>
</g>
</g>
<!-- Node1&#45;&gt;Node12 -->
<g id="edge17_Node000001_Node000012" class="edge">
<title>Node1&#45;&gt;Node12</title>
<g id="a_edge17_Node000001_Node000012"><a xlink:title=" ">
<path fill="none" stroke="#63b8ff" d="M681.15,-265.03C687.66,-255.19 695.33,-242.05 699.62,-229.25 714.07,-186.21 717.74,-133.13 718.56,-101.65"/>
<polygon fill="#63b8ff" stroke="#63b8ff" points="722.05,-101.9 718.72,-91.84 715.05,-101.78 722.05,-101.9"/>
</a>
</g>
</g>
<!-- Node3 -->
<g id="Node000003" class="node">
<title>Node3</title>
<g id="a_Node000003"><a xlink:title=" ">
<polygon fill="#e0e0e0" stroke="#999999" points="52.12,-20.75 3.12,-20.75 3.12,0 52.12,0 52.12,-20.75"/>
<text text-anchor="middle" x="27.62" y="-7.25" font-family="Helvetica,sans-Serif" font-size="10.00">cstdint</text>
</a>
</g>
</g>
<!-- Node2&#45;&gt;Node3 -->
<g id="edge2_Node000002_Node000003" class="edge">
<title>Node2&#45;&gt;Node3</title>
<g id="a_edge2_Node000002_Node000003"><a xlink:title=" ">
<path fill="none" stroke="#63b8ff" d="M52.69,-56.44C48.37,-48.67 43.14,-39.27 38.58,-31.07"/>
<polygon fill="#63b8ff" stroke="#63b8ff" points="41.75,-29.58 33.84,-22.54 35.64,-32.98 41.75,-29.58"/>
</a>
</g>
</g>
<!-- Node4 -->
<g id="Node000004" class="node">
<title>Node4</title>
<g id="a_Node000004"><a xlink:title=" ">
<polygon fill="#e0e0e0" stroke="#999999" points="122.62,-20.75 70.62,-20.75 70.62,0 122.62,0 122.62,-20.75"/>
<text text-anchor="middle" x="96.62" y="-7.25" font-family="Helvetica,sans-Serif" font-size="10.00">cstddef</text>
</a>
</g>
</g>
<!-- Node2&#45;&gt;Node4 -->
<g id="edge3_Node000002_Node000004" class="edge">
<title>Node2&#45;&gt;Node4</title>
<g id="a_edge3_Node000002_Node000004"><a xlink:title=" ">
<path fill="none" stroke="#63b8ff" d="M70.82,-56.44C75.27,-48.67 80.65,-39.27 85.35,-31.07"/>
<polygon fill="#63b8ff" stroke="#63b8ff" points="88.31,-32.95 90.24,-22.53 82.23,-29.47 88.31,-32.95"/>
</a>
</g>
</g>
<!-- Node5&#45;&gt;Node2 -->
<g id="edge5_Node000005_Node000002" class="edge">
<title>Node5&#45;&gt;Node2</title>
<g id="a_edge5_Node000005_Node000002"><a xlink:title=" ">
<path fill="none" stroke="#63b8ff" d="M552.73,-195.88C508.62,-185.79 450.19,-172.25 398.62,-159.75 307.51,-137.66 202.88,-110.98 134.69,-93.42"/>
<polygon fill="#63b8ff" stroke="#63b8ff" points="135.67,-90.06 125.11,-90.96 133.92,-96.84 135.67,-90.06"/>
</a>
</g>
</g>
<!-- Node6 -->
<g id="Node000006" class="node">
<title>Node6</title>
<g id="a_Node000006"><a xlink:href="macros_8hpp.html" target="_top" xlink:title=" ">
<polygon fill="white" stroke="#666666" points="523.88,-159.75 407.38,-159.75 407.38,-126.25 523.88,-126.25 523.88,-159.75"/>
<text text-anchor="start" x="415.38" y="-146.25" font-family="Helvetica,sans-Serif" font-size="10.00">proxsuite/linalg/veg</text>
<text text-anchor="middle" x="465.62" y="-133.5" font-family="Helvetica,sans-Serif" font-size="10.00">/internal/macros.hpp</text>
</a>
</g>
</g>
<!-- Node5&#45;&gt;Node6 -->
<g id="edge6_Node000005_Node000006" class="edge">
<title>Node5&#45;&gt;Node6</title>
<g id="a_edge6_Node000005_Node000006"><a xlink:title=" ">
<path fill="none" stroke="#63b8ff" d="M584.26,-195.33C563.02,-186.14 536.19,-174.53 513.43,-164.68"/>
<polygon fill="#63b8ff" stroke="#63b8ff" points="514.91,-161.51 504.35,-160.75 512.13,-167.94 514.91,-161.51"/>
</a>
</g>
</g>
<!-- Node5&#45;&gt;Node9 -->
<g id="edge14_Node000005_Node000009" class="edge">
<title>Node5&#45;&gt;Node9</title>
<g id="a_edge14_Node000005_Node000009"><a xlink:title=" ">
<path fill="none" stroke="#63b8ff" d="M649.39,-195.52C692.09,-170.94 773.96,-123.81 821.96,-96.18"/>
<polygon fill="#63b8ff" stroke="#63b8ff" points="823.43,-99.37 830.35,-91.35 819.94,-93.3 823.43,-99.37"/>
</a>
</g>
</g>
<!-- Node5&#45;&gt;Node12 -->
<g id="edge15_Node000005_Node000012" class="edge">
<title>Node5&#45;&gt;Node12</title>
<g id="a_edge15_Node000005_Node000012"><a xlink:title=" ">
<path fill="none" stroke="#63b8ff" d="M627,-195.39C633.47,-177.44 645.5,-148.08 661.62,-126.25 669.15,-116.07 678.91,-106.33 688.22,-98.11"/>
<polygon fill="#63b8ff" stroke="#63b8ff" points="690.41,-100.85 695.77,-91.71 685.88,-95.51 690.41,-100.85"/>
</a>
</g>
</g>
<!-- Node6&#45;&gt;Node2 -->
<g id="edge8_Node000006_Node000002" class="edge">
<title>Node6&#45;&gt;Node2</title>
<g id="a_edge8_Node000006_Node000002"><a xlink:title=" ">
<path fill="none" stroke="#63b8ff" d="M407.08,-134.06C342.77,-125.08 236.18,-109.44 134.61,-90.55"/>
<polygon fill="#63b8ff" stroke="#63b8ff" points="135.49,-87.16 125.02,-88.76 134.2,-94.04 135.49,-87.16"/>
</a>
</g>
</g>
<!-- Node7 -->
<g id="Node000007" class="node">
<title>Node7</title>
<g id="a_Node000007"><a xlink:href="hedley_8ext_8hpp.html" target="_top" xlink:title=" ">
<polygon fill="white" stroke="#666666" points="477.75,-90.25 303.5,-90.25 303.5,-56.75 477.75,-56.75 477.75,-90.25"/>
<text text-anchor="start" x="311.5" y="-76.75" font-family="Helvetica,sans-Serif" font-size="10.00">proxsuite/linalg/veg</text>
<text text-anchor="middle" x="390.62" y="-64" font-family="Helvetica,sans-Serif" font-size="10.00">/internal/external/hedley.ext.hpp</text>
</a>
</g>
</g>
<!-- Node6&#45;&gt;Node7 -->
<g id="edge7_Node000006_Node000007" class="edge">
<title>Node6&#45;&gt;Node7</title>
<g id="a_edge7_Node000006_Node000007"><a xlink:title=" ">
<path fill="none" stroke="#63b8ff" d="M447.85,-126C438.58,-117.66 427.06,-107.29 416.79,-98.05"/>
<polygon fill="#63b8ff" stroke="#63b8ff" points="419.43,-95.72 409.66,-91.63 414.75,-100.92 419.43,-95.72"/>
</a>
</g>
</g>
<!-- Node8 -->
<g id="Node000008" class="node">
<title>Node8</title>
<g id="a_Node000008"><a xlink:href="preprocessor_8hpp.html" target="_top" xlink:title=" ">
<polygon fill="white" stroke="#666666" points="639,-90.25 496.25,-90.25 496.25,-56.75 639,-56.75 639,-90.25"/>
<text text-anchor="start" x="504.25" y="-76.75" font-family="Helvetica,sans-Serif" font-size="10.00">proxsuite/linalg/veg</text>
<text text-anchor="middle" x="567.62" y="-64" font-family="Helvetica,sans-Serif" font-size="10.00">/internal/preprocessor.hpp</text>
</a>
</g>
</g>
<!-- Node6&#45;&gt;Node8 -->
<g id="edge9_Node000006_Node000008" class="edge">
<title>Node6&#45;&gt;Node8</title>
<g id="a_edge9_Node000006_Node000008"><a xlink:title=" ">
<path fill="none" stroke="#63b8ff" d="M490.06,-125.83C503.18,-117.15 519.55,-106.31 533.87,-96.84"/>
<polygon fill="#63b8ff" stroke="#63b8ff" points="535.72,-99.81 542.13,-91.37 531.86,-93.97 535.72,-99.81"/>
</a>
</g>
</g>
<!-- Node6&#45;&gt;Node9 -->
<g id="edge10_Node000006_Node000009" class="edge">
<title>Node6&#45;&gt;Node9</title>
<g id="a_edge10_Node000006_Node000009"><a xlink:title=" ">
<path fill="none" stroke="#63b8ff" d="M524.16,-133.69C586.6,-124.59 688.66,-109.03 786.43,-90.6"/>
<polygon fill="#63b8ff" stroke="#63b8ff" points="787.06,-94.05 796.23,-88.74 785.75,-87.17 787.06,-94.05"/>
</a>
</g>
</g>
<!-- Node10 -->
<g id="Node000010" class="node">
<title>Node10</title>
<g id="a_Node000010"><a xlink:title=" ">
<polygon fill="#e0e0e0" stroke="#999999" points="223.62,-83.88 141.62,-83.88 141.62,-63.12 223.62,-63.12 223.62,-83.88"/>
<text text-anchor="middle" x="182.62" y="-70.38" font-family="Helvetica,sans-Serif" font-size="10.00">initializer_list</text>
</a>
</g>
</g>
<!-- Node6&#45;&gt;Node10 -->
<g id="edge11_Node000006_Node000010" class="edge">
<title>Node6&#45;&gt;Node10</title>
<g id="a_edge11_Node000006_Node000010"><a xlink:title=" ">
<path fill="none" stroke="#63b8ff" d="M407.36,-130.52C360.02,-120.84 291.66,-106.07 232.62,-90.25 229.53,-89.42 226.35,-88.52 223.16,-87.59"/>
<polygon fill="#63b8ff" stroke="#63b8ff" points="224.41,-84.31 213.83,-84.77 222.39,-91.02 224.41,-84.31"/>
</a>
</g>
</g>
<!-- Node11 -->
<g id="Node000011" class="node">
<title>Node11</title>
<g id="a_Node000011"><a xlink:title=" ">
<polygon fill="#e0e0e0" stroke="#999999" points="285.88,-83.88 241.38,-83.88 241.38,-63.12 285.88,-63.12 285.88,-83.88"/>
<text text-anchor="middle" x="263.62" y="-70.38" font-family="Helvetica,sans-Serif" font-size="10.00">utility</text>
</a>
</g>
</g>
<!-- Node6&#45;&gt;Node11 -->
<g id="edge12_Node000006_Node000011" class="edge">
<title>Node6&#45;&gt;Node11</title>
<g id="a_edge12_Node000006_Node000011"><a xlink:title=" ">
<path fill="none" stroke="#63b8ff" d="M406.97,-127.01C373.55,-117.78 331.18,-104.93 294.62,-90.25 293.69,-89.88 292.75,-89.48 291.81,-89.08"/>
<polygon fill="#63b8ff" stroke="#63b8ff" points="293.65,-86.08 283.11,-85.01 290.69,-92.42 293.65,-86.08"/>
</a>
</g>
</g>
<!-- Node6&#45;&gt;Node12 -->
<g id="edge13_Node000006_Node000012" class="edge">
<title>Node6&#45;&gt;Node12</title>
<g id="a_edge13_Node000006_Node000012"><a xlink:title=" ">
<path fill="none" stroke="#63b8ff" d="M524.3,-126.34C561,-116.55 608.5,-103.88 647.35,-93.52"/>
<polygon fill="#63b8ff" stroke="#63b8ff" points="647.84,-97.01 656.6,-91.05 646.04,-90.24 647.84,-97.01"/>
</a>
</g>
</g>
</g>
</svg>
