<?xml version="1.0" encoding="UTF-8" standalone="no"?>
<!DOCTYPE svg PUBLIC "-//W3C//DTD SVG 1.1//EN"
 "http://www.w3.org/Graphics/SVG/1.1/DTD/svg11.dtd">
<!-- Generated by graphviz version 6.0.2 (20221126.1951)
 -->
<!-- Title: include/proxsuite/linalg/veg/type_traits/core.hpp Pages: 1 -->
<svg width="871pt" height="291pt"
 viewBox="0.00 0.00 871.00 291.00" xmlns="http://www.w3.org/2000/svg" xmlns:xlink="http://www.w3.org/1999/xlink">
<g id="graph0" class="graph" transform="scale(1 1) rotate(0) translate(4 287)">
<title>include/proxsuite/linalg/veg/type_traits/core.hpp</title>
<!-- Node1 -->
<g id="node1" class="node">
<title>Node1</title>
<g id="a_node1"><a xlink:title=" ">
<polygon fill="#999999" stroke="#666666" points="700,-283 562,-283 562,-253 700,-253 700,-283"/>
<text text-anchor="start" x="570" y="-271" font-family="Helvetica,sans-Serif" font-size="10.00">include/proxsuite/linalg</text>
<text text-anchor="middle" x="631" y="-260" font-family="Helvetica,sans-Serif" font-size="10.00">/veg/type_traits/core.hpp</text>
</a>
</g>
</g>
<!-- Node2 -->
<g id="node2" class="node">
<title>Node2</title>
<g id="a_node2"><a xlink:href="typedefs_8hpp.html" target="_top" xlink:title=" ">
<polygon fill="white" stroke="#666666" points="124,-85 0,-85 0,-55 124,-55 124,-85"/>
<text text-anchor="start" x="8" y="-73" font-family="Helvetica,sans-Serif" font-size="10.00">proxsuite/linalg/veg</text>
<text text-anchor="middle" x="62" y="-62" font-family="Helvetica,sans-Serif" font-size="10.00">/internal/typedefs.hpp</text>
</a>
</g>
</g>
<!-- Node1&#45;&gt;Node2 -->
<g id="edge1" class="edge">
<title>Node1&#45;&gt;Node2</title>
<path fill="none" stroke="#63b8ff" d="M584.84,-252.92C516.25,-231.81 383.53,-190.23 272,-151 214.47,-130.76 148.89,-105.41 106.55,-88.74"/>
<polygon fill="#63b8ff" stroke="#63b8ff" points="107.68,-85.42 97.09,-85 105.11,-91.93 107.68,-85.42"/>
</g>
<!-- Node5 -->
<g id="node5" class="node">
<title>Node5</title>
<g id="a_node5"><a xlink:href="integer__seq_8hpp.html" target="_top" xlink:title=" ">
<polygon fill="white" stroke="#666666" points="652,-217 514,-217 514,-187 652,-187 652,-217"/>
<text text-anchor="start" x="522" y="-205" font-family="Helvetica,sans-Serif" font-size="10.00">proxsuite/linalg/veg</text>
<text text-anchor="middle" x="583" y="-194" font-family="Helvetica,sans-Serif" font-size="10.00">/internal/integer_seq.hpp</text>
</a>
</g>
</g>
<!-- Node1&#45;&gt;Node5 -->
<g id="edge4" class="edge">
<title>Node1&#45;&gt;Node5</title>
<path fill="none" stroke="#63b8ff" d="M620.35,-252.8C614.32,-244.76 606.64,-234.53 599.82,-225.43"/>
<polygon fill="#63b8ff" stroke="#63b8ff" points="602.42,-223.06 593.62,-217.16 596.82,-227.26 602.42,-223.06"/>
</g>
<!-- Node9 -->
<g id="node9" class="node">
<title>Node9</title>
<g id="a_node9"><a xlink:href="prologue_8hpp.html" target="_top" xlink:title=" ">
<polygon fill="white" stroke="#666666" points="863,-85 739,-85 739,-55 863,-55 863,-85"/>
<text text-anchor="start" x="747" y="-73" font-family="Helvetica,sans-Serif" font-size="10.00">proxsuite/linalg/veg</text>
<text text-anchor="middle" x="801" y="-62" font-family="Helvetica,sans-Serif" font-size="10.00">/internal/prologue.hpp</text>
</a>
</g>
</g>
<!-- Node1&#45;&gt;Node9 -->
<g id="edge15" class="edge">
<title>Node1&#45;&gt;Node9</title>
<path fill="none" stroke="#63b8ff" d="M644.44,-252.7C653.69,-242.77 666.22,-229.2 677,-217 715.29,-173.69 758.76,-121.87 782.71,-93.08"/>
<polygon fill="#63b8ff" stroke="#63b8ff" points="785.52,-95.18 789.21,-85.25 780.13,-90.71 785.52,-95.18"/>
</g>
<!-- Node11 -->
<g id="node11" class="node">
<title>Node11</title>
<g id="a_node11"><a xlink:href="epilogue_8hpp.html" target="_top" xlink:title=" ">
<polygon fill="white" stroke="#666666" points="720.5,-85 597.5,-85 597.5,-55 720.5,-55 720.5,-85"/>
<text text-anchor="start" x="605.5" y="-73" font-family="Helvetica,sans-Serif" font-size="10.00">proxsuite/linalg/veg</text>
<text text-anchor="middle" x="659" y="-62" font-family="Helvetica,sans-Serif" font-size="10.00">/internal/epilogue.hpp</text>
</a>
</g>
</g>
<!-- Node1&#45;&gt;Node11 -->
<g id="edge16" class="edge">
<title>Node1&#45;&gt;Node11</title>
<path fill="none" stroke="#63b8ff" d="M642.48,-252.66C649.33,-243.16 657.38,-230.07 661,-217 672.52,-175.41 667.83,-124.56 663.4,-95.17"/>
<polygon fill="#63b8ff" stroke="#63b8ff" points="666.81,-94.33 661.75,-85.02 659.9,-95.45 666.81,-94.33"/>
</g>
<!-- Node3 -->
<g id="node3" class="node">
<title>Node3</title>
<g id="a_node3"><a xlink:title=" ">
<polygon fill="#e0e0e0" stroke="#999999" points="52,-19 2,-19 2,0 52,0 52,-19"/>
<text text-anchor="middle" x="27" y="-7" font-family="Helvetica,sans-Serif" font-size="10.00">cstdint</text>
</a>
</g>
</g>
<!-- Node2&#45;&gt;Node3 -->
<g id="edge2" class="edge">
<title>Node2&#45;&gt;Node3</title>
<path fill="none" stroke="#63b8ff" d="M53.53,-54.84C48.71,-46.78 42.63,-36.62 37.5,-28.06"/>
<polygon fill="#63b8ff" stroke="#63b8ff" points="40.38,-26.05 32.24,-19.27 34.38,-29.64 40.38,-26.05"/>
</g>
<!-- Node4 -->
<g id="node4" class="node">
<title>Node4</title>
<g id="a_node4"><a xlink:title=" ">
<polygon fill="#e0e0e0" stroke="#999999" points="123.5,-19 70.5,-19 70.5,0 123.5,0 123.5,-19"/>
<text text-anchor="middle" x="97" y="-7" font-family="Helvetica,sans-Serif" font-size="10.00">cstddef</text>
</a>
</g>
</g>
<!-- Node2&#45;&gt;Node4 -->
<g id="edge3" class="edge">
<title>Node2&#45;&gt;Node4</title>
<path fill="none" stroke="#63b8ff" d="M70.47,-54.84C75.29,-46.78 81.37,-36.62 86.5,-28.06"/>
<polygon fill="#63b8ff" stroke="#63b8ff" points="89.62,-29.64 91.76,-19.27 83.62,-26.05 89.62,-29.64"/>
</g>
<!-- Node5&#45;&gt;Node2 -->
<g id="edge5" class="edge">
<title>Node5&#45;&gt;Node2</title>
<path fill="none" stroke="#63b8ff" d="M526.75,-186.96C429.76,-162.76 231.54,-113.3 128.12,-87.5"/>
<polygon fill="#63b8ff" stroke="#63b8ff" points="128.96,-84.1 118.41,-85.08 127.27,-90.89 128.96,-84.1"/>
</g>
<!-- Node6 -->
<g id="node6" class="node">
<title>Node6</title>
<g id="a_node6"><a xlink:href="macros_8hpp.html" target="_top" xlink:title=" ">
<polygon fill="white" stroke="#666666" points="575.5,-151 458.5,-151 458.5,-121 575.5,-121 575.5,-151"/>
<text text-anchor="start" x="466.5" y="-139" font-family="Helvetica,sans-Serif" font-size="10.00">proxsuite/linalg/veg</text>
<text text-anchor="middle" x="517" y="-128" font-family="Helvetica,sans-Serif" font-size="10.00">/internal/macros.hpp</text>
</a>
</g>
</g>
<!-- Node5&#45;&gt;Node6 -->
<g id="edge6" class="edge">
<title>Node5&#45;&gt;Node6</title>
<path fill="none" stroke="#63b8ff" d="M568.35,-186.8C559.72,-178.43 548.64,-167.68 538.98,-158.31"/>
<polygon fill="#63b8ff" stroke="#63b8ff" points="541.22,-155.61 531.61,-151.16 536.35,-160.64 541.22,-155.61"/>
</g>
<!-- Node5&#45;&gt;Node9 -->
<g id="edge13" class="edge">
<title>Node5&#45;&gt;Node9</title>
<path fill="none" stroke="#63b8ff" d="M606.74,-186.84C645.98,-163.45 724.38,-116.69 768.65,-90.29"/>
<polygon fill="#63b8ff" stroke="#63b8ff" points="770.49,-93.27 777.28,-85.14 766.9,-87.26 770.49,-93.27"/>
</g>
<!-- Node5&#45;&gt;Node11 -->
<g id="edge14" class="edge">
<title>Node5&#45;&gt;Node11</title>
<path fill="none" stroke="#63b8ff" d="M590.79,-186.73C599.62,-170.65 614.54,-143.77 628,-121 633.27,-112.09 639.22,-102.4 644.49,-93.94"/>
<polygon fill="#63b8ff" stroke="#63b8ff" points="647.54,-95.67 649.88,-85.34 641.61,-91.96 647.54,-95.67"/>
</g>
<!-- Node6&#45;&gt;Node2 -->
<g id="edge8" class="edge">
<title>Node6&#45;&gt;Node2</title>
<path fill="none" stroke="#63b8ff" d="M458.28,-128.56C384.86,-120.24 255.12,-104.65 134.45,-85.17"/>
<polygon fill="#63b8ff" stroke="#63b8ff" points="134.73,-81.67 124.3,-83.52 133.6,-88.58 134.73,-81.67"/>
</g>
<!-- Node7 -->
<g id="node7" class="node">
<title>Node7</title>
<g id="a_node7"><a xlink:href="hedley_8ext_8hpp.html" target="_top" xlink:title=" ">
<polygon fill="white" stroke="#666666" points="317.5,-85 142.5,-85 142.5,-55 317.5,-55 317.5,-85"/>
<text text-anchor="start" x="150.5" y="-73" font-family="Helvetica,sans-Serif" font-size="10.00">proxsuite/linalg/veg</text>
<text text-anchor="middle" x="230" y="-62" font-family="Helvetica,sans-Serif" font-size="10.00">/internal/external/hedley.ext.hpp</text>
</a>
</g>
</g>
<!-- Node6&#45;&gt;Node7 -->
<g id="edge7" class="edge">
<title>Node6&#45;&gt;Node7</title>
<path fill="none" stroke="#63b8ff" d="M458.23,-121.89C413.29,-111.87 351.09,-98 302.97,-87.27"/>
<polygon fill="#63b8ff" stroke="#63b8ff" points="303.44,-83.79 292.92,-85.03 301.92,-90.62 303.44,-83.79"/>
</g>
<!-- Node8 -->
<g id="node8" class="node">
<title>Node8</title>
<g id="a_node8"><a xlink:href="preprocessor_8hpp.html" target="_top" xlink:title=" ">
<polygon fill="white" stroke="#666666" points="478.5,-85 335.5,-85 335.5,-55 478.5,-55 478.5,-85"/>
<text text-anchor="start" x="343.5" y="-73" font-family="Helvetica,sans-Serif" font-size="10.00">proxsuite/linalg/veg</text>
<text text-anchor="middle" x="407" y="-62" font-family="Helvetica,sans-Serif" font-size="10.00">/internal/preprocessor.hpp</text>
</a>
</g>
</g>
<!-- Node6&#45;&gt;Node8 -->
<g id="edge9" class="edge">
<title>Node6&#45;&gt;Node8</title>
<path fill="none" stroke="#63b8ff" d="M492.86,-120.95C477.39,-111.95 457.09,-100.14 440.12,-90.27"/>
<polygon fill="#63b8ff" stroke="#63b8ff" points="441.49,-87.02 431.08,-85.01 437.97,-93.07 441.49,-87.02"/>
</g>
<!-- Node6&#45;&gt;Node9 -->
<g id="edge10" class="edge">
<title>Node6&#45;&gt;Node9</title>
<path fill="none" stroke="#63b8ff" d="M575.5,-121.82C619.92,-111.81 681.24,-97.99 728.73,-87.29"/>
<polygon fill="#63b8ff" stroke="#63b8ff" points="729.65,-90.67 738.64,-85.05 728.11,-83.84 729.65,-90.67"/>
</g>
<!-- Node10 -->
<g id="node10" class="node">
<title>Node10</title>
<g id="a_node10"><a xlink:title=" ">
<polygon fill="#e0e0e0" stroke="#999999" points="579.5,-79.5 496.5,-79.5 496.5,-60.5 579.5,-60.5 579.5,-79.5"/>
<text text-anchor="middle" x="538" y="-67.5" font-family="Helvetica,sans-Serif" font-size="10.00">initializer_list</text>
</a>
</g>
</g>
<!-- Node6&#45;&gt;Node10 -->
<g id="edge11" class="edge">
<title>Node6&#45;&gt;Node10</title>
<path fill="none" stroke="#63b8ff" d="M521.66,-120.8C524.68,-111.6 528.64,-99.53 531.9,-89.58"/>
<polygon fill="#63b8ff" stroke="#63b8ff" points="535.31,-90.44 535.1,-79.84 528.65,-88.25 535.31,-90.44"/>
</g>
<!-- Node6&#45;&gt;Node11 -->
<g id="edge12" class="edge">
<title>Node6&#45;&gt;Node11</title>
<path fill="none" stroke="#63b8ff" d="M548.16,-120.95C568.88,-111.62 596.29,-99.27 618.66,-89.18"/>
<polygon fill="#63b8ff" stroke="#63b8ff" points="620.23,-92.31 627.91,-85.01 617.36,-85.93 620.23,-92.31"/>
</g>
</g>
</svg>
