<?xml version="1.0" encoding="UTF-8" standalone="no"?>
<!DOCTYPE svg PUBLIC "-//W3C//DTD SVG 1.1//EN"
 "http://www.w3.org/Graphics/SVG/1.1/DTD/svg11.dtd">
<!-- Generated by graphviz version 11.0.0 (20240519.1550)
 -->
<!-- Title: include/proxsuite/helpers/version.hpp Pages: 1 -->
<svg width="258pt" height="98pt"
 viewBox="0.00 0.00 258.38 98.25" xmlns="http://www.w3.org/2000/svg" xmlns:xlink="http://www.w3.org/1999/xlink">
<g id="graph0" class="graph" transform="scale(1 1) rotate(0) translate(4 94.25)">
<title>include/proxsuite/helpers/version.hpp</title>
<!-- Node1 -->
<g id="Node000001" class="node">
<title>Node1</title>
<g id="a_Node000001"><a xlink:title=" ">
<polygon fill="#999999" stroke="#666666" points="224,-90.25 85,-90.25 85,-56.75 224,-56.75 224,-90.25"/>
<text text-anchor="start" x="93" y="-76.75" font-family="Helvetica,sans-Serif" font-size="10.00">include/proxsuite/helpers</text>
<text text-anchor="middle" x="154.5" y="-64" font-family="Helvetica,sans-Serif" font-size="10.00">/version.hpp</text>
</a>
</g>
</g>
<!-- Node2 -->
<g id="Node000002" class="node">
<title>Node2</title>
<g id="a_Node000002"><a xlink:title=" ">
<polygon fill="#e0e0e0" stroke="#999999" points="115,-20.75 0,-20.75 0,0 115,0 115,-20.75"/>
<text text-anchor="middle" x="57.5" y="-7.25" font-family="Helvetica,sans-Serif" font-size="10.00">proxsuite/config.hpp</text>
</a>
</g>
</g>
<!-- Node1&#45;&gt;Node2 -->
<g id="edge1_Node000001_Node000002" class="edge">
<title>Node1&#45;&gt;Node2</title>
<g id="a_edge1_Node000001_Node000002"><a xlink:title=" ">
<path fill="none" stroke="#63b8ff" d="M128.76,-56.28C114.49,-47.29 96.82,-36.15 82.64,-27.22"/>
<polygon fill="#63b8ff" stroke="#63b8ff" points="84.64,-24.34 74.32,-21.97 80.91,-30.26 84.64,-24.34"/>
</a>
</g>
</g>
<!-- Node3 -->
<g id="Node000003" class="node">
<title>Node3</title>
<g id="a_Node000003"><a xlink:title=" ">
<polygon fill="#e0e0e0" stroke="#999999" points="176.38,-20.75 132.62,-20.75 132.62,0 176.38,0 176.38,-20.75"/>
<text text-anchor="middle" x="154.5" y="-7.25" font-family="Helvetica,sans-Serif" font-size="10.00">string</text>
</a>
</g>
</g>
<!-- Node1&#45;&gt;Node3 -->
<g id="edge2_Node000001_Node000003" class="edge">
<title>Node1&#45;&gt;Node3</title>
<g id="a_edge2_Node000001_Node000003"><a xlink:title=" ">
<path fill="none" stroke="#63b8ff" d="M154.5,-56.44C154.5,-49.1 154.5,-40.32 154.5,-32.46"/>
<polygon fill="#63b8ff" stroke="#63b8ff" points="158,-32.73 154.5,-22.73 151,-32.73 158,-32.73"/>
</a>
</g>
</g>
<!-- Node4 -->
<g id="Node000004" class="node">
<title>Node4</title>
<g id="a_Node000004"><a xlink:title=" ">
<polygon fill="#e0e0e0" stroke="#999999" points="250.38,-20.75 194.62,-20.75 194.62,0 250.38,0 250.38,-20.75"/>
<text text-anchor="middle" x="222.5" y="-7.25" font-family="Helvetica,sans-Serif" font-size="10.00">sstream</text>
</a>
</g>
</g>
<!-- Node1&#45;&gt;Node4 -->
<g id="edge3_Node000001_Node000004" class="edge">
<title>Node1&#45;&gt;Node4</title>
<g id="a_edge3_Node000001_Node000004"><a xlink:title=" ">
<path fill="none" stroke="#63b8ff" d="M172.37,-56.44C181.79,-47.97 193.36,-37.56 203.02,-28.89"/>
<polygon fill="#63b8ff" stroke="#63b8ff" points="205.33,-31.52 210.43,-22.23 200.65,-26.31 205.33,-31.52"/>
</a>
</g>
</g>
</g>
</svg>
